<svg width="120" height="120" viewBox="0 0 120 120" fill="none" xmlns="http://www.w3.org/2000/svg">
<path fill-rule="evenodd" clip-rule="evenodd" d="M73.0525 23.1923C66.1407 19.0635 58.1864 16.8261 50 16.8164C41.0999 16.8164 32.3996 19.4556 24.9994 24.4003C17.5991 29.3449 11.8314 36.373 8.42544 44.5956C5.0195 52.8183 4.12835 61.8663 5.86468 70.5955C7.60102 79.3246 11.8869 87.3428 18.1802 93.6362C24.4736 99.9296 32.4918 104.215 41.221 105.952C49.9501 107.688 58.9981 106.797 67.2208 103.391C75.4435 99.985 82.4715 94.2173 87.4162 86.8171C91.593 80.5659 94.1248 73.3871 94.8104 65.9437C93.3145 66.5078 91.6933 66.8164 90 66.8164C82.4688 66.8164 76.3636 60.7112 76.3636 53.18V50.4528H73.6364C66.1052 50.4528 60 44.3476 60 36.8164C60 29.4808 65.7922 23.4981 73.0525 23.1923ZM62.2728 78.1792C63.3575 78.1792 64.3979 77.7483 65.165 76.9814C65.9319 76.2142 66.3628 75.1739 66.3628 74.0891C66.3628 73.0044 65.9319 71.964 65.165 71.1969L54.0909 60.1228V37.271C54.0909 36.186 53.6599 35.1454 52.8927 34.3782C52.1255 33.611 51.085 33.18 50 33.18C48.915 33.18 47.8745 33.611 47.1073 34.3782C46.3401 35.1454 45.9091 36.186 45.9091 37.271V61.8164C45.9093 62.9013 46.3405 63.9417 47.1077 64.7087L59.3805 76.9814C60.1476 77.7483 61.188 78.1792 62.2728 78.1792Z" fill="#FAAC2E"/>
<path d="M95.4563 20.4545C95.4563 17.4421 93.0142 15 90.0018 15L-nan -nanL90.0018 15C86.9893 15 84.5472 17.4421 84.5472 20.4545V31.3636H73.6381C70.6257 31.3636 68.1836 33.8057 68.1836 36.8182L-nan -nanL68.1836 36.8182C68.1836 39.8306 70.6257 42.2727 73.6381 42.2727H84.5472V53.1818C84.5472 56.1943 86.9893 58.6364 90.0018 58.6364L-nan -nanL90.0018 58.6364C93.0142 58.6364 95.4563 56.1943 95.4563 53.1818V42.2727H106.365C109.378 42.2727 111.82 39.8306 111.82 36.8182L-nan -nanL111.82 36.8182C111.82 33.8057 109.378 31.3636 106.365 31.3636H95.4563V20.4545Z" fill="#FAAC2E"/>
</svg>
