<svg width="120" height="120" viewBox="0 0 120 120" fill="none" xmlns="http://www.w3.org/2000/svg">
<path d="M60 22.5C39.3375 22.5 22.5 39.3375 22.5 60C22.5 80.6625 39.3375 97.5 60 97.5C80.6625 97.5 97.5 80.6625 97.5 60C97.5 39.3375 80.6625 22.5 60 22.5ZM72.6 68.625C73.6875 69.7125 73.6875 71.5125 72.6 72.6C72.0375 73.1625 71.325 73.425 70.6125 73.425C69.9 73.425 69.1875 73.1625 68.625 72.6L60 63.975L51.375 72.6C50.8125 73.1625 50.1 73.425 49.3875 73.425C48.675 73.425 47.9625 73.1625 47.4 72.6C46.3125 71.5125 46.3125 69.7125 47.4 68.625L56.025 60L47.4 51.375C46.3125 50.2875 46.3125 48.4875 47.4 47.4C48.4875 46.3125 50.2875 46.3125 51.375 47.4L60 56.025L68.625 47.4C69.7125 46.3125 71.5125 46.3125 72.6 47.4C73.6875 48.4875 73.6875 50.2875 72.6 51.375L63.975 60L72.6 68.625Z" fill="#EE543E"/>
<path fill-rule="evenodd" clip-rule="evenodd" d="M59.4793 8.50258C59.6527 8.50086 59.8262 8.5 60 8.5C60.1738 8.5 60.3473 8.50086 60.5207 8.50258C61.3491 8.51079 62.014 9.18898 62.0057 10.0174C61.9975 10.8458 61.3193 11.5106 60.491 11.5024C60.3275 11.5008 60.1639 11.5 60 11.5C59.8362 11.5 59.6725 11.5008 59.509 11.5024C58.6807 11.5106 58.0025 10.8458 57.9942 10.0174C57.986 9.18899 58.6509 8.51079 59.4793 8.50258ZM64.0384 10.1382C64.129 9.31479 64.87 8.72068 65.6935 8.81127C66.0382 8.8492 66.3818 8.89052 66.7245 8.93521C67.5459 9.04237 68.125 9.79516 68.0179 10.6166C67.9107 11.4381 67.1579 12.0172 66.3364 11.91C66.0138 11.8679 65.6901 11.829 65.3654 11.7933C64.5419 11.7027 63.9478 10.9617 64.0384 10.1382ZM55.9616 10.1382C56.0522 10.9617 55.4581 11.7027 54.6346 11.7933C54.3099 11.829 53.9862 11.8679 53.6636 11.91C52.8421 12.0172 52.0893 11.4381 51.9821 10.6166C51.875 9.79517 52.454 9.04237 53.2755 8.93522C53.6182 8.89052 53.9618 8.8492 54.3065 8.81127C55.13 8.72068 55.871 9.31479 55.9616 10.1382ZM70.0213 10.9814C70.2108 10.1749 71.0181 9.67479 71.8246 9.86429C72.1611 9.94335 72.4963 10.0257 72.8302 10.1113C73.6326 10.3171 74.1163 11.1345 73.9105 11.9369C73.7048 12.7394 72.8874 13.2231 72.0849 13.0173C71.7706 12.9367 71.4551 12.8592 71.1384 12.7847C70.3319 12.5952 69.8318 11.7879 70.0213 10.9814ZM49.9787 10.9814C50.1682 11.7879 49.6681 12.5953 48.8616 12.7847C48.5449 12.8592 48.2293 12.9367 47.915 13.0173C47.1126 13.2231 46.2952 12.7394 46.0895 11.9369C45.8837 11.1345 46.3674 10.3171 47.1698 10.1113C47.5037 10.0257 47.8389 9.94335 48.1754 9.86429C48.9818 9.67479 49.7892 10.1749 49.9787 10.9814ZM75.8555 12.5424C76.1416 11.7649 77.0037 11.3665 77.7812 11.6525C78.1065 11.7722 78.4302 11.895 78.7523 12.021C79.5238 12.3228 79.9046 13.1929 79.6029 13.9644C79.3011 14.7359 78.4311 15.1167 77.6596 14.8149C77.3563 14.6963 77.0516 14.5807 76.7454 14.468C75.9679 14.182 75.5695 13.3198 75.8555 12.5424ZM44.1445 12.5424C44.4305 13.3199 44.0321 14.182 43.2546 14.468C42.9484 14.5807 42.6437 14.6963 42.3404 14.8149C41.5689 15.1167 40.6989 14.7359 40.3971 13.9644C40.0953 13.1929 40.4762 12.3228 41.2477 12.021C41.5698 11.895 41.8935 11.7722 42.2188 11.6525C42.9963 11.3665 43.8584 11.7649 44.1445 12.5424ZM81.4595 14.8014C81.8377 14.0643 82.7418 13.7734 83.4789 14.1516C83.7865 14.3094 84.0923 14.4703 84.3963 14.6341C85.1256 15.0271 85.3982 15.9368 85.0053 16.6661C84.6123 17.3954 83.7025 17.668 82.9732 17.275C82.687 17.1208 82.399 16.9693 82.1093 16.8207C81.3723 16.4425 81.0813 15.5384 81.4595 14.8014ZM38.5405 14.8014C38.9186 15.5384 38.6277 16.4425 37.8907 16.8207C37.601 16.9693 37.313 17.1208 37.0268 17.275C36.2975 17.668 35.3877 17.3954 34.9947 16.6661C34.6017 15.9368 34.8744 15.0271 35.6037 14.6341C35.9076 14.4703 36.2135 14.3094 36.5211 14.1516C37.2582 13.7734 38.1623 14.0643 38.5405 14.8014ZM86.7473 17.7215C87.2116 17.0354 88.1442 16.8557 88.8302 17.32C89.1168 17.5139 89.4013 17.7107 89.6837 17.9102C90.3603 18.3882 90.5212 19.3242 90.0432 20.0008C89.5652 20.6774 88.6292 20.8384 87.9526 20.3604C87.6866 20.1724 87.4187 19.9871 87.1488 19.8045C86.4627 19.3401 86.2829 18.4076 86.7473 17.7215ZM33.2527 17.7215C33.7171 18.4076 33.5373 19.3402 32.8512 19.8045C32.5813 19.9871 32.3134 20.1724 32.0474 20.3604C31.3708 20.8384 30.4348 20.6774 29.9568 20.0008C29.4787 19.3242 29.6397 18.3882 30.3163 17.9102C30.5987 17.7107 30.8832 17.5139 31.1698 17.32C31.8558 16.8557 32.7884 17.0354 33.2527 17.7215ZM91.6456 21.258C92.1889 20.6326 93.1363 20.5661 93.7617 21.1094C94.0227 21.3362 94.2813 21.5655 94.5376 21.7973C95.152 22.3531 95.1995 23.3016 94.6437 23.916C94.088 24.5303 93.1394 24.5779 92.525 24.0221C92.2836 23.8037 92.0399 23.5877 91.7941 23.3741C91.1687 22.8307 91.1022 21.8833 91.6456 21.258ZM28.3544 21.258C28.8977 21.8833 28.8312 22.8307 28.2059 23.3741C27.9601 23.5877 27.7164 23.8037 27.4749 24.0221C26.8606 24.5779 25.912 24.5304 25.3563 23.916C24.8005 23.3016 24.848 22.3531 25.4624 21.7973C25.7187 21.5655 25.9773 21.3362 26.2383 21.1094C26.8636 20.5661 27.8111 20.6326 28.3544 21.258ZM96.084 25.3563C96.6984 24.8005 97.6469 24.848 98.2027 25.4624C98.4345 25.7187 98.6638 25.9773 98.8905 26.2383C99.4339 26.8636 99.3674 27.8111 98.742 28.3544C98.1167 28.8977 97.1693 28.8312 96.6259 28.2059C96.4123 27.9601 96.1963 27.7164 95.9779 27.4749C95.4221 26.8606 95.4696 25.912 96.084 25.3563ZM23.916 25.3563C24.5303 25.912 24.5779 26.8606 24.0221 27.4749C23.8037 27.7164 23.5877 27.9601 23.3741 28.2059C22.8307 28.8313 21.8833 28.8977 21.258 28.3544C20.6326 27.8111 20.5661 26.8636 21.1094 26.2383C21.3362 25.9773 21.5655 25.7187 21.7973 25.4624C22.3531 24.848 23.3016 24.8005 23.916 25.3563ZM99.9992 29.9568C100.676 29.4787 101.612 29.6397 102.09 30.3163C102.289 30.5987 102.486 30.8832 102.68 31.1698C103.144 31.8558 102.965 32.7884 102.278 33.2527C101.592 33.7171 100.66 33.5373 100.196 32.8512C100.013 32.5813 99.8276 32.3134 99.6396 32.0474C99.1616 31.3708 99.3226 30.4348 99.9992 29.9568ZM20.0008 29.9568C20.6774 30.4348 20.8384 31.3708 20.3604 32.0474C20.1724 32.3134 19.9871 32.5813 19.8045 32.8512C19.3401 33.5373 18.4076 33.7171 17.7215 33.2527C17.0354 32.7884 16.8557 31.8558 17.32 31.1698C17.5139 30.8832 17.7107 30.5987 17.9102 30.3163C18.3882 29.6397 19.3242 29.4788 20.0008 29.9568ZM103.334 34.9947C104.063 34.6017 104.973 34.8744 105.366 35.6037C105.53 35.9076 105.691 36.2135 105.848 36.5211C106.227 37.2582 105.936 38.1623 105.199 38.5405C104.462 38.9186 103.557 38.6277 103.179 37.8907C103.031 37.601 102.879 37.313 102.725 37.0268C102.332 36.2975 102.605 35.3877 103.334 34.9947ZM16.6661 34.9947C17.3954 35.3877 17.668 36.2975 17.275 37.0268C17.1208 37.313 16.9693 37.601 16.8207 37.8907C16.4425 38.6277 15.5384 38.9187 14.8014 38.5405C14.0643 38.1623 13.7734 37.2582 14.1516 36.5211C14.3094 36.2135 14.4703 35.9077 14.6341 35.6037C15.0271 34.8744 15.9368 34.6018 16.6661 34.9947ZM106.036 40.3971C106.807 40.0953 107.677 40.4762 107.979 41.2477C108.105 41.5698 108.228 41.8935 108.347 42.2188C108.634 42.9963 108.235 43.8584 107.458 44.1445C106.68 44.4305 105.818 44.0321 105.532 43.2546C105.419 42.9484 105.304 42.6437 105.185 42.3404C104.883 41.5689 105.264 40.6989 106.036 40.3971ZM13.9644 40.3971C14.7359 40.6989 15.1167 41.5689 14.8149 42.3405C14.6963 42.6437 14.5807 42.9484 14.468 43.2546C14.182 44.0321 13.3198 44.4305 12.5424 44.1445C11.7649 43.8584 11.3665 42.9963 11.6525 42.2188C11.7722 41.8935 11.895 41.5698 12.021 41.2477C12.3228 40.4762 13.1929 40.0954 13.9644 40.3971ZM108.063 46.0895C108.866 45.8837 109.683 46.3674 109.889 47.1698C109.974 47.5037 110.057 47.8389 110.136 48.1754C110.325 48.9818 109.825 49.7892 109.019 49.9787C108.212 50.1682 107.405 49.6681 107.215 48.8616C107.141 48.5449 107.063 48.2293 106.983 47.915C106.777 47.1126 107.261 46.2952 108.063 46.0895ZM11.9369 46.0895C12.7394 46.2953 13.2231 47.1126 13.0173 47.9151C12.9367 48.2294 12.8592 48.5449 12.7847 48.8616C12.5952 49.6681 11.7879 50.1682 10.9814 49.9787C10.1749 49.7892 9.67479 48.9819 9.86429 48.1754C9.94335 47.8389 10.0257 47.5037 10.1113 47.1698C10.3171 46.3674 11.1345 45.8837 11.9369 46.0895ZM109.383 51.9821C110.205 51.875 110.958 52.454 111.065 53.2755C111.109 53.6182 111.151 53.9618 111.189 54.3065C111.279 55.13 110.685 55.871 109.862 55.9616C109.038 56.0522 108.297 55.4581 108.207 54.6346C108.171 54.3099 108.132 53.9862 108.09 53.6636C107.983 52.8421 108.562 52.0893 109.383 51.9821ZM10.6166 51.9821C11.4381 52.0893 12.0172 52.8421 11.91 53.6636C11.8679 53.9862 11.829 54.3099 11.7933 54.6346C11.7027 55.4581 10.9617 56.0522 10.1382 55.9616C9.31479 55.871 8.72068 55.13 8.81127 54.3065C8.8492 53.9618 8.89052 53.6182 8.93521 53.2755C9.04237 52.4541 9.79516 51.875 10.6166 51.9821ZM109.983 57.9942C110.811 57.986 111.489 58.6509 111.497 59.4793C111.499 59.6527 111.5 59.8262 111.5 60C111.5 60.1738 111.499 60.3473 111.497 60.5207C111.489 61.3491 110.811 62.014 109.983 62.0057C109.154 61.9975 108.489 61.3193 108.498 60.491C108.499 60.3275 108.5 60.1639 108.5 60C108.5 59.8362 108.499 59.6725 108.498 59.509C108.489 58.6807 109.154 58.0025 109.983 57.9942ZM10.0174 57.9943C10.8458 58.0025 11.5106 58.6807 11.5024 59.509C11.5008 59.6725 11.5 59.8362 11.5 60C11.5 60.1639 11.5008 60.3275 11.5024 60.491C11.5106 61.3193 10.8458 61.9975 10.0174 62.0058C9.18899 62.014 8.51079 61.3491 8.50258 60.5207C8.50086 60.3473 8.5 60.1738 8.5 60C8.5 59.8262 8.50086 59.6527 8.50258 59.4793C8.51079 58.6509 9.18898 57.986 10.0174 57.9943ZM109.862 64.0384C110.685 64.129 111.279 64.87 111.189 65.6935C111.151 66.0382 111.109 66.3818 111.065 66.7245C110.958 67.5459 110.205 68.125 109.383 68.0179C108.562 67.9107 107.983 67.1579 108.09 66.3364C108.132 66.0138 108.171 65.6901 108.207 65.3654C108.297 64.5419 109.038 63.9478 109.862 64.0384ZM10.1382 64.0384C10.9617 63.9478 11.7027 64.5419 11.7933 65.3654C11.829 65.6901 11.8679 66.0138 11.91 66.3364C12.0172 67.1579 11.4381 67.9107 10.6166 68.0179C9.79517 68.125 9.04237 67.546 8.93522 66.7245C8.89052 66.3818 8.8492 66.0382 8.81127 65.6935C8.72068 64.87 9.31479 64.129 10.1382 64.0384ZM109.019 70.0213C109.825 70.2108 110.325 71.0181 110.136 71.8246C110.057 72.1611 109.974 72.4963 109.889 72.8302C109.683 73.6326 108.866 74.1163 108.063 73.9105C107.261 73.7048 106.777 72.8874 106.983 72.0849C107.063 71.7706 107.141 71.4551 107.215 71.1384C107.405 70.3319 108.212 69.8318 109.019 70.0213ZM10.9814 70.0213C11.7879 69.8318 12.5953 70.3319 12.7847 71.1384C12.8592 71.4551 12.9367 71.7707 13.0173 72.085C13.2231 72.8874 12.7394 73.7048 11.9369 73.9105C11.1345 74.1163 10.3171 73.6326 10.1113 72.8302C10.0257 72.4963 9.94335 72.1611 9.86429 71.8246C9.67479 71.0182 10.1749 70.2108 10.9814 70.0213ZM107.458 75.8555C108.235 76.1416 108.634 77.0037 108.347 77.7812C108.228 78.1065 108.105 78.4302 107.979 78.7523C107.677 79.5238 106.807 79.9046 106.036 79.6029C105.264 79.3011 104.883 78.4311 105.185 77.6596C105.304 77.3563 105.419 77.0516 105.532 76.7454C105.818 75.9679 106.68 75.5695 107.458 75.8555ZM12.5424 75.8555C13.3199 75.5695 14.182 75.9679 14.468 76.7454C14.5807 77.0516 14.6963 77.3563 14.8149 77.6596C15.1167 78.4311 14.7359 79.3011 13.9644 79.6029C13.1929 79.9047 12.3228 79.5238 12.021 78.7523C11.895 78.4302 11.7722 78.1065 11.6525 77.7812C11.3665 77.0037 11.7649 76.1416 12.5424 75.8555ZM105.199 81.4595C105.936 81.8377 106.227 82.7418 105.848 83.4789C105.691 83.7865 105.53 84.0923 105.366 84.3963C104.973 85.1256 104.063 85.3982 103.334 85.0053C102.605 84.6123 102.332 83.7025 102.725 82.9732C102.879 82.687 103.031 82.399 103.179 82.1093C103.557 81.3723 104.462 81.0813 105.199 81.4595ZM14.8014 81.4595C15.5384 81.0814 16.4425 81.3723 16.8207 82.1093C16.9693 82.399 17.1208 82.687 17.275 82.9732C17.668 83.7025 17.3954 84.6123 16.6661 85.0053C15.9368 85.3983 15.0271 85.1256 14.6341 84.3963C14.4703 84.0924 14.3094 83.7865 14.1516 83.4789C13.7734 82.7418 14.0643 81.8377 14.8014 81.4595ZM102.279 86.7473C102.965 87.2116 103.144 88.1442 102.68 88.8302C102.486 89.1168 102.289 89.4013 102.09 89.6837C101.612 90.3603 100.676 90.5212 99.9992 90.0432C99.3226 89.5652 99.1616 88.6292 99.6396 87.9526C99.8276 87.6866 100.013 87.4187 100.196 87.1488C100.66 86.4627 101.592 86.2829 102.279 86.7473ZM17.7215 86.7473C18.4076 86.2829 19.3402 86.4627 19.8045 87.1488C19.9871 87.4187 20.1724 87.6866 20.3604 87.9526C20.8384 88.6292 20.6774 89.5652 20.0008 90.0432C19.3242 90.5213 18.3882 90.3603 17.9102 89.6837C17.7107 89.4013 17.5139 89.1168 17.32 88.8302C16.8557 88.1442 17.0354 87.2116 17.7215 86.7473ZM98.742 91.6456C99.3674 92.1889 99.4339 93.1363 98.8905 93.7617C98.6638 94.0227 98.4345 94.2813 98.2027 94.5376C97.6469 95.152 96.6984 95.1995 96.084 94.6437C95.4697 94.088 95.4221 93.1394 95.9779 92.525C96.1963 92.2836 96.4123 92.0399 96.6259 91.7941C97.1693 91.1687 98.1167 91.1022 98.742 91.6456ZM21.258 91.6456C21.8833 91.1023 22.8307 91.1688 23.3741 91.7941C23.5877 92.0399 23.8037 92.2836 24.0221 92.5251C24.5779 93.1394 24.5304 94.088 23.916 94.6437C23.3016 95.1995 22.3531 95.152 21.7973 94.5376C21.5655 94.2813 21.3362 94.0227 21.1094 93.7617C20.5661 93.1364 20.6326 92.1889 21.258 91.6456ZM94.6437 96.084C95.1995 96.6984 95.152 97.6469 94.5376 98.2027C94.2813 98.4345 94.0227 98.6638 93.7617 98.8905C93.1364 99.4339 92.1889 99.3674 91.6456 98.742C91.1023 98.1167 91.1688 97.1693 91.7941 96.6259C92.0399 96.4123 92.2836 96.1963 92.5251 95.9779C93.1394 95.4221 94.088 95.4696 94.6437 96.084ZM25.3563 96.084C25.912 95.4697 26.8606 95.4221 27.4749 95.9779C27.7164 96.1963 27.9601 96.4123 28.2059 96.6259C28.8313 97.1693 28.8977 98.1167 28.3544 98.742C27.8111 99.3674 26.8636 99.4339 26.2383 98.8905C25.9773 98.6638 25.7187 98.4345 25.4624 98.2027C24.848 97.6469 24.8005 96.6984 25.3563 96.084ZM90.0432 99.9992C90.5213 100.676 90.3603 101.612 89.6837 102.09C89.4013 102.289 89.1168 102.486 88.8302 102.68C88.1442 103.144 87.2116 102.965 86.7473 102.278C86.2829 101.592 86.4627 100.66 87.1488 100.196C87.4187 100.013 87.6866 99.8276 87.9526 99.6396C88.6292 99.1616 89.5652 99.3226 90.0432 99.9992ZM29.9568 99.9992C30.4348 99.3226 31.3708 99.1616 32.0474 99.6396C32.3134 99.8276 32.5813 100.013 32.8512 100.196C33.5373 100.66 33.7171 101.592 33.2527 102.279C32.7884 102.965 31.8558 103.144 31.1698 102.68C30.8832 102.486 30.5987 102.289 30.3163 102.09C29.6397 101.612 29.4788 100.676 29.9568 99.9992ZM34.9947 103.334C35.3877 102.605 36.2975 102.332 37.0268 102.725C37.313 102.879 37.601 103.031 37.8907 103.179C38.6277 103.557 38.9187 104.462 38.5405 105.199C38.1623 105.936 37.2582 106.227 36.5211 105.848C36.2135 105.691 35.9077 105.53 35.6037 105.366C34.8744 104.973 34.6018 104.063 34.9947 103.334ZM85.0053 103.334C85.3983 104.063 85.1256 104.973 84.3963 105.366C84.0924 105.53 83.7865 105.691 83.4789 105.848C82.7418 106.227 81.8377 105.936 81.4595 105.199C81.0814 104.462 81.3723 103.557 82.1093 103.179C82.399 103.031 82.687 102.879 82.9732 102.725C83.7025 102.332 84.6123 102.605 85.0053 103.334ZM40.3971 106.036C40.6989 105.264 41.5689 104.883 42.3405 105.185C42.6437 105.304 42.9484 105.419 43.2546 105.532C44.0321 105.818 44.4305 106.68 44.1445 107.458C43.8584 108.235 42.9963 108.634 42.2188 108.347C41.8935 108.228 41.5698 108.105 41.2477 107.979C40.4762 107.677 40.0954 106.807 40.3971 106.036ZM79.6029 106.036C79.9047 106.807 79.5238 107.677 78.7523 107.979C78.4302 108.105 78.1065 108.228 77.7812 108.347C77.0037 108.634 76.1416 108.235 75.8555 107.458C75.5695 106.68 75.9679 105.818 76.7454 105.532C77.0516 105.419 77.3563 105.304 77.6596 105.185C78.4311 104.883 79.3011 105.264 79.6029 106.036ZM46.0895 108.063C46.2953 107.261 47.1126 106.777 47.9151 106.983C48.2294 107.063 48.5449 107.141 48.8616 107.215C49.6681 107.405 50.1682 108.212 49.9787 109.019C49.7892 109.825 48.9819 110.325 48.1754 110.136C47.8389 110.057 47.5037 109.974 47.1698 109.889C46.3674 109.683 45.8837 108.866 46.0895 108.063ZM73.9105 108.063C74.1163 108.866 73.6326 109.683 72.8302 109.889C72.4963 109.974 72.1611 110.057 71.8246 110.136C71.0182 110.325 70.2108 109.825 70.0213 109.019C69.8318 108.212 70.3319 107.405 71.1384 107.215C71.4551 107.141 71.7707 107.063 72.085 106.983C72.8874 106.777 73.7048 107.261 73.9105 108.063ZM51.9821 109.383C52.0893 108.562 52.8421 107.983 53.6636 108.09C53.9862 108.132 54.3099 108.171 54.6346 108.207C55.4581 108.297 56.0522 109.038 55.9616 109.862C55.871 110.685 55.13 111.279 54.3065 111.189C53.9618 111.151 53.6182 111.109 53.2755 111.065C52.4541 110.958 51.875 110.205 51.9821 109.383ZM68.0179 109.383C68.125 110.205 67.546 110.958 66.7245 111.065C66.3818 111.109 66.0382 111.151 65.6935 111.189C64.87 111.279 64.129 110.685 64.0384 109.862C63.9478 109.038 64.5419 108.297 65.3654 108.207C65.6901 108.171 66.0138 108.132 66.3364 108.09C67.1579 107.983 67.9107 108.562 68.0179 109.383ZM57.9943 109.983C58.0025 109.154 58.6807 108.489 59.509 108.498C59.6725 108.499 59.8362 108.5 60 108.5C60.1639 108.5 60.3275 108.499 60.491 108.498C61.3193 108.489 61.9975 109.154 62.0058 109.983C62.014 110.811 61.3491 111.489 60.5207 111.497C60.3473 111.499 60.1738 111.5 60 111.5C59.8262 111.5 59.6527 111.499 59.4793 111.497C58.6509 111.489 57.986 110.811 57.9943 109.983Z" fill="#EE543E"/>
</svg>
