<svg width="120" height="120" viewBox="0 0 120 120" fill="none" xmlns="http://www.w3.org/2000/svg">
<path d="M30.252 31.4648H95.2673C97.6436 31.4648 99.5701 33.3913 99.5701 35.7677V83.2611C99.5701 85.6375 97.6436 87.5639 95.2673 87.5639H30.252C27.8757 87.5639 25.9492 85.6375 25.9492 83.2611V35.7677C25.9492 33.3913 27.8757 31.4648 30.252 31.4648Z" fill="url(#paint0_linear_8092_802449)" stroke="#E1EDF8" stroke-width="5"/>
<rect opacity="0.99" x="34.4844" y="40" width="18.6207" height="22.7586" rx="1.74586" fill="white"/>
<rect opacity="0.99" x="55.8633" y="40" width="35.8621" height="5.51724" rx="1.74586" fill="white"/>
<rect opacity="0.99" x="55.8633" y="48.2754" width="35.8621" height="5.51724" rx="1.74586" fill="white"/>
<rect opacity="0.99" x="55.8633" y="56.5508" width="35.8621" height="6.2069" rx="1.74586" fill="white"/>
<rect opacity="0.99" x="34.4844" y="66.207" width="57.2414" height="13.1034" rx="1.74586" fill="white"/>
<path d="M41.2323 21.3789H17.699C16.8467 21.3797 16.0295 21.7187 15.4268 22.3214C14.8241 22.924 14.4852 23.7412 14.4844 24.5936V40.8775C14.4844 41.7301 14.8231 42.5478 15.4259 43.1506C16.0288 43.7535 16.8464 44.0922 17.699 44.0922H29.0619L32.8363 49.0809C32.9296 49.1874 33.0446 49.2728 33.1735 49.3313C33.3025 49.3898 33.4425 49.42 33.5841 49.42C33.7257 49.42 33.8657 49.3898 33.9947 49.3313C34.1237 49.2728 34.2387 49.1874 34.332 49.0809L38.0941 44.0922H41.2323C41.6555 44.0938 42.0748 44.0118 42.4662 43.851C42.8577 43.6902 43.2135 43.4536 43.5133 43.155C43.8131 42.8563 44.051 42.5014 44.2133 42.1106C44.3756 41.7197 44.4592 41.3007 44.4592 40.8775V24.5936C44.4588 24.1705 44.3749 23.7517 44.2125 23.361C44.05 22.9704 43.8121 22.6156 43.5124 22.317C43.2127 22.0184 42.857 21.7819 42.4658 21.6209C42.0745 21.4599 41.6554 21.3777 41.2323 21.3789Z" fill="url(#paint1_linear_8092_802449)"/>
<path d="M23.2383 32.067V31.1708C23.2529 31.1538 23.2605 31.132 23.2597 31.1096C23.3474 30.4543 23.6224 29.8383 24.0519 29.3356C24.4529 28.829 24.9852 28.442 25.5907 28.2166C26.1963 27.9912 26.852 27.936 27.4867 28.0571C28.2157 28.1752 28.8878 28.5236 29.4045 29.0511C29.4504 29.097 29.484 29.1123 29.5269 29.0511C29.5406 29.0334 29.5559 29.017 29.5728 29.0022C30.0264 28.5502 30.5958 28.232 31.2185 28.0826C31.8412 27.9331 32.4931 27.9581 33.1024 28.155C34.5553 28.5985 35.3964 29.617 35.6564 31.1157C35.6564 31.1371 35.6564 31.1739 35.6931 31.1677V32.0639C35.6785 32.0809 35.6709 32.1027 35.6717 32.1251C35.5638 32.9123 35.1981 33.6416 34.6318 34.1989L29.5452 39.2701C29.4779 39.3374 29.4473 39.3343 29.3831 39.2701C27.7885 37.6694 26.1919 36.0708 24.5933 34.4741C24.4617 34.3396 24.3272 34.208 24.1987 34.0704C23.6999 33.5282 23.3796 32.846 23.2811 32.1159C23.2719 32.0884 23.2872 32.0578 23.2383 32.067Z" fill="white"/>
<path d="M84.1378 55.8615C89.8511 55.8615 94.4826 51.23 94.4826 45.5167C94.4826 39.8034 89.8511 35.1719 84.1378 35.1719C78.4245 35.1719 73.793 39.8034 73.793 45.5167C73.793 51.23 78.4245 55.8615 84.1378 55.8615Z" fill="url(#paint2_linear_8092_802449)"/>
<path d="M89.5513 44.614L81.2273 39.8095C81.0689 39.7181 80.8893 39.67 80.7064 39.6699C80.5235 39.6699 80.3439 39.718 80.1855 39.8094C80.027 39.9008 79.8955 40.0322 79.804 40.1905C79.7124 40.3489 79.6642 40.5285 79.6641 40.7114V50.324C79.6642 50.5069 79.7124 50.6865 79.804 50.8448C79.8955 51.0032 80.027 51.1346 80.1855 51.226C80.3439 51.3174 80.5235 51.3655 80.7064 51.3655C80.8893 51.3654 81.0689 51.3173 81.2273 51.2258L89.5513 46.4201C89.7099 46.3287 89.8417 46.1971 89.9333 46.0386C90.025 45.8801 90.0732 45.7002 90.0732 45.5171C90.0732 45.334 90.025 45.1541 89.9333 44.9956C89.8417 44.837 89.7099 44.7054 89.5513 44.614Z" fill="white"/>
<path d="M39.7366 87.073C42.0701 90.1023 44.579 93.3636 47.0897 96.6215C47.6885 97.4032 48.3242 98.1621 48.8784 98.9894C49.9949 100.642 49.4759 102.655 47.6895 103.54C46.3798 104.187 45.0347 104.775 43.6775 105.324C41.9013 106.039 39.925 105.46 38.6805 103.867C35.6598 99.9789 32.6556 96.0752 29.6681 92.1558C29.2696 91.6305 28.9605 91.4099 28.2412 91.6075C26.6752 92.0443 25.4704 91.391 24.7725 89.8972C24.6218 89.5733 24.481 89.2435 24.3131 88.8724C23.9816 88.9729 23.7521 89.0628 23.5217 89.1501C21.3528 89.9471 19.9237 89.353 18.9898 87.2731C18.0317 85.1423 17.0657 83.0139 16.1124 80.87C15.1283 78.6627 15.6864 77.1055 17.8408 75.9811C17.9976 75.9016 18.1486 75.8122 18.4205 75.6599C18.2021 75.1703 17.9896 74.7196 17.7996 74.2563C17.1811 72.7355 17.6967 71.1243 19.1919 70.4441C23.0208 68.7016 26.8733 66.9986 30.7407 65.3347C31.2764 65.0947 31.8816 65.0594 32.4411 65.2354C33.3462 65.6217 33.9173 65.2915 34.5752 64.7662C39.5558 60.8442 43.6813 56.2095 46.5086 50.5074C47.052 49.3091 47.5265 48.081 47.9298 46.829C48.2438 45.9394 48.7597 45.2534 49.7546 45.1469C50.7495 45.0403 51.3868 45.6503 51.8388 46.4678C52.0144 46.7871 52.1576 47.1249 52.3054 47.4584C55.3911 54.3532 58.4741 61.2517 61.5544 68.154C63.7199 73.0267 65.8561 77.9084 68.0002 82.7877C68.158 83.1162 68.2826 83.4596 68.3722 83.8128C68.753 85.522 67.4554 86.7097 65.7884 86.1876C65.14 85.9739 64.5249 85.6103 63.8727 85.3744C56.7933 82.8144 49.5563 82.7292 42.2384 84.1002C42.0338 84.1328 41.8462 84.2338 41.7065 84.3866C41.0653 85.227 40.4562 86.0867 39.7366 87.073Z" fill="url(#paint3_linear_8092_802449)"/>
<path d="M71.8304 58.7739C72.2995 59.5443 72.7261 60.3439 73.0134 61.1989C74.0984 64.428 74.5173 67.7026 74.0304 71.1154C73.9969 71.3322 73.9695 71.55 73.9344 71.7615C73.7111 72.8447 73.0156 73.4193 72.1434 73.2471C71.2712 73.075 70.8854 72.38 71.0325 71.3052C71.3329 69.0899 71.384 66.8802 70.8631 64.6897C69.7693 60.1177 67.441 56.3739 63.5012 53.7063L63.3183 53.5842C62.2984 52.8865 62.0077 52.0812 62.5036 51.3198C62.9995 50.5584 64.0146 50.3933 64.9822 51.1884C66.5425 52.4848 68.1469 53.7825 69.4727 55.3071C70.3841 56.3542 71.098 57.5711 71.8304 58.7739Z" fill="url(#paint4_linear_8092_802449)"/>
<path d="M66.8527 62.5175C67.841 64.7988 68.1971 67.3038 67.8837 69.7712C67.745 70.9598 67.0663 71.5613 66.1435 71.4626C65.2206 71.364 64.7676 70.6109 64.9069 69.4046C65.3989 65.1543 63.9111 61.7765 60.4437 59.2713C59.4942 58.5842 59.2495 57.8058 59.7468 57.0585C60.244 56.3112 61.1547 56.2156 62.152 56.8679C64.2133 58.2802 65.8405 60.2359 66.8527 62.5175Z" fill="url(#paint5_linear_8092_802449)"/>
<path d="M17.9465 75.3626C17.057 73.3404 17.9752 70.9801 19.9974 70.0906L30.1477 65.6257C32.1987 64.7235 34.5906 65.6818 35.4514 67.7505L41.4575 82.1863C42.0428 83.5931 41.7781 85.2102 40.7748 86.3569L40.6004 86.5562C40.205 87.008 39.713 87.3651 39.1609 87.6009L29.4723 91.738C27.4561 92.5989 25.1227 91.6766 24.24 89.6699L17.9465 75.3626Z" fill="url(#paint6_linear_8092_802449)"/>
<path d="M80 88.5005C80 79.3881 87.3872 72 96.5005 72C100.582 72 104.318 73.4824 107.199 75.9396C110.749 78.9659 113 83.47 113 88.5005C113 97.6128 105.613 105 96.5005 105C94.2303 105 92.067 104.542 90.0982 103.712C84.1646 101.212 80 95.3426 80 88.5005Z" fill="url(#paint7_linear_8092_802449)"/>
<path d="M98.5919 88.5148C100.464 86.6338 102.159 84.9276 102.763 84.3147C103.4 83.67 103.397 82.6924 102.777 82.0769C102.211 81.5152 101.206 81.4622 100.579 82.1316C99.8828 82.8734 99.1482 83.5791 98.4302 84.3006L96.4135 86.3273C94.5401 84.4445 92.8397 82.7383 92.2299 82.129C91.5875 81.4887 90.6148 81.4913 90.0032 82.1139C89.4434 82.6844 89.3907 83.693 90.0568 84.3235C90.7958 85.023 91.4979 85.7613 92.215 86.4828L94.236 88.514C92.3318 90.4277 90.4311 92.3379 90.0709 92.7026C89.9654 92.8086 89.8573 92.9208 89.7818 93.0497C89.4065 93.6944 89.5559 94.5784 90.099 94.997C90.7923 95.5304 91.6227 95.503 92.2299 94.8981C92.8397 94.2896 94.5392 92.5843 96.4127 90.7032C98.3151 92.6152 100.213 94.5219 100.575 94.8831C100.682 94.9891 100.793 95.0986 100.921 95.1736C101.563 95.5507 102.443 95.4024 102.859 94.8548C103.39 94.1589 103.362 93.3244 102.76 92.7141C102.155 92.1012 100.461 90.3959 98.5902 88.5148H98.5919Z" fill="white"/>
<defs>
<linearGradient id="paint0_linear_8092_802449" x1="23.4492" y1="37.6933" x2="76.0735" y2="109.197" gradientUnits="userSpaceOnUse">
<stop stop-color="white"/>
<stop offset="1" stop-color="#E2F1FA"/>
</linearGradient>
<linearGradient id="paint1_linear_8092_802449" x1="28.0641" y1="17.0234" x2="37.7548" y2="52.9506" gradientUnits="userSpaceOnUse">
<stop stop-color="#FFB74B"/>
<stop offset="1" stop-color="#FCCA80"/>
</linearGradient>
<linearGradient id="paint2_linear_8092_802449" x1="71.9557" y1="57.0246" x2="98.5472" y2="48.8666" gradientUnits="userSpaceOnUse">
<stop stop-color="#05E0E0"/>
<stop offset="1" stop-color="#02C8C8"/>
</linearGradient>
<linearGradient id="paint3_linear_8092_802449" x1="21.9019" y1="115.223" x2="78.5766" y2="79.8351" gradientUnits="userSpaceOnUse">
<stop stop-color="#05E0E0"/>
<stop offset="1" stop-color="#02E2E2"/>
</linearGradient>
<linearGradient id="paint4_linear_8092_802449" x1="68.7236" y1="75.8926" x2="78.6812" y2="71.7862" gradientUnits="userSpaceOnUse">
<stop stop-color="#05E0E0"/>
<stop offset="1" stop-color="#02C8C8"/>
</linearGradient>
<linearGradient id="paint5_linear_8092_802449" x1="63.5984" y1="73.3188" x2="71.077" y2="70.1151" gradientUnits="userSpaceOnUse">
<stop stop-color="#05E0E0"/>
<stop offset="1" stop-color="#02C8C8"/>
</linearGradient>
<linearGradient id="paint6_linear_8092_802449" x1="34.1377" y1="91.0358" x2="22.4135" y2="67.5875" gradientUnits="userSpaceOnUse">
<stop stop-color="#00BBBB"/>
<stop offset="1" stop-color="#00D5D4"/>
</linearGradient>
<linearGradient id="paint7_linear_8092_802449" x1="98.0498" y1="110.126" x2="85.9756" y2="68.2502" gradientUnits="userSpaceOnUse">
<stop stop-color="#FF4B4B"/>
<stop offset="1" stop-color="#FFB6B6"/>
</linearGradient>
</defs>
</svg>
