<svg width="120" height="120" viewBox="0 0 120 120" fill="none" xmlns="http://www.w3.org/2000/svg">
<path fill-rule="evenodd" clip-rule="evenodd" d="M60.9793 8.50258C61.1527 8.50086 61.3262 8.5 61.5 8.5C61.6738 8.5 61.8473 8.50086 62.0207 8.50258C62.8491 8.51079 63.514 9.18898 63.5057 10.0174C63.4975 10.8458 62.8193 11.5106 61.991 11.5024C61.8275 11.5008 61.6639 11.5 61.5 11.5C61.3362 11.5 61.1725 11.5008 61.009 11.5024C60.1807 11.5106 59.5025 10.8458 59.4942 10.0174C59.486 9.18899 60.1509 8.51079 60.9793 8.50258ZM65.5384 10.1382C65.629 9.31479 66.37 8.72068 67.1935 8.81127C67.5382 8.8492 67.8818 8.89052 68.2245 8.93521C69.0459 9.04237 69.625 9.79516 69.5179 10.6166C69.4107 11.4381 68.6579 12.0172 67.8364 11.91C67.5138 11.8679 67.1901 11.829 66.8654 11.7933C66.0419 11.7027 65.4478 10.9617 65.5384 10.1382ZM57.4616 10.1382C57.5522 10.9617 56.9581 11.7027 56.1346 11.7933C55.8099 11.829 55.4862 11.8679 55.1636 11.91C54.3421 12.0172 53.5893 11.4381 53.4821 10.6166C53.375 9.79517 53.954 9.04237 54.7755 8.93522C55.1182 8.89052 55.4618 8.8492 55.8065 8.81127C56.63 8.72068 57.371 9.31479 57.4616 10.1382ZM71.5213 10.9814C71.7108 10.1749 72.5181 9.67479 73.3246 9.86429C73.6611 9.94335 73.9963 10.0257 74.3302 10.1113C75.1326 10.3171 75.6163 11.1345 75.4105 11.9369C75.2048 12.7394 74.3874 13.2231 73.5849 13.0173C73.2706 12.9367 72.9551 12.8592 72.6384 12.7847C71.8319 12.5952 71.3318 11.7879 71.5213 10.9814ZM51.4787 10.9814C51.6682 11.7879 51.1681 12.5953 50.3616 12.7847C50.0449 12.8592 49.7293 12.9367 49.415 13.0173C48.6126 13.2231 47.7952 12.7394 47.5895 11.9369C47.3837 11.1345 47.8674 10.3171 48.6698 10.1113C49.0037 10.0257 49.3389 9.94335 49.6754 9.86429C50.4818 9.67479 51.2892 10.1749 51.4787 10.9814ZM77.3555 12.5424C77.6416 11.7649 78.5037 11.3665 79.2812 11.6525C79.6065 11.7722 79.9302 11.895 80.2523 12.021C81.0238 12.3228 81.4046 13.1929 81.1029 13.9644C80.8011 14.7359 79.9311 15.1167 79.1596 14.8149C78.8563 14.6963 78.5516 14.5807 78.2454 14.468C77.4679 14.182 77.0695 13.3198 77.3555 12.5424ZM45.6445 12.5424C45.9305 13.3199 45.5321 14.182 44.7546 14.468C44.4484 14.5807 44.1437 14.6963 43.8404 14.8149C43.0689 15.1167 42.1989 14.7359 41.8971 13.9644C41.5953 13.1929 41.9762 12.3228 42.7477 12.021C43.0698 11.895 43.3935 11.7722 43.7188 11.6525C44.4963 11.3665 45.3584 11.7649 45.6445 12.5424ZM82.9595 14.8014C83.3377 14.0643 84.2418 13.7734 84.9789 14.1516C85.2865 14.3094 85.5923 14.4703 85.8963 14.6341C86.6256 15.0271 86.8982 15.9368 86.5053 16.6661C86.1123 17.3954 85.2025 17.668 84.4732 17.275C84.187 17.1208 83.899 16.9693 83.6093 16.8207C82.8723 16.4425 82.5813 15.5384 82.9595 14.8014ZM40.0405 14.8014C40.4186 15.5384 40.1277 16.4425 39.3907 16.8207C39.101 16.9693 38.813 17.1208 38.5268 17.275C37.7975 17.668 36.8877 17.3954 36.4947 16.6661C36.1017 15.9368 36.3744 15.0271 37.1037 14.6341C37.4076 14.4703 37.7135 14.3094 38.0211 14.1516C38.7582 13.7734 39.6623 14.0643 40.0405 14.8014ZM88.2473 17.7215C88.7116 17.0354 89.6442 16.8557 90.3302 17.32C90.6168 17.5139 90.9013 17.7107 91.1837 17.9102C91.8603 18.3882 92.0212 19.3242 91.5432 20.0008C91.0652 20.6774 90.1292 20.8384 89.4526 20.3604C89.1866 20.1724 88.9187 19.9871 88.6488 19.8045C87.9627 19.3401 87.7829 18.4076 88.2473 17.7215ZM34.7527 17.7215C35.2171 18.4076 35.0373 19.3402 34.3512 19.8045C34.0813 19.9871 33.8134 20.1724 33.5474 20.3604C32.8708 20.8384 31.9348 20.6774 31.4568 20.0008C30.9787 19.3242 31.1397 18.3882 31.8163 17.9102C32.0987 17.7107 32.3832 17.5139 32.6698 17.32C33.3558 16.8557 34.2884 17.0354 34.7527 17.7215ZM93.1456 21.258C93.6889 20.6326 94.6363 20.5661 95.2617 21.1094C95.5227 21.3362 95.7813 21.5655 96.0376 21.7973C96.652 22.3531 96.6995 23.3016 96.1437 23.916C95.588 24.5303 94.6394 24.5779 94.025 24.0221C93.7836 23.8037 93.5399 23.5877 93.2941 23.3741C92.6687 22.8307 92.6022 21.8833 93.1456 21.258ZM29.8544 21.258C30.3977 21.8833 30.3312 22.8307 29.7059 23.3741C29.4601 23.5877 29.2164 23.8037 28.9749 24.0221C28.3606 24.5779 27.412 24.5304 26.8563 23.916C26.3005 23.3016 26.348 22.3531 26.9624 21.7973C27.2187 21.5655 27.4773 21.3362 27.7383 21.1094C28.3636 20.5661 29.3111 20.6326 29.8544 21.258ZM97.584 25.3563C98.1984 24.8005 99.1469 24.848 99.7027 25.4624C99.9345 25.7187 100.164 25.9773 100.391 26.2383C100.934 26.8636 100.867 27.8111 100.242 28.3544C99.6167 28.8977 98.6693 28.8312 98.1259 28.2059C97.9123 27.9601 97.6963 27.7164 97.4779 27.4749C96.9221 26.8606 96.9696 25.912 97.584 25.3563ZM25.416 25.3563C26.0303 25.912 26.0779 26.8606 25.5221 27.4749C25.3037 27.7164 25.0877 27.9601 24.8741 28.2059C24.3307 28.8313 23.3833 28.8977 22.758 28.3544C22.1326 27.8111 22.0661 26.8636 22.6094 26.2383C22.8362 25.9773 23.0655 25.7187 23.2973 25.4624C23.8531 24.848 24.8016 24.8005 25.416 25.3563ZM101.499 29.9568C102.176 29.4787 103.112 29.6397 103.59 30.3163C103.789 30.5987 103.986 30.8832 104.18 31.1698C104.644 31.8558 104.465 32.7884 103.778 33.2527C103.092 33.7171 102.16 33.5373 101.696 32.8512C101.513 32.5813 101.328 32.3134 101.14 32.0474C100.662 31.3708 100.823 30.4348 101.499 29.9568ZM21.5008 29.9568C22.1774 30.4348 22.3384 31.3708 21.8604 32.0474C21.6724 32.3134 21.4871 32.5813 21.3045 32.8512C20.8401 33.5373 19.9076 33.7171 19.2215 33.2527C18.5354 32.7884 18.3557 31.8558 18.82 31.1698C19.0139 30.8832 19.2107 30.5987 19.4102 30.3163C19.8882 29.6397 20.8242 29.4788 21.5008 29.9568ZM104.834 34.9947C105.563 34.6017 106.473 34.8744 106.866 35.6037C107.03 35.9076 107.191 36.2135 107.348 36.5211C107.727 37.2582 107.436 38.1623 106.699 38.5405C105.962 38.9186 105.057 38.6277 104.679 37.8907C104.531 37.601 104.379 37.313 104.225 37.0268C103.832 36.2975 104.105 35.3877 104.834 34.9947ZM18.1661 34.9947C18.8954 35.3877 19.168 36.2975 18.775 37.0268C18.6208 37.313 18.4693 37.601 18.3207 37.8907C17.9425 38.6277 17.0384 38.9187 16.3014 38.5405C15.5643 38.1623 15.2734 37.2582 15.6516 36.5211C15.8094 36.2135 15.9703 35.9077 16.1341 35.6037C16.5271 34.8744 17.4368 34.6018 18.1661 34.9947ZM107.536 40.3971C108.307 40.0953 109.177 40.4762 109.479 41.2477C109.605 41.5698 109.728 41.8935 109.847 42.2188C110.134 42.9963 109.735 43.8584 108.958 44.1445C108.18 44.4305 107.318 44.0321 107.032 43.2546C106.919 42.9484 106.804 42.6437 106.685 42.3404C106.383 41.5689 106.764 40.6989 107.536 40.3971ZM15.4644 40.3971C16.2359 40.6989 16.6167 41.5689 16.3149 42.3405C16.1963 42.6437 16.0807 42.9484 15.968 43.2546C15.682 44.0321 14.8198 44.4305 14.0424 44.1445C13.2649 43.8584 12.8665 42.9963 13.1525 42.2188C13.2722 41.8935 13.395 41.5698 13.521 41.2477C13.8228 40.4762 14.6929 40.0954 15.4644 40.3971ZM109.563 46.0895C110.366 45.8837 111.183 46.3674 111.389 47.1698C111.474 47.5037 111.557 47.8389 111.636 48.1754C111.825 48.9818 111.325 49.7892 110.519 49.9787C109.712 50.1682 108.905 49.6681 108.715 48.8616C108.641 48.5449 108.563 48.2293 108.483 47.915C108.277 47.1126 108.761 46.2952 109.563 46.0895ZM13.4369 46.0895C14.2394 46.2953 14.7231 47.1126 14.5173 47.9151C14.4367 48.2294 14.3592 48.5449 14.2847 48.8616C14.0952 49.6681 13.2879 50.1682 12.4814 49.9787C11.6749 49.7892 11.1748 48.9819 11.3643 48.1754C11.4433 47.8389 11.5257 47.5037 11.6113 47.1698C11.8171 46.3674 12.6345 45.8837 13.4369 46.0895ZM110.883 51.9821C111.705 51.875 112.458 52.454 112.565 53.2755C112.609 53.6182 112.651 53.9618 112.689 54.3065C112.779 55.13 112.185 55.871 111.362 55.9616C110.538 56.0522 109.797 55.4581 109.707 54.6346C109.671 54.3099 109.632 53.9862 109.59 53.6636C109.483 52.8421 110.062 52.0893 110.883 51.9821ZM12.1166 51.9821C12.9381 52.0893 13.5172 52.8421 13.41 53.6636C13.3679 53.9862 13.329 54.3099 13.2933 54.6346C13.2027 55.4581 12.4617 56.0522 11.6382 55.9616C10.8148 55.871 10.2207 55.13 10.3113 54.3065C10.3492 53.9618 10.3905 53.6182 10.4352 53.2755C10.5424 52.4541 11.2952 51.875 12.1166 51.9821ZM111.483 57.9942C112.311 57.986 112.989 58.6509 112.997 59.4793C112.999 59.6527 113 59.8262 113 60C113 60.1738 112.999 60.3473 112.997 60.5207C112.989 61.3491 112.311 62.014 111.483 62.0057C110.654 61.9975 109.989 61.3193 109.998 60.491C109.999 60.3275 110 60.1639 110 60C110 59.8362 109.999 59.6725 109.998 59.509C109.989 58.6807 110.654 58.0025 111.483 57.9942ZM11.5174 57.9943C12.3458 58.0025 13.0106 58.6807 13.0024 59.509C13.0008 59.6725 13 59.8362 13 60C13 60.1639 13.0008 60.3275 13.0024 60.491C13.0106 61.3193 12.3458 61.9975 11.5174 62.0058C10.689 62.014 10.0108 61.3491 10.0026 60.5207C10.0009 60.3473 10 60.1738 10 60C10 59.8262 10.0009 59.6527 10.0026 59.4793C10.0108 58.6509 10.689 57.986 11.5174 57.9943ZM111.362 64.0384C112.185 64.129 112.779 64.87 112.689 65.6935C112.651 66.0382 112.609 66.3818 112.565 66.7245C112.458 67.5459 111.705 68.125 110.883 68.0179C110.062 67.9107 109.483 67.1579 109.59 66.3364C109.632 66.0138 109.671 65.6901 109.707 65.3654C109.797 64.5419 110.538 63.9478 111.362 64.0384ZM11.6382 64.0384C12.4617 63.9478 13.2027 64.5419 13.2933 65.3654C13.329 65.6901 13.3679 66.0138 13.41 66.3364C13.5172 67.1579 12.9381 67.9107 12.1166 68.0179C11.2952 68.125 10.5424 67.546 10.4352 66.7245C10.3905 66.3818 10.3492 66.0382 10.3113 65.6935C10.2207 64.87 10.8148 64.129 11.6382 64.0384ZM110.519 70.0213C111.325 70.2108 111.825 71.0181 111.636 71.8246C111.557 72.1611 111.474 72.4963 111.389 72.8302C111.183 73.6326 110.366 74.1163 109.563 73.9105C108.761 73.7048 108.277 72.8874 108.483 72.0849C108.563 71.7706 108.641 71.4551 108.715 71.1384C108.905 70.3319 109.712 69.8318 110.519 70.0213ZM12.4814 70.0213C13.2879 69.8318 14.0953 70.3319 14.2847 71.1384C14.3592 71.4551 14.4367 71.7707 14.5173 72.085C14.7231 72.8874 14.2394 73.7048 13.4369 73.9105C12.6345 74.1163 11.8171 73.6326 11.6113 72.8302C11.5257 72.4963 11.4433 72.1611 11.3643 71.8246C11.1748 71.0182 11.6749 70.2108 12.4814 70.0213ZM108.958 75.8555C109.735 76.1416 110.134 77.0037 109.847 77.7812C109.728 78.1065 109.605 78.4302 109.479 78.7523C109.177 79.5238 108.307 79.9046 107.536 79.6029C106.764 79.3011 106.383 78.4311 106.685 77.6596C106.804 77.3563 106.919 77.0516 107.032 76.7454C107.318 75.9679 108.18 75.5695 108.958 75.8555ZM14.0424 75.8555C14.8199 75.5695 15.682 75.9679 15.968 76.7454C16.0807 77.0516 16.1963 77.3563 16.3149 77.6596C16.6167 78.4311 16.2359 79.3011 15.4644 79.6029C14.6929 79.9047 13.8228 79.5238 13.521 78.7523C13.395 78.4302 13.2722 78.1065 13.1525 77.7812C12.8665 77.0037 13.2649 76.1416 14.0424 75.8555ZM106.699 81.4595C107.436 81.8377 107.727 82.7418 107.348 83.4789C107.191 83.7865 107.03 84.0923 106.866 84.3963C106.473 85.1256 105.563 85.3982 104.834 85.0053C104.105 84.6123 103.832 83.7025 104.225 82.9732C104.379 82.687 104.531 82.399 104.679 82.1093C105.057 81.3723 105.962 81.0813 106.699 81.4595ZM16.3014 81.4595C17.0384 81.0814 17.9425 81.3723 18.3207 82.1093C18.4693 82.399 18.6208 82.687 18.775 82.9732C19.168 83.7025 18.8954 84.6123 18.1661 85.0053C17.4368 85.3983 16.5271 85.1256 16.1341 84.3963C15.9703 84.0924 15.8094 83.7865 15.6516 83.4789C15.2734 82.7418 15.5643 81.8377 16.3014 81.4595ZM103.779 86.7473C104.465 87.2116 104.644 88.1442 104.18 88.8302C103.986 89.1168 103.789 89.4013 103.59 89.6837C103.112 90.3603 102.176 90.5212 101.499 90.0432C100.823 89.5652 100.662 88.6292 101.14 87.9526C101.328 87.6866 101.513 87.4187 101.696 87.1488C102.16 86.4627 103.092 86.2829 103.779 86.7473ZM19.2215 86.7473C19.9076 86.2829 20.8402 86.4627 21.3045 87.1488C21.4871 87.4187 21.6724 87.6866 21.8604 87.9526C22.3384 88.6292 22.1774 89.5652 21.5008 90.0432C20.8242 90.5213 19.8882 90.3603 19.4102 89.6837C19.2107 89.4013 19.0139 89.1168 18.82 88.8302C18.3557 88.1442 18.5354 87.2116 19.2215 86.7473ZM100.242 91.6456C100.867 92.1889 100.934 93.1363 100.391 93.7617C100.164 94.0227 99.9345 94.2813 99.7027 94.5376C99.1469 95.152 98.1984 95.1995 97.584 94.6437C96.9697 94.088 96.9221 93.1394 97.4779 92.525C97.6963 92.2836 97.9123 92.0399 98.1259 91.7941C98.6693 91.1687 99.6167 91.1022 100.242 91.6456ZM22.758 91.6456C23.3833 91.1023 24.3307 91.1688 24.8741 91.7941C25.0877 92.0399 25.3037 92.2836 25.5221 92.5251C26.0779 93.1394 26.0304 94.088 25.416 94.6437C24.8016 95.1995 23.8531 95.152 23.2973 94.5376C23.0655 94.2813 22.8362 94.0227 22.6094 93.7617C22.0661 93.1364 22.1326 92.1889 22.758 91.6456ZM96.1437 96.084C96.6995 96.6984 96.652 97.6469 96.0376 98.2027C95.7813 98.4345 95.5227 98.6638 95.2617 98.8905C94.6364 99.4339 93.6889 99.3674 93.1456 98.742C92.6023 98.1167 92.6688 97.1693 93.2941 96.6259C93.5399 96.4123 93.7836 96.1963 94.0251 95.9779C94.6394 95.4221 95.588 95.4696 96.1437 96.084ZM26.8563 96.084C27.412 95.4697 28.3606 95.4221 28.9749 95.9779C29.2164 96.1963 29.4601 96.4123 29.7059 96.6259C30.3313 97.1693 30.3977 98.1167 29.8544 98.742C29.3111 99.3674 28.3636 99.4339 27.7383 98.8905C27.4773 98.6638 27.2187 98.4345 26.9624 98.2027C26.348 97.6469 26.3005 96.6984 26.8563 96.084ZM91.5432 99.9992C92.0213 100.676 91.8603 101.612 91.1837 102.09C90.9013 102.289 90.6168 102.486 90.3302 102.68C89.6442 103.144 88.7116 102.965 88.2473 102.278C87.7829 101.592 87.9627 100.66 88.6488 100.196C88.9187 100.013 89.1866 99.8276 89.4526 99.6396C90.1292 99.1616 91.0652 99.3226 91.5432 99.9992ZM31.4568 99.9992C31.9348 99.3226 32.8708 99.1616 33.5474 99.6396C33.8134 99.8276 34.0813 100.013 34.3512 100.196C35.0373 100.66 35.2171 101.592 34.7527 102.279C34.2884 102.965 33.3558 103.144 32.6698 102.68C32.3832 102.486 32.0987 102.289 31.8163 102.09C31.1397 101.612 30.9788 100.676 31.4568 99.9992ZM36.4947 103.334C36.8877 102.605 37.7975 102.332 38.5268 102.725C38.813 102.879 39.101 103.031 39.3907 103.179C40.1277 103.557 40.4187 104.462 40.0405 105.199C39.6623 105.936 38.7582 106.227 38.0211 105.848C37.7135 105.691 37.4077 105.53 37.1037 105.366C36.3744 104.973 36.1018 104.063 36.4947 103.334ZM86.5053 103.334C86.8983 104.063 86.6256 104.973 85.8963 105.366C85.5924 105.53 85.2865 105.691 84.9789 105.848C84.2418 106.227 83.3377 105.936 82.9595 105.199C82.5814 104.462 82.8723 103.557 83.6093 103.179C83.899 103.031 84.187 102.879 84.4732 102.725C85.2025 102.332 86.1123 102.605 86.5053 103.334ZM41.8971 106.036C42.1989 105.264 43.0689 104.883 43.8405 105.185C44.1437 105.304 44.4484 105.419 44.7546 105.532C45.5321 105.818 45.9305 106.68 45.6445 107.458C45.3584 108.235 44.4963 108.634 43.7188 108.347C43.3935 108.228 43.0698 108.105 42.7477 107.979C41.9762 107.677 41.5954 106.807 41.8971 106.036ZM81.1029 106.036C81.4047 106.807 81.0238 107.677 80.2523 107.979C79.9302 108.105 79.6065 108.228 79.2812 108.347C78.5037 108.634 77.6416 108.235 77.3555 107.458C77.0695 106.68 77.4679 105.818 78.2454 105.532C78.5516 105.419 78.8563 105.304 79.1596 105.185C79.9311 104.883 80.8011 105.264 81.1029 106.036ZM47.5895 108.063C47.7953 107.261 48.6126 106.777 49.4151 106.983C49.7294 107.063 50.0449 107.141 50.3616 107.215C51.1681 107.405 51.6682 108.212 51.4787 109.019C51.2892 109.825 50.4819 110.325 49.6754 110.136C49.3389 110.057 49.0037 109.974 48.6698 109.889C47.8674 109.683 47.3837 108.866 47.5895 108.063ZM75.4105 108.063C75.6163 108.866 75.1326 109.683 74.3302 109.889C73.9963 109.974 73.6611 110.057 73.3246 110.136C72.5182 110.325 71.7108 109.825 71.5213 109.019C71.3318 108.212 71.8319 107.405 72.6384 107.215C72.9551 107.141 73.2707 107.063 73.585 106.983C74.3874 106.777 75.2048 107.261 75.4105 108.063ZM53.4821 109.383C53.5893 108.562 54.3421 107.983 55.1636 108.09C55.4862 108.132 55.8099 108.171 56.1346 108.207C56.9581 108.297 57.5522 109.038 57.4616 109.862C57.371 110.685 56.63 111.279 55.8065 111.189C55.4618 111.151 55.1182 111.109 54.7755 111.065C53.9541 110.958 53.375 110.205 53.4821 109.383ZM69.5179 109.383C69.625 110.205 69.046 110.958 68.2245 111.065C67.8818 111.109 67.5382 111.151 67.1935 111.189C66.37 111.279 65.629 110.685 65.5384 109.862C65.4478 109.038 66.0419 108.297 66.8654 108.207C67.1901 108.171 67.5138 108.132 67.8364 108.09C68.6579 107.983 69.4107 108.562 69.5179 109.383ZM59.4943 109.983C59.5025 109.154 60.1807 108.489 61.009 108.498C61.1725 108.499 61.3362 108.5 61.5 108.5C61.6639 108.5 61.8275 108.499 61.991 108.498C62.8193 108.489 63.4975 109.154 63.5058 109.983C63.514 110.811 62.8491 111.489 62.0207 111.497C61.8473 111.499 61.6738 111.5 61.5 111.5C61.3262 111.5 61.1527 111.499 60.9793 111.497C60.1509 111.489 59.486 110.811 59.4943 109.983Z" fill="#FAAC2E"/>
<path fill-rule="evenodd" clip-rule="evenodd" d="M25 60C25 39.3375 41.8375 22.5 62.5 22.5C83.1625 22.5 100 39.3375 100 60C100 80.6625 83.1625 97.5 62.5 97.5C41.8375 97.5 25 80.6625 25 60ZM65.5641 80.8531L60.2671 75.6735C58.7802 76.0088 57.699 76.6276 56.6051 77.2537C55.711 77.7654 54.8084 78.282 53.6689 78.6525L60.7168 85.7004C61.4032 86.3867 62.5227 86.3867 63.2091 85.7004L65.5641 83.3453C66.2505 82.659 66.2505 81.5394 65.5641 80.8531ZM59.6587 42.9985C58.881 41.6518 59.3469 39.9134 60.6936 39.1359C62.0405 38.3584 63.7787 38.8242 64.5563 40.1707C66.0588 42.7733 67.4058 45.0078 68.6543 47.0416L68.2822 46.9167C66.2587 46.2374 64.0903 47.0897 63.0355 48.8473L59.6587 42.9985ZM72.7291 51.0465L70.7135 50.3699L67.4866 49.2867C66.4583 48.9415 65.3449 49.4953 64.9998 50.5236C64.7409 51.2948 64.9877 52.1139 65.5611 52.6208C65.615 52.6685 65.6718 52.7135 65.7314 52.7553C65.883 52.8619 66.0523 52.9486 66.2369 53.0106L71.4789 54.7702L69.719 60.013C69.6873 60.1074 69.6632 60.2025 69.6463 60.2977L69.6465 60.2981C69.4798 61.2396 70.0223 62.1866 70.9561 62.5001C71.9844 62.8452 73.0978 62.2914 73.4429 61.2632L75.2028 56.0202L80.4458 57.7801C81.4741 58.1253 82.5875 57.5715 82.9327 56.5432C83.2778 55.5149 82.724 54.4016 81.6958 54.0564L76.4528 52.2965L78.2124 47.0542C78.5576 46.026 78.0038 44.9126 76.9756 44.5674C75.9473 44.2222 74.8339 44.776 74.4887 45.8043L72.7291 51.0465ZM72.379 65.0309L75.1134 69.7669C75.891 71.1138 77.6292 71.5794 78.9761 70.8019C80.3229 70.0243 80.7886 68.286 80.0111 66.9392C78.7587 64.3353 77.6027 62.1021 76.4825 60.0632L75.8128 62.0585C75.2769 63.655 73.9262 64.7483 72.379 65.0309ZM56.5479 46.4148C53.6787 50.3102 51.6982 52.999 46.4624 56.595L46.4626 56.5954L44.1804 57.8978C40.6346 59.945 39.3566 64.4645 41.2579 68.0545C40.4928 68.6454 40 69.5717 40 70.6132C40 72.3976 41.4465 73.8441 43.2309 73.8441C43.699 73.8441 44.1438 73.7446 44.5454 73.5655C46.8603 76.407 50.9876 77.2412 54.2581 75.353L56.6231 74.1941L56.6353 74.2152C62.3143 71.5043 65.6369 71.1367 70.3761 70.6122L70.3771 70.6121L70.3776 70.6121C70.9688 70.5466 71.5822 70.4788 72.2249 70.4036L57.5739 45.0271C57.2161 45.5075 56.8762 45.969 56.5479 46.4147L56.5479 46.4148Z" fill="#FAAC2E"/>
</svg>
