<svg width="120" height="120" viewBox="0 0 120 120" fill="none" xmlns="http://www.w3.org/2000/svg">
<path d="M30.252 31.4648H95.2673C97.6436 31.4648 99.5701 33.3913 99.5701 35.7677V83.2611C99.5701 85.6375 97.6436 87.5639 95.2673 87.5639H30.252C27.8757 87.5639 25.9492 85.6375 25.9492 83.2611V35.7677C25.9492 33.3913 27.8757 31.4648 30.252 31.4648Z" fill="url(#paint0_linear_8092_802850)" stroke="#E1EDF8" stroke-width="5"/>
<rect opacity="0.99" x="34.4844" y="40" width="18.6207" height="22.7586" rx="1.74586" fill="white"/>
<rect opacity="0.99" x="55.8633" y="40" width="35.8621" height="5.51724" rx="1.74586" fill="white"/>
<rect opacity="0.99" x="55.8633" y="48.2754" width="35.8621" height="5.51724" rx="1.74586" fill="white"/>
<rect opacity="0.99" x="55.8633" y="56.5508" width="35.8621" height="6.2069" rx="1.74586" fill="white"/>
<rect opacity="0.99" x="34.4844" y="66.207" width="57.2414" height="13.1034" rx="1.74586" fill="white"/>
<path d="M41.2323 21.3789H17.699C16.8467 21.3797 16.0295 21.7187 15.4268 22.3214C14.8241 22.924 14.4852 23.7412 14.4844 24.5936V40.8775C14.4844 41.7301 14.8231 42.5478 15.4259 43.1506C16.0288 43.7535 16.8464 44.0922 17.699 44.0922H29.0619L32.8363 49.0809C32.9296 49.1874 33.0446 49.2728 33.1735 49.3313C33.3025 49.3898 33.4425 49.42 33.5841 49.42C33.7257 49.42 33.8657 49.3898 33.9947 49.3313C34.1237 49.2728 34.2387 49.1874 34.332 49.0809L38.0941 44.0922H41.2323C41.6555 44.0938 42.0748 44.0118 42.4662 43.851C42.8577 43.6902 43.2135 43.4536 43.5133 43.155C43.8131 42.8563 44.051 42.5014 44.2133 42.1106C44.3756 41.7197 44.4592 41.3007 44.4592 40.8775V24.5936C44.4588 24.1705 44.3749 23.7517 44.2125 23.361C44.05 22.9704 43.8121 22.6156 43.5124 22.317C43.2127 22.0184 42.857 21.7819 42.4658 21.6209C42.0745 21.4599 41.6554 21.3777 41.2323 21.3789Z" fill="url(#paint1_linear_8092_802850)"/>
<path d="M23.2383 32.067V31.1708C23.2529 31.1538 23.2605 31.132 23.2597 31.1096C23.3474 30.4543 23.6224 29.8383 24.0519 29.3356C24.4529 28.829 24.9852 28.442 25.5907 28.2166C26.1963 27.9912 26.852 27.936 27.4867 28.0571C28.2157 28.1752 28.8878 28.5236 29.4045 29.0511C29.4504 29.097 29.484 29.1123 29.5269 29.0511C29.5406 29.0334 29.5559 29.017 29.5728 29.0022C30.0264 28.5502 30.5958 28.232 31.2185 28.0826C31.8412 27.9331 32.4931 27.9581 33.1024 28.155C34.5553 28.5985 35.3964 29.617 35.6564 31.1157C35.6564 31.1371 35.6564 31.1739 35.6931 31.1677V32.0639C35.6785 32.0809 35.6709 32.1027 35.6717 32.1251C35.5638 32.9123 35.1981 33.6416 34.6318 34.1989L29.5452 39.2701C29.4779 39.3374 29.4473 39.3343 29.3831 39.2701C27.7885 37.6694 26.1919 36.0708 24.5933 34.4741C24.4617 34.3396 24.3272 34.208 24.1987 34.0704C23.6999 33.5282 23.3796 32.846 23.2811 32.1159C23.2719 32.0884 23.2872 32.0578 23.2383 32.067Z" fill="white"/>
<path d="M84.1378 55.8615C89.8511 55.8615 94.4826 51.23 94.4826 45.5167C94.4826 39.8034 89.8511 35.1719 84.1378 35.1719C78.4245 35.1719 73.793 39.8034 73.793 45.5167C73.793 51.23 78.4245 55.8615 84.1378 55.8615Z" fill="url(#paint2_linear_8092_802850)"/>
<path d="M89.5532 44.614L81.2293 39.8095C81.0709 39.7181 80.8912 39.67 80.7084 39.6699C80.5255 39.6699 80.3458 39.718 80.1874 39.8094C80.029 39.9008 79.8974 40.0322 79.8059 40.1905C79.7144 40.3489 79.6661 40.5285 79.666 40.7114V50.324C79.6661 50.5069 79.7144 50.6865 79.8059 50.8448C79.8974 51.0032 80.029 51.1346 80.1874 51.226C80.3458 51.3174 80.5255 51.3655 80.7084 51.3655C80.8912 51.3654 81.0709 51.3173 81.2293 51.2258L89.5532 46.4201C89.7119 46.3287 89.8437 46.1971 89.9353 46.0386C90.0269 45.8801 90.0752 45.7002 90.0752 45.5171C90.0752 45.334 90.0269 45.1541 89.9353 44.9956C89.8437 44.837 89.7119 44.7054 89.5532 44.614Z" fill="white"/>
<path d="M39.7366 87.0711C42.0701 90.1004 44.579 93.3617 47.0897 96.6195C47.6885 97.4013 48.3242 98.1602 48.8784 98.9875C49.9949 100.64 49.4759 102.653 47.6895 103.538C46.3798 104.185 45.0347 104.774 43.6775 105.322C41.9013 106.038 39.925 105.458 38.6805 103.865C35.6598 99.977 32.6556 96.0732 29.6681 92.1538C29.2696 91.6286 28.9605 91.408 28.2412 91.6056C26.6752 92.0424 25.4704 91.389 24.7725 89.8952C24.6218 89.5713 24.481 89.2415 24.3131 88.8705C23.9816 88.9709 23.7521 89.0609 23.5217 89.1481C21.3528 89.9452 19.9237 89.351 18.9898 87.2711C18.0317 85.1403 17.0657 83.012 16.1124 80.8681C15.1283 78.6608 15.6864 77.1035 17.8408 75.9791C17.9976 75.8996 18.1486 75.8102 18.4205 75.6579C18.2021 75.1683 17.9896 74.7176 17.7996 74.2543C17.1811 72.7336 17.6967 71.1223 19.1919 70.4422C23.0208 68.6997 26.8733 66.9966 30.7407 65.3327C31.2764 65.0927 31.8816 65.0574 32.4411 65.2335C33.3462 65.6198 33.9173 65.2895 34.5752 64.7642C39.5558 60.8423 43.6813 56.2075 46.5086 50.5054C47.052 49.3072 47.5265 48.0791 47.9298 46.8271C48.2438 45.9375 48.7597 45.2515 49.7546 45.1449C50.7495 45.0383 51.3868 45.6484 51.8388 46.4659C52.0144 46.7852 52.1576 47.123 52.3054 47.4565C55.3911 54.3513 58.4741 61.2498 61.5544 68.152C63.7199 73.0248 65.8561 77.9065 68.0002 82.7857C68.158 83.1142 68.2826 83.4576 68.3722 83.8108C68.753 85.52 67.4554 86.7077 65.7884 86.1857C65.14 85.9719 64.5249 85.6083 63.8727 85.3724C56.7933 82.8124 49.5563 82.7272 42.2384 84.0983C42.0338 84.1308 41.8462 84.2318 41.7065 84.3846C41.0653 85.225 40.4562 86.0847 39.7366 87.0711Z" fill="url(#paint3_linear_8092_802850)"/>
<path d="M71.8304 58.772C72.2995 59.5424 72.7261 60.342 73.0134 61.197C74.0984 64.4261 74.5173 67.7007 74.0304 71.1135C73.9969 71.3302 73.9695 71.5481 73.9344 71.7595C73.7111 72.8428 73.0156 73.4173 72.1434 73.2452C71.2712 73.073 70.8854 72.378 71.0325 71.3033C71.3329 69.0879 71.384 66.8782 70.8631 64.6877C69.7693 60.1158 67.441 56.3719 63.5012 53.7044L63.3183 53.5823C62.2984 52.8845 62.0077 52.0792 62.5036 51.3178C62.9995 50.5564 64.0146 50.3914 64.9822 51.1865C66.5425 52.4829 68.1469 53.7805 69.4727 55.3051C70.3841 56.3522 71.098 57.5692 71.8304 58.772Z" fill="url(#paint4_linear_8092_802850)"/>
<path d="M66.8546 62.5156C67.843 64.7968 68.1991 67.3018 67.8857 69.7692C67.7469 70.9579 67.0683 71.5593 66.1454 71.4607C65.2225 71.3621 64.7695 70.6089 64.9088 69.4027C65.4008 65.1523 63.9131 61.7746 60.4456 59.2694C59.4961 58.5823 59.2514 57.8038 59.7487 57.0565C60.246 56.3093 61.1567 56.2137 62.154 56.8659C64.2152 58.2782 65.8425 60.234 66.8546 62.5156Z" fill="url(#paint5_linear_8092_802850)"/>
<path d="M17.9465 75.3606C17.057 73.3385 17.9752 70.9781 19.9974 70.0886L30.1477 65.6237C32.1987 64.7215 34.5906 65.6799 35.4514 67.7486L41.4575 82.1844C42.0428 83.5912 41.7781 85.2083 40.7748 86.355L40.6004 86.5543C40.205 87.0061 39.713 87.3631 39.1609 87.5989L29.4723 91.736C27.4561 92.5969 25.1227 91.6746 24.24 89.668L17.9465 75.3606Z" fill="url(#paint6_linear_8092_802850)"/>
<path d="M80 88.5005C80 79.3881 87.3872 72 96.5005 72C100.582 72 104.318 73.4824 107.199 75.9396C110.749 78.9659 113 83.47 113 88.5005C113 97.6128 105.613 105 96.5005 105C94.2303 105 92.067 104.542 90.0982 103.712C84.1646 101.212 80 95.3426 80 88.5005Z" fill="url(#paint7_linear_8092_802850)"/>
<path d="M93.5776 91.1414C94.4936 90.2177 95.3692 89.3319 96.2475 88.4521C98.3058 86.3899 100.362 84.3297 102.417 82.2714C103.374 81.315 104.829 81.4382 105.532 82.5196C106.057 83.3235 105.947 84.3075 105.226 85.0339C103.237 87.0381 101.244 89.0383 99.2491 91.0345C97.8621 92.4252 96.4749 93.8154 95.0874 95.205C94.1576 96.1347 93.0302 96.1407 92.0961 95.2119C90.7819 93.909 89.4746 92.5999 88.1742 91.2844C87.5976 90.7037 87.4206 90.0048 87.6775 89.2285C87.9344 88.4521 88.4947 88.0265 89.281 87.9058C89.9306 87.8059 90.4935 88.0316 90.9558 88.4952C91.8143 89.3577 92.6701 90.2237 93.5776 91.1414Z" fill="white"/>
<defs>
<linearGradient id="paint0_linear_8092_802850" x1="23.4492" y1="37.6933" x2="76.0735" y2="109.197" gradientUnits="userSpaceOnUse">
<stop stop-color="white"/>
<stop offset="1" stop-color="#E2F1FA"/>
</linearGradient>
<linearGradient id="paint1_linear_8092_802850" x1="28.0641" y1="17.0234" x2="37.7548" y2="52.9506" gradientUnits="userSpaceOnUse">
<stop stop-color="#FFB74B"/>
<stop offset="1" stop-color="#FCCA80"/>
</linearGradient>
<linearGradient id="paint2_linear_8092_802850" x1="71.9557" y1="57.0246" x2="98.5472" y2="48.8666" gradientUnits="userSpaceOnUse">
<stop stop-color="#05E0E0"/>
<stop offset="1" stop-color="#02C8C8"/>
</linearGradient>
<linearGradient id="paint3_linear_8092_802850" x1="21.9019" y1="115.221" x2="78.5766" y2="79.8332" gradientUnits="userSpaceOnUse">
<stop stop-color="#05E0E0"/>
<stop offset="1" stop-color="#02E2E2"/>
</linearGradient>
<linearGradient id="paint4_linear_8092_802850" x1="68.7236" y1="75.8906" x2="78.6812" y2="71.7843" gradientUnits="userSpaceOnUse">
<stop stop-color="#05E0E0"/>
<stop offset="1" stop-color="#02C8C8"/>
</linearGradient>
<linearGradient id="paint5_linear_8092_802850" x1="63.6004" y1="73.3169" x2="71.0789" y2="70.1132" gradientUnits="userSpaceOnUse">
<stop stop-color="#05E0E0"/>
<stop offset="1" stop-color="#02C8C8"/>
</linearGradient>
<linearGradient id="paint6_linear_8092_802850" x1="34.1377" y1="91.0338" x2="22.4135" y2="67.5855" gradientUnits="userSpaceOnUse">
<stop stop-color="#00BBBB"/>
<stop offset="1" stop-color="#00D5D4"/>
</linearGradient>
<linearGradient id="paint7_linear_8092_802850" x1="98.0498" y1="110.126" x2="85.9756" y2="68.2502" gradientUnits="userSpaceOnUse">
<stop stop-color="#FFB74B"/>
<stop offset="1" stop-color="#FCCA80"/>
</linearGradient>
</defs>
</svg>
