<svg width="20" height="20" viewBox="0 0 20 20" fill="none" xmlns="http://www.w3.org/2000/svg">
<circle cx="10.1662" cy="10.1662" r="7.83415" fill="url(#paint0_linear_10039_22231)"/>
<path d="M12.8155 13.7674C13.0952 13.5033 13.1113 13.0539 12.8515 12.7637C12.5917 12.4734 12.1544 12.4521 11.8747 12.7161C11.595 12.9802 11.5789 13.4296 11.8387 13.7198C12.0985 14.0101 12.5359 14.0314 12.8155 13.7674Z" fill="url(#paint1_linear_10039_22231)"/>
<path d="M13.0373 11.0081C13.0373 11.0692 13.0349 11.1315 13.0313 11.1925C13.0276 11.2436 13.024 11.2959 13.0179 11.347C13.0143 11.3769 13.0106 11.4056 13.007 11.4342C12.9476 11.6984 12.6964 11.8666 12.4356 11.8118C12.4259 11.8093 12.415 11.8068 12.4053 11.8043L12.3422 11.7818C12.1469 11.6984 12.0232 11.4928 12.0402 11.2747C12.0438 11.2523 12.0462 11.2311 12.0474 11.2087C12.0474 11.2037 12.0499 11.1975 12.0499 11.1925C12.0559 11.1315 12.0583 11.0704 12.0583 11.0081C12.0583 10.7502 12.0098 10.5047 11.9201 10.2805C11.8521 10.106 11.7599 9.94531 11.6459 9.80077C11.6216 9.76713 11.5949 9.73474 11.567 9.70359C11.5598 9.69362 11.5513 9.6849 11.5428 9.67493C11.4967 9.6226 11.4482 9.57401 11.3984 9.52916C10.7397 8.93234 9.77285 8.87129 9.06197 9.37341C8.9904 9.42449 8.92125 9.48056 8.85574 9.54286C8.47483 9.9017 8.27224 10.3864 8.25162 10.881C8.24919 10.9396 8.24919 10.9994 8.25162 11.0579V11.0604C8.25525 11.1464 8.26496 11.2324 8.28073 11.3184C8.3426 11.6735 8.50152 12.0161 8.75869 12.3039C8.8242 12.3774 8.89456 12.4459 8.96856 12.5058C8.98191 12.517 8.99525 12.5269 9.00859 12.5381C9.02679 12.5531 9.0462 12.5681 9.06561 12.5818C9.06682 12.583 9.06804 12.5842 9.06925 12.5842C9.09594 12.6042 9.12263 12.6241 9.15053 12.6403C9.4441 12.8359 9.79469 12.9481 10.1695 12.9481C10.2496 12.9481 10.3272 12.9431 10.4049 12.9331H10.4085C10.4546 12.9281 10.5007 12.9306 10.548 12.9406C10.8125 12.9967 10.986 13.2621 10.935 13.5337C10.8962 13.7393 10.7397 13.89 10.5517 13.9274C10.5323 13.9311 10.5116 13.9336 10.491 13.9349C10.4619 13.9386 10.4328 13.9411 10.4037 13.9436C10.3648 13.9473 10.326 13.9498 10.2872 13.9511C10.2472 13.9523 10.2084 13.9536 10.1695 13.9536C10.1259 13.9536 10.081 13.9523 10.0373 13.9498C9.79226 13.9374 9.54843 13.8925 9.31187 13.8165C9.25122 13.7978 9.19299 13.7766 9.13476 13.7517C9.102 13.7393 9.06925 13.7255 9.03771 13.7118C9.00132 13.6956 8.96614 13.6794 8.93096 13.6608C8.88971 13.6408 8.84846 13.6184 8.80843 13.5972H8.80722C8.76597 13.5723 8.72594 13.5486 8.68712 13.5249C8.45178 13.3817 8.23342 13.201 8.03811 12.983C7.82824 12.7475 7.66083 12.4871 7.53709 12.2117C7.46188 12.046 7.40244 11.8753 7.35877 11.7021C7.31388 11.5239 7.28598 11.3433 7.27385 11.1614C7.27021 11.1053 7.26778 11.0492 7.26657 10.9919V10.9334L7.26172 7.86082C7.26172 7.58172 7.48129 7.35745 7.75303 7.35994C8.02476 7.36243 8.24555 7.59169 8.24676 7.87078V8.73922L9.04741 6.75191C9.15053 6.494 9.43803 6.37439 9.69036 6.48403C9.94147 6.59367 10.0616 6.89021 9.95724 7.14813L9.58482 8.07512C10.5335 7.89196 11.5549 8.20595 12.2622 8.99588C12.324 9.06441 12.381 9.13543 12.4332 9.2077C12.4684 9.2538 12.5011 9.30114 12.5339 9.34974C12.5472 9.36843 12.5594 9.38712 12.5703 9.40581C12.5909 9.43695 12.6091 9.46686 12.6273 9.49801C12.8869 9.94157 13.0373 10.4574 13.0373 11.0081Z" fill="url(#paint2_linear_10039_22231)"/>
<path d="M18.0003 10.1662C18.0003 14.4929 14.4929 18.0003 10.1662 18.0003C5.8395 18.0003 2.33203 14.4929 2.33203 10.1662C2.33203 5.8395 5.8395 2.33203 10.1662 2.33203C14.4929 2.33203 18.0003 5.8395 18.0003 10.1662ZM3.06522 10.1662C3.06522 14.0879 6.24443 17.2671 10.1662 17.2671C14.0879 17.2671 17.2671 14.0879 17.2671 10.1662C17.2671 6.24443 14.0879 3.06522 10.1662 3.06522C6.24443 3.06522 3.06522 6.24443 3.06522 10.1662Z" fill="#039B92"/>
<path d="M19.3317 10.1659C19.3317 15.228 15.228 19.3317 10.1659 19.3317C5.10369 19.3317 1 15.228 1 10.1659C1 5.10369 5.10369 1 10.1659 1C15.228 1 19.3317 5.10369 19.3317 10.1659ZM1.73488 10.1659C1.73488 14.8222 5.50956 18.5968 10.1659 18.5968C14.8222 18.5968 18.5968 14.8222 18.5968 10.1659C18.5968 5.50956 14.8222 1.73488 10.1659 1.73488C5.50956 1.73488 1.73488 5.50956 1.73488 10.1659Z" fill="#039B92"/>
<defs>
<linearGradient id="paint0_linear_10039_22231" x1="4.31355" y1="2.18871" x2="18.1385" y2="20.7992" gradientUnits="userSpaceOnUse">
<stop stop-color="#02A7CB"/>
<stop offset="1" stop-color="#00FCBF"/>
</linearGradient>
<linearGradient id="paint1_linear_10039_22231" x1="21.4786" y1="17.1061" x2="3.47872" y2="11.2136" gradientUnits="userSpaceOnUse">
<stop stop-color="#CED2EB"/>
<stop offset="1" stop-color="white"/>
</linearGradient>
<linearGradient id="paint2_linear_10039_22231" x1="21.4786" y1="17.1061" x2="3.47872" y2="11.2136" gradientUnits="userSpaceOnUse">
<stop stop-color="#CED2EB"/>
<stop offset="1" stop-color="white"/>
</linearGradient>
</defs>
</svg>
