<svg width="21" height="20" viewBox="0 0 21 20" fill="none" xmlns="http://www.w3.org/2000/svg">
<ellipse cx="10.5" cy="9.99943" rx="8.125" ry="8.12443" fill="url(#paint0_linear_11783_406031)"/>
<path d="M13.8415 7.26795L6.39844 5.89844L10.3154 15.7532L15.7734 9.10463L13.8415 7.26795ZM13.7219 7.87124L14.8606 8.95355L11.7466 9.51714L13.7219 7.87124ZM11.07 9.40421L7.78782 6.68271L13.1525 7.66963L11.07 9.40421ZM10.8363 9.88581L10.301 14.3099L7.41546 7.04829L10.8363 9.8853V9.88581ZM11.3314 10.1204L14.7801 9.49651L10.8245 14.3141L11.3314 10.1204Z" fill="url(#paint1_linear_11783_406031)"/>
<path d="M18.625 9.99943C18.625 14.4864 14.9873 18.1239 10.5 18.1239C6.01269 18.1239 2.375 14.4864 2.375 9.99943C2.375 5.51243 6.01269 1.875 10.5 1.875C14.9873 1.875 18.625 5.51243 18.625 9.99943ZM3.43008 9.99943C3.43008 13.9038 6.59539 17.0689 10.5 17.0689C14.4046 17.0689 17.5699 13.9038 17.5699 9.99943C17.5699 6.09509 14.4046 2.93 10.5 2.93C6.59539 2.93 3.43008 6.09509 3.43008 9.99943Z" fill="#A60000"/>
<defs>
<linearGradient id="paint0_linear_11783_406031" x1="4.83712" y1="2.85978" x2="16.6543" y2="18.1247" gradientUnits="userSpaceOnUse">
<stop offset="0.0677083" stop-color="#EA0000"/>
<stop offset="1" stop-color="#FFA724"/>
</linearGradient>
<linearGradient id="paint1_linear_11783_406031" x1="19.2891" y1="18.8328" x2="4.53876" y2="7.36996" gradientUnits="userSpaceOnUse">
<stop stop-color="#CED2EB"/>
<stop offset="1" stop-color="white"/>
</linearGradient>
</defs>
</svg>
