<svg width="130" height="130" viewBox="0 0 130 130" fill="none" xmlns="http://www.w3.org/2000/svg">
<g filter="url(#filter0_d_18826_177491)">
<path d="M12.5 60.0015C12.5 31.0076 36.0046 7.5 65.0015 7.5C77.9893 7.5 89.8762 12.2169 99.0437 20.035C110.339 29.6641 117.5 43.9954 117.5 60.0015C117.5 88.9954 93.9954 112.5 65.0015 112.5C57.7782 112.5 50.8952 111.041 44.6306 108.402C25.7511 100.447 12.5 81.7721 12.5 60.0015Z" fill="white"/>
<path fill-rule="evenodd" clip-rule="evenodd" d="M65.0013 15.2705C40.3002 15.2705 20.2777 35.2967 20.2777 59.9967C20.2777 78.5431 31.5657 94.4527 47.6483 101.229C52.9847 103.478 58.848 104.72 65.0012 104.72C89.6998 104.72 109.722 84.6967 109.722 59.9967C109.722 46.361 103.622 34.1522 94.0002 25.9491C86.1909 19.2888 76.0649 15.2705 65.0013 15.2705Z" fill="url(#paint0_linear_18826_177491)"/>
<path d="M60.6921 69.804C60.1641 69.804 59.9001 69.5392 59.9001 69.0095V65.0371C59.9001 62.6536 60.4281 60.6939 61.4841 59.1578C62.5929 57.6218 64.2033 55.9799 66.3153 54.232C68.2689 52.59 69.7209 51.107 70.6713 49.7828C71.6746 48.4587 72.1762 46.7638 72.1762 44.6981C72.1762 42.3146 71.5162 40.4343 70.1961 39.0572C68.9289 37.6271 67.2129 36.9121 65.0481 36.9121C62.8305 36.9121 61.0353 37.6536 59.6625 39.1367C58.2897 40.5667 57.6033 42.4735 57.6033 44.857V46.9227C57.6033 47.4523 57.3393 47.7172 56.8112 47.7172L50.792 47.3994C50.264 47.3994 50 47.1345 50 46.6049V44.857C50 40.4078 51.3992 36.8326 54.1976 34.1314C56.996 31.3771 60.6657 30 65.2065 30C69.6417 30 73.1794 31.3242 75.8194 33.9725C78.4594 36.5678 79.7794 40.0636 79.7794 44.4597C79.7794 46.7903 79.4098 48.803 78.6706 50.4979C77.9842 52.1928 77.1394 53.5699 76.1362 54.6292C75.1858 55.6886 73.9186 56.8803 72.3346 58.2045C70.6977 59.5816 69.4833 60.7733 68.6913 61.7797C67.8993 62.786 67.5033 64.0042 67.5033 65.4343V69.0095C67.5033 69.5392 67.2393 69.804 66.7113 69.804H60.6921ZM63.6225 86.25C62.1441 86.25 60.9297 85.7733 59.9793 84.8199C59.0289 83.8665 58.5537 82.6483 58.5537 81.1653C58.5537 79.6822 59.0289 78.464 59.9793 77.5106C60.9297 76.5572 62.1441 76.0805 63.6225 76.0805C65.1009 76.0805 66.3153 76.5572 67.2657 77.5106C68.2161 78.464 68.6913 79.6822 68.6913 81.1653C68.6913 82.6483 68.2161 83.8665 67.2657 84.8199C66.3153 85.7733 65.1009 86.25 63.6225 86.25Z" fill="white"/>
</g>
<defs>
<filter id="filter0_d_18826_177491" x="-7" y="-7" width="144" height="144" filterUnits="userSpaceOnUse" color-interpolation-filters="sRGB">
<feFlood flood-opacity="0" result="BackgroundImageFix"/>
<feColorMatrix in="SourceAlpha" type="matrix" values="0 0 0 0 0 0 0 0 0 0 0 0 0 0 0 0 0 0 127 0" result="hardAlpha"/>
<feOffset dy="5"/>
<feGaussianBlur stdDeviation="6"/>
<feColorMatrix type="matrix" values="0 0 0 0 0.0627451 0 0 0 0 0.0941176 0 0 0 0 0.156863 0 0 0 0.05 0"/>
<feBlend mode="normal" in2="BackgroundImageFix" result="effect1_dropShadow_18826_177491"/>
<feBlend mode="normal" in="SourceGraphic" in2="effect1_dropShadow_18826_177491" result="shape"/>
</filter>
<linearGradient id="paint0_linear_18826_177491" x1="183.125" y1="5.62451" x2="33.6879" y2="92.6436" gradientUnits="userSpaceOnUse">
<stop stop-color="#FFA133"/>
<stop offset="1" stop-color="#FFC633"/>
</linearGradient>
</defs>
</svg>
