<svg width="122" height="136" viewBox="0 0 122 136" fill="none" xmlns="http://www.w3.org/2000/svg">
<g filter="url(#filter0_d_18826_186689)">
<path d="M12.25 39.666C12.25 37.4113 13.4078 35.3394 15.3578 34.1207L57.5875 8.10039C59.6594 6.8207 62.3406 6.8207 64.4125 8.10039L106.642 34.1816C108.531 35.3394 109.75 37.4722 109.75 39.7269V88.3549C109.75 90.6706 108.47 92.8643 106.459 94.0221L64.2297 117.971C62.2188 119.067 59.7812 119.067 57.8312 117.971L15.5406 93.9612C13.5297 92.8034 12.25 90.6706 12.25 88.294V39.666Z" fill="#FF5858"/>
<path fill-rule="evenodd" clip-rule="evenodd" d="M64.3003 16.0874L100.51 38.1709C102.484 39.4046 103.656 41.5019 103.656 43.7843V84.8669C103.656 87.2727 102.36 89.4933 100.325 90.6037L64.1152 110.898C62.1413 112.009 59.6739 112.009 57.6999 110.898L21.4903 90.6037C19.393 89.4933 18.1593 87.2727 18.1593 84.8669V43.7843C18.1593 41.5019 19.3313 39.4046 21.3053 38.1709L57.4531 16.0874C59.5505 14.8537 62.2029 14.8537 64.3003 16.0874ZM65.4688 45.0942C67.2303 45.0967 68.2691 46.2793 68.2765 47.2775L68.3957 63.2287C68.4044 64.3969 67.5178 65.3689 66.3807 65.7426C62.3133 67.0796 59.2785 70.4892 59.3103 74.7454C59.3176 75.7184 60.1338 76.5014 61.1335 76.4944C62.1331 76.4873 62.9376 75.6928 62.9304 74.7198C62.9068 71.5708 65.9429 68.6496 70.2306 68.6557C70.7134 68.6564 71.1765 68.4693 71.5169 68.136C71.8573 67.8028 72.0468 67.351 72.0433 66.8811L71.9846 59.0294C71.9773 58.0486 72.9734 56.8822 74.7284 56.8847C76.4899 56.8872 77.5287 58.0698 77.5361 59.068L77.6241 70.8455C77.68 78.3308 70.564 84.7615 61.2109 84.7483C51.8515 84.735 44.6139 78.2708 44.5579 70.768L44.4259 53.1018C44.4186 52.121 45.4146 50.9546 47.1697 50.9571C48.9312 50.9596 49.9699 52.1422 49.9774 53.1404L50.036 60.992C50.0433 61.965 50.8596 62.7481 51.8592 62.741C52.8589 62.7339 53.6634 61.9394 53.6561 60.9664L53.5241 43.3001C53.5168 42.3193 54.5129 41.153 56.2679 41.1554C58.0294 41.1579 59.0682 42.3405 59.0756 43.3387L59.193 59.0421C59.2002 60.0151 60.0165 60.7981 61.0162 60.791C62.0158 60.784 62.8203 59.9894 62.813 59.0164L62.725 47.2389C62.7177 46.2581 63.7138 45.0917 65.4688 45.0942ZM83.6937 57.5441C82.8141 54.2491 80.2453 51.7811 76.7981 50.9477C75.8279 50.7132 75.2368 49.7575 75.4777 48.8131C75.7187 47.8688 76.7006 47.2934 77.6708 47.528C82.3908 48.669 85.9803 52.0983 87.1975 56.6579C87.4489 57.5997 86.8684 58.5615 85.9008 58.8062C84.9333 59.0509 83.9451 58.4859 83.6937 57.5441ZM36.6202 69.0106C37.6198 69.0036 38.4361 69.7866 38.4434 70.7596C38.4722 74.6154 39.8314 78.2777 42.2598 81.5172C42.849 82.3032 42.6721 83.4054 41.8645 83.9789C41.0569 84.5525 39.9246 84.3802 39.3354 83.5942C36.5134 79.8297 34.8582 75.4621 34.8233 70.7852C34.816 69.8122 35.6205 69.0177 36.6202 69.0106Z" fill="url(#paint0_linear_18826_186689)"/>
</g>
<defs>
<filter id="filter0_d_18826_186689" x="-11" y="-5" width="144" height="144" filterUnits="userSpaceOnUse" color-interpolation-filters="sRGB">
<feFlood flood-opacity="0" result="BackgroundImageFix"/>
<feColorMatrix in="SourceAlpha" type="matrix" values="0 0 0 0 0 0 0 0 0 0 0 0 0 0 0 0 0 0 127 0" result="hardAlpha"/>
<feOffset dy="5"/>
<feGaussianBlur stdDeviation="6"/>
<feColorMatrix type="matrix" values="0 0 0 0 0.0627451 0 0 0 0 0.0941176 0 0 0 0 0.156863 0 0 0 0.05 0"/>
<feBlend mode="normal" in2="BackgroundImageFix" result="effect1_dropShadow_18826_186689"/>
<feBlend mode="normal" in="SourceGraphic" in2="effect1_dropShadow_18826_186689" result="shape"/>
</filter>
<linearGradient id="paint0_linear_18826_186689" x1="18.1593" y1="28.9577" x2="105.076" y2="110.212" gradientUnits="userSpaceOnUse">
<stop stop-color="white"/>
<stop offset="1" stop-color="#E2F1FA"/>
</linearGradient>
</defs>
</svg>
