<svg width="130" height="130" viewBox="0 0 130 130" fill="none" xmlns="http://www.w3.org/2000/svg">
<g filter="url(#filter0_d_18857_189385)">
<path d="M12.5 60.0015C12.5 31.0076 36.0046 7.5 65.0015 7.5C77.9893 7.5 89.8762 12.2169 99.0437 20.035C110.339 29.6641 117.5 43.9954 117.5 60.0015C117.5 88.9954 93.9954 112.5 65.0015 112.5C57.7782 112.5 50.8952 111.041 44.6306 108.402C25.7511 100.447 12.5 81.7721 12.5 60.0015Z" fill="white"/>
<path fill-rule="evenodd" clip-rule="evenodd" d="M20.2778 59.9967C20.2778 35.2967 40.3003 15.2705 65.0014 15.2705C76.065 15.2705 86.191 19.2888 94.0003 25.9491C103.622 34.1522 109.722 46.3611 109.722 59.9967C109.722 84.6967 89.6999 104.72 65.0014 104.72C58.8482 104.72 52.9849 103.478 47.6484 101.229C31.5658 94.4527 20.2778 78.5432 20.2778 59.9967ZM42.5 63.55L58.5009 79.5509L91.2498 46.8019L83.958 39.51L58.5009 64.9929L49.7918 56.2581L42.5 63.55Z" fill="#05E0AC"/>
</g>
<defs>
<filter id="filter0_d_18857_189385" x="-7" y="-7" width="144" height="144" filterUnits="userSpaceOnUse" color-interpolation-filters="sRGB">
<feFlood flood-opacity="0" result="BackgroundImageFix"/>
<feColorMatrix in="SourceAlpha" type="matrix" values="0 0 0 0 0 0 0 0 0 0 0 0 0 0 0 0 0 0 127 0" result="hardAlpha"/>
<feOffset dy="5"/>
<feGaussianBlur stdDeviation="6"/>
<feColorMatrix type="matrix" values="0 0 0 0 0.0627451 0 0 0 0 0.0941176 0 0 0 0 0.156863 0 0 0 0.05 0"/>
<feBlend mode="normal" in2="BackgroundImageFix" result="effect1_dropShadow_18857_189385"/>
<feBlend mode="normal" in="SourceGraphic" in2="effect1_dropShadow_18857_189385" result="shape"/>
</filter>
</defs>
</svg>
