<svg width="133" height="111" viewBox="0 0 133 111" fill="none" xmlns="http://www.w3.org/2000/svg">
<g clip-path="url(#clip0_12478_336869)">
<path d="M100.176 20.1484H40.2033C39.1482 20.1484 38.293 21.0037 38.293 22.0587V82.0318C38.293 83.0868 39.1482 83.9421 40.2033 83.9421H100.176C101.231 83.9421 102.087 83.0868 102.087 82.0318V22.0587C102.087 21.0037 101.231 20.1484 100.176 20.1484Z" fill="url(#paint0_linear_12478_336869)"/>
<path d="M40.1362 20.1484H100.243C101.26 20.1484 102.087 20.9751 102.087 21.9917V30.4595H38.293V21.9917C38.293 20.9751 39.1196 20.1484 40.1362 20.1484Z" fill="url(#paint1_linear_12478_336869)"/>
<path d="M70.181 58.9635C76.7918 58.9635 82.151 53.6043 82.151 46.9935C82.151 40.3826 76.7918 35.0234 70.181 35.0234C63.5701 35.0234 58.2109 40.3826 58.2109 46.9935C58.2109 53.6043 63.5701 58.9635 70.181 58.9635Z" fill="url(#paint2_linear_12478_336869)"/>
<path d="M70.6144 59.0491C77.4538 59.0491 82.9983 53.5046 82.9983 46.6652C82.9983 39.8257 77.4538 34.2812 70.6144 34.2812C63.7749 34.2812 58.2305 39.8257 58.2305 46.6652C58.2305 53.5046 63.7749 59.0491 70.6144 59.0491Z" fill="white"/>
<path fill-rule="evenodd" clip-rule="evenodd" d="M74.1972 55.9597C73.1076 55.2172 72.3922 53.9664 72.3922 52.5484C72.3922 50.6749 73.6412 49.0931 75.352 48.5903C74.2677 48.0295 73.0629 47.645 71.782 47.4783C73.2561 46.9084 74.3028 45.4726 74.3028 43.7957C74.3028 41.6037 72.5328 39.8281 70.3407 39.8281C68.1487 39.8281 66.3731 41.6037 66.3731 43.7957C66.3731 45.4726 67.4198 46.9084 68.894 47.4783C65.8197 47.8784 63.1837 49.5334 61.6055 51.8679C63.4249 54.7723 66.6581 56.7068 70.3407 56.7068C71.7047 56.7068 73.0062 56.4414 74.1972 55.9597Z" fill="url(#paint3_linear_12478_336869)"/>
<path fill-rule="evenodd" clip-rule="evenodd" d="M76.5167 49.6016C74.8895 49.6016 73.5703 50.9207 73.5703 52.548C73.5703 54.1753 74.8895 55.4944 76.5167 55.4944C78.144 55.4944 79.4632 54.1753 79.4632 52.548C79.4632 50.9207 78.144 49.6016 76.5167 49.6016ZM74.9302 52.548C74.9302 51.6718 75.6405 50.9615 76.5167 50.9615C76.7038 50.9615 76.8833 50.9938 77.0499 51.0533L75.022 53.0811C74.9626 52.9145 74.9302 52.735 74.9302 52.548ZM75.9836 54.0427L78.0115 52.0148C78.0709 52.1815 78.1033 52.361 78.1033 52.548C78.1033 53.4242 77.393 54.1345 76.5167 54.1345C76.3297 54.1345 76.1502 54.1022 75.9836 54.0427Z" fill="url(#paint4_linear_12478_336869)"/>
<path d="M86.0063 60.875H54.3636C53.8608 60.875 53.4531 61.2826 53.4531 61.7855V66.2372C53.4531 66.7401 53.8608 67.1477 54.3636 67.1477H86.0063C86.5091 67.1477 86.9167 66.7401 86.9167 66.2372V61.7855C86.9167 61.2826 86.5091 60.875 86.0063 60.875Z" fill="white"/>
<path d="M92.0279 69.6367H48.3481C47.7589 69.6367 47.2812 70.1144 47.2812 70.7036V74.8425C47.2812 75.4318 47.7589 75.9094 48.3481 75.9094H92.0279C92.6171 75.9094 93.0947 75.4318 93.0947 74.8425V70.7036C93.0947 70.1144 92.6171 69.6367 92.0279 69.6367Z" fill="white"/>
</g>
<path d="M103.78 102.363C105.727 103.184 107.866 103.637 110.109 103.637C119.116 103.637 126.418 96.3348 126.418 87.3274C126.418 82.3547 124.192 77.9015 120.685 74.9115C117.837 72.4832 114.143 71.0171 110.109 71.0171C101.1 71.0171 93.7984 78.3201 93.7984 87.3274C93.7984 94.0924 97.9167 99.893 103.78 102.363ZM103.78 102.363L104.164 101.452L103.78 102.363Z" fill="url(#paint5_linear_12478_336869)" stroke="white" stroke-width="1.97696"/>
<path d="M112.053 87.3384C113.791 85.5917 115.365 84.0074 115.926 83.4383C116.518 82.8396 116.515 81.9319 115.939 81.3603C115.413 80.8387 114.48 80.7895 113.898 81.4111C113.252 82.1 112.569 82.7552 111.903 83.4252L110.03 85.3072C108.291 83.5588 106.712 81.9745 106.145 81.4087C105.549 80.8141 104.646 80.8166 104.078 81.3947C103.558 81.9245 103.509 82.861 104.128 83.4465C104.814 84.096 105.466 84.7815 106.132 85.4515L108.008 87.3376C106.24 89.1146 104.475 90.8884 104.141 91.2271C104.043 91.3255 103.942 91.4296 103.872 91.5494C103.524 92.148 103.662 92.9689 104.167 93.3576C104.81 93.8529 105.582 93.8275 106.145 93.2657C106.712 92.7007 108.29 91.1172 110.029 89.3705C111.796 91.1459 113.558 92.9164 113.895 93.2518C113.994 93.3502 114.097 93.4519 114.216 93.5216C114.812 93.8717 115.629 93.734 116.015 93.2255C116.508 92.5793 116.482 91.8044 115.923 91.2378C115.362 90.6686 113.789 89.0851 112.051 87.3384H112.053Z" fill="white"/>
<g filter="url(#filter0_d_12478_336869)">
<rect x="7.57031" y="9.53906" width="59.2079" height="25.694" rx="4.46852" fill="url(#paint6_linear_12478_336869)"/>
</g>
<path d="M21.5386 31.3194C26.4744 31.3194 30.4756 27.3181 30.4756 22.3823C30.4756 17.4466 26.4744 13.4453 21.5386 13.4453C16.6028 13.4453 12.6016 17.4466 12.6016 22.3823C12.6016 27.3181 16.6028 31.3194 21.5386 31.3194Z" fill="url(#paint7_linear_12478_336869)"/>
<path d="M28.1857 26.5529C26.7969 28.7631 24.3406 30.2353 21.5381 30.2353C18.7357 30.2353 16.2752 28.7631 14.8906 26.5529C16.0917 24.7763 18.0976 23.5169 20.4372 23.2124C19.3154 22.7787 18.5188 21.6861 18.5188 20.41C18.5188 18.7418 19.87 17.3906 21.5381 17.3906C23.2063 17.3906 24.5533 18.7418 24.5533 20.41C24.5533 21.6861 23.7568 22.7787 22.6349 23.2124C24.9745 23.5169 26.9804 24.7763 28.1857 26.5529Z" fill="white"/>
<rect x="32.1484" y="13.4453" width="20.1083" height="4.46852" rx="1.67569" fill="url(#paint8_linear_12478_336869)"/>
<rect x="58.4023" y="13.4453" width="5.02708" height="4.46852" rx="0.558565" fill="url(#paint9_linear_12478_336869)"/>
<rect x="32.1484" y="20.1484" width="31.2796" height="10.0542" rx="1.67569" fill="url(#paint10_linear_12478_336869)"/>
<path d="M102.531 40.8164L101.973 40.8164L101.973 39.6992L102.531 39.6992L102.531 40.8164ZM109.234 68.7446L106.009 63.159L112.459 63.159L109.234 68.7446ZM109.793 46.9606L109.793 63.7175L108.675 63.7175L108.675 46.9606L109.793 46.9606ZM102.531 39.6992C106.542 39.6992 109.793 42.9503 109.793 46.9606L108.675 46.9606C108.675 43.5672 105.925 40.8164 102.531 40.8164L102.531 39.6992Z" fill="#EEF2FC"/>
<path d="M22.2734 36.6445C22.2734 36.336 22.0233 36.086 21.7148 36.086C21.4064 36.086 21.1563 36.336 21.1563 36.6445H22.2734ZM37.0363 61.3945L31.4506 58.1697V64.6194L37.0363 61.3945ZM21.1563 36.6445V56.6802H22.2734V36.6445H21.1563ZM26.4291 61.9531H32.0092V60.836H26.4291V61.9531ZM21.1563 56.6802C21.1563 59.5924 23.517 61.9531 26.4291 61.9531V60.836C24.134 60.836 22.2734 58.9754 22.2734 56.6802H21.1563Z" fill="#EEF2FC"/>
<defs>
<filter id="filter0_d_12478_336869" x="5.89462" y="8.9805" width="64.7927" height="31.281" filterUnits="userSpaceOnUse" color-interpolation-filters="sRGB">
<feFlood flood-opacity="0" result="BackgroundImageFix"/>
<feColorMatrix in="SourceAlpha" type="matrix" values="0 0 0 0 0 0 0 0 0 0 0 0 0 0 0 0 0 0 127 0" result="hardAlpha"/>
<feOffset dx="1.11713" dy="2.23426"/>
<feGaussianBlur stdDeviation="1.39641"/>
<feComposite in2="hardAlpha" operator="out"/>
<feColorMatrix type="matrix" values="0 0 0 0 0 0 0 0 0 0.175 0 0 0 0 0.4375 0 0 0 0.07 0"/>
<feBlend mode="normal" in2="BackgroundImageFix" result="effect1_dropShadow_12478_336869"/>
<feBlend mode="normal" in="SourceGraphic" in2="effect1_dropShadow_12478_336869" result="shape"/>
</filter>
<linearGradient id="paint0_linear_12478_336869" x1="-11.9108" y1="-3.14371" x2="146.001" y2="103.006" gradientUnits="userSpaceOnUse">
<stop stop-color="#D2D9EE"/>
<stop offset="1" stop-color="#E7F0F8"/>
</linearGradient>
<linearGradient id="paint1_linear_12478_336869" x1="15.6041" y1="-10.958" x2="120.782" y2="59.7451" gradientUnits="userSpaceOnUse">
<stop stop-color="#E2F1FA"/>
<stop offset="1" stop-color="white"/>
</linearGradient>
<linearGradient id="paint2_linear_12478_336869" x1="118.117" y1="24.2152" x2="84.821" y2="40.0338" gradientUnits="userSpaceOnUse">
<stop stop-color="#E2F1FA"/>
<stop offset="1" stop-color="white"/>
</linearGradient>
<linearGradient id="paint3_linear_12478_336869" x1="61.6055" y1="48.2675" x2="75.352" y2="48.2675" gradientUnits="userSpaceOnUse">
<stop stop-color="#D2D9EE"/>
<stop offset="1" stop-color="#E7F0F8"/>
</linearGradient>
<linearGradient id="paint4_linear_12478_336869" x1="73.5703" y1="52.548" x2="79.4632" y2="52.548" gradientUnits="userSpaceOnUse">
<stop stop-color="#D2D9EE"/>
<stop offset="1" stop-color="#E7F0F8"/>
</linearGradient>
<linearGradient id="paint5_linear_12478_336869" x1="111.547" y1="107.408" x2="100.336" y2="68.5237" gradientUnits="userSpaceOnUse">
<stop stop-color="#FF4B4B"/>
<stop offset="1" stop-color="#FFB6B6"/>
</linearGradient>
<linearGradient id="paint6_linear_12478_336869" x1="-13.4876" y1="-67.9743" x2="119.881" y2="-34.5823" gradientUnits="userSpaceOnUse">
<stop stop-color="#E2F1FA"/>
<stop offset="1" stop-color="white"/>
</linearGradient>
<linearGradient id="paint7_linear_12478_336869" x1="12.6012" y1="22.3829" x2="30.4748" y2="22.3829" gradientUnits="userSpaceOnUse">
<stop stop-color="#05E0E0"/>
<stop offset="1" stop-color="#02C8C8"/>
</linearGradient>
<linearGradient id="paint8_linear_12478_336869" x1="32.148" y1="15.6797" x2="52.2559" y2="15.6797" gradientUnits="userSpaceOnUse">
<stop stop-color="#05E0E0"/>
<stop offset="1" stop-color="#02C8C8"/>
</linearGradient>
<linearGradient id="paint9_linear_12478_336869" x1="52.2581" y1="11.2111" x2="67.3394" y2="21.5445" gradientUnits="userSpaceOnUse">
<stop stop-color="#D2D9EE"/>
<stop offset="1" stop-color="#E7F0F8"/>
</linearGradient>
<linearGradient id="paint10_linear_12478_336869" x1="18.7429" y1="11.77" x2="72.3651" y2="42.7703" gradientUnits="userSpaceOnUse">
<stop stop-color="#D2D9EE"/>
<stop offset="1" stop-color="#E7F0F8"/>
</linearGradient>
<clipPath id="clip0_12478_336869">
<rect width="63.7937" height="63.7937" fill="white" transform="translate(38.293 20.1484)"/>
</clipPath>
</defs>
</svg>
