<svg width="133" height="110" viewBox="0 0 133 110" fill="none" xmlns="http://www.w3.org/2000/svg">
<g clip-path="url(#clip0_12473_147743)">
<path d="M100.176 18.4688H40.2033C39.1482 18.4688 38.293 19.324 38.293 20.379V80.3521C38.293 81.4072 39.1482 82.2624 40.2033 82.2624H100.176C101.231 82.2624 102.087 81.4072 102.087 80.3521V20.379C102.087 19.324 101.231 18.4688 100.176 18.4688Z" fill="url(#paint0_linear_12473_147743)"/>
<path d="M40.1362 18.4688H100.243C101.26 18.4688 102.087 19.2954 102.087 20.312V28.7799H38.293V20.312C38.293 19.2954 39.1196 18.4688 40.1362 18.4688Z" fill="url(#paint1_linear_12473_147743)"/>
<path d="M70.181 57.2877C76.7918 57.2877 82.151 51.9286 82.151 45.3177C82.151 38.7068 76.7918 33.3477 70.181 33.3477C63.5701 33.3477 58.2109 38.7068 58.2109 45.3177C58.2109 51.9286 63.5701 57.2877 70.181 57.2877Z" fill="url(#paint2_linear_12473_147743)"/>
<path d="M70.6144 57.3733C77.4538 57.3733 82.9983 51.8288 82.9983 44.9894C82.9983 38.1499 77.4538 32.6055 70.6144 32.6055C63.7749 32.6055 58.2305 38.1499 58.2305 44.9894C58.2305 51.8288 63.7749 57.3733 70.6144 57.3733Z" fill="white"/>
<path fill-rule="evenodd" clip-rule="evenodd" d="M74.1972 54.2839C73.1076 53.5415 72.3922 52.2906 72.3922 50.8726C72.3922 48.9991 73.6412 47.4173 75.352 46.9145C74.2677 46.3537 73.0629 45.9692 71.782 45.8025C73.2561 45.2326 74.3028 43.7968 74.3028 42.1199C74.3028 39.9279 72.5328 38.1523 70.3407 38.1523C68.1487 38.1523 66.3731 39.9279 66.3731 42.1199C66.3731 43.7968 67.4198 45.2326 68.894 45.8025C65.8197 46.2026 63.1837 47.8576 61.6055 50.1921C63.4249 53.0965 66.6581 55.031 70.3407 55.031C71.7047 55.031 73.0062 54.7656 74.1972 54.2839Z" fill="url(#paint3_linear_12473_147743)"/>
<path fill-rule="evenodd" clip-rule="evenodd" d="M76.5167 47.9258C74.8895 47.9258 73.5703 49.2449 73.5703 50.8722C73.5703 52.4995 74.8895 53.8186 76.5167 53.8186C78.144 53.8186 79.4632 52.4995 79.4632 50.8722C79.4632 49.2449 78.144 47.9258 76.5167 47.9258ZM74.9302 50.8722C74.9302 49.996 75.6405 49.2857 76.5167 49.2857C76.7038 49.2857 76.8833 49.318 77.0499 49.3775L75.022 51.4054C74.9626 51.2387 74.9302 51.0592 74.9302 50.8722ZM75.9836 52.3669L78.0115 50.3391C78.0709 50.5057 78.1033 50.6852 78.1033 50.8722C78.1033 51.7484 77.393 52.4587 76.5167 52.4587C76.3297 52.4587 76.1502 52.4264 75.9836 52.3669Z" fill="url(#paint4_linear_12473_147743)"/>
<path d="M86.0063 59.1992H54.3636C53.8608 59.1992 53.4531 59.6068 53.4531 60.1097V64.5614C53.4531 65.0643 53.8608 65.4719 54.3636 65.4719H86.0063C86.5091 65.4719 86.9167 65.0643 86.9167 64.5614V60.1097C86.9167 59.6068 86.5091 59.1992 86.0063 59.1992Z" fill="white"/>
<path d="M92.0279 67.9609H48.3481C47.7589 67.9609 47.2812 68.4386 47.2812 69.0278V73.1668C47.2812 73.756 47.7589 74.2336 48.3481 74.2336H92.0279C92.6171 74.2336 93.0947 73.756 93.0947 73.1668V69.0278C93.0947 68.4386 92.6171 67.9609 92.0279 67.9609Z" fill="white"/>
</g>
<path d="M94.7868 85.6438C94.7868 77.1824 101.646 70.322 110.109 70.322C113.899 70.322 117.368 71.6985 120.043 73.9802C123.34 76.7903 125.43 80.9727 125.43 85.6438C125.43 94.1053 118.57 100.965 110.109 100.965C108.001 100.965 105.992 100.539 104.164 99.7688C98.654 97.4474 94.7868 91.9973 94.7868 85.6438Z" fill="#05E0AC" stroke="white" stroke-width="2.12903"/>
<path d="M107.39 88.0944C108.241 87.2367 109.054 86.4142 109.869 85.5973C111.781 83.6824 113.69 81.7693 115.598 79.8581C116.487 78.97 117.838 79.0844 118.491 80.0885C118.978 80.835 118.876 81.7487 118.206 82.4232C116.359 84.2843 114.509 86.1416 112.656 87.9952C111.369 89.2866 110.08 90.5775 108.792 91.8678C107.929 92.7311 106.882 92.7367 106.014 91.8742C104.794 90.6644 103.58 89.4488 102.373 88.2273C101.837 87.688 101.673 87.0391 101.911 86.3182C102.15 85.5973 102.67 85.202 103.4 85.09C104.004 84.9972 104.526 85.2068 104.956 85.6373C105.753 86.4382 106.547 87.2423 107.39 88.0944Z" fill="white"/>
<g filter="url(#filter0_d_12473_147743)">
<rect x="7.57031" y="7.85938" width="59.2079" height="25.694" rx="4.46852" fill="url(#paint5_linear_12473_147743)"/>
</g>
<path d="M21.5386 29.6436C26.4744 29.6436 30.4756 25.6424 30.4756 20.7066C30.4756 15.7708 26.4744 11.7695 21.5386 11.7695C16.6028 11.7695 12.6016 15.7708 12.6016 20.7066C12.6016 25.6424 16.6028 29.6436 21.5386 29.6436Z" fill="url(#paint6_linear_12473_147743)"/>
<path d="M28.1857 24.8771C26.7969 27.0874 24.3406 28.5595 21.5381 28.5595C18.7357 28.5595 16.2752 27.0874 14.8906 24.8771C16.0917 23.1005 18.0976 21.8411 20.4372 21.5366C19.3154 21.1029 18.5188 20.0103 18.5188 18.7342C18.5188 17.066 19.87 15.7148 21.5381 15.7148C23.2063 15.7148 24.5533 17.066 24.5533 18.7342C24.5533 20.0103 23.7568 21.1029 22.6349 21.5366C24.9745 21.8411 26.9804 23.1005 28.1857 24.8771Z" fill="white"/>
<rect x="32.1484" y="11.7656" width="20.1083" height="4.46852" rx="1.67569" fill="#D9D9D9"/>
<rect x="32.1484" y="11.7656" width="20.1083" height="4.46852" rx="1.67569" fill="url(#paint7_linear_12473_147743)"/>
<rect x="58.4023" y="11.7656" width="5.02708" height="4.46852" rx="0.558565" fill="url(#paint8_linear_12473_147743)"/>
<rect x="32.1484" y="18.4688" width="31.2796" height="10.0542" rx="1.67569" fill="url(#paint9_linear_12473_147743)"/>
<path d="M22.2734 34.9648C22.2734 34.6564 22.0233 34.4063 21.7148 34.4063C21.4064 34.4063 21.1563 34.6564 21.1563 34.9648H22.2734ZM37.0363 59.7148L31.4506 56.49V62.9397L37.0363 59.7148ZM21.1563 34.9648V55.0006H22.2734V34.9648H21.1563ZM26.4291 60.2734H32.0092V59.1563H26.4291V60.2734ZM21.1563 55.0006C21.1563 57.9127 23.517 60.2734 26.4291 60.2734V59.1563C24.134 59.1563 22.2734 57.2957 22.2734 55.0006H21.1563Z" fill="#EEF2FC"/>
<path d="M102.531 39.1367L101.973 39.1367L101.973 38.0196L102.531 38.0196L102.531 39.1367ZM109.234 67.0649L106.009 61.4793L112.459 61.4793L109.234 67.0649ZM109.793 45.2809L109.793 62.0378L108.675 62.0378L108.675 45.2809L109.793 45.2809ZM102.531 38.0196C106.542 38.0196 109.793 41.2706 109.793 45.2809L108.675 45.2809C108.675 41.8875 105.925 39.1367 102.531 39.1367L102.531 38.0196Z" fill="#EEF2FC"/>
<defs>
<filter id="filter0_d_12473_147743" x="5.89462" y="7.30081" width="64.7927" height="31.281" filterUnits="userSpaceOnUse" color-interpolation-filters="sRGB">
<feFlood flood-opacity="0" result="BackgroundImageFix"/>
<feColorMatrix in="SourceAlpha" type="matrix" values="0 0 0 0 0 0 0 0 0 0 0 0 0 0 0 0 0 0 127 0" result="hardAlpha"/>
<feOffset dx="1.11713" dy="2.23426"/>
<feGaussianBlur stdDeviation="1.39641"/>
<feComposite in2="hardAlpha" operator="out"/>
<feColorMatrix type="matrix" values="0 0 0 0 0 0 0 0 0 0.175 0 0 0 0 0.4375 0 0 0 0.07 0"/>
<feBlend mode="normal" in2="BackgroundImageFix" result="effect1_dropShadow_12473_147743"/>
<feBlend mode="normal" in="SourceGraphic" in2="effect1_dropShadow_12473_147743" result="shape"/>
</filter>
<linearGradient id="paint0_linear_12473_147743" x1="-11.9108" y1="-4.8234" x2="146.001" y2="101.326" gradientUnits="userSpaceOnUse">
<stop stop-color="#D2D9EE"/>
<stop offset="1" stop-color="#E7F0F8"/>
</linearGradient>
<linearGradient id="paint1_linear_12473_147743" x1="15.6041" y1="-12.6377" x2="120.782" y2="58.0654" gradientUnits="userSpaceOnUse">
<stop stop-color="#E2F1FA"/>
<stop offset="1" stop-color="white"/>
</linearGradient>
<linearGradient id="paint2_linear_12473_147743" x1="118.117" y1="22.5394" x2="84.821" y2="38.358" gradientUnits="userSpaceOnUse">
<stop stop-color="#E2F1FA"/>
<stop offset="1" stop-color="white"/>
</linearGradient>
<linearGradient id="paint3_linear_12473_147743" x1="61.6055" y1="46.5917" x2="75.352" y2="46.5917" gradientUnits="userSpaceOnUse">
<stop stop-color="#D2D9EE"/>
<stop offset="1" stop-color="#E7F0F8"/>
</linearGradient>
<linearGradient id="paint4_linear_12473_147743" x1="73.5703" y1="50.8722" x2="79.4632" y2="50.8722" gradientUnits="userSpaceOnUse">
<stop stop-color="#D2D9EE"/>
<stop offset="1" stop-color="#E7F0F8"/>
</linearGradient>
<linearGradient id="paint5_linear_12473_147743" x1="-13.4876" y1="-69.654" x2="119.881" y2="-36.262" gradientUnits="userSpaceOnUse">
<stop stop-color="#E2F1FA"/>
<stop offset="1" stop-color="white"/>
</linearGradient>
<linearGradient id="paint6_linear_12473_147743" x1="12.6012" y1="20.7071" x2="30.4748" y2="20.7071" gradientUnits="userSpaceOnUse">
<stop stop-color="#05E0E0"/>
<stop offset="1" stop-color="#02C8C8"/>
</linearGradient>
<linearGradient id="paint7_linear_12473_147743" x1="32.148" y1="14" x2="52.2559" y2="14" gradientUnits="userSpaceOnUse">
<stop stop-color="#05E0E0"/>
<stop offset="1" stop-color="#02C8C8"/>
</linearGradient>
<linearGradient id="paint8_linear_12473_147743" x1="52.2581" y1="9.53137" x2="67.3394" y2="19.8648" gradientUnits="userSpaceOnUse">
<stop stop-color="#D2D9EE"/>
<stop offset="1" stop-color="#E7F0F8"/>
</linearGradient>
<linearGradient id="paint9_linear_12473_147743" x1="18.7429" y1="10.0903" x2="72.3651" y2="41.0906" gradientUnits="userSpaceOnUse">
<stop stop-color="#D2D9EE"/>
<stop offset="1" stop-color="#E7F0F8"/>
</linearGradient>
<clipPath id="clip0_12473_147743">
<rect width="63.7937" height="63.7937" fill="white" transform="translate(38.293 18.4688)"/>
</clipPath>
</defs>
</svg>
