<svg width="120" height="121" viewBox="0 0 120 121" fill="none" xmlns="http://www.w3.org/2000/svg">
<rect width="47.456" height="26.1043" transform="matrix(0.781475 -0.623937 0.623936 0.781476 22.9727 38.8867)" fill="url(#paint0_linear_12356_726796)"/>
<path d="M22.1289 41.9797L67.6674 13.2344L83.6195 38.5058L38.081 67.2511L22.1289 41.9797Z" fill="url(#paint1_linear_12356_726796)"/>
<rect width="16.5699" height="8.28494" transform="matrix(0.845621 -0.533783 0.533782 0.845622 61.1797 29.5664)" fill="#C9CEE7"/>
<g filter="url(#filter0_d_12356_726796)">
<path d="M10 38.0039H59.0287V90.5347H10V38.0039Z" fill="url(#paint2_linear_12356_726796)"/>
</g>
<path d="M43.0769 54.5409H38.8462V53.7807C38.8462 52.5211 37.813 51.5 36.5385 51.5H33.4615C32.187 51.5 31.1538 52.5211 31.1538 53.7807V54.5409H26.9231C25.861 54.5409 25 55.3919 25 56.4415V57.962C25 58.3819 25.3444 58.7222 25.7692 58.7222H44.2308C44.6556 58.7222 45 58.3819 45 57.962V56.4415C45 55.3919 44.139 54.5409 43.0769 54.5409ZM32.6923 53.7807C32.6923 53.3616 33.0375 53.0205 33.4615 53.0205H36.5385C36.9625 53.0205 37.3077 53.3616 37.3077 53.7807V54.5409H32.6923V53.7807Z" fill="#C4C9E3"/>
<path d="M43.1844 60.6385C42.9127 60.336 42.5392 60.1667 42.1543 60.1667H27.846C27.4611 60.1667 27.0762 60.336 26.8159 60.6385C26.5555 60.9409 26.4084 61.3522 26.431 61.7756L27.1216 73.3628C27.2461 75.2016 27.4046 77.5 31.3552 77.5H38.6226C42.5732 77.5 42.7317 75.2137 42.8562 73.3628L43.5693 61.7877C43.5919 61.3522 43.4448 60.9409 43.1844 60.6385ZM36.868 71.4394H33.0985C32.6344 71.4394 32.2495 71.0281 32.2495 70.5321C32.2495 70.0361 32.6344 69.6248 33.0985 69.6248H36.868C37.3321 69.6248 37.717 70.0361 37.717 70.5321C37.717 71.0281 37.3321 71.4394 36.868 71.4394ZM37.8189 66.6005H32.159C31.6948 66.6005 31.31 66.1893 31.31 65.6933C31.31 65.1973 31.6948 64.786 32.159 64.786H37.8189C38.283 64.786 38.6679 65.1973 38.6679 65.6933C38.6679 66.1893 38.283 66.6005 37.8189 66.6005Z" fill="#C4C9E3"/>
<path d="M59.0273 38.0039H90.5458V90.5347H59.0273V38.0039Z" fill="url(#paint3_linear_12356_726796)"/>
<g filter="url(#filter1_d_12356_726796)">
<path d="M69.5352 78.2555C69.5352 77.3196 70.0202 76.4506 70.8168 75.9594L88.3514 65.1466C89.2195 64.6113 90.3152 64.6113 91.1833 65.1466L108.718 75.9594C109.514 76.4506 110 77.3196 110 78.2555V98.4443C110 99.4158 109.477 100.312 108.632 100.791L91.0973 110.727C90.2723 111.195 89.2624 111.195 88.4374 110.727L70.9028 100.791C70.0576 100.312 69.5352 99.4158 69.5352 98.4443V78.2555Z" fill="#FFA133"/>
</g>
<path d="M72.6602 79.6381C72.6602 78.6975 73.1501 77.8248 73.9532 77.3351L88.7901 68.2863C89.6526 67.7603 90.7368 67.7603 91.5993 68.2863L106.436 77.3351C107.239 77.8248 107.729 78.6975 107.729 79.6381V96.4859C107.729 97.4619 107.202 98.3619 106.351 98.8391L91.5135 107.154C90.6943 107.613 89.6952 107.613 88.8759 107.154L74.0389 98.8391C73.1874 98.3619 72.6602 97.4619 72.6602 96.4859V79.6381Z" fill="url(#paint4_linear_12356_726796)"/>
<path d="M88.3039 91.4172C88.3039 90.6049 88.5113 89.8964 88.9261 89.2915C89.3582 88.6866 89.9889 87.9867 90.8185 87.1917C91.5789 86.4831 92.1406 85.8783 92.5035 85.3771C92.8837 84.8586 93.0738 84.271 93.0738 83.6143C93.0738 82.8193 92.8059 82.1972 92.2702 81.7478C91.7344 81.2812 91.0259 81.0479 90.1445 81.0479C89.0384 81.0479 88.2435 81.3849 87.7596 82.0589C87.2929 82.7329 87.0596 83.4847 87.0596 84.3142V84.392H83.8711V84.2883C83.8711 83.0613 84.1303 81.9812 84.6488 81.0479C85.1672 80.1147 85.9017 79.3975 86.8523 78.8963C87.8028 78.3951 88.9002 78.1445 90.1445 78.1445C91.3542 78.1445 92.4171 78.3692 93.333 78.8185C94.2663 79.2679 94.9835 79.8987 95.4847 80.7109C95.9858 81.5059 96.2364 82.4132 96.2364 83.4329C96.2364 84.1587 96.1068 84.8154 95.8476 85.403C95.5883 85.9733 95.2686 86.4659 94.8884 86.8806C94.5082 87.2954 94.0243 87.7707 93.4367 88.3064C92.7454 88.9458 92.2356 89.4902 91.9073 89.9396C91.5789 90.3716 91.4147 90.8642 91.4147 91.4172V91.6505H88.3039V91.4172ZM89.8853 96.9129C89.3841 96.9129 88.9607 96.7401 88.615 96.3944C88.2867 96.0488 88.1225 95.634 88.1225 95.1501C88.1225 94.6662 88.2867 94.2514 88.615 93.9058C88.9607 93.5602 89.3841 93.3873 89.8853 93.3873C90.3864 93.3873 90.8012 93.5602 91.1296 93.9058C91.4752 94.2514 91.648 94.6662 91.648 95.1501C91.648 95.634 91.4752 96.0488 91.1296 96.3944C90.8012 96.7401 90.3864 96.9129 89.8853 96.9129Z" fill="#FE8900"/>
<defs>
<filter id="filter0_d_12356_726796" x="8.24898" y="18.7426" width="73.5417" height="77.0456" filterUnits="userSpaceOnUse" color-interpolation-filters="sRGB">
<feFlood flood-opacity="0" result="BackgroundImageFix"/>
<feColorMatrix in="SourceAlpha" type="matrix" values="0 0 0 0 0 0 0 0 0 0 0 0 0 0 0 0 0 0 127 0" result="hardAlpha"/>
<feOffset dx="10.5061" dy="-7.0041"/>
<feGaussianBlur stdDeviation="6.12859"/>
<feComposite in2="hardAlpha" operator="out"/>
<feColorMatrix type="matrix" values="0 0 0 0 0.05115 0 0 0 0 0.156921 0 0 0 0 0.33 0 0 0 0.05 0"/>
<feBlend mode="normal" in2="BackgroundImageFix" result="effect1_dropShadow_12356_726796"/>
<feBlend mode="normal" in="SourceGraphic" in2="effect1_dropShadow_12356_726796" result="shape"/>
</filter>
<filter id="filter1_d_12356_726796" x="68.1864" y="64.7461" width="45.86" height="51.7272" filterUnits="userSpaceOnUse" color-interpolation-filters="sRGB">
<feFlood flood-opacity="0" result="BackgroundImageFix"/>
<feColorMatrix in="SourceAlpha" type="matrix" values="0 0 0 0 0 0 0 0 0 0 0 0 0 0 0 0 0 0 127 0" result="hardAlpha"/>
<feOffset dx="1.3488" dy="2.6976"/>
<feGaussianBlur stdDeviation="1.3488"/>
<feComposite in2="hardAlpha" operator="out"/>
<feColorMatrix type="matrix" values="0 0 0 0 0.454167 0 0 0 0 0 0 0 0 0 0 0 0 0 0.07 0"/>
<feBlend mode="normal" in2="BackgroundImageFix" result="effect1_dropShadow_12356_726796"/>
<feBlend mode="normal" in="SourceGraphic" in2="effect1_dropShadow_12356_726796" result="shape"/>
</filter>
<linearGradient id="paint0_linear_12356_726796" x1="16.763" y1="22.5477" x2="-23.4649" y2="-38.1444" gradientUnits="userSpaceOnUse">
<stop stop-color="#32F7F7"/>
<stop offset="1" stop-color="#02C8C8"/>
</linearGradient>
<linearGradient id="paint1_linear_12356_726796" x1="152.226" y1="73.2499" x2="-2.44819" y2="57.4968" gradientUnits="userSpaceOnUse">
<stop offset="0.00147719" stop-color="#F2F4FF"/>
<stop offset="1" stop-color="#D2E0F5"/>
</linearGradient>
<linearGradient id="paint2_linear_12356_726796" x1="54.6511" y1="53.7631" x2="-79.6867" y2="85.5912" gradientUnits="userSpaceOnUse">
<stop offset="0.00147719" stop-color="#F2F4FF"/>
<stop offset="1" stop-color="#D2E0F5"/>
</linearGradient>
<linearGradient id="paint3_linear_12356_726796" x1="133.884" y1="45.2495" x2="-14.4097" y2="119.083" gradientUnits="userSpaceOnUse">
<stop offset="0.0671222" stop-color="#F2F4FF"/>
<stop offset="0.656127" stop-color="#D2E0F5"/>
</linearGradient>
<linearGradient id="paint4_linear_12356_726796" x1="72.6602" y1="73.2102" x2="109.019" y2="106.484" gradientUnits="userSpaceOnUse">
<stop stop-color="white"/>
<stop offset="1" stop-color="#E2F1FA"/>
</linearGradient>
</defs>
</svg>
