<svg width="121" height="120" viewBox="0 0 121 120" fill="none" xmlns="http://www.w3.org/2000/svg">
<rect width="47.456" height="26.1043" transform="matrix(0.781475 -0.623937 0.623936 0.781476 23.4727 38.3867)" fill="url(#paint0_linear_12747_25077)"/>
<path d="M22.6289 41.4797L68.1674 12.7344L84.1195 38.0058L38.581 66.7511L22.6289 41.4797Z" fill="url(#paint1_linear_12747_25077)"/>
<rect width="16.5699" height="8.28494" transform="matrix(0.845621 -0.533783 0.533782 0.845622 61.6797 29.0664)" fill="#C9CEE7"/>
<g filter="url(#filter0_d_12747_25077)">
<path d="M10.5 37.5039H59.5287V90.0347H10.5V37.5039Z" fill="url(#paint2_linear_12747_25077)"/>
</g>
<path d="M43.5769 54.0409H39.3462V53.2807C39.3462 52.0211 38.313 51 37.0385 51H33.9615C32.687 51 31.6538 52.0211 31.6538 53.2807V54.0409H27.4231C26.361 54.0409 25.5 54.8919 25.5 55.9415V57.462C25.5 57.8819 25.8444 58.2222 26.2692 58.2222H44.7308C45.1556 58.2222 45.5 57.8819 45.5 57.462V55.9415C45.5 54.8919 44.639 54.0409 43.5769 54.0409ZM33.1923 53.2807C33.1923 52.8616 33.5375 52.5205 33.9615 52.5205H37.0385C37.4625 52.5205 37.8077 52.8616 37.8077 53.2807V54.0409H33.1923V53.2807Z" fill="#C4C9E3"/>
<path d="M43.6844 60.1385C43.4127 59.836 43.0392 59.6667 42.6543 59.6667H28.346C27.9611 59.6667 27.5762 59.836 27.3159 60.1385C27.0555 60.4409 26.9084 60.8522 26.931 61.2756L27.6216 72.8628C27.7461 74.7016 27.9046 77 31.8552 77H39.1226C43.0732 77 43.2317 74.7137 43.3562 72.8628L44.0693 61.2877C44.0919 60.8522 43.9448 60.4409 43.6844 60.1385ZM37.368 70.9394H33.5985C33.1344 70.9394 32.7495 70.5281 32.7495 70.0321C32.7495 69.5361 33.1344 69.1248 33.5985 69.1248H37.368C37.8321 69.1248 38.217 69.5361 38.217 70.0321C38.217 70.5281 37.8321 70.9394 37.368 70.9394ZM38.3189 66.1005H32.659C32.1948 66.1005 31.81 65.6893 31.81 65.1933C31.81 64.6973 32.1948 64.286 32.659 64.286H38.3189C38.783 64.286 39.1679 64.6973 39.1679 65.1933C39.1679 65.6893 38.783 66.1005 38.3189 66.1005Z" fill="#C4C9E3"/>
<path d="M59.5273 37.5039H91.0458V90.0347H59.5273V37.5039Z" fill="url(#paint3_linear_12747_25077)"/>
<g filter="url(#filter1_d_12747_25077)">
<path d="M71.8242 89.9978C71.8242 79.5055 80.3307 70.9985 90.8248 70.9985C95.5251 70.9985 99.827 72.7055 103.145 75.5347C107.233 79.0193 109.824 84.2055 109.824 89.9978C109.824 100.49 101.318 108.996 90.8248 108.996C88.2106 108.996 85.7196 108.468 83.4524 107.513C76.6199 104.634 71.8242 97.8762 71.8242 89.9978Z" fill="#05E0AC" stroke="white" stroke-width="2.64011"/>
<path d="M87.4538 93.0396C88.5086 91.976 89.5169 90.9561 90.5282 89.9431C92.8984 87.5685 95.2667 85.1963 97.6329 82.8264C98.7343 81.7251 100.41 81.867 101.22 83.1121C101.824 84.0378 101.698 85.1708 100.867 86.0072C98.5763 88.315 96.2823 90.6181 93.9846 92.9166C92.3875 94.5179 90.7901 96.1186 89.1924 97.7186C88.1217 98.7891 86.8235 98.796 85.7479 97.7265C84.2346 96.2264 82.7292 94.719 81.2317 93.2043C80.5677 92.5356 80.3639 91.7309 80.6598 90.837C80.9556 89.9431 81.6008 89.453 82.5062 89.3141C83.2543 89.199 83.9024 89.4589 84.4348 89.9927C85.4233 90.9858 86.4089 91.9829 87.4538 93.0396Z" fill="white"/>
</g>
<defs>
<filter id="filter0_d_12747_25077" x="8.74898" y="18.2426" width="73.5417" height="77.0456" filterUnits="userSpaceOnUse" color-interpolation-filters="sRGB">
<feFlood flood-opacity="0" result="BackgroundImageFix"/>
<feColorMatrix in="SourceAlpha" type="matrix" values="0 0 0 0 0 0 0 0 0 0 0 0 0 0 0 0 0 0 127 0" result="hardAlpha"/>
<feOffset dx="10.5061" dy="-7.0041"/>
<feGaussianBlur stdDeviation="6.12859"/>
<feComposite in2="hardAlpha" operator="out"/>
<feColorMatrix type="matrix" values="0 0 0 0 0.05115 0 0 0 0 0.156921 0 0 0 0 0.33 0 0 0 0.05 0"/>
<feBlend mode="normal" in2="BackgroundImageFix" result="effect1_dropShadow_12747_25077"/>
<feBlend mode="normal" in="SourceGraphic" in2="effect1_dropShadow_12747_25077" result="shape"/>
</filter>
<filter id="filter1_d_12747_25077" x="68.8313" y="69.6797" width="47.331" height="47.3271" filterUnits="userSpaceOnUse" color-interpolation-filters="sRGB">
<feFlood flood-opacity="0" result="BackgroundImageFix"/>
<feColorMatrix in="SourceAlpha" type="matrix" values="0 0 0 0 0 0 0 0 0 0 0 0 0 0 0 0 0 0 127 0" result="hardAlpha"/>
<feOffset dx="1.67258" dy="3.34517"/>
<feGaussianBlur stdDeviation="1.67258"/>
<feComposite in2="hardAlpha" operator="out"/>
<feColorMatrix type="matrix" values="0 0 0 0 0.454167 0 0 0 0 0 0 0 0 0 0 0 0 0 0.07 0"/>
<feBlend mode="normal" in2="BackgroundImageFix" result="effect1_dropShadow_12747_25077"/>
<feBlend mode="normal" in="SourceGraphic" in2="effect1_dropShadow_12747_25077" result="shape"/>
</filter>
<linearGradient id="paint0_linear_12747_25077" x1="16.763" y1="22.5477" x2="-23.4649" y2="-38.1444" gradientUnits="userSpaceOnUse">
<stop stop-color="#32F7F7"/>
<stop offset="1" stop-color="#02C8C8"/>
</linearGradient>
<linearGradient id="paint1_linear_12747_25077" x1="152.726" y1="72.7499" x2="-1.94819" y2="56.9968" gradientUnits="userSpaceOnUse">
<stop offset="0.00147719" stop-color="#F2F4FF"/>
<stop offset="1" stop-color="#D2E0F5"/>
</linearGradient>
<linearGradient id="paint2_linear_12747_25077" x1="55.1511" y1="53.2631" x2="-79.1867" y2="85.0912" gradientUnits="userSpaceOnUse">
<stop offset="0.00147719" stop-color="#F2F4FF"/>
<stop offset="1" stop-color="#D2E0F5"/>
</linearGradient>
<linearGradient id="paint3_linear_12747_25077" x1="134.384" y1="44.7495" x2="-13.9097" y2="118.583" gradientUnits="userSpaceOnUse">
<stop offset="0.0671222" stop-color="#F2F4FF"/>
<stop offset="0.656127" stop-color="#D2E0F5"/>
</linearGradient>
</defs>
</svg>
