<svg width="121" height="120" viewBox="0 0 121 120" fill="none" xmlns="http://www.w3.org/2000/svg">
<rect x="57.9648" y="12" width="44.0075" height="44.0075" rx="1" fill="#C9CEE7"/>
<path d="M85.9011 37.3243C85.9011 38.5376 85.528 39.5433 84.7819 40.3415C84.0357 41.1396 83.0266 41.6345 81.7547 41.8261C81.6699 41.858 81.6275 41.9059 81.6275 41.9697L81.653 43.4783C81.653 43.5581 81.6191 43.622 81.5512 43.6698C81.5003 43.7337 81.4325 43.7656 81.3477 43.7656H79.5416C79.4568 43.7656 79.3805 43.7337 79.3127 43.6698C79.2618 43.622 79.2363 43.5581 79.2363 43.4783L79.2618 41.9458C79.2618 41.8819 79.2194 41.834 79.1346 41.8021C77.8627 41.5786 76.8621 41.0758 76.1329 40.2936C75.4037 39.4954 75.0391 38.5136 75.0391 37.3483V36.7257C75.0391 36.6459 75.0645 36.582 75.1154 36.5342C75.1832 36.4703 75.2595 36.4384 75.3443 36.4384H77.5574C77.6422 36.4384 77.7101 36.4703 77.7609 36.5342C77.8288 36.582 77.8627 36.6459 77.8627 36.7257V37.2046C77.8627 37.8911 78.1086 38.4498 78.6004 38.8808C79.1092 39.3118 79.7875 39.5273 80.6354 39.5273C81.3986 39.5273 81.9921 39.3358 82.4161 38.9526C82.8401 38.5695 83.0521 38.0667 83.0521 37.4441C83.0521 37.0131 82.9334 36.6459 82.6959 36.3426C82.4755 36.0233 82.1448 35.736 81.7038 35.4806C81.2799 35.2092 80.627 34.85 79.7451 34.403C78.7276 33.8922 77.9136 33.4372 77.3031 33.0381C76.6925 32.6391 76.1753 32.1282 75.7513 31.5056C75.3443 30.8831 75.1408 30.1248 75.1408 29.2308C75.1408 28.0495 75.4969 27.0758 76.2092 26.3095C76.9215 25.5433 77.8881 25.0644 79.1092 24.8728C79.194 24.8409 79.2363 24.793 79.2363 24.7291L79.1855 23.053C79.1855 22.9732 79.2109 22.9093 79.2618 22.8614C79.3296 22.7976 79.4059 22.7656 79.4907 22.7656H81.2968C81.3816 22.7656 81.4495 22.7976 81.5003 22.8614C81.5682 22.9093 81.6021 22.9732 81.6021 23.053L81.5512 24.7531C81.5512 24.8169 81.5936 24.8648 81.6784 24.8968C82.9334 25.1043 83.9254 25.6231 84.6547 26.4532C85.4008 27.2833 85.7739 28.297 85.7739 29.4942V29.9971C85.7739 30.0769 85.74 30.1487 85.6722 30.2126C85.6213 30.2605 85.5535 30.2844 85.4687 30.2844H83.2556C83.1708 30.2844 83.0945 30.2605 83.0266 30.2126C82.9757 30.1487 82.9503 30.0769 82.9503 29.9971V29.5421C82.9503 28.8557 82.7044 28.289 82.2126 27.842C81.7378 27.395 81.0933 27.1716 80.2793 27.1716C79.567 27.1716 79.0074 27.3551 78.6004 27.7223C78.1934 28.0735 77.9899 28.5684 77.9899 29.2069C77.9899 29.6379 78.0916 30.0051 78.2951 30.3084C78.5156 30.6117 78.8463 30.899 79.2872 31.1704C79.7282 31.4418 80.3895 31.793 81.2714 32.224C82.4585 32.8625 83.3319 33.3734 83.8915 33.7565C84.4512 34.1237 84.926 34.6026 85.3161 35.1932C85.7061 35.7679 85.9011 36.4783 85.9011 37.3243Z" fill="white"/>
<path d="M85.9011 37.3243C85.9011 38.5376 85.528 39.5433 84.7819 40.3415C84.0357 41.1396 83.0266 41.6345 81.7547 41.8261C81.6699 41.858 81.6275 41.9059 81.6275 41.9697L81.653 43.4783C81.653 43.5581 81.6191 43.622 81.5512 43.6698C81.5003 43.7337 81.4325 43.7656 81.3477 43.7656H79.5416C79.4568 43.7656 79.3805 43.7337 79.3127 43.6698C79.2618 43.622 79.2363 43.5581 79.2363 43.4783L79.2618 41.9458C79.2618 41.8819 79.2194 41.834 79.1346 41.8021C77.8627 41.5786 76.8621 41.0758 76.1329 40.2936C75.4037 39.4954 75.0391 38.5136 75.0391 37.3483V36.7257C75.0391 36.6459 75.0645 36.582 75.1154 36.5342C75.1832 36.4703 75.2595 36.4384 75.3443 36.4384H77.5574C77.6422 36.4384 77.7101 36.4703 77.7609 36.5342C77.8288 36.582 77.8627 36.6459 77.8627 36.7257V37.2046C77.8627 37.8911 78.1086 38.4498 78.6004 38.8808C79.1092 39.3118 79.7875 39.5273 80.6354 39.5273C81.3986 39.5273 81.9921 39.3358 82.4161 38.9526C82.8401 38.5695 83.0521 38.0667 83.0521 37.4441C83.0521 37.0131 82.9334 36.6459 82.6959 36.3426C82.4755 36.0233 82.1448 35.736 81.7038 35.4806C81.2799 35.2092 80.627 34.85 79.7451 34.403C78.7276 33.8922 77.9136 33.4372 77.3031 33.0381C76.6925 32.6391 76.1753 32.1282 75.7513 31.5056C75.3443 30.8831 75.1408 30.1248 75.1408 29.2308C75.1408 28.0495 75.4969 27.0758 76.2092 26.3095C76.9215 25.5433 77.8881 25.0644 79.1092 24.8728C79.194 24.8409 79.2363 24.793 79.2363 24.7291L79.1855 23.053C79.1855 22.9732 79.2109 22.9093 79.2618 22.8614C79.3296 22.7976 79.4059 22.7656 79.4907 22.7656H81.2968C81.3816 22.7656 81.4495 22.7976 81.5003 22.8614C81.5682 22.9093 81.6021 22.9732 81.6021 23.053L81.5512 24.7531C81.5512 24.8169 81.5936 24.8648 81.6784 24.8968C82.9334 25.1043 83.9254 25.6231 84.6547 26.4532C85.4008 27.2833 85.7739 28.297 85.7739 29.4942V29.9971C85.7739 30.0769 85.74 30.1487 85.6722 30.2126C85.6213 30.2605 85.5535 30.2844 85.4687 30.2844H83.2556C83.1708 30.2844 83.0945 30.2605 83.0266 30.2126C82.9757 30.1487 82.9503 30.0769 82.9503 29.9971V29.5421C82.9503 28.8557 82.7044 28.289 82.2126 27.842C81.7378 27.395 81.0933 27.1716 80.2793 27.1716C79.567 27.1716 79.0074 27.3551 78.6004 27.7223C78.1934 28.0735 77.9899 28.5684 77.9899 29.2069C77.9899 29.6379 78.0916 30.0051 78.2951 30.3084C78.5156 30.6117 78.8463 30.899 79.2872 31.1704C79.7282 31.4418 80.3895 31.793 81.2714 32.224C82.4585 32.8625 83.3319 33.3734 83.8915 33.7565C84.4512 34.1237 84.926 34.6026 85.3161 35.1932C85.7061 35.7679 85.9011 36.4783 85.9011 37.3243Z" fill="white"/>
<path fill-rule="evenodd" clip-rule="evenodd" d="M86.6641 71.5638C86.6641 71.2711 86.9013 71.0338 87.194 71.0338C88.4346 71.0338 89.1588 70.5288 89.5905 69.9291C90.0417 69.3025 90.1973 68.5346 90.1973 68.0306L90.1973 62.2436L87.5688 64.8721C87.3618 65.0791 87.0263 65.0791 86.8193 64.8721C86.6123 64.6651 86.6123 64.3296 86.8193 64.1226L90.3525 60.5894C90.5595 60.3824 90.895 60.3824 91.102 60.5894L94.6352 64.1226C94.8422 64.3296 94.8422 64.6651 94.6352 64.8721C94.4283 65.0791 94.0927 65.0791 93.8857 64.8721L91.2572 62.2436L91.2572 68.0306C91.2572 68.7042 91.0595 69.703 90.4507 70.5485C89.8225 71.421 88.7801 72.0937 87.194 72.0937C86.9013 72.0937 86.6641 71.8565 86.6641 71.5638Z" fill="#C9CEE7"/>
<path fill-rule="evenodd" clip-rule="evenodd" d="M46.3633 25.0847C46.3633 25.3774 46.126 25.6147 45.8333 25.6147C44.5927 25.6147 43.8686 26.1197 43.4368 26.7193C42.9856 27.3459 42.8301 28.1138 42.8301 28.6179L42.8301 34.4048L45.4585 31.7763C45.6655 31.5694 46.0011 31.5694 46.2081 31.7763C46.415 31.9833 46.415 32.3189 46.2081 32.5259L42.6748 36.0591C42.4679 36.266 42.1323 36.266 41.9253 36.0591L38.3921 32.5259C38.1851 32.3189 38.1851 31.9833 38.3921 31.7763C38.5991 31.5694 38.9347 31.5694 39.1416 31.7763L41.7701 34.4048L41.7701 28.6179C41.7701 27.9442 41.9678 26.9455 42.5766 26.1C43.2049 25.2274 44.2473 24.5547 45.8333 24.5547C46.126 24.5547 46.3633 24.792 46.3633 25.0847Z" fill="#C9CEE7"/>
<rect x="18.5" y="42.4961" width="55.0094" height="55.0094" rx="1" fill="url(#paint0_linear_12533_22131)"/>
<path d="M52.9688 76.8705C52.9688 78.5459 52.4535 79.9348 51.4231 81.037C50.3926 82.1392 48.9992 82.8226 47.2428 83.0872C47.1257 83.1313 47.0671 83.1974 47.0671 83.2856L47.1022 85.3688C47.1022 85.479 47.0554 85.5672 46.9617 85.6334C46.8915 85.7215 46.7978 85.7656 46.6807 85.7656H44.1865C44.0695 85.7656 43.9641 85.7215 43.8704 85.6334C43.8001 85.5672 43.765 85.479 43.765 85.3688L43.8001 83.2525C43.8001 83.1643 43.7416 83.0982 43.6245 83.0541C41.868 82.7455 40.4863 82.0511 39.4793 80.9709C38.4723 79.8686 37.9688 78.5129 37.9688 76.9036V76.0438C37.9688 75.9336 38.0039 75.8454 38.0741 75.7793C38.1678 75.6911 38.2732 75.647 38.3903 75.647H41.4465C41.5636 75.647 41.6573 75.6911 41.7275 75.7793C41.8212 75.8454 41.868 75.9336 41.868 76.0438V76.7052C41.868 77.6531 42.2076 78.4247 42.8868 79.0199C43.5894 79.6151 44.5261 79.9127 45.6971 79.9127C46.7509 79.9127 47.5706 79.6482 48.1561 79.1191C48.7416 78.59 49.0343 77.8956 49.0343 77.0359C49.0343 76.4407 48.8704 75.9336 48.5425 75.5148C48.2381 75.0739 47.7814 74.6771 47.1725 74.3243C46.587 73.9496 45.6854 73.4536 44.4676 72.8363C43.0624 72.1309 41.9383 71.5026 41.0952 70.9515C40.2521 70.4004 39.5378 69.6949 38.9524 68.8352C38.3903 67.9754 38.1093 66.9283 38.1093 65.6938C38.1093 64.0625 38.6011 62.7177 39.5847 61.6596C40.5683 60.6014 41.9032 59.9401 43.5894 59.6755C43.7065 59.6315 43.765 59.5653 43.765 59.4771L43.6947 57.1624C43.6947 57.0522 43.7299 56.964 43.8001 56.8979C43.8938 56.8097 43.9992 56.7656 44.1163 56.7656H46.6104C46.7275 56.7656 46.8212 56.8097 46.8915 56.8979C46.9851 56.964 47.032 57.0522 47.032 57.1624L46.9617 59.5102C46.9617 59.5984 47.0203 59.6645 47.1374 59.7086C48.8704 59.9952 50.2404 60.7117 51.2474 61.858C52.2779 63.0043 52.7931 64.4042 52.7931 66.0575V66.7519C52.7931 66.8622 52.7463 66.9614 52.6526 67.0495C52.5823 67.1157 52.4887 67.1487 52.3716 67.1487H49.3154C49.1983 67.1487 49.0929 67.1157 48.9992 67.0495C48.9289 66.9614 48.8938 66.8622 48.8938 66.7519V66.1237C48.8938 65.1757 48.5542 64.3931 47.8751 63.7759C47.2193 63.1586 46.3294 62.85 45.2053 62.85C44.2217 62.85 43.4488 63.1035 42.8868 63.6106C42.3247 64.0955 42.0437 64.7789 42.0437 65.6607C42.0437 66.2559 42.1842 66.763 42.4652 67.1818C42.7697 67.6007 43.2264 67.9975 43.8353 68.3722C44.4442 68.747 45.3575 69.232 46.5753 69.8272C48.2147 70.709 49.4207 71.4144 50.1936 71.9435C50.9664 72.4505 51.6221 73.1119 52.1608 73.9275C52.6994 74.7212 52.9688 75.7022 52.9688 76.8705Z" fill="white"/>
<path d="M52.9688 76.8705C52.9688 78.5459 52.4535 79.9348 51.4231 81.037C50.3926 82.1392 48.9992 82.8226 47.2428 83.0872C47.1257 83.1313 47.0671 83.1974 47.0671 83.2856L47.1022 85.3688C47.1022 85.479 47.0554 85.5672 46.9617 85.6334C46.8915 85.7215 46.7978 85.7656 46.6807 85.7656H44.1865C44.0695 85.7656 43.9641 85.7215 43.8704 85.6334C43.8001 85.5672 43.765 85.479 43.765 85.3688L43.8001 83.2525C43.8001 83.1643 43.7416 83.0982 43.6245 83.0541C41.868 82.7455 40.4863 82.0511 39.4793 80.9709C38.4723 79.8686 37.9688 78.5129 37.9688 76.9036V76.0438C37.9688 75.9336 38.0039 75.8454 38.0741 75.7793C38.1678 75.6911 38.2732 75.647 38.3903 75.647H41.4465C41.5636 75.647 41.6573 75.6911 41.7275 75.7793C41.8212 75.8454 41.868 75.9336 41.868 76.0438V76.7052C41.868 77.6531 42.2076 78.4247 42.8868 79.0199C43.5894 79.6151 44.5261 79.9127 45.6971 79.9127C46.7509 79.9127 47.5706 79.6482 48.1561 79.1191C48.7416 78.59 49.0343 77.8956 49.0343 77.0359C49.0343 76.4407 48.8704 75.9336 48.5425 75.5148C48.2381 75.0739 47.7814 74.6771 47.1725 74.3243C46.587 73.9496 45.6854 73.4536 44.4676 72.8363C43.0624 72.1309 41.9383 71.5026 41.0952 70.9515C40.2521 70.4004 39.5378 69.6949 38.9524 68.8352C38.3903 67.9754 38.1093 66.9283 38.1093 65.6938C38.1093 64.0625 38.6011 62.7177 39.5847 61.6596C40.5683 60.6014 41.9032 59.9401 43.5894 59.6755C43.7065 59.6315 43.765 59.5653 43.765 59.4771L43.6947 57.1624C43.6947 57.0522 43.7299 56.964 43.8001 56.8979C43.8938 56.8097 43.9992 56.7656 44.1163 56.7656H46.6104C46.7275 56.7656 46.8212 56.8097 46.8915 56.8979C46.9851 56.964 47.032 57.0522 47.032 57.1624L46.9617 59.5102C46.9617 59.5984 47.0203 59.6645 47.1374 59.7086C48.8704 59.9952 50.2404 60.7117 51.2474 61.858C52.2779 63.0043 52.7931 64.4042 52.7931 66.0575V66.7519C52.7931 66.8622 52.7463 66.9614 52.6526 67.0495C52.5823 67.1157 52.4887 67.1487 52.3716 67.1487H49.3154C49.1983 67.1487 49.0929 67.1157 48.9992 67.0495C48.9289 66.9614 48.8938 66.8622 48.8938 66.7519V66.1237C48.8938 65.1757 48.5542 64.3931 47.8751 63.7759C47.2193 63.1586 46.3294 62.85 45.2053 62.85C44.2217 62.85 43.4488 63.1035 42.8868 63.6106C42.3247 64.0955 42.0437 64.7789 42.0437 65.6607C42.0437 66.2559 42.1842 66.763 42.4652 67.1818C42.7697 67.6007 43.2264 67.9975 43.8353 68.3722C44.4442 68.747 45.3575 69.232 46.5753 69.8272C48.2147 70.709 49.4207 71.4144 50.1936 71.9435C50.9664 72.4505 51.6221 73.1119 52.1608 73.9275C52.6994 74.7212 52.9688 75.7022 52.9688 76.8705Z" fill="white"/>
<g filter="url(#filter0_d_12533_22131)">
<path d="M59.7617 80.3134C59.7617 79.4104 60.2297 78.5719 60.9983 78.0979L74.999 69.4637C75.8366 68.9471 76.8939 68.9471 77.7315 69.4637L91.7322 78.0979C92.5007 78.5719 92.9688 79.4104 92.9688 80.3134V96.439C92.9688 97.3764 92.4647 98.2414 91.6492 98.7035L77.6485 106.638C76.8525 107.089 75.878 107.089 75.0819 106.638L61.0813 98.7035C60.2657 98.2414 59.7617 97.3764 59.7617 96.439V80.3134Z" fill="white"/>
<path d="M59.7617 80.3134C59.7617 79.4104 60.2297 78.5719 60.9983 78.0979L74.999 69.4637C75.8366 68.9471 76.8939 68.9471 77.7315 69.4637L91.7322 78.0979C92.5007 78.5719 92.9688 79.4104 92.9688 80.3134V96.439C92.9688 97.3764 92.4647 98.2414 91.6492 98.7035L77.6485 106.638C76.8525 107.089 75.878 107.089 75.0819 106.638L61.0813 98.7035C60.2657 98.2414 59.7617 97.3764 59.7617 96.439V80.3134Z" fill="url(#paint1_linear_12533_22131)"/>
</g>
<path d="M61.9727 81.6285C61.9727 80.721 62.4454 79.879 63.2202 79.4064L75.007 72.2173C75.8393 71.7097 76.8854 71.7097 77.7177 72.2173L89.5046 79.4064C90.2794 79.879 90.7521 80.721 90.7521 81.6285V95.0096C90.7521 95.9514 90.2434 96.8197 89.4218 97.2802L77.6349 103.886C76.8444 104.329 75.8803 104.329 75.0898 103.886L63.3029 97.2802C62.4814 96.8197 61.9727 95.9514 61.9727 95.0096V81.6285Z" fill="url(#paint2_linear_12533_22131)"/>
<path d="M76.4741 91.0757C75.9389 91.0756 75.4243 90.8769 75.0364 90.5209C74.6485 90.1648 74.417 89.6785 74.3898 89.1624L73.9402 80.6656C73.9258 80.3926 73.9691 80.1195 74.0674 79.8631C74.1657 79.6067 74.3169 79.3723 74.512 79.1741C74.707 78.9759 74.9418 78.8181 75.202 78.7103C75.4622 78.6025 75.7424 78.5469 76.0255 78.5469H76.9227C77.2058 78.547 77.4859 78.6027 77.7459 78.7106C78.006 78.8185 78.2407 78.9763 78.4356 79.1745C78.6306 79.3726 78.7817 79.607 78.88 79.8634C78.9782 80.1197 79.0214 80.3927 79.007 80.6656L78.5584 89.1637C78.5307 89.6795 78.2991 90.1654 77.9113 90.5212C77.5234 90.8769 77.009 91.0754 76.4741 91.0757Z" fill="url(#paint3_linear_12533_22131)"/>
<path d="M78.5239 94.2548C78.5239 93.1735 77.6161 92.2969 76.4963 92.2969C75.3765 92.2969 74.4688 93.1735 74.4688 94.2548C74.4688 95.3361 75.3765 96.2127 76.4963 96.2127C77.6161 96.2127 78.5239 95.3361 78.5239 94.2548Z" fill="white"/>
<path d="M78.5239 94.2548C78.5239 93.1735 77.6161 92.2969 76.4963 92.2969C75.3765 92.2969 74.4688 93.1735 74.4688 94.2548C74.4688 95.3361 75.3765 96.2127 76.4963 96.2127C77.6161 96.2127 78.5239 95.3361 78.5239 94.2548Z" fill="url(#paint4_linear_12533_22131)"/>
<defs>
<filter id="filter0_d_12533_22131" x="58.4603" y="69.0781" width="38.4127" height="43.1041" filterUnits="userSpaceOnUse" color-interpolation-filters="sRGB">
<feFlood flood-opacity="0" result="BackgroundImageFix"/>
<feColorMatrix in="SourceAlpha" type="matrix" values="0 0 0 0 0 0 0 0 0 0 0 0 0 0 0 0 0 0 127 0" result="hardAlpha"/>
<feOffset dx="1.30142" dy="2.60284"/>
<feGaussianBlur stdDeviation="1.30142"/>
<feComposite in2="hardAlpha" operator="out"/>
<feColorMatrix type="matrix" values="0 0 0 0 0.454167 0 0 0 0 0 0 0 0 0 0 0 0 0 0.07 0"/>
<feBlend mode="normal" in2="BackgroundImageFix" result="effect1_dropShadow_12533_22131"/>
<feBlend mode="normal" in="SourceGraphic" in2="effect1_dropShadow_12533_22131" result="shape"/>
</filter>
<linearGradient id="paint0_linear_12533_22131" x1="90.5624" y1="140.846" x2="-27.9311" y2="57.0295" gradientUnits="userSpaceOnUse">
<stop offset="0.00147719" stop-color="#F2F4FF"/>
<stop offset="1" stop-color="#D2E0F5"/>
</linearGradient>
<linearGradient id="paint1_linear_12533_22131" x1="62.3216" y1="42.1077" x2="69.1782" y2="140.704" gradientUnits="userSpaceOnUse">
<stop stop-color="#FF4B4B"/>
<stop offset="1" stop-color="#FFB6B6"/>
</linearGradient>
<linearGradient id="paint2_linear_12533_22131" x1="61.9727" y1="76.1348" x2="91.8125" y2="103.441" gradientUnits="userSpaceOnUse">
<stop stop-color="white"/>
<stop offset="1" stop-color="#E2F1FA"/>
</linearGradient>
<linearGradient id="paint3_linear_12533_22131" x1="76.2354" y1="76.6008" x2="84.3724" y2="88.0259" gradientUnits="userSpaceOnUse">
<stop stop-color="#FF4B4B"/>
<stop offset="1" stop-color="#FFB6B6"/>
</linearGradient>
<linearGradient id="paint4_linear_12533_22131" x1="76.3059" y1="91.6886" x2="77.6966" y2="96.6835" gradientUnits="userSpaceOnUse">
<stop stop-color="#FF4B4B"/>
<stop offset="1" stop-color="#FFB6B6"/>
</linearGradient>
</defs>
</svg>
