<svg width="121" height="120" viewBox="0 0 121 120" fill="none" xmlns="http://www.w3.org/2000/svg">
<rect x="30.1914" y="36.8047" width="72.9577" height="42.4103" transform="rotate(-6.93095 30.1914 36.8047)" fill="#17DDDD"/>
<rect x="29.5" y="35.5273" width="75.3488" height="43.5349" fill="#E4E9F7"/>
<rect x="89.7773" y="50.0352" width="21.7674" height="14.5116" fill="#CBD4E9"/>
<g filter="url(#filter0_d_12747_57787)">
<path d="M6.50002 73.9981C6.50002 61.8491 16.3496 51.9989 28.5006 51.9989C33.9431 51.9989 38.9243 53.9754 42.7659 57.2513C47.4991 61.2861 50.5 67.2912 50.5 73.9981C50.5 86.1472 40.6504 95.9961 28.5006 95.9961C25.4737 95.9961 22.5894 95.3848 19.9643 94.2788C12.0529 90.9458 6.50002 83.1204 6.50002 73.9981Z" fill="white"/>
<path d="M9.50001 73.9978C9.50001 63.5055 18.0064 54.9985 28.5005 54.9985C33.2009 54.9985 37.5028 56.7055 40.8206 59.5347C44.9083 63.0193 47.5 68.2055 47.5 73.9978C47.5 84.4902 38.9936 92.9961 28.5005 92.9961C25.8864 92.9961 23.3954 92.4682 21.1282 91.513C14.2957 88.6345 9.50001 81.8762 9.50001 73.9978Z" fill="url(#paint0_linear_12747_57787)"/>
<path d="M30.912 74.0146C33.0672 71.8487 35.0191 69.8841 35.7153 69.1783C36.4489 68.436 36.4449 67.3104 35.7315 66.6016C35.0788 65.9549 33.9223 65.8939 33.1998 66.6646C32.3984 67.5188 31.5525 68.3313 30.7258 69.1621L28.4035 71.4958C26.2462 69.3278 24.2882 67.3632 23.586 66.6616C22.8463 65.9244 21.7262 65.9274 21.0219 66.6443C20.3773 67.3012 20.3166 68.4625 21.0836 69.1885C21.9346 69.9939 22.7431 70.844 23.5688 71.6748L25.8961 74.0136C23.7034 76.2171 21.5147 78.4166 21.0998 78.8366C20.9784 78.9586 20.8539 79.0878 20.7669 79.2362C20.3349 79.9785 20.5069 80.9964 21.1322 81.4784C21.9306 82.0926 22.8868 82.0611 23.586 81.3645C24.2882 80.6639 26.2452 78.7003 28.4025 76.5344C30.5932 78.7359 32.7788 80.9313 33.1957 81.3472C33.3192 81.4693 33.4467 81.5953 33.5944 81.6818C34.3331 82.116 35.346 81.9452 35.8256 81.3147C36.4368 80.5134 36.4044 79.5525 35.7113 78.8498C35.0151 78.1441 33.0642 76.1805 30.9099 74.0146H30.912Z" fill="white"/>
</g>
<defs>
<filter id="filter0_d_12747_57787" x="4.42591" y="52" width="52.2964" height="52.2925" filterUnits="userSpaceOnUse" color-interpolation-filters="sRGB">
<feFlood flood-opacity="0" result="BackgroundImageFix"/>
<feColorMatrix in="SourceAlpha" type="matrix" values="0 0 0 0 0 0 0 0 0 0 0 0 0 0 0 0 0 0 127 0" result="hardAlpha"/>
<feOffset dx="2.07409" dy="4.14819"/>
<feGaussianBlur stdDeviation="2.07409"/>
<feComposite in2="hardAlpha" operator="out"/>
<feColorMatrix type="matrix" values="0 0 0 0 0.454167 0 0 0 0 0 0 0 0 0 0 0 0 0 0.07 0"/>
<feBlend mode="normal" in2="BackgroundImageFix" result="effect1_dropShadow_12747_57787"/>
<feBlend mode="normal" in="SourceGraphic" in2="effect1_dropShadow_12747_57787" result="shape"/>
</filter>
<linearGradient id="paint0_linear_12747_57787" x1="30.2846" y1="98.8981" x2="16.3827" y2="50.6804" gradientUnits="userSpaceOnUse">
<stop stop-color="#FF4B4B"/>
<stop offset="1" stop-color="#FFB6B6"/>
</linearGradient>
</defs>
</svg>
