<svg width="114" height="146" viewBox="0 0 114 146" fill="none" xmlns="http://www.w3.org/2000/svg">
<g id="Icon">
<rect id="Rectangle 39731" x="12.8785" y="49.8505" width="81.6549" height="73.129" rx="2.125" transform="rotate(4.44432 12.8785 49.8505)" fill="url(#paint0_linear_11444_70283)" stroke="#E1EDF8" stroke-width="2.125"/>
<rect id="Rectangle 39739" x="7.47266" y="53.1328" width="81.6549" height="73.129" rx="2.125" fill="url(#paint1_linear_11444_70283)" stroke="#E1EDF8" stroke-width="2.125"/>
<rect id="Rectangle 39713" x="0.6875" y="88.0625" width="95.625" height="31.875" rx="1.42013" fill="url(#paint2_linear_11444_70283)"/>
<g id="Rectangle 39737">
<rect x="38.3555" y="93.957" width="44.0255" height="11.3606" rx="0.710064" fill="#E1EDF8"/>
<rect x="38.3555" y="93.957" width="44.0255" height="11.3606" rx="0.710064" fill="url(#paint3_linear_11444_70283)"/>
</g>
<g id="Rectangle 39738">
<rect x="38.3555" y="109.578" width="21.3027" height="5.68032" rx="0.710064" fill="#E1EDF8"/>
<rect x="38.3555" y="109.578" width="21.3027" height="5.68032" rx="0.710064" fill="url(#paint4_linear_11444_70283)"/>
</g>
<rect id="Rectangle 39733" x="12.793" y="72.125" width="48.286" height="4.26024" rx="0.710064" fill="#E1EDF8"/>
<rect id="Rectangle 39736" x="12.793" y="62.7188" width="59.6474" height="4.26024" rx="0.710064" fill="#E1EDF8"/>
<g id="Group 1000002400">
<path id="Vector" opacity="0.5" d="M43.7859 14.7486L40.5977 24.311L23.1766 8.51875L25.8395 6.34096L43.7859 14.7486Z" fill="url(#paint5_linear_11444_70283)"/>
<g id="Vector_2">
<path d="M40.7661 23.7239C40.3848 21.9071 40.0014 20.0911 39.6259 18.273C39.5864 18.0812 39.5065 17.9486 39.343 17.8342C36.7384 16.0185 34.138 14.1972 31.5366 12.3767C29.8848 11.2203 28.2336 10.0639 26.5817 8.90704C26.5445 8.88111 26.4909 8.8602 26.4754 8.82355C26.437 8.73243 26.4157 8.63341 26.3877 8.53754C26.4896 8.50808 26.6103 8.42727 26.6899 8.45735C27.048 8.5911 27.3943 8.75636 27.7441 8.91062C32.8643 11.1677 37.9843 13.4242 43.102 15.6872C43.274 15.7633 43.4024 15.7429 43.5598 15.6638C45.51 14.6797 47.4625 13.7008 49.4144 12.721C49.8262 12.515 50.039 12.1645 49.9977 11.7581C49.9548 11.3368 49.7005 11.046 49.237 10.9355C46.5094 10.2867 43.7803 9.64303 41.0512 8.99938C36.3378 7.88756 31.624 6.7769 26.9101 5.6657C25.4484 5.3209 23.9867 4.97611 22.5248 4.63023C21.9138 4.48518 21.3793 4.62101 20.9617 5.09481C20.5537 5.55789 20.4641 6.09532 20.6795 6.68125C21.4884 8.88595 22.2962 11.0908 23.1046 13.2956C24.4188 16.8818 25.7329 20.4676 27.0476 24.0538C27.3716 24.9373 27.738 25.8077 28.0138 26.7061C28.3005 27.6396 29.4222 28.0221 30.2244 27.192C31.7773 25.586 33.3696 24.0184 34.9459 22.4352C35.2159 22.1639 35.4959 21.9012 35.7545 21.6192C35.9003 21.4602 36.0027 21.4467 36.1825 21.5839C37.4022 22.5124 38.6312 23.4287 39.8584 24.3479C39.9383 24.4079 40.0188 24.4717 40.1075 24.516C40.453 24.6869 40.8411 24.4326 40.8242 24.0472C40.8192 23.9382 40.7961 23.83 40.7812 23.7213L40.7661 23.7239Z" fill="url(#paint6_linear_11444_70283)"/>
<path d="M40.7661 23.7239C40.3848 21.9071 40.0014 20.0911 39.6259 18.273C39.5864 18.0812 39.5065 17.9486 39.343 17.8342C36.7384 16.0185 34.138 14.1972 31.5366 12.3767C29.8848 11.2203 28.2336 10.0639 26.5817 8.90704C26.5445 8.88111 26.4909 8.8602 26.4754 8.82355C26.437 8.73243 26.4157 8.63341 26.3877 8.53754C26.4896 8.50808 26.6103 8.42727 26.6899 8.45735C27.048 8.5911 27.3943 8.75636 27.7441 8.91062C32.8643 11.1677 37.9843 13.4242 43.102 15.6872C43.274 15.7633 43.4024 15.7429 43.5598 15.6638C45.51 14.6797 47.4625 13.7008 49.4144 12.721C49.8262 12.515 50.039 12.1645 49.9977 11.7581C49.9548 11.3368 49.7005 11.046 49.237 10.9355C46.5094 10.2867 43.7803 9.64303 41.0512 8.99938C36.3378 7.88756 31.624 6.7769 26.9101 5.6657C25.4484 5.3209 23.9867 4.97611 22.5248 4.63023C21.9138 4.48518 21.3793 4.62101 20.9617 5.09481C20.5537 5.55789 20.4641 6.09532 20.6795 6.68125C21.4884 8.88595 22.2962 11.0908 23.1046 13.2956C24.4188 16.8818 25.7329 20.4676 27.0476 24.0538C27.3716 24.9373 27.738 25.8077 28.0138 26.7061C28.3005 27.6396 29.4222 28.0221 30.2244 27.192C31.7773 25.586 33.3696 24.0184 34.9459 22.4352C35.2159 22.1639 35.4959 21.9012 35.7545 21.6192C35.9003 21.4602 36.0027 21.4467 36.1825 21.5839C37.4022 22.5124 38.6312 23.4287 39.8584 24.3479C39.9383 24.4079 40.0188 24.4717 40.1075 24.516C40.453 24.6869 40.8411 24.4326 40.8242 24.0472C40.8192 23.9382 40.7961 23.83 40.7812 23.7213L40.7661 23.7239Z" fill="url(#paint7_linear_11444_70283)"/>
</g>
<path id="Vector 1196" d="M46.9746 25.3824C54.1422 22.2421 81.3785 19.6715 79.3812 30.6955C78.0595 37.9903 51.7557 38.6641 69.0744 50.1358" stroke="#FFA133" stroke-width="1.42013" stroke-linecap="round" stroke-dasharray="4.26 4.26"/>
</g>
<g id="Rectangle 39740" filter="url(#filter0_d_11444_70283)">
<rect x="66.5625" y="79.5625" width="46.75" height="60.5625" rx="1.0625" fill="url(#paint8_linear_11444_70283)"/>
</g>
<path id="Vector_3" d="M73.7961 120.999C74.0887 120.689 74.3684 120.393 74.6489 120.098C75.3063 119.408 75.9631 118.718 76.6195 118.029C76.9249 117.709 77.3896 117.75 77.6144 118.112C77.7818 118.381 77.7469 118.711 77.5164 118.954C76.8811 119.625 76.2448 120.295 75.6075 120.963C75.1646 121.429 74.7215 121.894 74.2784 122.359C73.9814 122.671 73.6213 122.673 73.323 122.362C72.9032 121.925 72.4857 121.487 72.0704 121.047C71.8862 120.852 71.8297 120.618 71.9117 120.358C71.9938 120.098 72.1727 119.956 72.4239 119.915C72.6314 119.882 72.8111 119.958 72.9588 120.113C73.233 120.402 73.5063 120.691 73.7961 120.999Z" fill="#81EBEB"/>
<path id="Vector_4" d="M73.7961 132.686C74.0887 132.377 74.3684 132.08 74.6489 131.786C75.3063 131.095 75.9631 130.406 76.6195 129.716C76.9249 129.396 77.3896 129.437 77.6144 129.8C77.7818 130.069 77.7469 130.398 77.5164 130.641C76.8811 131.312 76.2448 131.982 75.6075 132.65C75.1646 133.116 74.7215 133.581 74.2784 134.047C73.9814 134.358 73.6213 134.36 73.323 134.049C72.9032 133.613 72.4857 133.175 72.0704 132.734C71.8862 132.54 71.8297 132.306 71.9117 132.046C71.9938 131.786 72.1727 131.643 72.4239 131.603C72.6314 131.569 72.8111 131.645 72.9588 131.8C73.233 132.089 73.5063 132.379 73.7961 132.686Z" fill="#81EBEB"/>
<g id="Vector_5">
<path d="M94.1875 91.25C94.1875 93.5972 92.2847 95.5 89.9375 95.5C87.5903 95.5 85.6875 93.5972 85.6875 91.25C85.6875 88.9028 87.5903 87 89.9375 87C92.2847 87 94.1875 88.9028 94.1875 91.25Z" fill="#81EBEB"/>
<path d="M98.4375 103.469C98.4375 106.109 98.4375 108.25 89.9375 108.25C81.4375 108.25 81.4375 106.109 81.4375 103.469C81.4375 100.828 85.2431 98.6875 89.9375 98.6875C94.6319 98.6875 98.4375 100.828 98.4375 103.469Z" fill="#81EBEB"/>
</g>
<rect id="Rectangle 39741" x="82.5" y="115.688" width="26.5625" height="9.5625" rx="1.0625" fill="#81EBEB"/>
<rect id="Rectangle 39742" x="82.5" y="127.375" width="26.5625" height="9.5625" rx="1.0625" fill="#81EBEB"/>
</g>
<defs>
<filter id="filter0_d_11444_70283" x="59.975" y="78.2875" width="53.55" height="67.3625" filterUnits="userSpaceOnUse" color-interpolation-filters="sRGB">
<feFlood flood-opacity="0" result="BackgroundImageFix"/>
<feColorMatrix in="SourceAlpha" type="matrix" values="0 0 0 0 0 0 0 0 0 0 0 0 0 0 0 0 0 0 127 0" result="hardAlpha"/>
<feOffset dx="-3.1875" dy="2.125"/>
<feGaussianBlur stdDeviation="1.7"/>
<feComposite in2="hardAlpha" operator="out"/>
<feColorMatrix type="matrix" values="0 0 0 0 0 0 0 0 0 0.454167 0 0 0 0 0.263417 0 0 0 0.07 0"/>
<feBlend mode="normal" in2="BackgroundImageFix" result="effect1_dropShadow_11444_70283"/>
<feBlend mode="normal" in="SourceGraphic" in2="effect1_dropShadow_11444_70283" result="shape"/>
</filter>
<linearGradient id="paint0_linear_11444_70283" x1="2.63971" y1="26.9015" x2="49.9364" y2="146.5" gradientUnits="userSpaceOnUse">
<stop stop-color="white"/>
<stop offset="1" stop-color="#E2F1FA"/>
</linearGradient>
<linearGradient id="paint1_linear_11444_70283" x1="-2.6806" y1="30.1047" x2="65.7372" y2="176.304" gradientUnits="userSpaceOnUse">
<stop stop-color="white"/>
<stop offset="1" stop-color="#F4FBFF"/>
</linearGradient>
<linearGradient id="paint2_linear_11444_70283" x1="-46.5937" y1="62.0313" x2="-39.1397" y2="161.883" gradientUnits="userSpaceOnUse">
<stop stop-color="white"/>
<stop offset="0.752529" stop-color="#D9EAF3"/>
</linearGradient>
<linearGradient id="paint3_linear_11444_70283" x1="32.1467" y1="90.1025" x2="35.9344" y2="118.105" gradientUnits="userSpaceOnUse">
<stop stop-color="white"/>
<stop offset="1" stop-color="#F4FBFF"/>
</linearGradient>
<linearGradient id="paint4_linear_11444_70283" x1="35.3512" y1="107.651" x2="37.3058" y2="121.635" gradientUnits="userSpaceOnUse">
<stop stop-color="white"/>
<stop offset="1" stop-color="#F4FBFF"/>
</linearGradient>
<linearGradient id="paint5_linear_11444_70283" x1="33.1215" y1="2.23775" x2="29.2748" y2="28.0875" gradientUnits="userSpaceOnUse">
<stop stop-color="#FFB74B"/>
<stop offset="1" stop-color="#FCCA80"/>
</linearGradient>
<linearGradient id="paint6_linear_11444_70283" x1="35.2638" y1="-0.986881" x2="32.037" y2="30.7188" gradientUnits="userSpaceOnUse">
<stop stop-color="#FFB74B"/>
<stop offset="1" stop-color="#FCCA80"/>
</linearGradient>
<linearGradient id="paint7_linear_11444_70283" x1="34.4453" y1="2.86558" x2="44.618" y2="23.2029" gradientUnits="userSpaceOnUse">
<stop stop-color="#FFA133"/>
<stop offset="1" stop-color="#FFC633"/>
</linearGradient>
<linearGradient id="paint8_linear_11444_70283" x1="58.5068" y1="106.942" x2="122.071" y2="106.942" gradientUnits="userSpaceOnUse">
<stop stop-color="#05E0E0"/>
<stop offset="1" stop-color="#02C8C8"/>
</linearGradient>
</defs>
</svg>
