<svg width="126" height="147" viewBox="0 0 126 147" fill="none" xmlns="http://www.w3.org/2000/svg">
<g id="Group">
<g id="Group_2">
<rect id="Rectangle 39713" x="32.8615" y="1.11933" width="91.7023" height="110.442" rx="3.1705" fill="url(#paint0_linear_11444_52410)" stroke="#E1EDF8" stroke-width="2.11367"/>
<rect id="Rectangle 39714" x="33.9297" y="2.17188" width="89.3711" height="14.7955" fill="#E1EDF8"/>
<ellipse id="Ellipse 2386" cx="41.3871" cy="9.57671" rx="3.19183" ry="3.17046" fill="white"/>
<ellipse id="Ellipse 2387" cx="49.8989" cy="9.57671" rx="3.19183" ry="3.17046" fill="white"/>
<ellipse id="Ellipse 2388" cx="58.4067" cy="9.57671" rx="3.19183" ry="3.17046" fill="white"/>
<rect id="Rectangle 39715" x="40.3203" y="73.8906" width="76.6038" height="16.9091" rx="1.05683" fill="#DAE5F6"/>
<rect id="Rectangle 39716" x="40.3203" y="95.0312" width="51.0692" height="10.5682" rx="1.05683" fill="#DAE5F6"/>
<g id="Rectangle 39717">
<rect width="23.4067" height="10.5682" rx="1.05683" transform="matrix(-1 0 0 1 116.926 95.0312)" fill="#D9D9D9"/>
<rect width="23.4067" height="10.5682" rx="1.05683" transform="matrix(-1 0 0 1 116.926 95.0312)" fill="#DAE5F6"/>
</g>
<g id="Rectangle 39633" filter="url(#filter0_d_11444_52410)">
<path d="M2.375 91.5427C2.375 90.1991 3.07139 88.9514 4.21503 88.2462L29.3885 72.7224C30.6348 71.9538 32.208 71.9538 33.4542 72.7224L58.6278 88.2462C59.7714 88.9514 60.4678 90.1991 60.4678 91.5427V120.528C60.4678 121.923 59.7178 123.21 58.5043 123.897L33.3308 138.162C32.1463 138.834 30.6964 138.834 29.512 138.162L4.33848 123.897C3.12499 123.21 2.375 121.923 2.375 120.528V91.5427Z" fill="white"/>
<path d="M2.375 91.5427C2.375 90.1991 3.07139 88.9514 4.21503 88.2462L29.3885 72.7224C30.6348 71.9538 32.208 71.9538 33.4542 72.7224L58.6278 88.2462C59.7714 88.9514 60.4678 90.1991 60.4678 91.5427V120.528C60.4678 121.923 59.7178 123.21 58.5043 123.897L33.3308 138.162C32.1463 138.834 30.6964 138.834 29.512 138.162L4.33848 123.897C3.12499 123.21 2.375 121.923 2.375 120.528V91.5427Z" fill="url(#paint1_linear_11444_52410)"/>
</g>
<path id="Rectangle 39634" d="M6.24609 93.8322C6.24609 92.4818 6.94949 91.229 8.10238 90.5258L29.403 77.5346C30.6414 76.7794 32.1979 76.7793 33.4362 77.5346L54.7369 90.5258C55.8898 91.229 56.5932 92.4818 56.5932 93.8322V118.021C56.5932 119.422 55.8362 120.714 54.6137 121.399L33.3131 133.337C32.1368 133.996 30.7024 133.996 29.5262 133.337L8.22552 121.399C7.00309 120.714 6.24609 119.422 6.24609 118.021V93.8322Z" fill="url(#paint2_linear_11444_52410)"/>
<g id="Vector">
<path fill-rule="evenodd" clip-rule="evenodd" d="M15.4721 108.074C16.1411 108.069 16.6874 108.608 16.6922 109.278C16.7115 111.933 17.6211 114.454 19.2463 116.685C19.6406 117.226 19.5222 117.985 18.9817 118.38C18.4413 118.775 17.6835 118.656 17.2892 118.115C15.4006 115.523 14.2929 112.516 14.2696 109.296C14.2647 108.626 14.8031 108.079 15.4721 108.074Z" fill="url(#paint3_linear_11444_52410)"/>
<path fill-rule="evenodd" clip-rule="evenodd" d="M46.9751 100.179C46.3864 97.9099 44.6673 96.2106 42.3603 95.6368C41.711 95.4753 41.3154 94.8173 41.4767 94.1671C41.638 93.5169 42.295 93.1207 42.9443 93.2822C46.1031 94.0679 48.5053 96.429 49.3199 99.5685C49.4882 100.217 49.0996 100.879 48.4521 101.048C47.8046 101.216 47.1433 100.827 46.9751 100.179Z" fill="url(#paint4_linear_11444_52410)"/>
<path fill-rule="evenodd" clip-rule="evenodd" d="M36.6574 93.1098C36.6525 92.4225 35.9573 91.6082 34.7784 91.6065C33.6039 91.6048 32.9373 92.4079 32.9422 93.0832L33.0011 101.192C33.006 101.862 32.4676 102.409 31.7986 102.414C31.1296 102.419 30.5833 101.88 30.5784 101.21L30.4999 90.3978C30.4949 89.7105 29.7998 88.8962 28.6209 88.8945C27.4464 88.8928 26.7798 89.6959 26.7847 90.3712L26.873 102.535C26.8779 103.205 26.3395 103.752 25.6705 103.757C25.0015 103.762 24.4552 103.223 24.4504 102.553L24.4111 97.1465C24.4061 96.4592 23.711 95.645 22.5321 95.6432C21.3576 95.6415 20.691 96.4446 20.6959 97.1199L20.7842 109.284C20.8217 114.45 25.6653 118.9 31.9289 118.909C38.1882 118.919 42.9505 114.491 42.9131 109.337L42.8542 101.228C42.8492 100.541 42.154 99.7263 40.9752 99.7246C39.8007 99.7229 39.1341 100.526 39.139 101.201L39.1782 106.607C39.1806 106.931 39.0538 107.242 38.826 107.471C38.5982 107.701 38.2883 107.83 37.9652 107.829C35.0957 107.825 33.0639 109.836 33.0796 112.005C33.0845 112.674 32.5461 113.222 31.8771 113.226C31.2081 113.231 30.6618 112.692 30.657 112.022C30.6357 109.092 32.6666 106.744 35.3887 105.824C36.1497 105.566 36.743 104.897 36.7372 104.093L36.6574 93.1098Z" fill="url(#paint5_linear_11444_52410)"/>
</g>
</g>
<g id="Group ">
<path id="Subtract" fill-rule="evenodd" clip-rule="evenodd" d="M82.1357 32.0896C80.6594 31.4168 79.0249 31.043 77.3052 31.043C70.7293 31.043 65.3984 36.5096 65.3984 43.2531C65.3984 45.2063 65.8457 47.0524 66.6409 48.6896C66.8522 49.1247 66.9225 49.622 66.8 50.0915L66.0908 52.8095C65.783 53.9894 66.8356 55.0689 67.9862 54.7532L70.6367 54.0259C71.0946 53.9003 71.5795 53.9724 72.0038 54.1891C73.6003 55.0046 75.4005 55.4632 77.3052 55.4632C83.8811 55.4632 89.212 49.9966 89.212 43.2531C89.212 41.8337 88.9758 40.4709 88.5416 39.2037C87.7776 39.7079 86.8623 40.0014 85.8784 40.0014C83.2048 40.0014 81.0374 37.8339 81.0374 35.1603C81.0374 33.9946 81.4494 32.9251 82.1357 32.0896Z" fill="#E1EDF8"/>
<g id="Vector_2">
<path d="M79.7599 38.2823C79.7599 39.6191 78.6762 40.7029 77.3394 40.7029C76.0026 40.7029 74.9189 39.6191 74.9189 38.2823C74.9189 36.9455 76.0026 35.8617 77.3394 35.8617C78.6762 35.8617 79.7599 36.9455 79.7599 38.2823Z" fill="url(#paint6_linear_11444_52410)"/>
<path d="M82.1805 45.2414C82.1805 46.7454 82.1805 47.9645 77.3394 47.9645C72.4983 47.9645 72.4983 46.7454 72.4983 45.2414C72.4983 43.7375 74.6657 42.5183 77.3394 42.5183C80.013 42.5183 82.1805 43.7375 82.1805 45.2414Z" fill="url(#paint7_linear_11444_52410)"/>
<path d="M63.5246 48.1488C63.5246 49.4689 63.5257 50.7889 63.5236 52.1089C63.5225 52.8261 63.3047 53.0538 62.6214 53.0549C61.8051 53.0571 60.9888 53.0615 60.1725 53.0538C58.9303 53.0417 58.054 52.1419 58.0486 50.8637C58.0411 49.0355 58.0411 47.2061 58.0486 45.3779C58.054 44.1305 58.8789 43.2439 60.0996 43.2021C60.9824 43.1724 61.8663 43.1856 62.7491 43.1977C63.2897 43.2054 63.5107 43.4573 63.5236 44.0238C63.5246 44.0513 63.5236 44.0788 63.5236 44.1063C63.5246 45.4538 63.5246 46.8013 63.5246 48.1488Z" fill="url(#paint8_linear_11444_52410)"/>
<path d="M92.4703 48.036C92.4703 46.7028 92.4682 45.3685 92.4714 44.0353C92.4725 43.3653 92.6902 43.1343 93.3317 43.1299C94.148 43.1233 94.9643 43.1189 95.7806 43.131C97.1107 43.1508 97.9453 44.0287 97.9474 45.4015C97.9507 47.1747 97.9507 48.949 97.9474 50.7222C97.9442 52.1038 97.0829 52.9849 95.7345 52.9893C94.9182 52.9926 94.1019 52.9937 93.2856 52.9882C92.7213 52.9849 92.4746 52.7374 92.4725 52.161C92.4671 50.786 92.4703 49.411 92.4703 48.036Z" fill="url(#paint9_linear_11444_52410)"/>
<path d="M94.5231 54.0159C94.9726 54.0159 95.3963 54.0159 95.9112 54.0159C95.8018 54.6034 95.7331 55.1699 95.5883 55.7155C94.5693 59.5754 91.1957 62.3111 87.3029 62.4288C86.1541 62.464 85.0031 62.4398 83.8532 62.4409C83.7759 62.4409 83.6987 62.4233 83.6 62.4101C83.6 61.9624 83.6 61.529 83.6 61.0527C83.747 61.0461 83.8896 61.034 84.0312 61.034C85.0739 61.0307 86.1176 61.0483 87.1602 61.0252C90.95 60.9416 94.0447 58.0431 94.492 54.1765C94.4974 54.1369 94.5081 54.0973 94.5231 54.0159Z" fill="url(#paint10_linear_11444_52410)"/>
<path d="M79.7587 60.3443C80.3197 60.3432 80.8808 60.3377 81.4418 60.3454C81.9545 60.352 82.1969 60.6039 82.2055 61.1319C82.212 61.5433 82.212 61.9558 82.2055 62.3672C82.1969 62.8655 81.9459 63.1482 81.474 63.1526C80.3391 63.1625 79.2031 63.1702 78.0682 63.1493C77.3034 63.1361 76.7338 62.5091 76.7359 61.7413C76.7381 60.968 77.3077 60.3652 78.0768 60.3476C78.6367 60.3333 79.1977 60.3443 79.7587 60.3443Z" fill="url(#paint11_linear_11444_52410)"/>
<path d="M95.8925 42.3097C95.8925 39.9406 95.4259 37.5948 94.5193 35.406C93.6128 33.2173 92.2841 31.2286 90.6091 29.5534C88.934 27.8782 86.9454 26.5494 84.7569 25.6428C82.5683 24.7362 80.2227 24.2695 77.8538 24.2695C75.4849 24.2695 73.1393 24.7362 70.9507 25.6428C68.7621 26.5494 66.7736 27.8782 65.0985 29.5534C63.4235 31.2286 62.0948 33.2173 61.1882 35.406C60.2817 37.5948 59.8151 39.9406 59.8151 42.3097H61.4886C61.4886 40.1604 61.9119 38.0322 62.7344 36.0465C63.5568 34.0608 64.7622 32.2566 66.2819 30.7368C67.8015 29.217 69.6056 28.0115 71.5911 27.189C73.5766 26.3665 75.7047 25.9432 77.8538 25.9432C80.0029 25.9432 82.131 26.3665 84.1165 27.189C86.102 28.0115 87.9061 29.217 89.4257 30.7368C90.9454 32.2566 92.1508 34.0608 92.9732 36.0465C93.7957 38.0322 94.219 40.1604 94.219 42.3097H95.8925Z" fill="url(#paint12_linear_11444_52410)"/>
<path d="M89.442 34.6515C89.442 36.6567 87.8165 38.2823 85.8112 38.2823C83.806 38.2823 82.1805 36.6567 82.1805 34.6515C82.1805 32.6462 83.806 31.0206 85.8112 31.0206C87.8165 31.0206 89.442 32.6462 89.442 34.6515Z" fill="url(#paint13_linear_11444_52410)"/>
</g>
</g>
</g>
<defs>
<filter id="filter0_d_11444_52410" x="0.438563" y="72.1445" width="65.8395" height="74.2653" filterUnits="userSpaceOnUse" color-interpolation-filters="sRGB">
<feFlood flood-opacity="0" result="BackgroundImageFix"/>
<feColorMatrix in="SourceAlpha" type="matrix" values="0 0 0 0 0 0 0 0 0 0 0 0 0 0 0 0 0 0 127 0" result="hardAlpha"/>
<feOffset dx="1.93644" dy="3.87287"/>
<feGaussianBlur stdDeviation="1.93644"/>
<feComposite in2="hardAlpha" operator="out"/>
<feColorMatrix type="matrix" values="0 0 0 0 0.454167 0 0 0 0 0 0 0 0 0 0 0 0 0 0.07 0"/>
<feBlend mode="normal" in2="BackgroundImageFix" result="effect1_dropShadow_11444_52410"/>
<feBlend mode="normal" in="SourceGraphic" in2="effect1_dropShadow_11444_52410" result="shape"/>
</filter>
<linearGradient id="paint0_linear_11444_52410" x1="31.8047" y1="16.1419" x2="132.518" y2="104.782" gradientUnits="userSpaceOnUse">
<stop stop-color="white"/>
<stop offset="1" stop-color="#E2F1FA"/>
</linearGradient>
<linearGradient id="paint1_linear_11444_52410" x1="6.85333" y1="25.0881" x2="18.8471" y2="197.565" gradientUnits="userSpaceOnUse">
<stop stop-color="#FF4B4B"/>
<stop offset="1" stop-color="#FFB6B6"/>
</linearGradient>
<linearGradient id="paint2_linear_11444_52410" x1="6.24609" y1="84.6038" x2="58.446" y2="132.373" gradientUnits="userSpaceOnUse">
<stop stop-color="white"/>
<stop offset="1" stop-color="#E2F1FA"/>
</linearGradient>
<linearGradient id="paint3_linear_11444_52410" x1="16.9746" y1="68.3545" x2="20.8775" y2="144.907" gradientUnits="userSpaceOnUse">
<stop stop-color="#FF4B4B"/>
<stop offset="1" stop-color="#FFB6B6"/>
</linearGradient>
<linearGradient id="paint4_linear_11444_52410" x1="16.9746" y1="68.3545" x2="20.8775" y2="144.907" gradientUnits="userSpaceOnUse">
<stop stop-color="#FF4B4B"/>
<stop offset="1" stop-color="#FFB6B6"/>
</linearGradient>
<linearGradient id="paint5_linear_11444_52410" x1="16.9746" y1="68.3545" x2="20.8775" y2="144.907" gradientUnits="userSpaceOnUse">
<stop stop-color="#FF4B4B"/>
<stop offset="1" stop-color="#FFB6B6"/>
</linearGradient>
<linearGradient id="paint6_linear_11444_52410" x1="33.8376" y1="-1.75149" x2="21.689" y2="62.8754" gradientUnits="userSpaceOnUse">
<stop stop-color="#FF4B4B"/>
<stop offset="1" stop-color="#FFB6B6"/>
</linearGradient>
<linearGradient id="paint7_linear_11444_52410" x1="33.8376" y1="-1.75149" x2="21.689" y2="62.8754" gradientUnits="userSpaceOnUse">
<stop stop-color="#FF4B4B"/>
<stop offset="1" stop-color="#FFB6B6"/>
</linearGradient>
<linearGradient id="paint8_linear_11444_52410" x1="33.8376" y1="-1.75149" x2="21.689" y2="62.8754" gradientUnits="userSpaceOnUse">
<stop stop-color="#FF4B4B"/>
<stop offset="1" stop-color="#FFB6B6"/>
</linearGradient>
<linearGradient id="paint9_linear_11444_52410" x1="33.8376" y1="-1.75149" x2="21.689" y2="62.8754" gradientUnits="userSpaceOnUse">
<stop stop-color="#FF4B4B"/>
<stop offset="1" stop-color="#FFB6B6"/>
</linearGradient>
<linearGradient id="paint10_linear_11444_52410" x1="33.8376" y1="-1.75149" x2="21.689" y2="62.8754" gradientUnits="userSpaceOnUse">
<stop stop-color="#FF4B4B"/>
<stop offset="1" stop-color="#FFB6B6"/>
</linearGradient>
<linearGradient id="paint11_linear_11444_52410" x1="33.8376" y1="-1.75149" x2="21.689" y2="62.8754" gradientUnits="userSpaceOnUse">
<stop stop-color="#FF4B4B"/>
<stop offset="1" stop-color="#FFB6B6"/>
</linearGradient>
<linearGradient id="paint12_linear_11444_52410" x1="33.8376" y1="-1.75149" x2="21.689" y2="62.8754" gradientUnits="userSpaceOnUse">
<stop stop-color="#FF4B4B"/>
<stop offset="1" stop-color="#FFB6B6"/>
</linearGradient>
<linearGradient id="paint13_linear_11444_52410" x1="33.8376" y1="-1.75149" x2="21.689" y2="62.8754" gradientUnits="userSpaceOnUse">
<stop stop-color="#FF4B4B"/>
<stop offset="1" stop-color="#FFB6B6"/>
</linearGradient>
</defs>
</svg>
