<svg width="123" height="142" viewBox="0 0 123 142" fill="none" xmlns="http://www.w3.org/2000/svg">
<g id="Group icon">
<rect id="Rectangle 39713" x="35.9684" y="1.79652" width="85.2987" height="109.096" fill="url(#paint0_linear_11444_75725)" stroke="#E1EDF8" stroke-width="1.98367"/>
<rect id="Rectangle 39661" x="72.5" y="24.5" width="11.9" height="39.1" rx="0.85" fill="#E1EDF8"/>
<rect id="Rectangle 39662" x="55.5" y="48.2969" width="11.9" height="15.3" rx="0.85" fill="#E1EDF8"/>
<rect id="Rectangle 39663" x="89.5" y="38.0977" width="11.9" height="25.5" rx="0.85" fill="#E1EDF8"/>
<g id="Vector">
<path d="M96.7093 87.3984H68.222C67.7693 87.3984 67.4023 87.7654 67.4023 88.2181V92.2259C67.4023 92.6786 67.7693 93.0456 68.222 93.0456H96.7093C97.162 93.0456 97.5289 92.6786 97.5289 92.2259V88.2181C97.5289 87.7654 97.162 87.3984 96.7093 87.3984Z" fill="#DAE5F6"/>
<path d="M96.7093 87.3984H68.222C67.7693 87.3984 67.4023 87.7654 67.4023 88.2181V92.2259C67.4023 92.6786 67.7693 93.0456 68.222 93.0456H96.7093C97.162 93.0456 97.5289 92.6786 97.5289 92.2259V88.2181C97.5289 87.7654 97.162 87.3984 96.7093 87.3984Z" fill="#E1EDF8"/>
</g>
<g id="Vector_2">
<path d="M107.687 96.9453H68.3628C67.8324 96.9453 67.4023 97.3753 67.4023 97.9058V101.632C67.4023 102.162 67.8324 102.592 68.3628 102.592H107.687C108.217 102.592 108.647 102.162 108.647 101.632V97.9058C108.647 97.3753 108.217 96.9453 107.687 96.9453Z" fill="#DAE5F6"/>
<path d="M107.687 96.9453H68.3628C67.8324 96.9453 67.4023 97.3753 67.4023 97.9058V101.632C67.4023 102.162 67.8324 102.592 68.3628 102.592H107.687C108.217 102.592 108.647 102.162 108.647 101.632V97.9058C108.647 97.3753 108.217 96.9453 107.687 96.9453Z" fill="#E1EDF8"/>
</g>
<rect id="Rectangle 39714" x="36.4219" y="2.24609" width="83.6228" height="11.5339" fill="#E1EDF8"/>
<ellipse id="Ellipse 2386" cx="41.5592" cy="7.38721" rx="2.25453" ry="2.2544" fill="#FEFEFE"/>
<ellipse id="Ellipse 2387" cx="48.9498" cy="7.38721" rx="2.25453" ry="2.2544" fill="#FEFEFE"/>
<ellipse id="Ellipse 2388" cx="56.3483" cy="7.38721" rx="2.25453" ry="2.2544" fill="#FEFEFE"/>
<g id="Rectangle 39633" filter="url(#filter0_d_11444_75725)">
<path d="M2.80078 68.4016C2.80078 66.6008 3.73413 64.9288 5.26688 63.9836L39.0044 43.1799C40.6745 42.15 42.7827 42.15 44.4529 43.1799L78.1904 63.9836C79.7231 64.9288 80.6565 66.6008 80.6565 68.4016V107.244C80.6565 109.114 79.6513 110.839 78.0249 111.76L44.2875 130.877C42.7001 131.777 40.7571 131.777 39.1698 130.877L5.43233 111.76C3.80597 110.839 2.80078 109.114 2.80078 107.244V68.4016Z" fill="white"/>
<path d="M2.80078 68.4016C2.80078 66.6008 3.73413 64.9288 5.26688 63.9836L39.0044 43.1799C40.6745 42.15 42.7827 42.15 44.4529 43.1799L78.1904 63.9836C79.7231 64.9288 80.6565 66.6008 80.6565 68.4016V107.244C80.6565 109.114 79.6513 110.839 78.0249 111.76L44.2875 130.877C42.7001 131.777 40.7571 131.777 39.1698 130.877L5.43233 111.76C3.80597 110.839 2.80078 109.114 2.80078 107.244V68.4016Z" fill="url(#paint1_linear_11444_75725)"/>
</g>
<path id="Rectangle 39634" d="M7.98828 71.4579C7.98828 69.6481 8.93101 67.9689 10.4762 67.0266L39.0233 49.6169C40.6828 48.6048 42.7687 48.6048 44.4282 49.6169L72.9753 67.0266C74.5205 67.9689 75.4632 69.6481 75.4632 71.4579V103.873C75.4632 105.751 74.4487 107.482 72.8103 108.4L44.2632 124.399C42.6869 125.282 40.7646 125.282 39.1883 124.399L10.6412 108.4C9.00284 107.482 7.98828 105.751 7.98828 103.873V71.4579Z" fill="url(#paint2_linear_11444_75725)"/>
<g id="Vector_3">
<path fill-rule="evenodd" clip-rule="evenodd" d="M20.4329 93.1045C21.3236 93.098 22.0508 93.8205 22.0573 94.7183C22.0829 98.2761 23.2939 101.655 25.4574 104.644C25.9824 105.37 25.8247 106.387 25.1052 106.916C24.3857 107.445 23.3769 107.286 22.852 106.561C20.3378 103.087 18.8632 99.0574 18.8321 94.742C18.8256 93.8442 19.5423 93.1111 20.4329 93.1045Z" fill="#17112D"/>
<path fill-rule="evenodd" clip-rule="evenodd" d="M20.4329 93.1045C21.3236 93.098 22.0508 93.8205 22.0573 94.7183C22.0829 98.2761 23.2939 101.655 25.4574 104.644C25.9824 105.37 25.8247 106.387 25.1052 106.916C24.3857 107.445 23.3769 107.286 22.852 106.561C20.3378 103.087 18.8632 99.0574 18.8321 94.742C18.8256 93.8442 19.5423 93.1111 20.4329 93.1045Z" fill="url(#paint3_linear_11444_75725)"/>
<path fill-rule="evenodd" clip-rule="evenodd" d="M62.3716 82.5243C61.588 79.484 59.2994 77.2067 56.2282 76.4378C55.3638 76.2213 54.8372 75.3395 55.0518 74.4682C55.2665 73.5968 56.1413 73.0659 57.0057 73.2823C61.2108 74.3352 64.4088 77.4994 65.4932 81.7066C65.7172 82.5756 65.2 83.4631 64.338 83.6889C63.476 83.9146 62.5956 83.3932 62.3716 82.5243Z" fill="#17112D"/>
<path fill-rule="evenodd" clip-rule="evenodd" d="M62.3716 82.5243C61.588 79.484 59.2994 77.2067 56.2282 76.4378C55.3638 76.2213 54.8372 75.3395 55.0518 74.4682C55.2665 73.5968 56.1413 73.0659 57.0057 73.2823C61.2108 74.3352 64.4088 77.4994 65.4932 81.7066C65.7172 82.5756 65.2 83.4631 64.338 83.6889C63.476 83.9146 62.5956 83.3932 62.3716 82.5243Z" fill="url(#paint4_linear_11444_75725)"/>
<path fill-rule="evenodd" clip-rule="evenodd" d="M48.6362 73.0512C48.6295 72.1302 47.7041 71.039 46.1347 71.0367C44.5711 71.0344 43.6837 72.1106 43.6902 73.0156L43.7686 83.8828C43.7751 84.7806 43.0584 85.5137 42.1678 85.5203C41.2772 85.5268 40.5499 84.8043 40.5434 83.9065L40.4389 69.4169C40.4323 68.4959 39.5068 67.4046 37.9375 67.4023C36.3739 67.4001 35.4865 68.4763 35.493 69.3813L35.6106 85.6821C35.6171 86.5799 34.9003 87.313 34.0097 87.3195C33.1191 87.326 32.3919 86.6035 32.3854 85.7057L32.3331 78.4609C32.3265 77.5399 31.401 76.4487 29.8317 76.4464C28.2681 76.4441 27.3807 77.5203 27.3872 78.4253L27.5048 94.7261C27.5547 101.649 34.0028 107.614 42.3413 107.626C50.6741 107.638 57.0139 101.704 56.9641 94.7976L56.8857 83.9304C56.879 83.0093 55.9536 81.9181 54.3842 81.9158C52.8207 81.9135 51.9332 82.9898 51.9398 83.8948L51.992 91.1396C51.9951 91.5732 51.8263 91.99 51.523 92.2975C51.2198 92.605 50.8072 92.7777 50.3771 92.777C46.5571 92.7714 43.8522 95.4668 43.8732 98.3724C43.8796 99.2702 43.1629 100.003 42.2723 100.01C41.3817 100.016 40.6544 99.2938 40.648 98.396C40.6196 94.4689 43.3234 91.3228 46.9471 90.0891C47.9602 89.7443 48.7501 88.8474 48.7423 87.7695L48.6362 73.0512Z" fill="#17112D"/>
<path fill-rule="evenodd" clip-rule="evenodd" d="M48.6362 73.0512C48.6295 72.1302 47.7041 71.039 46.1347 71.0367C44.5711 71.0344 43.6837 72.1106 43.6902 73.0156L43.7686 83.8828C43.7751 84.7806 43.0584 85.5137 42.1678 85.5203C41.2772 85.5268 40.5499 84.8043 40.5434 83.9065L40.4389 69.4169C40.4323 68.4959 39.5068 67.4046 37.9375 67.4023C36.3739 67.4001 35.4865 68.4763 35.493 69.3813L35.6106 85.6821C35.6171 86.5799 34.9003 87.313 34.0097 87.3195C33.1191 87.326 32.3919 86.6035 32.3854 85.7057L32.3331 78.4609C32.3265 77.5399 31.401 76.4487 29.8317 76.4464C28.2681 76.4441 27.3807 77.5203 27.3872 78.4253L27.5048 94.7261C27.5547 101.649 34.0028 107.614 42.3413 107.626C50.6741 107.638 57.0139 101.704 56.9641 94.7976L56.8857 83.9304C56.879 83.0093 55.9536 81.9181 54.3842 81.9158C52.8207 81.9135 51.9332 82.9898 51.9398 83.8948L51.992 91.1396C51.9951 91.5732 51.8263 91.99 51.523 92.2975C51.2198 92.605 50.8072 92.7777 50.3771 92.777C46.5571 92.7714 43.8522 95.4668 43.8732 98.3724C43.8796 99.2702 43.1629 100.003 42.2723 100.01C41.3817 100.016 40.6544 99.2938 40.648 98.396C40.6196 94.4689 43.3234 91.3228 46.9471 90.0891C47.9602 89.7443 48.7501 88.8474 48.7423 87.7695L48.6362 73.0512Z" fill="url(#paint5_linear_11444_75725)"/>
</g>
</g>
<defs>
<filter id="filter0_d_11444_75725" x="0.205599" y="42.4062" width="88.2362" height="99.5253" filterUnits="userSpaceOnUse" color-interpolation-filters="sRGB">
<feFlood flood-opacity="0" result="BackgroundImageFix"/>
<feColorMatrix in="SourceAlpha" type="matrix" values="0 0 0 0 0 0 0 0 0 0 0 0 0 0 0 0 0 0 127 0" result="hardAlpha"/>
<feOffset dx="2.59518" dy="5.19036"/>
<feGaussianBlur stdDeviation="2.59518"/>
<feComposite in2="hardAlpha" operator="out"/>
<feColorMatrix type="matrix" values="0 0 0 0 0.454167 0 0 0 0 0 0 0 0 0 0 0 0 0 0.07 0"/>
<feBlend mode="normal" in2="BackgroundImageFix" result="effect1_dropShadow_11444_75725"/>
<feBlend mode="normal" in="SourceGraphic" in2="effect1_dropShadow_11444_75725" result="shape"/>
</filter>
<linearGradient id="paint0_linear_11444_75725" x1="34.9766" y1="16.6733" x2="133.459" y2="98.3855" gradientUnits="userSpaceOnUse">
<stop stop-color="white"/>
<stop offset="1" stop-color="#E2F1FA"/>
</linearGradient>
<linearGradient id="paint1_linear_11444_75725" x1="8.80262" y1="-20.6554" x2="24.8747" y2="210.483" gradientUnits="userSpaceOnUse">
<stop stop-color="#FF4B4B"/>
<stop offset="1" stop-color="#FFB6B6"/>
</linearGradient>
<linearGradient id="paint2_linear_11444_75725" x1="7.98828" y1="59.0904" x2="77.9424" y2="123.112" gradientUnits="userSpaceOnUse">
<stop stop-color="white"/>
<stop offset="1" stop-color="#E2F1FA"/>
</linearGradient>
<linearGradient id="paint3_linear_11444_75725" x1="22.4331" y1="39.8764" x2="27.6982" y2="142.462" gradientUnits="userSpaceOnUse">
<stop stop-color="#FF4B4B"/>
<stop offset="1" stop-color="#FFB6B6"/>
</linearGradient>
<linearGradient id="paint4_linear_11444_75725" x1="22.4331" y1="39.8764" x2="27.6982" y2="142.462" gradientUnits="userSpaceOnUse">
<stop stop-color="#FF4B4B"/>
<stop offset="1" stop-color="#FFB6B6"/>
</linearGradient>
<linearGradient id="paint5_linear_11444_75725" x1="22.4331" y1="39.8764" x2="27.6982" y2="142.462" gradientUnits="userSpaceOnUse">
<stop stop-color="#FF4B4B"/>
<stop offset="1" stop-color="#FFB6B6"/>
</linearGradient>
</defs>
</svg>
