<svg width="120" height="121" viewBox="0 0 120 121" fill="none" xmlns="http://www.w3.org/2000/svg">
<path d="M102.472 37.0938H60.3459C54.4713 37.0938 49.7109 41.8262 49.7109 47.6606V83.2931C49.7109 89.1301 54.4738 93.86 60.3459 93.86H74.0012L79.9586 104.113C80.6035 105.22 82.2121 105.22 82.857 104.113L88.8143 93.86H102.47C108.344 93.86 113.105 89.1276 113.105 83.2931V47.6606C113.105 41.8237 108.342 37.0938 102.47 37.0938H102.472Z" fill="url(#paint0_linear_9181_147274)"/>
<g opacity="0.5">
<path d="M81.4872 82.55C79.1171 82.55 76.7464 82.55 74.3763 82.55C73.2049 82.55 72.0978 82.319 71.1175 81.6386C69.949 80.8273 69.2885 79.6969 69.1411 78.2979C68.9568 76.549 69.1496 74.8172 69.52 73.1031C69.8386 71.6301 70.3671 70.2494 71.3468 69.0814C72.4556 67.7604 73.9104 67.1687 75.6114 67.1795C75.8862 67.1812 76.1804 67.3217 76.429 67.4628C76.9393 67.753 77.4149 68.104 77.9224 68.3998C79.7441 69.4609 81.6454 69.7658 83.6753 69.0279C84.453 68.7452 85.1795 68.3719 85.8116 67.8622C86.8647 67.0134 87.9849 67.0634 89.1671 67.4486C90.6491 67.9316 91.6681 68.9414 92.3923 70.2852C93.2923 71.955 93.6399 73.7738 93.7731 75.637C93.8356 76.5126 93.8669 77.4047 93.7731 78.274C93.5347 80.4643 92.0692 82.0021 89.8976 82.4203C89.4265 82.5107 88.9378 82.5415 88.4571 82.5437C86.1342 82.5563 83.8113 82.5494 81.4884 82.5494L81.4872 82.55Z" fill="white"/>
<path d="M81.2662 67.1246C77.286 67.1127 74.1154 63.929 74.1211 59.9506C74.1268 55.9727 77.3173 52.7845 81.2833 52.793C85.2594 52.8015 88.434 55.9903 88.4272 59.9676C88.4204 63.9495 85.231 67.1372 81.2668 67.1252L81.2662 67.1246Z" fill="white"/>
</g>
<path d="M60.2633 16.6729H17.1252C11.603 16.6729 7.125 21.1404 7.125 26.6496V74.619C7.125 76.7471 9.74902 77.7789 11.2168 76.23L21.815 65.0425H60.2633C65.7855 65.0425 70.2635 60.575 70.2635 55.0658V26.6496C70.2635 21.1404 65.7855 16.6729 60.2633 16.6729Z" fill="url(#paint1_linear_9181_147274)"/>
<g clip-path="url(#clip0_9181_147274)">
<path opacity="0.5" d="M39.4388 50.9297H27.647C26.6059 50.9297 25.7578 51.772 25.7578 52.8189V54.3105C25.7578 54.6672 26.0503 54.9597 26.407 54.9597H40.6788C41.0414 54.9597 41.328 54.6672 41.328 54.3105V52.8189C41.328 51.772 40.4799 50.9297 39.4388 50.9297Z" fill="url(#paint2_linear_9181_147274)"/>
<path d="M53.7179 49.7651L41.143 38.5953L38.6858 41.0532L49.8525 53.6315C50.9015 54.8217 52.7322 54.878 53.8516 53.7583C54.9711 52.6385 54.9078 50.8074 53.7179 49.7651Z" fill="url(#paint3_linear_9181_147274)"/>
<path d="M29.1072 36.195L36.2932 29.007L43.0073 35.723L35.8213 42.911L29.1072 36.195Z" fill="url(#paint4_linear_9181_147274)"/>
<path d="M43.6457 35.3724C44.3068 36.0337 45.3769 36.0337 46.038 35.3724C46.6992 34.711 46.6992 33.6407 46.038 32.9794L39.0523 25.9918C38.7218 25.6611 38.2868 25.4957 37.8561 25.5001C37.4255 25.4957 36.9906 25.6611 36.66 25.9918C35.9988 26.6531 35.9988 27.7234 36.66 28.3848L43.6457 35.3724Z" fill="url(#paint5_linear_9181_147274)"/>
<path d="M33.0714 45.9495C33.7326 46.6109 34.8026 46.6109 35.4638 45.9495C36.125 45.2882 36.1249 44.2178 35.4638 43.5565L28.4781 36.5689C28.1475 36.2382 27.7125 36.0729 27.2863 36.0729C26.8513 36.0729 26.4163 36.2382 26.0857 36.5689C25.4246 37.2302 25.4246 38.3006 26.0857 38.9619L33.0714 45.9495Z" fill="url(#paint6_linear_9181_147274)"/>
</g>
<defs>
<linearGradient id="paint0_linear_9181_147274" x1="44.0814" y1="108.757" x2="126.459" y2="85.1444" gradientUnits="userSpaceOnUse">
<stop stop-color="#05E0E0"/>
<stop offset="1" stop-color="#02E2E2"/>
</linearGradient>
<linearGradient id="paint1_linear_9181_147274" x1="-6.03901" y1="85.1803" x2="89.6745" y2="58.4736" gradientUnits="userSpaceOnUse">
<stop stop-color="#E7EEF8"/>
<stop offset="1" stop-color="#E1EDF4"/>
</linearGradient>
<linearGradient id="paint2_linear_9181_147274" x1="32.8117" y1="50.3037" x2="33.2228" y2="55.8121" gradientUnits="userSpaceOnUse">
<stop stop-color="#FFB74B"/>
<stop offset="1" stop-color="#FCCA80"/>
</linearGradient>
<linearGradient id="paint3_linear_9181_147274" x1="38.7562" y1="20.9858" x2="49.3897" y2="57.8649" gradientUnits="userSpaceOnUse">
<stop stop-color="#FFB74B"/>
<stop offset="1" stop-color="#FCCA80"/>
</linearGradient>
<linearGradient id="paint4_linear_9181_147274" x1="38.7562" y1="20.9858" x2="49.3897" y2="57.8649" gradientUnits="userSpaceOnUse">
<stop stop-color="#FFB74B"/>
<stop offset="1" stop-color="#FCCA80"/>
</linearGradient>
<linearGradient id="paint5_linear_9181_147274" x1="38.7562" y1="20.9858" x2="49.3897" y2="57.8649" gradientUnits="userSpaceOnUse">
<stop stop-color="#FFB74B"/>
<stop offset="1" stop-color="#FCCA80"/>
</linearGradient>
<linearGradient id="paint6_linear_9181_147274" x1="38.7562" y1="20.9858" x2="49.3897" y2="57.8649" gradientUnits="userSpaceOnUse">
<stop stop-color="#FFB74B"/>
<stop offset="1" stop-color="#FCCA80"/>
</linearGradient>
<clipPath id="clip0_9181_147274">
<rect width="31" height="31" fill="white" transform="translate(23.6523 25.5)"/>
</clipPath>
</defs>
</svg>
