<svg width="120" height="121" viewBox="0 0 120 121" fill="none" xmlns="http://www.w3.org/2000/svg">
<rect x="15.3555" y="55.0225" width="41.3793" height="46.3667" rx="10" transform="rotate(-10.0837 15.3555 55.0225)" fill="#06C6C6"/>
<path d="M36.1757 29.4788C36.7906 25.1035 40.8359 22.0551 45.2112 22.67L64.6068 25.3959L73.4851 26.6437L89.333 47.6746L87.3174 62.0164L83.8237 86.8756C83.2088 91.2509 79.1635 94.2993 74.7882 93.6844L35.997 88.2326C31.6217 87.6177 28.5733 83.5724 29.1882 79.1971L36.1757 29.4788Z" fill="url(#paint0_linear_9192_224138)"/>
<path opacity="0.3" d="M70.0703 26.1641L73.485 26.644L80.2406 38.0399L84.6429 43.8818L89.333 47.6749L88.8531 51.0897L78.8821 49.6883C72.3192 48.766 67.7466 42.698 68.669 36.135L70.0703 26.1641Z" fill="#E1E4EF"/>
<path d="M73.4844 26.6436L89.3324 47.6745L78.815 46.1964C74.4397 45.5815 71.3914 41.5362 72.0063 37.1609L73.4844 26.6436Z" fill="url(#paint1_linear_9192_224138)"/>
<rect x="44.4727" y="49.7275" width="32.4138" height="5.51724" rx="2.75862" transform="rotate(8 44.4727 49.7275)" fill="white"/>
<rect x="42.3633" y="64.752" width="20" height="5.51724" rx="2.75862" transform="rotate(8 42.3633 64.752)" fill="white"/>
<path d="M76.5522 67.147C76.5522 58.0061 83.9626 50.5948 93.1047 50.5948C97.1994 50.5948 100.947 52.0819 103.837 54.5467C107.398 57.5825 109.656 62.1007 109.656 67.147C109.656 76.2879 102.246 83.6982 93.1047 83.6982C90.8273 83.6982 88.6573 83.2383 86.6822 82.4061C80.7299 79.8984 76.5522 74.0106 76.5522 67.147Z" fill="url(#paint2_linear_9192_224138)"/>
<path d="M101.717 59.9216C101.611 59.8748 101.495 59.8595 101.381 59.8776C101.268 59.8958 101.162 59.9465 101.076 60.0236C101.057 60.0409 101.038 60.0575 101.019 60.0745C100.969 60.1191 100.911 60.1697 100.853 60.2271C100.493 60.5871 100.133 60.9473 99.7731 61.3076L99.6024 61.4787C99.3136 61.1957 99.0075 60.9309 98.6858 60.6859C97.6199 59.8772 96.389 59.3133 95.0806 59.0344C95.0598 59.03 95.0396 59.0258 95.0188 59.0219C94.598 58.9351 94.1537 58.8922 93.5809 58.8833L93.5631 58.8809C93.5466 58.8785 93.5303 58.8764 93.514 58.8747C93.4923 58.8723 93.4704 58.8711 93.4486 58.8711H93.056C93.0287 58.871 93.0013 58.8729 92.9743 58.8767L92.9332 58.883L92.9035 58.8872C92.8357 58.8934 92.7676 58.8988 92.6995 58.9038C92.5469 58.9157 92.3893 58.9276 92.2237 58.952C90.7055 59.1769 89.3527 59.7487 88.2024 60.6513L88.2 60.6534L88.181 60.6683L88.1197 60.7171L88.1141 60.7218L88.0579 60.7653L87.8565 60.9239C87.8345 60.9408 87.8137 60.9593 87.7944 60.9792L87.7646 61.0089C87.7581 61.0161 87.7516 61.0232 87.7444 61.0301C87.6945 61.0774 87.6433 61.1235 87.5925 61.1696C87.4795 61.2722 87.3626 61.3778 87.2481 61.4968C87.0902 61.6637 86.9391 61.8351 86.7958 62.0068C86.7862 62.0181 86.7767 62.0294 86.766 62.0416C86.1278 62.8091 85.6354 63.687 85.313 64.6319C85.2886 64.7021 85.2645 64.7759 85.2416 64.8506C85.2059 64.9639 85.172 65.082 85.1408 65.2001C85.1313 65.2352 85.1224 65.2703 85.1135 65.3057C85.0781 65.4488 85.0451 65.5946 85.0168 65.7353C85.0114 65.7615 85.0064 65.7871 85.0013 65.8127V65.8213C84.673 67.4906 84.8122 69.1019 85.4123 70.6075L85.4233 70.6355C85.7012 71.3564 86.0798 72.0343 86.5477 72.649C86.8293 73.0399 87.148 73.4026 87.4994 73.7322C87.6731 73.8934 87.8524 74.049 88.0347 74.1948C88.5531 74.6206 89.1215 74.9817 89.7271 75.2702L89.7304 75.272L89.7515 75.2818L89.7982 75.3039L89.8547 75.3297L89.8776 75.3402C90.3261 75.5451 90.7925 75.7086 91.2708 75.8287C92.0008 76.0144 92.7509 76.1098 93.5042 76.1125C94.6576 76.1132 95.7984 75.8723 96.8531 75.4053H96.8557L96.8614 75.4026C96.9247 75.3756 96.9916 75.3458 97.0657 75.3116C97.3666 75.1719 97.6588 75.0142 97.9406 74.8392C97.9926 74.8079 98.0465 74.7749 98.1 74.741C98.6633 74.3878 99.1812 73.967 99.6422 73.4879C100.223 72.882 100.713 72.1961 101.099 71.4512C101.179 71.2977 101.255 71.1388 101.325 70.9794C101.356 70.9078 101.373 70.8307 101.375 70.7525C101.376 70.6743 101.363 70.5965 101.334 70.5237C101.306 70.4508 101.263 70.3843 101.209 70.3278C101.155 70.2714 101.09 70.2262 101.019 70.1949L99.1852 69.3916C99.1134 69.3602 99.0362 69.3433 98.9579 69.3418C98.8797 69.3403 98.8019 69.3543 98.729 69.383C98.6562 69.4116 98.5897 69.4544 98.5334 69.5088C98.4771 69.5633 98.4321 69.6283 98.401 69.7001C98.187 70.1975 97.8941 70.6571 97.5338 71.0612C97.3128 71.2982 97.0754 71.5194 96.8233 71.7231L96.8209 71.7252C96.7163 71.8064 96.6062 71.8865 96.4938 71.9632C96.0581 72.2612 95.5839 72.4985 95.0842 72.6686C94.4701 72.8614 93.8069 72.9363 93.1131 72.8896C92.8212 72.8706 92.531 72.8308 92.2448 72.7706C92.0922 72.7346 91.9343 72.6903 91.7755 72.6391C91.0512 72.4089 90.3837 72.028 89.8169 71.5214C89.499 71.2231 89.2152 70.8904 88.9708 70.5293C88.5434 69.9082 88.251 69.2043 88.1123 68.4631C88.1123 68.4599 88.1108 68.4563 88.1102 68.453L88.1063 68.431C87.9427 67.4862 88.0325 66.5148 88.3666 65.616C88.5257 65.1841 88.7366 64.773 88.9946 64.3918L88.9973 64.3883L88.9991 64.3859C89.42 63.7852 89.959 63.2768 90.5833 62.8918C90.7551 62.7853 90.9322 62.6875 91.1138 62.5988L91.1218 62.5949C92.8039 61.7807 94.7604 61.908 96.3597 62.9364C96.7236 63.1691 97.0584 63.4444 97.3568 63.7567L96.0528 65.0591C95.9695 65.1423 95.9127 65.2483 95.8896 65.3637C95.8665 65.4792 95.8782 65.5989 95.9232 65.7077C95.9681 65.8165 96.0443 65.9095 96.1422 65.9749C96.24 66.0404 96.355 66.0754 96.4727 66.0754H101.475C101.632 66.0754 101.784 66.0127 101.895 65.9011C102.007 65.7895 102.07 65.6382 102.07 65.4804V60.4654C102.07 60.3503 102.036 60.2377 101.974 60.1412C101.911 60.0446 101.822 59.9684 101.717 59.9216Z" fill="white"/>
<defs>
<linearGradient id="paint0_linear_9192_224138" x1="15.4297" y1="94.441" x2="103.161" y2="87.5046" gradientUnits="userSpaceOnUse">
<stop stop-color="#E7EEF8"/>
<stop offset="1" stop-color="#E1EDF4"/>
</linearGradient>
<linearGradient id="paint1_linear_9192_224138" x1="69.1097" y1="45.8894" x2="93.831" y2="41.9495" gradientUnits="userSpaceOnUse">
<stop stop-color="#05E0E0"/>
<stop offset="1" stop-color="#02C8C8"/>
</linearGradient>
<linearGradient id="paint2_linear_9192_224138" x1="94.6589" y1="88.8401" x2="82.5471" y2="46.8331" gradientUnits="userSpaceOnUse">
<stop stop-color="#FFB74B"/>
<stop offset="1" stop-color="#FCCA80"/>
</linearGradient>
</defs>
</svg>
