<svg width="24" height="25" viewBox="0 0 24 25" fill="none" xmlns="http://www.w3.org/2000/svg">
<path d="M16.8604 8.96492C14.0469 8.97139 11.7681 11.2542 11.7681 14.0692C11.7681 16.8882 14.0534 19.1735 16.8724 19.1735C19.6915 19.1735 21.9767 16.8882 21.9767 14.0692C21.9767 13.0635 21.6859 12.1257 21.1837 11.3354V13.3137H19.216V10.7141H16.8604V8.96492Z" fill="#A2A6B4"/>
<path d="M12.5914 19.0428C11.8325 19.2179 11.0435 19.217 10.2849 19.0401C9.52629 18.8633 8.81825 18.5151 8.21498 18.0224C7.6117 17.5297 7.1292 16.9054 6.80442 16.1974C6.47965 15.4894 6.32121 14.7165 6.34125 13.9378C6.3613 13.1592 6.55928 12.3954 6.92005 11.7051C7.28081 11.0147 7.79479 10.4161 8.42261 9.95504C9.05044 9.49399 9.77545 9.18274 10.5421 9.04513C11.3088 8.90752 12.0968 8.9472 12.8458 9.16113L12.5934 10.0446C11.9793 9.86915 11.3331 9.83661 10.7044 9.94945C10.0758 10.0623 9.48126 10.3175 8.96644 10.6956C8.45163 11.0736 8.03017 11.5645 7.73434 12.1306C7.43851 12.6967 7.27616 13.323 7.25973 13.9615C7.24329 14.6 7.37321 15.2338 7.63952 15.8143C7.90584 16.3949 8.30149 16.9068 8.79618 17.3108C9.29086 17.7149 9.87146 18.0003 10.4935 18.1454C11.1155 18.2904 11.7625 18.2911 12.3849 18.1475L12.5914 19.0428Z" fill="#A2A6B4"/>
<path d="M7.52467 18.9719C6.76123 19.1931 5.95668 19.2329 5.17512 19.0882C4.39357 18.9435 3.6566 18.6183 3.02294 18.1385C2.38927 17.6587 1.87642 17.0375 1.52524 16.3244C1.17405 15.6114 0.994248 14.8262 1.00014 14.0314C1.00603 13.2366 1.19746 12.4541 1.55918 11.7463C1.92089 11.0386 2.4429 10.4251 3.08361 9.95468C3.72432 9.4843 4.46603 9.17005 5.24964 9.03696C6.03326 8.90388 6.83713 8.95563 7.59721 9.1881L7.32849 10.0667C6.70522 9.87607 6.04605 9.83364 5.40348 9.94277C4.76092 10.0519 4.15272 10.3096 3.62734 10.6953C3.10195 11.081 2.67391 11.5841 2.3773 12.1645C2.0807 12.7448 1.92372 13.3864 1.91889 14.0382C1.91406 14.6899 2.0615 15.3338 2.34947 15.9185C2.63744 16.5032 3.05798 17.0126 3.57758 17.406C4.09719 17.7995 4.7015 18.0662 5.34238 18.1848C5.98325 18.3035 6.64298 18.2708 7.26901 18.0894L7.52467 18.9719Z" fill="#A2A6B4"/>
<path d="M20.6326 9.24767V6.63818H19.7537V9.2485H17.3721V10.1566H19.7537V12.8021H20.6326V10.1566H23V9.24767H20.6326Z" fill="#A2A6B4"/>
</svg>
