<svg width="24" height="25" viewBox="0 0 24 25" fill="none" xmlns="http://www.w3.org/2000/svg">
<path d="M9.03459 12.4526C10.0929 12.4526 10.9508 11.5474 10.9508 10.4307C10.9508 9.31394 10.0929 8.40867 9.03459 8.40867C7.9763 8.40867 7.11838 9.31394 7.11838 10.4307C7.11838 11.5474 7.9763 12.4526 9.03459 12.4526Z" fill="#A2A6B4"/>
<path d="M21.2407 22.5V10.1171H20.2225V18.7714L14.5056 12.7418C14.4449 12.6776 14.3727 12.6267 14.2933 12.592C14.2139 12.5573 14.1287 12.5394 14.0428 12.5394C13.9568 12.5394 13.8717 12.5573 13.7923 12.592C13.7129 12.6267 13.6407 12.6776 13.5799 12.7418L8.83941 17.744L6.2928 15.0568C6.23202 14.9926 6.15986 14.9418 6.08045 14.907C6.00103 14.8723 5.91591 14.8544 5.82995 14.8544C5.74398 14.8544 5.65886 14.8723 5.57945 14.907C5.50003 14.9418 5.42787 14.9926 5.3671 15.0568L3.01827 17.5361V4.48876H14.6969V3.41427H2V22.5H21.2407Z" fill="#A2A6B4"/>
<path d="M19.2395 5.54274V2.5H18.2148V5.54371H15.4377V6.60257H18.2148V9.6873H19.2395V6.60257H22V5.54274H19.2395Z" fill="#A2A6B4"/>
</svg>
