<svg width="24" height="24" viewBox="0 0 24 24" fill="none" xmlns="http://www.w3.org/2000/svg">
<path d="M12.0008 18.002H4.00078L4.05078 6.00195H12.0508L12.0008 18.002ZM12.7208 4.00195H11.0508V2.00195H5.05078V4.00195H3.38078C3.02804 4.00195 2.68975 4.14208 2.44033 4.3915C2.19091 4.64092 2.05078 4.97922 2.05078 5.33195V20.672C2.05078 21.402 2.65078 22.002 3.38078 22.002H12.7208C13.4508 22.002 14.0508 21.402 14.0508 20.672V5.33195C14.0508 4.97922 13.9107 4.64092 13.6612 4.3915C13.4118 4.14208 13.0735 4.00195 12.7208 4.00195Z" fill="url(#paint0_linear_17256_6579)"/>
<path d="M20.0508 10.998H23.0508L18.0508 21.998V13.998H15.0508L20.0508 3.99805V10.998Z" fill="#2FB8B8"/>
<defs>
<linearGradient id="paint0_linear_17256_6579" x1="7.29427" y1="22.0898" x2="12.3688" y2="2.47615" gradientUnits="userSpaceOnUse">
<stop stop-color="#D0D4EC"/>
<stop offset="1" stop-color="#E5EBF6"/>
</linearGradient>
</defs>
</svg>
