<svg width="26" height="34" viewBox="0 0 26 34" fill="none" xmlns="http://www.w3.org/2000/svg">
<path d="M24.54 32.6975C25.7506 31.5546 25.8203 29.6097 24.6957 28.3533C23.5712 27.0969 21.6781 27.0048 20.4676 28.1476C19.257 29.2904 19.1873 31.2354 20.3118 32.4918C21.4364 33.7482 23.3294 33.8403 24.54 32.6975Z" fill="#FF8D07"/>
<path d="M25.5 20.755C25.5 21.0192 25.4895 21.2889 25.4737 21.5531C25.458 21.7742 25.4422 22.0007 25.416 22.2218C25.4002 22.3512 25.3845 22.4753 25.3687 22.5993C25.1114 23.7425 24.0245 24.4706 22.8955 24.2333C22.8535 24.2225 22.8062 24.2117 22.7642 24.2009L22.4912 24.1039C21.6458 23.7425 21.1102 22.8527 21.1837 21.909C21.1994 21.812 21.2099 21.7203 21.2152 21.6232C21.2152 21.6016 21.2257 21.5747 21.2257 21.5531C21.2519 21.2889 21.2624 21.0246 21.2624 20.755C21.2624 19.6387 21.0524 18.5763 20.6638 17.6056C20.3698 16.8507 19.9707 16.155 19.4771 15.5295C19.3721 15.3839 19.2566 15.2436 19.1358 15.1088C19.1043 15.0657 19.0675 15.0279 19.0308 14.9848C18.8312 14.7583 18.6212 14.548 18.4059 14.3538C15.5546 11.7707 11.3696 11.5065 8.29248 13.6798C7.98267 13.9009 7.68336 14.1435 7.39981 14.4132C5.751 15.9663 4.87408 18.064 4.78482 20.2049C4.77431 20.4584 4.77431 20.7172 4.78482 20.9707V20.9815C4.80057 21.3536 4.84258 21.7257 4.91084 22.0978C5.17864 23.6347 5.86652 25.1177 6.97973 26.3634C7.26329 26.6816 7.56784 26.9782 7.88815 27.237C7.94591 27.2855 8.00367 27.3287 8.06144 27.3772C8.1402 27.4419 8.22422 27.5066 8.30823 27.566C8.31348 27.5714 8.31874 27.5768 8.32399 27.5768C8.43951 27.663 8.55503 27.7493 8.6758 27.8194C9.94654 28.6661 11.4641 29.1514 13.0866 29.1514C13.4332 29.1514 13.7693 29.1299 14.1053 29.0867H14.1211C14.3206 29.0651 14.5202 29.0759 14.725 29.1191C15.8697 29.3617 16.6206 30.5104 16.4 31.686C16.232 32.5758 15.5546 33.2283 14.7407 33.3901C14.6567 33.4063 14.5674 33.4171 14.4782 33.4224C14.3521 33.4386 14.2261 33.4494 14.1001 33.4602C13.9321 33.4764 13.764 33.4872 13.596 33.4925C13.4227 33.4979 13.2547 33.5033 13.0866 33.5033C12.8976 33.5033 12.7033 33.4979 12.5143 33.4872C11.4536 33.4332 10.3981 33.2391 9.37418 32.9101C9.11164 32.8292 8.85959 32.7376 8.60754 32.6297C8.46576 32.5758 8.32399 32.5165 8.18746 32.4572C8.02993 32.387 7.87765 32.3169 7.72537 32.236C7.54684 32.1498 7.3683 32.0527 7.19502 31.961H7.18977C7.01124 31.8532 6.83795 31.7507 6.66992 31.6482C5.65123 31.0281 4.70605 30.2461 3.86064 29.3024C2.95222 28.2832 2.22758 27.1561 1.69198 25.9643C1.36642 25.2471 1.10912 24.5083 0.920081 23.7587C0.725794 22.9876 0.605023 22.2056 0.552513 21.4183C0.53676 21.1756 0.526255 20.9329 0.521004 20.6849V20.4314L0.5 7.13301C0.5 5.92505 1.45043 4.95436 2.62666 4.96515C3.80288 4.97593 4.75856 5.96819 4.76381 7.17616V10.9349L8.22947 2.33351C8.6758 1.21722 9.92029 0.699518 11.0125 1.17408C12.0995 1.64863 12.6193 2.9321 12.1677 4.04839L10.5557 8.06056C14.6619 7.26783 19.0833 8.62679 22.1446 12.0458C22.4124 12.3424 22.6592 12.6498 22.885 12.9625C23.0373 13.1621 23.1791 13.367 23.3208 13.5773C23.3786 13.6582 23.4311 13.7391 23.4784 13.82C23.5676 13.9548 23.6464 14.0842 23.7252 14.219C24.8489 16.1388 25.5 18.3714 25.5 20.755Z" fill="#FF8D07"/>
</svg>
