<svg width="28" height="28" viewBox="0 0 28 28" fill="none" xmlns="http://www.w3.org/2000/svg">
<path d="M26.3966 19.4913C26.3966 22.8347 23.6863 25.5451 20.3428 25.5451C16.9994 25.5451 14.2891 22.8347 14.2891 19.4913C14.2891 16.1479 16.9994 13.4375 20.3428 13.4375C23.6863 13.4375 26.3966 16.1479 26.3966 19.4913Z" fill="url(#paint0_linear_19549_26511)"/>
<path d="M26.3966 19.4913C26.3966 22.8347 23.6863 25.5451 20.3428 25.5451C16.9994 25.5451 14.2891 22.8347 14.2891 19.4913C14.2891 16.1479 16.9994 13.4375 20.3428 13.4375C23.6863 13.4375 26.3966 16.1479 26.3966 19.4913ZM15.0752 19.4913C15.0752 22.4005 17.4336 24.7589 20.3428 24.7589C23.2521 24.7589 25.6105 22.4005 25.6105 19.4913C25.6105 16.582 23.2521 14.2236 20.3428 14.2236C17.4336 14.2236 15.0752 16.582 15.0752 19.4913Z" fill="#EE5B09"/>
<path d="M22.3436 22.8261H19.7138L17.084 19.4128L19.5452 16.0156H22.1919L19.7138 19.4128L22.3436 22.8261Z" fill="url(#paint1_linear_19549_26511)"/>
<path d="M23.8945 18.2912H21.6018V20.5343H23.8945V18.2912Z" fill="white"/>
<mask id="path-3-inside-1_19549_26511" fill="white">
<path fill-rule="evenodd" clip-rule="evenodd" d="M10.5941 0.668945C13.4239 0.668945 16.0844 1.77094 18.0853 3.77188C20.0863 5.77283 21.1882 8.43332 21.1882 11.2631C21.1882 11.6782 21.1645 12.0896 21.1178 12.4959C20.8599 12.4674 20.598 12.4528 20.3327 12.4528C16.3894 12.4528 13.1927 15.6808 13.1927 19.6628C13.1927 20.2897 13.272 20.898 13.4209 21.478C12.5116 21.7281 11.5628 21.8572 10.5941 21.8572C7.76438 21.8572 5.10389 20.7552 3.10294 18.7543C1.10199 16.7533 0 14.0928 0 11.2631C0 8.43332 1.10199 5.77283 3.10294 3.77188C5.10389 1.77094 7.76438 0.668945 10.5941 0.668945Z"/>
</mask>
<path fill-rule="evenodd" clip-rule="evenodd" d="M10.5941 0.668945C13.4239 0.668945 16.0844 1.77094 18.0853 3.77188C20.0863 5.77283 21.1882 8.43332 21.1882 11.2631C21.1882 11.6782 21.1645 12.0896 21.1178 12.4959C20.8599 12.4674 20.598 12.4528 20.3327 12.4528C16.3894 12.4528 13.1927 15.6808 13.1927 19.6628C13.1927 20.2897 13.272 20.898 13.4209 21.478C12.5116 21.7281 11.5628 21.8572 10.5941 21.8572C7.76438 21.8572 5.10389 20.7552 3.10294 18.7543C1.10199 16.7533 0 14.0928 0 11.2631C0 8.43332 1.10199 5.77283 3.10294 3.77188C5.10389 1.77094 7.76438 0.668945 10.5941 0.668945Z" fill="url(#paint2_linear_19549_26511)"/>
<path d="M18.0853 3.77188L18.7096 3.14762L18.0853 3.77188ZM21.1178 12.4959L21.0208 13.3734L21.8943 13.4699L21.9948 12.5969L21.1178 12.4959ZM13.4209 21.478L13.655 22.3292L14.4919 22.099L14.276 21.2584L13.4209 21.478ZM3.10294 18.7543L2.47867 19.3785L3.10294 18.7543ZM3.10294 3.77188L2.47868 3.14762L3.10294 3.77188ZM18.7096 3.14762C16.5431 0.981106 13.658 -0.213898 10.5941 -0.213898V1.55179C13.1898 1.55179 15.6257 2.56077 17.4611 4.39615L18.7096 3.14762ZM22.0711 11.2631C22.0711 8.19918 20.8761 5.31413 18.7096 3.14762L17.4611 4.39615C19.2964 6.23152 20.3054 8.66746 20.3054 11.2631H22.0711ZM21.9948 12.5969C22.0455 12.157 22.0711 11.7118 22.0711 11.2631H20.3054C20.3054 11.6445 20.2836 12.0223 20.2407 12.3949L21.9948 12.5969ZM20.3327 13.3356C20.5656 13.3356 20.7951 13.3485 21.0208 13.3734L21.2147 11.6184C20.9247 11.5864 20.6304 11.57 20.3327 11.57V13.3356ZM14.0756 19.6628C14.0756 16.1603 16.8851 13.3356 20.3327 13.3356V11.57C15.8937 11.57 12.3099 15.2014 12.3099 19.6628H14.0756ZM14.276 21.2584C14.1453 20.7496 14.0756 20.2151 14.0756 19.6628H12.3099C12.3099 20.3644 12.3986 21.0464 12.5658 21.6976L14.276 21.2584ZM10.5941 22.74C11.6414 22.74 12.669 22.6004 13.655 22.3292L13.1868 20.6267C12.3542 20.8557 11.4841 20.9743 10.5941 20.9743V22.74ZM2.47867 19.3785C4.64519 21.5451 7.53025 22.74 10.5941 22.74V20.9743C7.99852 20.9743 5.56258 19.9654 3.72721 18.13L2.47867 19.3785ZM-0.882844 11.2631C-0.882844 14.327 0.312162 17.212 2.47867 19.3785L3.72721 18.13C1.89182 16.2946 0.882844 13.8587 0.882844 11.2631H-0.882844ZM2.47868 3.14762C0.31216 5.31413 -0.882844 8.19918 -0.882844 11.2631H0.882844C0.882844 8.66746 1.89182 6.23153 3.7272 4.39615L2.47868 3.14762ZM10.5941 -0.213898C7.53024 -0.213898 4.64519 0.981104 2.47868 3.14762L3.7272 4.39615C5.56258 2.56077 7.99852 1.55179 10.5941 1.55179V-0.213898Z" fill="#EE5B09" mask="url(#path-3-inside-1_19549_26511)"/>
<path d="M12.9505 6L9.47525 6L6 10.5107L9.25248 15L12.75 15L9.47525 10.5107L12.9505 6Z" fill="url(#paint3_linear_19549_26511)"/>
<path d="M15 11.9928L11.9703 11.9928L11.9703 9.02863L15 9.02863L15 11.9928Z" fill="white"/>
<defs>
<linearGradient id="paint0_linear_19549_26511" x1="16.1235" y1="14.1713" x2="24.929" y2="25.5451" gradientUnits="userSpaceOnUse">
<stop offset="0.0677083" stop-color="#FF8311"/>
<stop offset="1" stop-color="#FFBC11"/>
</linearGradient>
<linearGradient id="paint1_linear_19549_26511" x1="20.4892" y1="16.0156" x2="20.4892" y2="22.8261" gradientUnits="userSpaceOnUse">
<stop stop-color="white"/>
<stop offset="0.5" stop-color="white"/>
<stop offset="0.5001" stop-color="#FFF1E6"/>
<stop offset="1" stop-color="#FFF1E6"/>
</linearGradient>
<linearGradient id="paint2_linear_19549_26511" x1="3.53138" y1="4.20032" x2="17.6569" y2="20.252" gradientUnits="userSpaceOnUse">
<stop stop-color="#FF8311"/>
<stop offset="1" stop-color="#FFBC11"/>
</linearGradient>
<linearGradient id="paint3_linear_19549_26511" x1="10.5" y1="15" x2="10.5" y2="6" gradientUnits="userSpaceOnUse">
<stop stop-color="white"/>
<stop offset="0.5" stop-color="white"/>
<stop offset="0.5001" stop-color="#FFF1E6"/>
<stop offset="1" stop-color="#FFF1E6"/>
</linearGradient>
</defs>
</svg>
