<svg width="41" height="40" viewBox="0 0 41 40" fill="none" xmlns="http://www.w3.org/2000/svg">
<path d="M20.5019 7.41935C19.4051 7.41935 18.5664 6.58065 18.5664 5.48387V1.93548C18.5664 0.83871 19.4051 0 20.5019 0C21.5987 0 22.4374 0.83871 22.4374 1.93548V5.48387C22.4374 6.51613 21.5987 7.41935 20.5019 7.41935Z" fill="#FEF69F"/>
<path d="M20.5019 39.9994C19.4051 39.9994 18.5664 39.1607 18.5664 38.0639V34.5156C18.5664 33.4188 19.4051 32.5801 20.5019 32.5801C21.5987 32.5801 22.4374 33.4188 22.4374 34.5156V38.0639C22.4374 39.1607 21.5987 39.9994 20.5019 39.9994Z" fill="#FAAC2E"/>
<path d="M13.2086 9.35535C12.5635 9.35535 11.9183 9.03277 11.5312 8.38761L9.78929 5.35535C9.27316 4.45212 9.59574 3.22632 10.499 2.71019C11.4022 2.19406 12.628 2.51664 13.1441 3.41987L14.8861 6.45212C15.4022 7.35535 15.0796 8.58116 14.1764 9.09729C13.9183 9.22632 13.5312 9.35535 13.2086 9.35535Z" fill="#FFFEE8"/>
<path d="M29.5329 37.5487C28.8877 37.5487 28.2425 37.2261 27.8554 36.581L26.1135 33.5487C25.5974 32.6455 25.92 31.4197 26.8232 30.9035C27.7264 30.3874 28.9522 30.71 29.4683 31.6132L31.2103 34.6455C31.7264 35.5487 31.4038 36.7745 30.5006 37.2906C30.178 37.4842 29.8554 37.5487 29.5329 37.5487Z" fill="#FDC436"/>
<path d="M7.92084 14.6451C7.59826 14.6451 7.27568 14.5806 6.9531 14.387L3.92084 12.6451C3.01762 12.129 2.69504 10.9032 3.21117 9.99994C3.72729 9.09672 4.9531 8.77414 5.85633 9.29027L8.88858 11.0322C9.79181 11.5483 10.1144 12.7741 9.59826 13.6774C9.21116 14.3225 8.566 14.6451 7.92084 14.6451Z" fill="#FAFAFA"/>
<path d="M36.1768 30.9683C35.8542 30.9683 35.5316 30.9038 35.209 30.7103L32.1122 28.9683C31.209 28.4522 30.8864 27.2264 31.4026 26.3232C31.9187 25.42 33.1445 25.0974 34.0477 25.6135L37.08 27.3554C37.9832 27.8716 38.3058 29.0974 37.7897 30.0006C37.4671 30.6458 36.8219 30.9683 36.1768 30.9683Z" fill="#FFDC3F"/>
<path d="M5.98387 21.9354H2.43548C1.33871 21.9354 0.5 21.0967 0.5 19.9999C0.5 18.9032 1.33871 18.0645 2.43548 18.0645H5.98387C7.08065 18.0645 7.91935 18.9032 7.91935 19.9999C7.91935 21.0967 7.01613 21.9354 5.98387 21.9354Z" fill="white"/>
<path d="M38.5659 21.9354H35.0175C33.9207 21.9354 33.082 21.0967 33.082 19.9999C33.082 18.9032 33.9207 18.0645 35.0175 18.0645H38.5659C39.6627 18.0645 40.5014 18.9032 40.5014 19.9999C40.5014 21.0967 39.6627 21.9354 38.5659 21.9354Z" fill="#FFDC3F"/>
<path d="M4.82218 30.9683C4.17702 30.9683 3.53186 30.6458 3.14476 30.0006C2.62863 29.0974 2.95121 27.8716 3.85444 27.3554L6.88669 25.6135C7.78992 25.0974 9.01573 25.42 9.53186 26.3232C10.048 27.2264 9.7254 28.4522 8.82218 28.9683L5.78992 30.7103C5.53186 30.9038 5.20928 30.9683 4.82218 30.9683Z" fill="#F68420"/>
<path d="M33.08 14.6451C32.4348 14.6451 31.7897 14.3225 31.4026 13.6774C30.8864 12.7741 31.209 11.5483 32.1122 11.0322L35.1445 9.29027C36.0477 8.77414 37.2735 9.09672 37.7897 9.99994C38.3058 10.9032 37.9832 12.129 37.08 12.6451L34.0477 14.387C33.7252 14.5806 33.4026 14.6451 33.08 14.6451Z" fill="#FBEC5A"/>
<path d="M11.4667 37.5487C11.1441 37.5487 10.8215 37.4842 10.499 37.2906C9.59574 36.7745 9.27316 35.5487 9.78929 34.6455L11.5312 31.6132C12.0474 30.71 13.2732 30.3874 14.1764 30.9035C15.0796 31.4197 15.4022 32.6455 14.8861 33.5487L13.1441 36.581C12.757 37.2261 12.1119 37.5487 11.4667 37.5487Z" fill="#FAAC2E"/>
<path d="M27.7909 9.35535C27.4683 9.35535 27.1458 9.29083 26.8232 9.09729C25.92 8.58116 25.5974 7.35535 26.1135 6.45212L27.8554 3.41987C28.3716 2.51664 29.5974 2.19406 30.5006 2.71019C31.4038 3.22632 31.7264 4.45212 31.2103 5.35535L29.4683 8.38761C29.0813 8.96825 28.4361 9.35535 27.7909 9.35535Z" fill="#FFFAC6"/>
</svg>
