<svg width="624" height="464" viewBox="0 0 624 464" fill="none" xmlns="http://www.w3.org/2000/svg">
<path d="M545.999 378H76.999C79.799 224.8 187.166 243.833 240.499 272.5C236.332 221.5 261.099 119.5 393.499 119.5C525.899 119.5 550.332 291.833 545.999 378Z" fill="#FFFAC6"/>
<line x1="36.999" y1="380" x2="586.999" y2="380" stroke="#F9D7B9" stroke-width="4"/>
<path d="M139.696 319.755C136.071 317.166 126.06 325.451 117.344 337.965C114.065 342.711 111.303 347.371 109.491 351.6C107.592 347.458 104.917 342.711 101.637 337.965C92.8348 325.365 82.824 317.253 79.2857 319.755C75.6611 322.344 79.9761 334.513 88.6924 347.026C96.3731 357.9 104.831 365.408 109.404 365.667H109.491H109.663H109.836H109.922C114.496 365.495 122.954 357.9 130.634 347.026C139.092 334.513 143.32 322.258 139.696 319.755Z" fill="#FDC436"/>
<path d="M131.928 332.183L130.634 331.32L109.404 361.698L88.174 331.32L86.9658 332.183L108.541 362.992H110.353L131.928 332.183Z" fill="#FBF4D5"/>
<path d="M109.403 365.323C113.788 365.323 117.343 352.882 117.343 337.535C117.343 322.187 113.788 309.746 109.403 309.746C105.019 309.746 101.464 322.187 101.464 337.535C101.464 352.882 105.019 365.323 109.403 365.323Z" fill="white"/>
<path d="M118.207 351.084C118.897 346.941 119.242 342.281 119.242 337.448C119.242 329.854 118.379 322.691 116.912 317.34C115.1 311.127 112.683 307.934 109.577 307.934C106.47 307.934 103.967 311.127 102.241 317.34C100.688 322.691 99.911 329.94 99.911 337.448C99.911 342.281 100.256 346.855 100.947 351.084H91.1084L101.464 379.304H117.344L127.7 351.084H118.207ZM103.277 337.535C103.277 330.285 104.053 323.468 105.521 318.376C107.16 312.766 108.8 311.558 109.404 311.558C110.008 311.558 111.648 312.766 113.288 318.376C114.668 323.468 115.531 330.285 115.531 337.535C115.531 342.454 115.186 347.028 114.496 351.17H110.181V324.503H108.627V351.084H104.312C103.708 347.028 103.277 342.281 103.277 337.535Z" fill="#FAAC2E"/>
<g clip-path="url(#clip0_1169_743005)">
<path d="M414.728 183.164V125.735C414.728 68.9953 368.733 23 312.001 23C255.263 23 209.267 68.9953 209.267 125.735V183.164M246.313 183.164V125.735C246.313 89.509 275.783 60.0467 312 60.0467C348.218 60.0467 377.681 89.5097 377.681 125.735V183.164" fill="#D1D1D6"/>
<path d="M317.993 23.1787C316.01 23.0647 314.013 23 312.001 23C255.263 23 209.267 68.9953 209.267 125.735V183.164H221.252V125.735C221.252 71.0076 264.044 26.2826 317.993 23.1787Z" fill="#70707B"/>
<path d="M323.986 60.0469C321.966 60.0469 319.968 60.1435 317.993 60.3229C351.412 63.36 377.681 91.5298 377.681 125.735V183.164H389.666V125.735C389.667 89.5099 360.205 60.0469 323.986 60.0469Z" fill="#70707B"/>
<path d="M448.736 183.164H175.262V379H448.736V183.164Z" fill="#FAAC2E"/>
<path d="M199.231 183.164H175.262V379H199.231V183.164Z" fill="#F68420"/>
<path d="M341.417 262.699C341.417 246.452 328.245 233.281 311.999 233.281C295.752 233.281 282.581 246.452 282.581 262.699C282.581 273.889 288.83 283.619 298.028 288.592L293.294 324.803H330.704L325.97 288.592C335.169 283.619 341.417 273.89 341.417 262.699Z" fill="#3E3D4C"/>
<g clip-path="url(#clip1_1169_743005)">
<path d="M155.378 244.891L149.562 246.471L145.981 237.48L137.187 238.751L133.399 232.459L130.18 234.367L135.25 242.781L143.582 241.576L147.306 250.929L156.061 248.554L155.378 244.891Z" fill="#FDC436"/>
</g>
<path d="M185.999 77C188.208 77 189.999 75.2091 189.999 73C189.999 70.7909 188.208 69 185.999 69C183.79 69 181.999 70.7909 181.999 73C181.999 75.2091 183.79 77 185.999 77Z" fill="#FBF4D5"/>
<path d="M437.999 44C440.208 44 441.999 42.2091 441.999 40C441.999 37.7909 440.208 36 437.999 36C435.79 36 433.999 37.7909 433.999 40C433.999 42.2091 435.79 44 437.999 44Z" fill="#FBF4D5"/>
</g>
<path d="M534.999 91C537.208 91 538.999 89.2091 538.999 87C538.999 84.7909 537.208 83 534.999 83C532.79 83 530.999 84.7909 530.999 87C530.999 89.2091 532.79 91 534.999 91Z" fill="#FBF4D5"/>
<g clip-path="url(#clip2_1169_743005)">
<path d="M495.968 40.2402L496.842 46.2033L487.488 48.6839L487.699 57.5668L480.999 60.5758L482.508 64L491.468 59.972L491.268 51.5557L500.999 48.9756L499.687 40L495.968 40.2402Z" fill="#FDC436"/>
</g>
<path d="M509.343 185.688C518.921 185.688 526.687 177.922 526.687 168.344C526.687 158.765 518.921 151 509.343 151C499.764 151 491.999 158.765 491.999 168.344C491.999 177.922 499.764 185.688 509.343 185.688Z" fill="#FAAC2E"/>
<path d="M517.246 162.033L515.545 160.387L509.343 166.534L503.086 160.387L501.439 162.033L507.696 168.18L501.439 174.328L503.086 175.974L509.343 169.772L515.545 175.974L517.246 174.328L510.989 168.18L517.246 162.033Z" fill="#F9D7B9"/>
<path d="M129.999 85C115.499 87.3333 86.499 100 86.499 132C86.499 172 129.999 254 279.499 209.5C403.971 172.45 506.499 210.5 515.499 260C524.499 309.5 479.999 338.5 466.999 344.5" stroke="#FBEC5A" stroke-dasharray="2 2"/>
<path d="M518.792 378.782H420.999L432.971 368.07H506.946L518.792 378.782Z" fill="#FBA10D"/>
<path d="M506.945 368.07H432.97L455.024 267H484.765L506.945 368.07Z" fill="#F9D7B9"/>
<mask id="mask0_1169_743005" style="mask-type:luminance" maskUnits="userSpaceOnUse" x="432" y="267" width="75" height="102">
<path d="M506.942 368.07H432.967L455.021 267H484.762L506.942 368.07Z" fill="white"/>
</mask>
<g mask="url(#mask0_1169_743005)">
<path d="M516.27 332.406H423.644V349.293H516.27V332.406Z" fill="white"/>
<path d="M516.27 294.977H423.644V311.864H516.27V294.977Z" fill="white"/>
</g>
<path d="M77.999 89C80.7604 89 82.999 86.7614 82.999 84C82.999 81.2386 80.7604 79 77.999 79C75.2376 79 72.999 81.2386 72.999 84C72.999 86.7614 75.2376 89 77.999 89Z" fill="#FBF4D5"/>
<defs>
<clipPath id="clip0_1169_743005">
<rect width="356" height="356" fill="white" transform="translate(133.999 23)"/>
</clipPath>
<clipPath id="clip1_1169_743005">
<rect width="20" height="24" fill="white" transform="translate(153.827 230) rotate(83.1354)"/>
</clipPath>
<clipPath id="clip2_1169_743005">
<rect width="20" height="24" fill="white" transform="translate(480.999 40)"/>
</clipPath>
</defs>
</svg>
