<svg width="120" height="120" viewBox="0 0 120 120" fill="none" xmlns="http://www.w3.org/2000/svg">
<rect x="15.8828" y="40.6758" width="87.4745" height="57.078" rx="12" transform="rotate(-16 15.8828 40.6758)" fill="url(#paint0_linear_9034_60880)"/>
<rect opacity="0.5" x="19.0488" y="51.7148" width="87.4745" height="10.4699" transform="rotate(-16 19.0488 51.7148)" fill="white"/>
<circle opacity="0.7" cx="43.4475" cy="73.7017" r="8.61236" transform="rotate(-16 43.4475 73.7017)" fill="white"/>
<circle opacity="0.7" cx="53.8362" cy="70.7252" r="8.61236" transform="rotate(-16 53.8362 70.7252)" fill="white"/>
<rect x="5.51758" y="41.3867" width="89.6552" height="60.6897" rx="12" fill="url(#paint1_linear_9034_60880)"/>
<path d="M33.7936 71.7417C33.7936 62.5943 41.2467 55.1778 50.4412 55.1778C54.5595 55.1778 58.3287 56.6659 61.2356 59.1325C64.8172 62.1704 67.0879 66.6918 67.0879 71.7417C67.0879 80.8891 59.6348 88.3047 50.4412 88.3047C48.1508 88.3047 45.9683 87.8444 43.9819 87.0117C37.9954 84.5021 33.7936 78.6102 33.7936 71.7417Z" fill="white"/>
<path d="M51.9041 70.1959C51.9041 67.5254 51.9023 65.105 51.8986 64.2386C51.8955 63.3265 51.199 62.6351 50.3201 62.6401C49.5171 62.6458 48.7629 63.3247 48.7905 64.2475C48.8206 65.2706 48.7974 66.2955 48.7973 67.3198L48.7973 70.1972C46.1242 70.1973 43.7001 70.1992 42.8325 70.2018C41.9197 70.2055 41.2276 70.9014 41.2333 71.7797C41.2389 72.584 41.9172 73.3375 42.8399 73.3099C43.8636 73.2791 44.8886 73.3023 45.9123 73.3029L48.7959 73.3028C48.7959 76.0197 48.7958 78.7316 48.7977 79.2475C48.7977 79.398 48.8002 79.5547 48.8378 79.7001C49.0277 80.4254 49.7618 80.9464 50.4463 80.8561C51.3196 80.7401 51.8926 80.1282 51.8963 79.2656C51.8995 78.3987 51.9014 75.9758 51.9028 73.304C54.6172 73.3039 57.3247 73.3032 57.8393 73.3013C57.991 73.3001 58.1477 73.2988 58.2926 73.2606C59.0179 73.0706 59.5401 72.3378 59.4486 71.652C59.3333 70.7794 58.7208 70.207 57.8582 70.2033C56.9919 70.1995 54.5727 70.1977 51.9028 70.1972L51.9041 70.1959Z" fill="url(#paint2_linear_9034_60880)"/>
<path d="M77.2409 95.1831C77.2409 86.0357 84.6939 78.6192 93.8885 78.6192C98.0068 78.6192 101.776 80.1073 104.683 82.5739C108.264 85.6118 110.535 90.1333 110.535 95.1831C110.535 104.331 103.082 111.746 93.8885 111.746C91.5981 111.746 89.4156 111.286 87.4291 110.453C81.4427 107.944 77.2409 102.052 77.2409 95.1831Z" fill="url(#paint3_linear_9034_60880)"/>
<path d="M95.9966 95.1995C97.885 93.3112 99.5952 91.5984 100.205 90.9832C100.848 90.336 100.844 89.3546 100.219 88.7367C99.6475 88.1729 98.6341 88.1197 98.0011 88.7917C97.2989 89.5364 96.5578 90.2447 95.8335 90.969L93.7988 93.0036C91.9086 91.1135 90.1931 89.4007 89.5778 88.789C88.9298 88.1463 87.9483 88.149 87.3313 88.774C86.7665 89.3467 86.7133 90.3591 87.3854 90.992C88.131 91.6942 88.8393 92.4353 89.5628 93.1596L91.6019 95.1986C89.6807 97.1197 87.763 99.0372 87.3995 99.4034C87.2932 99.5098 87.1841 99.6224 87.1079 99.7518C86.7293 100.399 86.88 101.286 87.4279 101.707C88.1274 102.242 88.9652 102.215 89.5778 101.607C90.1931 100.996 91.9077 99.2846 93.7979 97.3963C95.7173 99.3156 97.6323 101.23 97.9976 101.592C98.1057 101.699 98.2174 101.809 98.3469 101.884C98.9941 102.262 99.8815 102.113 100.302 101.564C100.837 100.865 100.809 100.027 100.202 99.4149C99.5916 98.7997 97.8823 97.0878 95.9948 95.1995H95.9966Z" fill="white"/>
<defs>
<linearGradient id="paint0_linear_9034_60880" x1="-2.35512" y1="105.522" x2="120.142" y2="55.4933" gradientUnits="userSpaceOnUse">
<stop stop-color="#E7EEF8"/>
<stop offset="1" stop-color="#E1EDF4"/>
</linearGradient>
<linearGradient id="paint1_linear_9034_60880" x1="-2.44408" y1="105.488" x2="102.148" y2="58.086" gradientUnits="userSpaceOnUse">
<stop stop-color="#05E0E0"/>
<stop offset="1" stop-color="#02C8C8"/>
</linearGradient>
<linearGradient id="paint2_linear_9034_60880" x1="50.0252" y1="82.9215" x2="58.7149" y2="66.5404" gradientUnits="userSpaceOnUse">
<stop stop-color="#05E0E0"/>
<stop offset="1" stop-color="#02C8C8"/>
</linearGradient>
<linearGradient id="paint3_linear_9034_60880" x1="95.4516" y1="116.892" x2="83.3827" y2="74.8226" gradientUnits="userSpaceOnUse">
<stop stop-color="#FF4B4B"/>
<stop offset="1" stop-color="#FFB6B6"/>
</linearGradient>
</defs>
</svg>
