<svg width="120" height="120" viewBox="0 0 120 120" fill="none" xmlns="http://www.w3.org/2000/svg">
<g clip-path="url(#clip0_7962_861193)">
<path d="M3.03512 58.6094C2.28438 55.6585 3.61171 52.7738 5.99981 52.1663L38.7903 43.8239C41.1784 43.2164 43.723 45.116 44.4737 48.0669L52.0633 77.8989C52.8141 80.8498 51.4867 83.7345 49.0986 84.342L16.3081 92.6844C13.92 93.2919 11.3755 91.3923 10.6248 88.4414L3.03512 58.6094Z" fill="#06C6C6"/>
<path d="M20 37.2414C20 32.6708 23.7052 28.9656 28.2759 28.9656L91.0345 28.9656C95.6051 28.9656 99.3103 32.6708 99.3103 37.2414L99.3103 83.4483C99.3103 88.019 95.6051 91.7242 91.0345 91.7242L28.2759 91.7242C23.7052 91.7242 20 88.019 20 83.4483L20 37.2414Z" fill="url(#paint0_linear_7962_861193)"/>
<path fill-rule="evenodd" clip-rule="evenodd" d="M91.0345 33.1035L28.2759 33.1035C25.9905 33.1035 24.1379 34.9561 24.1379 37.2414L24.1379 83.4483C24.1379 85.7336 25.9905 87.5863 28.2759 87.5863L91.0345 87.5863C93.3198 87.5863 95.1724 85.7336 95.1724 83.4483L95.1724 37.2414C95.1724 34.9561 93.3198 33.1035 91.0345 33.1035ZM28.2759 28.9656C23.7052 28.9656 20 32.6708 20 37.2414L20 83.4483C20 88.019 23.7052 91.7242 28.2759 91.7242L91.0345 91.7242C95.6051 91.7242 99.3103 88.019 99.3103 83.4483L99.3103 37.2414C99.3103 32.6708 95.6051 28.9656 91.0345 28.9656L28.2759 28.9656Z" fill="#E1EDF8"/>
<path opacity="0.7" d="M66.275 58.749C61.7174 58.7797 58.0638 62.4904 58.0909 67.0378C58.1217 71.6055 61.8391 75.2456 66.3662 75.2253C70.9475 75.2047 74.6077 71.46 74.567 66.9195C74.5333 62.406 70.8528 58.7216 66.275 58.749ZM70.905 67.5557C70.7505 67.7127 70.538 67.8093 70.301 67.8112L67.1927 67.8367L67.2182 70.945C67.2221 71.419 66.8426 71.8048 66.3686 71.8087C65.8946 71.8126 65.5088 71.4331 65.5049 70.9591L65.4794 67.8508L62.3711 67.8763C61.8971 67.8802 61.5114 67.5007 61.5075 67.0267C61.5036 66.5527 61.8831 66.1669 62.3571 66.163L65.4654 66.1375L65.4398 63.0292C65.436 62.5552 65.8154 62.1695 66.2895 62.1656C66.5265 62.1636 66.7406 62.2567 66.8976 62.4111C67.0546 62.5656 67.1512 62.7782 67.1531 63.0152L67.1786 66.1235L70.2869 66.0979C70.761 66.094 71.1467 66.4735 71.1506 66.9475C71.1525 67.1846 71.0595 67.3986 70.905 67.5557Z" fill="#05A7A7"/>
<path opacity="0.7" d="M54.5715 57.8022C54.1177 57.7958 53.6605 57.7927 53.2067 57.7829C52.9086 57.7752 52.6105 57.7573 52.3158 57.7428C52.1091 57.731 51.9025 57.7191 51.6958 57.7039C51.4756 57.6854 51.2519 57.6635 51.0316 57.6416C50.8113 57.6197 50.5876 57.5945 50.3673 57.5658C50.0825 57.5241 49.7977 57.4791 49.5129 57.4306C49.1467 57.3693 48.7803 57.2876 48.4206 57.1924C48.0167 57.084 47.6229 56.9585 47.2389 56.7856C47.0383 56.6958 46.8445 56.5958 46.6606 56.472C46.5347 56.3884 46.4188 56.2946 46.3129 56.1871C46.2275 56.0997 46.1556 56.0021 46.1005 55.8908C45.9937 55.6682 45.9919 55.4447 46.095 55.2204C46.1483 55.1048 46.222 55.006 46.3092 54.9139C46.4301 54.7842 46.568 54.6781 46.7162 54.5821C46.979 54.4106 47.2623 54.2763 47.5559 54.1621C47.9846 53.9927 48.4271 53.8637 48.8732 53.7551C49.2889 53.6535 49.7115 53.5721 50.1342 53.5043C50.3912 53.465 50.6483 53.429 50.9053 53.3964C51.1861 53.3603 51.4669 53.3309 51.7477 53.3015C51.9609 53.2794 52.1741 53.2641 52.3839 53.2522C52.7122 53.2326 53.0405 53.213 53.3688 53.1967C53.6395 53.1742 53.9036 53.1686 54.1677 53.1665C54.6282 53.1627 55.0887 53.1589 55.5493 53.1653C55.9082 53.1691 56.2707 53.1898 56.6298 53.2038C56.8533 53.2121 57.0735 53.2273 57.2971 53.2424C57.5242 53.2608 57.7546 53.2826 57.9817 53.3045C58.2155 53.3296 58.4493 53.3514 58.6832 53.3834C59.0222 53.4314 59.3579 53.4828 59.6936 53.5444C60.1074 53.6189 60.5145 53.7137 60.9184 53.8323C61.3053 53.9443 61.6891 54.0799 62.0495 54.2598C62.2297 54.3498 62.4032 54.4499 62.5634 54.5705C62.6928 54.6677 62.8156 54.7784 62.9116 54.9131C62.9972 55.0275 63.0557 55.1523 63.0806 55.2977C63.1055 55.4431 63.0829 55.5787 63.0299 55.7112C62.9801 55.8369 62.8997 55.9459 62.8091 56.0449C62.7219 56.1404 62.6243 56.2225 62.52 56.2978C62.2844 56.4691 62.0315 56.6032 61.7649 56.7171C61.3837 56.8862 60.9852 57.0147 60.5831 57.123C60.1337 57.2452 59.6774 57.3404 59.2142 57.4221C58.8794 57.479 58.5446 57.5292 58.2097 57.5725C57.9289 57.6087 57.6481 57.6347 57.3673 57.6607C57.0492 57.6904 56.7311 57.7134 56.4096 57.7363C56.2506 57.7478 56.0915 57.7559 55.929 57.7606C55.4753 57.7745 55.0217 57.7883 54.5647 57.8022L54.5715 57.8022Z" fill="#05A7A7"/>
<path opacity="0.7" d="M46.0518 56.4702C46.0622 56.5006 46.0726 56.5276 46.083 56.558C46.1417 56.6964 46.2273 56.8142 46.3298 56.9217C46.4391 57.0326 46.5584 57.1264 46.6877 57.21C46.926 57.3672 47.1844 57.4903 47.4494 57.5965C47.8469 57.7558 48.2542 57.8777 48.6682 57.9793C49.1059 58.0875 49.5501 58.1719 49.9976 58.2359C50.2858 58.2776 50.5739 58.3158 50.8654 58.3507C51.0688 58.3761 51.2721 58.3914 51.472 58.41C51.6516 58.4255 51.8346 58.4409 52.0142 58.453C52.109 58.459 52.2005 58.4684 52.2954 58.471C52.5935 58.4855 52.8916 58.5 53.1896 58.5077C53.6367 58.5176 54.0871 58.5274 54.5341 58.5237C54.9675 58.5202 55.4008 58.5031 55.8307 58.4894C56.0372 58.4843 56.2437 58.4725 56.4501 58.4572C56.6159 58.4491 56.7817 58.4342 56.9476 58.4227C57.1405 58.4075 57.3367 58.3924 57.5296 58.3739C57.6886 58.359 57.8476 58.3408 58.0066 58.3225C58.1791 58.3008 58.3483 58.2825 58.5208 58.2574C58.7542 58.225 58.9875 58.1892 59.2174 58.1501C59.5589 58.0897 59.9004 58.0226 60.2383 57.9385C60.752 57.8124 61.2553 57.666 61.7412 57.4555C61.9571 57.3623 62.1662 57.259 62.365 57.1321C62.5132 57.0361 62.6546 56.9333 62.7788 56.807C62.9165 56.6704 63.0236 56.5138 63.0762 56.3237C63.0762 56.317 63.0863 56.3101 63.0929 56.2999C63.1038 56.3844 63.118 58.118 63.1087 58.2129C62.8081 58.317 62.5043 58.4278 62.2108 58.5623C61.9207 58.6934 61.634 58.8379 61.3577 58.9993C61.078 59.1608 60.8085 59.3391 60.546 59.5275C60.2868 59.7158 60.0379 59.9177 59.7992 60.133C59.5572 60.3483 59.3288 60.577 59.114 60.8158C58.8993 61.0512 58.6981 61.3001 58.5039 61.559C58.355 61.5805 58.2062 61.6021 58.0574 61.6202C57.8443 61.6457 57.6278 61.6712 57.4112 61.6933C57.2319 61.7117 57.056 61.7267 56.8766 61.7417C56.5923 61.7609 56.3081 61.7836 56.0238 61.7995C55.7361 61.8154 55.4484 61.8279 55.1606 61.8303C54.7814 61.8368 54.4021 61.8399 54.0229 61.8396C53.7147 61.8387 53.4099 61.8277 53.1017 61.8167C52.8375 61.8087 52.5766 61.7939 52.3124 61.7791C52.126 61.7671 51.9363 61.7518 51.7499 61.7364C51.6144 61.7239 51.4822 61.7115 51.3467 61.699C51.1704 61.6802 50.9908 61.6613 50.8146 61.6391C50.584 61.6071 50.3535 61.5751 50.1263 61.5364C49.36 61.4106 48.6069 61.2441 47.8767 60.9724C47.5948 60.8697 47.3195 60.7467 47.0542 60.5999C46.8637 60.4931 46.6866 60.3727 46.5229 60.2318C46.4206 60.1412 46.3283 60.0438 46.2495 59.9327C46.1228 59.7509 46.0568 59.5482 46.0549 59.3214C46.0474 58.4038 46.0398 57.4828 46.0323 56.5652C46.032 56.5347 46.0318 56.5043 46.0315 56.4738C46.0383 56.4737 46.0417 56.4737 46.0485 56.4737L46.0518 56.4702Z" fill="#05A7A7"/>
<path opacity="0.7" d="M58.1074 71.7478C58.2136 71.9027 58.313 72.0543 58.4192 72.2024C58.5254 72.3505 58.635 72.4952 58.7479 72.6365C58.8608 72.7778 58.9804 72.9157 59.1034 73.0501C59.2265 73.1879 59.3562 73.3223 59.486 73.4499C59.6157 73.5775 59.7488 73.7017 59.8852 73.8225C60.0216 73.9433 60.1614 74.0573 60.3046 74.1712C60.4477 74.2818 60.5942 74.389 60.7475 74.5028C60.7272 74.5131 60.7172 74.5234 60.7037 74.5269C60.3692 74.6244 60.0347 74.7118 59.6933 74.779C59.3856 74.8391 59.078 74.8992 58.7702 74.9491C58.5065 74.9919 58.2426 75.0245 57.9788 75.0572C57.7589 75.0861 57.5356 75.1082 57.3157 75.1303C57.1194 75.1489 56.9232 75.1674 56.7235 75.1792C56.3512 75.2026 55.9789 75.2226 55.6065 75.2358C55.2816 75.2486 54.9532 75.2547 54.6281 75.254C54.2319 75.2572 53.8391 75.2503 53.4428 75.24C53.1448 75.2323 52.8466 75.2144 52.5519 75.1999C52.3588 75.188 52.1623 75.176 51.9692 75.1607C51.7557 75.1421 51.5456 75.1201 51.3321 75.0982C51.1762 75.0825 51.0203 75.0635 50.8643 75.0411C50.6101 75.0059 50.3558 74.9708 50.1015 74.9288C49.7048 74.861 49.3147 74.7795 48.9244 74.6778C48.4494 74.553 47.9809 74.4045 47.5322 74.2016C47.3113 74.1018 47.1004 73.9884 46.8995 73.8512C46.7735 73.7642 46.6508 73.6704 46.5416 73.5596C46.4562 73.4756 46.381 73.3848 46.3192 73.2803C46.2197 73.122 46.1674 72.9464 46.1659 72.7534C46.162 72.2861 46.1582 71.8188 46.1544 71.3516C46.1506 70.8979 46.1469 70.4408 46.1432 69.9871C46.1429 69.9532 46.1358 69.9194 46.1491 69.8854C46.1728 69.892 46.1696 69.909 46.1731 69.9225C46.2181 70.0474 46.2868 70.1586 46.3723 70.2595C46.4577 70.3603 46.5567 70.4476 46.6623 70.528C46.8497 70.6687 47.0572 70.7821 47.268 70.8853C47.6249 71.0517 47.995 71.1807 48.3717 71.286C48.8333 71.4176 49.3015 71.5188 49.7728 71.5962C50.0745 71.6445 50.3797 71.6928 50.6848 71.7309C50.9898 71.769 51.2948 71.797 51.5998 71.825C51.8743 71.8498 52.1487 71.8713 52.4265 71.8859C52.7416 71.9036 53.06 71.918 53.3749 71.9221C53.8186 71.932 54.2656 71.9385 54.7092 71.9383C55.0647 71.9354 55.4168 71.9257 55.7723 71.9126C56.0634 71.9035 56.3545 71.8875 56.6455 71.8682C56.9501 71.8488 57.2512 71.8192 57.5558 71.793C57.7182 71.7781 57.8806 71.7599 58.043 71.745C58.0599 71.7449 58.0802 71.7447 58.1039 71.7445L58.1074 71.7478Z" fill="#05A7A7"/>
<path opacity="0.7" d="M46.0828 60.7941C46.0828 60.7941 46.0931 60.8076 46.0932 60.8178C46.1521 60.9866 46.2515 61.128 46.3778 61.2556C46.4837 61.3631 46.6029 61.4536 46.7289 61.5372C46.9842 61.7044 47.2596 61.8308 47.5449 61.9436C47.9763 62.1127 48.4243 62.2377 48.8756 62.3424C49.2895 62.4372 49.71 62.515 50.1304 62.5759C50.4592 62.624 50.788 62.6653 51.1201 62.6998C51.4218 62.7312 51.7267 62.7524 52.0283 62.777C52.4925 62.8139 52.9599 62.8303 53.4273 62.8434C54.0843 62.8617 54.7378 62.853 55.3946 62.8374C55.6722 62.8318 55.9531 62.8159 56.2307 62.8001C56.3999 62.7919 56.5691 62.7838 56.7384 62.7722C56.9583 62.7569 57.1749 62.7382 57.3948 62.7194C57.5031 62.7118 57.6148 62.7007 57.7231 62.6897C57.74 62.6895 57.7603 62.6893 57.7806 62.6892C57.7843 62.7298 57.7609 62.7571 57.7442 62.7877C57.5708 63.1176 57.4212 63.4608 57.2887 63.8106C57.07 64.3915 56.9157 64.9853 56.8225 65.599C56.7967 65.7583 56.7811 65.9142 56.7587 66.0803C56.7385 66.0839 56.7182 66.0942 56.6979 66.0944C56.5558 66.1057 56.4103 66.1204 56.2647 66.125C55.8348 66.1421 55.405 66.1626 54.9784 66.1728C54.4604 66.1872 53.9423 66.1813 53.4275 66.1652C53.082 66.1545 52.7365 66.1404 52.3943 66.1196C52.0826 66.0984 51.7709 66.0739 51.4591 66.0392C51.1541 66.0078 50.849 65.9731 50.5439 65.9282C49.7235 65.813 48.9128 65.647 48.1285 65.3825C47.7821 65.2669 47.4458 65.1308 47.126 64.9539C46.956 64.8605 46.7926 64.7569 46.6392 64.6329C46.5199 64.5356 46.4072 64.4282 46.3148 64.3071C46.219 64.1792 46.1399 64.0376 46.1081 63.8787C46.094 63.801 46.0865 63.7231 46.0859 63.6453C46.0806 63.0019 46.0753 62.3586 46.0701 61.7153C46.0678 61.441 46.0656 61.1701 46.0633 60.8959L46.0626 60.8045C46.0626 60.8045 46.0727 60.8044 46.0795 60.8043L46.0828 60.7941Z" fill="#05A7A7"/>
<path opacity="0.7" d="M56.7175 67.3199C56.7415 67.357 56.735 67.3909 56.7387 67.4247C56.7572 67.6244 56.7656 67.8241 56.791 68.0237C56.831 68.3653 56.8948 68.7068 56.9754 69.0414C57.0946 69.5348 57.2543 70.0177 57.4546 70.4833C57.4615 70.5036 57.4718 70.5238 57.4788 70.5441C57.4788 70.5441 57.4788 70.5509 57.4789 70.561C57.4484 70.5646 57.4146 70.5717 57.3842 70.5753C57.3538 70.579 57.3233 70.5826 57.2895 70.5863C57.056 70.6051 56.8225 70.624 56.5856 70.6428C56.4435 70.6542 56.3047 70.6621 56.1626 70.67C55.7699 70.6834 55.3806 70.7001 54.9879 70.7067C54.568 70.7102 54.1482 70.7136 53.7282 70.7069C53.3828 70.703 53.0406 70.6821 52.6951 70.668C52.4817 70.6596 52.2683 70.6444 52.0582 70.6292C51.838 70.6107 51.6143 70.5888 51.394 70.5669C51.1737 70.545 50.95 70.5198 50.7297 70.4877C50.4008 70.4396 50.0719 70.3882 49.7464 70.3265C49.2987 70.2421 48.8576 70.1374 48.4231 70.0021C48.0497 69.8867 47.6829 69.7509 47.3293 69.5777C47.1253 69.4744 46.9279 69.3609 46.7439 69.2202C46.6076 69.1163 46.478 68.9989 46.3719 68.8609C46.2692 68.7297 46.1868 68.5848 46.1549 68.4191C46.1407 68.3413 46.1333 68.2635 46.1327 68.1856C46.1272 67.5152 46.1217 66.8448 46.1162 66.171C46.1142 65.9272 46.1122 65.6834 46.1101 65.4363C46.1099 65.4058 46.1096 65.3753 46.1094 65.3448C46.1331 65.3447 46.1332 65.3548 46.1367 65.3683C46.1956 65.5372 46.2984 65.6785 46.4247 65.8028C46.5647 65.9438 46.7281 66.0576 46.8983 66.1578C47.1705 66.3181 47.4559 66.4411 47.7514 66.547C48.1725 66.6993 48.6069 66.8143 49.0445 66.9122C49.4312 66.9971 49.8178 67.065 50.2077 67.1228C50.4585 67.158 50.7094 67.1898 50.9636 67.2182C51.1669 67.2402 51.3669 67.2623 51.5702 67.2809C51.7498 67.2964 51.9328 67.3084 52.1157 67.3205C52.2512 67.3295 52.3834 67.3386 52.5189 67.3476C52.651 67.3567 52.7831 67.3624 52.9118 67.3681C53.0643 67.3736 53.2201 67.3791 53.3725 67.3846C53.9855 67.3999 54.5951 67.4051 55.2078 67.3865C55.6039 67.3765 55.9965 67.3563 56.3926 67.3395C56.4806 67.3388 56.5686 67.3279 56.6566 67.3238C56.6769 67.3237 56.7006 67.3235 56.7175 67.3233L56.7175 67.3199Z" fill="#05A7A7"/>
<path d="M20 36.9656C20 32.5473 23.5817 28.9656 28 28.9656L91.3103 28.9656C95.7286 28.9656 99.3103 32.5473 99.3103 36.9656L99.3103 42.069L20 42.069L20 36.9656Z" fill="url(#paint1_linear_7962_861193)"/>
<rect opacity="0.5" x="26.207" y="33.1035" width="39.3103" height="4.82759" rx="2.41379" fill="white"/>
</g>
<path d="M79.9987 82.564C79.9987 73.4165 87.4518 66 96.6463 66C100.765 66 104.534 67.4882 107.441 69.9548C111.022 72.9927 113.293 77.5141 113.293 82.564C113.293 91.7114 105.84 99.127 96.6463 99.127C94.3559 99.127 92.1734 98.6667 90.187 97.8339C84.2005 95.3244 79.9987 89.4325 79.9987 82.564Z" fill="url(#paint2_linear_7962_861193)"/>
<path d="M98.7583 82.5774C100.647 80.6891 102.357 78.9763 102.967 78.3611C103.61 77.7139 103.606 76.7326 102.981 76.1147C102.409 75.5508 101.396 75.4976 100.763 76.1696C100.061 76.9143 99.3195 77.6226 98.5952 78.3469L96.5605 80.3815C94.6703 78.4914 92.9548 76.7787 92.3396 76.167C91.6915 75.5242 90.71 75.5269 90.093 76.1519C89.5282 76.7246 89.4751 77.737 90.1471 78.37C90.8927 79.0721 91.601 79.8132 92.3245 80.5375L94.3636 82.5765C92.4424 84.4976 90.5248 86.4152 90.1613 86.7813C90.0549 86.8877 89.9458 87.0003 89.8696 87.1297C89.491 87.7769 89.6417 88.6643 90.1896 89.0845C90.8891 89.62 91.7269 89.5925 92.3396 88.9852C92.9548 88.3744 94.6694 86.6625 96.5596 84.7742C98.479 86.6935 100.394 88.6076 100.759 88.9701C100.867 89.0765 100.979 89.1864 101.109 89.2618C101.756 89.6403 102.643 89.4914 103.063 88.9418C103.599 88.2432 103.571 87.4054 102.963 86.7928C102.353 86.1776 100.644 84.4657 98.7565 82.5774H98.7583Z" fill="white"/>
<defs>
<linearGradient id="paint0_linear_7962_861193" x1="20" y1="37.9311" x2="74.3367" y2="110.439" gradientUnits="userSpaceOnUse">
<stop stop-color="white"/>
<stop offset="1" stop-color="#E2F1FA"/>
</linearGradient>
<linearGradient id="paint1_linear_7962_861193" x1="12.957" y1="42.8056" x2="38.0311" y2="-3.75353" gradientUnits="userSpaceOnUse">
<stop stop-color="#05E0E0"/>
<stop offset="1" stop-color="#02C8C8"/>
</linearGradient>
<linearGradient id="paint2_linear_7962_861193" x1="98.2095" y1="104.272" x2="86.1405" y2="62.2035" gradientUnits="userSpaceOnUse">
<stop stop-color="#FF4B4B"/>
<stop offset="1" stop-color="#FFB6B6"/>
</linearGradient>
<clipPath id="clip0_7962_861193">
<rect width="120" height="120" fill="white"/>
</clipPath>
</defs>
</svg>
