<svg width="156" height="156" viewBox="0 0 156 156" fill="none" xmlns="http://www.w3.org/2000/svg">
<path d="M75 60C71.4157 60 68.5 62.9157 68.5 66.5C68.5 70.0843 71.4157 73 75 73C78.5843 73 81.5 70.0843 81.5 66.5C81.5 62.9157 78.5843 60 75 60ZM75 76.7143C67.8129 76.7143 62 79.63 62 83.2143V86H88V83.2143C88 79.63 82.1871 76.7143 75 76.7143Z" fill="white"/>
<path d="M58.8158 49.898L54.1379 54.851H37.734C35.8098 54.851 34.25 56.4109 34.25 58.335V106.24C34.25 108.164 35.8098 109.724 37.734 109.724H79.7945C79.6282 108.556 79.5421 107.361 79.5421 106.147C79.5421 92.2481 90.8091 80.9811 104.708 80.9811C105.031 80.9811 105.352 80.9872 105.672 80.9992V58.335C105.672 56.4109 104.112 54.851 102.188 54.851H86.0746L81.1037 49.8801C80.9404 49.7168 80.7188 49.625 80.4878 49.625H59.449C59.2094 49.625 58.9803 49.7237 58.8158 49.898Z" fill="#D9E5F8"/>
<path d="M84.0562 102.443H90.0423C91.6101 94.5148 99.1356 89.4241 106.861 91.0332C109.027 91.4721 110.937 92.4668 112.562 93.6663L108.457 97.9086C107.174 97.0894 105.663 96.592 104.01 96.592C100.418 96.592 97.1687 98.9326 95.9715 102.443H101.159L92.6078 111.221L84.0562 102.443ZM118.006 108.295C116.438 116.223 108.913 121.314 101.159 119.705C99.0216 119.237 97.1117 118.271 95.4584 117.072L99.5632 112.83C100.874 113.649 102.385 114.146 104.01 114.146C107.63 114.146 110.88 111.806 112.077 108.295H106.861L115.412 99.5177L123.964 108.295H118.006Z" fill="#59CACA"/>
<path d="M69.9627 67.9161C66.8408 67.9161 64.3012 70.4557 64.3012 73.5776C64.3012 76.6995 66.8408 79.2391 69.9627 79.2391C73.0846 79.2391 75.6242 76.6995 75.6242 73.5776C75.6242 70.4557 73.0846 67.9161 69.9627 67.9161ZM69.9627 82.4743C63.7027 82.4743 58.6396 85.0139 58.6396 88.1358V90.5621H81.2857V88.1358C81.2857 85.0139 76.2227 82.4743 69.9627 82.4743Z" fill="white"/>
</svg>
