<svg width="380" height="72" viewBox="0 0 380 72" fill="none" xmlns="http://www.w3.org/2000/svg">
<rect width="380" height="72" rx="4" fill="white"/>
<path d="M0 4C0 1.79086 1.79086 0 4 0H11.9612V72H4C1.79087 72 0 70.2091 0 68V4Z" fill="#1570EF"/>
<path d="M35.8857 22.6667C28.5628 22.6667 22.5955 28.6533 22.5955 36C22.5955 43.3467 28.5628 49.3333 35.8857 49.3333C43.2086 49.3333 49.1759 43.3467 49.1759 36C49.1759 28.6533 43.2086 22.6667 35.8857 22.6667ZM42.2384 32.9333L34.7029 40.4933C34.5168 40.68 34.2643 40.7867 33.9985 40.7867C33.7327 40.7867 33.4802 40.68 33.2941 40.4933L29.533 36.72C29.1476 36.3333 29.1476 35.6933 29.533 35.3067C29.9184 34.92 30.5564 34.92 30.9418 35.3067L33.9985 38.3733L40.8297 31.52C41.2151 31.1333 41.853 31.1333 42.2384 31.52C42.6238 31.9067 42.6238 32.5333 42.2384 32.9333Z" fill="#1570EF"/>
</svg>
