<svg width="380" height="72" viewBox="0 0 380 72" fill="none" xmlns="http://www.w3.org/2000/svg">
<rect width="380" height="72" rx="4" fill="white"/>
<path d="M0 4C0 1.79086 1.79086 0 4 0H11.9612V72H4C1.79087 72 0 70.2091 0 68V4Z" fill="#FFD800"/>
<path d="M35.8857 22.6667C28.5628 22.6667 22.5955 28.6533 22.5955 36C22.5955 43.3467 28.5628 49.3333 35.8857 49.3333C43.2086 49.3333 49.1759 43.3467 49.1759 36C49.1759 28.6533 43.2086 22.6667 35.8857 22.6667ZM34.889 30.6667C34.889 30.12 35.3408 29.6667 35.8857 29.6667C36.4306 29.6667 36.8825 30.12 36.8825 30.6667V37.3333C36.8825 37.88 36.4306 38.3333 35.8857 38.3333C35.3408 38.3333 34.889 37.88 34.889 37.3333V30.6667ZM37.1084 41.84C37.042 42.0133 36.9489 42.1467 36.8293 42.28C36.6964 42.4 36.5502 42.4933 36.3907 42.56C36.2313 42.6267 36.0585 42.6667 35.8857 42.6667C35.7129 42.6667 35.5402 42.6267 35.3807 42.56C35.2212 42.4933 35.075 42.4 34.9421 42.28C34.8225 42.1467 34.7295 42.0133 34.663 41.84C34.5966 41.68 34.5567 41.5067 34.5567 41.3333C34.5567 41.16 34.5966 40.9867 34.663 40.8267C34.7295 40.6667 34.8225 40.52 34.9421 40.3867C35.075 40.2667 35.2212 40.1733 35.3807 40.1067C35.6997 39.9733 36.0718 39.9733 36.3907 40.1067C36.5502 40.1733 36.6964 40.2667 36.8293 40.3867C36.9489 40.52 37.042 40.6667 37.1084 40.8267C37.1749 40.9867 37.2147 41.16 37.2147 41.3333C37.2147 41.5067 37.1749 41.68 37.1084 41.84Z" fill="#FFD800"/>
</svg>
