<svg width="380" height="72" viewBox="0 0 380 72" fill="none" xmlns="http://www.w3.org/2000/svg">
<rect width="380" height="72" rx="4" fill="white"/>
<path d="M0 4C0 1.79086 1.79086 0 4 0H11.9612V72H4C1.79087 72 0 70.2091 0 68V4Z" fill="#E2441D"/>
<path d="M35.8857 22.6667C28.5628 22.6667 22.5955 28.6533 22.5955 36C22.5955 43.3467 28.5628 49.3333 35.8857 49.3333C43.2086 49.3333 49.1759 43.3467 49.1759 36C49.1759 28.6533 43.2086 22.6667 35.8857 22.6667ZM40.3512 39.0667C40.7366 39.4533 40.7366 40.0933 40.3512 40.48C40.1519 40.68 39.8994 40.7733 39.6468 40.7733C39.3943 40.7733 39.1418 40.68 38.9425 40.48L35.8857 37.4133L32.829 40.48C32.6296 40.68 32.3771 40.7733 32.1246 40.7733C31.8721 40.7733 31.6196 40.68 31.4202 40.48C31.0348 40.0933 31.0348 39.4533 31.4202 39.0667L34.477 36L31.4202 32.9333C31.0348 32.5467 31.0348 31.9067 31.4202 31.52C31.8056 31.1333 32.4436 31.1333 32.829 31.52L35.8857 34.5867L38.9425 31.52C39.3279 31.1333 39.9658 31.1333 40.3512 31.52C40.7366 31.9067 40.7366 32.5467 40.3512 32.9333L37.2945 36L40.3512 39.0667Z" fill="#E2441D"/>
</svg>
