<svg width="380" height="72" viewBox="0 0 380 72" fill="none" xmlns="http://www.w3.org/2000/svg">
<rect width="380" height="72" rx="4" fill="white"/>
<path d="M0 4C0 1.79086 1.79086 0 4 0H11.9612V72H4C1.79087 72 0 70.2091 0 68V4Z" fill="#03A66D"/>
<path d="M45.6407 39.32L44.3117 37.1067C44.0326 36.6133 43.7801 35.68 43.7801 35.1333V31.76C43.7801 28.6267 41.946 25.92 39.3013 24.6533C38.6102 23.4267 37.3344 22.6667 35.8724 22.6667C34.4238 22.6667 33.1214 23.4533 32.4303 24.6933C29.8387 25.9867 28.0445 28.6667 28.0445 31.76V35.1333C28.0445 35.68 27.792 36.6133 27.5129 37.0933L26.1706 39.32C25.639 40.2133 25.5194 41.2 25.8516 42.1067C26.1706 43 26.9281 43.6933 27.9116 44.0267C30.4899 44.9067 33.2011 45.3333 35.9123 45.3333C38.6235 45.3333 41.3347 44.9067 43.913 44.04C44.8433 43.7333 45.561 43.0267 45.9065 42.1067C46.2521 41.1867 46.159 40.1733 45.6407 39.32Z" fill="#03A66D"/>
<path d="M39.6468 46.68C39.0887 48.2267 37.6134 49.3333 35.8857 49.3333C34.8358 49.3333 33.7992 48.9067 33.0682 48.1467C32.6429 47.7467 32.3239 47.2133 32.1379 46.6667C32.3107 46.6933 32.4834 46.7067 32.6695 46.7333C32.9752 46.7733 33.2941 46.8133 33.6131 46.84C34.3706 46.9067 35.1415 46.9467 35.9123 46.9467C36.6698 46.9467 37.4274 46.9067 38.1716 46.84C38.4507 46.8133 38.7298 46.8 38.9956 46.76C39.2083 46.7333 39.4209 46.7067 39.6468 46.68Z" fill="#00BC3C"/>
</svg>
