<svg width="22" height="22" viewBox="0 0 22 22" fill="none" xmlns="http://www.w3.org/2000/svg">
<g id="codetransfer/no data">
<g id="Group 1000002328">
<path id="Rectangle 6207" d="M1.16505 10.7934C1.04369 10.3164 1.33249 9.83118 1.81011 9.70967L8.36813 8.04123C8.84574 7.91972 9.3313 8.20792 9.45266 8.68494L10.6796 13.5074C10.8009 13.9844 10.5121 14.4696 10.0345 14.5911L3.47648 16.2596C2.99887 16.3811 2.5133 16.0929 2.39194 15.6159L1.16505 10.7934Z" fill="url(#paint0_linear_9125_1573340)"/>
<g id="Group 1000002235">
<path id="Rectangle 6205" d="M5.66418 5.38318C5.7914 4.47797 6.62836 3.84727 7.53358 3.97449L19.963 5.72133C20.8682 5.84855 21.4989 6.68551 21.3717 7.59073L20.0855 16.7421C19.9583 17.6473 19.1214 18.278 18.2161 18.1507L5.78673 16.4039C4.88152 16.2767 4.25082 15.4397 4.37804 14.5345L5.66418 5.38318Z" fill="url(#paint1_linear_9125_1573340)"/>
<path id="Rectangle 6205 (Stroke)" opacity="0.5" fill-rule="evenodd" clip-rule="evenodd" d="M19.8478 6.54086L7.4184 4.79402C6.96579 4.7304 6.54731 5.04575 6.4837 5.49836L5.19756 14.6497C5.13395 15.1023 5.4493 15.5208 5.90191 15.5844L18.3313 17.3312C18.7839 17.3948 19.2024 17.0795 19.266 16.6269L20.5522 7.47555C20.6158 7.02294 20.3004 6.60447 19.8478 6.54086ZM7.53358 3.97449C6.62836 3.84727 5.7914 4.47797 5.66418 5.38318L4.37804 14.5345C4.25082 15.4397 4.88152 16.2767 5.78673 16.4039L18.2161 18.1507C19.1214 18.278 19.9583 17.6473 20.0855 16.7421L21.3717 7.59073C21.4989 6.68551 20.8682 5.84855 19.963 5.72133L7.53358 3.97449Z" fill="url(#paint2_linear_9125_1573340)"/>
<path id="Rectangle 6206" d="M5.67185 5.32857C5.79484 4.45351 6.6039 3.84384 7.47896 3.96682L20.0176 5.72901C20.8927 5.85199 21.5023 6.66106 21.3794 7.53612L21.2373 8.54684L5.52981 6.33929L5.67185 5.32857Z" fill="url(#paint3_linear_9125_1573340)"/>
<rect id="Rectangle 6208" opacity="0.5" x="7.00781" y="4.73633" width="7.86197" height="0.965505" rx="0.482753" transform="rotate(8 7.00781 4.73633)" fill="white"/>
</g>
<g id="Group 1000002234">
<path id="Vector" opacity="0.7" d="M15.6177 11.7182C15.6716 11.7182 15.7267 11.7168 15.7815 11.7182C15.9525 11.723 16.0315 11.8716 15.9369 12.019C15.8201 12.2004 15.697 12.3775 15.5764 12.5566C15.4835 12.6941 15.3919 12.8325 15.2975 12.9689C15.203 13.1052 15.0628 13.1104 14.968 12.9723C14.7542 12.6603 14.5435 12.3458 14.3315 12.0326C14.2854 11.9648 14.2664 11.8922 14.3065 11.8164C14.3466 11.7406 14.4135 11.7137 14.4959 11.718C14.5406 11.7204 14.5856 11.718 14.6312 11.718C14.5722 10.9838 14.0525 10.3279 13.3234 10.1205C12.559 9.90295 11.7134 10.1915 11.2429 10.9876C11.1791 10.8944 11.1135 10.8088 11.0586 10.7161C10.9333 10.5043 10.7679 10.3584 10.5078 10.3551C10.9671 9.5815 11.9492 8.95725 13.1389 9.07737C14.2361 9.18826 15.4928 10.1235 15.6177 11.7182Z" fill="#DAE5F6"/>
<path id="Vector_2" opacity="0.7" d="M14.3659 12.6821C14.5768 12.9427 14.6832 13.3165 15.1024 13.3106C14.6848 14.0282 13.724 14.7125 12.4828 14.5906C11.3463 14.4791 10.1174 13.5232 9.99344 11.9497C9.93953 11.9497 9.88445 11.9483 9.82976 11.9497C9.74969 11.9521 9.6891 11.9196 9.65271 11.8478C9.61631 11.776 9.63303 11.7057 9.6771 11.6407C9.8274 11.4183 9.97763 11.1956 10.1278 10.9726C10.191 10.879 10.2527 10.7844 10.3178 10.6919C10.4107 10.5608 10.5492 10.5604 10.6411 10.6944C10.8549 11.0067 11.0656 11.3209 11.2779 11.6343C11.3239 11.7017 11.3436 11.7732 11.3042 11.8502C11.2649 11.9272 11.1984 11.9543 11.116 11.9505C11.0707 11.9483 11.0253 11.9505 10.9782 11.9505C11.041 12.6963 11.583 13.3576 12.2837 13.549C13.0551 13.7596 13.8945 13.4771 14.3659 12.6821Z" fill="#DAE5F6"/>
<path id="Vector_3" opacity="0.7" d="M13.0047 12.7854C12.9762 13.0081 12.9312 13.0735 12.8072 13.0733C12.6832 13.0731 12.6415 13.0096 12.6103 12.7841C12.3302 12.693 12.19 12.5313 12.1875 12.2955C12.1863 12.1657 12.274 12.0767 12.3939 12.0894C12.4871 12.0994 12.547 12.1555 12.5581 12.2504C12.5702 12.3537 12.622 12.3905 12.7168 12.3847C12.7817 12.3807 12.847 12.3847 12.9119 12.3837C13.0258 12.3815 13.0544 12.345 13.0542 12.2048C13.054 12.0645 13.0238 12.0301 12.9084 12.028C12.8263 12.0263 12.7441 12.028 12.662 12.0267C12.3986 12.0204 12.2009 11.8287 12.1898 11.5549C12.1827 11.4353 12.1942 11.3153 12.2236 11.1994C12.2694 11.0379 12.4023 10.9445 12.6076 10.886C12.6487 10.65 12.6916 10.5903 12.8129 10.5939C12.9343 10.5975 12.9809 10.6672 13.0008 10.8673C13.0895 10.9154 13.1794 10.951 13.2544 11.0078C13.3712 11.0962 13.4248 11.226 13.4272 11.3758C13.4289 11.482 13.3618 11.5644 13.2671 11.5765C13.1628 11.5899 13.0718 11.5294 13.0581 11.4206C13.0443 11.3118 12.9922 11.2744 12.8928 11.2812C12.8281 11.2857 12.7628 11.2812 12.6977 11.2825C12.5901 11.285 12.5612 11.3226 12.5608 11.4561C12.5608 11.5965 12.5897 11.6354 12.7016 11.6379C12.7838 11.6398 12.8659 11.6379 12.948 11.6379C13.2178 11.6437 13.4162 11.8355 13.4246 12.1155C13.4306 12.2387 13.4163 12.3621 13.3823 12.4803C13.3332 12.6401 13.2275 12.7094 13.0047 12.7854Z" fill="#DAE5F6"/>
</g>
</g>
</g>
<defs>
<linearGradient id="paint0_linear_9125_1573340" x1="10.8762" y1="13.2696" x2="-4.60804" y2="10.5325" gradientUnits="userSpaceOnUse">
<stop offset="0.211203" stop-color="#A7ACCA"/>
<stop offset="0.488259" stop-color="#D3D8F0"/>
</linearGradient>
<linearGradient id="paint1_linear_9125_1573340" x1="5.64498" y1="5.51977" x2="14.3882" y2="21.3925" gradientUnits="userSpaceOnUse">
<stop stop-color="white"/>
<stop offset="1" stop-color="#E2F1FA"/>
</linearGradient>
<linearGradient id="paint2_linear_9125_1573340" x1="20.5976" y1="21.2148" x2="-1.76188" y2="-3.91699" gradientUnits="userSpaceOnUse">
<stop stop-color="#A7ACCA"/>
<stop offset="0.485517" stop-color="#D3D8F0"/>
</linearGradient>
<linearGradient id="paint3_linear_9125_1573340" x1="22.2774" y1="9.26287" x2="21.2105" y2="-1.21906" gradientUnits="userSpaceOnUse">
<stop stop-color="#A7ACCA"/>
<stop offset="0.485517" stop-color="#D3D8F0"/>
</linearGradient>
</defs>
</svg>
