<svg width="34" height="33" viewBox="0 0 34 33" fill="none" xmlns="http://www.w3.org/2000/svg">
<circle cx="25.2172" cy="23.4867" r="7.13514" fill="url(#paint0_linear_9585_852476)"/>
<path d="M24.4014 24.8156C24.4014 24.5687 24.3985 24.3217 24.4031 24.0748C24.4044 24.0003 24.3791 23.9577 24.3117 23.921C23.8726 23.6808 23.4372 23.434 22.9971 23.1956C22.9098 23.1484 22.8791 23.095 22.8816 22.9998C22.8885 22.7468 22.8863 22.4936 22.8823 22.2405C22.8812 22.1722 22.9067 22.1357 22.9668 22.1031C23.2063 21.973 23.4441 21.8398 23.68 21.7037C23.7342 21.6724 23.7737 21.6735 23.8274 21.7035C24.2804 21.9578 24.7357 22.2081 25.1883 22.463C25.2488 22.4971 25.2933 22.4965 25.3534 22.4626C25.8062 22.2079 26.2615 21.9571 26.7146 21.7031C26.7638 21.6755 26.8012 21.6692 26.8536 21.6994C27.0949 21.8387 27.3383 21.9747 27.5828 22.1086C27.6371 22.1385 27.6577 22.1733 27.6571 22.2335C27.654 22.5021 27.6534 22.7707 27.6573 23.0391C27.6582 23.1069 27.6341 23.144 27.5736 23.1771C27.1262 23.4224 26.6816 23.6724 26.2342 23.9173C26.1642 23.9557 26.1373 23.9994 26.1379 24.0778C26.1413 24.5716 26.1382 25.0655 26.1411 25.5595C26.1415 25.6295 26.1215 25.671 26.0561 25.7062C25.8133 25.8368 25.573 25.9722 25.3342 26.1095C25.2856 26.1373 25.2503 26.1356 25.2037 26.1089C24.9643 25.9724 24.7242 25.8372 24.4822 25.7053C24.4215 25.6723 24.3991 25.6332 24.4002 25.5658C24.4038 25.3156 24.4014 25.0655 24.4014 24.8156Z" fill="white"/>
<path d="M24.4014 24.8156C24.4014 24.5687 24.3985 24.3217 24.4031 24.0748C24.4044 24.0003 24.3791 23.9577 24.3117 23.921C23.8726 23.6808 23.4372 23.434 22.9971 23.1956C22.9098 23.1484 22.8791 23.095 22.8816 22.9998C22.8885 22.7468 22.8863 22.4936 22.8823 22.2405C22.8812 22.1722 22.9067 22.1357 22.9668 22.1031C23.2063 21.973 23.4441 21.8398 23.68 21.7037C23.7342 21.6724 23.7737 21.6735 23.8274 21.7035C24.2804 21.9578 24.7357 22.2081 25.1883 22.463C25.2488 22.4971 25.2933 22.4965 25.3534 22.4626C25.8062 22.2079 26.2615 21.9571 26.7146 21.7031C26.7638 21.6755 26.8012 21.6692 26.8536 21.6994C27.0949 21.8387 27.3383 21.9747 27.5828 22.1086C27.6371 22.1385 27.6577 22.1733 27.6571 22.2335C27.654 22.5021 27.6534 22.7707 27.6573 23.0391C27.6582 23.1069 27.6341 23.144 27.5736 23.1771C27.1262 23.4224 26.6816 23.6724 26.2342 23.9173C26.1642 23.9557 26.1373 23.9994 26.1379 24.0778C26.1413 24.5716 26.1382 25.0655 26.1411 25.5595C26.1415 25.6295 26.1215 25.671 26.0561 25.7062C25.8133 25.8368 25.573 25.9722 25.3342 26.1095C25.2856 26.1373 25.2503 26.1356 25.2037 26.1089C24.9643 25.9724 24.7242 25.8372 24.4822 25.7053C24.4215 25.6723 24.3991 25.6332 24.4002 25.5658C24.4038 25.3156 24.4014 25.0655 24.4014 24.8156Z" fill="url(#paint1_linear_9585_852476)"/>
<path d="M21.3745 23.0065C21.6574 23.1651 21.9265 23.3129 22.1907 23.4683C22.2202 23.4857 22.2352 23.5467 22.2354 23.5874C22.2385 24.0844 22.239 24.5816 22.2356 25.0786C22.235 25.1501 22.259 25.1896 22.3223 25.2244C22.7697 25.4697 23.2143 25.7196 23.6619 25.9643C23.7316 26.0024 23.7596 26.0441 23.7581 26.1232C23.7527 26.4039 23.756 26.6847 23.756 26.9824C23.5884 26.8896 23.4318 26.8034 23.2757 26.7166C22.6642 26.3759 22.0528 26.0345 21.4405 25.6949C21.3906 25.6673 21.3689 25.6366 21.3691 25.579C21.3711 24.7454 21.3705 23.9118 21.3705 23.0782C21.3705 23.0602 21.3724 23.0423 21.3745 23.0065Z" fill="white"/>
<path d="M21.3745 23.0065C21.6574 23.1651 21.9265 23.3129 22.1907 23.4683C22.2202 23.4857 22.2352 23.5467 22.2354 23.5874C22.2385 24.0844 22.239 24.5816 22.2356 25.0786C22.235 25.1501 22.259 25.1896 22.3223 25.2244C22.7697 25.4697 23.2143 25.7196 23.6619 25.9643C23.7316 26.0024 23.7596 26.0441 23.7581 26.1232C23.7527 26.4039 23.756 26.6847 23.756 26.9824C23.5884 26.8896 23.4318 26.8034 23.2757 26.7166C22.6642 26.3759 22.0528 26.0345 21.4405 25.6949C21.3906 25.6673 21.3689 25.6366 21.3691 25.579C21.3711 24.7454 21.3705 23.9118 21.3705 23.0782C21.3705 23.0602 21.3724 23.0423 21.3745 23.0065Z" fill="url(#paint2_linear_9585_852476)"/>
<path d="M29.1639 23.0139C29.1658 23.0497 29.1687 23.0762 29.1687 23.1027C29.1689 23.9237 29.1681 24.7445 29.1702 25.5655C29.1704 25.6283 29.1524 25.6653 29.094 25.6976C28.3543 26.1075 27.6159 26.52 26.8771 26.9316C26.8527 26.9452 26.8268 26.9557 26.793 26.9718C26.789 26.9478 26.7836 26.9309 26.7836 26.914C26.783 26.6393 26.7851 26.3646 26.7817 26.0901C26.7809 26.0297 26.8105 26.0038 26.8587 25.9773C27.3134 25.7259 27.7664 25.4714 28.2216 25.2213C28.2831 25.1876 28.3036 25.1487 28.3032 25.0822C28.3005 24.5854 28.3034 24.0885 28.3001 23.5915C28.2998 23.5171 28.3238 23.4741 28.3917 23.4376C28.6261 23.3116 28.8568 23.1792 29.0892 23.0495C29.1103 23.0376 29.1332 23.0284 29.1639 23.0139Z" fill="white"/>
<path d="M29.1639 23.0139C29.1658 23.0497 29.1687 23.0762 29.1687 23.1027C29.1689 23.9237 29.1681 24.7445 29.1702 25.5655C29.1704 25.6283 29.1524 25.6653 29.094 25.6976C28.3543 26.1075 27.6159 26.52 26.8771 26.9316C26.8527 26.9452 26.8268 26.9557 26.793 26.9718C26.789 26.9478 26.7836 26.9309 26.7836 26.914C26.783 26.6393 26.7851 26.3646 26.7817 26.0901C26.7809 26.0297 26.8105 26.0038 26.8587 25.9773C27.3134 25.7259 27.7664 25.4714 28.2216 25.2213C28.2831 25.1876 28.3036 25.1487 28.3032 25.0822C28.3005 24.5854 28.3034 24.0885 28.3001 23.5915C28.2998 23.5171 28.3238 23.4741 28.3917 23.4376C28.6261 23.3116 28.8568 23.1792 29.0892 23.0495C29.1103 23.0376 29.1332 23.0284 29.1639 23.0139Z" fill="url(#paint3_linear_9585_852476)"/>
<path d="M27.6386 20.4663C27.3602 20.6217 27.0936 20.7731 26.823 20.9176C26.7952 20.9324 26.7376 20.9144 26.7034 20.8955C26.2564 20.6501 25.8103 20.4033 25.3665 20.1525C25.297 20.1133 25.246 20.111 25.1757 20.1507C24.732 20.4015 24.2847 20.6466 23.8406 20.897C23.7771 20.9328 23.7293 20.9337 23.6661 20.897C23.4172 20.7529 23.1651 20.614 22.8983 20.4641C22.936 20.4404 22.9623 20.4219 22.9903 20.4063C23.7233 19.9975 24.4561 19.5883 25.1909 19.1826C25.2278 19.1622 25.2944 19.1539 25.328 19.1724C26.0854 19.5892 26.8401 20.0106 27.595 20.4315C27.6057 20.4374 27.6144 20.4469 27.6386 20.4663Z" fill="white"/>
<path d="M27.6386 20.4663C27.3602 20.6217 27.0936 20.7731 26.823 20.9176C26.7952 20.9324 26.7376 20.9144 26.7034 20.8955C26.2564 20.6501 25.8103 20.4033 25.3665 20.1525C25.297 20.1133 25.246 20.111 25.1757 20.1507C24.732 20.4015 24.2847 20.6466 23.8406 20.897C23.7771 20.9328 23.7293 20.9337 23.6661 20.897C23.4172 20.7529 23.1651 20.614 22.8983 20.4641C22.936 20.4404 22.9623 20.4219 22.9903 20.4063C23.7233 19.9975 24.4561 19.5883 25.1909 19.1826C25.2278 19.1622 25.2944 19.1539 25.328 19.1724C26.0854 19.5892 26.8401 20.0106 27.595 20.4315C27.6057 20.4374 27.6144 20.4469 27.6386 20.4663Z" fill="url(#paint4_linear_9585_852476)"/>
<path d="M27.4342 21.3025C27.7154 21.1454 27.9824 20.995 28.2519 20.8486C28.2757 20.8357 28.322 20.8403 28.3475 20.8542C28.606 20.995 28.8634 21.138 29.1185 21.2847C29.1444 21.2995 29.1661 21.3432 29.1665 21.3736C29.1702 21.6574 29.1696 21.9412 29.1671 22.225C29.1669 22.2511 29.1517 22.2894 29.1308 22.3015C28.8627 22.4558 28.5924 22.6062 28.3081 22.7657C28.3055 22.7212 28.302 22.6922 28.302 22.6629C28.3016 22.4069 28.2982 22.1507 28.3039 21.8949C28.3056 21.8152 28.2757 21.7726 28.207 21.7354C27.9813 21.6135 27.7586 21.4864 27.5348 21.3612C27.5052 21.3447 27.4763 21.3271 27.4342 21.3025Z" fill="white"/>
<path d="M27.4342 21.3025C27.7154 21.1454 27.9824 20.995 28.2519 20.8486C28.2757 20.8357 28.322 20.8403 28.3475 20.8542C28.606 20.995 28.8634 21.138 29.1185 21.2847C29.1444 21.2995 29.1661 21.3432 29.1665 21.3736C29.1702 21.6574 29.1696 21.9412 29.1671 22.225C29.1669 22.2511 29.1517 22.2894 29.1308 22.3015C28.8627 22.4558 28.5924 22.6062 28.3081 22.7657C28.3055 22.7212 28.302 22.6922 28.302 22.6629C28.3016 22.4069 28.2982 22.1507 28.3039 21.8949C28.3056 21.8152 28.2757 21.7726 28.207 21.7354C27.9813 21.6135 27.7586 21.4864 27.5348 21.3612C27.5052 21.3447 27.4763 21.3271 27.4342 21.3025Z" fill="url(#paint5_linear_9585_852476)"/>
<path d="M22.2326 22.7658C22.0713 22.6757 21.9233 22.5931 21.7755 22.5103C21.6594 22.4455 21.5416 22.3832 21.4289 22.3132C21.4007 22.2956 21.3736 22.2526 21.373 22.221C21.3688 21.9403 21.3684 21.6595 21.3732 21.3787C21.3738 21.3444 21.403 21.2968 21.4337 21.279C21.6798 21.1356 21.9287 20.9967 22.1792 20.8603C22.2097 20.8437 22.264 20.8365 22.2919 20.8515C22.5593 20.9954 22.8234 21.1451 23.1051 21.3023C23.0646 21.326 23.037 21.3429 23.0088 21.3588C22.7794 21.4874 22.5512 21.6174 22.3199 21.7427C22.2592 21.7756 22.2353 21.8138 22.2362 21.8814C22.2399 22.1406 22.2377 22.3997 22.2376 22.6589C22.2372 22.6887 22.2347 22.7185 22.2326 22.7658Z" fill="white"/>
<path d="M22.2326 22.7658C22.0713 22.6757 21.9233 22.5931 21.7755 22.5103C21.6594 22.4455 21.5416 22.3832 21.4289 22.3132C21.4007 22.2956 21.3736 22.2526 21.373 22.221C21.3688 21.9403 21.3684 21.6595 21.3732 21.3787C21.3738 21.3444 21.403 21.2968 21.4337 21.279C21.6798 21.1356 21.9287 20.9967 22.1792 20.8603C22.2097 20.8437 22.264 20.8365 22.2919 20.8515C22.5593 20.9954 22.8234 21.1451 23.1051 21.3023C23.0646 21.326 23.037 21.3429 23.0088 21.3588C22.7794 21.4874 22.5512 21.6174 22.3199 21.7427C22.2592 21.7756 22.2353 21.8138 22.2362 21.8814C22.2399 22.1406 22.2377 22.3997 22.2376 22.6589C22.2372 22.6887 22.2347 22.7185 22.2326 22.7658Z" fill="url(#paint6_linear_9585_852476)"/>
<path d="M24.402 26.3882C24.6734 26.5399 24.9264 26.6773 25.1746 26.8224C25.245 26.8635 25.2963 26.8622 25.3652 26.822C25.5867 26.6927 25.8122 26.5701 26.0362 26.4448C26.0633 26.4297 26.0911 26.4158 26.1303 26.3952C26.1339 26.4315 26.1385 26.4573 26.1385 26.483C26.1391 26.7423 26.1364 27.0017 26.1404 27.2608C26.1414 27.3288 26.117 27.3661 26.0566 27.3988C25.817 27.5291 25.5819 27.6665 25.3414 27.7949C25.3051 27.8142 25.2397 27.8167 25.2041 27.7979C24.9579 27.6669 24.7157 27.5293 24.4738 27.3911C24.4444 27.3742 24.4051 27.3409 24.4047 27.3146C24.4003 27.013 24.402 26.711 24.402 26.3882Z" fill="white"/>
<path d="M24.402 26.3882C24.6734 26.5399 24.9264 26.6773 25.1746 26.8224C25.245 26.8635 25.2963 26.8622 25.3652 26.822C25.5867 26.6927 25.8122 26.5701 26.0362 26.4448C26.0633 26.4297 26.0911 26.4158 26.1303 26.3952C26.1339 26.4315 26.1385 26.4573 26.1385 26.483C26.1391 26.7423 26.1364 27.0017 26.1404 27.2608C26.1414 27.3288 26.117 27.3661 26.0566 27.3988C25.817 27.5291 25.5819 27.6665 25.3414 27.7949C25.3051 27.8142 25.2397 27.8167 25.2041 27.7979C24.9579 27.6669 24.7157 27.5293 24.4738 27.3911C24.4444 27.3742 24.4051 27.3409 24.4047 27.3146C24.4003 27.013 24.402 26.711 24.402 26.3882Z" fill="url(#paint7_linear_9585_852476)"/>
<path d="M24.4085 21.3038C24.6904 21.1457 24.9549 20.9963 25.2217 20.8507C25.2465 20.8371 25.2931 20.8373 25.3181 20.8508C25.5847 20.9964 25.849 21.1459 26.1248 21.3004C26.0951 21.3197 26.0738 21.3351 26.0509 21.3478C25.8164 21.4801 25.5808 21.6107 25.3472 21.7446C25.2954 21.7745 25.2547 21.7804 25.1993 21.7485C24.9419 21.6003 24.6818 21.4568 24.4085 21.3038Z" fill="white"/>
<path d="M24.4085 21.3038C24.6904 21.1457 24.9549 20.9963 25.2217 20.8507C25.2465 20.8371 25.2931 20.8373 25.3181 20.8508C25.5847 20.9964 25.849 21.1459 26.1248 21.3004C26.0951 21.3197 26.0738 21.3351 26.0509 21.3478C25.8164 21.4801 25.5808 21.6107 25.3472 21.7446C25.2954 21.7745 25.2547 21.7804 25.1993 21.7485C24.9419 21.6003 24.6818 21.4568 24.4085 21.3038Z" fill="url(#paint8_linear_9585_852476)"/>
<path d="M22.8848 23.8507C23.1702 24.0107 23.4353 24.1588 23.6988 24.3088C23.7174 24.3194 23.7372 24.3462 23.7374 24.3655C23.7399 24.6672 23.7391 24.969 23.7391 25.29C23.6454 25.2391 23.566 25.1967 23.4873 25.1526C23.3076 25.0522 23.1278 24.9522 22.9496 24.849C22.9228 24.8334 22.8878 24.8021 22.8874 24.7777C22.8832 24.4763 22.8848 24.1745 22.8848 23.8507Z" fill="white"/>
<path d="M22.8848 23.8507C23.1702 24.0107 23.4353 24.1588 23.6988 24.3088C23.7174 24.3194 23.7372 24.3462 23.7374 24.3655C23.7399 24.6672 23.7391 24.969 23.7391 25.29C23.6454 25.2391 23.566 25.1967 23.4873 25.1526C23.3076 25.0522 23.1278 24.9522 22.9496 24.849C22.9228 24.8334 22.8878 24.8021 22.8874 24.7777C22.8832 24.4763 22.8848 24.1745 22.8848 23.8507Z" fill="url(#paint9_linear_9585_852476)"/>
<path d="M27.6551 23.857C27.6551 24.1741 27.6561 24.4729 27.6534 24.7717C27.6532 24.7942 27.6331 24.8255 27.6127 24.8369C27.354 24.9837 27.0937 25.1278 26.8334 25.2721C26.8286 25.2747 26.8213 25.273 26.8066 25.2739C26.8043 25.2482 26.7998 25.2221 26.7998 25.1959C26.7993 24.9368 26.8012 24.6778 26.7983 24.4187C26.7975 24.3562 26.8156 24.3175 26.8747 24.2857C27.1058 24.1606 27.3338 24.03 27.5632 23.902C27.5874 23.8887 27.6129 23.8776 27.6551 23.857Z" fill="white"/>
<path d="M27.6551 23.857C27.6551 24.1741 27.6561 24.4729 27.6534 24.7717C27.6532 24.7942 27.6331 24.8255 27.6127 24.8369C27.354 24.9837 27.0937 25.1278 26.8334 25.2721C26.8286 25.2747 26.8213 25.273 26.8066 25.2739C26.8043 25.2482 26.7998 25.2221 26.7998 25.1959C26.7993 24.9368 26.8012 24.6778 26.7983 24.4187C26.7975 24.3562 26.8156 24.3175 26.8747 24.2857C27.1058 24.1606 27.3338 24.03 27.5632 23.902C27.5874 23.8887 27.6129 23.8776 27.6551 23.857Z" fill="url(#paint10_linear_9585_852476)"/>
<path d="M32.3523 23.4867C32.3523 27.4273 29.1578 30.6218 25.2172 30.6218C21.2765 30.6218 18.082 27.4273 18.082 23.4867C18.082 19.5461 21.2765 16.3516 25.2172 16.3516C29.1578 16.3516 32.3523 19.5461 32.3523 23.4867ZM19.0086 23.4867C19.0086 26.9156 21.7883 29.6953 25.2172 29.6953C28.6461 29.6953 31.4258 26.9156 31.4258 23.4867C31.4258 20.0578 28.6461 17.2781 25.2172 17.2781C21.7883 17.2781 19.0086 20.0578 19.0086 23.4867Z" fill="#EE5B09"/>
<mask id="path-4-inside-1_9585_852476" fill="white">
<path fill-rule="evenodd" clip-rule="evenodd" d="M13.9733 1.86475C17.2075 1.86475 20.2482 3.12422 22.5351 5.41112C24.822 7.69802 26.0815 10.7387 26.0815 13.9729C26.0815 14.2659 26.0711 14.5574 26.0506 14.8469C25.9175 14.8408 25.7836 14.8377 25.649 14.8377C20.8725 14.8377 17.0004 18.7099 17.0004 23.4864C17.0004 24.2262 17.0933 24.9443 17.268 25.6298C16.2093 25.9273 15.1032 26.081 13.9733 26.081C10.7392 26.081 7.69851 24.8215 5.41161 22.5346C3.12471 20.2477 1.86523 17.207 1.86523 13.9729C1.86523 10.7387 3.12471 7.69802 5.41161 5.41112C7.69851 3.12422 10.7392 1.86475 13.9733 1.86475Z"/>
</mask>
<path fill-rule="evenodd" clip-rule="evenodd" d="M13.9733 1.86475C17.2075 1.86475 20.2482 3.12422 22.5351 5.41112C24.822 7.69802 26.0815 10.7387 26.0815 13.9729C26.0815 14.2659 26.0711 14.5574 26.0506 14.8469C25.9175 14.8408 25.7836 14.8377 25.649 14.8377C20.8725 14.8377 17.0004 18.7099 17.0004 23.4864C17.0004 24.2262 17.0933 24.9443 17.268 25.6298C16.2093 25.9273 15.1032 26.081 13.9733 26.081C10.7392 26.081 7.69851 24.8215 5.41161 22.5346C3.12471 20.2477 1.86523 17.207 1.86523 13.9729C1.86523 10.7387 3.12471 7.69802 5.41161 5.41112C7.69851 3.12422 10.7392 1.86475 13.9733 1.86475Z" fill="url(#paint11_linear_9585_852476)"/>
<path d="M22.5351 5.41112L21.8216 6.1246L21.8216 6.1246L22.5351 5.41112ZM26.0506 14.8469L26.0045 15.8548L26.9875 15.8998L27.0571 14.9182L26.0506 14.8469ZM17.268 25.6298L17.541 26.6011L18.4891 26.3347L18.2458 25.3805L17.268 25.6298ZM5.41161 22.5346L6.12509 21.8211L6.12509 21.8211L5.41161 22.5346ZM5.41161 5.41112L6.12509 6.1246L6.12509 6.1246L5.41161 5.41112ZM23.2486 4.69764C20.7724 2.22152 17.4751 0.855737 13.9733 0.855737V2.87376C16.9399 2.87376 19.7239 4.02692 21.8216 6.1246L23.2486 4.69764ZM27.0905 13.9729C27.0905 10.4711 25.7247 7.17377 23.2486 4.69764L21.8216 6.1246C23.9193 8.22226 25.0724 11.0063 25.0724 13.9729H27.0905ZM27.0571 14.9182C27.0793 14.6049 27.0905 14.2897 27.0905 13.9729H25.0724C25.0724 14.2422 25.0629 14.5099 25.0441 14.7756L27.0571 14.9182ZM25.649 15.8467C25.7682 15.8467 25.8868 15.8495 26.0045 15.8548L26.0967 13.8389C25.9482 13.8321 25.799 13.8287 25.649 13.8287V15.8467ZM18.0094 23.4864C18.0094 19.2671 21.4298 15.8467 25.649 15.8467V13.8287C20.3152 13.8287 15.9914 18.1526 15.9914 23.4864H18.0094ZM18.2458 25.3805C18.0916 24.7758 18.0094 24.1414 18.0094 23.4864H15.9914C15.9914 24.311 16.0949 25.1129 16.2903 25.8791L18.2458 25.3805ZM13.9733 27.09C15.1949 27.09 16.393 26.9238 17.541 26.6011L16.9951 24.6584C16.0257 24.9308 15.0114 25.072 13.9733 25.072V27.09ZM4.69813 23.2481C7.17426 25.7242 10.4716 27.09 13.9733 27.09V25.072C11.0068 25.072 8.22275 23.9188 6.12509 21.8211L4.69813 23.2481ZM0.856225 13.9729C0.856225 17.4746 2.22201 20.7719 4.69813 23.2481L6.12509 21.8211C4.02741 19.7234 2.87424 16.9394 2.87424 13.9729H0.856225ZM4.69813 4.69764C2.222 7.17377 0.856225 10.4711 0.856225 13.9729H2.87424C2.87424 11.0063 4.02742 8.22227 6.12509 6.1246L4.69813 4.69764ZM13.9733 0.855737C10.4716 0.855737 7.17426 2.22152 4.69813 4.69764L6.12509 6.1246C8.22276 4.02693 11.0068 2.87376 13.9733 2.87376V0.855737Z" fill="#039B92" mask="url(#path-4-inside-1_9585_852476)"/>
<path d="M18.6244 12.9402C18.2973 12.765 17.9344 12.6752 17.5778 12.5919C16.6094 12.3654 15.6199 12.3098 14.6366 12.2094C14.6345 11.8354 14.6451 11.4614 14.6282 11.0895C14.6177 10.8673 14.6894 10.801 14.9088 10.8053C15.795 10.816 16.6811 10.8032 17.5673 10.8138C17.7783 10.816 17.8416 10.7497 17.8353 10.5403C17.8226 10.0338 17.831 9.52732 17.831 9.02084C17.831 8.65967 17.8289 8.65967 17.4702 8.65967H9.4927C9.39775 8.65967 9.30069 8.67249 9.20575 8.6789C9.12135 8.69814 9.13401 8.76866 9.13401 8.82636V10.6472C9.13401 10.7049 9.12346 10.7754 9.20575 10.7946C9.31124 10.7989 9.41463 10.8074 9.52012 10.8074C10.3767 10.8096 11.2334 10.8138 12.0879 10.8053C12.2672 10.8032 12.339 10.8566 12.3326 11.0447C12.3179 11.4336 12.3221 11.8226 12.3179 12.2136C11.3262 12.2778 10.3388 12.3632 9.37032 12.594C8.88293 12.7094 8.39344 12.827 7.98622 13.1475C7.70772 13.3655 7.70772 13.607 7.98622 13.8271C8.18877 13.9874 8.41875 14.0964 8.66139 14.1798C9.75432 14.5516 10.8916 14.6521 12.0309 14.7397C12.2735 14.7568 12.3347 14.8337 12.3326 15.0709C12.3221 16.3681 12.3326 17.6675 12.3242 18.9647C12.3221 19.1976 12.3685 19.2938 12.6238 19.2853C13.1935 19.2639 13.7653 19.266 14.3349 19.2853C14.5881 19.2938 14.6388 19.2019 14.6388 18.9647C14.6282 17.6504 14.6366 16.3339 14.6303 15.0175C14.6282 14.8273 14.6788 14.7568 14.8772 14.7439C15.6051 14.7033 16.3288 14.62 17.0483 14.4982C17.5842 14.4042 18.1159 14.2802 18.6117 14.043C18.8501 13.9276 19.1539 13.8207 19.1624 13.4959C19.1687 13.1625 18.8586 13.0663 18.6244 12.9402ZM18.4872 13.6049C18.3353 13.7459 18.1433 13.81 17.9513 13.8763C17.0504 14.1819 16.1136 14.261 15.1768 14.3294C13.3137 14.464 11.457 14.4106 9.61718 14.0494C9.28171 13.9831 8.95045 13.8891 8.64451 13.7288C8.50526 13.6562 8.35335 13.5728 8.34702 13.3848C8.33858 13.1903 8.49471 13.1176 8.63185 13.0407C9.08548 12.7821 9.59608 12.7094 10.094 12.6154C10.8283 12.4765 11.5731 12.4188 12.32 12.4081C12.3242 12.8419 12.3242 13.2758 12.3326 13.7117C12.3347 13.8143 12.2883 13.9618 12.4782 13.9575C12.5816 13.9938 12.685 13.996 12.7905 13.9725C13.2652 14.0195 13.7399 14.0216 14.2147 13.9725C14.3012 13.996 14.3877 13.996 14.4742 13.9596C14.6662 13.981 14.6324 13.8357 14.6324 13.7288C14.6345 13.2929 14.6324 12.8569 14.6303 12.4209C15.7844 12.4273 16.9238 12.547 18.0294 12.9061C18.1855 12.9552 18.3353 13.0407 18.4703 13.1369C18.6623 13.2758 18.6623 13.4446 18.4872 13.6049Z" fill="url(#paint12_linear_9585_852476)"/>
<defs>
<linearGradient id="paint0_linear_9585_852476" x1="20.4604" y1="18.7299" x2="29.9739" y2="29.5408" gradientUnits="userSpaceOnUse">
<stop stop-color="#FF8311"/>
<stop offset="1" stop-color="#FFBC11"/>
</linearGradient>
<linearGradient id="paint1_linear_9585_852476" x1="27.9182" y1="27.2603" x2="21.7994" y2="22.8443" gradientUnits="userSpaceOnUse">
<stop stop-color="#FFEED5"/>
<stop offset="1" stop-color="white"/>
</linearGradient>
<linearGradient id="paint2_linear_9585_852476" x1="27.9182" y1="27.2603" x2="21.7994" y2="22.8443" gradientUnits="userSpaceOnUse">
<stop stop-color="#FFEED5"/>
<stop offset="1" stop-color="white"/>
</linearGradient>
<linearGradient id="paint3_linear_9585_852476" x1="27.9182" y1="27.2603" x2="21.7994" y2="22.8443" gradientUnits="userSpaceOnUse">
<stop stop-color="#FFEED5"/>
<stop offset="1" stop-color="white"/>
</linearGradient>
<linearGradient id="paint4_linear_9585_852476" x1="27.9182" y1="27.2603" x2="21.7994" y2="22.8443" gradientUnits="userSpaceOnUse">
<stop stop-color="#FFEED5"/>
<stop offset="1" stop-color="white"/>
</linearGradient>
<linearGradient id="paint5_linear_9585_852476" x1="27.9182" y1="27.2603" x2="21.7994" y2="22.8443" gradientUnits="userSpaceOnUse">
<stop stop-color="#FFEED5"/>
<stop offset="1" stop-color="white"/>
</linearGradient>
<linearGradient id="paint6_linear_9585_852476" x1="27.9182" y1="27.2603" x2="21.7994" y2="22.8443" gradientUnits="userSpaceOnUse">
<stop stop-color="#FFEED5"/>
<stop offset="1" stop-color="white"/>
</linearGradient>
<linearGradient id="paint7_linear_9585_852476" x1="27.9182" y1="27.2603" x2="21.7994" y2="22.8443" gradientUnits="userSpaceOnUse">
<stop stop-color="#FFEED5"/>
<stop offset="1" stop-color="white"/>
</linearGradient>
<linearGradient id="paint8_linear_9585_852476" x1="27.9182" y1="27.2603" x2="21.7994" y2="22.8443" gradientUnits="userSpaceOnUse">
<stop stop-color="#FFEED5"/>
<stop offset="1" stop-color="white"/>
</linearGradient>
<linearGradient id="paint9_linear_9585_852476" x1="27.9182" y1="27.2603" x2="21.7994" y2="22.8443" gradientUnits="userSpaceOnUse">
<stop stop-color="#FFEED5"/>
<stop offset="1" stop-color="white"/>
</linearGradient>
<linearGradient id="paint10_linear_9585_852476" x1="27.9182" y1="27.2603" x2="21.7994" y2="22.8443" gradientUnits="userSpaceOnUse">
<stop stop-color="#FFEED5"/>
<stop offset="1" stop-color="white"/>
</linearGradient>
<linearGradient id="paint11_linear_9585_852476" x1="-1.16179" y1="-1.16228" x2="36.8923" y2="28.6756" gradientUnits="userSpaceOnUse">
<stop stop-color="#02A7CB"/>
<stop offset="1" stop-color="#00FCBF"/>
</linearGradient>
<linearGradient id="paint12_linear_9585_852476" x1="23.4319" y1="22.6065" x2="13.4462" y2="12.6207" gradientUnits="userSpaceOnUse">
<stop offset="0.541667" stop-color="#CED2EB"/>
<stop offset="1" stop-color="white"/>
</linearGradient>
</defs>
</svg>
