<svg width="32" height="32" viewBox="0 0 32 32" fill="none" xmlns="http://www.w3.org/2000/svg">
<ellipse cx="22.4385" cy="21.5862" rx="6.43214" ry="6.43287" fill="url(#paint0_linear_11775_381)"/>
<path d="M24.1845 19.4837L19.4707 18.6162L21.9514 24.8587L25.4081 20.6472L24.1845 19.4837ZM24.1088 19.8659L24.8299 20.5515L22.8578 20.9085L24.1088 19.8659ZM22.4293 20.8369L20.3506 19.113L23.7482 19.7382L22.4293 20.8369ZM22.2813 21.142L21.9423 23.9445L20.1148 19.3446L22.2813 21.1417V21.142ZM22.5949 21.2906L24.779 20.8954L22.2738 23.9471L22.5949 21.2906Z" fill="url(#paint1_linear_11775_381)"/>
<path d="M28.8706 21.5862C28.8706 25.139 25.9909 28.0191 22.4385 28.0191C18.8861 28.0191 16.0063 25.139 16.0063 21.5862C16.0063 18.0334 18.8861 15.1533 22.4385 15.1533C25.9909 15.1533 28.8706 18.0334 28.8706 21.5862ZM16.8416 21.5862C16.8416 24.6776 19.3474 27.1837 22.4385 27.1837C25.5296 27.1837 28.0354 24.6776 28.0354 21.5862C28.0354 18.4948 25.5296 15.9887 22.4385 15.9887C19.3474 15.9887 16.8416 18.4948 16.8416 21.5862Z" fill="#A60000"/>
<mask id="path-4-inside-1_11775_381" fill="white">
<path fill-rule="evenodd" clip-rule="evenodd" d="M12.5941 2.66846C15.4239 2.66846 18.0844 3.77045 20.0853 5.77139C22.0863 7.77234 23.1882 10.4328 23.1882 13.2626C23.1882 13.6777 23.1645 14.0891 23.1178 14.4954C22.8599 14.4669 22.598 14.4523 22.3327 14.4523C18.3894 14.4523 15.1927 17.6803 15.1927 21.6623C15.1927 22.2893 15.272 22.8975 15.4209 23.4775C14.5116 23.7276 13.5628 23.8567 12.5941 23.8567C9.76438 23.8567 7.10389 22.7547 5.10294 20.7538C3.10199 18.7528 2 16.0924 2 13.2626C2 10.4328 3.10199 7.77234 5.10294 5.77139C7.10389 3.77045 9.76438 2.66846 12.5941 2.66846Z"/>
</mask>
<path fill-rule="evenodd" clip-rule="evenodd" d="M12.5941 2.66846C15.4239 2.66846 18.0844 3.77045 20.0853 5.77139C22.0863 7.77234 23.1882 10.4328 23.1882 13.2626C23.1882 13.6777 23.1645 14.0891 23.1178 14.4954C22.8599 14.4669 22.598 14.4523 22.3327 14.4523C18.3894 14.4523 15.1927 17.6803 15.1927 21.6623C15.1927 22.2893 15.272 22.8975 15.4209 23.4775C14.5116 23.7276 13.5628 23.8567 12.5941 23.8567C9.76438 23.8567 7.10389 22.7547 5.10294 20.7538C3.10199 18.7528 2 16.0924 2 13.2626C2 10.4328 3.10199 7.77234 5.10294 5.77139C7.10389 3.77045 9.76438 2.66846 12.5941 2.66846Z" fill="url(#paint2_linear_11775_381)"/>
<path d="M20.0853 5.77139L19.4611 6.39566V6.39566L20.0853 5.77139ZM23.1178 14.4954L23.0208 15.3729L23.8943 15.4694L23.9948 14.5964L23.1178 14.4954ZM15.4209 23.4775L15.655 24.3287L16.4919 24.0985L16.276 23.2579L15.4209 23.4775ZM5.10294 20.7538L4.47867 21.378H4.47867L5.10294 20.7538ZM5.10294 5.77139L5.7272 6.39566L5.10294 5.77139ZM20.7096 5.14713C18.5431 2.98062 15.658 1.78561 12.5941 1.78561V3.5513C15.1898 3.5513 17.6257 4.56028 19.4611 6.39566L20.7096 5.14713ZM24.0711 13.2626C24.0711 10.1987 22.8761 7.31365 20.7096 5.14713L19.4611 6.39566C21.2964 8.23104 22.3054 10.667 22.3054 13.2626H24.0711ZM23.9948 14.5964C24.0455 14.1565 24.0711 13.7113 24.0711 13.2626H22.3054C22.3054 13.644 22.2836 14.0218 22.2407 14.3944L23.9948 14.5964ZM22.3327 15.3352C22.5656 15.3352 22.7951 15.348 23.0208 15.3729L23.2147 13.6179C22.9247 13.5859 22.6304 13.5695 22.3327 13.5695V15.3352ZM16.0756 21.6623C16.0756 18.1598 18.8851 15.3352 22.3327 15.3352V13.5695C17.8937 13.5695 14.3099 17.2009 14.3099 21.6623H16.0756ZM16.276 23.2579C16.1453 22.7491 16.0756 22.2146 16.0756 21.6623H14.3099C14.3099 22.3639 14.3986 23.046 14.5658 23.6971L16.276 23.2579ZM12.5941 24.7395C13.6414 24.7395 14.669 24.5999 15.655 24.3287L15.1868 22.6262C14.3542 22.8552 13.4841 22.9738 12.5941 22.9738V24.7395ZM4.47867 21.378C6.64519 23.5446 9.53024 24.7395 12.5941 24.7395V22.9738C9.99852 22.9738 7.56258 21.9649 5.72721 20.1295L4.47867 21.378ZM1.11716 13.2626C1.11716 16.3265 2.31216 19.2115 4.47867 21.378L5.72721 20.1295C3.89182 18.2941 2.88284 15.8582 2.88284 13.2626H1.11716ZM4.47868 5.14713C2.31216 7.31364 1.11716 10.1987 1.11716 13.2626H2.88284C2.88284 10.667 3.89182 8.23104 5.7272 6.39566L4.47868 5.14713ZM12.5941 1.78561C9.53024 1.78561 6.64519 2.98062 4.47868 5.14713L5.7272 6.39566C7.56258 4.56028 9.99852 3.5513 12.5941 3.5513V1.78561Z" fill="#039B92" mask="url(#path-4-inside-1_11775_381)"/>
<path d="M16.6626 12.3586C16.3764 12.2053 16.0589 12.1268 15.7469 12.0538C14.8996 11.8556 14.0338 11.807 13.1735 11.7191C13.1716 11.3919 13.1809 11.0647 13.1661 10.7393C13.1569 10.5449 13.2196 10.4869 13.4116 10.4906C14.187 10.5 14.9623 10.4888 15.7377 10.4981C15.9223 10.5 15.9777 10.442 15.9722 10.2588C15.9611 9.8156 15.9685 9.37245 15.9685 8.92929C15.9685 8.61328 15.9666 8.61328 15.6528 8.61328H8.67274C8.58967 8.61328 8.50475 8.6245 8.42167 8.63011C8.34783 8.64694 8.35891 8.70864 8.35891 8.75913V10.3523C8.35891 10.4027 8.34968 10.4644 8.42167 10.4813C8.51398 10.485 8.60444 10.4925 8.69674 10.4925C9.44625 10.4944 10.1958 10.4981 10.9434 10.4906C11.1003 10.4888 11.1631 10.5355 11.1576 10.7001C11.1446 11.0404 11.1483 11.3807 11.1446 11.7229C10.277 11.779 9.41302 11.8538 8.56567 12.0557C8.13922 12.1567 7.71093 12.2595 7.35464 12.54C7.11095 12.7307 7.11095 12.942 7.35464 13.1346C7.53186 13.2749 7.73308 13.3702 7.94538 13.4431C8.90166 13.7685 9.89669 13.8564 10.8936 13.933C11.1059 13.948 11.1594 14.0153 11.1576 14.2229C11.1483 15.3579 11.1576 16.4948 11.1502 17.6298C11.1483 17.8336 11.189 17.9177 11.4123 17.9102C11.9108 17.8916 12.4111 17.8934 12.9095 17.9102C13.131 17.9177 13.1753 17.8373 13.1753 17.6298C13.1661 16.4798 13.1735 15.328 13.168 14.1761C13.1661 14.0097 13.2104 13.948 13.3839 13.9368C14.0208 13.9013 14.6541 13.8283 15.2836 13.7218C15.7525 13.6395 16.2177 13.531 16.6515 13.3235C16.8601 13.2225 17.126 13.129 17.1333 12.8448C17.1389 12.5531 16.8675 12.4689 16.6626 12.3586ZM16.5426 12.9401C16.4097 13.0636 16.2417 13.1197 16.0737 13.1776C15.2854 13.445 14.4658 13.5142 13.6461 13.574C12.016 13.6918 10.3914 13.6451 8.78166 13.3291C8.48813 13.2711 8.1983 13.1888 7.93062 13.0486C7.80877 12.985 7.67586 12.9121 7.67032 12.7476C7.66293 12.5774 7.79954 12.5138 7.91954 12.4465C8.31645 12.2203 8.7632 12.1567 9.19887 12.0744C9.84131 11.9529 10.493 11.9024 11.1465 11.893C11.1502 12.2726 11.1502 12.6522 11.1576 13.0336C11.1594 13.1234 11.1188 13.2524 11.2849 13.2487C11.3754 13.2805 11.4659 13.2823 11.5582 13.2618C11.9735 13.3029 12.3889 13.3048 12.8043 13.2618C12.88 13.2823 12.9557 13.2823 13.0313 13.2505C13.1993 13.2692 13.1698 13.1421 13.1698 13.0486C13.1716 12.6671 13.1698 12.2857 13.168 11.9042C14.1778 11.9099 15.1746 12.0146 16.142 12.3287C16.2786 12.3717 16.4097 12.4465 16.5278 12.5306C16.6958 12.6522 16.6958 12.7999 16.5426 12.9401Z" fill="url(#paint3_linear_11775_381)"/>
<defs>
<linearGradient id="paint0_linear_11775_381" x1="17.9555" y1="15.9331" x2="27.3126" y2="28.018" gradientUnits="userSpaceOnUse">
<stop offset="0.0677083" stop-color="#EA0000"/>
<stop offset="1" stop-color="#FFA724"/>
</linearGradient>
<linearGradient id="paint1_linear_11775_381" x1="27.6346" y1="26.8095" x2="18.2915" y2="19.5502" gradientUnits="userSpaceOnUse">
<stop stop-color="#CED2EB"/>
<stop offset="1" stop-color="white"/>
</linearGradient>
<linearGradient id="paint2_linear_11775_381" x1="-0.648531" y1="0.0199282" x2="32.6473" y2="26.1269" gradientUnits="userSpaceOnUse">
<stop stop-color="#02A7CB"/>
<stop offset="1" stop-color="#00FCBF"/>
</linearGradient>
<linearGradient id="paint3_linear_11775_381" x1="20.869" y1="20.8162" x2="12.1319" y2="12.0791" gradientUnits="userSpaceOnUse">
<stop offset="0.541667" stop-color="#CED2EB"/>
<stop offset="1" stop-color="white"/>
</linearGradient>
</defs>
</svg>
