<svg width="35" height="34" viewBox="0 0 35 34" fill="none" xmlns="http://www.w3.org/2000/svg">
<path fill-rule="evenodd" clip-rule="evenodd" d="M12 0.721283C15.2053 0.721283 18.2188 1.96951 20.4853 4.23599C22.7518 6.50247 24 9.51602 24 12.7213C24 13.0752 23.9848 13.4268 23.9547 13.7753C18.9231 14.2979 15 18.5515 15 23.7213C15 23.9292 15.0064 24.1357 15.0189 24.3405C14.0448 24.5918 13.0324 24.7213 12 24.7213C8.79474 24.7213 5.78119 23.4731 3.51471 21.2066C1.24823 18.9401 0 15.9266 0 12.7213C0 9.51602 1.24823 6.50247 3.51471 4.23599C5.78119 1.96951 8.79474 0.721283 12 0.721283Z" fill="#53AE94"/>
<path d="M18.291 11.361C17.8602 11.1301 17.382 11.0118 16.9122 10.902C15.6363 10.6036 14.3326 10.5304 13.0372 10.398C13.0344 9.9053 13.0483 9.41257 13.0261 8.92265C13.0122 8.62982 13.1067 8.54254 13.3958 8.54817C14.5633 8.56225 15.7308 8.54535 16.8983 8.55943C17.1763 8.56225 17.2597 8.47496 17.2514 8.19903C17.2347 7.53173 17.2458 6.86443 17.2458 6.19712C17.2458 5.72128 17.243 5.72128 16.7705 5.72128H6.25999C6.1349 5.72128 6.00703 5.73818 5.88193 5.74662C5.77074 5.77196 5.78742 5.86488 5.78742 5.9409V8.33981C5.78742 8.41584 5.77352 8.50875 5.88193 8.53409C6.02092 8.53972 6.15714 8.55099 6.29613 8.55099C7.42473 8.5538 8.55334 8.55943 9.67916 8.54817C9.91544 8.54535 10.01 8.61575 10.0016 8.86352C9.98216 9.37596 9.98772 9.88841 9.98216 10.4037C8.67565 10.4881 7.37469 10.6008 6.09876 10.9048C5.45662 11.0569 4.81171 11.2118 4.2752 11.6341C3.90827 11.9213 3.90827 12.2395 4.2752 12.5295C4.54206 12.7406 4.84506 12.8842 5.16474 12.994C6.60469 13.484 8.10301 13.6163 9.6041 13.7317C9.92378 13.7543 10.0044 13.8556 10.0016 14.1682C9.98772 15.8772 10.0016 17.5891 9.9905 19.2982C9.98772 19.6051 10.0489 19.7318 10.3852 19.7206C11.1358 19.6924 11.8891 19.6952 12.6397 19.7206C12.9732 19.7318 13.04 19.6108 13.04 19.2982C13.0261 17.5666 13.0372 15.8322 13.0288 14.0978C13.0261 13.8472 13.0928 13.7543 13.3541 13.7374C14.3131 13.6839 15.2666 13.5741 16.2145 13.4136C16.9206 13.2897 17.6211 13.1264 18.2743 12.8138C18.5885 12.6618 18.9888 12.521 18.9999 12.093C19.0082 11.6538 18.5996 11.5271 18.291 11.361ZM18.1103 12.2366C17.9102 12.4225 17.6572 12.5069 17.4043 12.5942C16.2173 12.9969 14.983 13.101 13.7488 13.1911C11.2942 13.3685 8.848 13.2981 6.424 12.8223C5.98201 12.735 5.54558 12.6111 5.1425 12.3999C4.95904 12.3042 4.75889 12.1944 4.75055 11.9466C4.73943 11.6904 4.94514 11.5947 5.12582 11.4933C5.72348 11.1526 6.3962 11.0569 7.05224 10.933C8.01961 10.75 9.00089 10.674 9.98494 10.6599C9.9905 11.2315 9.9905 11.803 10.0016 12.3774C10.0044 12.5126 9.94324 12.7068 10.1934 12.7012C10.3296 12.7491 10.4658 12.7519 10.6048 12.7209C11.2303 12.7829 11.8558 12.7857 12.4812 12.7209C12.5952 12.7519 12.7092 12.7519 12.8231 12.704C13.0761 12.7322 13.0316 12.5407 13.0316 12.3999C13.0344 11.8256 13.0316 11.2512 13.0288 10.6768C14.5494 10.6852 16.0505 10.8429 17.5071 11.3159C17.7128 11.3807 17.9102 11.4933 18.0881 11.62C18.3411 11.803 18.3411 12.0255 18.1103 12.2366Z" fill="white"/>
<g clip-path="url(#clip0_5103_338263)">
<circle cx="25.0014" cy="23.7361" r="9.49847" fill="#627EEA" stroke="white"/>
<g clip-path="url(#clip1_5103_338263)">
<path d="M25.002 17.4866L25 22.1516L21.3535 23.8268L25.002 17.4866Z" fill="#FEFEFE"/>
<path d="M24.9982 26.1202L25 22.1511L21.3535 23.8263L24.9982 26.1202Z" fill="#CED2EB"/>
<path d="M24.9982 26.8163L24.9969 29.9864L21.3535 24.5396L24.9982 26.8163Z" fill="#FEFEFE"/>
<path d="M25.0029 17.4866L25.001 22.1516L28.6458 23.8268L25.0029 17.4866Z" fill="#CED2EB"/>
<path d="M24.9971 26.1202L24.9989 22.1511L28.6437 23.8263L24.9971 26.1202Z" fill="#929DCF"/>
<path d="M24.997 26.8163L24.9956 29.9864L28.6436 24.5396L24.997 26.8163Z" fill="#CED2EB"/>
</g>
</g>
<defs>
<clipPath id="clip0_5103_338263">
<rect width="20" height="20" fill="white" transform="translate(15 13.7364)"/>
</clipPath>
<clipPath id="clip1_5103_338263">
<rect width="7.29167" height="12.5" fill="white" transform="translate(21.354 17.4865)"/>
</clipPath>
</defs>
</svg>
