<svg width="34" height="33" viewBox="0 0 34 33" fill="none" xmlns="http://www.w3.org/2000/svg">
<circle cx="25.432" cy="23.7025" r="7.13514" fill="url(#paint0_linear_9585_848184)"/>
<path d="M26.2409 23.5421C26.2714 23.5576 26.2935 23.5677 26.3146 23.5798C26.5792 23.7302 26.8435 23.8812 27.1083 24.0313C27.2066 24.087 27.1824 24.0811 27.2687 24.0321C27.7044 23.7849 28.1394 23.5367 28.5754 23.2899C28.6079 23.2716 28.6213 23.2506 28.6212 23.2131C28.6202 22.7055 28.6202 22.198 28.6212 21.6905C28.6212 21.6561 28.6113 21.6349 28.5799 21.6171C28.1307 21.3625 27.682 21.1071 27.2339 20.8508C27.2011 20.832 27.1767 20.8334 27.1441 20.852C26.7296 21.0896 26.3144 21.3257 25.8992 21.5622C25.8641 21.5823 25.8294 21.6032 25.7937 21.6223C25.7707 21.6347 25.7603 21.6524 25.7613 21.6779C25.762 21.697 25.7612 21.7161 25.7612 21.7352C25.7613 23.088 25.7612 24.4408 25.7619 25.7936C25.7619 25.8906 25.7418 25.9806 25.6739 26.0527C25.6403 26.0883 25.5994 26.1196 25.5567 26.1443C25.3199 26.2811 25.0815 26.4153 24.8436 26.5504C24.4181 26.7922 23.9925 27.0336 23.5674 27.276C23.496 27.3167 23.4237 27.3466 23.3382 27.3447C23.2655 27.3431 23.2023 27.3205 23.1413 27.2857C22.932 27.1665 22.7227 27.0475 22.5134 26.9285C22.0646 26.6732 21.6158 26.4179 21.167 26.1627C21.1469 26.1512 21.1265 26.1401 21.1071 26.1277C20.9951 26.0561 20.9379 25.9532 20.9306 25.8226C20.9293 25.7998 20.9303 25.7768 20.9303 25.7539C20.9304 25.0097 20.9318 24.2656 20.9297 23.5214C20.9292 23.3521 20.998 23.2326 21.148 23.1481C21.7924 22.7848 22.4348 22.4178 23.0779 22.0523C23.1097 22.0342 23.1414 22.0156 23.1739 21.9988C23.2912 21.9382 23.4095 21.9408 23.5231 22.0046C23.7685 22.1421 24.0114 22.2839 24.2566 22.4218C24.2967 22.4443 24.2992 22.4756 24.2991 22.5131C24.2988 22.8374 24.2991 23.1618 24.2988 23.4862C24.2988 23.5066 24.2963 23.5271 24.2942 23.5584C24.2666 23.5459 24.246 23.5386 24.2272 23.528C24.0308 23.4173 23.8347 23.3062 23.6385 23.1951C23.553 23.1467 23.4671 23.099 23.3825 23.0491C23.351 23.0306 23.3264 23.0295 23.2928 23.0488C22.8699 23.2911 22.4459 23.5316 22.0222 23.7725C21.9954 23.7877 21.9689 23.8035 21.9418 23.8181C21.9193 23.8303 21.907 23.8472 21.9085 23.8733C21.9092 23.8865 21.9083 23.8999 21.9083 23.9133C21.9083 24.4056 21.9093 24.8979 21.9071 25.3901C21.9068 25.4453 21.9249 25.4753 21.9731 25.5024C22.4012 25.7435 22.8278 25.987 23.255 26.2298C23.2667 26.2364 23.2794 26.2417 23.29 26.2498C23.3223 26.2744 23.3509 26.2691 23.3853 26.2494C23.8318 25.9941 24.2789 25.7397 24.7268 25.4866C24.7613 25.4671 24.7688 25.4436 24.7687 25.408C24.7678 25.015 24.7682 24.622 24.7682 24.2289C24.7682 23.2539 24.7688 22.2788 24.7676 21.3038C24.7675 21.1514 24.8327 21.0418 24.9651 20.9666C25.637 20.5853 26.3087 20.2036 26.98 19.8213C27.1145 19.7446 27.2464 19.7445 27.3807 19.8209C28.0506 20.2019 28.7206 20.5827 29.391 20.9627C29.4881 21.0178 29.5559 21.0941 29.5836 21.2017C29.5911 21.2308 29.5932 21.2619 29.5932 21.2922C29.5937 22.0706 29.5935 22.8491 29.5937 23.6276C29.5937 23.768 29.5305 23.8726 29.409 23.9429C29.2789 24.0181 29.1478 24.0916 29.0172 24.1659C28.4728 24.4753 27.9284 24.7847 27.3842 25.0942C27.2576 25.1661 27.1297 25.1669 27.0039 25.0962C26.7638 24.9611 26.5257 24.8227 26.2857 24.6872C26.2475 24.6657 26.2318 24.6401 26.232 24.5961C26.2334 24.268 26.2325 23.9398 26.2328 23.6116C26.2328 23.5918 26.2372 23.572 26.2408 23.5422L26.2409 23.5421Z" fill="white"/>
<path d="M32.5671 23.7025C32.5671 27.6431 29.3726 30.8377 25.432 30.8377C21.4914 30.8377 18.2969 27.6431 18.2969 23.7025C18.2969 19.7619 21.4914 16.5674 25.432 16.5674C29.3726 16.5674 32.5671 19.7619 32.5671 23.7025ZM19.2234 23.7025C19.2234 27.1314 22.0031 29.9111 25.432 29.9111C28.8609 29.9111 31.6406 27.1314 31.6406 23.7025C31.6406 20.2736 28.8609 17.4939 25.432 17.4939C22.0031 17.4939 19.2234 20.2736 19.2234 23.7025Z" fill="#542F94"/>
<mask id="path-4-inside-1_9585_848184" fill="white">
<path fill-rule="evenodd" clip-rule="evenodd" d="M13.9733 1.86475C17.2075 1.86475 20.2482 3.12422 22.5351 5.41112C24.822 7.69802 26.0815 10.7387 26.0815 13.9729C26.0815 14.2659 26.0711 14.5574 26.0506 14.8469C25.9175 14.8408 25.7836 14.8377 25.649 14.8377C20.8725 14.8377 17.0004 18.7099 17.0004 23.4864C17.0004 24.2262 17.0933 24.9443 17.268 25.6298C16.2093 25.9273 15.1032 26.081 13.9733 26.081C10.7392 26.081 7.69851 24.8215 5.41161 22.5346C3.12471 20.2477 1.86523 17.207 1.86523 13.9729C1.86523 10.7387 3.12471 7.69802 5.41161 5.41112C7.69851 3.12422 10.7392 1.86475 13.9733 1.86475Z"/>
</mask>
<path fill-rule="evenodd" clip-rule="evenodd" d="M13.9733 1.86475C17.2075 1.86475 20.2482 3.12422 22.5351 5.41112C24.822 7.69802 26.0815 10.7387 26.0815 13.9729C26.0815 14.2659 26.0711 14.5574 26.0506 14.8469C25.9175 14.8408 25.7836 14.8377 25.649 14.8377C20.8725 14.8377 17.0004 18.7099 17.0004 23.4864C17.0004 24.2262 17.0933 24.9443 17.268 25.6298C16.2093 25.9273 15.1032 26.081 13.9733 26.081C10.7392 26.081 7.69851 24.8215 5.41161 22.5346C3.12471 20.2477 1.86523 17.207 1.86523 13.9729C1.86523 10.7387 3.12471 7.69802 5.41161 5.41112C7.69851 3.12422 10.7392 1.86475 13.9733 1.86475Z" fill="url(#paint1_linear_9585_848184)"/>
<path d="M22.5351 5.41112L21.8216 6.1246L21.8216 6.1246L22.5351 5.41112ZM26.0506 14.8469L26.0045 15.8548L26.9875 15.8998L27.0571 14.9182L26.0506 14.8469ZM17.268 25.6298L17.541 26.6011L18.4891 26.3347L18.2458 25.3805L17.268 25.6298ZM5.41161 22.5346L6.12509 21.8211L6.12509 21.8211L5.41161 22.5346ZM5.41161 5.41112L6.12509 6.1246L6.12509 6.1246L5.41161 5.41112ZM23.2486 4.69764C20.7724 2.22152 17.4751 0.855737 13.9733 0.855737V2.87376C16.9399 2.87376 19.7239 4.02692 21.8216 6.1246L23.2486 4.69764ZM27.0905 13.9729C27.0905 10.4711 25.7247 7.17377 23.2486 4.69764L21.8216 6.1246C23.9193 8.22226 25.0724 11.0063 25.0724 13.9729H27.0905ZM27.0571 14.9182C27.0793 14.6049 27.0905 14.2897 27.0905 13.9729H25.0724C25.0724 14.2422 25.0629 14.5099 25.0441 14.7756L27.0571 14.9182ZM25.649 15.8467C25.7682 15.8467 25.8868 15.8495 26.0045 15.8548L26.0967 13.8389C25.9482 13.8321 25.799 13.8287 25.649 13.8287V15.8467ZM18.0094 23.4864C18.0094 19.2671 21.4298 15.8467 25.649 15.8467V13.8287C20.3152 13.8287 15.9914 18.1526 15.9914 23.4864H18.0094ZM18.2458 25.3805C18.0916 24.7758 18.0094 24.1414 18.0094 23.4864H15.9914C15.9914 24.311 16.0949 25.1129 16.2903 25.8791L18.2458 25.3805ZM13.9733 27.09C15.1949 27.09 16.393 26.9238 17.541 26.6011L16.9951 24.6584C16.0257 24.9308 15.0114 25.072 13.9733 25.072V27.09ZM4.69813 23.2481C7.17426 25.7242 10.4716 27.09 13.9733 27.09V25.072C11.0068 25.072 8.22275 23.9188 6.12509 21.8211L4.69813 23.2481ZM0.856225 13.9729C0.856225 17.4746 2.22201 20.7719 4.69813 23.2481L6.12509 21.8211C4.02741 19.7234 2.87424 16.9394 2.87424 13.9729H0.856225ZM4.69813 4.69764C2.222 7.17377 0.856225 10.4711 0.856225 13.9729H2.87424C2.87424 11.0063 4.02742 8.22227 6.12509 6.1246L4.69813 4.69764ZM13.9733 0.855737C10.4716 0.855737 7.17426 2.22152 4.69813 4.69764L6.12509 6.1246C8.22276 4.02693 11.0068 2.87376 13.9733 2.87376V0.855737Z" fill="#047295" mask="url(#path-4-inside-1_9585_848184)"/>
<path d="M13.6929 16.0566L15.3594 8.78369H17.5209L14.8204 18.2979H13.4234L13.6929 16.0566ZM12.1804 8.78369L13.8469 16.0566L14.1274 18.2979H12.7139L10.0299 8.78369H12.1804Z" fill="url(#paint2_linear_9585_848184)"/>
<path d="M15.2524 11.064H18.2967V12.571H15.2524V11.064Z" fill="url(#paint3_linear_9585_848184)"/>
<path d="M8.7832 11.064H12.2081V12.571H8.7832V11.064Z" fill="url(#paint4_linear_9585_848184)"/>
<path d="M15.2524 13.7767H18.2967V15.2837H15.2524V13.7767Z" fill="url(#paint5_linear_9585_848184)"/>
<path d="M8.7832 13.7767H12.2081V15.2837H8.7832V13.7767Z" fill="url(#paint6_linear_9585_848184)"/>
<defs>
<linearGradient id="paint0_linear_9585_848184" x1="21.3239" y1="17.4322" x2="40.3509" y2="35.162" gradientUnits="userSpaceOnUse">
<stop stop-color="#8247E5"/>
<stop offset="1" stop-color="#47E573"/>
</linearGradient>
<linearGradient id="paint1_linear_9585_848184" x1="-5.05368" y1="-3.32444" x2="30.4058" y2="27.3783" gradientUnits="userSpaceOnUse">
<stop stop-color="#0246CB"/>
<stop offset="1" stop-color="#27FFCB"/>
</linearGradient>
<linearGradient id="paint2_linear_9585_848184" x1="21.8643" y1="21.2711" x2="12.9448" y2="12.9468" gradientUnits="userSpaceOnUse">
<stop offset="0.541667" stop-color="#CED2EB"/>
<stop offset="1" stop-color="white"/>
</linearGradient>
<linearGradient id="paint3_linear_9585_848184" x1="21.8643" y1="21.2711" x2="12.9448" y2="12.9468" gradientUnits="userSpaceOnUse">
<stop offset="0.541667" stop-color="#CED2EB"/>
<stop offset="1" stop-color="white"/>
</linearGradient>
<linearGradient id="paint4_linear_9585_848184" x1="21.8643" y1="21.2711" x2="12.9448" y2="12.9468" gradientUnits="userSpaceOnUse">
<stop offset="0.541667" stop-color="#CED2EB"/>
<stop offset="1" stop-color="white"/>
</linearGradient>
<linearGradient id="paint5_linear_9585_848184" x1="21.8643" y1="21.2711" x2="12.9448" y2="12.9468" gradientUnits="userSpaceOnUse">
<stop offset="0.541667" stop-color="#CED2EB"/>
<stop offset="1" stop-color="white"/>
</linearGradient>
<linearGradient id="paint6_linear_9585_848184" x1="21.8643" y1="21.2711" x2="12.9448" y2="12.9468" gradientUnits="userSpaceOnUse">
<stop offset="0.541667" stop-color="#CED2EB"/>
<stop offset="1" stop-color="white"/>
</linearGradient>
</defs>
</svg>
