<svg width="35" height="34" viewBox="0 0 35 34" fill="none" xmlns="http://www.w3.org/2000/svg">
<g clip-path="url(#clip0_5098_735314)">
<path fill-rule="evenodd" clip-rule="evenodd" d="M12 0C15.2053 0 18.2188 1.24823 20.4853 3.51471C22.7518 5.78119 24 8.79474 24 12C24 12.3539 23.9848 12.7055 23.9547 13.054C18.9231 13.5766 15 17.8302 15 23C15 23.208 15.0064 23.4144 15.0189 23.6192C14.0448 23.8705 13.0324 24 12 24C8.79474 24 5.78119 22.7518 3.51471 20.4853C1.24823 18.2188 0 15.2053 0 12C0 8.79474 1.24823 5.78119 3.51471 3.51471C5.78119 1.24823 8.79474 0 12 0Z" fill="#FF821E"/>
<path d="M4.00195 4.99951H8.7066L12.0973 15.3776L15.488 4.99951H20.002L14.259 19.9995H9.68148L4.00195 4.99951Z" fill="white"/>
</g>
<g clip-path="url(#clip1_5098_735314)">
<rect x="15.4062" y="13.4365" width="19.1875" height="19.1875" rx="9.59375" fill="black" stroke="white" stroke-width="0.8125"/>
<g clip-path="url(#clip2_5098_735314)">
<path d="M24.0459 24.5258C24.0459 24.1974 24.0444 23.8692 24.0474 23.5409C24.0478 23.4884 24.0291 23.4626 23.9863 23.4376C23.4256 23.1104 22.8661 22.781 22.3051 22.454C22.2616 22.4286 22.2437 22.4022 22.2441 22.3504C22.2467 21.9823 22.2464 21.614 22.2444 21.2458C22.2441 21.1975 22.2596 21.1711 22.3017 21.1468C22.6139 20.9653 22.9251 20.7818 23.2352 20.5966C23.2782 20.5709 23.3089 20.5688 23.3537 20.5955C23.909 20.9276 24.4661 21.2566 25.0215 21.5885C25.0677 21.6162 25.1007 21.6158 25.1466 21.5885C25.7049 21.2571 26.2647 20.9283 26.8232 20.5973C26.8654 20.5722 26.8965 20.5672 26.9423 20.5947C27.2481 20.7783 27.5555 20.9592 27.8642 21.138C27.9118 21.1657 27.9317 21.1947 27.9316 21.2517C27.9304 21.6177 27.9324 21.9836 27.9366 22.3496C27.9373 22.4013 27.9205 22.4282 27.8768 22.4537C27.316 22.7809 26.7567 23.1104 26.1958 23.4373C26.1522 23.4627 26.135 23.4883 26.1351 23.5402C26.1371 24.199 26.1358 24.8577 26.1378 25.5165C26.1379 25.5729 26.1197 25.6022 26.0712 25.6301C25.762 25.808 25.4545 25.9888 25.148 26.1712C25.1062 26.1961 25.0763 26.1965 25.0344 26.1716C24.7258 25.9883 24.4162 25.8067 24.1054 25.6271C24.0617 25.6019 24.0443 25.5759 24.0447 25.524C24.0475 25.1913 24.0462 24.8585 24.0462 24.5259L24.0459 24.5258Z" fill="#EFB80B"/>
<path d="M20.4447 22.2373C20.6852 22.3792 20.9122 22.5131 21.1391 22.6471C21.2402 22.7069 21.3401 22.7688 21.4428 22.8258C21.4814 22.8473 21.4927 22.8727 21.4926 22.9156C21.4923 23.5766 21.4946 24.2377 21.4936 24.8989C21.4936 24.9505 21.5101 24.9772 21.5534 25.0025C22.112 25.3293 22.6692 25.6583 23.2279 25.9849C23.2755 26.0127 23.293 26.0427 23.2925 26.0994C23.2891 26.461 23.2909 26.8226 23.2907 27.1841C23.2907 27.2599 23.2905 27.2602 23.2231 27.2206C22.315 26.6882 21.4072 26.1553 20.4987 25.6237C20.4604 25.6013 20.4434 25.5776 20.4434 25.5304C20.4448 24.4545 20.4446 23.3785 20.4446 22.3025V22.2373H20.4447Z" fill="#EFB80B"/>
<path d="M29.7322 22.241C29.7322 22.2715 29.7322 22.2912 29.7322 22.3109C29.7322 23.3825 29.7318 24.4539 29.7332 25.5255C29.7332 25.5739 29.7183 25.6002 29.6764 25.6247C28.7677 26.1559 27.8599 26.6888 26.9515 27.2208C26.9336 27.2314 26.9146 27.2571 26.8939 27.2437C26.8748 27.2316 26.8862 27.2029 26.8862 27.1817C26.8856 26.8157 26.8867 26.4497 26.8846 26.0835C26.8843 26.0368 26.9008 26.0135 26.9397 25.9907C27.5001 25.6626 28.0592 25.3323 28.6196 25.0045C28.6651 24.9778 28.6826 24.9495 28.6824 24.8958C28.6815 24.2369 28.6836 23.5781 28.6839 22.9191C28.6839 22.8785 28.6906 22.8508 28.7302 22.8276C29.0499 22.6411 29.368 22.4519 29.6866 22.2636C29.6977 22.2571 29.7097 22.252 29.7322 22.2407V22.241Z" fill="#EFB80B"/>
<path d="M22.2461 19.0695C22.4144 18.9702 22.5759 18.8747 22.7375 18.7795C23.505 18.327 24.2723 17.8747 25.0394 17.4217C25.068 17.4048 25.0896 17.3973 25.1229 17.417C26.0484 17.9632 26.9748 18.5081 27.9009 19.0533C27.9065 19.0566 27.9114 19.0613 27.9179 19.0662C27.9083 19.0916 27.8829 19.0972 27.8636 19.1087C27.5531 19.2931 27.2415 19.476 26.9318 19.6616C26.8959 19.6832 26.8714 19.6816 26.8368 19.6611C26.2742 19.3281 25.7105 18.9971 25.1487 18.663C25.0988 18.6333 25.0642 18.6375 25.0176 18.6652C24.4614 18.9959 23.9039 19.3242 23.3482 19.6557C23.3032 19.6824 23.2731 19.6798 23.2299 19.6539C22.9298 19.4738 22.6278 19.2964 22.3265 19.1183C22.302 19.1038 22.2778 19.0887 22.2462 19.0695H22.2461Z" fill="#EFB80B"/>
<path d="M22.5313 20.1301C22.2042 20.3225 21.8825 20.5137 21.5584 20.7006C21.5047 20.7315 21.4882 20.7657 21.4887 20.8255C21.4915 21.1848 21.4902 21.5441 21.4901 21.9034C21.4901 21.9734 21.4895 21.9737 21.4287 21.9377C21.1178 21.754 20.8073 21.5696 20.4956 21.3873C20.4562 21.3645 20.4411 21.3395 20.4414 21.2934C20.4434 20.9253 20.4431 20.5571 20.4417 20.1889C20.4415 20.1443 20.4533 20.1182 20.4941 20.0944C20.812 19.9093 21.1279 19.7211 21.4441 19.5335C21.4697 19.5183 21.4906 19.5064 21.5224 19.5255C21.8538 19.7225 22.1862 19.9177 22.5181 20.1137C22.5214 20.1157 22.5233 20.1201 22.531 20.1302L22.5313 20.1301Z" fill="#EFB80B"/>
<path d="M28.6851 21.9589C28.6743 21.9368 28.6799 21.9123 28.6799 21.8887C28.6795 21.5295 28.6783 21.1702 28.6811 20.8111C28.6815 20.7592 28.6641 20.733 28.6208 20.7077C28.3204 20.5326 28.0215 20.3548 27.7225 20.1772C27.6965 20.1618 27.6665 20.1511 27.6426 20.1204C27.7617 20.0497 27.8789 19.9801 27.9962 19.9108C28.2078 19.7856 28.4199 19.6613 28.6305 19.5344C28.6654 19.5133 28.6911 19.5123 28.7265 19.5334C29.0445 19.7225 29.3632 19.9101 29.6828 20.0964C29.7178 20.1168 29.7313 20.1394 29.7311 20.1801C29.7297 20.5548 29.7299 20.9296 29.7309 21.3043C29.7309 21.3385 29.7229 21.3609 29.6909 21.3795C29.3676 21.5682 29.0454 21.7587 28.7225 21.9482C28.712 21.9545 28.7018 21.9664 28.6853 21.9587L28.6851 21.9589Z" fill="#EFB80B"/>
<path d="M24.0402 27.0827C24.0402 26.8987 24.0416 26.7145 24.0394 26.5305C24.0387 26.475 24.0515 26.4718 24.0968 26.4988C24.4067 26.6839 24.7187 26.8659 25.0281 27.0518C25.0727 27.0785 25.1036 27.0775 25.1476 27.0513C25.4557 26.8672 25.7654 26.6862 26.0748 26.5041C26.1376 26.4671 26.138 26.4674 26.1382 26.5421C26.1382 26.908 26.1374 27.2739 26.1394 27.6398C26.1396 27.6838 26.1249 27.7069 26.088 27.7284C25.7703 27.9136 25.4533 28.0999 25.1374 28.2882C25.0995 28.3108 25.073 28.3094 25.0361 28.2874C24.7243 28.101 24.4119 27.9156 24.0981 27.7327C24.054 27.707 24.0382 27.6793 24.0391 27.6283C24.0424 27.4466 24.0404 27.2647 24.0404 27.0828L24.0402 27.0827Z" fill="#EFB80B"/>
<path d="M22.2452 23.2935C22.4247 23.3996 22.5919 23.4984 22.759 23.5972C22.9229 23.6941 23.0863 23.7918 23.2509 23.8876C23.2788 23.9038 23.2915 23.921 23.2914 23.9547C23.2902 24.3359 23.2906 24.7171 23.2904 25.0983C23.2904 25.1087 23.2887 25.119 23.2879 25.129C23.2617 25.1326 23.2473 25.1165 23.231 25.1069C22.9215 24.926 22.6124 24.7437 22.3021 24.5642C22.2607 24.5403 22.2439 24.5147 22.2441 24.4657C22.2463 24.1001 22.2453 23.7343 22.2453 23.3687V23.2935H22.2452Z" fill="#EFB80B"/>
<path d="M26.8833 25.1376C26.8833 24.7317 26.8835 24.337 26.8828 23.942C26.8828 23.9186 26.8923 23.9061 26.911 23.8949C27.2432 23.6992 27.5753 23.5029 27.9075 23.3071C27.9106 23.3052 27.9158 23.3068 27.9212 23.3068C27.9348 23.3236 27.9282 23.3443 27.9283 23.3632C27.9288 23.7315 27.9283 24.0998 27.9292 24.4682C27.9292 24.5059 27.9248 24.5339 27.887 24.5558C27.5648 24.7425 27.2439 24.9313 26.9225 25.1193C26.9134 25.1247 26.9035 25.1283 26.8833 25.1376Z" fill="#EFB80B"/>
<path d="M26.1337 20.1251C25.9844 20.2132 25.8459 20.295 25.7073 20.3766C25.5146 20.49 25.3217 20.6031 25.1295 20.7172C25.1012 20.7341 25.0787 20.7425 25.0455 20.7226C24.7244 20.5308 24.402 20.3409 24.0803 20.1501C24.0696 20.1437 24.055 20.1401 24.0508 20.1184C24.1665 20.0498 24.2838 19.9803 24.4012 19.9108C24.6127 19.7857 24.8242 19.6606 25.0357 19.5355C25.0603 19.521 25.0809 19.5046 25.1138 19.524C25.4488 19.7227 25.7848 19.9198 26.1339 20.1251H26.1337Z" fill="#EFB80B"/>
</g>
</g>
<defs>
<clipPath id="clip0_5098_735314">
<rect width="24" height="24" fill="white"/>
</clipPath>
<clipPath id="clip1_5098_735314">
<rect width="20" height="20" fill="white" transform="translate(15 13.0303)"/>
</clipPath>
<clipPath id="clip2_5098_735314">
<rect width="9.29012" height="10.8988" fill="white" transform="translate(20.4414 17.4053)"/>
</clipPath>
</defs>
</svg>
