<svg width="35" height="34" viewBox="0 0 35 34" fill="none" xmlns="http://www.w3.org/2000/svg">
<g clip-path="url(#clip0_6987_746892)">
<path fill-rule="evenodd" clip-rule="evenodd" d="M12 0.499023C15.2053 0.499023 18.2188 1.67174 20.4853 3.80111C22.7518 5.93048 24 8.76173 24 11.7731C24 12.3789 23.9495 12.9774 23.8503 13.5644C19.1345 14.1042 15.4157 17.9244 15.0326 22.6861C14.0543 22.9244 13.0372 23.0471 12 23.0471C8.79474 23.0471 5.78119 21.8745 3.51471 19.7451C1.24823 17.6157 0 14.7845 0 11.7731C0 8.76173 1.24823 5.93048 3.51471 3.80111C5.78119 1.67174 8.79474 0.499023 12 0.499023Z" fill="#F68420"/>
<path d="M4 5.19629H8.70465L12.0954 14.9466L15.4861 5.19629H20L14.257 19.2889H9.67953L4 5.19629Z" fill="white"/>
</g>
<g clip-path="url(#clip1_6987_746892)">
<rect x="15.5" y="13.2275" width="19" height="17.7901" rx="8.89505" fill="#8247E5" stroke="white"/>
<path d="M26.091 21.9627C26.125 21.9789 26.1496 21.9895 26.173 22.0021C26.4676 22.1594 26.7617 22.3173 27.0565 22.4742C27.1659 22.5325 27.1389 22.5263 27.235 22.4751C27.7198 22.2165 28.2041 21.957 28.6893 21.699C28.7255 21.6798 28.7404 21.6578 28.7403 21.6186C28.7391 21.0879 28.7392 20.5572 28.7402 20.0265C28.7403 19.9906 28.7292 19.9684 28.6943 19.9498C28.1944 19.6836 27.695 19.4165 27.1962 19.1484C27.1597 19.1289 27.1325 19.1302 27.0963 19.1497C26.635 19.3982 26.1728 19.6451 25.7107 19.8924C25.6716 19.9134 25.6331 19.9352 25.5933 19.9552C25.5676 19.9681 25.5561 19.9867 25.5572 20.0134C25.558 20.0333 25.5571 20.0533 25.5571 20.0733C25.5572 21.4878 25.5571 22.9024 25.5579 24.317C25.5579 24.4184 25.5356 24.5125 25.46 24.5879C25.4226 24.6252 25.3771 24.6579 25.3296 24.6837C25.066 24.8267 24.8006 24.967 24.5358 25.1083C24.0623 25.3611 23.5886 25.6136 23.1154 25.867C23.0359 25.9096 22.9555 25.9409 22.8604 25.9389C22.7795 25.9372 22.7091 25.9136 22.6412 25.8772C22.4083 25.7526 22.1753 25.6281 21.9423 25.5036C21.4428 25.2367 20.9433 24.9698 20.4438 24.7029C20.4215 24.691 20.3988 24.6793 20.3772 24.6664C20.2525 24.5915 20.1888 24.4839 20.1807 24.3473C20.1793 24.3234 20.1803 24.2994 20.1803 24.2755C20.1805 23.4973 20.182 22.7192 20.1797 21.9411C20.1792 21.7639 20.2557 21.639 20.4226 21.5507C21.1399 21.1708 21.8549 20.7871 22.5707 20.4048C22.6061 20.3859 22.6413 20.3665 22.6774 20.3489C22.808 20.2855 22.9397 20.2883 23.0662 20.3549C23.3392 20.4988 23.6096 20.6471 23.8825 20.7912C23.9272 20.8148 23.9299 20.8475 23.9298 20.8867C23.9295 21.2258 23.9298 21.565 23.9295 21.9042C23.9295 21.9256 23.9267 21.947 23.9244 21.9797C23.8937 21.9667 23.8707 21.959 23.8498 21.9479C23.6312 21.8322 23.4129 21.716 23.1946 21.5999C23.0994 21.5492 23.0038 21.4994 22.9096 21.4472C22.8746 21.4278 22.8473 21.4267 22.8098 21.4469C22.3391 21.7002 21.8672 21.9517 21.3956 22.2035C21.3658 22.2195 21.3363 22.236 21.3061 22.2513C21.2811 22.264 21.2674 22.2817 21.2691 22.309C21.2699 22.3228 21.2689 22.3368 21.2689 22.3509C21.2689 22.8656 21.27 23.3804 21.2675 23.8951C21.2673 23.9527 21.2874 23.9841 21.341 24.0125C21.8175 24.2646 22.2923 24.5192 22.7677 24.7731C22.7807 24.78 22.795 24.7855 22.8067 24.794C22.8427 24.8198 22.8745 24.8141 22.9128 24.7936C23.4098 24.5266 23.9074 24.2606 24.4058 23.9959C24.4442 23.9755 24.4526 23.951 24.4525 23.9138C24.4515 23.5028 24.4519 23.0918 24.4519 22.6808C24.4519 21.6613 24.4526 20.6417 24.4513 19.6222C24.4511 19.4628 24.5237 19.3482 24.6711 19.2696C25.4189 18.8708 26.1665 18.4717 26.9136 18.072C27.0634 17.9918 27.2102 17.9916 27.3596 18.0715C28.1052 18.47 28.8509 18.8681 29.597 19.2655C29.7051 19.3231 29.7805 19.4029 29.8114 19.5154C29.8197 19.5458 29.8221 19.5784 29.8221 19.61C29.8226 20.424 29.8224 21.238 29.8226 22.0521C29.8226 22.1989 29.7523 22.3083 29.617 22.3818C29.4723 22.4605 29.3263 22.5373 29.181 22.615C28.5751 22.9385 27.9692 23.262 27.3635 23.5856C27.2226 23.6609 27.0802 23.6617 26.9402 23.5877C26.673 23.4464 26.4079 23.3017 26.1409 23.1601C26.0984 23.1376 26.0809 23.1108 26.0811 23.0648C26.0827 22.7217 26.0817 22.3785 26.082 22.0353C26.082 22.0146 26.087 21.9939 26.0909 21.9627L26.091 21.9627Z" fill="white"/>
</g>
<defs>
<clipPath id="clip0_6987_746892">
<rect width="24" height="22.5481" fill="white" transform="translate(0 0.499023)"/>
</clipPath>
<clipPath id="clip1_6987_746892">
<rect width="20" height="18.7901" fill="white" transform="translate(15 12.7275)"/>
</clipPath>
</defs>
</svg>
