<svg width="20" height="20" viewBox="0 0 20 20" fill="none" xmlns="http://www.w3.org/2000/svg">
<g id="Vector">
<path id="Union" fill-rule="evenodd" clip-rule="evenodd" d="M3.75 0H0V3.75V20H3.75V3.75L20 3.75V1.90735e-06L3.75 0Z" fill="url(#paint0_linear_15135_24)"/>
<path id="Rectangle 1272" d="M20 15.625L16.25 20L16.25 3.48686e-06L20 3.8147e-06L20 15.625Z" fill="url(#paint1_linear_15135_24)"/>
<path id="Rectangle 1273" d="M5.73712e-07 20L0 15.625L20 15.625L16.25 20L5.73712e-07 20Z" fill="url(#paint2_linear_15135_24)"/>
<g id="30">
<path d="M7.31923 12.5413C6.60962 12.5413 6.06154 12.3654 5.675 12.0135C5.29423 11.6558 5.06923 11.2 5 10.6462H6.36731C6.425 10.8712 6.53462 11.0471 6.69615 11.174C6.86346 11.2952 7.07115 11.3558 7.31923 11.3558C7.60192 11.3558 7.82404 11.2837 7.98558 11.1394C8.14712 10.9894 8.22788 10.799 8.22788 10.5683C8.22788 10.3317 8.14423 10.1442 7.97692 10.0058C7.80962 9.86154 7.59327 9.78942 7.32788 9.78942H6.8V8.76827H7.35385C7.59038 8.76827 7.77788 8.70769 7.91635 8.58654C8.06058 8.45961 8.13269 8.28942 8.13269 8.07596C8.13269 7.85673 8.05769 7.68077 7.90769 7.54808C7.75769 7.41538 7.55865 7.34904 7.31058 7.34904C7.06827 7.34904 6.875 7.4125 6.73077 7.53942C6.58654 7.66058 6.48846 7.83077 6.43654 8.05H5.12115C5.20192 7.53077 5.41538 7.10096 5.76154 6.76058C6.11346 6.42019 6.63269 6.25 7.31923 6.25C7.82115 6.25 8.23077 6.34231 8.54808 6.52692C8.87115 6.70577 9.10481 6.93077 9.24904 7.20192C9.39327 7.47308 9.46538 7.74712 9.46538 8.02404C9.46538 8.3125 9.39904 8.55192 9.26635 8.74231C9.13365 8.92692 8.98942 9.06538 8.83365 9.15769C8.68365 9.24423 8.59135 9.2875 8.55673 9.2875V9.33942C9.28942 9.70865 9.56346 9.84423 9.37885 9.74615C9.19423 9.64808 9.17404 9.7 9.31827 9.90192C9.4625 10.1038 9.53461 10.3721 9.53461 10.7067C9.53461 11.0356 9.45385 11.3385 9.29231 11.6154C9.13077 11.8923 8.88269 12.1173 8.54808 12.2904C8.21923 12.4577 7.80961 12.5413 7.31923 12.5413Z" fill="#2FB8B8"/>
<path d="M12.5871 12.5933C11.7794 12.5933 11.1794 12.3337 10.7871 11.8144C10.3947 11.2952 10.1986 10.6058 10.1986 9.74615V9.10577C10.1986 8.25192 10.3947 7.57115 10.7871 7.06346C11.1794 6.55 11.7794 6.29327 12.5871 6.29327C13.3947 6.29327 13.9919 6.55 14.3784 7.06346C14.7707 7.57115 14.9669 8.25192 14.9669 9.10577V9.74615C14.9669 10.6058 14.7707 11.2952 14.3784 11.8144C13.9919 12.3337 13.3947 12.5933 12.5871 12.5933ZM12.5871 11.4337C12.8986 11.4337 13.1207 11.2981 13.2534 11.0269C13.3861 10.7558 13.4524 10.3548 13.4524 9.82404V9.02788C13.4524 8.50288 13.3861 8.11058 13.2534 7.85096C13.1207 7.58558 12.8986 7.45288 12.5871 7.45288C12.2755 7.45288 12.0505 7.58558 11.9121 7.85096C11.7794 8.11058 11.713 8.50288 11.713 9.02788V9.82404C11.713 10.349 11.7794 10.75 11.9121 11.0269C12.0505 11.2981 12.2755 11.4337 12.5871 11.4337Z" fill="#2FB8B8"/>
</g>
</g>
<defs>
<linearGradient id="paint0_linear_15135_24" x1="-1.25" y1="1.25" x2="24.375" y2="21.25" gradientUnits="userSpaceOnUse">
<stop stop-color="#D3D8F0"/>
<stop offset="1" stop-color="#A7ACCA"/>
</linearGradient>
<linearGradient id="paint1_linear_15135_24" x1="12.0833" y1="-1.53846" x2="26.3857" y2="0.184445" gradientUnits="userSpaceOnUse">
<stop stop-color="#A7ACCA"/>
<stop offset="0.496645" stop-color="#D3D8F0"/>
</linearGradient>
<linearGradient id="paint2_linear_15135_24" x1="21.5385" y1="12.0833" x2="19.8156" y2="26.3857" gradientUnits="userSpaceOnUse">
<stop stop-color="#D3D8F0"/>
<stop offset="1" stop-color="#A7ACCA"/>
</linearGradient>
</defs>
</svg>
