<svg width="32" height="32" viewBox="0 0 32 32" fill="none" xmlns="http://www.w3.org/2000/svg">
<path d="M4.70508 28H17.4551C17.8434 28 18.1582 27.6852 18.1582 27.2969V26.5469C18.1582 25.7701 17.5287 25.1406 16.752 25.1406V24.3C16.752 23.1869 15.8463 22.2812 14.7332 22.2812H7.42694C6.31384 22.2812 5.4082 23.1869 5.4082 24.3V25.1406C4.63147 25.1406 4.00195 25.7701 4.00195 26.5469V27.2969C4.00195 27.6851 4.31689 28 4.70508 28Z" fill="url(#paint0_linear_10120_436091)"/>
<path d="M4.70508 28H17.4551C17.8434 28 18.1582 27.6852 18.1582 27.2969V26.5469C18.1582 25.7701 17.5287 25.1406 16.752 25.1406V24.3C16.752 23.1869 15.8463 22.2812 14.7332 22.2812H7.42694C6.31384 22.2812 5.4082 23.1869 5.4082 24.3V25.1406C4.63147 25.1406 4.00195 25.7701 4.00195 26.5469V27.2969C4.00195 27.6851 4.31689 28 4.70508 28Z" fill="url(#paint1_linear_10120_436091)"/>
<path d="M12.802 19.4853C13.2692 20.1055 14.1511 20.2295 14.7713 19.762C15.3916 19.2947 15.5154 18.4129 15.0481 17.7925L10.8165 12.1772C10.3491 11.5569 9.46742 11.4331 8.84725 11.9004C8.22688 12.3679 8.10292 13.2495 8.57039 13.8699L12.802 19.4853Z" fill="url(#paint2_linear_10120_436091)"/>
<path d="M22.9092 11.8681C23.3767 12.4882 24.2583 12.6122 24.8787 12.1447C25.4989 11.6774 25.6228 10.7958 25.1554 10.1754L20.9238 4.56014C20.4565 3.93977 19.5747 3.81581 18.9545 4.28328C18.3343 4.75075 18.2104 5.6324 18.6778 6.25276L22.9092 11.8681Z" fill="url(#paint3_linear_10120_436091)"/>
<path d="M19.8235 15.9541C20.8628 15.171 21.643 14.1985 22.131 13.1746L17.2073 6.64062C16.0885 6.82758 14.9388 7.30933 13.8993 8.09265C12.86 8.87579 12.0798 9.84827 11.5918 10.872L16.5155 17.4063C17.6343 17.2194 18.784 16.7374 19.8235 15.9541Z" fill="url(#paint4_linear_10120_436091)"/>
<path d="M21.7264 16.1367C21.399 16.4703 21.0543 16.7902 20.6741 17.0768C20.2938 17.3632 19.8912 17.6065 19.4805 17.8293L20.3973 19.0461L22.6434 17.3536L21.7264 16.1367Z" fill="url(#paint5_linear_10120_436091)"/>
<path d="M23.4844 18.4766L21.2383 20.169L25.4698 25.7845C25.9373 26.4048 26.819 26.5286 27.4391 26.0613C28.0595 25.5939 28.1833 24.7122 27.716 24.0919L23.4844 18.4766Z" fill="url(#paint6_linear_10120_436091)"/>
<path d="M7.00195 25C7.00195 24.4477 7.44967 24 8.00195 24H14.002C14.5542 24 15.002 24.4477 15.002 25V26H7.00195V25Z" fill="#D9D9D9"/>
<path d="M7.00195 25C7.00195 24.4477 7.44967 24 8.00195 24H14.002C14.5542 24 15.002 24.4477 15.002 25V26H7.00195V25Z" fill="url(#paint7_linear_10120_436091)"/>
<defs>
<linearGradient id="paint0_linear_10120_436091" x1="8.95715" y1="25.4266" x2="15.1669" y2="35.524" gradientUnits="userSpaceOnUse">
<stop stop-color="#FFA133"/>
<stop offset="1" stop-color="#FFC633"/>
</linearGradient>
<linearGradient id="paint1_linear_10120_436091" x1="-3.82916" y1="24.8343" x2="21.557" y2="30.9348" gradientUnits="userSpaceOnUse">
<stop stop-color="#E8F4FB"/>
<stop offset="1" stop-color="#D2E0F5"/>
</linearGradient>
<linearGradient id="paint2_linear_10120_436091" x1="10.7528" y1="16.2527" x2="19.405" y2="21.0029" gradientUnits="userSpaceOnUse">
<stop stop-color="#FFA133"/>
<stop offset="1" stop-color="#FFC633"/>
</linearGradient>
<linearGradient id="paint3_linear_10120_436091" x1="20.8602" y1="8.63541" x2="29.5123" y2="13.3856" gradientUnits="userSpaceOnUse">
<stop stop-color="#FFA133"/>
<stop offset="1" stop-color="#FFC633"/>
</linearGradient>
<linearGradient id="paint4_linear_10120_436091" x1="15.2809" y1="12.5618" x2="27.1992" y2="20.226" gradientUnits="userSpaceOnUse">
<stop stop-color="#FFA133"/>
<stop offset="1" stop-color="#FFC633"/>
</linearGradient>
<linearGradient id="paint5_linear_10120_436091" x1="20.5876" y1="17.7369" x2="23.936" y2="20.1281" gradientUnits="userSpaceOnUse">
<stop stop-color="#FFA133"/>
<stop offset="1" stop-color="#FFC633"/>
</linearGradient>
<linearGradient id="paint6_linear_10120_436091" x1="23.6048" y1="22.804" x2="31.8008" y2="27.4302" gradientUnits="userSpaceOnUse">
<stop stop-color="#FFA133"/>
<stop offset="1" stop-color="#FFC633"/>
</linearGradient>
<linearGradient id="paint7_linear_10120_436091" x1="7.00195" y1="24.2857" x2="7.81091" y2="27.7025" gradientUnits="userSpaceOnUse">
<stop stop-color="white"/>
<stop offset="1" stop-color="#E2F1FA"/>
</linearGradient>
</defs>
</svg>
