<svg width="32" height="32" viewBox="0 0 32 32" fill="none" xmlns="http://www.w3.org/2000/svg">
<path d="M6.66663 2.66699H2.66663V29.3337H29.3333V25.3337H6.66663V2.66699Z" fill="url(#paint0_linear_17922_8920)"/>
<path fill-rule="evenodd" clip-rule="evenodd" d="M22 16.6673C20.8442 17.4619 20.3105 18.2199 19.9741 19.0243C19.7104 19.6549 19.1675 20.8994 17.4505 21.9848C15.6746 23.1075 12.7412 24.0007 8 24.0007V22.7253C11.9255 22.7253 14.0639 22.0119 15.3239 21.2153C16.6429 20.3815 17.1 19.3941 17.3592 18.7741C17.6895 17.9843 19.1558 15.764 20.6667 14.7253C22.2454 13.6399 23.8902 13.334 28 13.334V16.0007C24.7765 16.0007 23.3333 16.0007 22 16.6673Z" fill="#ACEDED"/>
<path fill-rule="evenodd" clip-rule="evenodd" d="M21.9279 13.1228C20.7721 14.265 20.3105 15.6906 19.9741 16.8468C19.7104 17.7533 19.1675 19.5423 17.4505 21.1025C15.6746 22.7164 12.7412 24.0003 8 24.0003V22.167C11.9255 22.167 14.0639 21.1415 15.3239 19.9964C16.6429 18.7978 17.1 17.3784 17.3592 16.4872C17.6895 15.3518 19.1558 12.1602 20.6667 10.667C22.2454 9.10676 23.8902 8.66699 28 8.66699V11.167C24.7765 11.167 23.0158 12.0476 21.9279 13.1228Z" fill="#82DBDB"/>
<path fill-rule="evenodd" clip-rule="evenodd" d="M21.9279 8.17841C20.7721 9.83985 20.3105 11.9134 19.9741 13.5951C19.7104 14.9138 19.1675 17.5159 17.4505 19.7853C15.6746 22.1328 12.7412 24.0003 8 24.0003V21.3337C11.9255 21.3337 14.0639 19.842 15.3239 18.1765C16.6429 16.433 17.1 14.3684 17.3592 13.0722C17.6895 11.4206 18.2279 8.82747 19.7388 6.65557C21.3175 4.38614 23.8902 2.66699 28 2.66699V5.33366C24.7765 5.33366 23.0158 6.61451 21.9279 8.17841Z" fill="#2FB8B8"/>
<defs>
<linearGradient id="paint0_linear_17922_8920" x1="3.75064" y1="33.9713" x2="32.4858" y2="19.2429" gradientUnits="userSpaceOnUse">
<stop stop-color="#F2F4FF"/>
<stop offset="1" stop-color="#D2E0F5"/>
</linearGradient>
</defs>
</svg>
