<svg width="30" height="30" viewBox="0 0 30 30" fill="none" xmlns="http://www.w3.org/2000/svg">
<path d="M15.3353 23.2096C19.6196 23.2096 23.0928 19.6481 23.0928 15.2547C23.0928 10.8613 19.6196 7.2998 15.3353 7.2998C11.051 7.2998 7.57785 10.8613 7.57785 15.2547C7.57785 16.5272 7.86923 17.73 8.38731 18.7966C8.52499 19.08 8.57081 19.404 8.491 19.7099L8.02896 21.4807C7.82838 22.2494 8.51419 22.9527 9.26382 22.747L10.9907 22.2732C11.289 22.1913 11.6049 22.2383 11.8813 22.3795C12.9215 22.9108 14.0944 23.2096 15.3353 23.2096Z" fill="white"/>
<path d="M10.5109 16.3688L10.9863 15.9533L11.1877 15.7863C11.3761 15.6321 11.5232 15.5065 11.6288 15.4094C11.7345 15.3123 11.8216 15.2095 11.8901 15.101C11.9586 14.9896 11.9929 14.8768 11.9929 14.7626C11.9929 14.6398 11.9558 14.5356 11.8815 14.4499C11.8073 14.3642 11.6945 14.3214 11.5432 14.3214C11.3576 14.3214 11.2333 14.3757 11.1705 14.4842C11.1106 14.5898 11.0806 14.7026 11.0806 14.8226V14.874H10.498C10.498 14.6598 10.5395 14.4728 10.6223 14.3128C10.7079 14.1529 10.8279 14.0301 10.9821 13.9445C11.1391 13.856 11.3233 13.8117 11.5346 13.8117C11.7488 13.8117 11.9315 13.8531 12.0829 13.9359C12.2371 14.0159 12.3527 14.1258 12.4298 14.2657C12.5098 14.4057 12.5497 14.5598 12.5497 14.7283C12.5497 14.8968 12.514 15.051 12.4427 15.1909C12.3713 15.328 12.2856 15.4479 12.1857 15.5507C12.0857 15.6507 11.9572 15.7663 11.8002 15.8977L11.7316 15.9576L11.2905 16.3346V16.356H12.5754V16.8742H10.5152L10.5109 16.3688Z" fill="#05A7A7"/>
<path d="M10.5109 16.3688L10.9863 15.9533L11.1877 15.7863C11.3761 15.6321 11.5232 15.5065 11.6288 15.4094C11.7345 15.3123 11.8216 15.2095 11.8901 15.101C11.9586 14.9896 11.9929 14.8768 11.9929 14.7626C11.9929 14.6398 11.9558 14.5356 11.8815 14.4499C11.8073 14.3642 11.6945 14.3214 11.5432 14.3214C11.3576 14.3214 11.2333 14.3757 11.1705 14.4842C11.1106 14.5898 11.0806 14.7026 11.0806 14.8226V14.874H10.498C10.498 14.6598 10.5395 14.4728 10.6223 14.3128C10.7079 14.1529 10.8279 14.0301 10.9821 13.9445C11.1391 13.856 11.3233 13.8117 11.5346 13.8117C11.7488 13.8117 11.9315 13.8531 12.0829 13.9359C12.2371 14.0159 12.3527 14.1258 12.4298 14.2657C12.5098 14.4057 12.5497 14.5598 12.5497 14.7283C12.5497 14.8968 12.514 15.051 12.4427 15.1909C12.3713 15.328 12.2856 15.4479 12.1857 15.5507C12.0857 15.6507 11.9572 15.7663 11.8002 15.8977L11.7316 15.9576L11.2905 16.3346V16.356H12.5754V16.8742H10.5152L10.5109 16.3688Z" fill="url(#paint0_linear_11293_169808)"/>
<path d="M14.3648 16.1632L13.0412 16.1589V15.7092L14.202 13.876H14.9473V15.7092H15.3199V16.1632H14.9473V16.8742H14.3648V16.1632ZM14.3691 15.7006V14.5741L13.6366 15.7006H14.3691Z" fill="#05A7A7"/>
<path d="M14.3648 16.1632L13.0412 16.1589V15.7092L14.202 13.876H14.9473V15.7092H15.3199V16.1632H14.9473V16.8742H14.3648V16.1632ZM14.3691 15.7006V14.5741L13.6366 15.7006H14.3691Z" fill="url(#paint1_linear_11293_169808)"/>
<path d="M17.2271 13.499H17.7839L16.2934 17.7009H15.7365L17.2271 13.499Z" fill="#05A7A7"/>
<path d="M17.2271 13.499H17.7839L16.2934 17.7009H15.7365L17.2271 13.499Z" fill="url(#paint2_linear_11293_169808)"/>
<path d="M18.4807 16.8228L19.6329 14.4456V14.4156H18.1551V13.876H20.194V14.4799L19.106 16.8742H18.4807V16.8228Z" fill="#05A7A7"/>
<path d="M18.4807 16.8228L19.6329 14.4456V14.4156H18.1551V13.876H20.194V14.4799L19.106 16.8742H18.4807V16.8228Z" fill="url(#paint3_linear_11293_169808)"/>
<path d="M5.93664 17.9347C5.93664 18.7947 5.93734 19.6547 5.93594 20.5147C5.93524 20.9819 5.79337 21.1303 5.34819 21.131C4.81635 21.1324 4.28451 21.1353 3.75267 21.1303C2.94337 21.1224 2.3724 20.5362 2.3689 19.7034C2.36401 18.5123 2.36401 17.3205 2.3689 16.1294C2.3724 15.3168 2.90983 14.7391 3.70514 14.7119C4.28031 14.6925 4.85618 14.7011 5.43135 14.709C5.78358 14.714 5.92755 14.8782 5.93594 15.2472C5.93664 15.2652 5.93594 15.2831 5.93594 15.301C5.93664 16.1789 5.93664 17.0568 5.93664 17.9347Z" fill="white"/>
<path d="M5.93664 17.9347C5.93664 18.7947 5.93734 19.6547 5.93594 20.5147C5.93524 20.9819 5.79337 21.1303 5.34819 21.131C4.81635 21.1324 4.28451 21.1353 3.75267 21.1303C2.94337 21.1224 2.3724 20.5362 2.3689 19.7034C2.36401 18.5123 2.36401 17.3205 2.3689 16.1294C2.3724 15.3168 2.90983 14.7391 3.70514 14.7119C4.28031 14.6925 4.85618 14.7011 5.43135 14.709C5.78358 14.714 5.92755 14.8782 5.93594 15.2472C5.93664 15.2652 5.93594 15.2831 5.93594 15.301C5.93664 16.1789 5.93664 17.0568 5.93664 17.9347Z" fill="url(#paint4_linear_11293_169808)"/>
<path d="M24.7952 17.8637C24.7952 16.9951 24.7938 16.1258 24.7959 15.2572C24.7966 14.8208 24.9385 14.6703 25.3564 14.6674C25.8883 14.6631 26.4201 14.6603 26.9519 14.6681C27.8185 14.681 28.3623 15.2529 28.3637 16.1473C28.3658 17.3026 28.3658 18.4585 28.3637 19.6138C28.3616 20.5139 27.8004 21.088 26.9219 21.0908C26.3901 21.093 25.8582 21.0937 25.3264 21.0901C24.9588 21.088 24.798 20.9267 24.7966 20.5512C24.7931 19.6554 24.7952 18.7595 24.7952 17.8637Z" fill="white"/>
<path d="M24.7952 17.8637C24.7952 16.9951 24.7938 16.1258 24.7959 15.2572C24.7966 14.8208 24.9385 14.6703 25.3564 14.6674C25.8883 14.6631 26.4201 14.6603 26.9519 14.6681C27.8185 14.681 28.3623 15.2529 28.3637 16.1473C28.3658 17.3026 28.3658 18.4585 28.3637 19.6138C28.3616 20.5139 27.8004 21.088 26.9219 21.0908C26.3901 21.093 25.8582 21.0937 25.3264 21.0901C24.9588 21.088 24.798 20.9267 24.7966 20.5512C24.7931 19.6554 24.7952 18.7595 24.7952 17.8637Z" fill="url(#paint5_linear_11293_169808)"/>
<path d="M26.1327 21.7597C26.4255 21.7597 26.7015 21.7597 27.037 21.7597C26.9657 22.1423 26.921 22.5114 26.8266 22.8669C26.1627 25.3816 23.9648 27.164 21.4286 27.2406C20.6801 27.2636 19.9302 27.2478 19.181 27.2485C19.1307 27.2485 19.0804 27.2371 19.0161 27.2285C19.0161 26.9368 19.0161 26.6544 19.0161 26.3441C19.1118 26.3398 19.2048 26.3319 19.297 26.3319C19.9763 26.3298 20.6563 26.3412 21.3356 26.3262C23.8047 26.2717 25.821 24.3833 26.1124 21.8643C26.1159 21.8385 26.1229 21.8127 26.1327 21.7597Z" fill="white"/>
<path d="M26.1327 21.7597C26.4255 21.7597 26.7015 21.7597 27.037 21.7597C26.9657 22.1423 26.921 22.5114 26.8266 22.8669C26.1627 25.3816 23.9648 27.164 21.4286 27.2406C20.6801 27.2636 19.9302 27.2478 19.181 27.2485C19.1307 27.2485 19.0804 27.2371 19.0161 27.2285C19.0161 26.9368 19.0161 26.6544 19.0161 26.3441C19.1118 26.3398 19.2048 26.3319 19.297 26.3319C19.9763 26.3298 20.6563 26.3412 21.3356 26.3262C23.8047 26.2717 25.821 24.3833 26.1124 21.8643C26.1159 21.8385 26.1229 21.8127 26.1327 21.7597Z" fill="url(#paint6_linear_11293_169808)"/>
<path d="M16.5134 25.8826C16.8789 25.8819 17.2444 25.8783 17.6099 25.8833C17.944 25.8876 18.1019 26.0517 18.1075 26.3957C18.1117 26.6637 18.1117 26.9325 18.1075 27.2005C18.1019 27.5252 17.9384 27.7093 17.6309 27.7122C16.8915 27.7187 16.1514 27.7237 15.412 27.7101C14.9137 27.7015 14.5426 27.293 14.544 26.7927C14.5454 26.2889 14.9165 25.8962 15.4176 25.8847C15.7824 25.8754 16.1479 25.8826 16.5134 25.8826Z" fill="white"/>
<path d="M16.5134 25.8826C16.8789 25.8819 17.2444 25.8783 17.6099 25.8833C17.944 25.8876 18.1019 26.0517 18.1075 26.3957C18.1117 26.6637 18.1117 26.9325 18.1075 27.2005C18.1019 27.5252 17.9384 27.7093 17.6309 27.7122C16.8915 27.7187 16.1514 27.7237 15.412 27.7101C14.9137 27.7015 14.5426 27.293 14.544 26.7927C14.5454 26.2889 14.9165 25.8962 15.4176 25.8847C15.7824 25.8754 16.1479 25.8826 16.5134 25.8826Z" fill="url(#paint7_linear_11293_169808)"/>
<path d="M27.0245 14.133C27.0245 12.5896 26.7205 11.0613 26.1299 9.63531C25.5393 8.20935 24.6736 6.91369 23.5823 5.82231C22.4909 4.73092 21.1954 3.86519 19.7695 3.27454C18.3436 2.68389 16.8154 2.37988 15.272 2.37988C13.7286 2.37988 12.2004 2.68389 10.7745 3.27454C9.34863 3.86519 8.05305 4.73092 6.96173 5.82231C5.87041 6.91369 5.00473 8.20935 4.41411 9.63531C3.82349 11.0613 3.51951 12.5896 3.51951 14.133H4.60982C4.60982 12.7328 4.88561 11.3462 5.42143 10.0526C5.95726 8.75891 6.74263 7.58345 7.7327 6.59332C8.72277 5.60319 9.89816 4.81777 11.1918 4.28192C12.4854 3.74606 13.8718 3.47026 15.272 3.47026C16.6722 3.47026 18.0586 3.74606 19.3522 4.28192C20.6458 4.81777 21.8212 5.60319 22.8113 6.59332C23.8014 7.58345 24.5867 8.75891 25.1226 10.0526C25.6584 11.3462 25.9342 12.7328 25.9342 14.133H27.0245Z" fill="white"/>
<path d="M27.0245 14.133C27.0245 12.5896 26.7205 11.0613 26.1299 9.63531C25.5393 8.20935 24.6736 6.91369 23.5823 5.82231C22.4909 4.73092 21.1954 3.86519 19.7695 3.27454C18.3436 2.68389 16.8154 2.37988 15.272 2.37988C13.7286 2.37988 12.2004 2.68389 10.7745 3.27454C9.34863 3.86519 8.05305 4.73092 6.96173 5.82231C5.87041 6.91369 5.00473 8.20935 4.41411 9.63531C3.82349 11.0613 3.51951 12.5896 3.51951 14.133H4.60982C4.60982 12.7328 4.88561 11.3462 5.42143 10.0526C5.95726 8.75891 6.74263 7.58345 7.7327 6.59332C8.72277 5.60319 9.89816 4.81777 11.1918 4.28192C12.4854 3.74606 13.8718 3.47026 15.272 3.47026C16.6722 3.47026 18.0586 3.74606 19.3522 4.28192C20.6458 4.81777 21.8212 5.60319 22.8113 6.59332C23.8014 7.58345 24.5867 8.75891 25.1226 10.0526C25.6584 11.3462 25.9342 12.7328 25.9342 14.133H27.0245Z" fill="url(#paint8_linear_11293_169808)"/>
<defs>
<linearGradient id="paint0_linear_11293_169808" x1="21.1705" y1="14.485" x2="9.90417" y2="14.485" gradientUnits="userSpaceOnUse">
<stop stop-color="#9396AE"/>
<stop offset="1" stop-color="#C7CBD2"/>
</linearGradient>
<linearGradient id="paint1_linear_11293_169808" x1="21.1705" y1="14.485" x2="9.90417" y2="14.485" gradientUnits="userSpaceOnUse">
<stop stop-color="#9396AE"/>
<stop offset="1" stop-color="#C7CBD2"/>
</linearGradient>
<linearGradient id="paint2_linear_11293_169808" x1="21.1705" y1="14.485" x2="9.90417" y2="14.485" gradientUnits="userSpaceOnUse">
<stop stop-color="#9396AE"/>
<stop offset="1" stop-color="#C7CBD2"/>
</linearGradient>
<linearGradient id="paint3_linear_11293_169808" x1="21.1705" y1="14.485" x2="9.90417" y2="14.485" gradientUnits="userSpaceOnUse">
<stop stop-color="#9396AE"/>
<stop offset="1" stop-color="#C7CBD2"/>
</linearGradient>
<linearGradient id="paint4_linear_11293_169808" x1="28.1543" y1="12.5851" x2="1.52474" y2="12.5851" gradientUnits="userSpaceOnUse">
<stop stop-color="#9396AE"/>
<stop offset="1" stop-color="#C7CBD2"/>
</linearGradient>
<linearGradient id="paint5_linear_11293_169808" x1="28.1543" y1="12.5851" x2="1.52474" y2="12.5851" gradientUnits="userSpaceOnUse">
<stop stop-color="#9396AE"/>
<stop offset="1" stop-color="#C7CBD2"/>
</linearGradient>
<linearGradient id="paint6_linear_11293_169808" x1="28.1543" y1="12.5851" x2="1.52474" y2="12.5851" gradientUnits="userSpaceOnUse">
<stop stop-color="#9396AE"/>
<stop offset="1" stop-color="#C7CBD2"/>
</linearGradient>
<linearGradient id="paint7_linear_11293_169808" x1="28.1543" y1="12.5851" x2="1.52474" y2="12.5851" gradientUnits="userSpaceOnUse">
<stop stop-color="#9396AE"/>
<stop offset="1" stop-color="#C7CBD2"/>
</linearGradient>
<linearGradient id="paint8_linear_11293_169808" x1="28.1543" y1="12.5851" x2="1.52474" y2="12.5851" gradientUnits="userSpaceOnUse">
<stop stop-color="#9396AE"/>
<stop offset="1" stop-color="#C7CBD2"/>
</linearGradient>
</defs>
</svg>
