<svg width="30" height="30" viewBox="0 0 30 30" fill="none" xmlns="http://www.w3.org/2000/svg">
<path fill-rule="evenodd" clip-rule="evenodd" d="M22.5149 14.9549C22.5149 19.3483 19.0418 22.9098 14.7575 22.9098C13.5165 22.9098 12.3436 22.611 11.3035 22.0797C11.0271 21.9385 10.7111 21.8915 10.4128 21.9734L8.68597 22.4472C7.93634 22.6529 7.25053 21.9496 7.4511 21.1809L7.91314 19.4101C7.99296 19.1042 7.94714 18.7802 7.80946 18.4968C7.29138 17.4302 7 16.2274 7 14.9549C7 10.5615 10.4731 7 14.7575 7C16.1901 7 17.532 7.39822 18.6836 8.09259C18.2561 8.61104 17.9993 9.27553 17.9993 10C17.9993 11.6569 19.3424 13 20.9993 13C21.4307 13 21.8409 12.9089 22.2116 12.7449C22.4091 13.4466 22.5149 14.1881 22.5149 14.9549Z" fill="white"/>
<path d="M10.0128 15.8698L10.4883 15.4543L10.6896 15.2873C10.8781 15.1331 11.0251 15.0074 11.1308 14.9103C11.2364 14.8133 11.3235 14.7105 11.3921 14.6019C11.4606 14.4906 11.4949 14.3778 11.4949 14.2636C11.4949 14.1408 11.4577 14.0366 11.3835 13.9509C11.3093 13.8652 11.1965 13.8224 11.0451 13.8224C10.8595 13.8224 10.7353 13.8766 10.6725 13.9852C10.6125 14.0908 10.5825 14.2036 10.5825 14.3235V14.3749H10C10 14.1608 10.0414 13.9737 10.1242 13.8138C10.2099 13.6539 10.3298 13.5311 10.484 13.4455C10.6411 13.3569 10.8252 13.3127 11.0366 13.3127C11.2507 13.3127 11.4335 13.3541 11.5848 13.4369C11.739 13.5168 11.8547 13.6268 11.9318 13.7667C12.0117 13.9066 12.0517 14.0608 12.0517 14.2293C12.0517 14.3978 12.016 14.552 11.9446 14.6919C11.8732 14.829 11.7876 14.9489 11.6876 15.0517C11.5877 15.1516 11.4592 15.2673 11.3021 15.3986L11.2336 15.4586L10.7924 15.8355V15.8569H12.0774V16.3752H10.0171L10.0128 15.8698Z" fill="url(#paint0_linear_11470_108474)"/>
<path d="M13.8667 15.6642L12.5432 15.6599V15.2102L13.704 13.3769H14.4493V15.2102H14.8219V15.6642H14.4493V16.3752H13.8667V15.6642ZM13.871 15.2016V14.0751L13.1386 15.2016H13.871Z" fill="url(#paint1_linear_11470_108474)"/>
<path d="M16.7291 13H17.2859L15.7953 17.2019H15.2385L16.7291 13Z" fill="url(#paint2_linear_11470_108474)"/>
<path d="M17.9826 16.3238L19.1348 13.9466V13.9166H17.6571V13.3769H19.6959V13.9809L18.608 16.3752H17.9826V16.3238Z" fill="url(#paint3_linear_11470_108474)"/>
<path d="M5.5714 17.5548C5.5714 18.4148 5.5721 19.2748 5.5707 20.1348C5.57 20.602 5.42813 20.7504 4.98295 20.7511C4.45111 20.7525 3.91927 20.7554 3.38743 20.7504C2.57814 20.7425 2.00716 20.1563 2.00367 19.3235C1.99878 18.1324 1.99878 16.9406 2.00367 15.7496C2.00716 14.9369 2.54459 14.3593 3.33991 14.332C3.91508 14.3127 4.49095 14.3213 5.06612 14.3292C5.41835 14.3342 5.56232 14.4983 5.5707 14.8674C5.5714 14.8853 5.5707 14.9032 5.5707 14.9211C5.5714 15.799 5.5714 16.6769 5.5714 17.5548Z" fill="url(#paint4_linear_11470_108474)"/>
<path d="M24.43 17.4838C24.43 16.6152 24.4286 15.7459 24.4307 14.8774C24.4314 14.4409 24.5733 14.2904 24.9912 14.2875C25.523 14.2832 26.0549 14.2804 26.5867 14.2883C27.4533 14.3012 27.997 14.8731 27.9984 15.7674C28.0005 16.9227 28.0005 18.0787 27.9984 19.2339C27.9963 20.134 27.4351 20.7081 26.5567 20.7109C26.0248 20.7131 25.493 20.7138 24.9611 20.7102C24.5935 20.7081 24.4328 20.5468 24.4314 20.1713C24.4279 19.2755 24.43 18.3797 24.43 17.4838Z" fill="url(#paint5_linear_11470_108474)"/>
<path d="M25.7674 21.3798C26.0603 21.3798 26.3363 21.3798 26.6718 21.3798C26.6005 21.7625 26.5558 22.1315 26.4614 22.487C25.7975 25.0018 23.5995 26.7841 21.0633 26.8608C20.3148 26.8837 19.565 26.8679 18.8158 26.8686C18.7655 26.8686 18.7151 26.8572 18.6508 26.8486C18.6508 26.5569 18.6508 26.2745 18.6508 25.9642C18.7466 25.9599 18.8395 25.952 18.9318 25.952C19.6111 25.9499 20.2911 25.9614 20.9704 25.9463C23.4395 25.8918 25.4557 24.0035 25.7472 21.4844C25.7507 21.4586 25.7577 21.4328 25.7674 21.3798Z" fill="url(#paint6_linear_11470_108474)"/>
<path d="M16.1482 25.5027C16.5137 25.502 16.8792 25.4984 17.2447 25.5034C17.5788 25.5077 17.7367 25.6718 17.7423 26.0158C17.7465 26.2839 17.7465 26.5526 17.7423 26.8206C17.7367 27.1453 17.5732 27.3295 17.2657 27.3323C16.5263 27.3388 15.7862 27.3438 15.0468 27.3302C14.5485 27.3216 14.1774 26.9131 14.1788 26.4128C14.1802 25.909 14.5513 25.5163 15.0524 25.5048C15.4172 25.4955 15.7827 25.5027 16.1482 25.5027Z" fill="url(#paint7_linear_11470_108474)"/>
<path d="M26.6592 13.7532C26.6592 12.2097 26.3553 10.6814 25.7646 9.25542C25.174 7.82946 24.3083 6.5338 23.217 5.44242C22.1257 4.35104 20.8301 3.48531 19.4042 2.89466C17.9784 2.304 16.4501 2 14.9068 2C13.3634 2 11.8352 2.304 10.4093 2.89466C8.9834 3.48531 7.68781 4.35104 6.5965 5.44242C5.50518 6.53381 4.63949 7.82947 4.04888 9.25542C3.45826 10.6814 3.15427 12.2097 3.15427 13.7532H4.24459C4.24459 12.3529 4.52037 10.9664 5.0562 9.67269C5.59202 8.37902 6.37739 7.20357 7.36747 6.21344C8.35754 5.22331 9.53293 4.43789 10.8265 3.90203C12.1201 3.36618 13.5066 3.09038 14.9068 3.09038C16.3069 3.09038 17.6934 3.36618 18.987 3.90203C20.2806 4.43789 21.456 5.2233 22.4461 6.21344C23.4361 7.20357 24.2215 8.37902 24.7573 9.67269C25.2931 10.9664 25.5689 12.3529 25.5689 13.7532H26.6592Z" fill="url(#paint8_linear_11470_108474)"/>
<circle cx="21" cy="10" r="2.5" fill="url(#paint9_linear_11470_108474)"/>
<defs>
<linearGradient id="paint0_linear_11470_108474" x1="12.8958" y1="13.6999" x2="19.3008" y2="25.5166" gradientUnits="userSpaceOnUse">
<stop stop-color="#FF4B4B"/>
<stop offset="1" stop-color="#FFB6B6"/>
</linearGradient>
<linearGradient id="paint1_linear_11470_108474" x1="12.8958" y1="13.6999" x2="19.3008" y2="25.5166" gradientUnits="userSpaceOnUse">
<stop stop-color="#FF4B4B"/>
<stop offset="1" stop-color="#FFB6B6"/>
</linearGradient>
<linearGradient id="paint2_linear_11470_108474" x1="12.8958" y1="13.6999" x2="19.3008" y2="25.5166" gradientUnits="userSpaceOnUse">
<stop stop-color="#FF4B4B"/>
<stop offset="1" stop-color="#FFB6B6"/>
</linearGradient>
<linearGradient id="paint3_linear_11470_108474" x1="12.8958" y1="13.6999" x2="19.3008" y2="25.5166" gradientUnits="userSpaceOnUse">
<stop stop-color="#FF4B4B"/>
<stop offset="1" stop-color="#FFB6B6"/>
</linearGradient>
<linearGradient id="paint4_linear_11470_108474" x1="9.7653" y1="6.22038" x2="54.9734" y2="43.309" gradientUnits="userSpaceOnUse">
<stop stop-color="#FF4B4B"/>
<stop offset="1" stop-color="#FFB6B6"/>
</linearGradient>
<linearGradient id="paint5_linear_11470_108474" x1="9.7653" y1="6.22038" x2="54.9734" y2="43.309" gradientUnits="userSpaceOnUse">
<stop stop-color="#FF4B4B"/>
<stop offset="1" stop-color="#FFB6B6"/>
</linearGradient>
<linearGradient id="paint6_linear_11470_108474" x1="9.7653" y1="6.22038" x2="54.9734" y2="43.309" gradientUnits="userSpaceOnUse">
<stop stop-color="#FF4B4B"/>
<stop offset="1" stop-color="#FFB6B6"/>
</linearGradient>
<linearGradient id="paint7_linear_11470_108474" x1="9.7653" y1="6.22038" x2="54.9734" y2="43.309" gradientUnits="userSpaceOnUse">
<stop stop-color="#FF4B4B"/>
<stop offset="1" stop-color="#FFB6B6"/>
</linearGradient>
<linearGradient id="paint8_linear_11470_108474" x1="9.7653" y1="6.22038" x2="54.9734" y2="43.309" gradientUnits="userSpaceOnUse">
<stop stop-color="#FF4B4B"/>
<stop offset="1" stop-color="#FFB6B6"/>
</linearGradient>
<linearGradient id="paint9_linear_11470_108474" x1="19.9933" y1="8.33279" x2="28.8664" y2="15.4271" gradientUnits="userSpaceOnUse">
<stop stop-color="#FF4B4B"/>
<stop offset="1" stop-color="#FFB6B6"/>
</linearGradient>
</defs>
</svg>
