<svg width="24" height="24" viewBox="0 0 24 24" fill="none" xmlns="http://www.w3.org/2000/svg">
<g id="icons/24/delete">
<g id="Group 1000001898">
<g id="Group" opacity="0.5">
<path id="Vector" d="M17.6538 5.10526H14.6923V4.57895C14.6923 3.70691 13.9691 3 13.0769 3H10.9231C10.0309 3 9.30769 3.70691 9.30769 4.57895V5.10526H6.34615C5.60271 5.10526 5 5.69438 5 6.42105V7.47368C5 7.76438 5.24106 8 5.53846 8H18.4615C18.7589 8 19 7.76438 19 7.47368V6.42105C19 5.69438 18.3973 5.10526 17.6538 5.10526ZM10.3846 4.57895C10.3846 4.28882 10.6263 4.05263 10.9231 4.05263H13.0769C13.3738 4.05263 13.6154 4.28882 13.6154 4.57895V5.10526H10.3846V4.57895Z" fill="#A0A0AB"/>
</g>
<path id="Vector_2" d="M17.7291 9.32662C17.5389 9.11725 17.2774 9 17.008 9H6.99219C6.72277 9 6.45336 9.11725 6.27111 9.32662C6.08886 9.53599 5.98585 9.82074 6.0017 10.1139L6.48513 18.1358C6.57229 19.4088 6.68322 21 9.44867 21H14.5358C17.3013 21 17.4122 19.4171 17.4994 18.1358L17.9985 10.1222C18.0144 9.82074 17.9113 9.53599 17.7291 9.32662ZM13.3076 16.8042H10.669C10.3441 16.8042 10.0747 16.5194 10.0747 16.1761C10.0747 15.8327 10.3441 15.5479 10.669 15.5479H13.3076C13.6325 15.5479 13.9019 15.8327 13.9019 16.1761C13.9019 16.5194 13.6325 16.8042 13.3076 16.8042ZM13.9732 13.4542H10.0113C9.68639 13.4542 9.41698 13.1695 9.41698 12.8261C9.41698 12.4827 9.68639 12.198 10.0113 12.198H13.9732C14.2981 12.198 14.5675 12.4827 14.5675 12.8261C14.5675 13.1695 14.2981 13.4542 13.9732 13.4542Z" fill="#A0A0AB"/>
</g>
</g>
</svg>
