<svg width="24" height="25" viewBox="0 0 24 25" fill="none" xmlns="http://www.w3.org/2000/svg">
<g id="icons/24/edit">
<g id="vuesax/bold/edit-2">
<g id="edit-2">
<path id="Vector" opacity="0.5" d="M20.3077 21.5H3.69231C3.31385 21.5 3 21.2733 3 21C3 20.7267 3.31385 20.5 3.69231 20.5H20.3077C20.6862 20.5 21 20.7267 21 21C21 21.2733 20.6862 21.5 20.3077 21.5Z" fill="#A0A0AB"/>
<path id="Vector_2" opacity="0.5" d="M18.6365 4.86562C16.8371 3.06803 15.0749 3.0217 13.2292 4.86562L12.107 5.98679C12.0142 6.07945 11.9771 6.2277 12.0142 6.35743C12.7191 8.81289 14.6854 10.7773 17.1432 11.4815C17.1803 11.4907 17.2174 11.5 17.2545 11.5C17.3565 11.5 17.4493 11.4629 17.5235 11.3888L18.6365 10.2676C19.5547 9.35958 19.9999 8.47932 19.9999 7.58979C20.0091 6.67247 19.5639 5.78294 18.6365 4.86562Z" fill="#A0A0AB"/>
<g id="Vector_3">
<path d="M15.2133 12.1548C14.9449 12.0359 14.6858 11.917 14.4359 11.7811C14.2323 11.6707 14.038 11.5517 13.8436 11.4243C13.6863 11.3309 13.5012 11.195 13.3253 11.0591C13.3068 11.0506 13.2421 10.9996 13.168 10.9317C12.8626 10.6938 12.5202 10.388 12.2148 10.0483C12.187 10.0313 12.1407 9.97181 12.0759 9.89537C11.9834 9.79344 11.8261 9.62355 11.6872 9.42818C11.5762 9.30077 11.4466 9.1139 11.3263 8.92703C11.1782 8.69768 11.0487 8.46834 10.9191 8.2305C10.9073 8.20727 10.8957 8.18411 10.8843 8.16103C10.7301 7.84778 10.3207 7.7519 10.0635 7.988L4.78313 12.8344C4.66281 12.9448 4.55175 13.1571 4.52399 13.3015L4.02423 16.5548C3.93168 17.1324 4.10752 17.6761 4.49622 18.0413C4.8294 18.3386 5.29214 18.5 5.7919 18.5C5.90296 18.5 6.01402 18.4915 6.12508 18.4745L9.67894 18.0158C9.84553 17.9903 10.0769 17.8884 10.188 17.778L15.3825 13.0104C15.6589 12.7567 15.5619 12.2934 15.2133 12.1548Z" fill="#A0A0AB"/>
</g>
</g>
</g>
</g>
</svg>
