<svg width="32" height="32" viewBox="0 0 32 32" fill="none" xmlns="http://www.w3.org/2000/svg">
<path fill-rule="evenodd" clip-rule="evenodd" d="M5.88828 23.8094C6.36538 23.5312 6.97767 23.6924 7.25588 24.1695C8.35837 26.0601 10.0438 27.4899 12.1223 28.4175C12.6267 28.6426 12.853 29.2339 12.6279 29.7383C12.4028 30.2426 11.8115 30.469 11.3072 30.2439C8.89185 29.1659 6.86545 27.4702 5.52818 25.177C5.24997 24.6999 5.41119 24.0877 5.88828 23.8094Z" fill="#17112D"/>
<path fill-rule="evenodd" clip-rule="evenodd" d="M5.88828 23.8094C6.36538 23.5312 6.97767 23.6924 7.25588 24.1695C8.35837 26.0601 10.0438 27.4899 12.1223 28.4175C12.6267 28.6426 12.853 29.2339 12.6279 29.7383C12.4028 30.2426 11.8115 30.469 11.3072 30.2439C8.89185 29.1659 6.86545 27.4702 5.52818 25.177C5.24997 24.6999 5.41119 24.0877 5.88828 23.8094Z" fill="url(#paint0_linear_10181_53488)"/>
<path fill-rule="evenodd" clip-rule="evenodd" d="M25.2109 5.22665C23.8591 3.84601 21.9311 3.33675 20.0437 3.87379C19.5125 4.02494 18.9594 3.71684 18.8082 3.18564C18.6571 2.65444 18.9652 2.10129 19.4964 1.95015C22.0806 1.21483 24.7692 1.91685 26.64 3.8274C27.0263 4.22201 27.0197 4.85514 26.6251 5.24153C26.2305 5.62792 25.5973 5.62126 25.2109 5.22665Z" fill="#17112D"/>
<path fill-rule="evenodd" clip-rule="evenodd" d="M25.2109 5.22665C23.8591 3.84601 21.9311 3.33675 20.0437 3.87379C19.5125 4.02494 18.9594 3.71684 18.8082 3.18564C18.6571 2.65444 18.9652 2.10129 19.4964 1.95015C22.0806 1.21483 24.7692 1.91685 26.64 3.8274C27.0263 4.22201 27.0197 4.85514 26.6251 5.24153C26.2305 5.62792 25.5973 5.62126 25.2109 5.22665Z" fill="url(#paint1_linear_10181_53488)"/>
<path fill-rule="evenodd" clip-rule="evenodd" d="M14.9234 4.40858C14.638 3.91915 13.8063 3.62232 12.9614 4.10519C12.1196 4.5863 11.9715 5.43435 12.2519 5.91527L15.6195 11.6901C15.8977 12.1672 15.7365 12.7795 15.2594 13.0577C14.7823 13.3359 14.17 13.1747 13.8918 12.6976L9.40173 4.99782C9.11632 4.50839 8.28457 4.21156 7.43967 4.69444C6.59786 5.17554 6.44981 6.02359 6.73025 6.50451L11.7816 15.1667C12.0598 15.6438 11.8985 16.2561 11.4215 16.5343C10.9444 16.8126 10.3321 16.6513 10.0539 16.1742L7.80883 12.3244C7.52342 11.8349 6.69167 11.5381 5.84677 12.021C5.00497 12.5021 4.85691 13.3501 5.13736 13.831L10.1887 22.4933C12.3339 26.1721 17.6277 27.3659 22.117 24.8002C26.6032 22.2363 28.198 17.1143 26.0577 13.444L22.6901 7.66922C22.4047 7.17979 21.573 6.88297 20.7281 7.36584C19.8863 7.84694 19.7382 8.69499 20.0187 9.17591L22.2637 13.0258C22.3981 13.2562 22.4348 13.5308 22.3658 13.7884C22.2967 14.046 22.1276 14.2654 21.896 14.3978C19.8394 15.5731 19.2091 17.8458 20.1095 19.3899C20.3878 19.8669 20.2265 20.4792 19.7494 20.7575C19.2723 21.0357 18.66 20.8744 18.3818 20.3974C17.1649 18.3104 17.6566 15.7976 19.2285 14.0215C19.6679 13.5249 19.8184 12.8027 19.4844 12.2299L14.9234 4.40858Z" fill="#17112D"/>
<path fill-rule="evenodd" clip-rule="evenodd" d="M14.9234 4.40858C14.638 3.91915 13.8063 3.62232 12.9614 4.10519C12.1196 4.5863 11.9715 5.43435 12.2519 5.91527L15.6195 11.6901C15.8977 12.1672 15.7365 12.7795 15.2594 13.0577C14.7823 13.3359 14.17 13.1747 13.8918 12.6976L9.40173 4.99782C9.11632 4.50839 8.28457 4.21156 7.43967 4.69444C6.59786 5.17554 6.44981 6.02359 6.73025 6.50451L11.7816 15.1667C12.0598 15.6438 11.8985 16.2561 11.4215 16.5343C10.9444 16.8126 10.3321 16.6513 10.0539 16.1742L7.80883 12.3244C7.52342 11.8349 6.69167 11.5381 5.84677 12.021C5.00497 12.5021 4.85691 13.3501 5.13736 13.831L10.1887 22.4933C12.3339 26.1721 17.6277 27.3659 22.117 24.8002C26.6032 22.2363 28.198 17.1143 26.0577 13.444L22.6901 7.66922C22.4047 7.17979 21.573 6.88297 20.7281 7.36584C19.8863 7.84694 19.7382 8.69499 20.0187 9.17591L22.2637 13.0258C22.3981 13.2562 22.4348 13.5308 22.3658 13.7884C22.2967 14.046 22.1276 14.2654 21.896 14.3978C19.8394 15.5731 19.2091 17.8458 20.1095 19.3899C20.3878 19.8669 20.2265 20.4792 19.7494 20.7575C19.2723 21.0357 18.66 20.8744 18.3818 20.3974C17.1649 18.3104 17.6566 15.7976 19.2285 14.0215C19.6679 13.5249 19.8184 12.8027 19.4844 12.2299L14.9234 4.40858Z" fill="url(#paint2_linear_10181_53488)"/>
<defs>
<linearGradient id="paint0_linear_10181_53488" x1="-0.489832" y1="29.4351" x2="26.7934" y2="27.9736" gradientUnits="userSpaceOnUse">
<stop stop-color="#05E0E0"/>
<stop offset="1" stop-color="#02C8C8"/>
</linearGradient>
<linearGradient id="paint1_linear_10181_53488" x1="-0.489832" y1="29.4351" x2="26.7934" y2="27.9736" gradientUnits="userSpaceOnUse">
<stop stop-color="#05E0E0"/>
<stop offset="1" stop-color="#02C8C8"/>
</linearGradient>
<linearGradient id="paint2_linear_10181_53488" x1="-0.489832" y1="29.4351" x2="26.7934" y2="27.9736" gradientUnits="userSpaceOnUse">
<stop stop-color="#05E0E0"/>
<stop offset="1" stop-color="#02C8C8"/>
</linearGradient>
</defs>
</svg>
