<svg width="30" height="30" viewBox="0 0 30 30" fill="none" xmlns="http://www.w3.org/2000/svg">
<path d="M21.753 11.9706V12.6747C21.753 13.5197 21.9942 14.3457 22.4461 15.0488L23.5535 16.7717C24.5651 18.3454 23.7929 20.4844 22.0335 20.982C17.4312 22.2838 12.5766 22.2838 7.97427 20.982C6.21495 20.4844 5.44273 18.3454 6.45427 16.7717L7.5617 15.0488C8.01362 14.3457 8.25478 13.5197 8.25478 12.6747V11.9706C8.25478 8.10466 11.2765 4.9707 15.0039 4.9707C18.7313 4.9707 21.753 8.10466 21.753 11.9706Z" fill="#E4E4E7"/>
<path d="M21.753 11.9706V12.6747C21.753 13.5197 21.9942 14.3457 22.4461 15.0488L23.5535 16.7717C24.5651 18.3454 23.7929 20.4844 22.0335 20.982C17.4312 22.2838 12.5766 22.2838 7.97427 20.982C6.21495 20.4844 5.44273 18.3454 6.45427 16.7717L7.5617 15.0488C8.01362 14.3457 8.25478 13.5197 8.25478 12.6747V11.9706C8.25478 8.10466 11.2765 4.9707 15.0039 4.9707C18.7313 4.9707 21.753 8.10466 21.753 11.9706Z" fill="url(#paint0_linear_7892_900988)"/>
<path d="M11.0039 22.9707C11.845 24.0399 13.1663 24.7288 14.6521 24.7288C16.1379 24.7288 17.4592 24.0399 18.3003 22.9707C15.8785 23.2988 13.4257 23.2988 11.0039 22.9707Z" fill="url(#paint1_linear_7892_900988)"/>
<defs>
<linearGradient id="paint0_linear_7892_900988" x1="23.8578" y1="11.8125" x2="5.42203" y2="11.8125" gradientUnits="userSpaceOnUse">
<stop stop-color="#9396AE"/>
<stop offset="1" stop-color="#C7CBD2"/>
</linearGradient>
<linearGradient id="paint1_linear_7892_900988" x1="18.2411" y1="23.6788" x2="10.768" y2="23.6788" gradientUnits="userSpaceOnUse">
<stop stop-color="#9396AE"/>
<stop offset="1" stop-color="#C7CBD2"/>
</linearGradient>
</defs>
</svg>
