<svg width="24" height="24" viewBox="0 0 24 24" fill="none" xmlns="http://www.w3.org/2000/svg">
<g id="icons/24/Opened">
<g id="Vector">
<path d="M7.71396 4.89104H14.3224C14.5702 4.89104 14.7356 4.72569 14.7356 4.47786V3.65191C14.7356 3.40408 14.5702 3.23873 14.3224 3.23873H12.6288C12.4639 2.53848 11.8029 2 11.0182 2C10.2335 2 9.61369 2.53848 9.4071 3.23913H7.71396C7.46613 3.23913 7.30078 3.40448 7.30078 3.65231V4.47826C7.30078 4.72609 7.46613 4.89104 7.71396 4.89104Z" fill="#E2E4EB"/>
<path d="M11.8476 17.2876C11.8458 16.6904 11.9622 16.0988 12.1899 15.5468C12.4177 14.9947 12.7523 14.4932 13.1746 14.0709C13.5968 13.6487 14.0984 13.3141 14.6505 13.0864C15.2025 12.8587 15.7941 12.7424 16.3913 12.7442C16.9583 12.746 17.5195 12.8582 18.0436 13.0745V5.30944C18.0436 4.6072 17.5067 4.07031 16.8045 4.07031H15.565V4.48349C15.565 5.18573 15.0281 5.72262 14.3258 5.72262H7.71739C7.01515 5.72262 6.47826 5.18573 6.47826 4.48349V4.07031H5.23913C4.53689 4.07031 4 4.60562 4 5.30944V19.7658C4 20.4681 4.53689 21.005 5.23913 21.005H13.7889C12.6323 20.179 11.8476 18.8162 11.8476 17.2876ZM7.30422 9.85279H14.739C14.9868 9.85279 15.1522 10.0181 15.1522 10.266C15.1522 10.5138 14.9868 10.6791 14.739 10.6791H7.30422C7.05639 10.6791 6.89104 10.5138 6.89104 10.266C6.89104 10.0181 7.05639 9.85279 7.30422 9.85279Z" fill="#E2E4EB"/>
<path d="M16.3932 13.5587C15.6579 13.5587 14.9392 13.7768 14.3279 14.1852C13.7166 14.5937 13.2401 15.1743 12.9588 15.8536C12.6774 16.5328 12.6038 17.2803 12.7472 18.0014C12.8906 18.7225 13.2447 19.3848 13.7646 19.9047C14.2845 20.4246 14.9468 20.7787 15.6679 20.9221C16.3891 21.0655 17.1365 20.9919 17.8158 20.7106C18.495 20.4292 19.0756 19.9527 19.4841 19.3414C19.8925 18.7301 20.1106 18.0114 20.1106 17.2761C20.1126 16.7874 20.0179 16.3031 19.8318 15.8511C19.6457 15.3992 19.3719 14.9886 19.0263 14.643C18.6807 14.2974 18.2701 14.0236 17.8182 13.8376C17.3662 13.6515 16.8819 13.5567 16.3932 13.5587ZM18.0023 16.2024L16.7631 18.6806C16.7419 18.7405 16.7028 18.7924 16.6511 18.8293C16.5994 18.8663 16.5376 18.8865 16.4741 18.8872H16.3916C16.3373 18.8887 16.2834 18.8785 16.2335 18.8571C16.1836 18.8357 16.1389 18.8038 16.1025 18.7635L14.8634 17.5244C14.8249 17.4865 14.7943 17.4414 14.7733 17.3917C14.7523 17.342 14.7414 17.2886 14.7412 17.2346C14.7409 17.1806 14.7514 17.1271 14.7719 17.0772C14.7925 17.0273 14.8227 16.9819 14.8609 16.9437C14.8991 16.9056 14.9444 16.8753 14.9943 16.8548C15.0443 16.8342 15.0977 16.8238 15.1517 16.824C15.2057 16.8242 15.2591 16.8352 15.3089 16.8561C15.3586 16.8771 15.4037 16.9077 15.4415 16.9462L16.2675 17.7722L17.2588 15.7896C17.3413 15.583 17.5891 15.5005 17.7957 15.6242C18.0023 15.7892 18.0867 16.037 18.0023 16.2024Z" fill="#E2E4EB"/>
</g>
</g>
</svg>
