<svg width="24" height="24" viewBox="0 0 24 24" fill="none" xmlns="http://www.w3.org/2000/svg">
<g id="icons/24/Opened">
<path id="Path" d="M7.71396 4.89104H14.3224C14.5702 4.89104 14.7356 4.72569 14.7356 4.47786V3.65191C14.7356 3.40408 14.5702 3.23873 14.3224 3.23873H12.6288C12.4639 2.53848 11.8029 2 11.0182 2C10.2335 2 9.61369 2.53848 9.4071 3.23913H7.71396C7.46613 3.23913 7.30078 3.40448 7.30078 3.65231V4.47826C7.30078 4.72609 7.46613 4.89104 7.71396 4.89104Z" fill="#A0A0AB"/>
<path id="Shape" d="M11.8476 17.2876C11.8458 16.6904 11.9622 16.0988 12.1899 15.5468C12.4177 14.9947 12.7523 14.4932 13.1746 14.0709C13.5968 13.6487 14.0984 13.3141 14.6505 13.0864C15.2025 12.8587 15.7941 12.7424 16.3913 12.7442C16.9583 12.746 17.5195 12.8582 18.0436 13.0745V5.30944C18.0436 4.6072 17.5067 4.07031 16.8045 4.07031H15.565V4.48349C15.565 5.18573 15.0281 5.72262 14.3258 5.72262H7.71739C7.01515 5.72262 6.47826 5.18573 6.47826 4.48349V4.07031H5.23913C4.53689 4.07031 4 4.60562 4 5.30944V19.7658C4 20.4681 4.53689 21.005 5.23913 21.005H13.7889C12.6323 20.179 11.8476 18.8162 11.8476 17.2876ZM7.30422 9.85279H14.739C14.9868 9.85279 15.1522 10.0181 15.1522 10.266C15.1522 10.5138 14.9868 10.6791 14.739 10.6791H7.30422C7.05639 10.6791 6.89104 10.5138 6.89104 10.266C6.89104 10.0181 7.05639 9.85279 7.30422 9.85279Z" fill="#A0A0AB"/>
<path id="Shape_2" opacity="0.5" d="M16.3932 13.5586C15.6579 13.5586 14.9392 13.7766 14.3279 14.1851C13.7166 14.5936 13.2401 15.1742 12.9588 15.8534C12.6774 16.5327 12.6038 17.2801 12.7472 18.0012C12.8906 18.7223 13.2447 19.3847 13.7646 19.9046C14.2845 20.4245 14.9468 20.7785 15.6679 20.922C16.3891 21.0654 17.1365 20.9918 17.8158 20.7104C18.495 20.4291 19.0756 19.9526 19.4841 19.3413C19.8925 18.73 20.1106 18.0112 20.1106 17.276C20.1126 16.7873 20.0179 16.303 19.8318 15.851C19.6457 15.3991 19.3719 14.9885 19.0263 14.6429C18.6807 14.2973 18.2701 14.0235 17.8182 13.8374C17.3662 13.6513 16.8819 13.5566 16.3932 13.5586ZM18.0023 16.2022L16.7631 18.6805C16.7419 18.7404 16.7028 18.7923 16.6511 18.8292C16.5994 18.8662 16.5376 18.8864 16.4741 18.8871H16.3916C16.3373 18.8886 16.2834 18.8783 16.2335 18.857C16.1836 18.8356 16.1389 18.8037 16.1025 18.7634L14.8634 17.5242C14.8249 17.4864 14.7943 17.4413 14.7733 17.3916C14.7523 17.3418 14.7414 17.2884 14.7412 17.2344C14.7409 17.1805 14.7514 17.127 14.7719 17.0771C14.7925 17.0271 14.8227 16.9818 14.8609 16.9436C14.8991 16.9054 14.9444 16.8752 14.9943 16.8547C15.0443 16.8341 15.0977 16.8236 15.1517 16.8239C15.2057 16.8241 15.2591 16.835 15.3089 16.856C15.3586 16.877 15.4037 16.9076 15.4415 16.9461L16.2675 17.7721L17.2588 15.7895C17.3413 15.5829 17.5891 15.5004 17.7957 15.6241C18.0023 15.7891 18.0867 16.0369 18.0023 16.2022Z" fill="#A0A0AB"/>
</g>
</svg>
