<svg width="40" height="40" viewBox="0 0 40 40" fill="none" xmlns="http://www.w3.org/2000/svg">
<path fill-rule="evenodd" clip-rule="evenodd" d="M22.9167 15.2085C22.9167 20.8465 18.3462 25.417 12.7083 25.417C11.1318 25.417 9.63869 25.0596 8.30568 24.4215C7.84752 24.2021 7.32846 24.1251 6.83776 24.2564L5.27328 24.675C4.0402 25.0049 2.9121 23.8768 3.24203 22.6437L3.66063 21.0792C3.79192 20.5885 3.71491 20.0694 3.49557 19.6113C2.85739 18.2782 2.5 16.7851 2.5 15.2085C2.5 9.57051 7.07043 5 12.7083 5C18.3462 5 22.9167 9.57051 22.9167 15.2085Z" fill="url(#paint0_linear_13641_48073)"/>
<rect x="6.75146" y="12.6562" width="11.5484" height="1.92477" rx="0.962386" fill="white"/>
<rect x="6.75146" y="16.0547" width="6.80556" height="1.70142" rx="0.85071" fill="white"/>
<path d="M36.9786 29.0007L36.1801 29.2143L36.9786 29.0007L37.457 30.7887C37.9998 32.8174 36.1438 34.6734 34.1151 34.1306L32.3272 33.6522C31.9899 33.5619 31.601 33.6073 31.2248 33.7874C29.5914 34.5694 27.7623 35.0069 25.8333 35.0069C18.9298 35.0069 13.3333 29.4104 13.3333 22.5067C13.3333 15.6031 18.9298 10.0065 25.8333 10.0065C32.7369 10.0065 38.3333 15.6031 38.3333 22.5067C38.3333 24.4357 37.8958 26.2648 37.1138 27.8983C36.9337 28.2745 36.8883 28.6634 36.9786 29.0007Z" fill="url(#paint1_linear_13641_48073)" stroke="white" stroke-width="1.66667"/>
<path d="M29.3358 22.2136C29.3358 23.019 29.9887 23.672 30.7941 23.672C31.5995 23.672 32.2524 23.019 32.2524 22.2136C32.2524 21.4082 31.5995 20.7552 30.7941 20.7552C29.9887 20.7552 29.3358 21.4082 29.3358 22.2136Z" fill="white"/>
<path d="M24.2316 22.2136C24.2316 23.019 24.8845 23.672 25.6899 23.672C26.4954 23.672 27.1483 23.019 27.1483 22.2136C27.1483 21.4082 26.4954 20.7552 25.6899 20.7552C24.8845 20.7552 24.2316 21.4082 24.2316 22.2136Z" fill="white"/>
<path d="M19.1274 22.2136C19.1274 23.019 19.7804 23.672 20.5858 23.672C21.3912 23.672 22.0441 23.019 22.0441 22.2136C22.0441 21.4082 21.3912 20.7552 20.5858 20.7552C19.7804 20.7552 19.1274 21.4082 19.1274 22.2136Z" fill="white"/>
<defs>
<linearGradient id="paint0_linear_13641_48073" x1="11.4212" y1="25.5068" x2="14.6595" y2="4.64652" gradientUnits="userSpaceOnUse">
<stop stop-color="#D0D4EC"/>
<stop offset="1" stop-color="#E5EBF6"/>
</linearGradient>
<linearGradient id="paint1_linear_13641_48073" x1="37.5005" y1="22.5074" x2="14.1677" y2="22.5074" gradientUnits="userSpaceOnUse">
<stop stop-color="#05E0E0"/>
<stop offset="1" stop-color="#02C8C8"/>
</linearGradient>
</defs>
</svg>
