<svg width="24" height="24" viewBox="0 0 24 24" fill="none" xmlns="http://www.w3.org/2000/svg">
<g id="icons/24/setting">
<g id="Group 1000001903">
<g id="Group">
<g id="Group_2">
<g id="Vector" filter="url(#filter0_b_7962_868032)">
<path d="M17.3972 14.2772C17.0574 14.1469 16.8516 13.8059 16.8506 13.4419C16.8503 13.3438 16.8477 13.2459 16.8429 13.1484C16.8248 12.7847 17.0123 12.4331 17.3449 12.2849C17.6899 12.1311 17.8875 11.7581 17.7844 11.3947C17.687 11.0515 17.5648 10.7127 17.417 10.3808C17.2693 10.0494 17.0993 9.73235 16.9096 9.43055C16.7085 9.11047 16.2987 9.00756 15.9533 9.16128C15.6207 9.30931 15.234 9.21358 14.9757 8.957C14.9064 8.88813 14.8354 8.82074 14.7626 8.7549C14.4929 8.51076 14.3772 8.1298 14.5076 7.79016C14.6429 7.43742 14.5188 7.03374 14.1888 6.84975C13.8773 6.67607 13.5516 6.52293 13.2125 6.3928C12.8742 6.26293 12.5303 6.15805 12.1818 6.07817C11.8134 5.9937 11.451 6.21095 11.3156 6.56385C11.185 6.90404 10.8435 7.11 10.4791 7.11112C10.3801 7.11143 10.2812 7.11407 10.1827 7.11902C9.82121 7.13719 9.47168 6.95068 9.32445 6.62002C9.17153 6.27661 8.80007 6.08008 8.43871 6.18369C7.73965 6.38412 7.07583 6.68367 6.46622 7.06932C6.15098 7.26874 6.04997 7.67306 6.2017 8.01383C6.34822 8.3429 6.25337 8.72565 5.99914 8.98085C5.92857 9.05169 5.85956 9.12434 5.79218 9.19876C5.54798 9.46848 5.167 9.5842 4.82728 9.45391C4.47589 9.31914 4.07371 9.4416 3.88947 9.76977C3.7141 10.0821 3.56007 10.4091 3.42922 10.7492C3.30006 11.088 3.19625 11.4323 3.11705 11.7798C3.03309 12.148 3.24996 12.5103 3.60261 12.6456C3.94232 12.776 4.14798 13.1171 4.14905 13.4809C4.14934 13.5791 4.15192 13.677 4.15677 13.7747C4.17484 14.1383 3.98729 14.4899 3.65472 14.638C3.30976 14.7916 3.11206 15.1645 3.21516 15.5278C3.31258 15.8711 3.43476 16.2098 3.58262 16.5418C3.73067 16.8737 3.90071 17.1909 4.09055 17.4928C4.29159 17.8125 4.70104 17.9151 5.04603 17.7615C5.37851 17.6134 5.76521 17.7092 6.02335 17.9658C6.09263 18.0346 6.16364 18.102 6.23637 18.1678C6.50637 18.4122 6.62237 18.7935 6.49195 19.1335C6.3566 19.4864 6.48069 19.8901 6.81077 20.0742C7.12229 20.2478 7.44805 20.4008 7.78715 20.531C8.12532 20.6608 8.46921 20.7657 8.81756 20.8455C9.18613 20.9301 9.54863 20.7127 9.68411 20.3597C9.81464 20.0196 10.156 19.8135 10.5203 19.8123C10.6195 19.812 10.7184 19.8094 10.8171 19.8044C11.1785 19.7862 11.5279 19.9726 11.6752 20.3032C11.8281 20.6465 12.1995 20.8429 12.5608 20.7394C13.2599 20.539 13.9241 20.2395 14.5337 19.8538C14.849 19.6544 14.9499 19.2499 14.7981 18.9091C14.6515 18.5801 14.7462 18.1973 15.0004 17.9421C15.0711 17.8713 15.1401 17.7986 15.2076 17.7241C15.4517 17.4546 15.8326 17.3388 16.1721 17.4692C16.5232 17.6039 16.925 17.4816 17.1092 17.1537C17.2846 16.8412 17.4387 16.5142 17.5696 16.1742C17.6998 15.8353 17.8038 15.4907 17.8831 15.143C17.967 14.7747 17.75 14.4124 17.3972 14.2772ZM13.6927 14.6866C13.016 16.4504 11.038 17.3307 9.27393 16.654C7.51209 15.9777 6.6306 14.0001 7.30693 12.2368C7.98363 10.4734 9.96159 9.59305 11.7246 10.269C13.4879 10.9453 14.369 12.9237 13.6927 14.6866Z" fill="#A0A0AB"/>
</g>
</g>
</g>
<g id="Group_3" opacity="0.8">
<g id="Group_4">
<g id="Vector_2" opacity="0.5" filter="url(#filter1_b_7962_868032)">
<path d="M20.4518 6.14425C20.4518 6.10335 20.4507 6.06268 20.4486 6.02226C20.4381 5.82599 20.5231 5.63128 20.6933 5.53297C20.8745 5.42826 20.9667 5.21371 20.8909 5.01857C20.7758 4.72216 20.6171 4.44753 20.4216 4.2032C20.2906 4.03956 20.0584 4.01214 19.877 4.11695C19.7062 4.21557 19.494 4.19186 19.3282 4.08508C19.2608 4.04169 19.1911 4.00155 19.1194 3.96483C18.9439 3.87503 18.8175 3.70323 18.8175 3.50614C18.8175 3.29674 18.6779 3.10942 18.4711 3.07657C18.3176 3.05219 18.1605 3.03906 18.0003 3.03906C17.8402 3.03906 17.6833 3.05233 17.53 3.07672C17.323 3.10963 17.1831 3.29704 17.1831 3.50663C17.1831 3.70358 17.0567 3.87527 16.8814 3.96505C16.8095 4.00186 16.7398 4.04209 16.6723 4.08558C16.5065 4.19234 16.2945 4.21592 16.1237 4.11737C15.942 4.01247 15.7096 4.04003 15.5785 4.20392C15.3833 4.44808 15.2247 4.72249 15.1096 5.01864C15.0337 5.21386 15.1259 5.42855 15.3072 5.53329C15.4774 5.63157 15.5624 5.82621 15.5518 6.02246C15.5496 6.06286 15.5484 6.10354 15.5484 6.14451C15.5484 6.18544 15.5496 6.22611 15.5517 6.2665C15.5624 6.46277 15.4774 6.65746 15.3072 6.75575C15.1258 6.86047 15.0337 7.07513 15.1095 7.27033C15.2247 7.56661 15.3834 7.84117 15.5787 8.08536C15.7096 8.24911 15.9419 8.27658 16.1235 8.17173C16.2942 8.07315 16.5063 8.09679 16.672 8.20355C16.7395 8.247 16.8092 8.28718 16.881 8.32394C17.0564 8.41374 17.1828 8.5855 17.1828 8.78254C17.1828 8.99208 17.3226 9.17949 17.5295 9.21237C17.683 9.23675 17.8399 9.24995 18 9.24995C18.16 9.24995 18.317 9.23669 18.4704 9.21232C18.6774 9.17943 18.8172 8.99204 18.8172 8.78247C18.8172 8.58547 18.9436 8.41373 19.119 8.32395C19.1908 8.28718 19.2605 8.24698 19.3279 8.20354C19.4937 8.09678 19.7059 8.07315 19.8766 8.17175C20.0582 8.2766 20.2904 8.24917 20.4214 8.08547C20.6169 7.84111 20.7757 7.56645 20.8907 7.27002C20.9665 7.07497 20.8744 6.86054 20.6932 6.75589C20.5229 6.65753 20.438 6.46269 20.4486 6.26634C20.4507 6.22593 20.4518 6.18524 20.4518 6.14425ZM18.0005 7.28863C17.3684 7.28863 16.8559 6.77637 16.8559 6.14451C16.8559 5.51265 17.3684 5.00013 18.0005 5.00013C18.6319 5.00013 19.1444 5.51239 19.1444 6.14425C19.1444 6.77611 18.6319 7.28863 18.0005 7.28863Z" fill="#A0A0AB"/>
</g>
</g>
</g>
</g>
</g>
<defs>
<filter id="filter0_b_7962_868032" x="1.59961" y="4.55859" width="17.8008" height="17.8047" filterUnits="userSpaceOnUse" color-interpolation-filters="sRGB">
<feFlood flood-opacity="0" result="BackgroundImageFix"/>
<feGaussianBlur in="BackgroundImageFix" stdDeviation="0.75"/>
<feComposite in2="SourceAlpha" operator="in" result="effect1_backgroundBlur_7962_868032"/>
<feBlend mode="normal" in="SourceGraphic" in2="effect1_backgroundBlur_7962_868032" result="shape"/>
</filter>
<filter id="filter1_b_7962_868032" x="13.582" y="1.53906" width="8.83594" height="9.21094" filterUnits="userSpaceOnUse" color-interpolation-filters="sRGB">
<feFlood flood-opacity="0" result="BackgroundImageFix"/>
<feGaussianBlur in="BackgroundImageFix" stdDeviation="0.75"/>
<feComposite in2="SourceAlpha" operator="in" result="effect1_backgroundBlur_7962_868032"/>
<feBlend mode="normal" in="SourceGraphic" in2="effect1_backgroundBlur_7962_868032" result="shape"/>
</filter>
</defs>
</svg>
