<svg width="39" height="39" viewBox="0 0 39 39" fill="none" xmlns="http://www.w3.org/2000/svg">
<g id="Group">
<path id="Subtract" fill-rule="evenodd" clip-rule="evenodd" d="M22.5987 8.31494C21.4371 7.87257 20.1803 7.63086 18.8684 7.63086C12.9501 7.63086 8.15234 12.5505 8.15234 18.6192C8.15234 20.377 8.55486 22.0384 9.27052 23.5118C9.46071 23.9033 9.52401 24.3508 9.41375 24.7734L8.77549 27.2195C8.49842 28.2813 9.44579 29.2527 10.4813 28.9686L12.8668 28.3141C13.2788 28.2011 13.7153 28.266 14.0971 28.461C15.534 29.1949 17.1542 29.6076 18.8684 29.6076C24.7867 29.6076 29.5845 24.688 29.5845 18.6192C29.5845 17.577 29.443 16.5686 29.1786 15.6132C28.422 16.0738 27.5336 16.339 26.5832 16.339C23.8218 16.339 21.5832 14.0996 21.5832 11.3372C21.5832 10.2016 21.9614 9.1545 22.5987 8.31494Z" fill="url(#paint0_linear_11448_15026)"/>
<g id="Vector">
<ellipse cx="18.9558" cy="14.6002" rx="2.17847" ry="2.17836" fill="#04D9D9"/>
<ellipse cx="18.9558" cy="14.6002" rx="2.17847" ry="2.17836" fill="url(#paint1_linear_11448_15026)"/>
</g>
<g id="Vector_2">
<path d="M23.3155 20.8628C23.3155 22.2162 23.3155 23.3134 18.9585 23.3134C14.6016 23.3134 14.6016 22.2162 14.6016 20.8628C14.6016 19.5093 16.5522 18.4121 18.9585 18.4121C21.3648 18.4121 23.3155 19.5093 23.3155 20.8628Z" fill="#04D9D9"/>
<path d="M23.3155 20.8628C23.3155 22.2162 23.3155 23.3134 18.9585 23.3134C14.6016 23.3134 14.6016 22.2162 14.6016 20.8628C14.6016 19.5093 16.5522 18.4121 18.9585 18.4121C21.3648 18.4121 23.3155 19.5093 23.3155 20.8628Z" fill="url(#paint2_linear_11448_15026)"/>
</g>
<g id="Vector_3">
<path d="M5.44071 23.8135C5.44071 25.1001 5.44176 26.3866 5.43967 27.6732C5.43862 28.3722 5.22637 28.5941 4.56035 28.5952C3.76469 28.5974 2.96902 28.6017 2.17335 28.5941C0.962593 28.5824 0.108373 27.7054 0.103145 26.4595C0.0958265 24.6777 0.0958265 22.8947 0.103145 21.1129C0.108373 19.8971 0.912407 19.0329 2.10225 18.9922C2.96274 18.9632 3.82428 18.9761 4.68478 18.9879C5.21174 18.9954 5.42712 19.2409 5.43967 19.7931C5.44071 19.8199 5.43967 19.8467 5.43967 19.8735C5.44071 21.1868 5.44071 22.5002 5.44071 23.8135Z" fill="black"/>
<path d="M5.44071 23.8135C5.44071 25.1001 5.44176 26.3866 5.43967 27.6732C5.43862 28.3722 5.22637 28.5941 4.56035 28.5952C3.76469 28.5974 2.96902 28.6017 2.17335 28.5941C0.962593 28.5824 0.108373 27.7054 0.103145 26.4595C0.0958265 24.6777 0.0958265 22.8947 0.103145 21.1129C0.108373 19.8971 0.912407 19.0329 2.10225 18.9922C2.96274 18.9632 3.82428 18.9761 4.68478 18.9879C5.21174 18.9954 5.42712 19.2409 5.43967 19.7931C5.44071 19.8199 5.43967 19.8467 5.43967 19.8735C5.44071 21.1868 5.44071 22.5002 5.44071 23.8135Z" fill="url(#paint3_linear_11448_15026)"/>
<path d="M5.44071 23.8135C5.44071 25.1001 5.44176 26.3866 5.43967 27.6732C5.43862 28.3722 5.22637 28.5941 4.56035 28.5952C3.76469 28.5974 2.96902 28.6017 2.17335 28.5941C0.962593 28.5824 0.108373 27.7054 0.103145 26.4595C0.0958265 24.6777 0.0958265 22.8947 0.103145 21.1129C0.108373 19.8971 0.912407 19.0329 2.10225 18.9922C2.96274 18.9632 3.82428 18.9761 4.68478 18.9879C5.21174 18.9954 5.42712 19.2409 5.43967 19.7931C5.44071 19.8199 5.43967 19.8467 5.43967 19.8735C5.44071 21.1868 5.44071 22.5002 5.44071 23.8135Z" fill="url(#paint4_linear_11448_15026)"/>
</g>
<g id="Vector_4">
<path d="M33.6533 23.708C33.6533 22.4085 33.6512 21.108 33.6543 19.8086C33.6554 19.1557 33.8676 18.9306 34.4929 18.9263C35.2885 18.9198 36.0842 18.9156 36.8799 18.9273C38.1764 18.9466 38.9898 19.8022 38.9919 21.1402C38.995 22.8685 38.995 24.5978 38.9919 26.3261C38.9888 27.6727 38.1492 28.5314 36.8349 28.5357C36.0392 28.5389 35.2436 28.54 34.4479 28.5347C33.8979 28.5314 33.6575 28.2902 33.6554 27.7284C33.6501 26.3883 33.6533 25.0481 33.6533 23.708Z" fill="black"/>
<path d="M33.6533 23.708C33.6533 22.4085 33.6512 21.108 33.6543 19.8086C33.6554 19.1557 33.8676 18.9306 34.4929 18.9263C35.2885 18.9198 36.0842 18.9156 36.8799 18.9273C38.1764 18.9466 38.9898 19.8022 38.9919 21.1402C38.995 22.8685 38.995 24.5978 38.9919 26.3261C38.9888 27.6727 38.1492 28.5314 36.8349 28.5357C36.0392 28.5389 35.2436 28.54 34.4479 28.5347C33.8979 28.5314 33.6575 28.2902 33.6554 27.7284C33.6501 26.3883 33.6533 25.0481 33.6533 23.708Z" fill="url(#paint5_linear_11448_15026)"/>
<path d="M33.6533 23.708C33.6533 22.4085 33.6512 21.108 33.6543 19.8086C33.6554 19.1557 33.8676 18.9306 34.4929 18.9263C35.2885 18.9198 36.0842 18.9156 36.8799 18.9273C38.1764 18.9466 38.9898 19.8022 38.9919 21.1402C38.995 22.8685 38.995 24.5978 38.9919 26.3261C38.9888 27.6727 38.1492 28.5314 36.8349 28.5357C36.0392 28.5389 35.2436 28.54 34.4479 28.5347C33.8979 28.5314 33.6575 28.2902 33.6554 27.7284C33.6501 26.3883 33.6533 25.0481 33.6533 23.708Z" fill="url(#paint6_linear_11448_15026)"/>
</g>
<g id="Vector_5">
<path d="M35.6577 29.5312C36.0958 29.5312 36.5088 29.5312 37.0107 29.5312C36.904 30.1038 36.8371 30.6559 36.696 31.1877C35.7027 34.9498 32.4144 37.6161 28.6201 37.7309C27.5003 37.7652 26.3784 37.7416 25.2576 37.7427C25.1823 37.7427 25.107 37.7255 25.0108 37.7126C25.0108 37.2763 25.0108 36.8539 25.0108 36.3896C25.1541 36.3832 25.2931 36.3714 25.4312 36.3714C26.4474 36.3682 27.4648 36.3853 28.481 36.3628C32.175 36.2813 35.1914 33.4563 35.6274 29.6878C35.6327 29.6492 35.6431 29.6106 35.6577 29.5312Z" fill="black"/>
<path d="M35.6577 29.5312C36.0958 29.5312 36.5088 29.5312 37.0107 29.5312C36.904 30.1038 36.8371 30.6559 36.696 31.1877C35.7027 34.9498 32.4144 37.6161 28.6201 37.7309C27.5003 37.7652 26.3784 37.7416 25.2576 37.7427C25.1823 37.7427 25.107 37.7255 25.0108 37.7126C25.0108 37.2763 25.0108 36.8539 25.0108 36.3896C25.1541 36.3832 25.2931 36.3714 25.4312 36.3714C26.4474 36.3682 27.4648 36.3853 28.481 36.3628C32.175 36.2813 35.1914 33.4563 35.6274 29.6878C35.6327 29.6492 35.6431 29.6106 35.6577 29.5312Z" fill="url(#paint7_linear_11448_15026)"/>
<path d="M35.6577 29.5312C36.0958 29.5312 36.5088 29.5312 37.0107 29.5312C36.904 30.1038 36.8371 30.6559 36.696 31.1877C35.7027 34.9498 32.4144 37.6161 28.6201 37.7309C27.5003 37.7652 26.3784 37.7416 25.2576 37.7427C25.1823 37.7427 25.107 37.7255 25.0108 37.7126C25.0108 37.2763 25.0108 36.8539 25.0108 36.3896C25.1541 36.3832 25.2931 36.3714 25.4312 36.3714C26.4474 36.3682 27.4648 36.3853 28.481 36.3628C32.175 36.2813 35.1914 33.4563 35.6274 29.6878C35.6327 29.6492 35.6431 29.6106 35.6577 29.5312Z" fill="url(#paint8_linear_11448_15026)"/>
<path d="M21.2667 35.6992C21.8135 35.6981 22.3604 35.6927 22.9072 35.7003C23.407 35.7067 23.6432 35.9522 23.6516 36.4668C23.6579 36.8678 23.6579 37.2698 23.6516 37.6708C23.6432 38.1565 23.3986 38.432 22.9385 38.4363C21.8323 38.446 20.7251 38.4535 19.6189 38.4331C18.8734 38.4202 18.3182 37.8091 18.3203 37.0608C18.3224 36.3071 18.8776 35.7196 19.6273 35.7024C20.173 35.6885 20.7199 35.6992 21.2667 35.6992Z" fill="black"/>
<path d="M21.2667 35.6992C21.8135 35.6981 22.3604 35.6927 22.9072 35.7003C23.407 35.7067 23.6432 35.9522 23.6516 36.4668C23.6579 36.8678 23.6579 37.2698 23.6516 37.6708C23.6432 38.1565 23.3986 38.432 22.9385 38.4363C21.8323 38.446 20.7251 38.4535 19.6189 38.4331C18.8734 38.4202 18.3182 37.8091 18.3203 37.0608C18.3224 36.3071 18.8776 35.7196 19.6273 35.7024C20.173 35.6885 20.7199 35.6992 21.2667 35.6992Z" fill="url(#paint9_linear_11448_15026)"/>
<path d="M21.2667 35.6992C21.8135 35.6981 22.3604 35.6927 22.9072 35.7003C23.407 35.7067 23.6432 35.9522 23.6516 36.4668C23.6579 36.8678 23.6579 37.2698 23.6516 37.6708C23.6432 38.1565 23.3986 38.432 22.9385 38.4363C21.8323 38.446 20.7251 38.4535 19.6189 38.4331C18.8734 38.4202 18.3182 37.8091 18.3203 37.0608C18.3224 36.3071 18.8776 35.7196 19.6273 35.7024C20.173 35.6885 20.7199 35.6992 21.2667 35.6992Z" fill="url(#paint10_linear_11448_15026)"/>
</g>
<path id="Ellipse 2361" d="M36.9892 18.1239C36.9892 15.8149 36.5345 13.5284 35.6508 11.3952C34.7672 9.26195 33.4721 7.32363 31.8394 5.69091C30.2068 4.05819 28.2685 2.76305 26.1353 1.87943C24.0021 0.995809 21.7157 0.541016 19.4067 0.541016C17.0978 0.541016 14.8114 0.99581 12.6782 1.87943C10.545 2.76305 8.6067 4.0582 6.97402 5.69091C5.34133 7.32363 4.04621 9.26195 3.16261 11.3952C2.279 13.5285 1.82422 15.8149 1.82422 18.1239H3.4554C3.4554 16.0291 3.868 13.9548 4.66963 12.0194C5.47125 10.0841 6.64622 8.3256 8.12744 6.84436C9.60865 5.36311 11.3671 4.18812 13.3024 3.38648C15.2377 2.58483 17.312 2.17223 19.4067 2.17223C21.5015 2.17223 23.5757 2.58483 25.511 3.38648C27.4463 4.18812 29.2048 5.36311 30.686 6.84436C32.1672 8.3256 33.3422 10.0841 34.1438 12.0194C34.9455 13.9548 35.3581 16.0291 35.3581 18.1239H36.9892Z" fill="url(#paint11_linear_11448_15026)"/>
<circle id="Ellipse 2378" cx="26.5807" cy="11.3346" r="4.16667" fill="url(#paint12_linear_11448_15026)"/>
</g>
<defs>
<linearGradient id="paint0_linear_11448_15026" x1="41.29" y1="36.392" x2="6.70256" y2="5.35809" gradientUnits="userSpaceOnUse">
<stop stop-color="#FFFAFA"/>
<stop offset="1" stop-color="#FFEEEE"/>
</linearGradient>
<linearGradient id="paint1_linear_11448_15026" x1="18.0786" y1="13.1475" x2="25.8102" y2="19.3295" gradientUnits="userSpaceOnUse">
<stop stop-color="#FF4B4B"/>
<stop offset="1" stop-color="#FFB6B6"/>
</linearGradient>
<linearGradient id="paint2_linear_11448_15026" x1="17.2041" y1="19.2285" x2="25.5963" y2="31.1577" gradientUnits="userSpaceOnUse">
<stop stop-color="#FF4B4B"/>
<stop offset="1" stop-color="#FFB6B6"/>
</linearGradient>
<linearGradient id="paint3_linear_11448_15026" x1="0.0975491" y1="23.7868" x2="5.44073" y2="23.7868" gradientUnits="userSpaceOnUse">
<stop stop-color="#05E0E0"/>
<stop offset="1" stop-color="#02C8C8"/>
</linearGradient>
<linearGradient id="paint4_linear_11448_15026" x1="1.69352" y1="20.5775" x2="14.6787" y2="26.3419" gradientUnits="userSpaceOnUse">
<stop stop-color="#FF4B4B"/>
<stop offset="1" stop-color="#FFB6B6"/>
</linearGradient>
<linearGradient id="paint5_linear_11448_15026" x1="33.6522" y1="23.7294" x2="38.994" y2="23.7294" gradientUnits="userSpaceOnUse">
<stop stop-color="#05E0E0"/>
<stop offset="1" stop-color="#02C8C8"/>
</linearGradient>
<linearGradient id="paint6_linear_11448_15026" x1="35.2478" y1="20.522" x2="48.2283" y2="26.2859" gradientUnits="userSpaceOnUse">
<stop stop-color="#FF4B4B"/>
<stop offset="1" stop-color="#FFB6B6"/>
</linearGradient>
<linearGradient id="paint7_linear_11448_15026" x1="18.3199" y1="33.9889" x2="37.0098" y2="33.9889" gradientUnits="userSpaceOnUse">
<stop stop-color="#05E0E0"/>
<stop offset="1" stop-color="#02C8C8"/>
</linearGradient>
<linearGradient id="paint8_linear_11448_15026" x1="23.9025" y1="31.0161" x2="38.1736" y2="54.9384" gradientUnits="userSpaceOnUse">
<stop stop-color="#FF4B4B"/>
<stop offset="1" stop-color="#FFB6B6"/>
</linearGradient>
<linearGradient id="paint9_linear_11448_15026" x1="18.3199" y1="33.9889" x2="37.0098" y2="33.9889" gradientUnits="userSpaceOnUse">
<stop stop-color="#05E0E0"/>
<stop offset="1" stop-color="#02C8C8"/>
</linearGradient>
<linearGradient id="paint10_linear_11448_15026" x1="23.9025" y1="31.0161" x2="38.1736" y2="54.9384" gradientUnits="userSpaceOnUse">
<stop stop-color="#FF4B4B"/>
<stop offset="1" stop-color="#FFB6B6"/>
</linearGradient>
<linearGradient id="paint11_linear_11448_15026" x1="12.3268" y1="6.39815" x2="74.7324" y2="56.2926" gradientUnits="userSpaceOnUse">
<stop stop-color="#FF4B4B"/>
<stop offset="1" stop-color="#FFB6B6"/>
</linearGradient>
<linearGradient id="paint12_linear_11448_15026" x1="24.9029" y1="8.55595" x2="39.6915" y2="20.3799" gradientUnits="userSpaceOnUse">
<stop stop-color="#FF4B4B"/>
<stop offset="1" stop-color="#FFB6B6"/>
</linearGradient>
</defs>
</svg>
