<svg id="Layer_1" data-name="Layer 1" xmlns="http://www.w3.org/2000/svg" xmlns:xlink="http://www.w3.org/1999/xlink" viewBox="0 0 1236.45 1204.96"><defs><style>.cls-1{fill:url(#linear-gradient);}.cls-2{fill:url(#linear-gradient-2);}.cls-3{fill:url(#linear-gradient-3);}.cls-4{fill:url(#linear-gradient-4);}.cls-5{fill:url(#linear-gradient-5);}.cls-6{fill:url(#linear-gradient-6);}.cls-7{fill:url(#linear-gradient-7);}.cls-8{fill:url(#linear-gradient-8);}</style><linearGradient id="linear-gradient" x1="2232.33" y1="-1283.83" x2="336.84" y2="190.89" gradientTransform="matrix(1, 0, 0, -1, -442.46, 747.88)" gradientUnits="userSpaceOnUse"><stop offset="0" stop-color="#02c8c8"/><stop offset="0.99" stop-color="#05e0e0"/></linearGradient><linearGradient id="linear-gradient-2" x1="466.27" y1="506.37" x2="1953.25" y2="-510.82" gradientTransform="matrix(1, 0, 0, -1, -442.46, 747.88)" gradientUnits="userSpaceOnUse"><stop offset="0" stop-color="#fff"/><stop offset="1" stop-color="#e2f1fa"/></linearGradient><linearGradient id="linear-gradient-3" x1="2569" y1="-851.09" x2="673.51" y2="623.63" xlink:href="#linear-gradient"/><linearGradient id="linear-gradient-4" x1="2221.23" y1="-1298.09" x2="325.74" y2="176.63" xlink:href="#linear-gradient"/><linearGradient id="linear-gradient-5" x1="2613.82" y1="-793.5" x2="718.33" y2="681.22" xlink:href="#linear-gradient"/><linearGradient id="linear-gradient-6" x1="2402.79" y1="-1064.73" x2="507.3" y2="410" xlink:href="#linear-gradient"/><linearGradient id="linear-gradient-7" x1="1147.7" y1="-31.87" x2="933.92" y2="134.46" xlink:href="#linear-gradient"/><linearGradient id="linear-gradient-8" x1="1099.53" y1="230.11" x2="981.15" y2="322.21" xlink:href="#linear-gradient"/></defs><path class="cls-1" d="M725.48,1118.12c-17.49-.16-35,0-52.48,0v-.24c-14,0-28-.08-42,0-5.82,0-11.75-.12-17.43.94-21.41,4-35.82,23.18-34.19,44.94,1.75,23.39,18.1,40.09,40.73,40.59,26,.56,52,.46,78,.52,10.16,0,20.34.12,30.47-.55,11.5-.77,18.54-7,19.25-18.48a407.38,407.38,0,0,0,.31-47.4C747.34,1124.33,739.81,1118.25,725.48,1118.12Z"/><path class="cls-2" d="M963.71,583.65c-1.17,84.65-31.59,169.47-94.64,241.58C813.27,889,743.38,929.54,659.82,944.81c-78.26,14.29-153.58,3.79-225-31.49-17.89-8.83-35.31-11-54.46-5.16-24,7.33-48.51,13.07-72.59,20.22-36.45,10.83-70.25-22.39-60.44-60.12q10.8-41.53,21.66-83a61.13,61.13,0,0,0-4.28-43.28c-28.24-58.42-41.38-120.07-38.56-184.81,4-91.81,36.11-172.66,97.63-241.18,53.12-59.18,118.7-97.69,196.65-114,79.89-16.71,157.33-7.93,230.66,28,98.51,48.26,163.1,126.22,196.08,230.58C958.08,495.09,963.71,534.72,963.71,583.65Zm-363,188.21c9.5-.36,27.67-.61,45.77-1.83,21.11-1.43,42-4.22,62.09-11.68,20.48-7.62,35-20.58,37.89-43.34,1.06-8.22,1-16.6,1.39-24.91.62-14.55-4.64-27-13.75-38.06-12.19-14.74-27.94-24.63-45.38-31.74-50.15-20.41-101.62-22.2-153.8-9.46-23.68,5.79-45.76,15.37-64.24,31.8-12.57,11.17-21.81,24.48-22.63,41.87a192.66,192.66,0,0,0,1,28.92c1.77,16.93,9.75,30.47,25,38.53a126.66,126.66,0,0,0,25.35,10.19c30.34,8.36,61.52,9,101.33,9.73Zm-3-225.15c41.13.18,74.95-33.23,75.2-74.29a75,75,0,0,0-74.31-75.69h-.49c-41.12-.19-75,33.23-75.2,74.29a75,75,0,0,0,74.31,75.69h.49Z"/><path class="cls-3" d="M940.59,171.47c118.78,101.11,177,231.61,181.1,387.11h50.55c2.24-147.37-65.55-347.54-258-470.7A557.43,557.43,0,0,0,317.93,85C126.93,204.51,53.34,403.26,55.4,558.63h51.18a507.37,507.37,0,0,1,313-468.12c62.13-25.77,126.88-39,194.13-38.64C736.87,52.56,846.78,91.61,940.59,171.47Z"/><path class="cls-4" d="M168.67,603.14c-1.6-9-7.11-14.34-15.76-15.78a49.89,49.89,0,0,0-8-.73c-26.32,0-52.64-.12-79,.11-14.27.12-27.71,3.58-39.42,12.18C7.73,612.69.29,632.1.18,654.51c-.26,56.32-.44,112.64,0,169C.53,865.85,27.68,892,70,892h71.48c20.8-.06,27.91-6.77,28-27.41.22-41.83.07-83.65.07-125.47h.08V616.62A78.07,78.07,0,0,0,168.67,603.14Z"/><path class="cls-5" d="M1236.41,689.27c0-14.66.13-29.34-.68-44-1.83-33.12-25.5-58.08-58.49-59.9-27.4-1.51-54.93-.75-82.41-.91a71.56,71.56,0,0,0-10.44.83c-9.25,1.31-14.77,6.46-16.38,15.61a75.5,75.5,0,0,0-1,12.91q-.12,61.73,0,123.44v124a76.25,76.25,0,0,0,.21,8c1.28,12.7,7.29,18.77,20,20.14a85.62,85.62,0,0,0,10,.47c26.82-.18,53.68.57,80.42-.94,23.14-1.31,40.87-13,51.43-34.33,6.4-12.9,7.51-26.78,7.51-40.86Q1236.46,751.49,1236.41,689.27Z"/><path class="cls-6" d="M1137.2,921.88c-7.1,0-7.17,0-8,7.22-3.83,31.08-12.68,60.65-28.25,87.81-43.82,76.46-109.72,118-198,121.92-32.77,1.47-65.65.36-98.48.48-4.07,0-8.15.37-12.12.56v42c2.89.25,5.52.66,8.15.67h93.47c34.81.06,68.79-5,101.07-18.32,90.92-37.43,147.1-104.85,170.56-199.88,3.37-13.67,5.07-27.75,7.64-42.17-2.4-.1-4.19-.24-6-.25Q1152.21,921.89,1137.2,921.88Z"/><path class="cls-7" d="M734.12,652c-12.19-14.74-27.94-24.63-45.38-31.74-50.15-20.41-101.62-22.2-153.8-9.46-23.68,5.79-45.76,15.37-64.24,31.8-12.57,11.17-21.81,24.48-22.63,41.87a192.66,192.66,0,0,0,1,28.92c1.77,16.93,9.75,30.47,25,38.53a126.66,126.66,0,0,0,25.35,10.19c30.29,8.36,61.47,9,101.28,9.71,9.5-.36,27.67-.61,45.77-1.83,21.11-1.43,42-4.22,62.09-11.68,20.48-7.62,35-20.58,37.89-43.34,1.06-8.22,1-16.6,1.39-24.91C748.54,675.55,743.23,663.05,734.12,652Z"/><path class="cls-8" d="M597.68,546.71c41.13.18,75-33.23,75.2-74.29a75,75,0,0,0-74.31-75.69h-.49c-41.12-.19-75,33.23-75.2,74.29a75,75,0,0,0,74.31,75.69Z"/></svg>