<svg width="24" height="25" viewBox="0 0 24 25" fill="none" xmlns="http://www.w3.org/2000/svg">
<path d="M12 24.5C18.6274 24.5 24 19.1274 24 12.5C24 5.87258 18.6274 0.5 12 0.5C5.37258 0.5 0 5.87258 0 12.5C0 19.1274 5.37258 24.5 12 24.5Z" fill="url(#paint0_linear_14526_34111)"/>
<path fill-rule="evenodd" clip-rule="evenodd" d="M5.43201 12.373C8.93026 10.8488 11.263 9.84403 12.4301 9.35856C15.7627 7.97245 16.4551 7.73167 16.9065 7.72372C17.0058 7.72197 17.2277 7.74657 17.3715 7.86323C17.4929 7.96174 17.5263 8.09481 17.5423 8.18821C17.5583 8.2816 17.5782 8.49436 17.5623 8.66061C17.3817 10.5581 16.6003 15.1628 16.2028 17.288C16.0346 18.1872 15.7034 18.4888 15.3827 18.5183C14.6858 18.5824 14.1567 18.0577 13.4817 17.6153C12.4256 16.923 11.8289 16.492 10.8037 15.8164C9.61896 15.0357 10.387 14.6066 11.0622 13.9053C11.2389 13.7217 14.3093 10.929 14.3687 10.6756C14.3762 10.644 14.3831 10.5258 14.3129 10.4635C14.2427 10.4011 14.1392 10.4224 14.0644 10.4394C13.9585 10.4634 12.2713 11.5786 9.00276 13.785C8.52385 14.1138 8.09007 14.2741 7.70141 14.2657C7.27295 14.2564 6.44876 14.0234 5.83606 13.8242C5.08456 13.58 4.48728 13.4508 4.53929 13.0359C4.56638 12.8198 4.86395 12.5989 5.43201 12.373Z" fill="white"/>
<defs>
<linearGradient id="paint0_linear_14526_34111" x1="12" y1="0.5" x2="12" y2="24.322" gradientUnits="userSpaceOnUse">
<stop stop-color="#2AABEE"/>
<stop offset="1" stop-color="#229ED9"/>
</linearGradient>
</defs>
</svg>
