<svg width="32" height="32" viewBox="0 0 32 32" fill="none" xmlns="http://www.w3.org/2000/svg">
<path d="M4.70508 29.9023H17.4551C17.8434 29.9023 18.1582 29.5876 18.1582 29.1992V28.4492C18.1582 27.6725 17.5287 27.043 16.752 27.043V26.2023C16.752 25.0892 15.8463 24.1836 14.7332 24.1836H7.42694C6.31384 24.1836 5.4082 25.0892 5.4082 26.2023V27.043C4.63147 27.043 4.00195 27.6725 4.00195 28.4492V29.1992C4.00195 29.5874 4.31689 29.9023 4.70508 29.9023Z" fill="url(#paint0_linear_10120_436449)"/>
<path d="M7.00195 26.9023C7.00195 26.3501 7.44967 25.9023 8.00195 25.9023H14.002C14.5542 25.9023 15.002 26.3501 15.002 26.9023V27.9023H7.00195V26.9023Z" fill="url(#paint1_linear_10120_436449)"/>
<path fill-rule="evenodd" clip-rule="evenodd" d="M23.4934 9.87028C23.3322 9.89005 23.168 9.90023 23.0015 9.90023C20.8744 9.90023 19.135 8.2399 19.0088 6.14453C18.9905 6.15703 18.9724 6.17003 18.9545 6.18351C18.3343 6.65098 18.2104 7.53263 18.6778 8.15299L22.9092 13.7683C23.3767 14.3885 24.2583 14.5124 24.8787 14.045C25.4989 13.5777 25.6228 12.696 25.1554 12.0757L23.4934 9.87028ZM12.802 21.384C13.2692 22.0042 14.1511 22.1282 14.7713 21.6607C15.3916 21.1934 15.5154 20.3116 15.0481 19.6912L10.8165 14.0759C10.3491 13.4556 9.46742 13.3318 8.84725 13.7991C8.22688 14.2665 8.10292 15.1482 8.57039 15.7685L12.802 21.384ZM22.1298 15.0748C21.6418 16.0987 20.8616 17.0712 19.8223 17.8543C18.7828 18.6377 17.6331 19.1196 16.5143 19.3065L11.5906 12.7722C12.0786 11.7485 12.8588 10.776 13.8981 9.99288C14.9376 9.20956 16.0873 8.72781 17.2061 8.54086L22.1298 15.0748ZM21.7253 18.0377C21.3979 18.3713 21.0531 18.6912 20.673 18.9778C20.2927 19.2642 19.89 19.5075 19.4793 19.7304L20.3961 20.9471L22.6423 19.2547L21.7253 18.0377ZM21.2383 22.0677L23.4844 20.3752L27.716 25.9905C28.1833 26.6109 28.0595 27.4925 27.4391 27.96C26.819 28.4273 25.9373 28.3035 25.4698 27.6832L21.2383 22.0677Z" fill="url(#paint2_linear_10120_436449)"/>
<circle cx="23.1666" cy="5.66656" r="3.565" fill="url(#paint3_linear_10120_436449)"/>
<defs>
<linearGradient id="paint0_linear_10120_436449" x1="-3.82916" y1="26.7366" x2="21.557" y2="32.8372" gradientUnits="userSpaceOnUse">
<stop stop-color="#E8F4FB"/>
<stop offset="1" stop-color="#D2E0F5"/>
</linearGradient>
<linearGradient id="paint1_linear_10120_436449" x1="7.00195" y1="26.1881" x2="7.81091" y2="29.6049" gradientUnits="userSpaceOnUse">
<stop stop-color="white"/>
<stop offset="1" stop-color="#E2F1FA"/>
</linearGradient>
<linearGradient id="paint2_linear_10120_436449" x1="14.1744" y1="9.82526" x2="52.1848" y2="36.9337" gradientUnits="userSpaceOnUse">
<stop stop-color="#FF4B4B"/>
<stop offset="1" stop-color="#FFB6B6"/>
</linearGradient>
<linearGradient id="paint3_linear_10120_436449" x1="21.731" y1="3.28912" x2="34.3841" y2="13.4057" gradientUnits="userSpaceOnUse">
<stop stop-color="#FF4B4B"/>
<stop offset="1" stop-color="#FFB6B6"/>
</linearGradient>
</defs>
</svg>
