<svg width="40" height="40" viewBox="0 0 40 40" fill="none" xmlns="http://www.w3.org/2000/svg">
<path fill-rule="evenodd" clip-rule="evenodd" d="M22.9167 15.2083C22.9167 20.8462 18.3462 25.4167 12.7083 25.4167C11.1318 25.4167 9.63869 25.0593 8.30568 24.4211C7.84752 24.2018 7.32846 24.1247 6.83776 24.256L5.27328 24.6746C4.0402 25.0046 2.9121 23.8765 3.24203 22.6434L3.66063 21.0789C3.79192 20.5882 3.71491 20.0691 3.49557 19.611C2.85739 18.278 2.5 16.7849 2.5 15.2083C2.5 9.57043 7.07043 5 12.7083 5C18.3462 5 22.9167 9.57043 22.9167 15.2083Z" fill="url(#paint0_linear_13641_48227)"/>
<rect x="6.75146" y="12.6562" width="11.5484" height="1.92474" rx="0.962369" fill="white"/>
<rect x="6.75146" y="16.0677" width="6.80556" height="1.70139" rx="0.850694" fill="white"/>
<path d="M29.3358 22.2005C29.3358 23.0059 29.9887 23.6589 30.7941 23.6589C31.5995 23.6589 32.2524 23.0059 32.2524 22.2005C32.2524 21.3951 31.5995 20.7422 30.7941 20.7422C29.9887 20.7422 29.3358 21.3951 29.3358 22.2005Z" fill="white"/>
<path d="M24.2316 22.2005C24.2316 23.0059 24.8845 23.6589 25.6899 23.6589C26.4954 23.6589 27.1483 23.0059 27.1483 22.2005C27.1483 21.3951 26.4954 20.7422 25.6899 20.7422C24.8845 20.7422 24.2316 21.3951 24.2316 22.2005Z" fill="white"/>
<path d="M19.1274 22.2005C19.1274 23.0059 19.7804 23.6589 20.5858 23.6589C21.3912 23.6589 22.0441 23.0059 22.0441 22.2005C22.0441 21.3951 21.3912 20.7422 20.5858 20.7422C19.7804 20.7422 19.1274 21.3951 19.1274 22.2005Z" fill="white"/>
<path d="M28.6591 11.1499L28.7327 10.6779L28.2645 10.5829C27.4785 10.4235 26.6653 10.3398 25.8332 10.3398C19.1137 10.3398 13.6665 15.787 13.6665 22.5065C13.6665 29.226 19.1137 34.6732 25.8332 34.6732C27.7113 34.6732 29.4913 34.2473 31.0807 33.4864C31.5159 33.278 31.9865 33.2156 32.4132 33.3298L34.2011 33.8081C35.982 34.2846 37.6113 32.6554 37.1348 30.8745L36.6564 29.0865C36.5422 28.6598 36.6047 28.1892 36.813 27.754C37.574 26.1646 37.9998 24.3846 37.9998 22.5065C37.9998 20.2306 37.3745 18.0992 36.2859 16.2765L36.0409 15.8664L35.62 16.0924C34.9499 16.4524 34.1837 16.6568 33.3682 16.6568C30.7359 16.6568 28.602 14.5229 28.602 11.8906C28.602 11.6383 28.6216 11.391 28.6591 11.1499Z" fill="url(#paint1_linear_13641_48227)" stroke="white"/>
<path d="M29.3358 22.2005C29.3358 23.0059 29.9887 23.6589 30.7941 23.6589C31.5995 23.6589 32.2524 23.0059 32.2524 22.2005C32.2524 21.3951 31.5995 20.7422 30.7941 20.7422C29.9887 20.7422 29.3358 21.3951 29.3358 22.2005Z" fill="white"/>
<path d="M24.2316 22.2005C24.2316 23.0059 24.8845 23.6589 25.6899 23.6589C26.4954 23.6589 27.1483 23.0059 27.1483 22.2005C27.1483 21.3951 26.4954 20.7422 25.6899 20.7422C24.8845 20.7422 24.2316 21.3951 24.2316 22.2005Z" fill="white"/>
<path d="M19.1274 22.2005C19.1274 23.0059 19.7804 23.6589 20.5858 23.6589C21.3912 23.6589 22.0441 23.0059 22.0441 22.2005C22.0441 21.3951 21.3912 20.7422 20.5858 20.7422C19.7804 20.7422 19.1274 21.3951 19.1274 22.2005Z" fill="white"/>
<circle cx="33.3722" cy="11.8977" r="4.16667" fill="url(#paint2_linear_13641_48227)"/>
<defs>
<linearGradient id="paint0_linear_13641_48227" x1="11.4212" y1="25.5064" x2="14.6594" y2="4.64651" gradientUnits="userSpaceOnUse">
<stop stop-color="#D0D4EC"/>
<stop offset="1" stop-color="#E5EBF6"/>
</linearGradient>
<linearGradient id="paint1_linear_13641_48227" x1="21.1354" y1="14.7262" x2="62.5432" y2="47.8332" gradientUnits="userSpaceOnUse">
<stop stop-color="#FF4B4B"/>
<stop offset="1" stop-color="#FFB6B6"/>
</linearGradient>
<linearGradient id="paint2_linear_13641_48227" x1="31.6944" y1="9.11906" x2="46.483" y2="20.943" gradientUnits="userSpaceOnUse">
<stop stop-color="#FF4B4B"/>
<stop offset="1" stop-color="#FFB6B6"/>
</linearGradient>
</defs>
</svg>
