<svg width="24" height="24" viewBox="0 0 24 24" fill="none" xmlns="http://www.w3.org/2000/svg">
<rect width="24" height="24" rx="12" fill="#02AAAD"/>
<g clip-path="url(#clip0_7611_795449)">
<path d="M10.7578 13.1004C10.7984 13.022 10.8376 12.9458 10.8774 12.8699C11.1428 12.3633 11.4083 11.8566 11.6738 11.35C11.8018 11.1059 11.9295 10.8617 12.0571 10.6173C12.0655 10.6013 12.0745 10.5961 12.092 10.5961C12.4736 10.5967 12.8552 10.5967 13.2366 10.5961C13.2563 10.5961 13.265 10.6038 13.2733 10.6198C13.4318 10.9255 13.5906 11.231 13.7498 11.5363C13.9259 11.8744 14.1023 12.2125 14.2788 12.5505C14.2949 12.5827 14.3142 12.6133 14.3365 12.6416C14.3641 12.6753 14.4032 12.6875 14.4415 12.6744C14.4786 12.6622 14.5025 12.6306 14.5041 12.5874C14.5064 12.5274 14.5079 12.4674 14.508 12.4073C14.5083 12.0576 14.5106 11.7079 14.5074 11.3582C14.5051 11.1135 14.5074 10.8688 14.5045 10.6241C14.5045 10.5967 14.5116 10.5898 14.5387 10.5898C14.9607 10.5907 15.3827 10.5907 15.8047 10.5898C15.8255 10.5898 15.8375 10.5956 15.8496 10.6133C16.2352 11.1798 16.6212 11.746 17.0077 12.312C17.045 12.3667 17.0805 12.3848 17.1231 12.3723C17.1699 12.3586 17.1945 12.3179 17.1944 12.2532C17.194 11.711 17.1934 11.169 17.1924 10.6272C17.1924 10.5973 17.1997 10.5897 17.2297 10.5898C17.4647 10.5912 17.6997 10.5912 17.9348 10.5898C17.9591 10.5898 17.9676 10.5942 17.9676 10.6213C17.9667 11.4388 17.9667 12.2562 17.9676 13.0737C17.9676 13.1013 17.9597 13.1075 17.9329 13.1074C17.5164 13.1066 17.0999 13.1066 16.6834 13.1074C16.6728 13.1082 16.6623 13.106 16.6529 13.1011C16.6435 13.0962 16.6357 13.0888 16.6304 13.0797C16.2324 12.5069 15.8342 11.9345 15.4357 11.3624C15.4062 11.3201 15.3682 11.3053 15.3232 11.3187C15.2844 11.3302 15.2585 11.3691 15.2585 11.4182C15.2589 11.7995 15.2574 12.1809 15.2609 12.5623C15.2624 12.7315 15.2606 12.9009 15.2637 13.0702C15.2643 13.0983 15.2552 13.1043 15.2287 13.1042C14.7432 13.103 14.2578 13.1025 13.7724 13.1026C13.7519 13.1026 13.7426 13.096 13.7331 13.0779C13.4223 12.4832 13.111 11.8886 12.7993 11.2939C12.7826 11.2621 12.7672 11.2295 12.749 11.1986C12.7063 11.126 12.6198 11.1276 12.5784 11.2006C12.4895 11.3569 12.4096 11.518 12.3267 11.6775C12.263 11.8003 12.2007 11.9238 12.1376 12.0469C12.122 12.0774 12.1222 12.0781 12.156 12.0781C12.3735 12.0781 12.5911 12.0785 12.8086 12.0776C12.8313 12.0776 12.8426 12.0842 12.8532 12.1051C12.9369 12.2691 13.0221 12.4322 13.1069 12.5956C13.1244 12.6294 13.1245 12.6294 13.0872 12.6294C12.7122 12.6294 12.3372 12.63 11.9623 12.629C11.877 12.629 11.8152 12.6667 11.7761 12.7395C11.715 12.8526 11.6569 12.9674 11.5984 13.0819C11.5911 13.0962 11.5834 13.1024 11.5665 13.1024C11.302 13.1018 11.0374 13.1017 10.7728 13.1019C10.7678 13.1016 10.7628 13.1011 10.7578 13.1004Z" fill="white"/>
<path d="M3.47538 12.6287H3.4389C3.04319 12.6287 2.64742 12.6287 2.25161 12.6287C2.16549 12.6287 2.10638 12.6697 2.06716 12.7421C2.00642 12.8541 1.94745 12.9672 1.88847 13.0802C1.88047 13.0955 1.87168 13.1021 1.85351 13.102C1.59231 13.1013 1.33106 13.1011 1.06977 13.1013C1.06649 13.1013 1.06321 13.1006 1.05875 13.1001C1.05731 13.0861 1.06629 13.0758 1.07187 13.0649C1.38795 12.4605 1.70411 11.8562 2.02032 11.2519C2.13144 11.0395 2.24296 10.8274 2.35309 10.6146C2.36332 10.595 2.37421 10.5889 2.3956 10.5889C2.77278 10.5895 3.14993 10.5895 3.52707 10.5889C3.54917 10.5889 3.5594 10.5964 3.56924 10.6151C3.89285 11.2352 4.21668 11.8551 4.54072 12.475C4.55017 12.4929 4.5604 12.4993 4.581 12.4993C5.13201 12.4987 5.68301 12.4985 6.23402 12.4987C6.29509 12.4987 6.35656 12.4987 6.41664 12.4865C6.52947 12.4634 6.56246 12.398 6.56515 12.2774C6.56486 12.2577 6.56266 12.2382 6.55859 12.2189C6.54665 12.1499 6.50133 12.1054 6.4318 12.0972C6.33301 12.0854 6.23356 12.0845 6.13419 12.0844C5.66959 12.0844 5.20497 12.0845 4.74033 12.0848C4.71954 12.0848 4.70694 12.0803 4.69671 12.0605C4.44473 11.5779 4.19245 11.0952 3.93986 10.6125C3.93652 10.606 3.9333 10.5994 3.92871 10.5896H3.96453C4.82904 10.5895 5.69366 10.5892 6.5584 10.5889C6.65121 10.5889 6.74403 10.588 6.83488 10.6118C7.02472 10.6616 7.13958 10.7861 7.18123 10.974C7.22059 11.1527 7.21856 11.3338 7.18123 11.5133C7.15073 11.6607 7.06198 11.7599 6.92075 11.8121C6.9096 11.8163 6.89858 11.8206 6.88211 11.8269C6.91393 11.8345 6.94069 11.8414 6.96772 11.8473C7.14096 11.8849 7.23843 11.9962 7.27464 12.1653C7.3138 12.3484 7.31302 12.5379 7.27234 12.7207C7.23207 12.9057 7.11905 13.0209 6.93124 13.0618C6.82176 13.0857 6.71137 13.0946 6.59992 13.0962C5.75937 13.1076 4.91875 13.098 4.0782 13.1017C4.0538 13.1017 4.04193 13.0937 4.03084 13.0726C3.70759 12.4561 3.38398 11.8398 3.06002 11.2237C3.04789 11.2005 3.037 11.1763 3.01483 11.1604C3.00488 11.1536 2.9937 11.1488 2.98192 11.1464C2.97014 11.144 2.95799 11.1439 2.94618 11.1462C2.93436 11.1484 2.92312 11.153 2.91308 11.1597C2.90305 11.1663 2.89442 11.1748 2.8877 11.1848C2.82866 11.2715 2.78445 11.3668 2.73585 11.4593C2.63404 11.6532 2.53407 11.8481 2.43332 12.0425C2.41521 12.0774 2.41515 12.0774 2.45529 12.0774C2.6903 12.0774 2.92535 12.0774 3.16045 12.0774C3.17862 12.0774 3.192 12.0783 3.2023 12.0983C3.29158 12.2717 3.3823 12.4443 3.47249 12.6172C3.47381 12.621 3.47477 12.6248 3.47538 12.6287ZM4.94539 11.1863C5.01269 11.3134 5.07743 11.4343 5.1404 11.5561C5.15149 11.5776 5.16369 11.5849 5.1877 11.5848C5.42588 11.5839 5.66412 11.5842 5.9023 11.5843C6.03349 11.5843 6.16429 11.5822 6.29509 11.5731C6.39145 11.5666 6.43835 11.537 6.45908 11.4656C6.47199 11.4191 6.47423 11.3703 6.46564 11.3228C6.45272 11.2465 6.41048 11.2054 6.33255 11.1964C6.27615 11.19 6.21942 11.1869 6.16265 11.1872C5.76908 11.1863 5.37572 11.186 4.98258 11.1863H4.94539Z" fill="white"/>
<path d="M10.3756 11.8273C10.4108 11.8355 10.4403 11.8423 10.4697 11.8492C10.6242 11.8856 10.7238 11.9812 10.7623 12.1341C10.8139 12.3382 10.8128 12.552 10.759 12.7555C10.718 12.9134 10.6162 13.0125 10.4577 13.0558C10.3301 13.0908 10.1997 13.1005 10.0689 13.1007C9.2448 13.1022 8.42072 13.1028 7.59661 13.1025C7.56939 13.1025 7.5625 13.0959 7.5625 13.0685C7.56329 12.2545 7.56329 11.4405 7.5625 10.6264C7.5625 10.5969 7.5707 10.5908 7.59891 10.5908C8.37497 10.5916 9.15104 10.5908 9.92711 10.5923C10.049 10.5923 10.1711 10.5981 10.2909 10.628C10.5221 10.6859 10.6546 10.8339 10.691 11.0667C10.7152 11.2201 10.7092 11.3769 10.6733 11.528C10.6405 11.6665 10.5549 11.7576 10.4241 11.8092C10.4097 11.8147 10.3955 11.8198 10.3756 11.8273ZM9.05278 12.0871V12.0848C8.82654 12.0848 8.60017 12.0854 8.37412 12.0841C8.34277 12.0841 8.33122 12.0891 8.33207 12.1241C8.33476 12.2366 8.33444 12.3492 8.33207 12.4616C8.33135 12.4952 8.34047 12.5033 8.37373 12.5032C8.80319 12.502 9.23264 12.5032 9.6621 12.5019C9.72849 12.5019 9.79507 12.4967 9.86119 12.4904C9.94338 12.4825 9.9931 12.4392 10.0128 12.3635C10.0258 12.3136 10.0264 12.2613 10.0145 12.2112C9.99913 12.145 9.95545 12.1046 9.88775 12.0974C9.83465 12.0913 9.78128 12.0879 9.72783 12.0873C9.5029 12.0865 9.27784 12.0871 9.05278 12.0871ZM9.01526 11.5816C9.17925 11.5816 9.34324 11.5821 9.5069 11.5816C9.60287 11.5811 9.6989 11.5798 9.79441 11.5673C9.85587 11.5591 9.89772 11.5286 9.91557 11.4689C9.93072 11.4185 9.9328 11.3651 9.9216 11.3138C9.90487 11.236 9.85548 11.1993 9.77624 11.1927C9.67929 11.1845 9.58207 11.1839 9.48519 11.1833C9.11129 11.1809 8.73792 11.1826 8.36428 11.1818C8.34021 11.1818 8.33227 11.1884 8.33253 11.213C8.33378 11.3221 8.3343 11.4314 8.33253 11.5406C8.33194 11.5726 8.33863 11.5829 8.37314 11.5826C8.58705 11.5807 8.80115 11.5816 9.01526 11.5816Z" fill="white"/>
<path d="M21.3605 10.5918C21.2694 10.677 21.1818 10.7586 21.0944 10.8404C20.7445 11.168 20.3944 11.4954 20.044 11.8227C20.0239 11.8414 20.0233 11.8498 20.044 11.8686C20.4791 12.2632 20.9137 12.6584 21.3479 13.0543C21.3639 13.0688 21.3797 13.0837 21.3955 13.0983C21.3889 13.1108 21.3793 13.1056 21.3719 13.1056C21.0756 13.1059 20.7794 13.1061 20.4832 13.1061C20.4752 13.1063 20.4672 13.1049 20.4597 13.102C20.4522 13.0991 20.4454 13.0946 20.4397 13.089C20.1222 12.7972 19.8044 12.5055 19.4866 12.214C19.421 12.1536 19.3532 12.1028 19.2624 12.0885C19.1306 12.0679 19.0313 12.1495 19.0309 12.2835C19.0301 12.5436 19.0309 12.8036 19.0309 13.0636C19.0309 13.1058 19.0309 13.1058 18.9887 13.1058C18.7559 13.1058 18.523 13.1054 18.2903 13.1064C18.2644 13.1064 18.2578 13.0995 18.2578 13.0736C18.2585 12.2563 18.2585 11.439 18.2578 10.6217C18.2578 10.5942 18.2671 10.59 18.2913 10.5901C18.5262 10.5912 18.7612 10.5913 18.9962 10.5903C19.0266 10.5903 19.0317 10.6001 19.0315 10.6275C19.0306 10.8855 19.0304 11.1435 19.0311 11.4015C19.0311 11.5021 19.0841 11.5764 19.1727 11.6016C19.2055 11.6104 19.2401 11.6105 19.273 11.602C19.3747 11.5782 19.4515 11.5161 19.5245 11.4449C19.8193 11.1571 20.1244 10.8804 20.4273 10.602C20.4314 10.5978 20.4363 10.5944 20.4418 10.5922C20.4472 10.5899 20.4531 10.5888 20.459 10.5889C20.7552 10.5892 21.0514 10.5894 21.3476 10.5893C21.3519 10.5898 21.3563 10.5907 21.3605 10.5918Z" fill="white"/>
<path d="M22.7513 10.5929C22.7412 10.6131 22.725 10.623 22.7119 10.6351C22.4723 10.8599 22.2324 11.0846 21.9923 11.309C21.809 11.4807 21.6255 11.6522 21.442 11.8235C21.4233 11.8409 21.4188 11.8494 21.441 11.8694C21.8238 12.2178 22.2059 12.5667 22.5874 12.9164C22.6525 12.976 22.7177 13.0357 22.783 13.0956C22.7734 13.1077 22.7617 13.1028 22.7518 13.1028C22.5212 13.1031 22.2906 13.1028 22.0601 13.1034C22.0509 13.1037 22.0418 13.1022 22.0332 13.099C22.0247 13.0957 22.0169 13.0908 22.0103 13.0844C21.5636 12.6782 21.1165 12.2723 20.669 11.8669C20.6443 11.8444 20.6607 11.8359 20.6747 11.8229L21.6471 10.9156C21.7565 10.8135 21.8658 10.7113 21.9751 10.6091C21.9867 10.5982 21.9976 10.5908 22.0148 10.5908C22.2541 10.5914 22.4934 10.5915 22.7328 10.5913C22.7377 10.5913 22.7427 10.5921 22.7513 10.5929Z" fill="#DF762F"/>
</g>
<defs>
<clipPath id="clip0_7611_795449">
<rect width="21.7279" height="2.51806" fill="white" transform="translate(1.05859 10.5879)"/>
</clipPath>
</defs>
</svg>
