<svg width="24" height="24" viewBox="0 0 24 24" fill="none" xmlns="http://www.w3.org/2000/svg">
<circle cx="12" cy="12" r="12" fill="#072EAB"/>
<path d="M13.2512 8.25C11.2225 8.24996 9.57788 9.9289 9.57787 12C9.57788 14.0711 11.2225 15.75 13.2512 15.75C14.2508 15.75 15.1566 15.3418 15.8188 14.6805C15.888 14.6117 15.8726 14.4843 15.8188 14.4292L15.0642 13.6565C14.9911 13.5818 14.8723 13.5988 14.8341 13.6372C14.4504 14.0224 13.9316 14.2587 13.3607 14.2587C12.1791 14.2587 11.2213 13.2461 11.2213 11.9971C11.2213 10.7531 12.1719 9.74262 13.3489 9.73568C13.3528 9.73567 13.3567 9.73567 13.3607 9.73568C13.916 9.73566 14.4219 9.95921 14.8022 10.3259C14.8462 10.3683 14.956 10.3624 15.0206 10.2962L15.7665 9.53193C15.8019 9.49561 15.869 9.37426 15.793 9.29431C15.1331 8.64796 14.2379 8.25003 13.2512 8.25ZM5.7209 8.43363C5.66679 8.43841 5.55055 8.47131 5.48565 8.65751C5.39912 8.90577 3.03881 15.2974 3.03881 15.2974C3.03881 15.2974 2.91861 15.5499 3.10129 15.5499H4.46652C4.46652 15.5499 4.61466 15.542 4.69736 15.2827L5.13059 13.9245H7.64318L8.08653 15.3315C8.08653 15.3315 8.13954 15.5499 8.34146 15.5499H9.77891C9.77891 15.5499 9.93278 15.5406 9.83662 15.3216C9.74047 15.1025 7.41347 8.62829 7.41347 8.62829C7.41347 8.62829 7.37515 8.43363 7.11555 8.43363H5.75014C5.75014 8.43363 5.73893 8.43203 5.7209 8.43363ZM16.5234 8.43363C16.5234 8.43363 16.3537 8.42817 16.3537 8.61146V15.3738C16.3537 15.3738 16.3539 15.5499 16.5198 15.5499H19.3215C19.3215 15.5499 20.581 15.5532 21.2447 14.8812C21.9084 14.2092 21.7275 13.2088 21.7275 13.2088C21.7275 13.2088 21.5691 12.0632 20.3171 11.773C20.3171 11.773 21.441 11.4523 21.3693 10.1159C21.2636 8.94593 20.2206 8.43363 19.1369 8.43363H16.5234ZM17.8999 9.67686H18.9294C18.9294 9.67686 19.7967 9.67682 19.808 10.4901C19.8194 11.3035 18.8992 11.2844 18.8992 11.2844H17.8999V9.67686ZM6.39433 9.96208L7.24741 12.6687H5.53114L6.39433 9.96208ZM17.8999 12.4567H19.0652C19.0652 12.4567 20.1248 12.4642 20.1323 13.392C20.1399 14.3199 19.1142 14.32 19.1142 14.32H17.8999V12.4567Z" fill="#E1E6F9"/>
<path d="M15 12C15 12.197 14.9612 12.392 14.8858 12.574C14.8104 12.756 14.6999 12.9214 14.5607 13.0607C14.4214 13.1999 14.256 13.3104 14.074 13.3858C13.892 13.4612 13.697 13.5 13.5 13.5C13.303 13.5 13.108 13.4612 12.926 13.3858C12.744 13.3104 12.5786 13.1999 12.4393 13.0607C12.3001 12.9214 12.1896 12.756 12.1142 12.574C12.0388 12.392 12 12.197 12 12C12 11.803 12.0388 11.608 12.1142 11.426C12.1896 11.244 12.3001 11.0786 12.4393 10.9393C12.5786 10.8001 12.744 10.6896 12.926 10.6142C13.108 10.5388 13.303 10.5 13.5 10.5C13.697 10.5 13.892 10.5388 14.074 10.6142C14.256 10.6896 14.4214 10.8001 14.5607 10.9393C14.6999 11.0786 14.8104 11.244 14.8858 11.426C14.9612 11.608 15 11.803 15 12Z" fill="#E1E6F9"/>
</svg>
