<svg width="24" height="24" viewBox="0 0 24 24" fill="none" xmlns="http://www.w3.org/2000/svg">
<rect width="24" height="24" rx="12" fill="#122619"/>
<g clip-path="url(#clip0_7611_795401)">
<path d="M17.7152 18.75H6.28484C5.72038 18.75 5.25 18.2796 5.25 17.7152V6.28484C5.25 5.72038 5.72038 5.25 6.28484 5.25H17.7622C18.3267 5.25 18.797 5.72038 18.797 6.28484V17.7152C18.75 18.2796 18.2796 18.75 17.7152 18.75Z" fill="white"/>
<path d="M18.3252 6.61362C18.3252 6.0962 17.9018 5.67285 17.3844 5.67285H14.6562L5.67188 14.6101V17.3384C5.67188 17.8558 6.09522 18.2791 6.61264 18.2791H9.34086L18.3252 9.2948V6.61362Z" fill="#AA1E30"/>
<path d="M18.3252 9.85926L9.85829 18.2791H17.3844C17.9018 18.2791 18.3252 17.8558 18.3252 17.3384V9.85926ZM5.67188 14.0457L14.0917 5.67285H6.61264C6.09522 5.67285 5.67188 6.0962 5.67188 6.61362V14.0457Z" fill="#122619"/>
<path d="M10.1875 18.1855C10.1875 18.1855 10.6579 17.9974 11.1283 17.9033C11.3164 17.8563 12.2572 17.6211 12.2101 16.6333C12.2101 16.3511 11.7868 16.7274 11.7868 16.7274C11.7868 16.7274 11.0342 16.8214 10.7049 17.0566C10.5638 17.1037 10.1875 17.527 10.1875 18.1855Z" fill="#FAE404"/>
<path d="M12.1633 16.5863C12.0692 16.5863 11.9281 16.6803 11.881 16.7274C11.881 16.7274 11.1284 16.8215 10.7992 17.0096C10.658 17.1037 10.3288 17.433 10.2817 18.0445C10.4229 17.9974 10.7992 17.8563 11.1755 17.8093C11.5047 17.7152 12.2573 17.48 12.2103 16.5863C12.1633 16.5863 12.1633 16.5863 12.1633 16.5863ZM10.1406 18.2326V18.1856C10.1406 17.48 10.564 17.0566 10.7051 17.0096C11.0344 16.8215 11.6929 16.7274 11.787 16.6803C11.834 16.6333 12.0222 16.4922 12.1162 16.4922C12.1633 16.4922 12.2573 16.4922 12.2573 16.6333C12.3044 17.5741 11.5047 17.8563 11.1284 17.9504C10.7051 18.0445 10.2347 18.2326 10.1877 18.2326H10.1406Z" fill="#AB1F24"/>
<path d="M13.527 14.9873C13.527 14.9873 13.7152 16.1162 12.8214 16.4925C12.4451 16.6336 11.8807 16.8218 11.7866 16.9159C11.7866 16.9159 11.5984 16.1162 12.257 15.6458C12.4922 15.5047 12.9155 15.3636 13.1977 15.2225C13.4329 15.1284 13.527 14.9873 13.527 14.9873Z" fill="#FAE404"/>
<path d="M13.4801 15.0807C13.4331 15.1278 13.292 15.2218 13.1509 15.2689L13.0568 15.3159C12.7746 15.41 12.3983 15.5511 12.2101 15.6922C11.6927 16.0685 11.7397 16.633 11.7397 16.8212C11.8338 16.7741 12.022 16.68 12.3042 16.586C12.4453 16.5389 12.6335 16.4919 12.7746 16.3978C13.4801 16.1626 13.4801 15.363 13.4801 15.0807ZM11.7397 16.9623V16.8682C11.7397 16.8682 11.5516 16.0215 12.2101 15.5511C12.3983 15.41 12.7746 15.2689 13.0568 15.1748L13.1509 15.1278C13.3861 15.0337 13.4801 14.8926 13.4801 14.8926H13.5742C13.5742 14.8926 13.7624 16.0685 12.8216 16.4448C12.6805 16.4919 12.5394 16.5389 12.3512 16.633C12.116 16.7271 11.8338 16.8212 11.7868 16.8682L11.7397 16.9623Z" fill="#AB1F24"/>
<path d="M14.0002 13.5762C14.0002 13.5762 14.5647 14.2817 13.9532 15.0344C13.8121 15.2225 13.1535 15.6459 12.9654 15.8811C12.9654 15.8811 12.6361 15.1284 13.0124 14.564C13.1065 14.3758 13.5298 14.0936 13.6709 13.9525C13.8591 13.8114 14.0002 13.5762 14.0002 13.5762Z" fill="#FAE404"/>
<path d="M13.997 13.6224C13.95 13.7165 13.8089 13.8576 13.7148 13.9517C13.5737 14.0928 13.1503 14.375 13.0562 14.5632C12.727 15.0335 12.9151 15.598 12.9622 15.7862C13.0562 15.6921 13.2444 15.551 13.4326 15.4099C13.6207 15.2687 13.8559 15.0806 13.9029 14.9865C14.3733 14.375 14.0911 13.8105 13.997 13.6224ZM12.9151 15.9273L12.8681 15.8802C12.8681 15.8332 12.5388 15.1276 12.9622 14.5161C13.0562 14.328 13.4796 13.9987 13.6207 13.9046C13.7618 13.7635 13.9029 13.5754 13.9029 13.5754L13.95 13.5283L13.997 13.5754C13.997 13.5754 14.5615 14.2809 13.95 15.1276C13.8559 15.2217 13.6677 15.3628 13.4326 15.551C13.2444 15.6921 13.0092 15.8802 12.9622 15.9743L12.9151 15.9273Z" fill="#AB1F24"/>
<path d="M13.2939 12.0703C13.2939 12.0703 12.7765 12.3996 13.1057 13.2463C13.1528 13.3403 13.5291 14.093 13.5761 14.2811C13.5761 14.2811 14.3287 13.8107 13.9994 12.917C13.9524 12.7288 13.6231 12.2114 13.2939 12.0703Z" fill="#FAE404"/>
<path d="M13.2942 12.1175C13.2002 12.1646 12.8709 12.4938 13.1531 13.2464C13.1531 13.2935 13.2002 13.3875 13.2472 13.4816C13.3883 13.7639 13.5294 14.0461 13.5765 14.2342C13.7176 14.0931 14.188 13.6698 13.9528 12.9642C13.9528 12.7761 13.6235 12.2586 13.2942 12.1175ZM13.5294 14.3754V14.2813C13.5294 14.1402 13.2942 13.7639 13.2002 13.4816C13.1531 13.3405 13.1061 13.2464 13.059 13.2464C12.6827 12.3527 13.2472 12.0234 13.2472 12.0234C13.5765 12.1646 13.9528 12.729 13.9998 12.9172C14.282 13.8579 13.5294 14.3283 13.5294 14.3283V14.3754Z" fill="#AB1F24"/>
<path d="M11.9753 10.8477C11.9753 10.8477 11.7871 11.4121 12.2105 11.9295C12.3986 12.1647 13.1983 12.3999 13.5746 12.6351C13.5275 12.6822 13.9979 11.271 11.9753 10.8477Z" fill="#FAE404"/>
<path d="M11.9747 10.9419C11.9277 11.083 11.8806 11.5064 12.2099 11.9297C12.304 12.0238 12.5862 12.1649 12.8684 12.306C13.1036 12.4001 13.3388 12.4942 13.527 12.6353C13.574 12.4942 13.574 12.1179 13.3859 11.7886C13.1507 11.3182 12.6803 11.083 11.9747 10.9419ZM13.574 12.7294L13.527 12.6823C13.3859 12.5882 13.1036 12.4471 12.8684 12.353C12.5862 12.2119 12.304 12.1179 12.2099 11.9767C11.7866 11.4593 11.9277 10.8949 11.9747 10.8478V10.8008H12.0218C12.7744 10.9419 13.2448 11.2241 13.527 11.6475C13.8092 12.1179 13.6681 12.6353 13.6681 12.6353L13.574 12.7294Z" fill="#AB1F24"/>
<path d="M10.846 9.85938C10.846 9.85938 12.5864 10.0005 12.3512 11.5998C12.3512 11.5998 11.9749 11.3646 11.6456 11.2235C11.5045 11.1764 10.799 10.9413 10.846 10.2827C10.846 10.0946 10.846 9.85938 10.846 9.85938Z" fill="#FAE404"/>
<path d="M10.8937 9.90658C10.8937 10.0007 10.8937 10.1418 10.8937 10.2829C10.8467 10.8473 11.3641 11.0825 11.5993 11.1766C11.6463 11.1766 11.6463 11.1766 11.6463 11.2236C11.8815 11.3177 12.2108 11.5059 12.3049 11.5529C12.3519 11.1296 12.2578 10.8003 12.0697 10.5181C11.6934 10.0477 11.0348 9.95361 10.8937 9.90658ZM12.3989 11.694L12.3049 11.647C12.3049 11.647 11.9286 11.4118 11.5993 11.2707C11.5993 11.2707 11.5523 11.2707 11.5523 11.2236C11.3171 11.1296 10.7526 10.8944 10.7996 10.2358C10.7996 10.0477 10.7996 9.85954 10.7996 9.85954V9.8125H10.8467C10.8937 9.8125 11.6934 9.85954 12.1638 10.424C12.3989 10.7062 12.493 11.1296 12.446 11.5529L12.3989 11.694Z" fill="#AB1F24"/>
<path d="M10.8472 8.3544C10.8472 8.3544 10.1887 8.87182 10.518 9.67148C10.565 9.81259 10.8943 10.283 11.0824 10.377C11.0824 10.377 11.2706 9.81259 11.4117 9.38925C11.4587 9.20109 11.5999 8.54256 11.1765 8.30736C10.9884 8.16625 10.8472 8.3544 10.8472 8.3544Z" fill="#FAE404"/>
<path d="M11.0364 8.30713C10.9423 8.30713 10.8953 8.40121 10.8953 8.40121C10.8482 8.40121 10.2838 8.87159 10.566 9.67124C10.613 9.81236 10.8953 10.1887 11.0834 10.3298C11.1305 10.1887 11.2716 9.71828 11.4127 9.38901C11.4127 9.34197 11.6008 8.6364 11.1775 8.35417C11.1305 8.30713 11.0834 8.30713 11.0364 8.30713ZM11.1305 10.4239C10.8953 10.3298 10.566 9.8594 10.4719 9.67124C10.1426 8.87159 10.7541 8.35417 10.8012 8.30713C10.8012 8.26009 10.8953 8.16602 11.0364 8.16602C11.0834 8.16602 11.1305 8.16602 11.1775 8.21305C11.6479 8.49528 11.4597 9.34197 11.4597 9.34197C11.3656 9.81236 11.1305 10.3768 11.1305 10.4239Z" fill="#AB1F24"/>
<path d="M10.704 8.82489C10.704 8.82489 10.1866 7.31967 12.0211 6.94336C12.0211 6.94336 12.4444 7.50782 11.7389 8.11932C11.5977 8.30747 10.8451 8.68378 10.704 8.82489Z" fill="#FAE404"/>
<path d="M12.0232 6.99056C11.4587 7.13168 11.0824 7.36687 10.8943 7.74317C10.6591 8.16652 10.7532 8.58986 10.8002 8.73098C10.8943 8.6369 11.1295 8.49579 11.3176 8.35467C11.5058 8.21356 11.6939 8.11948 11.788 8.07244C12.3054 7.60206 12.0702 7.13168 12.0232 6.99056ZM10.7061 8.96617L10.6591 8.87209C10.6591 8.82506 10.4709 8.2606 10.7532 7.69614C10.9884 7.31983 11.4117 7.0376 11.9762 6.89648H12.0232V6.94352C12.0232 6.94352 12.4466 7.55502 11.741 8.16652C11.6469 8.2606 11.4587 8.35467 11.2706 8.49579C11.0354 8.6369 10.7532 8.82506 10.7061 8.87209V8.96617Z" fill="#AB1F24"/>
<path d="M13.576 5.81458C13.576 5.81458 11.6945 5.76755 11.7886 7.46092C11.7886 7.46092 12.9645 7.08462 13.2938 6.75535C13.3879 6.5672 13.576 6.23793 13.576 5.81458Z" fill="#FAE404"/>
<path d="M13.5298 5.86165C13.3417 5.86165 12.589 5.90869 12.1657 6.37908C11.9305 6.61427 11.7894 6.99057 11.8364 7.41392C12.0716 7.31984 13.0124 7.03761 13.2476 6.75538C13.3887 6.56723 13.5298 6.23796 13.5298 5.86165ZM11.6953 7.508V7.46096C11.6953 6.99057 11.7894 6.61427 12.0716 6.33204C12.589 5.81462 13.4357 5.76758 13.5298 5.76758H13.5768V5.81462C13.5768 6.23796 13.4357 6.56723 13.2476 6.75538C12.9653 7.13169 11.8364 7.508 11.7424 7.508H11.6953Z" fill="#AB1F24"/>
</g>
<defs>
<clipPath id="clip0_7611_795401">
<rect width="13.5" height="13.5" fill="white" transform="translate(5.25 5.25)"/>
</clipPath>
</defs>
</svg>
