<svg width="24" height="24" viewBox="0 0 24 24" fill="none" xmlns="http://www.w3.org/2000/svg">
<circle cx="12" cy="12" r="12" fill="#006B68"/>
<path d="M8.87741 14.3203C9.0198 13.6911 9.36269 13.0846 9.74959 12.5806C9.88948 12.3986 10.2917 12.1102 10.2693 11.8593C10.2444 11.5748 9.82265 11.2358 9.66158 11.0107C9.30997 10.5209 9.05093 9.94379 8.90357 9.35586C8.85707 9.17065 8.69642 8.74531 8.79937 8.56808C8.89817 8.39784 9.29669 8.45725 9.45859 8.46862C9.89114 8.49887 10.3287 8.56702 10.7455 8.68931C10.9451 8.7479 11.2415 8.91716 11.4495 8.8738C11.738 8.81367 12.0087 8.2529 12.2021 8.04049C12.6758 7.52058 13.2698 7.06847 13.9004 6.76755C13.7543 6.41431 13.4434 6.12264 13.1532 5.88863C11.5238 4.57419 8.9538 5.38408 8.37553 7.44645C8.08121 8.49616 8.33692 9.6707 8.8056 10.6288C8.94176 10.9073 9.10615 11.1854 9.28839 11.435C9.37266 11.5508 9.54659 11.7039 9.54659 11.8593C9.54659 12.0367 9.32284 12.2352 9.22529 12.3685C8.93138 12.769 8.69434 13.2154 8.52165 13.6838C8.47599 13.8073 8.33443 14.0787 8.42368 14.204C8.50131 14.3128 8.75786 14.3049 8.87741 14.3203ZM9.00195 8.71939C9.01689 9.45137 9.85503 9.23395 10.4134 9.37601C10.7671 9.46601 11.4333 9.92927 11.7746 9.84972C12.0228 9.79184 12.325 9.05451 12.4923 8.84668C13.0448 8.1618 13.7045 7.75807 14.4401 7.31916C14.5816 7.84823 14.7896 8.3353 14.8481 8.88911C14.8838 9.22148 14.7921 9.76931 14.9216 10.0676C14.9851 10.2137 15.1802 10.2368 15.3118 10.2834C15.6431 10.4011 15.9623 10.5422 16.2666 10.72C16.6199 10.9265 16.9595 11.1638 17.2629 11.4422C17.3621 11.5334 17.5182 11.7607 17.6743 11.7173C17.8553 11.6671 17.9699 11.3366 18.0388 11.1804C18.3011 10.5855 18.4369 9.91905 18.3476 9.271C18.1164 7.58932 16.6311 6.5287 15.0212 6.64408C13.9668 6.7196 13.0328 7.47619 12.3229 8.21021C12.1141 8.42657 11.8211 9.06911 11.55 9.16254C11.3652 9.22627 10.9754 8.97754 10.787 8.92662C10.1884 8.76492 9.61882 8.71939 9.00195 8.71939ZM13.8589 7.82833C13.9623 8.54517 14.1665 9.16479 14.1491 9.90746C14.1441 10.1057 13.9764 10.5672 14.1329 10.7197C14.3126 10.8947 14.8224 10.9076 15.0628 10.9901C15.6165 11.1805 16.1429 11.4779 16.5987 11.8512C16.7506 11.9756 17.1774 12.2729 17.1774 12.492C17.1774 12.669 16.8075 12.8618 16.6817 12.9475C16.3206 13.1936 15.927 13.4015 15.5194 13.5543C15.3384 13.6221 15.0171 13.6568 14.8801 13.7996C14.7128 13.974 14.8282 14.4727 14.8016 14.7022C14.7053 15.5341 14.2881 16.2414 14.1495 17.0359C14.7759 17.2406 15.4538 17.3267 16.1006 17.1675C18.3289 16.6188 18.8603 13.9251 17.6635 12.1563C17.2363 11.5249 16.4908 11.0155 15.81 10.7078C15.5468 10.5889 14.8378 10.485 14.6904 10.2372C14.5397 9.98431 14.6539 9.43393 14.6472 9.1437C14.6348 8.63075 14.4949 8.09217 14.3155 7.61618L13.8589 7.82833Z" fill="#FFC72F"/>
<path d="M13.5 16.0776C13.0016 15.7664 12.5557 15.3113 12.2239 14.8286C12.0923 14.6375 11.9037 14.1127 11.6934 14.0217C11.4211 13.904 10.7462 14.3279 10.4606 14.406C9.63369 14.6323 8.87967 14.5599 8.0457 14.4539C8.17061 13.8497 8.43416 13.2715 8.75351 12.747C8.88466 12.5318 9.23316 12.2142 9.23399 11.9559C9.23524 11.6362 8.761 11.1573 8.60528 10.8735C8.28594 10.2915 8.12939 9.64585 8.00406 9C7.56814 9.0383 7.13221 9.32732 6.79662 9.59165C5.19489 10.8527 5.23445 13.2844 6.92153 14.4655C7.83919 15.108 9.00499 15.1922 10.0859 15.0185C10.4264 14.9638 11.0997 14.6027 11.414 14.6886C11.5856 14.7355 11.7001 15.026 11.7942 15.1617C12.0752 15.5689 12.4087 15.9216 12.7922 16.2333C12.8984 16.3195 13.0899 16.5234 13.2414 16.4978C13.3963 16.4717 13.4638 16.203 13.5 16.0776Z" fill="#FFC72F"/>
<path d="M13.3355 17.04L11.9701 15.8208L11.379 15.103L10.2435 15.3826L8.25 15.4004C8.25 16.318 8.4819 17.1987 9.11616 17.8736C10.4185 19.2595 12.5535 18.9121 13.6435 17.4604C14.1593 16.7734 14.4051 15.9166 14.5035 15.0641C14.5365 14.7798 14.4075 14.0721 14.5804 13.863C14.7484 13.6598 15.2509 13.6122 15.4917 13.5214C15.9926 13.3327 16.4446 13.0284 16.875 12.7098C16.8054 12.5573 16.6602 12.3445 16.4682 12.3786C16.2517 12.417 16.008 12.6573 15.8172 12.7696C15.4755 12.9704 15.0983 13.1156 14.7188 13.2192C14.5507 13.2651 14.1394 13.2702 14.0283 13.4137C13.9433 13.5232 14.0015 13.7209 14.0153 13.8449C14.0511 14.1577 14.0389 14.4973 14.0255 14.8118C13.9905 15.6372 13.6349 16.301 13.3355 17.04Z" fill="#FFC72F"/>
</svg>
