<svg width="24" height="24" viewBox="0 0 24 24" fill="none" xmlns="http://www.w3.org/2000/svg">
<circle cx="12" cy="12" r="12" fill="#F59728"/>
<g clip-path="url(#clip0_7619_17242)">
<path fill-rule="evenodd" clip-rule="evenodd" d="M12.2025 5.2666C6.53722 7.10295 4.04126 14.0001 5.80272 16.2613C6.44115 16.4723 7.09968 16.6191 7.76821 16.6995C6.56783 15.114 6.81266 13.6589 7.34654 12.2574C7.34654 14.4918 8.32929 15.7863 9.72689 16.7296C10.3938 16.69 11.0518 16.5594 11.6822 16.3416C8.84616 14.9233 7.45536 9.58821 12.1923 5.2666H12.2025Z" fill="#FFFDFA"/>
<path fill-rule="evenodd" clip-rule="evenodd" d="M5.79876 16.2612C10.2466 20.1713 17.4353 18.9371 18.5506 16.298C18.4291 15.6139 18.2116 14.9498 17.9045 14.3245C17.1326 16.0538 15.7792 16.6291 14.2524 17.0004C16.2213 15.8832 16.898 14.3981 17.0238 12.729C16.67 12.1433 16.2088 11.6272 15.6636 11.207C15.8302 14.3345 11.9571 18.1477 5.78516 16.2745L5.79876 16.2612Z" fill="#FFFDFA"/>
<path fill-rule="evenodd" clip-rule="evenodd" d="M18.5516 16.2982C19.769 10.555 15.0627 4.90544 12.1995 5.26C11.6823 5.67399 11.2327 6.16358 10.8665 6.71168C12.8626 6.48089 13.9881 7.4208 14.9471 8.57814C12.9782 7.46094 11.3459 7.64826 9.81232 8.37744C9.51961 8.93918 9.31551 9.54147 9.20703 10.1636C11.8764 8.46106 17.1098 10.0967 18.5448 16.2915L18.5516 16.2982Z" fill="#FFFDFA"/>
</g>
<defs>
<clipPath id="clip0_7619_17242">
<rect width="13.5" height="13.5" fill="white" transform="translate(5.25 5.25)"/>
</clipPath>
</defs>
</svg>
