<svg width="24" height="24" viewBox="0 0 24 24" fill="none" xmlns="http://www.w3.org/2000/svg">
<circle cx="12" cy="12" r="12" fill="#0072A3"/>
<path fill-rule="evenodd" clip-rule="evenodd" d="M11.3864 4.10938H11.3516V4.15039H11.3516V18.5709L11.347 18.5704C9.87517 18.4711 8.47586 17.8944 7.3615 16.9277C6.24714 15.961 5.47858 14.6572 5.17248 13.2141C5.15227 13.1047 5.1387 12.9943 5.13186 12.8833C5.13295 12.5555 5.25012 12.2386 5.46259 11.989C5.62937 11.793 5.8464 11.6484 6.08847 11.5694C6.1996 11.5597 6.31739 11.5546 6.44225 11.5546H10.8527V4.18457C9.03609 4.41105 7.35963 5.27726 6.12388 6.62786C4.88813 7.97846 4.17394 9.7251 4.10938 11.5546V11.8331C4.1105 12.2942 4.15147 12.7543 4.23181 13.2083H4.22656C4.54163 14.9065 5.41848 16.4495 6.7162 17.5894C8.01392 18.7292 9.65716 19.3997 11.3819 19.4931H11.8055H12.2581V17.9204L12.2569 17.926V5.04888L12.2627 5.04949C13.7346 5.14874 15.1339 5.72547 16.2483 6.69216C17.3626 7.65885 18.1312 8.9627 18.4373 10.4058C18.4609 10.5146 18.4745 10.6253 18.4779 10.7366C18.4768 11.0644 18.3596 11.3812 18.1472 11.6309C17.98 11.8272 17.7625 11.9721 17.5198 12.051C17.4088 12.0606 17.2911 12.0657 17.1663 12.0657L17.1721 12.0599H12.7617V19.4183C14.5744 19.1911 16.2472 18.3268 17.4814 16.98C18.7156 15.6331 19.4308 13.8913 19.4992 12.0657V11.7872C19.498 11.3162 19.4553 10.8463 19.3715 10.3828C19.3715 10.3828 19.3719 10.3927 19.3715 10.411C19.0578 8.7144 18.183 7.17243 16.8875 6.03275C15.592 4.89294 13.9509 4.22168 12.2279 4.12679H11.8101L11.3864 4.10938ZM4.23712 13.2083H4.23817C4.23795 13.2033 4.23776 13.198 4.23761 13.1923C4.23738 13.1981 4.23723 13.2035 4.23712 13.2083Z" fill="white"/>
</svg>
