<svg width="24" height="24" viewBox="0 0 24 24" fill="none" xmlns="http://www.w3.org/2000/svg">
<rect width="24" height="24" rx="12" fill="#1D5493"/>
<g clip-path="url(#clip0_7611_795663)">
<path d="M19.9942 15.7602C19.9942 16.1197 19.9927 16.4792 19.9954 16.8387C19.9954 16.8991 19.9796 16.903 19.9276 16.888C17.9275 16.3165 15.9273 15.7453 13.9269 15.1747L12.0764 14.6468C12.041 14.6366 12.0075 14.6351 12.0078 14.5779C12.0111 13.8664 12.0111 13.1543 12.0118 12.4432C12.0126 12.4312 12.0126 12.4192 12.0118 12.4073C12.0039 12.3483 12.0239 12.3408 12.0797 12.3571C12.7395 12.5488 13.3997 12.7389 14.0605 12.9272C15.8175 13.4289 17.5747 13.93 19.3321 14.4307C19.5334 14.4882 19.7347 14.5476 19.9376 14.6021C19.985 14.6149 19.9952 14.6371 19.9952 14.6819C19.9934 15.0414 19.9942 15.4007 19.9942 15.7602Z" fill="#FFC72C"/>
<path d="M11.9916 10.8355C11.9916 11.195 11.9906 11.5545 11.9928 11.914C11.9928 11.9663 11.9798 11.9846 11.9249 11.9951C11.5305 12.0713 11.1499 12.2008 10.7643 12.3104C8.74035 12.8856 6.71693 13.4625 4.69398 14.0412C4.48273 14.1014 4.27047 14.1587 4.05966 14.2206C4.01047 14.2347 3.99609 14.2257 3.99609 14.1749C3.99715 13.4539 3.99715 12.7329 3.99609 12.0118C3.99609 11.9574 4.02658 11.9516 4.06512 11.9407C5.34431 11.5751 6.62331 11.209 7.90212 10.8425C9.23835 10.4604 10.575 10.079 11.9121 9.69819C11.9908 9.67576 11.9913 9.67633 11.9913 9.75743C11.9915 10.1167 11.9916 10.4761 11.9916 10.8355Z" fill="white"/>
<path d="M3.99739 15.7552C3.99739 15.4007 3.99868 15.0461 3.99609 14.6911C3.99609 14.6356 4.01306 14.6143 4.0667 14.5991C6.37975 13.9405 8.69252 13.2807 11.005 12.6198C11.3127 12.532 11.6209 12.4454 11.9278 12.3548C11.984 12.3383 11.9977 12.3485 11.997 12.4063C11.9934 12.7083 11.9924 13.0102 11.9916 13.3115C11.9916 13.6754 11.9916 14.0395 11.9916 14.4035C11.9916 14.4775 12.0083 14.5631 11.9773 14.6226C11.9437 14.6869 11.8452 14.6649 11.7759 14.6846C11.124 14.8724 10.4716 15.0582 9.81875 15.242C7.91007 15.7851 6.0014 16.3285 4.09273 16.8719C3.99753 16.8991 3.99739 16.8987 3.99739 16.7971V15.7552Z" fill="white"/>
<path d="M12.0149 9.67578C12.1698 9.71978 12.3208 9.76206 12.4716 9.8052L18.3388 11.4826C18.8661 11.6333 19.3938 11.7833 19.9217 11.9325C19.9761 11.9478 19.9963 11.9694 19.9962 12.0299C19.9935 12.7412 19.9935 13.4526 19.9962 14.1641C19.9962 14.2258 19.9867 14.2396 19.922 14.2217C17.5047 13.5305 15.0874 12.8408 12.6699 12.1527C12.4686 12.0952 12.2699 12.0241 12.0622 11.9896C12.0191 11.9823 12.0227 11.9584 12.0222 11.93C12.0188 11.6763 12.0127 11.4226 12.0124 11.169C12.0124 10.8122 12.0172 10.4555 12.0176 10.0988C12.0176 9.96036 12.0064 9.82188 12.0149 9.67578Z" fill="#FFC72C"/>
<path d="M11.9883 7.01367L13.0842 7.32571C15.3595 7.97395 17.6349 8.62181 19.9105 9.26929C19.9738 9.28726 19.9968 9.30998 19.9958 9.37915C19.9926 10.0838 19.9939 10.7875 19.9939 11.4918C19.9939 11.5795 19.9939 11.5797 19.909 11.5557L13.139 9.62504C12.7795 9.52237 12.4191 9.41812 12.0583 9.31789C12.0081 9.30351 11.989 9.28755 11.9932 9.23247C12.0205 8.87873 12.0106 8.52427 12.0113 8.16995C12.012 7.89487 12.0265 7.61978 12.0091 7.34484C12.0024 7.23785 11.9956 7.13101 11.9883 7.01367Z" fill="#FFC72C"/>
<path d="M11.9714 7C11.9796 7.25884 11.9915 7.4951 11.9934 7.73179C11.9961 8.0769 11.9924 8.42202 11.9899 8.76713C11.9888 8.92028 11.9804 9.07357 11.983 9.22729C11.984 9.28768 11.9627 9.30896 11.9079 9.32449C11.0185 9.57614 10.1293 9.82903 9.24051 10.0832C7.71273 10.5177 6.1849 10.9528 4.65703 11.3883C4.45484 11.4458 4.25207 11.5013 4.05046 11.5608C4.00645 11.5738 3.99581 11.5639 3.9961 11.521C3.99725 11.303 3.99768 11.085 3.9961 10.867C3.9961 10.8214 4.02083 10.8131 4.05592 10.803C4.5496 10.6615 5.04271 10.5179 5.53711 10.3767C6.69455 10.0458 7.85222 9.71562 9.01014 9.38604C9.10008 9.36034 9.18371 9.31627 9.25576 9.25662C10.0994 8.56639 10.9427 7.87616 11.7856 7.18593C11.8473 7.13517 11.897 7.0719 11.9714 7Z" fill="white"/>
</g>
<defs>
<clipPath id="clip0_7611_795663">
<rect width="16" height="9.89488" fill="white" transform="translate(4 7)"/>
</clipPath>
</defs>
</svg>
