<svg width="24" height="24" viewBox="0 0 24 24" fill="none" xmlns="http://www.w3.org/2000/svg">
<rect width="24" height="24" rx="12" fill="#F7F7F7"/>
<g clip-path="url(#clip0_7611_795409)">
<path d="M21.9515 8.91877C21.89 9.19565 21.7406 9.43728 21.618 9.68824C20.6897 11.5857 19.6572 13.422 18.4051 15.1282C17.4907 16.3743 16.4875 17.5375 15.2646 18.4956C14.7783 18.8764 14.2688 19.2214 13.7063 19.4826C13.164 19.7571 12.5955 19.9493 11.9917 20.0312C11.4172 20.1171 10.8508 20.1343 10.3223 19.8333C10.2838 19.8113 10.2464 19.7866 10.2085 19.7634C9.81076 19.5392 9.47694 19.2383 9.17476 18.8999C8.70114 18.4173 8.32936 17.8599 7.99584 17.276C7.1161 15.7365 6.56596 14.0863 6.34844 12.3257C6.33247 12.1964 6.3165 12.0672 6.30023 11.9382C6.29361 11.8849 6.28878 11.8448 6.36802 11.8421C7.31917 11.8069 8.26609 11.7162 9.21392 11.6321C9.55528 11.5878 9.89693 11.5435 10.2386 11.4992C10.821 11.4095 11.403 11.3194 11.9854 11.2296C12.547 11.1232 13.1089 11.0169 13.6705 10.9105C14.2212 10.7825 14.7729 10.659 15.3221 10.5258C17.4305 10.0151 19.5132 9.42041 21.5249 8.59821C21.5342 8.59459 21.5442 8.59248 21.5535 8.58857C21.6894 8.53283 21.8554 8.50692 21.9599 8.58013C22.0503 8.6434 21.9765 8.80519 21.9515 8.91877Z" fill="url(#paint0_linear_7611_795409)"/>
<path d="M9.17843 10.2192C8.81659 10.2707 8.46439 10.3288 8.11039 10.3698C7.44847 10.4466 6.78535 10.5141 6.12253 10.5831C6.05836 10.59 5.99238 10.5813 5.9273 10.5795C5.80679 10.5876 5.68628 10.5955 5.56577 10.6033C5.23466 10.6238 4.90355 10.6268 4.57214 10.6105C4.37571 10.6202 4.18469 10.5873 3.99489 10.5427C3.31941 10.4017 3.0112 10.0306 3.00036 9.35268C2.99614 9.0996 3.02928 8.85135 3.10129 8.61062C3.28416 8.00053 3.57611 7.44466 3.95602 6.93399C4.12866 6.66645 4.32148 6.41489 4.54021 6.1835C4.83727 5.81744 5.16868 5.48573 5.53353 5.18777C5.63265 5.08533 5.74081 4.99404 5.86313 4.92053C6.10506 4.71385 6.37109 4.54815 6.67147 4.44029C6.71817 4.42342 6.76758 4.41137 6.81699 4.40414C7.02638 4.3734 7.12158 4.44722 7.1255 4.65842C7.13213 5.02477 7.12912 5.39143 7.13243 5.75779C7.13876 6.54413 7.24661 7.31662 7.46534 8.07253C7.5479 8.35694 7.66299 8.6287 7.80278 8.88991C8.067 9.38461 8.43517 9.77748 8.93228 10.0447C9.0073 10.0848 9.0784 10.1321 9.15071 10.1773C9.15794 10.1818 9.16126 10.1929 9.17843 10.2192Z" fill="url(#paint1_linear_7611_795409)"/>
</g>
<defs>
<linearGradient id="paint0_linear_7611_795409" x1="23.7577" y1="5.80744" x2="9.8882" y2="15.8329" gradientUnits="userSpaceOnUse">
<stop stop-color="#FADD2B"/>
<stop offset="1" stop-color="#F3AD2E"/>
</linearGradient>
<linearGradient id="paint1_linear_7611_795409" x1="19.0159" y1="-0.745663" x2="5.14669" y2="9.27977" gradientUnits="userSpaceOnUse">
<stop stop-color="#FADD2B"/>
<stop offset="1" stop-color="#F3AD2E"/>
</linearGradient>
<clipPath id="clip0_7611_795409">
<rect width="19" height="15.6901" fill="white" transform="translate(3 4.39746)"/>
</clipPath>
</defs>
</svg>
