<svg width="24" height="24" viewBox="0 0 24 24" fill="none" xmlns="http://www.w3.org/2000/svg">
<rect width="24" height="24" rx="12" fill="#F7F7F7"/>
<g clip-path="url(#clip0_7611_795671)">
<path d="M8.48134 12.0958H8.17234L8.08594 12.0225C9.36539 10.747 10.6453 9.47245 11.9258 8.19888C12.0437 8.08245 12.0451 8.01802 11.9258 7.90599C11.6277 7.62042 11.34 7.32021 11.0471 7.02732C10.1196 6.09985 9.1921 5.17237 8.2646 4.24489C8.20383 4.18485 8.0691 4.15995 8.11816 4.04792C8.15477 3.96811 8.2646 4.01424 8.34515 4.01424C10.8347 4.01424 13.3243 4.01424 15.8139 4.01424C15.9135 4.01424 16.0241 3.98275 16.1009 4.08746L16.1068 4.08014C16.0775 4.08014 16.0336 4.06989 16.0211 4.08526C15.6675 4.45137 15.316 4.81748 14.9645 5.18872L14.9133 5.22753C14.5782 5.52074 14.2659 5.83895 13.9789 6.17941C13.6401 6.45969 13.3288 6.77155 13.049 7.1108L13.0007 7.15912C12.6902 7.38392 12.4603 7.69438 12.1777 7.94553C12.062 8.04658 12.1205 8.09856 12.2062 8.18277C13.2313 9.19689 14.2565 10.2096 15.2713 11.2369C15.5415 11.5107 15.8754 11.7289 16.0556 12.087L15.6828 12.0921H15.6191H15.3065H15.0597L9.12864 12.0804C8.93313 12.0804 8.73762 12.0884 8.54285 12.0921L8.48134 12.0958Z" fill="#CB2327"/>
<path d="M16.1094 4.08301C16.2368 4.06543 16.28 4.17966 16.3466 4.24556C17.4494 5.34389 18.5543 6.44222 19.6417 7.55739C19.8042 7.72434 20.062 7.85906 20.0473 8.15854L20.0122 8.20321C19.6762 8.50124 19.3583 8.8191 19.0603 9.15509L19.02 9.19463C18.6845 9.49322 18.3667 9.81105 18.0681 10.1465L18.0278 10.1861L17.0723 11.1379C17.0673 11.1378 17.0624 11.1387 17.0577 11.1406C17.0531 11.1424 17.0489 11.1451 17.0454 11.1486C17.0418 11.1521 17.039 11.1562 17.0371 11.1608C17.0352 11.1654 17.0342 11.1703 17.0342 11.1753L16.1174 12.054V4.07422L16.1094 4.08301Z" fill="#CB2327"/>
<path d="M4.15588 8.22371C4.10316 8.12706 3.98746 8.06335 4.13391 7.92057C5.41092 6.65822 6.68354 5.39075 7.95177 4.11815C7.97318 4.10124 7.99624 4.08652 8.0206 4.07422C8.08211 4.18918 8.05428 4.31219 8.05428 4.42715C8.05428 6.9167 8.05428 9.40625 8.05428 11.8958C8.05715 11.9365 8.06327 11.9769 8.07259 12.0166L8.04769 12.0232L8.04183 12.0488L6.14169 10.1985L6.0919 10.1516C5.77827 9.79845 5.44221 9.46582 5.08581 9.15583C4.79692 8.82595 4.48677 8.51531 4.15734 8.22591L4.15588 8.22371Z" fill="#CB2327"/>
<path d="M14.7792 17.7577C15.2185 17.9371 15.5715 18.1165 15.5971 18.6027C15.6344 19.3071 15.231 19.7589 14.4409 19.8124C13.8463 19.8519 13.2474 19.827 12.6513 19.8424C12.4639 19.8475 12.4368 19.7648 12.4375 19.6022C12.4434 18.4336 12.4434 17.2645 12.4375 16.0949C12.4375 15.9345 12.4609 15.8532 12.6521 15.8576C13.2378 15.8708 13.8236 15.8415 14.4094 15.8715C15.1512 15.9089 15.5942 16.4632 15.4485 17.1046C15.3686 17.4436 15.1182 17.5974 14.7792 17.7577ZM13.8112 19.2383V19.2317C13.9446 19.24 14.0785 19.2388 14.2117 19.228C14.5339 19.1834 14.7016 18.9871 14.7067 18.6613C14.7118 18.3355 14.5288 18.1766 14.2271 18.1253C13.325 17.9723 13.2334 18.0521 13.2708 18.9586C13.2708 18.9827 13.2708 19.0069 13.2708 19.0318C13.2664 19.1783 13.3169 19.2603 13.4824 19.2434C13.5918 19.2362 13.7016 19.2345 13.8112 19.2383ZM13.2715 16.9494C13.2715 17.5827 13.2825 17.5945 13.8778 17.5227C13.9864 17.5133 14.0943 17.4969 14.2007 17.4736C14.4724 17.4004 14.6027 17.2269 14.58 16.942C14.5485 16.5598 14.2513 16.4295 13.5285 16.4485C13.068 16.4602 13.3718 16.8102 13.2715 16.9494Z" fill="#1F1E1B"/>
<path d="M4.7407 17.8554C4.7407 17.2828 4.75168 16.7102 4.73484 16.1384C4.72825 15.9114 4.79049 15.8528 5.01675 15.8557C5.62157 15.8631 5.61205 15.8513 5.62523 16.4679C5.63255 16.804 5.47073 17.2528 5.69846 17.4425C5.89396 17.605 6.32744 17.4842 6.65622 17.4849C7.31522 17.4849 7.31522 17.4849 7.31522 16.8259C7.31522 16.5946 7.3328 16.3617 7.31083 16.1325C7.28886 15.9033 7.38405 15.8521 7.60372 15.8535C8.1983 15.8587 8.1983 15.8484 8.1983 16.4393C8.1983 17.4754 8.18878 18.5108 8.20562 19.5461C8.20928 19.8097 8.12434 19.8925 7.87977 19.861C7.7949 19.8507 7.7091 19.8507 7.62423 19.861C7.39357 19.8888 7.29619 19.8185 7.31669 19.5615C7.34525 19.1954 7.31669 18.8293 7.33939 18.4632C7.3533 18.2369 7.31376 18.1264 7.05162 18.141C6.6628 18.1622 6.27179 18.1571 5.88005 18.141C5.67649 18.1337 5.60473 18.1901 5.61352 18.4024C5.63036 18.7912 5.60473 19.1822 5.62377 19.574C5.63548 19.8002 5.56592 19.8625 5.34039 19.8668C4.73704 19.8668 4.73704 19.8793 4.73704 19.2811C4.73899 18.8061 4.74021 18.3309 4.7407 17.8554Z" fill="#1F1E1B"/>
<path d="M10.4296 19.9175C9.38764 19.9175 8.87654 19.5923 8.71765 18.9399C8.66126 18.7093 8.70007 18.5914 8.9688 18.6317C9.07766 18.6463 9.18799 18.6463 9.29684 18.6317C9.4799 18.6082 9.56484 18.6544 9.6139 18.8572C9.64267 18.9776 9.70964 19.0855 9.8048 19.1647C9.89996 19.2439 10.0182 19.2901 10.1418 19.2965C10.4421 19.3251 10.7327 19.2775 10.9378 19.0271C11.1428 18.7767 11.0557 18.4823 10.7086 18.3344C10.2634 18.144 9.77352 18.0767 9.34151 17.8489C9.19746 17.7754 9.073 17.6687 8.97843 17.5375C8.88387 17.4063 8.82193 17.2545 8.79773 17.0946C8.77354 16.9347 8.7878 16.7713 8.83932 16.6181C8.89085 16.4648 8.97815 16.326 9.09401 16.2131C9.23929 16.0656 9.41893 15.9564 9.61683 15.8954C10.071 15.7484 10.5585 15.7385 11.0183 15.8668C11.2326 15.9195 11.427 16.0329 11.5785 16.1934C11.7586 16.3911 11.9314 16.6898 11.7981 16.8765C11.6517 17.0816 11.3032 16.938 11.0425 16.9439C10.9319 16.9439 10.9575 16.8136 10.9209 16.744C10.7306 16.386 10.3674 16.2644 9.99539 16.435C9.90388 16.4709 9.82498 16.5329 9.76858 16.6134C9.71218 16.6939 9.68078 16.7893 9.67833 16.8875C9.67101 17.0999 9.82478 17.206 10.0086 17.2719C10.4421 17.4272 10.8763 17.5817 11.3075 17.7435C11.7139 17.8958 11.9395 18.1923 11.949 18.6287C11.9585 19.0651 11.7938 19.4342 11.3925 19.6641C11.0986 19.8299 10.767 19.9171 10.4296 19.9175Z" fill="#1F1E1B"/>
<path d="M16 17.9675C16.0037 16.7762 16.4862 16.0535 17.3993 15.8338C17.9128 15.7055 18.4557 15.7737 18.9216 16.0249C19.1259 16.1373 19.288 16.3131 19.3836 16.5257C19.5894 16.938 19.5242 17.0383 19.0761 17.0449C18.811 17.0485 18.6111 17.0551 18.4618 16.7278C18.2663 16.2987 17.5479 16.3522 17.217 16.771C16.8282 17.2594 16.7871 18.3687 17.1379 18.8857C17.5282 19.459 18.2728 19.4261 18.584 18.8205C18.6573 18.6814 19.3624 18.5811 19.4693 18.6953C19.5323 18.7619 19.4876 18.8366 19.4693 18.9011C19.3836 19.2613 19.1925 19.5601 18.855 19.7189C18.2026 20.025 17.5304 20.0345 16.8867 19.708C16.1391 19.3294 16.0242 18.6184 16 17.9675Z" fill="#1F1E1B"/>
</g>
<defs>
<clipPath id="clip0_7611_795671">
<rect width="16" height="15.9485" fill="white" transform="translate(4.0625 4.00293)"/>
</clipPath>
</defs>
</svg>
