<svg width="24" height="24" viewBox="0 0 24 24" fill="none" xmlns="http://www.w3.org/2000/svg">
<rect width="24" height="24" rx="12" fill="#F7F7F7"/>
<path d="M16.9135 14.9252C16.9102 14.9104 16.9052 14.8956 16.9019 14.8807C16.8986 14.8659 16.8937 14.851 16.8904 14.8362C16.8821 14.8065 16.8722 14.7785 16.8624 14.7488C16.8591 14.7389 16.8574 14.7306 16.8525 14.7208C16.8459 14.7043 16.8393 14.6861 16.831 14.6696C16.831 14.6647 16.8277 14.6614 16.8261 14.6564C16.8211 14.6465 16.8178 14.635 16.8129 14.6251C16.803 14.6004 16.7898 14.5756 16.7783 14.5509C16.7717 14.536 16.7634 14.5229 16.7552 14.508C16.7502 14.4965 16.7436 14.4849 16.7354 14.4734C16.7239 14.4503 16.7074 14.4256 16.6942 14.4041L16.6711 14.3695C16.6414 14.3266 16.6101 14.2837 16.5771 14.2425C16.5343 14.1914 16.4914 14.1436 16.4436 14.099C16.4321 14.0891 16.4205 14.0776 16.4106 14.0693C16.3809 14.0413 16.3496 14.0166 16.3183 13.9918C16.3101 13.9852 16.3018 13.9786 16.2919 13.9704C16.2721 13.9556 16.2524 13.9407 16.2326 13.9275C16.2128 13.9143 16.1914 13.8995 16.1699 13.8863C16.1287 13.8615 16.0858 13.8368 16.0413 13.8137C16.0183 13.8022 15.9952 13.7906 15.9721 13.7807C15.7858 13.6966 15.5797 13.6455 15.3654 13.6373C15.3407 13.6356 15.3159 13.6356 15.2929 13.6356C15.2929 13.6356 15.278 13.6356 15.2714 13.6356C15.2483 13.6356 15.2236 13.6356 15.2005 13.6389C15.1807 13.6389 15.1593 13.6406 15.1412 13.6422C15.1132 13.6455 15.0851 13.6488 15.0571 13.6521C15.0472 13.6521 15.039 13.6538 15.0307 13.6554C15.0258 13.6554 15.0208 13.6571 15.0159 13.6587C15.0109 13.6587 15.006 13.6604 15.001 13.662C14.9895 13.6637 14.9796 13.6653 14.9681 13.6686L14.9565 13.6719C14.9483 13.6719 14.9384 13.6752 14.9302 13.6768C14.9219 13.6768 14.9153 13.6801 14.9087 13.6818C14.8856 13.6867 14.8642 13.6933 14.8428 13.6999C14.8345 13.7016 14.8263 13.7032 14.818 13.7065C14.8131 13.7082 14.8065 13.7098 14.8016 13.7115C14.7884 13.7148 14.7768 13.7181 14.7636 13.723C14.7537 13.7263 14.7455 13.7296 14.7356 13.7329C14.7323 13.7346 14.7274 13.7362 14.7241 13.7379C14.7224 13.7379 14.7208 13.7395 14.7175 13.7412L14.7142 13.7428H14.7109C14.696 13.7428 14.6829 13.7412 14.668 13.7395C14.4405 13.7115 14.2196 13.6092 14.0432 13.4328L10.8267 10.2153C10.6569 10.0454 10.5563 9.83104 10.5234 9.61005V9.60676C10.5217 9.58532 10.5184 9.56553 10.5168 9.54739C10.5217 9.53584 10.525 9.5243 10.5283 9.51276C10.5382 9.48637 10.5464 9.45833 10.553 9.4303C10.5547 9.427 10.5563 9.4237 10.5563 9.4204C10.5563 9.41711 10.5563 9.41546 10.558 9.41381C10.5613 9.40226 10.5646 9.39237 10.5679 9.38247C10.5679 9.38247 10.5679 9.38247 10.5679 9.38082C10.5712 9.36598 10.5761 9.35114 10.5778 9.3363C10.5844 9.30661 10.5909 9.27528 10.5959 9.24559C10.6008 9.21426 10.6058 9.18293 10.6091 9.15324C10.6124 9.12191 10.6157 9.09057 10.6173 9.05924L10.6206 9.01142V8.98833C10.6206 8.97843 10.6206 8.97184 10.6206 8.96359C10.6206 8.93226 10.6206 8.90092 10.6206 8.87124C10.6206 8.87124 10.6206 8.86629 10.6206 8.86299C10.6206 8.8531 10.6206 8.84485 10.6173 8.83661C10.6173 8.82176 10.6157 8.80692 10.614 8.79373V8.79043C10.614 8.78054 10.6124 8.77064 10.6107 8.76075C10.6074 8.73766 10.6058 8.71622 10.6008 8.69643C10.5992 8.68159 10.5959 8.66839 10.5926 8.6552C10.5926 8.64531 10.5893 8.63541 10.5876 8.62552C10.586 8.61562 10.5844 8.60573 10.5811 8.59583C10.5811 8.58759 10.5778 8.57934 10.5761 8.57274C10.5728 8.5612 10.5712 8.54801 10.5662 8.53481L10.5629 8.52327C10.5596 8.51337 10.558 8.50348 10.5547 8.49358C10.5497 8.47874 10.5448 8.46225 10.5398 8.44741C10.5365 8.43916 10.5349 8.43092 10.5316 8.42432C10.5365 8.15386 10.6404 7.8867 10.8465 7.68056C11.0526 7.47441 11.3213 7.36887 11.5917 7.36722C11.6032 7.37217 11.6164 7.37546 11.6312 7.37876C11.6345 7.38041 11.6395 7.38206 11.6428 7.38206C11.6609 7.38701 11.679 7.39196 11.6955 7.3969C11.7071 7.4002 11.7203 7.4035 11.7318 7.4068C11.7499 7.41175 11.7697 7.41669 11.7895 7.41999C11.8175 7.42494 11.8423 7.42989 11.8719 7.43483C11.9 7.43813 11.928 7.44308 11.9544 7.44473C11.9774 7.44803 12.0022 7.44968 12.0253 7.45132H12.0384C12.0665 7.45132 12.0961 7.45297 12.1242 7.45297C12.1324 7.45297 12.1423 7.45297 12.1506 7.45297C12.1637 7.45297 12.1769 7.45297 12.1901 7.45297C12.1967 7.45297 12.2033 7.45297 12.2099 7.45297H12.2231C12.2412 7.45297 12.2594 7.44968 12.2758 7.44803H12.2808C12.2808 7.44803 12.2857 7.44803 12.289 7.44803C12.2923 7.44803 12.2956 7.44803 12.2989 7.44803C12.3022 7.44803 12.3072 7.44803 12.3105 7.44638C12.3171 7.44638 12.3237 7.44473 12.3319 7.44308C12.3368 7.44308 12.3418 7.44308 12.3451 7.44143C12.3632 7.43978 12.3814 7.43648 12.3978 7.43318C12.4143 7.43154 12.4308 7.42824 12.4473 7.42494C12.4836 7.41669 12.5198 7.40845 12.5561 7.4002C12.5924 7.39031 12.6287 7.38041 12.6633 7.36887C12.932 7.37381 13.2007 7.47771 13.4052 7.68221C13.6112 7.88835 13.7168 8.15716 13.7201 8.42762C13.6722 8.5645 13.6426 8.71127 13.6343 8.86299C13.6327 8.89762 13.631 8.92896 13.631 8.96194C13.631 9.88051 14.3762 10.6243 15.2945 10.6243C16.2128 10.6243 16.9563 9.88051 16.9563 8.96194C16.9563 8.04337 16.2128 7.29795 15.2945 7.29795C15.2599 7.29795 15.2286 7.29795 15.1939 7.30125C15.0439 7.3095 14.8988 7.33918 14.762 7.38536C14.4916 7.38206 14.2212 7.27816 14.0152 7.07202C13.8107 6.86753 13.7052 6.59872 13.7019 6.32826C13.7069 6.31012 13.7135 6.29198 13.7184 6.27548C13.7217 6.26724 13.7234 6.25734 13.7266 6.2491C13.7299 6.2392 13.7316 6.23096 13.7349 6.22106C13.7349 6.21776 13.7365 6.21282 13.7382 6.20952C13.7415 6.19633 13.7448 6.18148 13.7481 6.16829C13.7563 6.13201 13.7646 6.09573 13.7695 6.05945C13.7712 6.0479 13.7728 6.03471 13.7745 6.02152C13.7761 6.00997 13.7778 6.00008 13.7794 5.98853C13.7794 5.98029 13.7811 5.97204 13.7827 5.96545C13.7827 5.9605 13.7827 5.95555 13.7827 5.94895C13.7844 5.93576 13.786 5.92092 13.786 5.90773C13.786 5.89783 13.786 5.88958 13.786 5.87969C13.786 5.87144 13.786 5.8632 13.786 5.85495V5.84506C13.786 5.84506 13.786 5.84011 13.786 5.83681C13.786 5.82197 13.786 5.80878 13.786 5.79393C13.786 5.73621 13.7827 5.67849 13.7778 5.62242C13.7712 5.56635 13.7629 5.51193 13.753 5.45751C13.7497 5.43607 13.7448 5.41628 13.7398 5.39649C13.7382 5.38989 13.7365 5.38165 13.7349 5.37505C13.7316 5.36186 13.7283 5.34867 13.725 5.33712C13.7217 5.32228 13.7168 5.30909 13.7135 5.29589C13.7118 5.2893 13.7102 5.28435 13.7085 5.27775C13.7069 5.2728 13.7052 5.26786 13.7036 5.26291C13.7036 5.25961 13.7003 5.25466 13.7003 5.25137C13.7003 5.24807 13.697 5.24477 13.697 5.24147C13.6871 5.21344 13.6772 5.1887 13.6673 5.16231C13.6591 5.14417 13.6508 5.12438 13.6426 5.10624C13.6376 5.09635 13.6343 5.0881 13.631 5.07821C13.6277 5.06831 13.6228 5.06007 13.6178 5.05017C13.5997 5.01389 13.5816 4.97926 13.5601 4.94462L13.5321 4.89845C13.5189 4.88031 13.5074 4.86052 13.4942 4.84238C13.4925 4.83908 13.4909 4.83743 13.4892 4.83413C13.4827 4.82424 13.4744 4.81434 13.4678 4.80445C13.4629 4.7962 13.4563 4.78961 13.4497 4.78136C13.4497 4.78136 13.448 4.77806 13.4464 4.77641C13.4464 4.77641 13.4447 4.77311 13.4431 4.77146C13.4249 4.74673 13.4052 4.72364 13.3854 4.70055C13.3672 4.67911 13.3475 4.65767 13.326 4.63623C13.3062 4.6148 13.2848 4.59501 13.2634 4.57522C13.2419 4.55543 13.2205 4.53729 13.1991 4.5175C13.1941 4.5142 13.1908 4.50925 13.1859 4.50595C13.1447 4.47297 13.1035 4.44164 13.0606 4.4103C13.0606 4.4103 13.059 4.4103 13.059 4.40865C13.0144 4.37897 12.9683 4.35258 12.9221 4.3262L12.9106 4.32125C12.8842 4.30641 12.8578 4.29321 12.8314 4.28167C12.8051 4.27012 12.7787 4.25693 12.7507 4.24539C12.7226 4.23549 12.6946 4.22395 12.6666 4.21405C12.6418 4.20581 12.6188 4.19756 12.594 4.19097C12.5924 4.19097 12.5907 4.19097 12.5891 4.18932C12.5858 4.18932 12.5825 4.18767 12.5792 4.18602C12.5644 4.18107 12.5512 4.17777 12.5363 4.17447C12.5215 4.17118 12.5067 4.16788 12.4935 4.16458C12.4654 4.15963 12.4358 4.15304 12.4077 4.14809C12.3171 4.1316 12.2247 4.125 12.1308 4.125C12.0582 4.125 11.9873 4.12995 11.9181 4.13984C11.8967 4.14314 11.8752 4.14479 11.8538 4.14974C11.8505 4.14974 11.8472 4.14974 11.8439 4.14974C11.839 4.15139 11.834 4.15139 11.8291 4.15304C11.8126 4.15633 11.7944 4.15963 11.778 4.16293C11.7532 4.16788 11.7302 4.17447 11.7071 4.17942C11.6906 4.18272 11.6741 4.18767 11.6576 4.19426C11.6428 4.19756 11.6279 4.20251 11.6147 4.20746C11.5818 4.21735 11.5505 4.2289 11.5191 4.24209C11.4878 4.25528 11.4565 4.26848 11.4268 4.28332C11.3658 4.31135 11.3065 4.34269 11.2504 4.37897C11.2356 4.38721 11.2224 4.39711 11.2075 4.407C11.1927 4.4169 11.1795 4.42514 11.1663 4.43504C11.1383 4.45318 11.1136 4.47462 11.0872 4.49441C11.0344 4.53564 10.985 4.58016 10.9388 4.62964C10.9174 4.65108 10.8976 4.67252 10.8778 4.6956C10.8745 4.6989 10.8729 4.7022 10.8696 4.7055C10.8531 4.72364 10.8399 4.74178 10.8251 4.75827C10.7987 4.79125 10.7739 4.82424 10.7492 4.86052C10.7344 4.88361 10.7195 4.90505 10.7063 4.92813C10.6965 4.94627 10.6849 4.96277 10.6767 4.98091C10.6668 4.9974 10.6569 5.01554 10.6486 5.03368C10.6305 5.06996 10.6124 5.10624 10.5975 5.14417C10.5876 5.16891 10.5761 5.19365 10.5679 5.22003C10.558 5.24477 10.5497 5.27116 10.5431 5.29754C10.5349 5.32228 10.5266 5.34867 10.5201 5.3767C10.5118 5.40309 10.5069 5.42947 10.5019 5.45586C10.4788 5.5647 10.4673 5.6752 10.4673 5.79229C10.4673 5.82032 10.4673 5.85001 10.4706 5.87804V5.89288C10.4706 5.91102 10.4739 5.93081 10.4755 5.94895C10.4755 5.9539 10.4755 5.95885 10.4772 5.96215C10.4788 5.99018 10.4838 6.01822 10.4871 6.04625C10.4871 6.0578 10.4904 6.06934 10.492 6.08089C10.492 6.08583 10.492 6.08913 10.4937 6.09408C10.4937 6.09903 10.4953 6.10397 10.497 6.10892C10.4986 6.12046 10.5019 6.13201 10.5052 6.14355C10.5085 6.16004 10.5135 6.17489 10.5168 6.19138C10.5217 6.21282 10.5266 6.23096 10.5332 6.25075C10.5349 6.25899 10.5365 6.26559 10.5382 6.27384C10.5398 6.27713 10.5415 6.28208 10.5431 6.28538C10.5481 6.29692 10.5514 6.31012 10.5547 6.32331C10.5514 6.59377 10.4475 6.86423 10.2414 7.07037C10.0354 7.27652 9.76663 7.38041 9.4979 7.38536C9.48471 7.38041 9.47317 7.37546 9.45998 7.37217L9.45174 7.36887C9.45174 7.36887 9.4435 7.36722 9.4402 7.36557C9.4336 7.36227 9.42701 7.36062 9.41877 7.35897C9.40558 7.35567 9.39404 7.35073 9.38085 7.34908C9.37755 7.34908 9.37096 7.34743 9.36931 7.34578C9.36106 7.34578 9.35612 7.34248 9.34952 7.34083C9.34787 7.34083 9.34458 7.34083 9.34128 7.34083L9.3182 7.33588C9.30831 7.33424 9.29842 7.33259 9.28688 7.33094C9.28523 7.33094 9.28358 7.33094 9.28193 7.33094C9.26544 7.32764 9.24896 7.32434 9.23247 7.32104C9.1962 7.31609 9.15993 7.31115 9.12201 7.3062C9.11047 7.3062 9.09893 7.3029 9.08574 7.3029C9.07915 7.3029 9.0709 7.30125 9.06431 7.30125H9.04947C9.02145 7.2996 8.99342 7.29795 8.96374 7.29795C8.04545 7.29795 7.30192 8.04172 7.30192 8.96029C7.30192 9.4204 7.48821 9.83764 7.78991 10.1378C7.80805 10.1559 7.82618 10.1741 7.84597 10.1906C7.86245 10.207 7.88059 10.2219 7.89708 10.2351C7.91027 10.2466 7.9251 10.2582 7.93829 10.2681C7.94654 10.2747 7.95313 10.2796 7.95972 10.2846C7.97126 10.2928 7.9828 10.301 7.9927 10.3076C8.00589 10.3175 8.02072 10.3274 8.03391 10.3373C8.0537 10.3505 8.07348 10.3637 8.09326 10.3753C8.1114 10.3852 8.12788 10.3967 8.14602 10.4066C8.16745 10.4181 8.18888 10.4297 8.21032 10.4412C8.2301 10.4511 8.25153 10.461 8.27132 10.4709C8.27626 10.4742 8.28121 10.4759 8.28615 10.4792C8.30594 10.489 8.32737 10.4973 8.34715 10.5039C8.37023 10.5138 8.39496 10.522 8.41804 10.5319C8.44277 10.5402 8.46586 10.5484 8.49058 10.555H8.49223C8.51531 10.5633 8.54004 10.5682 8.56477 10.5748C8.5895 10.5798 8.61423 10.5863 8.64061 10.5913C8.66699 10.5962 8.69172 10.6012 8.7181 10.6045C8.7692 10.6127 8.82196 10.6177 8.87472 10.621C8.87472 10.621 8.87637 10.621 8.87801 10.621C8.90604 10.621 8.93572 10.6226 8.96374 10.6226C8.96374 10.6226 8.98023 10.6226 8.98682 10.6226H8.98847C9.01155 10.6226 9.03628 10.6226 9.05936 10.6193C9.08904 10.6193 9.11871 10.616 9.15004 10.6111H9.15663C9.15828 10.6111 9.16158 10.6111 9.16158 10.6111C9.19125 10.6078 9.21928 10.6028 9.24731 10.5995C9.27698 10.5946 9.30666 10.588 9.33798 10.5814C9.35282 10.5781 9.36601 10.5765 9.3792 10.5715H9.38085C9.38085 10.5715 9.39404 10.5682 9.40228 10.5649C9.41217 10.5633 9.42041 10.5616 9.42866 10.5567C9.45833 10.5484 9.48636 10.5385 9.51604 10.5286C9.52593 10.5253 9.53582 10.522 9.54571 10.5171C9.56714 10.5187 9.58693 10.5204 9.60506 10.5237H9.60671C9.82928 10.555 10.0419 10.6556 10.2134 10.8255L13.4299 14.0446C13.6063 14.2211 13.7085 14.442 13.7365 14.6713C13.7382 14.6861 13.7398 14.6993 13.7415 14.7125C13.7415 14.7125 13.7382 14.7208 13.7382 14.7241C13.7382 14.7274 13.7349 14.729 13.7349 14.7339C13.7299 14.7471 13.725 14.762 13.7201 14.7752C13.7151 14.79 13.7102 14.8032 13.7085 14.8164C13.7036 14.8296 13.7003 14.8444 13.697 14.8576C13.692 14.8708 13.6887 14.8857 13.6854 14.8989C13.6821 14.9137 13.6788 14.9285 13.6755 14.9417C13.6722 14.9566 13.6706 14.9714 13.6673 14.9846C13.664 14.9995 13.6624 15.0143 13.6591 15.0308C13.6558 15.0489 13.6541 15.0687 13.6508 15.0885L13.6475 15.1116V15.1149C13.6475 15.1281 13.6442 15.1429 13.6442 15.1561C13.6409 15.1858 13.6393 15.2155 13.6393 15.2452C13.6393 15.2551 13.6376 15.2633 13.6393 15.2749V15.298C13.6393 15.321 13.6393 15.3458 13.6409 15.3689C13.6409 15.3788 13.6409 15.3887 13.6409 15.3986C13.6508 15.5486 13.6788 15.6937 13.725 15.8306V15.8372C13.7201 16.106 13.6162 16.3732 13.4118 16.5777C13.2057 16.7822 12.9386 16.8877 12.6699 16.8927H12.6666C12.655 16.8894 12.6451 16.8844 12.6353 16.8811C12.6336 16.8795 12.6303 16.8795 12.627 16.8778C12.6237 16.8762 12.6188 16.8745 12.6138 16.8745C12.6122 16.8745 12.6105 16.8745 12.6089 16.8729C12.6056 16.8729 12.6006 16.8696 12.5973 16.8696C12.5924 16.8679 12.5874 16.8663 12.5825 16.8663C12.5759 16.863 12.5693 16.8613 12.5611 16.8613C12.5561 16.8597 12.5495 16.858 12.5446 16.8564C12.5413 16.8564 12.5396 16.8564 12.5363 16.8547C12.533 16.8531 12.5281 16.8514 12.5248 16.8514C12.5248 16.8514 12.5242 16.8514 12.5231 16.8514C12.5231 16.8514 12.5133 16.8514 12.5083 16.8482C12.5083 16.8482 12.5034 16.8482 12.5001 16.8465L12.4885 16.8432C12.4654 16.8383 12.444 16.8333 12.4209 16.83C12.416 16.83 12.4094 16.8284 12.4028 16.8267C12.3814 16.8234 12.3616 16.8201 12.3418 16.8185C12.3418 16.8185 12.3319 16.8152 12.3253 16.8152C12.3154 16.8135 12.3039 16.8119 12.294 16.8119C12.2758 16.8102 12.2561 16.8086 12.2379 16.8069C12.2363 16.8069 12.2346 16.8069 12.233 16.8069C12.2066 16.8053 12.1819 16.8036 12.1555 16.8053C12.1506 16.8053 12.144 16.8053 12.139 16.8053H12.1374C12.1093 16.8053 12.0813 16.8053 12.0533 16.8086H12.0417C12.0417 16.8086 12.0335 16.8086 12.0286 16.8086C12.0005 16.8102 11.9725 16.8119 11.9461 16.8168C11.928 16.8185 11.9082 16.8218 11.8884 16.8251H11.8835L11.8489 16.83L11.8208 16.835C11.8208 16.835 11.8175 16.835 11.8159 16.835C11.8109 16.835 11.8076 16.835 11.8043 16.8366H11.8027C11.8027 16.8366 11.7895 16.8399 11.7829 16.8416L11.7681 16.8449C11.7681 16.8449 11.7582 16.8465 11.7532 16.8482C11.7285 16.8531 11.7021 16.8597 11.6774 16.8679C11.6741 16.8679 11.6708 16.8696 11.6675 16.8712C11.651 16.8762 11.6329 16.8811 11.618 16.8877C11.6147 16.8877 11.6098 16.8894 11.6065 16.891C11.3361 16.8877 11.0658 16.7822 10.8597 16.5777C10.6536 16.3715 10.5481 16.1027 10.5464 15.8323C10.5563 15.8026 10.5662 15.7713 10.5745 15.7399C10.5778 15.73 10.5794 15.7218 10.5827 15.7102C10.5893 15.6872 10.5942 15.6657 10.5992 15.641C10.6025 15.6261 10.6058 15.6113 10.6074 15.5964C10.6107 15.5833 10.6124 15.5717 10.6124 15.5585C10.6124 15.5552 10.6124 15.5536 10.614 15.5503C10.6173 15.5288 10.6206 15.5074 10.6223 15.4876C10.6256 15.4579 10.6289 15.4282 10.6305 15.3969C10.6322 15.3623 10.6338 15.3309 10.6338 15.2963C10.6338 14.3777 9.89028 13.634 8.97199 13.634C8.0537 13.634 7.30851 14.3777 7.30851 15.2963C7.30851 16.2149 8.0537 16.9603 8.97034 16.9603C9.00496 16.9603 9.03628 16.9603 9.06926 16.957C9.09069 16.957 9.11212 16.9537 9.13355 16.952C9.13685 16.952 9.1418 16.952 9.14509 16.9504C9.16652 16.9487 9.18631 16.9471 9.20444 16.9422C9.21269 16.9422 9.22093 16.9405 9.22917 16.9389C9.25225 16.9356 9.27533 16.9306 9.29842 16.9273C9.33304 16.9207 9.36601 16.9125 9.39898 16.9042C9.41712 16.8993 9.43525 16.8943 9.45174 16.8894C9.46987 16.8844 9.48801 16.8778 9.5045 16.8729C9.77487 16.8778 10.042 16.9817 10.2464 17.1862C10.4525 17.3924 10.558 17.6612 10.5613 17.93L10.558 17.9399C10.5547 17.9481 10.553 17.9564 10.5497 17.9646C10.5481 17.9712 10.5464 17.9778 10.5431 17.9828C10.5431 17.9828 10.5398 17.996 10.5382 18.0009C10.5365 18.0108 10.5332 18.019 10.5299 18.0289C10.5299 18.0355 10.5266 18.0405 10.525 18.0471C10.5217 18.0537 10.5201 18.0586 10.5201 18.0652C10.5184 18.0735 10.5168 18.0801 10.5151 18.0883C10.5118 18.0966 10.5102 18.1031 10.5102 18.1114C10.5069 18.1213 10.5052 18.1328 10.5036 18.1427C10.5003 18.1576 10.4986 18.1741 10.4953 18.1889C10.4953 18.1922 10.4953 18.1939 10.4937 18.1972C10.4904 18.2153 10.4887 18.2334 10.4854 18.2532C10.4854 18.2615 10.4838 18.2681 10.4821 18.2747C10.4805 18.2862 10.4788 18.2977 10.4788 18.3109C10.4788 18.3208 10.4772 18.3291 10.4772 18.339C10.4755 18.3489 10.4755 18.3571 10.4739 18.367V18.3703C10.4722 18.4016 10.4706 18.4346 10.4706 18.466C10.4706 18.489 10.4706 18.5138 10.4722 18.5369C10.4722 18.5534 10.4722 18.5715 10.4755 18.5863C10.4755 18.6028 10.4772 18.621 10.4788 18.6358C10.4805 18.6474 10.4821 18.6606 10.4838 18.6721C10.4854 18.6869 10.4871 18.7001 10.4887 18.7133C10.4887 18.7216 10.4904 18.7298 10.492 18.7364C10.492 18.7397 10.492 18.7414 10.4937 18.7447L10.497 18.7612C10.5019 18.7908 10.5085 18.8189 10.5151 18.8486C10.5151 18.8535 10.5168 18.8568 10.5184 18.8618C10.5234 18.8865 10.5299 18.9112 10.5382 18.9343C10.5431 18.9508 10.5481 18.969 10.5547 18.9854C10.5547 18.9887 10.558 18.9937 10.558 18.997C10.5596 19.0019 10.5613 19.0069 10.5629 19.0102C10.5679 19.025 10.5728 19.0382 10.5778 19.0531C10.5811 19.0613 10.5827 19.0679 10.586 19.0745L10.5942 19.0943C10.6025 19.1124 10.6107 19.1322 10.619 19.1504C10.619 19.1537 10.6206 19.157 10.6223 19.1603C10.6256 19.1685 10.6305 19.1767 10.6338 19.1833C10.6454 19.2081 10.6569 19.2328 10.6701 19.2559C10.6965 19.3021 10.7228 19.3483 10.7525 19.3928C10.7525 19.3928 10.7542 19.3928 10.7542 19.3944C10.769 19.4159 10.7838 19.4373 10.7987 19.4587C10.7987 19.4587 10.8053 19.467 10.8086 19.4719C10.8201 19.4884 10.8349 19.5066 10.8481 19.5214C10.8547 19.5297 10.8613 19.5379 10.8696 19.5445L10.8729 19.5478C10.8828 19.5593 10.891 19.5709 10.9009 19.5808C10.919 19.6006 10.9372 19.6187 10.9569 19.6385L10.9734 19.655C10.9734 19.655 10.985 19.6649 10.9899 19.6698C11.0015 19.6814 11.013 19.6929 11.0245 19.7028C11.041 19.7177 11.0575 19.7325 11.074 19.7457C11.0773 19.749 11.0839 19.7539 11.0872 19.7572C11.0872 19.7572 11.0872 19.7589 11.0888 19.7589C11.1086 19.7754 11.1284 19.7902 11.1482 19.8051C11.1564 19.8117 11.1647 19.8166 11.1729 19.8216C11.1746 19.8232 11.1762 19.8249 11.1779 19.8265C11.2125 19.8496 11.2455 19.8727 11.2817 19.8941C11.3065 19.9106 11.3345 19.9238 11.3609 19.9386C11.3609 19.9386 11.3609 19.9386 11.3625 19.9386C11.3773 19.9469 11.3922 19.9535 11.4087 19.9617C11.4334 19.9733 11.4581 19.9848 11.4812 19.9964C11.5059 20.0063 11.5307 20.0178 11.557 20.0261C11.557 20.0261 11.5603 20.0261 11.562 20.0277C11.5867 20.0359 11.6114 20.0442 11.6345 20.0508C11.6593 20.059 11.6856 20.0673 11.7137 20.0739C11.74 20.0821 11.7664 20.0871 11.7928 20.092C11.8175 20.097 11.8423 20.1019 11.867 20.1069C11.9 20.1118 11.9313 20.1151 11.9643 20.1184C11.9873 20.1201 12.0121 20.1217 12.0351 20.1234C12.0384 20.1234 12.0434 20.1234 12.0467 20.1234C12.0747 20.1234 12.1011 20.125 12.1291 20.125C12.1291 20.125 12.1297 20.125 12.1308 20.125C12.1588 20.125 12.1835 20.125 12.2099 20.1217C12.2132 20.1217 12.2181 20.1217 12.2214 20.1217C12.2412 20.1217 12.2594 20.1201 12.2791 20.1184C12.2857 20.1184 12.2923 20.1184 12.2989 20.1168C12.3286 20.1135 12.3583 20.1085 12.388 20.1052C12.4028 20.1019 12.416 20.1019 12.4308 20.0986C12.4374 20.0986 12.444 20.0953 12.449 20.0953C12.477 20.0904 12.505 20.0838 12.533 20.0772C12.5363 20.0772 12.5413 20.0755 12.5446 20.0739C12.5495 20.0722 12.5545 20.0706 12.5611 20.0689C12.5841 20.0623 12.6089 20.0557 12.632 20.0475C12.6353 20.0475 12.6369 20.0458 12.6402 20.0442C12.6501 20.0409 12.66 20.0392 12.6699 20.0343C12.688 20.0294 12.7045 20.0228 12.7226 20.0162C12.7325 20.0112 12.7424 20.0079 12.7523 20.0046C12.7573 20.003 12.7622 20.0013 12.7671 19.998C12.7836 19.9931 12.8001 19.9848 12.8166 19.9766C12.843 19.965 12.8677 19.9518 12.8941 19.9386C12.899 19.937 12.904 19.9337 12.9089 19.9321C12.9172 19.9288 12.9238 19.9238 12.9304 19.9205C12.9419 19.9156 12.9518 19.909 12.9633 19.9024C12.9732 19.8974 12.9848 19.8908 12.9947 19.8842C12.9947 19.8842 12.9947 19.8842 12.9963 19.8826C12.9963 19.8826 12.9963 19.8826 12.998 19.8826C13.026 19.8644 13.054 19.8479 13.0804 19.8298C13.1002 19.815 13.12 19.8018 13.1397 19.7869C13.148 19.7803 13.1579 19.7737 13.1661 19.7655C13.1842 19.7506 13.2024 19.7358 13.2189 19.721C13.2255 19.716 13.2304 19.7111 13.237 19.7045C13.2617 19.683 13.2848 19.6599 13.3079 19.6369C13.3227 19.622 13.3359 19.6088 13.3491 19.594C13.3574 19.5857 13.3656 19.5775 13.3722 19.5676C13.387 19.5511 13.4002 19.5346 13.4151 19.5181C13.4497 19.4769 13.481 19.434 13.5107 19.3895C13.5206 19.3746 13.5321 19.3598 13.5404 19.3433C13.5486 19.3318 13.5552 19.3202 13.5618 19.3087C13.5717 19.2922 13.5816 19.274 13.5915 19.2576C13.5948 19.2526 13.5981 19.246 13.6014 19.2411C13.6112 19.2213 13.6211 19.2015 13.631 19.1817C13.7365 18.964 13.7959 18.7199 13.7959 18.4627C13.7959 18.428 13.7959 18.3967 13.7926 18.3637C13.7909 18.3324 13.7876 18.301 13.7827 18.2697C13.7827 18.2549 13.7794 18.2384 13.7761 18.2235C13.7761 18.2186 13.7761 18.2136 13.7745 18.207C13.7728 18.1972 13.7712 18.1873 13.7695 18.1774C13.7662 18.1625 13.7646 18.1477 13.7613 18.1328C13.7613 18.1295 13.7613 18.1279 13.7613 18.1246C13.758 18.113 13.7563 18.0999 13.753 18.0883C13.753 18.0867 13.753 18.0834 13.7514 18.0801C13.7497 18.0685 13.7464 18.0553 13.7431 18.0438C13.7398 18.0289 13.7349 18.0141 13.7316 17.9993C13.7316 17.996 13.7316 17.9927 13.7283 17.9894C13.7266 17.9811 13.7234 17.9729 13.7201 17.9646C13.7168 17.9498 13.7118 17.9366 13.7085 17.9234C13.7135 17.6529 13.8173 17.3858 14.0218 17.1796C14.2278 16.9735 14.4966 16.8696 14.7653 16.8663C14.8213 16.8844 14.8774 16.9009 14.9351 16.9141C14.94 16.9158 14.945 16.9174 14.9499 16.9174C14.9598 16.9191 14.9697 16.9207 14.9796 16.9224C14.9813 16.9224 14.9846 16.924 14.9879 16.924C14.9944 16.9257 15.0027 16.9273 15.0093 16.9273C15.0126 16.9273 15.0159 16.9273 15.0192 16.9273C15.0291 16.9273 15.0373 16.9306 15.0472 16.9323C15.0637 16.9339 15.0818 16.9372 15.0967 16.9389C15.1 16.9389 15.1049 16.9405 15.1082 16.9405C15.1296 16.9438 15.1494 16.9454 15.1709 16.9454C15.1807 16.9471 15.1923 16.9471 15.2022 16.9487H15.2137C15.2417 16.9487 15.2714 16.9504 15.2994 16.9504C15.2994 16.9504 15.3 16.9504 15.3011 16.9504C15.3011 16.9504 15.3159 16.9504 15.3225 16.9504C15.3308 16.9504 15.339 16.9504 15.3473 16.9504C15.3489 16.9504 15.3506 16.9504 15.3506 16.9504C15.3522 16.9504 15.3539 16.9504 15.3539 16.9504C15.3687 16.9504 15.3835 16.9504 15.3967 16.9487C15.4132 16.9487 15.428 16.9471 15.4429 16.9454C15.4429 16.9454 15.4544 16.9454 15.4577 16.9454H15.461C15.4775 16.9454 15.494 16.9422 15.5105 16.9405C15.5187 16.9405 15.527 16.9372 15.5336 16.9372C15.5533 16.9339 15.5748 16.9306 15.5946 16.9273C15.5995 16.9273 15.6061 16.9257 15.6127 16.924C15.6176 16.9224 15.6242 16.9207 15.6308 16.9191C15.6391 16.9174 15.6457 16.9158 15.6523 16.9141C15.677 16.9092 15.7034 16.9026 15.7281 16.896C15.7314 16.896 15.733 16.896 15.738 16.8943C15.7495 16.891 15.7594 16.8877 15.7693 16.8844C15.7743 16.8844 15.7775 16.8811 15.7825 16.8811C15.7907 16.8778 15.8006 16.8762 15.8105 16.8729C15.8155 16.8712 15.8221 16.8679 15.8287 16.8663C15.8633 16.8547 15.8963 16.8416 15.9292 16.8284L15.9688 16.8119C16.0067 16.7954 16.0413 16.7772 16.0776 16.7591C16.0825 16.7574 16.0858 16.7558 16.0891 16.7541C16.0924 16.7525 16.0941 16.7509 16.0957 16.7509L16.1485 16.7195C16.16 16.7129 16.1699 16.7063 16.1815 16.6981C16.2144 16.6766 16.2458 16.6568 16.2771 16.6338C16.2853 16.6288 16.2936 16.6222 16.3018 16.6156C16.3018 16.6156 16.3051 16.614 16.3051 16.6123C16.315 16.6057 16.3232 16.5975 16.3331 16.5909C16.3397 16.5859 16.348 16.581 16.3546 16.5744C16.3562 16.5727 16.3595 16.5711 16.3612 16.5678C16.3694 16.5612 16.3793 16.553 16.3875 16.5464C16.3974 16.5365 16.4073 16.5282 16.4172 16.52C16.4271 16.5117 16.4354 16.5035 16.4452 16.4952C16.4914 16.4507 16.5343 16.4045 16.5755 16.3551C16.5771 16.3534 16.5788 16.3518 16.5804 16.3501C16.5837 16.3468 16.587 16.3419 16.5903 16.3386C16.5969 16.3303 16.6035 16.3221 16.6085 16.3138C16.6167 16.3039 16.6249 16.294 16.6332 16.2841C16.6365 16.2792 16.6414 16.2726 16.6447 16.2677C16.648 16.2627 16.6513 16.2578 16.6546 16.2528C16.6612 16.2429 16.6695 16.233 16.6761 16.2231C16.6892 16.2033 16.7024 16.1835 16.7156 16.1638C16.7239 16.1506 16.7321 16.1357 16.7387 16.1225C16.7469 16.111 16.7535 16.0994 16.7601 16.0862C16.7684 16.0731 16.775 16.0599 16.7816 16.045C16.7948 16.0203 16.8063 15.9939 16.8178 15.9675C16.8294 15.9428 16.8409 15.9147 16.8525 15.8883C16.8624 15.862 16.8706 15.8356 16.8805 15.8075C16.8854 15.7894 16.892 15.7696 16.897 15.7515C16.8986 15.7449 16.9003 15.7399 16.9019 15.7333C16.9069 15.7102 16.9135 15.6888 16.9184 15.6674C16.9201 15.6575 16.9234 15.6492 16.925 15.6393C16.9283 15.6278 16.9283 15.6146 16.9316 15.603C16.9349 15.5833 16.9398 15.5618 16.9415 15.542C16.9481 15.5024 16.953 15.4629 16.9563 15.42C16.9563 15.4134 16.958 15.4051 16.9563 15.3986C16.9596 15.3639 16.9613 15.3276 16.9613 15.293C16.9613 15.1957 16.953 15.1001 16.9365 15.0077C16.9316 14.9764 16.925 14.945 16.9184 14.9154L16.9135 14.9252Z" fill="url(#paint0_linear_7627_782890)"/>
<path d="M18.4615 10.4693C17.5432 10.4693 16.7981 11.2147 16.7981 12.1332C16.7981 13.0518 17.5432 13.7972 18.4615 13.7972C19.3798 13.7972 20.125 13.0518 20.125 12.1332C20.125 11.2147 19.3798 10.4693 18.4615 10.4693Z" fill="url(#paint1_linear_7627_782890)"/>
<path d="M5.78847 10.4693C4.87018 10.4693 4.125 11.2147 4.125 12.1332C4.125 13.0518 4.87018 13.7972 5.78847 13.7972C6.70676 13.7972 7.45194 13.0518 7.45194 12.1332C7.45194 11.2147 6.70676 10.4693 5.78847 10.4693Z" fill="url(#paint2_linear_7627_782890)"/>
<defs>
<linearGradient id="paint0_linear_7627_782890" x1="19.2184" y1="12.1332" x2="4.45816" y2="12.1332" gradientUnits="userSpaceOnUse">
<stop stop-color="#F47920"/>
<stop offset="0.02" stop-color="#F37720"/>
<stop offset="0.37" stop-color="#F16022"/>
<stop offset="0.71" stop-color="#F05223"/>
<stop offset="1" stop-color="#F04E24"/>
</linearGradient>
<linearGradient id="paint1_linear_7627_782890" x1="7.07445" y1="12.125" x2="19.2291" y2="12.125" gradientUnits="userSpaceOnUse">
<stop stop-color="#32C3E3"/>
<stop offset="0.08" stop-color="#30BCE0"/>
<stop offset="0.41" stop-color="#2AA5D7"/>
<stop offset="0.73" stop-color="#2697D2"/>
<stop offset="1" stop-color="#2593D1"/>
</linearGradient>
<linearGradient id="paint2_linear_7627_782890" x1="4.11181" y1="12.1317" x2="6.77271" y2="12.1317" gradientUnits="userSpaceOnUse">
<stop stop-color="#32C3E3"/>
<stop offset="0.08" stop-color="#30BCE0"/>
<stop offset="0.41" stop-color="#2AA5D7"/>
<stop offset="0.73" stop-color="#2697D2"/>
<stop offset="1" stop-color="#2593D1"/>
</linearGradient>
</defs>
</svg>
