<svg width="24" height="24" viewBox="0 0 24 24" fill="none" xmlns="http://www.w3.org/2000/svg">
<rect width="24" height="24" rx="12" fill="#F07627"/>
<g clip-path="url(#clip0_7611_796457)">
<path d="M17.1408 10.4563C18.032 10.4563 18.9228 10.4563 19.814 10.4501C19.9152 10.4501 19.96 10.4683 19.9571 10.5853C19.8696 14.1586 17.6752 17.4879 14.2631 18.5364C11.1867 19.482 8.511 18.6791 6.29712 16.3846C4.9761 15.0154 4.25792 13.3387 4.03263 11.4517C3.99861 11.1712 3.98657 10.8878 3.95919 10.6061C3.9484 10.4941 3.97537 10.448 4.10067 10.4492C4.99186 10.4555 5.88472 10.4546 6.77425 10.4563L6.77052 10.4521C6.78753 10.7559 6.80288 11.0612 6.86885 11.3579C7.31196 13.3557 8.48694 14.7324 10.4423 15.3444C12.3645 15.9465 14.0934 15.488 15.553 14.1167C16.5998 13.1333 17.0902 11.8807 17.1441 10.4521L17.1408 10.4563Z" fill="white"/>
<path d="M6.77327 10.457C6.78281 9.44414 7.01432 8.49274 7.54829 7.62183C8.6768 5.78208 10.7795 4.88337 12.7718 5.20327C15.0376 5.56882 16.6453 7.33844 17.0253 9.32589C17.0971 9.69932 17.1158 10.0786 17.1382 10.457L17.1415 10.4528L14.6106 10.4557C14.5849 10.3823 14.5106 10.3661 14.4563 10.3287C13.6925 9.80056 12.9772 9.21926 12.4021 8.48071C12.2397 8.26098 12.0902 8.03197 11.9545 7.79485C11.9084 7.87534 11.8744 7.93302 11.8424 7.99152C11.4488 8.71499 10.9192 9.35572 10.2829 9.87856C10.0339 10.0827 9.76922 10.2673 9.51157 10.4594L6.76953 10.4511L6.77327 10.457Z" fill="white"/>
<path d="M9.55078 10.4981C9.61799 10.425 9.70554 10.4611 9.78229 10.4607C11.3943 10.4568 13.006 10.4546 14.6175 10.4541C13.6632 11.1818 12.8471 12.0523 12.0767 12.9668C11.9858 13.0751 11.948 13.1071 11.8568 12.9569C11.2622 11.9768 10.4685 11.1777 9.55078 10.4981Z" fill="white"/>
</g>
<defs>
<clipPath id="clip0_7611_796457">
<rect width="16" height="13.7865" fill="white" transform="translate(3.95703 5.13867)"/>
</clipPath>
</defs>
</svg>
