<svg width="24" height="24" viewBox="0 0 24 24" fill="none" xmlns="http://www.w3.org/2000/svg">
<circle cx="12" cy="12" r="12" fill="#1E27C6"/>
<g clip-path="url(#clip0_7611_795239)">
<path d="M13.9033 12.1289C13.5258 12.1289 12.9766 11.7422 12.9766 11.3203L13.1825 8.08594C13.1825 7.69922 13.4914 7.34766 13.869 7.34766C14.2466 7.34766 14.5555 7.66406 14.5555 8.08594L14.7958 11.3555C14.7615 11.7773 14.2809 12.1289 13.9033 12.1289Z" fill="#EB2D4B"/>
<path d="M11.8762 9.91416C11.7732 10.2657 11.224 10.6876 10.8465 10.5821L7.92884 9.35166C7.55127 9.21104 7.34532 8.82432 7.44829 8.47276C7.55127 8.1212 7.96317 7.91026 8.34074 8.05088L11.43 8.82432C11.8076 8.96495 12.0135 9.5626 11.8762 9.91416Z" fill="#EB2D4B"/>
<path d="M9.20132 11.2144C9.51024 11.4253 9.75052 12.0933 9.51024 12.4097L7.48507 14.9058C7.2448 15.2222 6.8329 15.3277 6.52397 15.0816C6.21505 14.8706 6.1464 14.4136 6.38667 14.0972L8.06859 11.3199C8.27454 11.0035 8.89239 11.0035 9.20132 11.2144Z" fill="#EB2D4B"/>
<path d="M9.54577 14.238C9.85469 14.0271 10.5069 13.9919 10.7471 14.3083L12.4291 17.0505C12.6693 17.3669 12.6007 17.8239 12.2918 18.0349C11.9828 18.2458 11.5709 18.1755 11.3307 17.8591L9.27117 15.363C9.06522 15.0466 9.27117 14.449 9.54577 14.238Z" fill="#EB2D4B"/>
<path d="M12.4602 14.7655C12.3572 14.4139 12.5632 13.746 12.9064 13.6053L15.9957 12.8671C16.3732 12.7616 16.7508 12.9374 16.8881 13.3241C16.9911 13.6757 16.7851 14.0975 16.4076 14.203L13.4213 15.3983C13.0437 15.5389 12.5632 15.1522 12.4602 14.7655Z" fill="#EB2D4B"/>
<path d="M13.9033 20.25C13.5258 20.25 12.9766 19.8984 12.9766 19.5117L13.1825 16.5234C13.1825 16.1367 13.4914 15.8555 13.8347 15.8555C14.2123 15.8555 14.5212 16.1367 14.5212 16.5234L14.7958 19.5469C14.7958 19.8984 14.2809 20.25 13.9033 20.25Z" fill="#EB2D4B"/>
<path d="M19.462 12.4452C19.359 12.7968 18.8442 13.2538 18.5009 13.1483L15.7892 12.0233C15.446 11.9179 15.24 11.5311 15.343 11.1796C15.446 10.828 15.8236 10.6171 16.1668 10.7226L19.0501 11.3905C19.3934 11.4608 19.565 12.0585 19.462 12.4452Z" fill="#EB2D4B"/>
<path d="M14.0062 4.71064C14.2808 4.95674 14.521 5.58955 14.2808 5.8708L12.2899 8.08564C12.0497 8.36689 11.6378 8.4372 11.3632 8.19111C11.0886 7.94502 11.0199 7.52314 11.2602 7.24189L12.9078 4.7458C13.1137 4.39424 13.6972 4.46455 14.0062 4.71064Z" fill="#EB2D4B"/>
<path d="M4.87575 7.69917C5.18468 7.48824 5.83685 7.41792 6.0428 7.69917L7.62175 10.2304C7.8277 10.5117 7.79337 10.9687 7.48445 11.1796C7.17552 11.3906 6.76363 11.3554 6.55768 11.039L4.60115 8.75386C4.36088 8.50777 4.56683 7.94527 4.87575 7.69917Z" fill="#EB2D4B"/>
<path d="M4.87719 17.3673C4.77422 17.0158 4.91152 16.3478 5.25477 16.2423L8.10374 15.504C8.44699 15.3986 8.82456 15.5743 8.92754 15.9259C9.03051 16.2775 8.85889 16.6642 8.51564 16.8048L5.80397 18.0001C5.49504 18.1056 5.01449 17.7189 4.87719 17.3673Z" fill="#EB2D4B"/>
</g>
<defs>
<clipPath id="clip0_7611_795239">
<rect width="15" height="15.75" fill="white" transform="translate(4.5 4.5)"/>
</clipPath>
</defs>
</svg>
