<svg width="24" height="24" viewBox="0 0 24 24" fill="none" xmlns="http://www.w3.org/2000/svg">
<circle cx="12" cy="12" r="12" fill="#F7F7F7"/>
<g clip-path="url(#clip0_7611_795441)">
<path d="M15.1014 13.5407C15.1005 13.0254 14.9138 12.5264 14.5736 12.1298V12.1298L9.92856 6.79104C9.71928 6.5435 9.45484 6.34492 9.155 6.21018C8.85517 6.07544 8.52771 6.00801 8.19712 6.01295C7.59771 6.01349 7.02295 6.24373 6.59871 6.65324C6.17446 7.06274 5.9353 7.61815 5.93359 8.19783C5.93495 8.71213 6.12073 9.21004 6.45925 9.60669V9.60669L11.1086 14.9745C11.3186 15.2216 11.5836 15.4197 11.8837 15.554C12.1839 15.6884 12.5115 15.7555 12.8422 15.7505C13.4434 15.7429 14.0173 15.5068 14.44 15.0934C14.8628 14.6799 15.1003 14.1222 15.1014 13.5407V13.5407Z" fill="url(#paint0_radial_7611_795441)"/>
<path d="M14.2213 15.2644C14.6454 14.9514 14.9393 14.5016 15.0494 13.9967V13.9967L16.2788 8.67868C16.3448 8.39966 16.3532 8.11081 16.3037 7.82863C16.2542 7.54645 16.1477 7.27646 15.9903 7.03407C15.833 6.79169 15.6277 6.58166 15.3864 6.41598C15.1451 6.2503 14.8724 6.1322 14.5839 6.06844C14.2953 6.00468 13.9967 5.9965 13.7049 6.04437C13.4131 6.09224 13.1339 6.19522 12.8833 6.34743C12.3771 6.65484 12.0179 7.14411 11.8848 7.70762L10.679 12.9094L10.6554 13.0547C10.547 13.4925 10.5822 13.9522 10.7561 14.3698C10.9301 14.7875 11.2342 15.1424 11.6262 15.3853C12.0182 15.6282 12.4786 15.7471 12.9437 15.7254C13.4087 15.7038 13.8552 15.5427 14.2213 15.2644V15.2644Z" fill="url(#paint1_radial_7611_795441)"/>
<path d="M21 13.5407C20.998 13.0255 20.8115 12.527 20.4722 12.1298V12.1298L15.7993 6.79104C15.5896 6.54345 15.3247 6.34488 15.0245 6.21014C14.7244 6.07541 14.3966 6.008 14.0657 6.01295C13.4674 6.01514 12.8943 6.2461 12.4714 6.65543C12.0486 7.06476 11.8103 7.61923 11.8086 8.19783C11.8107 8.71235 11.9973 9.21024 12.3364 9.60669V9.60669L16.9814 14.9745C17.1913 15.2218 17.4562 15.4201 17.7564 15.5545C18.0566 15.6888 18.3843 15.7558 18.715 15.7505C19.3202 15.7478 19.8997 15.5141 20.3276 15.1003C20.7555 14.6864 20.9972 14.126 21 13.5407V13.5407Z" fill="url(#paint2_radial_7611_795441)"/>
<path d="M6.01138 11.3555C6.45812 11.3559 6.89471 11.4844 7.26596 11.7247C7.63721 11.965 7.92644 12.3064 8.09711 12.7057C8.26778 13.1049 8.31221 13.5442 8.2248 13.9679C8.13738 14.3916 7.92204 14.7807 7.606 15.086C7.28995 15.3914 6.88739 15.5993 6.4492 15.6834C6.01101 15.7675 5.55686 15.7241 5.14417 15.5587C4.73147 15.3933 4.37875 15.1132 4.1306 14.754C3.88245 14.3947 3.75 13.9724 3.75 13.5403C3.75 13.2533 3.80851 12.969 3.92218 12.7038C4.03585 12.4385 4.20246 12.1976 4.41247 11.9947C4.62249 11.7918 4.8718 11.6309 5.14615 11.5212C5.4205 11.4115 5.71451 11.3552 6.01138 11.3555V11.3555Z" fill="url(#paint3_radial_7611_795441)"/>
</g>
<defs>
<radialGradient id="paint0_radial_7611_795441" cx="0" cy="0" r="1" gradientUnits="userSpaceOnUse" gradientTransform="translate(11.5505 8.84468) scale(4.80213 4.64408)">
<stop offset="0.02" stop-color="#6F0000"/>
<stop offset="0.33" stop-color="#910D11"/>
<stop offset="0.45" stop-color="#A61519"/>
<stop offset="0.59" stop-color="#BC1B20"/>
<stop offset="0.74" stop-color="#CB1E24"/>
<stop offset="0.88" stop-color="#D52027"/>
<stop offset="1" stop-color="#DA2128"/>
</radialGradient>
<radialGradient id="paint1_radial_7611_795441" cx="0" cy="0" r="1" gradientUnits="userSpaceOnUse" gradientTransform="translate(15.1978 11.6408) scale(4.28251 4.14156)">
<stop offset="0.04" stop-color="#6F0000"/>
<stop offset="0.3" stop-color="#910D11"/>
<stop offset="0.42" stop-color="#A01317"/>
<stop offset="0.68" stop-color="#BE1B21"/>
<stop offset="0.88" stop-color="#D11F26"/>
<stop offset="1" stop-color="#DA2128"/>
</radialGradient>
<radialGradient id="paint2_radial_7611_795441" cx="0" cy="0" r="1" gradientUnits="userSpaceOnUse" gradientTransform="translate(13.058 6.92684) scale(8.64533 8.36081)">
<stop offset="0.36" stop-color="#DA2128"/>
<stop offset="1" stop-color="#F37021"/>
</radialGradient>
<radialGradient id="paint3_radial_7611_795441" cx="0" cy="0" r="1" gradientUnits="userSpaceOnUse" gradientTransform="translate(4.84902 14.3623) scale(4.48584 4.3382)">
<stop offset="0.31" stop-color="#DA2128"/>
<stop offset="0.79" stop-color="#910D11"/>
<stop offset="1" stop-color="#6F0000"/>
</radialGradient>
<clipPath id="clip0_7611_795441">
<rect width="17.25" height="9.75" fill="white" transform="translate(3.75 6)"/>
</clipPath>
</defs>
</svg>
