<svg width="24" height="24" viewBox="0 0 24 24" fill="none" xmlns="http://www.w3.org/2000/svg">
<rect width="24" height="24" rx="12" fill="#F7F7F7"/>
<g clip-path="url(#clip0_7611_795679)">
<path d="M11.9275 6.72559C12.4734 7.64306 13.0067 8.54137 13.5426 9.43811C13.5621 9.46505 13.5727 9.49735 13.5731 9.53058C13.5735 9.56381 13.5636 9.59635 13.5448 9.62374C12.6967 11.0824 11.8506 12.5421 11.0065 14.0029C10.9584 14.0861 10.8984 14.0987 10.8146 14.0987C9.80462 14.0968 8.79455 14.0968 7.78438 14.0987C7.64366 14.0987 7.63895 14.0713 7.70586 13.957C8.72608 12.2117 9.7442 10.4655 10.7602 8.71852L11.8332 6.87698C11.859 6.83269 11.8876 6.78966 11.9275 6.72559Z" fill="#1473BA"/>
<path d="M3.95312 14.0924L8.252 6.7168C8.42758 7.01079 8.59752 7.29222 8.76399 7.57428C9.1271 8.18488 9.48644 8.79705 9.85395 9.40577C9.90609 9.49214 9.90923 9.55402 9.85646 9.64448C9.01884 11.0788 8.1853 12.5154 7.35585 13.9542C7.29554 14.0585 7.23021 14.0958 7.10959 14.0955C6.06864 14.0902 5.02769 14.0924 3.95312 14.0924Z" fill="#1473BA"/>
<path d="M15.6074 6.72559L19.9326 14.0877H14.714C14.8145 13.9089 14.9075 13.7422 15.0018 13.5773C15.0332 13.521 15.0797 13.5459 15.1274 13.5575C16.3898 13.8568 17.5655 12.9651 17.5953 11.6729C17.6076 11.1411 17.4383 10.6631 17.046 10.2855C16.9643 10.2073 16.9367 10.1404 17.0146 10.0531C17.1879 9.85806 17.0623 9.71515 16.9257 9.5603C16.8663 9.66646 16.8028 9.76572 16.7538 9.87125C16.7102 9.96548 16.6687 9.97113 16.5767 9.92276C15.8857 9.55904 15.1987 9.57003 14.5397 9.99249C13.3185 10.7749 13.3433 12.57 14.5834 13.325C14.7012 13.3967 14.7191 13.446 14.643 13.5565C14.5249 13.728 14.4791 13.9862 14.3101 14.0732C14.1477 14.1565 13.9112 14.0961 13.7073 14.0961C12.9641 14.0961 12.221 14.0961 11.4772 14.098C11.3581 14.098 11.3267 14.0804 11.3949 13.9633C12.7859 11.5749 14.1741 9.18569 15.5593 6.79563C15.5697 6.77804 15.5825 6.76171 15.6074 6.72559Z" fill="#1473BA"/>
<path d="M15.6078 9.92286C15.9471 9.92193 16.2791 10.0217 16.5616 10.2096C16.8442 10.3975 17.0646 10.6649 17.195 10.9782C17.3254 11.2914 17.3599 11.6363 17.2941 11.9692C17.2283 12.302 17.0652 12.6079 16.8255 12.848C16.5857 13.0881 16.2801 13.2516 15.9473 13.3179C15.6145 13.3841 15.2696 13.3502 14.9561 13.2202C14.6427 13.0903 14.3749 12.8703 14.1866 12.588C13.9983 12.3058 13.898 11.974 13.8984 11.6347C13.8977 11.4099 13.9413 11.1871 14.0269 10.9792C14.1125 10.7714 14.2383 10.5825 14.3972 10.4234C14.5561 10.2643 14.7448 10.1382 14.9525 10.0523C15.1603 9.96639 15.383 9.9224 15.6078 9.92286ZM16.4138 11.6293C16.4024 11.614 16.3903 11.5992 16.3774 11.5851C16.1409 11.3479 15.9028 11.1139 15.6681 10.8739C15.6031 10.8074 15.5701 10.8576 15.5296 10.8978C15.3069 11.1177 15.0855 11.341 14.8599 11.559C14.7999 11.6171 14.7861 11.6551 14.8536 11.7201C15.0795 11.9381 15.3006 12.1598 15.5199 12.3854C15.5742 12.4406 15.6097 12.4529 15.671 12.3916C15.8999 12.162 16.1343 11.9381 16.3658 11.7113C16.3874 11.6912 16.4151 11.6721 16.4138 11.6303V11.6293Z" fill="#FCEE22"/>
<path d="M8.7724 16.4058C8.90841 16.0883 9.02965 15.8119 9.14399 15.533C9.1754 15.4538 9.21718 15.4208 9.30575 15.4255C9.45684 15.4334 9.60887 15.4306 9.76027 15.4255C9.83534 15.4233 9.86172 15.451 9.86141 15.5251C9.85953 15.9962 9.86141 16.4674 9.86141 16.9366C9.86141 16.9784 9.86486 17.0274 9.80518 17.029C9.69022 17.0318 9.57494 17.0328 9.45967 17.029C9.38679 17.0265 9.40407 16.9662 9.40407 16.9222C9.40407 16.6609 9.40407 16.3995 9.37737 16.1275C9.33214 16.2274 9.28628 16.327 9.24168 16.4272C9.18859 16.5462 9.13582 16.6656 9.08462 16.7853C8.97877 17.0331 8.9794 17.0277 8.71617 17.034C8.61126 17.0365 8.55912 17.0051 8.51829 16.9062C8.41096 16.6414 8.28609 16.3841 8.1445 16.136V16.7758C8.1445 17.0315 8.1445 17.0211 7.89321 17.0353C7.73616 17.0441 7.69093 17.0007 7.69564 16.8399C7.70852 16.4218 7.70569 16.0032 7.69564 15.5835C7.69281 15.4488 7.73553 15.4101 7.86306 15.423C7.96742 15.435 8.07281 15.435 8.17717 15.423C8.31851 15.4045 8.37914 15.4701 8.42845 15.592C8.52802 15.8543 8.64456 16.1093 8.7724 16.4058Z" fill="#1874BB"/>
<path d="M17.5939 16.4227C17.5939 16.1368 17.5986 15.851 17.5917 15.5652C17.5892 15.4574 17.6184 15.4219 17.7306 15.4232C18.0396 15.4263 18.04 15.421 18.04 15.7354C18.04 16.1177 18.0362 16.4996 18.0422 16.8815C18.044 16.9918 18.0258 17.0449 17.8996 17.0329C17.723 17.0166 17.5145 17.0929 17.3766 17.0047C17.2462 16.9214 17.1881 16.7248 17.0992 16.5775C16.9932 16.3928 16.8764 16.2145 16.7493 16.0435C16.7493 16.3055 16.7493 16.5675 16.7493 16.8288C16.7493 17.0543 16.7772 17.0273 16.5483 17.0289C16.2913 17.0289 16.2913 17.0289 16.2913 16.7735C16.2913 16.3705 16.2948 15.9675 16.2891 15.5649C16.2876 15.4574 16.3152 15.4154 16.4286 15.4223C16.6004 15.4326 16.7967 15.3783 16.9393 15.4449C17.0819 15.5115 17.13 15.72 17.222 15.8648C17.3392 16.0498 17.4498 16.2392 17.5635 16.4264L17.5939 16.4227Z" fill="#1874BB"/>
<path d="M12.7744 16.2253C12.7744 15.9949 12.7744 15.7646 12.7744 15.5342C12.7744 15.4821 12.7672 15.4249 12.8482 15.4256C13.1938 15.4293 13.5393 15.4121 13.8817 15.441C14.2394 15.4724 14.3936 15.766 14.2488 16.0984C14.2193 16.1662 14.2127 16.2026 14.2598 16.2708C14.475 16.5808 14.2765 17.0055 13.9058 17.0221C13.5603 17.0378 13.2164 17.0262 12.8715 17.0315C12.7773 17.0331 12.7729 16.9841 12.7735 16.9134C12.7757 16.6851 12.7744 16.4558 12.7744 16.2253ZM13.5421 16.4002V16.398C13.4746 16.398 13.4067 16.4011 13.3395 16.398C13.2349 16.392 13.256 16.4665 13.2563 16.5236C13.2566 16.5808 13.2343 16.6553 13.3386 16.6518C13.4733 16.6477 13.6084 16.6496 13.7434 16.6477C13.8232 16.6477 13.8543 16.5946 13.8531 16.5249C13.8518 16.4552 13.8254 16.4018 13.7444 16.3993C13.6778 16.3993 13.6103 16.4002 13.5421 16.4002ZM13.5132 16.0475C13.5877 16.0503 13.6623 16.0448 13.7356 16.0311C13.806 16.0142 13.8056 15.9642 13.8082 15.9124C13.8113 15.8546 13.7808 15.827 13.724 15.8264C13.5942 15.8264 13.4645 15.8264 13.3348 15.8229C13.2572 15.821 13.2541 15.8703 13.2563 15.9259C13.2585 15.9815 13.2409 16.0478 13.332 16.0475H13.5132Z" fill="#1874BB"/>
<path d="M4.36878 16.0384C4.36878 16.3289 4.3647 16.6195 4.37129 16.9097C4.37349 17.0086 4.34145 17.0315 4.24565 17.0322C3.92212 17.0341 3.92212 17.0381 3.92212 16.7181C3.92212 16.3308 3.92558 15.9438 3.91992 15.5559C3.91992 15.4535 3.94694 15.4177 4.05153 15.4234C4.22366 15.4325 4.41935 15.3785 4.56259 15.4444C4.70582 15.5104 4.75545 15.7183 4.84528 15.8637C4.9615 16.0497 5.07301 16.2388 5.21467 16.4266V15.7525C5.21467 15.3935 5.21467 15.3957 5.56899 15.4237C5.63558 15.429 5.66102 15.4485 5.6607 15.5154C5.65903 15.9916 5.65903 16.4677 5.6607 16.9439C5.6607 17.0158 5.62772 17.0312 5.5649 17.0303C5.40282 17.0281 5.24043 17.0256 5.07835 17.0303C5.00077 17.0331 4.96841 16.9913 4.9348 16.9342C4.75984 16.6342 4.5808 16.3339 4.40145 16.0333L4.36878 16.0384Z" fill="#1473BA"/>
<path d="M19.9168 15.504C19.69 15.7057 19.4673 15.9124 19.2355 16.1068C19.1318 16.1941 19.1633 16.2453 19.2421 16.3266C19.4673 16.5581 19.6818 16.7978 19.8954 17.0283H19.3775C19.3225 17.0283 19.2968 16.9837 19.2644 16.952C19.1036 16.795 18.945 16.6357 18.7844 16.4784C18.7562 16.4504 18.7285 16.4049 18.6805 16.4309C18.6418 16.452 18.6616 16.4972 18.661 16.5314C18.6588 16.6514 18.661 16.7717 18.661 16.892C18.661 16.9181 18.6714 16.953 18.6585 16.9693C18.5555 17.099 18.4122 17.0007 18.2897 17.028C18.2269 17.0425 18.1823 17.0233 18.1829 16.9394C18.1858 16.4636 18.1631 15.9862 18.1949 15.5125C18.2074 15.3259 18.4147 15.4604 18.5306 15.4283C18.5935 15.4111 18.6689 15.4085 18.6626 15.5204C18.6553 15.646 18.6588 15.7716 18.6626 15.8973C18.6626 15.9356 18.6378 15.989 18.6836 16.0104C18.7295 16.0317 18.7552 15.9789 18.7822 15.9516C18.922 15.8103 19.0649 15.6711 19.1956 15.5226C19.2228 15.4881 19.2581 15.461 19.2984 15.4437C19.3388 15.4264 19.3828 15.4195 19.4265 15.4236C19.571 15.4312 19.7158 15.4255 19.8606 15.4255L19.9168 15.504Z" fill="#1473BA"/>
<path d="M7.31747 17.0333C7.17707 17.0701 7.05959 17.0236 7.02535 16.8395C7.0131 16.7726 6.96536 16.7645 6.90851 16.7654C6.79895 16.7717 6.68911 16.7711 6.57964 16.7635C6.41944 16.7459 6.30354 16.7789 6.27275 16.9583C6.26176 17.0227 6.21464 17.0308 6.15653 17.0346C5.73092 17.06 5.73092 17.0613 5.88515 16.6684C6.03152 16.2949 6.18041 15.9236 6.32332 15.5467C6.35474 15.4638 6.39086 15.4249 6.48886 15.4242C6.95123 15.4217 6.95123 15.4183 7.12556 15.8473C7.2647 16.1897 7.40008 16.5342 7.54489 16.8744C7.59734 16.9975 7.592 17.0572 7.43903 17.0315C7.39852 17.0294 7.35791 17.03 7.31747 17.0333ZM6.84631 16.3888C6.80043 16.2358 6.74104 16.0872 6.66884 15.9447C6.63932 16.0163 6.61953 16.0631 6.60068 16.1102C6.47096 16.4369 6.47096 16.4372 6.84506 16.3888H6.84631Z" fill="#1874BB"/>
<path d="M12.2423 17.0307C12.1289 17.0307 12.0495 17.0209 11.9728 17.0325C11.8107 17.057 11.7011 17.0131 11.6678 16.8391C11.6559 16.7762 11.6088 16.7618 11.5497 16.7624C11.3927 16.7646 11.2356 16.7678 11.0786 16.7624C10.996 16.7593 10.9633 16.8039 10.9498 16.8686C10.9209 17.0084 10.838 17.0501 10.7019 17.0338C10.6043 17.0219 10.5044 17.0316 10.3828 17.0316C10.4924 16.7489 10.5948 16.4844 10.6988 16.2193C10.7861 15.996 10.8747 15.7733 10.9627 15.55C10.9688 15.5301 10.9761 15.5106 10.9846 15.4916C11.0324 15.4021 11.5623 15.3936 11.6144 15.4822C11.6319 15.5143 11.6469 15.5477 11.6593 15.582L12.2423 17.0307ZM11.132 16.3902C11.2538 16.4031 11.3939 16.4417 11.4593 16.3795C11.5246 16.3173 11.4128 16.2065 11.3864 16.1141C11.3637 16.05 11.3377 15.9871 11.3085 15.9257C11.246 16.0906 11.1913 16.2351 11.132 16.3902Z" fill="#1874BB"/>
<path d="M15.8976 17.0317C15.7619 17.0657 15.6507 17.0173 15.6174 16.8433C15.6052 16.7789 15.5609 16.7635 15.5018 16.7644C15.4026 16.7666 15.303 16.7707 15.204 16.7644C15.0395 16.7525 14.8899 16.7544 14.8601 16.9686C14.8532 17.0189 14.8139 17.0283 14.7678 17.0339C14.3355 17.0886 14.3195 17.0694 14.4734 16.6752C14.6176 16.3065 14.7652 15.939 14.9044 15.5684C14.9421 15.4679 14.987 15.4145 15.1048 15.4261C15.249 15.4402 15.4296 15.3859 15.5307 15.4547C15.6319 15.5235 15.6564 15.7075 15.711 15.8423C15.8511 16.1846 15.9896 16.5276 16.1291 16.8703C16.1951 17.033 16.1951 17.0327 16.0182 17.0333L15.8976 17.0317ZM15.2606 15.922L15.0784 16.4014C15.1817 16.4014 15.2688 16.3992 15.3558 16.4014C15.4205 16.4032 15.4428 16.3775 15.4186 16.3178C15.3702 16.1934 15.3196 16.0703 15.2606 15.922Z" fill="#1874BB"/>
</g>
<defs>
<clipPath id="clip0_7611_795679">
<rect width="16" height="10.3359" fill="white" transform="translate(3.92969 6.7207)"/>
</clipPath>
</defs>
</svg>
