<svg width="24" height="24" viewBox="0 0 24 24" fill="none" xmlns="http://www.w3.org/2000/svg">
<rect width="24" height="24" rx="12" fill="#F7F7F7"/>
<g clip-path="url(#clip0_7611_795687)">
<mask id="mask0_7611_795687" style="mask-type:luminance" maskUnits="userSpaceOnUse" x="4" y="14" width="17" height="4">
<path d="M12.1521 14.7041C7.77248 14.7041 4.23375 15.351 4.23242 16.1547C4.23109 16.9623 7.80835 17.6238 12.2251 17.6305C16.6366 17.6398 20.2178 16.9875 20.2191 16.1812C20.2218 15.3736 16.6432 14.7094 12.2278 14.7041H12.1521Z" fill="white"/>
</mask>
<g mask="url(#mask0_7611_795687)">
<path d="M20.2246 14.7037L20.2193 17.6646L4.22461 17.6393L4.22992 14.6758L20.2246 14.7037Z" fill="url(#paint0_linear_7611_795687)"/>
</g>
<mask id="mask1_7611_795687" style="mask-type:luminance" maskUnits="userSpaceOnUse" x="6" y="14" width="13" height="3">
<path d="M12.1363 14.6875C9.72132 14.6875 7.56673 14.8894 6.13477 15.2109L6.27159 16.2191L18.1431 16.239L18.2825 15.2321C16.8373 14.9027 14.6522 14.6928 12.2093 14.6875H12.1376H12.1363Z" fill="white"/>
</mask>
<g mask="url(#mask1_7611_795687)">
<path d="M6.13333 14.6678L6.13086 16.2393L18.2813 16.2583L18.2837 14.6869L6.13333 14.6678Z" fill="url(#paint1_linear_7611_795687)"/>
</g>
<mask id="mask2_7611_795687" style="mask-type:luminance" maskUnits="userSpaceOnUse" x="6" y="14" width="13" height="3">
<path d="M12.1363 14.6875C9.72132 14.6875 7.56673 14.8894 6.13477 15.2109L6.27159 16.2191L18.1431 16.239L18.2825 15.2321C16.8373 14.9027 14.6522 14.6928 12.2093 14.6875H12.1376H12.1363Z" fill="white"/>
</mask>
<g mask="url(#mask2_7611_795687)">
<path d="M6.13333 14.6678L6.13086 16.2393L18.2813 16.2583L18.2837 14.6869L6.13333 14.6678Z" fill="url(#paint2_linear_7611_795687)"/>
</g>
<mask id="mask3_7611_795687" style="mask-type:luminance" maskUnits="userSpaceOnUse" x="6" y="9" width="12" height="7">
<path d="M6.79625 9.88371C6.79094 12.9057 9.23776 15.3645 12.2624 15.3672C14.328 15.3711 16.1293 14.2288 17.0644 12.5391C17.1441 12.3199 17.1893 12.0821 17.1893 11.8364C17.1919 10.7139 16.2833 9.80401 15.1609 9.80135C14.6003 9.7987 14.0929 10.0258 13.7236 10.3925L12.4829 11.6172C11.8865 12.2508 11.039 12.6427 10.0999 12.6427C8.29463 12.6374 6.83212 11.1709 6.83477 9.36432C6.83477 9.31783 6.83477 9.26337 6.83876 9.21289C6.81086 9.43207 6.79625 9.65656 6.79492 9.88371" fill="white"/>
</mask>
<g mask="url(#mask3_7611_795687)">
<path d="M4.85547 14.6856L7.94787 5.94238L19.1286 9.89822L16.0349 18.6401L4.85547 14.6856Z" fill="url(#paint3_linear_7611_795687)"/>
</g>
<mask id="mask4_7611_795687" style="mask-type:luminance" maskUnits="userSpaceOnUse" x="7" y="4" width="11" height="7">
<path d="M12.2694 4.41797C10.2304 4.41797 8.45309 5.53246 7.50996 7.18759C7.39838 7.43865 7.33594 7.71495 7.33594 8.00851C7.33329 9.12965 8.24188 10.0396 9.36434 10.0422C9.92357 10.0449 10.4323 9.81773 10.8016 9.45244L12.0436 8.22769C12.6414 7.59539 13.4862 7.20087 14.424 7.2022C16.2306 7.20619 17.6931 8.67402 17.6891 10.4793C17.6891 10.5483 17.6865 10.6294 17.6825 10.7064C17.7223 10.4421 17.7436 10.1751 17.7436 9.90275C17.7489 6.87808 15.3034 4.42328 12.2787 4.41797H12.2694Z" fill="white"/>
</mask>
<g mask="url(#mask4_7611_795687)">
<path d="M17.7502 4.41797H7.33594V10.7064H17.7502V4.41797Z" fill="url(#paint4_linear_7611_795687)"/>
</g>
<mask id="mask5_7611_795687" style="mask-type:luminance" maskUnits="userSpaceOnUse" x="6" y="7" width="7" height="6">
<path d="M6.83993 9.21324C6.83727 9.26505 6.83595 9.31818 6.83595 9.36467C6.83196 11.1712 8.29448 12.6377 10.101 12.6431C10.9499 12.6431 11.7269 12.3189 12.3101 11.7876L10.3308 9.80303C10.0426 9.95712 9.71581 10.0448 9.36646 10.0421C8.244 10.0395 7.33541 9.13088 7.33806 8.00842C7.33806 7.71619 7.4005 7.43856 7.51208 7.1875C7.16405 7.79722 6.92893 8.48265 6.83993 9.21059" fill="white"/>
</mask>
<g mask="url(#mask5_7611_795687)">
<path d="M12.0113 5.94995L5.59766 7.48145L7.12544 13.8796L13.5391 12.3481L12.0113 5.94995Z" fill="url(#paint5_linear_7611_795687)"/>
</g>
<mask id="mask6_7611_795687" style="mask-type:luminance" maskUnits="userSpaceOnUse" x="12" y="7" width="6" height="6">
<path d="M14.3946 7.20215C13.575 7.20879 12.8231 7.51697 12.252 8.02307L14.2418 10.0183C14.5181 9.88144 14.829 9.80041 15.1584 9.80041C16.2808 9.80307 17.1894 10.7117 17.1868 11.8355C17.1868 12.0812 17.1416 12.319 17.0619 12.5382C17.3701 11.9789 17.584 11.3599 17.6809 10.7064C17.6849 10.6293 17.6876 10.5483 17.6876 10.4792C17.6929 8.67662 16.2383 7.21543 14.4397 7.20215H14.3946Z" fill="white"/>
</mask>
<g mask="url(#mask6_7611_795687)">
<path d="M17.6916 7.2041H12.252V12.5374H17.6916V7.2041Z" fill="url(#paint6_linear_7611_795687)"/>
</g>
</g>
<defs>
<linearGradient id="paint0_linear_7611_795687" x1="12.3131" y1="14.6512" x2="12.308" y2="17.5949" gradientUnits="userSpaceOnUse">
<stop stop-color="#20376A"/>
<stop offset="0.26" stop-color="#1D3C73"/>
<stop offset="0.69" stop-color="#174A8B"/>
<stop offset="1" stop-color="#1257A2"/>
</linearGradient>
<linearGradient id="paint1_linear_7611_795687" x1="6.09304" y1="15.5034" x2="18.5066" y2="15.525" gradientUnits="userSpaceOnUse">
<stop stop-color="#686D94"/>
<stop offset="0.06" stop-color="#70759A"/>
<stop offset="0.17" stop-color="#898DAB"/>
<stop offset="0.3" stop-color="#B1B3C7"/>
<stop offset="0.46" stop-color="#E7E8EE"/>
<stop offset="0.52" stop-color="white"/>
<stop offset="0.59" stop-color="#E0E1E9"/>
<stop offset="0.72" stop-color="#ADAFC4"/>
<stop offset="0.84" stop-color="#878BAA"/>
<stop offset="0.94" stop-color="#707599"/>
<stop offset="1" stop-color="#686D94"/>
</linearGradient>
<linearGradient id="paint2_linear_7611_795687" x1="6.32634" y1="15.6078" x2="18.4644" y2="15.629" gradientUnits="userSpaceOnUse">
<stop stop-color="#5F6590"/>
<stop offset="0.17" stop-color="#8F93B1"/>
<stop offset="0.52" stop-color="white"/>
<stop offset="1" stop-color="#5F6590"/>
</linearGradient>
<linearGradient id="paint3_linear_7611_795687" x1="10.5982" y1="15.4689" x2="12.6514" y2="9.66437" gradientUnits="userSpaceOnUse">
<stop stop-color="#0C5DAB"/>
<stop offset="0.19" stop-color="#0C5AA6"/>
<stop offset="0.41" stop-color="#0E5199"/>
<stop offset="0.63" stop-color="#114483"/>
<stop offset="0.86" stop-color="#153164"/>
<stop offset="1" stop-color="#19234D"/>
</linearGradient>
<linearGradient id="paint4_linear_7611_795687" x1="12.5122" y1="5.4518" x2="12.5122" y2="9.81561" gradientUnits="userSpaceOnUse">
<stop stop-color="#EC2227"/>
<stop offset="0.16" stop-color="#E72126"/>
<stop offset="0.34" stop-color="#D81F23"/>
<stop offset="0.55" stop-color="#C01B1F"/>
<stop offset="0.76" stop-color="#9F1618"/>
<stop offset="0.98" stop-color="#750F10"/>
<stop offset="1" stop-color="#700F10"/>
</linearGradient>
<linearGradient id="paint5_linear_7611_795687" x1="9.05288" y1="7.95317" x2="10.1167" y2="12.4048" gradientUnits="userSpaceOnUse">
<stop stop-color="#0C5DAB"/>
<stop offset="0.17" stop-color="#0C58A4"/>
<stop offset="0.42" stop-color="#0F4C90"/>
<stop offset="0.72" stop-color="#143970"/>
<stop offset="1" stop-color="#19234D"/>
</linearGradient>
<linearGradient id="paint6_linear_7611_795687" x1="12.82" y1="9.83382" x2="17.4798" y2="9.83382" gradientUnits="userSpaceOnUse">
<stop stop-color="#700F10"/>
<stop offset="0.7" stop-color="#C51F21"/>
<stop offset="1" stop-color="#EB2729"/>
</linearGradient>
<clipPath id="clip0_7611_795687">
<rect width="16" height="14.2214" fill="white" transform="translate(4.22461 4.41895)"/>
</clipPath>
</defs>
</svg>
