<svg width="24" height="24" viewBox="0 0 24 24" fill="none" xmlns="http://www.w3.org/2000/svg">
<rect width="24" height="24" rx="12" fill="#F7F7F7"/>
<g clip-path="url(#clip0_7611_795433)">
<path d="M21.7604 12.5831C21.8353 12.6282 21.9146 12.6703 21.9878 12.7207C22.3724 12.9867 22.5116 13.3775 22.4763 13.8175C22.4397 14.2859 22.152 14.5902 21.7203 14.7549C21.4 14.8768 21.0649 14.9232 20.7229 14.9229C20.004 14.9229 19.2846 14.92 18.5665 14.9259C18.4392 14.9259 18.4099 14.8866 18.4102 14.7655C18.414 13.3687 18.414 11.9718 18.4102 10.575C18.4102 10.4586 18.4313 10.4105 18.564 10.4121C19.4002 10.4187 20.2366 10.4121 21.073 10.4165C21.4339 10.4178 21.7585 10.5267 22.0215 10.7834C22.4516 11.2038 22.4421 12.1462 21.8399 12.5082C21.8117 12.5253 21.7743 12.5367 21.7604 12.5831ZM19.6314 12.6618C19.6314 13.1409 19.6314 13.6202 19.6314 14.1003C19.6314 14.1741 19.6314 14.2341 19.7348 14.2311C20.0238 14.2224 20.3134 14.2436 20.6032 14.2157C20.7342 14.2038 20.8615 14.1661 20.9777 14.1046C21.1745 13.9993 21.2516 13.8243 21.2518 13.6104C21.2521 13.3965 21.1851 13.2199 20.9878 13.1108C20.829 13.0228 20.6561 12.9943 20.4781 12.9919C20.2838 12.9894 20.0895 12.9873 19.8952 12.9919C19.7904 12.9946 19.7551 12.9742 19.8021 12.863C19.8835 12.673 19.9549 12.4762 20.0219 12.2797C20.0545 12.1844 20.1017 12.144 20.207 12.1492C20.4054 12.1595 20.6046 12.1568 20.7978 12.0949C20.9199 12.0555 21.0279 11.9879 21.0659 11.8653C21.1604 11.5515 21.1332 11.158 20.6361 11.1129C20.347 11.0858 20.0577 11.1091 19.769 11.1007C19.6645 11.0977 19.6279 11.1279 19.629 11.238C19.6344 11.7127 19.6314 12.1872 19.6314 12.6618Z" fill="#048C4F"/>
<path d="M11.3418 10.3018C12.1397 10.3335 12.9272 10.6956 13.4353 11.5307C13.9875 12.4388 13.828 13.5348 13.0684 14.2917C11.9996 15.3567 10.1442 15.2897 9.16176 14.1509C8.23335 13.0745 8.49714 11.4729 9.72842 10.7138C10.1738 10.4385 10.6585 10.3015 11.3418 10.3018ZM12.5421 12.6706C12.5554 12.2363 12.4157 11.8602 12.1017 11.5597C11.8203 11.2908 11.4837 11.1165 11.0872 11.167C10.4918 11.2427 10.0747 11.5798 9.89695 12.1533C9.71078 12.7539 9.79545 13.3231 10.2598 13.7817C10.5494 14.0681 10.9041 14.2415 11.3261 14.1677C12.0748 14.0377 12.5432 13.452 12.5421 12.6706Z" fill="#048C4F"/>
<path d="M17.9352 11.0386C17.9352 11.1517 17.9352 11.2647 17.9352 11.3778C17.9352 11.4082 17.9368 11.4533 17.9192 11.4663C17.8839 11.4918 17.8551 11.4498 17.8263 11.4313C17.378 11.1439 16.8955 11.0684 16.3834 11.2066C15.7161 11.3865 15.2191 12.0398 15.2373 12.6993C15.2558 13.3822 15.788 14.0078 16.4857 14.1535C16.7115 14.2039 16.9452 14.2087 17.1729 14.1675C17.4006 14.1264 17.6178 14.0401 17.8117 13.9139C17.8437 13.8938 17.873 13.8441 17.9162 13.8721C17.9468 13.8921 17.9333 13.9388 17.9333 13.9741C17.9333 14.1956 17.9333 14.417 17.9346 14.6385C17.9346 14.7031 17.9202 14.7471 17.8554 14.778C16.5962 15.3732 14.9274 14.9468 14.2595 13.6804C13.7919 12.794 13.9881 11.7108 14.7456 11.0174C15.563 10.2699 16.8176 10.0767 17.8253 10.5397C17.9086 10.578 17.9425 10.623 17.9368 10.7132C17.9303 10.8214 17.9352 10.9303 17.9352 11.0386Z" fill="#048C4F"/>
<path d="M7.75086 13.361C7.71232 13.6582 7.58803 13.9253 7.43551 14.1752C6.82923 15.1585 5.93393 15.6522 4.78814 15.665C4.22261 15.6751 3.66893 15.5023 3.20949 15.1724C2.77934 14.8657 2.71041 14.3853 3.0358 14.042C3.19863 13.8696 3.40923 13.7738 3.63665 13.7206C4.12732 13.6055 4.615 13.649 5.09888 13.7649C5.43675 13.8463 5.76866 13.9467 6.11847 13.9755C6.76437 14.0298 7.32858 13.8802 7.75602 13.3594L7.75086 13.361Z" fill="#E29F26"/>
<path d="M1.9375 11.9298C2.02466 11.5676 2.18286 11.2262 2.40293 10.9256C3.02114 10.0864 3.85864 9.65949 4.8994 9.6641C5.46439 9.66166 6.01613 9.83515 6.47806 10.1605C6.81864 10.4002 6.93453 10.7657 6.78174 11.0798C6.68214 11.2847 6.51035 11.4128 6.30627 11.5034C5.94858 11.6627 5.57353 11.6747 5.18979 11.6478C4.83129 11.6223 4.48961 11.5181 4.14387 11.4307C3.74547 11.3311 3.34192 11.2928 2.93484 11.3618C2.58762 11.4153 2.26984 11.588 2.03601 11.8503C2.01484 11.8739 1.99313 11.8967 1.97061 11.919C1.96464 11.9247 1.95568 11.9244 1.9375 11.9298Z" fill="#E29F26"/>
<path d="M6.97059 10.5615C7.21117 10.7948 7.40748 11.0697 7.55 11.373C7.72016 11.7316 7.83225 12.1058 7.83469 12.5059C7.83849 13.2031 7.38012 13.7272 6.68944 13.8325C6.44762 13.8654 6.20244 13.8648 5.96077 13.8309C5.88234 13.8214 5.8552 13.7918 5.85547 13.7112C5.85837 13.1013 5.85837 12.4915 5.85547 11.8819C5.85547 11.8043 5.87691 11.7709 5.95588 11.7568C6.12999 11.7286 6.29836 11.6723 6.45442 11.5902C6.88701 11.3535 7.03166 11.0745 6.97059 10.5615Z" fill="#E19F26"/>
<path d="M2.72458 14.7427C2.37396 14.4103 2.11934 13.9897 1.98749 13.5249C1.89658 13.2128 1.82466 12.8955 1.88627 12.5641C1.99699 11.9787 2.40136 11.5903 2.99732 11.498C3.247 11.4597 3.49124 11.469 3.7401 11.498C3.82966 11.5083 3.84703 11.5488 3.84676 11.6299C3.84386 12.2355 3.84386 12.8411 3.84676 13.4467C3.84676 13.5344 3.81419 13.5607 3.73549 13.5762C3.47089 13.628 3.21986 13.7179 3.01415 13.8986C2.7585 14.1223 2.65185 14.3991 2.72458 14.7427Z" fill="#E29F26"/>
<path d="M7.75421 13.3594L7.75063 13.3644H7.75527C7.75347 13.3639 7.75171 13.3633 7.75 13.3625C7.75129 13.3613 7.75271 13.3603 7.75421 13.3594Z" fill="#E29F26"/>
</g>
<defs>
<clipPath id="clip0_7611_795433">
<rect width="20.6174" height="6" fill="white" transform="translate(1.86328 9.66406)"/>
</clipPath>
</defs>
</svg>
