<svg width="24" height="24" viewBox="0 0 24 24" fill="none" xmlns="http://www.w3.org/2000/svg">
<rect width="24" height="24" rx="12" fill="#F7F7F7"/>
<g clip-path="url(#clip0_7611_795695)">
<path d="M13.8604 8.66C13.8604 8.66 6.19275 15.6825 6.59162 18.0205C6.9523 20.1506 9.70619 19.9469 9.70619 19.9469C9.70619 19.9469 7.94523 20.2058 7.15597 19.8663C6.45583 19.565 6.01453 18.8182 5.45018 18.1945C4.84763 17.5283 4.27054 17.0446 4.10506 16.3317C2.97634 11.4478 11.1489 4.97266 11.1489 4.97266L13.8561 8.66H13.8604Z" fill="#405FAB"/>
<path d="M9.13867 15.3133C9.13867 15.3133 16.8063 8.29081 16.4074 5.94856C16.0467 3.82272 13.2928 4.02215 13.2928 4.02215C13.2928 4.02215 15.0538 3.76331 15.8431 4.10277C16.5432 4.40404 16.9845 5.15084 17.5489 5.77459C18.1514 6.44078 18.7285 6.9245 18.894 7.63736C20.0269 12.5255 11.8501 19.0007 11.8501 19.0007L9.14292 15.3133H9.13867Z" fill="url(#paint0_radial_7611_795695)"/>
</g>
<defs>
<radialGradient id="paint0_radial_7611_795695" cx="0" cy="0" r="1" gradientUnits="userSpaceOnUse" gradientTransform="translate(13.348 14.261) scale(6.36917 6.36905)">
<stop stop-color="#F7EE54"/>
<stop offset="0.56" stop-color="#F16723"/>
</radialGradient>
<clipPath id="clip0_7611_795695">
<rect width="15" height="16.1115" fill="white" transform="translate(4 3.92871)"/>
</clipPath>
</defs>
</svg>
