<svg width="24" height="24" viewBox="0 0 24 24" fill="none" xmlns="http://www.w3.org/2000/svg">
<rect width="24" height="24" rx="12" fill="#F7F7F7"/>
<g clip-path="url(#clip0_7611_795897)">
<path fill-rule="evenodd" clip-rule="evenodd" d="M19.2337 10.6292L12.0665 3.36523L8.48988 6.98952L4.44922 11.005C5.52037 10.0488 8.46464 9.74453 9.35353 9.6534V9.6576C12.7787 9.2398 16.6062 9.59451 19.2337 10.6292Z" fill="url(#paint0_linear_7611_795897)"/>
<path fill-rule="evenodd" clip-rule="evenodd" d="M9.35324 13.8146V9.65332C8.29751 9.76128 4.33256 10.1707 4.06898 11.6204C3.8124 13.0393 8.38724 13.7052 9.35324 13.8146Z" fill="url(#paint1_linear_7611_795897)"/>
<path fill-rule="evenodd" clip-rule="evenodd" d="M4.88477 13.8328L12.0534 21.0968L15.6299 17.4725L19.6706 13.457C18.5995 14.4132 15.6552 14.7175 14.7663 14.8072V14.8044C11.3411 15.2222 7.51358 14.8675 4.88617 13.8328H4.88477Z" fill="url(#paint2_linear_7611_795897)"/>
<path fill-rule="evenodd" clip-rule="evenodd" d="M14.7656 10.6455V14.8068C15.8228 14.6988 19.7877 14.2894 20.0499 12.8411C20.3065 11.4222 15.7316 10.7563 14.7656 10.6469V10.6455Z" fill="url(#paint3_linear_7611_795897)"/>
</g>
<defs>
<linearGradient id="paint0_linear_7611_795897" x1="7.87999" y1="10.8087" x2="15.4692" y2="7.0863" gradientUnits="userSpaceOnUse">
<stop stop-color="#1287B7"/>
<stop offset="1" stop-color="#1EA9E1"/>
</linearGradient>
<linearGradient id="paint1_linear_7611_795897" x1="10.2127" y1="14.2899" x2="7.25297" y2="11.3779" gradientUnits="userSpaceOnUse">
<stop stop-color="#1287B7"/>
<stop offset="1" stop-color="#1EA9E1"/>
</linearGradient>
<linearGradient id="paint2_linear_7611_795897" x1="4.88477" y1="17.2762" x2="19.6692" y2="17.2762" gradientUnits="userSpaceOnUse">
<stop stop-color="#FFD953"/>
<stop offset="1" stop-color="#F6B61E"/>
</linearGradient>
<linearGradient id="paint3_linear_7611_795897" x1="14.7656" y1="12.7261" x2="20.0597" y2="12.7261" gradientUnits="userSpaceOnUse">
<stop stop-color="#FFD953"/>
<stop offset="1" stop-color="#F6B61E"/>
</linearGradient>
<clipPath id="clip0_7611_795897">
<rect width="16" height="17.7302" fill="white" transform="translate(4.05859 3.36523)"/>
</clipPath>
</defs>
</svg>
