<svg width="24" height="24" viewBox="0 0 24 24" fill="none" xmlns="http://www.w3.org/2000/svg">
<circle cx="12" cy="12" r="12" fill="#0669BD"/>
<g clip-path="url(#clip0_7619_490423)">
<path d="M4.58695 10.3566C4.40282 10.2029 4.15812 10.1279 3.84612 10.1279C3.77881 10.1279 3.71824 10.1317 3.66151 10.136C3.60478 10.1403 3.54806 10.149 3.49517 10.1565C3.39244 10.1771 3.29155 10.2079 3.19375 10.2488C3.01879 10.3258 2.86143 10.4458 2.73319 10.5999C2.62386 10.7407 2.5503 10.9119 2.52022 11.0956C2.52022 11.0956 2.51012 11.1452 2.50291 11.2035C2.4991 11.2458 2.49781 11.2883 2.49907 11.3308C2.49907 11.5764 2.57727 11.7598 2.73367 11.881C2.88991 12.0018 3.10913 12.1021 3.38941 12.1814C3.51997 12.2232 3.64837 12.2731 3.77401 12.3308C3.80058 12.3465 3.82306 12.3697 3.83924 12.398C3.85543 12.4264 3.86475 12.459 3.86631 12.4926V12.5466C3.8341 12.6922 3.70622 12.7683 3.48652 12.7683C3.39594 12.7693 3.30711 12.7402 3.23124 12.6847C3.19339 12.6567 3.16266 12.6182 3.1421 12.5729C3.12153 12.5276 3.11183 12.4771 3.11394 12.4263H2.2611C2.25213 12.4656 2.24856 12.5061 2.25052 12.5466C2.24797 12.6709 2.27021 12.7942 2.31563 12.9076C2.36105 13.021 2.42848 13.1216 2.51301 13.2019C2.70819 13.401 2.97356 13.5024 3.31105 13.5024C3.63607 13.5101 3.95693 13.4194 4.23985 13.2397C4.50907 13.0687 4.6754 12.7893 4.73934 12.4047L4.74992 12.217C4.75241 12.1212 4.73513 12.026 4.69944 11.9389C4.66375 11.8518 4.61061 11.7751 4.54416 11.7148C4.40571 11.5897 4.21052 11.4894 3.96198 11.4187L3.67353 11.3319C3.59021 11.3083 3.51116 11.2687 3.43989 11.2148C3.42036 11.1981 3.40444 11.1767 3.39329 11.1521C3.38214 11.1276 3.37605 11.1005 3.37547 11.073L3.37931 11.0352C3.40047 10.9225 3.49998 10.8642 3.67353 10.8642C3.89323 10.8642 4.00717 10.9473 4.00717 11.1226V11.1398H4.85376V11.0859C4.85376 10.7569 4.7653 10.5104 4.58454 10.355" fill="#EEEEEE"/>
<path d="M10.5752 11.8799C10.364 11.7471 10.1211 11.6918 9.88054 11.7218C9.68958 11.742 9.5063 11.8162 9.34788 11.9376C9.15221 12.0881 9.02818 12.3151 8.97482 12.6199L8.96761 12.7067L8.95703 12.8082C8.95703 13.0342 9.03155 13.2073 9.18106 13.3249C9.34832 13.448 9.54557 13.5096 9.74546 13.5013C9.79353 13.5013 9.8416 13.4975 9.88054 13.4937C9.90558 13.4915 9.93037 13.4866 9.95458 13.4792C10.0032 13.4694 10.0513 13.4568 10.0988 13.4414C10.1344 13.4301 10.1695 13.415 10.205 13.3993C10.2764 13.3652 10.3454 13.325 10.4113 13.279C10.4755 13.2284 10.5339 13.1692 10.5853 13.1027C10.6956 12.9522 10.7669 12.7707 10.7916 12.5778L10.8055 12.4047C10.8055 12.1641 10.7271 11.9904 10.5714 11.8809L10.5752 11.8799ZM10.0772 12.8648C10.0584 12.9092 10.0306 12.948 9.99608 12.9782C9.96151 13.0084 9.92112 13.029 9.87814 13.0385C9.85489 13.045 9.83091 13.0475 9.80699 13.046C9.66565 13.046 9.59402 12.9522 9.59402 12.7628C9.61068 12.6144 9.64529 12.4693 9.6969 12.3313C9.71509 12.2914 9.74067 12.2563 9.77192 12.2284C9.80318 12.2005 9.8394 12.1804 9.87814 12.1695C9.9073 12.1619 9.93714 12.1581 9.96708 12.1582C10.0983 12.1582 10.1656 12.2601 10.1656 12.464C10.1665 12.6031 10.136 12.7402 10.0772 12.8626" fill="#EEEEEE"/>
<path d="M6.57172 11.8188C6.47221 11.7476 6.29818 11.7109 6.05011 11.7109H6.00204C5.90973 11.7109 5.82801 11.7147 5.74965 11.7228C5.333 11.771 5.09855 11.9556 5.04631 12.2768H5.65686C5.67246 12.2235 5.70566 12.1789 5.74965 12.1522C5.79772 12.1231 5.85181 12.109 5.90637 12.1112C6.02992 12.1112 6.09049 12.1522 6.09049 12.2315C6.09049 12.2854 6.05876 12.3258 5.99098 12.3555C5.91263 12.3823 5.83212 12.4004 5.75061 12.4095C5.72897 12.4132 5.70782 12.4175 5.6833 12.4208L5.44918 12.4585L5.28861 12.4925C5.1888 12.5209 5.09479 12.5705 5.0117 12.6387C4.91876 12.7246 4.85592 12.8446 4.8343 12.9774C4.8343 12.985 4.82565 13.0195 4.82469 13.0438C4.82373 13.0681 4.82469 13.0756 4.82469 13.0977C4.82194 13.1502 4.83128 13.2026 4.85183 13.2498C4.87238 13.2971 4.90343 13.3376 4.94199 13.3674C5.04802 13.4509 5.17446 13.4956 5.30399 13.4953H5.3362C5.47942 13.4962 5.62118 13.4629 5.75205 13.3976C5.8245 13.3588 5.89341 13.3122 5.95781 13.2585V13.4866H6.60778L6.61499 13.4127C6.58047 13.3797 6.55664 13.3347 6.5472 13.2849L6.56499 13.1716L6.70296 12.3517C6.7135 12.2831 6.7196 12.2137 6.72123 12.1441C6.72466 12.0794 6.7126 12.0149 6.68631 11.9572C6.66002 11.8996 6.62045 11.8508 6.57172 11.8161V11.8188ZM5.90829 12.9888C5.87821 13.0272 5.84202 13.059 5.80157 13.0826C5.78621 13.091 5.77009 13.0975 5.75349 13.102C5.72353 13.1129 5.69219 13.1182 5.66071 13.1177C5.54725 13.1177 5.48812 13.0675 5.49052 12.9893C5.49154 12.9556 5.50113 12.9229 5.51817 12.8951C5.5352 12.8673 5.55897 12.8455 5.58667 12.8323C5.65451 12.8009 5.72485 12.7767 5.79676 12.7601C5.87107 12.7445 5.94444 12.7238 6.01646 12.698C6.00502 12.804 5.9685 12.9046 5.9107 12.9893" fill="#EEEEEE"/>
<path d="M17.7158 11.8188C17.6163 11.7476 17.4422 11.7109 17.1942 11.7109H17.1461C17.0538 11.7109 16.9721 11.7147 16.8942 11.7228C16.4775 11.771 16.2429 11.9556 16.1904 12.2768H16.8024C16.8182 12.2234 16.8515 12.1788 16.8956 12.1522C16.9433 12.1232 16.9971 12.109 17.0514 12.1112C17.1749 12.1112 17.236 12.1522 17.236 12.2315C17.236 12.2854 17.2043 12.3258 17.1365 12.3555C17.0581 12.3822 16.9776 12.4003 16.8961 12.4095C16.874 12.4132 16.8528 12.4175 16.8283 12.4208L16.5937 12.4585L16.4336 12.4925C16.3338 12.5208 16.2398 12.5704 16.1567 12.6387C16.0637 12.7245 16.0009 12.8445 15.9793 12.9774C15.9793 12.985 15.9702 13.0195 15.9692 13.0438C15.9683 13.0681 15.9692 13.0756 15.9692 13.0977C15.9665 13.1502 15.9758 13.2026 15.9964 13.2498C16.0169 13.2971 16.048 13.3376 16.0865 13.3674C16.1926 13.4508 16.319 13.4955 16.4485 13.4953H16.4812C16.6244 13.4961 16.7662 13.4628 16.8971 13.3976C16.9693 13.3588 17.0381 13.3121 17.1023 13.2585V13.4866H17.7494L17.7566 13.4127C17.7222 13.3796 17.6984 13.3347 17.6888 13.2849L17.7066 13.1716L17.8446 12.3517C17.855 12.2831 17.8611 12.2137 17.8629 12.1441C17.8663 12.0794 17.8542 12.0149 17.828 11.9572C17.8017 11.8996 17.7621 11.8508 17.7134 11.8161L17.7158 11.8188ZM17.0499 12.9888C17.0198 13.0272 16.9836 13.059 16.9432 13.0826C16.9278 13.0909 16.9117 13.0975 16.8951 13.102C16.865 13.1129 16.8335 13.1182 16.8019 13.1177C16.6884 13.1177 16.6293 13.0675 16.6322 12.9893C16.6332 12.9556 16.6429 12.9229 16.6599 12.8951C16.6769 12.8673 16.7007 12.8455 16.7283 12.8323C16.7962 12.8009 16.8665 12.7767 16.9384 12.7601C17.0129 12.7446 17.0864 12.7239 17.1586 12.698C17.1472 12.804 17.1107 12.9046 17.0528 12.9893" fill="#EEEEEE"/>
<path d="M8.58381 11.8913C8.43959 11.7705 8.25017 11.7139 8.00692 11.7139C7.69732 11.7139 7.45262 11.8007 7.27137 11.9776C7.09664 12.144 6.97789 12.3724 6.93485 12.6249C6.93485 12.6249 6.92764 12.6718 6.92331 12.715C6.91899 12.7581 6.91803 12.7997 6.91803 12.7997C6.91684 12.8939 6.93399 12.9872 6.96828 13.0732C7.00257 13.1592 7.05318 13.2358 7.11657 13.2975C7.25166 13.4297 7.44685 13.4933 7.7026 13.4933C7.92567 13.4996 8.1461 13.4381 8.34055 13.3153C8.42771 13.2597 8.50403 13.1851 8.56498 13.0957C8.62593 13.0064 8.67026 12.9043 8.69534 12.7954H8.06557C8.00499 12.9609 7.91269 13.0446 7.78433 13.0446C7.63241 13.0446 7.55357 12.9539 7.55357 12.7689C7.56759 12.6184 7.6023 12.4712 7.65645 12.3326C7.68105 12.2769 7.71981 12.2307 7.76782 12.1998C7.81582 12.1689 7.87093 12.1546 7.92615 12.1589C7.95296 12.1565 7.97991 12.161 8.00491 12.1722C8.02991 12.1833 8.05231 12.2007 8.07037 12.2231C8.08619 12.2415 8.09859 12.2633 8.10684 12.2872C8.11509 12.3111 8.11904 12.3366 8.11845 12.3622L8.11556 12.4032H8.75399L8.75832 12.3094C8.76058 12.2296 8.7463 12.1503 8.7166 12.0777C8.6869 12.0052 8.6426 11.9414 8.58718 11.8913" fill="#EEEEEE"/>
<path d="M19.7729 11.8347C19.6806 11.7532 19.5556 11.7139 19.3965 11.7139C19.1801 11.7139 18.9806 11.8217 18.8032 12.0375L18.8542 11.7139H18.2773L17.9922 13.5009H18.6273L18.7715 12.6109C18.8003 12.4679 18.8354 12.3746 18.8821 12.3277C18.9354 12.2769 19.0046 12.2519 19.0744 12.2581C19.1917 12.2581 19.2522 12.3245 19.2522 12.4642V12.5224L19.2484 12.5764L19.0998 13.5009H19.7286L19.8988 12.4523C19.9114 12.3833 19.9174 12.3129 19.9166 12.2425C19.9166 12.0515 19.8685 11.9161 19.7782 11.8347" fill="#EEEEEE"/>
<path d="M22.1263 11.7078H21.3884L20.8971 12.2294L21.1485 10.6797H20.5163L20.0625 13.4937H20.6937L20.786 12.9473L20.9226 12.8152L21.1586 13.4932H21.9153L21.4317 12.3702L22.1263 11.7078Z" fill="#EEEEEE"/>
<path d="M13.7162 11.826C13.6349 11.7489 13.507 11.7138 13.3436 11.7138C13.1123 11.7138 12.9109 11.819 12.7359 12.031C12.6792 11.8185 12.5263 11.7138 12.2739 11.7138H12.2595C12.1563 11.7165 12.0551 11.7473 11.9648 11.8034C11.8706 11.856 11.7862 11.9283 11.7162 12.0164L11.7643 11.709H11.1874L10.9023 13.4944H11.5316L11.6759 12.6076C11.6907 12.5092 11.7273 12.4165 11.7821 12.3379C11.8053 12.3115 11.833 12.2907 11.8636 12.2766C11.8942 12.2625 11.9269 12.2555 11.96 12.2559C12.0701 12.2559 12.1234 12.318 12.1234 12.4415L12.1124 12.5925L11.9682 13.4944H12.6003L12.7446 12.6076C12.7691 12.4539 12.808 12.3568 12.8575 12.3142C12.9054 12.2759 12.9627 12.2556 13.0215 12.2559C13.0698 12.2498 13.1183 12.2653 13.1566 12.2991C13.1708 12.3183 13.1816 12.3405 13.1882 12.3644C13.1948 12.3882 13.1971 12.4134 13.195 12.4382C13.193 12.4951 13.1871 12.5518 13.1772 12.6076L13.033 13.4944H13.6657L13.8238 12.4571C13.8363 12.3753 13.8424 12.2925 13.8421 12.2095C13.8421 12.031 13.7998 11.9042 13.7142 11.826" fill="#EEEEEE"/>
<path d="M15.323 11.7132C15.2326 11.7109 15.1424 11.7262 15.0567 11.7585C15.0254 11.7779 14.9927 11.7962 14.9605 11.8189C14.9115 11.8523 14.865 11.8902 14.8216 11.9322L15.0235 10.6797H14.3889L13.9375 13.498H14.5062L14.5543 13.2116C14.6178 13.3961 14.7528 13.491 14.9624 13.5018H14.9942C15.117 13.5055 15.2388 13.4767 15.3498 13.4179C15.4609 13.3591 15.5581 13.2718 15.6336 13.1631C15.7955 12.9454 15.8827 12.6699 15.8792 12.3863C15.8792 12.1754 15.8254 12.0088 15.7153 11.8933C15.6645 11.8353 15.6037 11.7896 15.5365 11.7591C15.4694 11.7286 15.3974 11.7139 15.3249 11.7159L15.323 11.7132ZM15.1471 12.854C15.1062 12.9308 15.0401 12.9864 14.9629 13.0088C14.9418 13.0131 14.9204 13.0156 14.899 13.0164C14.7548 13.0164 14.6855 12.9182 14.6855 12.7256C14.7057 12.5984 14.7428 12.4753 14.7956 12.3604C14.8134 12.327 14.8375 12.2985 14.8664 12.2771C14.8953 12.2556 14.9281 12.2417 14.9624 12.2364C14.986 12.2318 15.0097 12.2293 15.0336 12.2288C15.1721 12.2288 15.2394 12.3232 15.2394 12.5115C15.239 12.6334 15.2067 12.7525 15.1466 12.854" fill="#EEEEEE"/>
</g>
<defs>
<clipPath id="clip0_7619_490423">
<rect width="19.875" height="3.375" fill="white" transform="translate(2.25 10.125)"/>
</clipPath>
</defs>
</svg>
