<svg width="24" height="24" viewBox="0 0 24 24" fill="none" xmlns="http://www.w3.org/2000/svg">
<g clip-path="url(#clip0_7611_795905)">
<rect width="24" height="24" rx="12" fill="#1567AC"/>
<g clip-path="url(#clip1_7611_795905)">
<path d="M-0.0175781 3.87949C0.000708481 3.86589 0.0204017 3.86824 0.0204017 3.89074C0.0204017 3.90293 -0.00398039 3.91466 -0.0175781 3.92638V3.87949Z" fill="#000205"/>
<path d="M23.9817 3.97315C23.9573 3.96799 23.9414 3.95533 23.9493 3.92626C23.9493 3.92298 23.9704 3.92626 23.9817 3.92626V3.97315Z" fill="#000205"/>
<path d="M-0.0175781 20.0498C-0.00398039 20.062 0.0204017 20.0737 0.0204017 20.0854C0.0204017 20.1079 0.000708481 20.1108 -0.0175781 20.0967V20.0498Z" fill="#000205"/>
<path d="M23.9813 20.0967C23.9631 20.1108 23.9434 20.1079 23.9434 20.0854C23.9434 20.0737 23.9682 20.062 23.9813 20.0498V20.0967Z" fill="#000205"/>
<path d="M11.9877 22.4803C11.4892 22.5385 11.0944 22.3275 10.7489 21.9917C7.748 19.0731 4.74493 16.1552 1.73967 13.2381C1.41145 12.9206 1.18451 12.5605 1.15732 12.1005C1.12778 11.5965 1.31627 11.1726 1.66981 10.8153C2.94987 9.52072 4.27213 8.26973 5.57986 7.00373C7.31474 5.32511 9.05244 3.64977 10.7714 1.95521C11.4245 1.31143 12.6104 1.33253 13.3062 2.02367C14.9961 3.70323 16.6969 5.37137 18.4086 7.02811C19.646 8.23221 20.8979 9.41944 22.1414 10.6184C22.2596 10.7319 22.3698 10.8528 22.4767 10.978C22.9615 11.5407 22.917 12.5919 22.3552 13.1349C19.2865 16.0948 16.227 19.066 13.1768 22.0485C12.8401 22.3762 12.4537 22.5286 11.9877 22.4803ZM11.9502 21.8431C12.3126 21.8675 12.5846 21.716 12.8232 21.4835C15.8016 18.5864 18.7801 15.6891 21.7588 12.7917C22.3032 12.2614 22.3041 11.7132 21.7635 11.1853C21.0832 10.518 20.3948 9.85926 19.7126 9.19343C17.4601 6.99498 15.208 4.79605 12.9564 2.59665C12.2784 1.93599 11.7002 1.94583 11.034 2.61775C11.0227 2.629 11.0119 2.64026 11.0007 2.65104C8.86254 4.78776 6.66862 6.86728 4.50283 8.9754C3.71916 9.73813 2.93549 10.5005 2.15183 11.2626C1.87331 11.5346 1.76171 11.86 1.87518 12.2431C1.94411 12.4775 2.10306 12.6482 2.2728 12.8123C2.9333 13.4528 3.59365 14.0952 4.25385 14.7394C6.56327 16.992 8.87192 19.245 11.1798 21.4985C11.3978 21.7109 11.6393 21.8783 11.9502 21.8431Z" fill="#F9FBFD"/>
<path d="M16.4542 9.04064C16.0514 8.85309 15.6749 8.66882 15.289 8.50564C14.0108 7.96361 12.6811 7.67759 11.2941 7.86983C10.075 8.03863 9.05141 8.63975 8.23414 9.54751C7.21478 10.6799 7.30902 12.314 8.41278 13.4604C9.02703 14.0985 9.78287 14.513 10.5931 14.838C10.7952 14.9191 10.8876 14.9894 10.7699 15.2173C10.6639 15.4241 10.5983 15.652 10.52 15.8737C10.4731 16.0032 10.3938 16.0388 10.2658 15.998C8.67724 15.4855 7.24432 14.7161 6.16681 13.4065C4.88019 11.8427 5.13526 9.79602 6.7487 8.44563C7.65319 7.68743 8.71053 7.33061 9.85977 7.14868C11.9229 6.82046 13.8983 7.14868 15.84 7.83607C16.4842 8.06348 16.4884 7.93782 16.4547 8.68007C16.45 8.7851 16.4542 8.89623 16.4542 9.04064Z" fill="#F9FBFD"/>
<path d="M10.3954 17.6586C10.6992 16.7335 10.9975 15.8234 11.2957 14.9133C11.3895 14.632 11.4696 14.3464 11.5747 14.0693C11.6384 13.901 11.5723 13.8841 11.434 13.8949C11.177 13.9141 10.9182 13.9225 10.6631 13.9417C10.4653 13.9572 10.3199 13.8949 10.2121 13.719C9.99732 13.3674 9.76991 13.0241 9.53125 12.6514H19.3118C19.1894 12.8952 19.0773 13.1231 18.9596 13.3486C18.9188 13.4269 18.841 13.4391 18.759 13.4424C17.6455 13.5049 16.5317 13.5685 15.4177 13.6332C14.802 13.6684 14.1864 13.7082 13.5707 13.7317C13.3724 13.7392 13.2748 13.8316 13.2148 14.005C12.8694 15.0088 12.522 16.0109 12.1725 17.0116C12.165 17.0336 12.1594 17.0584 12.1519 17.0786C11.9587 17.6455 11.9273 17.6694 11.3215 17.675C11.0481 17.6778 10.7747 17.675 10.5014 17.6727C10.4784 17.6727 10.4554 17.6647 10.3954 17.6586Z" fill="#F9FBFD"/>
<path d="M8.39258 11.9373C8.74424 11.504 9.02417 11.0628 9.58355 10.9526C9.63426 10.9434 9.68146 10.9204 9.71999 10.8862C9.75852 10.8519 9.78691 10.8078 9.80205 10.7585C9.87942 10.524 10.0618 10.42 10.2766 10.3473C10.3726 10.3159 10.4665 10.2787 10.5579 10.2357C10.7169 10.1583 10.7947 9.88308 10.7084 9.73116C10.6615 9.65004 10.5846 9.68896 10.5209 9.67771C10.3577 9.64817 10.1176 9.76867 10.052 9.61347C10.0084 9.51219 10.262 9.40294 10.383 9.29884C10.7313 8.99634 11.1082 8.72844 11.5083 8.49892C11.921 8.26448 12.1221 8.28698 12.4892 8.58098C12.6351 8.69773 12.7832 8.81542 12.938 8.91764C13.1752 9.078 13.2709 9.29791 13.2535 9.5783C13.217 10.1639 13.2188 10.1635 13.7693 10.3332C14.2851 10.4922 14.7966 10.6544 15.3105 10.8138C15.545 10.886 15.7325 11.0014 15.8221 11.2499C15.892 11.4421 16.0833 11.4159 16.2413 11.4332C16.5573 11.4684 16.6239 11.5326 16.6276 11.7835C16.6276 11.897 16.5925 11.9349 16.4809 11.9326C16.2314 11.927 15.9811 11.9326 15.7307 11.9326C14.6447 11.9326 13.5592 11.9274 12.4738 11.9377C12.2961 11.9377 12.2478 11.8763 12.2328 11.7178C12.2131 11.5129 12.2914 11.2349 12.1366 11.1247C12.0007 11.0281 11.7451 11.0989 11.5426 11.0984C11.0704 11.0984 11.0704 11.0984 11.0704 11.5739C11.0704 11.9377 11.0704 11.9377 10.6953 11.9377L8.39258 11.9373Z" fill="#F9FBFD"/>
<path d="M16.488 13.8896C16.421 14.3046 16.3661 14.6778 16.2972 15.0487C16.2761 15.1627 16.1645 15.2175 16.0703 15.2724C15.14 15.8154 14.1319 16.1164 13.0666 16.2425C12.9611 16.2547 12.9081 16.2336 12.9222 16.1075C12.9475 15.8829 12.9592 15.6569 12.9723 15.4314C12.9794 15.3132 13.0319 15.2372 13.151 15.2232C14.3265 15.0863 15.3627 14.5925 16.3413 13.9609C16.3671 13.9445 16.3971 13.9337 16.488 13.8896Z" fill="#F9FBFD"/>
</g>
</g>
<defs>
<clipPath id="clip0_7611_795905">
<rect width="24" height="24" rx="12" fill="white"/>
</clipPath>
<clipPath id="clip1_7611_795905">
<rect width="24" height="21.002" fill="white" transform="translate(-0.0175781 1.48828)"/>
</clipPath>
</defs>
</svg>
