<svg width="24" height="25" viewBox="0 0 24 25" fill="none" xmlns="http://www.w3.org/2000/svg">
<circle cx="12" cy="12.75" r="12" fill="#F7F7F7"/>
<path d="M11.3634 14.16L12.0417 13.5771H11.551L10.81 14.2439V13.5771H10.4453V15.0771H10.81V14.623L11.1063 14.3735L11.6083 15.0771H12.0817L11.3634 14.16Z" fill="#0066B2"/>
<path d="M9.23886 13.5771V14.5773L8.39481 13.5771H7.99219V15.0771H8.37542V14.0955L9.21329 15.0771H9.62855V13.5771H9.23886Z" fill="#0066B2"/>
<path d="M6.35334 14.4846H6.13092C6.13092 14.4846 6.35334 13.9277 6.35334 13.929V13.7856C6.35334 13.6883 6.35334 13.5771 6.35334 13.5771H6.17733L5.53516 15.0771H5.89233L6.0271 14.735H6.35334C6.35334 14.735 6.35334 14.6557 6.35334 14.5865V14.4846Z" fill="#0066B2"/>
<path d="M6.35547 13.5776V13.786C6.35547 13.8619 6.35547 13.9294 6.35547 13.9294L6.57761 14.485H6.35547C6.35547 14.485 6.35547 14.5324 6.35547 14.5865V14.735H6.67863L6.82032 15.0771H7.17365L6.52756 13.5771C6.52733 13.5776 6.35593 13.5776 6.35547 13.5776Z" fill="#0066B2"/>
<path d="M4.6202 14.4205C4.55279 14.3555 4.46707 14.3085 4.34446 14.2812C4.43046 14.2531 4.49786 14.207 4.54669 14.1512C4.59523 14.0867 4.6202 14.0208 4.6202 13.9567C4.6202 13.8912 4.60161 13.8267 4.55889 13.7801C4.52228 13.7252 4.46707 13.6883 4.41187 13.651C4.35084 13.6229 4.28288 13.6048 4.20965 13.5952C4.13004 13.5855 4.01353 13.5771 3.86068 13.5771H3.85403C3.85403 13.5771 3.85403 13.5952 3.85403 13.6224C3.85403 13.5952 3.85403 13.5771 3.85403 13.5771H3.08203V15.0771H3.7439H3.85403C3.85403 15.0771 3.85403 15.0302 3.85403 14.9761C3.85403 15.0302 3.85403 15.0771 3.85403 15.0771C4.04432 15.0771 4.16665 15.0679 4.22213 15.0679C4.32616 15.0587 4.41215 15.031 4.48594 14.9941C4.55307 14.9568 4.61437 14.901 4.65126 14.8457C4.69426 14.7807 4.71839 14.7064 4.71839 14.6419C4.71812 14.5593 4.68122 14.485 4.6202 14.4205ZM3.47427 13.8267H3.70063C3.76221 13.8267 3.81103 13.8267 3.85375 13.8267C3.85375 13.8267 3.85375 13.729 3.85375 13.656C3.85375 13.729 3.85375 13.8267 3.85375 13.8267C3.95195 13.8267 4.01353 13.8267 4.03794 13.8359C4.10535 13.8359 4.15417 13.8539 4.18496 13.882C4.22158 13.9093 4.23406 13.9466 4.23378 13.9931C4.23378 14.0485 4.2152 14.0862 4.17886 14.1135C4.14169 14.1412 4.08676 14.16 4.01908 14.1688C3.99467 14.1688 3.93946 14.1688 3.85347 14.1688C3.85347 14.1688 3.85347 14.2171 3.85347 14.2712C3.85347 14.2171 3.85347 14.1688 3.85347 14.1688C3.81713 14.1688 3.78024 14.1688 3.73114 14.1688H3.47399V13.8267H3.47427ZM4.25209 14.753C4.21547 14.7903 4.16638 14.8092 4.11173 14.8184C4.07456 14.8184 3.98884 14.8272 3.85375 14.8272C3.85375 14.8272 3.85375 14.8746 3.85375 14.9295C3.85375 14.8746 3.85375 14.8272 3.85375 14.8272H3.84182H3.47427V14.42H3.79244C3.81713 14.42 3.83544 14.42 3.85375 14.42C3.85375 14.42 3.85375 14.3718 3.85375 14.3177C3.85375 14.3718 3.85375 14.42 3.85375 14.42C4.00132 14.4288 4.09314 14.4288 4.14196 14.4477C4.19717 14.4569 4.23434 14.4846 4.26457 14.5119C4.29536 14.5488 4.30757 14.5861 4.30757 14.623C4.30757 14.6796 4.28926 14.7257 4.25209 14.753Z" fill="#0066B2"/>
<path d="M12.5508 7.71305C12.5508 7.71269 13.3332 8.49548 13.3332 8.49548H19.0324C18.8661 8.22716 18.6843 7.96635 18.4872 7.71305C18.4872 7.71269 12.5508 7.71305 12.5508 7.71305Z" fill="#EC1C24"/>
<path d="M15.5391 5.36518C14.4876 4.86717 13.2941 4.58275 12.0451 4.58275V4.58203C10.7962 4.58203 9.60231 4.86717 8.54297 5.36482H15.5391V5.36518Z" fill="#EC1C24"/>
<path d="M14.125 9.27832C14.125 9.27832 14.8999 10.0611 14.8999 10.0608L19.7852 10.0611C19.6904 9.79207 19.5791 9.53162 19.4611 9.27832H14.125Z" fill="#EC1C24"/>
<path d="M17.783 6.93025C17.4907 6.6537 17.1823 6.38502 16.8581 6.14746H7.2217C6.89757 6.38466 6.5813 6.65334 6.29688 6.93025H17.783Z" fill="#EC1C24"/>
<path d="M7.64124 11.6265C7.64124 11.6262 8.41616 10.8438 8.41616 10.8438H4.06823C4.00491 11.1046 3.94945 11.3654 3.91797 11.6265C3.91797 11.6262 7.64124 11.6265 7.64124 11.6265Z" fill="#EC1C24"/>
<path d="M10.7579 8.49568L11.5403 7.71325C11.5403 7.71289 5.59602 7.71325 5.59602 7.71289C5.39853 7.96619 5.21643 8.22736 5.05078 8.49568H10.7579Z" fill="#EC1C24"/>
<path d="M20.2428 12.4082H3.8399C3.83203 12.5427 3.83239 12.669 3.83203 12.7957C3.83203 12.9298 3.83239 13.0647 3.8399 13.1906H9.87899H15.9657V14.479L12.061 18.4083L9.19136 15.5383H4.2982C5.42874 18.7321 8.4719 21.0089 12.0449 21.0089C16.5742 21.0089 20.2503 17.3332 20.2503 12.7957C20.2503 12.669 20.2503 12.5424 20.2428 12.4082Z" fill="#EC1C24"/>
<path d="M9.19827 10.0611C9.19827 10.0608 9.9807 9.27832 9.9807 9.27832H4.62101C4.50259 9.53126 4.39168 9.79207 4.29688 10.0611C4.29688 10.0608 9.19827 10.0611 9.19827 10.0611Z" fill="#EC1C24"/>
</svg>
