<svg width="24" height="24" viewBox="0 0 24 24" fill="none" xmlns="http://www.w3.org/2000/svg">
<rect width="24" height="24" rx="12" fill="#D62228"/>
<g clip-path="url(#clip0_7611_795921)">
<path d="M11.951 21.9659C6.22006 22.0155 1.88845 17.2831 1.91812 11.911C1.94826 6.45864 6.47601 1.9427 11.9413 1.95707C17.4066 1.97144 21.9102 6.50314 21.9181 11.9582C21.926 17.3846 17.4511 22.0289 11.951 21.9659ZM6.38513 12.0162C9.0466 13.068 10.8058 14.9797 11.9269 17.5918C13.0249 14.944 14.8801 13.0953 17.5429 11.961C14.8912 10.8643 13.0666 9.02951 11.9492 6.43221C11.6306 6.95418 11.3492 7.41309 11.0682 7.87294C10.7195 8.44636 10.3801 9.02626 9.92665 9.5269C9.38137 10.1295 8.70998 10.569 8.03163 10.9987C7.50072 11.3362 6.96101 11.6616 6.38513 12.0162ZM11.1187 3.94386C11.1187 3.82797 11.1187 3.71208 11.1187 3.59666C11.1187 3.52249 11.1016 3.45759 11.0089 3.45017C10.7937 3.43441 10.5818 3.38991 10.3634 3.41077C9.57862 3.49148 8.82109 3.7434 8.1443 4.14875C6.36936 5.18804 5.00849 6.63015 4.05379 8.45006C3.66013 9.20102 3.413 10.0002 3.36895 10.8527C3.35365 11.1554 3.3759 11.1693 3.68332 11.1841C4.39042 11.2179 5.0632 11.0664 5.70492 10.7845C7.53643 9.98072 8.92976 8.66793 10.0171 7.01537C10.6277 6.0827 11.0524 5.07493 11.1187 3.94386ZM20.4603 12.8751C20.4984 12.7175 20.4274 12.7004 20.299 12.7282C20.1492 12.7602 19.9953 12.7746 19.8437 12.8001C18.3975 13.0411 17.0649 13.5589 15.9108 14.4753C14.0297 15.9694 12.9897 17.9339 12.6901 20.3068C12.6623 20.527 12.7249 20.5479 12.9145 20.5233C14.945 20.2633 16.6796 19.4182 18.1077 17.9436C19.4825 16.5233 20.2795 14.8402 20.4603 12.8751ZM20.4297 10.69C20.4297 9.96681 20.2021 9.15745 19.8047 8.41854C18.9349 6.79935 17.7149 5.50186 16.1788 4.50429C15.1828 3.85764 14.1192 3.39176 12.8904 3.44322C12.7212 3.45017 12.6669 3.48216 12.6911 3.66851C12.9317 5.55146 13.6472 7.21284 14.9709 8.59237C16.3369 10.0164 17.9931 10.8795 19.9554 11.1419C20.4302 11.2022 20.4307 11.1975 20.4297 10.69ZM11.0942 20.3532C10.9963 18.7929 10.4636 17.4129 9.5534 16.184C8.04275 14.1444 6.00353 13.0156 3.48626 12.7338C3.39028 12.7231 3.33371 12.7185 3.35736 12.8404C3.36895 12.9006 3.36246 12.9637 3.37127 13.0258C3.65967 15.0455 4.49428 16.7908 5.9873 18.2042C7.36487 19.5105 8.98864 20.2869 10.8721 20.5247C11.0311 20.5456 11.1392 20.5307 11.0942 20.3532Z" fill="#FEFAFA"/>
</g>
<defs>
<clipPath id="clip0_7611_795921">
<rect width="20" height="20.0098" fill="white" transform="translate(1.92188 1.9541)"/>
</clipPath>
</defs>
</svg>
