<svg width="24" height="24" viewBox="0 0 24 24" fill="none" xmlns="http://www.w3.org/2000/svg">
<rect width="24" height="24" rx="12" fill="#FF8A32"/>
<path d="M11.5424 3.87749C11.3879 3.98976 11.2406 4.09395 11.0933 4.20262C10.8196 4.40288 10.5716 4.63606 10.355 4.89691C10.2187 5.05453 10.1152 5.23773 10.0505 5.43581C10.0108 5.5738 10.0026 5.71892 10.0263 5.86052C10.0501 6.00211 10.1053 6.13658 10.1879 6.25404C10.3134 6.441 10.4625 6.61097 10.6316 6.75971C10.849 6.9609 11.0807 7.14592 11.3061 7.33813C11.5515 7.53435 11.7712 7.76067 11.96 8.01175C12.0795 8.17275 12.1606 8.35892 12.1971 8.55604C12.2301 8.76309 12.2072 8.97519 12.1307 9.17039C12.0404 9.40028 11.9113 9.61295 11.7489 9.7991C11.4734 10.1198 11.1631 10.409 10.8238 10.6613C10.5481 10.8751 10.2651 11.0691 9.97324 11.2595C9.94666 11.2772 9.91532 11.2863 9.88342 11.2856H8.11671C8.03318 11.2856 7.94965 11.2856 7.86612 11.2856C7.84725 11.2856 7.83827 11.2802 7.84007 11.2604C7.84096 11.2518 7.84096 11.243 7.84007 11.2344V5.59299C7.84007 5.15019 7.84007 4.70739 7.84007 4.2646C7.84007 4.14334 7.84456 4.02209 7.84546 3.90084C7.84546 3.87928 7.85175 3.8694 7.8751 3.8694H11.4139C11.4534 3.8694 11.493 3.87479 11.5424 3.87749Z" fill="white"/>
<path d="M12.6006 11.2721C12.7497 11.1635 12.8979 11.053 13.0425 10.9371C13.375 10.6807 13.6785 10.3889 13.9478 10.0668C14.108 9.87607 14.2341 9.65912 14.3206 9.4255C14.3864 9.24229 14.405 9.04548 14.3747 8.85319C14.3444 8.66091 14.2661 8.47935 14.1472 8.32524C13.9898 8.11027 13.805 7.91674 13.5975 7.74952C13.3209 7.5133 13.0245 7.30043 12.7416 7.0732C12.5209 6.90639 12.3202 6.71471 12.1434 6.50196C12.0299 6.36508 11.9455 6.20645 11.8955 6.03582C11.8364 5.8076 11.8586 5.56591 11.9584 5.35231C12.0668 5.12215 12.2138 4.91224 12.3931 4.73168C12.6807 4.44308 12.9939 4.18123 13.329 3.94937C13.4011 3.89522 13.4894 3.86705 13.5796 3.86944C14.4257 3.86944 15.2708 3.86944 16.1169 3.86944C16.1726 3.86944 16.1681 3.86225 16.1681 3.91883C16.1681 4.43259 16.1681 4.94664 16.1681 5.46099C16.1681 6.30706 16.1681 7.15284 16.1681 7.99831C16.1681 8.85456 16.1681 9.71022 16.1681 10.5653C16.1681 10.7907 16.1681 11.0144 16.1681 11.2407C16.1681 11.2667 16.1681 11.2793 16.134 11.2802C16.0289 11.2856 15.9238 11.2802 15.8187 11.2802H12.6006V11.2721Z" fill="white"/>
<path d="M11.5076 11.2766C11.6971 11.1526 11.8731 11.0287 12.0465 10.8958C12.3269 10.6859 12.589 10.4524 12.8297 10.1979C13.0172 10.0034 13.173 9.78061 13.2913 9.53772C13.3819 9.34619 13.4224 9.13481 13.409 8.92337C13.39 8.7162 13.323 8.5163 13.2132 8.33957C13.0809 8.12554 12.9174 7.93241 12.7282 7.76653C12.4704 7.52852 12.1893 7.31745 11.9198 7.09471C11.6798 6.90839 11.4635 6.69332 11.2758 6.45431C11.179 6.33105 11.11 6.18825 11.0737 6.03577C11.0353 5.8355 11.0627 5.62818 11.1519 5.44477C11.2476 5.24368 11.3746 5.05905 11.5282 4.89779C11.8255 4.58452 12.1548 4.30334 12.5108 4.0589C12.5845 4.0086 12.6581 3.9592 12.7282 3.90891C12.7481 3.89345 12.771 3.88234 12.7954 3.8763C12.8199 3.87027 12.8453 3.86944 12.8701 3.87388C12.8638 3.88825 12.8503 3.89274 12.8404 3.89992C12.5611 4.09251 12.3004 4.31082 12.0617 4.55199C11.8775 4.73018 11.7256 4.93895 11.6126 5.16903C11.5405 5.3138 11.5033 5.47345 11.504 5.63518C11.5146 5.85991 11.5953 6.07568 11.7348 6.25222C11.8815 6.44638 12.0516 6.62165 12.2414 6.77406C12.5108 7.00489 12.8036 7.21147 13.0803 7.43511C13.3127 7.6141 13.5237 7.81935 13.709 8.04676C13.8452 8.21224 13.9425 8.40624 13.9937 8.6144C14.0472 8.8722 14.0157 9.14037 13.9039 9.37874C13.781 9.64947 13.6137 9.89779 13.409 10.1134C13.0685 10.4743 12.6927 10.8002 12.2872 11.0862L12.0617 11.2487C12.0289 11.2742 11.9883 11.2876 11.9468 11.2865C11.8039 11.2829 11.6602 11.2936 11.5076 11.2766Z" fill="white"/>
<path d="M10.5033 11.2784C10.6488 11.1832 10.7826 11.0924 10.9137 10.9972C11.2586 10.7558 11.5822 10.4854 11.8811 10.1889C12.0975 9.97936 12.2794 9.73684 12.42 9.47036C12.5246 9.2713 12.5722 9.04718 12.5574 8.82278C12.5395 8.64209 12.4806 8.46788 12.3849 8.31352C12.2917 8.16226 12.1807 8.02266 12.0544 7.89767C11.811 7.65817 11.5553 7.43152 11.2883 7.21865C11.0653 7.04088 10.859 6.84305 10.6721 6.62766C10.5415 6.47753 10.4452 6.30066 10.3901 6.10942C10.3308 5.87318 10.3609 5.62337 10.4745 5.40795C10.5789 5.19981 10.7166 5.01018 10.8823 4.84659C11.2183 4.51377 11.5897 4.21862 11.9897 3.96639C12.0366 3.92673 12.0906 3.89626 12.1487 3.87657C12.165 3.87333 12.1818 3.87333 12.1981 3.87657C12.1876 3.89995 12.17 3.91943 12.1478 3.93226C11.9256 4.08833 11.7124 4.25686 11.5092 4.43703C11.2673 4.64126 11.0574 4.88076 10.8868 5.14748C10.8005 5.28412 10.7431 5.43694 10.7179 5.59656C10.6941 5.77382 10.7291 5.954 10.8176 6.10942C10.9107 6.26976 11.0252 6.41663 11.158 6.54593C11.3803 6.76179 11.6154 6.96395 11.8622 7.15129C12.0843 7.32407 12.2969 7.50876 12.499 7.70456C12.6908 7.88688 12.8455 8.10466 12.9544 8.34585C13.0281 8.51461 13.0634 8.6976 13.0578 8.88165C13.0522 9.06569 13.0058 9.24621 12.9221 9.41018C12.8026 9.65132 12.6469 9.87274 12.4604 10.0667C12.1463 10.3964 11.8 10.6936 11.4266 10.9541C11.2856 11.0556 11.141 11.1517 10.9982 11.2514C10.9587 11.2803 10.9105 11.2949 10.8616 11.2927C10.744 11.2838 10.629 11.2909 10.5033 11.2784Z" fill="white"/>
<path d="M14.8793 19.8119H11.9153C12.792 19.5496 12.6231 18.841 12.6339 18.2177C12.6393 17.8431 12.6249 17.4695 12.6339 17.0949C12.642 16.8605 12.5441 16.7779 12.3177 16.7815C11.7788 16.7896 11.2399 16.7878 10.701 16.7815C10.4962 16.7815 10.4028 16.8641 10.4055 17.0752C10.4139 17.6889 10.4172 18.3021 10.4154 18.9146C10.4154 19.4113 10.7315 19.6134 11.151 19.7912H8.24179C8.2337 19.6224 8.37112 19.6439 8.45825 19.6188C8.59912 19.5875 8.72422 19.507 8.81112 19.3918C8.89803 19.2765 8.94105 19.1341 8.93248 18.9901C8.94146 17.4333 8.94146 15.8764 8.93248 14.3196C8.93248 13.9882 8.77261 13.7502 8.4295 13.6675C8.34597 13.6469 8.24358 13.646 8.22382 13.4825H11.1456L11.2435 13.5831C10.2663 13.6873 10.4118 14.3744 10.4001 14.9762C10.3938 15.2905 10.4118 15.6049 10.4001 15.9192C10.3848 16.1959 10.4621 16.3315 10.7711 16.3198C11.2794 16.3001 11.7887 16.3046 12.298 16.3198C12.5593 16.327 12.6366 16.2192 12.6258 15.974C12.6105 15.6462 12.6258 15.3157 12.6258 14.986C12.6186 14.3843 12.7911 13.69 11.7851 13.5867L11.8983 13.4816H14.8164C13.9587 13.7053 14.0871 14.3798 14.0844 14.9852C14.0799 16.0926 14.0844 17.2 14.0844 18.3084C14.0763 19.2874 14.0763 19.2874 14.8793 19.8119Z" fill="white"/>
<path d="M19.1504 16.3774C19.5313 16.557 19.8519 16.672 20.1277 16.8696C20.8399 17.3815 20.9225 18.5662 20.2723 19.1563C19.8304 19.5569 19.3175 19.8362 18.7058 19.8452C17.646 19.8596 16.5852 19.8515 15.5254 19.8506C15.4701 19.8428 15.416 19.8277 15.3646 19.8057C15.3646 19.7572 15.3646 19.7078 15.3727 19.7069C16.0266 19.5838 16.1011 19.1123 16.0913 18.5608C16.0769 17.3932 16.0913 16.231 16.0859 15.066C16.0859 14.4373 16.2386 13.7305 15.3296 13.5751C15.3844 13.4404 15.4535 13.4269 15.5326 13.4287C16.7002 13.4448 17.8634 13.3811 19.0247 13.5032C19.7307 13.5778 20.3172 14.0996 20.4106 14.7122C20.5148 15.393 20.1905 15.904 19.4424 16.239L19.1504 16.3774ZM19.1567 18.2788C19.1397 17.9968 19.1486 17.7147 19.0669 17.4372C18.9843 17.1635 18.7984 16.9327 18.5486 16.7936C18.2989 16.6545 18.0048 16.6179 17.7286 16.6917C17.5625 16.7375 17.5759 16.8471 17.5759 16.9612C17.5759 17.6797 17.5867 18.391 17.5822 19.1069C17.5822 19.4383 17.7565 19.556 18.0565 19.556C18.8316 19.565 19.1702 19.1689 19.1567 18.2788ZM17.5822 15.1002H17.5741C17.5741 15.4145 17.5741 15.7289 17.5741 16.0414C17.5741 16.1591 17.558 16.2741 17.7223 16.3208C18.1274 16.4348 18.7328 16.1699 18.8289 15.7711C18.9451 15.245 18.9472 14.7002 18.8352 14.1733C18.7714 13.8472 18.3304 13.69 17.8993 13.7565C17.5238 13.8149 17.5858 14.0924 17.5813 14.3385C17.5768 14.5846 17.5822 14.8469 17.5822 15.1002Z" fill="white"/>
<path d="M3.29297 19.9853V17.694C3.575 17.8692 3.55164 18.135 3.6244 18.3434C3.94325 19.256 4.71029 19.8056 5.53841 19.7006C5.94978 19.6476 6.28839 19.4805 6.42222 19.0539C6.55605 18.6272 6.42222 18.2617 6.09977 17.9617C5.82044 17.703 5.47734 17.5539 5.14681 17.3788C4.82379 17.2249 4.51009 17.0521 4.20731 16.8614C3.82135 16.609 3.53679 16.2284 3.40372 15.7868C3.27065 15.3452 3.29759 14.8709 3.47979 14.4472C3.82379 13.6191 4.62676 13.2239 5.62823 13.4035C5.87715 13.4518 6.12307 13.5145 6.36473 13.5912C6.61173 13.6658 6.85514 13.7789 7.00873 13.443C7.02555 13.4203 7.04772 13.4021 7.07326 13.3901C7.0988 13.378 7.12692 13.3724 7.15513 13.3739C7.24495 13.39 7.24495 13.4825 7.24495 13.5535C7.24495 14.0924 7.24495 14.6313 7.24495 15.1702C7.24495 15.251 7.27369 15.3678 7.14435 15.3786C7.06082 15.3858 7.0231 15.3013 6.99256 15.2349C6.87849 14.9915 6.78508 14.7364 6.65215 14.5047C6.35845 13.9936 5.93361 13.6756 5.31656 13.6613C4.86747 13.6496 4.53156 13.822 4.35731 14.2496C4.18306 14.6771 4.3106 15.0418 4.61958 15.3534C4.8558 15.5914 5.15848 15.7217 5.46746 15.8402C5.95786 16.0288 6.433 16.2426 6.83089 16.5974C7.43806 17.1363 7.62847 17.8054 7.44075 18.585C7.26112 19.3377 6.73478 19.7302 6.01894 19.9206C5.35429 20.1002 4.71299 19.9709 4.07887 19.7769C3.78786 19.6871 3.52111 19.6206 3.39806 20.0616L3.29297 19.9853Z" fill="white"/>
</svg>
