<svg width="24" height="24" viewBox="0 0 24 24" fill="none" xmlns="http://www.w3.org/2000/svg">
<circle cx="12" cy="12" r="12" fill="#4A2677"/>
<path d="M4.77286 6C4.68161 5.99981 4.59045 6.00648 4.5 6.01999C4.60239 6.03268 4.70242 6.06302 4.79658 6.10994L8.99027 8.10866L15.5803 11.25L19.0242 8.29331L19.125 8.25V8.22335C19.4216 7.64705 19.5783 7.04268 19.3707 6.6396C19.1631 6.23652 18.7212 6.01333 18.1339 6.01333L4.77286 6Z" fill="url(#paint0_linear_7619_17277)"/>
<path d="M3.87011 6.52402C3.6743 6.87433 3.71905 7.34045 3.99598 7.8413L10.3318 19.2365C10.3825 19.3278 10.4386 19.4158 10.4996 19.5C10.5001 19.4933 10.5001 19.4865 10.4996 19.4797C10.4312 19.3581 10.3883 19.223 10.3737 19.0831L9.03663 7.81525L5.08132 6.07817C4.99251 6.03739 4.89816 6.01103 4.80159 6C4.62061 6.00538 4.44359 6.05614 4.28573 6.14791C4.12787 6.23969 3.99388 6.36975 3.89528 6.52692" fill="url(#paint1_linear_7619_17277)"/>
<path d="M19.4228 7.54257L15.7167 10.3006L9.75 14.7158L10.3183 19.277C10.3344 19.4239 10.3817 19.5658 10.4572 19.6935C10.4578 19.7006 10.4578 19.7077 10.4572 19.7148C10.5633 19.87 10.7043 19.9991 10.8693 20.0919C11.0343 20.1847 11.2188 20.2388 11.4085 20.25C11.8377 20.25 12.2423 19.9459 12.5481 19.4351L19.5 7.5L19.4321 7.55473" fill="url(#paint2_linear_7619_17277)"/>
<defs>
<linearGradient id="paint0_linear_7619_17277" x1="6.74217" y1="5.87341" x2="17.9366" y2="9.10583" gradientUnits="userSpaceOnUse">
<stop stop-color="#F5B419"/>
<stop offset="0.53" stop-color="#F68E20"/>
<stop offset="1" stop-color="#E16226"/>
</linearGradient>
<linearGradient id="paint1_linear_7619_17277" x1="8.70936" y1="16.2922" x2="4.75251" y2="14.5978" gradientUnits="userSpaceOnUse">
<stop stop-color="#F5B419"/>
<stop offset="0.53" stop-color="#F68E20"/>
<stop offset="1" stop-color="#E16226"/>
</linearGradient>
<linearGradient id="paint2_linear_7619_17277" x1="19.6112" y1="7.51824" x2="21.79" y2="16.478" gradientUnits="userSpaceOnUse">
<stop stop-color="#F5B419"/>
<stop offset="0.53" stop-color="#F68E20"/>
<stop offset="1" stop-color="#E16226"/>
</linearGradient>
</defs>
</svg>
