<svg width="24" height="24" viewBox="0 0 24 24" fill="none" xmlns="http://www.w3.org/2000/svg">
<rect width="24" height="24" rx="12" fill="#F7F7F7"/>
<path d="M2.84528 8.77073C3.17004 8.67964 3.48008 8.79925 3.79013 8.85445C5.41026 9.13875 7.04512 9.3338 8.6579 9.66502C9.57515 9.85363 10.2477 10.3348 10.6736 11.1721C10.854 11.5263 11.0453 11.8778 11.268 12.2062C11.7593 12.9285 11.7997 13.6884 11.4989 14.4806C10.7932 16.3354 10.0784 18.1875 9.33135 20.1344C8.69654 18.7717 7.61829 17.6842 7.81057 16.1017C7.91453 15.2452 8.26322 14.4539 8.47942 13.6277C8.52174 13.4658 8.57878 13.3066 8.63306 13.1474C8.70022 12.9505 8.66618 12.8512 8.4279 12.8061C7.70753 12.669 6.9936 12.5016 6.27691 12.347C5.32378 12.1409 4.54361 11.6772 4.01093 10.8399C3.58496 10.1701 3.17924 9.48929 2.85448 8.76336L2.84528 8.77073Z" fill="#F5921F"/>
<path d="M18.2103 4.73953C17.0548 6.25486 15.8726 7.74904 14.5965 9.16501C14.4051 9.37662 14.1972 9.58639 13.9212 9.69956C13.878 9.72624 13.8338 9.75292 13.7906 9.7796C13.7795 9.79616 13.7639 9.80169 13.7446 9.79616C13.694 9.82745 13.647 9.87713 13.5928 9.88817C12.463 10.1127 11.3323 10.1485 10.2044 9.87253C9.81244 9.78512 9.52264 9.52751 9.26964 9.24781C7.94114 7.7794 6.71569 6.22542 5.50864 4.65673C5.5114 4.58956 5.51416 4.52332 5.51692 4.45615C6.2658 4.45155 7.01469 4.42671 7.76266 4.44787C8.76547 4.47455 9.576 4.91986 10.232 5.66879C10.7058 6.20886 11.1971 6.73237 11.6635 7.27889C11.8291 7.4721 11.9211 7.46014 12.0812 7.27705C12.555 6.73697 13.0463 6.21346 13.532 5.68351C14.2221 4.9309 15.0583 4.46811 16.0961 4.44603C16.7981 4.43131 17.501 4.45155 18.2039 4.45615C18.2057 4.55092 18.2085 4.64476 18.2103 4.73953Z" fill="#FBB713"/>
<path d="M20.825 8.74142C20.3291 9.59247 19.893 10.3791 19.4192 11.1409C18.9804 11.8466 18.2849 12.1806 17.4964 12.3517C16.7659 12.5109 16.0382 12.682 15.3059 12.8348C15.0437 12.89 14.9655 12.9755 15.0667 13.2607C15.3206 13.9793 15.5331 14.7117 15.7604 15.4394C16.0538 16.3807 15.9582 17.274 15.4558 18.1288C15.0878 18.7535 14.7456 19.3938 14.3463 20.1087C13.9719 19.1473 13.6204 18.2751 13.292 17.3936C12.8872 16.308 12.3885 15.2573 12.1052 14.1274C11.9322 13.4383 11.9994 12.8026 12.4262 12.21C12.6848 11.8512 12.9092 11.4676 13.1356 11.0876C13.5395 10.4104 14.0611 10.0083 14.8863 9.80685C15.9342 9.55107 16.9932 9.3965 18.0457 9.19777C18.939 9.0294 19.8388 8.90059 20.8241 8.7405L20.825 8.74142Z" fill="#F27920"/>
<path d="M18.4127 4.47911C18.3851 4.5978 18.306 4.67421 18.2103 4.73953C18.2085 4.64476 18.2057 4.55092 18.2039 4.45615C18.2738 4.46351 18.3428 4.47175 18.4127 4.47911Z" fill="#FBB406"/>
<path d="M5.51692 4.45615C5.51416 4.52332 5.5114 4.58956 5.50864 4.65673C5.45988 4.59784 5.4111 4.53892 5.36234 4.47911L5.51782 4.45703L5.51692 4.45615Z" fill="#FBB406"/>
<path d="M2.85442 8.76525C2.8443 8.75788 2.83326 8.75236 2.82498 8.74408C2.82222 8.74132 2.82774 8.73028 2.82958 8.72292C2.8351 8.73948 2.83976 8.75508 2.84528 8.77073L2.85442 8.76525Z" fill="#F5921F"/>
</svg>
