<svg width="24" height="24" viewBox="0 0 24 24" fill="none" xmlns="http://www.w3.org/2000/svg">
<circle cx="12" cy="12" r="12" fill="#005992"/>
<path d="M12.0175 5.25H12.7C14.0996 5.33531 15.437 5.8645 16.522 6.76233C17.8156 7.82884 18.6478 9.36244 18.8425 11.0384V12.6264C18.7661 13.3192 18.5818 13.9955 18.2965 14.6302C18.0235 14.4903 17.6813 14.3542 17.4102 14.2162C17.1033 14.0705 16.7834 13.9546 16.4547 13.8703C15.7671 13.6219 15.0586 13.4372 14.338 13.3183V9.94011C14.2015 9.94011 14.1323 9.87206 13.9977 9.87206H10.5852V13.254C10.124 13.3112 9.66769 13.4034 9.22021 13.53C8.50055 13.7398 7.79376 13.9922 7.10352 14.2862C6.9578 14.3839 6.79554 14.4538 6.62484 14.4922C6.54019 14.3978 6.49235 14.2756 6.49021 14.1482C6.22631 13.4393 6.06508 12.6956 6.01152 11.9402C5.92676 10.5425 6.31156 9.1569 7.10352 8.00811C7.86408 6.84949 8.96079 5.95733 10.243 5.45416C10.7198 5.45606 11.335 5.31805 12.0175 5.25Z" fill="white"/>
<path d="M6.89844 15.4595C8.39433 14.6334 10.1744 14.2194 11.8816 14.0795C13.9448 14.0182 15.989 14.4933 17.8184 15.4595C17.0479 16.6363 15.9237 17.5317 14.6116 18.0134C13.1598 18.5654 11.559 18.5654 10.1071 18.0134C9.48341 17.8033 8.90476 17.4755 8.40181 17.0474C7.80069 16.6251 7.28948 16.0851 6.89844 15.4595Z" fill="white"/>
</svg>
