<svg width="24" height="24" viewBox="0 0 24 24" fill="none" xmlns="http://www.w3.org/2000/svg">
<circle cx="12" cy="12" r="12" fill="#146B40"/>
<path fill-rule="evenodd" clip-rule="evenodd" d="M9.68064 4.5C8.5425 4.75013 8.09989 5.25038 8.09989 6.00077C8.16312 7.06381 9.36449 9.06483 9.87033 9.94028C10.882 11.5036 12.0202 12.9418 13.2848 14.255C14.3597 15.2555 14.992 15.5056 16.1301 14.0049C17.0786 12.7542 17.9638 11.5036 18.7226 10.0028C19.0387 9.31496 19.3549 8.56457 19.6078 7.75166C19.9239 6.81368 19.7975 5.93823 18.849 5.31291C19.7975 5.75064 20.1769 6.56355 20.2401 7.50153C20.3033 8.37698 20.0504 9.31496 19.8607 10.0028C19.3549 11.7537 18.7226 13.5046 17.9006 15.0679C17.2683 16.256 16.5095 17.6942 15.7507 18.7573C14.0435 21.1335 12.3363 20.3206 10.4394 18.7573C9.1748 17.7568 8.03665 16.4436 7.02497 15.0679C6.01329 13.6297 4.87514 11.5661 4.17961 9.94028C3.23115 7.75166 3.98992 6.62609 5.12806 5.8757C6.32944 5.18785 8.22635 4.75013 9.68064 4.5Z" fill="#F6FAF4"/>
<path fill-rule="evenodd" clip-rule="evenodd" d="M10.3588 8.61085C12.0007 8.41274 16.1905 8.16509 17.6625 8.85849C18.1721 9.10613 18.1721 9.4033 18.1155 9.75C18.2853 9.50236 18.3986 9.25472 18.5684 9.00708C18.8515 8.46226 19.1346 7.86792 19.3611 7.22406C19.6442 6.48113 19.5309 5.78774 18.6817 5.29245C18.342 5.14387 18.0022 5.04481 17.6625 4.94575C16.7 4.69811 15.6243 4.59906 14.5486 4.54953C14.039 4.5 13.586 4.5 13.1331 4.5C12.2838 4.5 11.3213 4.54953 10.4154 4.64858C9.39633 4.8467 9 5.24292 9 5.83726C9.05662 6.58019 9.79265 7.8184 10.3588 8.61085Z" fill="#F6FAF4"/>
</svg>
