<svg width="24" height="24" viewBox="0 0 24 24" fill="none" xmlns="http://www.w3.org/2000/svg">
<rect width="24" height="24" rx="12" fill="#C6052A"/>
<g clip-path="url(#clip0_7611_796561)">
<path d="M18.2996 16.8703C17.9313 17.3726 17.5431 17.8532 16.9863 18.1627C16.6846 18.5587 16.2394 18.7645 15.8227 18.9918C15.1544 19.3567 14.4524 19.6541 13.6916 19.7786C12.7752 19.9817 11.8536 20.0492 10.9242 19.8745C8.92451 19.6403 7.25682 18.7368 5.98508 17.2092C3.88944 14.6916 3.44507 11.874 4.69001 8.81787C4.7194 8.60519 4.79289 8.53257 5.03496 8.61038C6.97239 9.22767 7.80493 10.9948 7.04846 12.9141C6.79083 13.4527 6.74069 14.0406 6.66115 14.6181C6.50553 15.7498 6.72945 16.8244 7.52482 17.6457C8.13692 18.2769 8.96687 18.5872 9.89279 18.4627C10.0346 18.4437 10.1755 18.4221 10.3173 18.4022C11.0668 18.1385 11.6677 17.6829 12.1112 17.0215C13.1754 15.1438 12.6939 13.4423 11.5129 11.8248C11.1317 11.3034 10.7383 10.7899 10.4599 10.2046C10.1669 9.58905 9.95763 8.95966 10.1219 8.25592C10.2498 7.70953 10.5239 7.28417 11.0046 6.99455C11.2856 6.79484 11.5752 6.65305 11.9417 6.74037C12.0896 6.77582 12.2616 6.76631 12.4103 6.73C12.7881 6.63662 13.0241 6.82596 13.1443 7.13114C13.2775 7.46832 13.1858 7.79252 12.8547 7.98618C12.4008 8.25246 11.921 8.1833 11.4438 8.04151C11.3461 8.11327 11.238 7.8954 11.149 8.0467C11.0876 8.15217 11.2017 8.2222 11.2328 8.30779C11.3642 8.67609 11.6876 8.85073 12.0161 8.97436C12.1916 9.04006 12.2513 9.05044 12.17 9.24755C11.7835 10.1821 12.0083 11.0441 12.5097 11.8689C12.8988 12.5086 13.4556 13.004 13.9483 13.5556C15.1293 14.8757 15.412 16.4008 14.9936 18.0919C14.9633 18.2155 14.806 18.3711 14.9745 18.4766C15.1077 18.5604 15.2503 18.4342 15.3662 18.3599C15.7889 18.0893 16.2039 17.8083 16.6215 17.5308C17.1212 17.0924 17.5042 16.5711 17.7376 15.9452C17.9045 15.0711 17.4999 14.2844 17.3633 13.457C17.0529 11.5715 17.4921 9.89337 18.8304 8.48935C18.9324 8.38301 19.0448 8.16514 19.1952 8.47033C20.5283 11.1772 20.1886 14.574 18.2996 16.8703Z" fill="white"/>
<path d="M17.6794 6.70049C16.5071 8.2705 16.0628 10.048 16.2045 11.9872C16.2236 12.0857 16.2434 12.1834 16.2625 12.2811C16.2815 12.3918 16.3005 12.5016 16.3195 12.6123C16.4924 13.2797 16.7509 13.9169 16.9982 14.5583C17.1547 14.963 17.2792 15.3753 17.1676 15.8171C17.1512 15.8837 17.1555 15.9693 17.0691 15.9909C16.9636 16.0186 16.9031 15.933 16.8685 15.8647C16.7924 15.7116 16.7457 15.5439 16.6766 15.3866C16.2849 14.5073 15.6962 13.7707 15.0296 13.086C14.4495 12.4886 13.8245 11.9293 13.3593 11.229C13.0395 10.7483 12.8294 10.2382 12.9928 9.64686C13.1441 9.09874 13.464 8.70969 14.0354 8.56445C14.7193 8.26099 15.1913 8.74341 15.7446 9.05292C15.7014 8.1365 15.4083 7.41028 14.5732 6.99098C14.3821 6.89501 14.2014 6.78349 14.0691 6.61317C13.6654 6.09444 13.1276 5.8394 12.481 5.79272C12.0798 5.85929 11.6787 5.92499 11.2784 5.9907C10.0827 6.52672 9.62454 6.45669 8.65712 5.58695C8.51447 5.71491 8.54819 5.92153 8.44444 6.06418C8.39171 6.6296 8.54387 7.11201 9.00121 7.47599C9.12829 7.57714 9.21993 7.70768 9.19573 7.87541C8.99948 9.24139 9.59342 10.412 10.1208 11.5947C10.4839 12.4082 10.8115 13.2287 10.8894 14.1261C10.9291 14.5843 10.9205 15.0408 10.7476 15.4774C10.6499 16.3402 9.75595 17.0188 8.91735 16.9039C8.00526 16.7785 7.35513 15.9269 7.42429 14.9465C7.47703 14.2065 7.73812 13.5218 7.95079 12.8241C8.06751 12.4437 8.16693 12.0572 8.27327 11.6742C8.59833 9.70392 7.80642 8.17973 6.3488 6.94083C6.09117 6.7221 6.04708 6.59934 6.30904 6.36591C6.75254 5.96995 7.17184 5.54805 7.70613 5.27053C8.4237 4.80627 9.15509 4.39215 10.0352 4.29446C10.1735 4.27976 10.3309 4.22875 10.4865 4.22702C10.8081 3.96334 11.198 4.05325 11.5637 4.01694C11.5637 4.01694 11.5922 4.02126 11.5922 4.02213C11.6285 4.01694 11.6648 4.01262 11.7003 4.00829C13.7562 3.92443 15.5656 4.56247 17.1503 5.86274C17.3207 6.0028 17.4166 6.21202 17.6345 6.31577C17.797 6.39271 17.8074 6.52844 17.6794 6.70049Z" fill="white"/>
</g>
<defs>
<clipPath id="clip0_7611_796561">
<rect width="16" height="15.9733" fill="white" transform="translate(4 4)"/>
</clipPath>
</defs>
</svg>
