<svg width="24" height="24" viewBox="0 0 24 24" fill="none" xmlns="http://www.w3.org/2000/svg">
<rect width="24" height="24" rx="12" fill="#F7F7F7"/>
<g clip-path="url(#clip0_7611_795945)">
<path fill-rule="evenodd" clip-rule="evenodd" d="M11.6121 21.3958L4.41015 17.2576C4.41015 17.2576 4.15321 17.0863 4.14154 16.7632C4.14154 16.6503 4.12986 8.61906 4.12986 8.61906C4.12986 8.61906 4.09093 8.19083 4.51137 7.96504C4.8773 7.77428 10.2418 4.66768 11.5498 3.90466C11.69 3.83069 11.9508 3.81902 12.1299 3.90466C13.4807 4.68715 19.0359 7.87939 19.2656 8.01565C19.5342 8.20251 19.5459 8.49448 19.5459 8.49448V16.8021C19.5459 16.8021 19.5187 17.0668 19.2773 17.242C19.1294 17.3315 13.3445 20.6717 12.1065 21.388C11.8535 21.5048 11.6082 21.388 11.6082 21.388" fill="#F69221"/>
<path fill-rule="evenodd" clip-rule="evenodd" d="M11.0284 20.8163L3.83035 16.678C3.83035 16.678 3.56952 16.5067 3.56173 16.1875C3.56173 16.0707 3.55005 8.03563 3.55005 8.03563C3.55005 8.03563 3.50723 7.60351 3.92767 7.3855C4.2975 7.19085 9.66198 4.08426 10.9661 3.32512C11.1102 3.25116 11.3749 3.23559 11.5501 3.32512C12.9009 4.10372 18.4561 7.30375 18.6897 7.43611C18.9544 7.62687 18.97 7.91105 18.97 7.91105V16.2226C18.97 16.2226 18.9428 16.4912 18.7014 16.6625C18.5574 16.7559 12.7685 20.0922 11.5306 20.8046C11.2737 20.9214 11.0284 20.8124 11.0284 20.8124" fill="#FFC114"/>
<path fill-rule="evenodd" clip-rule="evenodd" d="M11.0293 20.8161L11.6132 21.3961C11.6132 21.3961 11.839 21.5324 12.1738 21.3455C12.5125 21.1665 19.2823 17.2462 19.2823 17.2462C19.2823 17.2462 19.4497 17.1528 19.5237 16.9075C19.3057 16.5805 18.9631 16.1406 18.9631 16.1406C18.9631 16.1406 18.9904 16.5105 18.6166 16.7129C18.1534 16.9815 11.6171 20.7811 11.6171 20.7811C11.6171 20.7811 11.3291 20.9601 11.0293 20.8161Z" fill="#FEDD42"/>
<path fill-rule="evenodd" clip-rule="evenodd" d="M13.7913 11.5394C13.9354 11.5122 14.0016 11.4265 14.0016 11.2864V11.2435C14.0016 11.08 13.9354 10.9905 13.7913 10.9905H12.6118V11.5394H13.7913ZM13.7913 13.517C13.9354 13.4898 14.0016 13.408 14.0016 13.2679V13.2212C14.0016 13.0966 13.9354 13.0148 13.7913 12.9681H12.6118V13.517H13.7913ZM14.7607 9.35155C15.0332 9.35155 15.3446 9.44498 15.6911 9.64352C15.8741 9.78367 16.0259 9.97832 16.1699 10.243C16.2673 10.5078 16.3218 10.7374 16.3218 10.9477C16.3218 11.4382 16.0843 11.8431 15.6094 12.1701C15.6483 12.1817 15.7651 12.2401 15.9169 12.3102C16.3568 12.6178 16.5787 13.0148 16.5787 13.4742C16.5787 14.0076 16.3646 14.4436 15.948 14.7823C15.5665 14.9808 15.2473 15.0781 14.9787 15.0781H7.90911L5.88867 9.34766H8.3568L9.34171 12.3336L10.2994 9.34766H14.7607V9.35155Z" fill="#DB352B"/>
</g>
<defs>
<clipPath id="clip0_7611_795945">
<rect width="16" height="18.1841" fill="white" transform="translate(3.55078 3.2627)"/>
</clipPath>
</defs>
</svg>
