<svg width="24" height="24" viewBox="0 0 24 24" fill="none" xmlns="http://www.w3.org/2000/svg">
<circle cx="12" cy="12" r="12" fill="#F7F7F7"/>
<path fill-rule="evenodd" clip-rule="evenodd" d="M4.5 10.5C4.69301 10.547 4.88897 10.5199 5.08282 10.5208C5.82873 10.5244 6.57422 10.537 7.31886 10.5158C7.70404 10.5054 8.04412 10.6178 8.37156 10.8097C9.15372 11.2698 9.78163 11.9316 10.3982 12.6057C10.8988 13.152 11.3855 13.7127 11.8824 14.2631C11.9599 14.3489 12.0012 14.4315 12 14.5565C11.9882 15.6441 11.9793 16.7331 11.9793 17.8207C11.9793 18.0288 11.9009 18.0203 11.7593 17.9702C11.2477 17.7878 10.8305 17.4464 10.4327 17.0753C9.59199 16.2911 8.84355 15.4049 8.06856 14.5493C6.86921 13.2251 5.74192 11.8287 4.50042 10.5483C4.5 10.5321 4.5 10.5158 4.5 10.5Z" fill="#EA2127"/>
<path fill-rule="evenodd" clip-rule="evenodd" d="M15.75 5.25C15.7154 5.31902 15.7315 5.39284 15.7315 5.46407C15.73 6.49791 15.7213 7.53211 15.7339 8.56521C15.7437 9.37389 15.4822 10.0726 14.8846 10.6628C14.1849 11.3533 13.4966 12.0546 12.8035 12.75C12.723 12.7146 12.7572 12.6544 12.7572 12.6097C12.7548 11.1935 12.7584 9.77805 12.7505 8.36183C12.7497 8.21346 12.8377 8.13595 12.9264 8.04663C13.8531 7.11393 14.7809 6.18159 15.7076 5.25C15.7213 5.25 15.7355 5.25 15.75 5.25Z" fill="#EA2128"/>
<path fill-rule="evenodd" clip-rule="evenodd" d="M20.25 10.5118C19.8207 10.9863 19.4237 11.4133 19.0394 11.852C17.6748 13.4064 16.33 14.982 14.9163 16.4862C14.5219 16.9068 14.1085 17.3058 13.6392 17.6302C13.4496 17.7613 13.2532 17.8774 13.0362 17.9515C12.7898 18.036 12.7822 18.0319 12.7818 17.7599C12.7789 16.994 12.7768 16.2268 12.7742 15.4605C12.7742 15.3796 12.7848 15.2978 12.7726 15.2192C12.6843 14.6517 12.8571 14.2278 13.2566 13.8216C14.0299 13.0363 14.7035 12.1394 15.5374 11.4187C15.73 11.2519 15.9327 11.0983 16.1396 10.9528C16.5752 10.6469 17.0386 10.4779 17.5785 10.5023C18.3804 10.5394 19.1849 10.5118 19.9884 10.5118C20.0608 10.5118 20.1327 10.5118 20.25 10.5118Z" fill="#EA2127"/>
<path fill-rule="evenodd" clip-rule="evenodd" d="M9.0136 5.25C9.34812 5.5808 9.65483 5.88284 9.96037 6.18561C10.5961 6.81476 11.2311 7.44538 11.868 8.07416C11.9416 8.14681 12.0004 8.21393 12 8.32752C11.9961 9.76984 11.9973 11.2122 11.9973 12.6545C11.9973 12.6737 11.9914 12.6928 11.9835 12.75C11.747 12.5169 11.5272 12.3034 11.3102 12.0866C10.7732 11.5503 10.2259 11.0233 9.70615 10.4716C9.24941 9.98669 9.01399 9.4206 9.00694 8.78076C8.99402 7.64121 9.00303 6.50166 9.00342 5.36248C9.00381 5.33925 9.00773 5.31564 9.0136 5.25Z" fill="#EA2128"/>
<path d="M10.5088 12.5044C9.8932 11.8314 9.2516 11.1533 8.44761 10.6804L8.4474 10.6803C8.1019 10.4778 7.73436 10.3545 7.31482 10.3659L7.31459 10.3659C6.72974 10.3825 6.1449 10.3782 5.5566 10.3739C5.39919 10.3727 5.24152 10.3715 5.08355 10.3708H5.08352C5.0318 10.3705 4.98055 10.3722 4.93194 10.3738L4.91803 10.3743C4.87373 10.3759 4.83174 10.3773 4.78988 10.3777C4.69774 10.3784 4.61458 10.3735 4.53546 10.3543L4.35 10.3091V10.5V10.5008C4.35 10.5161 4.35 10.534 4.35047 10.5522L4.35199 10.6107L4.39273 10.6527C5.15387 11.4377 5.86778 12.2617 6.58499 13.0894C7.03694 13.6111 7.49019 14.1342 7.95739 14.65L7.95739 14.65C8.13176 14.8425 8.30538 15.0373 8.4795 15.2326C9.07453 15.9 9.67525 16.5739 10.3304 17.185C10.731 17.5587 11.1669 17.9182 11.709 18.1114L11.7093 18.1116C11.7455 18.1244 11.7874 18.1382 11.8285 18.1451C11.8685 18.1519 11.9275 18.1557 11.9865 18.1279C12.0513 18.0973 12.0878 18.0424 12.1066 17.9879C12.1241 17.9372 12.1293 17.8795 12.1293 17.8207C12.1293 16.7339 12.1382 15.6455 12.15 14.5582L12.15 14.558C12.1517 14.3877 12.0909 14.2701 11.9937 14.1626C11.7872 13.9338 11.581 13.7015 11.3742 13.4687C11.0873 13.1456 10.7994 12.8215 10.5088 12.5044ZM10.5088 12.5044C10.5088 12.5044 10.5088 12.5044 10.5087 12.5043L10.3982 12.6057L10.5088 12.5045C10.5088 12.5044 10.5088 12.5044 10.5088 12.5044ZM20.588 10.3618L20.3612 10.6125C20.2236 10.7646 20.0896 10.9114 19.9586 11.055C19.6793 11.3612 19.4131 11.653 19.1522 11.9508L19.1521 11.951C18.8446 12.3012 18.5379 12.6528 18.231 13.0046C17.1778 14.212 16.1222 15.4221 15.0257 16.5888C14.6285 17.0124 14.2067 17.4203 13.7245 17.7536L13.7245 17.7537C13.5298 17.8882 13.3205 18.0129 13.0849 18.0934C13.0848 18.0934 13.0848 18.0934 13.0847 18.0935L13.0362 17.9515L20.588 10.3618ZM20.588 10.3618H20.25H20.2493H20.2486H20.2479H20.2473H20.2466H20.2459H20.2452H20.2445H20.2439H20.2432H20.2425H20.2418H20.2412H20.2405H20.2398H20.2391H20.2385H20.2378H20.2371H20.2365H20.2358H20.2351H20.2345H20.2338H20.2331H20.2325H20.2318H20.2312H20.2305H20.2298H20.2292H20.2285H20.2279H20.2272H20.2266H20.2259H20.2253H20.2246H20.224H20.2233H20.2227H20.222H20.2214H20.2207H20.2201H20.2194H20.2188H20.2182H20.2175H20.2169H20.2162H20.2156H20.215H20.2143H20.2137H20.2131H20.2124H20.2118H20.2112H20.2106H20.2099H20.2093H20.2087H20.208H20.2074H20.2068H20.2062H20.2056H20.2049H20.2043H20.2037H20.2031H20.2025H20.2018H20.2012H20.2006H20.2H20.1994H20.1988H20.1982H20.1975H20.1969H20.1963H20.1957H20.1951H20.1945H20.1939H20.1933H20.1927H20.1921H20.1915H20.1909H20.1903H20.1897H20.1891H20.1885H20.1879H20.1873H20.1867H20.1861H20.1855H20.1849H20.1843H20.1837H20.1832H20.1826H20.182H20.1814H20.1808H20.1802H20.1796H20.179H20.1785H20.1779H20.1773H20.1767H20.1761H20.1756H20.175H20.1744H20.1738H20.1732H20.1727H20.1721H20.1715H20.171H20.1704H20.1698H20.1692H20.1687H20.1681H20.1675H20.167H20.1664H20.1658H20.1653H20.1647H20.1641H20.1636H20.163H20.1624H20.1619H20.1613H20.1608H20.1602H20.1597H20.1591H20.1585H20.158H20.1574H20.1569H20.1563H20.1558H20.1552H20.1547H20.1541H20.1536H20.153H20.1525H20.1519H20.1514H20.1508H20.1503H20.1497H20.1492H20.1486H20.1481H20.1476H20.147H20.1465H20.1459H20.1454H20.1449H20.1443H20.1438H20.1432H20.1427H20.1422H20.1416H20.1411H20.1406H20.14H20.1395H20.139H20.1385H20.1379H20.1374H20.1369H20.1363H20.1358H20.1353H20.1348H20.1342H20.1337H20.1332H20.1327H20.1321H20.1316H20.1311H20.1306H20.1301H20.1295H20.129H20.1285H20.128H20.1275H20.1269H20.1264H20.1259H20.1254H20.1249H20.1244H20.1239H20.1233H20.1228H20.1223H20.1218H20.1213H20.1208H20.1203H20.1198H20.1193H20.1188H20.1183H20.1178H20.1172H20.1167H20.1162H20.1157H20.1152H20.1147H20.1142H20.1137H20.1132H20.1127H20.1122H20.1117H20.1112H20.1107H20.1102H20.1097H20.1092H20.1087H20.1082H20.1078H20.1073H20.1068H20.1063H20.1058H20.1053H20.1048H20.1043H20.1038H20.1033H20.1028H20.1023H20.1019H20.1014H20.1009H20.1004H20.0999H20.0994H20.0989H20.0985H20.098H20.0975H20.097H20.0965H20.096H20.0956H20.0951H20.0946H20.0941H20.0936H20.0932H20.0927H20.0922H20.0917H20.0912H20.0908H20.0903H20.0898H20.0893H20.0889H20.0884H20.0879H20.0874H20.087H20.0865H20.086H20.0856H20.0851H20.0846H20.0841H20.0837H20.0832H20.0827H20.0823H20.0818H20.0813H20.0809H20.0804H20.0799H20.0795H20.079H20.0785H20.0781H20.0776H20.0771H20.0767H20.0762H20.0757H20.0753H20.0748H20.0744H20.0739H20.0734H20.073H20.0725H20.0721H20.0716H20.0711H20.0707H20.0702H20.0698H20.0693H20.0688H20.0684H20.0679H20.0675H20.067H20.0666H20.0661H20.0657H20.0652H20.0647H20.0643H20.0638H20.0634H20.0629H20.0625H20.062H20.0616H20.0611H20.0607H20.0602H20.0598H20.0593H20.0589H20.0584H20.058H20.0575H20.0571H20.0566H20.0562H20.0557H20.0553H20.0548H20.0544H20.0539H20.0535H20.0531H20.0526H20.0522H20.0517H20.0513H20.0508H20.0504H20.0499H20.0495H20.0491H20.0486H20.0482H20.0477H20.0473H20.0469H20.0464H20.046H20.0455H20.0451H20.0446H20.0442H20.0438H20.0433H20.0429H20.0424H20.042H20.0416H20.0411H20.0407H20.0403H20.0398H20.0394H20.0389H20.0385H20.0381H20.0376H20.0372H20.0368H20.0363H20.0359H20.0355H20.035H20.0346H20.0342H20.0337H20.0333H20.0329H20.0324H20.032H20.0316H20.0311H20.0307H20.0303H20.0298H20.0294H20.029H20.0285H20.0281H20.0277H20.0272H20.0268H20.0264H20.0259H20.0255H20.0251H20.0246H20.0242H20.0238H20.0234H20.0229H20.0225H20.0221H20.0216H20.0212H20.0208H20.0203H20.0199H20.0195H20.0191H20.0186H20.0182H20.0178H20.0173H20.0169H20.0165H20.0161H20.0156H20.0152H20.0148H20.0144H20.0139H20.0135H20.0131H20.0126H20.0122H20.0118H20.0114H20.0109H20.0105H20.0101H20.0097H20.0092H20.0088H20.0084H20.008H20.0075H20.0071H20.0067H20.0063H20.0058H20.0054H20.005H20.0046H20.0041H20.0037H20.0033H20.0029H20.0024H20.002H20.0016H20.0012H20.0007H20.0003H19.9999H19.9995H19.999H19.9986H19.9982H19.9978H19.9973H19.9969H19.9965H19.9961H19.9957H19.9952H19.9948H19.9944H19.994H19.9935H19.9931H19.9927H19.9923H19.9918H19.9914H19.991H19.9906H19.9901H19.9897H19.9893H19.9889H19.9884C19.7448 10.3618 19.5025 10.3643 19.2611 10.3668C18.6996 10.3725 18.1431 10.3783 17.5854 10.3525L17.5853 10.3525C17.0059 10.3263 16.5105 10.5091 16.0534 10.8301L16.0533 10.8301C15.8436 10.9776 15.6367 11.1343 15.4393 11.3052M20.588 10.3618L15.4393 11.3052M15.4393 11.3052C15.0148 11.6721 14.6326 12.0825 14.2625 12.4959C14.177 12.5914 14.0922 12.687 14.0077 12.7822C13.7247 13.1011 13.4449 13.4166 13.1497 13.7164L13.1496 13.7164C12.9393 13.9303 12.7819 14.1556 12.6905 14.409C12.5988 14.6634 12.5769 14.937 12.6243 15.2422C12.6283 15.268 12.6291 15.2974 12.628 15.3349C12.6277 15.3454 12.6272 15.3581 12.6267 15.3719C12.6256 15.3998 12.6242 15.4322 12.6242 15.4605L12.6242 15.461C12.6251 15.7165 12.6259 15.9722 12.6267 16.228C12.6283 16.739 12.6299 17.2501 12.6318 17.7605L15.4393 11.3052ZM8.8926 4.91938L9.11908 5.14334C9.25533 5.27809 9.38711 5.40819 9.51612 5.53556C9.70346 5.72051 9.88496 5.89971 10.0659 6.07899C10.3032 6.31386 10.5403 6.54884 10.7775 6.78382C11.1758 7.17856 11.5741 7.57329 11.9734 7.96742C12.05 8.04304 12.1506 8.14854 12.15 8.32793C12.15 8.32796 12.15 8.328 12.15 8.32804L12 8.32752L8.8926 4.91938ZM8.8926 4.91938L8.8642 5.23663M8.8926 4.91938L8.8642 5.23663M8.8642 5.23663C8.8626 5.25457 8.86088 5.27119 8.85931 5.2865C8.85629 5.31581 8.85377 5.34028 8.85344 5.35995L8.85342 5.35995L8.85342 5.36243C8.85331 5.68305 8.85251 6.00399 8.85172 6.32513C8.84969 7.14351 8.84766 7.96323 8.85695 8.78246C8.86445 9.46192 9.11581 10.0636 9.59695 10.5745L9.59697 10.5745M8.8642 5.23663L9.59697 10.5745M9.59697 10.5745C9.97774 10.9786 10.3739 11.3704 10.7679 11.7599C10.914 11.9043 11.0597 12.0484 11.2042 12.1927L9.59697 10.5745ZM15.8841 5.31715L15.9928 5.1H15.75H15.7076H15.6452L15.6012 5.14422C15.3945 5.35208 15.1877 5.55998 14.9808 5.76792C14.2606 6.49189 13.5399 7.21629 12.82 7.94091L12.9264 8.04663L12.82 7.94091C12.8139 7.94706 12.8074 7.95346 12.8006 7.96015C12.7203 8.03942 12.5994 8.1586 12.6005 8.36263V8.36267C12.6057 9.29578 12.6059 10.2282 12.6062 11.1612C12.6063 11.6431 12.6064 12.1251 12.6072 12.6075C12.607 12.6083 12.6065 12.6121 12.6049 12.6224L12.6048 12.6232C12.6028 12.6357 12.5986 12.6626 12.6005 12.6924C12.6025 12.7261 12.6122 12.7674 12.6404 12.8068C12.668 12.8453 12.7052 12.8706 12.7431 12.8873L12.8372 12.9287L12.9098 12.8559C13.1352 12.6297 13.3599 12.4031 13.5844 12.1767C14.0514 11.7059 14.5179 11.2355 14.99 10.7695L14.99 10.7695C15.6184 10.1489 15.8942 9.41025 15.8839 8.56339C15.8745 7.78984 15.877 7.01607 15.8795 6.24094C15.8803 5.98223 15.8812 5.72336 15.8815 5.4643V5.46407C15.8815 5.44278 15.8804 5.42182 15.8795 5.40527L15.8794 5.40222C15.8784 5.38373 15.8777 5.37011 15.8778 5.35743C15.878 5.33309 15.8812 5.32306 15.8841 5.31715Z" stroke="#F7F7F7" stroke-width="0.3"/>
</svg>
