<svg width="213" height="181" viewBox="0 0 213 181" fill="none" xmlns="http://www.w3.org/2000/svg">
<g filter="url(#filter0_f_769_123860)">
<ellipse cx="106.5" cy="151.5" rx="86.5" ry="9.5" fill="#D7DFE6"/>
</g>
<g filter="url(#filter1_ii_769_123860)">
<path d="M164.468 15.7044C143.323 -3.65289 111.67 -5.25479 88.6857 11.674C64.5548 29.4486 56.1673 65.1323 74.4289 92.4285C71.129 95.69 67.797 98.9642 64.4843 102.271C54.6872 112.048 44.9092 121.846 35.1121 131.624C31.5366 135.193 30.3705 139.434 31.9211 144.214C34.6699 152.672 45.2873 155.101 51.7012 148.77C58.2946 142.267 64.8111 135.686 71.3661 129.137C77.6711 122.839 83.9761 116.534 90.2812 110.235C90.5951 109.921 90.9219 109.62 91.3128 109.242C107.601 119.385 124.946 121.884 143.22 115.848C156.83 111.356 167.377 102.757 174.919 90.5959C189.868 66.4779 185.421 34.8822 164.468 15.6979V15.7044ZM82.4896 59.4552C82.528 36.5674 101.212 17.8893 124.062 17.8829C146.969 17.8829 165.807 36.4713 165.833 59.1028C165.858 82.3558 147.341 101.085 124.267 101.136C101.264 101.188 82.4511 82.4199 82.4896 59.4488V59.4552Z" fill="url(#paint0_linear_769_123860)"/>
</g>
<g filter="url(#filter2_ii_769_123860)">
<path d="M122.967 23.7266C108.371 24.912 97.6958 31.8578 91.3971 45.2496C91.1216 45.8327 90.8653 46.435 90.6923 47.0565C90.3142 48.4662 91.0447 49.9527 92.3518 50.5294C93.7295 51.1381 95.3378 50.6383 96.1323 49.344C96.2861 49.0941 96.395 48.8122 96.5168 48.5366C101.681 36.8813 110.665 30.6724 123.339 29.7561C125.966 29.5639 127.222 28.5643 127.126 26.6036C127.03 24.6813 125.549 23.6689 122.967 23.733V23.7266Z" fill="url(#paint1_linear_769_123860)"/>
<path d="M122.967 23.7266C108.371 24.912 97.6958 31.8578 91.3971 45.2496C91.1216 45.8327 90.8653 46.435 90.6923 47.0565C90.3142 48.4662 91.0447 49.9527 92.3518 50.5294C93.7295 51.1381 95.3378 50.6383 96.1323 49.344C96.2861 49.0941 96.395 48.8122 96.5168 48.5366C101.681 36.8813 110.665 30.6724 123.339 29.7561C125.966 29.5639 127.222 28.5643 127.126 26.6036C127.03 24.6813 125.549 23.6689 122.967 23.733V23.7266Z" fill="url(#paint2_radial_769_123860)" fill-opacity="0.2"/>
</g>
<g filter="url(#filter3_ii_769_123860)">
<path d="M91.4734 56.5395C89.8138 56.5138 88.5195 57.7313 88.4618 59.378C88.4042 61.0824 89.6921 62.46 91.3709 62.4857C93.0368 62.5113 94.4273 61.1337 94.4145 59.4805C94.4016 57.8658 93.1009 56.5651 91.4734 56.5395Z" fill="url(#paint3_linear_769_123860)"/>
<path d="M91.4734 56.5395C89.8138 56.5138 88.5195 57.7313 88.4618 59.378C88.4042 61.0824 89.6921 62.46 91.3709 62.4857C93.0368 62.5113 94.4273 61.1337 94.4145 59.4805C94.4016 57.8658 93.1009 56.5651 91.4734 56.5395Z" fill="url(#paint4_radial_769_123860)" fill-opacity="0.2"/>
</g>
<g filter="url(#filter4_b_769_123860)">
<circle cx="152.032" cy="107.967" r="31.7174" fill="url(#paint5_radial_769_123860)"/>
<circle cx="152.032" cy="107.967" r="31.5895" stroke="url(#paint6_linear_769_123860)" stroke-width="0.255786"/>
</g>
<g filter="url(#filter5_i_769_123860)">
<path d="M143.971 95.5631C142.773 94.3644 140.829 94.3644 139.63 95.5631C138.432 96.7618 138.432 98.7052 139.63 99.9039L147.692 107.965L139.631 116.026C138.432 117.225 138.432 119.168 139.631 120.367C140.829 121.565 142.773 121.565 143.971 120.367L152.032 112.306L160.093 120.367C161.292 121.565 163.235 121.565 164.434 120.367C165.633 119.168 165.633 117.225 164.434 116.026L156.373 107.965L164.434 99.904C165.633 98.7053 165.633 96.7618 164.434 95.5632C163.235 94.3645 161.292 94.3645 160.093 95.5632L152.032 103.624L143.971 95.5631Z" fill="white"/>
</g>
<defs>
<filter id="filter0_f_769_123860" x="0" y="122" width="213" height="59" filterUnits="userSpaceOnUse" color-interpolation-filters="sRGB">
<feFlood flood-opacity="0" result="BackgroundImageFix"/>
<feBlend mode="normal" in="SourceGraphic" in2="BackgroundImageFix" result="shape"/>
<feGaussianBlur stdDeviation="10" result="effect1_foregroundBlur_769_123860"/>
</filter>
<filter id="filter1_ii_769_123860" x="31.25" y="-1.28151" width="152.482" height="154.907" filterUnits="userSpaceOnUse" color-interpolation-filters="sRGB">
<feFlood flood-opacity="0" result="BackgroundImageFix"/>
<feBlend mode="normal" in="SourceGraphic" in2="BackgroundImageFix" result="shape"/>
<feColorMatrix in="SourceAlpha" type="matrix" values="0 0 0 0 0 0 0 0 0 0 0 0 0 0 0 0 0 0 127 0" result="hardAlpha"/>
<feOffset dy="1.28151"/>
<feGaussianBlur stdDeviation="1.28151"/>
<feComposite in2="hardAlpha" operator="arithmetic" k2="-1" k3="1"/>
<feColorMatrix type="matrix" values="0 0 0 0 1 0 0 0 0 1 0 0 0 0 1 0 0 0 0.25 0"/>
<feBlend mode="normal" in2="shape" result="effect1_innerShadow_769_123860"/>
<feColorMatrix in="SourceAlpha" type="matrix" values="0 0 0 0 0 0 0 0 0 0 0 0 0 0 0 0 0 0 127 0" result="hardAlpha"/>
<feOffset dy="-1.28151"/>
<feGaussianBlur stdDeviation="1.28151"/>
<feComposite in2="hardAlpha" operator="arithmetic" k2="-1" k3="1"/>
<feColorMatrix type="matrix" values="0 0 0 0 0 0 0 0 0 0 0 0 0 0 0 0 0 0 0.25 0"/>
<feBlend mode="normal" in2="effect1_innerShadow_769_123860" result="effect2_innerShadow_769_123860"/>
</filter>
<filter id="filter2_ii_769_123860" x="90.5928" y="22.445" width="36.5381" height="29.6255" filterUnits="userSpaceOnUse" color-interpolation-filters="sRGB">
<feFlood flood-opacity="0" result="BackgroundImageFix"/>
<feBlend mode="normal" in="SourceGraphic" in2="BackgroundImageFix" result="shape"/>
<feColorMatrix in="SourceAlpha" type="matrix" values="0 0 0 0 0 0 0 0 0 0 0 0 0 0 0 0 0 0 127 0" result="hardAlpha"/>
<feOffset dy="1.28151"/>
<feGaussianBlur stdDeviation="1.28151"/>
<feComposite in2="hardAlpha" operator="arithmetic" k2="-1" k3="1"/>
<feColorMatrix type="matrix" values="0 0 0 0 1 0 0 0 0 1 0 0 0 0 1 0 0 0 0.25 0"/>
<feBlend mode="normal" in2="shape" result="effect1_innerShadow_769_123860"/>
<feColorMatrix in="SourceAlpha" type="matrix" values="0 0 0 0 0 0 0 0 0 0 0 0 0 0 0 0 0 0 127 0" result="hardAlpha"/>
<feOffset dy="-1.28151"/>
<feGaussianBlur stdDeviation="1.28151"/>
<feComposite in2="hardAlpha" operator="arithmetic" k2="-1" k3="1"/>
<feColorMatrix type="matrix" values="0 0 0 0 0 0 0 0 0 0 0 0 0 0 0 0 0 0 0.25 0"/>
<feBlend mode="normal" in2="effect1_innerShadow_769_123860" result="effect2_innerShadow_769_123860"/>
</filter>
<filter id="filter3_ii_769_123860" x="88.46" y="55.2575" width="5.9541" height="8.50834" filterUnits="userSpaceOnUse" color-interpolation-filters="sRGB">
<feFlood flood-opacity="0" result="BackgroundImageFix"/>
<feBlend mode="normal" in="SourceGraphic" in2="BackgroundImageFix" result="shape"/>
<feColorMatrix in="SourceAlpha" type="matrix" values="0 0 0 0 0 0 0 0 0 0 0 0 0 0 0 0 0 0 127 0" result="hardAlpha"/>
<feOffset dy="1.28151"/>
<feGaussianBlur stdDeviation="1.28151"/>
<feComposite in2="hardAlpha" operator="arithmetic" k2="-1" k3="1"/>
<feColorMatrix type="matrix" values="0 0 0 0 1 0 0 0 0 1 0 0 0 0 1 0 0 0 0.25 0"/>
<feBlend mode="normal" in2="shape" result="effect1_innerShadow_769_123860"/>
<feColorMatrix in="SourceAlpha" type="matrix" values="0 0 0 0 0 0 0 0 0 0 0 0 0 0 0 0 0 0 127 0" result="hardAlpha"/>
<feOffset dy="-1.28151"/>
<feGaussianBlur stdDeviation="1.28151"/>
<feComposite in2="hardAlpha" operator="arithmetic" k2="-1" k3="1"/>
<feColorMatrix type="matrix" values="0 0 0 0 0 0 0 0 0 0 0 0 0 0 0 0 0 0 0.25 0"/>
<feBlend mode="normal" in2="effect1_innerShadow_769_123860" result="effect2_innerShadow_769_123860"/>
</filter>
<filter id="filter4_b_769_123860" x="113.664" y="69.5996" width="76.7354" height="76.7384" filterUnits="userSpaceOnUse" color-interpolation-filters="sRGB">
<feFlood flood-opacity="0" result="BackgroundImageFix"/>
<feGaussianBlur in="BackgroundImageFix" stdDeviation="3.32522"/>
<feComposite in2="SourceAlpha" operator="in" result="effect1_backgroundBlur_769_123860"/>
<feBlend mode="normal" in="SourceGraphic" in2="effect1_backgroundBlur_769_123860" result="shape"/>
</filter>
<filter id="filter5_i_769_123860" x="138.731" y="94.4083" width="26.6016" height="26.8573" filterUnits="userSpaceOnUse" color-interpolation-filters="sRGB">
<feFlood flood-opacity="0" result="BackgroundImageFix"/>
<feBlend mode="normal" in="SourceGraphic" in2="BackgroundImageFix" result="shape"/>
<feColorMatrix in="SourceAlpha" type="matrix" values="0 0 0 0 0 0 0 0 0 0 0 0 0 0 0 0 0 0 127 0" result="hardAlpha"/>
<feOffset dy="-0.255786"/>
<feGaussianBlur stdDeviation="0.511572"/>
<feComposite in2="hardAlpha" operator="arithmetic" k2="-1" k3="1"/>
<feColorMatrix type="matrix" values="0 0 0 0 0 0 0 0 0 0 0 0 0 0 0 0 0 0 0.25 0"/>
<feBlend mode="normal" in2="shape" result="effect1_innerShadow_769_123860"/>
</filter>
<linearGradient id="paint0_linear_769_123860" x1="107.491" y1="-75.1111" x2="107.491" y2="227.454" gradientUnits="userSpaceOnUse">
<stop stop-color="#4BE9FF"/>
<stop offset="1" stop-color="#006382"/>
</linearGradient>
<linearGradient id="paint1_linear_769_123860" x1="108.862" y1="10.3847" x2="108.862" y2="64.1289" gradientUnits="userSpaceOnUse">
<stop stop-color="#4BE9FF"/>
<stop offset="1" stop-color="#006382"/>
</linearGradient>
<radialGradient id="paint2_radial_769_123860" cx="0" cy="0" r="1" gradientUnits="userSpaceOnUse" gradientTransform="translate(108.862 37.2568) rotate(90) scale(13.5302 18.269)">
<stop stop-color="white"/>
<stop offset="1" stop-color="white" stop-opacity="0"/>
</radialGradient>
<linearGradient id="paint3_linear_769_123860" x1="91.4372" y1="53.607" x2="91.4372" y2="65.4181" gradientUnits="userSpaceOnUse">
<stop stop-color="#4BE9FF"/>
<stop offset="1" stop-color="#006382"/>
</linearGradient>
<radialGradient id="paint4_radial_769_123860" cx="0" cy="0" r="1" gradientUnits="userSpaceOnUse" gradientTransform="translate(91.4372 59.5125) rotate(90) scale(2.97348 2.97729)">
<stop stop-color="white"/>
<stop offset="1" stop-color="white" stop-opacity="0"/>
</radialGradient>
<radialGradient id="paint5_radial_769_123860" cx="0" cy="0" r="1" gradientUnits="userSpaceOnUse" gradientTransform="translate(146.993 101.15) rotate(66.7289) scale(41.9478)">
<stop stop-color="white" stop-opacity="0"/>
<stop offset="0.0001" stop-color="white" stop-opacity="0"/>
<stop offset="1" stop-color="white"/>
</radialGradient>
<linearGradient id="paint6_linear_769_123860" x1="129.686" y1="85.8613" x2="152.032" y2="139.685" gradientUnits="userSpaceOnUse">
<stop stop-color="white" stop-opacity="0.77"/>
<stop offset="0.529167" stop-color="white" stop-opacity="0"/>
<stop offset="1" stop-color="white" stop-opacity="0.41"/>
</linearGradient>
</defs>
</svg>
