<svg width="16" height="17" viewBox="0 0 16 17" fill="none" xmlns="http://www.w3.org/2000/svg">
<path fill-rule="evenodd" clip-rule="evenodd" d="M7.66536 2.33398C4.4437 2.33398 1.83203 4.94566 1.83203 8.16732C1.83203 11.389 4.4437 14.0007 7.66536 14.0007C10.887 14.0007 13.4987 11.389 13.4987 8.16732C13.4987 4.94566 10.887 2.33398 7.66536 2.33398ZM0.832031 8.16732C0.832031 4.39337 3.89142 1.33398 7.66536 1.33398C11.4393 1.33398 14.4987 4.39337 14.4987 8.16732C14.4987 9.87433 13.8728 11.4351 12.8379 12.6328L15.0189 14.8138C15.2142 15.009 15.2142 15.3256 15.0189 15.5209C14.8237 15.7161 14.5071 15.7161 14.3118 15.5209L12.1308 13.3399C10.9332 14.3747 9.37237 15.0007 7.66536 15.0007C3.89142 15.0007 0.832031 11.9413 0.832031 8.16732Z" fill="#060606"/>
</svg>
