<svg width="48" height="48" viewBox="0 0 48 48" fill="none" xmlns="http://www.w3.org/2000/svg">
<path d="M33.8365 28.1785V39.1197C33.8365 41.6111 31.5086 43.6317 28.6392 43.6317H7.78065C4.90866 43.6317 2.58203 41.6111 2.58203 39.1197V28.1785C2.58203 25.6858 4.90997 23.6652 7.78065 23.6652H28.6392C28.6719 23.6652 28.702 23.6652 28.7347 23.6652C31.5609 23.7097 33.8378 25.7119 33.8378 28.1772L33.8365 28.1785Z" fill="url(#paint0_linear_11095_65400)"/>
<path d="M28.0939 21.4694C28.1043 21.5818 28.0651 21.693 27.9866 21.7741C27.9134 21.8526 27.8101 21.8957 27.7028 21.8957H27.6871C27.6675 21.8957 27.6492 21.8957 27.6309 21.8957H26.7913C26.5899 21.8957 26.4211 21.7427 26.4015 21.5413C26.0079 17.4779 22.6284 14.4137 18.5415 14.4137C14.4545 14.4137 11.0751 17.4779 10.6814 21.5413C10.6618 21.7427 10.4931 21.8957 10.2917 21.8957H9.38013C9.27027 21.8957 9.16434 21.8499 9.0911 21.7689C9.01655 21.6878 8.97993 21.5792 8.98909 21.4694C9.19703 19.0931 10.2838 16.8881 12.0494 15.2611C13.8254 13.6237 16.1311 12.7227 18.5415 12.7227C20.9518 12.7227 23.2588 13.6237 25.0348 15.2611C26.8004 16.8881 27.8859 19.0931 28.0939 21.4707V21.4694Z" fill="url(#paint1_linear_11095_65400)"/>
<path d="M25.9172 33.1523H11.1583C10.5682 33.1523 10.0898 33.6307 10.0898 34.2208C10.0898 34.8109 10.5682 35.2893 11.1583 35.2893H25.9172C26.5073 35.2893 26.9857 34.8109 26.9857 34.2208C26.9857 33.6307 26.5073 33.1523 25.9172 33.1523Z" fill="#13C7C7"/>
<path d="M33.0664 28.7305C39.1459 28.7305 44.0743 23.8022 44.0743 17.7227C44.0743 11.6432 39.1459 6.71484 33.0664 6.71484C26.987 6.71484 22.0586 11.6432 22.0586 17.7227C22.0586 23.8022 26.987 28.7305 33.0664 28.7305Z" fill="url(#paint2_linear_11095_65400)" stroke="white" stroke-width="2.06179" stroke-miterlimit="10"/>
<path d="M33.0655 16.7387C34.3255 16.7387 35.347 15.7173 35.347 14.4572C35.347 13.1972 34.3255 12.1758 33.0655 12.1758C31.8055 12.1758 30.7841 13.1972 30.7841 14.4572C30.7841 15.7173 31.8055 16.7387 33.0655 16.7387Z" fill="white"/>
<path d="M37.9707 22.1681H28.1602C28.1602 19.4587 30.356 17.2628 33.0654 17.2628C35.7749 17.2628 37.9707 19.4587 37.9707 22.1681Z" fill="white"/>
<defs>
<linearGradient id="paint0_linear_11095_65400" x1="27.6021" y1="39.7385" x2="-2.66786" y2="24.1951" gradientUnits="userSpaceOnUse">
<stop stop-color="#D0D4EC"/>
<stop offset="1" stop-color="#E5EBF6"/>
</linearGradient>
<linearGradient id="paint1_linear_11095_65400" x1="17.7112" y1="12.7567" x2="18.6606" y2="22.755" gradientUnits="userSpaceOnUse">
<stop stop-color="#D0D4EC"/>
<stop offset="1" stop-color="#E5EBF6"/>
</linearGradient>
<linearGradient id="paint2_linear_11095_65400" x1="77.1401" y1="-3.21938" x2="46.5258" y2="11.3263" gradientUnits="userSpaceOnUse">
<stop stop-color="#05E0E0"/>
<stop offset="1" stop-color="#02C8C8"/>
</linearGradient>
</defs>
</svg>
