<svg width="48" height="48" viewBox="0 0 48 48" fill="none" xmlns="http://www.w3.org/2000/svg">
<g clip-path="url(#clip0_11095_65344)">
<path d="M29.0128 12.3125H7.38243C5.77109 12.3125 4.46484 13.6187 4.46484 15.2301V43.8621C4.46484 45.4734 5.77109 46.7796 7.38243 46.7796H29.0128C30.6241 46.7796 31.9304 45.4734 31.9304 43.8621V15.2301C31.9304 13.6187 30.6241 12.3125 29.0128 12.3125Z" fill="url(#paint0_linear_11095_65344)"/>
<g clip-path="url(#clip1_11095_65344)">
<path d="M13.8258 41.5401L12.5788 40.2931C12.7451 40.019 12.8282 39.7247 12.8282 39.4102C12.8282 39.0103 12.7058 38.6553 12.4609 38.3452C12.216 38.0352 11.9048 37.8307 11.5273 37.7319V35.9727C12.0935 36.0446 12.6069 36.24 13.0675 36.5591C13.5281 36.8781 13.892 37.2881 14.1594 37.7891C14.4268 38.2902 14.5604 38.8305 14.5604 39.4102C14.5604 40.201 14.3156 40.911 13.8258 41.5401Z" fill="url(#paint1_linear_11095_65344)"/>
<path d="M7.66016 38.9721H9.4261C9.50249 38.671 9.65189 38.4092 9.87432 38.1868C10.0967 37.9644 10.3585 37.8127 10.6596 37.7319V35.9727C9.87769 36.0715 9.20704 36.4007 8.6476 36.9601C8.08816 37.5195 7.75901 38.1902 7.66016 38.9721Z" fill="url(#paint2_linear_11095_65344)" fill-opacity="0.2"/>
<path d="M10.0327 40.7734C9.72267 40.5285 9.51821 40.2173 9.41936 39.8398H7.66016C7.73205 40.406 7.92752 40.9194 8.24656 41.38C8.56559 41.8406 8.97562 42.2045 9.47665 42.4719C9.97767 42.7393 10.518 42.8729 11.0977 42.8729C11.8885 42.8729 12.5985 42.6281 13.2276 42.1383L11.9806 40.8913C11.7065 41.0576 11.4122 41.1407 11.0977 41.1407C10.6978 41.1407 10.3428 41.0183 10.0327 40.7734Z" fill="url(#paint3_linear_11095_65344)" fill-opacity="0.6"/>
</g>
<rect x="18.6992" y="35.9727" width="11.0432" height="1.3804" rx="0.690199" fill="url(#paint4_linear_11095_65344)"/>
<rect x="18.6992" y="38.7305" width="6.90199" height="1.3804" rx="0.690199" fill="url(#paint5_linear_11095_65344)"/>
<rect x="18.6992" y="41.4922" width="11.0432" height="1.3804" rx="0.690199" fill="url(#paint6_linear_11095_65344)"/>
<path d="M15.0123 25.6225H14.0027V28.3773H12.4883V20.7852H15.3305C15.9451 20.7852 16.4609 20.9008 16.8779 21.1322C17.2949 21.3636 17.6022 21.6637 17.7997 22.0324C17.9972 22.4012 18.096 22.8025 18.096 23.2364C18.096 23.7353 17.9643 24.1872 17.7009 24.5921C17.4376 24.9898 17.0388 25.2754 16.5048 25.4489L18.2387 28.3773H16.6474L15.0123 25.6225ZM14.0027 24.3969H15.1001C15.5244 24.3969 15.8829 24.3101 16.1755 24.1366C16.4755 23.9558 16.6255 23.6557 16.6255 23.2364C16.6255 22.817 16.4792 22.5241 16.1865 22.3578C15.8939 22.1843 15.5317 22.0975 15.1001 22.0975H14.0027V24.3969Z" fill="white"/>
<path d="M15.0123 25.6225H14.0027V28.3773H12.4883V20.7852H15.3305C15.9451 20.7852 16.4609 20.9008 16.8779 21.1322C17.2949 21.3636 17.6022 21.6637 17.7997 22.0324C17.9972 22.4012 18.096 22.8025 18.096 23.2364C18.096 23.7353 17.9643 24.1872 17.7009 24.5921C17.4376 24.9898 17.0388 25.2754 16.5048 25.4489L18.2387 28.3773H16.6474L15.0123 25.6225ZM14.0027 24.3969H15.1001C15.5244 24.3969 15.8829 24.3101 16.1755 24.1366C16.4755 23.9558 16.6255 23.6557 16.6255 23.2364C16.6255 22.817 16.4792 22.5241 16.1865 22.3578C15.8939 22.1843 15.5317 22.0975 15.1001 22.0975H14.0027V24.3969Z" fill="url(#paint7_linear_11095_65344)" fill-opacity="0.8"/>
<path d="M22.1464 20.7852C22.761 20.7852 23.2767 20.9081 23.6938 21.1539C24.1108 21.3998 24.418 21.7215 24.6156 22.1192C24.8131 22.5169 24.9119 22.9435 24.9119 23.399C24.9119 23.8546 24.8131 24.2776 24.6156 24.668C24.4254 25.0512 24.1217 25.3622 23.7047 25.6008C23.2877 25.8394 22.7683 25.9587 22.1464 25.9587H20.7966V28.3773H19.3042V20.7852H22.1464ZM21.916 24.7223C22.3476 24.7223 22.7098 24.621 23.0024 24.4186C23.295 24.2161 23.4414 23.8763 23.4414 23.399C23.4414 22.9218 23.295 22.5892 23.0024 22.4012C22.7171 22.206 22.3549 22.1084 21.916 22.1084H20.7966V24.7223H21.916Z" fill="white"/>
<path d="M22.1464 20.7852C22.761 20.7852 23.2767 20.9081 23.6938 21.1539C24.1108 21.3998 24.418 21.7215 24.6156 22.1192C24.8131 22.5169 24.9119 22.9435 24.9119 23.399C24.9119 23.8546 24.8131 24.2776 24.6156 24.668C24.4254 25.0512 24.1217 25.3622 23.7047 25.6008C23.2877 25.8394 22.7683 25.9587 22.1464 25.9587H20.7966V28.3773H19.3042V20.7852H22.1464ZM21.916 24.7223C22.3476 24.7223 22.7098 24.621 23.0024 24.4186C23.295 24.2161 23.4414 23.8763 23.4414 23.399C23.4414 22.9218 23.295 22.5892 23.0024 22.4012C22.7171 22.206 22.3549 22.1084 21.916 22.1084H20.7966V24.7223H21.916Z" fill="url(#paint8_linear_11095_65344)" fill-opacity="0.8"/>
<path d="M31.9313 23.4914C37.8023 23.4914 42.5617 18.732 42.5617 12.8609C42.5617 6.98989 37.8023 2.23047 31.9313 2.23047C26.0602 2.23047 21.3008 6.98989 21.3008 12.8609C21.3008 18.732 26.0602 23.4914 31.9313 23.4914Z" fill="url(#paint9_linear_11095_65344)" stroke="white" stroke-width="1.99111" stroke-miterlimit="10"/>
<path d="M26.7673 17.3596H32.4096C32.581 17.3596 32.7208 17.2198 32.7208 17.0483V16.7167C32.7208 16.3728 32.4422 16.0942 32.0983 16.0942V15.7217C32.0983 15.2288 31.6973 14.8287 31.2054 14.8287H27.9725C27.4796 14.8287 27.0795 15.2298 27.0795 15.7217V16.0942C26.7356 16.0942 26.457 16.3728 26.457 16.7167V17.0483C26.457 17.2198 26.5968 17.3596 26.7683 17.3596H26.7673Z" fill="white"/>
<path d="M30.3505 13.5909C30.5577 13.8654 30.9475 13.9205 31.222 13.7133C31.4965 13.5062 31.5516 13.1164 31.3444 12.8418L29.4718 10.3569C29.2647 10.0824 28.8749 10.0273 28.6003 10.2345C28.3258 10.4416 28.2707 10.8315 28.4779 11.106L30.3505 13.5909Z" fill="white"/>
<path d="M34.8233 10.2202C35.0305 10.4947 35.4203 10.5498 35.6948 10.3426C35.9693 10.1355 36.0244 9.74565 35.8173 9.47114L33.9447 6.98624C33.7375 6.71173 33.3477 6.65662 33.0732 6.86378C32.7986 7.07094 32.7435 7.46077 32.9507 7.73528L34.8233 10.2202Z" fill="white"/>
<path d="M33.4575 12.0275C33.9177 11.6805 34.2627 11.2509 34.479 10.7978L32.3003 7.90569C31.8053 7.98835 31.2961 8.20163 30.8359 8.5486C30.3756 8.89557 30.0307 9.32519 29.8143 9.77829L31.9931 12.6704C32.488 12.5877 32.9973 12.3744 33.4575 12.0275Z" fill="white"/>
<path d="M34.2997 12.1091C34.1548 12.2571 34.0028 12.3979 33.8344 12.5255C33.666 12.652 33.4874 12.7602 33.3058 12.8581L33.7119 13.397L34.7059 12.6479L34.2997 12.1091Z" fill="white"/>
<path d="M35.0782 13.1449L34.0843 13.894L35.9569 16.3789C36.164 16.6534 36.5539 16.7085 36.8284 16.5013C37.1029 16.2942 37.158 15.9043 36.9508 15.6298L35.0782 13.1449Z" fill="white"/>
</g>
<defs>
<linearGradient id="paint0_linear_11095_65344" x1="49.5512" y1="59.5613" x2="23.9134" y2="35.0174" gradientUnits="userSpaceOnUse">
<stop stop-color="#D0D4EC"/>
<stop offset="1" stop-color="#E5EBF6"/>
</linearGradient>
<linearGradient id="paint1_linear_11095_65344" x1="19.1159" y1="33.4604" x2="14.2707" y2="34.7146" gradientUnits="userSpaceOnUse">
<stop stop-color="#05E0E0"/>
<stop offset="1" stop-color="#02C8C8"/>
</linearGradient>
<linearGradient id="paint2_linear_11095_65344" x1="15.1644" y1="34.6192" x2="10.9936" y2="36.6009" gradientUnits="userSpaceOnUse">
<stop stop-color="#05E0E0"/>
<stop offset="1" stop-color="#02C8C8"/>
</linearGradient>
<linearGradient id="paint3_linear_11095_65344" x1="21.5894" y1="38.4712" x2="16.1995" y2="43.1719" gradientUnits="userSpaceOnUse">
<stop stop-color="#05E0E0"/>
<stop offset="1" stop-color="#02C8C8"/>
</linearGradient>
<linearGradient id="paint4_linear_11095_65344" x1="46.3284" y1="35.3498" x2="45.1099" y2="39.9812" gradientUnits="userSpaceOnUse">
<stop stop-color="#05E0E0"/>
<stop offset="1" stop-color="#02C8C8"/>
</linearGradient>
<linearGradient id="paint5_linear_11095_65344" x1="35.9675" y1="38.1076" x2="34.1967" y2="42.3143" gradientUnits="userSpaceOnUse">
<stop stop-color="#05E0E0"/>
<stop offset="1" stop-color="#02C8C8"/>
</linearGradient>
<linearGradient id="paint6_linear_11095_65344" x1="46.3284" y1="40.8693" x2="45.1099" y2="45.5008" gradientUnits="userSpaceOnUse">
<stop stop-color="#05E0E0"/>
<stop offset="1" stop-color="#02C8C8"/>
</linearGradient>
<linearGradient id="paint7_linear_11095_65344" x1="12.4883" y1="19.7175" x2="23.2427" y2="36.254" gradientUnits="userSpaceOnUse">
<stop offset="0.0257714" stop-color="#FF9C54"/>
<stop offset="1" stop-color="#FFE76B"/>
</linearGradient>
<linearGradient id="paint8_linear_11095_65344" x1="12.4883" y1="19.7175" x2="23.2427" y2="36.254" gradientUnits="userSpaceOnUse">
<stop offset="0.0257714" stop-color="#FF9C54"/>
<stop offset="1" stop-color="#FFE76B"/>
</linearGradient>
<linearGradient id="paint9_linear_11095_65344" x1="74.494" y1="-7.36318" x2="44.9293" y2="6.6839" gradientUnits="userSpaceOnUse">
<stop stop-color="#05E0E0"/>
<stop offset="1" stop-color="#02C8C8"/>
</linearGradient>
<clipPath id="clip0_11095_65344">
<rect width="38.6512" height="45.1027" fill="white" transform="translate(4.46484 1.67578)"/>
</clipPath>
<clipPath id="clip1_11095_65344">
<rect width="8.28239" height="8.28239" fill="white" transform="translate(6.96875 35.2812)"/>
</clipPath>
</defs>
</svg>
