<svg width="48" height="48" viewBox="0 0 48 48" fill="none" xmlns="http://www.w3.org/2000/svg">
<g clip-path="url(#clip0_11095_36292)">
<path d="M31.5499 13.4335V43.7091H11.2198C8.36699 43.7091 6.02129 41.2733 5.75 38.155V13.4335C5.75 12.1633 6.7805 11.1328 8.05065 11.1328H29.2493C30.5194 11.1328 31.5499 12.1633 31.5499 13.4335Z" fill="url(#paint0_linear_11095_36292)"/>
<path d="M35.9397 38.748C35.9397 40.1505 35.3627 41.4177 34.4328 42.3265C33.6793 43.0627 32.6958 43.5631 31.5992 43.7088H10.7227C10.947 43.7088 11.1684 43.6944 11.3851 43.6647C12.4769 43.52 13.4566 43.0215 14.2062 42.2891C15.1313 41.3842 15.7064 40.1227 15.7064 38.726C15.7064 37.3293 15.1322 36.0678 14.2062 35.1628C13.308 34.2838 12.0781 33.7422 10.7227 33.7422H30.9329C32.2951 33.7422 33.5298 34.2857 34.4328 35.1686C35.3627 36.0774 35.9397 37.3446 35.9397 38.748Z" fill="url(#paint1_linear_11095_36292)"/>
<path d="M24.9912 15.1484H9.76756C9.33502 15.1484 8.98438 15.4991 8.98438 15.9316C8.98438 16.3642 9.33502 16.7148 9.76756 16.7148H24.9912C25.4237 16.7148 25.7744 16.3642 25.7744 15.9316C25.7744 15.4991 25.4237 15.1484 24.9912 15.1484Z" fill="#13C7C7"/>
<path d="M20.5854 20.125H9.76756C9.33502 20.125 8.98438 20.4756 8.98438 20.9082C8.98438 21.3407 9.33502 21.6914 9.76756 21.6914H20.5854C21.018 21.6914 21.3686 21.3407 21.3686 20.9082C21.3686 20.4756 21.018 20.125 20.5854 20.125Z" fill="#13C7C7"/>
<path d="M20.5854 25.4648H9.76756C9.33502 25.4648 8.98438 25.8155 8.98438 26.248C8.98438 26.6806 9.33502 27.0312 9.76756 27.0312H20.5854C21.018 27.0312 21.3686 26.6806 21.3686 26.248C21.3686 25.8155 21.018 25.4648 20.5854 25.4648Z" fill="#13C7C7"/>
<path d="M24.0613 22.8477H9.76756C9.33502 22.8477 8.98438 23.1983 8.98438 23.6308C8.98438 24.0634 9.33502 24.414 9.76756 24.414H24.0613C24.4939 24.414 24.8445 24.0634 24.8445 23.6308C24.8445 23.1983 24.4939 22.8477 24.0613 22.8477Z" fill="#13C7C7"/>
<path d="M31.7436 25.1357C37.2586 25.1357 41.7294 20.6649 41.7294 15.1499C41.7294 9.63486 37.2586 5.16406 31.7436 5.16406C26.2286 5.16406 21.7578 9.63486 21.7578 15.1499C21.7578 20.6649 26.2286 25.1357 31.7436 25.1357Z" fill="url(#paint2_linear_11095_36292)" stroke="white" stroke-width="1.04392" stroke-miterlimit="10"/>
<path d="M31.6072 21.9228C31.1184 21.8605 30.7234 21.6036 30.3361 21.3227C30.0457 21.1108 29.7533 20.9009 29.4494 20.7092C28.9605 20.4005 28.7199 19.95 28.6749 19.3921C28.602 18.4775 28.5426 17.5621 28.4803 16.6476C28.4553 16.2795 28.4343 15.9114 28.416 15.5433C28.4007 15.2384 28.5244 15.0007 28.7966 14.8617C29.0574 14.7284 29.3162 14.7553 29.5501 14.9345C29.6987 15.0486 29.7936 15.201 29.8089 15.3899C29.8396 15.7762 29.8635 16.1625 29.8894 16.5488C29.8923 16.5891 29.8942 16.6294 29.9 16.7118C29.9565 16.6322 29.993 16.5833 30.0275 16.5335C30.9017 15.2729 31.7769 14.0114 32.6512 12.7499C32.7767 12.5677 32.9311 12.4345 33.1564 12.3971C33.5475 12.331 33.9079 12.5946 33.9654 12.9876C33.9702 13.0183 33.976 13.049 33.9865 13.1065C34.1121 12.933 34.2147 12.771 34.3374 12.6253C34.6748 12.2255 35.3046 12.3185 35.5126 12.7978C35.62 13.0461 35.5835 13.2838 35.4311 13.5053C35.319 13.6673 35.2068 13.8302 35.0985 13.9874C35.225 13.9874 35.3487 13.9711 35.4656 13.9903C35.9526 14.0708 36.2057 14.6038 35.9497 15.0294C35.7772 15.317 35.573 15.5864 35.3822 15.8634C35.3487 15.9123 35.3161 15.9612 35.2662 16.0341C35.4877 15.9689 35.6794 15.9689 35.8654 16.0657C36.2105 16.2459 36.3466 16.6715 36.1597 17.0128C36.0935 17.1336 36.0101 17.2448 35.9315 17.3589C35.0918 18.5715 34.2463 19.7793 33.4123 20.9958C33.0777 21.4847 32.6483 21.8116 32.054 21.9026C32.0425 21.9046 32.0319 21.917 32.0204 21.9247H31.6053L31.6072 21.9228Z" fill="white"/>
<path d="M27.8457 17.818C27.0836 17.9887 26.4346 17.7423 26.0128 17.0914C25.7205 16.6399 25.4607 16.1664 25.1961 15.6966C24.9689 15.295 25.014 14.8732 25.1683 14.4658C25.568 13.4113 25.9802 12.3616 26.3944 11.3129C26.5314 10.9659 26.8804 10.8154 27.2073 10.94C27.5341 11.0647 27.6885 11.4222 27.5581 11.775C27.444 12.0808 27.3204 12.3837 27.2006 12.6876C27.189 12.7163 27.1814 12.746 27.1651 12.7997C27.2293 12.7643 27.2724 12.7422 27.3146 12.7173C28.4928 12.0309 29.6718 11.3465 30.848 10.6582C31.0561 10.5365 31.266 10.4895 31.4932 10.5873C31.776 10.7081 31.9236 11.0378 31.8354 11.3359C31.8268 11.3657 31.8182 11.3944 31.8057 11.4404C31.9754 11.3474 32.123 11.2525 32.2812 11.1816C32.6665 11.0081 33.0912 11.2564 33.1401 11.6868C33.0797 11.6992 33.0174 11.7098 32.956 11.7242C32.5793 11.8152 32.2965 12.0338 32.0779 12.3501C31.5402 13.1324 30.9966 13.9108 30.456 14.6901C30.4282 14.7304 30.3975 14.7697 30.3802 14.7927C30.2202 14.6355 30.0821 14.4581 29.9057 14.3354C29.4466 14.0172 28.9471 13.9846 28.4573 14.253C27.9272 14.5434 27.6846 15.0122 27.7192 15.6161C27.7585 16.3063 27.8035 16.9965 27.8457 17.6867C27.8486 17.7308 27.8457 17.7759 27.8457 17.8161V17.818Z" fill="white"/>
<path d="M37.2796 9.30942C37.2335 9.3909 37.2029 9.48772 37.1396 9.55195C36.5865 10.1137 36.0286 10.6706 35.4687 11.2257C35.3106 11.3829 35.0891 11.3838 34.9521 11.2401C34.8188 11.1011 34.8265 10.8854 34.9789 10.7329C35.5349 10.1741 36.0928 9.61809 36.6507 9.06018C36.7677 8.94323 36.9057 8.91735 37.0572 8.97583C37.1808 9.0228 37.2585 9.15413 37.2805 9.30942H37.2796Z" fill="white"/>
<path d="M38.444 11.5861C38.445 11.7366 38.3568 11.8766 38.2073 11.9245C37.6302 12.1124 37.0521 12.2984 36.4722 12.4776C36.2661 12.5409 36.0782 12.4364 36.0207 12.2457C35.9651 12.0635 36.0619 11.8804 36.2642 11.8143C36.8374 11.6274 37.4107 11.4443 37.9868 11.2669C38.2197 11.195 38.4421 11.358 38.444 11.5852V11.5861Z" fill="white"/>
<path d="M34.039 10.1933C33.8061 10.1904 33.6517 9.96225 33.7275 9.71972C33.9039 9.15319 34.0802 8.58665 34.27 8.02587C34.3017 7.93288 34.3937 7.84469 34.48 7.79005C34.5941 7.71911 34.7244 7.74691 34.8251 7.83798C34.9344 7.93768 34.9823 8.06325 34.9353 8.21184C34.7982 8.64609 34.6602 9.07938 34.5222 9.51362C34.4752 9.66221 34.4301 9.81271 34.3774 9.95938C34.3228 10.1099 34.1924 10.1952 34.0381 10.1933H34.039Z" fill="white"/>
</g>
<defs>
<linearGradient id="paint0_linear_11095_36292" x1="26.4027" y1="39.6059" x2="-0.775893" y2="28.6756" gradientUnits="userSpaceOnUse">
<stop stop-color="#D0D4EC"/>
<stop offset="1" stop-color="#E5EBF6"/>
</linearGradient>
<linearGradient id="paint1_linear_11095_36292" x1="23.4041" y1="46.7351" x2="23.2574" y2="35.6479" gradientUnits="userSpaceOnUse">
<stop stop-color="#D2D9EE"/>
<stop offset="1" stop-color="#E7F0F8"/>
</linearGradient>
<linearGradient id="paint2_linear_11095_36292" x1="71.7251" y1="-3.84779" x2="43.9543" y2="9.34742" gradientUnits="userSpaceOnUse">
<stop stop-color="#05E0E0"/>
<stop offset="1" stop-color="#02C8C8"/>
</linearGradient>
<clipPath id="clip0_11095_36292">
<rect width="36.5037" height="39.0699" fill="white" transform="translate(5.75 4.64062)"/>
</clipPath>
</defs>
</svg>
