<svg width="48" height="48" viewBox="0 0 48 48" fill="none" xmlns="http://www.w3.org/2000/svg">
<path fill-rule="evenodd" clip-rule="evenodd" d="M34.3964 42.2957C33.3222 41.3841 31.7033 41.3841 30.629 42.2957C29.5547 43.2073 27.9358 43.2073 26.8616 42.2957C25.7873 41.3841 24.1684 41.3841 23.0941 42.2957C22.0198 43.2073 20.401 43.2073 19.3267 42.2957C18.2524 41.3841 16.6335 41.3841 15.5592 42.2957C14.4849 43.2073 12.8661 43.2073 11.7918 42.2957C10.7175 41.3841 9.09863 41.3841 8.02435 42.2957C7.29445 42.9151 6.14062 42.4204 6.14062 41.4882V14.3311C6.14062 13.3988 7.29445 12.9042 8.02435 13.5235C9.09863 14.4351 10.7175 14.4351 11.7918 13.5235C12.8661 12.6119 14.4849 12.6119 15.5592 13.5235C16.6335 14.4351 18.2524 14.4351 19.3267 13.5235C20.401 12.6119 22.0198 12.6119 23.0941 13.5235C24.1684 14.4351 25.7873 14.4351 26.8616 13.5235C27.9358 12.6119 29.5547 12.6119 30.629 13.5235C31.7033 14.4351 33.3222 14.4351 34.3964 13.5235C35.1263 12.9042 36.2802 13.3988 36.2802 14.3311V41.4882C36.2802 42.4204 35.1263 42.9151 34.3964 42.2957Z" fill="url(#paint0_linear_11095_19367)"/>
<rect x="12.8359" y="20.0938" width="17.302" height="2.16274" rx="1.08137" fill="url(#paint1_linear_11095_19367)"/>
<rect x="12.8359" y="26.6289" width="17.302" height="2.16275" rx="1.08137" fill="url(#paint2_linear_11095_19367)"/>
<rect x="12.8359" y="33.1641" width="17.302" height="2.16274" rx="1.08137" fill="url(#paint3_linear_11095_19367)"/>
<path d="M31.3727 25.7258C37.2437 25.7258 42.0031 20.9664 42.0031 15.0953C42.0031 9.22427 37.2437 4.46484 31.3727 4.46484C25.5016 4.46484 20.7422 9.22427 20.7422 15.0953C20.7422 20.9664 25.5016 25.7258 31.3727 25.7258Z" fill="url(#paint4_linear_11095_19367)" stroke="white" stroke-width="1.99111" stroke-miterlimit="10"/>
<path d="M29.7674 10.4741L29.399 11.0789C29.3153 11.2177 29.1423 11.2621 29.0083 11.1788C28.8744 11.1011 28.8353 10.9291 28.9134 10.7904L28.9804 10.6794C28.0539 10.918 27.3618 11.7614 27.3618 12.7602C27.3618 12.9211 27.2334 13.0432 27.0772 13.0432C26.9209 13.0432 26.7925 12.9211 26.7925 12.7602C26.7646 11.1844 28.0148 10.0469 29.5218 10.0469C29.6279 10.0469 29.7172 10.1024 29.7674 10.1911C29.8176 10.2799 29.8176 10.3853 29.7674 10.4741Z" fill="white"/>
<path d="M36.2809 16.8053C36.3088 18.3811 35.0586 19.5186 33.5516 19.5186C33.4455 19.5186 33.3562 19.4631 33.306 19.3799C33.2558 19.2856 33.2558 19.1801 33.306 19.0913L33.6744 18.4865C33.7581 18.3534 33.9311 18.309 34.0651 18.3922C34.199 18.4699 34.2381 18.6419 34.16 18.7751L34.093 18.8916C35.0251 18.6474 35.7116 17.8096 35.7116 16.8053C35.7116 16.6499 35.84 16.5223 35.9962 16.5223C36.1525 16.5223 36.2809 16.6499 36.2809 16.8053Z" fill="white"/>
<path d="M29.7507 12.5438C27.8083 12.5438 26.2344 14.1086 26.2344 16.0395C26.2344 17.9705 27.8083 19.5352 29.7507 19.5352C31.693 19.5352 33.2669 17.9705 33.2669 16.0395C33.2669 14.1086 31.693 12.5438 29.7507 12.5438ZM30.6437 17.0993C30.5711 17.2214 30.4707 17.3213 30.3423 17.399C30.2307 17.46 30.1079 17.5044 29.9683 17.5266V17.8262C29.9683 17.8873 29.9516 17.9372 29.9125 17.976C29.879 18.0149 29.8344 18.0371 29.7786 18.0371C29.7227 18.0371 29.6725 18.0149 29.639 17.976C29.6055 17.9372 29.5888 17.8873 29.5888 17.8262V17.5432C29.4437 17.5321 29.3209 17.5044 29.2037 17.4711C29.0697 17.4267 28.9581 17.3712 28.8632 17.3157C28.8186 17.2825 28.7851 17.2436 28.7683 17.1992C28.7516 17.1548 28.7404 17.1049 28.746 17.0605C28.7516 17.0106 28.7683 16.9717 28.7962 16.9384C28.8241 16.8996 28.8576 16.8774 28.8967 16.8718C28.9358 16.8552 28.986 16.8718 29.0362 16.9051C29.1088 16.9495 29.2037 16.9884 29.3153 17.0328C29.4325 17.0716 29.572 17.0938 29.7339 17.0938C29.8623 17.0938 29.9627 17.0771 30.0409 17.0439C30.1246 17.005 30.1804 16.9606 30.2139 16.9051C30.253 16.8441 30.2697 16.7775 30.2697 16.6998C30.2697 16.6388 30.2586 16.5889 30.2362 16.5389C30.2083 16.4945 30.1637 16.4557 30.1079 16.4168C30.0521 16.3836 29.9683 16.3558 29.8734 16.3336L29.466 16.2337C29.2372 16.1783 29.0641 16.0839 28.9525 15.9508C28.8353 15.8231 28.7795 15.6511 28.7795 15.4347C28.7795 15.2738 28.813 15.124 28.8911 14.9964C28.9637 14.8632 29.0641 14.7578 29.1981 14.6801C29.3097 14.6135 29.4381 14.5691 29.5888 14.5525V14.2528C29.5888 14.1918 29.6055 14.1419 29.639 14.103C29.6725 14.0642 29.7227 14.042 29.7786 14.042C29.8288 14.042 29.8734 14.0642 29.9125 14.103C29.946 14.1419 29.9683 14.1918 29.9683 14.2528V14.5414C30.0521 14.5525 30.1469 14.5747 30.2474 14.608C30.3758 14.6523 30.4874 14.7189 30.5823 14.7966C30.6214 14.8299 30.6493 14.8687 30.6604 14.9131C30.6716 14.9575 30.6716 15.0019 30.666 15.0408C30.6548 15.0796 30.6325 15.1129 30.6046 15.1406C30.5767 15.1684 30.5432 15.185 30.4986 15.1906C30.4595 15.1961 30.4148 15.1795 30.359 15.1462C30.2865 15.1018 30.2027 15.063 30.1134 15.0352C30.0186 15.0019 29.9125 14.9853 29.7841 14.9853C29.6223 14.9853 29.4939 15.0297 29.399 15.1073C29.3097 15.185 29.2595 15.2904 29.2595 15.4181C29.2595 15.5124 29.2874 15.5901 29.3488 15.6511C29.4046 15.7066 29.4995 15.751 29.6334 15.7843L30.0465 15.8842C30.292 15.9452 30.4707 16.0395 30.5823 16.1672C30.6995 16.2948 30.7553 16.4612 30.7553 16.6665C30.7553 16.8275 30.7162 16.9717 30.6437 17.0993Z" fill="white"/>
<path d="M36.2809 13.3761C36.2809 14.73 35.3041 15.862 34.0093 16.1006C34.0372 15.9397 34.0483 15.7676 34.0483 15.5956C34.0483 13.8311 32.6697 12.3885 30.9283 12.2719C31.3581 11.2898 32.3404 10.6018 33.4902 10.6018C35.0307 10.6018 36.2809 11.8447 36.2809 13.3761Z" fill="white"/>
<defs>
<linearGradient id="paint0_linear_11095_19367" x1="30.2671" y1="39.1831" x2="0.94321" y2="24.2926" gradientUnits="userSpaceOnUse">
<stop stop-color="#D0D4EC"/>
<stop offset="1" stop-color="#E5EBF6"/>
</linearGradient>
<linearGradient id="paint1_linear_11095_19367" x1="56.1241" y1="19.1178" x2="54.215" y2="26.3742" gradientUnits="userSpaceOnUse">
<stop stop-color="#05E0E0"/>
<stop offset="1" stop-color="#02C8C8"/>
</linearGradient>
<linearGradient id="paint2_linear_11095_19367" x1="56.1241" y1="25.653" x2="54.215" y2="32.9094" gradientUnits="userSpaceOnUse">
<stop stop-color="#05E0E0"/>
<stop offset="1" stop-color="#02C8C8"/>
</linearGradient>
<linearGradient id="paint3_linear_11095_19367" x1="56.1241" y1="32.1882" x2="54.215" y2="39.4445" gradientUnits="userSpaceOnUse">
<stop stop-color="#05E0E0"/>
<stop offset="1" stop-color="#02C8C8"/>
</linearGradient>
<linearGradient id="paint4_linear_11095_19367" x1="73.9354" y1="-5.12881" x2="44.3707" y2="8.91828" gradientUnits="userSpaceOnUse">
<stop stop-color="#05E0E0"/>
<stop offset="1" stop-color="#02C8C8"/>
</linearGradient>
</defs>
</svg>
