<svg width="48" height="48" viewBox="0 0 48 48" fill="none" xmlns="http://www.w3.org/2000/svg">
<path d="M27.0486 15.1958L6.36532 20.1958C4.73323 20.5903 3.73 22.2332 4.12454 23.8653L6.57289 33.9933C6.96743 35.6254 8.61034 36.6286 10.2424 36.2341L30.9257 31.2341C32.5578 30.8396 33.561 29.1967 33.1665 27.5646L30.7181 17.4366C30.3236 15.8045 28.6807 14.8013 27.0486 15.1958Z" fill="url(#paint0_linear_11095_65132)" fill-opacity="0.8"/>
<path d="M31.2427 19.9531H7.26557C5.37359 19.9531 3.83984 21.4869 3.83984 23.3788V35.1211C3.83984 37.013 5.37359 38.5468 7.26557 38.5468H31.2427C33.1347 38.5468 34.6684 37.013 34.6684 35.1211V23.3788C34.6684 21.4869 33.1347 19.9531 31.2427 19.9531Z" fill="url(#paint1_linear_11095_65132)"/>
<path d="M33.9904 26.9846C38.9988 26.9846 43.0589 22.9245 43.0589 17.9161C43.0589 12.9078 38.9988 8.84766 33.9904 8.84766C28.982 8.84766 24.9219 12.9078 24.9219 17.9161C24.9219 22.9245 28.982 26.9846 33.9904 26.9846Z" fill="url(#paint2_linear_11095_65132)" stroke="white" stroke-width="1.69855" stroke-miterlimit="10"/>
<path d="M37.3964 18.0444C37.3964 18.1216 37.3934 18.2003 37.3888 18.2774C37.3842 18.342 37.3797 18.4081 37.3721 18.4726C37.3675 18.5104 37.3629 18.5466 37.3583 18.5828C37.2837 18.9165 36.9682 19.129 36.6405 19.0598C36.6283 19.0566 36.6146 19.0535 36.6024 19.0503L36.5232 19.022C36.2778 18.9165 36.1224 18.6568 36.1437 18.3813C36.1483 18.353 36.1513 18.3262 36.1528 18.2979C36.1528 18.2916 36.1559 18.2837 36.1559 18.2774C36.1635 18.2003 36.1666 18.1231 36.1666 18.0444C36.1666 17.7186 36.1056 17.4085 35.9928 17.1251C35.9075 16.9048 35.7917 16.7017 35.6484 16.5191C35.6179 16.4766 35.5844 16.4357 35.5493 16.3963C35.5402 16.3837 35.5295 16.3727 35.5189 16.3601C35.4609 16.294 35.4 16.2326 35.3375 16.1759C34.51 15.4219 33.2953 15.3448 32.4023 15.9792C32.3123 16.0437 32.2255 16.1145 32.1432 16.1932C31.6646 16.6466 31.4101 17.2589 31.3842 17.8839C31.3812 17.9579 31.3812 18.0334 31.3842 18.1074V18.1106C31.3888 18.2192 31.401 18.3278 31.4208 18.4364C31.4985 18.885 31.6982 19.3179 32.0213 19.6816C32.1036 19.7744 32.1919 19.861 32.2849 19.9366C32.3017 19.9507 32.3184 19.9633 32.3352 19.9775C32.3581 19.9964 32.3824 20.0153 32.4068 20.0326C32.4084 20.0342 32.4099 20.0357 32.4114 20.0357C32.4449 20.0609 32.4785 20.0861 32.5135 20.1066C32.8823 20.3537 33.3228 20.4954 33.7937 20.4954C33.8943 20.4954 33.9918 20.4891 34.0893 20.4765H34.0939C34.1518 20.4702 34.2097 20.4733 34.2692 20.4859C34.6014 20.5568 34.8193 20.8921 34.7553 21.2352C34.7066 21.495 34.51 21.6854 34.2737 21.7327C34.2494 21.7374 34.2234 21.7405 34.1975 21.7421C34.161 21.7468 34.1244 21.75 34.0878 21.7531C34.039 21.7578 33.9903 21.761 33.9415 21.7626C33.8912 21.7641 33.8424 21.7657 33.7937 21.7657C33.7388 21.7657 33.6824 21.7641 33.6276 21.761C33.3197 21.7453 33.0134 21.6886 32.7162 21.5926C32.64 21.5689 32.5668 21.5422 32.4937 21.5107C32.4525 21.495 32.4114 21.4776 32.3718 21.4603C32.3261 21.4399 32.2819 21.4194 32.2377 21.3958C32.1858 21.3706 32.134 21.3423 32.0837 21.3155H32.0822C32.0304 21.284 31.9801 21.2541 31.9313 21.2242C31.6357 21.0432 31.3614 20.8149 31.116 20.5395C30.8523 20.2419 30.642 19.9129 30.4866 19.5651C30.3921 19.3557 30.3174 19.14 30.2625 18.9212C30.2062 18.6961 30.1711 18.4679 30.1559 18.2381C30.1513 18.1672 30.1482 18.0964 30.1467 18.024V17.95L30.1406 14.0682C30.1406 13.7155 30.4165 13.4322 30.7578 13.4353C31.0992 13.4385 31.3766 13.7281 31.3781 14.0807V15.1779L32.384 12.6672C32.5135 12.3413 32.8747 12.1902 33.1917 12.3287C33.5072 12.4673 33.658 12.8419 33.527 13.1677L33.0591 14.3389C34.2509 14.1075 35.5341 14.5042 36.4226 15.5022C36.5003 15.5888 36.5719 15.6785 36.6375 15.7698C36.6817 15.828 36.7228 15.8879 36.764 15.9493C36.7807 15.9729 36.796 15.9965 36.8097 16.0201C36.8356 16.0594 36.8585 16.0972 36.8813 16.1366C37.2075 16.697 37.3964 17.3487 37.3964 18.0444Z" fill="white"/>
<path d="M21.4385 30.6808C21.4385 31.0708 21.3427 31.4277 21.1512 31.7515C20.9588 32.0754 20.675 32.3331 20.2972 32.5246C20.0116 32.67 19.6747 32.7605 19.2873 32.7953V33.1383C19.2873 33.4003 19.0749 33.6128 18.8138 33.6128C18.5526 33.6128 18.3393 33.4003 18.3393 33.1383V32.7744C18.1548 32.7483 17.985 32.7065 17.8309 32.6517C17.5323 32.5455 17.2851 32.4088 17.0901 32.2417C16.8951 32.0754 16.7401 31.8978 16.6235 31.7089C16.5068 31.52 16.4206 31.3424 16.364 31.1761C16.3632 31.1744 16.3632 31.1726 16.3623 31.1709C16.2683 30.8923 16.4816 30.605 16.7758 30.605H17.0178C17.1989 30.605 17.3643 30.7165 17.4244 30.888C17.4435 30.9437 17.4644 30.995 17.4862 31.0438C17.5428 31.1665 17.6298 31.2893 17.7456 31.412C17.8623 31.5339 18.0163 31.6384 18.2079 31.7228C18.4003 31.8081 18.6431 31.8499 18.9391 31.8499C19.3788 31.8499 19.7235 31.7463 19.9716 31.5391C20.2206 31.3311 20.3442 31.0673 20.3442 30.7469C20.3442 30.4701 20.2519 30.2551 20.0665 30.101C19.8811 29.9469 19.6086 29.8285 19.2508 29.7467L18.3263 29.5299C17.9798 29.4542 17.6612 29.3427 17.3687 29.1947C17.0762 29.0476 16.8402 28.8474 16.6609 28.5958C16.4824 28.3451 16.3928 28.0273 16.3928 27.6434C16.3928 27.2282 16.4946 26.8713 16.6992 26.5727C16.9029 26.2741 17.1858 26.0451 17.548 25.8841C17.7883 25.7778 18.052 25.7065 18.3393 25.6708V25.3182C18.3393 25.0562 18.5517 24.8438 18.8138 24.8438C18.9443 24.8438 19.0627 24.8969 19.1481 24.983C19.2342 25.0684 19.2873 25.1876 19.2873 25.3182V25.676C19.5241 25.7082 19.7313 25.7648 19.9107 25.8466C20.2058 25.9816 20.4417 26.147 20.6184 26.342C20.7943 26.537 20.9248 26.7328 21.0093 26.9313C21.0267 26.9714 21.0432 27.0132 21.0589 27.0558C21.1616 27.337 20.9483 27.6339 20.6498 27.6339H20.4539C20.2728 27.6339 20.1161 27.5207 20.0482 27.3535C20.0125 27.2647 19.9707 27.1855 19.9246 27.115C19.8332 26.9775 19.6948 26.8556 19.5093 26.752C19.3239 26.6484 19.0741 26.5962 18.7598 26.5962C18.3263 26.5962 18.0024 26.6971 17.7883 26.8982C17.5741 27.0993 17.4679 27.3231 17.4679 27.5677C17.4679 27.8123 17.5584 27.9969 17.7413 28.1388C17.9232 28.2798 18.1687 28.3851 18.4769 28.4548L19.4675 28.6907C19.8323 28.7725 20.164 28.8953 20.4626 29.0581C20.7612 29.2217 20.9988 29.4376 21.1747 29.704C21.3505 29.9721 21.4385 30.2969 21.4385 30.6808Z" fill="white"/>
<ellipse cx="36.5599" cy="20.931" rx="0.83721" ry="0.837209" fill="white"/>
<defs>
<linearGradient id="paint0_linear_11095_65132" x1="2.86494" y1="18.6548" x2="33.971" y2="48.3983" gradientUnits="userSpaceOnUse">
<stop offset="0.0257714" stop-color="#FF9C54"/>
<stop offset="1" stop-color="#FFE76B"/>
</linearGradient>
<linearGradient id="paint1_linear_11095_65132" x1="28.5179" y1="36.2048" x2="6.43957" y2="17.6164" gradientUnits="userSpaceOnUse">
<stop stop-color="#D0D4EC"/>
<stop offset="1" stop-color="#E5EBF6"/>
</linearGradient>
<linearGradient id="paint2_linear_11095_65132" x1="70.2992" y1="0.663649" x2="45.0785" y2="12.6467" gradientUnits="userSpaceOnUse">
<stop stop-color="#05E0E0"/>
<stop offset="1" stop-color="#02C8C8"/>
</linearGradient>
</defs>
</svg>
