<svg width="120" height="124" viewBox="0 0 120 124" fill="none" xmlns="http://www.w3.org/2000/svg">
<path fill-rule="evenodd" clip-rule="evenodd" d="M76.25 21.25V101.25H26.25V21.25C26.25 15.7 30.7 11.25 36.25 11.25H66.25C71.75 11.25 76.25 15.7 76.25 21.25ZM36.25 46.25H66.25V21.25H36.25V46.25Z" fill="url(#paint0_linear_17876_3144)"/>
<path fill-rule="evenodd" clip-rule="evenodd" d="M76.25 35.3846V39.4231H80.2885V52.8846C80.2885 54.6697 80.9976 56.3817 82.2599 57.644C83.5221 58.9063 85.2341 59.6154 87.0192 59.6154C87.9031 59.6154 88.7784 59.4413 89.595 59.103C90.4116 58.7648 91.1536 58.269 91.7786 57.644C92.4036 57.019 92.8994 56.277 93.2376 55.4604C93.5759 54.6438 93.75 53.7685 93.75 52.8846V27.3077C93.75 25.45 92.9962 23.7538 91.7846 22.5423L91.8115 22.5154L81.7962 12.5L78.9423 15.3538L84.6231 21.0346C82.0923 21.9231 80.2885 24.4269 80.2885 27.3077C80.2885 28.1916 80.4626 29.0668 80.8008 29.8834C81.1391 30.7001 81.6348 31.4421 82.2599 32.0671C83.5221 33.3293 85.2341 34.0385 87.0192 34.0385C87.9885 34.0385 88.8769 33.8231 89.7115 33.4731V52.8846C89.7115 53.5987 89.4279 54.2835 88.923 54.7884C88.4181 55.2933 87.7333 55.5769 87.0192 55.5769C86.3052 55.5769 85.6204 55.2933 85.1155 54.7884C84.6106 54.2835 84.3269 53.5987 84.3269 52.8846V40.7692C84.3269 37.7808 81.9039 35.3846 78.9423 35.3846H76.25ZM85.1155 29.2114C85.6204 29.7163 86.3052 30 87.0192 30C87.7333 30 88.4181 29.7163 88.923 29.2114C89.4279 28.7065 89.7115 28.0217 89.7115 27.3077C89.7115 26.5936 89.4279 25.9088 88.923 25.4039C88.4181 24.899 87.7333 24.6154 87.0192 24.6154C86.3052 24.6154 85.6204 24.899 85.1155 25.4039C84.6106 25.9088 84.3269 26.5936 84.3269 27.3077C84.3269 28.0217 84.6106 28.7065 85.1155 29.2114Z" fill="#59CACA"/>
<g filter="url(#filter0_d_17876_3144)">
<path d="M54.3098 87.2855C54.3098 72.2887 66.4674 60.1296 81.4657 60.1296C88.1835 60.1296 94.3319 62.5694 99.0738 66.6132C104.916 71.5938 108.62 79.0065 108.62 87.2855C108.62 102.282 96.4625 114.44 81.4657 114.44C77.7295 114.44 74.1693 113.685 70.9291 112.32C61.1638 108.206 54.3098 98.5462 54.3098 87.2855Z" fill="white"/>
<path fill-rule="evenodd" clip-rule="evenodd" d="M58.333 87.2832C58.333 74.5073 68.6895 64.1489 81.4659 64.1489C87.1885 64.1489 92.426 66.2274 96.4653 69.6723C101.442 73.9153 104.597 80.2302 104.597 87.2832C104.597 100.059 94.241 110.416 81.4659 110.416C78.2832 110.416 75.2504 109.773 72.4902 108.61C64.1716 105.105 58.333 96.8762 58.333 87.2832ZM69.8272 89.1211L78.1035 97.3974L95.0427 80.4583L91.271 76.6866L78.1035 89.8674L73.5989 85.3494L69.8272 89.1211Z" fill="#05E0AC"/>
</g>
<defs>
<filter id="filter0_d_17876_3144" x="46.2032" y="53.6952" width="73.8693" height="73.8688" filterUnits="userSpaceOnUse" color-interpolation-filters="sRGB">
<feFlood flood-opacity="0" result="BackgroundImageFix"/>
<feColorMatrix in="SourceAlpha" type="matrix" values="0 0 0 0 0 0 0 0 0 0 0 0 0 0 0 0 0 0 127 0" result="hardAlpha"/>
<feOffset dx="1.67258" dy="3.34517"/>
<feGaussianBlur stdDeviation="2.95"/>
<feComposite in2="hardAlpha" operator="out"/>
<feColorMatrix type="matrix" values="0 0 0 0 0.00616667 0 0 0 0 0 0 0 0 0 0.308333 0 0 0 0.07 0"/>
<feBlend mode="normal" in2="BackgroundImageFix" result="effect1_dropShadow_17876_3144"/>
<feBlend mode="normal" in="SourceGraphic" in2="effect1_dropShadow_17876_3144" result="shape"/>
</filter>
<linearGradient id="paint0_linear_17876_3144" x1="137.082" y1="161.811" x2="52.1179" y2="-7.70194" gradientUnits="userSpaceOnUse">
<stop stop-color="#A7ACCA"/>
<stop offset="0.619894" stop-color="#D3D8F0"/>
</linearGradient>
</defs>
</svg>
