<svg width="120" height="120" viewBox="0 0 120 120" fill="none" xmlns="http://www.w3.org/2000/svg">
<path d="M22.5 11.25L65.729 11.25L86.5041 32.4265V103.015H22.5V11.25Z" fill="#F3F5F6"/>
<path d="M65.7291 32.4265L65.729 11.25L86.5041 32.4265H65.7291Z" fill="#DFE1E2"/>
<g filter="url(#filter0_d_18263_14397)">
<path d="M23.4375 35.3906L7.5 42.294V52.6491C7.5 62.1413 14.2292 71.1158 23.4375 73.3594C32.6458 71.1158 39.375 62.1413 39.375 52.6491V42.294L23.4375 35.3906Z" fill="white"/>
<path d="M23.4373 38.7412L10.3123 44.4264V52.9541C10.3123 60.7712 15.854 68.1619 23.4373 70.0096C31.0206 68.1619 36.5623 60.7712 36.5623 52.9541V44.4264L23.4373 38.7412Z" fill="#59CACA"/>
</g>
<g filter="url(#filter1_d_18263_14397)">
<path d="M63.2815 90.0011C63.2815 77.3163 73.5647 67.0317 86.2509 67.0317C91.933 67.0317 97.1336 69.0954 101.144 72.5158C106.086 76.7285 109.219 82.9985 109.219 90.0011C109.219 102.686 98.9357 112.969 86.2509 112.969C83.0907 112.969 80.0793 112.331 77.3386 111.176C69.0788 107.696 63.2815 99.5258 63.2815 90.0011Z" fill="white"/>
<path fill-rule="evenodd" clip-rule="evenodd" d="M86.2508 70.4316C75.4441 70.4316 66.6842 79.1931 66.6842 89.9994C66.6842 98.1134 71.6227 105.074 78.6588 108.038C80.9936 109.022 83.5587 109.566 86.2508 109.566C97.0564 109.566 105.816 100.806 105.816 89.9994C105.816 84.0338 103.147 78.6924 98.9378 75.1035C95.5212 72.1897 91.0911 70.4316 86.2508 70.4316Z" fill="url(#paint0_linear_18263_14397)"/>
<path d="M84.3656 94.2893C84.1345 94.2893 84.019 94.1734 84.019 93.9417L84.019 92.2037C84.019 91.161 84.2501 90.3036 84.7121 89.6316C85.1972 88.9595 85.9017 88.2412 86.8257 87.4765C87.6804 86.7581 88.3157 86.1093 88.7315 85.53C89.1704 84.9507 89.3898 84.2092 89.3898 83.3054C89.3898 82.2626 89.1011 81.44 88.5236 80.8375C87.9692 80.2119 87.2184 79.899 86.2713 79.899C85.3011 79.899 84.5157 80.2235 83.9151 80.8723C83.3145 81.4979 83.0142 82.3322 83.0142 83.3749L83.0142 84.2787C83.0142 84.5104 82.8987 84.6263 82.6677 84.6263L80.0343 84.4872C79.8033 84.4872 79.6878 84.3714 79.6878 84.1396L79.6878 83.3749C79.6878 81.4284 80.2999 79.8643 81.5242 78.6825C82.7485 77.4775 84.354 76.875 86.3406 76.875C88.281 76.875 89.8287 77.4543 90.9837 78.613C92.1388 79.7484 92.7163 81.2778 92.7163 83.2011C92.7163 84.2207 92.5546 85.1013 92.2312 85.8428C91.9309 86.5843 91.5613 87.1868 91.1224 87.6503C90.7065 88.1137 90.1521 88.6351 89.4591 89.2144C88.743 89.8169 88.2117 90.3383 87.8652 90.7786C87.5187 91.2189 87.3455 91.7519 87.3455 92.3775L87.3455 93.9417C87.3455 94.1734 87.23 94.2893 86.999 94.2893L84.3656 94.2893ZM85.6476 101.484C85.0008 101.484 84.4695 101.276 84.0537 100.859C83.6379 100.442 83.43 99.9086 83.43 99.2598C83.43 98.611 83.6379 98.078 84.0537 97.6609C84.4695 97.2438 85.0008 97.0352 85.6476 97.0352C86.2944 97.0352 86.8257 97.2438 87.2415 97.6609C87.6573 98.078 87.8652 98.611 87.8652 99.2598C87.8652 99.9086 87.6573 100.442 87.2415 100.859C86.8257 101.276 86.2944 101.484 85.6476 101.484Z" fill="white"/>
</g>
<defs>
<filter id="filter0_d_18263_14397" x="5.60133" y="34.2432" width="37.1747" height="43.2685" filterUnits="userSpaceOnUse" color-interpolation-filters="sRGB">
<feFlood flood-opacity="0" result="BackgroundImageFix"/>
<feColorMatrix in="SourceAlpha" type="matrix" values="0 0 0 0 0 0 0 0 0 0 0 0 0 0 0 0 0 0 127 0" result="hardAlpha"/>
<feOffset dx="0.75121" dy="1.50242"/>
<feGaussianBlur stdDeviation="1.32494"/>
<feComposite in2="hardAlpha" operator="out"/>
<feColorMatrix type="matrix" values="0 0 0 0 0.00616667 0 0 0 0 0 0 0 0 0 0.308333 0 0 0 0.07 0"/>
<feBlend mode="normal" in2="BackgroundImageFix" result="effect1_dropShadow_18263_14397"/>
<feBlend mode="normal" in="SourceGraphic" in2="effect1_dropShadow_18263_14397" result="shape"/>
</filter>
<filter id="filter1_d_18263_14397" x="58.1013" y="62.6025" width="57.7997" height="57.7997" filterUnits="userSpaceOnUse" color-interpolation-filters="sRGB">
<feFlood flood-opacity="0" result="BackgroundImageFix"/>
<feColorMatrix in="SourceAlpha" type="matrix" values="0 0 0 0 0 0 0 0 0 0 0 0 0 0 0 0 0 0 127 0" result="hardAlpha"/>
<feOffset dx="0.75121" dy="1.50242"/>
<feGaussianBlur stdDeviation="1.32494"/>
<feComposite in2="hardAlpha" operator="out"/>
<feColorMatrix type="matrix" values="0 0 0 0 0.00616667 0 0 0 0 0 0 0 0 0 0.308333 0 0 0 0.07 0"/>
<feBlend mode="normal" in2="BackgroundImageFix" result="effect1_dropShadow_18263_14397"/>
<feBlend mode="normal" in="SourceGraphic" in2="effect1_dropShadow_18263_14397" result="shape"/>
</filter>
<linearGradient id="paint0_linear_18263_14397" x1="137.93" y1="66.2115" x2="72.5512" y2="104.282" gradientUnits="userSpaceOnUse">
<stop stop-color="#FFA133"/>
<stop offset="1" stop-color="#FFC633"/>
</linearGradient>
</defs>
</svg>
