<svg width="16" height="16" viewBox="0 0 16 16" fill="none" xmlns="http://www.w3.org/2000/svg">
<g id="shield-lock">
<path id="Vector" d="M8 0.666748L2 3.33341V7.33341C2 11.0334 4.56 14.4934 8 15.3334C11.44 14.4934 14 11.0334 14 7.33341V3.33341L8 0.666748ZM8 4.66675C8.93333 4.66675 9.86667 5.40008 9.86667 6.33341V7.33341C10.2667 7.33341 10.6667 7.73341 10.6667 8.20008V10.5334C10.6667 10.9334 10.2667 11.3334 9.8 11.3334H6.13333C5.73333 11.3334 5.33333 10.9334 5.33333 10.4667V8.13341C5.33333 7.73341 5.73333 7.33341 6.13333 7.33341V6.33341C6.13333 5.40008 7.06667 4.66675 8 4.66675ZM8 5.46675C7.46667 5.46675 7 5.80008 7 6.33341V7.33341H9V6.33341C9 5.80008 8.53333 5.46675 8 5.46675Z" fill="#2FB8B8"/>
</g>
</svg>
