<svg width="22" height="19" viewBox="0 0 22 19" fill="none" xmlns="http://www.w3.org/2000/svg">
<g filter="url(#filter0_b_9213_16143)">
<path d="M12.6556 0H1.68218C1.04657 0 0.535156 0.511411 0.535156 1.14702V2.33788H12.6556V0Z" fill="#E4E4E7"/>
<path d="M16.0323 0H13.8332V2.33788H16.0323V0Z" fill="#E4E4E7"/>
<path d="M19.5297 1.14702C19.5297 0.511411 19.0183 0 18.3826 0H17.1918V2.33788H19.5224V1.14702H19.5297Z" fill="#E4E4E7"/>
<path d="M7.66568 12.4539C7.66568 8.3772 10.9679 5.07494 15.0446 5.07494C16.6957 5.07494 18.2227 5.61558 19.45 6.53612C19.4793 6.55073 19.5012 6.57265 19.5304 6.59456V2.95624H0.535156V15.4201C0.535156 16.0557 1.04657 16.5671 1.68218 16.5671H8.92229C8.92229 16.5671 8.87846 16.5159 8.86384 16.4867C8.10403 15.3324 7.66568 13.9443 7.66568 12.4539Z" fill="#A0A0AB"/>
<path d="M15.4648 6.72443C12.1479 6.72443 9.45202 9.41299 9.45202 12.7299C9.45202 16.0467 12.1479 18.7426 15.4648 18.7426C18.7816 18.7426 21.4775 16.054 21.4775 12.7299C21.4775 9.40569 18.7816 6.72443 15.4648 6.72443ZM17.7807 13.3216H16.0492V15.0458C16.0492 15.3673 15.7862 15.6303 15.4648 15.6303C15.1433 15.6303 14.873 15.3673 14.873 15.0458V13.3216H13.1488C12.8273 13.3216 12.5643 13.0586 12.5643 12.7299C12.5643 12.4011 12.8273 12.1454 13.1488 12.1454H14.873V10.4212C14.873 10.0924 15.136 9.82943 15.4648 9.82943C15.7935 9.82943 16.0492 10.0924 16.0492 10.4212V12.1454H17.7807C18.1022 12.1454 18.3652 12.4084 18.3652 12.7299C18.3652 13.0513 18.1022 13.3216 17.7807 13.3216Z" fill="#A0A0AB"/>
</g>
<defs>
<filter id="filter0_b_9213_16143" x="-1.70827" y="-2.24342" width="25.4283" height="23.2294" filterUnits="userSpaceOnUse" color-interpolation-filters="sRGB">
<feFlood flood-opacity="0" result="BackgroundImageFix"/>
<feGaussianBlur in="BackgroundImageFix" stdDeviation="1.12171"/>
<feComposite in2="SourceAlpha" operator="in" result="effect1_backgroundBlur_9213_16143"/>
<feBlend mode="normal" in="SourceGraphic" in2="effect1_backgroundBlur_9213_16143" result="shape"/>
</filter>
</defs>
</svg>
