<svg width="24" height="24" viewBox="0 0 24 24" fill="none" xmlns="http://www.w3.org/2000/svg">
<g filter="url(#filter0_b_7950_1005608)">
<path fill-rule="evenodd" clip-rule="evenodd" d="M4.71429 23.9997C7.31791 23.9997 9.42857 21.8891 9.42857 19.2854C9.42857 16.6818 7.31791 14.5712 4.71429 14.5712C2.11066 14.5712 0 16.6818 0 19.2854C0 21.8891 2.11066 23.9997 4.71429 23.9997ZM4.74898 21.98C4.67407 21.98 4.61278 21.9516 4.56511 21.895C4.51744 21.8421 4.49361 21.776 4.49361 21.6967V21.311C4.30576 21.2972 4.13551 21.2653 3.98287 21.2151C3.8024 21.1547 3.64918 21.0848 3.5232 21.0055C3.46191 20.964 3.41935 20.913 3.39551 20.8525C3.37168 20.7883 3.36317 20.7241 3.36998 20.6599C3.37679 20.5957 3.39722 20.541 3.43126 20.4956C3.46872 20.4465 3.51469 20.4163 3.56916 20.405C3.62364 20.3899 3.68664 20.405 3.75814 20.4503C3.85348 20.5107 3.97776 20.5693 4.13098 20.6259C4.28761 20.6788 4.47488 20.7052 4.6928 20.7052C4.86304 20.7052 5.00094 20.6826 5.1065 20.6373C5.21205 20.5919 5.28866 20.5296 5.33633 20.4503C5.3874 20.371 5.41294 20.2803 5.41294 20.1784C5.41294 20.0953 5.39592 20.0235 5.36187 19.9631C5.32782 19.8989 5.27164 19.8441 5.19332 19.7988C5.11501 19.7497 5.00946 19.71 4.87666 19.6798L4.33528 19.5495C4.02543 19.474 3.79389 19.3475 3.64067 19.1699C3.48745 18.9924 3.41083 18.7601 3.41083 18.4731C3.41083 18.2503 3.46021 18.052 3.55895 17.8782C3.65769 17.7007 3.79559 17.5591 3.97265 17.4533C4.12393 17.363 4.29758 17.3043 4.49361 17.2774V16.8755C4.49361 16.7962 4.51744 16.7301 4.56511 16.6772C4.61278 16.6205 4.67407 16.5922 4.74898 16.5922C4.82048 16.5922 4.88007 16.6205 4.92774 16.6772C4.97881 16.7301 5.00435 16.7962 5.00435 16.8755V17.2683C5.12074 17.2814 5.24502 17.311 5.37719 17.357C5.55425 17.4175 5.70577 17.5024 5.83175 17.612C5.88282 17.6573 5.91687 17.7102 5.9339 17.7706C5.95092 17.8272 5.95263 17.8839 5.93901 17.9406C5.92539 17.9934 5.89985 18.0388 5.86239 18.0765C5.82494 18.1143 5.77727 18.137 5.71939 18.1445C5.66491 18.1483 5.60192 18.1275 5.53041 18.0822C5.43167 18.018 5.32101 17.967 5.19843 17.9292C5.07585 17.8877 4.92944 17.8669 4.75919 17.8669C4.54128 17.8669 4.36933 17.9217 4.24334 18.0312C4.12077 18.137 4.05948 18.2767 4.05948 18.4504C4.05948 18.5788 4.09693 18.6827 4.17184 18.762C4.24675 18.8376 4.37443 18.898 4.5549 18.9433L5.1116 19.0793C5.43848 19.1586 5.67853 19.2851 5.83175 19.4589C5.98497 19.6288 6.06158 19.8536 6.06158 20.133C6.06158 20.3521 6.01221 20.5466 5.91347 20.7166C5.81472 20.8828 5.67853 21.0168 5.50488 21.1188C5.35922 21.2028 5.19238 21.2606 5.00435 21.2921V21.6967C5.00435 21.776 4.98051 21.8421 4.93284 21.895C4.88518 21.9516 4.82389 21.98 4.74898 21.98Z" fill="#A0A0AB"/>
<path d="M15.5569 2.03026V4.48977H5.24587C5.24587 3.93778 5.22202 3.39042 5.25382 2.84569C5.27568 2.47 5.62413 2.13656 5.99973 2.05601C6.12825 2.02828 6.26206 2.01639 6.39323 2.01639C9.35106 2.01441 12.3089 2.01441 15.2667 2.01507C15.3528 2.01507 15.4389 2.02365 15.5569 2.03026Z" fill="#E4E4E7"/>
<path d="M21.9911 4.50115H19.956V1.99872C20.4019 2.02249 20.8583 1.99212 21.2876 2.08587C21.7215 2.18095 21.9626 2.54014 21.9851 2.98649C22.0103 3.47773 21.9911 3.97095 21.9911 4.50115Z" fill="#E4E4E7"/>
<path d="M18.6561 4.50602H16.8244V2.03462H18.6561V4.50602Z" fill="#E4E4E7"/>
<path d="M10.0253 19.7877C10.1783 18.3027 9.82652 16.9749 8.89379 15.8247C7.95974 14.6725 6.73355 14.0453 5.251 13.8822V5.78065H21.9983C21.9983 5.89421 21.9983 6.00976 21.9983 6.12531C21.9983 10.285 21.9983 14.4441 21.9983 18.6038C21.9983 19.4034 21.6035 19.8055 20.8039 19.8062C17.3155 19.8088 13.8264 19.8075 10.3379 19.8062C10.2412 19.8062 10.1438 19.7943 10.0253 19.7877ZM14.2325 11.4847H14.2378C14.2378 12.1331 14.2331 12.7822 14.2391 13.4306C14.2431 13.8617 14.4749 14.1126 14.9095 14.1219C15.3387 14.1318 15.77 14.1172 16.1986 14.0875C16.8723 14.04 17.387 13.7019 17.7487 13.1466C18.2747 12.3391 18.327 11.4596 18.0846 10.5511C17.8236 9.57325 17.1068 8.96976 16.1012 8.89713C15.6951 8.86742 15.2851 8.87534 14.8777 8.89185C14.459 8.90968 14.2384 9.15134 14.2344 9.57193C14.2285 10.2098 14.2325 10.8469 14.2325 11.4847ZM12.8559 14.1668C13.3209 14.174 13.6051 13.7686 13.4289 13.2932C12.9347 11.9562 12.4227 10.6251 11.9126 9.29396C11.7986 8.99683 11.5701 8.84761 11.2468 8.84695C10.9215 8.84629 10.7043 9.00608 10.583 9.29726C10.4817 9.54024 10.3916 9.78718 10.2975 10.0335C9.8868 11.109 9.47675 12.1853 9.06669 13.2609C8.96998 13.5138 8.94414 13.793 9.16209 13.9608C9.32372 14.0849 9.60791 14.1826 9.78081 14.1245C9.97093 14.0605 10.1359 13.8254 10.2392 13.6267C10.334 13.4444 10.4194 13.3599 10.6294 13.3678C11.0255 13.383 11.4237 13.385 11.8198 13.3678C12.0537 13.3573 12.1848 13.422 12.2491 13.6603C12.3292 13.9588 12.5141 14.1635 12.8552 14.1681L12.8559 14.1668Z" fill="#A0A0AB"/>
<path d="M15.4947 12.8631V10.1579C16.4307 10.0074 16.9362 10.4088 16.966 11.3246C16.9726 11.5326 16.9812 11.7479 16.9368 11.9486C16.7765 12.6782 16.391 12.9238 15.4947 12.8631Z" fill="#A0A0AB"/>
<path d="M11.2415 11.0306C11.3998 11.4446 11.5224 11.7655 11.6582 12.1214H10.8361C10.964 11.7774 11.0839 11.4552 11.2415 11.0306Z" fill="#A0A0AB"/>
</g>
<defs>
<filter id="filter0_b_7950_1005608" x="-1.5" y="0.498718" width="24.998" height="25.001" filterUnits="userSpaceOnUse" color-interpolation-filters="sRGB">
<feFlood flood-opacity="0" result="BackgroundImageFix"/>
<feGaussianBlur in="BackgroundImageFix" stdDeviation="0.75"/>
<feComposite in2="SourceAlpha" operator="in" result="effect1_backgroundBlur_7950_1005608"/>
<feBlend mode="normal" in="SourceGraphic" in2="effect1_backgroundBlur_7950_1005608" result="shape"/>
</filter>
</defs>
</svg>
