<svg width="24" height="24" viewBox="0 0 24 24" fill="red" xmlns="http://www.w3.org/2000/svg">
<path d="M18.8611 12.7886C18.8155 12.7656 18.7698 12.7541 18.7237 12.7541C18.6245 12.7541 18.5371 12.7922 18.4609 12.8685L17.7293 13.5999C17.661 13.6686 17.6266 13.7523 17.6266 13.8515V16.7545C17.6266 17.2575 17.4479 17.6879 17.0895 18.0462C16.7314 18.4043 16.3008 18.5834 15.7979 18.5834H6.28798C5.78498 18.5834 5.35441 18.4043 4.9963 18.0462C4.63811 17.6879 4.45912 17.2576 4.45912 16.7545V7.24481C4.45912 6.74189 4.63811 6.31136 4.9963 5.95313C5.35441 5.59498 5.78498 5.41595 6.28798 5.41595H15.798C15.9656 5.41595 16.137 5.43881 16.3123 5.48457C16.358 5.4997 16.3923 5.50743 16.4149 5.50743C16.5141 5.50743 16.6018 5.46943 16.6779 5.39325L17.238 4.83317C17.3294 4.74185 17.3638 4.63127 17.3407 4.50184C17.3179 4.37989 17.2492 4.29222 17.1349 4.23893C16.7237 4.04869 16.2777 3.95312 15.7976 3.95312H6.28798C5.38119 3.95312 4.6058 4.27508 3.96189 4.919C3.31805 5.563 2.99609 6.33827 2.99609 7.24509V16.755C2.99609 17.6617 3.31805 18.437 3.96193 19.081C4.60584 19.725 5.38123 20.047 6.28802 20.047H15.7979C16.7045 20.047 17.48 19.725 18.1239 19.081C18.7679 18.437 19.0901 17.6617 19.0901 16.755V13.12C19.09 12.9601 19.0134 12.8497 18.8611 12.7886Z" fill="#E4E4E7"/>
<path d="M21.7967 6.53172L20.5392 5.27428C20.3564 5.09144 20.1391 5 19.8875 5C19.6363 5 19.4188 5.09144 19.2361 5.27428L11.8407 12.6697L8.83473 9.66351C8.65181 9.48055 8.43458 9.38923 8.18321 9.38923C7.93179 9.38923 7.71464 9.48055 7.53168 9.66351L6.2744 10.9208C6.09152 11.1037 6 11.3209 6 11.5724C6 11.8239 6.09152 12.041 6.2744 12.224L11.1893 17.1389C11.3722 17.3219 11.5895 17.4132 11.8408 17.4132C12.0922 17.4132 12.3094 17.3219 12.4924 17.1389L21.7966 7.83473C21.9793 7.65189 22.071 7.43462 22.071 7.18321C22.071 6.93179 21.9796 6.71456 21.7967 6.53172Z" fill="#888899"/>
</svg>
