<svg width="24" height="24" viewBox="0 0 24 24" fill="none" xmlns="http://www.w3.org/2000/svg">
<g opacity="0.5" filter="url(#filter0_b_7950_1005610)">
<path fill-rule="evenodd" clip-rule="evenodd" d="M17.5 22C20.2614 22 22.5 19.7614 22.5 17C22.5 14.2386 20.2614 12 17.5 12C14.7386 12 12.5 14.2386 12.5 17C12.5 19.7614 14.7386 22 17.5 22ZM17.5368 19.8578C17.4573 19.8578 17.3923 19.8278 17.3418 19.7677C17.2912 19.7116 17.2659 19.6415 17.2659 19.5574V19.1483C17.0667 19.1337 16.8861 19.0999 16.7243 19.0466C16.5329 18.9826 16.3703 18.9084 16.2367 18.8243C16.1717 18.7803 16.1266 18.7262 16.1013 18.6621C16.076 18.594 16.067 18.5259 16.0742 18.4578C16.0814 18.3897 16.1031 18.3316 16.1392 18.2835C16.1789 18.2315 16.2277 18.1994 16.2855 18.1874C16.3433 18.1714 16.4101 18.1874 16.4859 18.2355C16.587 18.2996 16.7188 18.3617 16.8813 18.4217C17.0475 18.4778 17.2461 18.5059 17.4772 18.5059C17.6578 18.5059 17.804 18.4818 17.916 18.4338C18.0279 18.3857 18.1092 18.3196 18.1597 18.2355C18.2139 18.1513 18.241 18.0552 18.241 17.947C18.241 17.8589 18.2229 17.7828 18.1868 17.7187C18.1507 17.6506 18.0911 17.5925 18.0081 17.5445C17.925 17.4924 17.8131 17.4503 17.6722 17.4183L17.098 17.2801C16.7694 17.2 16.5238 17.0658 16.3613 16.8775C16.1988 16.6892 16.1176 16.4429 16.1176 16.1384C16.1176 15.9021 16.1699 15.6918 16.2746 15.5075C16.3794 15.3192 16.5256 15.169 16.7134 15.0569C16.8739 14.961 17.058 14.8988 17.2659 14.8702V14.444C17.2659 14.3598 17.2912 14.2897 17.3418 14.2337C17.3923 14.1736 17.4573 14.1435 17.5368 14.1435C17.6126 14.1435 17.6758 14.1736 17.7264 14.2337C17.7806 14.2897 17.8076 14.3598 17.8076 14.444V14.8606C17.9311 14.8745 18.0629 14.9059 18.2031 14.9547C18.3909 15.0188 18.5516 15.1089 18.6852 15.2251C18.7394 15.2732 18.7755 15.3293 18.7935 15.3933C18.8116 15.4534 18.8134 15.5135 18.7989 15.5736C18.7845 15.6297 18.7574 15.6778 18.7177 15.7178C18.678 15.7579 18.6274 15.7819 18.566 15.7899C18.5082 15.7939 18.4414 15.7719 18.3656 15.7238C18.2609 15.6557 18.1435 15.6016 18.0135 15.5616C17.8835 15.5175 17.7282 15.4955 17.5476 15.4955C17.3165 15.4955 17.1341 15.5536 17.0005 15.6697C16.8705 15.7819 16.8055 15.9301 16.8055 16.1144C16.8055 16.2506 16.8452 16.3607 16.9247 16.4449C17.0041 16.525 17.1396 16.5891 17.3309 16.6371L17.9214 16.7814C18.2681 16.8655 18.5227 16.9997 18.6852 17.1839C18.8477 17.3642 18.929 17.6025 18.929 17.899C18.929 18.1313 18.8766 18.3376 18.7719 18.5179C18.6671 18.6941 18.5227 18.8363 18.3385 18.9445C18.184 19.0336 18.0071 19.0949 17.8076 19.1283V19.5574C17.8076 19.6415 17.7824 19.7116 17.7318 19.7677C17.6812 19.8278 17.6162 19.8578 17.5368 19.8578Z" fill="#A0A0AB"/>
</g>
<g filter="url(#filter1_b_7950_1005610)">
<path d="M16.807 2H4.44296C3.36969 2 2.5 2.87037 2.5 3.94448V20.0555C2.5 21.1296 3.36969 22 4.44296 22H14.3047C12.6174 20.9839 11.4881 19.1337 11.4881 17.0191C11.4881 13.8119 14.0866 11.2114 17.292 11.2114C17.7953 11.2114 18.2842 11.2754 18.75 11.396V3.94448C18.75 2.87037 17.8797 2 16.807 2ZM5.60452 18.4361C5.45431 18.5858 5.24743 18.6788 5.01814 18.6788H4.74208C4.28418 18.6788 3.91259 18.3075 3.91259 17.8493C3.91259 17.6205 4.00548 17.4128 4.1557 17.2624C4.30592 17.1121 4.51346 17.0191 4.74208 17.0191H5.01814C5.47605 17.0191 5.84764 17.391 5.84764 17.8493C5.84764 18.0781 5.75474 18.2858 5.60452 18.4361ZM5.60452 12.6765C5.45431 12.8262 5.24743 12.9192 5.01814 12.9192H4.74208C4.28418 12.9192 3.91259 12.5479 3.91259 12.0897C3.91259 11.8602 4.00548 11.6532 4.1557 11.5028C4.30592 11.3525 4.51346 11.2595 4.74208 11.2595H5.01814C5.47605 11.2595 5.84764 11.6314 5.84764 12.0897C5.84764 12.3191 5.75474 12.5262 5.60452 12.6765ZM5.60452 7.23737C5.45431 7.38705 5.24743 7.48002 5.01814 7.48002H4.74208C4.28418 7.48002 3.91259 7.1088 3.91259 6.65053C3.91259 6.42173 4.00548 6.21403 4.1557 6.06369C4.30592 5.91402 4.51346 5.82105 4.74208 5.82105H5.01814C5.47605 5.82105 5.84764 6.19227 5.84764 6.65053C5.84764 6.87933 5.75474 7.08704 5.60452 7.23737ZM10.1974 18.4361C10.0472 18.5858 9.83964 18.6788 9.61102 18.6788H7.85979C7.40188 18.6788 7.03029 18.3075 7.03029 17.8493C7.03029 17.6205 7.12319 17.4128 7.2734 17.2624C7.42362 17.1121 7.63116 17.0191 7.85979 17.0191H9.61102C10.0689 17.0191 10.4399 17.391 10.4399 17.8493C10.4399 18.0781 10.347 18.2858 10.1974 18.4361ZM11.2456 12.6765C11.0954 12.8262 10.8885 12.9192 10.6593 12.9192H7.85979C7.40188 12.9192 7.03029 12.5479 7.03029 12.0897C7.03029 11.8602 7.12319 11.6532 7.2734 11.5028C7.42362 11.3525 7.63116 11.2595 7.85979 11.2595H10.6593C11.1172 11.2595 11.4881 11.6314 11.4881 12.0897C11.4881 12.3191 11.3952 12.5262 11.2456 12.6765ZM17.0495 7.23737C16.8993 7.38705 16.6917 7.48002 16.4631 7.48002H7.85979C7.40188 7.48002 7.03029 7.1088 7.03029 6.65053C7.03029 6.42173 7.12319 6.21403 7.2734 6.06369C7.42362 5.91402 7.63116 5.82105 7.85979 5.82105H16.4631C16.921 5.82105 17.292 6.19227 17.292 6.65053C17.292 6.87933 17.1991 7.08704 17.0495 7.23737Z" fill="#A0A0AB"/>
</g>
<defs>
<filter id="filter0_b_7950_1005610" x="11" y="10.5" width="13" height="13" filterUnits="userSpaceOnUse" color-interpolation-filters="sRGB">
<feFlood flood-opacity="0" result="BackgroundImageFix"/>
<feGaussianBlur in="BackgroundImageFix" stdDeviation="0.75"/>
<feComposite in2="SourceAlpha" operator="in" result="effect1_backgroundBlur_7950_1005610"/>
<feBlend mode="normal" in="SourceGraphic" in2="effect1_backgroundBlur_7950_1005610" result="shape"/>
</filter>
<filter id="filter1_b_7950_1005610" x="1" y="0.5" width="19.25" height="23" filterUnits="userSpaceOnUse" color-interpolation-filters="sRGB">
<feFlood flood-opacity="0" result="BackgroundImageFix"/>
<feGaussianBlur in="BackgroundImageFix" stdDeviation="0.75"/>
<feComposite in2="SourceAlpha" operator="in" result="effect1_backgroundBlur_7950_1005610"/>
<feBlend mode="normal" in="SourceGraphic" in2="effect1_backgroundBlur_7950_1005610" result="shape"/>
</filter>
</defs>
</svg>
