<svg width="24" height="24" viewBox="0 0 24 24" fill="none" xmlns="http://www.w3.org/2000/svg">
<path d="M6.93569 12.0042C6.93569 10.9889 6.10968 10.1629 5.0944 10.1629H3.83805C2.82531 10.1629 1.99609 10.9817 1.99609 12.0049C1.99609 13.0328 2.83047 13.8468 3.83805 13.8468H5.09378C6.10905 13.8468 6.93569 13.0259 6.93569 12.0042Z" fill="#F4F4F5"/>
<path d="M11.9958 1.99536C10.9679 1.99536 10.1539 2.82974 10.1539 3.83732V5.09305C10.1539 6.10207 10.9694 6.935 11.9958 6.935C13.0048 6.935 13.8378 6.11942 13.8378 5.09305V3.83732C13.8378 2.82458 13.0189 1.99536 11.9958 1.99536Z" fill="#51525C"/>
<path d="M20.1588 10.1629H18.903C17.894 10.1629 17.0611 10.9785 17.0611 12.0049C17.0611 13.0139 17.8767 13.8468 18.903 13.8468H20.1588C21.1715 13.8468 22.0007 13.028 22.0007 12.0049C22.0007 10.9769 21.1664 10.1629 20.1588 10.1629Z" fill="#51525C"/>
<path d="M15.5959 8.42683C16.3142 9.14128 17.4678 9.12936 18.1738 8.42312L19.0739 7.52309C19.7916 6.80544 19.7916 5.63733 19.074 4.91925C19.0695 4.91471 19.065 4.9103 19.0603 4.90592C18.3323 4.19183 17.1757 4.21129 16.4684 4.91878L15.5914 5.79571C14.8675 6.52008 14.8676 7.69844 15.5915 8.42249C15.5929 8.42394 15.5944 8.42539 15.5959 8.42683Z" fill="#51525C"/>
<path d="M8.43295 15.5908C7.70897 14.8669 6.53058 14.8667 5.80605 15.5908L4.92924 16.4676C4.22276 17.1739 4.19705 18.3404 4.9292 19.0725C5.6613 19.8047 6.82782 19.779 7.53409 19.0725L8.4335 18.1731C9.13841 17.4683 9.15306 16.3148 8.43721 15.5951C8.4358 15.5936 8.43436 15.5922 8.43295 15.5908Z" fill="#BDBDC1"/>
<path d="M11.9958 17.0604C10.9868 17.0604 10.1539 17.8759 10.1539 18.9023V20.158C10.1539 21.1707 10.9727 22 11.9958 22C13.0238 22 13.8378 21.1656 13.8378 20.158V18.9023C13.8378 17.8933 13.0222 17.0604 11.9958 17.0604Z" fill="#BDBDC1"/>
<path d="M18.1739 15.5629C17.469 14.8579 16.3155 14.8435 15.5958 15.5592C15.5944 15.5606 15.5929 15.5621 15.5915 15.5635C14.8675 16.2875 14.8675 17.4659 15.5915 18.1904L16.4684 19.0672C17.1749 19.7739 18.3314 19.7951 19.0603 19.0801C19.065 19.0757 19.0695 19.0713 19.0741 19.0668C19.7916 18.3487 19.7916 17.1806 19.0739 16.4629L18.1739 15.5629Z" fill="#BDBDC1"/>
<path d="M5.81688 8.41173C6.535 9.1302 7.70308 9.12961 8.42209 8.41106C9.13982 7.69283 9.13955 6.52468 8.42186 5.80746C8.13607 5.5214 7.81926 5.20454 7.53355 4.91884C6.82724 4.21236 5.67065 4.19075 4.94159 4.90594C4.93694 4.91028 4.93237 4.91473 4.92783 4.91927C4.21026 5.63735 4.2103 6.80546 4.92799 7.52311C5.21393 7.80905 5.53094 8.12606 5.81688 8.41173Z" fill="#F4F4F5"/>
</svg>
