<svg width="208" height="32" viewBox="0 0 208 32" fill="none" xmlns="http://www.w3.org/2000/svg">
<path d="M19.7076 31.7175C18.9219 31.7175 18.203 31.2587 17.8487 30.5362L16.2825 27.3616L11.6097 17.8428C11.4197 17.4525 10.8857 17.4525 10.6906 17.8428L6.01775 27.3616L4.45159 30.5362C4.09215 31.264 3.37839 31.7175 2.59274 31.7175C1.03171 31.7175 0.020123 30.0036 0.733882 28.5587L1.3244 27.3616L10.6906 8.26597C10.8806 7.87573 11.4146 7.87573 11.6097 8.26597L20.9759 27.3616L21.5664 28.5587C22.2802 30.0036 21.2686 31.7175 19.7076 31.7175Z" fill="black"/>
<path d="M106.381 10.1286C106.381 11.2994 105.457 12.2486 104.317 12.2486H96.9126V29.6092C96.9126 30.7799 95.9883 31.7292 94.8483 31.7292C93.7083 31.7292 92.784 30.7799 92.784 29.6092V12.2433H85.3794C84.2395 12.2433 83.3152 11.2941 83.3152 10.1234C83.3152 8.95262 84.2395 8.00338 85.3794 8.00338H104.317C105.457 8.00338 106.381 8.95262 106.381 10.1234V10.1286Z" fill="black"/>
<path d="M128.353 27.5261L128.933 28.6862C129.631 30.089 128.64 31.7607 127.105 31.7607C126.335 31.7607 125.626 31.3177 125.277 30.6111L123.736 27.5261L121.528 23.0857L121.431 22.88C120.707 21.6618 119.418 20.8497 117.934 20.8497H113.81V29.6513C113.81 30.8168 112.891 31.7607 111.756 31.7607H111.746C110.611 31.7607 109.692 30.8168 109.692 29.6513V8.0455H124.275C125.991 8.0455 127.541 8.75743 128.661 9.90707C129.78 11.0567 130.473 12.6493 130.473 14.416C130.473 16.9895 128.989 19.2255 126.843 20.2433C126.283 20.5122 125.688 20.6862 125.061 20.7495L128.363 27.5261H128.353ZM124.26 16.615C124.558 16.615 124.856 16.5465 125.118 16.4094C125.878 16.0719 126.37 15.2914 126.37 14.4423C126.37 13.6618 125.975 13.1187 125.744 12.8866C125.482 12.6177 124.984 12.2749 124.26 12.2749H113.8V16.6467L124.26 16.615Z" fill="black"/>
<path d="M152.657 31.6921C151.897 31.6921 151.199 31.2544 150.855 30.5582L149.309 27.4574L144.713 18.2023C144.523 17.8226 144 17.8226 143.81 18.2023L139.214 27.4574L137.668 30.5582C137.324 31.2544 136.626 31.6921 135.866 31.6921H135.799C134.284 31.6921 133.309 30.0467 133.997 28.665L143.815 8.88389C144.005 8.50419 144.529 8.50419 144.719 8.88389L154.537 28.665C155.225 30.0467 154.249 31.6921 152.734 31.6921H152.657Z" fill="black"/>
<path d="M169.527 8.00894C175.894 8.00894 181.076 13.2931 181.076 19.8323C181.076 22.7486 180.054 25.4223 178.339 27.4895C178.138 27.7268 177.912 27.9641 177.676 28.2014C175.597 30.3689 172.726 31.6925 169.563 31.6925H162.066C159.827 31.6925 158.014 29.831 158.014 27.5317V12.1381C158.014 9.83887 159.827 7.9773 162.066 7.9773H169.563L169.532 8.00894H169.527ZM176.942 19.4789C176.742 15.3867 173.301 12.2436 169.311 12.2436H163.119C162.559 12.2436 162.107 12.7077 162.107 13.2825V26.4506C162.107 27.0254 162.559 27.4895 163.119 27.4895H169.527C173.743 27.4895 177.152 23.856 176.942 19.4789Z" fill="black"/>
<path d="M188.531 14.3794V16.5838H201.317C202.457 16.5838 203.381 17.533 203.381 18.7037C203.381 19.8745 202.457 20.8237 201.317 20.8237H188.531V25.2957C188.531 26.4875 189.481 27.4631 190.641 27.4631H205.435C206.575 27.4631 207.499 28.4124 207.499 29.5831C207.499 30.7538 206.575 31.7031 205.435 31.7031H190.641C187.216 31.7031 184.438 28.8501 184.438 25.3326V14.3794C184.438 10.8567 187.242 7.9773 190.672 7.9773H205.435C206.575 7.9773 207.499 8.92654 207.499 10.0973C207.499 11.268 206.575 12.2172 205.435 12.2172H190.641C189.481 12.2172 188.531 13.1929 188.531 14.3847V14.3794Z" fill="black"/>
<path d="M49.8769 9.77025V30.912C49.8769 31.355 49.3891 31.6081 49.0502 31.3339L45.6868 28.6496L30.5952 16.5626V29.8203C30.5952 31.0227 29.6555 31.9983 28.5001 31.9983C27.3447 31.9983 26.405 31.0227 26.405 29.8203V8.76827C26.405 8.32529 26.8929 8.07216 27.2318 8.34638L30.5952 11.0306L45.6868 23.1176V9.77025C45.6868 8.5626 46.6368 7.58172 47.7973 7.59226C48.9475 7.60281 49.8769 8.57315 49.8769 9.77025Z" fill="black"/>
<path d="M77.9939 30.9991C79.1777 29.8815 79.2459 27.9795 78.1461 26.7509C77.0464 25.5222 75.1953 25.4322 74.0114 26.5498C72.8276 27.6674 72.7594 29.5693 73.8591 30.798C74.9589 32.0266 76.81 32.1167 77.9939 30.9991Z" fill="#FA5F07"/>
<path d="M63.1609 31.207C64.1622 31.5287 65.1943 31.7185 66.2316 31.7713C65.1687 31.7238 64.1417 31.5287 63.1609 31.207Z" fill="black"/>
<path d="M78.9326 19.3205C78.9326 19.5789 78.9224 19.8425 78.907 20.1009C78.8916 20.3172 78.8762 20.5387 78.8505 20.7549C78.8351 20.8814 78.8197 21.0027 78.8043 21.124C78.5527 22.242 77.4897 22.9539 76.3857 22.7219C76.3446 22.7114 76.2984 22.7008 76.2573 22.6903L75.9903 22.5953C75.1636 22.242 74.6398 21.3719 74.7117 20.449C74.7271 20.3541 74.7374 20.2644 74.7425 20.1695C74.7425 20.1484 74.7528 20.122 74.7528 20.1009C74.7785 19.8425 74.7887 19.5841 74.7887 19.3205C74.7887 18.2288 74.5833 17.1899 74.2033 16.2407C73.9158 15.5024 73.5255 14.8221 73.0428 14.2104C72.9401 14.068 72.8272 13.9309 72.7091 13.799C72.6783 13.7568 72.6423 13.7199 72.6064 13.6777C72.4112 13.4563 72.2058 13.2506 71.9953 13.0607C69.207 10.5347 65.1145 10.2763 62.1054 12.4015C61.8024 12.6178 61.5097 12.8551 61.2324 13.1187C59.6201 14.6375 58.7625 16.6889 58.6752 18.7826C58.665 19.0304 58.665 19.2835 58.6752 19.5314V19.542C58.6906 19.9058 58.7317 20.2697 58.7985 20.6336C59.0604 22.1365 59.733 23.5868 60.8216 24.805C61.0989 25.1161 61.3968 25.4062 61.71 25.6593C61.7665 25.7067 61.823 25.7489 61.8794 25.7964C61.9565 25.8597 62.0386 25.923 62.1208 25.981C62.1259 25.9862 62.1311 25.9915 62.1362 25.9915C62.2492 26.0759 62.3621 26.1603 62.4802 26.2288C63.7229 27.0568 65.2069 27.5314 66.7936 27.5314C67.1325 27.5314 67.4611 27.5103 67.7898 27.4681H67.8052C68.0003 27.447 68.1954 27.4576 68.3957 27.4998C69.5151 27.7371 70.2494 28.8603 70.0338 30.01C69.8694 30.8801 69.207 31.5182 68.4111 31.6764C68.329 31.6922 68.2417 31.7028 68.1544 31.7081C68.0311 31.7239 67.9079 31.7344 67.7847 31.745C67.6203 31.7608 67.456 31.7713 67.2917 31.7766C67.1222 31.7819 66.9579 31.7872 66.7936 31.7872C66.6087 31.7872 66.4187 31.7819 66.2339 31.7713C65.1966 31.7186 64.1645 31.5288 63.1632 31.2071C62.9064 31.128 62.66 31.0383 62.4135 30.9329C62.2748 30.8801 62.1362 30.8221 62.0027 30.7641C61.8486 30.6955 61.6997 30.627 61.5508 30.5479C61.3762 30.4635 61.2016 30.3686 61.0322 30.2789H61.027C60.8525 30.1735 60.683 30.0733 60.5187 29.9731C59.5225 29.3666 58.5982 28.6019 57.7715 27.6791C56.8831 26.6824 56.1745 25.5802 55.6507 24.4147C55.3324 23.7133 55.0808 22.9909 54.8959 22.2578C54.7059 21.5037 54.5878 20.739 54.5365 19.9691C54.5211 19.7318 54.5108 19.4945 54.5056 19.2519V19.004L54.4851 5.99943C54.4851 4.81815 55.4145 3.86891 56.5648 3.87946C57.715 3.89 58.6496 4.86034 58.6547 6.04162V9.71729L62.0438 1.30596C62.4802 0.214329 63.6972 -0.291934 64.7653 0.17214C65.8282 0.636214 66.3366 1.89132 65.895 2.98295L64.3186 6.90648C68.3341 6.13127 72.6577 7.46021 75.6514 10.8036C75.9133 11.0937 76.1546 11.3943 76.3754 11.7002C76.5243 11.8953 76.663 12.0957 76.8016 12.3013C76.8581 12.3804 76.9095 12.4595 76.9557 12.5387C77.043 12.6705 77.12 12.7971 77.197 12.9289C78.2959 14.8063 78.9326 16.9895 78.9326 19.3205Z" fill="#FA5F07"/>
<path d="M74.7354 20.2005C74.7354 20.2005 74.7405 20.1794 74.7405 20.1688C74.7354 20.2638 74.7251 20.3534 74.7097 20.4483C74.7097 20.3692 74.72 20.2849 74.7354 20.2005Z" fill="#FA5F07"/>
</svg>
