<svg width="130" height="49" viewBox="0 0 130 49" fill="none" xmlns="http://www.w3.org/2000/svg">
<g clip-path="url(#clip0_4485_665065)">
<path d="M16.7695 21.4519L16.8914 21.5964L23.7386 29.6474L23.9773 29.9277L24.2161 29.6474L31.0645 21.5964L31.1864 21.4519L31.116 21.2772L24.2689 4.11335L23.9773 3.38452L23.687 4.11335L16.8387 21.2772L16.7695 21.4519Z" fill="url(#paint0_linear_4485_665065)"/>
<path d="M43.5869 21.1401L29.2203 12.3716L34.387 21.2582L23.9768 34.4023L13.5667 21.2582L18.7334 12.3716L4.36806 21.1401L4.04883 21.3274L4.28511 21.6114L23.7368 44.9351L23.9768 45.2228L24.2181 44.9351L43.6686 21.6114L43.9061 21.3274L43.5869 21.1401Z" fill="url(#paint1_linear_4485_665065)"/>
<path d="M13.1753 21.0938L4.52344 21.232L23.9739 44.5557V34.7279L13.1753 21.0938Z" fill="url(#paint2_linear_4485_665065)"/>
<path d="M18.087 12.9272L4.52344 21.2321L13.1753 21.0939L18.087 12.9272Z" fill="url(#paint3_linear_4485_665065)"/>
<path d="M29.8633 12.9272L34.7749 21.0939L43.428 21.2321L29.8633 12.9272Z" fill="url(#paint4_linear_4485_665065)"/>
<path d="M34.7751 21.0938L23.9766 34.7279V44.5557L43.4282 21.232L34.7751 21.0938Z" fill="url(#paint5_linear_4485_665065)"/>
<path d="M23.9739 4.05151L17.127 21.2155L23.9739 29.2666V4.05151Z" fill="url(#paint6_linear_4485_665065)"/>
<path d="M23.9766 4.05151L30.8247 21.2155L23.9766 29.2666V4.05151Z" fill="url(#paint7_linear_4485_665065)"/>
<path d="M13.1753 21.0938L4.52344 21.232L23.9739 44.5557V34.7278L13.1753 21.0938Z" fill="url(#paint8_linear_4485_665065)"/>
<path d="M18.087 12.9272L4.52344 21.232L13.1753 21.0938L18.087 12.9272Z" fill="url(#paint9_linear_4485_665065)"/>
<path d="M29.8613 12.9272L34.7729 21.0939L43.4261 21.2321L29.8613 12.9272Z" fill="url(#paint10_linear_4485_665065)"/>
<path d="M34.7751 21.0938L23.9766 34.7278V44.5557L43.4282 21.232L34.7751 21.0938Z" fill="url(#paint11_linear_4485_665065)"/>
<path d="M23.9739 4.05151L17.127 21.2155L23.9739 29.2666V4.05151Z" fill="url(#paint12_linear_4485_665065)"/>
<path d="M23.9766 4.05151L30.8247 21.2155L23.9766 29.2666V4.05151Z" fill="url(#paint13_linear_4485_665065)"/>
<g style="mix-blend-mode:color-dodge" opacity="0.5">
<ellipse cx="24" cy="17" rx="1" ry="12.5" fill="url(#paint14_radial_4485_665065)"/>
</g>
<g style="mix-blend-mode:color-dodge" opacity="0.4">
<ellipse cx="24" cy="39.5" rx="1" ry="5" fill="url(#paint15_radial_4485_665065)"/>
</g>
<g style="mix-blend-mode:color-dodge" opacity="0.6">
<ellipse cx="8.80078" cy="21.2319" rx="1" ry="4.5" transform="rotate(-90 8.80078 21.2319)" fill="url(#paint16_radial_4485_665065)"/>
</g>
<g style="mix-blend-mode:color-dodge" opacity="0.6">
<ellipse cx="38.5" cy="21.2319" rx="1" ry="4.5" transform="rotate(-90 38.5 21.2319)" fill="url(#paint17_radial_4485_665065)"/>
</g>
<path d="M66.5827 15.2967L66.7194 15.0112H66.4037H62.0227H61.888L61.8378 15.1339L58.448 23.2746L58.446 23.2786L57.4005 25.9023L56.355 23.2786L56.353 23.2726L52.8346 15.1319L52.7843 15.0112H52.6516H48.2063H47.8906L48.0273 15.2967L56.8858 33.8742L56.9401 33.9867H57.0647H57.5774H57.7021L57.7564 33.8742L66.5827 15.2967Z" fill="white"/>
<path d="M68.3475 15.0576H68.1465V15.2567V33.7416V33.9406H68.3475H72.441H72.64V33.7416V15.2567V15.0576H72.441H68.3475Z" fill="white"/>
<path d="M91.6902 15.2306V15.0315H91.4911H87.5565H87.3574V15.2306V23.7694V23.7774V23.7834L87.4821 25.7558L86.7442 24.9596L86.7362 24.9536L76.215 14.7702L76.1587 14.7139H76.0763H75.7244H75.5254V14.9129V33.7155V33.9146H75.7244H79.6591H79.8581V33.7155V25.4944V25.4884V25.4823L79.7335 23.4638L80.3447 24.1192L80.3487 24.1232L80.3527 24.1272L91.0327 34.2302L91.091 34.2865H91.1714H91.4911H91.6902V34.0855V15.2306Z" fill="white"/>
<path d="M109.649 30.7439V30.5448H109.45H101.368V25.4823H109.45H109.649V25.2812V22.4705V22.2714H109.45H101.368V18.3469H109.551H109.75V18.1478V15.2567V15.0576H109.551H97.1697H96.9707V15.2567V33.7416V33.9406H97.1697H109.45H109.649V33.7416V30.7439Z" fill="white"/>
<path d="M123.919 33.8381L123.977 33.9406H124.094H129.018H129.386L129.186 33.633L123.275 24.5494L129.028 15.3632L129.219 15.0576H128.859H124.158H124.037L123.981 15.1622L120.35 21.8955L116.592 15.1602L116.536 15.0576H116.42H111.622H111.256L111.453 15.3652L117.157 24.2237L111.355 33.6371L111.168 33.9406H111.526H116.291H116.409L116.466 33.8361L120.115 27.0103L123.919 33.8381Z" fill="white"/>
</g>
<defs>
<linearGradient id="paint0_linear_4485_665065" x1="33.2828" y1="0.108444" x2="19.0168" y2="30.9234" gradientUnits="userSpaceOnUse">
<stop stop-color="#F6B430"/>
<stop offset="0.13" stop-color="#F7B93B"/>
<stop offset="0.35" stop-color="#F8C558"/>
<stop offset="0.64" stop-color="#FBD887"/>
<stop offset="0.98" stop-color="#FFF3C8"/>
<stop offset="1" stop-color="#FFF5CC"/>
</linearGradient>
<linearGradient id="paint1_linear_4485_665065" x1="27.302" y1="4.32682" x2="19.9296" y2="42.0344" gradientUnits="userSpaceOnUse">
<stop stop-color="#F6B430"/>
<stop offset="0.13" stop-color="#F7B93B"/>
<stop offset="0.35" stop-color="#F8C558"/>
<stop offset="0.64" stop-color="#FBD887"/>
<stop offset="0.98" stop-color="#FFF3C8"/>
<stop offset="1" stop-color="#FFF5CC"/>
</linearGradient>
<linearGradient id="paint2_linear_4485_665065" x1="4.95596" y1="19.2086" x2="25.9959" y2="43.5036" gradientUnits="userSpaceOnUse">
<stop stop-color="#FFC859"/>
<stop offset="1" stop-color="#C27718"/>
</linearGradient>
<linearGradient id="paint3_linear_4485_665065" x1="6.44809" y1="22.716" x2="18.0546" y2="15.2091" gradientUnits="userSpaceOnUse">
<stop stop-color="#E49B1B"/>
<stop offset="1" stop-color="#FFF5CC"/>
</linearGradient>
<linearGradient id="paint4_linear_4485_665065" x1="44.0051" y1="25.0687" x2="30.6704" y2="14.4456" gradientUnits="userSpaceOnUse">
<stop stop-color="#E49B1B"/>
<stop offset="1" stop-color="#FFF5CC"/>
</linearGradient>
<linearGradient id="paint5_linear_4485_665065" x1="20.5578" y1="44.8681" x2="51.4096" y2="5.21765" gradientUnits="userSpaceOnUse">
<stop stop-color="#F6B430"/>
<stop offset="0.13" stop-color="#F7B93B"/>
<stop offset="0.35" stop-color="#F8C558"/>
<stop offset="0.64" stop-color="#FBD887"/>
<stop offset="0.98" stop-color="#FFF3C8"/>
<stop offset="1" stop-color="#FFF5CC"/>
</linearGradient>
<linearGradient id="paint6_linear_4485_665065" x1="25.9358" y1="18.478" x2="17.6629" y2="10.8036" gradientUnits="userSpaceOnUse">
<stop stop-color="#E49B1B"/>
<stop offset="1" stop-color="#FFF5CC"/>
</linearGradient>
<linearGradient id="paint7_linear_4485_665065" x1="20.6643" y1="21.4533" x2="30.7352" y2="8.26341" gradientUnits="userSpaceOnUse">
<stop stop-color="#F6B430"/>
<stop offset="1" stop-color="#FFF5CC"/>
</linearGradient>
<linearGradient id="paint8_linear_4485_665065" x1="5.38856" y1="0.796969" x2="50.1619" y2="52.6808" gradientUnits="userSpaceOnUse">
<stop stop-color="#FFC859"/>
<stop offset="1" stop-color="#C27718"/>
</linearGradient>
<linearGradient id="paint9_linear_4485_665065" x1="10.044" y1="51.7927" x2="51.2936" y2="36.1022" gradientUnits="userSpaceOnUse">
<stop stop-color="#E49B1B"/>
<stop offset="1" stop-color="#FFF5CC"/>
</linearGradient>
<linearGradient id="paint10_linear_4485_665065" x1="45.0833" y1="63.2672" x2="-6.18234" y2="39.2504" gradientUnits="userSpaceOnUse">
<stop stop-color="#E49B1B"/>
<stop offset="1" stop-color="#FFF5CC"/>
</linearGradient>
<linearGradient id="paint11_linear_4485_665065" x1="-2.3144" y1="45.095" x2="48.5494" y2="-30.6383" gradientUnits="userSpaceOnUse">
<stop stop-color="#F6B430"/>
<stop offset="0.13" stop-color="#F7B93B"/>
<stop offset="0.35" stop-color="#F8C558"/>
<stop offset="0.64" stop-color="#FBD887"/>
<stop offset="0.98" stop-color="#FFF3C8"/>
<stop offset="1" stop-color="#FFF5CC"/>
</linearGradient>
<linearGradient id="paint12_linear_4485_665065" x1="54.5758" y1="27.2256" x2="47.1435" y2="2.83725" gradientUnits="userSpaceOnUse">
<stop stop-color="#E49B1B"/>
<stop offset="1" stop-color="#FFF5CC"/>
</linearGradient>
<linearGradient id="paint13_linear_4485_665065" x1="20.6643" y1="21.4533" x2="30.7352" y2="8.26341" gradientUnits="userSpaceOnUse">
<stop stop-color="#F6B430"/>
<stop offset="1" stop-color="#FFF5CC"/>
</linearGradient>
<radialGradient id="paint14_radial_4485_665065" cx="0" cy="0" r="1" gradientUnits="userSpaceOnUse" gradientTransform="translate(24 17) rotate(90) scale(12.5 0.603793)">
<stop offset="0.529414" stop-color="#FFF2C5"/>
<stop offset="1" stop-opacity="0"/>
</radialGradient>
<radialGradient id="paint15_radial_4485_665065" cx="0" cy="0" r="1" gradientUnits="userSpaceOnUse" gradientTransform="translate(24 39.5) rotate(90) scale(5 0.390484)">
<stop offset="0.529414" stop-color="#FFEEB5"/>
<stop offset="1" stop-opacity="0"/>
</radialGradient>
<radialGradient id="paint16_radial_4485_665065" cx="0" cy="0" r="1" gradientUnits="userSpaceOnUse" gradientTransform="translate(8.80078 21.2319) rotate(90) scale(4.69922 0.269251)">
<stop offset="0.529414" stop-color="#FFEEB5"/>
<stop offset="1" stop-opacity="0"/>
</radialGradient>
<radialGradient id="paint17_radial_4485_665065" cx="0" cy="0" r="1" gradientUnits="userSpaceOnUse" gradientTransform="translate(38.5 21.2319) rotate(90) scale(4.69922 0.269251)">
<stop offset="0.529414" stop-color="#FFEEB5"/>
<stop offset="1" stop-opacity="0"/>
</radialGradient>
<clipPath id="clip0_4485_665065">
<rect width="129.386" height="48.7365" fill="white" transform="translate(0 0.131836)"/>
</clipPath>
</defs>
</svg>
