<svg width="130" height="49" viewBox="0 0 130 49" fill="none" xmlns="http://www.w3.org/2000/svg">
<g clip-path="url(#clip0_4478_628330)">
<path d="M16.7695 21.3201L16.8914 21.4646L23.7386 29.5156L23.9773 29.7958L24.2161 29.5156L31.0645 21.4646L31.1864 21.3201L31.116 21.1454L24.2689 3.98151L23.9773 3.25269L23.687 3.98151L16.8387 21.1454L16.7695 21.3201Z" fill="url(#paint0_linear_4478_628330)"/>
<path d="M43.5869 21.0083L29.2203 12.2397L34.387 21.1264L23.9768 34.2704L13.5667 21.1264L18.7334 12.2397L4.36806 21.0083L4.04883 21.1955L4.28511 21.4795L23.7368 44.8032L23.9768 45.091L24.2181 44.8032L43.6686 21.4795L43.9061 21.1955L43.5869 21.0083Z" fill="url(#paint1_linear_4478_628330)"/>
<path d="M13.1753 20.9619L4.52344 21.1001L23.9739 44.4239V34.596L13.1753 20.9619Z" fill="url(#paint2_linear_4478_628330)"/>
<path d="M18.087 12.7954L4.52344 21.1003L13.1753 20.962L18.087 12.7954Z" fill="url(#paint3_linear_4478_628330)"/>
<path d="M29.8633 12.7954L34.7749 20.962L43.428 21.1003L29.8633 12.7954Z" fill="url(#paint4_linear_4478_628330)"/>
<path d="M34.7751 20.9619L23.9766 34.596V44.4239L43.4282 21.1001L34.7751 20.9619Z" fill="url(#paint5_linear_4478_628330)"/>
<path d="M23.9739 3.91968L17.127 21.0837L23.9739 29.1347V3.91968Z" fill="url(#paint6_linear_4478_628330)"/>
<path d="M23.9766 3.91968L30.8247 21.0837L23.9766 29.1347V3.91968Z" fill="url(#paint7_linear_4478_628330)"/>
<path d="M13.1753 20.9619L4.52344 21.1001L23.9739 44.4239V34.596L13.1753 20.9619Z" fill="url(#paint8_linear_4478_628330)"/>
<path d="M18.087 12.7954L4.52344 21.1001L13.1753 20.9619L18.087 12.7954Z" fill="url(#paint9_linear_4478_628330)"/>
<path d="M29.8613 12.7954L34.7729 20.962L43.4261 21.1003L29.8613 12.7954Z" fill="url(#paint10_linear_4478_628330)"/>
<path d="M34.7751 20.9619L23.9766 34.596V44.4239L43.4282 21.1001L34.7751 20.9619Z" fill="url(#paint11_linear_4478_628330)"/>
<path d="M23.9739 3.91968L17.127 21.0837L23.9739 29.1347V3.91968Z" fill="url(#paint12_linear_4478_628330)"/>
<path d="M23.9766 3.91968L30.8247 21.0837L23.9766 29.1347V3.91968Z" fill="url(#paint13_linear_4478_628330)"/>
<g style="mix-blend-mode:color-dodge" opacity="0.5">
<ellipse cx="24" cy="16.8682" rx="1" ry="12.5" fill="url(#paint14_radial_4478_628330)"/>
</g>
<g style="mix-blend-mode:color-dodge" opacity="0.4">
<ellipse cx="24" cy="39.3682" rx="1" ry="5" fill="url(#paint15_radial_4478_628330)"/>
</g>
<g style="mix-blend-mode:color-dodge" opacity="0.6">
<ellipse cx="8.80078" cy="21.1001" rx="1" ry="4.5" transform="rotate(-90 8.80078 21.1001)" fill="url(#paint16_radial_4478_628330)"/>
</g>
<g style="mix-blend-mode:color-dodge" opacity="0.6">
<ellipse cx="38.5" cy="21.1001" rx="1" ry="4.5" transform="rotate(-90 38.5 21.1001)" fill="url(#paint17_radial_4478_628330)"/>
</g>
<path d="M66.5827 15.1649L66.7194 14.8794H66.4037H62.0227H61.888L61.8378 15.002L58.448 23.1427L58.446 23.1467L57.4005 25.7705L56.355 23.1467L56.353 23.1407L52.8346 15L52.7843 14.8794H52.6516H48.2063H47.8906L48.0273 15.1649L56.8858 33.7423L56.9401 33.8549H57.0647H57.5774H57.7021L57.7564 33.7423L66.5827 15.1649Z" fill="black"/>
<path d="M68.3475 14.9258H68.1465V15.1248V33.6098V33.8088H68.3475H72.441H72.64V33.6098V15.1248V14.9258H72.441H68.3475Z" fill="black"/>
<path d="M91.6902 15.0987V14.8997H91.4911H87.5565H87.3574V15.0987V23.6375V23.6456V23.6516L87.4821 25.6239L86.7442 24.8278L86.7362 24.8217L76.215 14.6383L76.1587 14.582H76.0763H75.7244H75.5254V14.7811V33.5837V33.7827H75.7244H79.6591H79.8581V33.5837V25.3626V25.3565V25.3505L79.7335 23.3319L80.3447 23.9874L80.3487 23.9914L80.3527 23.9954L91.0327 34.0984L91.091 34.1547H91.1714H91.4911H91.6902V33.9536V15.0987Z" fill="black"/>
<path d="M109.649 30.612V30.413H109.45H101.368V25.3505H109.45H109.649V25.1494V22.3387V22.1396H109.45H101.368V18.215H109.551H109.75V18.016V15.1248V14.9258H109.551H97.1697H96.9707V15.1248V33.6098V33.8088H97.1697H109.45H109.649V33.6098V30.612Z" fill="black"/>
<path d="M123.919 33.7063L123.977 33.8088H124.094H129.018H129.386L129.186 33.5012L123.275 24.4176L129.028 15.2314L129.219 14.9258H128.859H124.158H124.037L123.981 15.0303L120.35 21.7636L116.592 15.0283L116.536 14.9258H116.42H111.622H111.256L111.453 15.2334L117.157 24.0918L111.355 33.5052L111.168 33.8088H111.526H116.291H116.409L116.466 33.7043L120.115 26.8785L123.919 33.7063Z" fill="black"/>
</g>
<defs>
<linearGradient id="paint0_linear_4478_628330" x1="33.2828" y1="-0.0233924" x2="19.0168" y2="30.7915" gradientUnits="userSpaceOnUse">
<stop stop-color="#F6B430"/>
<stop offset="0.13" stop-color="#F7B93B"/>
<stop offset="0.35" stop-color="#F8C558"/>
<stop offset="0.64" stop-color="#FBD887"/>
<stop offset="0.98" stop-color="#FFF3C8"/>
<stop offset="1" stop-color="#FFF5CC"/>
</linearGradient>
<linearGradient id="paint1_linear_4478_628330" x1="27.302" y1="4.19499" x2="19.9296" y2="41.9025" gradientUnits="userSpaceOnUse">
<stop stop-color="#F6B430"/>
<stop offset="0.13" stop-color="#F7B93B"/>
<stop offset="0.35" stop-color="#F8C558"/>
<stop offset="0.64" stop-color="#FBD887"/>
<stop offset="0.98" stop-color="#FFF3C8"/>
<stop offset="1" stop-color="#FFF5CC"/>
</linearGradient>
<linearGradient id="paint2_linear_4478_628330" x1="4.95596" y1="19.0767" x2="25.9959" y2="43.3717" gradientUnits="userSpaceOnUse">
<stop stop-color="#FFC859"/>
<stop offset="1" stop-color="#C27718"/>
</linearGradient>
<linearGradient id="paint3_linear_4478_628330" x1="6.44809" y1="22.5841" x2="18.0546" y2="15.0773" gradientUnits="userSpaceOnUse">
<stop stop-color="#E49B1B"/>
<stop offset="1" stop-color="#FFF5CC"/>
</linearGradient>
<linearGradient id="paint4_linear_4478_628330" x1="44.0051" y1="24.9368" x2="30.6704" y2="14.3138" gradientUnits="userSpaceOnUse">
<stop stop-color="#E49B1B"/>
<stop offset="1" stop-color="#FFF5CC"/>
</linearGradient>
<linearGradient id="paint5_linear_4478_628330" x1="20.5578" y1="44.7362" x2="51.4096" y2="5.08581" gradientUnits="userSpaceOnUse">
<stop stop-color="#F6B430"/>
<stop offset="0.13" stop-color="#F7B93B"/>
<stop offset="0.35" stop-color="#F8C558"/>
<stop offset="0.64" stop-color="#FBD887"/>
<stop offset="0.98" stop-color="#FFF3C8"/>
<stop offset="1" stop-color="#FFF5CC"/>
</linearGradient>
<linearGradient id="paint6_linear_4478_628330" x1="25.9358" y1="18.3462" x2="17.6629" y2="10.6717" gradientUnits="userSpaceOnUse">
<stop stop-color="#E49B1B"/>
<stop offset="1" stop-color="#FFF5CC"/>
</linearGradient>
<linearGradient id="paint7_linear_4478_628330" x1="20.6643" y1="21.3215" x2="30.7352" y2="8.13157" gradientUnits="userSpaceOnUse">
<stop stop-color="#F6B430"/>
<stop offset="1" stop-color="#FFF5CC"/>
</linearGradient>
<linearGradient id="paint8_linear_4478_628330" x1="5.38856" y1="0.665133" x2="50.1619" y2="52.549" gradientUnits="userSpaceOnUse">
<stop stop-color="#FFC859"/>
<stop offset="1" stop-color="#C27718"/>
</linearGradient>
<linearGradient id="paint9_linear_4478_628330" x1="10.044" y1="51.6609" x2="51.2936" y2="35.9704" gradientUnits="userSpaceOnUse">
<stop stop-color="#E49B1B"/>
<stop offset="1" stop-color="#FFF5CC"/>
</linearGradient>
<linearGradient id="paint10_linear_4478_628330" x1="45.0833" y1="63.1354" x2="-6.18234" y2="39.1186" gradientUnits="userSpaceOnUse">
<stop stop-color="#E49B1B"/>
<stop offset="1" stop-color="#FFF5CC"/>
</linearGradient>
<linearGradient id="paint11_linear_4478_628330" x1="-2.3144" y1="44.9631" x2="48.5494" y2="-30.7702" gradientUnits="userSpaceOnUse">
<stop stop-color="#F6B430"/>
<stop offset="0.13" stop-color="#F7B93B"/>
<stop offset="0.35" stop-color="#F8C558"/>
<stop offset="0.64" stop-color="#FBD887"/>
<stop offset="0.98" stop-color="#FFF3C8"/>
<stop offset="1" stop-color="#FFF5CC"/>
</linearGradient>
<linearGradient id="paint12_linear_4478_628330" x1="54.5758" y1="27.0937" x2="47.1435" y2="2.70541" gradientUnits="userSpaceOnUse">
<stop stop-color="#E49B1B"/>
<stop offset="1" stop-color="#FFF5CC"/>
</linearGradient>
<linearGradient id="paint13_linear_4478_628330" x1="20.6643" y1="21.3215" x2="30.7352" y2="8.13157" gradientUnits="userSpaceOnUse">
<stop stop-color="#F6B430"/>
<stop offset="1" stop-color="#FFF5CC"/>
</linearGradient>
<radialGradient id="paint14_radial_4478_628330" cx="0" cy="0" r="1" gradientUnits="userSpaceOnUse" gradientTransform="translate(24 16.8682) rotate(90) scale(12.5 0.603793)">
<stop offset="0.529414" stop-color="#FFF2C5"/>
<stop offset="1" stop-opacity="0"/>
</radialGradient>
<radialGradient id="paint15_radial_4478_628330" cx="0" cy="0" r="1" gradientUnits="userSpaceOnUse" gradientTransform="translate(24 39.3682) rotate(90) scale(5 0.390484)">
<stop offset="0.529414" stop-color="#FFEEB5"/>
<stop offset="1" stop-opacity="0"/>
</radialGradient>
<radialGradient id="paint16_radial_4478_628330" cx="0" cy="0" r="1" gradientUnits="userSpaceOnUse" gradientTransform="translate(8.80078 21.1001) rotate(90) scale(4.69922 0.269251)">
<stop offset="0.529414" stop-color="#FFEEB5"/>
<stop offset="1" stop-opacity="0"/>
</radialGradient>
<radialGradient id="paint17_radial_4478_628330" cx="0" cy="0" r="1" gradientUnits="userSpaceOnUse" gradientTransform="translate(38.5 21.1001) rotate(90) scale(4.69922 0.269251)">
<stop offset="0.529414" stop-color="#FFEEB5"/>
<stop offset="1" stop-opacity="0"/>
</radialGradient>
<clipPath id="clip0_4478_628330">
<rect width="129.386" height="48.7365" fill="white"/>
</clipPath>
</defs>
</svg>
