<svg width="181" height="28" viewBox="0 0 181 28" fill="none" xmlns="http://www.w3.org/2000/svg">
<g clip-path="url(#clip0_10541_122256)">
<path d="M17.2018 27.6685C16.5186 27.6685 15.8935 27.2696 15.5854 26.6413L14.2235 23.8807L10.1602 15.6036C9.995 15.2642 9.53063 15.2642 9.36095 15.6036L5.29764 23.8807L3.93577 26.6413C3.62321 27.2742 3.00255 27.6685 2.31937 27.6685C0.961963 27.6685 0.0823238 26.1782 0.702983 24.9217L1.21648 23.8807L9.36095 7.27593C9.52616 6.93659 9.99054 6.93659 10.1602 7.27593L18.3047 23.8807L18.8182 24.9217C19.4388 26.1782 18.5592 27.6685 17.2018 27.6685Z" fill="white"/>
<path d="M92.5685 8.89497C92.5685 9.913 91.7648 10.7384 90.7735 10.7384H84.3348V25.8345C84.3348 26.8526 83.531 27.678 82.5398 27.678C81.5485 27.678 80.7448 26.8526 80.7448 25.8345V10.7338H74.306C73.3147 10.7338 72.511 9.90841 72.511 8.89039C72.511 7.87236 73.3147 7.04694 74.306 7.04694H90.7735C91.7648 7.04694 92.5685 7.87236 92.5685 8.89039V8.89497Z" fill="white"/>
<path d="M111.672 24.0239L112.177 25.0327C112.784 26.2525 111.922 27.7062 110.587 27.7062C109.917 27.7062 109.301 27.321 108.997 26.7065L107.658 24.0239L105.738 20.1627L105.653 19.9839C105.023 18.9246 103.903 18.2184 102.612 18.2184H99.0267V25.8719C99.0267 26.8853 98.2275 27.7062 97.2407 27.7062H97.2317C96.2449 27.7062 95.4457 26.8853 95.4457 25.8719V7.08429H108.127C109.618 7.08429 110.967 7.70336 111.94 8.70304C112.913 9.70272 113.516 11.0876 113.516 12.6238C113.516 14.8616 112.226 16.806 110.359 17.691C109.873 17.9249 109.355 18.0762 108.81 18.1312L111.681 24.0239H111.672ZM108.113 14.536C108.372 14.536 108.631 14.4764 108.859 14.3572C109.52 14.0637 109.949 13.385 109.949 12.6467C109.949 11.9681 109.605 11.4957 109.404 11.294C109.176 11.0601 108.743 10.762 108.113 10.762H99.0178V14.5636L108.113 14.536Z" fill="white"/>
<path d="M132.866 27.6457H132.808C132.147 27.6457 131.54 27.2651 131.241 26.6598L129.897 23.9634L125.901 15.9155C125.735 15.5853 125.28 15.5853 125.115 15.9155L121.119 23.9634L119.774 26.6598C119.475 27.2651 118.868 27.6457 118.207 27.6457H118.149C116.832 27.6457 115.984 26.215 116.582 25.0135L117.104 23.9634L125.119 7.81257C125.285 7.4824 125.74 7.4824 125.905 7.81257L133.92 23.9634L134.443 25.0135C135.041 26.215 134.193 27.6457 132.875 27.6457H132.866Z" fill="white"/>
<path d="M147.478 7.05236C153.014 7.05236 157.52 11.6472 157.52 17.3335C157.52 19.8694 156.631 22.1943 155.14 23.9919C154.966 24.1983 154.769 24.4046 154.564 24.611C152.755 26.4957 150.259 27.6467 147.509 27.6467H140.99C139.043 27.6467 137.467 26.028 137.467 24.0286V10.643C137.467 8.64359 139.043 7.02484 140.99 7.02484H147.509L147.482 7.05236H147.478ZM153.925 17.0262C153.751 13.4677 150.759 10.7347 147.29 10.7347H141.905C141.418 10.7347 141.025 11.1382 141.025 11.6381V23.0885C141.025 23.5884 141.418 23.9919 141.905 23.9919H147.478C151.144 23.9919 154.108 20.8324 153.925 17.0262Z" fill="white"/>
<path d="M164.004 12.5919V14.5087H175.123C176.114 14.5087 176.918 15.3341 176.918 16.3522C176.918 17.3702 176.114 18.1956 175.123 18.1956H164.004V22.0843C164.004 23.1206 164.83 23.969 165.839 23.969H178.704C179.695 23.969 180.499 24.7944 180.499 25.8124C180.499 26.8305 179.695 27.6559 178.704 27.6559H165.839C162.861 27.6559 160.446 25.175 160.446 22.1164V12.5919C160.446 9.52863 162.884 7.02484 165.866 7.02484H178.704C179.695 7.02484 180.499 7.85027 180.499 8.86829C180.499 9.88632 179.695 10.7117 178.704 10.7117H165.839C164.83 10.7117 164.004 11.5601 164.004 12.5965V12.5919Z" fill="white"/>
<path d="M43.4376 8.58421V26.9683C43.4376 27.3535 43.0135 27.5736 42.7188 27.3351L39.7941 25.001L26.6709 14.4906V26.019C26.6709 27.0646 25.8538 27.9129 24.8491 27.9129C23.8445 27.9129 23.0273 27.0646 23.0273 26.019V7.71293C23.0273 7.32773 23.4515 7.10762 23.7462 7.34607L26.6709 9.6802L39.7941 20.1906V8.58421C39.7941 7.53409 40.6201 6.68115 41.6292 6.69032C42.6294 6.69949 43.4376 7.54326 43.4376 8.58421Z" fill="white"/>
<path d="M67.8855 27.0451C68.9149 26.0733 68.9742 24.4194 68.0179 23.351C67.0616 22.2827 65.4519 22.2044 64.4225 23.1762C63.3931 24.148 63.3338 25.8019 64.2901 26.8703C65.2463 27.9386 66.856 28.0169 67.8855 27.0451Z" fill="#FA5F07"/>
<path d="M54.9873 27.2251C55.858 27.5049 56.7555 27.67 57.6574 27.7158C56.7331 27.6745 55.8401 27.5049 54.9873 27.2251Z" fill="#3F3F46"/>
<path d="M68.7018 16.889C68.7018 17.1137 68.6929 17.343 68.6795 17.5677C68.6661 17.7557 68.6527 17.9483 68.6304 18.1364C68.617 18.2464 68.6036 18.3519 68.5902 18.4574C68.3714 19.4295 67.4471 20.0486 66.4871 19.8468C66.4514 19.8376 66.4112 19.8285 66.3754 19.8193L66.1433 19.7368C65.4244 19.4295 64.9689 18.6729 65.0314 17.8704C65.0448 17.7878 65.0538 17.7099 65.0582 17.6273C65.0582 17.609 65.0672 17.5861 65.0672 17.5677C65.0895 17.343 65.0984 17.1183 65.0984 16.889C65.0984 15.9398 64.9198 15.0364 64.5894 14.211C64.3393 13.569 64 12.9774 63.5802 12.4455C63.4909 12.3217 63.3927 12.2025 63.29 12.0878C63.2632 12.0511 63.232 12.019 63.2007 11.9823C63.031 11.7897 62.8524 11.6109 62.6693 11.4458C60.2448 9.24927 56.686 9.02457 54.0694 10.8726C53.806 11.0606 53.5515 11.267 53.3104 11.4963C51.9083 12.8169 51.1626 14.6008 51.0867 16.4213C51.0778 16.6368 51.0778 16.8569 51.0867 17.0725V17.0816C51.1001 17.3981 51.1358 17.7145 51.1939 18.0309C51.4216 19.3378 52.0065 20.5989 52.9531 21.6582C53.1943 21.9287 53.4532 22.1809 53.7256 22.4011C53.7747 22.4423 53.8238 22.479 53.873 22.5203C53.9399 22.5753 54.0114 22.6303 54.0828 22.6808C54.0873 22.6854 54.0918 22.69 54.0962 22.69C54.1945 22.7633 54.2927 22.8367 54.3954 22.8963C55.476 23.6163 56.7664 24.029 58.1461 24.029C58.4408 24.029 58.7266 24.0106 59.0124 23.9739H59.0258C59.1955 23.9556 59.3651 23.9648 59.5393 24.0015C60.5127 24.2078 61.1512 25.1846 60.9637 26.1843C60.8208 26.9409 60.2448 27.4958 59.5527 27.6333C59.4812 27.6471 59.4053 27.6563 59.3294 27.6609C59.2222 27.6746 59.1151 27.6838 59.0079 27.693C58.865 27.7067 58.7221 27.7159 58.5793 27.7205C58.4319 27.725 58.289 27.7296 58.1461 27.7296C57.9854 27.7296 57.8202 27.725 57.6594 27.7159C56.7575 27.67 55.86 27.5049 54.9893 27.2252C54.766 27.1564 54.5517 27.0785 54.3373 26.9868C54.2168 26.9409 54.0962 26.8905 53.9801 26.84C53.8462 26.7804 53.7167 26.7208 53.5872 26.652C53.4354 26.5786 53.2836 26.4961 53.1362 26.4181H53.1317C52.9799 26.3264 52.8326 26.2393 52.6897 26.1522C51.8234 25.6248 51.0197 24.9599 50.3008 24.1574C49.5284 23.2907 48.9122 22.3323 48.4567 21.3188C48.1799 20.7089 47.9611 20.0807 47.8003 19.4433C47.6351 18.7875 47.5324 18.1226 47.4878 17.4531C47.4744 17.2467 47.4654 17.0404 47.461 16.8294V16.6139L47.4431 5.30557C47.4431 4.27837 48.2513 3.45295 49.2515 3.46212C50.2517 3.47129 51.0644 4.31506 51.0688 5.34225V8.53849L54.0158 1.2243C54.3954 0.275056 55.4536 -0.165171 56.3824 0.238371C57.3067 0.641912 57.7487 1.73331 57.3647 2.68255L55.9939 6.09431C59.4857 5.42021 63.2454 6.57581 65.8486 9.48314C66.0763 9.73535 66.2861 9.99674 66.4781 10.2627C66.6076 10.4324 66.7282 10.6066 66.8488 10.7855C66.8979 10.8543 66.9425 10.923 66.9827 10.9918C67.0586 11.1065 67.1256 11.2165 67.1926 11.3312C68.1481 12.9637 68.7018 14.8622 68.7018 16.889Z" fill="#FA5F07"/>
<path d="M65.0537 17.6535C65.0537 17.6535 65.0582 17.6352 65.0582 17.626C65.0537 17.7085 65.0448 17.7865 65.0314 17.869C65.0314 17.8003 65.0403 17.7269 65.0537 17.6535Z" fill="#FA5F07"/>
</g>
<defs>
<clipPath id="clip0_10541_122256">
<rect width="180" height="27.826" fill="white" transform="translate(0.500244 0.0869751)"/>
</clipPath>
</defs>
</svg>
