<svg width="18" height="19" viewBox="0 0 18 19" fill="none" xmlns="http://www.w3.org/2000/svg">
<path d="M12.7836 6.64531C11.5294 6.64531 9.06738 7.2492 9.06738 8.50343V9.43249H16.4998V8.50343C16.4998 7.2492 14.0378 6.64531 12.7836 6.64531ZM12.7836 5.71624C13.2764 5.71624 13.749 5.52048 14.0975 5.17201C14.446 4.82355 14.6417 4.35093 14.6417 3.85812C14.6417 3.36532 14.446 2.8927 14.0975 2.54423C13.749 2.19577 13.2764 2 12.7836 2C12.2908 2 11.8182 2.19577 11.4697 2.54423C11.1213 2.8927 10.9255 3.36532 10.9255 3.85812C10.9255 4.35093 11.1213 4.82355 11.4697 5.17201C11.8182 5.52048 12.2908 5.71624 12.7836 5.71624Z" fill="url(#paint0_linear_20222_35387)"/>
<path d="M5.21639 14.1453C6.47062 14.1453 8.93262 14.7492 8.93262 16.0034V16.9325H1.50017V16.0034C1.50017 14.7492 3.96217 14.1453 5.21639 14.1453ZM5.21639 13.2162C4.72359 13.2162 4.25097 13.0205 3.90251 12.672C3.55405 12.3235 3.35828 11.8509 3.35828 11.3581C3.35828 10.8653 3.55405 10.3927 3.90251 10.0442C4.25097 9.69577 4.72359 9.5 5.21639 9.5C5.70919 9.5 6.18181 9.69577 6.53028 10.0442C6.87874 10.3927 7.07451 10.8653 7.07451 11.3581C7.07451 11.8509 6.87874 12.3235 6.53028 12.672C6.18181 13.0205 5.70919 13.2162 5.21639 13.2162Z" fill="url(#paint1_linear_20222_35387)"/>
<path fill-rule="evenodd" clip-rule="evenodd" d="M11.3997 15.2155V17.0005H14.715L16.4997 17.0005L16.5 17.0005V11.9005H14.715V15.2155H11.3997Z" fill="#FA5F07"/>
<path fill-rule="evenodd" clip-rule="evenodd" d="M6.59975 3.78501V2L3.285 2H1.5L1.49976 2L1.49976 3.78501H1.5L1.5 7.10002H3.285L3.285 3.78501L6.59975 3.78501Z" fill="#FA5F07"/>
<defs>
<linearGradient id="paint0_linear_20222_35387" x1="27.2141" y1="18.0715" x2="1.77336" y2="3.94058" gradientUnits="userSpaceOnUse">
<stop stop-color="#A7ACCA"/>
<stop offset="0.9823" stop-color="#D3D8F0"/>
</linearGradient>
<linearGradient id="paint1_linear_20222_35387" x1="-3.32129" y1="25.0358" x2="16.3894" y2="10.1706" gradientUnits="userSpaceOnUse">
<stop stop-color="#A7ACCA"/>
<stop offset="0.820599" stop-color="#D3D8F0"/>
</linearGradient>
</defs>
</svg>
