<svg width="32" height="32" viewBox="0 0 32 32" fill="none" xmlns="http://www.w3.org/2000/svg">
<path d="M11.7637 10.0947C11.8218 9.76907 11.8625 9.43762 11.9381 9.11198C12.5426 6.3964 14.8909 4.32047 17.6636 4.03553C21.2036 3.66919 24.389 6.17544 24.8772 9.70511C25.3655 13.1941 22.959 16.4737 19.4714 17.0785C15.728 17.7297 12.1938 15.0607 11.8044 11.2868C11.7985 11.2228 11.7811 11.1588 11.7637 11.1007C11.7637 10.7634 11.7637 10.432 11.7637 10.0947ZM15.6001 12.0892C15.5885 12.5602 15.7163 12.9731 15.9779 13.3453C16.3906 13.9268 16.9719 14.2117 17.6985 14.2524C17.6985 14.6769 17.6985 15.0839 17.6985 15.491C18.1461 15.491 18.5588 15.491 19.0064 15.491C19.0064 15.0665 19.0064 14.6594 19.0064 14.2524C19.0587 14.2466 19.0877 14.2466 19.1168 14.2408C20.1166 14.171 20.9071 13.4499 21.0699 12.4439C21.221 11.531 20.6862 10.5832 19.8027 10.2052C19.4598 10.0598 19.0994 10.0424 18.7332 10.0424C18.3437 10.0424 17.9484 10.0598 17.559 10.0191C17.1347 9.9726 16.8673 9.59462 16.9021 9.1585C16.9312 8.76309 17.2567 8.44326 17.6636 8.43745C18.1112 8.43163 18.5646 8.43163 19.0122 8.43745C19.2679 8.43745 19.483 8.54793 19.6225 8.76309C19.7155 8.90846 19.762 9.08872 19.826 9.25736C20.2328 9.25736 20.6572 9.25736 21.0815 9.25736C21.0931 8.79798 20.9653 8.39093 20.7095 8.0304C20.2968 7.43728 19.7097 7.15235 18.9773 7.11164C18.9773 6.68715 18.9773 6.2801 18.9773 5.88469C18.5355 5.88469 18.1112 5.88469 17.6694 5.88469C17.6694 6.30918 17.6694 6.71041 17.6694 7.11746C17.6229 7.12327 17.5939 7.12909 17.5648 7.12909C16.472 7.20468 15.6175 8.08855 15.6001 9.17595C15.5826 10.3099 16.3848 11.2286 17.5183 11.3275C18.0182 11.3682 18.5181 11.3391 19.018 11.3507C19.4598 11.3624 19.7853 11.6996 19.7853 12.1358C19.7853 12.5661 19.4598 12.9208 19.0238 12.9324C18.5646 12.944 18.1112 12.944 17.652 12.9324C17.309 12.9266 17.03 12.694 16.937 12.3625C16.9138 12.2753 16.9021 12.1823 16.8789 12.0892C16.4546 12.0892 16.036 12.0892 15.6001 12.0892Z" fill="#2FB8B8"/>
<path d="M13.1235 18.1935L2.66602 28H29.3327V12L18.8752 24.3871L13.1235 18.1935Z" fill="#D9D9D9"/>
<path d="M13.1235 18.1935L2.66602 28H29.3327V12L18.8752 24.3871L13.1235 18.1935Z" fill="url(#paint0_linear_16871_8434)"/>
<defs>
<linearGradient id="paint0_linear_16871_8434" x1="31.2317" y1="32.0279" x2="-6.28565" y2="-5.06755" gradientUnits="userSpaceOnUse">
<stop stop-color="#A7ACCA"/>
<stop offset="0.485517" stop-color="#D3D8F0"/>
</linearGradient>
</defs>
</svg>
