<svg width="30" height="30" viewBox="0 0 30 30" fill="none" xmlns="http://www.w3.org/2000/svg">
<g id="Property 1=About, Property 2=Yes">
<g id="Group 1000002003">
<g id="Vector">
<path d="M17.3535 1.78254C10.69 1.76016 5.38979 6.97833 5.37114 13.5822C5.35249 20.0946 10.6359 25.4042 17.1521 25.4153C23.6478 25.4284 28.9816 20.1561 29.0021 13.6997C29.0226 7.17974 23.7709 1.80492 17.3535 1.78254Z" fill="url(#paint0_linear_7949_860185)"/>
<path d="M17.3535 1.78254C10.69 1.76016 5.38979 6.97833 5.37114 13.5822C5.35249 20.0946 10.6359 25.4042 17.1521 25.4153C23.6478 25.4284 28.9816 20.1561 29.0021 13.6997C29.0226 7.17974 23.7709 1.80492 17.3535 1.78254Z" fill="url(#paint1_linear_7949_860185)"/>
</g>
<g id="Group 1000001984">
<g id="Vector_2" filter="url(#filter0_b_7949_860185)">
<path d="M12.9746 6.15974C6.31111 6.13736 1.01089 11.3555 0.992237 17.9594C0.973587 24.4718 6.25702 29.7813 12.7732 29.7925C19.2689 29.8056 24.6027 24.5333 24.6232 18.0768C24.6437 11.5569 19.392 6.18212 12.9746 6.15974Z" fill="#FF8D07" fill-opacity="0.3"/>
<path d="M0.992237 17.9594C0.973587 24.4718 6.25702 29.7813 12.7732 29.7925C19.2689 29.8056 24.6027 24.5333 24.6232 18.0768C24.6437 11.5569 19.392 6.18212 12.9746 6.15974M0.992237 17.9594L1.11422 17.9597C1.09576 24.4047 6.32466 29.6595 12.7734 29.6706H12.7734C19.2025 29.6835 24.4809 24.4649 24.5012 18.0765C24.5215 11.622 19.3223 6.30387 12.9742 6.28172L12.9746 6.15974M0.992237 17.9594L1.11422 17.9597C1.13267 11.4243 6.37702 6.25957 12.9742 6.28172L12.9746 6.15974M0.992237 17.9594C1.01089 11.3555 6.31111 6.13736 12.9746 6.15974" stroke="url(#paint2_linear_7949_860185)" stroke-width="0.243964"/>
<path d="M0.992237 17.9594C0.973587 24.4718 6.25702 29.7813 12.7732 29.7925C19.2689 29.8056 24.6027 24.5333 24.6232 18.0768C24.6437 11.5569 19.392 6.18212 12.9746 6.15974M0.992237 17.9594L1.11422 17.9597C1.09576 24.4047 6.32466 29.6595 12.7734 29.6706H12.7734C19.2025 29.6835 24.4809 24.4649 24.5012 18.0765C24.5215 11.622 19.3223 6.30387 12.9742 6.28172L12.9746 6.15974M0.992237 17.9594L1.11422 17.9597C1.13267 11.4243 6.37702 6.25957 12.9742 6.28172L12.9746 6.15974M0.992237 17.9594C1.01089 11.3555 6.31111 6.13736 12.9746 6.15974" stroke="url(#paint3_linear_7949_860185)" stroke-width="0.243964"/>
</g>
</g>
</g>
<g id="Group 1000002311">
<rect id="Rectangle 6356" x="11" y="10" width="3" height="12" rx="1.5" fill="url(#paint4_linear_7949_860185)"/>
<rect id="Rectangle 6357" x="11" y="23" width="3" height="3" rx="1.5" fill="url(#paint5_linear_7949_860185)"/>
</g>
</g>
<defs>
<filter id="filter0_b_7949_860185" x="-2.33459" y="2.83289" width="30.2864" height="30.2864" filterUnits="userSpaceOnUse" color-interpolation-filters="sRGB">
<feFlood flood-opacity="0" result="BackgroundImageFix"/>
<feGaussianBlur in="BackgroundImageFix" stdDeviation="1.66339"/>
<feComposite in2="SourceAlpha" operator="in" result="effect1_backgroundBlur_7949_860185"/>
<feBlend mode="normal" in="SourceGraphic" in2="effect1_backgroundBlur_7949_860185" result="shape"/>
</filter>
<linearGradient id="paint0_linear_7949_860185" x1="25.0483" y1="-2.68595" x2="17.301" y2="18.7218" gradientUnits="userSpaceOnUse">
<stop stop-color="#33FFA9"/>
<stop offset="1" stop-color="#00BD6E"/>
</linearGradient>
<linearGradient id="paint1_linear_7949_860185" x1="17.1866" y1="1.78247" x2="8.91389" y2="22.2258" gradientUnits="userSpaceOnUse">
<stop stop-color="#FFA133"/>
<stop offset="1" stop-color="#FFC633"/>
</linearGradient>
<linearGradient id="paint2_linear_7949_860185" x1="19.8148" y1="10.098" x2="3.62494" y2="29.3572" gradientUnits="userSpaceOnUse">
<stop stop-color="#B6F6FF"/>
<stop offset="1" stop-color="white" stop-opacity="0"/>
</linearGradient>
<linearGradient id="paint3_linear_7949_860185" x1="19.8148" y1="10.098" x2="3.62494" y2="29.3572" gradientUnits="userSpaceOnUse">
<stop stop-color="#FFCA63"/>
<stop offset="1" stop-color="#FFC453"/>
</linearGradient>
<linearGradient id="paint4_linear_7949_860185" x1="13.9757" y1="14.833" x2="10.903" y2="14.833" gradientUnits="userSpaceOnUse">
<stop stop-color="white"/>
<stop offset="1" stop-color="white" stop-opacity="0.87"/>
</linearGradient>
<linearGradient id="paint5_linear_7949_860185" x1="13.9757" y1="24.2083" x2="10.903" y2="24.2083" gradientUnits="userSpaceOnUse">
<stop stop-color="white"/>
<stop offset="1" stop-color="white" stop-opacity="0.87"/>
</linearGradient>
</defs>
</svg>
