<svg width="30" height="32" viewBox="0 0 30 32" fill="none" xmlns="http://www.w3.org/2000/svg">
<path d="M19.6333 1.05616C12.426 -0.459032 5.52172 4.00294 4.02393 11.1464C2.54658 18.191 7.07711 25.12 14.1274 26.5901C21.1551 28.0577 28.1078 23.5447 29.5747 16.5611C31.0557 9.5088 26.5741 2.51626 19.6333 1.05616Z" fill="url(#paint0_linear_10599_49195)"/>
<g filter="url(#filter0_b_10599_49195)">
<path d="M13.2435 5.00008C5.87868 4.97534 0.0206667 10.7427 5.4401e-05 18.0415C-0.0205579 25.2393 5.8189 31.1076 13.0208 31.12C20.2001 31.1344 26.0952 25.3073 26.1179 18.1713C26.1406 10.9653 20.3362 5.02481 13.2435 5.00008Z" fill="#FF8D07" fill-opacity="0.3"/>
<path d="M5.4401e-05 18.0415C-0.0205579 25.2393 5.8189 31.1076 13.0208 31.12C20.2001 31.1344 26.0952 25.3073 26.1179 18.1713C26.1406 10.9653 20.3362 5.02481 13.2435 5.00008M5.4401e-05 18.0415L0.110054 18.0418C0.0896158 25.1788 5.87989 30.9977 13.021 31.01H13.0211C20.1403 31.0243 25.9854 25.2456 26.0079 18.171C26.0304 11.024 20.2734 5.1346 13.2431 5.11008M5.4401e-05 18.0415C0.0206667 10.7427 5.87868 4.97534 13.2435 5.00008M5.4401e-05 18.0415L13.2431 5.11008M13.2431 5.11008L13.2435 5.00008M13.2431 5.11008C13.2431 5.11008 13.2431 5.11008 13.2431 5.11008M13.2431 5.11008C13.2431 5.11008 13.2431 5.11008 13.2431 5.11008M13.2435 5.00008L13.2431 5.11008" stroke="url(#paint1_linear_10599_49195)" stroke-width="0.22"/>
</g>
<path d="M14.8472 17.6755H14.3704C14.2044 17.6755 14.0601 17.5843 13.9844 17.4492C14.0143 17.4975 14.0563 17.5409 14.1113 17.5766C14.2054 17.6374 14.3342 17.6683 14.4486 17.6707C14.5808 17.6736 14.7135 17.6751 14.8472 17.6755Z" fill="black"/>
<path d="M16.5779 15.8712C16.5774 15.8871 16.5774 15.9036 16.5769 15.9195C16.5721 16.0536 16.5668 16.1665 16.5581 16.2616H14.3871C13.8606 16.2616 13.4113 16.6704 13.391 17.1964C13.3698 17.7499 13.8138 18.2068 14.3629 18.2068H14.997C15.1317 18.2068 15.1823 18.384 15.0675 18.4544C14.5555 18.77 13.9566 18.9394 13.3418 18.9394H12.9886C12.9919 18.9389 12.9958 18.9389 12.9992 18.9384C11.7947 18.6788 10.8865 18.0582 10.4314 16.8764C9.65451 14.8612 11.1871 12.6472 13.3447 12.5984C15.1249 12.5579 16.6127 14.0954 16.5774 15.8712H16.5779Z" fill="url(#paint2_linear_10599_49195)"/>
<path d="M14.477 19.8081C14.2782 19.7782 14.0784 19.7516 13.8796 19.7236C13.8805 19.7236 13.8815 19.7231 13.8829 19.7227H13.244C13.078 19.7227 12.9125 19.7328 12.7479 19.7535C12.6201 19.7695 12.4922 19.7859 12.3653 19.8061C9.7594 20.2221 7.62259 22.2171 7.03434 24.78C6.85868 25.5463 7.37551 26.2224 8.16113 26.2233C11.6433 26.2272 15.1256 26.2262 18.6078 26.2142C18.8293 26.2132 19.0734 26.1437 19.2674 26.0351C19.7548 25.762 19.8885 25.2881 19.722 24.6029C19.1294 22.1664 16.955 20.1782 14.477 19.8081Z" fill="url(#paint3_linear_10599_49195)"/>
<path d="M19.1921 16.7146C19.1829 17.548 18.5705 18.1527 17.7386 18.1594C17.5904 18.1604 17.4423 18.1604 17.2917 18.1604C17.0466 18.1604 16.8902 17.9032 16.9983 17.6831L17.0017 17.6759H15.927L15.928 17.6749C15.7798 17.6749 15.637 17.6749 15.497 17.6759H14.8437C14.71 17.6754 14.5773 17.674 14.4451 17.6711C14.3307 17.6687 14.2018 17.6378 14.1077 17.577C14.0527 17.5413 14.0107 17.4978 13.9808 17.4496C13.9789 17.4462 13.977 17.4428 13.975 17.439C13.9427 17.3777 13.9248 17.3082 13.9248 17.2343C13.9248 17.2218 13.9253 17.2097 13.9263 17.1977C13.9273 17.1875 13.9287 17.1769 13.9302 17.1668C13.9302 17.1668 13.9302 17.1653 13.9306 17.1644C13.9326 17.1538 13.9345 17.1436 13.9369 17.133C13.9374 17.1301 13.9379 17.1267 13.9388 17.1238C13.9876 16.9332 14.1608 16.7923 14.3669 16.7923H17.3356C17.6397 15.6501 17.4389 14.5199 16.7353 13.3777H17.6141C16.9863 12.0414 15.4208 11.0276 13.8105 10.9151C11.3952 10.7457 9.78344 12.1674 9.19423 13.3675H10.0865C9.0924 14.9711 9.09096 16.5486 10.0913 18.1802C9.60634 18.157 9.14597 18.1879 8.70828 18.1015C8.07467 17.9765 7.68765 17.5292 7.64422 16.8917C7.59355 16.1476 7.55687 15.3876 7.65725 14.6536C7.72722 14.1416 8.00856 13.6474 8.24501 13.1702C9.31342 11.0116 11.5854 9.76708 13.9794 10.0364C16.3565 10.3032 17.9649 11.5859 18.8466 13.7989C18.8789 13.88 18.9382 13.9519 18.9638 14.0344C19.0459 14.2994 19.1689 14.5638 19.1829 14.8336C19.2157 15.459 19.1988 16.0873 19.1921 16.7146Z" fill="url(#paint4_linear_10599_49195)"/>
<path d="M13.9722 17.4351C13.9369 17.3738 13.9205 17.3038 13.922 17.2305C13.922 17.3043 13.9398 17.3738 13.9722 17.4351Z" fill="black"/>
<path d="M14.8472 17.6755H14.3704C14.2044 17.6755 14.0601 17.5843 13.9844 17.4492C14.0143 17.4975 14.0563 17.5409 14.1113 17.5766C14.2054 17.6374 14.3342 17.6683 14.4486 17.6707C14.5808 17.6736 14.7135 17.6751 14.8472 17.6755Z" fill="black"/>
<path d="M14.8408 17.672C15.0531 17.6735 15.2693 17.673 15.4942 17.672H14.8408ZM13.922 17.2305C13.9205 17.3038 13.9369 17.3738 13.9722 17.4351C13.9398 17.3738 13.922 17.3043 13.922 17.2305Z" fill="#606060"/>
<defs>
<filter id="filter0_b_10599_49195" x="-3" y="2" width="32.1172" height="32.1211" filterUnits="userSpaceOnUse" color-interpolation-filters="sRGB">
<feFlood flood-opacity="0" result="BackgroundImageFix"/>
<feGaussianBlur in="BackgroundImageFix" stdDeviation="1.5"/>
<feComposite in2="SourceAlpha" operator="in" result="effect1_backgroundBlur_10599_49195"/>
<feBlend mode="normal" in="SourceGraphic" in2="effect1_backgroundBlur_10599_49195" result="shape"/>
</filter>
<linearGradient id="paint0_linear_10599_49195" x1="19.4526" y1="1.01873" x2="5.92441" y2="21.2947" gradientUnits="userSpaceOnUse">
<stop stop-color="#FFA133"/>
<stop offset="1" stop-color="#FFC633"/>
</linearGradient>
<linearGradient id="paint1_linear_10599_49195" x1="20.8035" y1="9.35277" x2="2.90982" y2="30.6389" gradientUnits="userSpaceOnUse">
<stop stop-color="#FFCA63"/>
<stop offset="1" stop-color="#FFC453"/>
</linearGradient>
<linearGradient id="paint2_linear_10599_49195" x1="16.5265" y1="15.1518" x2="10.0212" y2="15.1518" gradientUnits="userSpaceOnUse">
<stop stop-color="white"/>
<stop offset="1" stop-color="white" stop-opacity="0.6"/>
</linearGradient>
<linearGradient id="paint3_linear_10599_49195" x1="19.6864" y1="22.3416" x2="6.58654" y2="22.3416" gradientUnits="userSpaceOnUse">
<stop stop-color="white"/>
<stop offset="1" stop-color="white" stop-opacity="0.6"/>
</linearGradient>
<linearGradient id="paint4_linear_10599_49195" x1="19.1083" y1="13.2946" x2="7.21848" y2="13.2946" gradientUnits="userSpaceOnUse">
<stop stop-color="white"/>
<stop offset="1" stop-color="white" stop-opacity="0.6"/>
</linearGradient>
</defs>
</svg>
