<svg width="30" height="30" viewBox="0 0 30 30" fill="none" xmlns="http://www.w3.org/2000/svg">
<path d="M19.1865 3.21357C13.9698 2.11722 8.97234 5.34578 7.88821 10.5146C6.81888 15.6119 10.0982 20.6255 15.2013 21.6892C20.2881 22.7511 25.3206 19.4856 26.3823 14.4325C27.4543 9.32966 24.2104 4.27006 19.1865 3.21357Z" fill="url(#paint0_linear_7892_900919)"/>
<g filter="url(#filter0_b_7892_900919)">
<path d="M13.9309 5.4466C7.85214 5.42619 3.01706 10.1852 3.00004 16.208C2.98303 22.1474 7.8028 26.9898 13.7471 27C19.6727 27.0119 24.5384 22.2035 24.5571 16.3151C24.5759 10.3689 19.785 5.46701 13.9309 5.4466Z" fill="#FF8D07" fill-opacity="0.3"/>
<path d="M13.9305 5.53738C7.90117 5.51714 3.10769 10.2364 3.09083 16.2082C3.07396 22.0975 7.85311 26.8991 13.7473 26.9092C19.6234 26.921 24.4478 22.1526 24.4664 16.3148C24.4849 10.4174 19.7332 5.55761 13.9306 5.53738C13.9306 5.53738 13.9305 5.53738 13.9305 5.53738ZM13.9305 5.53738L13.9309 5.4466L13.9305 5.53738Z" stroke="url(#paint1_linear_7892_900919)" stroke-width="0.181562"/>
</g>
<path d="M14.2727 17.9375C12.695 17.9375 9.54545 18.7272 9.54545 20.3125V21.5H19V20.3125C19 18.7272 15.8505 17.9375 14.2727 17.9375ZM14.2727 16.75C14.8996 16.75 15.5008 16.4998 15.9441 16.0544C16.3873 15.609 16.6364 15.0049 16.6364 14.375C16.6364 13.7451 16.3873 13.141 15.9441 12.6956C15.5008 12.2502 14.8996 12 14.2727 12C13.6459 12 13.0447 12.2502 12.6014 12.6956C12.1581 13.141 11.9091 13.7451 11.9091 14.375C11.9091 15.0049 12.1581 15.609 12.6014 16.0544C13.0447 16.4998 13.6459 16.75 14.2727 16.75ZM8.36364 17.51L9.81136 18.3947L9.42727 16.7263L10.7273 15.61L9.01955 15.4616L8.36364 13.8941L7.69591 15.4616L6 15.61L7.28818 16.7263L6.88636 18.3947L8.36364 17.51Z" fill="url(#paint2_linear_7892_900919)"/>
<defs>
<filter id="filter0_b_7892_900919" x="0.524157" y="2.97069" width="26.5088" height="26.5052" filterUnits="userSpaceOnUse" color-interpolation-filters="sRGB">
<feFlood flood-opacity="0" result="BackgroundImageFix"/>
<feGaussianBlur in="BackgroundImageFix" stdDeviation="1.23792"/>
<feComposite in2="SourceAlpha" operator="in" result="effect1_backgroundBlur_7892_900919"/>
<feBlend mode="normal" in="SourceGraphic" in2="effect1_backgroundBlur_7892_900919" result="shape"/>
</filter>
<linearGradient id="paint0_linear_7892_900919" x1="19.0556" y1="3.18484" x2="9.26828" y2="17.859" gradientUnits="userSpaceOnUse">
<stop stop-color="#FFA133"/>
<stop offset="1" stop-color="#FFC633"/>
</linearGradient>
<linearGradient id="paint1_linear_7892_900919" x1="20.1708" y1="9.03831" x2="5.40605" y2="26.6066" gradientUnits="userSpaceOnUse">
<stop stop-color="#FFCA63"/>
<stop offset="1" stop-color="#FFC453"/>
</linearGradient>
<linearGradient id="paint2_linear_7892_900919" x1="8.34693" y1="13.1874" x2="25.6255" y2="31.5611" gradientUnits="userSpaceOnUse">
<stop stop-color="white"/>
<stop offset="1" stop-color="white" stop-opacity="0.6"/>
</linearGradient>
</defs>
</svg>
