<svg width="30" height="30" viewBox="0 0 30 30" fill="none" xmlns="http://www.w3.org/2000/svg">
<path d="M17.3362 20.3542C20.9933 20.3542 23.958 17.3141 23.958 13.5638C23.958 9.8136 20.9933 6.77344 17.3362 6.77344C13.6791 6.77344 10.7145 9.8136 10.7145 13.5638C10.7145 14.6501 10.9632 15.6768 11.4054 16.5872C11.5229 16.8292 11.5621 17.1058 11.4939 17.3669L11.0995 18.8784C10.9283 19.5346 11.5137 20.1349 12.1536 19.9594L13.6276 19.5549C13.8823 19.4851 14.152 19.5252 14.3879 19.6457C15.2758 20.0992 16.277 20.3542 17.3362 20.3542Z" fill="url(#paint0_linear_10383_242836)"/>
<g filter="url(#filter0_b_10383_242836)">
<path d="M15.3362 23.133C19.4113 23.133 22.7148 19.7454 22.7148 15.5665C22.7148 11.3876 19.4113 8 15.3362 8C11.2611 8 7.95763 11.3876 7.95763 15.5665C7.95763 16.7769 8.23478 17.9209 8.72756 18.9355C8.85851 19.2051 8.9021 19.5132 8.82618 19.8042L8.3867 21.4885C8.19592 22.2197 8.84824 22.8886 9.56126 22.693L11.2038 22.2423C11.4875 22.1645 11.788 22.2092 12.0509 22.3435C13.0403 22.8488 14.1559 23.133 15.3362 23.133Z" fill="#FF8D07" fill-opacity="0.3"/>
<path d="M15.3362 23.133C19.4113 23.133 22.7148 19.7454 22.7148 15.5665C22.7148 11.3876 19.4113 8 15.3362 8C11.2611 8 7.95763 11.3876 7.95763 15.5665C7.95763 16.7769 8.23478 17.9209 8.72756 18.9355C8.85851 19.2051 8.9021 19.5132 8.82618 19.8042L8.3867 21.4885C8.19592 22.2197 8.84824 22.8886 9.56126 22.693L11.2038 22.2423C11.4875 22.1645 11.788 22.2092 12.0509 22.3435C13.0403 22.8488 14.1559 23.133 15.3362 23.133Z" stroke="url(#paint1_linear_10383_242836)" stroke-width="0.5"/>
</g>
<path d="M10.1984 17.0505L10.6506 16.6553L10.8421 16.4964C11.0214 16.3498 11.1612 16.2302 11.2617 16.1379C11.3622 16.0456 11.4451 15.9478 11.5102 15.8446C11.5754 15.7386 11.608 15.6313 11.608 15.5227C11.608 15.4059 11.5727 15.3068 11.5021 15.2253C11.4315 15.1438 11.3242 15.1031 11.1802 15.1031C11.0037 15.1031 10.8856 15.1547 10.8258 15.2579C10.7688 15.3584 10.7402 15.4657 10.7402 15.5797V15.6286H10.1862C10.1862 15.4249 10.2255 15.247 10.3043 15.0949C10.3858 14.9428 10.4999 14.826 10.6465 14.7445C10.7959 14.6604 10.9711 14.6183 11.1721 14.6183C11.3758 14.6183 11.5496 14.6576 11.6936 14.7364C11.8403 14.8125 11.9503 14.917 12.0236 15.0501C12.0996 15.1832 12.1377 15.3299 12.1377 15.4901C12.1377 15.6504 12.1037 15.797 12.0358 15.9301C11.9679 16.0605 11.8864 16.1746 11.7914 16.2723C11.6963 16.3674 11.5741 16.4774 11.4247 16.6023L11.3595 16.6594L10.9399 17.0179V17.0383H12.1621V17.5312H10.2025L10.1984 17.0505ZM13.8641 16.8549L12.6052 16.8509V16.4231L13.7093 14.6794H14.4182V16.4231H14.7726V16.8549H14.4182V17.5312H13.8641V16.8549ZM13.8681 16.4149V15.3434L13.1715 16.4149H13.8681ZM16.5866 14.3208H17.1163L15.6985 18.3176H15.1688L16.5866 14.3208ZM17.779 17.4824L18.8749 15.2212V15.1927H17.4694V14.6794H19.4086V15.2538L18.3738 17.5312H17.779V17.4824Z" fill="url(#paint2_linear_10383_242836)"/>
<path d="M6.39698 18.1157C6.39698 18.9337 6.39765 19.7517 6.39632 20.5697C6.39566 21.0141 6.26071 21.1553 5.83727 21.1559C5.33141 21.1573 4.82554 21.16 4.31967 21.1553C3.54991 21.1478 3.00681 20.5902 3.00349 19.7981C2.99884 18.6651 2.99884 17.5315 3.00349 16.3986C3.00681 15.6256 3.518 15.0761 4.27447 15.0502C4.82155 15.0318 5.3693 15.04 5.91638 15.0475C6.25141 15.0523 6.38834 15.2084 6.39632 15.5594C6.39698 15.5765 6.39632 15.5935 6.39632 15.6106C6.39698 16.4456 6.39698 17.2807 6.39698 18.1157Z" fill="#FFE5B6"/>
<path d="M24.3346 18.0482C24.3346 17.222 24.3332 16.3951 24.3352 15.569C24.3359 15.1538 24.4708 15.0107 24.8684 15.0079C25.3742 15.0039 25.8801 15.0011 26.386 15.0086C27.2102 15.0209 27.7274 15.5649 27.7287 16.4156C27.7307 17.5144 27.7307 18.614 27.7287 19.7128C27.7267 20.569 27.193 21.115 26.3574 21.1177C25.8515 21.1198 25.3456 21.1205 24.8398 21.117C24.4901 21.115 24.3372 20.9616 24.3359 20.6044C24.3326 19.7523 24.3346 18.9003 24.3346 18.0482Z" fill="#FFE5B6"/>
<path d="M25.6067 21.7539C25.8852 21.7539 26.1478 21.7539 26.4669 21.7539C26.3991 22.1179 26.3565 22.469 26.2668 22.8071C25.6353 25.1991 23.5447 26.8944 21.1323 26.9673C20.4204 26.9891 19.7071 26.9741 18.9945 26.9748C18.9467 26.9748 18.8988 26.9639 18.8377 26.9557C18.8377 26.6783 18.8377 26.4097 18.8377 26.1145C18.9287 26.1104 19.0171 26.1029 19.1049 26.1029C19.751 26.1009 20.3978 26.1118 21.0439 26.0975C23.3925 26.0457 25.3102 24.2495 25.5874 21.8534C25.5907 21.8289 25.5974 21.8043 25.6067 21.7539Z" fill="#FFE5B6"/>
<path d="M16.4572 25.6755C16.8049 25.6749 17.1525 25.6714 17.5002 25.6762C17.8179 25.6803 17.9682 25.8364 17.9735 26.1636C17.9775 26.4186 17.9775 26.6742 17.9735 26.9291C17.9682 27.2379 17.8126 27.4131 17.5201 27.4158C16.8168 27.422 16.1129 27.4267 15.4096 27.4138C14.9356 27.4056 14.5827 27.0171 14.584 26.5413C14.5853 26.062 14.9383 25.6885 15.4149 25.6776C15.7619 25.6687 16.1096 25.6755 16.4572 25.6755Z" fill="#FFE5B6"/>
<path d="M26.455 14.4997C26.455 13.0316 26.1658 11.5778 25.604 10.2215C25.0423 8.86516 24.2189 7.63276 23.1808 6.59467C22.1428 5.55657 20.9105 4.7331 19.5543 4.17129C18.198 3.60947 16.7444 3.32031 15.2764 3.32031C13.8084 3.32031 12.3548 3.60947 10.9986 4.17129C9.64235 4.7331 8.41004 5.55657 7.37202 6.59467C6.33399 7.63276 5.51059 8.86517 4.94881 10.2215C4.38704 11.5778 4.0979 13.0316 4.0979 14.4997H5.13497C5.13497 13.1678 5.39728 11.8489 5.90694 10.6184C6.4166 9.38789 7.16361 8.26983 8.10533 7.32804C9.04705 6.38625 10.165 5.63918 11.3955 5.12948C12.6259 4.61979 13.9446 4.35746 15.2764 4.35746C16.6082 4.35746 17.927 4.61979 19.1574 5.12948C20.3878 5.63918 21.5058 6.38625 22.4475 7.32804C23.3892 8.26983 24.1363 9.38789 24.6459 10.6184C25.1556 11.8489 25.4179 13.1678 25.4179 14.4997H26.455Z" fill="#FFE5B6"/>
<defs>
<filter id="filter0_b_10383_242836" x="4.77262" y="4.81461" width="21.1276" height="21.5036" filterUnits="userSpaceOnUse" color-interpolation-filters="sRGB">
<feFlood flood-opacity="0" result="BackgroundImageFix"/>
<feGaussianBlur in="BackgroundImageFix" stdDeviation="1.46769"/>
<feComposite in2="SourceAlpha" operator="in" result="effect1_backgroundBlur_10383_242836"/>
<feBlend mode="normal" in="SourceGraphic" in2="effect1_backgroundBlur_10383_242836" result="shape"/>
</filter>
<linearGradient id="paint0_linear_10383_242836" x1="17.3362" y1="6.77344" x2="22.1759" y2="18.437" gradientUnits="userSpaceOnUse">
<stop stop-color="#FFA133"/>
<stop offset="1" stop-color="#FFC633"/>
</linearGradient>
<linearGradient id="paint1_linear_10383_242836" x1="10.9604" y1="10.5218" x2="21.369" y2="22.5972" gradientUnits="userSpaceOnUse">
<stop stop-color="#FFCA63"/>
<stop offset="1" stop-color="#FFC453"/>
</linearGradient>
<linearGradient id="paint2_linear_10383_242836" x1="17.458" y1="18.5" x2="7.45801" y2="12.5" gradientUnits="userSpaceOnUse">
<stop stop-color="white"/>
<stop offset="1" stop-color="white" stop-opacity="0.6"/>
</linearGradient>
</defs>
</svg>
