<svg width="33" height="32" viewBox="0 0 33 32" fill="none" xmlns="http://www.w3.org/2000/svg">
<g id="icon navigation">
<path id="Vector" d="M28.3903 3.43511L13.2585 0.306872C10.5916 -0.244462 7.98274 1.47054 7.43141 4.13743L4.30317 19.2692C3.75184 21.9361 5.46684 24.545 8.13373 25.0964L23.2655 28.2246C25.9324 28.7759 28.5413 27.0609 29.0927 24.394L32.2209 9.26222C32.7722 6.59533 31.0572 3.98644 28.3903 3.43511Z" fill="url(#paint0_linear_8255_40993)"/>
<g id="Group 1000002040">
<g id="Group 1000001982">
<g id="Vector_2" filter="url(#filter0_b_8255_40993)">
<path d="M20.3827 6H4.93095C2.20766 6 0 8.20766 0 10.9309V26.3827C0 29.106 2.20766 31.3137 4.93095 31.3137H20.3827C23.106 31.3137 25.3137 29.106 25.3137 26.3827V10.9309C25.3137 8.20766 23.106 6 20.3827 6Z" fill="#FF8D07" fill-opacity="0.3"/>
<path d="M4.93095 6.11H20.3827C23.0453 6.11 25.2037 8.26841 25.2037 10.9309V26.3827C25.2037 29.0453 23.0453 31.2037 20.3827 31.2037H4.93095C2.26841 31.2037 0.11 29.0453 0.11 26.3827V10.9309C0.11 8.26841 2.26841 6.11 4.93095 6.11Z" stroke="url(#paint1_linear_8255_40993)" stroke-width="0.22"/>
</g>
</g>
<path id="vector" d="M11.8182 13.0455V15.7727C11.8182 16.3152 11.6027 16.8355 11.2191 17.2191C10.8355 17.6027 10.3152 17.8182 9.77273 17.8182H7.04545C6.50297 17.8182 5.9827 17.6027 5.5991 17.2191C5.2155 16.8355 5 16.3152 5 15.7727V13.0455C5 12.503 5.2155 11.9827 5.5991 11.5991C5.9827 11.2155 6.50297 11 7.04545 11H9.77273C10.3152 11 10.8355 11.2155 11.2191 11.5991C11.6027 11.9827 11.8182 12.503 11.8182 13.0455ZM17.9545 11H15.2273C14.6848 11 14.1645 11.2155 13.7809 11.5991C13.3973 11.9827 13.1818 12.503 13.1818 13.0455V15.7727C13.1818 16.3152 13.3973 16.8355 13.7809 17.2191C14.1645 17.6027 14.6848 17.8182 15.2273 17.8182H17.9545C18.497 17.8182 19.0173 17.6027 19.4009 17.2191C19.7845 16.8355 20 16.3152 20 15.7727V13.0455C20 12.503 19.7845 11.9827 19.4009 11.5991C19.0173 11.2155 18.497 11 17.9545 11ZM9.77273 19.1818H7.04545C6.50297 19.1818 5.9827 19.3973 5.5991 19.7809C5.2155 20.1645 5 20.6848 5 21.2273V23.9545C5 24.497 5.2155 25.0173 5.5991 25.4009C5.9827 25.7845 6.50297 26 7.04545 26H9.77273C10.3152 26 10.8355 25.7845 11.2191 25.4009C11.6027 25.0173 11.8182 24.497 11.8182 23.9545V21.2273C11.8182 20.6848 11.6027 20.1645 11.2191 19.7809C10.8355 19.3973 10.3152 19.1818 9.77273 19.1818ZM17.9545 19.1818H15.2273C14.6848 19.1818 14.1645 19.3973 13.7809 19.7809C13.3973 20.1645 13.1818 20.6848 13.1818 21.2273V23.9545C13.1818 24.497 13.3973 25.0173 13.7809 25.4009C14.1645 25.7845 14.6848 26 15.2273 26H17.9545C18.497 26 19.0173 25.7845 19.4009 25.4009C19.7845 25.0173 20 24.497 20 23.9545V21.2273C20 20.6848 19.7845 20.1645 19.4009 19.7809C19.0173 19.3973 18.497 19.1818 17.9545 19.1818Z" fill="url(#paint2_linear_8255_40993)"/>
</g>
</g>
<defs>
<filter id="filter0_b_8255_40993" x="-3" y="3" width="31.3125" height="31.3137" filterUnits="userSpaceOnUse" color-interpolation-filters="sRGB">
<feFlood flood-opacity="0" result="BackgroundImageFix"/>
<feGaussianBlur in="BackgroundImageFix" stdDeviation="1.5"/>
<feComposite in2="SourceAlpha" operator="in" result="effect1_backgroundBlur_8255_40993"/>
<feBlend mode="normal" in="SourceGraphic" in2="effect1_backgroundBlur_8255_40993" result="shape"/>
</filter>
<linearGradient id="paint0_linear_8255_40993" x1="20.8244" y1="1.87099" x2="7.71408" y2="21.5215" gradientUnits="userSpaceOnUse">
<stop stop-color="#FFA133"/>
<stop offset="1" stop-color="#FFC633"/>
</linearGradient>
<linearGradient id="paint1_linear_8255_40993" x1="20.1629" y1="10.2184" x2="2.8218" y2="30.8487" gradientUnits="userSpaceOnUse">
<stop stop-color="#FFCA63"/>
<stop offset="1" stop-color="#FFC453"/>
</linearGradient>
<linearGradient id="paint2_linear_8255_40993" x1="19.8783" y1="17.0413" x2="4.5151" y2="17.0413" gradientUnits="userSpaceOnUse">
<stop stop-color="white"/>
<stop offset="1" stop-color="white" stop-opacity="0.6"/>
</linearGradient>
</defs>
</svg>
