<svg width="30" height="30" viewBox="0 0 30 30" fill="none" xmlns="http://www.w3.org/2000/svg">
<g id="Property 1=help, Property 2=Yes">
<g id="Group 1000002306">
<g id="Group 1000002307">
<path id="Vector" d="M27.2314 8.40633L17.9417 1.94729C15.1548 0.00958151 12.0051 0.575704 10.0674 3.3626L6.19193 8.93639C4.25422 11.7233 4.82034 14.873 7.60724 16.8107L6.23146 18.7894C5.71474 19.5326 6.23148 20.5534 7.13526 20.5616L13.181 20.6862L16.8969 23.2698C19.6838 25.2075 22.8335 24.6414 24.7712 21.8545L28.6467 16.2807C30.5844 13.4938 30.0182 10.344 27.2314 8.40633Z" fill="url(#paint0_linear_7949_852077)"/>
<g id="Vector_2" filter="url(#filter0_b_7949_852077)">
<path d="M19.1045 7.17529H7.79004C4.3957 7.17529 2.13281 9.43818 2.13281 12.8325V19.6212C2.13281 23.0155 4.3957 25.2784 7.79004 25.2784V27.6884C7.79004 28.5936 8.79703 29.1366 9.54378 28.6275L14.5787 25.2784H19.1045C22.4988 25.2784 24.7617 23.0155 24.7617 19.6212V12.8325C24.7617 9.43818 22.4988 7.17529 19.1045 7.17529Z" fill="#FF8D07" fill-opacity="0.3"/>
<path d="M7.90548 25.2784V25.163H7.79004C6.1191 25.163 4.73563 24.6065 3.77018 23.6411C2.80473 22.6756 2.24825 21.2921 2.24825 19.6212V12.8325C2.24825 11.1616 2.80473 9.77811 3.77018 8.81266C4.73563 7.84721 6.1191 7.29073 7.79004 7.29073H19.1045C20.7754 7.29073 22.1589 7.84721 23.1244 8.81266C24.0898 9.77811 24.6463 11.1616 24.6463 12.8325V19.6212C24.6463 21.2921 24.0898 22.6756 23.1244 23.6411C22.1589 24.6065 20.7754 25.163 19.1045 25.163H14.5787H14.5438L14.5148 25.1823L9.47984 28.5314L9.47875 28.5321C8.8104 28.9878 7.90548 28.503 7.90548 27.6884V25.2784Z" stroke="url(#paint1_linear_7949_852077)" stroke-width="0.23088"/>
</g>
<g id="Group 1000002305">
<path id="Vector_3" d="M13.3489 22.2905C13.9148 22.2905 14.3735 21.8317 14.3735 21.2658C14.3735 20.7 13.9148 20.2412 13.3489 20.2412C12.783 20.2412 12.3242 20.7 12.3242 21.2658C12.3242 21.8317 12.783 22.2905 13.3489 22.2905Z" fill="url(#paint2_linear_7949_852077)"/>
<path id="Vector_4" d="M16.6397 13.9981C16.6397 15.5555 15.4921 16.3342 15.0686 16.6211C14.5358 16.9764 14.3718 17.2086 14.3718 17.5911V17.878C14.3718 18.4382 13.9073 18.9027 13.3472 18.9027C12.7871 18.9027 12.3226 18.4382 12.3226 17.878V17.5911C12.3226 16.0064 13.4838 15.2276 13.921 14.9271C14.4265 14.5855 14.5904 14.3533 14.5904 13.9981C14.5904 13.315 14.0303 12.7548 13.3472 12.7548C12.6641 12.7548 12.104 13.315 12.104 13.9981C12.104 14.5582 11.6395 15.0227 11.0793 15.0227C10.5192 15.0227 10.0547 14.5582 10.0547 13.9981C10.0547 12.181 11.5302 10.7056 13.3472 10.7056C15.1642 10.7056 16.6397 12.181 16.6397 13.9981Z" fill="url(#paint3_linear_7949_852077)"/>
</g>
</g>
</g>
</g>
<defs>
<filter id="filter0_b_7949_852077" x="-1.01556" y="4.02692" width="28.9256" height="27.9449" filterUnits="userSpaceOnUse" color-interpolation-filters="sRGB">
<feFlood flood-opacity="0" result="BackgroundImageFix"/>
<feGaussianBlur in="BackgroundImageFix" stdDeviation="1.57418"/>
<feComposite in2="SourceAlpha" operator="in" result="effect1_backgroundBlur_7949_852077"/>
<feBlend mode="normal" in="SourceGraphic" in2="effect1_backgroundBlur_7949_852077" result="shape"/>
</filter>
<linearGradient id="paint0_linear_7949_852077" x1="22.5865" y1="5.17681" x2="5.74318" y2="16.5498" gradientUnits="userSpaceOnUse">
<stop stop-color="#FFA133"/>
<stop offset="1" stop-color="#FFC633"/>
</linearGradient>
<linearGradient id="paint1_linear_7949_852077" x1="20.1572" y1="10.7828" x2="5.45371" y2="29.0678" gradientUnits="userSpaceOnUse">
<stop stop-color="#FFCA63"/>
<stop offset="1" stop-color="#FFC453"/>
</linearGradient>
<linearGradient id="paint2_linear_7949_852077" x1="14.3569" y1="21.0666" x2="12.258" y2="21.0666" gradientUnits="userSpaceOnUse">
<stop stop-color="white"/>
<stop offset="1" stop-color="white" stop-opacity="0.87"/>
</linearGradient>
<linearGradient id="paint3_linear_7949_852077" x1="16.5863" y1="14.007" x2="9.84182" y2="14.007" gradientUnits="userSpaceOnUse">
<stop stop-color="white"/>
<stop offset="1" stop-color="white" stop-opacity="0.87"/>
</linearGradient>
</defs>
</svg>
