<svg width="30" height="30" viewBox="0 0 30 30" fill="none" xmlns="http://www.w3.org/2000/svg">
<path d="M28.1607 15.4666C28.6045 14.4509 28.6696 13.3991 28.2353 12.3602C27.974 11.7361 27.6922 11.1169 27.3643 10.5292C26.2546 8.54197 25.1305 6.56311 23.989 4.59494C23.182 3.20184 21.9899 2.45828 20.3834 2.49641C19.5181 2.51681 18.6528 2.5372 17.7888 2.59291C15.9702 2.71119 14.153 2.83433 12.3387 2.99361C11.2459 3.0897 10.2233 3.42992 9.50251 4.34342C9.08339 4.87654 8.70056 5.45001 8.37475 6.04685C7.48843 7.67821 6.63671 9.32665 5.78581 10.9735C5.18493 12.1383 4.58701 13.3087 4.22549 14.5832C3.77127 16.1827 4.06475 17.5932 5.33349 18.6821C5.9629 19.2228 6.64586 19.7178 7.35837 20.1335C8.97979 21.0776 12.2686 22.8853 12.2636 22.8947C13.3583 23.4991 14.4405 24.1312 15.5517 24.7C16.5661 25.2194 17.5924 25.7352 18.6521 26.1414C20.386 26.8059 21.8266 26.3813 22.9958 24.9204C23.4405 24.3648 23.8504 23.7697 24.1965 23.1454C25.1238 21.4736 26.0172 19.7832 26.9023 18.086C27.351 17.2276 27.7705 16.3532 28.1592 15.4657L28.1607 15.4666Z" fill="url(#paint0_linear_7892_901001)"/>
<path d="M28.1607 15.4666C28.6045 14.4509 28.6696 13.3991 28.2353 12.3602C27.974 11.7361 27.6922 11.1169 27.3643 10.5292C26.2546 8.54197 25.1305 6.56311 23.989 4.59494C23.182 3.20184 21.9899 2.45828 20.3834 2.49641C19.5181 2.51681 18.6528 2.5372 17.7888 2.59291C15.9702 2.71119 14.153 2.83433 12.3387 2.99361C11.2459 3.0897 10.2233 3.42992 9.50251 4.34342C9.08339 4.87654 8.70056 5.45001 8.37475 6.04685C7.48843 7.67821 6.63671 9.32665 5.78581 10.9735C5.18493 12.1383 4.58701 13.3087 4.22549 14.5832C3.77127 16.1827 4.06475 17.5932 5.33349 18.6821C5.9629 19.2228 6.64586 19.7178 7.35837 20.1335C8.97979 21.0776 12.2686 22.8853 12.2636 22.8947C13.3583 23.4991 14.4405 24.1312 15.5517 24.7C16.5661 25.2194 17.5924 25.7352 18.6521 26.1414C20.386 26.8059 21.8266 26.3813 22.9958 24.9204C23.4405 24.3648 23.8504 23.7697 24.1965 23.1454C25.1238 21.4736 26.0172 19.7832 26.9023 18.086C27.351 17.2276 27.7705 16.3532 28.1592 15.4657L28.1607 15.4666Z" fill="url(#paint1_linear_7892_901001)"/>
<g filter="url(#filter0_b_7892_901001)">
<path d="M23.366 13.3474C23.2894 12.2369 22.8624 11.2786 22.0014 10.5747C21.4838 10.1519 20.9505 9.74355 20.3911 9.38531C18.4984 8.17446 16.5971 6.97794 14.6852 5.79934C13.3328 4.96464 11.9403 4.88941 10.5426 5.7044C9.78973 6.14325 9.03685 6.58209 8.30139 7.05138C6.7538 8.04012 5.20969 9.03245 3.68475 10.0552C2.7663 10.6714 2.02213 11.4685 1.80777 12.6238C1.68403 13.2973 1.61083 13.9887 1.59863 14.6729C1.56901 16.5411 1.57772 18.4076 1.58643 20.2722C1.5934 21.5905 1.6056 22.9124 1.87399 24.2111C2.21035 25.841 3.11834 26.9408 4.73739 27.283C5.54082 27.4531 6.37038 27.557 7.18949 27.5767C9.05253 27.6197 12.7821 27.6125 12.7821 27.6233C14.0247 27.6233 15.2691 27.6537 16.5099 27.6143C17.6427 27.5785 18.7843 27.5337 19.9049 27.3761C21.7383 27.1182 22.8118 26.0434 23.1691 24.1878C23.305 23.482 23.3922 22.7584 23.4096 22.0401C23.4567 20.1164 23.4654 18.1926 23.4636 16.2671C23.4636 15.2927 23.4305 14.3183 23.3643 13.3474H23.366Z" fill="#FF8D07" fill-opacity="0.3"/>
<path d="M23.2468 13.2374H23.2465L23.2546 13.3549C23.3206 14.3233 23.3536 15.2952 23.3536 16.2671V16.2672C23.3554 18.1924 23.3467 20.1151 23.2996 22.0374L23.2996 22.0375C23.2824 22.7487 23.1961 23.4663 23.0611 24.167L23.1691 24.1878L23.0611 24.167C22.8856 25.0786 22.536 25.789 22.0134 26.3026C21.4912 26.8159 20.7878 27.1408 19.8895 27.2672C18.7755 27.4239 17.6395 27.4686 16.5064 27.5044C15.6445 27.5318 14.7821 27.5253 13.9174 27.5189C13.542 27.5161 13.1662 27.5133 12.7898 27.5133C12.7895 27.5133 12.7893 27.5132 12.7891 27.5132C12.7847 27.5128 12.78 27.5126 12.776 27.5124C12.7725 27.5123 12.7684 27.5121 12.7638 27.512C12.7574 27.5118 12.7501 27.5116 12.7419 27.5115C12.7135 27.5109 12.672 27.5104 12.6192 27.51C12.5133 27.509 12.3601 27.5083 12.1707 27.5075C12.0172 27.5069 11.84 27.5063 11.6447 27.5056C11.3577 27.5047 11.0318 27.5036 10.6849 27.5021C9.51953 27.4972 8.12246 27.4882 7.19214 27.4667C6.38041 27.4472 5.5576 27.3442 4.76018 27.1753L4.76013 27.1753C3.971 27.0086 3.36064 26.6588 2.90628 26.1562C2.4511 25.6527 2.14699 24.9897 1.98172 24.1888L1.98172 24.1888C1.71589 22.9026 1.70341 21.5914 1.69643 20.2717C1.68772 18.4069 1.67901 16.5416 1.70862 14.6748C1.72071 13.997 1.79323 13.3117 1.91594 12.6438C2.12282 11.5289 2.84061 10.754 3.74602 10.1466C5.26986 9.12454 6.81308 8.13278 8.36061 7.14408C9.09388 6.67619 9.84482 6.23846 10.598 5.79944L10.598 5.79943C11.2813 5.40102 11.9587 5.22262 12.6275 5.24318C13.2968 5.26376 13.9645 5.48377 14.6274 5.89294L14.6275 5.89297C16.5387 7.07122 18.4396 8.2674 20.3318 9.47795C20.8862 9.83296 21.4158 10.2384 21.9318 10.6598C22.7354 11.3169 23.1506 12.2028 23.2468 13.2374Z" stroke="url(#paint2_linear_7892_901001)" stroke-width="0.22"/>
<path d="M23.2468 13.2374H23.2465L23.2546 13.3549C23.3206 14.3233 23.3536 15.2952 23.3536 16.2671V16.2672C23.3554 18.1924 23.3467 20.1151 23.2996 22.0374L23.2996 22.0375C23.2824 22.7487 23.1961 23.4663 23.0611 24.167L23.1691 24.1878L23.0611 24.167C22.8856 25.0786 22.536 25.789 22.0134 26.3026C21.4912 26.8159 20.7878 27.1408 19.8895 27.2672C18.7755 27.4239 17.6395 27.4686 16.5064 27.5044C15.6445 27.5318 14.7821 27.5253 13.9174 27.5189C13.542 27.5161 13.1662 27.5133 12.7898 27.5133C12.7895 27.5133 12.7893 27.5132 12.7891 27.5132C12.7847 27.5128 12.78 27.5126 12.776 27.5124C12.7725 27.5123 12.7684 27.5121 12.7638 27.512C12.7574 27.5118 12.7501 27.5116 12.7419 27.5115C12.7135 27.5109 12.672 27.5104 12.6192 27.51C12.5133 27.509 12.3601 27.5083 12.1707 27.5075C12.0172 27.5069 11.84 27.5063 11.6447 27.5056C11.3577 27.5047 11.0318 27.5036 10.6849 27.5021C9.51953 27.4972 8.12246 27.4882 7.19214 27.4667C6.38041 27.4472 5.5576 27.3442 4.76018 27.1753L4.76013 27.1753C3.971 27.0086 3.36064 26.6588 2.90628 26.1562C2.4511 25.6527 2.14699 24.9897 1.98172 24.1888L1.98172 24.1888C1.71589 22.9026 1.70341 21.5914 1.69643 20.2717C1.68772 18.4069 1.67901 16.5416 1.70862 14.6748C1.72071 13.997 1.79323 13.3117 1.91594 12.6438C2.12282 11.5289 2.84061 10.754 3.74602 10.1466C5.26986 9.12454 6.81308 8.13278 8.36061 7.14408C9.09388 6.67619 9.84482 6.23846 10.598 5.79944L10.598 5.79943C11.2813 5.40102 11.9587 5.22262 12.6275 5.24318C13.2968 5.26376 13.9645 5.48377 14.6274 5.89294L14.6275 5.89297C16.5387 7.07122 18.4396 8.2674 20.3318 9.47795C20.8862 9.83296 21.4158 10.2384 21.9318 10.6598C22.7354 11.3169 23.1506 12.2028 23.2468 13.2374Z" stroke="url(#paint3_linear_7892_901001)" stroke-width="0.22"/>
</g>
<path d="M16.5199 21.4207H8.52404C7.99947 21.4207 7.57422 21.8577 7.57422 22.3969V22.4166C7.57422 22.9557 7.99947 23.3928 8.52404 23.3928H16.5199C17.0445 23.3928 17.4698 22.9557 17.4698 22.4166V22.3969C17.4698 21.8577 17.0445 21.4207 16.5199 21.4207Z" fill="url(#paint4_linear_7892_901001)"/>
<defs>
<filter id="filter0_b_7892_901001" x="-1.42188" y="2.13159" width="27.8867" height="28.5029" filterUnits="userSpaceOnUse" color-interpolation-filters="sRGB">
<feFlood flood-opacity="0" result="BackgroundImageFix"/>
<feGaussianBlur in="BackgroundImageFix" stdDeviation="1.5"/>
<feComposite in2="SourceAlpha" operator="in" result="effect1_backgroundBlur_7892_901001"/>
<feBlend mode="normal" in="SourceGraphic" in2="effect1_backgroundBlur_7892_901001" result="shape"/>
</filter>
<linearGradient id="paint0_linear_7892_901001" x1="25.1169" y1="9.1895" x2="2.25427" y2="17.0586" gradientUnits="userSpaceOnUse">
<stop stop-color="#50FFFF"/>
<stop offset="1" stop-color="#00BFD9"/>
</linearGradient>
<linearGradient id="paint1_linear_7892_901001" x1="22.3899" y1="2.95405" x2="6.32455" y2="15.9391" gradientUnits="userSpaceOnUse">
<stop stop-color="#FFA133"/>
<stop offset="1" stop-color="#FFC633"/>
</linearGradient>
<linearGradient id="paint2_linear_7892_901001" x1="19.0106" y1="8.88159" x2="3.52691" y2="26.7969" gradientUnits="userSpaceOnUse">
<stop stop-color="#B6F6FF"/>
<stop offset="1" stop-color="white" stop-opacity="0"/>
</linearGradient>
<linearGradient id="paint3_linear_7892_901001" x1="19.0106" y1="8.88159" x2="3.52691" y2="26.7969" gradientUnits="userSpaceOnUse">
<stop stop-color="#FFCA63"/>
<stop offset="1" stop-color="#FFC453"/>
</linearGradient>
<linearGradient id="paint4_linear_7892_901001" x1="17.3895" y1="22.2149" x2="7.25433" y2="22.2149" gradientUnits="userSpaceOnUse">
<stop stop-color="white"/>
<stop offset="1" stop-color="white" stop-opacity="0.6"/>
</linearGradient>
</defs>
</svg>
