<svg width="30" height="32" viewBox="0 0 30 32" fill="none" xmlns="http://www.w3.org/2000/svg">
<g id="Property 1=Merchant, Property 2=Yes">
<path id="Vector" d="M19.6333 1.05616C12.426 -0.459032 5.52172 4.00294 4.02393 11.1464C2.54658 18.191 7.07711 25.12 14.1274 26.5901C21.1551 28.0577 28.1078 23.5447 29.5747 16.5611C31.0557 9.5088 26.5741 2.51626 19.6333 1.05616Z" fill="url(#paint0_linear_7892_900919)"/>
<g id="Group 1000001984">
<g id="Vector_2" filter="url(#filter0_b_7892_900919)">
<path d="M13.2435 5.00008C5.87868 4.97534 0.0206667 10.7427 5.4401e-05 18.0415C-0.0205579 25.2393 5.8189 31.1076 13.0208 31.12C20.2001 31.1344 26.0952 25.3073 26.1179 18.1713C26.1406 10.9653 20.3362 5.02481 13.2435 5.00008Z" fill="#FF8D07" fill-opacity="0.3"/>
<path d="M5.4401e-05 18.0415C-0.0205579 25.2393 5.8189 31.1076 13.0208 31.12C20.2001 31.1344 26.0952 25.3073 26.1179 18.1713C26.1406 10.9653 20.3362 5.02481 13.2435 5.00008M5.4401e-05 18.0415L0.110054 18.0418C0.0896158 25.1788 5.87989 30.9977 13.021 31.01H13.0211C20.1403 31.0243 25.9854 25.2456 26.0079 18.171C26.0304 11.024 20.2734 5.1346 13.2431 5.11008M5.4401e-05 18.0415C0.0206667 10.7427 5.87868 4.97534 13.2435 5.00008M5.4401e-05 18.0415L13.2431 5.11008M13.2431 5.11008L13.2435 5.00008M13.2431 5.11008C13.2431 5.11008 13.2431 5.11008 13.2431 5.11008M13.2431 5.11008C13.2431 5.11008 13.2431 5.11008 13.2431 5.11008M13.2435 5.00008L13.2431 5.11008" stroke="url(#paint1_linear_7892_900919)" stroke-width="0.22"/>
</g>
<g id="Group 1000002128">
<path id="Vector_3" d="M12.9494 22.349L14.1963 23.5533L13.9896 24.7477C13.481 24.7477 12.9725 24.7484 12.4639 24.7491H12.3152V24.7425C10.3892 24.7425 8.4631 24.7466 6.53704 24.741C5.51844 24.7385 4.76787 23.7766 5.06601 22.8162C5.47197 21.5098 5.89949 20.2094 6.35786 18.9204C6.7311 17.8708 7.85566 17.4192 8.8791 17.8896C9.66015 18.2484 10.4598 18.5255 11.3167 18.6275C12.8632 18.8117 14.3342 18.5737 15.7372 17.89C16.003 17.7607 16.2822 17.7006 16.5558 17.7032C16.4279 17.82 16.3205 17.9614 16.2402 18.1228L15.4696 19.6697L13.7465 19.918C13.2007 19.9965 12.7557 20.3682 12.5855 20.888C12.4152 21.4078 12.5546 21.9678 12.9494 22.349Z" fill="url(#paint2_linear_7892_900919)"/>
<path id="Vector_4" d="M12.3056 17.7127C14.4548 17.7127 16.1971 15.9862 16.1971 13.8564C16.1971 11.7266 14.4548 10 12.3056 10C10.1564 10 8.41406 11.7266 8.41406 13.8564C8.41406 15.9862 10.1564 17.7127 12.3056 17.7127Z" fill="url(#paint3_linear_7892_900919)"/>
<path id="Vector_5" d="M20.0581 23.0476C19.938 23.1637 19.8834 23.3305 19.9116 23.4941L20.2436 25.4105C20.2997 25.7365 20.0384 26.001 19.7417 26.001C19.6637 26.001 19.583 25.9826 19.5049 25.9421L17.7681 25.0373C17.6941 24.9986 17.6127 24.9795 17.5313 24.9795C17.4499 24.9795 17.3688 24.9986 17.2945 25.0373L15.558 25.9421C15.48 25.9826 15.3993 26.001 15.3208 26.001C15.0242 26.001 14.7628 25.7365 14.8193 25.4105L14.9338 24.7478L15.1509 23.4941C15.1792 23.3305 15.1246 23.1637 15.0045 23.0476L13.5996 21.6904C13.2974 21.3987 13.4643 20.8903 13.8818 20.8302L15.8235 20.5506C15.9893 20.5267 16.1324 20.4235 16.2067 20.2747L17.0748 18.5311C17.1685 18.3436 17.3499 18.25 17.5313 18.25C17.7127 18.25 17.8945 18.3436 17.9878 18.5311L18.4295 19.4174L18.8562 20.2747C18.9302 20.4235 19.0737 20.5267 19.2395 20.5506L21.1812 20.8302C21.5987 20.8903 21.7652 21.3987 21.463 21.6904L20.0581 23.0476Z" fill="url(#paint4_linear_7892_900919)"/>
</g>
</g>
</g>
<defs>
<filter id="filter0_b_7892_900919" x="-3" y="2" width="32.1172" height="32.1201" filterUnits="userSpaceOnUse" color-interpolation-filters="sRGB">
<feFlood flood-opacity="0" result="BackgroundImageFix"/>
<feGaussianBlur in="BackgroundImageFix" stdDeviation="1.5"/>
<feComposite in2="SourceAlpha" operator="in" result="effect1_backgroundBlur_7892_900919"/>
<feBlend mode="normal" in="SourceGraphic" in2="effect1_backgroundBlur_7892_900919" result="shape"/>
</filter>
<linearGradient id="paint0_linear_7892_900919" x1="19.4526" y1="1.01873" x2="5.92441" y2="21.2947" gradientUnits="userSpaceOnUse">
<stop stop-color="#FFA133"/>
<stop offset="1" stop-color="#FFC633"/>
</linearGradient>
<linearGradient id="paint1_linear_7892_900919" x1="20.8035" y1="9.35277" x2="2.90982" y2="30.6389" gradientUnits="userSpaceOnUse">
<stop stop-color="#FFCA63"/>
<stop offset="1" stop-color="#FFC453"/>
</linearGradient>
<linearGradient id="paint2_linear_7892_900919" x1="16.4621" y1="20.5409" x2="4.62644" y2="20.5409" gradientUnits="userSpaceOnUse">
<stop stop-color="white"/>
<stop offset="1" stop-color="white" stop-opacity="0.6"/>
</linearGradient>
<linearGradient id="paint3_linear_7892_900919" x1="16.134" y1="13.1063" x2="8.16246" y2="13.1063" gradientUnits="userSpaceOnUse">
<stop stop-color="white"/>
<stop offset="1" stop-color="white" stop-opacity="0.6"/>
</linearGradient>
<linearGradient id="paint4_linear_7892_900919" x1="21.5511" y1="21.3717" x2="13.1811" y2="21.3717" gradientUnits="userSpaceOnUse">
<stop stop-color="white"/>
<stop offset="1" stop-color="white" stop-opacity="0.6"/>
</linearGradient>
</defs>
</svg>
