<svg width="30" height="30" viewBox="0 0 30 30" fill="none" xmlns="http://www.w3.org/2000/svg">
<g id="Property 1=P2P, Property 2=Yes">
<g id="Group 1000001998">
<path id="Vector" d="M25.5962 7.15734L13.8796 2.31356C11.8146 1.45987 9.44857 2.44182 8.59489 4.50681L3.7511 16.2234C2.89741 18.2884 3.87937 20.6545 5.94435 21.5082L17.661 26.3519C19.726 27.2056 22.092 26.2237 22.9457 24.1587L27.7895 12.4421C28.6432 10.3771 27.6612 8.01103 25.5962 7.15734Z" fill="url(#paint0_linear_7892_901006)"/>
<g id="Group 1000001982">
<g id="Vector_2" filter="url(#filter0_b_7892_901006)">
<path d="M18.2634 7.79297H5.58497C3.35048 7.79297 1.53906 9.60438 1.53906 11.8389V24.5173C1.53906 26.7518 3.35048 28.5632 5.58497 28.5632H18.2634C20.4978 28.5632 22.3093 26.7518 22.3093 24.5173V11.8389C22.3093 9.60438 20.4978 7.79297 18.2634 7.79297Z" fill="#FF8D07" fill-opacity="0.3"/>
<path d="M5.58497 7.90297H18.2634C20.4371 7.90297 22.1993 9.66513 22.1993 11.8389V24.5173C22.1993 26.691 20.4371 28.4532 18.2634 28.4532H5.58497C3.41123 28.4532 1.64906 26.691 1.64906 24.5173V11.8389C1.64906 9.66513 3.41123 7.90297 5.58497 7.90297Z" stroke="url(#paint1_linear_7892_901006)" stroke-width="0.22"/>
</g>
<g id="Group">
<path id="Vector_3" d="M12.4065 15.2935C12.4032 17.2198 10.849 18.7624 8.91777 18.7574C7.00808 18.7525 5.4704 17.1867 5.46875 15.2572C5.46875 13.5459 6.82124 11.8313 8.88967 11.8115C11.0077 11.7916 12.4214 13.4979 12.4065 15.2935ZM8.94423 17.2727V17.276C8.97399 17.276 9.00375 17.276 9.03351 17.276C9.19555 17.2694 9.23688 17.2297 9.2468 17.0726C9.25176 17.0032 9.25342 16.9321 9.25342 16.8626C9.25342 16.7882 9.28318 16.7552 9.36089 16.7403C9.61221 16.694 9.84369 16.6014 10.0156 16.398C10.2488 16.1236 10.2405 15.7548 9.97596 15.5101C9.85526 15.3994 9.71307 15.3051 9.56591 15.2324C9.32782 15.115 9.0765 15.0257 8.8351 14.9149C8.69126 14.8488 8.55072 14.7744 8.4201 14.6851C8.32585 14.6206 8.3275 14.5214 8.42175 14.4536C8.49781 14.4007 8.5904 14.3494 8.67968 14.3395C8.98722 14.3015 9.28979 14.3197 9.57583 14.4685C9.62874 14.4966 9.71968 14.4834 9.7792 14.4586C9.84038 14.4338 9.88833 14.3726 9.93793 14.323C10.0355 14.2221 10.0404 14.1593 9.92305 14.0915C9.74613 13.989 9.55765 13.903 9.36585 13.8336C9.28318 13.8038 9.25011 13.7757 9.25176 13.693C9.25176 13.612 9.25177 13.5293 9.24019 13.45C9.23358 13.407 9.20878 13.3442 9.17571 13.3309C9.03186 13.2714 8.87644 13.2681 8.73094 13.3227C8.62181 13.364 8.65323 13.4864 8.63008 13.5756C8.62512 13.5971 8.62181 13.6203 8.62347 13.6418C8.64165 13.7707 8.57717 13.8203 8.45647 13.8468C8.23161 13.8948 8.03154 14.0006 7.88439 14.1824C7.74054 14.361 7.68267 14.5611 7.767 14.7826C7.85298 15.0108 8.03154 15.1547 8.24484 15.2506C8.44986 15.3431 8.66149 15.4209 8.86652 15.5134C9.06162 15.6011 9.26003 15.6854 9.44356 15.7945C9.6089 15.8921 9.59071 16.0706 9.42041 16.1616C9.38238 16.1814 9.3394 16.198 9.29641 16.2079C8.92108 16.2889 8.55237 16.2757 8.20515 16.0988C8.06627 16.0277 7.96375 16.0359 7.86455 16.15C7.85298 16.1632 7.83644 16.1748 7.82321 16.188C7.65291 16.3484 7.65622 16.398 7.86124 16.5204C8.05304 16.6361 8.25641 16.7237 8.48127 16.7452C8.58544 16.7552 8.63173 16.7932 8.62347 16.9023C8.61851 16.9751 8.63669 17.0495 8.64661 17.1222C8.65984 17.2165 8.71606 17.2661 8.8103 17.2727C8.85494 17.276 8.89959 17.2727 8.94258 17.2727H8.94423Z" fill="url(#paint2_linear_7892_901006)"/>
<path id="Vector_4" d="M15.169 12.5644C15.341 12.5991 15.498 12.6256 15.6502 12.6619C16.4802 12.8554 17.1531 13.272 17.5698 14.0392C17.9335 14.7105 17.9666 15.4198 17.7781 16.149C17.6458 16.6665 17.3846 17.1195 17.0771 17.5494C17.0572 17.5775 17.0308 17.604 17.0076 17.6305L16.9745 17.6205C16.9977 17.4982 17.0208 17.3758 17.0423 17.2518C17.1267 16.7409 17.1498 16.225 17.044 15.7191C16.9365 15.1966 16.6356 14.7816 16.1974 14.4741C15.7692 14.1748 15.2831 14.0326 14.759 13.9483C14.759 14.1368 14.759 14.317 14.759 14.4972C14.759 14.5898 14.7507 14.6808 14.6581 14.7403C14.5854 14.7882 14.5325 14.7915 14.4647 14.7271C14.0877 14.3567 13.7041 13.9913 13.3288 13.6193C13.056 13.3481 12.7897 13.0703 12.5235 12.7926C12.3863 12.6487 12.4128 12.5396 12.6062 12.4768C12.8344 12.4024 13.0659 12.3395 13.299 12.2817C13.919 12.1279 14.5407 11.9824 15.1624 11.8303C15.255 11.8071 15.3096 11.8485 15.3658 11.9063C15.4236 11.9642 15.4137 12.0254 15.384 12.0899C15.3145 12.2436 15.2451 12.3974 15.169 12.566V12.5644Z" fill="url(#paint3_linear_7892_901006)"/>
<path id="Vector_5" d="M8.70564 23.9949C8.59321 23.9718 8.50227 23.9519 8.40968 23.9354C7.76154 23.8114 7.163 23.5799 6.70005 23.0872C6.08498 22.4308 5.87334 21.6438 6.00727 20.7608C6.10978 20.0829 6.40739 19.4894 6.82736 18.9537C6.84224 18.9355 6.86208 18.9206 6.90507 18.8826C6.8687 19.0529 6.83728 19.1918 6.81083 19.3323C6.70335 19.9226 6.68517 20.5095 6.89019 21.0833C7.1382 21.7744 7.66564 22.1729 8.32866 22.4159C8.53534 22.492 8.7569 22.5267 8.97019 22.5846C9.07104 22.611 9.09254 22.568 9.09254 22.4787C9.09254 22.3118 9.09254 22.1448 9.10577 21.9794C9.11073 21.9249 9.15206 21.867 9.19174 21.824C9.25457 21.7579 9.31906 21.7595 9.39015 21.8306C10.0333 22.4738 10.6815 23.112 11.3246 23.7568C11.4718 23.904 11.4387 24.0247 11.2354 24.0842C10.8485 24.1966 10.4599 24.2992 10.0697 24.3967C9.64313 24.5042 9.21489 24.6001 8.78666 24.6993C8.74698 24.7092 8.70564 24.7125 8.66596 24.7142C8.48904 24.7224 8.41464 24.6183 8.48739 24.4513C8.55022 24.3058 8.62297 24.1652 8.70564 23.9916V23.9949Z" fill="url(#paint4_linear_7892_901006)"/>
<path id="Vector_6" d="M14.8884 17.7879C12.8696 17.7995 11.4427 19.4727 11.4493 21.2369C11.4344 23.1367 12.9771 24.7108 14.8653 24.7339C16.7899 24.757 18.3623 23.226 18.3854 21.3246C18.4086 19.3603 16.8643 17.7763 14.8868 17.7879H14.8884Z" fill="url(#paint5_linear_7892_901006)"/>
</g>
</g>
</g>
</g>
<defs>
<filter id="filter0_b_7892_901006" x="-1.46094" y="4.79297" width="26.7695" height="26.7703" filterUnits="userSpaceOnUse" color-interpolation-filters="sRGB">
<feFlood flood-opacity="0" result="BackgroundImageFix"/>
<feGaussianBlur in="BackgroundImageFix" stdDeviation="1.5"/>
<feComposite in2="SourceAlpha" operator="in" result="effect1_backgroundBlur_7892_901006"/>
<feBlend mode="normal" in="SourceGraphic" in2="effect1_backgroundBlur_7892_901006" result="shape"/>
</filter>
<linearGradient id="paint0_linear_7892_901006" x1="19.7379" y1="4.73545" x2="6.15475" y2="18.5623" gradientUnits="userSpaceOnUse">
<stop stop-color="#FFA133"/>
<stop offset="1" stop-color="#FFC633"/>
</linearGradient>
<linearGradient id="paint1_linear_7892_901006" x1="18.083" y1="11.2542" x2="3.85439" y2="28.1817" gradientUnits="userSpaceOnUse">
<stop stop-color="#FFCA63"/>
<stop offset="1" stop-color="#FFC453"/>
</linearGradient>
<linearGradient id="paint2_linear_7892_901006" x1="12.3503" y1="14.6089" x2="5.24447" y2="14.6089" gradientUnits="userSpaceOnUse">
<stop stop-color="white"/>
<stop offset="1" stop-color="white" stop-opacity="0.87"/>
</linearGradient>
<linearGradient id="paint3_linear_7892_901006" x1="17.8468" y1="14.1624" x2="12.2612" y2="14.1624" gradientUnits="userSpaceOnUse">
<stop stop-color="white"/>
<stop offset="1" stop-color="white" stop-opacity="0.87"/>
</linearGradient>
<linearGradient id="paint4_linear_7892_901006" x1="11.3713" y1="21.2314" x2="5.79268" y2="21.2314" gradientUnits="userSpaceOnUse">
<stop stop-color="white"/>
<stop offset="1" stop-color="white" stop-opacity="0.87"/>
</linearGradient>
<linearGradient id="paint5_linear_7892_901006" x1="18.3294" y1="20.5855" x2="11.225" y2="20.5855" gradientUnits="userSpaceOnUse">
<stop stop-color="white"/>
<stop offset="1" stop-color="white" stop-opacity="0.87"/>
</linearGradient>
</defs>
</svg>
