<svg width="30" height="30" viewBox="0 0 30 30" fill="none" xmlns="http://www.w3.org/2000/svg">
<g id="Property 1=policy, Property 2=Yes">
<g id="Group 1000001998">
<path id="Vector" d="M25.5962 7.15734L13.8796 2.31356C11.8146 1.45987 9.44857 2.44182 8.59489 4.50681L3.7511 16.2234C2.89741 18.2884 3.87937 20.6545 5.94435 21.5082L17.661 26.3519C19.726 27.2056 22.092 26.2237 22.9457 24.1587L27.7895 12.4421C28.6432 10.3771 27.6612 8.01103 25.5962 7.15734Z" fill="url(#paint0_linear_7949_860153)"/>
<g id="Group 1000001982">
<g id="Vector_2" filter="url(#filter0_b_7949_860153)">
<path d="M18.9093 8H6.09067C3.83146 8 2 9.81141 2 12.0459V24.7243C2 26.9588 3.83146 28.7702 6.09067 28.7702H18.9093C21.1685 28.7702 23 26.9588 23 24.7243V12.0459C23 9.81141 21.1685 8 18.9093 8Z" fill="#FF8D07" fill-opacity="0.3"/>
<path d="M6.09067 8.11H18.9093C21.1089 8.11 22.89 9.8733 22.89 12.0459V24.7243C22.89 26.8969 21.1089 28.6602 18.9093 28.6602H6.09067C3.89106 28.6602 2.11 26.8969 2.11 24.7243V12.0459C2.11 9.8733 3.89106 8.11 6.09067 8.11Z" stroke="url(#paint1_linear_7949_860153)" stroke-width="0.22"/>
</g>
</g>
</g>
<g id="Vector_3">
<path fill-rule="evenodd" clip-rule="evenodd" d="M14.1876 13.1787L14.1876 15.6423C14.1875 15.7319 14.1873 15.8597 14.2033 15.9693C14.2228 16.1034 14.287 16.3623 14.5365 16.5196C14.7767 16.6712 15.0118 16.6149 15.1235 16.5776C15.2209 16.5451 15.3276 16.4904 15.4073 16.4497L16.2501 16.0196L17.093 16.4497C17.1726 16.4904 17.2794 16.5451 17.3768 16.5776C17.4885 16.6149 17.7235 16.6712 17.9638 16.5196C18.2133 16.3623 18.2775 16.1034 18.297 15.9693C18.3129 15.8597 18.3128 15.7319 18.3127 15.6423L18.3126 12.0118C18.3972 12.0076 18.4803 12.004 18.5615 12.0009C19.3653 11.9708 20 12.6801 20 13.5442V22.5765C20 23.4717 19.3205 24.1959 18.4889 24.2518C17.7618 24.3006 16.9075 24.3962 16.25 24.5826C15.4389 24.8125 14.4703 25.3102 13.7207 25.7395C13.5114 25.8593 13.2898 25.9461 13.0626 25.9999V13.7381C13.3032 13.6748 13.5368 13.575 13.7554 13.4391C13.8936 13.3532 14.0385 13.2655 14.1876 13.1787ZM18.2958 19.8972C18.3712 20.2209 18.1879 20.549 17.8866 20.63L14.8866 21.4357C14.5852 21.5166 14.2798 21.3198 14.2044 20.996C14.1291 20.6722 14.3123 20.3441 14.6137 20.2632L17.6137 19.4575C17.9151 19.3765 18.2205 19.5734 18.2958 19.8972Z" fill="url(#paint2_linear_7949_860153)"/>
<path fill-rule="evenodd" clip-rule="evenodd" d="M11.9376 13.7704C11.687 13.7193 11.442 13.6285 11.2117 13.4977C10.4721 13.0776 9.53691 12.6024 8.75 12.3794C8.08512 12.1909 7.21908 12.0953 6.4868 12.047C5.66473 11.9927 5 12.7115 5 13.5963V22.5765C5 23.4717 5.67953 24.1959 6.51114 24.2518C7.23821 24.3006 8.09247 24.3962 8.75 24.5826C9.56109 24.8125 10.5297 25.3102 11.2793 25.7395C11.4887 25.8594 11.7104 25.9462 11.9376 26V13.7704ZM6.70443 16.6743C6.77977 16.3505 7.08517 16.1537 7.38656 16.2346L10.3866 17.0403C10.6879 17.1213 10.8712 17.4494 10.7958 17.7731C10.7205 18.0969 10.4151 18.2938 10.1137 18.2128L7.11371 17.4071C6.81232 17.3262 6.62908 16.9981 6.70443 16.6743ZM7.38656 19.4575C7.08517 19.3765 6.77977 19.5734 6.70443 19.8972C6.62908 20.2209 6.81232 20.549 7.11371 20.63L10.1137 21.4357C10.4151 21.5166 10.7205 21.3198 10.7958 20.996C10.8712 20.6722 10.6879 20.3441 10.3866 20.2632L7.38656 19.4575Z" fill="url(#paint3_linear_7949_860153)"/>
<path d="M17.1876 12.1083C16.7226 12.1674 16.2655 12.2538 15.875 12.3794C15.6939 12.4376 15.5048 12.5115 15.3126 12.5961V12.7521V15.16L15.8746 14.8732L15.8812 14.8696C15.918 14.8494 16.0729 14.7644 16.2501 14.7644C16.2858 14.7644 16.3205 14.7678 16.3536 14.7735C16.4849 14.796 16.5897 14.8535 16.619 14.8696L16.6256 14.8732L17.1876 15.16V12.5076V12.1083Z" fill="url(#paint4_linear_7949_860153)"/>
</g>
</g>
<defs>
<filter id="filter0_b_7949_860153" x="-1" y="5" width="27" height="26.7703" filterUnits="userSpaceOnUse" color-interpolation-filters="sRGB">
<feFlood flood-opacity="0" result="BackgroundImageFix"/>
<feGaussianBlur in="BackgroundImageFix" stdDeviation="1.5"/>
<feComposite in2="SourceAlpha" operator="in" result="effect1_backgroundBlur_7949_860153"/>
<feBlend mode="normal" in="SourceGraphic" in2="effect1_backgroundBlur_7949_860153" result="shape"/>
</filter>
<linearGradient id="paint0_linear_7949_860153" x1="19.7379" y1="4.73545" x2="6.15475" y2="18.5623" gradientUnits="userSpaceOnUse">
<stop stop-color="#FFA133"/>
<stop offset="1" stop-color="#FFC633"/>
</linearGradient>
<linearGradient id="paint1_linear_7949_860153" x1="18.7269" y1="11.4613" x2="4.5261" y2="28.5426" gradientUnits="userSpaceOnUse">
<stop stop-color="#FFCA63"/>
<stop offset="1" stop-color="#FFC453"/>
</linearGradient>
<linearGradient id="paint2_linear_7949_860153" x1="19.8783" y1="17.6385" x2="4.5151" y2="17.6385" gradientUnits="userSpaceOnUse">
<stop stop-color="white"/>
<stop offset="1" stop-color="white" stop-opacity="0.87"/>
</linearGradient>
<linearGradient id="paint3_linear_7949_860153" x1="19.8783" y1="17.6385" x2="4.5151" y2="17.6385" gradientUnits="userSpaceOnUse">
<stop stop-color="white"/>
<stop offset="1" stop-color="white" stop-opacity="0.87"/>
</linearGradient>
<linearGradient id="paint4_linear_7949_860153" x1="19.8783" y1="17.6385" x2="4.5151" y2="17.6385" gradientUnits="userSpaceOnUse">
<stop stop-color="white"/>
<stop offset="1" stop-color="white" stop-opacity="0.87"/>
</linearGradient>
</defs>
</svg>
