<svg width="30" height="33" viewBox="0 0 30 33" fill="none" xmlns="http://www.w3.org/2000/svg">
<g id="Property 1=setting, Property 2=Yes">
<path id="Vector" d="M26.8011 11.8991C24.4652 11.4162 23.8517 9.56686 25.4321 7.78081C26.3459 6.74515 26.2553 5.16541 25.2197 4.25154L23.2511 2.51236C22.357 1.69504 20.9659 1.78427 20.1486 2.67841L19.956 2.89426C18.3756 4.68031 16.4656 4.28546 15.7101 2.01653L15.6188 1.74197C15.2488 0.602388 14.0072 -0.03109 12.8622 0.364703L10.3655 1.1808C9.05235 1.6091 8.34013 3.03634 8.76844 4.34947C9.52664 6.6055 8.23015 8.05997 5.89426 7.57708C4.55209 7.29962 3.21545 8.16714 2.93533 9.52222L2.46578 11.7936C2.18831 13.1357 3.05584 14.4724 4.41091 14.7525C6.7468 15.2354 7.36031 17.0847 5.76706 18.8681C4.8532 19.9038 4.94379 21.4835 5.97946 22.3974L7.94798 24.1366C8.84212 24.9539 10.2332 24.8647 11.0505 23.9705L11.2431 23.7547C12.8235 21.9686 14.7335 22.3635 15.489 24.6324L15.5803 24.9069C15.9761 26.0519 17.2178 26.6853 18.3627 26.2896L20.8595 25.4735C22.1726 25.0452 22.8848 23.6179 22.4538 22.3177C21.6983 20.0488 22.9948 18.5943 25.3307 19.0772C26.6728 19.3546 28.0095 18.4871 28.2896 17.132L28.7592 14.8607C29.0237 13.5158 28.1562 12.1792 26.8011 11.8991Z" fill="url(#paint0_linear_7892_900930)"/>
<g id="Group 1000002048">
<g id="Vector_2" filter="url(#filter0_b_7892_900930)">
<path d="M23.8528 16.7753C21.4675 16.7753 20.4923 15.0885 21.6784 13.0195C22.3636 11.8203 21.9551 10.2916 20.7559 9.60631L18.476 8.30165C17.4349 7.68227 16.0907 8.05127 15.4714 9.09235L15.3264 9.34274C14.1404 11.4117 12.19 11.4117 10.9907 9.34274L10.8458 9.09235C10.2527 8.05127 8.90855 7.68227 7.86747 8.30165L5.58761 9.60631C4.38839 10.2916 3.97986 11.8334 4.66513 13.0327C5.86436 15.0885 4.88916 16.7753 2.50388 16.7753C1.13334 16.7753 0 17.8955 0 19.2792V21.5986C0 22.9691 1.12016 24.1025 2.50388 24.1025C4.88916 24.1025 5.86436 25.7893 4.66513 27.8583C3.97986 29.0575 4.38839 30.5862 5.58761 31.2715L7.86747 32.5761C8.90855 33.1955 10.2527 32.8265 10.8721 31.7855L11.0171 31.5351C12.2031 29.4661 14.1535 29.4661 15.3528 31.5351L15.4977 31.7855C16.1171 32.8265 17.4613 33.1955 18.5024 32.5761L20.7822 31.2715C21.9815 30.5862 22.39 29.0444 21.7047 27.8583C20.5055 25.7893 21.4807 24.1025 23.866 24.1025C25.2365 24.1025 26.3699 22.9823 26.3699 21.5986V19.2792C26.3567 17.9087 25.2365 16.7753 23.8528 16.7753Z" fill="#FF8D07" fill-opacity="0.3"/>
<path d="M20.7012 9.70178L20.7013 9.70182C21.8472 10.3566 22.2383 11.8178 21.5829 12.9648C20.9782 14.0196 20.911 15.0024 21.3311 15.7284C21.7513 16.4544 22.6366 16.8853 23.8528 16.8853C25.175 16.8853 26.2469 17.9687 26.2598 19.2797V21.5986C26.2598 22.9212 25.1761 23.9925 23.866 23.9925C22.6499 23.9925 21.7644 24.4233 21.3458 25.1496C20.9273 25.8758 20.9982 26.8586 21.6095 27.9133C22.2644 29.0469 21.8737 30.5211 20.7277 31.176L20.7276 31.176L18.4478 32.4807L18.4477 32.4807L18.4461 32.4816C17.4596 33.0686 16.1823 32.7204 15.5926 31.7298C15.5925 31.7296 15.5924 31.7294 15.5923 31.7292L15.448 31.4799L15.4479 31.4799C14.8366 30.4252 14.0186 29.8733 13.18 29.8733C12.3412 29.8733 11.5264 30.4254 10.9217 31.4804L10.7776 31.7292C10.7775 31.7294 10.7774 31.7295 10.7773 31.7297C10.1876 32.7203 8.91031 33.0686 7.92372 32.4816L7.9221 32.4807L5.64225 31.176L5.64219 31.176C4.49639 30.5212 4.10526 29.0602 4.76044 27.9132C5.37167 26.8586 5.4425 25.8758 5.024 25.1496C4.60549 24.4233 3.71996 23.9925 2.50388 23.9925C1.18129 23.9925 0.11 22.9088 0.11 21.5986V19.2792C0.11 17.9566 1.19371 16.8853 2.50388 16.8853C3.71994 16.8853 4.60542 16.4545 5.02395 15.73C5.44251 15.0054 5.3717 14.0259 4.76039 12.9777C4.10514 11.8304 4.49666 10.3564 5.64219 9.70182L5.64225 9.70178L7.9221 8.39713L7.92211 8.39714L7.92371 8.39619C8.91118 7.80871 10.1872 8.15848 10.7502 9.1468L10.7506 9.14747L10.8955 9.39786L10.8956 9.3979C11.5069 10.4526 12.3249 11.0045 13.1635 11.0045C14.0023 11.0045 14.817 10.4524 15.4218 9.39753C15.4218 9.3975 15.4218 9.39748 15.4218 9.39745L15.5659 9.1486C15.566 9.14842 15.5661 9.14824 15.5662 9.14806C16.1559 8.15746 17.4332 7.80923 18.4198 8.3962L18.4214 8.39713L20.7012 9.70178Z" stroke="url(#paint1_linear_7892_900930)" stroke-width="0.22"/>
</g>
<circle id="Ellipse 758" cx="13.6797" cy="20.5" r="4.5" fill="url(#paint2_linear_7892_900930)"/>
</g>
</g>
<defs>
<filter id="filter0_b_7892_900930" x="-3" y="5" width="32.3711" height="30.8777" filterUnits="userSpaceOnUse" color-interpolation-filters="sRGB">
<feFlood flood-opacity="0" result="BackgroundImageFix"/>
<feGaussianBlur in="BackgroundImageFix" stdDeviation="1.5"/>
<feComposite in2="SourceAlpha" operator="in" result="effect1_backgroundBlur_7892_900930"/>
<feBlend mode="normal" in="SourceGraphic" in2="effect1_backgroundBlur_7892_900930" result="shape"/>
</filter>
<linearGradient id="paint0_linear_7892_900930" x1="18.1307" y1="1.14579" x2="5.53381" y2="20.8628" gradientUnits="userSpaceOnUse">
<stop stop-color="#FFA133"/>
<stop offset="1" stop-color="#FFC633"/>
</linearGradient>
<linearGradient id="paint1_linear_7892_900930" x1="21.0041" y1="12.1458" x2="4.15906" y2="33.3879" gradientUnits="userSpaceOnUse">
<stop stop-color="#FFCA63"/>
<stop offset="1" stop-color="#FFC453"/>
</linearGradient>
<linearGradient id="paint2_linear_7892_900930" x1="18.1067" y1="19.6248" x2="8.88875" y2="19.6248" gradientUnits="userSpaceOnUse">
<stop stop-color="white"/>
<stop offset="1" stop-color="white" stop-opacity="0.6"/>
</linearGradient>
</defs>
</svg>
