<svg width="30" height="30" viewBox="0 0 30 30" fill="none" xmlns="http://www.w3.org/2000/svg">
<g clip-path="url(#clip0_14488_258101)">
<path d="M27.4935 5.25103L23.2801 4.12307C23.1698 2.84047 22.2876 1.69692 20.9773 1.34612C19.6669 0.995317 18.3314 1.54519 17.595 2.60112L13.3817 1.47315C12.847 1.33001 12.2774 1.40513 11.7981 1.68199C11.3188 1.95884 10.9691 2.41475 10.826 2.94942L7.04811 17.0612C6.90498 17.5959 6.9801 18.1655 7.25695 18.6448C7.53381 19.1241 7.98972 19.4738 8.52439 19.6169L22.6362 23.3948C23.1709 23.5379 23.7405 23.4628 24.2198 23.1859C24.699 22.9091 25.0487 22.4532 25.1919 21.9185L28.9697 7.8067C29.1129 7.27203 29.0377 6.7024 28.7609 6.22312C28.484 5.74384 28.0281 5.39417 27.4935 5.25103ZM20.4376 3.36209C20.7049 3.43366 20.9329 3.6085 21.0713 3.84814C21.2097 4.08778 21.2473 4.37259 21.1757 4.63993C21.1041 4.90726 20.9293 5.13522 20.6897 5.27364C20.45 5.41207 20.1652 5.44963 19.8979 5.37806C19.6305 5.30649 19.4026 5.13166 19.2642 4.89202C19.1257 4.65238 19.0882 4.36756 19.1597 4.10023C19.2313 3.83289 19.4061 3.60494 19.6458 3.46651C19.8854 3.32808 20.1702 3.29052 20.4376 3.36209Z" fill="url(#paint0_linear_14488_258101)"/>
<g filter="url(#filter0_b_14488_258101)">
<path d="M24 3.75H18.775C18.25 2.3 16.875 1.25 15.25 1.25C13.625 1.25 12.25 2.3 11.725 3.75H6.5C5.83696 3.75 5.20107 4.01339 4.73223 4.48223C4.26339 4.95107 4 5.58696 4 6.25V23.75C4 24.413 4.26339 25.0489 4.73223 25.5178C5.20107 25.9866 5.83696 26.25 6.5 26.25H24C24.663 26.25 25.2989 25.9866 25.7678 25.5178C26.2366 25.0489 26.5 24.413 26.5 23.75V6.25C26.5 5.58696 26.2366 4.95107 25.7678 4.48223C25.2989 4.01339 24.663 3.75 24 3.75ZM15.25 3.75C15.5815 3.75 15.8995 3.8817 16.1339 4.11612C16.3683 4.35054 16.5 4.66848 16.5 5C16.5 5.33152 16.3683 5.64946 16.1339 5.88388C15.8995 6.1183 15.5815 6.25 15.25 6.25C14.9185 6.25 14.6005 6.1183 14.3661 5.88388C14.1317 5.64946 14 5.33152 14 5C14 4.66848 14.1317 4.35054 14.3661 4.11612C14.6005 3.8817 14.9185 3.75 15.25 3.75Z" fill="#FF8D07" fill-opacity="0.3"/>
<path d="M18.6575 3.79256L18.6873 3.875H18.775H24C24.6299 3.875 25.234 4.12522 25.6794 4.57062C26.1248 5.01602 26.375 5.62011 26.375 6.25V23.75C26.375 24.3799 26.1248 24.984 25.6794 25.4294C25.234 25.8748 24.6299 26.125 24 26.125H6.5C5.87011 26.125 5.26602 25.8748 4.82062 25.4294C4.37522 24.984 4.125 24.3799 4.125 23.75V6.25C4.125 5.62011 4.37522 5.01602 4.82062 4.57062C5.26602 4.12522 5.87011 3.875 6.5 3.875H11.725H11.8127L11.8425 3.79256C12.3507 2.38908 13.6807 1.375 15.25 1.375C16.8193 1.375 18.1493 2.38908 18.6575 3.79256ZM16.2223 4.02773C15.9644 3.76987 15.6147 3.625 15.25 3.625C14.8853 3.625 14.5356 3.76987 14.2777 4.02773C14.0199 4.28559 13.875 4.63533 13.875 5C13.875 5.36467 14.0199 5.71441 14.2777 5.97227C14.5356 6.23013 14.8853 6.375 15.25 6.375C15.6147 6.375 15.9644 6.23013 16.2223 5.97227C16.4801 5.71441 16.625 5.36467 16.625 5C16.625 4.63533 16.4801 4.28559 16.2223 4.02773Z" stroke="url(#paint1_linear_14488_258101)" stroke-width="0.25"/>
</g>
<path d="M18.4286 24L13.8571 19.4286H17.2857V11.4286H19.5714V19.4286H23L18.4286 24ZM12.7143 20.5714H10.4286V12.5714H7L11.5714 8L16.1429 12.5714H12.7143V20.5714Z" fill="url(#paint2_linear_14488_258101)"/>
</g>
<defs>
<filter id="filter0_b_14488_258101" x="1.78436" y="-0.965637" width="26.9313" height="29.4313" filterUnits="userSpaceOnUse" color-interpolation-filters="sRGB">
<feFlood flood-opacity="0" result="BackgroundImageFix"/>
<feGaussianBlur in="BackgroundImageFix" stdDeviation="1.10782"/>
<feComposite in2="SourceAlpha" operator="in" result="effect1_backgroundBlur_14488_258101"/>
<feBlend mode="normal" in="SourceGraphic" in2="effect1_backgroundBlur_14488_258101" result="shape"/>
</filter>
<linearGradient id="paint0_linear_14488_258101" x1="23.3001" y1="4.35865" x2="9.51977" y2="11.5343" gradientUnits="userSpaceOnUse">
<stop stop-color="#FFA133"/>
<stop offset="1" stop-color="#FFC633"/>
</linearGradient>
<linearGradient id="paint1_linear_14488_258101" x1="21.9217" y1="5.41613" x2="4.57707" y2="23.9873" gradientUnits="userSpaceOnUse">
<stop stop-color="#FFCA63"/>
<stop offset="1" stop-color="#FFC453"/>
</linearGradient>
<linearGradient id="paint2_linear_14488_258101" x1="22.8702" y1="14.444" x2="6.48277" y2="14.444" gradientUnits="userSpaceOnUse">
<stop stop-color="white"/>
<stop offset="1" stop-color="white" stop-opacity="0.6"/>
</linearGradient>
<clipPath id="clip0_14488_258101">
<rect width="30" height="30" fill="white"/>
</clipPath>
</defs>
</svg>
