<svg width="30" height="30" viewBox="0 0 30 30" fill="none" xmlns="http://www.w3.org/2000/svg">
<g id="Property 1=system notif, Property 2=Yes">
<path id="Vector" d="M21.8701 8.04592C19.6831 8.04592 18.789 6.4993 19.8765 4.60228C20.5048 3.50273 20.1302 2.10111 19.0307 1.47279L16.9403 0.27658C15.9857 -0.291319 14.7533 0.0470045 14.1854 1.00156L14.0525 1.23113C12.965 3.12816 11.1767 3.12816 10.0772 1.23113L9.94427 1.00156C9.40054 0.0470045 8.16808 -0.291319 7.21352 0.27658L5.12317 1.47279C4.02362 2.10111 3.64905 3.51481 4.27737 4.61436C5.37691 6.4993 4.48278 8.04592 2.29576 8.04592C1.03913 8.04592 0 9.07297 0 10.3417L0 12.4683C0 13.7249 1.02705 14.764 2.29576 14.764C4.48278 14.764 5.37691 16.3107 4.27737 18.2077C3.64905 19.3072 4.02362 20.7089 5.12317 21.3372L7.21352 22.5334C8.16808 23.1013 9.40054 22.763 9.96844 21.8084L10.1013 21.5788C11.1888 19.6818 12.9771 19.6818 14.0766 21.5788L14.2096 21.8084C14.7775 22.763 16.0099 23.1013 16.9645 22.5334L19.0548 21.3372C20.1544 20.7089 20.5289 19.2952 19.9006 18.2077C18.8011 16.3107 19.6952 14.764 21.8822 14.764C23.1389 14.764 24.178 13.737 24.178 12.4683V10.3417C24.1659 9.08506 23.1389 8.04592 21.8701 8.04592Z" fill="url(#paint0_linear_7949_954478)"/>
<g id="Union" filter="url(#filter0_b_7949_954478)">
<mask id="path-2-inside-1_7949_954478" fill="white">
<path fill-rule="evenodd" clip-rule="evenodd" d="M24.3758 13.8305C26.4942 13.2423 28.0486 11.3055 28.0486 9.00687C28.0486 6.24165 25.7991 4 23.0243 4C21.5068 4 20.1464 4.67045 19.2251 5.73032L18.476 5.30165C17.4349 4.68227 16.0907 5.05127 15.4714 6.09235L15.3264 6.34274C14.1404 8.41174 12.19 8.41174 10.9907 6.34274L10.8458 6.09235C10.2527 5.05127 8.90855 4.68227 7.86747 5.30165L5.58761 6.60631C4.38839 7.29158 3.97986 8.83345 4.66513 10.0327C5.86436 12.0885 4.88916 13.7753 2.50388 13.7753C1.13334 13.7753 0 14.8955 0 16.2792V18.5986C0 19.9691 1.12016 21.1025 2.50388 21.1025C4.88916 21.1025 5.86436 22.7893 4.66513 24.8583C3.97986 26.0575 4.38839 27.5862 5.58761 28.2715L7.86747 29.5761C8.90855 30.1955 10.2527 29.8265 10.8721 28.7855L11.0171 28.5351C12.2031 26.4661 14.1535 26.4661 15.3528 28.5351L15.4977 28.7855C16.1171 29.8265 17.4613 30.1955 18.5024 29.5761L20.7822 28.2715C21.9815 27.5862 22.39 26.0444 21.7047 24.8583C20.5055 22.7893 21.4807 21.1025 23.866 21.1025C25.2365 21.1025 26.3699 19.9823 26.3699 18.5986V16.2792C26.3584 15.0863 25.5083 14.0732 24.3758 13.8305Z"/>
</mask>
<path fill-rule="evenodd" clip-rule="evenodd" d="M24.3758 13.8305C26.4942 13.2423 28.0486 11.3055 28.0486 9.00687C28.0486 6.24165 25.7991 4 23.0243 4C21.5068 4 20.1464 4.67045 19.2251 5.73032L18.476 5.30165C17.4349 4.68227 16.0907 5.05127 15.4714 6.09235L15.3264 6.34274C14.1404 8.41174 12.19 8.41174 10.9907 6.34274L10.8458 6.09235C10.2527 5.05127 8.90855 4.68227 7.86747 5.30165L5.58761 6.60631C4.38839 7.29158 3.97986 8.83345 4.66513 10.0327C5.86436 12.0885 4.88916 13.7753 2.50388 13.7753C1.13334 13.7753 0 14.8955 0 16.2792V18.5986C0 19.9691 1.12016 21.1025 2.50388 21.1025C4.88916 21.1025 5.86436 22.7893 4.66513 24.8583C3.97986 26.0575 4.38839 27.5862 5.58761 28.2715L7.86747 29.5761C8.90855 30.1955 10.2527 29.8265 10.8721 28.7855L11.0171 28.5351C12.2031 26.4661 14.1535 26.4661 15.3528 28.5351L15.4977 28.7855C16.1171 29.8265 17.4613 30.1955 18.5024 29.5761L20.7822 28.2715C21.9815 27.5862 22.39 26.0444 21.7047 24.8583C20.5055 22.7893 21.4807 21.1025 23.866 21.1025C25.2365 21.1025 26.3699 19.9823 26.3699 18.5986V16.2792C26.3584 15.0863 25.5083 14.0732 24.3758 13.8305Z" fill="#FF8D07" fill-opacity="0.3"/>
<path d="M24.3758 13.8305L24.317 13.6185L24.3297 14.0456L24.3758 13.8305ZM19.2251 5.73032L19.1158 5.92127L19.2726 6.011L19.3912 5.87465L19.2251 5.73032ZM18.476 5.30165L18.3635 5.49075L18.3668 5.4926L18.476 5.30165ZM15.4714 6.09235L15.2823 5.97986L15.281 5.98213L15.4714 6.09235ZM15.3264 6.34274L15.136 6.23251L15.1355 6.23333L15.3264 6.34274ZM10.9907 6.34274L10.8003 6.45297L10.8004 6.45307L10.9907 6.34274ZM10.8458 6.09235L10.6546 6.20125L10.6554 6.20258L10.8458 6.09235ZM7.86747 5.30165L7.97675 5.49263L7.97995 5.49072L7.86747 5.30165ZM5.58761 6.60631L5.69676 6.79732L5.69688 6.79725L5.58761 6.60631ZM4.66513 10.0327L4.47411 10.1418L4.4751 10.1435L4.66513 10.0327ZM4.66513 24.8583L4.47479 24.748L4.47412 24.7492L4.66513 24.8583ZM5.58761 28.2715L5.69688 28.0805L5.69676 28.0805L5.58761 28.2715ZM7.86747 29.5761L7.97997 29.3871L7.97674 29.3852L7.86747 29.5761ZM10.8721 28.7855L11.0612 28.8979L11.0625 28.8957L10.8721 28.7855ZM11.0171 28.5351L11.2075 28.6453L11.208 28.6445L11.0171 28.5351ZM15.3528 28.5351L15.5432 28.4248L15.5431 28.4247L15.3528 28.5351ZM15.4977 28.7855L15.3073 28.8957L15.3087 28.8979L15.4977 28.7855ZM18.5024 29.5761L18.3931 29.3852L18.3899 29.3871L18.5024 29.5761ZM20.7822 28.2715L20.6731 28.0805L20.673 28.0805L20.7822 28.2715ZM21.7047 24.8583L21.8952 24.7482L21.8951 24.748L21.7047 24.8583ZM26.3699 16.2792H26.5899L26.5898 16.2771L26.3699 16.2792ZM24.4347 14.0425C26.6454 13.4287 28.2686 11.4073 28.2686 9.00687H27.8286C27.8286 11.2036 26.3431 13.056 24.317 13.6185L24.4347 14.0425ZM28.2686 9.00687C28.2686 6.11943 25.9199 3.78 23.0243 3.78V4.22C25.6783 4.22 27.8286 6.36388 27.8286 9.00687H28.2686ZM23.0243 3.78C21.4405 3.78 20.0204 4.47999 19.0591 5.586L19.3912 5.87465C20.2723 4.86091 21.573 4.22 23.0243 4.22V3.78ZM19.3344 5.53938L18.5853 5.11071L18.3668 5.4926L19.1158 5.92127L19.3344 5.53938ZM18.5885 5.11258C17.4388 4.42857 15.9613 4.83863 15.2823 5.97987L15.6604 6.20484C16.2202 5.26391 17.4311 4.93597 18.3635 5.49072L18.5885 5.11258ZM15.281 5.98213L15.136 6.23251L15.5168 6.45297L15.6618 6.20258L15.281 5.98213ZM15.1355 6.23333C14.566 7.2269 13.8432 7.67449 13.1635 7.67449C12.4835 7.67449 11.7573 7.2265 11.1811 6.23242L10.8004 6.45307C11.4234 7.52799 12.272 8.11449 13.1635 8.11449C14.0553 8.11449 14.9008 7.52759 15.5173 6.45215L15.1355 6.23333ZM11.1811 6.23251L11.0362 5.98213L10.6554 6.20258L10.8003 6.45297L11.1811 6.23251ZM11.0369 5.98346C10.3838 4.83683 8.90331 4.4294 7.75498 5.11258L7.97995 5.49072C8.9138 4.93514 10.1217 5.2657 10.6546 6.20124L11.0369 5.98346ZM7.7582 5.11071L5.47834 6.41536L5.69688 6.79725L7.97674 5.4926L7.7582 5.11071ZM5.47846 6.4153C4.17213 7.16177 3.72949 8.83873 4.47412 10.1418L4.85614 9.92353C4.23023 8.82817 4.60465 7.42139 5.69676 6.79732L5.47846 6.4153ZM4.4751 10.1435C5.05088 11.1306 5.07712 11.9782 4.7382 12.5649C4.39909 13.1519 3.64968 13.5553 2.50388 13.5553V13.9953C3.74336 13.9953 4.67419 13.5553 5.1192 12.785C5.56438 12.0143 5.47861 10.9906 4.85516 9.92183L4.4751 10.1435ZM2.50388 13.5553C1.01259 13.5553 -0.22 14.7732 -0.22 16.2792H0.22C0.22 15.0177 1.25409 13.9953 2.50388 13.9953V13.5553ZM-0.22 16.2792V18.5986H0.22V16.2792H-0.22ZM-0.22 18.5986C-0.22 20.0899 0.997904 21.3225 2.50388 21.3225V20.8825C1.24241 20.8825 0.22 19.8484 0.22 18.5986H-0.22ZM2.50388 21.3225C3.64965 21.3225 4.39894 21.7259 4.73808 22.3144C5.0772 22.9028 5.05092 23.754 4.47479 24.748L4.85547 24.9686C5.47857 23.8936 5.5643 22.8669 5.11931 22.0947C4.67434 21.3225 3.74339 20.8825 2.50388 20.8825V21.3225ZM4.47412 24.7492C3.72921 26.0527 4.1726 27.7163 5.47846 28.4625L5.69676 28.0805C4.60417 27.4561 4.2305 26.0623 4.85614 24.9675L4.47412 24.7492ZM5.47834 28.4624L7.7582 29.7671L7.97674 29.3852L5.69688 28.0805L5.47834 28.4624ZM7.75498 29.7652C8.9047 30.4492 10.3822 30.0392 11.0612 28.8979L10.6831 28.673C10.1233 29.6139 8.9124 29.9418 7.97995 29.3871L7.75498 29.7652ZM11.0625 28.8957L11.2075 28.6453L10.8267 28.4248L10.6817 28.6752L11.0625 28.8957ZM11.208 28.6445C11.7775 27.6509 12.5003 27.2033 13.18 27.2033C13.86 27.2033 14.5862 27.6513 15.1624 28.6454L15.5431 28.4247C14.9201 27.3498 14.0715 26.7633 13.18 26.7633C12.2881 26.7633 11.4427 27.3502 10.8262 28.4256L11.208 28.6445ZM15.1624 28.6453L15.3073 28.8957L15.6881 28.6752L15.5432 28.4248L15.1624 28.6453ZM15.3087 28.8979C15.9876 30.0392 17.4651 30.4492 18.6149 29.7652L18.3899 29.3871C17.4574 29.9418 16.2466 29.6139 15.6868 28.673L15.3087 28.8979ZM18.6117 29.7671L20.8915 28.4624L20.673 28.0805L18.3931 29.3852L18.6117 29.7671ZM20.8914 28.4625C22.197 27.7165 22.6412 26.0393 21.8952 24.7482L21.5142 24.9684C22.1388 26.0494 21.7659 27.456 20.6731 28.0805L20.8914 28.4625ZM21.8951 24.748C21.3189 23.754 21.2926 22.9028 21.6318 22.3144C21.9709 21.7259 22.7202 21.3225 23.866 21.3225V20.8825C22.6265 20.8825 21.6955 21.3225 21.2505 22.0947C20.8055 22.8669 20.8913 23.8936 21.5144 24.9686L21.8951 24.748ZM23.866 21.3225C25.3573 21.3225 26.5898 20.1046 26.5898 18.5986H26.1499C26.1499 19.8601 25.1158 20.8825 23.866 20.8825V21.3225ZM26.5898 18.5986V16.2792H26.1499V18.5986H26.5898ZM26.5898 16.2771C26.5774 14.9801 25.654 13.8794 24.4219 13.6154L24.3297 14.0456C25.3627 14.267 26.1394 15.1925 26.1499 16.2813L26.5898 16.2771Z" fill="url(#paint1_linear_7949_954478)" mask="url(#path-2-inside-1_7949_954478)"/>
</g>
<circle id="Ellipse 758" cx="13.6797" cy="17.5" r="4.5" fill="url(#paint2_linear_7949_954478)"/>
<g id="Vector_2">
<path d="M25.9917 10.2112C25.5242 9.81738 25.2562 9.24182 25.2562 8.63206V7.77304C25.2562 6.68878 24.448 5.79124 23.4011 5.64088V5.30812C23.4011 5.13773 23.2625 5 23.0919 5C22.9212 5 22.7827 5.13773 22.7827 5.30812V5.64088C21.7355 5.79124 20.9276 6.68878 20.9276 7.77304V8.63206C20.9276 9.24182 20.6595 9.81738 20.1892 10.2136C20.0689 10.3162 20 10.4654 20 10.6231C20 10.9204 20.2427 11.1623 20.5411 11.1623H25.6427C25.941 11.1623 26.1837 10.9204 26.1837 10.6231C26.1837 10.4654 26.1148 10.3162 25.9917 10.2112Z" fill="url(#paint3_linear_7949_954478)"/>
<path d="M23.0919 12.3948C23.6519 12.3948 24.1203 11.997 24.2279 11.4704H21.956C22.0636 11.997 22.532 12.3948 23.0919 12.3948Z" fill="url(#paint4_linear_7949_954478)"/>
</g>
</g>
<defs>
<filter id="filter0_b_7949_954478" x="-3" y="1" width="34.0469" height="31.8777" filterUnits="userSpaceOnUse" color-interpolation-filters="sRGB">
<feFlood flood-opacity="0" result="BackgroundImageFix"/>
<feGaussianBlur in="BackgroundImageFix" stdDeviation="1.5"/>
<feComposite in2="SourceAlpha" operator="in" result="effect1_backgroundBlur_7949_954478"/>
<feBlend mode="normal" in="SourceGraphic" in2="effect1_backgroundBlur_7949_954478" result="shape"/>
</filter>
<linearGradient id="paint0_linear_7949_954478" x1="12.089" y1="-2.37948e-07" x2="4.43818" y2="20.042" gradientUnits="userSpaceOnUse">
<stop stop-color="#FFA133"/>
<stop offset="1" stop-color="#FFC633"/>
</linearGradient>
<linearGradient id="paint1_linear_7949_954478" x1="26.0039" y1="5.66874" x2="19.1481" y2="13.8533" gradientUnits="userSpaceOnUse">
<stop stop-color="#FFCA63"/>
<stop offset="1" stop-color="#FFC453"/>
</linearGradient>
<linearGradient id="paint2_linear_7949_954478" x1="18.1067" y1="16.6248" x2="8.88875" y2="16.6248" gradientUnits="userSpaceOnUse">
<stop stop-color="white"/>
<stop offset="1" stop-color="white" stop-opacity="0.6"/>
</linearGradient>
<linearGradient id="paint3_linear_7949_954478" x1="26.1336" y1="7.97826" x2="19.8001" y2="7.97826" gradientUnits="userSpaceOnUse">
<stop stop-color="white"/>
<stop offset="1" stop-color="white" stop-opacity="0.6"/>
</linearGradient>
<linearGradient id="paint4_linear_7949_954478" x1="26.1336" y1="7.97826" x2="19.8001" y2="7.97826" gradientUnits="userSpaceOnUse">
<stop stop-color="white"/>
<stop offset="1" stop-color="white" stop-opacity="0.6"/>
</linearGradient>
</defs>
</svg>
