<svg width="26" height="26" viewBox="0 0 26 26" fill="none" xmlns="http://www.w3.org/2000/svg">
<path d="M5.12153 11.2696L5.49139 10.2828C5.52158 10.232 5.55645 10.183 5.58127 10.1297C6.32552 8.5167 7.42465 7.19682 8.91435 6.22367C11.0642 4.81928 13.3995 4.38184 15.9202 4.91135C16.1851 4.96697 16.4471 5.03413 16.7106 5.09602L17.8336 5.5169C18.0101 5.60778 18.1856 5.69978 18.3622 5.78923C20.0966 6.66876 21.4796 7.92446 22.4281 9.63146C23.3464 11.2855 23.7172 13.0519 23.4446 14.9349C23.3948 15.28 23.3044 15.6197 23.2324 15.9619L22.9391 16.7445C22.7766 17.0266 22.6325 17.3218 22.4491 17.5898C21.1977 19.4182 19.1758 20.0265 17.1336 19.4891C16.4041 19.2972 15.6993 19.0097 14.9822 18.7691C14.8048 18.7094 14.6262 18.6512 14.4442 18.6087C13.5277 18.3956 12.4183 19.1669 12.585 20.2739C12.6183 20.4944 12.6783 20.711 12.7275 20.9293C12.9409 21.8689 12.3224 22.7179 11.3655 22.7847C11.1875 22.7975 11.0063 22.7698 10.8268 22.7608L10.0446 22.4676C9.99947 22.4391 9.9565 22.4074 9.90971 22.3821C9.61727 22.224 9.31473 22.0825 9.03239 21.9078C7.60113 21.0275 6.44794 19.7605 5.70589 18.2529C4.76888 16.3795 4.47904 14.4076 4.87152 12.3431C4.93802 11.9818 5.03621 11.6267 5.12153 11.2696Z" fill="url(#paint0_linear_18535_7656)"/>
<g filter="url(#filter0_b_18535_7656)">
<path d="M0 13.1309V11.7257C0.0139304 11.6482 0.0345223 11.5707 0.040579 11.4926C0.215011 9.13045 0.969677 6.96821 2.37422 5.05612C4.40119 2.29669 7.11216 0.657756 10.5071 0.139304C10.8639 0.0847941 11.2224 0.0460308 11.5804 0H13.1793C13.4422 0.0308891 13.7045 0.0635946 13.9667 0.0926667C16.5438 0.379148 18.8581 1.29976 20.841 2.98715C22.7616 4.62246 24.0511 6.65447 24.5919 9.13287C24.6913 9.58712 24.7373 10.0535 24.8076 10.5144V11.6288C24.7367 12.057 24.6949 12.4931 24.5913 12.9134C23.8845 15.7819 21.6448 17.4875 18.8435 17.7721C17.843 17.8739 16.8285 17.8448 15.8207 17.8799C15.5711 17.8884 15.321 17.8993 15.0739 17.9314C13.8298 18.0943 12.8056 19.5764 13.5318 20.8804C13.6766 21.1402 13.8528 21.3825 14.0164 21.632C14.7226 22.7053 14.3477 24.0547 13.1842 24.5859C12.968 24.6852 12.7287 24.7355 12.5004 24.8082H11.3866C11.3169 24.7936 11.2485 24.7742 11.1782 24.7646C10.7391 24.704 10.2951 24.6689 9.86088 24.5829C7.66201 24.1536 5.62933 23.1113 3.99741 21.5763C1.95086 19.6757 0.666235 17.3494 0.19018 14.5881C0.104176 14.106 0.0605667 13.6166 0 13.1309Z" fill="#FF8D07" fill-opacity="0.3"/>
<path d="M0.298289 11.5116L0.29822 11.5125C0.292689 11.5839 0.275435 11.6676 0.263581 11.7251C0.261699 11.7342 0.259953 11.7427 0.258412 11.7503V13.1149C0.275711 13.2544 0.291453 13.392 0.307034 13.5282C0.346393 13.8722 0.384731 14.2073 0.444576 14.5427L0.44484 14.5442C0.911039 17.2483 2.16721 19.524 4.17326 21.387L4.17446 21.3881C5.77088 22.8897 7.75936 23.9093 9.9104 24.3292L9.91108 24.3294C10.1912 24.3848 10.4674 24.4174 10.7547 24.4513C10.9039 24.4689 11.0562 24.4869 11.2135 24.5086C11.2722 24.5167 11.3418 24.5328 11.3924 24.5446C11.4004 24.5464 11.4079 24.5482 11.4148 24.5497H12.4608C12.5361 24.5265 12.6055 24.5069 12.6712 24.4884C12.8183 24.4469 12.9461 24.4109 13.0763 24.3511L13.0769 24.3508C14.0929 23.8869 14.4216 22.7179 13.8005 21.7741L13.8002 21.7737C13.7573 21.7081 13.7116 21.6405 13.6647 21.5712C13.5436 21.3918 13.4148 21.2012 13.3061 21.0062L13.3061 21.0061C12.8926 20.2636 12.9807 19.4696 13.3404 18.8485C13.6967 18.2333 14.3298 17.7682 15.0403 17.6752L15.0406 17.6751C15.301 17.6413 15.5619 17.6302 15.8117 17.6217C16.1553 17.6097 16.4937 17.605 16.829 17.6004C17.4995 17.5912 18.1571 17.5822 18.8174 17.515C21.5217 17.2402 23.6624 15.603 24.3404 12.8516C24.4078 12.5784 24.4464 12.3071 24.4871 12.0219C24.5063 11.8875 24.5259 11.75 24.5491 11.6077V10.5339C24.527 10.3873 24.5076 10.2442 24.4886 10.1035C24.4463 9.79097 24.4055 9.4901 24.3395 9.18807L24.3395 9.18796C23.8116 6.76909 22.5545 4.78553 20.6736 3.18396C18.7338 1.53328 16.4693 0.630882 13.9382 0.349505L0.298289 11.5116ZM0.298289 11.5116C0.469383 9.19468 1.20852 7.07956 2.58248 5.2091C4.56872 2.50512 7.21872 0.902892 10.5461 0.394755L10.5462 0.394751M0.298289 11.5116L10.5462 0.394751M10.5462 0.394751C10.7867 0.358001 11.0254 0.328848 11.2686 0.299147M10.5462 0.394751L11.2686 0.299147M11.2686 0.299147C11.377 0.285917 11.4862 0.272579 11.5969 0.258412M11.2686 0.299147L11.5969 0.258412M11.5969 0.258412H13.1642C13.2478 0.268262 13.332 0.27836 13.4164 0.288491C13.5899 0.309301 13.7646 0.330253 13.9382 0.349497L11.5969 0.258412Z" stroke="url(#paint1_linear_18535_7656)" stroke-width="0.516824"/>
</g>
<path d="M6.94494 5.28995C6.95039 6.47585 7.94368 7.46611 9.12534 7.46187C9.70018 7.45374 10.2492 7.22181 10.6558 6.81535C11.0623 6.40889 11.2944 5.85994 11.3027 5.2851C11.307 4.09497 10.3009 3.09501 9.10898 3.1047C8.5335 3.11154 7.98383 3.34464 7.57886 3.75357C7.17389 4.16251 6.94617 4.71442 6.94494 5.28995ZM12.7593 5.28995C12.7666 6.47585 13.7629 7.46672 14.9398 7.45945C16.1166 7.45218 17.1135 6.46131 17.1147 5.27905C17.1147 4.08709 16.1099 3.08956 14.9186 3.10167C14.3429 3.10948 13.7934 3.34378 13.3893 3.75383C12.9851 4.16387 12.7588 4.71663 12.7593 5.29237V5.28995ZM2.58412 9.63501C2.57928 10.8179 3.55864 11.8069 4.74939 11.8203C5.92862 11.8342 6.95099 10.8136 6.94009 9.6332C6.93281 9.05818 6.70042 8.50894 6.29277 8.10333C5.88513 7.69772 5.33472 7.46808 4.75968 7.46369C4.18418 7.4675 3.6333 7.69768 3.22618 8.10446C2.81905 8.51125 2.58841 9.06193 2.58412 9.63743V9.63501ZM17.1202 9.63925C17.125 10.2141 17.3548 10.7643 17.7603 11.1718C18.1658 11.5794 18.7148 11.8119 19.2897 11.8197C20.4659 11.8275 21.458 10.8433 21.4761 9.65197C21.4937 8.47031 20.4852 7.45945 19.2915 7.46309C18.7158 7.4677 18.1651 7.69894 17.7587 8.10671C17.3522 8.51449 17.1228 9.06596 17.1202 9.64167V9.63925ZM3.31093 15.4537C3.31593 16.0283 3.5456 16.5782 3.95082 16.9857C4.35603 17.3931 4.90461 17.6259 5.47922 17.6341C6.65421 17.6432 7.64751 16.6595 7.66689 15.4676C7.68567 14.2865 6.67783 13.2751 5.48648 13.2775C4.91031 13.2812 4.35879 13.5118 3.95153 13.9194C3.54427 14.327 3.3141 14.8787 3.31093 15.4549V15.4537Z" fill="url(#paint2_linear_18535_7656)"/>
<defs>
<filter id="filter0_b_18535_7656" x="-2.29019" y="-2.29019" width="29.3879" height="29.389" filterUnits="userSpaceOnUse" color-interpolation-filters="sRGB">
<feFlood flood-opacity="0" result="BackgroundImageFix"/>
<feGaussianBlur in="BackgroundImageFix" stdDeviation="1.14509"/>
<feComposite in2="SourceAlpha" operator="in" result="effect1_backgroundBlur_18535_7656"/>
<feBlend mode="normal" in="SourceGraphic" in2="effect1_backgroundBlur_18535_7656" result="shape"/>
</filter>
<linearGradient id="paint0_linear_18535_7656" x1="19.3702" y1="8.29157" x2="6.10921" y2="14.4648" gradientUnits="userSpaceOnUse">
<stop stop-color="#FFA133"/>
<stop offset="1" stop-color="#FFC633"/>
</linearGradient>
<linearGradient id="paint1_linear_18535_7656" x1="38.6753" y1="30.8026" x2="21.6804" y2="51.0205" gradientUnits="userSpaceOnUse">
<stop stop-color="#FFCA63"/>
<stop offset="1" stop-color="#FFC453"/>
</linearGradient>
<linearGradient id="paint2_linear_18535_7656" x1="21.323" y1="8.95458" x2="1.97338" y2="8.95458" gradientUnits="userSpaceOnUse">
<stop stop-color="white"/>
<stop offset="1" stop-color="white" stop-opacity="0.6"/>
</linearGradient>
</defs>
</svg>
