<svg width="208" height="40" viewBox="0 0 208 40" fill="none" xmlns="http://www.w3.org/2000/svg">
<mask id="mask0_4497_17795" style="mask-type:luminance" maskUnits="userSpaceOnUse" x="16" y="19" width="14" height="4">
<path d="M16.4844 22.208L24.6684 19.1895L29.3384 21.0909L16.4844 22.208Z" fill="white"/>
</mask>
<g mask="url(#mask0_4497_17795)">
<path d="M17.1279 19.1895L17.2591 22.208H16.4844V19.1895H17.1279Z" fill="#E04747"/>
<path d="M17.4518 19.1895L17.5805 22.208H17.4202L17.2891 19.1895H17.4518Z" fill="#E04747"/>
<path d="M17.6603 19.1895L17.7914 22.208H17.6287L17.5 19.1895H17.6603Z" fill="#E04946"/>
<path d="M17.858 19.1895L17.9867 22.208H17.8265L17.6953 19.1895H17.858Z" fill="#E04B45"/>
<path d="M18.0587 19.1895L18.1899 22.208H18.0271L17.8984 19.1895H18.0587Z" fill="#E04D43"/>
<path d="M18.2565 19.1895L18.3852 22.208H18.2249L18.0938 19.1895H18.2565Z" fill="#E04E42"/>
<path d="M18.4611 19.1895L18.5922 22.208H18.4295L18.3008 19.1895H18.4611Z" fill="#E05041"/>
<path d="M18.6588 19.1895L18.7899 22.208H18.6272L18.4961 19.1895H18.6588Z" fill="#E05240"/>
<path d="M18.8634 19.1895L18.9945 22.208H18.8343L18.7031 19.1895H18.8634Z" fill="#E0543F"/>
<path d="M19.0611 19.1895L19.1923 22.208H19.0296L18.8984 19.1895H19.0611Z" fill="#E0553E"/>
<path d="M19.2697 19.1895L19.4008 22.208H19.2405L19.1094 19.1895H19.2697Z" fill="#E0573D"/>
<path d="M19.4713 19.1895L19.6024 22.208H19.4397L19.3086 19.1895H19.4713Z" fill="#E0593C"/>
<path d="M19.6759 19.1895L19.807 22.208H19.6468L19.5156 19.1895H19.6759Z" fill="#E05A3B"/>
<path d="M19.8776 19.1895L20.0087 22.208H19.846L19.7148 19.1895H19.8776Z" fill="#E05C3A"/>
<path d="M20.0704 19.1895L20.2016 22.208H20.0413L19.9102 19.1895H20.0704Z" fill="#E05E39"/>
<path d="M20.2799 19.1895L20.411 22.208H20.2483L20.1172 19.1895H20.2799Z" fill="#E05F38"/>
<path d="M20.4806 19.1895L20.6117 22.208H20.4515L20.3203 19.1895H20.4806Z" fill="#E06137"/>
<path d="M20.6783 19.1895L20.8095 22.208H20.6468L20.5156 19.1895H20.6783Z" fill="#E06236"/>
<path d="M20.8776 19.1895L21.0063 22.208H20.846L20.7148 19.1895H20.8776Z" fill="#E06435"/>
<path d="M21.0822 19.1895L21.2133 22.208H21.0506L20.9219 19.1895H21.0822Z" fill="#E06534"/>
<path d="M21.2877 19.1895L21.4164 22.208H21.2561L21.125 19.1895H21.2877Z" fill="#E06733"/>
<path d="M21.4962 19.1895L21.6274 22.208H21.4646L21.3359 19.1895H21.4962Z" fill="#E06832"/>
<path d="M21.694 19.1895L21.8251 22.208H21.6624L21.5312 19.1895H21.694Z" fill="#E06A31"/>
<path d="M21.8947 19.1895L22.0258 22.208H21.8655L21.7344 19.1895H21.8947Z" fill="#DF6B30"/>
<path d="M22.0924 19.1895L22.2235 22.208H22.0608L21.9297 19.1895H22.0924Z" fill="#DF6C2F"/>
<path d="M22.3009 19.1895L22.432 22.208H22.2718L22.1406 19.1895H22.3009Z" fill="#DF6E2F"/>
<path d="M22.4986 19.1895L22.6298 22.208H22.4671L22.3359 19.1895H22.4986Z" fill="#DF6F2E"/>
<path d="M22.6993 19.1895L22.8305 22.208H22.6702L22.5391 19.1895H22.6993Z" fill="#DF702D"/>
<path d="M22.8971 19.1895L23.0282 22.208H22.8655L22.7344 19.1895H22.8971Z" fill="#DF712C"/>
<path d="M23.1017 19.1895L23.2328 22.208H23.0725L22.9414 19.1895H23.1017Z" fill="#DF732B"/>
<path d="M23.3111 19.1895L23.4423 22.208H23.2796L23.1484 19.1895H23.3111Z" fill="#DF742B"/>
<path d="M23.5118 19.1895L23.643 22.208H23.4827L23.3516 19.1895H23.5118Z" fill="#DF752A"/>
<path d="M23.7096 19.1895L23.8407 22.208H23.678L23.5469 19.1895H23.7096Z" fill="#DF7629"/>
<path d="M23.9127 19.1895L24.0414 22.208H23.8811L23.75 19.1895H23.9127Z" fill="#DF7728"/>
<path d="M24.1134 19.1895L24.2445 22.208H24.0818L23.9531 19.1895H24.1134Z" fill="#DF7828"/>
<path d="M24.319 19.1895L24.4477 22.208H24.2874L24.1562 19.1895H24.319Z" fill="#DF7927"/>
<path d="M24.5157 19.1895L24.6469 22.208H24.4842L24.3555 19.1895H24.5157Z" fill="#DF7B26"/>
<path d="M24.7174 19.1895L24.8461 22.208H24.6858L24.5547 19.1895H24.7174Z" fill="#DF7C26"/>
<path d="M24.9181 19.1895L25.0492 22.208H24.8865L24.7578 19.1895H24.9181Z" fill="#DF7D25"/>
<path d="M25.1236 19.1895L25.2548 22.208H25.0921L24.9609 19.1895H25.1236Z" fill="#DF7E24"/>
<path d="M25.3282 19.1895L25.4594 22.208H25.2991L25.168 19.1895H25.3282Z" fill="#DF7E24"/>
<path d="M25.5299 19.1895L25.661 22.208H25.4983L25.3672 19.1895H25.5299Z" fill="#DF7F23"/>
<path d="M25.7345 19.1895L25.8656 22.208H25.7054L25.5742 19.1895H25.7345Z" fill="#DF8023"/>
<path d="M25.9322 19.1895L26.0634 22.208H25.9007L25.7695 19.1895H25.9322Z" fill="#DF8122"/>
<path d="M26.1368 19.1895L26.268 22.208H26.1077L25.9766 19.1895H26.1368Z" fill="#DF8222"/>
<path d="M26.3346 19.1895L26.4657 22.208H26.303L26.1719 19.1895H26.3346Z" fill="#DF8321"/>
<path d="M26.5353 19.1895L26.6664 22.208H26.5061L26.375 19.1895H26.5353Z" fill="#DF8421"/>
<path d="M26.733 19.1895L26.8642 22.208H26.7014L26.5703 19.1895H26.733Z" fill="#DF8420"/>
<path d="M26.9493 19.1895L27.0805 22.208H26.9202L26.7891 19.1895H26.9493Z" fill="#DF8520"/>
<path d="M27.1471 19.1895L27.2782 22.208H27.1155L26.9844 19.1895H27.1471Z" fill="#DF861F"/>
<path d="M27.3502 19.1895L27.4789 22.208H27.3186L27.1875 19.1895H27.3502Z" fill="#DF871F"/>
<path d="M27.5431 19.1895L27.6742 22.208H27.5115L27.3828 19.1895H27.5431Z" fill="#DF871E"/>
<path d="M27.7486 19.1895L27.8774 22.208H27.7171L27.5859 19.1895H27.7486Z" fill="#DF881E"/>
<path d="M27.9493 19.1895L28.0805 22.208H27.9178L27.7891 19.1895H27.9493Z" fill="#DF881E"/>
<path d="M28.151 19.1895L28.2821 22.208H28.1194L27.9883 19.1895H28.151Z" fill="#DF891D"/>
<path d="M28.3556 19.1895L28.4867 22.208H28.3265L28.1953 19.1895H28.3556Z" fill="#DF891D"/>
<path d="M28.5611 19.1895L28.6923 22.208H28.5296L28.3984 19.1895H28.5611Z" fill="#DF8A1D"/>
<path d="M28.7618 19.1895L28.893 22.208H28.7327L28.6016 19.1895H28.7618Z" fill="#DF8A1C"/>
<path d="M28.9635 19.1895L29.0946 22.208H28.9319L28.8008 19.1895H28.9635Z" fill="#DF8B1C"/>
<path d="M29.1681 19.1895L29.2992 22.208H29.139L29.0078 19.1895H29.1681Z" fill="#DF8B1C"/>
<path d="M29.3658 19.1895L29.497 22.208H29.3343L29.2031 19.1895H29.3658Z" fill="#DF8C1B"/>
</g>
<mask id="mask1_4497_17795" style="mask-type:luminance" maskUnits="userSpaceOnUse" x="16" y="21" width="14" height="15">
<path d="M29.3384 21.5645L26.259 35.3703L16.4844 22.6815L29.3384 21.5645Z" fill="white"/>
</mask>
<g mask="url(#mask1_4497_17795)">
<path d="M18.5389 21.5645L16.4844 24.6316V21.5645H18.5389Z" fill="#E04747"/>
<path d="M18.7914 21.5645L16.4844 25.008V24.6316L18.5389 21.5645H18.7914Z" fill="#E04747"/>
<path d="M19.044 21.5645L16.4844 25.3869V25.008L18.7914 21.5645H19.044Z" fill="#E04946"/>
<path d="M19.2966 21.5645L16.4844 25.7633V25.3869L19.044 21.5645H19.2966Z" fill="#E04B45"/>
<path d="M19.5491 21.5645L16.4844 26.1421V25.7633L19.2966 21.5645H19.5491Z" fill="#E04D43"/>
<path d="M19.8041 21.5645L16.4844 26.5185V26.1421L19.5491 21.5645H19.8041Z" fill="#E04E42"/>
<path d="M20.0567 21.5645L16.4844 26.8974V26.5185L19.8041 21.5645H20.0567Z" fill="#E05041"/>
<path d="M20.3092 21.5645L16.4844 27.2738V26.8974L20.0567 21.5645H20.3092Z" fill="#E05240"/>
<path d="M20.5618 21.5645L16.4844 27.6526V27.2738L20.3092 21.5645H20.5618Z" fill="#E0543F"/>
<path d="M20.8144 21.5645L16.4844 28.0315V27.6526L20.5618 21.5645H20.8144Z" fill="#E0553E"/>
<path d="M21.0694 21.5645L16.4844 28.4079V28.0315L20.8144 21.5645H21.0694Z" fill="#E0573D"/>
<path d="M21.3219 21.5645L16.4844 28.7867V28.4079L21.0694 21.5645H21.3219Z" fill="#E0593C"/>
<path d="M21.5745 21.5645L16.4844 29.1631V28.7867L21.3219 21.5645H21.5745Z" fill="#E05A3B"/>
<path d="M21.827 21.5645L16.5451 29.4472L16.4844 29.406V29.1631L21.5745 21.5645H21.827Z" fill="#E05C3A"/>
<path d="M22.0916 21.5645L16.7295 29.5638L16.5547 29.4472L21.8366 21.5645H22.0916Z" fill="#E05E39"/>
<path d="M22.392 21.5645L16.9522 29.6828L16.7773 29.5638L22.1394 21.5645H22.392Z" fill="#E05F38"/>
<path d="M22.6963 21.5645L17.1788 29.7994L17.0039 29.6828L22.4437 21.5645H22.6963Z" fill="#E06137"/>
<path d="M22.9771 21.5645L17.3819 29.9159L17.207 29.7994L22.7246 21.5645H22.9771Z" fill="#E06236"/>
<path d="M23.2814 21.5645L17.6084 30.0325L17.4336 29.9159L23.0288 21.5645H23.2814Z" fill="#E06435"/>
<path d="M23.5842 21.5645L17.8311 30.1491L17.6562 30.0325L23.3292 21.5645H23.5842Z" fill="#E06534"/>
<path d="M23.8767 21.5645L18.0459 30.2681L17.8711 30.1491L23.6242 21.5645H23.8767Z" fill="#E06733"/>
<path d="M24.1693 21.5645L18.2608 30.3846L18.0859 30.2681L23.9167 21.5645H24.1693Z" fill="#E06832"/>
<path d="M24.4736 21.5645L18.4874 30.5012L18.3125 30.3846L24.221 21.5645H24.4736Z" fill="#E06A31"/>
<path d="M24.7622 21.5645L18.6983 30.6178L18.5234 30.5012L24.5097 21.5645H24.7622Z" fill="#DF6B30"/>
<path d="M25.0689 21.5645L18.9249 30.7343L18.75 30.6178L24.8139 21.5645H25.0689Z" fill="#DF6C2F"/>
<path d="M25.3576 21.5645L19.1358 30.8509L18.9609 30.7343L25.105 21.5645H25.3576Z" fill="#DF6E2F"/>
<path d="M25.6618 21.5645L19.3599 30.9699L19.1875 30.8509L25.4093 21.5645H25.6618Z" fill="#DF6F2E"/>
<path d="M25.9451 21.5645L19.5655 31.0865L19.3906 30.9699L25.6926 21.5645H25.9451Z" fill="#DF702D"/>
<path d="M26.2494 21.5645L19.792 31.203L19.6172 31.0865L25.9968 21.5645H26.2494Z" fill="#DF712C"/>
<path d="M26.5483 21.5645L20.0108 31.3196L19.8359 31.203L26.2933 21.5645H26.5483Z" fill="#DF732B"/>
<path d="M26.8408 21.5645L20.2256 31.4362L20.0508 31.3196L26.5883 21.5645H26.8408Z" fill="#DF742B"/>
<path d="M27.1334 21.5645L20.4405 31.5552L20.2656 31.4362L26.8808 21.5645H27.1334Z" fill="#DF752A"/>
<path d="M27.4377 21.5645L20.667 31.6717L20.4922 31.5552L27.1851 21.5645H27.4377Z" fill="#DF7629"/>
<path d="M27.738 21.5645L20.8897 31.7883L20.7148 31.6717L27.4855 21.5645H27.738Z" fill="#DF7728"/>
<path d="M28.033 21.5645L21.1045 31.9049L20.9297 31.7883L27.778 21.5645H28.033Z" fill="#DF7828"/>
<path d="M28.3256 21.5645L21.3194 32.0214L21.1445 31.9049L28.073 21.5645H28.3256Z" fill="#DF7927"/>
<path d="M28.6259 21.5645L21.542 32.1404L21.3672 32.0214L28.3734 21.5645H28.6259Z" fill="#DF7B26"/>
<path d="M28.9185 21.5645L21.7569 32.257L21.582 32.1404L28.6659 21.5645H28.9185Z" fill="#DF7C26"/>
<path d="M29.2189 21.5645L21.9795 32.3735L21.8047 32.257L28.9663 21.5645H29.2189Z" fill="#DF7D25"/>
<path d="M29.5178 21.5645L22.1959 32.4901L22.0234 32.3735L29.2628 21.5645H29.5178Z" fill="#DF7E24"/>
<path d="M29.8166 21.5645L22.417 32.6067L22.2422 32.4901L29.5641 21.5645H29.8166Z" fill="#DF7E24"/>
<path d="M30.1053 21.5645L22.628 32.7232L22.4531 32.6067L29.8527 21.5645H30.1053Z" fill="#DF7F23"/>
<path d="M30.4057 21.5645L22.8506 32.8422L22.6758 32.7232L30.1531 21.5645H30.4057Z" fill="#DF8023"/>
<path d="M30.6259 21.6859L23.0733 32.9588L22.8984 32.8422L30.4535 21.5645H30.6259V21.6859Z" fill="#DF8122"/>
<path d="M30.6659 22.0932L23.2881 33.1063L23.1133 32.9897L30.6659 21.7168V22.0932Z" fill="#DF8222"/>
<path d="M30.7059 22.5663L23.503 33.3171L23.3281 33.2006L30.7059 22.1875V22.5663Z" fill="#DF8321"/>
<path d="M30.7498 23.0366L23.7217 33.5275L23.5469 33.411L30.7498 22.6602V23.0366Z" fill="#DF8421"/>
<path d="M30.8015 23.5077L23.9483 33.7389L23.7734 33.6199L30.8015 23.1289V23.5077Z" fill="#DF8420"/>
<path d="M30.8376 23.9799L24.1592 33.9512L23.9844 33.8346L30.8376 23.6035V23.9799Z" fill="#DF8520"/>
<path d="M30.8854 24.455L24.3819 34.164L24.207 34.0474L30.8854 24.0762V24.455Z" fill="#DF861F"/>
<path d="M30.9293 24.9272L24.6006 34.3763L24.4258 34.2598L30.9293 24.5508V24.9272Z" fill="#DF871F"/>
<path d="M30.9693 25.3984L24.813 34.5852L24.6406 34.4687L30.9693 25.0195V25.3984Z" fill="#DF871E"/>
<path d="M31.0117 25.8686L25.0303 34.7981L24.8555 34.6791L31.0117 25.4922V25.8686Z" fill="#DF881E"/>
<path d="M31.0517 26.3417L25.2452 35.0089L25.0703 34.8924L31.0517 25.9629V26.3417Z" fill="#DF881E"/>
<path d="M31.0995 26.8163L25.4678 35.2213L25.293 35.1047L31.0995 26.4375V26.8163Z" fill="#DF891D"/>
<path d="M31.1395 27.2846L25.6827 35.4297L25.5078 35.3131L31.1395 26.9082V27.2846Z" fill="#DF891D"/>
<path d="M31.1912 27.7597L25.9092 35.6425L25.7344 35.5259L31.1912 27.3809V27.7597Z" fill="#DF8A1D"/>
<path d="M31.2273 28.2319L26.1202 35.8548L25.9453 35.7383L31.2273 27.8555V28.2319Z" fill="#DF8A1C"/>
<path d="M31.2712 28.7031L26.3389 36.0662L26.1641 35.9472L31.2712 28.3242V28.7031Z" fill="#DF8B1C"/>
<path d="M31.319 29.1752L26.5616 36.2785L26.3867 36.1619L31.319 28.7988V29.1752Z" fill="#DF8B1C"/>
<path d="M31.3668 29.6464L26.7842 36.4874L26.6094 36.3708L31.3668 29.2676V29.6464Z" fill="#DF8C1B"/>
<path d="M31.4068 30.1186L26.9991 36.6997L26.8242 36.5832L31.4068 29.7422V30.1186Z" fill="#DF8C1B"/>
<path d="M31.4468 30.5898L27.2139 36.9086L27.0391 36.7921L31.4468 30.2109V30.5898Z" fill="#DF8C1B"/>
<path d="M31.4985 31.062L27.4405 37.1234L27.2656 37.0044L31.4985 30.6855V31.062Z" fill="#DF8D1B"/>
<path d="M31.5346 31.537L27.6806 37.2901H27.5834L27.4766 37.2196L31.5346 31.1582V31.537Z" fill="#DF8D1B"/>
<path d="M31.5884 32.0092L27.9869 37.3858H27.7344L31.5884 31.6328V32.0092Z" fill="#DF8D1A"/>
<path d="M31.6483 32.4804L28.2994 37.4782H28.0469L31.6483 32.1016V32.4804Z" fill="#DF8D1A"/>
<path d="M31.7083 32.9506L28.6119 37.572H28.3594L31.7083 32.5742V32.9506Z" fill="#DF8E1A"/>
<path d="M31.7799 33.4238L28.9386 37.6663H28.6836L31.7799 33.0449V33.4238Z" fill="#DF8E1A"/>
<path d="M31.8374 33.8984L29.2487 37.7621H28.9961L31.8374 33.5195V33.8984Z" fill="#DF8E1A"/>
<path d="M31.8974 34.3686L29.5612 37.8559H29.3086L31.8974 33.9922V34.3686Z" fill="#DF8E1A"/>
</g>
<g style="mix-blend-mode:multiply" opacity="0.57">
<mask id="mask2_4497_17795" style="mask-type:luminance" maskUnits="userSpaceOnUse" x="16" y="19" width="14" height="4">
<path d="M16.4844 22.208L24.6684 19.1895L29.3408 21.0909L16.4844 22.208Z" fill="white"/>
</mask>
<g mask="url(#mask2_4497_17795)">
<path d="M17.1304 19.1895L17.2591 22.208H16.4844V19.1895H17.1304Z" fill="#E03B77"/>
<path d="M17.4348 19.1895L17.5659 22.208H17.4178L17.2891 19.1895H17.4348Z" fill="#E03B77"/>
<path d="M17.6247 19.1895L17.7534 22.208H17.6077L17.4766 19.1895H17.6247Z" fill="#E03D75"/>
<path d="M17.8098 19.1895L17.9409 22.208H17.7928L17.6641 19.1895H17.8098Z" fill="#E03F73"/>
<path d="M17.9919 19.1895L18.123 22.208H17.9749L17.8438 19.1895H17.9919Z" fill="#E04071"/>
<path d="M18.177 19.1895L18.3081 22.208H18.1624L18.0312 19.1895H18.177Z" fill="#E04270"/>
<path d="M18.3591 19.1895L18.4902 22.208H18.3421L18.2109 19.1895H18.3591Z" fill="#E0446E"/>
<path d="M18.5441 19.1895L18.6753 22.208H18.5296L18.3984 19.1895H18.5441Z" fill="#E0456C"/>
<path d="M18.7263 19.1895L18.8574 22.208H18.7093L18.5781 19.1895H18.7263Z" fill="#E0476A"/>
<path d="M18.9099 19.1895L19.0386 22.208H18.8929L18.7617 19.1895H18.9099Z" fill="#E04969"/>
<path d="M19.091 19.1895L19.2222 22.208H19.074L18.9453 19.1895H19.091Z" fill="#E04A67"/>
<path d="M19.281 19.1895L19.4121 22.208H19.264L19.1328 19.1895H19.281Z" fill="#E04C65"/>
<path d="M19.4543 19.1895L19.5854 22.208H19.4397L19.3086 19.1895H19.4543Z" fill="#E04D63"/>
<path d="M19.6481 19.1895L19.7793 22.208H19.6311L19.5 19.1895H19.6481Z" fill="#E04F62"/>
<path d="M19.8332 19.1895L19.9643 22.208H19.8186L19.6875 19.1895H19.8332Z" fill="#E05060"/>
<path d="M20.0153 19.1895L20.1465 22.208H19.9983L19.8672 19.1895H20.0153Z" fill="#E0525F"/>
<path d="M20.1965 19.1895L20.3276 22.208H20.1819L20.0508 19.1895H20.1965Z" fill="#E0535D"/>
<path d="M20.3825 19.1895L20.5137 22.208H20.3655L20.2344 19.1895H20.3825Z" fill="#E0555B"/>
<path d="M20.57 19.1895L20.6987 22.208H20.553L20.4219 19.1895H20.57Z" fill="#E0565A"/>
<path d="M20.7434 19.1895L20.8745 22.208H20.7264L20.5977 19.1895H20.7434Z" fill="#E05858"/>
<path d="M20.9372 19.1895L21.0683 22.208H20.9202L20.7891 19.1895H20.9372Z" fill="#E05957"/>
<path d="M21.1145 19.1895L21.2456 22.208H21.0999L20.9688 19.1895H21.1145Z" fill="#E05A55"/>
<path d="M21.3044 19.1895L21.4355 22.208H21.2874L21.1562 19.1895H21.3044Z" fill="#E05C54"/>
<path d="M21.4816 19.1895L21.6128 22.208H21.4671L21.3359 19.1895H21.4816Z" fill="#E05D53"/>
<path d="M21.6716 19.1895L21.8027 22.208H21.6546L21.5234 19.1895H21.6716Z" fill="#E05E51"/>
<path d="M21.8591 19.1895L21.9878 22.208H21.8421L21.7109 19.1895H21.8591Z" fill="#DF6050"/>
<path d="M22.0324 19.1895L22.1636 22.208H22.0154L21.8867 19.1895H22.0324Z" fill="#DF614E"/>
<path d="M22.2185 19.1895L22.3472 22.208H22.2015L22.0703 19.1895H22.2185Z" fill="#DF624D"/>
<path d="M22.3996 19.1895L22.5308 22.208H22.3826L22.2539 19.1895H22.3996Z" fill="#DF634C"/>
<path d="M22.5895 19.1895L22.7207 22.208H22.5725L22.4414 19.1895H22.5895Z" fill="#DF654B"/>
<path d="M22.7629 19.1895L22.894 22.208H22.7483L22.6172 19.1895H22.7629Z" fill="#DF6649"/>
<path d="M22.9606 19.1895L23.0918 22.208H22.9436L22.8125 19.1895H22.9606Z" fill="#DF6748"/>
<path d="M23.134 19.1895L23.2651 22.208H23.1194L22.9883 19.1895H23.134Z" fill="#DF6847"/>
<path d="M23.32 19.1895L23.4512 22.208H23.303L23.1719 19.1895H23.32Z" fill="#DF6946"/>
<path d="M23.4997 19.1895L23.6284 22.208H23.4827L23.3516 19.1895H23.4997Z" fill="#DF6A44"/>
<path d="M23.6887 19.1895L23.8198 22.208H23.6717L23.543 19.1895H23.6887Z" fill="#DF6B43"/>
<path d="M23.8747 19.1895L24.0058 22.208H23.8577L23.7266 19.1895H23.8747Z" fill="#DF6C42"/>
<path d="M24.052 19.1895L24.1831 22.208H24.0374L23.9062 19.1895H24.052Z" fill="#DF6E41"/>
<path d="M24.2419 19.1895L24.373 22.208H24.2249L24.0938 19.1895H24.2419Z" fill="#DF6F40"/>
<path d="M24.4191 19.1895L24.5503 22.208H24.4046L24.2734 19.1895H24.4191Z" fill="#DF703F"/>
<path d="M24.6091 19.1895L24.7402 22.208H24.5921L24.4609 19.1895H24.6091Z" fill="#DF703E"/>
<path d="M24.7888 19.1895L24.9175 22.208H24.7718L24.6406 19.1895H24.7888Z" fill="#DF713D"/>
<path d="M24.9777 19.1895L25.1089 22.208H24.9607L24.832 19.1895H24.9777Z" fill="#DF723C"/>
<path d="M25.1559 19.1895L25.2847 22.208H25.1389L25.0078 19.1895H25.1559Z" fill="#DF733B"/>
<path d="M25.341 19.1895L25.4722 22.208H25.324L25.1953 19.1895H25.341Z" fill="#DF743A"/>
<path d="M25.531 19.1895L25.6621 22.208H25.514L25.3828 19.1895H25.531Z" fill="#DF7539"/>
<path d="M25.7082 19.1895L25.8393 22.208H25.6936L25.5625 19.1895H25.7082Z" fill="#DF7638"/>
<path d="M25.8981 19.1895L26.0293 22.208H25.8811L25.75 19.1895H25.8981Z" fill="#DF7737"/>
<path d="M26.0754 19.1895L26.2065 22.208H26.0608L25.9297 19.1895H26.0754Z" fill="#DF7736"/>
<path d="M26.2692 19.1895L26.4004 22.208H26.2522L26.1211 19.1895H26.2692Z" fill="#DF7836"/>
<path d="M26.445 19.1895L26.5737 22.208H26.428L26.2969 19.1895H26.445Z" fill="#DF7935"/>
<path d="M26.6301 19.1895L26.7612 22.208H26.6131L26.4844 19.1895H26.6301Z" fill="#DF7A34"/>
<path d="M26.8122 19.1895L26.9433 22.208H26.7952L26.6641 19.1895H26.8122Z" fill="#DF7A33"/>
<path d="M26.9973 19.1895L27.1284 22.208H26.9827L26.8516 19.1895H26.9973Z" fill="#DF7B33"/>
<path d="M27.1794 19.1895L27.3105 22.208H27.1624L27.0312 19.1895H27.1794Z" fill="#DF7C32"/>
<path d="M27.3645 19.1895L27.4956 22.208H27.3499L27.2188 19.1895H27.3645Z" fill="#DF7C31"/>
<path d="M27.5544 19.1895L27.6855 22.208H27.5374L27.4062 19.1895H27.5544Z" fill="#DF7D31"/>
<path d="M27.7316 19.1895L27.8628 22.208H27.7171L27.5859 19.1895H27.7316Z" fill="#DF7E30"/>
<path d="M27.9216 19.1895L28.0527 22.208H27.9046L27.7734 19.1895H27.9216Z" fill="#DF7E2F"/>
<path d="M28.1013 19.1895L28.23 22.208H28.0843L27.9531 19.1895H28.1013Z" fill="#DF7F2F"/>
<path d="M28.2824 19.1895L28.4136 22.208H28.2654L28.1367 19.1895H28.2824Z" fill="#DF7F2E"/>
<path d="M28.4685 19.1895L28.5996 22.208H28.4515L28.3203 19.1895H28.4685Z" fill="#DF802E"/>
<path d="M28.6535 19.1895L28.7847 22.208H28.639L28.5078 19.1895H28.6535Z" fill="#DF802D"/>
<path d="M28.8317 19.1895L28.9629 22.208H28.8147L28.6836 19.1895H28.8317Z" fill="#DF812D"/>
<path d="M29.0129 19.1895L29.144 22.208H28.9983L28.8672 19.1895H29.0129Z" fill="#DF812C"/>
<path d="M29.2028 19.1895L29.334 22.208H29.1858L29.0547 19.1895H29.2028Z" fill="#DF812C"/>
<path d="M29.3864 19.1895L29.5151 22.208H29.3694L29.2383 19.1895H29.3864Z" fill="#DF822B"/>
</g>
</g>
<mask id="mask3_4497_17795" style="mask-type:luminance" maskUnits="userSpaceOnUse" x="3" y="1" width="28" height="18">
<path d="M3.55469 14.2011L30.4016 1.17969L13.9098 18.6039L3.55469 14.2011Z" fill="white"/>
</mask>
<g mask="url(#mask3_4497_17795)">
<path d="M3.55469 16.2531L4.59408 15.0898L11.6513 21.3868H3.55469V16.2531Z" fill="#00CB90"/>
<path d="M4.85156 15.029L5.06527 14.791L12.3872 21.326H11.9087L4.85156 15.029Z" fill="#00CB90"/>
<path d="M5.11719 14.7321L5.32847 14.4941L12.9175 21.2671H12.4391L5.11719 14.7321Z" fill="#00CB92"/>
<path d="M5.39062 14.4353L5.6019 14.1973L13.4581 21.2082H12.9796L5.39062 14.4353Z" fill="#00CC94"/>
<path d="M5.64844 14.1384L5.86214 13.9004L13.9854 21.1494H13.5046L5.64844 14.1384Z" fill="#00CC96"/>
<path d="M5.91406 13.8396L6.12534 13.6016L14.5158 21.0885H14.0374L5.91406 13.8396Z" fill="#00CD97"/>
<path d="M6.17188 13.5407L6.38558 13.3027L15.0407 21.0277H14.5623L6.17188 13.5407Z" fill="#00CD99"/>
<path d="M6.45312 13.2458L6.6644 13.0078L15.5867 20.9707H15.1083L6.45312 13.2458Z" fill="#00CD9B"/>
<path d="M6.71094 12.9489L6.92222 12.7109L16.1116 20.9119H15.6332L6.71094 12.9489Z" fill="#00CE9D"/>
<path d="M6.97266 12.6501L7.18636 12.4121L16.3879 20.6252L16.1863 20.851H16.1621L6.97266 12.6501Z" fill="#00CE9E"/>
<path d="M7.45008 12.1728L7.23828 12.4102L16.4419 20.6216L16.6536 20.3842L7.45008 12.1728Z" fill="#00CEA0"/>
<path d="M7.71961 11.8759L7.50781 12.1133L16.7114 20.3247L16.9232 20.0873L7.71961 11.8759Z" fill="#00CFA2"/>
<path d="M7.98524 11.5771L7.77344 11.8145L16.977 20.0259L17.1888 19.7885L7.98524 11.5771Z" fill="#00CFA3"/>
<path d="M8.25086 11.2802L8.03906 11.5176L17.2426 19.729L17.4544 19.4916L8.25086 11.2802Z" fill="#00CFA5"/>
<path d="M8.51649 10.9872L8.30469 11.2246L17.5083 19.436L17.7201 19.1987L8.51649 10.9872Z" fill="#00D0A6"/>
<path d="M8.78211 10.6845L8.57031 10.9219L17.7739 19.1333L17.9857 18.8959L8.78211 10.6845Z" fill="#00D0A8"/>
<path d="M9.03992 10.3915L8.82812 10.6289L18.0317 18.8403L18.2435 18.603L9.03992 10.3915Z" fill="#00D0A9"/>
<path d="M9.31336 10.0927L9.10156 10.3301L18.3051 18.5415L18.5169 18.3041L9.31336 10.0927Z" fill="#00D1AB"/>
<path d="M9.57899 9.79582L9.36719 10.0332L18.5708 18.2446L18.7826 18.0073L9.57899 9.79582Z" fill="#00D1AC"/>
<path d="M9.8368 9.49895L9.625 9.73633L18.8286 17.9478L19.0404 17.7104L9.8368 9.49895Z" fill="#00D1AE"/>
<path d="M10.1063 9.20012L9.89453 9.4375L19.0981 17.6489L19.3099 17.4116L10.1063 9.20012Z" fill="#00D2AF"/>
<path d="M10.3759 8.90325L10.1641 9.14062L19.3676 17.3521L19.5794 17.1147L10.3759 8.90325Z" fill="#00D2B0"/>
<path d="M10.6337 8.60833L10.4219 8.8457L19.6254 17.0571L19.8372 16.8198L10.6337 8.60833Z" fill="#00D2B2"/>
<path d="M10.9071 8.30559L10.6953 8.54297L19.8989 16.7544L20.1107 16.517L10.9071 8.30559Z" fill="#00D2B3"/>
<path d="M11.161 8.00872L10.9492 8.24609L20.1528 16.4575L20.3646 16.2202L11.161 8.00872Z" fill="#00D3B4"/>
<path d="M11.4305 7.71379L11.2188 7.95117L20.4223 16.1626L20.6341 15.9252L11.4305 7.71379Z" fill="#00D3B6"/>
<path d="M11.6962 7.41497L11.4844 7.65234L20.6879 15.8638L20.8997 15.6264L11.6962 7.41497Z" fill="#00D3B7"/>
<path d="M11.9618 7.12004L11.75 7.35742L20.9536 15.5689L21.1654 15.3315L11.9618 7.12004Z" fill="#00D3B8"/>
<path d="M12.2313 6.81926L12.0195 7.05664L21.2231 15.2681L21.4349 15.0307L12.2313 6.81926Z" fill="#00D4B9"/>
<path d="M12.497 6.52434L12.2852 6.76172L21.4887 14.9732L21.7005 14.7358L12.497 6.52434Z" fill="#00D4BA"/>
<path d="M12.7509 6.22356L12.5391 6.46094L21.7426 14.6724L21.9544 14.435L12.7509 6.22356Z" fill="#00D4BB"/>
<path d="M13.0243 5.93059L12.8125 6.16797L22.0161 14.3794L22.2279 14.142L13.0243 5.93059Z" fill="#00D4BC"/>
<path d="M13.286 5.62981L13.0742 5.86719L22.2778 14.0786L22.4896 13.8412L13.286 5.62981Z" fill="#00D5BD"/>
<path d="M13.5634 5.33489L13.3516 5.57227L22.5551 13.7837L22.7669 13.5463L13.5634 5.33489Z" fill="#00D5BE"/>
<path d="M13.8212 5.03606L13.6094 5.27344L22.8129 13.4849L23.0247 13.2475L13.8212 5.03606Z" fill="#00D5BF"/>
<path d="M14.0868 4.73918L13.875 4.97656L23.0786 13.188L23.2904 12.9506L14.0868 4.73918Z" fill="#00D5C0"/>
<path d="M14.3524 4.44426L14.1406 4.68164L23.3442 12.8931L23.556 12.6557L14.3524 4.44426Z" fill="#00D5C1"/>
<path d="M14.618 4.14739L14.4062 4.38477L23.6098 12.5962L23.8216 12.3588L14.618 4.14739Z" fill="#00D6C2"/>
<path d="M14.8876 3.84661L14.6758 4.08398L23.8794 12.2954L24.0911 12.058L14.8876 3.84661Z" fill="#00D6C3"/>
<path d="M15.1454 3.55168L14.9336 3.78906L24.1372 12.0005L24.349 11.7631L15.1454 3.55168Z" fill="#00D6C4"/>
<path d="M15.4149 3.25286L15.2031 3.49023L24.4067 11.7017L24.6185 11.4643L15.4149 3.25286Z" fill="#00D6C4"/>
<path d="M15.6805 2.95793L15.4688 3.19531L24.6723 11.4067L24.8841 11.1694L15.6805 2.95793Z" fill="#00D6C5"/>
<path d="M15.9423 2.65715L15.7305 2.89453L24.934 11.106L25.1458 10.8686L15.9423 2.65715Z" fill="#00D6C6"/>
<path d="M16.2118 2.36223L16 2.59961L25.2036 10.811L25.4154 10.5737L16.2118 2.36223Z" fill="#00D7C7"/>
<path d="M16.4696 2.0634L16.2578 2.30078L25.4614 10.5122L25.6732 10.2748L16.4696 2.0634Z" fill="#00D7C7"/>
<path d="M16.743 1.76848L16.5312 2.00586L25.7348 10.2173L25.9466 9.97992L16.743 1.76848Z" fill="#00D7C8"/>
<path d="M17.0087 1.4677L16.7969 1.70508L26.0004 9.91651L26.2122 9.67914L17.0087 1.4677Z" fill="#00D7C8"/>
<path d="M17.0625 1.36425L17.2276 1.17969H17.3345L26.4777 9.3369L26.264 9.57489L17.0625 1.36425Z" fill="#00D7C9"/>
<path d="M17.8808 1.17969L26.7569 9.09891L26.5456 9.3369L17.4023 1.17969H17.8808Z" fill="#00D7C9"/>
<path d="M18.4784 1.17969L27.0874 8.86334L26.8761 9.09891L18 1.17969H18.4784Z" fill="#00D7CA"/>
<path d="M19.0824 1.17969L27.4243 8.62536L27.2106 8.86335L18.6016 1.17969H19.0824Z" fill="#00D7CA"/>
<path d="M19.6776 1.17969L27.7524 8.38737L27.5411 8.62536L19.1992 1.17969H19.6776Z" fill="#00D8CB"/>
<path d="M20.2753 1.17969L28.0853 8.14938L27.8716 8.38737L19.7969 1.17969H20.2753Z" fill="#00D8CB"/>
<path d="M20.869 1.17969L28.4119 7.91139L28.2006 8.14938L20.3906 1.17969H20.869Z" fill="#00D8CC"/>
<path d="M21.4745 1.17969L28.7527 7.6734L28.539 7.91139L20.9961 1.17969H21.4745Z" fill="#00D8CC"/>
<path d="M22.0683 1.17969L29.0793 7.43541L28.868 7.6734L21.5898 1.17969H22.0683Z" fill="#00D8CC"/>
<path d="M22.6762 1.17969L29.4176 7.19742L29.2064 7.43541L22.1953 1.17969H22.6762Z" fill="#00D8CC"/>
<path d="M23.2636 1.17969L29.7403 6.95943L29.5266 7.19742L22.7852 1.17969H23.2636Z" fill="#00D8CD"/>
<path d="M23.8651 1.17969L30.0748 6.72144L29.8635 6.95943L23.3867 1.17969H23.8651Z" fill="#00D8CD"/>
<path d="M24.4628 1.17969L30.4077 6.48345L30.194 6.72144L23.9844 1.17969H24.4628Z" fill="#00D8CD"/>
<path d="M25.0604 1.17969L30.7382 6.24546L30.527 6.48345L24.582 1.17969H25.0604Z" fill="#00D8CD"/>
<path d="M25.662 1.17969L31.0727 6.00747L30.8614 6.24546L25.1836 1.17969H25.662Z" fill="#00D8CD"/>
<path d="M34.8492 1.90823L31.1919 6.00747L25.7812 1.17969H34.8492V1.90823Z" fill="#00D8CD"/>
</g>
<mask id="mask4_4497_17795" style="mask-type:luminance" maskUnits="userSpaceOnUse" x="16" y="1" width="17" height="18">
<path d="M32.9684 1.17969L30.3019 13.5794L16.4766 18.6039L32.9684 1.17969Z" fill="white"/>
</mask>
<g mask="url(#mask4_4497_17795)">
<path d="M16.7996 1.17969H16.4766V18.6015H16.7996V1.17969Z" fill="#00CB90"/>
<path d="M17.2019 1.17969H16.8789V18.6015H17.2019V1.17969Z" fill="#00CB92"/>
<path d="M17.6042 1.17969H17.2812V18.6015H17.6042V1.17969Z" fill="#00CB94"/>
<path d="M18.0183 1.17969H17.6953V18.6015H18.0183V1.17969Z" fill="#00CB96"/>
<path d="M18.4167 1.17969H18.0938V18.6015H18.4167V1.17969Z" fill="#00CB97"/>
<path d="M18.823 1.17969H18.5V18.6015H18.823V1.17969Z" fill="#00CC99"/>
<path d="M19.2214 1.17969H18.8984V18.6015H19.2214V1.17969Z" fill="#00CC9B"/>
<path d="M19.6238 1.17969H19.3008V18.6015H19.6238V1.17969Z" fill="#00CC9D"/>
<path d="M20.0417 1.17969H19.7188V18.6015H20.0417V1.17969Z" fill="#00CC9E"/>
<path d="M20.4402 1.17969H20.1172V18.6015H20.4402V1.17969Z" fill="#00CCA0"/>
<path d="M20.8425 1.17969H20.5195V18.6015H20.8425V1.17969Z" fill="#00CCA1"/>
<path d="M21.2449 1.17969H20.9219V18.6015H21.2449V1.17969Z" fill="#00CCA3"/>
<path d="M21.6511 1.17969H21.3281V18.6015H21.6511V1.17969Z" fill="#00CCA4"/>
<path d="M22.0574 1.17969H21.7344V18.6015H22.0574V1.17969Z" fill="#00CCA6"/>
<path d="M22.4636 1.17969H22.1406V18.6015H22.4636V1.17969Z" fill="#00CCA7"/>
<path d="M22.8621 1.17969H22.5391V18.6015H22.8621V1.17969Z" fill="#00CCA9"/>
<path d="M23.2683 1.17969H22.9453V18.6015H23.2683V1.17969Z" fill="#00CDAA"/>
<path d="M23.6667 1.17969H23.3438V18.6015H23.6667V1.17969Z" fill="#00CDAC"/>
<path d="M24.0808 1.17969H23.7578V18.6015H24.0808V1.17969Z" fill="#00CDAD"/>
<path d="M24.4831 1.17969H24.1602V18.6015H24.4831V1.17969Z" fill="#00CDAE"/>
<path d="M24.8855 1.17969H24.5625V18.6015H24.8855V1.17969Z" fill="#00CDAF"/>
<path d="M25.2878 1.17969H24.9648V18.6015H25.2878V1.17969Z" fill="#00CDB1"/>
<path d="M25.698 1.17969H25.375V18.6015H25.698V1.17969Z" fill="#00CDB2"/>
<path d="M26.1042 1.17969H25.7812V18.6015H26.1042V1.17969Z" fill="#00CDB3"/>
<path d="M26.5066 1.17969H26.1836V18.6015H26.5066V1.17969Z" fill="#00CDB4"/>
<path d="M26.9089 1.17969H26.5859V18.6015H26.9089V1.17969Z" fill="#00CDB5"/>
<path d="M27.3074 1.17969H26.9844V18.6015H27.3074V1.17969Z" fill="#00CDB6"/>
<path d="M27.7214 1.17969H27.3984V18.6015H27.7214V1.17969Z" fill="#00CDB7"/>
<path d="M28.1277 1.17969H27.8047V18.6015H28.1277V1.17969Z" fill="#00CDB8"/>
<path d="M28.5261 1.17969H28.2031V18.6015H28.5261V1.17969Z" fill="#00CDB9"/>
<path d="M28.9285 1.17969H28.6055V18.6015H28.9285V1.17969Z" fill="#00CDBA"/>
<path d="M29.3308 1.17969H29.0078V18.6015H29.3308V1.17969Z" fill="#00CEBB"/>
<path d="M29.7292 1.17969H29.4062V18.6015H29.7292V1.17969Z" fill="#00CEBB"/>
<path d="M30.1316 1.17969H29.8086V18.6015H30.1316V1.17969Z" fill="#00CEBC"/>
<path d="M30.5495 1.17969H30.2266V18.6015H30.5495V1.17969Z" fill="#00CEBD"/>
<path d="M30.948 1.17969H30.625V18.6015H30.948V1.17969Z" fill="#00CEBE"/>
<path d="M31.3503 1.17969H31.0273V18.6015H31.3503V1.17969Z" fill="#00CEBE"/>
<path d="M31.7605 1.17969H31.4375V18.6015H31.7605V1.17969Z" fill="#00CEBF"/>
<path d="M32.1589 1.17969H31.8359V18.6015H32.1589V1.17969Z" fill="#00CEBF"/>
<path d="M32.5574 1.17969H32.2344V18.6015H32.5574V1.17969Z" fill="#00CEC0"/>
<path d="M32.9714 1.17969H32.6484V18.6015H32.9714V1.17969Z" fill="#00CEC0"/>
</g>
<mask id="mask5_4497_17795" style="mask-type:luminance" maskUnits="userSpaceOnUse" x="16" y="1" width="17" height="18">
<path d="M24.7776 9.91106C20.2558 14.7534 16.5742 18.6632 16.5548 18.6438C16.5353 18.6244 20.1854 14.6854 24.7048 9.84306C29.2266 5.00313 32.9786 1.15402 32.9981 1.17587C33.0175 1.19773 29.297 5.07113 24.7752 9.91348L24.7776 9.91106Z" fill="white"/>
</mask>
<g mask="url(#mask5_4497_17795)">
<path d="M16.5234 6.89896L20.9967 5.43945L16.5987 19.5148H16.5234V6.89896Z" fill="white"/>
<path d="M21.0191 5.43645L21.0652 5.42188L16.6624 19.5118H16.6211L21.0191 5.43645Z" fill="white"/>
<path d="M21.0708 5.41934L21.1194 5.40234L16.7117 19.5093H16.668L21.0708 5.41934Z" fill="#FDFFFF"/>
<path d="M21.1265 5.39934L21.175 5.38477L16.7625 19.5063H16.7188L21.1265 5.39934Z" fill="#FBFEFE"/>
<path d="M21.1977 5.38028L21.2439 5.36328L16.8264 19.5018H16.7852L21.1977 5.38028Z" fill="#F9FEFE"/>
<path d="M21.2534 5.35832L21.3019 5.34375L16.8797 19.4968H16.8359L21.2534 5.35832Z" fill="#F8FEFE"/>
<path d="M21.3051 5.34122L21.3537 5.32422L16.9241 19.4943H16.8828L21.3051 5.34122Z" fill="#F6FEFD"/>
<path d="M21.3632 5.31926L21.4093 5.30469L16.9773 19.4893H16.9336L21.3632 5.31926Z" fill="#F4FDFD"/>
<path d="M21.432 5.29973L21.4806 5.28516L17.0437 19.4844H17L21.432 5.29973Z" fill="#F2FDFC"/>
<path d="M21.4798 5.28262L21.526 5.26562L17.0843 19.4818H17.043L21.4798 5.28262Z" fill="#F0FDFC"/>
<path d="M21.5394 5.26262L21.5879 5.24805L17.1414 19.4788H17.0977L21.5394 5.26262Z" fill="#EEFCFC"/>
<path d="M21.595 5.24356L21.6436 5.22656L17.1922 19.4744H17.1484L21.595 5.24356Z" fill="#EDFCFB"/>
<path d="M21.6545 5.2216L21.7007 5.20703L17.2444 19.4694H17.2031L21.6545 5.2216Z" fill="#EBFCFB"/>
<path d="M21.7141 5.20402L21.7627 5.18945L17.3015 19.4664H17.2578L21.7141 5.20402Z" fill="#E9FCFB"/>
<path d="M21.7736 5.18692L21.8222 5.16992L17.3562 19.4639H17.3125L21.7736 5.18692Z" fill="#E7FBFA"/>
<path d="M21.841 5.16496L21.8871 5.15039L17.4163 19.4589H17.375L21.841 5.16496Z" fill="#E5FBFA"/>
<path d="M21.8927 5.14395L21.9413 5.12695L17.4656 19.4525H17.4219L21.8927 5.14395Z" fill="#E4FBFA"/>
<path d="M21.9484 5.12395L21.9969 5.10938L17.5164 19.4495H17.4727L21.9484 5.12395Z" fill="#E2FBF9"/>
<path d="M22.0196 5.10684L22.0658 5.08984L17.5803 19.4469H17.5391L22.0196 5.10684Z" fill="#E0FAF9"/>
<path d="M22.0635 5.08488L22.1121 5.07031L17.6218 19.442H17.5781L22.0635 5.08488Z" fill="#DEFAF9"/>
<path d="M22.1192 5.06731L22.1677 5.05273L17.6702 19.439H17.6289L22.1192 5.06731Z" fill="#DDFAF8"/>
<path d="M22.1851 5.04825L22.2312 5.03125L17.7312 19.4345H17.6875L22.1851 5.04825Z" fill="#DBF9F8"/>
<path d="M22.2422 5.02629L22.2907 5.01172L17.7859 19.4295H17.7422L22.2422 5.02629Z" fill="#D9F9F8"/>
<path d="M22.3017 5.00919L22.3503 4.99219L17.8382 19.427H17.7969L22.3017 5.00919Z" fill="#D7F9F7"/>
<path d="M22.3637 4.98723L22.4098 4.97266L17.8953 19.422H17.8516L22.3637 4.98723Z" fill="#D6F9F7"/>
<path d="M22.413 4.96965L22.4616 4.95508L17.9422 19.419H17.8984L22.413 4.96965Z" fill="#D4F8F7"/>
<path d="M22.4764 4.95059L22.5226 4.93359L17.9983 19.4145H17.957L22.4764 4.95059Z" fill="#D2F8F6"/>
<path d="M22.5321 4.93059L22.5807 4.91602L18.0515 19.4115H18.0078L22.5321 4.93059Z" fill="#D0F8F6"/>
<path d="M22.5916 4.91153L22.6402 4.89453L18.1062 19.407H18.0625L22.5916 4.91153Z" fill="#CFF8F6"/>
<path d="M22.6512 4.89152L22.6973 4.87695L18.1585 19.404H18.1172L22.6512 4.89152Z" fill="#CDF7F5"/>
<path d="M22.7107 4.87199L22.7593 4.85742L18.2156 19.3991H18.1719L22.7107 4.87199Z" fill="#CBF7F5"/>
<path d="M22.7664 4.85489L22.8149 4.83789L18.2639 19.3965H18.2227L22.7664 4.85489Z" fill="#CAF7F5"/>
<path d="M22.8244 4.83293L22.8706 4.81836L18.3172 19.3916H18.2734L22.8244 4.83293Z" fill="#C8F7F4"/>
<path d="M22.8815 4.81583L22.9301 4.79883L18.3718 19.389H18.3281L22.8815 4.81583Z" fill="#C6F6F4"/>
<path d="M22.9411 4.79191L22.9897 4.77734L18.429 19.37L18.3925 19.3821H18.3828L22.9411 4.79191Z" fill="#C5F6F4"/>
<path d="M23.006 4.77481L23.0522 4.75781L18.4939 19.3529L18.4453 19.3674L23.006 4.77481Z" fill="#C3F6F3"/>
<path d="M23.0583 4.75481L23.1068 4.74023L18.5461 19.3329L18.5 19.3499L23.0583 4.75481Z" fill="#C1F6F3"/>
<path d="M23.1232 4.73723L23.1718 4.72266L18.6111 19.3153L18.5625 19.3299L23.1232 4.73723Z" fill="#C0F5F3"/>
<path d="M23.1779 4.71622L23.224 4.69922L18.6658 19.2943L18.6172 19.3089L23.1779 4.71622Z" fill="#BEF5F2"/>
<path d="M23.2458 4.69816L23.2943 4.68359L18.7336 19.2762L18.6875 19.2932L23.2458 4.69816Z" fill="#BCF5F2"/>
<path d="M23.2951 4.67911L23.3436 4.66211L18.7829 19.2572L18.7344 19.2717L23.2951 4.67911Z" fill="#BBF5F2"/>
<path d="M23.3615 4.65715L23.4076 4.64258L18.8469 19.2352L18.8008 19.2522L23.3615 4.65715Z" fill="#B9F4F1"/>
<path d="M23.4201 4.63762L23.4686 4.62305L18.9079 19.2157L18.8594 19.2303L23.4201 4.63762Z" fill="#B8F4F1"/>
<path d="M23.4787 4.62051L23.5248 4.60352L18.9665 19.1962L18.918 19.2132L23.4787 4.62051Z" fill="#B6F4F1"/>
<path d="M23.5426 4.60051L23.5912 4.58594L19.0305 19.1786L18.9844 19.1931L23.5426 4.60051Z" fill="#B4F4F0"/>
<path d="M23.5998 4.58145L23.6483 4.56445L19.0876 19.1595L19.0391 19.1741L23.5998 4.58145Z" fill="#B3F3F0"/>
<path d="M23.6623 4.55949L23.7084 4.54492L19.1501 19.1376L19.1016 19.1546L23.6623 4.55949Z" fill="#B1F3F0"/>
<path d="M23.7106 4.54191L23.7592 4.52734L19.1985 19.12L19.1523 19.1346L23.7106 4.54191Z" fill="#B0F3EF"/>
<path d="M23.7794 4.52481L23.828 4.50781L19.2673 19.1004L19.2188 19.1174L23.7794 4.52481Z" fill="#AEF3EF"/>
<path d="M23.8419 4.50285L23.8881 4.48828L19.3298 19.0809L19.2812 19.0955L23.8419 4.50285Z" fill="#ACF2EF"/>
<path d="M23.902 4.4838L23.9506 4.4668L19.3899 19.0619L19.3438 19.0764L23.902 4.4838Z" fill="#ABF2EF"/>
<path d="M23.9552 4.46184L24.0038 4.44727L19.4431 19.0399L19.3945 19.0569L23.9552 4.46184Z" fill="#A9F2EE"/>
<path d="M24.0216 4.44473L24.0678 4.42773L19.5095 19.0228L19.4609 19.0374L24.0216 4.44473Z" fill="#A8F2EE"/>
<path d="M24.0817 4.42277L24.1303 4.4082L19.5696 19.0008L19.5234 19.0178L24.0817 4.42277Z" fill="#A6F1EE"/>
<path d="M24.131 4.4052L24.1796 4.39062L19.6189 18.9833L19.5703 18.9978L24.131 4.4052Z" fill="#A5F1ED"/>
<path d="M24.1974 4.38614L24.2436 4.36914L19.6853 18.9642L19.6367 18.9788L24.1974 4.38614Z" fill="#A3F1ED"/>
<path d="M24.2575 4.36613L24.3061 4.35156L19.7454 18.9442L19.6992 18.9612L24.2575 4.36613Z" fill="#A2F1ED"/>
<path d="M24.3146 4.34708L24.3607 4.33008L19.8025 18.9251L19.7539 18.9397L24.3146 4.34708Z" fill="#A0F0EC"/>
<path d="M24.3708 4.32707L24.4193 4.3125L19.8586 18.9051L19.8125 18.9221L24.3708 4.32707Z" fill="#9FF0EC"/>
<path d="M24.4318 4.30754L24.4804 4.29297L19.9197 18.8856L19.8711 18.9002L24.4318 4.30754Z" fill="#9DF0EC"/>
<path d="M24.4904 4.28848L24.5365 4.27148L19.9783 18.8641L19.9297 18.8811L24.4904 4.28848Z" fill="#9CF0EC"/>
<path d="M24.5505 4.26848L24.599 4.25391L20.0383 18.8465L19.9922 18.8611L24.5505 4.26848Z" fill="#9AF0EB"/>
<path d="M24.6154 4.24942L24.664 4.23242L20.1033 18.8275L20.0547 18.8421L24.6154 4.24942Z" fill="#99EFEB"/>
<path d="M24.6701 4.22941L24.7162 4.21484L20.1579 18.8075L20.1094 18.8245L24.6701 4.22941Z" fill="#97EFEB"/>
<path d="M24.7301 4.20841L24.7787 4.19141L20.218 18.7865L20.1719 18.801L24.7301 4.20841Z" fill="#96EFEA"/>
<path d="M24.7873 4.19035L24.8358 4.17578L20.2751 18.7684L20.2266 18.7854L24.7873 4.19035Z" fill="#94EFEA"/>
<path d="M24.8498 4.17082L24.8959 4.15625L20.3376 18.7489L20.2891 18.7635L24.8498 4.17082Z" fill="#93EEEA"/>
<path d="M24.9098 4.15372L24.9584 4.13672L20.3977 18.7318L20.3516 18.7464L24.9098 4.15372Z" fill="#91EEEA"/>
<path d="M24.9669 4.12981L25.0155 4.11523L20.4548 18.7079L20.4062 18.7249L24.9669 4.12981Z" fill="#90EEE9"/>
<path d="M25.0294 4.1127L25.0756 4.0957L20.5173 18.6908L20.4688 18.7053L25.0294 4.1127Z" fill="#8FEEE9"/>
<path d="M25.0895 4.0927L25.1381 4.07812L20.5774 18.6708L20.5312 18.6878L25.0895 4.0927Z" fill="#8DEEE9"/>
<path d="M25.1544 4.07512L25.203 4.06055L20.6423 18.6532L20.5938 18.6678L25.1544 4.07512Z" fill="#8CEDE8"/>
<path d="M25.2091 4.05411L25.2553 4.03711L20.6946 18.6322L20.6484 18.6467L25.2091 4.05411Z" fill="#8AEDE8"/>
<path d="M25.2716 4.03606L25.3202 4.02148L20.7595 18.6141L20.7109 18.6311L25.2716 4.03606Z" fill="#89EDE8"/>
<path d="M25.3263 4.017L25.3725 4L20.8142 18.5951L20.7656 18.6096L25.3263 4.017Z" fill="#87EDE8"/>
<path d="M25.3864 3.99699L25.435 3.98242L20.8743 18.5751L20.8281 18.5921L25.3864 3.99699Z" fill="#86ECE7"/>
<path d="M25.4396 3.97551L25.4882 3.96094L20.9275 18.5536L20.8789 18.5681L25.4396 3.97551Z" fill="#85ECE7"/>
<path d="M25.5138 3.95645L25.56 3.93945L21.0017 18.5321L20.9531 18.5491L25.5138 3.95645Z" fill="#83ECE7"/>
<path d="M25.5661 3.9384L25.6147 3.92383L21.054 18.5165L21.0078 18.531L25.5661 3.9384Z" fill="#82ECE6"/>
<path d="M25.6271 3.91934L25.6757 3.90234L21.115 18.4974L21.0664 18.512L25.6271 3.91934Z" fill="#81ECE6"/>
<path d="M25.6935 3.89738L25.7397 3.88281L21.1814 18.4754L21.1328 18.4924L25.6935 3.89738Z" fill="#7FEBE6"/>
<path d="M25.7419 3.87833L25.7904 3.86133L21.2297 18.4564L21.1836 18.471L25.7419 3.87833Z" fill="#7EEBE6"/>
<path d="M25.8107 3.86027L25.8593 3.8457L21.2986 18.4383L21.25 18.4553L25.8107 3.86027Z" fill="#7CEBE5"/>
<path d="M25.8576 3.84074L25.9037 3.82617L21.3454 18.4188L21.2969 18.4334L25.8576 3.84074Z" fill="#7BEBE5"/>
<path d="M25.9333 3.82169L25.9818 3.80469L21.4211 18.3998L21.375 18.4143L25.9333 3.82169Z" fill="#7AEBE5"/>
<path d="M25.9748 3.79973L26.0233 3.78516L21.4626 18.3778L21.4141 18.3948L25.9748 3.79973Z" fill="#78EAE5"/>
<path d="M26.0451 3.78262L26.0912 3.76562L21.5329 18.3607L21.4844 18.3753L26.0451 3.78262Z" fill="#77EAE4"/>
<path d="M26.0973 3.76066L26.1459 3.74609L21.5852 18.3387L21.5391 18.3557L26.0973 3.76066Z" fill="#76EAE4"/>
<path d="M26.1623 3.74309L26.2084 3.72852L21.6501 18.3212L21.6016 18.3357L26.1623 3.74309Z" fill="#75EAE4"/>
<path d="M26.2262 3.72403L26.2748 3.70703L21.7141 18.3021L21.668 18.3167L26.2262 3.72403Z" fill="#73EAE4"/>
<path d="M26.2794 3.70207L26.328 3.6875L21.7673 18.2801L21.7188 18.2971L26.2794 3.70207Z" fill="#72E9E3"/>
<path d="M26.3459 3.68497L26.392 3.66797L21.8337 18.263L21.7852 18.2776L26.3459 3.68497Z" fill="#71E9E3"/>
<path d="M26.402 3.66496L26.4506 3.65039L21.8899 18.243L21.8438 18.26L26.402 3.66496Z" fill="#6FE9E3"/>
<path d="M26.463 3.64543L26.5116 3.63086L21.9509 18.2235L21.9023 18.2381L26.463 3.64543Z" fill="#6EE9E3"/>
<path d="M26.5138 3.62637L26.56 3.60938L22.0017 18.202L21.9531 18.219L26.5138 3.62637Z" fill="#6DE9E2"/>
<path d="M26.5817 3.60637L26.6303 3.5918L22.0696 18.1844L22.0234 18.199L26.5817 3.60637Z" fill="#6CE8E2"/>
<path d="M26.6388 3.58731L26.6874 3.57031L22.1267 18.1654L22.0781 18.1799L26.6388 3.58731Z" fill="#6AE8E2"/>
<path d="M26.7013 3.56731L26.7475 3.55273L22.1892 18.1454L22.1406 18.1624L26.7013 3.56731Z" fill="#69E8E2"/>
<path d="M26.7614 3.5463L26.81 3.5293L22.2493 18.1244L22.2031 18.1389L26.7614 3.5463Z" fill="#68E8E1"/>
<path d="M26.8185 3.52629L26.8671 3.51172L22.3064 18.1044L22.2578 18.1214L26.8185 3.52629Z" fill="#67E8E1"/>
<path d="M26.881 3.51066L26.9272 3.49609L22.3689 18.0887L22.3203 18.1033L26.881 3.51066Z" fill="#65E8E1"/>
<path d="M26.9333 3.49161L26.9818 3.47461L22.4211 18.0697L22.375 18.0842L26.9333 3.49161Z" fill="#64E7E1"/>
<path d="M26.9982 3.46965L27.0468 3.45508L22.4861 18.0477L22.4375 18.0647L26.9982 3.46965Z" fill="#63E7E0"/>
<path d="M27.0607 3.45059L27.1068 3.43359L22.5461 18.0287L22.5 18.0432L27.0607 3.45059Z" fill="#62E7E0"/>
<path d="M27.1115 3.43059L27.16 3.41602L22.5994 18.0087L22.5508 18.0257L27.1115 3.43059Z" fill="#61E7E0"/>
<path d="M27.1779 3.41301L27.224 3.39844L22.6658 17.9911L22.6172 18.0056L27.1779 3.41301Z" fill="#5FE7E0"/>
<path d="M27.238 3.392L27.2865 3.375L22.7258 17.9676L22.6797 17.9846L27.238 3.392Z" fill="#5EE6DF"/>
<path d="M27.3029 3.37199L27.3515 3.35742L22.7908 17.9501L22.7422 17.9646L27.3029 3.37199Z" fill="#5DE6DF"/>
<path d="M27.3537 3.35489L27.3998 3.33789L22.8415 17.933L22.793 17.9475L27.3537 3.35489Z" fill="#5CE6DF"/>
<path d="M27.4098 3.33293L27.4584 3.31836L22.8977 17.911L22.8516 17.928L27.4098 3.33293Z" fill="#5BE6DF"/>
<path d="M27.4669 3.31387L27.5155 3.29688L22.9548 17.8919L22.9062 17.9065L27.4669 3.31387Z" fill="#5AE6DF"/>
<path d="M27.5294 3.29387L27.5756 3.2793L23.0173 17.8719L22.9688 17.8889L27.5294 3.29387Z" fill="#58E6DE"/>
<path d="M27.5934 3.27629L27.642 3.26172L23.0813 17.8544L23.0352 17.8689L27.5934 3.27629Z" fill="#57E5DE"/>
<path d="M27.6584 3.25723L27.7069 3.24023L23.1462 17.8353L23.0977 17.8499L27.6584 3.25723Z" fill="#56E5DE"/>
<path d="M27.713 3.23527L27.7592 3.2207L23.2009 17.8133L23.1523 17.8303L27.713 3.23527Z" fill="#55E5DE"/>
<path d="M27.7692 3.21622L27.8178 3.19922L23.2571 17.7943L23.2109 17.8089L27.7692 3.21622Z" fill="#54E5DD"/>
<path d="M27.8341 3.19621L27.8827 3.18164L23.322 17.7743L23.2734 17.7913L27.8341 3.19621Z" fill="#53E5DD"/>
<path d="M27.8888 3.17863L27.935 3.16406L23.3767 17.7567L23.3281 17.7713L27.8888 3.17863Z" fill="#52E4DD"/>
<path d="M27.9489 3.15958L27.9975 3.14258L23.4368 17.7376L23.3906 17.7522L27.9489 3.15958Z" fill="#51E4DD"/>
<path d="M28.006 3.13957L28.0522 3.125L23.4939 17.7176L23.4453 17.7346L28.006 3.13957Z" fill="#4FE4DD"/>
<path d="M28.0739 3.12247L28.1225 3.10547L23.5618 17.7005L23.5156 17.7151L28.0739 3.12247Z" fill="#4EE4DC"/>
<path d="M28.1232 3.09856L28.1718 3.08398L23.6111 17.6766L23.5625 17.6936L28.1232 3.09856Z" fill="#4DE4DC"/>
<path d="M28.1857 3.08098L28.2318 3.06641L23.6736 17.659L23.625 17.6736L28.1857 3.08098Z" fill="#4CE4DC"/>
<path d="M28.2497 3.06192L28.2982 3.04492L23.7375 17.6376L23.6914 17.6546L28.2497 3.06192Z" fill="#4BE3DC"/>
<path d="M28.3107 3.03996L28.3593 3.02539L23.7986 17.618L23.75 17.6326L28.3107 3.03996Z" fill="#4AE3DC"/>
<path d="M28.3771 3.02286L28.4232 3.00586L23.865 17.6009L23.8164 17.6155L28.3771 3.02286Z" fill="#49E3DB"/>
<path d="M28.4255 3.00285L28.474 2.98828L23.9133 17.5809L23.8672 17.5979L28.4255 3.00285Z" fill="#48E3DB"/>
<path d="M28.4943 2.9838L28.5429 2.9668L23.9822 17.5619L23.9336 17.5764L28.4943 2.9838Z" fill="#47E3DB"/>
<path d="M28.5451 2.96184L28.5912 2.94727L24.0329 17.5399L23.9844 17.5569L28.5451 2.96184Z" fill="#46E3DB"/>
<path d="M28.613 2.94231L28.6615 2.92773L24.1008 17.5204L24.0547 17.5349L28.613 2.94231Z" fill="#45E3DB"/>
<path d="M28.6623 2.9252L28.7108 2.9082L24.1501 17.5033L24.1016 17.5178L28.6623 2.9252Z" fill="#44E2DA"/>
<path d="M28.7326 2.9052L28.7787 2.89062L24.2204 17.4833L24.1719 17.5003L28.7326 2.9052Z" fill="#43E2DA"/>
<path d="M28.7848 2.88419L28.8334 2.86719L24.2727 17.4623L24.2266 17.4768L28.7848 2.88419Z" fill="#42E2DA"/>
<path d="M28.8498 2.86418L28.8983 2.84961L24.3376 17.4422L24.2891 17.4592L28.8498 2.86418Z" fill="#41E2DA"/>
<path d="M28.9123 2.84856L28.9584 2.83398L24.3977 17.4266L24.3516 17.4412L28.9123 2.84856Z" fill="#40E2DA"/>
<path d="M28.9669 2.8295L29.0155 2.8125L24.4548 17.4076L24.4062 17.4221L28.9669 2.8295Z" fill="#3FE2D9"/>
<path d="M29.0255 2.80754L29.0717 2.79297L24.5134 17.3856L24.4648 17.4026L29.0255 2.80754Z" fill="#3EE1D9"/>
<path d="M29.0778 2.79044L29.1264 2.77344L24.5657 17.3685L24.5195 17.3831L29.0778 2.79044Z" fill="#3DE1D9"/>
<path d="M29.1388 2.76848L29.1874 2.75391L24.6267 17.3465L24.5781 17.3635L29.1388 2.76848Z" fill="#3CE1D9"/>
<path d="M29.2091 2.7509L29.2553 2.73633L24.697 17.329L24.6484 17.3435L29.2091 2.7509Z" fill="#3BE1D9"/>
<path d="M29.2653 2.72989L29.3139 2.71289L24.7532 17.3055L24.707 17.3225L29.2653 2.72989Z" fill="#3AE1D8"/>
<path d="M29.3263 2.70988L29.3749 2.69531L24.8142 17.288L24.7656 17.3025L29.3263 2.70988Z" fill="#39E1D8"/>
<path d="M29.3849 2.69278L29.4311 2.67578L24.8728 17.2708L24.8242 17.2854L29.3849 2.69278Z" fill="#38E1D8"/>
<path d="M29.4411 2.67277L29.4897 2.6582L24.929 17.2508L24.8828 17.2678L29.4411 2.67277Z" fill="#37E0D8"/>
<path d="M29.5021 2.65176L29.5507 2.63477L24.99 17.2298L24.9414 17.2444L29.5021 2.65176Z" fill="#36E0D8"/>
<path d="M29.5607 2.63176L29.6068 2.61719L25.0486 17.2098L25 17.2268L29.5607 2.63176Z" fill="#35E0D7"/>
<path d="M29.6247 2.61223L29.6732 2.59766L25.1125 17.1903L25.0664 17.2049L29.6247 2.61223Z" fill="#35E0D7"/>
<path d="M29.6779 2.59512L29.7265 2.57812L25.1658 17.1732L25.1172 17.1878L29.6779 2.59512Z" fill="#34E0D7"/>
<path d="M29.7443 2.57316L29.7904 2.55859L25.2322 17.1512L25.1836 17.1682L29.7443 2.57316Z" fill="#33E0D7"/>
<path d="M29.8005 2.55411L29.849 2.53711L25.2883 17.1322L25.2422 17.1467L29.8005 2.55411Z" fill="#32E0D7"/>
<path d="M29.8615 2.5341L29.91 2.51953L25.3494 17.1122L25.3008 17.1292L29.8615 2.5341Z" fill="#31DFD7"/>
<path d="M29.924 2.51848L29.9701 2.50391L25.4094 17.0965L25.3633 17.1111L29.924 2.51848Z" fill="#30DFD6"/>
<path d="M29.9826 2.49747L30.0311 2.48047L25.4704 17.0731L25.4219 17.0901L29.9826 2.49747Z" fill="#2FDFD6"/>
<path d="M30.0373 2.47746L30.0834 2.46289L25.5251 17.0555L25.4766 17.0701L30.0373 2.47746Z" fill="#2EDFD6"/>
<path d="M30.0973 2.45841L30.1459 2.44141L25.5852 17.0365L25.5391 17.051L30.0973 2.45841Z" fill="#2EDFD6"/>
<path d="M30.1544 2.43645L30.203 2.42188L25.6423 17.0145L25.5938 17.0315L30.1544 2.43645Z" fill="#2DDFD6"/>
<path d="M30.2248 2.42082L30.2709 2.40625L25.7126 16.9989L25.6641 17.0135L30.2248 2.42082Z" fill="#2CDFD6"/>
<path d="M30.277 2.39981L30.3256 2.38281L25.7649 16.9755L25.7188 16.9924L30.277 2.39981Z" fill="#2BDFD5"/>
<path d="M30.3341 2.37785L30.3827 2.36328L25.822 16.9559L25.7734 16.9705L30.3341 2.37785Z" fill="#2ADED5"/>
<path d="M30.3927 2.36075L30.4389 2.34375L25.8806 16.9388L25.832 16.9534L30.3927 2.36075Z" fill="#29DED5"/>
<path d="M30.4567 2.3427L30.5053 2.32812L25.9446 16.9208L25.8984 16.9378L30.4567 2.3427Z" fill="#29DED5"/>
<path d="M30.5216 2.32169L30.5702 2.30469L26.0095 16.8998L25.9609 16.9143L30.5216 2.32169Z" fill="#28DED5"/>
<path d="M30.5763 2.29973L30.6225 2.28516L26.0642 16.8778L26.0156 16.8948L30.5763 2.29973Z" fill="#27DED5"/>
<path d="M30.6364 2.2841L30.685 2.26953L26.1243 16.8622L26.0781 16.8767L30.6364 2.2841Z" fill="#26DED5"/>
<path d="M30.6935 2.267L30.7421 2.25L26.1814 16.8451L26.1328 16.8596L30.6935 2.267Z" fill="#25DED4"/>
<path d="M30.7521 2.24309L30.7982 2.22852L26.2375 16.8212L26.1914 16.8382L30.7521 2.24309Z" fill="#25DED4"/>
<path d="M30.8107 2.22208L30.8593 2.20508L26.2986 16.8001L26.25 16.8147L30.8107 2.22208Z" fill="#24DED4"/>
<path d="M30.881 2.20207L30.9272 2.1875L26.3689 16.7801L26.3203 16.7971L30.881 2.20207Z" fill="#23DDD4"/>
<path d="M30.9255 2.18645L30.974 2.17188L26.4133 16.7645L26.3672 16.7791L30.9255 2.18645Z" fill="#22DDD4"/>
<path d="M30.9982 2.16739L31.0468 2.15039L26.4861 16.743L26.4375 16.76L30.9982 2.16739Z" fill="#22DDD4"/>
<path d="M31.0568 2.14738L31.1029 2.13281L26.5447 16.7254L26.4961 16.74L31.0568 2.14738Z" fill="#21DDD3"/>
<path d="M31.1091 2.13028L31.1576 2.11328L26.5969 16.7083L26.5508 16.7229L31.1091 2.13028Z" fill="#20DDD3"/>
<path d="M31.174 2.10637L31.2225 2.0918L26.6619 16.6844L26.6133 16.7014L31.174 2.10637Z" fill="#20DDD3"/>
<path d="M31.2326 2.08926L31.2787 2.07227L26.7204 16.6673L26.6719 16.6819L31.2326 2.08926Z" fill="#1FDDD3"/>
<path d="M31.2966 2.06535L31.3451 2.05078L26.7844 16.6434L26.7383 16.6604L31.2966 2.06535Z" fill="#1EDDD3"/>
<path d="M31.3459 2.04777L31.3944 2.0332L26.8337 16.6258L26.7852 16.6404L31.3459 2.04777Z" fill="#1DDDD3"/>
<path d="M31.4162 2.03067L31.4623 2.01367L26.904 16.6087L26.8555 16.6233L31.4162 2.03067Z" fill="#1DDCD3"/>
<path d="M31.4723 2.01066L31.5209 1.99609L26.9602 16.5887L26.9141 16.6057L31.4723 2.01066Z" fill="#1CDCD3"/>
<path d="M31.5334 1.98966L31.5819 1.97266L27.0212 16.5677L26.9727 16.5823L31.5334 1.98966Z" fill="#1BDCD2"/>
<path d="M31.5919 1.96965L31.6381 1.95508L27.0798 16.5477L27.0312 16.5647L31.5919 1.96965Z" fill="#1BDCD2"/>
<path d="M31.6442 1.95207L31.6928 1.9375L27.1321 16.5301L27.0859 16.5447L31.6442 1.95207Z" fill="#1ADCD2"/>
<path d="M31.7091 1.93497L31.7577 1.91797L27.197 16.513L27.1484 16.5276L31.7091 1.93497Z" fill="#19DCD2"/>
<path d="M31.7716 1.91301L31.8178 1.89844L27.2571 16.4911L27.2109 16.5081L31.7716 1.91301Z" fill="#19DCD2"/>
<path d="M31.8263 1.892L31.8749 1.875L27.3142 16.4701L27.2656 16.4846L31.8263 1.892Z" fill="#18DCD2"/>
<path d="M31.8927 1.87199L31.9389 1.85742L27.3806 16.4501L27.332 16.4671L31.8927 1.87199Z" fill="#18DCD2"/>
<path d="M31.9489 1.85441L31.9975 1.83984L27.4368 16.4325L27.3906 16.4471L31.9489 1.85441Z" fill="#17DCD2"/>
<path d="M32.006 1.83731L32.0546 1.82031L27.4939 16.4129L27.4453 16.4299L32.006 1.83731Z" fill="#16DBD1"/>
<path d="M32.0685 1.81535L32.1147 1.80078L27.5564 16.3934L27.5078 16.408L32.0685 1.81535Z" fill="#16DBD1"/>
<path d="M32.1286 1.79825L32.1772 1.78125L27.6165 16.3763L27.5703 16.3909L32.1286 1.79825Z" fill="#15DBD1"/>
<path d="M32.1857 1.77824L32.2343 1.76367L27.6736 16.3563L27.625 16.3733L32.1857 1.77824Z" fill="#15DBD1"/>
<path d="M32.2482 1.75919L32.2943 1.74219L27.7361 16.3373L27.6875 16.3518L32.2482 1.75919Z" fill="#14DBD1"/>
<path d="M32.3005 1.73527L32.349 1.7207L27.7883 16.3133L27.7422 16.3303L32.3005 1.73527Z" fill="#13DBD1"/>
<path d="M32.3654 1.7177L32.414 1.70312L27.8533 16.2958L27.8047 16.3103L32.3654 1.7177Z" fill="#13DBD1"/>
<path d="M32.424 1.70059L32.4701 1.68359L27.9119 16.2787L27.8633 16.2932L32.424 1.70059Z" fill="#12DBD1"/>
<path d="M32.488 1.68059L32.5365 1.66602L27.9758 16.2587L27.9297 16.2757L32.488 1.68059Z" fill="#12DBD0"/>
<path d="M32.5412 1.65958L32.5897 1.64258L28.029 16.2376L27.9805 16.2522L32.5412 1.65958Z" fill="#11DBD0"/>
<path d="M32.6076 1.63957L32.6537 1.625L28.0954 16.2176L28.0469 16.2346L32.6076 1.63957Z" fill="#11DBD0"/>
<path d="M32.6676 1.62199L32.7162 1.60742L28.1555 16.2001L28.1094 16.2146L32.6676 1.62199Z" fill="#10DAD0"/>
<path d="M32.7248 1.60489L32.7709 1.58789L28.2126 16.1805L28.1641 16.1975L32.7248 1.60489Z" fill="#10DAD0"/>
<path d="M32.7809 1.58098L32.8295 1.56641L28.2688 16.159L28.2227 16.1736L32.7809 1.58098Z" fill="#0FDAD0"/>
<path d="M32.8419 1.56387L32.8905 1.54688L28.3298 16.1419L28.2812 16.1565L32.8419 1.56387Z" fill="#0FDAD0"/>
<path d="M32.9044 1.54191L32.9506 1.52734L28.3923 16.12L28.3438 16.137L32.9044 1.54191Z" fill="#0EDAD0"/>
<path d="M32.9567 1.52434L33.0053 1.50977L28.4446 16.1024L28.3984 16.117L32.9567 1.52434Z" fill="#0EDAD0"/>
<path d="M33.0294 1.50528L33.078 1.48828L28.5173 16.0809L28.4688 16.0979L33.0294 1.50528Z" fill="#0DDAD0"/>
<path d="M33.0763 1.48527L33.1225 1.4707L28.5642 16.0633L28.5156 16.0779L33.0763 1.48527Z" fill="#0DDACF"/>
<path d="M33.1403 1.46622L33.1889 1.44922L28.6282 16.0443L28.582 16.0589L33.1403 1.46622Z" fill="#0CDACF"/>
<path d="M33.2013 1.44621L33.2499 1.43164L28.6892 16.0243L28.6406 16.0413L33.2013 1.44621Z" fill="#0CDACF"/>
<path d="M33.2599 1.42716L33.3061 1.41016L28.7478 16.0052L28.6992 16.0198L33.2599 1.42716Z" fill="#0BDACF"/>
<path d="M33.3161 1.4052L33.3647 1.39062L28.804 15.9833L28.7578 16.0003L33.3161 1.4052Z" fill="#0BDACF"/>
<path d="M33.3732 1.38762L33.4218 1.37305L28.8611 15.9657L28.8125 15.9803L33.3732 1.38762Z" fill="#0ADACF"/>
<path d="M33.4435 1.36856L33.4897 1.35156L28.9314 15.9466L28.8828 15.9612L33.4435 1.36856Z" fill="#0ADACF"/>
<path d="M33.4958 1.34856L33.5443 1.33398L28.9836 15.9266L28.9375 15.9436L33.4958 1.34856Z" fill="#0AD9CF"/>
<path d="M33.5646 1.3295L33.6132 1.3125L29.0525 15.9076L29.0039 15.9221L33.5646 1.3295Z" fill="#09D9CF"/>
<path d="M33.6154 1.30754L33.6615 1.29297L29.1008 15.8856L29.0547 15.9026L33.6154 1.30754Z" fill="#09D9CF"/>
<path d="M33.6779 1.28996L33.7265 1.27539L29.1658 15.868L29.1172 15.8826L33.6779 1.28996Z" fill="#08D9CF"/>
<path d="M33.7404 1.27286L33.7865 1.25586L29.2283 15.8485L29.1797 15.8655L33.7404 1.27286Z" fill="#08D9CF"/>
<path d="M33.7887 1.24895L33.8373 1.23438L29.2766 15.827L29.2305 15.8416L33.7887 1.24895Z" fill="#08D9CF"/>
<path d="M33.8576 1.23184L33.9061 1.21484L29.3454 15.8099L29.2969 15.8245L33.8576 1.23184Z" fill="#07D9CE"/>
<path d="M33.9084 1.20988L33.9545 1.19531L29.3962 15.7879L29.3477 15.8049L33.9084 1.20988Z" fill="#07D9CE"/>
<path d="M33.9801 1.19278L34.0287 1.17578L29.468 15.7708L29.4219 15.7854L33.9801 1.19278Z" fill="#07D9CE"/>
<path d="M34.0255 1.17082L34.0741 1.15625L29.5134 15.7489L29.4648 15.7659L34.0255 1.17082Z" fill="#06D9CE"/>
<path d="M34.0998 1.15572L34.1143 1.14844H34.1435L29.5876 15.7338L29.5391 15.7484L34.0998 1.15572Z" fill="#06D9CE"/>
<path d="M34.1933 1.14844L29.6399 15.7192L29.5938 15.7338L34.1496 1.14844H34.1933Z" fill="#06D9CE"/>
<path d="M34.2509 1.14844L29.7048 15.7022L29.6562 15.7192L34.2097 1.14844H34.2509Z" fill="#05D9CE"/>
<path d="M34.3086 1.14844L29.7673 15.6876L29.7188 15.7022L34.2649 1.14844H34.3086Z" fill="#05D9CE"/>
<path d="M34.3584 1.14844L29.8196 15.6706L29.7734 15.6876L34.3147 1.14844H34.3584Z" fill="#05D9CE"/>
<path d="M34.4161 1.14844L29.8845 15.6561L29.8359 15.6706L34.3748 1.14844H34.4161Z" fill="#04D9CE"/>
<path d="M34.4659 1.14844L29.9392 15.6415L29.8906 15.6561L34.4222 1.14844H34.4659Z" fill="#04D9CE"/>
<path d="M34.5289 1.14844L30.0071 15.6245L29.9609 15.6415L34.4876 1.14844H34.5289Z" fill="#04D9CE"/>
<path d="M34.5773 1.14844L30.0603 15.6099L30.0117 15.6245L34.5336 1.14844H34.5773Z" fill="#04D9CE"/>
<path d="M34.6388 1.14844L30.1243 15.5929L30.0781 15.6099L34.5951 1.14844H34.6388Z" fill="#03D9CE"/>
<path d="M34.6847 1.14844L30.1775 15.5784L30.1289 15.5929L34.6435 1.14844H34.6847Z" fill="#03D8CE"/>
<path d="M34.7385 1.14844L30.2361 15.5614L30.1875 15.5784L34.6948 1.14844H34.7385Z" fill="#03D8CE"/>
<path d="M34.8 1.14844L30.3 15.5468L30.2539 15.5614L34.7563 1.14844H34.8Z" fill="#03D8CE"/>
<path d="M34.8538 1.14844L30.3611 15.5322L30.3125 15.5468L34.8125 1.14844H34.8538Z" fill="#02D8CD"/>
<path d="M34.9075 1.14844L30.4197 15.5152L30.3711 15.5322L34.8638 1.14844H34.9075Z" fill="#02D8CD"/>
<path d="M34.9612 1.14844L30.4758 15.5007L30.4297 15.5152L34.9175 1.14844H34.9612Z" fill="#02D8CD"/>
<path d="M35.0111 1.14844L30.5329 15.4837L30.4844 15.5007L34.9698 1.14844H35.0111Z" fill="#02D8CD"/>
<path d="M35.0687 1.14844L30.5954 15.4691L30.5469 15.4837L35.025 1.14844H35.0687Z" fill="#02D8CD"/>
<path d="M35.1303 1.14844L30.6594 15.4545L30.6133 15.4691L35.0866 1.14844H35.1303Z" fill="#01D8CD"/>
<path d="M35.1762 1.14844L30.7126 15.4375L30.6641 15.4545L35.1349 1.14844H35.1762Z" fill="#01D8CD"/>
<path d="M35.2338 1.14844L30.7751 15.4229L30.7266 15.4375L35.1901 1.14844H35.2338Z" fill="#01D8CD"/>
<path d="M35.2891 1.14844L30.8352 15.4059L30.7891 15.4229L35.2478 1.14844H35.2891Z" fill="#01D8CD"/>
<path d="M35.3413 1.14844L30.8923 15.3914L30.8438 15.4059L35.2976 1.14844H35.3413Z" fill="#01D8CD"/>
<path d="M35.399 1.14844L30.9524 15.3768L30.9062 15.3914L35.3552 1.14844H35.399Z" fill="#01D8CD"/>
<path d="M35.4488 1.14844L31.0095 15.3598L30.9609 15.3768L35.4075 1.14844H35.4488Z" fill="#01D8CD"/>
<path d="M35.5142 1.14844L31.0798 15.3452L31.0312 15.3598L35.4705 1.14844H35.5142Z" fill="#00D8CD"/>
<path d="M35.5641 1.14844L31.1321 15.3282L31.0859 15.3452L35.5204 1.14844H35.5641Z" fill="#00D8CD"/>
<path d="M35.6139 1.14844L31.1892 15.3137L31.1406 15.3282L35.5726 1.14844H35.6139Z" fill="#00D8CD"/>
<path d="M35.6715 1.14844L31.2517 15.2967L31.2031 15.3137L35.6278 1.14844H35.6715Z" fill="#00D8CD"/>
<path d="M35.7292 1.14844L31.3118 15.2821L31.2656 15.2967L35.6855 1.14844H35.7292Z" fill="#00D8CD"/>
<path d="M35.7868 1.14844L31.3767 15.2675L31.3281 15.2821L35.7455 1.14844H35.7868Z" fill="#00D8CD"/>
<path d="M35.8328 1.14844L31.4275 15.2505L31.3789 15.2675L35.789 1.14844H35.8328Z" fill="#00D8CD"/>
<path d="M35.8943 1.14844L31.4915 15.236L31.4453 15.2505L35.8506 1.14844H35.8943Z" fill="#00D8CD"/>
<path d="M35.9402 1.14844L31.5447 15.219L31.4961 15.236L35.8989 1.14844H35.9402Z" fill="#00D8CD"/>
<path d="M36.0018 1.14844L31.6111 15.2044L31.5625 15.219L35.9581 1.14844H36.0018Z" fill="#00D8CD"/>
<path d="M36.0264 13.7667L31.6211 15.2044L36.0118 1.14844H36.0264V13.7667Z" fill="#00D8CD"/>
</g>
<mask id="mask6_4497_17795" style="mask-type:luminance" maskUnits="userSpaceOnUse" x="3" y="1" width="28" height="14">
<path d="M17.0862 7.70755C9.69149 11.2701 3.56685 14.2304 3.55471 14.2061C3.54256 14.1818 9.65021 11.1827 17.045 7.6177C24.4397 4.05514 30.3846 1.15555 30.3944 1.17984C30.4041 1.20412 24.481 4.14256 17.0862 7.70512V7.70755Z" fill="white"/>
</mask>
<g mask="url(#mask6_4497_17795)">
<path d="M3.52734 1.49038L14.7397 1.15039H15.8131L3.59777 14.2252H3.52734V1.49038Z" fill="white"/>
<path d="M15.8908 1.15039L3.67547 14.2252H3.61719L15.8325 1.15039H15.8908Z" fill="white"/>
<path d="M15.9586 1.15039L3.74336 14.2252H3.6875L15.9028 1.15039H15.9586Z" fill="#FDFFFF"/>
<path d="M16.0236 1.15039L3.80828 14.2252H3.75L15.9653 1.15039H16.0236Z" fill="#FBFEFE"/>
<path d="M16.0993 1.15039L3.88398 14.2252H3.82812L16.0434 1.15039H16.0993Z" fill="#F9FEFE"/>
<path d="M16.172 1.15039L3.95672 14.2252H3.89844L16.1137 1.15039H16.172Z" fill="#F8FEFE"/>
<path d="M16.2477 1.15039L4.03242 14.2252H3.97656L16.1919 1.15039H16.2477Z" fill="#F6FEFD"/>
<path d="M16.3205 1.15039L4.10516 14.2252H4.04688L16.2622 1.15039H16.3205Z" fill="#F4FDFD"/>
<path d="M16.3908 1.15039L4.17547 14.2252H4.11719L16.3325 1.15039H16.3908Z" fill="#F2FDFC"/>
<path d="M16.4586 1.15039L4.24336 14.2252H4.1875L16.4028 1.15039H16.4586Z" fill="#F0FDFC"/>
<path d="M16.5236 1.15039L4.30828 14.2252H4.25L16.4653 1.15039H16.5236Z" fill="#EEFCFC"/>
<path d="M16.5993 1.15039L4.38398 14.2252H4.32812L16.5434 1.15039H16.5993Z" fill="#EDFCFB"/>
<path d="M16.6798 1.15039L4.46453 14.2252H4.40625L16.6215 1.15039H16.6798Z" fill="#EBFCFB"/>
<path d="M16.7477 1.15039L4.53242 14.2252H4.47656L16.6919 1.15039H16.7477Z" fill="#E9FCFB"/>
<path d="M16.8126 1.15039L4.59735 14.2252H4.53906L16.7544 1.15039H16.8126Z" fill="#E7FBFA"/>
<path d="M16.8883 1.15039L4.67304 14.2252H4.61719L16.8325 1.15039H16.8883Z" fill="#E5FBFA"/>
<path d="M16.9611 1.15039L4.74578 14.2252H4.6875L16.9028 1.15039H16.9611Z" fill="#E4FBFA"/>
<path d="M17.0314 1.15039L4.8161 14.2252H4.75781L16.9731 1.15039H17.0314Z" fill="#E2FBF9"/>
<path d="M17.0954 1.15039L4.88007 14.2252H4.82422L17.0395 1.15039H17.0954Z" fill="#E0FAF9"/>
<path d="M17.1798 1.15039L4.96453 14.2252H4.90625L17.1215 1.15039H17.1798Z" fill="#DEFAF9"/>
<path d="M17.2516 1.15039L5.03632 14.2252H4.98047L17.1958 1.15039H17.2516Z" fill="#DDFAF8"/>
<path d="M17.3126 1.15039L5.09735 14.2252H5.03906L17.2544 1.15039H17.3126Z" fill="#DBF9F8"/>
<path d="M17.3883 1.15039L5.17304 14.2252H5.11719L17.3325 1.15039H17.3883Z" fill="#D9F9F8"/>
<path d="M17.4611 1.15039L5.24578 14.2252H5.1875L17.4028 1.15039H17.4611Z" fill="#D7F9F7"/>
<path d="M17.5392 1.15039L5.32391 14.2252H5.26562L17.4809 1.15039H17.5392Z" fill="#D6F9F7"/>
<path d="M17.6071 1.15039L5.39179 14.2252H5.33594L17.5512 1.15039H17.6071Z" fill="#D4F8F7"/>
<path d="M17.6798 1.15039L5.46453 14.2252H5.40625L17.6215 1.15039H17.6798Z" fill="#D2F8F6"/>
<path d="M17.7477 1.15039L5.53242 14.2252H5.47656L17.6919 1.15039H17.7477Z" fill="#D0F8F6"/>
<path d="M17.8205 1.15039L5.60516 14.2252H5.54688L17.7622 1.15039H17.8205Z" fill="#CFF8F6"/>
<path d="M17.8883 1.15039L5.67304 14.2252H5.61719L17.8325 1.15039H17.8883Z" fill="#CDF7F5"/>
<path d="M17.9689 1.15039L5.7536 14.2252H5.69531L17.9106 1.15039H17.9689Z" fill="#CBF7F5"/>
<path d="M18.0368 1.15039L5.82148 14.2252H5.76562L17.9809 1.15039H18.0368Z" fill="#CAF7F5"/>
<path d="M18.1095 1.15039L5.89422 14.2252H5.83594L18.0512 1.15039H18.1095Z" fill="#C8F7F4"/>
<path d="M18.172 1.15039L5.95672 14.2252H5.89844L18.1137 1.15039H18.172Z" fill="#C6F6F4"/>
<path d="M18.2477 1.15039L6.03242 14.2252H5.97656L18.1919 1.15039H18.2477Z" fill="#C5F6F4"/>
<path d="M18.3205 1.15039L6.10516 14.2252H6.04688L18.2622 1.15039H18.3205Z" fill="#C3F6F3"/>
<path d="M18.3961 1.15039L6.18086 14.2252H6.125L18.3403 1.15039H18.3961Z" fill="#C1F6F3"/>
<path d="M18.4689 1.15039L6.2536 14.2252H6.19531L18.4106 1.15039H18.4689Z" fill="#C0F5F3"/>
<path d="M18.5368 1.15039L6.32148 14.2252H6.26562L18.4809 1.15039H18.5368Z" fill="#BEF5F2"/>
<path d="M18.6095 1.15039L6.39422 14.2252H6.33594L18.5512 1.15039H18.6095Z" fill="#BCF5F2"/>
<path d="M18.6696 1.15039L6.45429 14.2252H6.39844L18.6137 1.15039H18.6696Z" fill="#BBF5F2"/>
<path d="M18.7501 1.15039L6.53485 14.2252H6.47656L18.6919 1.15039H18.7501Z" fill="#B9F4F1"/>
<path d="M18.8205 1.15039L6.60516 14.2252H6.54688L18.7622 1.15039H18.8205Z" fill="#B8F4F1"/>
<path d="M18.8922 1.15039L6.67695 14.2252H6.62109L18.8364 1.15039H18.8922Z" fill="#B6F4F1"/>
<path d="M18.9572 1.15039L6.74188 14.2252H6.68359L18.8989 1.15039H18.9572Z" fill="#B4F4F0"/>
<path d="M19.0368 1.15039L6.82148 14.2252H6.76562L18.9809 1.15039H19.0368Z" fill="#B3F3F0"/>
<path d="M19.1095 1.15039L6.89422 14.2252H6.83594L19.0512 1.15039H19.1095Z" fill="#B1F3F0"/>
<path d="M19.1774 1.15039L6.96211 14.2252H6.90625L19.1215 1.15039H19.1774Z" fill="#B0F3EF"/>
<path d="M19.2462 1.15039L7.03094 14.2252H6.97266L19.188 1.15039H19.2462Z" fill="#AEF3EF"/>
<path d="M19.3283 1.15039L7.11297 14.2252H7.05469L19.27 1.15039H19.3283Z" fill="#ACF2EF"/>
<path d="M19.3961 1.15039L7.18086 14.2252H7.125L19.3403 1.15039H19.3961Z" fill="#ABF2EF"/>
<path d="M19.4611 1.15039L7.24578 14.2252H7.1875L19.4028 1.15039H19.4611Z" fill="#A9F2EE"/>
<path d="M19.5368 1.15039L7.32148 14.2252H7.26562L19.4809 1.15039H19.5368Z" fill="#A8F2EE"/>
<path d="M19.6095 1.15039L7.39422 14.2252H7.33594L19.5512 1.15039H19.6095Z" fill="#A6F1EE"/>
<path d="M19.6852 1.15039L7.46992 14.2252H7.41406L19.6294 1.15039H19.6852Z" fill="#A5F1ED"/>
<path d="M19.7462 1.15039L7.53094 14.2252H7.47266L19.688 1.15039H19.7462Z" fill="#A3F1ED"/>
<path d="M19.8219 1.15039L7.60664 14.2252H7.55078L19.7661 1.15039H19.8219Z" fill="#A2F1ED"/>
<path d="M19.883 1.15039L7.66766 14.2252H7.60938L19.8247 1.15039H19.883Z" fill="#A0F0EC"/>
<path d="M19.9611 1.15039L7.74578 14.2252H7.6875L19.9028 1.15039H19.9611Z" fill="#9FF0EC"/>
<path d="M20.029 1.15039L7.81367 14.2252H7.75781L19.9731 1.15039H20.029Z" fill="#9DF0EC"/>
<path d="M20.1173 1.15039L7.90203 14.2252H7.84375L20.059 1.15039H20.1173Z" fill="#9CF0EC"/>
<path d="M20.1813 1.15039L7.96601 14.2252H7.91016L20.1255 1.15039H20.1813Z" fill="#9AF0EB"/>
<path d="M20.2423 1.15039L8.02703 14.2252H7.96875L20.184 1.15039H20.2423Z" fill="#99EFEB"/>
<path d="M20.318 1.15039L8.10273 14.2252H8.04688L20.2622 1.15039H20.318Z" fill="#97EFEB"/>
<path d="M20.3986 1.15039L8.18328 14.2252H8.125L20.3403 1.15039H20.3986Z" fill="#96EFEA"/>
<path d="M20.4665 1.15039L8.25117 14.2252H8.19531L20.4106 1.15039H20.4665Z" fill="#94EFEA"/>
<path d="M20.5314 1.15039L8.3161 14.2252H8.25781L20.4731 1.15039H20.5314Z" fill="#93EEEA"/>
<path d="M20.6134 1.15039L8.39813 14.2252H8.33984L20.5551 1.15039H20.6134Z" fill="#91EEEA"/>
<path d="M20.6813 1.15039L8.46601 14.2252H8.41016L20.6254 1.15039H20.6813Z" fill="#90EEE9"/>
<path d="M20.754 1.15039L8.53875 14.2252H8.48047L20.6958 1.15039H20.754Z" fill="#8FEEE9"/>
<path d="M20.818 1.15039L8.60273 14.2252H8.54688L20.7622 1.15039H20.818Z" fill="#8DEEE9"/>
<path d="M20.8986 1.15039L8.68328 14.2252H8.625L20.8403 1.15039H20.8986Z" fill="#8CEDE8"/>
<path d="M20.9665 1.15039L8.75117 14.2252H8.69531L20.9106 1.15039H20.9665Z" fill="#8AEDE8"/>
<path d="M21.0353 1.15039L8.82 14.2252H8.76172L20.977 1.15039H21.0353Z" fill="#89EDE8"/>
<path d="M21.1056 1.15039L8.89031 14.2252H8.83203L21.0473 1.15039H21.1056Z" fill="#87EDE8"/>
<path d="M21.1813 1.15039L8.96601 14.2252H8.91016L21.1255 1.15039H21.1813Z" fill="#86ECE7"/>
<path d="M21.258 1.15039L9.04266 14.2252H8.98438L21.1997 1.15039H21.258Z" fill="#85ECE7"/>
<path d="M21.3258 1.15039L9.11054 14.2252H9.05469L21.27 1.15039H21.3258Z" fill="#83ECE7"/>
<path d="M21.3908 1.15039L9.17547 14.2252H9.11719L21.3325 1.15039H21.3908Z" fill="#82ECE6"/>
<path d="M21.4704 1.15039L9.25507 14.2252H9.19922L21.4145 1.15039H21.4704Z" fill="#81ECE6"/>
<path d="M21.5353 1.15039L9.32 14.2252H9.26172L21.477 1.15039H21.5353Z" fill="#7FEBE6"/>
<path d="M21.5993 1.15039L9.38398 14.2252H9.32812L21.5434 1.15039H21.5993Z" fill="#7EEBE6"/>
<path d="M21.6876 1.15039L9.47235 14.2252H9.41406L21.6294 1.15039H21.6876Z" fill="#7CEBE5"/>
<path d="M21.758 1.15039L9.54266 14.2252H9.48438L21.6997 1.15039H21.758Z" fill="#7BEBE5"/>
<path d="M21.8258 1.15039L9.61054 14.2252H9.55469L21.77 1.15039H21.8258Z" fill="#7AEBE5"/>
<path d="M21.8908 1.15039L9.67547 14.2252H9.61719L21.8325 1.15039H21.8908Z" fill="#78EAE5"/>
<path d="M21.9704 1.15039L9.75507 14.2252H9.69922L21.9145 1.15039H21.9704Z" fill="#77EAE4"/>
<path d="M22.0314 1.15039L9.8161 14.2252H9.75781L21.9731 1.15039H22.0314Z" fill="#76EAE4"/>
<path d="M22.1071 1.15039L9.89179 14.2252H9.83594L22.0512 1.15039H22.1071Z" fill="#75EAE4"/>
<path d="M22.1798 1.15039L9.96453 14.2252H9.90625L22.1215 1.15039H22.1798Z" fill="#73EAE4"/>
<path d="M22.2555 1.15039L10.0402 14.2252H9.98438L22.1997 1.15039H22.2555Z" fill="#72E9E3"/>
<path d="M22.3244 1.15039L10.1091 14.2252H10.0508L22.2661 1.15039H22.3244Z" fill="#71E9E3"/>
<path d="M22.3908 1.15039L10.1755 14.2252H10.1172L22.3325 1.15039H22.3908Z" fill="#6FE9E3"/>
<path d="M22.4586 1.15039L10.2434 14.2252H10.1875L22.4028 1.15039H22.4586Z" fill="#6EE9E3"/>
<path d="M22.547 1.15039L10.3317 14.2252H10.2734L22.4887 1.15039H22.547Z" fill="#6DE9E2"/>
<path d="M22.6071 1.15039L10.3918 14.2252H10.3359L22.5512 1.15039H22.6071Z" fill="#6CE8E2"/>
<path d="M22.6798 1.15039L10.4645 14.2252H10.4062L22.6215 1.15039H22.6798Z" fill="#6AE8E2"/>
<path d="M22.7594 1.15039L10.5441 14.2252H10.4883L22.7036 1.15039H22.7594Z" fill="#69E8E2"/>
<path d="M22.8205 1.15039L10.6052 14.2252H10.5469L22.7622 1.15039H22.8205Z" fill="#68E8E1"/>
<path d="M22.8908 1.15039L10.6755 14.2252H10.6172L22.8325 1.15039H22.8908Z" fill="#67E8E1"/>
<path d="M22.9665 1.15039L10.7512 14.2252H10.6953L22.9106 1.15039H22.9665Z" fill="#65E8E1"/>
<path d="M23.047 1.15039L10.8317 14.2252H10.7734L22.9887 1.15039H23.047Z" fill="#64E7E1"/>
<path d="M23.1149 1.15039L10.8996 14.2252H10.8438L23.059 1.15039H23.1149Z" fill="#63E7E0"/>
<path d="M23.1759 1.15039L10.9606 14.2252H10.9023L23.1176 1.15039H23.1759Z" fill="#62E7E0"/>
<path d="M23.2477 1.15039L11.0324 14.2252H10.9766L23.1919 1.15039H23.2477Z" fill="#61E7E0"/>
<path d="M23.3322 1.15039L11.1169 14.2252H11.0586L23.2739 1.15039H23.3322Z" fill="#5FE7E0"/>
<path d="M23.404 1.15039L11.1887 14.2252H11.1328L23.3481 1.15039H23.404Z" fill="#5EE6DF"/>
<path d="M23.4689 1.15039L11.2536 14.2252H11.1953L23.4106 1.15039H23.4689Z" fill="#5DE6DF"/>
<path d="M23.5392 1.15039L11.3239 14.2252H11.2656L23.4809 1.15039H23.5392Z" fill="#5CE6DF"/>
<path d="M23.6149 1.15039L11.3996 14.2252H11.3438L23.559 1.15039H23.6149Z" fill="#5BE6DF"/>
<path d="M23.6798 1.15039L11.4645 14.2252H11.4062L23.6215 1.15039H23.6798Z" fill="#5AE6DF"/>
<path d="M23.7477 1.15039L11.5324 14.2252H11.4766L23.6919 1.15039H23.7477Z" fill="#58E6DE"/>
<path d="M23.8361 1.15039L11.6208 14.2252H11.5625L23.7778 1.15039H23.8361Z" fill="#57E5DE"/>
<path d="M23.904 1.15039L11.6887 14.2252H11.6328L23.8481 1.15039H23.904Z" fill="#56E5DE"/>
<path d="M23.9689 1.15039L11.7536 14.2252H11.6953L23.9106 1.15039H23.9689Z" fill="#55E5DE"/>
<path d="M24.0329 1.15039L11.8176 14.2252H11.7617L23.977 1.15039H24.0329Z" fill="#54E5DD"/>
<path d="M24.1173 1.15039L11.902 14.2252H11.8438L24.059 1.15039H24.1173Z" fill="#53E5DD"/>
<path d="M24.1798 1.15039L11.9645 14.2252H11.9062L24.1215 1.15039H24.1798Z" fill="#52E4DD"/>
<path d="M24.2555 1.15039L12.0402 14.2252H11.9844L24.1997 1.15039H24.2555Z" fill="#51E4DD"/>
<path d="M24.3283 1.15039L12.113 14.2252H12.0547L24.27 1.15039H24.3283Z" fill="#4FE4DD"/>
<path d="M24.404 1.15039L12.1887 14.2252H12.1328L24.3481 1.15039H24.404Z" fill="#4EE4DC"/>
<path d="M24.465 1.15039L12.2497 14.2252H12.1914L24.4067 1.15039H24.465Z" fill="#4DE4DC"/>
<path d="M24.5368 1.15039L12.3215 14.2252H12.2656L24.4809 1.15039H24.5368Z" fill="#4CE4DC"/>
<path d="M24.6095 1.15039L12.3942 14.2252H12.3359L24.5512 1.15039H24.6095Z" fill="#4BE3DC"/>
<path d="M24.6955 1.15039L12.4802 14.2252H12.4219L24.6372 1.15039H24.6955Z" fill="#4AE3DC"/>
<path d="M24.7555 1.15039L12.5402 14.2252H12.4844L24.6997 1.15039H24.7555Z" fill="#49E3DB"/>
<path d="M24.8283 1.15039L12.613 14.2252H12.5547L24.77 1.15039H24.8283Z" fill="#48E3DB"/>
<path d="M24.904 1.15039L12.6887 14.2252H12.6328L24.8481 1.15039H24.904Z" fill="#47E3DB"/>
<path d="M24.9689 1.15039L12.7536 14.2252H12.6953L24.9106 1.15039H24.9689Z" fill="#46E3DB"/>
<path d="M25.0368 1.15039L12.8215 14.2252H12.7656L24.9809 1.15039H25.0368Z" fill="#45E3DB"/>
<path d="M25.1095 1.15039L12.8942 14.2252H12.8359L25.0512 1.15039H25.1095Z" fill="#44E2DA"/>
<path d="M25.193 1.15039L12.9777 14.2252H12.9219L25.1372 1.15039H25.193Z" fill="#43E2DA"/>
<path d="M25.258 1.15039L13.0427 14.2252H12.9844L25.1997 1.15039H25.258Z" fill="#42E2DA"/>
<path d="M25.3283 1.15039L13.113 14.2252H13.0547L25.27 1.15039H25.3283Z" fill="#41E2DA"/>
<path d="M25.3962 1.15039L13.1809 14.2252H13.125L25.3403 1.15039H25.3962Z" fill="#40E2DA"/>
<path d="M25.4689 1.15039L13.2536 14.2252H13.1953L25.4106 1.15039H25.4689Z" fill="#3FE2D9"/>
<path d="M25.5368 1.15039L13.3215 14.2252H13.2656L25.4809 1.15039H25.5368Z" fill="#3EE1D9"/>
<path d="M25.6173 1.15039L13.402 14.2252H13.3438L25.559 1.15039H25.6173Z" fill="#3DE1D9"/>
<path d="M25.6852 1.15039L13.4699 14.2252H13.4141L25.6294 1.15039H25.6852Z" fill="#3CE1D9"/>
<path d="M25.758 1.15039L13.5427 14.2252H13.4844L25.6997 1.15039H25.758Z" fill="#3BE1D9"/>
<path d="M25.8258 1.15039L13.6105 14.2252H13.5547L25.77 1.15039H25.8258Z" fill="#3AE1D8"/>
<path d="M25.8986 1.15039L13.6833 14.2252H13.625L25.8403 1.15039H25.8986Z" fill="#39E1D8"/>
<path d="M25.9767 1.15039L13.7614 14.2252H13.7031L25.9184 1.15039H25.9767Z" fill="#38E1D8"/>
<path d="M26.0524 1.15039L13.8371 14.2252H13.7812L25.9965 1.15039H26.0524Z" fill="#37E0D8"/>
<path d="M26.1134 1.15039L13.8981 14.2252H13.8398L26.0551 1.15039H26.1134Z" fill="#36E0D8"/>
<path d="M26.1852 1.15039L13.9699 14.2252H13.9141L26.1294 1.15039H26.1852Z" fill="#35E0D7"/>
<path d="M26.2658 1.15039L14.0505 14.2252H13.9922L26.2075 1.15039H26.2658Z" fill="#35E0D7"/>
<path d="M26.3258 1.15039L14.1105 14.2252H14.0547L26.27 1.15039H26.3258Z" fill="#34E0D7"/>
<path d="M26.3986 1.15039L14.1833 14.2252H14.125L26.3403 1.15039H26.3986Z" fill="#33E0D7"/>
<path d="M26.4728 1.15039L14.2575 14.2252H14.1992L26.4145 1.15039H26.4728Z" fill="#32E0D7"/>
<path d="M26.5524 1.15039L14.3371 14.2252H14.2812L26.4965 1.15039H26.5524Z" fill="#31DFD7"/>
<path d="M26.6134 1.15039L14.3981 14.2252H14.3398L26.5551 1.15039H26.6134Z" fill="#30DFD6"/>
<path d="M26.6852 1.15039L14.4699 14.2252H14.4141L26.6294 1.15039H26.6852Z" fill="#2FDFD6"/>
<path d="M26.758 1.15039L14.5427 14.2252H14.4844L26.6997 1.15039H26.758Z" fill="#2EDFD6"/>
<path d="M26.8336 1.15039L14.6184 14.2252H14.5625L26.7778 1.15039H26.8336Z" fill="#2EDFD6"/>
<path d="M26.9025 1.15039L14.6872 14.2252H14.6289L26.8442 1.15039H26.9025Z" fill="#2DDFD6"/>
<path d="M26.9704 1.15039L14.7551 14.2252H14.6992L26.9145 1.15039H26.9704Z" fill="#2CDFD6"/>
<path d="M27.0431 1.15039L14.8278 14.2252H14.7695L26.9848 1.15039H27.0431Z" fill="#2BDFD5"/>
<path d="M27.1173 1.15039L14.902 14.2252H14.8438L27.059 1.15039H27.1173Z" fill="#2ADED5"/>
<path d="M27.1852 1.15039L14.9699 14.2252H14.9141L27.1294 1.15039H27.1852Z" fill="#29DED5"/>
<path d="M27.258 1.15039L15.0427 14.2252H14.9844L27.1997 1.15039H27.258Z" fill="#29DED5"/>
<path d="M27.3415 1.15039L15.1262 14.2252H15.0703L27.2856 1.15039H27.3415Z" fill="#28DED5"/>
<path d="M27.4025 1.15039L15.1872 14.2252H15.1289L27.3442 1.15039H27.4025Z" fill="#27DED5"/>
<path d="M27.4704 1.15039L15.2551 14.2252H15.1992L27.4145 1.15039H27.4704Z" fill="#26DED5"/>
<path d="M27.547 1.15039L15.3317 14.2252H15.2734L27.4887 1.15039H27.547Z" fill="#25DED4"/>
<path d="M27.6149 1.15039L15.3996 14.2252H15.3438L27.559 1.15039H27.6149Z" fill="#25DED4"/>
<path d="M27.6876 1.15039L15.4723 14.2252H15.4141L27.6294 1.15039H27.6876Z" fill="#24DED4"/>
<path d="M27.7619 1.15039L15.5466 14.2252H15.4883L27.7036 1.15039H27.7619Z" fill="#23DDD4"/>
<path d="M27.8258 1.15039L15.6105 14.2252H15.5547L27.77 1.15039H27.8258Z" fill="#22DDD4"/>
<path d="M27.9025 1.15039L15.6872 14.2252H15.6289L27.8442 1.15039H27.9025Z" fill="#22DDD4"/>
<path d="M27.9743 1.15039L15.759 14.2252H15.7031L27.9184 1.15039H27.9743Z" fill="#21DDD3"/>
<path d="M28.047 1.15039L15.8317 14.2252H15.7734L27.9887 1.15039H28.047Z" fill="#20DDD3"/>
<path d="M28.1149 1.15039L15.8996 14.2252H15.8438L28.059 1.15039H28.1149Z" fill="#20DDD3"/>
<path d="M28.1915 1.15039L15.9763 14.2252H15.918L28.1333 1.15039H28.1915Z" fill="#1FDDD3"/>
<path d="M28.2619 1.15039L16.0466 14.2252H15.9883L28.2036 1.15039H28.2619Z" fill="#1EDDD3"/>
<path d="M28.3297 1.15039L16.1144 14.2252H16.0586L28.2739 1.15039H28.3297Z" fill="#1DDDD3"/>
<path d="M28.4142 1.15039L16.1989 14.2252H16.1406L28.3559 1.15039H28.4142Z" fill="#1DDCD3"/>
<path d="M28.4743 1.15039L16.259 14.2252H16.2031L28.4184 1.15039H28.4743Z" fill="#1CDCD3"/>
<path d="M28.547 1.15039L16.3317 14.2252H16.2734L28.4887 1.15039H28.547Z" fill="#1BDCD2"/>
<path d="M28.6188 1.15039L16.4035 14.2252H16.3477L28.563 1.15039H28.6188Z" fill="#1BDCD2"/>
<path d="M28.6876 1.15039L16.4723 14.2252H16.4141L28.6294 1.15039H28.6876Z" fill="#1ADCD2"/>
<path d="M28.7555 1.15039L16.5402 14.2252H16.4844L28.6997 1.15039H28.7555Z" fill="#19DCD2"/>
<path d="M28.8361 1.15039L16.6208 14.2252H16.5625L28.7778 1.15039H28.8361Z" fill="#19DCD2"/>
<path d="M28.9064 1.15039L16.6911 14.2252H16.6328L28.8481 1.15039H28.9064Z" fill="#18DCD2"/>
<path d="M28.9743 1.15039L16.759 14.2252H16.7031L28.9184 1.15039H28.9743Z" fill="#18DCD2"/>
<path d="M29.0509 1.15039L16.8356 14.2252H16.7773L28.9926 1.15039H29.0509Z" fill="#17DCD2"/>
<path d="M29.1149 1.15039L16.8996 14.2252H16.8438L29.059 1.15039H29.1149Z" fill="#16DBD1"/>
<path d="M29.1876 1.15039L16.9723 14.2252H16.9141L29.1294 1.15039H29.1876Z" fill="#16DBD1"/>
<path d="M29.2555 1.15039L17.0402 14.2252H16.9844L29.1997 1.15039H29.2555Z" fill="#15DBD1"/>
<path d="M29.3361 1.15039L17.1208 14.2252H17.0625L29.2778 1.15039H29.3361Z" fill="#15DBD1"/>
<path d="M29.404 1.15039L17.1887 14.2252H17.1328L29.3481 1.15039H29.404Z" fill="#14DBD1"/>
<path d="M29.4806 1.15039L17.2653 14.2252H17.207L29.4223 1.15039H29.4806Z" fill="#13DBD1"/>
<path d="M29.5509 1.15039L17.3356 14.2252H17.2773L29.4926 1.15039H29.5509Z" fill="#13DBD1"/>
<path d="M29.6149 1.15039L17.3996 14.2252H17.3438L29.559 1.15039H29.6149Z" fill="#12DBD1"/>
<path d="M29.6876 1.15039L17.4723 14.2252H17.4141L29.6294 1.15039H29.6876Z" fill="#12DBD0"/>
<path d="M29.7633 1.15039L17.548 14.2252H17.4922L29.7075 1.15039H29.7633Z" fill="#11DBD0"/>
<path d="M29.8361 1.15039L17.6208 14.2252H17.5625L29.7778 1.15039H29.8361Z" fill="#11DBD0"/>
<path d="M29.904 1.15039L17.6887 14.2252H17.6328L29.8481 1.15039H29.904Z" fill="#10DAD0"/>
<path d="M29.9806 1.15039L17.7653 14.2252H17.707L29.9223 1.15039H29.9806Z" fill="#10DAD0"/>
<path d="M30.047 1.15039L17.8317 14.2252H17.7734L29.9887 1.15039H30.047Z" fill="#0FDAD0"/>
<path d="M30.1149 1.15039L17.8996 14.2252H17.8438L30.059 1.15039H30.1149Z" fill="#0FDAD0"/>
<path d="M30.1837 1.15039L17.9684 14.2252H17.9102L30.1254 1.15039H30.1837Z" fill="#0EDAD0"/>
<path d="M30.2633 1.15039L18.048 14.2252H17.9922L30.2075 1.15039H30.2633Z" fill="#0EDAD0"/>
<path d="M30.3361 1.15039L18.1208 14.2252H18.0625L30.2778 1.15039H30.3361Z" fill="#0DDAD0"/>
<path d="M30.404 1.15039L18.1887 14.2252H18.1328L30.3481 1.15039H30.404Z" fill="#0DDACF"/>
<path d="M30.4767 1.15039L18.2614 14.2252H18.2031L30.4184 1.15039H30.4767Z" fill="#0CDACF"/>
<path d="M30.5446 1.15039L18.3293 14.2252H18.2734L30.4887 1.15039H30.5446Z" fill="#0CDACF"/>
<path d="M30.6251 1.15039L18.4098 14.2252H18.3516L30.5669 1.15039H30.6251Z" fill="#0BDACF"/>
<path d="M30.6955 1.15039L18.4802 14.2252H18.4219L30.6372 1.15039H30.6955Z" fill="#0BDACF"/>
<path d="M30.7633 1.15039L18.548 14.2252H18.4922L30.7075 1.15039H30.7633Z" fill="#0ADACF"/>
<path d="M30.8361 1.15039L18.6208 14.2252H18.5625L30.7778 1.15039H30.8361Z" fill="#0ADACF"/>
<path d="M30.904 1.15039L18.6887 14.2252H18.6328L30.8481 1.15039H30.904Z" fill="#0AD9CF"/>
<path d="M30.9767 1.15039L18.7614 14.2252H18.7031L30.9184 1.15039H30.9767Z" fill="#09D9CF"/>
<path d="M31.0524 1.15039L18.8371 14.2252H18.7812L30.9965 1.15039H31.0524Z" fill="#09D9CF"/>
<path d="M31.1212 1.15039L18.9059 14.2252H18.8477L31.0629 1.15039H31.1212Z" fill="#08D9CF"/>
<path d="M31.193 1.15039L18.9777 14.2252H18.9219L31.1372 1.15039H31.193Z" fill="#08D9CF"/>
<path d="M31.258 1.15039L19.0427 14.2252H18.9844L31.1997 1.15039H31.258Z" fill="#08D9CF"/>
<path d="M31.3361 1.15039L19.1208 14.2252H19.0625L31.2778 1.15039H31.3361Z" fill="#07D9CE"/>
<path d="M31.404 1.15039L19.1887 14.2252H19.1328L31.3481 1.15039H31.404Z" fill="#07D9CE"/>
<path d="M31.4845 1.15039L19.2692 14.2252H19.2109L31.4262 1.15039H31.4845Z" fill="#07D9CE"/>
<path d="M31.5524 1.15039L19.3371 14.2252H19.2812L31.4965 1.15039H31.5524Z" fill="#06D9CE"/>
<path d="M31.6251 1.15039L19.4098 14.2252H19.3516L31.5669 1.15039H31.6251Z" fill="#06D9CE"/>
<path d="M31.693 1.15039L19.4777 14.2252H19.4219L31.6372 1.15039H31.693Z" fill="#06D9CE"/>
<path d="M31.7658 1.15039L19.5505 14.2252H19.4922L31.7075 1.15039H31.7658Z" fill="#05D9CE"/>
<path d="M31.8336 1.15039L19.6208 14.2252H19.5625L31.7778 1.15039H31.8336Z" fill="#05D9CE"/>
<path d="M31.9118 1.15039L19.6965 14.2252H19.6406L31.8535 1.15039H31.9118Z" fill="#05D9CE"/>
<path d="M31.9845 1.15039L19.7692 14.2252H19.7109L31.9262 1.15039H31.9845Z" fill="#04D9CE"/>
<path d="M32.0524 1.15039L19.8371 14.2252H19.7812L31.9965 1.15039H32.0524Z" fill="#04D9CE"/>
<path d="M32.1251 1.15039L19.9098 14.2252H19.8516L32.0669 1.15039H32.1251Z" fill="#04D9CE"/>
<path d="M32.193 1.15039L19.9777 14.2252H19.9219L32.1372 1.15039H32.193Z" fill="#04D9CE"/>
<path d="M32.2658 1.15039L20.0505 14.2252H19.9922L32.2075 1.15039H32.2658Z" fill="#03D9CE"/>
<path d="M32.3297 1.15039L20.1144 14.2252H20.0586L32.2739 1.15039H32.3297Z" fill="#03D8CE"/>
<path d="M32.4142 1.15039L20.1989 14.2252H20.1406L32.3559 1.15039H32.4142Z" fill="#03D8CE"/>
<path d="M32.4806 1.15039L20.2653 14.2252H20.207L32.4223 1.15039H32.4806Z" fill="#03D8CE"/>
<path d="M32.5485 1.15039L20.3332 14.2252H20.2773L32.4926 1.15039H32.5485Z" fill="#02D8CD"/>
<path d="M32.6251 1.15039L20.4098 14.2252H20.3516L32.5669 1.15039H32.6251Z" fill="#02D8CD"/>
<path d="M32.693 1.15039L20.4777 14.2252H20.4219L32.6372 1.15039H32.693Z" fill="#02D8CD"/>
<path d="M32.7736 1.15039L20.5583 14.2252H20.5L32.7153 1.15039H32.7736Z" fill="#02D8CD"/>
<path d="M32.8415 1.15039L20.6262 14.2252H20.5703L32.7856 1.15039H32.8415Z" fill="#02D8CD"/>
<path d="M32.9142 1.15039L20.6989 14.2252H20.6406L32.8559 1.15039H32.9142Z" fill="#01D8CD"/>
<path d="M32.9782 1.15039L20.7629 14.2252H20.707L32.9223 1.15039H32.9782Z" fill="#01D8CD"/>
<path d="M33.047 1.15039L20.8317 14.2252H20.7734L32.9887 1.15039H33.047Z" fill="#01D8CD"/>
<path d="M33.1173 1.15039L20.902 14.2252H20.8438L33.059 1.15039H33.1173Z" fill="#01D8CD"/>
<path d="M33.2008 1.15039L20.9855 14.2252H20.9297L33.145 1.15039H33.2008Z" fill="#01D8CD"/>
<path d="M33.2736 1.15039L21.0583 14.2252H21L33.2153 1.15039H33.2736Z" fill="#01D8CD"/>
<path d="M33.3376 1.15039L21.1223 14.2252H21.0664L33.2817 1.15039H33.3376Z" fill="#01D8CD"/>
<path d="M33.4064 1.15039L21.1911 14.2252H21.1328L33.3481 1.15039H33.4064Z" fill="#00D8CD"/>
<path d="M33.4821 1.15039L21.2668 14.2252H21.2109L33.4262 1.15039H33.4821Z" fill="#00D8CD"/>
<path d="M33.5548 1.15039L21.3395 14.2252H21.2812L33.4965 1.15039H33.5548Z" fill="#00D8CD"/>
<path d="M33.6305 1.15039L21.4177 14.2252H21.3594L33.5747 1.15039H33.6305Z" fill="#00D8CD"/>
<path d="M33.7008 1.15039L21.4855 14.2252H21.4297L33.6426 1.15039H33.7008Z" fill="#00D8CD"/>
<path d="M33.7697 1.15039L21.5544 14.2252H21.4961L33.7114 1.15039H33.7697Z" fill="#00D8CD"/>
<path d="M33.8376 1.15039L21.6223 14.2252H21.5664L33.7817 1.15039H33.8376Z" fill="#00D8CD"/>
<path d="M33.9064 1.15039L21.6911 14.2252H21.6328L33.8481 1.15039H33.9064Z" fill="#00D8CD"/>
<path d="M33.9821 1.15039L21.7668 14.2252H21.7109L33.9262 1.15039H33.9821Z" fill="#00D8CD"/>
<path d="M34.0427 1.16253L21.8395 14.2252H21.7812L33.9965 1.15039H34.0427V1.16253Z" fill="#00D8CD"/>
<path d="M34.0625 13.8887L22.8502 14.2287H21.8594L34.0625 1.16602V13.8887Z" fill="#00D8CD"/>
</g>
<path d="M57.542 24.5553C57.0929 24.5553 56.6792 24.3042 56.4753 23.9024L55.5771 22.1473L52.8943 16.8881C52.785 16.6724 52.4777 16.6724 52.3684 16.8881L49.6855 22.1473L48.7873 23.9024C48.5835 24.3042 48.1698 24.5553 47.7207 24.5553C46.8225 24.5553 46.2434 23.6069 46.6541 22.8092L46.9909 22.1473L52.3684 11.5934C52.4777 11.3777 52.785 11.3777 52.8943 11.5934L58.2718 22.1473L58.6086 22.8092C59.0163 23.6069 58.4372 24.5553 57.542 24.5553Z" fill="white"/>
<path d="M80.2409 12.3706V24.0561C80.2409 24.3013 79.9602 24.4402 79.7652 24.2895L77.8328 22.8063L69.1668 16.1259V23.4534C69.1668 24.1181 68.6291 24.6559 67.9643 24.6559C67.2995 24.6559 66.7617 24.1181 66.7617 23.4534V11.8151C66.7617 11.5698 67.0424 11.431 67.2374 11.5817L69.1698 13.0649L77.8358 19.7453V12.3706C77.8358 11.7028 78.3794 11.1621 79.0501 11.168C79.712 11.1739 80.2438 11.7117 80.2438 12.3706H80.2409Z" fill="white"/>
<path d="M101.26 17.9192C101.26 21.6361 98.2378 24.6587 94.5208 24.6587C90.8039 24.6587 87.7812 21.6361 87.7812 17.9192C87.7812 14.2023 90.8039 11.1797 94.5208 11.1797C98.2378 11.1797 101.26 14.2023 101.26 17.9192ZM98.8523 17.9192C98.8523 15.5318 96.9082 13.5877 94.5208 13.5877C92.1335 13.5877 90.1893 15.5318 90.1893 17.9192C90.1893 20.3065 92.1335 22.2507 94.5208 22.2507C96.9082 22.2507 98.8523 20.3065 98.8523 17.9192Z" fill="white"/>
<path d="M124.487 12.5549C124.487 13.2394 123.929 13.7974 123.244 13.7974H118.786V23.976C118.786 24.6605 118.228 25.2184 117.544 25.2184C116.86 25.2184 116.302 24.6605 116.302 23.976V13.7974H111.844C111.159 13.7974 110.602 13.2394 110.602 12.5549C110.602 11.8704 111.159 11.3125 111.844 11.3125H123.244C123.929 11.3125 124.487 11.8704 124.487 12.5549Z" fill="white"/>
<path d="M141.672 22.757L142.019 23.4368C142.441 24.262 141.841 25.2371 140.918 25.2371C140.454 25.2371 140.027 24.9793 139.816 24.562L138.888 22.7523L137.557 20.1502L137.496 20.033C137.06 19.3203 136.286 18.8421 135.391 18.8421H132.906V23.9994C132.906 24.6839 132.353 25.2371 131.669 25.2371H131.659C130.975 25.2371 130.422 24.6839 130.422 23.9994V11.3359H139.202C140.233 11.3359 141.166 11.7532 141.841 12.4283C142.516 13.1035 142.933 14.0365 142.933 15.0679C142.933 16.5776 142.038 17.8904 140.749 18.4858C140.411 18.6452 140.055 18.7437 139.675 18.7859L141.663 22.757H141.672ZM139.211 16.3619C139.389 16.3619 139.568 16.3244 139.727 16.2447C140.182 16.0478 140.482 15.5883 140.482 15.0914C140.482 14.6366 140.243 14.3178 140.107 14.1771C139.947 14.0177 139.652 13.8208 139.211 13.8208H132.916V16.3854L139.211 16.3666V16.3619Z" fill="white"/>
<path d="M159.969 25.2808H159.927C159.467 25.2808 159.05 25.023 158.844 24.6151L157.911 22.796L155.145 17.3714C155.033 17.1511 154.714 17.1511 154.601 17.3714L151.836 22.796L150.903 24.6151C150.697 25.023 150.275 25.2808 149.82 25.2808H149.778C148.868 25.2808 148.278 24.3197 148.695 23.5039L149.056 22.796L154.601 11.9094C154.714 11.6891 155.033 11.6891 155.145 11.9094L160.691 22.796L161.052 23.5039C161.469 24.315 160.878 25.2808 159.969 25.2808Z" fill="white"/>
<path d="M173.738 11.3078C177.572 11.3078 180.69 14.4069 180.69 18.2373C180.69 19.9439 180.076 21.5145 179.04 22.7242C178.922 22.8648 178.782 23.0008 178.641 23.1414C177.39 24.412 175.664 25.1856 173.757 25.1856H169.242C167.897 25.1856 166.805 24.0932 166.805 22.7476V13.727C166.805 12.3815 167.897 11.2891 169.242 11.2891H173.757L173.738 11.3078ZM178.2 18.031C178.079 15.6306 176.011 13.788 173.607 13.788H169.88C169.542 13.788 169.27 14.0599 169.27 14.3975V22.1147C169.27 22.4522 169.542 22.7242 169.88 22.7242H173.738C176.274 22.7242 178.327 20.5909 178.2 18.0263V18.031Z" fill="white"/>
<path d="M189.153 15.0445V16.3338H196.85C197.535 16.3338 198.093 16.8917 198.093 17.5763C198.093 18.2608 197.535 18.8187 196.85 18.8187H189.153V21.4395C189.153 22.1381 189.725 22.7101 190.424 22.7101H199.33C200.015 22.7101 200.572 23.268 200.572 23.9525C200.572 24.637 200.015 25.195 199.33 25.195H190.424C188.361 25.195 186.688 23.5212 186.688 21.4583V15.0445C186.688 12.9816 188.375 11.2891 190.442 11.2891H199.33C200.015 11.2891 200.572 11.847 200.572 12.5315C200.572 13.216 200.015 13.7739 199.33 13.7739H190.424C189.725 13.7739 189.153 14.3459 189.153 15.0445Z" fill="white"/>
<path d="M105.805 25.4531C105.805 24.3982 106.658 23.5449 107.713 23.5449C108.767 23.5449 109.62 24.3982 109.62 25.4531C109.62 26.508 108.767 27.3613 107.713 27.3613C106.658 27.3613 105.805 26.508 105.805 25.4531Z" fill="white"/>
</svg>
