<svg width="188" height="53" viewBox="0 0 188 53" fill="none" xmlns="http://www.w3.org/2000/svg">
<g clip-path="url(#clip0_638_4566)">
<path d="M16.7695 21.9521L16.8914 22.0966L23.7386 30.1477L23.9773 30.4279L24.2161 30.1477L31.0645 22.0966L31.1864 21.9521L31.116 21.7775L24.2689 4.61359L23.9773 3.88477L23.687 4.61359L16.8387 21.7775L16.7695 21.9521Z" fill="url(#paint0_linear_638_4566)"/>
<path d="M43.5869 21.6406L29.2203 12.8721L34.387 21.7587L23.9768 34.9028L13.5667 21.7587L18.7334 12.8721L4.36806 21.6406L4.04883 21.8278L4.28511 22.1118L23.7368 45.4356L23.9768 45.7233L24.2181 45.4356L43.6686 22.1118L43.9061 21.8278L43.5869 21.6406Z" fill="url(#paint1_linear_638_4566)"/>
<path d="M13.1753 21.5938L4.52344 21.732L23.9739 45.0557V35.2279L13.1753 21.5938Z" fill="url(#paint2_linear_638_4566)"/>
<path d="M18.087 13.4277L4.52344 21.7326L13.1753 21.5944L18.087 13.4277Z" fill="url(#paint3_linear_638_4566)"/>
<path d="M29.8633 13.4277L34.7749 21.5944L43.428 21.7326L29.8633 13.4277Z" fill="url(#paint4_linear_638_4566)"/>
<path d="M34.7751 21.5938L23.9766 35.2279V45.0557L43.4282 21.732L34.7751 21.5938Z" fill="url(#paint5_linear_638_4566)"/>
<path d="M23.9739 4.55176L17.127 21.7157L23.9739 29.7668V4.55176Z" fill="url(#paint6_linear_638_4566)"/>
<path d="M23.9766 4.55176L30.8247 21.7157L23.9766 29.7668V4.55176Z" fill="url(#paint7_linear_638_4566)"/>
<path d="M13.1753 21.594L4.52344 21.7322L23.9739 45.056V35.2281L13.1753 21.594Z" fill="url(#paint8_linear_638_4566)"/>
<path d="M18.087 13.4275L4.52344 21.7322L13.1753 21.594L18.087 13.4275Z" fill="url(#paint9_linear_638_4566)"/>
<path d="M29.8613 13.4275L34.7729 21.5941L43.4261 21.7324L29.8613 13.4275Z" fill="url(#paint10_linear_638_4566)"/>
<path d="M34.7751 21.594L23.9766 35.2281V45.056L43.4282 21.7322L34.7751 21.594Z" fill="url(#paint11_linear_638_4566)"/>
<path d="M23.9739 4.55176L17.127 21.7157L23.9739 29.7668V4.55176Z" fill="url(#paint12_linear_638_4566)"/>
<path d="M23.9766 4.55176L30.8247 21.7157L23.9766 29.7668V4.55176Z" fill="url(#paint13_linear_638_4566)"/>
<g style="mix-blend-mode:color-dodge" opacity="0.5">
<ellipse cx="24" cy="17.5" rx="1" ry="12.5" fill="url(#paint14_radial_638_4566)"/>
</g>
<g style="mix-blend-mode:color-dodge" opacity="0.4">
<ellipse cx="24" cy="40" rx="1" ry="5" fill="url(#paint15_radial_638_4566)"/>
</g>
<g style="mix-blend-mode:color-dodge" opacity="0.6">
<ellipse cx="8.80078" cy="21.7324" rx="1" ry="4.5" transform="rotate(-90 8.80078 21.7324)" fill="url(#paint16_radial_638_4566)"/>
</g>
<g style="mix-blend-mode:color-dodge" opacity="0.6">
<ellipse cx="38.5" cy="21.7324" rx="1" ry="4.5" transform="rotate(-90 38.5 21.7324)" fill="url(#paint17_radial_638_4566)"/>
</g>
</g>
<path d="M81.0258 14.1781L81.2089 13.7959H80.7862H74.9208H74.7404L74.6731 13.9601L70.1347 24.8593L70.132 24.8646L68.7323 28.3775L67.3325 24.8646L67.3299 24.8566L62.6192 13.9574L62.5519 13.7959H62.3742H56.4226H56L56.183 14.1781L68.0432 39.0505L68.1159 39.2013H68.2828H68.9692H69.1361L69.2087 39.0505L81.0258 14.1781Z" fill="white"/>
<path d="M83.3888 13.8574H83.1196V14.1239V38.8725V39.1389H83.3888H88.8693H89.1358V38.8725V14.1239V13.8574H88.8693H83.3888Z" fill="white"/>
<path d="M114.641 14.0893V13.8228H114.375H109.107H108.84V14.0893V25.5214V25.5322V25.5402L109.007 28.1809L108.019 27.115L108.009 27.1069L93.9223 13.4728L93.8469 13.3975H93.7366H93.2655H92.999V13.6639V38.8378V39.1043H93.2655H98.5334H98.7999V38.8378V27.831V27.8229V27.8148L98.633 25.1122L99.4513 25.9898L99.4567 25.9952L99.4621 26.0005L113.761 39.5269L113.839 39.6023H113.947H114.375H114.641V39.3331V14.0893Z" fill="white"/>
<path d="M138.686 34.859V34.5925H138.419H127.598V27.8145H138.419H138.686V27.5453V23.7821V23.5157H138.419H127.598V18.2612H138.554H138.82V17.9947V14.1239V13.8574H138.554H121.977H121.711V14.1239V38.8725V39.1389H121.977H138.419H138.686V38.8725V34.859Z" fill="white"/>
<path d="M157.79 39.0017L157.868 39.1389H158.024H164.617H165.109L164.843 38.7271L156.929 26.5655L164.63 14.2666L164.886 13.8574H164.404H158.111H157.949L157.874 13.9974L153.012 23.0123L147.981 13.9947L147.906 13.8574H147.75H141.327H140.837L141.101 14.2693L148.738 26.1294L140.969 38.7325L140.719 39.1389H141.198H147.577H147.736L147.812 38.999L152.697 29.8603L157.79 39.0017Z" fill="white"/>
<defs>
<linearGradient id="paint0_linear_638_4566" x1="33.2828" y1="0.608688" x2="19.0168" y2="31.4236" gradientUnits="userSpaceOnUse">
<stop stop-color="#F6B430"/>
<stop offset="0.13" stop-color="#F7B93B"/>
<stop offset="0.35" stop-color="#F8C558"/>
<stop offset="0.64" stop-color="#FBD887"/>
<stop offset="0.98" stop-color="#FFF3C8"/>
<stop offset="1" stop-color="#FFF5CC"/>
</linearGradient>
<linearGradient id="paint1_linear_638_4566" x1="27.302" y1="4.82731" x2="19.9296" y2="42.5348" gradientUnits="userSpaceOnUse">
<stop stop-color="#F6B430"/>
<stop offset="0.13" stop-color="#F7B93B"/>
<stop offset="0.35" stop-color="#F8C558"/>
<stop offset="0.64" stop-color="#FBD887"/>
<stop offset="0.98" stop-color="#FFF3C8"/>
<stop offset="1" stop-color="#FFF5CC"/>
</linearGradient>
<linearGradient id="paint2_linear_638_4566" x1="4.95596" y1="19.7086" x2="25.9959" y2="44.0036" gradientUnits="userSpaceOnUse">
<stop stop-color="#FFC859"/>
<stop offset="1" stop-color="#C27718"/>
</linearGradient>
<linearGradient id="paint3_linear_638_4566" x1="6.44809" y1="23.2165" x2="18.0546" y2="15.7096" gradientUnits="userSpaceOnUse">
<stop stop-color="#E49B1B"/>
<stop offset="1" stop-color="#FFF5CC"/>
</linearGradient>
<linearGradient id="paint4_linear_638_4566" x1="44.0051" y1="25.5691" x2="30.6704" y2="14.9461" gradientUnits="userSpaceOnUse">
<stop stop-color="#E49B1B"/>
<stop offset="1" stop-color="#FFF5CC"/>
</linearGradient>
<linearGradient id="paint5_linear_638_4566" x1="20.5578" y1="45.3681" x2="51.4096" y2="5.71765" gradientUnits="userSpaceOnUse">
<stop stop-color="#F6B430"/>
<stop offset="0.13" stop-color="#F7B93B"/>
<stop offset="0.35" stop-color="#F8C558"/>
<stop offset="0.64" stop-color="#FBD887"/>
<stop offset="0.98" stop-color="#FFF3C8"/>
<stop offset="1" stop-color="#FFF5CC"/>
</linearGradient>
<linearGradient id="paint6_linear_638_4566" x1="25.9358" y1="18.9783" x2="17.6629" y2="11.3038" gradientUnits="userSpaceOnUse">
<stop stop-color="#E49B1B"/>
<stop offset="1" stop-color="#FFF5CC"/>
</linearGradient>
<linearGradient id="paint7_linear_638_4566" x1="20.6643" y1="21.9535" x2="30.7352" y2="8.76365" gradientUnits="userSpaceOnUse">
<stop stop-color="#F6B430"/>
<stop offset="1" stop-color="#FFF5CC"/>
</linearGradient>
<linearGradient id="paint8_linear_638_4566" x1="5.38856" y1="1.29721" x2="50.1619" y2="53.181" gradientUnits="userSpaceOnUse">
<stop stop-color="#FFC859"/>
<stop offset="1" stop-color="#C27718"/>
</linearGradient>
<linearGradient id="paint9_linear_638_4566" x1="10.044" y1="52.293" x2="51.2936" y2="36.6025" gradientUnits="userSpaceOnUse">
<stop stop-color="#E49B1B"/>
<stop offset="1" stop-color="#FFF5CC"/>
</linearGradient>
<linearGradient id="paint10_linear_638_4566" x1="45.0833" y1="63.7674" x2="-6.18234" y2="39.7506" gradientUnits="userSpaceOnUse">
<stop stop-color="#E49B1B"/>
<stop offset="1" stop-color="#FFF5CC"/>
</linearGradient>
<linearGradient id="paint11_linear_638_4566" x1="-2.3144" y1="45.5952" x2="48.5494" y2="-30.1381" gradientUnits="userSpaceOnUse">
<stop stop-color="#F6B430"/>
<stop offset="0.13" stop-color="#F7B93B"/>
<stop offset="0.35" stop-color="#F8C558"/>
<stop offset="0.64" stop-color="#FBD887"/>
<stop offset="0.98" stop-color="#FFF3C8"/>
<stop offset="1" stop-color="#FFF5CC"/>
</linearGradient>
<linearGradient id="paint12_linear_638_4566" x1="54.5758" y1="27.7258" x2="47.1435" y2="3.3375" gradientUnits="userSpaceOnUse">
<stop stop-color="#E49B1B"/>
<stop offset="1" stop-color="#FFF5CC"/>
</linearGradient>
<linearGradient id="paint13_linear_638_4566" x1="20.6643" y1="21.9535" x2="30.7352" y2="8.76365" gradientUnits="userSpaceOnUse">
<stop stop-color="#F6B430"/>
<stop offset="1" stop-color="#FFF5CC"/>
</linearGradient>
<radialGradient id="paint14_radial_638_4566" cx="0" cy="0" r="1" gradientUnits="userSpaceOnUse" gradientTransform="translate(24 17.5) rotate(90) scale(12.5 0.603793)">
<stop offset="0.529414" stop-color="#FFF2C5"/>
<stop offset="1" stop-opacity="0"/>
</radialGradient>
<radialGradient id="paint15_radial_638_4566" cx="0" cy="0" r="1" gradientUnits="userSpaceOnUse" gradientTransform="translate(24 40) rotate(90) scale(5 0.390484)">
<stop offset="0.529414" stop-color="#FFEEB5"/>
<stop offset="1" stop-opacity="0"/>
</radialGradient>
<radialGradient id="paint16_radial_638_4566" cx="0" cy="0" r="1" gradientUnits="userSpaceOnUse" gradientTransform="translate(8.80078 21.7324) rotate(90) scale(4.69922 0.269251)">
<stop offset="0.529414" stop-color="#FFEEB5"/>
<stop offset="1" stop-opacity="0"/>
</radialGradient>
<radialGradient id="paint17_radial_638_4566" cx="0" cy="0" r="1" gradientUnits="userSpaceOnUse" gradientTransform="translate(38.5 21.7324) rotate(90) scale(4.69922 0.269251)">
<stop offset="0.529414" stop-color="#FFEEB5"/>
<stop offset="1" stop-opacity="0"/>
</radialGradient>
<clipPath id="clip0_638_4566">
<rect width="48" height="46" fill="white" transform="translate(0 3.5)"/>
</clipPath>
</defs>
</svg>
