<svg width="120" height="122" viewBox="0 0 120 122" fill="none" xmlns="http://www.w3.org/2000/svg">
<path d="M77.3492 89.0389H41.6539L41.877 27.8477H77.5723L77.3492 89.0389ZM80.5618 18.9238H73.1104V10H46.3389V18.9238H38.8875C37.3136 18.9238 35.8042 19.5491 34.6913 20.662C33.5783 21.7749 32.9531 23.2843 32.9531 24.8582V93.304C32.9531 96.5612 35.6303 99.2384 38.8875 99.2384H80.5618C83.819 99.2384 86.4961 96.5612 86.4961 93.304V24.8582C86.4961 23.2843 85.8709 21.7749 84.758 20.662C83.6451 19.5491 82.1357 18.9238 80.5618 18.9238Z" fill="url(#paint0_linear_17284_20075)"/>
<path d="M75.5176 39.627C61.825 47.3662 47.4994 45.0005 43.3697 39.627V87.2534H75.5176V39.627Z" fill="#BABDD0"/>
<path d="M43.3711 39.627C57.0637 47.3662 69.5656 47.3662 75.5189 39.627V87.2534H43.3711V39.627Z" fill="#D3D7F0"/>
<path d="M13.753 10L22.5059 22.5824H15.9412V35.1648H11.5647V22.5824H5L13.753 10Z" fill="#59CACA"/>
<path d="M13.7529 38.447L22.5059 50.4823L31.2589 38.447H24.6941V26.4117H20.3176V38.447H13.7529Z" fill="#59CACA"/>
<g filter="url(#filter0_d_17284_20075)">
<path d="M66.4665 89.7846C66.4665 77.5996 76.3445 67.7203 88.5307 67.7204C93.989 67.7204 98.9846 69.7027 102.837 72.9883C107.584 77.035 110.594 83.0579 110.594 89.7846C110.594 101.97 100.716 111.848 88.5307 111.848C85.495 111.848 82.6024 111.235 79.9697 110.125C72.0354 106.782 66.4665 98.9339 66.4665 89.7846Z" fill="white"/>
<path fill-rule="evenodd" clip-rule="evenodd" d="M88.5318 70.9863C78.151 70.9863 69.7363 79.4025 69.7363 89.783C69.7363 97.5773 74.4802 104.263 81.2391 107.111C83.4818 108.056 85.9459 108.579 88.5318 108.579C98.9117 108.579 107.326 100.163 107.326 89.783C107.326 84.0524 104.763 78.9215 100.719 75.4741C97.437 72.6751 93.1815 70.9863 88.5318 70.9863Z" fill="url(#paint1_linear_17284_20075)"/>
<path d="M86.72 93.9038C86.4981 93.9038 86.3872 93.7925 86.3872 93.5699V91.9005C86.3872 90.8988 86.6091 90.0752 87.0529 89.4297C87.5189 88.7841 88.1956 88.0941 89.0832 87.3595C89.9043 86.6695 90.5145 86.0462 90.9139 85.4897C91.3355 84.9332 91.5463 84.2209 91.5463 83.3528C91.5463 82.3511 91.2689 81.5609 90.7142 80.9822C90.1816 80.3812 89.4605 80.0807 88.5507 80.0807C87.6187 80.0807 86.8642 80.3923 86.2873 81.0156C85.7104 81.6166 85.4219 82.4179 85.4219 83.4196V84.2877C85.4219 84.5103 85.311 84.6216 85.0891 84.6216L82.5594 84.488C82.3375 84.488 82.2266 84.3767 82.2266 84.1541V83.4196C82.2266 81.5498 82.8146 80.0473 83.9907 78.912C85.1667 77.7545 86.7089 77.1758 88.6173 77.1758C90.4812 77.1758 91.9679 77.7323 93.0774 78.8452C94.1869 79.936 94.7417 81.4051 94.7417 83.2526C94.7417 84.2321 94.5863 85.0779 94.2757 85.7902C93.9872 86.5025 93.6322 87.0813 93.2106 87.5265C92.8111 87.9717 92.2786 88.4725 91.6129 89.029C90.925 89.6077 90.4146 90.1086 90.0818 90.5315C89.7489 90.9544 89.5825 91.4664 89.5825 92.0674V93.5699C89.5825 93.7925 89.4716 93.9038 89.2497 93.9038H86.72ZM87.9516 100.815C87.3302 100.815 86.8199 100.615 86.4205 100.214C86.021 99.8137 85.8213 99.3018 85.8213 98.6785C85.8213 98.0552 86.021 97.5433 86.4205 97.1426C86.8199 96.7419 87.3302 96.5416 87.9516 96.5416C88.5729 96.5416 89.0832 96.7419 89.4827 97.1426C89.8821 97.5433 90.0818 98.0552 90.0818 98.6785C90.0818 99.3018 89.8821 99.8137 89.4827 100.214C89.0832 100.615 88.5729 100.815 87.9516 100.815Z" fill="white"/>
</g>
<defs>
<filter id="filter0_d_17284_20075" x="59.087" y="62.0135" width="62.2316" height="62.2316" filterUnits="userSpaceOnUse" color-interpolation-filters="sRGB">
<feFlood flood-opacity="0" result="BackgroundImageFix"/>
<feColorMatrix in="SourceAlpha" type="matrix" values="0 0 0 0 0 0 0 0 0 0 0 0 0 0 0 0 0 0 127 0" result="hardAlpha"/>
<feOffset dx="1.67258" dy="3.34517"/>
<feGaussianBlur stdDeviation="2.95"/>
<feComposite in2="hardAlpha" operator="out"/>
<feColorMatrix type="matrix" values="0 0 0 0 0.00616667 0 0 0 0 0 0 0 0 0 0.308333 0 0 0 0.07 0"/>
<feBlend mode="normal" in2="BackgroundImageFix" result="effect1_dropShadow_17284_20075"/>
<feBlend mode="normal" in="SourceGraphic" in2="effect1_dropShadow_17284_20075" result="shape"/>
</filter>
<linearGradient id="paint0_linear_17284_20075" x1="86.2352" y1="159.287" x2="-18.8589" y2="57.6267" gradientUnits="userSpaceOnUse">
<stop stop-color="#A7ACCA"/>
<stop offset="0.619894" stop-color="#D3D8F0"/>
</linearGradient>
<linearGradient id="paint1_linear_17284_20075" x1="138.174" y1="66.9325" x2="75.3721" y2="103.503" gradientUnits="userSpaceOnUse">
<stop stop-color="#FFA133"/>
<stop offset="1" stop-color="#FFC633"/>
</linearGradient>
</defs>
</svg>
