<svg width="120" height="122" viewBox="0 0 120 122" fill="none" xmlns="http://www.w3.org/2000/svg">
<path d="M77.3492 89.0389H41.6539L41.877 27.8477H77.5723L77.3492 89.0389ZM80.5618 18.9238H73.1104V10H46.3389V18.9238H38.8875C37.3136 18.9238 35.8042 19.5491 34.6913 20.662C33.5783 21.7749 32.9531 23.2843 32.9531 24.8582V93.304C32.9531 96.5612 35.6303 99.2384 38.8875 99.2384H80.5618C83.819 99.2384 86.4961 96.5612 86.4961 93.304V24.8582C86.4961 23.2843 85.8709 21.7749 84.758 20.662C83.6451 19.5491 82.1357 18.9238 80.5618 18.9238Z" fill="url(#paint0_linear_17265_33511)"/>
<path d="M75.5176 39.627C61.825 47.3662 47.4994 45.0005 43.3697 39.627V87.2534H75.5176V39.627Z" fill="#BABDD0"/>
<path d="M43.3711 39.627C57.0637 47.3662 69.5656 47.3662 75.5189 39.627V87.2534H43.3711V39.627Z" fill="#D3D7F0"/>
<path d="M13.753 10L22.5059 22.5824H15.9412V35.1648H11.5647V22.5824H5L13.753 10Z" fill="#59CACA"/>
<path d="M13.7529 38.447L22.5059 50.4823L31.2589 38.447H24.6941V26.4117H20.3176V38.447H13.7529Z" fill="#59CACA"/>
<g filter="url(#filter0_d_17265_33511)">
<path d="M66.4665 89.7846C66.4665 77.5997 76.3445 67.7204 88.5307 67.7204C93.989 67.7204 98.9846 69.7027 102.837 72.9883C107.584 77.035 110.594 83.0579 110.594 89.7846C110.594 101.97 100.716 111.848 88.5307 111.848C85.495 111.848 82.6024 111.235 79.9697 110.125C72.0354 106.782 66.4665 98.9339 66.4665 89.7846Z" fill="white"/>
<path fill-rule="evenodd" clip-rule="evenodd" d="M69.7363 89.783C69.7363 79.4025 78.151 70.9863 88.5318 70.9863C93.1815 70.9863 97.437 72.6751 100.719 75.4741C104.763 78.9215 107.326 84.0524 107.326 89.783C107.326 100.163 98.9117 108.579 88.5318 108.579C85.9459 108.579 83.4818 108.056 81.2391 107.111C74.4802 104.263 69.7363 97.5773 69.7363 89.783ZM79.0754 91.2763L85.7999 98.0008L99.563 84.2377L96.4985 81.1732L85.7999 91.8827L82.1399 88.2118L79.0754 91.2763Z" fill="#05E0AC"/>
</g>
<defs>
<filter id="filter0_d_17265_33511" x="59.087" y="62.0135" width="62.2316" height="62.2316" filterUnits="userSpaceOnUse" color-interpolation-filters="sRGB">
<feFlood flood-opacity="0" result="BackgroundImageFix"/>
<feColorMatrix in="SourceAlpha" type="matrix" values="0 0 0 0 0 0 0 0 0 0 0 0 0 0 0 0 0 0 127 0" result="hardAlpha"/>
<feOffset dx="1.67258" dy="3.34517"/>
<feGaussianBlur stdDeviation="2.95"/>
<feComposite in2="hardAlpha" operator="out"/>
<feColorMatrix type="matrix" values="0 0 0 0 0.00616667 0 0 0 0 0 0 0 0 0 0.308333 0 0 0 0.07 0"/>
<feBlend mode="normal" in2="BackgroundImageFix" result="effect1_dropShadow_17265_33511"/>
<feBlend mode="normal" in="SourceGraphic" in2="effect1_dropShadow_17265_33511" result="shape"/>
</filter>
<linearGradient id="paint0_linear_17265_33511" x1="86.2352" y1="159.287" x2="-18.8589" y2="57.6267" gradientUnits="userSpaceOnUse">
<stop stop-color="#A7ACCA"/>
<stop offset="0.619894" stop-color="#D3D8F0"/>
</linearGradient>
</defs>
</svg>
