<svg width="40" height="40" viewBox="0 0 40 40" fill="none" xmlns="http://www.w3.org/2000/svg">
<path d="M8.584 24.153C8.584 25.2436 8.58489 26.3343 8.58311 27.425C8.58223 28.0176 8.40231 28.2057 7.83772 28.2066C7.16323 28.2084 6.48874 28.2121 5.81425 28.2057C4.7879 28.1957 4.06377 27.4522 4.05934 26.3961C4.05314 24.8855 4.05314 23.374 4.05934 21.8635C4.06377 20.8328 4.74535 20.1002 5.75398 20.0657C6.48342 20.0411 7.21375 20.0521 7.94319 20.0621C8.3899 20.0684 8.57248 20.2766 8.58311 20.7446C8.584 20.7674 8.58311 20.7901 8.58311 20.8128C8.584 21.9262 8.584 23.0396 8.584 24.153Z" fill="black"/>
<path d="M8.584 24.153C8.584 25.2436 8.58489 26.3343 8.58311 27.425C8.58223 28.0176 8.40231 28.2057 7.83772 28.2066C7.16323 28.2084 6.48874 28.2121 5.81425 28.2057C4.7879 28.1957 4.06377 27.4522 4.05934 26.3961C4.05314 24.8855 4.05314 23.374 4.05934 21.8635C4.06377 20.8328 4.74535 20.1002 5.75398 20.0657C6.48342 20.0411 7.21375 20.0521 7.94319 20.0621C8.3899 20.0684 8.57248 20.2766 8.58311 20.7446C8.584 20.7674 8.58311 20.7901 8.58311 20.8128C8.584 21.9262 8.584 23.0396 8.584 24.153Z" fill="url(#paint0_linear_11045_22430)"/>
<path d="M32.5008 24.059C32.5008 22.9575 32.499 21.855 32.5017 20.7534C32.5026 20.1999 32.6825 20.009 33.2125 20.0054C33.887 19.9999 34.5615 19.9963 35.236 20.0063C36.335 20.0227 37.0246 20.7479 37.0263 21.8822C37.029 23.3474 37.029 24.8134 37.0263 26.2785C37.0237 27.4201 36.312 28.1481 35.1979 28.1518C34.5234 28.1545 33.8489 28.1554 33.1744 28.1509C32.7082 28.1481 32.5043 27.9436 32.5026 27.4674C32.4981 26.3313 32.5008 25.1951 32.5008 24.059Z" fill="black"/>
<path d="M32.5008 24.059C32.5008 22.9575 32.499 21.855 32.5017 20.7534C32.5026 20.1999 32.6825 20.009 33.2125 20.0054C33.887 19.9999 34.5615 19.9963 35.236 20.0063C36.335 20.0227 37.0246 20.7479 37.0263 21.8822C37.029 23.3474 37.029 24.8134 37.0263 26.2785C37.0237 27.4201 36.312 28.1481 35.1979 28.1518C34.5234 28.1545 33.8489 28.1554 33.1744 28.1509C32.7082 28.1481 32.5043 27.9436 32.5026 27.4674C32.4981 26.3313 32.5008 25.1951 32.5008 24.059Z" fill="url(#paint1_linear_11045_22430)"/>
<path d="M34.197 29C34.5683 29 34.9184 29 35.3439 29C35.2534 29.4853 35.1967 29.9534 35.0771 30.4042C34.2351 33.5935 31.4476 35.8539 28.2311 35.9512C27.2819 35.9803 26.3309 35.9603 25.3807 35.9612C25.3169 35.9612 25.2531 35.9466 25.1716 35.9357C25.1716 35.5658 25.1716 35.2077 25.1716 34.8142C25.293 34.8087 25.4109 34.7987 25.5279 34.7987C26.3894 34.796 27.2518 34.8105 28.1133 34.7914C31.2446 34.7224 33.8017 32.3274 34.1713 29.1327C34.1757 29.1 34.1845 29.0673 34.197 29Z" fill="black"/>
<path d="M34.197 29C34.5683 29 34.9184 29 35.3439 29C35.2534 29.4853 35.1967 29.9534 35.0771 30.4042C34.2351 33.5935 31.4476 35.8539 28.2311 35.9512C27.2819 35.9803 26.3309 35.9603 25.3807 35.9612C25.3169 35.9612 25.2531 35.9466 25.1716 35.9357C25.1716 35.5658 25.1716 35.2077 25.1716 34.8142C25.293 34.8087 25.4109 34.7987 25.5279 34.7987C26.3894 34.796 27.2518 34.8105 28.1133 34.7914C31.2446 34.7224 33.8017 32.3274 34.1713 29.1327C34.1757 29.1 34.1845 29.0673 34.197 29Z" fill="url(#paint2_linear_11045_22430)"/>
<path d="M21.9977 34.2288C22.4612 34.2279 22.9247 34.2234 23.3883 34.2297C23.8119 34.2352 24.0123 34.4433 24.0193 34.8796C24.0247 35.2195 24.0247 35.5604 24.0193 35.9003C24.0123 36.312 23.8049 36.5456 23.4149 36.5492C22.4772 36.5574 21.5385 36.5638 20.6008 36.5465C19.9689 36.5356 19.4982 36.0175 19.5 35.3831C19.5018 34.7442 19.9724 34.2461 20.6079 34.2316C21.0706 34.2198 21.5341 34.2288 21.9977 34.2288Z" fill="black"/>
<path d="M21.9977 34.2288C22.4612 34.2279 22.9247 34.2234 23.3883 34.2297C23.8119 34.2352 24.0123 34.4433 24.0193 34.8796C24.0247 35.2195 24.0247 35.5604 24.0193 35.9003C24.0123 36.312 23.8049 36.5456 23.4149 36.5492C22.4772 36.5574 21.5385 36.5638 20.6008 36.5465C19.9689 36.5356 19.4982 36.0175 19.5 35.3831C19.5018 34.7442 19.9724 34.2461 20.6079 34.2316C21.0706 34.2198 21.5341 34.2288 21.9977 34.2288Z" fill="url(#paint3_linear_11045_22430)"/>
<path d="M19.9158 29.775C25.3492 29.775 29.7539 25.2582 29.7539 19.6863C29.7539 14.1145 25.3492 9.59766 19.9158 9.59766C14.4823 9.59766 10.0776 14.1145 10.0776 19.6863C10.0776 21.3002 10.4472 22.8256 11.1042 24.1783C11.2788 24.5378 11.3369 24.9487 11.2357 25.3366L10.6497 27.5824C10.3953 28.5573 11.2651 29.4492 12.2158 29.1883L14.4058 28.5875C14.7841 28.4836 15.1848 28.5432 15.5354 28.7223C16.8545 29.3961 18.342 29.775 19.9158 29.775Z" fill="url(#paint4_linear_11045_22430)"/>
<circle cx="20" cy="17" r="2" fill="#04D9D9"/>
<path d="M24 22.75C24 23.9926 24 25 20 25C16 25 16 23.9926 16 22.75C16 21.5074 17.7909 20.5 20 20.5C22.2091 20.5 24 21.5074 24 22.75Z" fill="#04D9D9"/>
<path d="M35.3289 19.3277C35.3289 17.3702 34.9434 15.4319 34.1944 13.6235C33.4454 11.815 32.3475 10.1718 30.9635 8.78768C29.5794 7.40355 27.9363 6.3056 26.128 5.55651C24.3197 4.80742 22.3815 4.42187 20.4242 4.42188C18.4669 4.42188 16.5288 4.80742 14.7205 5.55651C12.9121 6.3056 11.269 7.40355 9.88502 8.78768C8.50099 10.1718 7.40312 11.815 6.65408 13.6235C5.90505 15.4319 5.51953 17.3702 5.51953 19.3277H6.90229C6.90229 17.5518 7.25204 15.7933 7.93158 14.1527C8.61113 12.512 9.60715 11.0212 10.8628 9.76551C12.1184 8.50979 13.6091 7.51369 15.2496 6.8341C16.8902 6.15451 18.6485 5.80473 20.4242 5.80473C22.2 5.80473 23.9583 6.15451 25.5989 6.8341C27.2394 7.51369 28.7301 8.50979 29.9857 9.76551C31.2413 11.0212 32.2373 12.512 32.9169 14.1527C33.5964 15.7933 33.9462 17.5518 33.9462 19.3277H35.3289Z" fill="black"/>
<path d="M35.3289 19.3277C35.3289 17.3702 34.9434 15.4319 34.1944 13.6235C33.4454 11.815 32.3475 10.1718 30.9635 8.78768C29.5794 7.40355 27.9363 6.3056 26.128 5.55651C24.3197 4.80742 22.3815 4.42187 20.4242 4.42188C18.4669 4.42188 16.5288 4.80742 14.7205 5.55651C12.9121 6.3056 11.269 7.40355 9.88502 8.78768C8.50099 10.1718 7.40312 11.815 6.65408 13.6235C5.90505 15.4319 5.51953 17.3702 5.51953 19.3277H6.90229C6.90229 17.5518 7.25204 15.7933 7.93158 14.1527C8.61113 12.512 9.60715 11.0212 10.8628 9.76551C12.1184 8.50979 13.6091 7.51369 15.2496 6.8341C16.8902 6.15451 18.6485 5.80473 20.4242 5.80473C22.2 5.80473 23.9583 6.15451 25.5989 6.8341C27.2394 7.51369 28.7301 8.50979 29.9857 9.76551C31.2413 11.0212 32.2373 12.512 32.9169 14.1527C33.5964 15.7933 33.9462 17.5518 33.9462 19.3277H35.3289Z" fill="url(#paint5_linear_11045_22430)"/>
<defs>
<linearGradient id="paint0_linear_11045_22430" x1="4.0546" y1="24.1303" x2="8.58402" y2="24.1303" gradientUnits="userSpaceOnUse">
<stop stop-color="#05E0E0"/>
<stop offset="1" stop-color="#02C8C8"/>
</linearGradient>
<linearGradient id="paint1_linear_11045_22430" x1="32.4999" y1="24.0773" x2="37.0281" y2="24.0773" gradientUnits="userSpaceOnUse">
<stop stop-color="#05E0E0"/>
<stop offset="1" stop-color="#02C8C8"/>
</linearGradient>
<linearGradient id="paint2_linear_11045_22430" x1="19.4997" y1="32.779" x2="35.3431" y2="32.779" gradientUnits="userSpaceOnUse">
<stop stop-color="#05E0E0"/>
<stop offset="1" stop-color="#02C8C8"/>
</linearGradient>
<linearGradient id="paint3_linear_11045_22430" x1="19.4997" y1="32.779" x2="35.3431" y2="32.779" gradientUnits="userSpaceOnUse">
<stop stop-color="#05E0E0"/>
<stop offset="1" stop-color="#02C8C8"/>
</linearGradient>
<linearGradient id="paint4_linear_11045_22430" x1="-8.66797" y1="-16" x2="26.9474" y2="7.81808" gradientUnits="userSpaceOnUse">
<stop stop-color="white"/>
<stop offset="1" stop-color="#E2F1FA"/>
</linearGradient>
<linearGradient id="paint5_linear_11045_22430" x1="5.51893" y1="19.3285" x2="35.3276" y2="19.3285" gradientUnits="userSpaceOnUse">
<stop stop-color="#05E0E0"/>
<stop offset="1" stop-color="#02C8C8"/>
</linearGradient>
</defs>
</svg>
