<svg width="200" height="200" viewBox="0 0 200 200" fill="none" xmlns="http://www.w3.org/2000/svg">
<path d="M9.29102 149.758C9.29102 137.261 19.4216 127.131 31.9183 127.131V127.131C44.415 127.131 54.5456 137.261 54.5456 149.758V165.314C54.5456 169.22 51.3798 172.385 47.4745 172.385H31.9183C19.4216 172.385 9.29102 162.255 9.29102 149.758V149.758Z" fill="url(#paint0_linear_9373_235245)"/>
<path fill-rule="evenodd" clip-rule="evenodd" d="M32.5511 136.433C31.2667 136.433 30.2255 137.474 30.2255 138.758V148.061H20.9213C19.6369 148.061 18.5957 149.102 18.5957 150.386C18.5957 151.671 19.6369 152.712 20.9213 152.712H30.2255V162.014C30.2255 163.298 31.2667 164.34 32.5511 164.34C33.8354 164.34 34.8766 163.298 34.8766 162.014V152.712H44.1771C45.4615 152.712 46.5027 151.671 46.5027 150.386C46.5027 149.102 45.4615 148.061 44.1771 148.061H34.8766V138.758C34.8766 137.474 33.8354 136.433 32.5511 136.433Z" fill="white"/>
<path d="M57.3594 58.9152C57.3594 57.2027 58.7476 55.8145 60.4602 55.8145H147.282C148.994 55.8145 150.383 57.2027 150.383 58.9152V139.5V168.993C150.383 170.705 148.994 172.094 147.282 172.094H111.769H60.4602C58.7476 172.094 57.3594 170.705 57.3594 168.993V58.9152Z" fill="url(#paint1_radial_9373_235245)"/>
<g filter="url(#filter0_d_9373_235245)">
<path d="M69.2883 63.5654H147.281V133.857C147.281 145.688 144.065 157.296 137.978 167.441V167.441L93.7923 168.992H60.459V168.992C66.3326 137.644 69.2883 105.82 69.2883 73.927V63.5654Z" fill="url(#paint2_radial_9373_235245)"/>
</g>
<g filter="url(#filter1_d_9373_235245)">
<path d="M67.7375 60.4648H145.73V131.16C145.73 142.617 141.911 153.747 134.877 162.79V162.79L92.2415 165.891H58.9082V165.891C64.7818 134.544 67.7375 102.719 67.7375 70.8264V60.4648Z" fill="url(#paint3_radial_9373_235245)"/>
</g>
<path d="M62.0094 60.4648H144.18V134.108L127.126 147.287L110.071 162.79H52.707V162.79C58.893 132.376 62.0094 101.418 62.0094 70.3811V60.4648Z" fill="url(#paint4_linear_9373_235245)"/>
<path d="M82.1641 55.8145H125.575V62.016C125.575 64.5848 123.493 66.6672 120.924 66.6672H86.8152C84.2465 66.6672 82.1641 64.5848 82.1641 62.016V55.8145Z" fill="url(#paint5_radial_9373_235245)"/>
<path d="M67.0689 91.473H74.4817C74.7075 91.473 74.8905 91.29 74.8905 91.0642V90.6282C74.8905 90.1766 74.5245 89.8106 74.0729 89.8106V89.3218C74.0729 88.6747 73.5464 88.1482 72.8993 88.1482H68.6514C68.0043 88.1482 67.4777 88.6747 67.4777 89.3218V89.8106C67.0262 89.8106 66.6602 90.1766 66.6602 90.6282V91.0642C66.6602 91.2899 66.8433 91.473 67.0689 91.473Z" fill="url(#paint6_linear_9373_235245)"/>
<path d="M71.7768 86.5223C72.0484 86.8829 72.5611 86.955 72.9217 86.6832C73.2824 86.4115 73.3543 85.8988 73.0827 85.5381L70.6225 82.2734C70.3507 81.9127 69.8381 81.8408 69.4775 82.1125C69.1168 82.3842 69.0448 82.8968 69.3165 83.2575L71.7768 86.5223Z" fill="url(#paint7_linear_9373_235245)"/>
<path d="M77.6529 82.094C77.9247 82.4546 78.4373 82.5266 78.798 82.2548C79.1585 81.9832 79.2306 81.4706 78.9588 81.1099L76.4986 77.8452C76.2269 77.4845 75.7142 77.4124 75.3537 77.6842C74.9931 77.956 74.921 78.4686 75.1928 78.8293L77.6529 82.094Z" fill="url(#paint8_linear_9373_235245)"/>
<path d="M75.8584 84.4689C76.4626 84.0136 76.9163 83.4482 77.2 82.8529L74.3373 79.0541C73.6869 79.1628 73.0185 79.4429 72.4141 79.8983C71.8099 80.3536 71.3562 80.919 71.0725 81.5142L73.9352 85.3132C74.5856 85.2046 75.254 84.9244 75.8584 84.4689Z" fill="url(#paint9_linear_9373_235245)"/>
<path d="M76.9646 84.5754C76.7743 84.7694 76.5738 84.9554 76.3528 85.122C76.1317 85.2885 75.8976 85.43 75.6588 85.5595L76.1918 86.2669L77.4977 85.2829L76.9646 84.5754Z" fill="url(#paint10_linear_9373_235245)"/>
<path d="M77.9873 85.9358L76.6814 86.9198L79.1417 90.1846C79.4134 90.5453 79.926 90.6172 80.2866 90.3456C80.6473 90.0738 80.7192 89.5612 80.4476 89.2005L77.9873 85.9358Z" fill="url(#paint11_linear_9373_235245)"/>
<rect x="86.8145" y="78.2949" width="48.062" height="6.20155" rx="1.55039" fill="url(#paint12_linear_9373_235245)"/>
<path d="M86.8145 88.3729C86.8145 87.9447 87.1615 87.5977 87.5896 87.5977H106.194C106.622 87.5977 106.969 87.9447 106.969 88.3729V89.9232C106.969 90.3514 106.622 90.6984 106.194 90.6984H87.5896C87.1615 90.6984 86.8145 90.3514 86.8145 89.9232V88.3729Z" fill="white"/>
<path d="M86.8145 88.3729C86.8145 87.9447 87.1615 87.5977 87.5896 87.5977H106.194C106.622 87.5977 106.969 87.9447 106.969 88.3729V89.9232C106.969 90.3514 106.622 90.6984 106.194 90.6984H87.5896C87.1615 90.6984 86.8145 90.3514 86.8145 89.9232V88.3729Z" fill="url(#paint13_linear_9373_235245)"/>
<path d="M110.07 88.3729C110.07 87.9447 110.417 87.5977 110.845 87.5977H121.698C122.126 87.5977 122.473 87.9447 122.473 88.3729V89.9232C122.473 90.3514 122.126 90.6984 121.698 90.6984H110.845C110.417 90.6984 110.07 90.3514 110.07 89.9232V88.3729Z" fill="white"/>
<path d="M110.07 88.3729C110.07 87.9447 110.417 87.5977 110.845 87.5977H121.698C122.126 87.5977 122.473 87.9447 122.473 88.3729V89.9232C122.473 90.3514 122.126 90.6984 121.698 90.6984H110.845C110.417 90.6984 110.07 90.3514 110.07 89.9232V88.3729Z" fill="url(#paint14_linear_9373_235245)"/>
<path d="M67.0689 117.83H74.4817C74.7075 117.83 74.8905 117.647 74.8905 117.422V116.986C74.8905 116.534 74.5245 116.168 74.0729 116.168V115.679C74.0729 115.032 73.5464 114.506 72.8993 114.506H68.6514C68.0043 114.506 67.4777 115.032 67.4777 115.679V116.168C67.0262 116.168 66.6602 116.534 66.6602 116.986V117.422C66.6602 117.647 66.8433 117.83 67.0689 117.83Z" fill="url(#paint15_linear_9373_235245)"/>
<path d="M71.7768 112.88C72.0484 113.24 72.5611 113.312 72.9217 113.041C73.2824 112.769 73.3543 112.256 73.0827 111.896L70.6225 108.631C70.3507 108.27 69.8381 108.198 69.4775 108.47C69.1168 108.742 69.0448 109.254 69.3165 109.615L71.7768 112.88Z" fill="url(#paint16_linear_9373_235245)"/>
<path d="M77.6529 108.451C77.9247 108.812 78.4373 108.884 78.798 108.612C79.1585 108.341 79.2306 107.828 78.9588 107.467L76.4986 104.203C76.2269 103.842 75.7142 103.77 75.3537 104.042C74.9931 104.313 74.921 104.826 75.1928 105.187L77.6529 108.451Z" fill="url(#paint17_linear_9373_235245)"/>
<path d="M75.8584 110.826C76.4626 110.371 76.9163 109.806 77.2 109.21L74.3373 105.412C73.6869 105.52 73.0185 105.8 72.4141 106.256C71.8099 106.711 71.3562 107.276 71.0725 107.872L73.9352 111.671C74.5856 111.562 75.254 111.282 75.8584 110.826Z" fill="url(#paint18_linear_9373_235245)"/>
<path d="M76.9646 110.933C76.7743 111.127 76.5738 111.313 76.3528 111.479C76.1317 111.646 75.8976 111.787 75.6588 111.917L76.1918 112.624L77.4977 111.64L76.9646 110.933Z" fill="url(#paint19_linear_9373_235245)"/>
<path d="M77.9873 112.293L76.6814 113.277L79.1417 116.542C79.4134 116.903 79.926 116.975 80.2866 116.703C80.6473 116.431 80.7192 115.919 80.4476 115.558L77.9873 112.293Z" fill="url(#paint20_linear_9373_235245)"/>
<rect x="86.8145" y="104.652" width="48.062" height="6.20155" rx="1.55039" fill="white"/>
<rect x="86.8145" y="104.652" width="48.062" height="6.20155" rx="1.55039" fill="url(#paint21_linear_9373_235245)"/>
<path d="M86.8145 114.73C86.8145 114.302 87.1615 113.955 87.5896 113.955H106.194C106.622 113.955 106.969 114.302 106.969 114.73V116.281C106.969 116.709 106.622 117.056 106.194 117.056H87.5896C87.1615 117.056 86.8145 116.709 86.8145 116.281V114.73Z" fill="white"/>
<path d="M86.8145 114.73C86.8145 114.302 87.1615 113.955 87.5896 113.955H106.194C106.622 113.955 106.969 114.302 106.969 114.73V116.281C106.969 116.709 106.622 117.056 106.194 117.056H87.5896C87.1615 117.056 86.8145 116.709 86.8145 116.281V114.73Z" fill="url(#paint22_linear_9373_235245)"/>
<path d="M110.07 114.73C110.07 114.302 110.417 113.955 110.845 113.955H121.698C122.126 113.955 122.473 114.302 122.473 114.73V116.281C122.473 116.709 122.126 117.056 121.698 117.056H110.845C110.417 117.056 110.07 116.709 110.07 116.281V114.73Z" fill="white"/>
<path d="M110.07 114.73C110.07 114.302 110.417 113.955 110.845 113.955H121.698C122.126 113.955 122.473 114.302 122.473 114.73V116.281C122.473 116.709 122.126 117.056 121.698 117.056H110.845C110.417 117.056 110.07 116.709 110.07 116.281V114.73Z" fill="url(#paint23_linear_9373_235245)"/>
<path d="M80.6136 137.869C80.6136 135.364 78.5833 133.334 76.0788 133.334C74.6256 133.334 73.3321 134.019 72.5021 135.083C76.0418 135.22 78.8695 138.133 78.8695 141.706C78.8695 141.783 78.8681 141.86 78.8655 141.936L79.0974 141.998C79.7715 142.178 80.3883 141.562 80.2079 140.887L80.1191 140.555C80.0473 140.287 80.0904 140.004 80.2058 139.751C80.4677 139.178 80.6136 138.54 80.6136 137.869Z" fill="white"/>
<path d="M80.6136 137.869C80.6136 135.364 78.5833 133.334 76.0788 133.334C74.6256 133.334 73.3321 134.019 72.5021 135.083C76.0418 135.22 78.8695 138.133 78.8695 141.706C78.8695 141.783 78.8681 141.86 78.8655 141.936L79.0974 141.998C79.7715 142.178 80.3883 141.562 80.2079 140.887L80.1191 140.555C80.0473 140.287 80.0904 140.004 80.2058 139.751C80.4677 139.178 80.6136 138.54 80.6136 137.869Z" fill="url(#paint24_linear_9373_235245)"/>
<path fill-rule="evenodd" clip-rule="evenodd" d="M77.8229 141.706C77.8229 144.789 75.3241 147.287 72.2416 147.287C71.3796 147.287 70.5632 147.092 69.8344 146.743C69.5839 146.623 69.3001 146.581 69.0318 146.653L68.1764 146.882C67.5023 147.062 66.8855 146.445 67.0659 145.771L67.2947 144.916C67.3665 144.648 67.3244 144.364 67.2045 144.113C66.8556 143.384 66.6602 142.568 66.6602 141.706C66.6602 138.624 69.159 136.125 72.2416 136.125C75.3241 136.125 77.8229 138.624 77.8229 141.706ZM69.7997 142.404C70.185 142.404 70.4974 142.091 70.4974 141.706C70.4974 141.321 70.185 141.008 69.7997 141.008C69.4144 141.008 69.102 141.321 69.102 141.706C69.102 142.091 69.4144 142.404 69.7997 142.404ZM72.2416 142.404C72.6269 142.404 72.9392 142.091 72.9392 141.706C72.9392 141.321 72.6269 141.008 72.2416 141.008C71.8562 141.008 71.5439 141.321 71.5439 141.706C71.5439 142.091 71.8562 142.404 72.2416 142.404ZM74.6834 142.404C75.0687 142.404 75.3811 142.091 75.3811 141.706C75.3811 141.321 75.0687 141.008 74.6834 141.008C74.2981 141.008 73.9857 141.321 73.9857 141.706C73.9857 142.091 74.2981 142.404 74.6834 142.404Z" fill="white"/>
<path fill-rule="evenodd" clip-rule="evenodd" d="M77.8229 141.706C77.8229 144.789 75.3241 147.287 72.2416 147.287C71.3796 147.287 70.5632 147.092 69.8344 146.743C69.5839 146.623 69.3001 146.581 69.0318 146.653L68.1764 146.882C67.5023 147.062 66.8855 146.445 67.0659 145.771L67.2947 144.916C67.3665 144.648 67.3244 144.364 67.2045 144.113C66.8556 143.384 66.6602 142.568 66.6602 141.706C66.6602 138.624 69.159 136.125 72.2416 136.125C75.3241 136.125 77.8229 138.624 77.8229 141.706ZM69.7997 142.404C70.185 142.404 70.4974 142.091 70.4974 141.706C70.4974 141.321 70.185 141.008 69.7997 141.008C69.4144 141.008 69.102 141.321 69.102 141.706C69.102 142.091 69.4144 142.404 69.7997 142.404ZM72.2416 142.404C72.6269 142.404 72.9392 142.091 72.9392 141.706C72.9392 141.321 72.6269 141.008 72.2416 141.008C71.8562 141.008 71.5439 141.321 71.5439 141.706C71.5439 142.091 71.8562 142.404 72.2416 142.404ZM74.6834 142.404C75.0687 142.404 75.3811 142.091 75.3811 141.706C75.3811 141.321 75.0687 141.008 74.6834 141.008C74.2981 141.008 73.9857 141.321 73.9857 141.706C73.9857 142.091 74.2981 142.404 74.6834 142.404Z" fill="url(#paint25_linear_9373_235245)"/>
<rect x="86.8145" y="134.109" width="48.062" height="6.20155" rx="1.55039" fill="white"/>
<rect x="86.8145" y="134.109" width="48.062" height="6.20155" rx="1.55039" fill="url(#paint26_linear_9373_235245)"/>
<path d="M86.8145 144.187C86.8145 143.759 87.1615 143.412 87.5896 143.412H106.194C106.622 143.412 106.969 143.759 106.969 144.187V145.738C106.969 146.166 106.622 146.513 106.194 146.513H87.5896C87.1615 146.513 86.8145 146.166 86.8145 145.738V144.187Z" fill="white"/>
<path d="M86.8145 144.187C86.8145 143.759 87.1615 143.412 87.5896 143.412H106.194C106.622 143.412 106.969 143.759 106.969 144.187V145.738C106.969 146.166 106.622 146.513 106.194 146.513H87.5896C87.1615 146.513 86.8145 146.166 86.8145 145.738V144.187Z" fill="url(#paint27_linear_9373_235245)"/>
<path d="M110.07 144.187C110.07 143.759 110.417 143.412 110.845 143.412H121.698C122.126 143.412 122.473 143.759 122.473 144.187V145.738C122.473 146.166 122.126 146.513 121.698 146.513H110.845C110.417 146.513 110.07 146.166 110.07 145.738V144.187Z" fill="white"/>
<path d="M110.07 144.187C110.07 143.759 110.417 143.412 110.845 143.412H121.698C122.126 143.412 122.473 143.759 122.473 144.187V145.738C122.473 146.166 122.126 146.513 121.698 146.513H110.845C110.417 146.513 110.07 146.166 110.07 145.738V144.187Z" fill="url(#paint28_linear_9373_235245)"/>
<g filter="url(#filter2_d_9373_235245)">
<path d="M117.82 128.683C119.371 144.186 117.82 151.938 110.068 162.791C133.634 159.69 142.626 142.378 144.177 134.109C144.177 134.109 129.448 133.334 117.82 128.683Z" fill="#D9D9D9"/>
<path d="M117.82 128.683C119.371 144.186 117.82 151.938 110.068 162.791C133.634 159.69 142.626 142.378 144.177 134.109C144.177 134.109 129.448 133.334 117.82 128.683Z" fill="url(#paint29_linear_9373_235245)"/>
</g>
<path fill-rule="evenodd" clip-rule="evenodd" d="M153.48 32.5586C152.624 32.5586 151.93 33.2527 151.93 34.109V35.6594C151.93 35.7656 151.941 35.8693 151.961 35.9694C135.309 38.2245 122.473 52.4971 122.473 69.7677C122.473 88.6053 137.744 103.876 156.581 103.876C175.419 103.876 190.69 88.6053 190.69 69.7677C190.69 51.9732 177.063 37.3614 159.676 35.7977C159.68 35.7521 159.682 35.706 159.682 35.6594V34.109C159.682 33.2527 158.988 32.5586 158.132 32.5586H153.48Z" fill="url(#paint30_linear_9373_235245)"/>
<rect x="148.832" y="27.9072" width="13.9535" height="6.20155" rx="1.55039" fill="url(#paint31_linear_9373_235245)" fill-opacity="0.8"/>
<rect x="148.832" y="27.9072" width="13.9535" height="6.20155" rx="1.55039" fill="url(#paint32_linear_9373_235245)"/>
<rect x="124.023" y="45.6104" width="7.75194" height="4.69124" rx="1.55039" transform="rotate(-49.1471 124.023 45.6104)" fill="#D9D9D9"/>
<rect x="124.023" y="45.6104" width="7.75194" height="4.69124" rx="1.55039" transform="rotate(-49.1471 124.023 45.6104)" fill="url(#paint33_linear_9373_235245)" fill-opacity="0.8"/>
<rect x="124.023" y="45.6104" width="7.75194" height="4.69124" rx="1.55039" transform="rotate(-49.1471 124.023 45.6104)" fill="url(#paint34_linear_9373_235245)"/>
<rect width="7.75194" height="4.69124" rx="1.55039" transform="matrix(0.654119 0.756392 0.756392 -0.654119 182.938 42.8174)" fill="#D9D9D9"/>
<rect width="7.75194" height="4.69124" rx="1.55039" transform="matrix(0.654119 0.756392 0.756392 -0.654119 182.938 42.8174)" fill="url(#paint35_linear_9373_235245)" fill-opacity="0.8"/>
<rect width="7.75194" height="4.69124" rx="1.55039" transform="matrix(0.654119 0.756392 0.756392 -0.654119 182.938 42.8174)" fill="url(#paint36_linear_9373_235245)"/>
<circle cx="156.583" cy="69.7663" r="27.907" fill="white"/>
<rect x="155.033" y="43.4102" width="4.65116" height="6.20155" rx="1.55039" fill="#D9D9D9"/>
<rect x="155.033" y="43.4102" width="4.65116" height="6.20155" rx="1.55039" fill="url(#paint37_linear_9373_235245)"/>
<rect x="155.033" y="89.9219" width="4.65116" height="6.20155" rx="1.55039" fill="#D9D9D9"/>
<rect x="155.033" y="89.9219" width="4.65116" height="6.20155" rx="1.55039" fill="url(#paint38_linear_9373_235245)"/>
<rect x="182.938" y="66.666" width="4.65116" height="6.20155" rx="1.55039" transform="rotate(90 182.938 66.666)" fill="#D9D9D9"/>
<rect x="182.938" y="66.666" width="4.65116" height="6.20155" rx="1.55039" transform="rotate(90 182.938 66.666)" fill="url(#paint39_linear_9373_235245)"/>
<rect x="136.834" y="66.666" width="4.65116" height="6.20155" rx="1.55039" transform="rotate(90 136.834 66.666)" fill="#D9D9D9"/>
<rect x="136.834" y="66.666" width="4.65116" height="6.20155" rx="1.55039" transform="rotate(90 136.834 66.666)" fill="url(#paint40_linear_9373_235245)"/>
<circle cx="157.356" cy="70.542" r="3.87597" fill="#EEEEF1"/>
<circle cx="157.359" cy="70.5424" r="2.32558" fill="#BDBDC1"/>
<rect x="156.582" y="51.1611" width="1.55039" height="24.8062" rx="0.775194" fill="url(#paint41_linear_9373_235245)"/>
<path d="M33.4444 124.03C33.4444 124.524 33.0443 124.924 32.5508 124.924C32.0572 124.924 31.6571 124.524 31.6571 124.03L33.4444 124.03ZM57.357 75.9683L48.4205 81.1278L48.4205 70.8088L57.357 75.9683ZM31.6571 124.03L31.6571 81.6251L33.4444 81.6251L33.4444 124.03L31.6571 124.03ZM38.2076 75.0746L49.3141 75.0746L49.3141 76.8619L38.2076 76.8619L38.2076 75.0746ZM31.6571 81.6251C31.6571 78.0074 34.5899 75.0746 38.2076 75.0746L38.2076 76.8619C35.577 76.8619 33.4444 78.9945 33.4444 81.6251L31.6571 81.6251Z" fill="#EEF2FC"/>
<defs>
<filter id="filter0_d_9373_235245" x="60.459" y="62.015" width="96.1246" height="114.729" filterUnits="userSpaceOnUse" color-interpolation-filters="sRGB">
<feFlood flood-opacity="0" result="BackgroundImageFix"/>
<feColorMatrix in="SourceAlpha" type="matrix" values="0 0 0 0 0 0 0 0 0 0 0 0 0 0 0 0 0 0 127 0" result="hardAlpha"/>
<feOffset dx="4.65116" dy="3.10078"/>
<feGaussianBlur stdDeviation="2.32558"/>
<feComposite in2="hardAlpha" operator="out"/>
<feColorMatrix type="matrix" values="0 0 0 0 0 0 0 0 0 0.1045 0 0 0 0 0.475 0 0 0 0.07 0"/>
<feBlend mode="normal" in2="BackgroundImageFix" result="effect1_dropShadow_9373_235245"/>
<feBlend mode="normal" in="SourceGraphic" in2="effect1_dropShadow_9373_235245" result="shape"/>
</filter>
<filter id="filter1_d_9373_235245" x="58.9082" y="58.9145" width="96.1246" height="114.729" filterUnits="userSpaceOnUse" color-interpolation-filters="sRGB">
<feFlood flood-opacity="0" result="BackgroundImageFix"/>
<feColorMatrix in="SourceAlpha" type="matrix" values="0 0 0 0 0 0 0 0 0 0 0 0 0 0 0 0 0 0 127 0" result="hardAlpha"/>
<feOffset dx="4.65116" dy="3.10078"/>
<feGaussianBlur stdDeviation="2.32558"/>
<feComposite in2="hardAlpha" operator="out"/>
<feColorMatrix type="matrix" values="0 0 0 0 0 0 0 0 0 0.1045 0 0 0 0 0.475 0 0 0 0.07 0"/>
<feBlend mode="normal" in2="BackgroundImageFix" result="effect1_dropShadow_9373_235245"/>
<feBlend mode="normal" in="SourceGraphic" in2="effect1_dropShadow_9373_235245" result="shape"/>
</filter>
<filter id="filter2_d_9373_235245" x="110.068" y="127.132" width="43.4117" height="43.4107" filterUnits="userSpaceOnUse" color-interpolation-filters="sRGB">
<feFlood flood-opacity="0" result="BackgroundImageFix"/>
<feColorMatrix in="SourceAlpha" type="matrix" values="0 0 0 0 0 0 0 0 0 0 0 0 0 0 0 0 0 0 127 0" result="hardAlpha"/>
<feOffset dx="4.65116" dy="3.10078"/>
<feGaussianBlur stdDeviation="2.32558"/>
<feComposite in2="hardAlpha" operator="out"/>
<feColorMatrix type="matrix" values="0 0 0 0 0 0 0 0 0 0.1045 0 0 0 0 0.475 0 0 0 0.07 0"/>
<feBlend mode="normal" in2="BackgroundImageFix" result="effect1_dropShadow_9373_235245"/>
<feBlend mode="normal" in="SourceGraphic" in2="effect1_dropShadow_9373_235245" result="shape"/>
</filter>
<linearGradient id="paint0_linear_9373_235245" x1="9.29011" y1="149.759" x2="54.5435" y2="149.759" gradientUnits="userSpaceOnUse">
<stop stop-color="#05E0E0"/>
<stop offset="1" stop-color="#02C8C8"/>
</linearGradient>
<radialGradient id="paint1_radial_9373_235245" cx="0" cy="0" r="1" gradientUnits="userSpaceOnUse" gradientTransform="translate(-11.8079 39.0217) rotate(34.8627) scale(260.204 314.007)">
<stop stop-color="#C5CDE4"/>
<stop offset="1" stop-color="#F0F5FF"/>
</radialGradient>
<radialGradient id="paint2_radial_9373_235245" cx="0" cy="0" r="1" gradientUnits="userSpaceOnUse" gradientTransform="translate(41.0791 73.6429) rotate(35.4104) scale(189.067 225.798)">
<stop stop-color="#AFB8D1"/>
<stop offset="1" stop-color="white"/>
</radialGradient>
<radialGradient id="paint3_radial_9373_235245" cx="0" cy="0" r="1" gradientUnits="userSpaceOnUse" gradientTransform="translate(39.5284 70.5424) rotate(35.4104) scale(189.067 225.798)">
<stop stop-color="#AFB8D1"/>
<stop offset="1" stop-color="white"/>
</radialGradient>
<linearGradient id="paint4_linear_9373_235245" x1="49.7253" y1="72.1502" x2="235.164" y2="202.767" gradientUnits="userSpaceOnUse">
<stop stop-color="#F9FBFF"/>
<stop offset="1" stop-color="#E2F1FA"/>
</linearGradient>
<radialGradient id="paint5_radial_9373_235245" cx="0" cy="0" r="1" gradientUnits="userSpaceOnUse" gradientTransform="translate(49.886 54.2471) rotate(7.93188) scale(100.597 35.3761)">
<stop stop-color="#C5CDE4"/>
<stop offset="1" stop-color="#F0F5FF"/>
</radialGradient>
<linearGradient id="paint6_linear_9373_235245" x1="72.9809" y1="75.3522" x2="78.0867" y2="93.0583" gradientUnits="userSpaceOnUse">
<stop stop-color="#FFB74B"/>
<stop offset="1" stop-color="#FCCA80"/>
</linearGradient>
<linearGradient id="paint7_linear_9373_235245" x1="72.9809" y1="75.3522" x2="78.0867" y2="93.0583" gradientUnits="userSpaceOnUse">
<stop stop-color="#FFB74B"/>
<stop offset="1" stop-color="#FCCA80"/>
</linearGradient>
<linearGradient id="paint8_linear_9373_235245" x1="72.9809" y1="75.3522" x2="78.0867" y2="93.0583" gradientUnits="userSpaceOnUse">
<stop stop-color="#FFB74B"/>
<stop offset="1" stop-color="#FCCA80"/>
</linearGradient>
<linearGradient id="paint9_linear_9373_235245" x1="72.9809" y1="75.3522" x2="78.0867" y2="93.0583" gradientUnits="userSpaceOnUse">
<stop stop-color="#FFB74B"/>
<stop offset="1" stop-color="#FCCA80"/>
</linearGradient>
<linearGradient id="paint10_linear_9373_235245" x1="72.9809" y1="75.3522" x2="78.0867" y2="93.0583" gradientUnits="userSpaceOnUse">
<stop stop-color="#FFB74B"/>
<stop offset="1" stop-color="#FCCA80"/>
</linearGradient>
<linearGradient id="paint11_linear_9373_235245" x1="72.9809" y1="75.3522" x2="78.0867" y2="93.0583" gradientUnits="userSpaceOnUse">
<stop stop-color="#FFB74B"/>
<stop offset="1" stop-color="#FCCA80"/>
</linearGradient>
<linearGradient id="paint12_linear_9373_235245" x1="86.8145" y1="81.3957" x2="134.876" y2="81.3957" gradientUnits="userSpaceOnUse">
<stop stop-color="#D2D9EE"/>
<stop offset="1" stop-color="#E7F0F8"/>
</linearGradient>
<linearGradient id="paint13_linear_9373_235245" x1="86.8145" y1="89.148" x2="122.473" y2="89.148" gradientUnits="userSpaceOnUse">
<stop stop-color="#D2D9EE"/>
<stop offset="1" stop-color="#E7F0F8"/>
</linearGradient>
<linearGradient id="paint14_linear_9373_235245" x1="86.8145" y1="89.148" x2="122.473" y2="89.148" gradientUnits="userSpaceOnUse">
<stop stop-color="#D2D9EE"/>
<stop offset="1" stop-color="#E7F0F8"/>
</linearGradient>
<linearGradient id="paint15_linear_9373_235245" x1="72.9809" y1="101.71" x2="78.0867" y2="119.416" gradientUnits="userSpaceOnUse">
<stop stop-color="#FFB74B"/>
<stop offset="1" stop-color="#FCCA80"/>
</linearGradient>
<linearGradient id="paint16_linear_9373_235245" x1="72.9809" y1="101.71" x2="78.0867" y2="119.416" gradientUnits="userSpaceOnUse">
<stop stop-color="#FFB74B"/>
<stop offset="1" stop-color="#FCCA80"/>
</linearGradient>
<linearGradient id="paint17_linear_9373_235245" x1="72.9809" y1="101.71" x2="78.0867" y2="119.416" gradientUnits="userSpaceOnUse">
<stop stop-color="#FFB74B"/>
<stop offset="1" stop-color="#FCCA80"/>
</linearGradient>
<linearGradient id="paint18_linear_9373_235245" x1="72.9809" y1="101.71" x2="78.0867" y2="119.416" gradientUnits="userSpaceOnUse">
<stop stop-color="#FFB74B"/>
<stop offset="1" stop-color="#FCCA80"/>
</linearGradient>
<linearGradient id="paint19_linear_9373_235245" x1="72.9809" y1="101.71" x2="78.0867" y2="119.416" gradientUnits="userSpaceOnUse">
<stop stop-color="#FFB74B"/>
<stop offset="1" stop-color="#FCCA80"/>
</linearGradient>
<linearGradient id="paint20_linear_9373_235245" x1="72.9809" y1="101.71" x2="78.0867" y2="119.416" gradientUnits="userSpaceOnUse">
<stop stop-color="#FFB74B"/>
<stop offset="1" stop-color="#FCCA80"/>
</linearGradient>
<linearGradient id="paint21_linear_9373_235245" x1="86.8145" y1="107.753" x2="134.876" y2="107.753" gradientUnits="userSpaceOnUse">
<stop stop-color="#D2D9EE"/>
<stop offset="1" stop-color="#E7F0F8"/>
</linearGradient>
<linearGradient id="paint22_linear_9373_235245" x1="86.8145" y1="115.505" x2="122.473" y2="115.505" gradientUnits="userSpaceOnUse">
<stop stop-color="#D2D9EE"/>
<stop offset="1" stop-color="#E7F0F8"/>
</linearGradient>
<linearGradient id="paint23_linear_9373_235245" x1="86.8145" y1="115.505" x2="122.473" y2="115.505" gradientUnits="userSpaceOnUse">
<stop stop-color="#D2D9EE"/>
<stop offset="1" stop-color="#E7F0F8"/>
</linearGradient>
<linearGradient id="paint24_linear_9373_235245" x1="66.6602" y1="140.311" x2="80.6136" y2="140.311" gradientUnits="userSpaceOnUse">
<stop stop-color="#D2D9EE"/>
<stop offset="1" stop-color="#E7F0F8"/>
</linearGradient>
<linearGradient id="paint25_linear_9373_235245" x1="66.6602" y1="140.311" x2="80.6136" y2="140.311" gradientUnits="userSpaceOnUse">
<stop stop-color="#D2D9EE"/>
<stop offset="1" stop-color="#E7F0F8"/>
</linearGradient>
<linearGradient id="paint26_linear_9373_235245" x1="86.8145" y1="137.21" x2="134.876" y2="137.21" gradientUnits="userSpaceOnUse">
<stop stop-color="#D2D9EE"/>
<stop offset="1" stop-color="#E7F0F8"/>
</linearGradient>
<linearGradient id="paint27_linear_9373_235245" x1="86.8145" y1="144.962" x2="122.473" y2="144.962" gradientUnits="userSpaceOnUse">
<stop stop-color="#D2D9EE"/>
<stop offset="1" stop-color="#E7F0F8"/>
</linearGradient>
<linearGradient id="paint28_linear_9373_235245" x1="86.8145" y1="144.962" x2="122.473" y2="144.962" gradientUnits="userSpaceOnUse">
<stop stop-color="#D2D9EE"/>
<stop offset="1" stop-color="#E7F0F8"/>
</linearGradient>
<linearGradient id="paint29_linear_9373_235245" x1="110.068" y1="145.737" x2="144.177" y2="145.737" gradientUnits="userSpaceOnUse">
<stop stop-color="#D2D9EE"/>
<stop offset="1" stop-color="#E7F0F8"/>
</linearGradient>
<linearGradient id="paint30_linear_9373_235245" x1="151.93" y1="34.8843" x2="201.542" y2="103.101" gradientUnits="userSpaceOnUse">
<stop stop-color="#05E0E0"/>
<stop offset="1" stop-color="#02C8C8"/>
</linearGradient>
<linearGradient id="paint31_linear_9373_235245" x1="155.809" y1="27.9072" x2="155.683" y2="31.6462" gradientUnits="userSpaceOnUse">
<stop stop-color="#64FBF5"/>
<stop offset="1" stop-color="#37E6DF"/>
</linearGradient>
<linearGradient id="paint32_linear_9373_235245" x1="155.153" y1="26.944" x2="156.228" y2="35.33" gradientUnits="userSpaceOnUse">
<stop stop-color="#FFB74B"/>
<stop offset="1" stop-color="#FCCA80"/>
</linearGradient>
<linearGradient id="paint33_linear_9373_235245" x1="127.899" y1="45.6104" x2="127.77" y2="48.436" gradientUnits="userSpaceOnUse">
<stop stop-color="#64FBF5"/>
<stop offset="1" stop-color="#37E6DF"/>
</linearGradient>
<linearGradient id="paint34_linear_9373_235245" x1="127.535" y1="44.8817" x2="128.627" y2="51.139" gradientUnits="userSpaceOnUse">
<stop stop-color="#FFB74B"/>
<stop offset="1" stop-color="#FCCA80"/>
</linearGradient>
<linearGradient id="paint35_linear_9373_235245" x1="3.87597" y1="-1.271e-08" x2="3.74646" y2="2.82562" gradientUnits="userSpaceOnUse">
<stop stop-color="#64FBF5"/>
<stop offset="1" stop-color="#37E6DF"/>
</linearGradient>
<linearGradient id="paint36_linear_9373_235245" x1="3.51191" y1="-0.728672" x2="4.60377" y2="5.52869" gradientUnits="userSpaceOnUse">
<stop stop-color="#FFB74B"/>
<stop offset="1" stop-color="#FCCA80"/>
</linearGradient>
<linearGradient id="paint37_linear_9373_235245" x1="155.033" y1="46.5109" x2="159.684" y2="46.5109" gradientUnits="userSpaceOnUse">
<stop stop-color="#D2D9EE"/>
<stop offset="1" stop-color="#E7F0F8"/>
</linearGradient>
<linearGradient id="paint38_linear_9373_235245" x1="155.033" y1="93.0227" x2="159.684" y2="93.0227" gradientUnits="userSpaceOnUse">
<stop stop-color="#D2D9EE"/>
<stop offset="1" stop-color="#E7F0F8"/>
</linearGradient>
<linearGradient id="paint39_linear_9373_235245" x1="182.938" y1="69.7668" x2="187.589" y2="69.7668" gradientUnits="userSpaceOnUse">
<stop stop-color="#D2D9EE"/>
<stop offset="1" stop-color="#E7F0F8"/>
</linearGradient>
<linearGradient id="paint40_linear_9373_235245" x1="136.834" y1="69.7668" x2="141.485" y2="69.7668" gradientUnits="userSpaceOnUse">
<stop stop-color="#D2D9EE"/>
<stop offset="1" stop-color="#E7F0F8"/>
</linearGradient>
<linearGradient id="paint41_linear_9373_235245" x1="157.284" y1="47.3081" x2="164.343" y2="48.8382" gradientUnits="userSpaceOnUse">
<stop stop-color="#FFB74B"/>
<stop offset="1" stop-color="#FCCA80"/>
</linearGradient>
</defs>
</svg>
