<svg width="120" height="121" viewBox="0 0 120 121" fill="none" xmlns="http://www.w3.org/2000/svg">
<rect x="28.1072" y="46.2762" width="57.6388" height="51.6205" rx="1.5" transform="rotate(4.44432 28.1072 46.2762)" fill="url(#paint0_linear_10859_366309)" stroke="#E1EDF8" stroke-width="1.5"/>
<rect x="24.2891" y="48.5938" width="57.6388" height="51.6205" rx="1.5" fill="url(#paint1_linear_10859_366309)" stroke="#E1EDF8" stroke-width="1.5"/>
<rect x="19.5" y="73.25" width="67.5" height="22.5" rx="1.00244" fill="url(#paint2_linear_10859_366309)"/>
<rect x="46.0898" y="77.4102" width="31.0768" height="8.01928" rx="0.501222" fill="#E1EDF8"/>
<rect x="46.0898" y="88.4375" width="15.0372" height="4.00964" rx="0.501222" fill="#E1EDF8"/>
<path d="M34.7133 90.2067H28.1824C27.6057 90.2067 27.136 90.6638 27.136 91.2319V92.0414C27.136 92.235 27.298 92.3937 27.4956 92.3937H35.4001C35.6009 92.3937 35.7597 92.235 35.7597 92.0414V91.2319C35.7597 90.6638 35.2899 90.2067 34.7133 90.2067Z" fill="url(#paint3_linear_10859_366309)"/>
<path d="M42.6219 89.5746L35.6572 83.5129L34.2962 84.8468L40.481 91.6729C41.062 92.3188 42.0759 92.3494 42.696 91.7417C43.316 91.134 43.2809 90.1403 42.6219 89.5746Z" fill="url(#paint4_linear_10859_366309)"/>
<path d="M28.9911 82.2103L32.9711 78.3095L36.6898 81.9542L32.7097 85.855L28.9911 82.2103Z" fill="url(#paint5_linear_10859_366309)"/>
<path d="M37.0433 81.7639C37.4095 82.1228 38.0022 82.1228 38.3683 81.7639C38.7345 81.405 38.7345 80.8241 38.3683 80.4652L34.4993 76.6731C34.3162 76.4937 34.0753 76.4039 33.8367 76.4063C33.5982 76.4039 33.3573 76.4937 33.1742 76.6731C32.808 77.032 32.808 77.6129 33.1742 77.9718L37.0433 81.7639Z" fill="url(#paint6_linear_10859_366309)"/>
<path d="M31.1867 87.504C31.5529 87.8629 32.1455 87.8629 32.5117 87.504C32.8779 87.1451 32.8779 86.5642 32.5117 86.2053L28.6426 82.4132C28.4595 82.2338 28.2186 82.1441 27.9825 82.1441C27.7416 82.1441 27.5007 82.2338 27.3176 82.4132C26.9514 82.7721 26.9514 83.353 27.3176 83.7119L31.1867 87.504Z" fill="url(#paint7_linear_10859_366309)"/>
<rect x="28.0469" y="64.3789" width="34.0842" height="3.00723" rx="0.501222" fill="#E1EDF8"/>
<rect x="28.0469" y="55.3594" width="42.1041" height="3.00723" rx="0.501222" fill="#E1EDF8"/>
<g opacity="0.5">
<path d="M62.6245 21.4981L64.875 28.248L77.1722 17.1005L75.2925 15.5633L62.6245 21.4981Z" fill="#05E0AB"/>
<path d="M62.6245 21.4981L64.875 28.248L77.1722 17.1005L75.2925 15.5633L62.6245 21.4981Z" fill="url(#paint8_linear_10859_366309)"/>
</g>
<path d="M64.7554 27.8345C65.0246 26.5521 65.2952 25.2702 65.5602 23.9868C65.5881 23.8514 65.6445 23.7579 65.7599 23.6771C67.5985 22.3954 69.4341 21.1098 71.2703 19.8247C72.4363 19.0085 73.6019 18.1922 74.7679 17.3756C74.7942 17.3573 74.832 17.3425 74.8429 17.3166C74.87 17.2523 74.8851 17.1824 74.9049 17.1147C74.833 17.0939 74.7478 17.0369 74.6915 17.0581C74.4388 17.1525 74.1943 17.2692 73.9474 17.3781C70.3332 18.9713 66.719 20.5641 63.1066 22.1615C62.9851 22.2153 62.8945 22.2009 62.7834 22.145C61.4068 21.4504 60.0285 20.7594 58.6507 20.0678C58.36 19.9223 58.2098 19.675 58.239 19.388C58.2692 19.0907 58.4488 18.8854 58.776 18.8074C60.7013 18.3494 62.6277 17.8951 64.5542 17.4407C67.8813 16.6559 71.2087 15.8719 74.5361 15.0875C75.5679 14.8442 76.5997 14.6008 77.6316 14.3566C78.0629 14.2542 78.4402 14.3501 78.735 14.6846C79.023 15.0115 79.0862 15.3908 78.9342 15.8044C78.3632 17.3607 77.793 18.917 77.2224 20.4733C76.2947 23.0048 75.3671 25.5359 74.439 28.0674C74.2103 28.691 73.9517 29.3055 73.757 29.9396C73.5546 30.5985 72.7628 30.8686 72.1966 30.2826C71.1005 29.149 69.9765 28.0424 68.8638 26.9249C68.6732 26.7333 68.4756 26.5479 68.293 26.3489C68.1901 26.2366 68.1178 26.2271 67.9909 26.3239C67.1299 26.9794 66.2624 27.6261 65.3961 28.275C65.3397 28.3173 65.2829 28.3623 65.2203 28.3936C64.9764 28.5143 64.7024 28.3348 64.7144 28.0627C64.718 27.9858 64.7343 27.9094 64.7448 27.8327L64.7554 27.8345Z" fill="#05E0AC"/>
<path d="M64.7554 27.8345C65.0246 26.5521 65.2952 25.2702 65.5602 23.9868C65.5881 23.8514 65.6445 23.7579 65.7599 23.6771C67.5985 22.3954 69.4341 21.1098 71.2703 19.8247C72.4363 19.0085 73.6019 18.1922 74.7679 17.3756C74.7942 17.3573 74.832 17.3425 74.8429 17.3166C74.87 17.2523 74.8851 17.1824 74.9049 17.1147C74.833 17.0939 74.7478 17.0369 74.6915 17.0581C74.4388 17.1525 74.1943 17.2692 73.9474 17.3781C70.3332 18.9713 66.719 20.5641 63.1066 22.1615C62.9851 22.2153 62.8945 22.2009 62.7834 22.145C61.4068 21.4504 60.0285 20.7594 58.6507 20.0678C58.36 19.9223 58.2098 19.675 58.239 19.388C58.2692 19.0907 58.4488 18.8854 58.776 18.8074C60.7013 18.3494 62.6277 17.8951 64.5542 17.4407C67.8813 16.6559 71.2087 15.8719 74.5361 15.0875C75.5679 14.8442 76.5997 14.6008 77.6316 14.3566C78.0629 14.2542 78.4402 14.3501 78.735 14.6846C79.023 15.0115 79.0862 15.3908 78.9342 15.8044C78.3632 17.3607 77.793 18.917 77.2224 20.4733C76.2947 23.0048 75.3671 25.5359 74.439 28.0674C74.2103 28.691 73.9517 29.3055 73.757 29.9396C73.5546 30.5985 72.7628 30.8686 72.1966 30.2826C71.1005 29.149 69.9765 28.0424 68.8638 26.9249C68.6732 26.7333 68.4756 26.5479 68.293 26.3489C68.1901 26.2366 68.1178 26.2271 67.9909 26.3239C67.1299 26.9794 66.2624 27.6261 65.3961 28.275C65.3397 28.3173 65.2829 28.3623 65.2203 28.3936C64.9764 28.5143 64.7024 28.3348 64.7144 28.0627C64.718 27.9858 64.7343 27.9094 64.7448 27.8327L64.7554 27.8345Z" fill="url(#paint9_linear_10859_366309)"/>
<path d="M60.3724 29.0075C55.313 26.7909 36.0873 24.9763 37.4972 32.758C38.4302 37.9072 56.9976 38.3828 44.7726 46.4805" stroke="#81ECEC" stroke-width="1.00244" stroke-linecap="round" stroke-dasharray="3.01 3.01"/>
<g filter="url(#filter0_d_10859_366309)">
<rect x="66" y="67.25" width="33" height="42.75" rx="0.75" fill="url(#paint10_linear_10859_366309)"/>
</g>
<path d="M71.1061 96.4991C71.3126 96.2808 71.51 96.0714 71.708 95.8635C72.1721 95.3761 72.6357 94.8892 73.099 94.4028C73.3147 94.1767 73.6426 94.2059 73.8013 94.4614C73.9195 94.6514 73.8949 94.884 73.7321 95.0557C73.2837 95.5293 72.8346 96.0021 72.3847 96.4738C72.072 96.8025 71.7593 97.1311 71.4465 97.4595C71.2369 97.6792 70.9827 97.6806 70.7721 97.4611C70.4758 97.1532 70.1811 96.8438 69.8879 96.5329C69.7579 96.3956 69.718 96.2305 69.7759 96.047C69.8339 95.8635 69.9602 95.7629 70.1374 95.7344C70.2839 95.7108 70.4108 95.7641 70.515 95.8737C70.7086 96.0775 70.9015 96.2822 71.1061 96.4991Z" fill="#81EBEB"/>
<path d="M71.1061 104.749C71.3126 104.531 71.51 104.321 71.708 104.114C72.1721 103.626 72.6357 103.139 73.099 102.653C73.3147 102.427 73.6426 102.456 73.8013 102.711C73.9195 102.901 73.8949 103.134 73.7321 103.306C73.2837 103.779 72.8346 104.252 72.3847 104.724C72.072 105.053 71.7593 105.381 71.4465 105.709C71.2369 105.929 70.9827 105.931 70.7721 105.711C70.4758 105.403 70.1811 105.094 69.8879 104.783C69.7579 104.646 69.718 104.48 69.7759 104.297C69.8339 104.114 69.9602 104.013 70.1374 103.984C70.2839 103.961 70.4108 104.014 70.515 104.124C70.7086 104.328 70.9015 104.532 71.1061 104.749Z" fill="#81EBEB"/>
<path d="M85.5 75.5C85.5 77.1569 84.1569 78.5 82.5 78.5C80.8431 78.5 79.5 77.1569 79.5 75.5C79.5 73.8431 80.8431 72.5 82.5 72.5C84.1569 72.5 85.5 73.8431 85.5 75.5Z" fill="#81EBEB"/>
<path d="M88.5 84.125C88.5 85.989 88.5 87.5 82.5 87.5C76.5 87.5 76.5 85.989 76.5 84.125C76.5 82.261 79.1863 80.75 82.5 80.75C85.8137 80.75 88.5 82.261 88.5 84.125Z" fill="#81EBEB"/>
<rect x="77.25" y="92.75" width="18.75" height="6.75" rx="0.75" fill="#81EBEB"/>
<rect x="77.25" y="101" width="18.75" height="6.75" rx="0.75" fill="#81EBEB"/>
<rect x="68.4375" y="92.9375" width="6.375" height="6.375" rx="0.5625" stroke="#81EBEB" stroke-width="0.375"/>
<rect x="68.4375" y="101.188" width="6.375" height="6.375" rx="0.5625" stroke="#81EBEB" stroke-width="0.375"/>
<defs>
<filter id="filter0_d_10859_366309" x="61.35" y="66.35" width="37.8" height="47.55" filterUnits="userSpaceOnUse" color-interpolation-filters="sRGB">
<feFlood flood-opacity="0" result="BackgroundImageFix"/>
<feColorMatrix in="SourceAlpha" type="matrix" values="0 0 0 0 0 0 0 0 0 0 0 0 0 0 0 0 0 0 127 0" result="hardAlpha"/>
<feOffset dx="-2.25" dy="1.5"/>
<feGaussianBlur stdDeviation="1.2"/>
<feComposite in2="hardAlpha" operator="out"/>
<feColorMatrix type="matrix" values="0 0 0 0 0 0 0 0 0 0.454167 0 0 0 0 0.263417 0 0 0 0.07 0"/>
<feBlend mode="normal" in2="BackgroundImageFix" result="effect1_dropShadow_10859_366309"/>
<feBlend mode="normal" in="SourceGraphic" in2="effect1_dropShadow_10859_366309" result="shape"/>
</filter>
<linearGradient id="paint0_linear_10859_366309" x1="20.8799" y1="30.0769" x2="54.2658" y2="114.499" gradientUnits="userSpaceOnUse">
<stop stop-color="white"/>
<stop offset="1" stop-color="#E2F1FA"/>
</linearGradient>
<linearGradient id="paint1_linear_10859_366309" x1="17.1221" y1="32.3386" x2="65.417" y2="135.538" gradientUnits="userSpaceOnUse">
<stop stop-color="white"/>
<stop offset="1" stop-color="#F4FBFF"/>
</linearGradient>
<linearGradient id="paint2_linear_10859_366309" x1="3.31074" y1="61.6165" x2="6.38831" y2="122.087" gradientUnits="userSpaceOnUse">
<stop stop-color="white"/>
<stop offset="1" stop-color="#D9EAF3"/>
</linearGradient>
<linearGradient id="paint3_linear_10859_366309" x1="24.2693" y1="83.634" x2="46.1552" y2="83.634" gradientUnits="userSpaceOnUse">
<stop stop-color="#05E0E0"/>
<stop offset="1" stop-color="#02C8C8"/>
</linearGradient>
<linearGradient id="paint4_linear_10859_366309" x1="24.2693" y1="83.634" x2="46.1552" y2="83.634" gradientUnits="userSpaceOnUse">
<stop stop-color="#05E0E0"/>
<stop offset="1" stop-color="#02C8C8"/>
</linearGradient>
<linearGradient id="paint5_linear_10859_366309" x1="24.2693" y1="83.634" x2="46.1552" y2="83.634" gradientUnits="userSpaceOnUse">
<stop stop-color="#05E0E0"/>
<stop offset="1" stop-color="#02C8C8"/>
</linearGradient>
<linearGradient id="paint6_linear_10859_366309" x1="24.2693" y1="83.634" x2="46.1552" y2="83.634" gradientUnits="userSpaceOnUse">
<stop stop-color="#05E0E0"/>
<stop offset="1" stop-color="#02C8C8"/>
</linearGradient>
<linearGradient id="paint7_linear_10859_366309" x1="24.2693" y1="83.634" x2="46.1552" y2="83.634" gradientUnits="userSpaceOnUse">
<stop stop-color="#05E0E0"/>
<stop offset="1" stop-color="#02C8C8"/>
</linearGradient>
<linearGradient id="paint8_linear_10859_366309" x1="60.4395" y1="19.9079" x2="79.0507" y2="22.4583" gradientUnits="userSpaceOnUse">
<stop stop-color="#05E0E0"/>
<stop offset="1" stop-color="#02C8C8"/>
</linearGradient>
<linearGradient id="paint9_linear_10859_366309" x1="54.8287" y1="18.8238" x2="81.837" y2="22.5248" gradientUnits="userSpaceOnUse">
<stop stop-color="#05E0E0"/>
<stop offset="1" stop-color="#02C8C8"/>
</linearGradient>
<linearGradient id="paint10_linear_10859_366309" x1="60.3136" y1="86.5767" x2="105.183" y2="86.5767" gradientUnits="userSpaceOnUse">
<stop stop-color="#05E0E0"/>
<stop offset="1" stop-color="#02C8C8"/>
</linearGradient>
</defs>
</svg>
