<svg width="120" height="120" viewBox="0 0 120 120" fill="none" xmlns="http://www.w3.org/2000/svg">
<path d="M102.472 36.5938H60.3459C54.4713 36.5938 49.7109 41.3262 49.7109 47.1606V82.7931C49.7109 88.6301 54.4738 93.36 60.3459 93.36H74.0012L79.9586 103.613C80.6035 104.72 82.2121 104.72 82.857 103.613L88.8143 93.36H102.47C108.344 93.36 113.105 88.6276 113.105 82.7931V47.1606C113.105 41.3237 108.342 36.5938 102.47 36.5938H102.472Z" fill="url(#paint0_linear_8030_785172)"/>
<g opacity="0.5">
<path d="M81.4872 82.0495C79.1171 82.0495 76.7464 82.0495 74.3763 82.0495C73.2049 82.0495 72.0978 81.8185 71.1175 81.1381C69.949 80.3268 69.2885 79.1964 69.1411 77.7974C68.9568 76.0485 69.1496 74.3167 69.52 72.6026C69.8386 71.1297 70.3671 69.7489 71.3468 68.5809C72.4556 67.2599 73.9104 66.6682 75.6114 66.679C75.8862 66.6807 76.1804 66.8212 76.429 66.9623C76.9393 67.2525 77.4149 67.6035 77.9224 67.8993C79.7441 68.9604 81.6454 69.2653 83.6753 68.5274C84.453 68.2447 85.1795 67.8715 85.8116 67.3617C86.8647 66.5129 87.9849 66.5629 89.1671 66.9481C90.6491 67.4311 91.6681 68.4409 92.3923 69.7847C93.2923 71.4545 93.6399 73.2733 93.7731 75.1366C93.8356 76.0121 93.8669 76.9042 93.7731 77.7735C93.5347 79.9638 92.0692 81.5016 89.8976 81.9198C89.4265 82.0102 88.9378 82.041 88.4571 82.0432C86.1342 82.0558 83.8113 82.0489 81.4884 82.0489L81.4872 82.0495Z" fill="white"/>
<path d="M81.2662 66.6242C77.286 66.6122 74.1154 63.4285 74.1211 59.4501C74.1268 55.4722 77.3173 52.284 81.2833 52.2925C85.2594 52.301 88.434 55.4898 88.4272 59.4671C88.4204 63.449 85.231 66.6367 81.2668 66.6247L81.2662 66.6242Z" fill="white"/>
</g>
<path d="M60.2633 16.1729H17.1252C11.603 16.1729 7.125 20.6404 7.125 26.1496V74.119C7.125 76.2471 9.74902 77.2789 11.2168 75.73L21.815 64.5425H60.2633C65.7855 64.5425 70.2635 60.075 70.2635 54.5658V26.1496C70.2635 20.6404 65.7855 16.1729 60.2633 16.1729Z" fill="url(#paint1_linear_8030_785172)"/>
<g clip-path="url(#clip0_8030_785172)">
<path opacity="0.5" d="M39.4388 50.4297H27.647C26.6059 50.4297 25.7578 51.272 25.7578 52.3189V53.8105C25.7578 54.1672 26.0503 54.4597 26.407 54.4597H40.6788C41.0414 54.4597 41.328 54.1672 41.328 53.8105V52.3189C41.328 51.272 40.4799 50.4297 39.4388 50.4297Z" fill="url(#paint2_linear_8030_785172)"/>
<path d="M53.7179 49.2651L41.143 38.0953L38.6858 40.5532L49.8525 53.1315C50.9015 54.3217 52.7322 54.378 53.8516 53.2583C54.9711 52.1385 54.9078 50.3074 53.7179 49.2651Z" fill="url(#paint3_linear_8030_785172)"/>
<path d="M29.1072 35.695L36.2932 28.507L43.0073 35.223L35.8213 42.411L29.1072 35.695Z" fill="url(#paint4_linear_8030_785172)"/>
<path d="M43.6457 34.8724C44.3068 35.5337 45.3769 35.5337 46.038 34.8724C46.6992 34.211 46.6992 33.1407 46.038 32.4794L39.0523 25.4918C38.7218 25.1611 38.2868 24.9957 37.8561 25.0001C37.4255 24.9957 36.9906 25.1611 36.66 25.4918C35.9988 26.1531 35.9988 27.2234 36.66 27.8848L43.6457 34.8724Z" fill="url(#paint5_linear_8030_785172)"/>
<path d="M33.0714 45.4495C33.7326 46.1109 34.8026 46.1109 35.4638 45.4495C36.125 44.7882 36.1249 43.7178 35.4638 43.0565L28.4781 36.0689C28.1475 35.7382 27.7125 35.5729 27.2863 35.5729C26.8513 35.5729 26.4163 35.7382 26.0857 36.0689C25.4246 36.7302 25.4246 37.8006 26.0857 38.4619L33.0714 45.4495Z" fill="url(#paint6_linear_8030_785172)"/>
</g>
<defs>
<linearGradient id="paint0_linear_8030_785172" x1="44.0814" y1="108.257" x2="126.459" y2="84.6444" gradientUnits="userSpaceOnUse">
<stop stop-color="#05E0E0"/>
<stop offset="1" stop-color="#02E2E2"/>
</linearGradient>
<linearGradient id="paint1_linear_8030_785172" x1="-6.03901" y1="84.6803" x2="89.6745" y2="57.9736" gradientUnits="userSpaceOnUse">
<stop stop-color="#E7EEF8"/>
<stop offset="1" stop-color="#E1EDF4"/>
</linearGradient>
<linearGradient id="paint2_linear_8030_785172" x1="32.8117" y1="49.8037" x2="33.2228" y2="55.3121" gradientUnits="userSpaceOnUse">
<stop stop-color="#FFB74B"/>
<stop offset="1" stop-color="#FCCA80"/>
</linearGradient>
<linearGradient id="paint3_linear_8030_785172" x1="38.7562" y1="20.4858" x2="49.3897" y2="57.3649" gradientUnits="userSpaceOnUse">
<stop stop-color="#FFB74B"/>
<stop offset="1" stop-color="#FCCA80"/>
</linearGradient>
<linearGradient id="paint4_linear_8030_785172" x1="38.7562" y1="20.4858" x2="49.3897" y2="57.3649" gradientUnits="userSpaceOnUse">
<stop stop-color="#FFB74B"/>
<stop offset="1" stop-color="#FCCA80"/>
</linearGradient>
<linearGradient id="paint5_linear_8030_785172" x1="38.7562" y1="20.4858" x2="49.3897" y2="57.3649" gradientUnits="userSpaceOnUse">
<stop stop-color="#FFB74B"/>
<stop offset="1" stop-color="#FCCA80"/>
</linearGradient>
<linearGradient id="paint6_linear_8030_785172" x1="38.7562" y1="20.4858" x2="49.3897" y2="57.3649" gradientUnits="userSpaceOnUse">
<stop stop-color="#FFB74B"/>
<stop offset="1" stop-color="#FCCA80"/>
</linearGradient>
<clipPath id="clip0_8030_785172">
<rect width="31" height="31" fill="white" transform="translate(23.6523 25)"/>
</clipPath>
</defs>
</svg>
