<svg width="170" height="171" viewBox="0 0 170 171" fill="none" xmlns="http://www.w3.org/2000/svg">
<rect x="71.0295" y="56.799" width="75.0984" height="96.0523" rx="2.61966" fill="url(#paint0_linear_10764_60833)" stroke="#E1EDF8" stroke-width="1.74644"/>
<rect x="71.9023" y="57.668" width="73.3519" height="12.2248" fill="#E1EDF8"/>
<ellipse cx="78.0142" cy="63.7876" rx="2.61971" ry="2.61961" fill="#13C7C7"/>
<ellipse cx="84.9986" cy="63.7876" rx="2.61971" ry="2.61961" fill="#FFD056"/>
<ellipse cx="91.9869" cy="63.7876" rx="2.61971" ry="2.61961" fill="#FF7474"/>
<rect x="77.1406" y="120.535" width="62.873" height="13.9712" rx="0.87322" fill="#D9D9D9"/>
<rect x="77.1406" y="120.535" width="62.873" height="13.9712" rx="0.87322" fill="#DAE5F6"/>
<rect x="77.1406" y="138.004" width="41.9154" height="8.73203" rx="0.87322" fill="#DAE5F6"/>
<rect width="19.2112" height="8.73203" rx="0.87322" transform="matrix(-1 0 0 1 140.016 138.004)" fill="#D9D9D9"/>
<rect width="19.2112" height="8.73203" rx="0.87322" transform="matrix(-1 0 0 1 140.016 138.004)" fill="#DAE5F6"/>
<path d="M108.753 104.256H96.7071C95.6435 104.256 94.7771 105.105 94.7771 106.16V107.664C94.7771 108.023 95.0758 108.318 95.4403 108.318H110.02C110.391 108.318 110.683 108.023 110.683 107.664V106.16C110.683 105.105 109.817 104.256 108.753 104.256Z" fill="white"/>
<path d="M108.753 104.256H96.7071C95.6435 104.256 94.7771 105.105 94.7771 106.16V107.664C94.7771 108.023 95.0758 108.318 95.4403 108.318H110.02C110.391 108.318 110.683 108.023 110.683 107.664V106.16C110.683 105.105 109.817 104.256 108.753 104.256Z" fill="url(#paint1_linear_10764_60833)"/>
<path d="M123.341 103.083L110.494 91.826L107.984 94.3031L119.392 106.979C120.464 108.179 122.334 108.236 123.478 107.107C124.621 105.979 124.556 104.133 123.341 103.083Z" fill="white"/>
<path d="M123.341 103.083L110.494 91.826L107.984 94.3031L119.392 106.979C120.464 108.179 122.334 108.236 123.478 107.107C124.621 105.979 124.556 104.133 123.341 103.083Z" fill="url(#paint2_linear_10764_60833)"/>
<path d="M98.1987 89.4071L105.54 82.1632L112.399 88.9314L105.058 96.1753L98.1987 89.4071Z" fill="white"/>
<path d="M98.1987 89.4071L105.54 82.1632L112.399 88.9314L105.058 96.1753L98.1987 89.4071Z" fill="url(#paint3_linear_10764_60833)"/>
<path d="M113.051 88.5781C113.727 89.2446 114.82 89.2446 115.495 88.5781C116.171 87.9116 116.171 86.8329 115.495 86.1665L108.359 79.1245C108.021 78.7912 107.577 78.6246 107.137 78.629C106.697 78.6246 106.252 78.7912 105.915 79.1245C105.239 79.791 105.239 80.8696 105.915 81.5361L113.051 88.5781Z" fill="white"/>
<path d="M113.051 88.5781C113.727 89.2446 114.82 89.2446 115.495 88.5781C116.171 87.9116 116.171 86.8329 115.495 86.1665L108.359 79.1245C108.021 78.7912 107.577 78.6246 107.137 78.629C106.697 78.6246 106.252 78.7912 105.915 79.1245C105.239 79.791 105.239 80.8696 105.915 81.5361L113.051 88.5781Z" fill="url(#paint4_linear_10764_60833)"/>
<path d="M102.249 99.2375C102.924 99.904 104.017 99.904 104.693 99.2375C105.368 98.571 105.368 97.4924 104.693 96.8259L97.5561 89.7839C97.2183 89.4507 96.774 89.2841 96.3385 89.2841C95.8941 89.2841 95.4498 89.4507 95.112 89.7839C94.4366 90.4504 94.4366 91.5291 95.112 92.1956L102.249 99.2375Z" fill="white"/>
<path d="M102.249 99.2375C102.924 99.904 104.017 99.904 104.693 99.2375C105.368 98.571 105.368 97.4924 104.693 96.8259L97.5561 89.7839C97.2183 89.4507 96.774 89.2841 96.3385 89.2841C95.8941 89.2841 95.4498 89.4507 95.112 89.7839C94.4366 90.4504 94.4366 91.5291 95.112 92.1956L102.249 99.2375Z" fill="url(#paint5_linear_10764_60833)"/>
<g filter="url(#filter0_d_10764_60833)">
<rect x="23" y="17.5" width="55.8871" height="55.8767" rx="27.9384" fill="url(#paint6_linear_10764_60833)"/>
</g>
<ellipse cx="50.6958" cy="45.4292" rx="24.2232" ry="24.2182" fill="white"/>
<path d="M50.3395 53.3089C49.3745 53.3086 48.4465 52.9378 47.7471 52.273C47.0477 51.6083 46.6303 50.7003 46.5812 49.7368L45.7705 33.8736C45.7445 33.3638 45.8225 32.8541 45.9998 32.3754C46.177 31.8967 46.4498 31.459 46.8015 31.089C47.1532 30.719 47.5765 30.4244 48.0457 30.2231C48.5149 30.0218 49.0201 29.918 49.5306 29.918H51.1485C51.6589 29.9182 52.1639 30.0222 52.6328 30.2236C53.1018 30.425 53.5249 30.7197 53.8764 31.0897C54.2279 31.4596 54.5005 31.8972 54.6777 32.3758C54.8548 32.8544 54.9328 33.364 54.9068 33.8736L54.0979 49.7391C54.0479 50.7022 53.6302 51.6094 52.9309 52.2736C52.2316 52.9378 51.3041 53.3084 50.3395 53.3089Z" fill="white"/>
<path d="M50.3395 53.3089C49.3745 53.3086 48.4465 52.9378 47.7471 52.273C47.0477 51.6083 46.6303 50.7003 46.5812 49.7368L45.7705 33.8736C45.7445 33.3638 45.8225 32.8541 45.9998 32.3754C46.177 31.8967 46.4498 31.459 46.8015 31.089C47.1532 30.719 47.5765 30.4244 48.0457 30.2231C48.5149 30.0218 49.0201 29.918 49.5306 29.918H51.1485C51.6589 29.9182 52.1639 30.0222 52.6328 30.2236C53.1018 30.425 53.5249 30.7197 53.8764 31.0897C54.2279 31.4596 54.5005 31.8972 54.6777 32.3758C54.8548 32.8544 54.9328 33.364 54.9068 33.8736L54.0979 49.7391C54.0479 50.7022 53.6302 51.6094 52.9309 52.2736C52.2316 52.9378 51.3041 53.3084 50.3395 53.3089Z" fill="url(#paint7_linear_10764_60833)"/>
<path d="M53.9996 59.2491C53.9996 57.2303 52.3627 55.5938 50.3435 55.5938C48.3244 55.5938 46.6875 57.2303 46.6875 59.2491C46.6875 61.2679 48.3244 62.9045 50.3435 62.9045C52.3627 62.9045 53.9996 61.2679 53.9996 59.2491Z" fill="white"/>
<path d="M53.9996 59.2491C53.9996 57.2303 52.3627 55.5938 50.3435 55.5938C48.3244 55.5938 46.6875 57.2303 46.6875 59.2491C46.6875 61.2679 48.3244 62.9045 50.3435 62.9045C52.3627 62.9045 53.9996 61.2679 53.9996 59.2491Z" fill="url(#paint8_linear_10764_60833)"/>
<path d="M68.4102 124.035L59.678 129.077L59.678 118.994L68.4102 124.035ZM50.0722 76.8822L50.0722 76.009L51.8186 76.009L51.8186 76.8822L50.0722 76.8822ZM60.5512 124.908L59.6776 124.908L59.6776 123.162L60.5512 123.162L60.5512 124.908ZM50.0722 115.303L50.0722 76.8822L51.8186 76.8822L51.8186 115.303L50.0722 115.303ZM59.6776 124.908C54.3727 124.908 50.0722 120.608 50.0722 115.303L51.8186 115.303C51.8186 119.643 55.3372 123.162 59.6776 123.162L59.6776 124.908Z" fill="#DFE4F1"/>
<defs>
<filter id="filter0_d_10764_60833" x="14.6094" y="10.7875" width="65.9554" height="65.9437" filterUnits="userSpaceOnUse" color-interpolation-filters="sRGB">
<feFlood flood-opacity="0" result="BackgroundImageFix"/>
<feColorMatrix in="SourceAlpha" type="matrix" values="0 0 0 0 0 0 0 0 0 0 0 0 0 0 0 0 0 0 127 0" result="hardAlpha"/>
<feOffset dx="-3.35624" dy="-1.67812"/>
<feGaussianBlur stdDeviation="2.51718"/>
<feComposite in2="hardAlpha" operator="out"/>
<feColorMatrix type="matrix" values="0 0 0 0 0 0 0 0 0 0.175 0 0 0 0 0.4375 0 0 0 0.07 0"/>
<feBlend mode="normal" in2="BackgroundImageFix" result="effect1_dropShadow_10764_60833"/>
<feBlend mode="normal" in="SourceGraphic" in2="effect1_dropShadow_10764_60833" result="shape"/>
</filter>
<linearGradient id="paint0_linear_10764_60833" x1="70.1563" y1="69.897" x2="156.864" y2="141.838" gradientUnits="userSpaceOnUse">
<stop stop-color="white"/>
<stop offset="1" stop-color="#E2F1FA"/>
</linearGradient>
<linearGradient id="paint1_linear_10764_60833" x1="89.914" y1="79.1395" x2="125.195" y2="115.438" gradientUnits="userSpaceOnUse">
<stop stop-color="#FFAC4B"/>
<stop offset="1" stop-color="#FCCA80"/>
</linearGradient>
<linearGradient id="paint2_linear_10764_60833" x1="89.914" y1="79.1395" x2="125.195" y2="115.438" gradientUnits="userSpaceOnUse">
<stop stop-color="#FFAC4B"/>
<stop offset="1" stop-color="#FCCA80"/>
</linearGradient>
<linearGradient id="paint3_linear_10764_60833" x1="89.914" y1="79.1395" x2="125.195" y2="115.438" gradientUnits="userSpaceOnUse">
<stop stop-color="#FFAC4B"/>
<stop offset="1" stop-color="#FCCA80"/>
</linearGradient>
<linearGradient id="paint4_linear_10764_60833" x1="89.914" y1="79.1395" x2="125.195" y2="115.438" gradientUnits="userSpaceOnUse">
<stop stop-color="#FFAC4B"/>
<stop offset="1" stop-color="#FCCA80"/>
</linearGradient>
<linearGradient id="paint5_linear_10764_60833" x1="89.914" y1="79.1395" x2="125.195" y2="115.438" gradientUnits="userSpaceOnUse">
<stop stop-color="#FFAC4B"/>
<stop offset="1" stop-color="#FCCA80"/>
</linearGradient>
<linearGradient id="paint6_linear_10764_60833" x1="48.3189" y1="8.82089" x2="68.7601" y2="79.728" gradientUnits="userSpaceOnUse">
<stop stop-color="#FF4B4B"/>
<stop offset="1" stop-color="#FFB6B6"/>
</linearGradient>
<linearGradient id="paint7_linear_10764_60833" x1="49.9091" y1="26.2847" x2="65.266" y2="47.1101" gradientUnits="userSpaceOnUse">
<stop stop-color="#FF4B4B"/>
<stop offset="1" stop-color="#FFB6B6"/>
</linearGradient>
<linearGradient id="paint8_linear_10764_60833" x1="50.0001" y1="54.4582" x2="52.6746" y2="63.7354" gradientUnits="userSpaceOnUse">
<stop stop-color="#FF4B4B"/>
<stop offset="1" stop-color="#FFB6B6"/>
</linearGradient>
</defs>
</svg>
