<svg width="170" height="170" viewBox="0 0 170 170" fill="none" xmlns="http://www.w3.org/2000/svg">
<rect x="16" y="16" width="103" height="120" rx="4" fill="url(#paint0_linear_10713_83753)"/>
<rect x="19" y="19" width="97" height="114" rx="2" fill="url(#paint1_linear_10713_83753)"/>
<rect width="82" height="22" transform="translate(27 25)" fill="url(#paint2_linear_10713_83753)"/>
<path d="M44.0852 39.2515C43.7752 39.2472 43.4653 39.2507 43.1549 39.2499C43.1149 39.2499 43.0749 39.2441 43.0263 39.2406C43.0651 39.1664 43.1001 39.1085 43.1277 39.0472C43.2691 38.7273 43.1627 38.3628 42.883 38.2027C42.5703 38.0238 42.204 38.1066 41.9969 38.4046C41.9499 38.4726 41.9076 38.5441 41.8598 38.6113C41.6877 38.8523 41.5347 39.1113 41.3358 39.3273C41.1594 39.5199 41.0359 39.7238 41.065 39.9773C41.1019 40.2988 40.8953 40.4957 40.7578 40.7464C40.4777 40.571 40.2046 40.4128 39.9455 40.2343C39.5547 39.9656 39.1333 39.7851 38.6644 39.7156C38.6057 39.707 38.5432 39.6812 38.4954 39.6457C38.363 39.5472 38.2363 39.441 38.1097 39.3347C37.9772 39.223 38.0064 39.0292 38.1617 38.9535C38.8376 38.6234 39.2925 38.0996 39.5229 37.3781C39.5357 37.3375 39.5508 37.2976 39.5644 37.2597C40.1285 37.3183 40.4315 37.1121 40.588 36.5628C40.6634 36.2968 40.6805 36.0257 40.6335 35.7515C40.5495 35.2597 40.3398 35.0332 39.8659 34.9222C39.8597 34.9207 39.855 34.9109 39.855 34.9109C39.8845 34.6421 39.9257 34.3816 39.9405 34.1199C40.0127 32.8308 39.4697 31.7945 38.1221 31.4796C38.0786 31.4695 38.0339 31.4386 38.0036 31.4046C37.8521 31.2347 37.6626 31.132 37.4466 31.0796C36.834 30.9316 36.2447 31.048 35.6679 31.2578C35.6147 31.2773 35.542 31.3578 35.5467 31.4031C35.5626 31.5585 35.4577 31.5874 35.3571 31.6332C35.2822 31.6671 35.208 31.7035 35.1369 31.7445C35.0763 31.78 35.0355 31.7738 34.9702 31.7363C34.9096 31.7007 34.7982 31.6855 34.7442 31.7187C34.3184 31.9839 33.9463 32.3089 33.7334 32.7796C33.5066 33.2816 33.6639 33.7171 34.1494 33.9691C34.1848 33.9878 34.2357 34.0191 34.2396 34.0496C34.2761 34.3382 34.3037 34.6277 34.334 34.9167C33.9777 35.0097 33.7866 35.1355 33.6678 35.3824H33.6072C33.5046 35.3824 33.4219 35.466 33.4219 35.5687V36.6554C33.4219 36.7582 33.505 36.8417 33.6072 36.8417H33.7198C33.8608 37.1261 34.0916 37.2964 34.4249 37.2843C34.487 37.282 34.5488 37.266 34.621 37.255C34.6354 37.2941 34.6517 37.3332 34.6645 37.3734C34.7096 37.5171 34.7636 37.6531 34.8269 37.7808C34.912 37.9542 35.0134 38.1132 35.1311 38.2582C35.3665 38.548 35.6671 38.7812 36.0323 38.9578C36.1799 39.0289 36.2102 39.2234 36.0851 39.33C35.9557 39.4402 35.8252 39.5496 35.6889 39.6503C35.6411 39.6859 35.5766 39.7082 35.5172 39.716C34.6346 39.8335 34.0745 40.4691 34.0694 41.3679C34.0667 41.8656 34.078 42.3632 34.0655 42.8605C34.0578 43.1718 34.1689 43.3875 34.4621 43.4984H39.289C39.5971 43.3937 39.7117 43.1687 39.695 42.8535C39.686 42.6808 39.6934 42.507 39.6934 42.3128C39.7715 42.3488 39.8266 42.3761 39.8834 42.3996C40.2186 42.5378 40.5484 42.6945 40.8918 42.8082C41.3754 42.9683 41.5782 42.8789 41.8528 42.4445C41.8711 42.4156 41.8913 42.3875 41.9045 42.3562C42.0925 41.9187 42.2805 41.4812 42.4642 41.0414C42.4941 40.9691 42.5283 40.9363 42.6083 40.907C42.796 40.8382 42.9711 40.7347 43.1533 40.6499C43.2252 40.6164 43.3021 40.5757 43.3782 40.5726C43.6105 40.5624 43.8432 40.5703 44.0759 40.5683C44.4558 40.5652 44.7514 40.2742 44.7495 39.9078C44.7475 39.5464 44.4581 39.2574 44.0852 39.2515ZM39.7004 35.5144C39.719 35.3621 39.8332 35.3628 39.9257 35.4113C40.0046 35.4527 40.0853 35.5316 40.1191 35.6132C40.2656 35.9664 40.233 36.3183 40.0547 36.6519C40.0174 36.7214 39.937 36.7832 39.862 36.814C39.7295 36.8679 39.6503 36.8019 39.6491 36.6601C39.6483 36.5042 39.6491 36.3484 39.6491 36.1925C39.6413 36.1917 39.6336 36.191 39.6258 36.1902C39.6503 35.9648 39.6732 35.7394 39.7004 35.5144ZM38.1602 39.9421C38.0332 40.0851 37.9112 40.2222 37.7733 40.3769C37.6509 40.2308 37.5394 40.0976 37.4159 39.9496C37.5495 39.8511 37.6758 39.7574 37.809 39.6589C37.926 39.7531 38.0382 39.8437 38.1602 39.9421ZM35.7518 38.2582H36.8154C36.89 38.2582 36.9579 38.2277 37.0069 38.1785C37.0543 38.1304 37.0838 38.0656 37.0861 37.9933C37.0904 37.839 36.9572 37.7128 36.8037 37.7128H35.2903C35.1645 37.4937 35.0763 37.2433 35.0405 36.9648C34.9465 36.2351 34.9081 35.4808 35.3136 34.8003C35.3412 34.7542 35.3657 34.7066 35.394 34.6613C35.5991 34.3363 35.6745 34.3039 36.033 34.4296C36.7657 34.6867 37.4936 34.6707 38.2208 34.4097C38.4783 34.3171 38.5735 34.339 38.7242 34.5703C38.993 34.9824 39.1939 35.4218 39.176 35.9328C39.1721 36.0546 39.1756 36.1769 39.1756 36.2988C39.1861 36.7105 39.1764 37.1191 38.9911 37.4999C38.6508 38.2003 38.1011 38.6027 37.3316 38.7187C36.7913 38.8 36.2005 38.6296 35.7518 38.2582ZM36.1294 39.8605C36.2094 39.7988 36.2867 39.7335 36.3655 39.6695C36.4677 39.7433 36.5699 39.8085 36.6604 39.8874C36.6872 39.9105 36.7043 39.9882 36.6868 40.0125C36.6091 40.121 36.517 40.2195 36.4157 40.3386C36.303 40.2128 36.2113 40.1074 36.1166 40.005C36.0645 39.9492 36.0707 39.9058 36.1294 39.8605ZM36.7004 43.0476C36.376 43.0394 36.0513 43.0382 35.7269 43.048C35.5836 43.0527 35.542 43.0039 35.549 42.8648C35.5584 42.6648 35.4853 42.5632 35.347 42.548C35.1823 42.53 35.0794 42.6312 35.0654 42.8242C35.0499 43.0449 35.0499 43.0449 34.8269 43.0449C34.4975 43.0457 34.5332 43.0652 34.5328 42.7421C34.5321 42.2738 34.5321 41.805 34.5328 41.3363C34.534 40.7242 34.9341 40.2605 35.5323 40.1851C35.5786 40.1792 35.6434 40.2132 35.678 40.2496C35.8287 40.4082 35.9713 40.5746 36.1169 40.7378C36.3318 40.9785 36.5128 40.9769 36.7221 40.7332C36.754 40.6964 36.7866 40.6601 36.82 40.6249C36.8255 40.6191 36.8367 40.6191 36.8558 40.6128C36.8577 40.6531 36.8616 40.6902 36.8616 40.7273C36.862 41.4449 36.8593 42.1624 36.8643 42.88C36.8655 43.007 36.8301 43.0511 36.7004 43.0476ZM36.6693 39.298C36.6456 39.2792 36.6421 39.2335 36.6293 39.2003C36.66 39.1929 36.6903 39.1789 36.721 39.1785C36.9711 39.1765 37.2209 39.1757 37.4711 39.1777C37.5014 39.1777 37.5317 39.1933 37.562 39.2019C37.5484 39.2351 37.5441 39.28 37.5196 39.2992C37.3829 39.4066 37.2411 39.5082 37.0954 39.6156C36.9482 39.507 36.8064 39.4058 36.6693 39.298ZM41.4383 42.2925C41.3738 42.4222 41.2196 42.4785 41.0872 42.4207L40.748 42.2734C40.7209 42.2675 40.6917 42.2566 40.6595 42.241C40.6183 42.221 40.5771 42.2011 40.536 42.1812C40.5332 42.18 40.5305 42.1789 40.5278 42.1773C40.2613 42.0503 39.9921 41.9289 39.7256 41.8019C39.5182 41.7031 39.451 41.7082 39.2949 41.8566V42.9882C39.2949 43.0335 39.2583 43.0703 39.2133 43.0703H39.1535C39.1084 43.0703 39.0719 43.0335 39.0719 42.9882V42.7761C39.0719 42.6421 38.9639 42.5335 38.8307 42.5335C38.6974 42.5335 38.589 42.6414 38.589 42.7746V42.7761C38.5894 42.8195 38.5898 42.8624 38.591 42.9058C38.5929 43.0023 38.5615 43.048 38.4574 43.0464C38.1279 43.0421 37.7985 43.0437 37.4687 43.0457C37.386 43.0464 37.3417 43.0195 37.3417 42.9292C37.3437 42.1777 37.3441 41.4257 37.3452 40.6742C37.3452 40.6652 37.3518 40.6562 37.3654 40.6199C37.419 40.6792 37.4602 40.7253 37.5022 40.7714C37.6746 40.9613 37.8619 40.9648 38.039 40.7746C38.1909 40.6109 38.3385 40.4421 38.4845 40.2726C38.5467 40.2003 38.6057 40.1718 38.7091 40.1929C39.0517 40.2628 39.3601 40.4035 39.6522 40.5937C39.9692 40.8 40.2916 40.9984 40.6167 41.191C40.8168 41.3093 40.973 41.264 41.1011 41.0683C41.1734 40.9585 41.2499 40.8499 41.3066 40.732C41.3665 40.6074 41.4391 40.5781 41.5545 40.6519C41.5712 40.6624 41.5886 40.671 41.6096 40.6808L41.6259 40.6886L42.1232 40.9179L41.4383 42.2925ZM44.0786 40.1203C44.0693 40.121 44.0596 40.1207 44.0499 40.1207H43.6723C43.5659 40.121 43.4594 40.123 43.353 40.1207C43.1704 40.1164 43.0127 40.1765 42.8744 40.2953C42.6697 40.4703 42.4518 40.532 42.195 40.3984C42.0326 40.314 41.8563 40.2578 41.6893 40.182C41.6244 40.1527 41.5203 40.1085 41.5164 40.0636C41.5075 39.9585 41.5106 39.8101 41.5747 39.7476C41.9002 39.4304 42.1057 39.03 42.3628 38.666C42.4405 38.555 42.5501 38.53 42.653 38.591C42.7482 38.6476 42.7734 38.7675 42.7078 38.8871C42.6635 38.9679 42.6056 39.0414 42.5609 39.1218C42.4083 39.3984 42.5765 39.6941 42.8907 39.6972C43.2726 39.7011 43.6552 39.691 44.0371 39.7042C44.119 39.707 44.2297 39.7624 44.2725 39.8292C44.3556 39.9585 44.2453 40.1074 44.0786 40.1203Z" fill="white"/>
<path d="M44.0852 39.2515C43.7752 39.2472 43.4653 39.2507 43.1549 39.2499C43.1149 39.2499 43.0749 39.2441 43.0263 39.2406C43.0651 39.1664 43.1001 39.1085 43.1277 39.0472C43.2691 38.7273 43.1627 38.3628 42.883 38.2027C42.5703 38.0238 42.204 38.1066 41.9969 38.4046C41.9499 38.4726 41.9076 38.5441 41.8598 38.6113C41.6877 38.8523 41.5347 39.1113 41.3358 39.3273C41.1594 39.5199 41.0359 39.7238 41.065 39.9773C41.1019 40.2988 40.8953 40.4957 40.7578 40.7464C40.4777 40.571 40.2046 40.4128 39.9455 40.2343C39.5547 39.9656 39.1333 39.7851 38.6644 39.7156C38.6057 39.707 38.5432 39.6812 38.4954 39.6457C38.363 39.5472 38.2363 39.441 38.1097 39.3347C37.9772 39.223 38.0064 39.0292 38.1617 38.9535C38.8376 38.6234 39.2925 38.0996 39.5229 37.3781C39.5357 37.3375 39.5508 37.2976 39.5644 37.2597C40.1285 37.3183 40.4315 37.1121 40.588 36.5628C40.6634 36.2968 40.6805 36.0257 40.6335 35.7515C40.5495 35.2597 40.3398 35.0332 39.8659 34.9222C39.8597 34.9207 39.855 34.9109 39.855 34.9109C39.8845 34.6421 39.9257 34.3816 39.9405 34.1199C40.0127 32.8308 39.4697 31.7945 38.1221 31.4796C38.0786 31.4695 38.0339 31.4386 38.0036 31.4046C37.8521 31.2347 37.6626 31.132 37.4466 31.0796C36.834 30.9316 36.2447 31.048 35.6679 31.2578C35.6147 31.2773 35.542 31.3578 35.5467 31.4031C35.5626 31.5585 35.4577 31.5874 35.3571 31.6332C35.2822 31.6671 35.208 31.7035 35.1369 31.7445C35.0763 31.78 35.0355 31.7738 34.9702 31.7363C34.9096 31.7007 34.7982 31.6855 34.7442 31.7187C34.3184 31.9839 33.9463 32.3089 33.7334 32.7796C33.5066 33.2816 33.6639 33.7171 34.1494 33.9691C34.1848 33.9878 34.2357 34.0191 34.2396 34.0496C34.2761 34.3382 34.3037 34.6277 34.334 34.9167C33.9777 35.0097 33.7866 35.1355 33.6678 35.3824H33.6072C33.5046 35.3824 33.4219 35.466 33.4219 35.5687V36.6554C33.4219 36.7582 33.505 36.8417 33.6072 36.8417H33.7198C33.8608 37.1261 34.0916 37.2964 34.4249 37.2843C34.487 37.282 34.5488 37.266 34.621 37.255C34.6354 37.2941 34.6517 37.3332 34.6645 37.3734C34.7096 37.5171 34.7636 37.6531 34.8269 37.7808C34.912 37.9542 35.0134 38.1132 35.1311 38.2582C35.3665 38.548 35.6671 38.7812 36.0323 38.9578C36.1799 39.0289 36.2102 39.2234 36.0851 39.33C35.9557 39.4402 35.8252 39.5496 35.6889 39.6503C35.6411 39.6859 35.5766 39.7082 35.5172 39.716C34.6346 39.8335 34.0745 40.4691 34.0694 41.3679C34.0667 41.8656 34.078 42.3632 34.0655 42.8605C34.0578 43.1718 34.1689 43.3875 34.4621 43.4984H39.289C39.5971 43.3937 39.7117 43.1687 39.695 42.8535C39.686 42.6808 39.6934 42.507 39.6934 42.3128C39.7715 42.3488 39.8266 42.3761 39.8834 42.3996C40.2186 42.5378 40.5484 42.6945 40.8918 42.8082C41.3754 42.9683 41.5782 42.8789 41.8528 42.4445C41.8711 42.4156 41.8913 42.3875 41.9045 42.3562C42.0925 41.9187 42.2805 41.4812 42.4642 41.0414C42.4941 40.9691 42.5283 40.9363 42.6083 40.907C42.796 40.8382 42.9711 40.7347 43.1533 40.6499C43.2252 40.6164 43.3021 40.5757 43.3782 40.5726C43.6105 40.5624 43.8432 40.5703 44.0759 40.5683C44.4558 40.5652 44.7514 40.2742 44.7495 39.9078C44.7475 39.5464 44.4581 39.2574 44.0852 39.2515ZM39.7004 35.5144C39.719 35.3621 39.8332 35.3628 39.9257 35.4113C40.0046 35.4527 40.0853 35.5316 40.1191 35.6132C40.2656 35.9664 40.233 36.3183 40.0547 36.6519C40.0174 36.7214 39.937 36.7832 39.862 36.814C39.7295 36.8679 39.6503 36.8019 39.6491 36.6601C39.6483 36.5042 39.6491 36.3484 39.6491 36.1925C39.6413 36.1917 39.6336 36.191 39.6258 36.1902C39.6503 35.9648 39.6732 35.7394 39.7004 35.5144ZM38.1602 39.9421C38.0332 40.0851 37.9112 40.2222 37.7733 40.3769C37.6509 40.2308 37.5394 40.0976 37.4159 39.9496C37.5495 39.8511 37.6758 39.7574 37.809 39.6589C37.926 39.7531 38.0382 39.8437 38.1602 39.9421ZM35.7518 38.2582H36.8154C36.89 38.2582 36.9579 38.2277 37.0069 38.1785C37.0543 38.1304 37.0838 38.0656 37.0861 37.9933C37.0904 37.839 36.9572 37.7128 36.8037 37.7128H35.2903C35.1645 37.4937 35.0763 37.2433 35.0405 36.9648C34.9465 36.2351 34.9081 35.4808 35.3136 34.8003C35.3412 34.7542 35.3657 34.7066 35.394 34.6613C35.5991 34.3363 35.6745 34.3039 36.033 34.4296C36.7657 34.6867 37.4936 34.6707 38.2208 34.4097C38.4783 34.3171 38.5735 34.339 38.7242 34.5703C38.993 34.9824 39.1939 35.4218 39.176 35.9328C39.1721 36.0546 39.1756 36.1769 39.1756 36.2988C39.1861 36.7105 39.1764 37.1191 38.9911 37.4999C38.6508 38.2003 38.1011 38.6027 37.3316 38.7187C36.7913 38.8 36.2005 38.6296 35.7518 38.2582ZM36.1294 39.8605C36.2094 39.7988 36.2867 39.7335 36.3655 39.6695C36.4677 39.7433 36.5699 39.8085 36.6604 39.8874C36.6872 39.9105 36.7043 39.9882 36.6868 40.0125C36.6091 40.121 36.517 40.2195 36.4157 40.3386C36.303 40.2128 36.2113 40.1074 36.1166 40.005C36.0645 39.9492 36.0707 39.9058 36.1294 39.8605ZM36.7004 43.0476C36.376 43.0394 36.0513 43.0382 35.7269 43.048C35.5836 43.0527 35.542 43.0039 35.549 42.8648C35.5584 42.6648 35.4853 42.5632 35.347 42.548C35.1823 42.53 35.0794 42.6312 35.0654 42.8242C35.0499 43.0449 35.0499 43.0449 34.8269 43.0449C34.4975 43.0457 34.5332 43.0652 34.5328 42.7421C34.5321 42.2738 34.5321 41.805 34.5328 41.3363C34.534 40.7242 34.9341 40.2605 35.5323 40.1851C35.5786 40.1792 35.6434 40.2132 35.678 40.2496C35.8287 40.4082 35.9713 40.5746 36.1169 40.7378C36.3318 40.9785 36.5128 40.9769 36.7221 40.7332C36.754 40.6964 36.7866 40.6601 36.82 40.6249C36.8255 40.6191 36.8367 40.6191 36.8558 40.6128C36.8577 40.6531 36.8616 40.6902 36.8616 40.7273C36.862 41.4449 36.8593 42.1624 36.8643 42.88C36.8655 43.007 36.8301 43.0511 36.7004 43.0476ZM36.6693 39.298C36.6456 39.2792 36.6421 39.2335 36.6293 39.2003C36.66 39.1929 36.6903 39.1789 36.721 39.1785C36.9711 39.1765 37.2209 39.1757 37.4711 39.1777C37.5014 39.1777 37.5317 39.1933 37.562 39.2019C37.5484 39.2351 37.5441 39.28 37.5196 39.2992C37.3829 39.4066 37.2411 39.5082 37.0954 39.6156C36.9482 39.507 36.8064 39.4058 36.6693 39.298ZM41.4383 42.2925C41.3738 42.4222 41.2196 42.4785 41.0872 42.4207L40.748 42.2734C40.7209 42.2675 40.6917 42.2566 40.6595 42.241C40.6183 42.221 40.5771 42.2011 40.536 42.1812C40.5332 42.18 40.5305 42.1789 40.5278 42.1773C40.2613 42.0503 39.9921 41.9289 39.7256 41.8019C39.5182 41.7031 39.451 41.7082 39.2949 41.8566V42.9882C39.2949 43.0335 39.2583 43.0703 39.2133 43.0703H39.1535C39.1084 43.0703 39.0719 43.0335 39.0719 42.9882V42.7761C39.0719 42.6421 38.9639 42.5335 38.8307 42.5335C38.6974 42.5335 38.589 42.6414 38.589 42.7746V42.7761C38.5894 42.8195 38.5898 42.8624 38.591 42.9058C38.5929 43.0023 38.5615 43.048 38.4574 43.0464C38.1279 43.0421 37.7985 43.0437 37.4687 43.0457C37.386 43.0464 37.3417 43.0195 37.3417 42.9292C37.3437 42.1777 37.3441 41.4257 37.3452 40.6742C37.3452 40.6652 37.3518 40.6562 37.3654 40.6199C37.419 40.6792 37.4602 40.7253 37.5022 40.7714C37.6746 40.9613 37.8619 40.9648 38.039 40.7746C38.1909 40.6109 38.3385 40.4421 38.4845 40.2726C38.5467 40.2003 38.6057 40.1718 38.7091 40.1929C39.0517 40.2628 39.3601 40.4035 39.6522 40.5937C39.9692 40.8 40.2916 40.9984 40.6167 41.191C40.8168 41.3093 40.973 41.264 41.1011 41.0683C41.1734 40.9585 41.2499 40.8499 41.3066 40.732C41.3665 40.6074 41.4391 40.5781 41.5545 40.6519C41.5712 40.6624 41.5886 40.671 41.6096 40.6808L41.6259 40.6886L42.1232 40.9179L41.4383 42.2925ZM44.0786 40.1203C44.0693 40.121 44.0596 40.1207 44.0499 40.1207H43.6723C43.5659 40.121 43.4594 40.123 43.353 40.1207C43.1704 40.1164 43.0127 40.1765 42.8744 40.2953C42.6697 40.4703 42.4518 40.532 42.195 40.3984C42.0326 40.314 41.8563 40.2578 41.6893 40.182C41.6244 40.1527 41.5203 40.1085 41.5164 40.0636C41.5075 39.9585 41.5106 39.8101 41.5747 39.7476C41.9002 39.4304 42.1057 39.03 42.3628 38.666C42.4405 38.555 42.5501 38.53 42.653 38.591C42.7482 38.6476 42.7734 38.7675 42.7078 38.8871C42.6635 38.9679 42.6056 39.0414 42.5609 39.1218C42.4083 39.3984 42.5765 39.6941 42.8907 39.6972C43.2726 39.7011 43.6552 39.691 44.0371 39.7042C44.119 39.707 44.2297 39.7624 44.2725 39.8292C44.3556 39.9585 44.2453 40.1074 44.0786 40.1203Z" fill="url(#paint3_linear_10713_83753)"/>
<path d="M48.4187 30.6832C48.4206 30.5156 48.421 30.3477 48.416 30.1801C48.3938 29.4387 47.8908 28.7852 47.1846 28.5766C47.0929 28.5496 46.9993 28.5281 46.9069 28.5039H43.4174C43.405 28.5109 43.3929 28.5227 43.3797 28.5242C42.616 28.6164 41.8757 29.3184 41.9005 30.3387C41.9184 31.0754 41.9021 31.8129 41.9063 32.55C41.9067 32.6469 41.878 32.7004 41.7925 32.743C41.5975 32.8406 41.4056 32.9445 41.2161 33.052C40.8917 33.2363 40.889 33.6121 41.2098 33.7996C41.3563 33.8852 41.502 33.977 41.6589 34.0375C41.8632 34.1164 41.9114 34.2469 41.9094 34.4594C41.8997 35.5195 42.6452 36.266 43.6959 36.2672C44.6698 36.2688 45.6436 36.2684 46.6179 36.2672C47.6775 36.2664 48.4172 35.5207 48.4187 34.4523C48.4195 33.7105 48.4187 32.9684 48.4187 32.2266V30.6832ZM47.9798 34.5293C47.9743 35.2508 47.4227 35.818 46.7107 35.8242C45.6739 35.8332 44.6371 35.8316 43.6004 35.8254C43.0558 35.8223 42.5617 35.4605 42.4109 34.9371C42.35 34.7262 42.3476 34.4949 42.3437 34.2723C42.3395 34.027 42.2474 33.8531 42.0287 33.7418C41.8403 33.6465 41.6566 33.5414 41.4468 33.4281C41.6507 33.3172 41.829 33.2125 42.0139 33.1215C42.2451 33.0074 42.3437 32.8285 42.3422 32.5703C42.3367 31.7844 42.3352 30.9984 42.3426 30.2125C42.3492 29.527 42.9023 28.9547 43.5794 28.9477C44.6305 28.9367 45.6821 28.9387 46.7332 28.9484C47.3446 28.9539 47.8628 29.4094 47.9537 30.018C47.9805 30.1977 47.9786 30.3813 47.979 30.5645V32.2266H47.9836C47.9805 32.9941 47.9852 33.7617 47.9798 34.5293Z" fill="white"/>
<path d="M48.4187 30.6832C48.4206 30.5156 48.421 30.3477 48.416 30.1801C48.3938 29.4387 47.8908 28.7852 47.1846 28.5766C47.0929 28.5496 46.9993 28.5281 46.9069 28.5039H43.4174C43.405 28.5109 43.3929 28.5227 43.3797 28.5242C42.616 28.6164 41.8757 29.3184 41.9005 30.3387C41.9184 31.0754 41.9021 31.8129 41.9063 32.55C41.9067 32.6469 41.878 32.7004 41.7925 32.743C41.5975 32.8406 41.4056 32.9445 41.2161 33.052C40.8917 33.2363 40.889 33.6121 41.2098 33.7996C41.3563 33.8852 41.502 33.977 41.6589 34.0375C41.8632 34.1164 41.9114 34.2469 41.9094 34.4594C41.8997 35.5195 42.6452 36.266 43.6959 36.2672C44.6698 36.2688 45.6436 36.2684 46.6179 36.2672C47.6775 36.2664 48.4172 35.5207 48.4187 34.4523C48.4195 33.7105 48.4187 32.9684 48.4187 32.2266V30.6832ZM47.9798 34.5293C47.9743 35.2508 47.4227 35.818 46.7107 35.8242C45.6739 35.8332 44.6371 35.8316 43.6004 35.8254C43.0558 35.8223 42.5617 35.4605 42.4109 34.9371C42.35 34.7262 42.3476 34.4949 42.3437 34.2723C42.3395 34.027 42.2474 33.8531 42.0287 33.7418C41.8403 33.6465 41.6566 33.5414 41.4468 33.4281C41.6507 33.3172 41.829 33.2125 42.0139 33.1215C42.2451 33.0074 42.3437 32.8285 42.3422 32.5703C42.3367 31.7844 42.3352 30.9984 42.3426 30.2125C42.3492 29.527 42.9023 28.9547 43.5794 28.9477C44.6305 28.9367 45.6821 28.9387 46.7332 28.9484C47.3446 28.9539 47.8628 29.4094 47.9537 30.018C47.9805 30.1977 47.9786 30.3813 47.979 30.5645V32.2266H47.9836C47.9805 32.9941 47.9852 33.7617 47.9798 34.5293Z" fill="url(#paint4_linear_10713_83753)"/>
<path d="M47.9843 32.2245H47.9797V30.5624C47.9793 30.3792 47.9812 30.1956 47.9544 30.0159C47.8635 29.4073 47.3453 28.9518 46.7339 28.9464C45.6828 28.9366 44.6312 28.9347 43.5801 28.9456C42.903 28.9526 42.3499 29.5249 42.3433 30.2104C42.3359 30.9964 42.3374 31.7823 42.3429 32.5683C42.3444 32.8265 42.2458 33.0054 42.0146 33.1194C41.8297 33.2104 41.6514 33.3151 41.4475 33.4261C41.6573 33.5393 41.841 33.6444 42.0294 33.7397C42.2481 33.8511 42.3402 34.0249 42.3444 34.2702C42.3483 34.4929 42.3506 34.7241 42.4116 34.935C42.5623 35.4585 43.0565 35.8202 43.6011 35.8233C44.6378 35.8296 45.6746 35.8311 46.7114 35.8222C47.4234 35.8159 47.975 35.2487 47.9804 34.5272C47.9859 33.7597 47.9812 32.9921 47.9843 32.2245ZM45.2116 34.6542C43.9736 34.6503 42.971 33.6339 42.9714 32.3831C42.9718 31.1257 43.9794 30.1116 45.2271 30.1132C46.4698 30.1151 47.486 31.1433 47.4786 32.3913C47.4708 33.646 46.4573 34.6577 45.2116 34.6542Z" fill="white"/>
<path d="M47.9843 32.2245H47.9797V30.5624C47.9793 30.3792 47.9812 30.1956 47.9544 30.0159C47.8635 29.4073 47.3453 28.9518 46.7339 28.9464C45.6828 28.9366 44.6312 28.9347 43.5801 28.9456C42.903 28.9526 42.3499 29.5249 42.3433 30.2104C42.3359 30.9964 42.3374 31.7823 42.3429 32.5683C42.3444 32.8265 42.2458 33.0054 42.0146 33.1194C41.8297 33.2104 41.6514 33.3151 41.4475 33.4261C41.6573 33.5393 41.841 33.6444 42.0294 33.7397C42.2481 33.8511 42.3402 34.0249 42.3444 34.2702C42.3483 34.4929 42.3506 34.7241 42.4116 34.935C42.5623 35.4585 43.0565 35.8202 43.6011 35.8233C44.6378 35.8296 45.6746 35.8311 46.7114 35.8222C47.4234 35.8159 47.975 35.2487 47.9804 34.5272C47.9859 33.7597 47.9812 32.9921 47.9843 32.2245ZM45.2116 34.6542C43.9736 34.6503 42.971 33.6339 42.9714 32.3831C42.9718 31.1257 43.9794 30.1116 45.2271 30.1132C46.4698 30.1151 47.486 31.1433 47.4786 32.3913C47.4708 33.646 46.4573 34.6577 45.2116 34.6542Z" fill="url(#paint5_linear_10713_83753)"/>
<path d="M48.4202 32.2309V31.861C48.4252 31.9836 48.4202 32.1075 48.4202 32.2309Z" fill="white"/>
<path d="M48.4202 32.2309V31.861C48.4252 31.9836 48.4202 32.1075 48.4202 32.2309Z" fill="url(#paint6_linear_10713_83753)"/>
<path d="M45.2218 30.5582C44.2273 30.5535 43.4143 31.375 43.4147 32.3839C43.4147 33.3882 44.2172 34.207 45.2058 34.2117C46.2135 34.2164 47.0281 33.4003 47.0284 32.3851C47.0284 31.3761 46.224 30.5625 45.2218 30.5582ZM45.9629 31.5843C46.088 31.5843 46.1843 31.6894 46.1843 31.825C46.1843 31.9632 46.0911 32.0628 45.9621 32.0628C45.8336 32.0625 45.7407 31.9625 45.7407 31.8246C45.7411 31.6886 45.8378 31.5843 45.9629 31.5843ZM44.4837 31.5843C44.6092 31.5847 44.7036 31.6886 44.7032 31.8261C44.7032 31.9656 44.6111 32.0632 44.4814 32.0625C44.354 32.0621 44.2588 31.9593 44.2592 31.8238C44.26 31.6894 44.359 31.5839 44.4837 31.5843ZM46.2585 32.8972C46.0173 33.2785 45.6533 33.4207 45.221 33.4304C44.7914 33.4203 44.4235 33.2804 44.1904 32.8937C44.15 32.8261 44.1395 32.7093 44.1683 32.6367C44.2312 32.4761 44.4604 32.4656 44.5408 32.6273C44.7121 32.9714 45.2517 33.0687 45.5947 32.9007C45.7058 32.846 45.8013 32.7445 45.8829 32.6468C45.9851 32.5246 46.0927 32.4808 46.2053 32.5511C46.3203 32.6226 46.3452 32.7597 46.2585 32.8972Z" fill="white"/>
<path d="M45.2218 30.5582C44.2273 30.5535 43.4143 31.375 43.4147 32.3839C43.4147 33.3882 44.2172 34.207 45.2058 34.2117C46.2135 34.2164 47.0281 33.4003 47.0284 32.3851C47.0284 31.3761 46.224 30.5625 45.2218 30.5582ZM45.9629 31.5843C46.088 31.5843 46.1843 31.6894 46.1843 31.825C46.1843 31.9632 46.0911 32.0628 45.9621 32.0628C45.8336 32.0625 45.7407 31.9625 45.7407 31.8246C45.7411 31.6886 45.8378 31.5843 45.9629 31.5843ZM44.4837 31.5843C44.6092 31.5847 44.7036 31.6886 44.7032 31.8261C44.7032 31.9656 44.6111 32.0632 44.4814 32.0625C44.354 32.0621 44.2588 31.9593 44.2592 31.8238C44.26 31.6894 44.359 31.5839 44.4837 31.5843ZM46.2585 32.8972C46.0173 33.2785 45.6533 33.4207 45.221 33.4304C44.7914 33.4203 44.4235 33.2804 44.1904 32.8937C44.15 32.8261 44.1395 32.7093 44.1683 32.6367C44.2312 32.4761 44.4604 32.4656 44.5408 32.6273C44.7121 32.9714 45.2517 33.0687 45.5947 32.9007C45.7058 32.846 45.8013 32.7445 45.8829 32.6468C45.9851 32.5246 46.0927 32.4808 46.2053 32.5511C46.3203 32.6226 46.3452 32.7597 46.2585 32.8972Z" fill="url(#paint7_linear_10713_83753)"/>
<rect x="54.8398" y="30.6055" width="51" height="6" rx="1.39352" fill="url(#paint8_linear_10713_83753)"/>
<path d="M54.8398 39.8906C54.8398 39.6145 55.2681 39.3906 55.7964 39.3906H78.7529C79.2812 39.3906 79.7094 39.6145 79.7094 39.8906V40.8906C79.7094 41.1668 79.2812 41.3906 78.7529 41.3906H55.7964C55.2681 41.3906 54.8398 41.1668 54.8398 40.8906V39.8906Z" fill="white"/>
<path d="M54.8398 39.8906C54.8398 39.6145 55.2681 39.3906 55.7964 39.3906H78.7529C79.2812 39.3906 79.7094 39.6145 79.7094 39.8906V40.8906C79.7094 41.1668 79.2812 41.3906 78.7529 41.3906H55.7964C55.2681 41.3906 54.8398 41.1668 54.8398 40.8906V39.8906Z" fill="url(#paint9_linear_10713_83753)"/>
<path d="M83.5355 39.8906C83.5355 39.6145 83.9637 39.3906 84.492 39.3906H97.8833C98.4116 39.3906 98.8398 39.6145 98.8398 39.8906V40.8906C98.8398 41.1668 98.4116 41.3906 97.8833 41.3906H84.492C83.9637 41.3906 83.5355 41.1668 83.5355 40.8906V39.8906Z" fill="white"/>
<path d="M83.5355 39.8906C83.5355 39.6145 83.9637 39.3906 84.492 39.3906H97.8833C98.4116 39.3906 98.8398 39.6145 98.8398 39.8906V40.8906C98.8398 41.1668 98.4116 41.3906 97.8833 41.3906H84.492C83.9637 41.3906 83.5355 41.1668 83.5355 40.8906V39.8906Z" fill="url(#paint10_linear_10713_83753)"/>
<rect width="82" height="22" transform="translate(27 79)" fill="url(#paint11_linear_10713_83753)"/>
<path d="M44.0852 93.2515C43.7752 93.2472 43.4653 93.2507 43.1549 93.2499C43.1149 93.2499 43.0749 93.2441 43.0263 93.2406C43.0651 93.1664 43.1001 93.1085 43.1277 93.0472C43.2691 92.7273 43.1627 92.3628 42.883 92.2027C42.5703 92.0238 42.204 92.1066 41.9969 92.4046C41.9499 92.4726 41.9076 92.5441 41.8598 92.6113C41.6877 92.8523 41.5347 93.1113 41.3358 93.3273C41.1594 93.5199 41.0359 93.7238 41.065 93.9773C41.1019 94.2988 40.8953 94.4957 40.7578 94.7464C40.4777 94.571 40.2046 94.4128 39.9455 94.2343C39.5547 93.9656 39.1333 93.7851 38.6644 93.7156C38.6057 93.707 38.5432 93.6812 38.4954 93.6457C38.363 93.5472 38.2363 93.441 38.1097 93.3347C37.9772 93.223 38.0064 93.0292 38.1617 92.9535C38.8376 92.6234 39.2925 92.0996 39.5229 91.3781C39.5357 91.3375 39.5508 91.2976 39.5644 91.2597C40.1285 91.3183 40.4315 91.1121 40.588 90.5628C40.6634 90.2968 40.6805 90.0257 40.6335 89.7515C40.5495 89.2597 40.3398 89.0332 39.8659 88.9222C39.8597 88.9207 39.855 88.9109 39.855 88.9109C39.8845 88.6421 39.9257 88.3816 39.9405 88.1199C40.0127 86.8308 39.4697 85.7945 38.1221 85.4796C38.0786 85.4695 38.0339 85.4386 38.0036 85.4046C37.8521 85.2347 37.6626 85.132 37.4466 85.0796C36.834 84.9316 36.2447 85.048 35.6679 85.2578C35.6147 85.2773 35.542 85.3578 35.5467 85.4031C35.5626 85.5585 35.4577 85.5874 35.3571 85.6332C35.2822 85.6671 35.208 85.7035 35.1369 85.7445C35.0763 85.78 35.0355 85.7738 34.9702 85.7363C34.9096 85.7007 34.7982 85.6855 34.7442 85.7187C34.3184 85.9839 33.9463 86.3089 33.7334 86.7796C33.5066 87.2816 33.6639 87.7171 34.1494 87.9691C34.1848 87.9878 34.2357 88.0191 34.2396 88.0496C34.2761 88.3382 34.3037 88.6277 34.334 88.9167C33.9777 89.0097 33.7866 89.1355 33.6678 89.3824H33.6072C33.5046 89.3824 33.4219 89.466 33.4219 89.5687V90.6554C33.4219 90.7582 33.505 90.8417 33.6072 90.8417H33.7198C33.8608 91.1261 34.0916 91.2964 34.4249 91.2843C34.487 91.282 34.5488 91.266 34.621 91.255C34.6354 91.2941 34.6517 91.3332 34.6645 91.3734C34.7096 91.5171 34.7636 91.6531 34.8269 91.7808C34.912 91.9542 35.0134 92.1132 35.1311 92.2582C35.3665 92.548 35.6671 92.7812 36.0323 92.9578C36.1799 93.0289 36.2102 93.2234 36.0851 93.33C35.9557 93.4402 35.8252 93.5496 35.6889 93.6503C35.6411 93.6859 35.5766 93.7082 35.5172 93.716C34.6346 93.8335 34.0745 94.4691 34.0694 95.3679C34.0667 95.8656 34.078 96.3632 34.0655 96.8605C34.0578 97.1718 34.1689 97.3875 34.4621 97.4984H39.289C39.5971 97.3937 39.7117 97.1687 39.695 96.8535C39.686 96.6808 39.6934 96.507 39.6934 96.3128C39.7715 96.3488 39.8266 96.3761 39.8834 96.3996C40.2186 96.5378 40.5484 96.6945 40.8918 96.8082C41.3754 96.9683 41.5782 96.8789 41.8528 96.4445C41.8711 96.4156 41.8913 96.3875 41.9045 96.3562C42.0925 95.9187 42.2805 95.4812 42.4642 95.0414C42.4941 94.9691 42.5283 94.9363 42.6083 94.907C42.796 94.8382 42.9711 94.7347 43.1533 94.6499C43.2252 94.6164 43.3021 94.5757 43.3782 94.5726C43.6105 94.5624 43.8432 94.5703 44.0759 94.5683C44.4558 94.5652 44.7514 94.2742 44.7495 93.9078C44.7475 93.5464 44.4581 93.2574 44.0852 93.2515ZM39.7004 89.5144C39.719 89.3621 39.8332 89.3628 39.9257 89.4113C40.0046 89.4527 40.0853 89.5316 40.1191 89.6132C40.2656 89.9664 40.233 90.3183 40.0547 90.6519C40.0174 90.7214 39.937 90.7832 39.862 90.814C39.7295 90.8679 39.6503 90.8019 39.6491 90.6601C39.6483 90.5042 39.6491 90.3484 39.6491 90.1925C39.6413 90.1917 39.6336 90.191 39.6258 90.1902C39.6503 89.9648 39.6732 89.7394 39.7004 89.5144ZM38.1602 93.9421C38.0332 94.0851 37.9112 94.2222 37.7733 94.3769C37.6509 94.2308 37.5394 94.0976 37.4159 93.9496C37.5495 93.8511 37.6758 93.7574 37.809 93.6589C37.926 93.7531 38.0382 93.8437 38.1602 93.9421ZM35.7518 92.2582H36.8154C36.89 92.2582 36.9579 92.2277 37.0069 92.1785C37.0543 92.1304 37.0838 92.0656 37.0861 91.9933C37.0904 91.839 36.9572 91.7128 36.8037 91.7128H35.2903C35.1645 91.4937 35.0763 91.2433 35.0405 90.9648C34.9465 90.2351 34.9081 89.4808 35.3136 88.8003C35.3412 88.7542 35.3657 88.7066 35.394 88.6613C35.5991 88.3363 35.6745 88.3039 36.033 88.4296C36.7657 88.6867 37.4936 88.6707 38.2208 88.4097C38.4783 88.3171 38.5735 88.339 38.7242 88.5703C38.993 88.9824 39.1939 89.4218 39.176 89.9328C39.1721 90.0546 39.1756 90.1769 39.1756 90.2988C39.1861 90.7105 39.1764 91.1191 38.9911 91.4999C38.6508 92.2003 38.1011 92.6027 37.3316 92.7187C36.7913 92.8 36.2005 92.6296 35.7518 92.2582ZM36.1294 93.8605C36.2094 93.7988 36.2867 93.7335 36.3655 93.6695C36.4677 93.7433 36.5699 93.8085 36.6604 93.8874C36.6872 93.9105 36.7043 93.9882 36.6868 94.0125C36.6091 94.121 36.517 94.2195 36.4157 94.3386C36.303 94.2128 36.2113 94.1074 36.1166 94.005C36.0645 93.9492 36.0707 93.9058 36.1294 93.8605ZM36.7004 97.0476C36.376 97.0394 36.0513 97.0382 35.7269 97.048C35.5836 97.0527 35.542 97.0039 35.549 96.8648C35.5584 96.6648 35.4853 96.5632 35.347 96.548C35.1823 96.53 35.0794 96.6312 35.0654 96.8242C35.0499 97.0449 35.0499 97.0449 34.8269 97.0449C34.4975 97.0457 34.5332 97.0652 34.5328 96.7421C34.5321 96.2738 34.5321 95.805 34.5328 95.3363C34.534 94.7242 34.9341 94.2605 35.5323 94.1851C35.5786 94.1792 35.6434 94.2132 35.678 94.2496C35.8287 94.4082 35.9713 94.5746 36.1169 94.7378C36.3318 94.9785 36.5128 94.9769 36.7221 94.7332C36.754 94.6964 36.7866 94.6601 36.82 94.6249C36.8255 94.6191 36.8367 94.6191 36.8558 94.6128C36.8577 94.6531 36.8616 94.6902 36.8616 94.7273C36.862 95.4449 36.8593 96.1624 36.8643 96.88C36.8655 97.007 36.8301 97.0511 36.7004 97.0476ZM36.6693 93.298C36.6456 93.2792 36.6421 93.2335 36.6293 93.2003C36.66 93.1929 36.6903 93.1789 36.721 93.1785C36.9711 93.1765 37.2209 93.1757 37.4711 93.1777C37.5014 93.1777 37.5317 93.1933 37.562 93.2019C37.5484 93.2351 37.5441 93.28 37.5196 93.2992C37.3829 93.4066 37.2411 93.5082 37.0954 93.6156C36.9482 93.507 36.8064 93.4058 36.6693 93.298ZM41.4383 96.2925C41.3738 96.4222 41.2196 96.4785 41.0872 96.4207L40.748 96.2734C40.7209 96.2675 40.6917 96.2566 40.6595 96.241C40.6183 96.221 40.5771 96.2011 40.536 96.1812C40.5332 96.18 40.5305 96.1789 40.5278 96.1773C40.2613 96.0503 39.9921 95.9289 39.7256 95.8019C39.5182 95.7031 39.451 95.7082 39.2949 95.8566V96.9882C39.2949 97.0335 39.2583 97.0703 39.2133 97.0703H39.1535C39.1084 97.0703 39.0719 97.0335 39.0719 96.9882V96.7761C39.0719 96.6421 38.9639 96.5335 38.8307 96.5335C38.6974 96.5335 38.589 96.6414 38.589 96.7746V96.7761C38.5894 96.8195 38.5898 96.8624 38.591 96.9058C38.5929 97.0023 38.5615 97.048 38.4574 97.0464C38.1279 97.0421 37.7985 97.0437 37.4687 97.0457C37.386 97.0464 37.3417 97.0195 37.3417 96.9292C37.3437 96.1777 37.3441 95.4257 37.3452 94.6742C37.3452 94.6652 37.3518 94.6562 37.3654 94.6199C37.419 94.6792 37.4602 94.7253 37.5022 94.7714C37.6746 94.9613 37.8619 94.9648 38.039 94.7746C38.1909 94.6109 38.3385 94.4421 38.4845 94.2726C38.5467 94.2003 38.6057 94.1718 38.7091 94.1929C39.0517 94.2628 39.3601 94.4035 39.6522 94.5937C39.9692 94.8 40.2916 94.9984 40.6167 95.191C40.8168 95.3093 40.973 95.264 41.1011 95.0683C41.1734 94.9585 41.2499 94.8499 41.3066 94.732C41.3665 94.6074 41.4391 94.5781 41.5545 94.6519C41.5712 94.6624 41.5886 94.671 41.6096 94.6808L41.6259 94.6886L42.1232 94.9179L41.4383 96.2925ZM44.0786 94.1203C44.0693 94.121 44.0596 94.1207 44.0499 94.1207H43.6723C43.5659 94.121 43.4594 94.123 43.353 94.1207C43.1704 94.1164 43.0127 94.1765 42.8744 94.2953C42.6697 94.4703 42.4518 94.532 42.195 94.3984C42.0326 94.314 41.8563 94.2578 41.6893 94.182C41.6244 94.1527 41.5203 94.1085 41.5164 94.0636C41.5075 93.9585 41.5106 93.8101 41.5747 93.7476C41.9002 93.4304 42.1057 93.03 42.3628 92.666C42.4405 92.555 42.5501 92.53 42.653 92.591C42.7482 92.6476 42.7734 92.7675 42.7078 92.8871C42.6635 92.9679 42.6056 93.0414 42.5609 93.1218C42.4083 93.3984 42.5765 93.6941 42.8907 93.6972C43.2726 93.7011 43.6552 93.691 44.0371 93.7042C44.119 93.707 44.2297 93.7624 44.2725 93.8292C44.3556 93.9585 44.2453 94.1074 44.0786 94.1203Z" fill="white"/>
<path d="M44.0852 93.2515C43.7752 93.2472 43.4653 93.2507 43.1549 93.2499C43.1149 93.2499 43.0749 93.2441 43.0263 93.2406C43.0651 93.1664 43.1001 93.1085 43.1277 93.0472C43.2691 92.7273 43.1627 92.3628 42.883 92.2027C42.5703 92.0238 42.204 92.1066 41.9969 92.4046C41.9499 92.4726 41.9076 92.5441 41.8598 92.6113C41.6877 92.8523 41.5347 93.1113 41.3358 93.3273C41.1594 93.5199 41.0359 93.7238 41.065 93.9773C41.1019 94.2988 40.8953 94.4957 40.7578 94.7464C40.4777 94.571 40.2046 94.4128 39.9455 94.2343C39.5547 93.9656 39.1333 93.7851 38.6644 93.7156C38.6057 93.707 38.5432 93.6812 38.4954 93.6457C38.363 93.5472 38.2363 93.441 38.1097 93.3347C37.9772 93.223 38.0064 93.0292 38.1617 92.9535C38.8376 92.6234 39.2925 92.0996 39.5229 91.3781C39.5357 91.3375 39.5508 91.2976 39.5644 91.2597C40.1285 91.3183 40.4315 91.1121 40.588 90.5628C40.6634 90.2968 40.6805 90.0257 40.6335 89.7515C40.5495 89.2597 40.3398 89.0332 39.8659 88.9222C39.8597 88.9207 39.855 88.9109 39.855 88.9109C39.8845 88.6421 39.9257 88.3816 39.9405 88.1199C40.0127 86.8308 39.4697 85.7945 38.1221 85.4796C38.0786 85.4695 38.0339 85.4386 38.0036 85.4046C37.8521 85.2347 37.6626 85.132 37.4466 85.0796C36.834 84.9316 36.2447 85.048 35.6679 85.2578C35.6147 85.2773 35.542 85.3578 35.5467 85.4031C35.5626 85.5585 35.4577 85.5874 35.3571 85.6332C35.2822 85.6671 35.208 85.7035 35.1369 85.7445C35.0763 85.78 35.0355 85.7738 34.9702 85.7363C34.9096 85.7007 34.7982 85.6855 34.7442 85.7187C34.3184 85.9839 33.9463 86.3089 33.7334 86.7796C33.5066 87.2816 33.6639 87.7171 34.1494 87.9691C34.1848 87.9878 34.2357 88.0191 34.2396 88.0496C34.2761 88.3382 34.3037 88.6277 34.334 88.9167C33.9777 89.0097 33.7866 89.1355 33.6678 89.3824H33.6072C33.5046 89.3824 33.4219 89.466 33.4219 89.5687V90.6554C33.4219 90.7582 33.505 90.8417 33.6072 90.8417H33.7198C33.8608 91.1261 34.0916 91.2964 34.4249 91.2843C34.487 91.282 34.5488 91.266 34.621 91.255C34.6354 91.2941 34.6517 91.3332 34.6645 91.3734C34.7096 91.5171 34.7636 91.6531 34.8269 91.7808C34.912 91.9542 35.0134 92.1132 35.1311 92.2582C35.3665 92.548 35.6671 92.7812 36.0323 92.9578C36.1799 93.0289 36.2102 93.2234 36.0851 93.33C35.9557 93.4402 35.8252 93.5496 35.6889 93.6503C35.6411 93.6859 35.5766 93.7082 35.5172 93.716C34.6346 93.8335 34.0745 94.4691 34.0694 95.3679C34.0667 95.8656 34.078 96.3632 34.0655 96.8605C34.0578 97.1718 34.1689 97.3875 34.4621 97.4984H39.289C39.5971 97.3937 39.7117 97.1687 39.695 96.8535C39.686 96.6808 39.6934 96.507 39.6934 96.3128C39.7715 96.3488 39.8266 96.3761 39.8834 96.3996C40.2186 96.5378 40.5484 96.6945 40.8918 96.8082C41.3754 96.9683 41.5782 96.8789 41.8528 96.4445C41.8711 96.4156 41.8913 96.3875 41.9045 96.3562C42.0925 95.9187 42.2805 95.4812 42.4642 95.0414C42.4941 94.9691 42.5283 94.9363 42.6083 94.907C42.796 94.8382 42.9711 94.7347 43.1533 94.6499C43.2252 94.6164 43.3021 94.5757 43.3782 94.5726C43.6105 94.5624 43.8432 94.5703 44.0759 94.5683C44.4558 94.5652 44.7514 94.2742 44.7495 93.9078C44.7475 93.5464 44.4581 93.2574 44.0852 93.2515ZM39.7004 89.5144C39.719 89.3621 39.8332 89.3628 39.9257 89.4113C40.0046 89.4527 40.0853 89.5316 40.1191 89.6132C40.2656 89.9664 40.233 90.3183 40.0547 90.6519C40.0174 90.7214 39.937 90.7832 39.862 90.814C39.7295 90.8679 39.6503 90.8019 39.6491 90.6601C39.6483 90.5042 39.6491 90.3484 39.6491 90.1925C39.6413 90.1917 39.6336 90.191 39.6258 90.1902C39.6503 89.9648 39.6732 89.7394 39.7004 89.5144ZM38.1602 93.9421C38.0332 94.0851 37.9112 94.2222 37.7733 94.3769C37.6509 94.2308 37.5394 94.0976 37.4159 93.9496C37.5495 93.8511 37.6758 93.7574 37.809 93.6589C37.926 93.7531 38.0382 93.8437 38.1602 93.9421ZM35.7518 92.2582H36.8154C36.89 92.2582 36.9579 92.2277 37.0069 92.1785C37.0543 92.1304 37.0838 92.0656 37.0861 91.9933C37.0904 91.839 36.9572 91.7128 36.8037 91.7128H35.2903C35.1645 91.4937 35.0763 91.2433 35.0405 90.9648C34.9465 90.2351 34.9081 89.4808 35.3136 88.8003C35.3412 88.7542 35.3657 88.7066 35.394 88.6613C35.5991 88.3363 35.6745 88.3039 36.033 88.4296C36.7657 88.6867 37.4936 88.6707 38.2208 88.4097C38.4783 88.3171 38.5735 88.339 38.7242 88.5703C38.993 88.9824 39.1939 89.4218 39.176 89.9328C39.1721 90.0546 39.1756 90.1769 39.1756 90.2988C39.1861 90.7105 39.1764 91.1191 38.9911 91.4999C38.6508 92.2003 38.1011 92.6027 37.3316 92.7187C36.7913 92.8 36.2005 92.6296 35.7518 92.2582ZM36.1294 93.8605C36.2094 93.7988 36.2867 93.7335 36.3655 93.6695C36.4677 93.7433 36.5699 93.8085 36.6604 93.8874C36.6872 93.9105 36.7043 93.9882 36.6868 94.0125C36.6091 94.121 36.517 94.2195 36.4157 94.3386C36.303 94.2128 36.2113 94.1074 36.1166 94.005C36.0645 93.9492 36.0707 93.9058 36.1294 93.8605ZM36.7004 97.0476C36.376 97.0394 36.0513 97.0382 35.7269 97.048C35.5836 97.0527 35.542 97.0039 35.549 96.8648C35.5584 96.6648 35.4853 96.5632 35.347 96.548C35.1823 96.53 35.0794 96.6312 35.0654 96.8242C35.0499 97.0449 35.0499 97.0449 34.8269 97.0449C34.4975 97.0457 34.5332 97.0652 34.5328 96.7421C34.5321 96.2738 34.5321 95.805 34.5328 95.3363C34.534 94.7242 34.9341 94.2605 35.5323 94.1851C35.5786 94.1792 35.6434 94.2132 35.678 94.2496C35.8287 94.4082 35.9713 94.5746 36.1169 94.7378C36.3318 94.9785 36.5128 94.9769 36.7221 94.7332C36.754 94.6964 36.7866 94.6601 36.82 94.6249C36.8255 94.6191 36.8367 94.6191 36.8558 94.6128C36.8577 94.6531 36.8616 94.6902 36.8616 94.7273C36.862 95.4449 36.8593 96.1624 36.8643 96.88C36.8655 97.007 36.8301 97.0511 36.7004 97.0476ZM36.6693 93.298C36.6456 93.2792 36.6421 93.2335 36.6293 93.2003C36.66 93.1929 36.6903 93.1789 36.721 93.1785C36.9711 93.1765 37.2209 93.1757 37.4711 93.1777C37.5014 93.1777 37.5317 93.1933 37.562 93.2019C37.5484 93.2351 37.5441 93.28 37.5196 93.2992C37.3829 93.4066 37.2411 93.5082 37.0954 93.6156C36.9482 93.507 36.8064 93.4058 36.6693 93.298ZM41.4383 96.2925C41.3738 96.4222 41.2196 96.4785 41.0872 96.4207L40.748 96.2734C40.7209 96.2675 40.6917 96.2566 40.6595 96.241C40.6183 96.221 40.5771 96.2011 40.536 96.1812C40.5332 96.18 40.5305 96.1789 40.5278 96.1773C40.2613 96.0503 39.9921 95.9289 39.7256 95.8019C39.5182 95.7031 39.451 95.7082 39.2949 95.8566V96.9882C39.2949 97.0335 39.2583 97.0703 39.2133 97.0703H39.1535C39.1084 97.0703 39.0719 97.0335 39.0719 96.9882V96.7761C39.0719 96.6421 38.9639 96.5335 38.8307 96.5335C38.6974 96.5335 38.589 96.6414 38.589 96.7746V96.7761C38.5894 96.8195 38.5898 96.8624 38.591 96.9058C38.5929 97.0023 38.5615 97.048 38.4574 97.0464C38.1279 97.0421 37.7985 97.0437 37.4687 97.0457C37.386 97.0464 37.3417 97.0195 37.3417 96.9292C37.3437 96.1777 37.3441 95.4257 37.3452 94.6742C37.3452 94.6652 37.3518 94.6562 37.3654 94.6199C37.419 94.6792 37.4602 94.7253 37.5022 94.7714C37.6746 94.9613 37.8619 94.9648 38.039 94.7746C38.1909 94.6109 38.3385 94.4421 38.4845 94.2726C38.5467 94.2003 38.6057 94.1718 38.7091 94.1929C39.0517 94.2628 39.3601 94.4035 39.6522 94.5937C39.9692 94.8 40.2916 94.9984 40.6167 95.191C40.8168 95.3093 40.973 95.264 41.1011 95.0683C41.1734 94.9585 41.2499 94.8499 41.3066 94.732C41.3665 94.6074 41.4391 94.5781 41.5545 94.6519C41.5712 94.6624 41.5886 94.671 41.6096 94.6808L41.6259 94.6886L42.1232 94.9179L41.4383 96.2925ZM44.0786 94.1203C44.0693 94.121 44.0596 94.1207 44.0499 94.1207H43.6723C43.5659 94.121 43.4594 94.123 43.353 94.1207C43.1704 94.1164 43.0127 94.1765 42.8744 94.2953C42.6697 94.4703 42.4518 94.532 42.195 94.3984C42.0326 94.314 41.8563 94.2578 41.6893 94.182C41.6244 94.1527 41.5203 94.1085 41.5164 94.0636C41.5075 93.9585 41.5106 93.8101 41.5747 93.7476C41.9002 93.4304 42.1057 93.03 42.3628 92.666C42.4405 92.555 42.5501 92.53 42.653 92.591C42.7482 92.6476 42.7734 92.7675 42.7078 92.8871C42.6635 92.9679 42.6056 93.0414 42.5609 93.1218C42.4083 93.3984 42.5765 93.6941 42.8907 93.6972C43.2726 93.7011 43.6552 93.691 44.0371 93.7042C44.119 93.707 44.2297 93.7624 44.2725 93.8292C44.3556 93.9585 44.2453 94.1074 44.0786 94.1203Z" fill="url(#paint12_linear_10713_83753)"/>
<path d="M48.4187 84.6832C48.4206 84.5156 48.421 84.3477 48.416 84.1801C48.3938 83.4387 47.8908 82.7852 47.1846 82.5766C47.0929 82.5496 46.9993 82.5281 46.9069 82.5039H43.4174C43.405 82.5109 43.3929 82.5227 43.3797 82.5242C42.616 82.6164 41.8757 83.3184 41.9005 84.3387C41.9184 85.0754 41.9021 85.8129 41.9063 86.55C41.9067 86.6469 41.878 86.7004 41.7925 86.743C41.5975 86.8406 41.4056 86.9445 41.2161 87.052C40.8917 87.2363 40.889 87.6121 41.2098 87.7996C41.3563 87.8852 41.502 87.977 41.6589 88.0375C41.8632 88.1164 41.9114 88.2469 41.9094 88.4594C41.8997 89.5195 42.6452 90.266 43.6959 90.2672C44.6698 90.2688 45.6436 90.2684 46.6179 90.2672C47.6775 90.2664 48.4172 89.5207 48.4187 88.4523C48.4195 87.7105 48.4187 86.9684 48.4187 86.2266V84.6832ZM47.9798 88.5293C47.9743 89.2508 47.4227 89.818 46.7107 89.8242C45.6739 89.8332 44.6371 89.8316 43.6004 89.8254C43.0558 89.8223 42.5617 89.4605 42.4109 88.9371C42.35 88.7262 42.3476 88.4949 42.3437 88.2723C42.3395 88.027 42.2474 87.8531 42.0287 87.7418C41.8403 87.6465 41.6566 87.5414 41.4468 87.4281C41.6507 87.3172 41.829 87.2125 42.0139 87.1215C42.2451 87.0074 42.3437 86.8285 42.3422 86.5703C42.3367 85.7844 42.3352 84.9984 42.3426 84.2125C42.3492 83.527 42.9023 82.9547 43.5794 82.9477C44.6305 82.9367 45.6821 82.9387 46.7332 82.9484C47.3446 82.9539 47.8628 83.4094 47.9537 84.018C47.9805 84.1977 47.9786 84.3813 47.979 84.5645V86.2266H47.9836C47.9805 86.9941 47.9852 87.7617 47.9798 88.5293Z" fill="white"/>
<path d="M48.4187 84.6832C48.4206 84.5156 48.421 84.3477 48.416 84.1801C48.3938 83.4387 47.8908 82.7852 47.1846 82.5766C47.0929 82.5496 46.9993 82.5281 46.9069 82.5039H43.4174C43.405 82.5109 43.3929 82.5227 43.3797 82.5242C42.616 82.6164 41.8757 83.3184 41.9005 84.3387C41.9184 85.0754 41.9021 85.8129 41.9063 86.55C41.9067 86.6469 41.878 86.7004 41.7925 86.743C41.5975 86.8406 41.4056 86.9445 41.2161 87.052C40.8917 87.2363 40.889 87.6121 41.2098 87.7996C41.3563 87.8852 41.502 87.977 41.6589 88.0375C41.8632 88.1164 41.9114 88.2469 41.9094 88.4594C41.8997 89.5195 42.6452 90.266 43.6959 90.2672C44.6698 90.2688 45.6436 90.2684 46.6179 90.2672C47.6775 90.2664 48.4172 89.5207 48.4187 88.4523C48.4195 87.7105 48.4187 86.9684 48.4187 86.2266V84.6832ZM47.9798 88.5293C47.9743 89.2508 47.4227 89.818 46.7107 89.8242C45.6739 89.8332 44.6371 89.8316 43.6004 89.8254C43.0558 89.8223 42.5617 89.4605 42.4109 88.9371C42.35 88.7262 42.3476 88.4949 42.3437 88.2723C42.3395 88.027 42.2474 87.8531 42.0287 87.7418C41.8403 87.6465 41.6566 87.5414 41.4468 87.4281C41.6507 87.3172 41.829 87.2125 42.0139 87.1215C42.2451 87.0074 42.3437 86.8285 42.3422 86.5703C42.3367 85.7844 42.3352 84.9984 42.3426 84.2125C42.3492 83.527 42.9023 82.9547 43.5794 82.9477C44.6305 82.9367 45.6821 82.9387 46.7332 82.9484C47.3446 82.9539 47.8628 83.4094 47.9537 84.018C47.9805 84.1977 47.9786 84.3813 47.979 84.5645V86.2266H47.9836C47.9805 86.9941 47.9852 87.7617 47.9798 88.5293Z" fill="url(#paint13_linear_10713_83753)"/>
<path d="M47.9843 86.2245H47.9797V84.5624C47.9793 84.3792 47.9812 84.1956 47.9544 84.0159C47.8635 83.4073 47.3453 82.9518 46.7339 82.9464C45.6828 82.9366 44.6312 82.9347 43.5801 82.9456C42.903 82.9526 42.3499 83.5249 42.3433 84.2104C42.3359 84.9964 42.3374 85.7823 42.3429 86.5683C42.3444 86.8265 42.2458 87.0054 42.0146 87.1194C41.8297 87.2104 41.6514 87.3151 41.4475 87.4261C41.6573 87.5393 41.841 87.6444 42.0294 87.7397C42.2481 87.8511 42.3402 88.0249 42.3444 88.2702C42.3483 88.4929 42.3506 88.7241 42.4116 88.935C42.5623 89.4585 43.0565 89.8202 43.6011 89.8233C44.6378 89.8296 45.6746 89.8311 46.7114 89.8222C47.4234 89.8159 47.975 89.2487 47.9804 88.5272C47.9859 87.7597 47.9812 86.9921 47.9843 86.2245ZM45.2116 88.6542C43.9736 88.6503 42.971 87.6339 42.9714 86.3831C42.9718 85.1257 43.9794 84.1116 45.2271 84.1132C46.4698 84.1151 47.486 85.1433 47.4786 86.3913C47.4708 87.646 46.4573 88.6577 45.2116 88.6542Z" fill="white"/>
<path d="M47.9843 86.2245H47.9797V84.5624C47.9793 84.3792 47.9812 84.1956 47.9544 84.0159C47.8635 83.4073 47.3453 82.9518 46.7339 82.9464C45.6828 82.9366 44.6312 82.9347 43.5801 82.9456C42.903 82.9526 42.3499 83.5249 42.3433 84.2104C42.3359 84.9964 42.3374 85.7823 42.3429 86.5683C42.3444 86.8265 42.2458 87.0054 42.0146 87.1194C41.8297 87.2104 41.6514 87.3151 41.4475 87.4261C41.6573 87.5393 41.841 87.6444 42.0294 87.7397C42.2481 87.8511 42.3402 88.0249 42.3444 88.2702C42.3483 88.4929 42.3506 88.7241 42.4116 88.935C42.5623 89.4585 43.0565 89.8202 43.6011 89.8233C44.6378 89.8296 45.6746 89.8311 46.7114 89.8222C47.4234 89.8159 47.975 89.2487 47.9804 88.5272C47.9859 87.7597 47.9812 86.9921 47.9843 86.2245ZM45.2116 88.6542C43.9736 88.6503 42.971 87.6339 42.9714 86.3831C42.9718 85.1257 43.9794 84.1116 45.2271 84.1132C46.4698 84.1151 47.486 85.1433 47.4786 86.3913C47.4708 87.646 46.4573 88.6577 45.2116 88.6542Z" fill="url(#paint14_linear_10713_83753)"/>
<path d="M48.4202 86.2309V85.861C48.4252 85.9836 48.4202 86.1075 48.4202 86.2309Z" fill="white"/>
<path d="M48.4202 86.2309V85.861C48.4252 85.9836 48.4202 86.1075 48.4202 86.2309Z" fill="url(#paint15_linear_10713_83753)"/>
<path d="M45.2218 84.5582C44.2273 84.5535 43.4143 85.375 43.4147 86.3839C43.4147 87.3882 44.2172 88.207 45.2058 88.2117C46.2135 88.2164 47.0281 87.4003 47.0284 86.3851C47.0284 85.3761 46.224 84.5625 45.2218 84.5582ZM45.9629 85.5843C46.088 85.5843 46.1843 85.6894 46.1843 85.825C46.1843 85.9632 46.0911 86.0628 45.9621 86.0628C45.8336 86.0625 45.7407 85.9625 45.7407 85.8246C45.7411 85.6886 45.8378 85.5843 45.9629 85.5843ZM44.4837 85.5843C44.6092 85.5847 44.7036 85.6886 44.7032 85.8261C44.7032 85.9656 44.6111 86.0632 44.4814 86.0625C44.354 86.0621 44.2588 85.9593 44.2592 85.8238C44.26 85.6894 44.359 85.5839 44.4837 85.5843ZM46.2585 86.8972C46.0173 87.2785 45.6533 87.4207 45.221 87.4304C44.7914 87.4203 44.4235 87.2804 44.1904 86.8937C44.15 86.8261 44.1395 86.7093 44.1683 86.6367C44.2312 86.4761 44.4604 86.4656 44.5408 86.6273C44.7121 86.9714 45.2517 87.0687 45.5947 86.9007C45.7058 86.846 45.8013 86.7445 45.8829 86.6468C45.9851 86.5246 46.0927 86.4808 46.2053 86.5511C46.3203 86.6226 46.3452 86.7597 46.2585 86.8972Z" fill="white"/>
<path d="M45.2218 84.5582C44.2273 84.5535 43.4143 85.375 43.4147 86.3839C43.4147 87.3882 44.2172 88.207 45.2058 88.2117C46.2135 88.2164 47.0281 87.4003 47.0284 86.3851C47.0284 85.3761 46.224 84.5625 45.2218 84.5582ZM45.9629 85.5843C46.088 85.5843 46.1843 85.6894 46.1843 85.825C46.1843 85.9632 46.0911 86.0628 45.9621 86.0628C45.8336 86.0625 45.7407 85.9625 45.7407 85.8246C45.7411 85.6886 45.8378 85.5843 45.9629 85.5843ZM44.4837 85.5843C44.6092 85.5847 44.7036 85.6886 44.7032 85.8261C44.7032 85.9656 44.6111 86.0632 44.4814 86.0625C44.354 86.0621 44.2588 85.9593 44.2592 85.8238C44.26 85.6894 44.359 85.5839 44.4837 85.5843ZM46.2585 86.8972C46.0173 87.2785 45.6533 87.4207 45.221 87.4304C44.7914 87.4203 44.4235 87.2804 44.1904 86.8937C44.15 86.8261 44.1395 86.7093 44.1683 86.6367C44.2312 86.4761 44.4604 86.4656 44.5408 86.6273C44.7121 86.9714 45.2517 87.0687 45.5947 86.9007C45.7058 86.846 45.8013 86.7445 45.8829 86.6468C45.9851 86.5246 46.0927 86.4808 46.2053 86.5511C46.3203 86.6226 46.3452 86.7597 46.2585 86.8972Z" fill="url(#paint16_linear_10713_83753)"/>
<rect x="54.8398" y="84.6055" width="51" height="6" rx="1.39352" fill="url(#paint17_linear_10713_83753)"/>
<path d="M54.8398 93.8906C54.8398 93.6145 55.2681 93.3906 55.7964 93.3906H78.7529C79.2812 93.3906 79.7094 93.6145 79.7094 93.8906V94.8906C79.7094 95.1668 79.2812 95.3906 78.7529 95.3906H55.7964C55.2681 95.3906 54.8398 95.1668 54.8398 94.8906V93.8906Z" fill="white"/>
<path d="M54.8398 93.8906C54.8398 93.6145 55.2681 93.3906 55.7964 93.3906H78.7529C79.2812 93.3906 79.7094 93.6145 79.7094 93.8906V94.8906C79.7094 95.1668 79.2812 95.3906 78.7529 95.3906H55.7964C55.2681 95.3906 54.8398 95.1668 54.8398 94.8906V93.8906Z" fill="url(#paint18_linear_10713_83753)"/>
<path d="M83.5355 93.8906C83.5355 93.6145 83.9637 93.3906 84.492 93.3906H97.8833C98.4116 93.3906 98.8398 93.6145 98.8398 93.8906V94.8906C98.8398 95.1668 98.4116 95.3906 97.8833 95.3906H84.492C83.9637 95.3906 83.5355 95.1668 83.5355 94.8906V93.8906Z" fill="white"/>
<path d="M83.5355 93.8906C83.5355 93.6145 83.9637 93.3906 84.492 93.3906H97.8833C98.4116 93.3906 98.8398 93.6145 98.8398 93.8906V94.8906C98.8398 95.1668 98.4116 95.3906 97.8833 95.3906H84.492C83.9637 95.3906 83.5355 95.1668 83.5355 94.8906V93.8906Z" fill="url(#paint19_linear_10713_83753)"/>
<rect width="82" height="22" transform="translate(27 106)" fill="url(#paint20_linear_10713_83753)"/>
<path d="M44.0852 120.252C43.7752 120.247 43.4653 120.251 43.1549 120.25C43.1149 120.25 43.0749 120.244 43.0263 120.241C43.0651 120.166 43.1001 120.109 43.1277 120.047C43.2691 119.727 43.1627 119.363 42.883 119.203C42.5703 119.024 42.204 119.107 41.9969 119.405C41.9499 119.473 41.9076 119.544 41.8598 119.611C41.6877 119.852 41.5347 120.111 41.3358 120.327C41.1594 120.52 41.0359 120.724 41.065 120.977C41.1019 121.299 40.8953 121.496 40.7578 121.746C40.4777 121.571 40.2046 121.413 39.9455 121.234C39.5547 120.966 39.1333 120.785 38.6644 120.716C38.6057 120.707 38.5432 120.681 38.4954 120.646C38.363 120.547 38.2363 120.441 38.1097 120.335C37.9772 120.223 38.0064 120.029 38.1617 119.953C38.8376 119.623 39.2925 119.1 39.5229 118.378C39.5357 118.337 39.5508 118.298 39.5644 118.26C40.1285 118.318 40.4315 118.112 40.588 117.563C40.6634 117.297 40.6805 117.026 40.6335 116.752C40.5495 116.26 40.3398 116.033 39.8659 115.922C39.8597 115.921 39.855 115.911 39.855 115.911C39.8845 115.642 39.9257 115.382 39.9405 115.12C40.0127 113.831 39.4697 112.794 38.1221 112.48C38.0786 112.469 38.0339 112.439 38.0036 112.405C37.8521 112.235 37.6626 112.132 37.4466 112.08C36.834 111.932 36.2447 112.048 35.6679 112.258C35.6147 112.277 35.542 112.358 35.5467 112.403C35.5626 112.559 35.4577 112.587 35.3571 112.633C35.2822 112.667 35.208 112.703 35.1369 112.744C35.0763 112.78 35.0355 112.774 34.9702 112.736C34.9096 112.701 34.7982 112.685 34.7442 112.719C34.3184 112.984 33.9463 113.309 33.7334 113.78C33.5066 114.282 33.6639 114.717 34.1494 114.969C34.1848 114.988 34.2357 115.019 34.2396 115.05C34.2761 115.338 34.3037 115.628 34.334 115.917C33.9777 116.01 33.7866 116.135 33.6678 116.382H33.6072C33.5046 116.382 33.4219 116.466 33.4219 116.569V117.655C33.4219 117.758 33.505 117.842 33.6072 117.842H33.7198C33.8608 118.126 34.0916 118.296 34.4249 118.284C34.487 118.282 34.5488 118.266 34.621 118.255C34.6354 118.294 34.6517 118.333 34.6645 118.373C34.7096 118.517 34.7636 118.653 34.8269 118.781C34.912 118.954 35.0134 119.113 35.1311 119.258C35.3665 119.548 35.6671 119.781 36.0323 119.958C36.1799 120.029 36.2102 120.223 36.0851 120.33C35.9557 120.44 35.8252 120.55 35.6889 120.65C35.6411 120.686 35.5766 120.708 35.5172 120.716C34.6346 120.834 34.0745 121.469 34.0694 122.368C34.0667 122.866 34.078 123.363 34.0655 123.86C34.0578 124.172 34.1689 124.387 34.4621 124.498H39.289C39.5971 124.394 39.7117 124.169 39.695 123.853C39.686 123.681 39.6934 123.507 39.6934 123.313C39.7715 123.349 39.8266 123.376 39.8834 123.4C40.2186 123.538 40.5484 123.694 40.8918 123.808C41.3754 123.968 41.5782 123.879 41.8528 123.444C41.8711 123.416 41.8913 123.387 41.9045 123.356C42.0925 122.919 42.2805 122.481 42.4642 122.041C42.4941 121.969 42.5283 121.936 42.6083 121.907C42.796 121.838 42.9711 121.735 43.1533 121.65C43.2252 121.616 43.3021 121.576 43.3782 121.573C43.6105 121.562 43.8432 121.57 44.0759 121.568C44.4558 121.565 44.7514 121.274 44.7495 120.908C44.7475 120.546 44.4581 120.257 44.0852 120.252ZM39.7004 116.514C39.719 116.362 39.8332 116.363 39.9257 116.411C40.0046 116.453 40.0853 116.532 40.1191 116.613C40.2656 116.966 40.233 117.318 40.0547 117.652C40.0174 117.721 39.937 117.783 39.862 117.814C39.7295 117.868 39.6503 117.802 39.6491 117.66C39.6483 117.504 39.6491 117.348 39.6491 117.193C39.6413 117.192 39.6336 117.191 39.6258 117.19C39.6503 116.965 39.6732 116.739 39.7004 116.514ZM38.1602 120.942C38.0332 121.085 37.9112 121.222 37.7733 121.377C37.6509 121.231 37.5394 121.098 37.4159 120.95C37.5495 120.851 37.6758 120.757 37.809 120.659C37.926 120.753 38.0382 120.844 38.1602 120.942ZM35.7518 119.258H36.8154C36.89 119.258 36.9579 119.228 37.0069 119.178C37.0543 119.13 37.0838 119.066 37.0861 118.993C37.0904 118.839 36.9572 118.713 36.8037 118.713H35.2903C35.1645 118.494 35.0763 118.243 35.0405 117.965C34.9465 117.235 34.9081 116.481 35.3136 115.8C35.3412 115.754 35.3657 115.707 35.394 115.661C35.5991 115.336 35.6745 115.304 36.033 115.43C36.7657 115.687 37.4936 115.671 38.2208 115.41C38.4783 115.317 38.5735 115.339 38.7242 115.57C38.993 115.982 39.1939 116.422 39.176 116.933C39.1721 117.055 39.1756 117.177 39.1756 117.299C39.1861 117.71 39.1764 118.119 38.9911 118.5C38.6508 119.2 38.1011 119.603 37.3316 119.719C36.7913 119.8 36.2005 119.63 35.7518 119.258ZM36.1294 120.86C36.2094 120.799 36.2867 120.734 36.3655 120.669C36.4677 120.743 36.5699 120.809 36.6604 120.887C36.6872 120.91 36.7043 120.988 36.6868 121.012C36.6091 121.121 36.517 121.219 36.4157 121.339C36.303 121.213 36.2113 121.107 36.1166 121.005C36.0645 120.949 36.0707 120.906 36.1294 120.86ZM36.7004 124.048C36.376 124.039 36.0513 124.038 35.7269 124.048C35.5836 124.053 35.542 124.004 35.549 123.865C35.5584 123.665 35.4853 123.563 35.347 123.548C35.1823 123.53 35.0794 123.631 35.0654 123.824C35.0499 124.045 35.0499 124.045 34.8269 124.045C34.4975 124.046 34.5332 124.065 34.5328 123.742C34.5321 123.274 34.5321 122.805 34.5328 122.336C34.534 121.724 34.9341 121.26 35.5323 121.185C35.5786 121.179 35.6434 121.213 35.678 121.25C35.8287 121.408 35.9713 121.575 36.1169 121.738C36.3318 121.978 36.5128 121.977 36.7221 121.733C36.754 121.696 36.7866 121.66 36.82 121.625C36.8255 121.619 36.8367 121.619 36.8558 121.613C36.8577 121.653 36.8616 121.69 36.8616 121.727C36.862 122.445 36.8593 123.162 36.8643 123.88C36.8655 124.007 36.8301 124.051 36.7004 124.048ZM36.6693 120.298C36.6456 120.279 36.6421 120.234 36.6293 120.2C36.66 120.193 36.6903 120.179 36.721 120.178C36.9711 120.177 37.2209 120.176 37.4711 120.178C37.5014 120.178 37.5317 120.193 37.562 120.202C37.5484 120.235 37.5441 120.28 37.5196 120.299C37.3829 120.407 37.2411 120.508 37.0954 120.616C36.9482 120.507 36.8064 120.406 36.6693 120.298ZM41.4383 123.293C41.3738 123.422 41.2196 123.478 41.0872 123.421L40.748 123.273C40.7209 123.268 40.6917 123.257 40.6595 123.241C40.6183 123.221 40.5771 123.201 40.536 123.181C40.5332 123.18 40.5305 123.179 40.5278 123.177C40.2613 123.05 39.9921 122.929 39.7256 122.802C39.5182 122.703 39.451 122.708 39.2949 122.857V123.988C39.2949 124.034 39.2583 124.07 39.2133 124.07H39.1535C39.1084 124.07 39.0719 124.034 39.0719 123.988V123.776C39.0719 123.642 38.9639 123.534 38.8307 123.534C38.6974 123.534 38.589 123.641 38.589 123.775V123.776C38.5894 123.819 38.5898 123.862 38.591 123.906C38.5929 124.002 38.5615 124.048 38.4574 124.046C38.1279 124.042 37.7985 124.044 37.4687 124.046C37.386 124.046 37.3417 124.019 37.3417 123.929C37.3437 123.178 37.3441 122.426 37.3452 121.674C37.3452 121.665 37.3518 121.656 37.3654 121.62C37.419 121.679 37.4602 121.725 37.5022 121.771C37.6746 121.961 37.8619 121.965 38.039 121.775C38.1909 121.611 38.3385 121.442 38.4845 121.273C38.5467 121.2 38.6057 121.172 38.7091 121.193C39.0517 121.263 39.3601 121.403 39.6522 121.594C39.9692 121.8 40.2916 121.998 40.6167 122.191C40.8168 122.309 40.973 122.264 41.1011 122.068C41.1734 121.959 41.2499 121.85 41.3066 121.732C41.3665 121.607 41.4391 121.578 41.5545 121.652C41.5712 121.662 41.5886 121.671 41.6096 121.681L41.6259 121.689L42.1232 121.918L41.4383 123.293ZM44.0786 121.12C44.0693 121.121 44.0596 121.121 44.0499 121.121H43.6723C43.5659 121.121 43.4594 121.123 43.353 121.121C43.1704 121.116 43.0127 121.177 42.8744 121.295C42.6697 121.47 42.4518 121.532 42.195 121.398C42.0326 121.314 41.8563 121.258 41.6893 121.182C41.6244 121.153 41.5203 121.109 41.5164 121.064C41.5075 120.959 41.5106 120.81 41.5747 120.748C41.9002 120.43 42.1057 120.03 42.3628 119.666C42.4405 119.555 42.5501 119.53 42.653 119.591C42.7482 119.648 42.7734 119.768 42.7078 119.887C42.6635 119.968 42.6056 120.041 42.5609 120.122C42.4083 120.398 42.5765 120.694 42.8907 120.697C43.2726 120.701 43.6552 120.691 44.0371 120.704C44.119 120.707 44.2297 120.762 44.2725 120.829C44.3556 120.959 44.2453 121.107 44.0786 121.12Z" fill="white"/>
<path d="M44.0852 120.252C43.7752 120.247 43.4653 120.251 43.1549 120.25C43.1149 120.25 43.0749 120.244 43.0263 120.241C43.0651 120.166 43.1001 120.109 43.1277 120.047C43.2691 119.727 43.1627 119.363 42.883 119.203C42.5703 119.024 42.204 119.107 41.9969 119.405C41.9499 119.473 41.9076 119.544 41.8598 119.611C41.6877 119.852 41.5347 120.111 41.3358 120.327C41.1594 120.52 41.0359 120.724 41.065 120.977C41.1019 121.299 40.8953 121.496 40.7578 121.746C40.4777 121.571 40.2046 121.413 39.9455 121.234C39.5547 120.966 39.1333 120.785 38.6644 120.716C38.6057 120.707 38.5432 120.681 38.4954 120.646C38.363 120.547 38.2363 120.441 38.1097 120.335C37.9772 120.223 38.0064 120.029 38.1617 119.953C38.8376 119.623 39.2925 119.1 39.5229 118.378C39.5357 118.337 39.5508 118.298 39.5644 118.26C40.1285 118.318 40.4315 118.112 40.588 117.563C40.6634 117.297 40.6805 117.026 40.6335 116.752C40.5495 116.26 40.3398 116.033 39.8659 115.922C39.8597 115.921 39.855 115.911 39.855 115.911C39.8845 115.642 39.9257 115.382 39.9405 115.12C40.0127 113.831 39.4697 112.794 38.1221 112.48C38.0786 112.469 38.0339 112.439 38.0036 112.405C37.8521 112.235 37.6626 112.132 37.4466 112.08C36.834 111.932 36.2447 112.048 35.6679 112.258C35.6147 112.277 35.542 112.358 35.5467 112.403C35.5626 112.559 35.4577 112.587 35.3571 112.633C35.2822 112.667 35.208 112.703 35.1369 112.744C35.0763 112.78 35.0355 112.774 34.9702 112.736C34.9096 112.701 34.7982 112.685 34.7442 112.719C34.3184 112.984 33.9463 113.309 33.7334 113.78C33.5066 114.282 33.6639 114.717 34.1494 114.969C34.1848 114.988 34.2357 115.019 34.2396 115.05C34.2761 115.338 34.3037 115.628 34.334 115.917C33.9777 116.01 33.7866 116.135 33.6678 116.382H33.6072C33.5046 116.382 33.4219 116.466 33.4219 116.569V117.655C33.4219 117.758 33.505 117.842 33.6072 117.842H33.7198C33.8608 118.126 34.0916 118.296 34.4249 118.284C34.487 118.282 34.5488 118.266 34.621 118.255C34.6354 118.294 34.6517 118.333 34.6645 118.373C34.7096 118.517 34.7636 118.653 34.8269 118.781C34.912 118.954 35.0134 119.113 35.1311 119.258C35.3665 119.548 35.6671 119.781 36.0323 119.958C36.1799 120.029 36.2102 120.223 36.0851 120.33C35.9557 120.44 35.8252 120.55 35.6889 120.65C35.6411 120.686 35.5766 120.708 35.5172 120.716C34.6346 120.834 34.0745 121.469 34.0694 122.368C34.0667 122.866 34.078 123.363 34.0655 123.86C34.0578 124.172 34.1689 124.387 34.4621 124.498H39.289C39.5971 124.394 39.7117 124.169 39.695 123.853C39.686 123.681 39.6934 123.507 39.6934 123.313C39.7715 123.349 39.8266 123.376 39.8834 123.4C40.2186 123.538 40.5484 123.694 40.8918 123.808C41.3754 123.968 41.5782 123.879 41.8528 123.444C41.8711 123.416 41.8913 123.387 41.9045 123.356C42.0925 122.919 42.2805 122.481 42.4642 122.041C42.4941 121.969 42.5283 121.936 42.6083 121.907C42.796 121.838 42.9711 121.735 43.1533 121.65C43.2252 121.616 43.3021 121.576 43.3782 121.573C43.6105 121.562 43.8432 121.57 44.0759 121.568C44.4558 121.565 44.7514 121.274 44.7495 120.908C44.7475 120.546 44.4581 120.257 44.0852 120.252ZM39.7004 116.514C39.719 116.362 39.8332 116.363 39.9257 116.411C40.0046 116.453 40.0853 116.532 40.1191 116.613C40.2656 116.966 40.233 117.318 40.0547 117.652C40.0174 117.721 39.937 117.783 39.862 117.814C39.7295 117.868 39.6503 117.802 39.6491 117.66C39.6483 117.504 39.6491 117.348 39.6491 117.193C39.6413 117.192 39.6336 117.191 39.6258 117.19C39.6503 116.965 39.6732 116.739 39.7004 116.514ZM38.1602 120.942C38.0332 121.085 37.9112 121.222 37.7733 121.377C37.6509 121.231 37.5394 121.098 37.4159 120.95C37.5495 120.851 37.6758 120.757 37.809 120.659C37.926 120.753 38.0382 120.844 38.1602 120.942ZM35.7518 119.258H36.8154C36.89 119.258 36.9579 119.228 37.0069 119.178C37.0543 119.13 37.0838 119.066 37.0861 118.993C37.0904 118.839 36.9572 118.713 36.8037 118.713H35.2903C35.1645 118.494 35.0763 118.243 35.0405 117.965C34.9465 117.235 34.9081 116.481 35.3136 115.8C35.3412 115.754 35.3657 115.707 35.394 115.661C35.5991 115.336 35.6745 115.304 36.033 115.43C36.7657 115.687 37.4936 115.671 38.2208 115.41C38.4783 115.317 38.5735 115.339 38.7242 115.57C38.993 115.982 39.1939 116.422 39.176 116.933C39.1721 117.055 39.1756 117.177 39.1756 117.299C39.1861 117.71 39.1764 118.119 38.9911 118.5C38.6508 119.2 38.1011 119.603 37.3316 119.719C36.7913 119.8 36.2005 119.63 35.7518 119.258ZM36.1294 120.86C36.2094 120.799 36.2867 120.734 36.3655 120.669C36.4677 120.743 36.5699 120.809 36.6604 120.887C36.6872 120.91 36.7043 120.988 36.6868 121.012C36.6091 121.121 36.517 121.219 36.4157 121.339C36.303 121.213 36.2113 121.107 36.1166 121.005C36.0645 120.949 36.0707 120.906 36.1294 120.86ZM36.7004 124.048C36.376 124.039 36.0513 124.038 35.7269 124.048C35.5836 124.053 35.542 124.004 35.549 123.865C35.5584 123.665 35.4853 123.563 35.347 123.548C35.1823 123.53 35.0794 123.631 35.0654 123.824C35.0499 124.045 35.0499 124.045 34.8269 124.045C34.4975 124.046 34.5332 124.065 34.5328 123.742C34.5321 123.274 34.5321 122.805 34.5328 122.336C34.534 121.724 34.9341 121.26 35.5323 121.185C35.5786 121.179 35.6434 121.213 35.678 121.25C35.8287 121.408 35.9713 121.575 36.1169 121.738C36.3318 121.978 36.5128 121.977 36.7221 121.733C36.754 121.696 36.7866 121.66 36.82 121.625C36.8255 121.619 36.8367 121.619 36.8558 121.613C36.8577 121.653 36.8616 121.69 36.8616 121.727C36.862 122.445 36.8593 123.162 36.8643 123.88C36.8655 124.007 36.8301 124.051 36.7004 124.048ZM36.6693 120.298C36.6456 120.279 36.6421 120.234 36.6293 120.2C36.66 120.193 36.6903 120.179 36.721 120.178C36.9711 120.177 37.2209 120.176 37.4711 120.178C37.5014 120.178 37.5317 120.193 37.562 120.202C37.5484 120.235 37.5441 120.28 37.5196 120.299C37.3829 120.407 37.2411 120.508 37.0954 120.616C36.9482 120.507 36.8064 120.406 36.6693 120.298ZM41.4383 123.293C41.3738 123.422 41.2196 123.478 41.0872 123.421L40.748 123.273C40.7209 123.268 40.6917 123.257 40.6595 123.241C40.6183 123.221 40.5771 123.201 40.536 123.181C40.5332 123.18 40.5305 123.179 40.5278 123.177C40.2613 123.05 39.9921 122.929 39.7256 122.802C39.5182 122.703 39.451 122.708 39.2949 122.857V123.988C39.2949 124.034 39.2583 124.07 39.2133 124.07H39.1535C39.1084 124.07 39.0719 124.034 39.0719 123.988V123.776C39.0719 123.642 38.9639 123.534 38.8307 123.534C38.6974 123.534 38.589 123.641 38.589 123.775V123.776C38.5894 123.819 38.5898 123.862 38.591 123.906C38.5929 124.002 38.5615 124.048 38.4574 124.046C38.1279 124.042 37.7985 124.044 37.4687 124.046C37.386 124.046 37.3417 124.019 37.3417 123.929C37.3437 123.178 37.3441 122.426 37.3452 121.674C37.3452 121.665 37.3518 121.656 37.3654 121.62C37.419 121.679 37.4602 121.725 37.5022 121.771C37.6746 121.961 37.8619 121.965 38.039 121.775C38.1909 121.611 38.3385 121.442 38.4845 121.273C38.5467 121.2 38.6057 121.172 38.7091 121.193C39.0517 121.263 39.3601 121.403 39.6522 121.594C39.9692 121.8 40.2916 121.998 40.6167 122.191C40.8168 122.309 40.973 122.264 41.1011 122.068C41.1734 121.959 41.2499 121.85 41.3066 121.732C41.3665 121.607 41.4391 121.578 41.5545 121.652C41.5712 121.662 41.5886 121.671 41.6096 121.681L41.6259 121.689L42.1232 121.918L41.4383 123.293ZM44.0786 121.12C44.0693 121.121 44.0596 121.121 44.0499 121.121H43.6723C43.5659 121.121 43.4594 121.123 43.353 121.121C43.1704 121.116 43.0127 121.177 42.8744 121.295C42.6697 121.47 42.4518 121.532 42.195 121.398C42.0326 121.314 41.8563 121.258 41.6893 121.182C41.6244 121.153 41.5203 121.109 41.5164 121.064C41.5075 120.959 41.5106 120.81 41.5747 120.748C41.9002 120.43 42.1057 120.03 42.3628 119.666C42.4405 119.555 42.5501 119.53 42.653 119.591C42.7482 119.648 42.7734 119.768 42.7078 119.887C42.6635 119.968 42.6056 120.041 42.5609 120.122C42.4083 120.398 42.5765 120.694 42.8907 120.697C43.2726 120.701 43.6552 120.691 44.0371 120.704C44.119 120.707 44.2297 120.762 44.2725 120.829C44.3556 120.959 44.2453 121.107 44.0786 121.12Z" fill="url(#paint21_linear_10713_83753)"/>
<path d="M48.4187 111.683C48.4206 111.516 48.421 111.348 48.416 111.18C48.3938 110.439 47.8908 109.785 47.1846 109.577C47.0929 109.55 46.9993 109.528 46.9069 109.504H43.4174C43.405 109.511 43.3929 109.523 43.3797 109.524C42.616 109.616 41.8757 110.318 41.9005 111.339C41.9184 112.075 41.9021 112.813 41.9063 113.55C41.9067 113.647 41.878 113.7 41.7925 113.743C41.5975 113.841 41.4056 113.945 41.2161 114.052C40.8917 114.236 40.889 114.612 41.2098 114.8C41.3563 114.885 41.502 114.977 41.6589 115.038C41.8632 115.116 41.9114 115.247 41.9094 115.459C41.8997 116.52 42.6452 117.266 43.6959 117.267C44.6698 117.269 45.6436 117.268 46.6179 117.267C47.6775 117.266 48.4172 116.521 48.4187 115.452C48.4195 114.711 48.4187 113.968 48.4187 113.227V111.683ZM47.9798 115.529C47.9743 116.251 47.4227 116.818 46.7107 116.824C45.6739 116.833 44.6371 116.832 43.6004 116.825C43.0558 116.822 42.5617 116.461 42.4109 115.937C42.35 115.726 42.3476 115.495 42.3437 115.272C42.3395 115.027 42.2474 114.853 42.0287 114.742C41.8403 114.646 41.6566 114.541 41.4468 114.428C41.6507 114.317 41.829 114.213 42.0139 114.121C42.2451 114.007 42.3437 113.829 42.3422 113.57C42.3367 112.784 42.3352 111.998 42.3426 111.213C42.3492 110.527 42.9023 109.955 43.5794 109.948C44.6305 109.937 45.6821 109.939 46.7332 109.948C47.3446 109.954 47.8628 110.409 47.9537 111.018C47.9805 111.198 47.9786 111.381 47.979 111.564V113.227H47.9836C47.9805 113.994 47.9852 114.762 47.9798 115.529Z" fill="white"/>
<path d="M48.4187 111.683C48.4206 111.516 48.421 111.348 48.416 111.18C48.3938 110.439 47.8908 109.785 47.1846 109.577C47.0929 109.55 46.9993 109.528 46.9069 109.504H43.4174C43.405 109.511 43.3929 109.523 43.3797 109.524C42.616 109.616 41.8757 110.318 41.9005 111.339C41.9184 112.075 41.9021 112.813 41.9063 113.55C41.9067 113.647 41.878 113.7 41.7925 113.743C41.5975 113.841 41.4056 113.945 41.2161 114.052C40.8917 114.236 40.889 114.612 41.2098 114.8C41.3563 114.885 41.502 114.977 41.6589 115.038C41.8632 115.116 41.9114 115.247 41.9094 115.459C41.8997 116.52 42.6452 117.266 43.6959 117.267C44.6698 117.269 45.6436 117.268 46.6179 117.267C47.6775 117.266 48.4172 116.521 48.4187 115.452C48.4195 114.711 48.4187 113.968 48.4187 113.227V111.683ZM47.9798 115.529C47.9743 116.251 47.4227 116.818 46.7107 116.824C45.6739 116.833 44.6371 116.832 43.6004 116.825C43.0558 116.822 42.5617 116.461 42.4109 115.937C42.35 115.726 42.3476 115.495 42.3437 115.272C42.3395 115.027 42.2474 114.853 42.0287 114.742C41.8403 114.646 41.6566 114.541 41.4468 114.428C41.6507 114.317 41.829 114.213 42.0139 114.121C42.2451 114.007 42.3437 113.829 42.3422 113.57C42.3367 112.784 42.3352 111.998 42.3426 111.213C42.3492 110.527 42.9023 109.955 43.5794 109.948C44.6305 109.937 45.6821 109.939 46.7332 109.948C47.3446 109.954 47.8628 110.409 47.9537 111.018C47.9805 111.198 47.9786 111.381 47.979 111.564V113.227H47.9836C47.9805 113.994 47.9852 114.762 47.9798 115.529Z" fill="url(#paint22_linear_10713_83753)"/>
<path d="M47.9843 113.225H47.9797V111.562C47.9793 111.379 47.9812 111.196 47.9544 111.016C47.8635 110.407 47.3453 109.952 46.7339 109.946C45.6828 109.937 44.6312 109.935 43.5801 109.946C42.903 109.953 42.3499 110.525 42.3433 111.21C42.3359 111.996 42.3374 112.782 42.3429 113.568C42.3444 113.826 42.2458 114.005 42.0146 114.119C41.8297 114.21 41.6514 114.315 41.4475 114.426C41.6573 114.539 41.841 114.644 42.0294 114.74C42.2481 114.851 42.3402 115.025 42.3444 115.27C42.3483 115.493 42.3506 115.724 42.4116 115.935C42.5623 116.458 43.0565 116.82 43.6011 116.823C44.6378 116.83 45.6746 116.831 46.7114 116.822C47.4234 116.816 47.975 116.249 47.9804 115.527C47.9859 114.76 47.9812 113.992 47.9843 113.225ZM45.2116 115.654C43.9736 115.65 42.971 114.634 42.9714 113.383C42.9718 112.126 43.9794 111.112 45.2271 111.113C46.4698 111.115 47.486 112.143 47.4786 113.391C47.4708 114.646 46.4573 115.658 45.2116 115.654Z" fill="white"/>
<path d="M47.9843 113.225H47.9797V111.562C47.9793 111.379 47.9812 111.196 47.9544 111.016C47.8635 110.407 47.3453 109.952 46.7339 109.946C45.6828 109.937 44.6312 109.935 43.5801 109.946C42.903 109.953 42.3499 110.525 42.3433 111.21C42.3359 111.996 42.3374 112.782 42.3429 113.568C42.3444 113.826 42.2458 114.005 42.0146 114.119C41.8297 114.21 41.6514 114.315 41.4475 114.426C41.6573 114.539 41.841 114.644 42.0294 114.74C42.2481 114.851 42.3402 115.025 42.3444 115.27C42.3483 115.493 42.3506 115.724 42.4116 115.935C42.5623 116.458 43.0565 116.82 43.6011 116.823C44.6378 116.83 45.6746 116.831 46.7114 116.822C47.4234 116.816 47.975 116.249 47.9804 115.527C47.9859 114.76 47.9812 113.992 47.9843 113.225ZM45.2116 115.654C43.9736 115.65 42.971 114.634 42.9714 113.383C42.9718 112.126 43.9794 111.112 45.2271 111.113C46.4698 111.115 47.486 112.143 47.4786 113.391C47.4708 114.646 46.4573 115.658 45.2116 115.654Z" fill="url(#paint23_linear_10713_83753)"/>
<path d="M48.4202 113.231V112.861C48.4252 112.984 48.4202 113.107 48.4202 113.231Z" fill="white"/>
<path d="M48.4202 113.231V112.861C48.4252 112.984 48.4202 113.107 48.4202 113.231Z" fill="url(#paint24_linear_10713_83753)"/>
<path d="M45.2218 111.558C44.2273 111.553 43.4143 112.375 43.4147 113.384C43.4147 114.388 44.2172 115.207 45.2058 115.212C46.2135 115.216 47.0281 114.4 47.0284 113.385C47.0284 112.376 46.224 111.562 45.2218 111.558ZM45.9629 112.584C46.088 112.584 46.1843 112.689 46.1843 112.825C46.1843 112.963 46.0911 113.063 45.9621 113.063C45.8336 113.062 45.7407 112.962 45.7407 112.825C45.7411 112.689 45.8378 112.584 45.9629 112.584ZM44.4837 112.584C44.6092 112.585 44.7036 112.689 44.7032 112.826C44.7032 112.966 44.6111 113.063 44.4814 113.062C44.354 113.062 44.2588 112.959 44.2592 112.824C44.26 112.689 44.359 112.584 44.4837 112.584ZM46.2585 113.897C46.0173 114.278 45.6533 114.421 45.221 114.43C44.7914 114.42 44.4235 114.28 44.1904 113.894C44.15 113.826 44.1395 113.709 44.1683 113.637C44.2312 113.476 44.4604 113.466 44.5408 113.627C44.7121 113.971 45.2517 114.069 45.5947 113.901C45.7058 113.846 45.8013 113.744 45.8829 113.647C45.9851 113.525 46.0927 113.481 46.2053 113.551C46.3203 113.623 46.3452 113.76 46.2585 113.897Z" fill="white"/>
<path d="M45.2218 111.558C44.2273 111.553 43.4143 112.375 43.4147 113.384C43.4147 114.388 44.2172 115.207 45.2058 115.212C46.2135 115.216 47.0281 114.4 47.0284 113.385C47.0284 112.376 46.224 111.562 45.2218 111.558ZM45.9629 112.584C46.088 112.584 46.1843 112.689 46.1843 112.825C46.1843 112.963 46.0911 113.063 45.9621 113.063C45.8336 113.062 45.7407 112.962 45.7407 112.825C45.7411 112.689 45.8378 112.584 45.9629 112.584ZM44.4837 112.584C44.6092 112.585 44.7036 112.689 44.7032 112.826C44.7032 112.966 44.6111 113.063 44.4814 113.062C44.354 113.062 44.2588 112.959 44.2592 112.824C44.26 112.689 44.359 112.584 44.4837 112.584ZM46.2585 113.897C46.0173 114.278 45.6533 114.421 45.221 114.43C44.7914 114.42 44.4235 114.28 44.1904 113.894C44.15 113.826 44.1395 113.709 44.1683 113.637C44.2312 113.476 44.4604 113.466 44.5408 113.627C44.7121 113.971 45.2517 114.069 45.5947 113.901C45.7058 113.846 45.8013 113.744 45.8829 113.647C45.9851 113.525 46.0927 113.481 46.2053 113.551C46.3203 113.623 46.3452 113.76 46.2585 113.897Z" fill="url(#paint25_linear_10713_83753)"/>
<rect x="54.8398" y="111.605" width="51" height="6" rx="1.39352" fill="url(#paint26_linear_10713_83753)"/>
<path d="M54.8398 120.891C54.8398 120.614 55.2681 120.391 55.7964 120.391H78.7529C79.2812 120.391 79.7094 120.614 79.7094 120.891V121.891C79.7094 122.167 79.2812 122.391 78.7529 122.391H55.7964C55.2681 122.391 54.8398 122.167 54.8398 121.891V120.891Z" fill="white"/>
<path d="M54.8398 120.891C54.8398 120.614 55.2681 120.391 55.7964 120.391H78.7529C79.2812 120.391 79.7094 120.614 79.7094 120.891V121.891C79.7094 122.167 79.2812 122.391 78.7529 122.391H55.7964C55.2681 122.391 54.8398 122.167 54.8398 121.891V120.891Z" fill="url(#paint27_linear_10713_83753)"/>
<path d="M83.5355 120.891C83.5355 120.614 83.9637 120.391 84.492 120.391H97.8833C98.4116 120.391 98.8398 120.614 98.8398 120.891V121.891C98.8398 122.167 98.4116 122.391 97.8833 122.391H84.492C83.9637 122.391 83.5355 122.167 83.5355 121.891V120.891Z" fill="white"/>
<path d="M83.5355 120.891C83.5355 120.614 83.9637 120.391 84.492 120.391H97.8833C98.4116 120.391 98.8398 120.614 98.8398 120.891V121.891C98.8398 122.167 98.4116 122.391 97.8833 122.391H84.492C83.9637 122.391 83.5355 122.167 83.5355 121.891V120.891Z" fill="url(#paint28_linear_10713_83753)"/>
<g filter="url(#filter0_d_10713_83753)">
<rect x="22" y="53.0625" width="92.8582" height="24.5602" rx="2.07947" transform="rotate(-2.50592 22 53.0625)" fill="url(#paint29_linear_10713_83753)" shape-rendering="crispEdges"/>
<path d="M41.7495 68.1226C41.4036 68.133 41.058 68.152 40.7118 68.1663C40.6672 68.1682 40.6223 68.1637 40.568 68.1621C40.6077 68.0774 40.6438 68.0113 40.6716 67.9415C40.8137 67.5778 40.6772 67.1765 40.3574 67.0115C39.9999 66.8273 39.5954 66.9375 39.3791 67.28C39.33 67.3581 39.2862 67.4399 39.2362 67.5172C39.0561 67.7944 38.898 68.0907 38.6867 68.3413C38.4994 68.5647 38.3716 68.7982 38.4165 69.0795C38.4733 69.4363 38.2525 69.6659 38.1113 69.9523C37.7904 69.7704 37.4781 69.6073 37.1804 69.4208C36.7315 69.1402 36.2526 68.9595 35.7263 68.9048C35.6605 68.8981 35.5894 68.8724 35.5344 68.8351C35.3819 68.7317 35.2355 68.6194 35.089 68.5071C34.9358 68.389 34.9589 68.1714 35.1285 68.0793C35.8662 67.6782 36.348 67.0718 36.5697 66.2559C36.582 66.2099 36.5969 66.1647 36.6102 66.1218C37.2422 66.1596 37.57 65.9148 37.7178 65.2946C37.7889 64.9943 37.7947 64.6911 37.7289 64.3875C37.6113 63.8431 37.3663 63.6007 36.8323 63.5001C36.8253 63.4986 36.8197 63.488 36.8197 63.488C36.8395 63.1868 36.8727 62.8942 36.8764 62.6016C36.894 61.1604 36.2378 60.031 34.7195 59.7457C34.6705 59.7365 34.6191 59.7042 34.5837 59.6678C34.4064 59.4857 34.19 59.3804 33.9466 59.3325C33.2561 59.1973 32.6046 59.3559 31.9714 59.618C31.913 59.6424 31.836 59.7357 31.8434 59.786C31.8687 59.9586 31.7532 59.996 31.6432 60.0519C31.5612 60.0934 31.4802 60.1376 31.403 60.1868C31.3371 60.2294 31.2913 60.2244 31.2167 60.1858C31.1474 60.1491 31.0223 60.1375 30.9637 60.1772C30.5018 60.4938 30.1026 60.8744 29.8882 61.4098C29.6597 61.9807 29.8564 62.4588 30.4103 62.7161C30.4506 62.7353 30.5089 62.7676 30.5147 62.8014C30.5695 63.1216 30.6144 63.4431 30.6623 63.764C30.2696 63.8851 30.0625 64.0347 29.942 64.3158L29.8744 64.3188C29.7601 64.3238 29.6719 64.4211 29.6769 64.5357L29.7299 65.7477C29.7349 65.8623 29.8317 65.9514 29.9457 65.9464L30.0713 65.9409C30.2424 66.2512 30.5081 66.4299 30.8792 66.4001C30.9484 66.3945 31.0165 66.3736 31.0966 66.3579C31.1145 66.4008 31.1346 66.4435 31.1509 66.4878C31.2082 66.6459 31.275 66.7949 31.3519 66.9342C31.4552 67.1235 31.5761 67.2959 31.7144 67.4518C31.9911 67.7636 32.3378 68.009 32.7537 68.1881C32.9218 68.2602 32.9651 68.4756 32.8308 68.6007C32.6919 68.7299 32.5516 68.8582 32.4045 68.9773C32.3529 69.0192 32.2821 69.0472 32.2162 69.0588C31.2376 69.2331 30.6439 69.9692 30.6821 70.9719C30.7034 71.5271 30.7403 72.0816 30.7507 72.6368C30.7572 72.9844 30.8916 73.2195 31.2241 73.3289L36.6076 73.0933C36.946 72.9615 37.0629 72.705 37.0288 72.3542C37.0105 72.1621 37.0102 71.9678 37.0007 71.7513C37.0896 71.7876 37.1524 71.8154 37.2168 71.8388C37.5974 71.9766 37.9729 72.1352 38.3614 72.2452C38.9086 72.4003 39.1304 72.2906 39.4155 71.7927C39.4345 71.7596 39.4556 71.7272 39.4688 71.6917C39.6572 71.1946 39.8455 70.6975 40.029 70.198C40.0588 70.1159 40.0953 70.0776 40.1831 70.0411C40.389 69.9552 40.5794 69.8312 40.7784 69.7278C40.8569 69.6868 40.9407 69.6378 41.0255 69.6306C41.2841 69.6079 41.544 69.6052 41.8034 69.5917C42.2269 69.5697 42.5424 69.2307 42.5224 68.8221C42.5026 68.4192 42.1657 68.111 41.7495 68.1226ZM36.6767 64.1686C36.69 63.9978 36.8175 63.9931 36.9229 64.0426C37.0129 64.085 37.1069 64.169 37.1485 64.2584C37.3291 64.6451 37.3099 65.0392 37.1273 65.42C37.0891 65.4994 37.0025 65.5721 36.9203 65.6102C36.7752 65.6768 36.6836 65.607 36.6754 65.4489C36.6669 65.2752 36.6602 65.1013 36.6526 64.9275C36.6439 64.927 36.6352 64.9265 36.6265 64.926C36.6428 64.6734 36.6573 64.4209 36.6767 64.1686ZM35.175 69.1821C35.0403 69.3477 34.911 69.5066 34.7647 69.6859C34.6211 69.5289 34.4903 69.3858 34.3453 69.2267C34.4895 69.1104 34.6257 68.9997 34.7695 68.8834C34.9045 68.9827 35.0342 69.0783 35.175 69.1821ZM32.4067 67.4215L33.5929 67.3696C33.6761 67.3659 33.7504 67.3286 33.8026 67.2713C33.8531 67.2154 33.8829 67.1417 33.882 67.061C33.8792 66.8887 33.7244 66.7545 33.5533 66.762L31.8654 66.8358C31.7143 66.5976 31.6038 66.3226 31.5503 66.0137C31.4099 65.2045 31.3302 64.3651 31.7492 63.5864C31.7778 63.5336 31.8027 63.4793 31.8321 63.4273C32.045 63.0549 32.1275 63.015 32.5335 63.1378C33.3632 63.3887 34.1743 63.3353 34.9726 63.0088C35.2553 62.893 35.3625 62.9127 35.5419 63.1633C35.8618 63.6098 36.1072 64.0901 36.1122 64.6608C36.1138 64.7969 36.1237 64.9331 36.1297 65.0691C36.1615 65.5277 36.1706 65.9839 35.9825 66.4177C35.6372 67.2155 35.0438 67.6911 34.1912 67.858C33.5925 67.975 32.9252 67.8139 32.4067 67.4215ZM32.906 69.1902C32.9923 69.1174 33.0753 69.0409 33.1601 68.9656C33.2777 69.0429 33.3948 69.1107 33.4996 69.1943C33.5306 69.2187 33.5535 69.3046 33.5352 69.3324C33.4538 69.4573 33.3559 69.5716 33.2487 69.7094C33.1169 69.5747 33.0095 69.4615 32.8988 69.352C32.838 69.2922 32.8428 69.2436 32.906 69.1902ZM33.6985 72.7169C33.3363 72.7236 32.9741 72.7381 32.6128 72.7648C32.4532 72.7771 32.4044 72.7246 32.4054 72.5692C32.4061 72.3457 32.3197 72.236 32.1647 72.2257C31.9801 72.2137 31.8702 72.3316 31.8641 72.5475C31.8575 72.7944 31.8575 72.7944 31.6088 72.8053C31.2415 72.8222 31.2823 72.8423 31.2661 72.482C31.2424 71.9597 31.2195 71.4369 31.1975 70.914C31.1689 70.2313 31.5925 69.6946 32.256 69.5813C32.3073 69.5725 32.3813 69.6073 32.4216 69.6461C32.5974 69.8156 32.7646 69.9943 32.935 70.1693C33.1863 70.4272 33.3881 70.4166 33.6098 70.1345C33.6435 70.092 33.6781 70.0499 33.7137 70.009C33.7194 70.0022 33.732 70.0017 33.7529 69.9938C33.7571 70.0386 33.7632 70.0798 33.765 70.1212C33.8005 70.9215 33.8325 71.7219 33.8731 72.522C33.8806 72.6635 33.8433 72.7145 33.6985 72.7169ZM33.4808 68.5364C33.4534 68.5167 33.4473 68.4659 33.4314 68.4295C33.4653 68.4197 33.4984 68.4025 33.5326 68.4006C33.8115 68.3862 34.09 68.3732 34.3691 68.3631C34.4029 68.3616 34.4375 68.3776 34.4717 68.3857C34.4581 68.4234 34.4556 68.4737 34.4292 68.4962C34.282 68.6227 34.1288 68.7429 33.9716 68.8698C33.8021 68.7559 33.639 68.65 33.4808 68.5364ZM38.9458 71.6435C38.8803 71.7913 38.711 71.8615 38.5605 71.8035L38.175 71.6558C38.1444 71.6506 38.1114 71.6398 38.0747 71.624C38.0278 71.6038 37.9809 71.5836 37.934 71.5634C37.9309 71.5622 37.9278 71.561 37.9247 71.5594C37.6213 71.4308 37.3151 71.3085 37.0117 71.1799C36.7756 71.0798 36.7009 71.0887 36.5339 71.2619L36.5892 72.524C36.5914 72.5746 36.5525 72.6173 36.5022 72.6195L36.4355 72.6224C36.3852 72.6246 36.3427 72.5854 36.3405 72.5349L36.3302 72.2983C36.3236 72.1489 36.1979 72.0331 36.0493 72.0396C35.9007 72.0461 35.7851 72.1716 35.7916 72.3202L35.7916 72.3219C35.7942 72.3703 35.7967 72.4182 35.8001 72.4665C35.807 72.574 35.7741 72.6265 35.658 72.6298C35.2904 72.6411 34.923 72.6589 34.5553 72.6772C34.4631 72.6821 34.4124 72.6542 34.408 72.5536C34.3735 71.7153 34.3372 70.8766 34.3018 70.0383C34.3014 70.0283 34.3083 70.0179 34.3217 69.9768C34.3844 70.0404 34.4325 70.0898 34.4816 70.1391C34.6832 70.3424 34.8922 70.3372 35.0805 70.1164C35.2419 69.9264 35.3983 69.731 35.5529 69.5348C35.6187 69.4512 35.6831 69.4165 35.7994 69.435C36.1849 69.4963 36.5358 69.638 36.8709 69.836C37.2345 70.0505 37.6038 70.2561 37.9758 70.455C38.2047 70.5772 38.3766 70.5191 38.51 70.2946C38.5853 70.1686 38.6653 70.0438 38.7228 69.9094C38.7834 69.7675 38.863 69.7313 38.9953 69.808C39.0144 69.819 39.0344 69.8277 39.0582 69.8376L39.0768 69.8455L39.6426 70.0769L38.9458 71.6435ZM41.7846 69.0919C41.7742 69.0932 41.7633 69.0932 41.7525 69.0937L41.3314 69.1121C41.2127 69.1178 41.0941 69.1251 40.9753 69.1277C40.7714 69.1318 40.5985 69.2066 40.45 69.3458C40.2303 69.551 39.9902 69.6305 39.6973 69.494C39.5121 69.4078 39.3127 69.3537 39.1227 69.2773C39.0489 69.2478 38.9307 69.2037 38.9241 69.1538C38.909 69.037 38.9053 68.8713 38.9737 68.7985C39.3213 68.4288 39.5309 67.9722 39.7999 67.5536C39.8812 67.4261 40.0021 67.3929 40.1199 67.4558C40.2288 67.5143 40.2628 67.6469 40.1955 67.7834C40.15 67.8757 40.089 67.9605 40.0431 68.0524C39.8864 68.3683 40.0884 68.6899 40.4391 68.678C40.8651 68.6637 41.2914 68.6337 41.7179 68.6299C41.8094 68.629 41.9356 68.6854 41.9865 68.7578C42.0856 68.898 41.9698 69.0694 41.7846 69.0919Z" fill="white"/>
<path d="M46.1644 58.3548C46.1584 58.1678 46.1507 57.9805 46.1369 57.7938C46.076 56.968 45.483 56.2637 44.6852 56.0655C44.5817 56.0399 44.4762 56.0205 44.3719 55.998L40.4801 56.1684C40.4666 56.1768 40.4537 56.1905 40.4391 56.1929C39.5918 56.3329 38.8003 57.152 38.8779 58.2887C38.9337 59.1095 38.9515 59.9329 38.9923 60.7547C38.9975 60.8628 38.968 60.9239 38.8748 60.9755C38.6621 61.094 38.4531 61.2192 38.2469 61.3483C37.8942 61.5697 37.9095 61.989 38.2765 62.1824C38.444 62.2707 38.6109 62.366 38.7889 62.4258C39.0207 62.5039 39.0808 62.647 39.089 62.8841C39.1299 64.067 39.9977 64.8632 41.1697 64.8132C42.2559 64.7674 43.342 64.7194 44.4285 64.6706C45.6103 64.618 46.3988 63.7502 46.3484 62.5586C46.3131 61.7312 46.276 60.9035 46.2398 60.0761L46.1644 58.3548ZM45.8626 62.6658C45.8918 63.4708 45.3043 64.1303 44.5104 64.172C43.3545 64.2326 42.1982 64.2815 41.0415 64.3251C40.434 64.3482 39.8652 63.9689 39.6716 63.3925C39.5933 63.1602 39.5794 62.9024 39.5642 62.6542C39.5474 62.3809 39.4363 62.1915 39.1869 62.078C38.9722 61.9809 38.7621 61.8727 38.5226 61.7566C38.7447 61.6229 38.9384 61.4974 39.1402 61.3869C39.3924 61.2484 39.4937 61.044 39.4794 60.7561C39.435 59.8798 39.3949 59.0033 39.3647 58.1264C39.3386 57.3615 39.9276 56.6963 40.6824 56.6554C41.8542 56.5919 43.0271 56.5427 44.1999 56.5023C44.8821 56.4786 45.4823 56.9612 45.6134 57.6356C45.6521 57.8347 45.6588 58.0395 45.6682 58.2438L45.7494 60.0976L45.7546 60.0974C45.7886 60.9536 45.8312 61.8095 45.8626 62.6658Z" fill="white"/>
<path d="M45.7552 60.095L45.75 60.0953L45.6689 58.2415C45.6595 58.0372 45.6527 57.8323 45.6141 57.6332C45.483 56.9589 44.8828 56.4762 44.2006 56.5C43.0278 56.5404 41.8549 56.5895 40.6831 56.653C39.9283 56.6939 39.3393 57.3592 39.3654 58.1241C39.3955 59.001 39.4356 59.8775 39.48 60.7538C39.4944 61.0417 39.3931 61.246 39.1409 61.3845C38.9391 61.4951 38.7453 61.6205 38.5233 61.7542C38.7628 61.8703 38.9728 61.9786 39.1876 62.0757C39.437 62.1891 39.5481 62.3785 39.5649 62.6519C39.5801 62.9001 39.5939 63.1579 39.6723 63.3901C39.8659 63.9666 40.4346 64.3459 41.0422 64.3228C42.1988 64.2792 43.3552 64.2303 44.5111 64.1697C45.3049 64.1279 45.8924 63.4684 45.8633 62.6635C45.8319 61.8071 45.7892 60.9513 45.7552 60.095ZM42.7813 62.9402C41.4004 62.9963 40.2326 61.9116 40.172 60.5166C40.1111 59.1142 41.1854 57.934 42.577 57.8749C43.9631 57.8164 45.1466 58.9134 45.1993 60.3058C45.2519 61.7055 44.1709 62.8833 42.7813 62.9402Z" fill="white"/>
<path d="M46.2416 60.0809L46.2235 59.6683C46.2352 59.8049 46.2356 59.9432 46.2416 60.0809Z" fill="white"/>
<path d="M42.5928 58.3714C41.4835 58.4147 40.6168 59.3706 40.6665 60.4959C40.7155 61.616 41.6505 62.49 42.7533 62.447C43.8774 62.403 44.7461 61.4531 44.697 60.3208C44.6477 59.1955 43.7107 58.3273 42.5928 58.3714ZM43.4695 59.4797C43.609 59.4736 43.7216 59.5861 43.7282 59.7373C43.7349 59.8915 43.6358 60.0072 43.492 60.0134C43.3486 60.0193 43.2401 59.9123 43.2334 59.7585C43.2272 59.6069 43.33 59.4858 43.4695 59.4797ZM41.8197 59.5519C41.9597 59.5462 42.07 59.6575 42.0763 59.8109C42.0831 59.9664 41.9852 60.0798 41.8404 60.0853C41.6983 60.0911 41.5872 59.9811 41.581 59.8299C41.5753 59.68 41.6806 59.5576 41.8197 59.5519ZM43.8633 60.9296C43.6128 61.3665 43.2138 61.5429 42.7321 61.5749C42.2524 61.5845 41.8353 61.4465 41.5565 61.0266C41.5082 60.9532 41.4908 60.8234 41.5193 60.741C41.5816 60.5589 41.8367 60.5359 41.9343 60.7124C42.1422 61.0878 42.7487 61.17 43.123 60.9659C43.2443 60.8995 43.3459 60.7815 43.4321 60.6686C43.5401 60.5273 43.6579 60.4732 43.787 60.5462C43.9187 60.6203 43.9532 60.772 43.8633 60.9296Z" fill="white"/>
<rect x="53.3242" y="57.957" width="56.935" height="6.69824" rx="1.55569" transform="rotate(-2.50592 53.3242 57.957)" fill="white"/>
<path d="M53.7783 68.3155C53.7648 68.0075 54.2315 67.7369 54.8207 67.7111L80.4242 66.5906C81.0134 66.5648 81.502 66.7936 81.5155 67.1016L81.5643 68.2169C81.5778 68.5249 81.1111 68.7954 80.5219 68.8212L54.9183 69.9417C54.3292 69.9675 53.8406 69.7388 53.8271 69.4308L53.7783 68.3155Z" fill="white"/>
<path d="M85.7827 66.9148C85.7692 66.6068 86.2359 66.3363 86.8251 66.3105L101.761 65.6568C102.35 65.631 102.838 65.8598 102.852 66.1678L102.901 67.2831C102.914 67.5911 102.447 67.8617 101.858 67.8874L86.9228 68.5411C86.3336 68.5669 85.845 68.3381 85.8315 68.0301L85.7827 66.9148Z" fill="white"/>
</g>
<path d="M120 58.4739L119.526 58.4739L119.526 57.5261L120 57.5261L120 58.4739ZM132 106L129.264 101.261L134.736 101.261L132 106ZM120 57.5261L127 57.5261L127 58.4739L120 58.4739L120 57.5261ZM132.474 63L132.474 101.735L131.526 101.735L131.526 63L132.474 63ZM127 57.5261C130.023 57.5261 132.474 59.9768 132.474 63L131.526 63C131.526 60.5003 129.5 58.4739 127 58.4739L127 57.5261Z" fill="#DFE4F1"/>
<path d="M132.501 109.152C119.789 109.152 109.5 119.516 109.5 132.28C109.5 141.867 115.303 150.094 123.573 153.599C126.32 154.763 129.338 155.406 132.501 155.406C145.211 155.406 155.5 145.044 155.5 132.28C155.5 125.232 152.363 118.918 147.418 114.677C143.403 111.233 138.192 109.152 132.501 109.152Z" fill="url(#paint30_linear_10713_83753)" stroke="white" stroke-width="3"/>
<path d="M132 144.732H132.995C136.42 144.732 138.132 144.732 139.245 143.604C140.359 142.475 140.473 140.624 140.7 136.921L141.029 131.586C141.152 129.577 141.214 128.572 140.655 127.936C140.097 127.299 139.154 127.299 137.268 127.299H127.728C125.841 127.299 124.898 127.299 124.34 127.936C123.781 128.572 123.843 129.577 123.967 131.586L124.295 136.921C124.523 140.624 124.637 142.475 125.75 143.604C126.863 144.732 128.575 144.732 132 144.732Z" fill="white"/>
<path d="M121.422 125.016C121.422 124.443 121.847 123.979 122.371 123.979L125.65 123.978C126.301 123.96 126.876 123.507 127.098 122.838C127.104 122.82 127.11 122.798 127.134 122.72L127.276 122.256C127.362 121.972 127.437 121.725 127.543 121.503C127.959 120.629 128.73 120.023 129.62 119.867C129.845 119.828 130.084 119.828 130.358 119.828H134.638C134.912 119.828 135.15 119.828 135.376 119.867C136.266 120.023 137.036 120.629 137.453 121.503C137.558 121.725 137.633 121.972 137.72 122.256L137.861 122.72C137.885 122.798 137.892 122.82 137.898 122.838C138.119 123.507 138.808 123.961 139.46 123.979H142.624C143.148 123.979 143.573 124.443 143.573 125.016C143.573 125.59 143.148 126.054 142.624 126.054H122.371C121.847 126.054 121.422 125.59 121.422 125.016Z" fill="white"/>
<defs>
<filter id="filter0_d_10713_83753" x="18.8808" y="46.9244" width="102.162" height="36.9116" filterUnits="userSpaceOnUse" color-interpolation-filters="sRGB">
<feFlood flood-opacity="0" result="BackgroundImageFix"/>
<feColorMatrix in="SourceAlpha" type="matrix" values="0 0 0 0 0 0 0 0 0 0 0 0 0 0 0 0 0 0 127 0" result="hardAlpha"/>
<feOffset dx="1.03974" dy="2.07947"/>
<feGaussianBlur stdDeviation="2.07947"/>
<feComposite in2="hardAlpha" operator="out"/>
<feColorMatrix type="matrix" values="0 0 0 0 0.0434028 0 0 0 0 0.416667 0 0 0 0 0.416667 0 0 0 0.25 0"/>
<feBlend mode="normal" in2="BackgroundImageFix" result="effect1_dropShadow_10713_83753"/>
<feBlend mode="normal" in="SourceGraphic" in2="effect1_dropShadow_10713_83753" result="shape"/>
</filter>
<linearGradient id="paint0_linear_10713_83753" x1="-27.5" y1="-6.62295" x2="126.695" y2="163.622" gradientUnits="userSpaceOnUse">
<stop stop-color="#D2D9EE"/>
<stop offset="1" stop-color="#E7F0F8"/>
</linearGradient>
<linearGradient id="paint1_linear_10713_83753" x1="7" y1="13.5" x2="-4.58384" y2="202.278" gradientUnits="userSpaceOnUse">
<stop stop-color="#F2F4FF"/>
<stop offset="1" stop-color="#DAE5F7"/>
</linearGradient>
<linearGradient id="paint2_linear_10713_83753" x1="-2.67296" y1="2.51234" x2="23.1668" y2="78.3998" gradientUnits="userSpaceOnUse">
<stop stop-color="#F9FBFF"/>
<stop offset="1" stop-color="#E2F1FA"/>
</linearGradient>
<linearGradient id="paint3_linear_10713_83753" x1="32.0898" y1="44.3413" x2="51.368" y2="38.4246" gradientUnits="userSpaceOnUse">
<stop stop-color="#05E0E0"/>
<stop offset="1" stop-color="#02C8C8"/>
</linearGradient>
<linearGradient id="paint4_linear_10713_83753" x1="32.0898" y1="44.3413" x2="51.368" y2="38.4246" gradientUnits="userSpaceOnUse">
<stop stop-color="#05E0E0"/>
<stop offset="1" stop-color="#02C8C8"/>
</linearGradient>
<linearGradient id="paint5_linear_10713_83753" x1="32.0898" y1="44.3413" x2="51.368" y2="38.4246" gradientUnits="userSpaceOnUse">
<stop stop-color="#05E0E0"/>
<stop offset="1" stop-color="#02C8C8"/>
</linearGradient>
<linearGradient id="paint6_linear_10713_83753" x1="32.0898" y1="44.3413" x2="51.368" y2="38.4246" gradientUnits="userSpaceOnUse">
<stop stop-color="#05E0E0"/>
<stop offset="1" stop-color="#02C8C8"/>
</linearGradient>
<linearGradient id="paint7_linear_10713_83753" x1="32.0898" y1="44.3413" x2="51.368" y2="38.4246" gradientUnits="userSpaceOnUse">
<stop stop-color="#05E0E0"/>
<stop offset="1" stop-color="#02C8C8"/>
</linearGradient>
<linearGradient id="paint8_linear_10713_83753" x1="54.8398" y1="33.6055" x2="105.84" y2="33.6055" gradientUnits="userSpaceOnUse">
<stop stop-color="#D2D9EE"/>
<stop offset="1" stop-color="#E7F0F8"/>
</linearGradient>
<linearGradient id="paint9_linear_10713_83753" x1="54.8398" y1="40.3906" x2="98.8398" y2="40.3906" gradientUnits="userSpaceOnUse">
<stop stop-color="#D2D9EE"/>
<stop offset="1" stop-color="#E7F0F8"/>
</linearGradient>
<linearGradient id="paint10_linear_10713_83753" x1="54.8398" y1="40.3906" x2="98.8398" y2="40.3906" gradientUnits="userSpaceOnUse">
<stop stop-color="#D2D9EE"/>
<stop offset="1" stop-color="#E7F0F8"/>
</linearGradient>
<linearGradient id="paint11_linear_10713_83753" x1="-2.67296" y1="2.51234" x2="23.1668" y2="78.3998" gradientUnits="userSpaceOnUse">
<stop stop-color="#F9FBFF"/>
<stop offset="1" stop-color="#E2F1FA"/>
</linearGradient>
<linearGradient id="paint12_linear_10713_83753" x1="32.0898" y1="98.3413" x2="51.368" y2="92.4246" gradientUnits="userSpaceOnUse">
<stop stop-color="#05E0E0"/>
<stop offset="1" stop-color="#02C8C8"/>
</linearGradient>
<linearGradient id="paint13_linear_10713_83753" x1="32.0898" y1="98.3413" x2="51.368" y2="92.4246" gradientUnits="userSpaceOnUse">
<stop stop-color="#05E0E0"/>
<stop offset="1" stop-color="#02C8C8"/>
</linearGradient>
<linearGradient id="paint14_linear_10713_83753" x1="32.0898" y1="98.3413" x2="51.368" y2="92.4246" gradientUnits="userSpaceOnUse">
<stop stop-color="#05E0E0"/>
<stop offset="1" stop-color="#02C8C8"/>
</linearGradient>
<linearGradient id="paint15_linear_10713_83753" x1="32.0898" y1="98.3413" x2="51.368" y2="92.4246" gradientUnits="userSpaceOnUse">
<stop stop-color="#05E0E0"/>
<stop offset="1" stop-color="#02C8C8"/>
</linearGradient>
<linearGradient id="paint16_linear_10713_83753" x1="32.0898" y1="98.3413" x2="51.368" y2="92.4246" gradientUnits="userSpaceOnUse">
<stop stop-color="#05E0E0"/>
<stop offset="1" stop-color="#02C8C8"/>
</linearGradient>
<linearGradient id="paint17_linear_10713_83753" x1="54.8398" y1="87.6055" x2="105.84" y2="87.6055" gradientUnits="userSpaceOnUse">
<stop stop-color="#D2D9EE"/>
<stop offset="1" stop-color="#E7F0F8"/>
</linearGradient>
<linearGradient id="paint18_linear_10713_83753" x1="54.8398" y1="94.3906" x2="98.8398" y2="94.3906" gradientUnits="userSpaceOnUse">
<stop stop-color="#D2D9EE"/>
<stop offset="1" stop-color="#E7F0F8"/>
</linearGradient>
<linearGradient id="paint19_linear_10713_83753" x1="54.8398" y1="94.3906" x2="98.8398" y2="94.3906" gradientUnits="userSpaceOnUse">
<stop stop-color="#D2D9EE"/>
<stop offset="1" stop-color="#E7F0F8"/>
</linearGradient>
<linearGradient id="paint20_linear_10713_83753" x1="-2.67296" y1="2.51234" x2="23.1668" y2="78.3998" gradientUnits="userSpaceOnUse">
<stop stop-color="#F9FBFF"/>
<stop offset="1" stop-color="#E2F1FA"/>
</linearGradient>
<linearGradient id="paint21_linear_10713_83753" x1="32.0898" y1="125.341" x2="51.368" y2="119.425" gradientUnits="userSpaceOnUse">
<stop stop-color="#05E0E0"/>
<stop offset="1" stop-color="#02C8C8"/>
</linearGradient>
<linearGradient id="paint22_linear_10713_83753" x1="32.0898" y1="125.341" x2="51.368" y2="119.425" gradientUnits="userSpaceOnUse">
<stop stop-color="#05E0E0"/>
<stop offset="1" stop-color="#02C8C8"/>
</linearGradient>
<linearGradient id="paint23_linear_10713_83753" x1="32.0898" y1="125.341" x2="51.368" y2="119.425" gradientUnits="userSpaceOnUse">
<stop stop-color="#05E0E0"/>
<stop offset="1" stop-color="#02C8C8"/>
</linearGradient>
<linearGradient id="paint24_linear_10713_83753" x1="32.0898" y1="125.341" x2="51.368" y2="119.425" gradientUnits="userSpaceOnUse">
<stop stop-color="#05E0E0"/>
<stop offset="1" stop-color="#02C8C8"/>
</linearGradient>
<linearGradient id="paint25_linear_10713_83753" x1="32.0898" y1="125.341" x2="51.368" y2="119.425" gradientUnits="userSpaceOnUse">
<stop stop-color="#05E0E0"/>
<stop offset="1" stop-color="#02C8C8"/>
</linearGradient>
<linearGradient id="paint26_linear_10713_83753" x1="54.8398" y1="114.605" x2="105.84" y2="114.605" gradientUnits="userSpaceOnUse">
<stop stop-color="#D2D9EE"/>
<stop offset="1" stop-color="#E7F0F8"/>
</linearGradient>
<linearGradient id="paint27_linear_10713_83753" x1="54.8398" y1="121.391" x2="98.8398" y2="121.391" gradientUnits="userSpaceOnUse">
<stop stop-color="#D2D9EE"/>
<stop offset="1" stop-color="#E7F0F8"/>
</linearGradient>
<linearGradient id="paint28_linear_10713_83753" x1="54.8398" y1="121.391" x2="98.8398" y2="121.391" gradientUnits="userSpaceOnUse">
<stop stop-color="#D2D9EE"/>
<stop offset="1" stop-color="#E7F0F8"/>
</linearGradient>
<linearGradient id="paint29_linear_10713_83753" x1="13.7539" y1="79.0033" x2="69.4288" y2="14.4255" gradientUnits="userSpaceOnUse">
<stop stop-color="#05E0E0"/>
<stop offset="1" stop-color="#02C8C8"/>
</linearGradient>
<linearGradient id="paint30_linear_10713_83753" x1="134.519" y1="160.625" x2="118.614" y2="105.787" gradientUnits="userSpaceOnUse">
<stop stop-color="#FFB74B"/>
<stop offset="1" stop-color="#FCCA80"/>
</linearGradient>
</defs>
</svg>
