<svg width="120" height="120" viewBox="0 0 120 120" fill="none" xmlns="http://www.w3.org/2000/svg">
<rect width="97.7312" height="57.4087" rx="13.1187" transform="matrix(0.938473 -0.329608 0.283525 0.954618 0 43.9464)" fill="url(#paint0_linear_8549_161581)"/>
<rect opacity="0.5" width="95.1417" height="7.55379" transform="matrix(0.941755 -0.313855 0.296827 0.94867 3.78125 53.302)" fill="white"/>
<rect x="16.543" y="40.5792" width="93.7306" height="61.1601" rx="13.1187" fill="url(#paint1_linear_8549_161581)"/>
<rect opacity="0.7" x="16.543" y="52.8826" width="93.7306" height="11.2187" fill="white"/>
<circle opacity="0.7" cx="35.1814" cy="82.7386" r="9.2283" fill="white"/>
<circle opacity="0.7" cx="46.7595" cy="82.7386" r="9.2283" fill="white"/>
<path d="M86.2058 91.7202C86.2058 82.5728 93.6588 75.1563 102.853 75.1563C106.972 75.1563 110.741 76.6444 113.648 79.111C117.229 82.1489 119.5 86.6704 119.5 91.7202C119.5 100.868 112.047 108.283 102.853 108.283C100.563 108.283 98.3804 107.823 96.394 106.99C90.4075 104.481 86.2058 98.5887 86.2058 91.7202Z" fill="url(#paint2_linear_8549_161581)"/>
<path d="M104.965 91.7344C106.854 89.8461 108.564 88.1333 109.174 87.5181C109.817 86.8709 109.813 85.8896 109.188 85.2716C108.616 84.7078 107.603 84.6546 106.97 85.3266C106.268 86.0713 105.527 86.7796 104.802 87.5039L102.768 89.5385C100.877 87.6484 99.1619 85.9356 98.5466 85.3239C97.8985 84.6812 96.9171 84.6839 96.3 85.3089C95.7353 85.8816 95.6821 86.894 96.3541 87.527C97.0997 88.2291 97.8081 88.9702 98.5315 89.6945L100.571 91.7335C98.6494 93.6546 96.7318 95.5721 96.3683 95.9383C96.2619 96.0447 96.1529 96.1573 96.0766 96.2867C95.698 96.9339 95.8488 97.8213 96.3967 98.2415C97.0962 98.7769 97.934 98.7495 98.5466 98.1422C99.1619 97.5314 100.876 95.8195 102.767 93.9312C104.686 95.8505 106.601 97.7645 106.966 98.1271C107.074 98.2335 107.186 98.3434 107.316 98.4188C107.963 98.7973 108.85 98.6484 109.27 98.0988C109.806 97.4002 109.778 96.5624 109.17 95.9498C108.56 95.3346 106.851 93.6227 104.964 91.7344H104.965Z" fill="white"/>
<defs>
<linearGradient id="paint0_linear_8549_161581" x1="-20.3764" y1="65.2217" x2="112.056" y2="5.14216" gradientUnits="userSpaceOnUse">
<stop stop-color="#E7EEF8"/>
<stop offset="1" stop-color="#E1EDF4"/>
</linearGradient>
<linearGradient id="paint1_linear_8549_161581" x1="8.21941" y1="105.177" x2="116.164" y2="54.4258" gradientUnits="userSpaceOnUse">
<stop stop-color="#05E0E0"/>
<stop offset="1" stop-color="#02C8C8"/>
</linearGradient>
<linearGradient id="paint2_linear_8549_161581" x1="104.416" y1="113.429" x2="92.3475" y2="71.3597" gradientUnits="userSpaceOnUse">
<stop stop-color="#FF4B4B"/>
<stop offset="1" stop-color="#FFB6B6"/>
</linearGradient>
</defs>
</svg>
