<svg width="121" height="121" viewBox="0 0 121 121" fill="none" xmlns="http://www.w3.org/2000/svg">
<path d="M62.9158 26.1107C61.765 19.5839 55.5411 15.2259 49.0143 16.3767L19.9055 21.5094C13.3788 22.6603 9.0208 28.8842 10.1716 35.4109L14.8347 61.8567L15.2802 64.3832C15.753 67.0646 19.2658 67.7802 20.7499 65.4974L24.1889 60.2073L55.7612 54.6402C62.288 53.4894 66.646 47.2655 65.4951 40.7388L62.9158 26.1107Z" fill="url(#paint0_linear_8549_410540)"/>
<ellipse cx="2.74656" cy="2.77527" rx="2.74656" ry="2.77527" transform="matrix(-0.984808 0.173648 0.173648 0.984808 51.4805 32.9788)" fill="white"/>
<ellipse cx="2.74656" cy="2.77527" rx="2.74656" ry="2.77527" transform="matrix(-0.984808 0.173648 0.173648 0.984808 39.7617 35.0459)" fill="white"/>
<ellipse cx="2.74656" cy="2.77527" rx="2.74656" ry="2.77527" transform="matrix(-0.984808 0.173648 0.173648 0.984808 28.4883 37.0325)" fill="white"/>
<path d="M45.2443 50.3177C46.3952 43.791 52.6191 39.4329 59.1458 40.5838L100.716 47.9137C107.243 49.0645 111.601 55.2884 110.45 61.8152L104.279 96.8116L103.429 101.634C102.957 104.308 99.4591 105.03 97.9674 102.761L93.1888 95.4935C92.8862 95.0333 92.4073 94.7183 91.8649 94.6226L50.8912 87.3979C44.3645 86.247 40.0065 80.0231 41.1573 73.4964L45.2443 50.3177Z" fill="url(#paint1_linear_8549_410540)"/>
<circle cx="61.68" cy="65.3226" r="3.39545" transform="rotate(10 61.68 65.3226)" fill="white"/>
<ellipse cx="76.1683" cy="67.8781" rx="3.39545" ry="3.39545" transform="rotate(10 76.1683 67.8781)" fill="white"/>
<circle cx="90.1019" cy="70.3341" r="3.39545" transform="rotate(10 90.1019 70.3341)" fill="white"/>
<path d="M68.4756 28.8207C68.1028 27.9959 68.4582 27.0117 69.3039 26.6295C77.6661 22.654 86.7869 26.5769 90.4051 34.5829C90.6596 35.1461 90.5758 35.7654 90.24 36.2563C89.8749 36.7362 89.3111 36.991 88.7006 36.9278L84.577 36.4417C83.6522 36.3267 82.9924 35.5106 83.1172 34.6063C83.2127 33.6911 84.0389 33.0512 84.9547 33.1461C85.2357 33.1787 85.4094 32.8576 85.2184 32.6489C81.63 28.7263 75.7766 27.3379 70.6675 29.6469C69.8219 30.0291 68.8483 29.6454 68.4756 28.8207Z" fill="url(#paint2_linear_8549_410540)"/>
<path d="M37.626 83.1732C37.9987 83.998 37.6434 84.9822 36.7977 85.3644C28.4355 89.3399 19.3147 85.417 15.6965 77.411C15.4419 76.8478 15.5258 76.2285 15.8616 75.7376C16.2266 75.2577 16.7904 75.0029 17.4009 75.0661L21.5245 75.5522C22.4494 75.6672 23.1092 76.4833 22.9844 77.3875C22.8889 78.3028 22.0626 78.9427 21.1469 78.8478C20.8659 78.8152 20.6922 79.1363 20.8831 79.345C24.4716 83.2676 30.325 84.656 35.434 82.347C36.2797 81.9648 37.2533 82.3485 37.626 83.1732Z" fill="url(#paint3_linear_8549_410540)"/>
<defs>
<linearGradient id="paint0_linear_8549_410540" x1="81.5015" y1="67.2101" x2="-2.02567" y2="58.0916" gradientUnits="userSpaceOnUse">
<stop stop-color="#E7EEF8"/>
<stop offset="1" stop-color="#E1EDF4"/>
</linearGradient>
<linearGradient id="paint1_linear_8549_410540" x1="78.4865" y1="34.5329" x2="84.9396" y2="114.043" gradientUnits="userSpaceOnUse">
<stop stop-color="#FFB74B"/>
<stop offset="1" stop-color="#FCCA80"/>
</linearGradient>
<linearGradient id="paint2_linear_8549_410540" x1="93.0508" y1="36.6121" x2="71.9039" y2="21.8487" gradientUnits="userSpaceOnUse">
<stop stop-color="#05E0E0"/>
<stop offset="1" stop-color="#02C8C8"/>
</linearGradient>
<linearGradient id="paint3_linear_8549_410540" x1="13.0508" y1="75.3818" x2="34.1976" y2="90.1452" gradientUnits="userSpaceOnUse">
<stop stop-color="#05E0E0"/>
<stop offset="1" stop-color="#02C8C8"/>
</linearGradient>
</defs>
</svg>
