<svg width="106" height="107" viewBox="0 0 106 107" fill="none" xmlns="http://www.w3.org/2000/svg">
<path d="M23.544 74.7582L23.5441 74.7583C25.8708 76.7319 27.3432 79.666 27.3432 82.9428C27.3432 88.8776 22.5068 93.6948 16.5335 93.6948C15.0444 93.6948 13.6273 93.3957 12.3381 92.8552L12.3381 92.8552C8.44847 91.2246 5.7232 87.3984 5.7232 82.9427C5.7232 77.0079 10.5597 72.1901 16.5335 72.1901C19.2093 72.1901 21.6561 73.1563 23.544 74.7582Z" fill="url(#paint0_linear_9409_236324)" stroke="white" stroke-width="1.38"/>
<path d="M24.1913 89.8275C24.5398 90.1773 24.5386 90.7434 24.1888 91.0918C23.8389 91.4403 23.2728 91.4391 22.9244 91.0893L8.55718 76.664C8.20873 76.3141 8.20988 75.748 8.55974 75.3996C8.9096 75.0512 9.47569 75.0523 9.82413 75.4022L24.1913 89.8275Z" fill="white"/>
<path d="M30.3965 31.6544C30.3965 30.6954 31.1739 29.918 32.1329 29.918H80.7531C81.7121 29.918 82.4895 30.6954 82.4895 31.6544V76.782V93.2978C82.4895 94.2568 81.7121 95.0342 80.7531 95.0342H60.866H32.1329C31.1739 95.0342 30.3965 94.2568 30.3965 93.2978V31.6544Z" fill="url(#paint1_radial_9409_236324)"/>
<g filter="url(#filter0_d_9409_236324)">
<path d="M37.0772 34.2588H80.753V73.6221C80.753 80.2474 78.9524 86.7482 75.5437 92.4293L50.7995 93.2976H32.1328C35.422 75.743 37.0772 57.9213 37.0772 40.0612V34.2588Z" fill="url(#paint2_radial_9409_236324)"/>
</g>
<g filter="url(#filter1_d_9409_236324)">
<path d="M36.2081 32.5225H79.8838V72.1116C79.8838 78.5275 77.7453 84.7604 73.8063 89.8248L49.9303 91.5612H31.2637C34.5529 74.0066 36.2081 56.185 36.2081 38.3249V32.5225Z" fill="url(#paint3_radial_9409_236324)"/>
</g>
<path d="M33.0003 32.5225H79.0158V73.7628L69.4654 81.1426L59.915 89.8248H27.791C31.2551 72.7929 33.0003 55.4562 33.0003 38.0756V32.5225Z" fill="url(#paint4_linear_9409_236324)"/>
<path d="M44.2871 29.918H68.5972V33.3908C68.5972 34.8293 67.431 35.9955 65.9925 35.9955H46.8918C45.4533 35.9955 44.2871 34.8293 44.2871 33.3908V29.918Z" fill="url(#paint5_radial_9409_236324)"/>
<path d="M35.8344 49.8872H39.9856C40.112 49.8872 40.2145 49.7847 40.2145 49.6583V49.4141C40.2145 49.1612 40.0095 48.9562 39.7566 48.9562V48.6825C39.7566 48.3201 39.4618 48.0253 39.0994 48.0253H36.7206C36.3582 48.0253 36.0633 48.3201 36.0633 48.6825V48.9562C35.8104 48.9562 35.6055 49.1612 35.6055 49.4141V49.6583C35.6055 49.7847 35.708 49.8872 35.8344 49.8872Z" fill="url(#paint6_linear_9409_236324)"/>
<path d="M38.4708 47.1148C38.6229 47.3167 38.91 47.3571 39.1119 47.2049C39.3139 47.0527 39.3542 46.7656 39.2021 46.5637L37.8244 44.7354C37.6722 44.5334 37.3851 44.4931 37.1832 44.6453C36.9812 44.7975 36.9408 45.0845 37.093 45.2865L38.4708 47.1148Z" fill="url(#paint7_linear_9409_236324)"/>
<path d="M41.7614 44.6349C41.9136 44.8369 42.2007 44.8772 42.4026 44.725C42.6046 44.5729 42.6449 44.2858 42.4927 44.0838L41.115 42.2556C40.9629 42.0536 40.6757 42.0133 40.4738 42.1655C40.2719 42.3177 40.2316 42.6047 40.3837 42.8067L41.7614 44.6349Z" fill="url(#paint8_linear_9409_236324)"/>
<path d="M40.7565 45.9649C41.0949 45.7099 41.3489 45.3933 41.5078 45.0599L39.9047 42.9326C39.5404 42.9935 39.1661 43.1503 38.8277 43.4054C38.4893 43.6603 38.2353 43.977 38.0764 44.3103L39.6795 46.4377C40.0437 46.3769 40.418 46.2199 40.7565 45.9649Z" fill="url(#paint9_linear_9409_236324)"/>
<path d="M41.376 46.0246C41.2694 46.1332 41.1571 46.2373 41.0333 46.3306C40.9095 46.4239 40.7784 46.5031 40.6447 46.5756L40.9432 46.9718L41.6745 46.4208L41.376 46.0246Z" fill="url(#paint10_linear_9409_236324)"/>
<path d="M41.9487 46.7864L41.2174 47.3374L42.5951 49.1657C42.7473 49.3677 43.0344 49.408 43.2363 49.2558C43.4383 49.1036 43.4786 48.8166 43.3264 48.6146L41.9487 46.7864Z" fill="url(#paint11_linear_9409_236324)"/>
<rect x="46.8906" y="42.5078" width="26.9147" height="3.47287" rx="0.868217" fill="url(#paint12_linear_9409_236324)"/>
<path d="M46.8906 48.1509C46.8906 47.9112 47.085 47.7168 47.3247 47.7168H57.7433C57.9831 47.7168 58.1774 47.9112 58.1774 48.1509V49.0191C58.1774 49.2589 57.9831 49.4532 57.7433 49.4532H47.3247C47.085 49.4532 46.8906 49.2589 46.8906 49.0191V48.1509Z" fill="white"/>
<path d="M46.8906 48.1509C46.8906 47.9112 47.085 47.7168 47.3247 47.7168H57.7433C57.9831 47.7168 58.1774 47.9112 58.1774 48.1509V49.0191C58.1774 49.2589 57.9831 49.4532 57.7433 49.4532H47.3247C47.085 49.4532 46.8906 49.2589 46.8906 49.0191V48.1509Z" fill="url(#paint13_linear_9409_236324)"/>
<path d="M59.9139 48.1509C59.9139 47.9112 60.1082 47.7168 60.348 47.7168H66.4255C66.6653 47.7168 66.8596 47.9112 66.8596 48.1509V49.0191C66.8596 49.2589 66.6653 49.4532 66.4255 49.4532H60.348C60.1082 49.4532 59.9139 49.2589 59.9139 49.0191V48.1509Z" fill="white"/>
<path d="M59.9139 48.1509C59.9139 47.9112 60.1082 47.7168 60.348 47.7168H66.4255C66.6653 47.7168 66.8596 47.9112 66.8596 48.1509V49.0191C66.8596 49.2589 66.6653 49.4532 66.4255 49.4532H60.348C60.1082 49.4532 59.9139 49.2589 59.9139 49.0191V48.1509Z" fill="url(#paint14_linear_9409_236324)"/>
<path d="M35.8344 64.647H39.9856C40.112 64.647 40.2145 64.5445 40.2145 64.418V64.1739C40.2145 63.921 40.0095 63.716 39.7566 63.716V63.4423C39.7566 63.0799 39.4618 62.785 39.0994 62.785H36.7206C36.3582 62.785 36.0633 63.0799 36.0633 63.4423V63.716C35.8104 63.716 35.6055 63.921 35.6055 64.1739V64.418C35.6055 64.5444 35.708 64.647 35.8344 64.647Z" fill="url(#paint15_linear_9409_236324)"/>
<path d="M38.4708 61.8746C38.6229 62.0765 38.91 62.1168 39.1119 61.9646C39.3139 61.8125 39.3542 61.5254 39.2021 61.3234L37.8244 59.4952C37.6722 59.2932 37.3851 59.2529 37.1832 59.405C36.9812 59.5572 36.9408 59.8443 37.093 60.0463L38.4708 61.8746Z" fill="url(#paint16_linear_9409_236324)"/>
<path d="M41.7614 59.3947C41.9136 59.5966 42.2007 59.637 42.4026 59.4848C42.6046 59.3326 42.6449 59.0456 42.4927 58.8436L41.115 57.0154C40.9629 56.8134 40.6757 56.773 40.4738 56.9252C40.2719 57.0774 40.2316 57.3645 40.3837 57.5665L41.7614 59.3947Z" fill="url(#paint17_linear_9409_236324)"/>
<path d="M40.7565 60.7247C41.0949 60.4697 41.3489 60.1531 41.5078 59.8197L39.9047 57.6924C39.5404 57.7533 39.1661 57.9101 38.8277 58.1651C38.4893 58.4201 38.2353 58.7367 38.0764 59.07L39.6795 61.1975C40.0437 61.1366 40.418 60.9797 40.7565 60.7247Z" fill="url(#paint18_linear_9409_236324)"/>
<path d="M41.376 60.7843C41.2694 60.8929 41.1571 60.9971 41.0333 61.0904C40.9095 61.1836 40.7784 61.2629 40.6447 61.3354L40.9432 61.7316L41.6745 61.1805L41.376 60.7843Z" fill="url(#paint19_linear_9409_236324)"/>
<path d="M41.9487 61.5461L41.2174 62.0972L42.5951 63.9254C42.7473 64.1274 43.0344 64.1677 43.2363 64.0156C43.4383 63.8634 43.4786 63.5763 43.3264 63.3744L41.9487 61.5461Z" fill="url(#paint20_linear_9409_236324)"/>
<rect x="46.8906" y="57.2676" width="26.9147" height="3.47287" rx="0.868217" fill="white"/>
<rect x="46.8906" y="57.2676" width="26.9147" height="3.47287" rx="0.868217" fill="url(#paint21_linear_9409_236324)"/>
<path d="M46.8906 62.9107C46.8906 62.6709 47.085 62.4766 47.3247 62.4766H57.7433C57.9831 62.4766 58.1774 62.6709 58.1774 62.9107V63.7789C58.1774 64.0186 57.9831 64.213 57.7433 64.213H47.3247C47.085 64.213 46.8906 64.0186 46.8906 63.7789V62.9107Z" fill="white"/>
<path d="M46.8906 62.9107C46.8906 62.6709 47.085 62.4766 47.3247 62.4766H57.7433C57.9831 62.4766 58.1774 62.6709 58.1774 62.9107V63.7789C58.1774 64.0186 57.9831 64.213 57.7433 64.213H47.3247C47.085 64.213 46.8906 64.0186 46.8906 63.7789V62.9107Z" fill="url(#paint22_linear_9409_236324)"/>
<path d="M59.9139 62.9107C59.9139 62.6709 60.1082 62.4766 60.348 62.4766H66.4255C66.6653 62.4766 66.8596 62.6709 66.8596 62.9107V63.7789C66.8596 64.0186 66.6653 64.213 66.4255 64.213H60.348C60.1082 64.213 59.9139 64.0186 59.9139 63.7789V62.9107Z" fill="white"/>
<path d="M59.9139 62.9107C59.9139 62.6709 60.1082 62.4766 60.348 62.4766H66.4255C66.6653 62.4766 66.8596 62.6709 66.8596 62.9107V63.7789C66.8596 64.0186 66.6653 64.213 66.4255 64.213H60.348C60.1082 64.213 59.9139 64.0186 59.9139 63.7789V62.9107Z" fill="url(#paint23_linear_9409_236324)"/>
<path d="M43.4194 75.8686C43.4194 74.4661 42.2824 73.3291 40.8799 73.3291C40.0661 73.3291 39.3417 73.7129 38.877 74.3087C40.8592 74.3853 42.4427 76.0165 42.4427 78.0175C42.4427 78.0606 42.4419 78.1035 42.4405 78.1462L42.5703 78.181C42.9478 78.282 43.2932 77.9366 43.1922 77.559L43.1425 77.3731C43.1023 77.2228 43.1264 77.0641 43.1911 76.9226C43.3377 76.6016 43.4194 76.2447 43.4194 75.8686Z" fill="white"/>
<path d="M43.4194 75.8686C43.4194 74.4661 42.2824 73.3291 40.8799 73.3291C40.0661 73.3291 39.3417 73.7129 38.877 74.3087C40.8592 74.3853 42.4427 76.0165 42.4427 78.0175C42.4427 78.0606 42.4419 78.1035 42.4405 78.1462L42.5703 78.181C42.9478 78.282 43.2932 77.9366 43.1922 77.559L43.1425 77.3731C43.1023 77.2228 43.1264 77.0641 43.1911 76.9226C43.3377 76.6016 43.4194 76.2447 43.4194 75.8686Z" fill="url(#paint24_linear_9409_236324)"/>
<path fill-rule="evenodd" clip-rule="evenodd" d="M41.8566 78.0175C41.8566 79.7437 40.4573 81.1431 38.7311 81.1431C38.2483 81.1431 37.7912 81.0336 37.383 80.8382C37.2428 80.7711 37.0838 80.7475 36.9336 80.7877L36.4546 80.9159C36.077 81.0169 35.7316 80.6715 35.8327 80.2939L35.9608 79.8149C36.001 79.6647 35.9774 79.5058 35.9103 79.3655C35.7149 78.9573 35.6055 78.5002 35.6055 78.0175C35.6055 76.2913 37.0048 74.8919 38.7311 74.8919C40.4573 74.8919 41.8566 76.2913 41.8566 78.0175ZM37.3636 78.4082C37.5794 78.4082 37.7543 78.2332 37.7543 78.0175C37.7543 77.8017 37.5794 77.6268 37.3636 77.6268C37.1478 77.6268 36.9729 77.8017 36.9729 78.0175C36.9729 78.2332 37.1478 78.4082 37.3636 78.4082ZM38.7311 78.4082C38.9468 78.4082 39.1217 78.2332 39.1217 78.0175C39.1217 77.8017 38.9468 77.6268 38.7311 77.6268C38.5153 77.6268 38.3404 77.8017 38.3404 78.0175C38.3404 78.2332 38.5153 78.4082 38.7311 78.4082ZM40.0985 78.4082C40.3143 78.4082 40.4892 78.2332 40.4892 78.0175C40.4892 77.8017 40.3143 77.6268 40.0985 77.6268C39.8827 77.6268 39.7078 77.8017 39.7078 78.0175C39.7078 78.2332 39.8827 78.4082 40.0985 78.4082Z" fill="white"/>
<path fill-rule="evenodd" clip-rule="evenodd" d="M41.8566 78.0175C41.8566 79.7437 40.4573 81.1431 38.7311 81.1431C38.2483 81.1431 37.7912 81.0336 37.383 80.8382C37.2428 80.7711 37.0838 80.7475 36.9336 80.7877L36.4546 80.9159C36.077 81.0169 35.7316 80.6715 35.8327 80.2939L35.9608 79.8149C36.001 79.6647 35.9774 79.5058 35.9103 79.3655C35.7149 78.9573 35.6055 78.5002 35.6055 78.0175C35.6055 76.2913 37.0048 74.8919 38.7311 74.8919C40.4573 74.8919 41.8566 76.2913 41.8566 78.0175ZM37.3636 78.4082C37.5794 78.4082 37.7543 78.2332 37.7543 78.0175C37.7543 77.8017 37.5794 77.6268 37.3636 77.6268C37.1478 77.6268 36.9729 77.8017 36.9729 78.0175C36.9729 78.2332 37.1478 78.4082 37.3636 78.4082ZM38.7311 78.4082C38.9468 78.4082 39.1217 78.2332 39.1217 78.0175C39.1217 77.8017 38.9468 77.6268 38.7311 77.6268C38.5153 77.6268 38.3404 77.8017 38.3404 78.0175C38.3404 78.2332 38.5153 78.4082 38.7311 78.4082ZM40.0985 78.4082C40.3143 78.4082 40.4892 78.2332 40.4892 78.0175C40.4892 77.8017 40.3143 77.6268 40.0985 77.6268C39.8827 77.6268 39.7078 77.8017 39.7078 78.0175C39.7078 78.2332 39.8827 78.4082 40.0985 78.4082Z" fill="url(#paint25_linear_9409_236324)"/>
<rect x="46.8926" y="73.7637" width="26.9147" height="3.47287" rx="0.868217" fill="white"/>
<rect x="46.8926" y="73.7637" width="26.9147" height="3.47287" rx="0.868217" fill="url(#paint26_linear_9409_236324)"/>
<path d="M46.8926 79.4068C46.8926 79.167 47.0869 78.9727 47.3267 78.9727H57.7453C57.985 78.9727 58.1794 79.167 58.1794 79.4068V80.275C58.1794 80.5147 57.985 80.7091 57.7453 80.7091H47.3267C47.0869 80.7091 46.8926 80.5147 46.8926 80.275V79.4068Z" fill="white"/>
<path d="M46.8926 79.4068C46.8926 79.167 47.0869 78.9727 47.3267 78.9727H57.7453C57.985 78.9727 58.1794 79.167 58.1794 79.4068V80.275C58.1794 80.5147 57.985 80.7091 57.7453 80.7091H47.3267C47.0869 80.7091 46.8926 80.5147 46.8926 80.275V79.4068Z" fill="url(#paint27_linear_9409_236324)"/>
<path d="M59.9158 79.4068C59.9158 79.167 60.1102 78.9727 60.3499 78.9727H66.4275C66.6672 78.9727 66.8616 79.167 66.8616 79.4068V80.275C66.8616 80.5147 66.6672 80.7091 66.4275 80.7091H60.3499C60.1102 80.7091 59.9158 80.5147 59.9158 80.275V79.4068Z" fill="white"/>
<path d="M59.9158 79.4068C59.9158 79.167 60.1102 78.9727 60.3499 78.9727H66.4275C66.6672 78.9727 66.8616 79.167 66.8616 79.4068V80.275C66.8616 80.5147 66.6672 80.7091 66.4275 80.7091H60.3499C60.1102 80.7091 59.9158 80.5147 59.9158 80.275V79.4068Z" fill="url(#paint28_linear_9409_236324)"/>
<g filter="url(#filter2_d_9409_236324)">
<path d="M64.2571 70.7236C65.1253 79.4058 64.2571 83.7469 59.916 89.8244C73.1129 88.088 78.1486 78.3929 79.0168 73.7624C79.0168 73.7624 70.7687 73.3283 64.2571 70.7236Z" fill="#D9D9D9"/>
<path d="M64.2571 70.7236C65.1253 79.4058 64.2571 83.7469 59.916 89.8244C73.1129 88.088 78.1486 78.3929 79.0168 73.7624C79.0168 73.7624 70.7687 73.3283 64.2571 70.7236Z" fill="url(#paint29_linear_9409_236324)"/>
</g>
<path fill-rule="evenodd" clip-rule="evenodd" d="M77.1554 16.5225C76.6759 16.5225 76.2871 16.9112 76.2871 17.3907V18.2589C76.2871 18.3184 76.2931 18.3765 76.3045 18.4326C66.9792 19.6954 59.791 27.6881 59.791 37.3597C59.791 47.9087 68.3427 56.4604 78.8918 56.4604C89.4409 56.4604 97.9926 47.9087 97.9926 37.3597C97.9926 27.3948 90.3618 19.2121 80.6248 18.3365C80.6271 18.3109 80.6282 18.285 80.6282 18.2589V17.3907C80.6282 16.9112 80.2395 16.5225 79.76 16.5225H77.1554Z" fill="url(#paint30_linear_9409_236324)"/>
<path fill-rule="evenodd" clip-rule="evenodd" d="M77.1554 16.5225C76.6759 16.5225 76.2871 16.9112 76.2871 17.3907V18.2589C76.2871 18.3184 76.2931 18.3765 76.3045 18.4326C66.9792 19.6954 59.791 27.6881 59.791 37.3597C59.791 47.9087 68.3427 56.4604 78.8918 56.4604C89.4409 56.4604 97.9926 47.9087 97.9926 37.3597C97.9926 27.3948 90.3618 19.2121 80.6248 18.3365C80.6271 18.3109 80.6282 18.285 80.6282 18.2589V17.3907C80.6282 16.9112 80.2395 16.5225 79.76 16.5225H77.1554Z" fill="url(#paint31_linear_9409_236324)"/>
<rect x="74.5527" y="13.918" width="7.81395" height="3.47287" rx="0.868217" fill="url(#paint32_linear_9409_236324)" fill-opacity="0.8"/>
<rect x="74.5527" y="13.918" width="7.81395" height="3.47287" rx="0.868217" fill="url(#paint33_linear_9409_236324)"/>
<rect x="60.6602" y="23.832" width="4.34109" height="2.62709" rx="0.868217" transform="rotate(-49.1471 60.6602 23.832)" fill="#D9D9D9"/>
<rect x="60.6602" y="23.832" width="4.34109" height="2.62709" rx="0.868217" transform="rotate(-49.1471 60.6602 23.832)" fill="url(#paint34_linear_9409_236324)" fill-opacity="0.8"/>
<rect x="60.6602" y="23.832" width="4.34109" height="2.62709" rx="0.868217" transform="rotate(-49.1471 60.6602 23.832)" fill="url(#paint35_linear_9409_236324)"/>
<rect width="4.34109" height="2.62709" rx="0.868217" transform="matrix(0.654119 0.756392 0.756392 -0.654119 93.6523 22.2676)" fill="#D9D9D9"/>
<rect width="4.34109" height="2.62709" rx="0.868217" transform="matrix(0.654119 0.756392 0.756392 -0.654119 93.6523 22.2676)" fill="url(#paint36_linear_9409_236324)" fill-opacity="0.8"/>
<rect width="4.34109" height="2.62709" rx="0.868217" transform="matrix(0.654119 0.756392 0.756392 -0.654119 93.6523 22.2676)" fill="url(#paint37_linear_9409_236324)"/>
<circle cx="78.8935" cy="37.3594" r="15.6279" fill="white"/>
<path d="M78.8935 21.7314C74.7488 21.7314 70.7737 23.378 67.8429 26.3088C64.9121 29.2396 63.2656 33.2146 63.2656 37.3594C63.2656 41.5041 64.9121 45.4791 67.8429 48.41C70.7737 51.3408 74.7488 52.9873 78.8935 52.9873L78.8935 46.7768C76.3959 46.7768 74.0005 45.7846 72.2344 44.0185C70.4682 42.2524 69.476 39.857 69.476 37.3594C69.476 34.8617 70.4682 32.4663 72.2344 30.7002C74.0005 28.9341 76.3959 27.9419 78.8935 27.9419V21.7314Z" fill="url(#paint38_linear_9409_236324)"/>
<rect x="78.0254" y="22.5996" width="2.60465" height="3.47287" rx="0.868217" fill="#D9D9D9"/>
<rect x="78.0254" y="22.5996" width="2.60465" height="3.47287" rx="0.868217" fill="url(#paint39_linear_9409_236324)"/>
<rect x="78.0254" y="48.6465" width="2.60465" height="3.47287" rx="0.868217" fill="#D9D9D9"/>
<rect x="78.0254" y="48.6465" width="2.60465" height="3.47287" rx="0.868217" fill="url(#paint40_linear_9409_236324)"/>
<rect x="93.6523" y="35.623" width="2.60465" height="3.47287" rx="0.868217" transform="rotate(90 93.6523 35.623)" fill="#D9D9D9"/>
<rect x="93.6523" y="35.623" width="2.60465" height="3.47287" rx="0.868217" transform="rotate(90 93.6523 35.623)" fill="url(#paint41_linear_9409_236324)"/>
<rect x="67.834" y="35.623" width="2.60465" height="3.47287" rx="0.868217" transform="rotate(90 67.834 35.623)" fill="#D9D9D9"/>
<rect x="67.834" y="35.623" width="2.60465" height="3.47287" rx="0.868217" transform="rotate(90 67.834 35.623)" fill="url(#paint42_linear_9409_236324)"/>
<circle cx="79.3268" cy="37.7936" r="2.17054" fill="#EEEEF1"/>
<circle cx="79.3277" cy="37.7935" r="1.30233" fill="#BDBDC1"/>
<rect x="78.8926" y="26.9404" width="0.868217" height="13.8915" rx="0.434109" fill="url(#paint43_linear_9409_236324)"/>
<path d="M15.7916 70.5C15.7916 70.8088 15.5413 71.0592 15.2324 71.0592C14.9236 71.0592 14.6732 70.8088 14.6732 70.5L15.7916 70.5ZM24.8324 52.5L19.2404 55.7286L19.2404 49.2714L24.8324 52.5ZM14.6732 70.5L14.6732 56.0398L15.7916 56.0398L15.7916 70.5L14.6732 70.5ZM18.7722 51.9408L19.7996 51.9408L19.7996 53.0592L18.7722 53.0592L18.7722 51.9408ZM14.6732 56.0398C14.6732 53.776 16.5084 51.9408 18.7722 51.9408L18.7722 53.0592C17.1261 53.0592 15.7916 54.3937 15.7916 56.0398L14.6732 56.0398Z" fill="#EEF2FC"/>
<defs>
<filter id="filter0_d_9409_236324" x="32.1328" y="33.3906" width="53.8304" height="64.2484" filterUnits="userSpaceOnUse" color-interpolation-filters="sRGB">
<feFlood flood-opacity="0" result="BackgroundImageFix"/>
<feColorMatrix in="SourceAlpha" type="matrix" values="0 0 0 0 0 0 0 0 0 0 0 0 0 0 0 0 0 0 127 0" result="hardAlpha"/>
<feOffset dx="2.60465" dy="1.73643"/>
<feGaussianBlur stdDeviation="1.30233"/>
<feComposite in2="hardAlpha" operator="out"/>
<feColorMatrix type="matrix" values="0 0 0 0 0 0 0 0 0 0.1045 0 0 0 0 0.475 0 0 0 0.07 0"/>
<feBlend mode="normal" in2="BackgroundImageFix" result="effect1_dropShadow_9409_236324"/>
<feBlend mode="normal" in="SourceGraphic" in2="effect1_dropShadow_9409_236324" result="shape"/>
</filter>
<filter id="filter1_d_9409_236324" x="31.2637" y="31.6542" width="53.8304" height="64.2484" filterUnits="userSpaceOnUse" color-interpolation-filters="sRGB">
<feFlood flood-opacity="0" result="BackgroundImageFix"/>
<feColorMatrix in="SourceAlpha" type="matrix" values="0 0 0 0 0 0 0 0 0 0 0 0 0 0 0 0 0 0 127 0" result="hardAlpha"/>
<feOffset dx="2.60465" dy="1.73643"/>
<feGaussianBlur stdDeviation="1.30233"/>
<feComposite in2="hardAlpha" operator="out"/>
<feColorMatrix type="matrix" values="0 0 0 0 0 0 0 0 0 0.1045 0 0 0 0 0.475 0 0 0 0.07 0"/>
<feBlend mode="normal" in2="BackgroundImageFix" result="effect1_dropShadow_9409_236324"/>
<feBlend mode="normal" in="SourceGraphic" in2="effect1_dropShadow_9409_236324" result="shape"/>
</filter>
<filter id="filter2_d_9409_236324" x="59.916" y="69.8554" width="24.3109" height="24.3099" filterUnits="userSpaceOnUse" color-interpolation-filters="sRGB">
<feFlood flood-opacity="0" result="BackgroundImageFix"/>
<feColorMatrix in="SourceAlpha" type="matrix" values="0 0 0 0 0 0 0 0 0 0 0 0 0 0 0 0 0 0 127 0" result="hardAlpha"/>
<feOffset dx="2.60465" dy="1.73643"/>
<feGaussianBlur stdDeviation="1.30233"/>
<feComposite in2="hardAlpha" operator="out"/>
<feColorMatrix type="matrix" values="0 0 0 0 0 0 0 0 0 0.1045 0 0 0 0 0.475 0 0 0 0.07 0"/>
<feBlend mode="normal" in2="BackgroundImageFix" result="effect1_dropShadow_9409_236324"/>
<feBlend mode="normal" in="SourceGraphic" in2="effect1_dropShadow_9409_236324" result="shape"/>
</filter>
<linearGradient id="paint0_linear_9409_236324" x1="17.6134" y1="97.9394" x2="9.27582" y2="68.8774" gradientUnits="userSpaceOnUse">
<stop stop-color="#FF4B4B"/>
<stop offset="1" stop-color="#FFB6B6"/>
</linearGradient>
<radialGradient id="paint1_radial_9409_236324" cx="0" cy="0" r="1" gradientUnits="userSpaceOnUse" gradientTransform="translate(-8.3372 20.514) rotate(34.8627) scale(145.714 175.844)">
<stop stop-color="#C5CDE4"/>
<stop offset="1" stop-color="#F0F5FF"/>
</radialGradient>
<radialGradient id="paint2_radial_9409_236324" cx="0" cy="0" r="1" gradientUnits="userSpaceOnUse" gradientTransform="translate(21.2801 39.9022) rotate(35.4104) scale(105.877 126.447)">
<stop stop-color="#AFB8D1"/>
<stop offset="1" stop-color="white"/>
</radialGradient>
<radialGradient id="paint3_radial_9409_236324" cx="0" cy="0" r="1" gradientUnits="userSpaceOnUse" gradientTransform="translate(20.411 38.1659) rotate(35.4104) scale(105.877 126.447)">
<stop stop-color="#AFB8D1"/>
<stop offset="1" stop-color="white"/>
</radialGradient>
<linearGradient id="paint4_linear_9409_236324" x1="26.1212" y1="39.0662" x2="129.967" y2="112.212" gradientUnits="userSpaceOnUse">
<stop stop-color="#F9FBFF"/>
<stop offset="1" stop-color="#E2F1FA"/>
</linearGradient>
<radialGradient id="paint5_radial_9409_236324" cx="0" cy="0" r="1" gradientUnits="userSpaceOnUse" gradientTransform="translate(26.2114 29.0403) rotate(7.93188) scale(56.3345 19.8106)">
<stop stop-color="#C5CDE4"/>
<stop offset="1" stop-color="#F0F5FF"/>
</radialGradient>
<linearGradient id="paint6_linear_9409_236324" x1="39.1451" y1="40.8595" x2="42.0044" y2="50.7749" gradientUnits="userSpaceOnUse">
<stop stop-color="#FFB74B"/>
<stop offset="1" stop-color="#FCCA80"/>
</linearGradient>
<linearGradient id="paint7_linear_9409_236324" x1="39.1451" y1="40.8595" x2="42.0044" y2="50.7749" gradientUnits="userSpaceOnUse">
<stop stop-color="#FFB74B"/>
<stop offset="1" stop-color="#FCCA80"/>
</linearGradient>
<linearGradient id="paint8_linear_9409_236324" x1="39.1451" y1="40.8595" x2="42.0044" y2="50.7749" gradientUnits="userSpaceOnUse">
<stop stop-color="#FFB74B"/>
<stop offset="1" stop-color="#FCCA80"/>
</linearGradient>
<linearGradient id="paint9_linear_9409_236324" x1="39.1451" y1="40.8595" x2="42.0044" y2="50.7749" gradientUnits="userSpaceOnUse">
<stop stop-color="#FFB74B"/>
<stop offset="1" stop-color="#FCCA80"/>
</linearGradient>
<linearGradient id="paint10_linear_9409_236324" x1="39.1451" y1="40.8595" x2="42.0044" y2="50.7749" gradientUnits="userSpaceOnUse">
<stop stop-color="#FFB74B"/>
<stop offset="1" stop-color="#FCCA80"/>
</linearGradient>
<linearGradient id="paint11_linear_9409_236324" x1="39.1451" y1="40.8595" x2="42.0044" y2="50.7749" gradientUnits="userSpaceOnUse">
<stop stop-color="#FFB74B"/>
<stop offset="1" stop-color="#FCCA80"/>
</linearGradient>
<linearGradient id="paint12_linear_9409_236324" x1="46.8906" y1="44.2442" x2="73.8054" y2="44.2442" gradientUnits="userSpaceOnUse">
<stop stop-color="#D2D9EE"/>
<stop offset="1" stop-color="#E7F0F8"/>
</linearGradient>
<linearGradient id="paint13_linear_9409_236324" x1="46.8906" y1="48.585" x2="66.8596" y2="48.585" gradientUnits="userSpaceOnUse">
<stop stop-color="#D2D9EE"/>
<stop offset="1" stop-color="#E7F0F8"/>
</linearGradient>
<linearGradient id="paint14_linear_9409_236324" x1="46.8906" y1="48.585" x2="66.8596" y2="48.585" gradientUnits="userSpaceOnUse">
<stop stop-color="#D2D9EE"/>
<stop offset="1" stop-color="#E7F0F8"/>
</linearGradient>
<linearGradient id="paint15_linear_9409_236324" x1="39.1451" y1="55.6193" x2="42.0044" y2="65.5347" gradientUnits="userSpaceOnUse">
<stop stop-color="#FFB74B"/>
<stop offset="1" stop-color="#FCCA80"/>
</linearGradient>
<linearGradient id="paint16_linear_9409_236324" x1="39.1451" y1="55.6193" x2="42.0044" y2="65.5347" gradientUnits="userSpaceOnUse">
<stop stop-color="#FFB74B"/>
<stop offset="1" stop-color="#FCCA80"/>
</linearGradient>
<linearGradient id="paint17_linear_9409_236324" x1="39.1451" y1="55.6193" x2="42.0044" y2="65.5347" gradientUnits="userSpaceOnUse">
<stop stop-color="#FFB74B"/>
<stop offset="1" stop-color="#FCCA80"/>
</linearGradient>
<linearGradient id="paint18_linear_9409_236324" x1="39.1451" y1="55.6193" x2="42.0044" y2="65.5347" gradientUnits="userSpaceOnUse">
<stop stop-color="#FFB74B"/>
<stop offset="1" stop-color="#FCCA80"/>
</linearGradient>
<linearGradient id="paint19_linear_9409_236324" x1="39.1451" y1="55.6193" x2="42.0044" y2="65.5347" gradientUnits="userSpaceOnUse">
<stop stop-color="#FFB74B"/>
<stop offset="1" stop-color="#FCCA80"/>
</linearGradient>
<linearGradient id="paint20_linear_9409_236324" x1="39.1451" y1="55.6193" x2="42.0044" y2="65.5347" gradientUnits="userSpaceOnUse">
<stop stop-color="#FFB74B"/>
<stop offset="1" stop-color="#FCCA80"/>
</linearGradient>
<linearGradient id="paint21_linear_9409_236324" x1="46.8906" y1="59.004" x2="73.8054" y2="59.004" gradientUnits="userSpaceOnUse">
<stop stop-color="#D2D9EE"/>
<stop offset="1" stop-color="#E7F0F8"/>
</linearGradient>
<linearGradient id="paint22_linear_9409_236324" x1="46.8906" y1="63.3448" x2="66.8596" y2="63.3448" gradientUnits="userSpaceOnUse">
<stop stop-color="#D2D9EE"/>
<stop offset="1" stop-color="#E7F0F8"/>
</linearGradient>
<linearGradient id="paint23_linear_9409_236324" x1="46.8906" y1="63.3448" x2="66.8596" y2="63.3448" gradientUnits="userSpaceOnUse">
<stop stop-color="#D2D9EE"/>
<stop offset="1" stop-color="#E7F0F8"/>
</linearGradient>
<linearGradient id="paint24_linear_9409_236324" x1="35.6055" y1="77.2361" x2="43.4194" y2="77.2361" gradientUnits="userSpaceOnUse">
<stop stop-color="#D2D9EE"/>
<stop offset="1" stop-color="#E7F0F8"/>
</linearGradient>
<linearGradient id="paint25_linear_9409_236324" x1="35.6055" y1="77.2361" x2="43.4194" y2="77.2361" gradientUnits="userSpaceOnUse">
<stop stop-color="#D2D9EE"/>
<stop offset="1" stop-color="#E7F0F8"/>
</linearGradient>
<linearGradient id="paint26_linear_9409_236324" x1="46.8926" y1="75.5001" x2="73.8073" y2="75.5001" gradientUnits="userSpaceOnUse">
<stop stop-color="#D2D9EE"/>
<stop offset="1" stop-color="#E7F0F8"/>
</linearGradient>
<linearGradient id="paint27_linear_9409_236324" x1="46.8926" y1="79.8409" x2="66.8616" y2="79.8409" gradientUnits="userSpaceOnUse">
<stop stop-color="#D2D9EE"/>
<stop offset="1" stop-color="#E7F0F8"/>
</linearGradient>
<linearGradient id="paint28_linear_9409_236324" x1="46.8926" y1="79.8409" x2="66.8616" y2="79.8409" gradientUnits="userSpaceOnUse">
<stop stop-color="#D2D9EE"/>
<stop offset="1" stop-color="#E7F0F8"/>
</linearGradient>
<linearGradient id="paint29_linear_9409_236324" x1="59.916" y1="80.274" x2="79.0168" y2="80.274" gradientUnits="userSpaceOnUse">
<stop stop-color="#D2D9EE"/>
<stop offset="1" stop-color="#E7F0F8"/>
</linearGradient>
<linearGradient id="paint30_linear_9409_236324" x1="76.2871" y1="17.8249" x2="104.07" y2="56.0263" gradientUnits="userSpaceOnUse">
<stop stop-color="#05E0E0"/>
<stop offset="1" stop-color="#02C8C8"/>
</linearGradient>
<linearGradient id="paint31_linear_9409_236324" x1="62.7359" y1="-10.8081" x2="69.0751" y2="90.9231" gradientUnits="userSpaceOnUse">
<stop stop-color="#FF4B4B"/>
<stop offset="1" stop-color="#FFB6B6"/>
</linearGradient>
<linearGradient id="paint32_linear_9409_236324" x1="78.4597" y1="13.918" x2="78.3892" y2="16.0118" gradientUnits="userSpaceOnUse">
<stop stop-color="#64FBF5"/>
<stop offset="1" stop-color="#37E6DF"/>
</linearGradient>
<linearGradient id="paint33_linear_9409_236324" x1="78.0927" y1="13.3785" x2="78.6945" y2="18.0747" gradientUnits="userSpaceOnUse">
<stop stop-color="#FFB74B"/>
<stop offset="1" stop-color="#FCCA80"/>
</linearGradient>
<linearGradient id="paint34_linear_9409_236324" x1="62.8307" y1="23.832" x2="62.7582" y2="25.4144" gradientUnits="userSpaceOnUse">
<stop stop-color="#64FBF5"/>
<stop offset="1" stop-color="#37E6DF"/>
</linearGradient>
<linearGradient id="paint35_linear_9409_236324" x1="62.6268" y1="23.424" x2="63.2383" y2="26.9281" gradientUnits="userSpaceOnUse">
<stop stop-color="#FFB74B"/>
<stop offset="1" stop-color="#FCCA80"/>
</linearGradient>
<linearGradient id="paint36_linear_9409_236324" x1="2.17054" y1="-7.11759e-09" x2="2.09801" y2="1.58235" gradientUnits="userSpaceOnUse">
<stop stop-color="#64FBF5"/>
<stop offset="1" stop-color="#37E6DF"/>
</linearGradient>
<linearGradient id="paint37_linear_9409_236324" x1="1.96667" y1="-0.408056" x2="2.57811" y2="3.09607" gradientUnits="userSpaceOnUse">
<stop stop-color="#FFB74B"/>
<stop offset="1" stop-color="#FCCA80"/>
</linearGradient>
<linearGradient id="paint38_linear_9409_236324" x1="62.791" y1="41.418" x2="84.291" y2="24.418" gradientUnits="userSpaceOnUse">
<stop stop-color="#EE3232" stop-opacity="0.38"/>
<stop offset="0.78125" stop-color="#EA290E" stop-opacity="0"/>
</linearGradient>
<linearGradient id="paint39_linear_9409_236324" x1="78.0254" y1="24.336" x2="80.63" y2="24.336" gradientUnits="userSpaceOnUse">
<stop stop-color="#D2D9EE"/>
<stop offset="1" stop-color="#E7F0F8"/>
</linearGradient>
<linearGradient id="paint40_linear_9409_236324" x1="78.0254" y1="50.3829" x2="80.63" y2="50.3829" gradientUnits="userSpaceOnUse">
<stop stop-color="#D2D9EE"/>
<stop offset="1" stop-color="#E7F0F8"/>
</linearGradient>
<linearGradient id="paint41_linear_9409_236324" x1="93.6523" y1="37.3595" x2="96.257" y2="37.3595" gradientUnits="userSpaceOnUse">
<stop stop-color="#D2D9EE"/>
<stop offset="1" stop-color="#E7F0F8"/>
</linearGradient>
<linearGradient id="paint42_linear_9409_236324" x1="67.834" y1="37.3595" x2="70.4386" y2="37.3595" gradientUnits="userSpaceOnUse">
<stop stop-color="#D2D9EE"/>
<stop offset="1" stop-color="#E7F0F8"/>
</linearGradient>
<linearGradient id="paint43_linear_9409_236324" x1="79.2859" y1="24.7827" x2="83.2389" y2="25.6396" gradientUnits="userSpaceOnUse">
<stop stop-color="#FFB74B"/>
<stop offset="1" stop-color="#FCCA80"/>
</linearGradient>
</defs>
</svg>
