<svg width="120" height="120" viewBox="0 0 120 120" fill="none" xmlns="http://www.w3.org/2000/svg">
<rect width="97.7328" height="57.4087" rx="13.1187" transform="matrix(0.938473 -0.329604 0.283532 0.954615 0 43.9359)" fill="url(#paint0_linear_7900_805705)"/>
<rect opacity="0.5" width="95.1434" height="7.55379" transform="matrix(0.941756 -0.31385 0.296835 0.948666 3.78125 53.2914)" fill="white"/>
<rect x="16.543" y="40.5712" width="93.7324" height="61.1601" rx="13.1187" fill="url(#paint1_linear_7900_805705)"/>
<rect opacity="0.7" x="16.543" y="52.8745" width="93.7324" height="11.2187" fill="white"/>
<ellipse opacity="0.7" cx="35.1816" cy="82.7305" rx="9.22847" ry="9.2283" fill="white"/>
<ellipse opacity="0.7" cx="46.7597" cy="82.7305" rx="9.22847" ry="9.2283" fill="white"/>
<path d="M86.2084 91.7327C86.2084 82.5917 93.6189 75.1805 102.761 75.1805C106.856 75.1805 110.603 76.6676 113.494 79.1324C117.055 82.1682 119.313 86.6864 119.313 91.7327C119.313 100.874 111.902 108.284 102.761 108.284C100.484 108.284 98.3135 107.824 96.3385 106.992C90.3862 104.484 86.2084 98.5963 86.2084 91.7327Z" fill="url(#paint2_linear_7900_805705)"/>
<path d="M99.6459 95.8508L99.8211 95.0309C99.9803 94.2854 100.266 93.6794 100.678 93.2128C101.106 92.7497 101.587 92.367 102.12 92.0647C102.653 91.7624 103.18 91.4849 103.703 91.2322C104.229 90.963 104.682 90.6696 105.062 90.3521C105.462 90.0216 105.717 89.5995 105.826 89.086C105.972 88.4069 105.831 87.8055 105.405 87.2821C104.996 86.7622 104.426 86.4246 103.696 86.2694C102.983 86.1178 102.301 86.224 101.651 86.588C101.004 86.9354 100.575 87.6061 100.363 88.6L96.704 87.8224C97.0049 86.4143 97.5596 85.32 98.3681 84.5394C99.1968 83.7458 100.157 83.2312 101.248 82.9955C102.339 82.7599 103.44 82.7602 104.552 82.9965C105.68 83.2363 106.678 83.6821 107.544 84.3339C108.411 84.9857 109.038 85.7857 109.425 86.7338C109.832 87.6689 109.918 88.6914 109.68 89.8013C109.503 90.6295 109.194 91.3083 108.751 91.8377C108.328 92.354 107.839 92.7781 107.282 93.11C106.746 93.4289 106.208 93.713 105.669 93.9621C105.147 94.2147 104.691 94.4815 104.301 94.7623C103.912 95.0432 103.671 95.399 103.579 95.8296L103.404 96.6496L99.6459 95.8508ZM100.343 101.844C99.7456 101.717 99.2986 101.414 99.0019 100.935C98.7218 100.46 98.6402 99.9491 98.757 99.4024C98.8773 98.8392 99.1607 98.4059 99.6071 98.1025C100.074 97.786 100.606 97.6913 101.203 97.8183C101.784 97.9417 102.222 98.2427 102.519 98.7214C102.819 99.1835 102.909 99.6962 102.789 100.259C102.672 100.806 102.38 101.238 101.914 101.554C101.447 101.87 100.924 101.967 100.343 101.844Z" fill="white"/>
<path d="M99.6459 95.8508L99.8211 95.0309C99.9803 94.2854 100.266 93.6794 100.678 93.2128C101.106 92.7497 101.587 92.367 102.12 92.0647C102.653 91.7624 103.18 91.4849 103.703 91.2322C104.229 90.963 104.682 90.6696 105.062 90.3521C105.462 90.0216 105.717 89.5995 105.826 89.086C105.972 88.4069 105.831 87.8055 105.405 87.2821C104.996 86.7622 104.426 86.4246 103.696 86.2694C102.983 86.1178 102.301 86.224 101.651 86.588C101.004 86.9354 100.575 87.6061 100.363 88.6L96.704 87.8224C97.0049 86.4143 97.5596 85.32 98.3681 84.5394C99.1968 83.7458 100.157 83.2312 101.248 82.9955C102.339 82.7599 103.44 82.7602 104.552 82.9965C105.68 83.2363 106.678 83.6821 107.544 84.3339C108.411 84.9857 109.038 85.7857 109.425 86.7338C109.832 87.6689 109.918 88.6914 109.68 89.8013C109.503 90.6295 109.194 91.3083 108.751 91.8377C108.328 92.354 107.839 92.7781 107.282 93.11C106.746 93.4289 106.208 93.713 105.669 93.9621C105.147 94.2147 104.691 94.4815 104.301 94.7623C103.912 95.0432 103.671 95.399 103.579 95.8296L103.404 96.6496L99.6459 95.8508ZM100.343 101.844C99.7456 101.717 99.2986 101.414 99.0019 100.935C98.7218 100.46 98.6402 99.9491 98.757 99.4024C98.8773 98.8392 99.1607 98.4059 99.6071 98.1025C100.074 97.786 100.606 97.6913 101.203 97.8183C101.784 97.9417 102.222 98.2427 102.519 98.7214C102.819 99.1835 102.909 99.6962 102.789 100.259C102.672 100.806 102.38 101.238 101.914 101.554C101.447 101.87 100.924 101.967 100.343 101.844Z" fill="white"/>
<defs>
<linearGradient id="paint0_linear_7900_805705" x1="-20.3767" y1="65.2217" x2="112.057" y2="5.14055" gradientUnits="userSpaceOnUse">
<stop stop-color="#E7EEF8"/>
<stop offset="1" stop-color="#E1EDF4"/>
</linearGradient>
<linearGradient id="paint1_linear_7900_805705" x1="8.21925" y1="105.169" x2="116.165" y2="54.4161" gradientUnits="userSpaceOnUse">
<stop stop-color="#05E0E0"/>
<stop offset="1" stop-color="#02C8C8"/>
</linearGradient>
<linearGradient id="paint2_linear_7900_805705" x1="104.315" y1="113.426" x2="92.2033" y2="71.4188" gradientUnits="userSpaceOnUse">
<stop stop-color="#FFB74B"/>
<stop offset="1" stop-color="#FCCA80"/>
</linearGradient>
</defs>
</svg>
