<svg width="120" height="121" viewBox="0 0 120 121" fill="none" xmlns="http://www.w3.org/2000/svg">
<path d="M4.48935 58.8865C3.88254 56.5014 5.32656 54.0753 7.71465 53.4678L40.5052 45.1255C42.8933 44.5179 45.3211 45.9589 45.9279 48.344L52.0624 72.4566C52.6693 74.8417 51.2252 77.2677 48.8371 77.8753L16.0466 86.2176C13.6585 86.8252 11.2307 85.3842 10.6239 82.9991L4.48935 58.8865Z" fill="#06C6C6"/>
<path d="M23.6021 32.4474C24.2382 27.9212 28.4231 24.7677 32.9492 25.4039L95.0971 34.1382C99.6232 34.7743 102.777 38.9591 102.141 43.4853L95.7099 89.2425C95.0738 93.7686 90.8889 96.9221 86.3628 96.286L24.2149 87.5517C19.6888 86.9156 16.5353 82.7308 17.1714 78.2046L23.6021 32.4474Z" fill="url(#paint0_linear_8549_49637)"/>
<path fill-rule="evenodd" clip-rule="evenodd" d="M94.5212 38.2358L32.3733 29.5015C30.1103 29.1835 28.0178 30.7602 27.6998 33.0233L21.269 78.7805C20.951 81.0436 22.5277 83.136 24.7908 83.454L86.9387 92.1884C89.2017 92.5064 91.2942 90.9297 91.6122 88.6666L98.043 42.9094C98.361 40.6463 96.7843 38.5539 94.5212 38.2358ZM32.9492 25.4039C28.4231 24.7677 24.2382 27.9212 23.6021 32.4474L17.1714 78.2046C16.5353 82.7308 19.6888 86.9156 24.2149 87.5517L86.3628 96.286C90.8889 96.9221 95.0738 93.7686 95.7099 89.2425L102.141 43.4853C102.777 38.9591 99.6232 34.7743 95.0971 34.1382L32.9492 25.4039Z" fill="#E1EDF8"/>
<path opacity="0.7" d="M73.371 66.7798C73.6379 66.8173 73.9116 66.8487 74.1823 66.8938C75.0253 67.0366 75.3134 67.8273 74.7424 68.4913C74.0376 69.3086 73.3047 70.0996 72.5831 70.9024C72.0276 71.5189 71.4775 72.1402 70.9151 72.7497C70.3527 73.3592 69.6547 73.2874 69.2814 72.5373C68.4398 70.8436 67.6156 69.1401 66.7836 67.4416C66.6029 67.074 66.5589 66.7013 66.8103 66.3539C67.0618 66.0065 67.4116 65.92 67.8168 65.9982C68.0362 66.0412 68.2609 66.0606 68.4868 66.0923C68.7055 62.4162 66.5888 58.8068 63.1227 57.2727C59.4894 55.6635 55.1016 56.5039 52.2179 60.1183C51.9673 59.6122 51.7016 59.1425 51.4943 58.6456C51.0213 57.5099 50.3038 56.672 49.0184 56.4751C51.831 52.9641 57.1283 50.5566 62.9351 51.9792C68.2905 53.2918 73.8622 58.7972 73.371 66.7798Z" fill="#05A7A7"/>
<path opacity="0.7" d="M66.5016 70.6825C67.3645 72.1198 67.6314 74.0444 69.7112 74.3073C67.1439 77.5697 61.9103 80.2893 55.8497 78.8221C50.3001 77.4792 44.8803 71.8906 45.3616 64.0133C45.0947 63.9758 44.8229 63.9306 44.5512 63.8994C44.153 63.8556 43.8756 63.6527 43.7454 63.2719C43.6151 62.8912 43.7469 62.5544 44.0103 62.2634C44.9092 61.2667 45.8081 60.2686 46.7068 59.2692C47.0846 58.8495 47.4563 58.4239 47.843 58.0116C48.3941 57.427 49.0801 57.5214 49.4418 58.2484C50.2832 59.9439 51.1078 61.6462 51.9408 63.3456C52.1218 63.7112 52.1694 64.0793 51.921 64.4331C51.6726 64.7869 51.3246 64.8747 50.9191 64.7984C50.6966 64.756 50.47 64.7353 50.2372 64.7026C50.0289 68.4393 52.2524 72.0905 55.5888 73.5262C59.2616 75.1054 63.6146 74.2907 66.5016 70.6825Z" fill="#05A7A7"/>
<path opacity="0.7" d="M59.6813 70.2455C59.385 71.3281 59.1169 71.6208 58.503 71.5334C57.8891 71.4461 57.7269 71.1025 57.7292 69.9647C56.406 69.3185 55.8241 68.4204 55.976 67.251C56.0603 66.6074 56.5563 66.2276 57.1411 66.3741C57.5958 66.4885 57.8536 66.8079 57.8424 67.2858C57.8305 67.8055 58.0611 68.0235 58.5348 68.0611C58.8589 68.0863 59.1794 68.1517 59.5013 68.1916C60.0671 68.2604 60.2338 68.0993 60.3304 67.4049C60.4269 66.7104 60.3014 66.519 59.7316 66.4282C59.3261 66.3626 58.9183 66.3139 58.5125 66.2504C57.2126 66.0355 56.3669 64.9491 56.5026 63.5854C56.5509 62.9883 56.691 62.4021 56.9177 61.849C57.2568 61.0813 57.9796 60.7109 59.0369 60.5645C59.4044 59.4243 59.6585 59.1586 60.2568 59.2609C60.8551 59.3632 61.0374 59.7407 60.9967 60.7455C61.4025 61.045 61.8229 61.2843 62.1545 61.6174C62.6715 62.1363 62.8465 62.8163 62.7545 63.5597C62.6887 64.0868 62.2989 64.4482 61.8218 64.4423C61.296 64.436 60.8878 64.0729 60.8954 63.5247C60.903 62.9766 60.6708 62.7551 60.174 62.7196C59.8506 62.6967 59.5304 62.6292 59.2073 62.5902C58.6728 62.528 58.5033 62.694 58.4084 63.3544C58.3107 64.0497 58.427 64.2624 58.9793 64.3529C59.3846 64.4195 59.7926 64.4672 60.1992 64.5243C61.5311 64.7405 62.3796 65.8284 62.2265 67.2208C62.1704 67.835 62.0137 68.4358 61.7632 68.9976C61.409 69.7545 60.8373 70.0239 59.6813 70.2455Z" fill="#05A7A7"/>
<path d="M23.6405 32.1742C24.2554 27.7989 28.3008 24.7506 32.6761 25.3655L95.3703 34.1766C99.7455 34.7915 102.794 38.8368 102.179 43.2121L101.469 48.2659L22.9303 37.228L23.6405 32.1742Z" fill="url(#paint1_linear_8549_49637)"/>
<rect opacity="0.5" x="30.3242" y="29.2136" width="39.3103" height="4.82759" rx="2.41379" transform="rotate(8 30.3242 29.2136)" fill="white"/>
<path d="M82.0014 66.0522C82.0014 56.9113 89.4119 49.5 98.5539 49.5C102.649 49.5 106.396 50.9871 109.287 53.4519C112.848 56.4877 115.105 61.0059 115.105 66.0522C115.105 75.1931 107.695 82.6035 98.5539 82.6035C96.2765 82.6035 94.1065 82.1435 92.1314 81.3113C86.1792 78.8036 82.0014 72.9158 82.0014 66.0522Z" fill="url(#paint2_linear_8549_49637)"/>
<path d="M95.4389 70.1703L95.6141 69.3504C95.7733 68.6049 96.0589 67.9989 96.4708 67.5323C96.8993 67.0693 97.38 66.6865 97.9129 66.3842C98.4459 66.0819 98.9735 65.8044 99.4958 65.5517C100.022 65.2825 100.475 64.9892 100.855 64.6716C101.255 64.3411 101.51 63.919 101.619 63.4055C101.765 62.7264 101.624 62.1251 101.198 61.6016C100.789 61.0817 100.219 60.7441 99.4894 60.589C98.7759 60.4373 98.0941 60.5435 97.4439 60.9075C96.7973 61.2549 96.3678 61.9256 96.1555 62.9195L92.497 62.1419C92.7978 60.7338 93.3525 59.6395 94.1611 58.8589C94.9898 58.0653 95.9496 57.5507 97.0407 57.315C98.1318 57.0794 99.2331 57.0797 100.345 57.316C101.473 57.5558 102.471 58.0016 103.337 58.6534C104.204 59.3052 104.831 60.1052 105.218 61.0533C105.625 61.9885 105.711 63.0109 105.473 64.1208C105.296 64.9491 104.987 65.6278 104.544 66.1572C104.121 66.6735 103.632 67.0976 103.075 67.4295C102.539 67.7484 102.001 68.0325 101.462 68.2816C100.94 68.5342 100.484 68.801 100.094 69.0818C99.7049 69.3627 99.4641 69.7185 99.3721 70.1492L99.1969 70.9691L95.4389 70.1703ZM96.1358 76.1631C95.5385 76.0361 95.0915 75.7333 94.7949 75.2546C94.5148 74.7795 94.4332 74.2686 94.5499 73.7219C94.6703 73.1587 94.9537 72.7254 95.4001 72.422C95.8666 72.1056 96.3986 72.0108 96.9959 72.1378C97.5766 72.2612 98.0153 72.5623 98.3119 73.0409C98.6121 73.503 98.7021 74.0157 98.5817 74.5789C98.4649 75.1256 98.1733 75.5571 97.7067 75.8736C97.2402 76.19 96.7165 76.2865 96.1358 76.1631Z" fill="white"/>
<path d="M95.4389 70.1703L95.6141 69.3503C95.7733 68.6049 96.0589 67.9989 96.4708 67.5323C96.8993 67.0692 97.38 66.6865 97.9129 66.3842C98.4459 66.0818 98.9735 65.8043 99.4958 65.5517C100.022 65.2825 100.475 64.9891 100.855 64.6716C101.255 64.341 101.51 63.919 101.619 63.4055C101.765 62.7263 101.624 62.125 101.198 61.6016C100.789 61.0816 100.219 60.7441 99.4894 60.5889C98.7759 60.4373 98.0941 60.5434 97.4439 60.9074C96.7973 61.2549 96.3678 61.9255 96.1555 62.9195L92.497 62.1418C92.7978 60.7338 93.3525 59.6395 94.1611 58.8589C94.9898 58.0653 95.9496 57.5506 97.0407 57.315C98.1318 57.0793 99.2331 57.0796 100.345 57.3159C101.473 57.5557 102.471 58.0015 103.337 58.6533C104.204 59.3051 104.831 60.1051 105.218 61.0533C105.625 61.9884 105.711 63.0109 105.473 64.1208C105.296 64.949 104.987 65.6278 104.544 66.1571C104.121 66.6734 103.632 67.0975 103.075 67.4295C102.539 67.7484 102.001 68.0324 101.462 68.2815C100.94 68.5342 100.484 68.8009 100.094 69.0818C99.7049 69.3626 99.4641 69.7184 99.3721 70.1491L99.1969 70.9691L95.4389 70.1703ZM96.1358 76.163C95.5385 76.0361 95.0915 75.7332 94.7949 75.2546C94.5148 74.7794 94.4332 74.2685 94.5499 73.7219C94.6703 73.1587 94.9537 72.7254 95.4001 72.4219C95.8666 72.1055 96.3986 72.0108 96.9959 72.1377C97.5766 72.2612 98.0153 72.5622 98.3119 73.0409C98.6121 73.503 98.7021 74.0156 98.5817 74.5789C98.4649 75.1255 98.1733 75.5571 97.7067 75.8735C97.2402 76.1899 96.7165 76.2865 96.1358 76.163Z" fill="white"/>
<defs>
<linearGradient id="paint0_linear_8549_49637" x1="23.5061" y1="33.1303" x2="67.2229" y2="112.495" gradientUnits="userSpaceOnUse">
<stop stop-color="white"/>
<stop offset="1" stop-color="#E2F1FA"/>
</linearGradient>
<linearGradient id="paint1_linear_8549_49637" x1="15.8533" y1="36.9772" x2="47.1631" y2="-5.63917" gradientUnits="userSpaceOnUse">
<stop stop-color="#05E0E0"/>
<stop offset="1" stop-color="#02C8C8"/>
</linearGradient>
<linearGradient id="paint2_linear_8549_49637" x1="100.108" y1="87.7453" x2="87.9963" y2="45.7384" gradientUnits="userSpaceOnUse">
<stop stop-color="#FFB74B"/>
<stop offset="1" stop-color="#FCCA80"/>
</linearGradient>
</defs>
</svg>
