<svg width="170" height="171" viewBox="0 0 170 171" fill="none" xmlns="http://www.w3.org/2000/svg">
<rect x="59.1935" y="28.3732" width="75.7703" height="91.2536" rx="2.61966" fill="url(#paint0_linear_10759_63426)" stroke="#E1EDF8" stroke-width="1.74644"/>
<rect x="60.0781" y="29.2422" width="73.8442" height="12.2248" fill="#E1EDF8"/>
<ellipse cx="66.2349" cy="35.3618" rx="2.63729" ry="2.61961" fill="white"/>
<ellipse cx="73.2662" cy="35.3618" rx="2.63729" ry="2.61961" fill="white"/>
<ellipse cx="80.2974" cy="35.3618" rx="2.63729" ry="2.61961" fill="white"/>
<rect x="65.3555" y="88.5" width="63.295" height="13.9712" rx="0.87322" fill="#DAE5F6"/>
<rect x="65.3555" y="105.969" width="42.1967" height="8.73203" rx="0.87322" fill="#DAE5F6"/>
<rect width="19.3401" height="8.73203" rx="0.87322" transform="matrix(-1 0 0 1 128.648 105.969)" fill="#D9D9D9"/>
<rect width="19.3401" height="8.73203" rx="0.87322" transform="matrix(-1 0 0 1 128.648 105.969)" fill="#DAE5F6"/>
<path d="M97.1804 75.8307H85.0532C83.9825 75.8307 83.1102 76.6795 83.1102 77.7346V79.2377C83.1102 79.5973 83.411 79.892 83.778 79.892H98.4557C98.8286 79.892 99.1234 79.5973 99.1234 79.2377V77.7346C99.1234 76.6795 98.2511 75.8307 97.1804 75.8307Z" fill="url(#paint1_linear_10759_63426)"/>
<path d="M111.866 74.657L98.9331 63.4003L96.406 65.8773L107.89 78.5535C108.969 79.753 110.852 79.8097 112.003 78.6812C113.155 77.5527 113.089 75.7074 111.866 74.657Z" fill="url(#paint2_linear_10759_63426)"/>
<path d="M86.5549 60.9814L93.9453 53.7374L100.85 60.5057L93.46 67.7496L86.5549 60.9814Z" fill="url(#paint3_linear_10759_63426)"/>
<path d="M101.507 60.1523C102.187 60.8188 103.287 60.8188 103.967 60.1523C104.647 59.4858 104.647 58.4072 103.967 57.7407L96.783 50.6987C96.443 50.3654 95.9957 50.1988 95.5528 50.2032C95.1099 50.1988 94.6626 50.3654 94.3226 50.6987C93.6426 51.3652 93.6426 52.4438 94.3226 53.1104L101.507 60.1523Z" fill="url(#paint4_linear_10759_63426)"/>
<path d="M90.6319 70.8118C91.3119 71.4782 92.4124 71.4782 93.0924 70.8118C93.7723 70.1452 93.7723 69.0666 93.0924 68.4001L85.9079 61.3582C85.5679 61.0249 85.1206 60.8583 84.6822 60.8583C84.2348 60.8583 83.7875 61.0249 83.4475 61.3582C82.7675 62.0246 82.7675 63.1033 83.4475 63.7698L90.6319 70.8118Z" fill="url(#paint5_linear_10759_63426)"/>
<g filter="url(#filter0_d_10759_63426)">
<path d="M34 103.086C34 101.976 34.5754 100.945 35.5204 100.362L56.3204 87.5358C57.3501 86.9008 58.6499 86.9008 59.6796 87.5358L80.4796 100.362C81.4246 100.945 82 101.976 82 103.086V127.035C82 128.188 81.3803 129.251 80.3776 129.819L59.5776 141.606C58.599 142.161 57.401 142.161 56.4224 141.606L35.6224 129.819C34.6197 129.251 34 128.188 34 127.035V103.086Z" fill="white"/>
<path d="M34 103.086C34 101.976 34.5754 100.945 35.5204 100.362L56.3204 87.5358C57.3501 86.9008 58.6499 86.9008 59.6796 87.5358L80.4796 100.362C81.4246 100.945 82 101.976 82 103.086V127.035C82 128.188 81.3803 129.251 80.3776 129.819L59.5776 141.606C58.599 142.161 57.401 142.161 56.4224 141.606L35.6224 129.819C34.6197 129.251 34 128.188 34 127.035V103.086Z" fill="url(#paint6_linear_10759_63426)"/>
</g>
<path d="M37.1992 104.978C37.1992 103.863 37.7804 102.827 38.733 102.246L56.333 91.5123C57.3562 90.8883 58.6423 90.8883 59.6654 91.5123L77.2654 102.246C78.218 102.827 78.7992 103.863 78.7992 104.978V124.964C78.7992 126.122 78.1737 127.189 77.1637 127.756L59.5637 137.619C58.5918 138.164 57.4066 138.164 56.4348 137.619L38.8348 127.756C37.8247 127.189 37.1992 126.122 37.1992 124.964V104.978Z" fill="url(#paint7_linear_10759_63426)"/>
<path fill-rule="evenodd" clip-rule="evenodd" d="M44.8178 116.745C45.3706 116.741 45.822 117.187 45.826 117.74C45.8419 119.934 46.5935 122.017 47.9363 123.86C48.2622 124.307 48.1643 124.934 47.7177 125.261C47.2712 125.587 46.6451 125.489 46.3192 125.042C44.7588 122.9 43.8436 120.416 43.8242 117.755C43.8202 117.201 44.2651 116.749 44.8178 116.745Z" fill="url(#paint8_linear_10759_63426)"/>
<path fill-rule="evenodd" clip-rule="evenodd" d="M70.8476 110.222C70.3612 108.347 68.9408 106.943 67.0346 106.469C66.4982 106.336 66.1713 105.792 66.3045 105.255C66.4378 104.718 66.9807 104.39 67.5172 104.524C70.1271 105.173 72.112 107.124 72.7851 109.718C72.9241 110.254 72.6031 110.801 72.0681 110.94C71.5331 111.079 70.9866 110.758 70.8476 110.222Z" fill="url(#paint9_linear_10759_63426)"/>
<path fill-rule="evenodd" clip-rule="evenodd" d="M62.3225 104.381C62.3184 103.813 61.744 103.141 60.77 103.139C59.7995 103.138 59.2487 103.801 59.2528 104.359L59.3014 111.06C59.3055 111.613 58.8606 112.065 58.3078 112.069C57.7551 112.073 57.3037 111.628 57.2997 111.074L57.2348 102.141C57.2307 101.573 56.6563 100.9 55.6823 100.898C54.7118 100.897 54.161 101.561 54.1651 102.119L54.238 112.169C54.2421 112.722 53.7972 113.174 53.2444 113.178C52.6917 113.183 52.2403 112.737 52.2363 112.183L52.2039 107.717C52.1997 107.149 51.6253 106.476 50.6513 106.475C49.6808 106.473 49.13 107.137 49.1341 107.695L49.2071 117.745C49.2381 122.013 53.2401 125.691 58.4156 125.698C63.5874 125.706 67.5223 122.048 67.4914 117.789L67.4427 111.089C67.4386 110.521 66.8642 109.848 65.8902 109.847C64.9197 109.845 64.3689 110.509 64.373 111.067L64.4054 115.534C64.4073 115.801 64.3025 116.058 64.1143 116.248C63.9261 116.437 63.67 116.544 63.4031 116.543C61.0321 116.54 59.3533 118.202 59.3663 119.993C59.3703 120.547 58.9255 120.999 58.3727 121.003C57.82 121.007 57.3686 120.561 57.3646 120.008C57.347 117.586 59.0251 115.647 61.2742 114.886C61.903 114.673 62.3933 114.121 62.3884 113.456L62.3225 104.381Z" fill="url(#paint10_linear_10759_63426)"/>
<defs>
<filter id="filter0_d_10759_63426" x="32.4" y="87.0586" width="54.4" height="61.3648" filterUnits="userSpaceOnUse" color-interpolation-filters="sRGB">
<feFlood flood-opacity="0" result="BackgroundImageFix"/>
<feColorMatrix in="SourceAlpha" type="matrix" values="0 0 0 0 0 0 0 0 0 0 0 0 0 0 0 0 0 0 127 0" result="hardAlpha"/>
<feOffset dx="1.6" dy="3.2"/>
<feGaussianBlur stdDeviation="1.6"/>
<feComposite in2="hardAlpha" operator="out"/>
<feColorMatrix type="matrix" values="0 0 0 0 0.454167 0 0 0 0 0 0 0 0 0 0 0 0 0 0.07 0"/>
<feBlend mode="normal" in2="BackgroundImageFix" result="effect1_dropShadow_10759_63426"/>
<feBlend mode="normal" in="SourceGraphic" in2="effect1_dropShadow_10759_63426" result="shape"/>
</filter>
<linearGradient id="paint0_linear_10759_63426" x1="58.3203" y1="40.7857" x2="141.535" y2="114.026" gradientUnits="userSpaceOnUse">
<stop stop-color="white"/>
<stop offset="1" stop-color="#E2F1FA"/>
</linearGradient>
<linearGradient id="paint1_linear_10759_63426" x1="85.2416" y1="29.8862" x2="89.7206" y2="105.539" gradientUnits="userSpaceOnUse">
<stop stop-color="#FF4B4B"/>
<stop offset="1" stop-color="#FFB6B6"/>
</linearGradient>
<linearGradient id="paint2_linear_10759_63426" x1="85.2416" y1="29.8862" x2="89.7206" y2="105.539" gradientUnits="userSpaceOnUse">
<stop stop-color="#FF4B4B"/>
<stop offset="1" stop-color="#FFB6B6"/>
</linearGradient>
<linearGradient id="paint3_linear_10759_63426" x1="85.2416" y1="29.8862" x2="89.7206" y2="105.539" gradientUnits="userSpaceOnUse">
<stop stop-color="#FF4B4B"/>
<stop offset="1" stop-color="#FFB6B6"/>
</linearGradient>
<linearGradient id="paint4_linear_10759_63426" x1="85.2416" y1="29.8862" x2="89.7206" y2="105.539" gradientUnits="userSpaceOnUse">
<stop stop-color="#FF4B4B"/>
<stop offset="1" stop-color="#FFB6B6"/>
</linearGradient>
<linearGradient id="paint5_linear_10759_63426" x1="85.2416" y1="29.8862" x2="89.7206" y2="105.539" gradientUnits="userSpaceOnUse">
<stop stop-color="#FF4B4B"/>
<stop offset="1" stop-color="#FFB6B6"/>
</linearGradient>
<linearGradient id="paint6_linear_10759_63426" x1="37.7003" y1="48.1777" x2="47.6101" y2="190.687" gradientUnits="userSpaceOnUse">
<stop stop-color="#FF4B4B"/>
<stop offset="1" stop-color="#FFB6B6"/>
</linearGradient>
<linearGradient id="paint7_linear_10759_63426" x1="37.1992" y1="97.3532" x2="80.3297" y2="136.824" gradientUnits="userSpaceOnUse">
<stop stop-color="white"/>
<stop offset="1" stop-color="#E2F1FA"/>
</linearGradient>
<linearGradient id="paint8_linear_10759_63426" x1="46.0593" y1="83.9272" x2="49.2841" y2="147.179" gradientUnits="userSpaceOnUse">
<stop stop-color="#FF4B4B"/>
<stop offset="1" stop-color="#FFB6B6"/>
</linearGradient>
<linearGradient id="paint9_linear_10759_63426" x1="46.0593" y1="83.9272" x2="49.2841" y2="147.179" gradientUnits="userSpaceOnUse">
<stop stop-color="#FF4B4B"/>
<stop offset="1" stop-color="#FFB6B6"/>
</linearGradient>
<linearGradient id="paint10_linear_10759_63426" x1="46.0593" y1="83.9272" x2="49.2841" y2="147.179" gradientUnits="userSpaceOnUse">
<stop stop-color="#FF4B4B"/>
<stop offset="1" stop-color="#FFB6B6"/>
</linearGradient>
</defs>
</svg>
