<svg width="156" height="142" viewBox="0 0 156 142" fill="none" xmlns="http://www.w3.org/2000/svg">
<path d="M42.9707 29.0346C42.9707 24.2812 46.7376 20.4277 51.3843 20.4277H113.434V60.2347C109.369 60.2348 106.073 63.6065 106.073 67.7657C106.073 71.9249 109.369 75.2966 113.434 75.2967V114.028H42.9707L42.9707 74.2208C47.0366 74.2208 50.3326 70.8491 50.3326 66.6898C50.3326 62.5305 47.0366 59.1588 42.9707 59.1588C42.9707 59.1588 42.9707 59.1588 42.9707 59.1588L42.9707 29.0346Z" fill="url(#paint0_linear_15354_11689)"/>
<rect x="57.7002" y="86.0547" width="39.9644" height="10.7586" fill="#D4E5F5"/>
<rect x="57.7002" y="86.0547" width="39.9644" height="10.7586" fill="url(#paint1_linear_15354_11689)"/>
<rect x="57.7002" y="77.4492" width="39.9644" height="4.30345" fill="#E1EDF8"/>
<rect x="57.7002" y="77.4492" width="21.0339" height="4.30345" fill="#D4E5F5"/>
<rect x="57.7002" y="77.4492" width="21.0339" height="4.30345" fill="url(#paint2_linear_15354_11689)"/>
<path d="M79.6543 40.8755C79.6489 44.1028 77.0855 46.6875 73.9004 46.6792C70.7507 46.6709 68.2146 44.0474 68.2119 40.8145C68.2119 37.9473 70.4426 35.0745 73.854 35.0413C77.3473 35.0081 79.6789 37.867 79.6543 40.8755ZM73.944 44.1915V44.197C73.9931 44.197 74.0422 44.197 74.0913 44.197C74.3585 44.186 74.4267 44.1195 74.4431 43.8563C74.4512 43.7399 74.454 43.6208 74.454 43.5045C74.454 43.3798 74.5031 43.3244 74.6312 43.2995C75.0457 43.2219 75.4275 43.0668 75.7111 42.726C76.0956 42.2662 76.082 41.6484 75.6457 41.2384C75.4466 41.0528 75.2121 40.8949 74.9694 40.773C74.5767 40.5763 74.1622 40.4267 73.764 40.2411C73.5268 40.1303 73.295 40.0056 73.0796 39.856C72.9241 39.748 72.9269 39.5818 73.0823 39.4682C73.2077 39.3795 73.3605 39.2937 73.5077 39.277C74.0149 39.2133 74.514 39.2438 74.9857 39.4931C75.073 39.5402 75.223 39.5181 75.3211 39.4765C75.422 39.4349 75.5011 39.3324 75.5829 39.2493C75.7438 39.0804 75.752 38.9751 75.5584 38.8615C75.2666 38.6897 74.9557 38.5457 74.6394 38.4293C74.5031 38.3795 74.4485 38.3324 74.4512 38.1939C74.4512 38.0581 74.4512 37.9196 74.4322 37.7866C74.4212 37.7146 74.3803 37.6093 74.3258 37.5872C74.0886 37.4874 73.8322 37.4819 73.5922 37.5733C73.4123 37.6426 73.4641 37.8476 73.4259 37.9972C73.4177 38.0332 73.4123 38.072 73.415 38.108C73.445 38.3241 73.3386 38.4072 73.1396 38.4515C72.7687 38.5318 72.4387 38.7091 72.196 39.0139C71.9588 39.3131 71.8633 39.6483 72.0024 40.0195C72.1442 40.4018 72.4387 40.6428 72.7905 40.8035C73.1287 40.9586 73.4777 41.0888 73.8159 41.2439C74.1376 41.3908 74.4649 41.532 74.7676 41.7149C75.0403 41.8783 75.0103 42.1775 74.7294 42.3299C74.6667 42.3631 74.5958 42.3908 74.5249 42.4074C73.9058 42.5432 73.2977 42.521 72.7251 42.2246C72.496 42.1055 72.3269 42.1193 72.1633 42.3105C72.1442 42.3326 72.1169 42.352 72.0951 42.3742C71.8143 42.6429 71.8197 42.726 72.1579 42.931C72.4742 43.1249 72.8096 43.2718 73.1805 43.3078C73.3523 43.3244 73.4286 43.3881 73.415 43.571C73.4068 43.6928 73.4368 43.8175 73.4532 43.9394C73.475 44.0973 73.5677 44.1804 73.7231 44.1915C73.7968 44.197 73.8704 44.1915 73.9413 44.1915H73.944Z" fill="url(#paint3_linear_15354_11689)"/>
<path d="M84.2145 36.3021C84.4981 36.3603 84.7572 36.4046 85.0081 36.4656C86.377 36.7897 87.4869 37.4878 88.1741 38.7732C88.774 39.8979 88.8286 41.0864 88.5177 42.3081C88.2995 43.1751 87.8687 43.9342 87.3615 44.6545C87.3287 44.7016 87.2851 44.7459 87.2469 44.7902L87.1924 44.7736C87.2306 44.5686 87.2687 44.3636 87.3042 44.1558C87.4433 43.2998 87.4814 42.4355 87.3069 41.5878C87.1297 40.7124 86.6334 40.017 85.9107 39.5018C85.2044 39.0004 84.4027 38.7621 83.5382 38.6208C83.5382 38.9366 83.5382 39.2386 83.5382 39.5406C83.5382 39.6957 83.5246 39.8481 83.3719 39.9478C83.2519 40.0281 83.1646 40.0337 83.0528 39.9256C82.4311 39.3051 81.7984 38.6929 81.1794 38.0695C80.7295 37.6152 80.2904 37.1498 79.8514 36.6844C79.625 36.4434 79.6686 36.2606 79.9877 36.1553C80.364 36.0306 80.7458 35.9254 81.1303 35.8284C82.1529 35.5708 83.1783 35.327 84.2036 35.0721C84.3563 35.0333 84.4463 35.1026 84.539 35.1995C84.6345 35.2965 84.6181 35.399 84.569 35.507C84.4545 35.7647 84.34 36.0223 84.2145 36.3049V36.3021Z" fill="url(#paint4_linear_15354_11689)"/>
<path d="M73.5558 55.4529C73.3704 55.4141 73.2204 55.3808 73.0677 55.3531C71.9987 55.1454 71.0115 54.7575 70.248 53.932C69.2335 52.8322 68.8845 51.5135 69.1054 50.0342C69.2744 48.8984 69.7653 47.9039 70.458 47.0063C70.4825 46.9758 70.5152 46.9509 70.5861 46.8872C70.5261 47.1725 70.4743 47.4052 70.4307 47.6407C70.2534 48.6297 70.2234 49.6131 70.5616 50.5744C70.9706 51.7324 71.8405 52.4 72.9341 52.8073C73.2749 52.9347 73.6403 52.9929 73.9921 53.0898C74.1585 53.1342 74.1939 53.0621 74.1939 52.9125C74.1939 52.6327 74.1939 52.3529 74.2157 52.0759C74.2239 51.9845 74.2921 51.8875 74.3575 51.8155C74.4612 51.7047 74.5675 51.7075 74.6848 51.8266C75.7456 52.9042 76.8145 53.9735 77.8753 55.0539C78.118 55.3005 78.0635 55.5027 77.7281 55.6025C77.09 55.7908 76.4491 55.9626 75.8056 56.126C75.102 56.3061 74.3957 56.4668 73.6894 56.633C73.624 56.6496 73.5558 56.6552 73.4904 56.6579C73.1986 56.6718 73.0759 56.4973 73.1958 56.2175C73.2995 55.9737 73.4195 55.7382 73.5558 55.4473V55.4529Z" fill="url(#paint5_linear_15354_11689)"/>
<path d="M83.7483 45.0547C80.4187 45.0741 78.0653 47.8776 78.0762 50.8335C78.0516 54.0166 80.5959 56.6539 83.7101 56.6926C86.8843 56.7314 89.4777 54.1662 89.5158 50.9803C89.554 47.6893 87.007 45.0354 83.7456 45.0547H83.7483Z" fill="url(#paint6_linear_15354_11689)"/>
<path d="M121.853 20.4277H113.439V30.1105H121.853V20.4277Z" fill="#E8F4FA"/>
<path d="M35.083 114.029H42.9707V107.574H35.083V114.029Z" fill="#E8F4FB"/>
<path d="M130.267 30.1105C130.267 28.8389 130.049 27.5798 129.626 26.4051C129.203 25.2303 128.584 24.1629 127.802 23.2637C127.021 22.3646 126.094 21.6514 125.073 21.1648C124.052 20.6782 122.958 20.4277 121.853 20.4277C120.748 20.4277 119.654 20.6782 118.633 21.1648C117.613 21.6514 116.685 22.3646 115.904 23.2637C115.122 24.1629 114.503 25.2303 114.08 26.4051C113.657 27.5798 113.439 28.8389 113.439 30.1105L130.267 30.1105Z" fill="#E1EDF8"/>
<path d="M28.7728 107.574C28.7728 108.422 28.9564 109.261 29.3132 110.044C29.6699 110.828 30.1929 111.539 30.852 112.139C31.5112 112.738 32.2938 113.214 33.1551 113.538C34.0164 113.862 34.9395 114.029 35.8718 114.029C36.804 114.029 37.7271 113.862 38.5884 113.538C39.4497 113.214 40.2323 112.738 40.8915 112.139C41.5507 111.539 42.0736 110.828 42.4303 110.044C42.7871 109.261 42.9707 108.422 42.9707 107.574L28.7728 107.574Z" fill="#E1EDF8"/>
<g filter="url(#filter0_d_15354_11689)">
<rect x="21.9375" y="4.29102" width="30.4992" height="31.2004" rx="15.2496" fill="url(#paint7_linear_15354_11689)"/>
</g>
<ellipse cx="37.0513" cy="19.8901" rx="13.2193" ry="13.5229" fill="white"/>
<path d="M40.2147 19.4498C42.1244 19.4498 43.6726 17.8661 43.6726 15.9124C43.6726 13.9587 42.1244 12.375 40.2147 12.375C38.3049 12.375 36.7567 13.9587 36.7567 15.9124C36.7567 16.4783 36.8866 17.0131 37.1175 17.4874C37.1789 17.6135 37.1993 17.7575 37.1637 17.8936L36.9578 18.681C36.8684 19.0228 37.1741 19.3356 37.5082 19.2441L38.278 19.0334C38.411 18.997 38.5518 19.0179 38.675 19.0807C39.1387 19.3169 39.6615 19.4498 40.2147 19.4498Z" fill="url(#paint8_linear_15354_11689)"/>
<path d="M34.0163 16.1361L34.4652 16.9588C34.8703 17.7013 34.7077 18.6753 34.0697 19.328C34.0697 19.328 34.0697 19.328 34.0697 19.328C34.0696 19.3281 33.2959 20.1197 34.6989 21.5549C36.1014 22.9897 36.8752 22.1991 36.8758 22.1986C36.8758 22.1986 36.8758 22.1986 36.8758 22.1986C37.5138 21.546 38.4659 21.3796 39.1917 21.794L39.996 22.2531C41.092 22.8788 41.2214 24.4512 40.2581 25.4366C39.6792 26.0288 38.9701 26.4896 38.1862 26.52C36.8665 26.5712 34.6254 26.2295 32.3774 23.9298C30.1293 21.6301 29.7953 19.3375 29.8454 17.9875C29.8751 17.1856 30.3255 16.4602 30.9043 15.868C31.8677 14.8825 33.4047 15.0149 34.0163 16.1361Z" fill="url(#paint9_linear_15354_11689)"/>
<path d="M51.9111 68.3047H105.548" stroke="#090B0E" stroke-width="1.07586" stroke-dasharray="4.3 4.3"/>
<path d="M37.1457 39.7949C37.1457 39.5257 36.9274 39.3074 36.6582 39.3074C36.389 39.3074 36.1707 39.5257 36.1707 39.7949H37.1457ZM44.0201 67.7673L39.1451 64.9528V70.5819L44.0201 67.7673ZM36.1707 39.7949V64.7674H37.1457V39.7949H36.1707ZM36.1707 64.7674C36.1707 66.6934 37.7321 68.2548 39.6582 68.2548V67.2798C38.2706 67.2798 37.1457 66.155 37.1457 64.7674H36.1707Z" fill="#D3D7F0"/>
<path d="M125.743 35.9264C125.812 35.8051 125.974 35.7815 126.073 35.8782L133.656 43.2368C133.79 43.3669 133.81 43.578 133.703 43.732L133.527 43.9858C132.418 45.5799 131.219 47.1029 129.937 48.5475C129.916 48.5242 129.895 48.5015 129.872 48.4796C129.397 48.0189 128.648 48.0392 128.197 48.5247C127.747 49.0103 127.767 49.7774 128.241 50.238C128.262 50.2584 128.284 50.2778 128.306 50.2963C126.949 51.6817 125.51 52.9846 123.998 54.1975C123.859 54.3086 123.662 54.2991 123.534 54.1751L115.944 46.8099C115.842 46.7108 115.857 46.5402 115.974 46.4603L116.151 46.3392C117.741 45.2555 119.224 44.0276 120.584 42.6734C120.595 42.6846 120.606 42.6956 120.617 42.7065C121.091 43.1672 121.841 43.1469 122.291 42.6614C122.742 42.1758 122.722 41.4087 122.247 40.9481C122.237 40.9382 122.227 40.9286 122.217 40.9192C123.543 39.3806 124.725 37.7093 125.743 35.9264Z" fill="url(#paint10_linear_15354_11689)"/>
<path d="M127.875 41.8309C127.524 42.2081 126.943 42.2195 126.571 41.8566C126.203 41.4978 126.191 40.9025 126.542 40.5236C126.853 40.1879 127.426 40.105 127.83 40.4888C128.242 40.8818 128.205 41.4814 127.875 41.8309ZM126.847 41.5703L126.846 41.571C126.852 41.5766 126.857 41.5821 126.863 41.5877C126.896 41.6168 126.911 41.6167 126.941 41.5878C126.955 41.5751 126.968 41.5615 126.981 41.5478C126.994 41.5332 127.006 41.5323 127.024 41.544C127.081 41.582 127.142 41.6072 127.213 41.5995C127.308 41.5894 127.373 41.5155 127.366 41.4179C127.363 41.3736 127.353 41.3284 127.338 41.2866C127.313 41.2189 127.281 41.1543 127.254 41.0873C127.239 41.0474 127.225 41.0065 127.216 40.9645C127.21 40.9342 127.228 40.915 127.259 40.9194C127.283 40.9233 127.31 40.9306 127.329 40.9453C127.395 40.9955 127.45 41.0558 127.479 41.1386C127.484 41.154 127.504 41.1685 127.52 41.1747C127.536 41.1813 127.556 41.1783 127.575 41.1779C127.612 41.1764 127.625 41.165 127.614 41.1297C127.599 41.0764 127.578 41.0242 127.554 40.9747C127.543 40.9534 127.542 40.9416 127.557 40.9257C127.572 40.9098 127.587 40.8936 127.599 40.8759C127.606 40.8662 127.612 40.8492 127.608 40.8404C127.591 40.8018 127.562 40.772 127.524 40.7555C127.495 40.7431 127.479 40.773 127.458 40.7862C127.454 40.7895 127.449 40.7934 127.445 40.7979C127.425 40.8266 127.404 40.8243 127.376 40.8069C127.323 40.7741 127.266 40.7574 127.204 40.7655C127.144 40.7736 127.096 40.802 127.072 40.8612C127.047 40.9221 127.056 40.9838 127.079 41.0426C127.102 41.0992 127.129 41.1541 127.152 41.2107C127.173 41.2644 127.196 41.3181 127.212 41.3739C127.226 41.424 127.19 41.4557 127.141 41.4416C127.13 41.4384 127.118 41.4335 127.108 41.4274C127.021 41.373 126.952 41.3013 126.917 41.2015C126.904 41.1616 126.882 41.144 126.842 41.1478C126.838 41.1482 126.832 41.1474 126.827 41.1475C126.765 41.147 126.757 41.1574 126.774 41.2198C126.79 41.2784 126.814 41.3337 126.853 41.3801C126.871 41.4016 126.873 41.4177 126.852 41.4376C126.838 41.4509 126.828 41.4689 126.816 41.485C126.802 41.506 126.804 41.5263 126.821 41.5452C126.829 41.5542 126.838 41.562 126.846 41.57L126.847 41.5703Z" fill="url(#paint11_linear_15354_11689)" fill-opacity="0.8"/>
<path d="M128.906 41.8136C128.933 41.8526 128.958 41.8872 128.981 41.9229C129.106 42.1164 129.16 42.3242 129.101 42.5528C129.049 42.7526 128.926 42.898 128.757 43.0057C128.638 43.0824 128.505 43.1224 128.367 43.1491C128.358 43.1509 128.348 43.1511 128.339 43.1519L128.335 43.1438C128.361 43.1241 128.388 43.1045 128.415 43.0842C128.524 42.9997 128.622 42.9029 128.694 42.7838C128.768 42.6612 128.786 42.5234 128.757 42.3809C128.729 42.242 128.661 42.123 128.575 42.0082C128.54 42.0452 128.508 42.0805 128.475 42.1159C128.458 42.1341 128.44 42.1504 128.411 42.1447C128.388 42.1404 128.378 42.1312 128.376 42.1058C128.371 41.9625 128.363 41.819 128.358 41.6756C128.355 41.5713 128.354 41.467 128.353 41.3626C128.353 41.3086 128.378 41.2922 128.427 41.3161C128.484 41.3443 128.54 41.3753 128.596 41.4077C128.744 41.4937 128.89 41.5817 129.038 41.6683C129.06 41.6811 129.063 41.6995 129.063 41.7213C129.064 41.7435 129.051 41.7537 129.033 41.7608C128.992 41.7779 128.951 41.7951 128.905 41.8139L128.906 41.8136Z" fill="url(#paint12_linear_15354_11689)" fill-opacity="0.8"/>
<path d="M125.578 42.8447C125.561 42.8191 125.547 42.7982 125.532 42.7776C125.429 42.6318 125.356 42.4742 125.356 42.2908C125.357 42.0468 125.459 41.8527 125.646 41.7046C125.789 41.5909 125.954 41.5302 126.133 41.5038C126.139 41.503 126.146 41.5038 126.161 41.5044C126.123 41.531 126.091 41.5524 126.061 41.575C125.933 41.6706 125.822 41.7824 125.758 41.9333C125.68 42.1154 125.709 42.2924 125.793 42.4643C125.819 42.518 125.855 42.5663 125.886 42.6176C125.901 42.6417 125.913 42.6373 125.929 42.6198C125.959 42.5871 125.99 42.5543 126.022 42.5243C126.033 42.5146 126.052 42.511 126.067 42.51C126.091 42.5088 126.104 42.5212 126.104 42.5484C126.112 42.7951 126.121 43.0418 126.127 43.2888C126.129 43.3453 126.101 43.3628 126.051 43.3363C125.955 43.2859 125.862 43.2332 125.769 43.1792C125.667 43.1203 125.567 43.0589 125.466 42.9981C125.456 42.9926 125.448 42.9855 125.44 42.9784C125.404 42.9469 125.409 42.9125 125.453 42.8934C125.492 42.8766 125.531 42.8627 125.579 42.8441L125.578 42.8447Z" fill="url(#paint13_linear_15354_11689)" fill-opacity="0.8"/>
<path d="M127.901 42.7854C127.509 42.4093 126.929 42.4702 126.609 42.8175C126.261 43.1874 126.272 43.7853 126.633 44.1437C127 44.5089 127.582 44.5032 127.933 44.1345C128.294 43.7535 128.284 43.1534 127.9 42.7851L127.901 42.7854Z" fill="url(#paint14_linear_15354_11689)" fill-opacity="0.8"/>
<rect width="6.25654" height="1.64843" transform="matrix(0.717634 0.696421 -0.679963 0.733246 120.789 45.1895)" fill="url(#paint15_linear_15354_11689)" fill-opacity="0.4"/>
<rect width="6.25654" height="0.659372" transform="matrix(0.717634 0.696421 -0.679963 0.733246 121.685 44.2227)" fill="#E1EDF8"/>
<rect width="3.29292" height="0.659372" transform="matrix(0.717634 0.696421 -0.679963 0.733246 121.685 44.2227)" fill="url(#paint16_linear_15354_11689)" fill-opacity="0.4"/>
<path d="M121.617 42.1719L127.879 48.2486" stroke="#090B0E" stroke-width="0.173127" stroke-dasharray="0.69 0.69"/>
<path d="M134.549 50.1855C134.705 50.0271 134.964 50.0584 135.079 50.2494L143.847 64.7883C144.001 65.0453 143.948 65.3797 143.721 65.5727L143.347 65.8909C140.996 67.8898 138.534 69.741 135.974 71.4359C135.951 71.3906 135.927 71.3459 135.9 71.3018C135.351 70.3917 134.185 70.109 133.296 70.6705C132.406 71.2319 132.13 72.4248 132.678 73.335C132.703 73.3758 132.729 73.4154 132.756 73.4537C130.107 75.0244 127.366 76.4338 124.546 77.6731C124.287 77.7867 123.986 77.6894 123.838 77.4444L115.063 62.8925C114.945 62.6966 115.035 62.4392 115.248 62.3648L115.571 62.2521C118.46 61.2434 121.242 59.9674 123.885 58.4449C123.898 58.4675 123.911 58.4901 123.924 58.5124C124.473 59.4225 125.639 59.7052 126.529 59.1437C127.418 58.5823 127.695 57.3894 127.146 56.4792C127.134 56.4589 127.121 56.4388 127.108 56.4191C129.772 54.5984 132.265 52.5124 134.549 50.1855Z" fill="url(#paint17_linear_15354_11689)"/>
<path d="M135.475 60.1984C134.782 60.6341 133.881 60.4085 133.451 59.6924C133.027 58.9842 133.246 58.0597 133.939 57.6214C134.554 57.2333 135.473 57.3452 135.941 58.1065C136.422 58.8862 136.124 59.7966 135.475 60.1984ZM133.991 59.3654L133.99 59.3662C133.996 59.3772 134.003 59.3882 134.01 59.3992C134.048 59.4577 134.072 59.464 134.13 59.4321C134.156 59.4181 134.182 59.4026 134.207 59.3869C134.234 59.37 134.252 59.3735 134.275 59.3989C134.348 59.4815 134.433 59.5462 134.544 59.5637C134.695 59.5878 134.826 59.5011 134.855 59.3476C134.867 59.2778 134.87 59.2038 134.863 59.1328C134.852 59.018 134.828 58.9047 134.814 58.7902C134.805 58.722 134.801 58.653 134.804 58.5844C134.806 58.5349 134.842 58.513 134.887 58.5325C134.923 58.5487 134.962 58.5714 134.986 58.6022C135.068 58.7074 135.129 58.8236 135.14 58.9632C135.141 58.9892 135.166 59.0199 135.189 59.0363C135.211 59.0533 135.244 59.0572 135.273 59.0643C135.331 59.0775 135.355 59.0651 135.353 59.0063C135.35 58.9175 135.339 58.8282 135.321 58.7415C135.313 58.7041 135.316 58.6855 135.346 58.6673C135.375 58.649 135.405 58.6302 135.431 58.6079C135.445 58.5957 135.462 58.5723 135.459 58.5571C135.448 58.4903 135.415 58.432 135.363 58.3905C135.324 58.3595 135.287 58.3989 135.249 58.4105C135.241 58.4136 135.232 58.4176 135.224 58.4231C135.182 58.4591 135.15 58.4464 135.113 58.4078C135.046 58.3354 134.963 58.2853 134.865 58.2721C134.769 58.2593 134.684 58.2833 134.623 58.3647C134.56 58.4483 134.548 58.5471 134.561 58.6478C134.574 58.7447 134.593 58.8407 134.606 58.9376C134.618 59.0297 134.632 59.1223 134.634 59.215C134.635 59.2984 134.567 59.3321 134.496 59.2897C134.481 59.2801 134.465 59.268 134.452 59.2543C134.339 59.1337 134.262 58.9942 134.248 58.8255C134.242 58.7579 134.216 58.7219 134.153 58.711C134.146 58.7097 134.138 58.7062 134.13 58.7043C134.035 58.6777 134.018 58.6901 134.019 58.7938C134.021 58.8911 134.034 58.9862 134.077 59.0744C134.097 59.1152 134.093 59.141 134.052 59.1626C134.025 59.1773 134.002 59.2009 133.978 59.2211C133.947 59.2474 133.942 59.2794 133.961 59.3158C133.97 59.3331 133.981 59.3489 133.99 59.3648L133.991 59.3654Z" fill="url(#paint18_linear_15354_11689)" fill-opacity="0.8"/>
<path d="M137.074 60.603C137.099 60.6746 137.125 60.7387 137.146 60.8033C137.262 61.1545 137.262 61.4982 137.08 61.8264C136.919 62.1134 136.672 62.2865 136.368 62.3821C136.152 62.4505 135.931 62.4566 135.708 62.4402C135.693 62.4392 135.678 62.4354 135.663 62.4329L135.659 62.4184C135.709 62.3992 135.758 62.38 135.807 62.3598C136.01 62.2752 136.2 62.1667 136.358 62.0128C136.522 61.8545 136.604 61.6489 136.617 61.417C136.629 61.1905 136.571 60.9783 136.485 60.7651C136.417 60.8079 136.352 60.8487 136.287 60.8896C136.254 60.9106 136.219 60.9282 136.177 60.9074C136.144 60.8913 136.131 60.8725 136.139 60.8328C136.188 60.6092 136.234 60.3843 136.284 60.1609C136.32 59.9984 136.36 59.8368 136.401 59.6753C136.422 59.5918 136.467 59.5769 136.533 59.6343C136.611 59.7019 136.685 59.7733 136.758 59.8465C136.951 60.0412 137.142 60.2384 137.336 60.4341C137.365 60.4631 137.362 60.4927 137.354 60.5266C137.346 60.5612 137.322 60.5714 137.292 60.575C137.221 60.5841 137.151 60.5933 137.073 60.6034L137.074 60.603Z" fill="url(#paint19_linear_15354_11689)" fill-opacity="0.8"/>
<path d="M131.522 60.8028C131.506 60.7559 131.492 60.7177 131.478 60.6797C131.378 60.4116 131.327 60.1375 131.401 59.8543C131.499 59.4777 131.735 59.2208 132.082 59.0701C132.349 58.9543 132.629 58.9299 132.915 58.9639C132.925 58.9653 132.935 58.9692 132.958 58.9765C132.889 59.0017 132.832 59.0216 132.775 59.0436C132.539 59.1377 132.324 59.2641 132.164 59.4702C131.971 59.7188 131.945 60.0044 132.006 60.305C132.025 60.3988 132.062 60.4887 132.088 60.5808C132.101 60.6242 132.122 60.6224 132.154 60.6021C132.214 60.5643 132.274 60.5264 132.336 60.4938C132.357 60.4832 132.387 60.4854 132.411 60.4904C132.449 60.4986 132.463 60.5229 132.453 60.5653C132.366 60.9493 132.281 61.3341 132.193 61.7185C132.173 61.8063 132.122 61.8215 132.055 61.7597C131.928 61.6419 131.805 61.5213 131.683 61.399C131.549 61.2654 131.419 61.1286 131.287 60.9925C131.275 60.9801 131.265 60.9655 131.255 60.9512C131.213 60.8876 131.233 60.8364 131.31 60.8255C131.376 60.8157 131.443 60.8108 131.524 60.802L131.522 60.8028Z" fill="url(#paint20_linear_15354_11689)" fill-opacity="0.8"/>
<path d="M135.133 61.6833C134.678 60.9384 133.758 60.7896 133.125 61.1922C132.439 61.6176 132.218 62.5458 132.631 63.2502C133.053 63.968 133.954 64.2029 134.642 63.7802C135.354 63.3432 135.578 62.4122 135.132 61.6826L135.133 61.6833Z" fill="url(#paint21_linear_15354_11689)" fill-opacity="0.8"/>
<rect width="10.0529" height="2.61868" transform="matrix(0.516404 0.856345 -0.845685 0.533682 123.189 62.4238)" fill="url(#paint22_linear_15354_11689)" fill-opacity="0.4"/>
<rect width="10.0529" height="1.04747" transform="matrix(0.516404 0.856345 -0.845685 0.533682 124.961 61.3008)" fill="#E1EDF8"/>
<rect width="5.29102" height="1.04747" transform="matrix(0.516404 0.856345 -0.845685 0.533682 124.961 61.3008)" fill="url(#paint23_linear_15354_11689)" fill-opacity="0.4"/>
<path d="M125.675 58.1035L132.915 70.1097" stroke="#090B0E" stroke-width="0.276606" stroke-dasharray="1.11 1.11"/>
<path d="M27.6055 68.472C27.4933 68.2754 27.2312 68.2372 27.0697 68.3939L14.784 80.3164C14.5669 80.5271 14.5345 80.8692 14.7079 81.1187L14.9939 81.5299C16.7895 84.1122 18.7316 86.5794 20.8089 88.9195C20.8415 88.8828 20.8756 88.847 20.9113 88.8123C21.6804 88.066 22.8953 88.0988 23.6249 88.8855C24.3544 89.6722 24.3224 90.915 23.5533 91.6614C23.5202 91.6935 23.4863 91.7242 23.4517 91.7534C25.6506 93.9983 27.9814 96.1097 30.4327 98.075C30.6573 98.2551 30.9771 98.2397 31.1841 98.0387L43.4808 86.1056C43.6463 85.9449 43.6232 85.6686 43.4333 85.5391L43.1455 85.3428C40.5707 83.5871 38.168 81.5977 35.964 79.4037C35.9467 79.4218 35.929 79.4396 35.9109 79.4572C35.1419 80.2036 33.927 80.1708 33.1974 79.3841C32.4678 78.5973 32.4999 77.3545 33.2689 76.6082C33.2853 76.5923 33.3019 76.5767 33.3187 76.5615C31.1694 74.0686 29.2544 71.3606 27.6055 68.472Z" fill="url(#paint24_linear_15354_11689)"/>
<path d="M24.1546 78.0394C24.7233 78.6507 25.6643 78.6691 26.2671 78.0812C26.8631 77.4997 26.8827 76.5352 26.3145 75.9214C25.8101 75.3775 24.8816 75.2432 24.2286 75.8649C23.56 76.5017 23.6207 77.4732 24.1546 78.0394ZM25.8212 77.6173L25.8221 77.6183C25.8128 77.6274 25.8035 77.6364 25.7942 77.6454C25.7416 77.6925 25.7169 77.6925 25.6675 77.6456C25.6455 77.625 25.624 77.6029 25.6036 77.5808C25.5816 77.5572 25.5626 77.5557 25.5339 77.5746C25.4416 77.6362 25.3419 77.677 25.2281 77.6646C25.0743 77.6481 24.9682 77.5284 24.9789 77.3703C24.984 77.2985 25.0007 77.2253 25.0253 77.1575C25.0652 77.0479 25.1175 76.9432 25.1604 76.8347C25.1859 76.77 25.2079 76.7037 25.2225 76.6357C25.2329 76.5866 25.2032 76.5555 25.1537 76.5626C25.1143 76.5689 25.0703 76.5807 25.0394 76.6047C24.932 76.686 24.8427 76.7836 24.797 76.9178C24.7888 76.9428 24.7564 76.9662 24.7305 76.9763C24.704 76.987 24.671 76.9822 24.6408 76.9815C24.5806 76.979 24.5605 76.9605 24.5773 76.9034C24.6024 76.8171 24.636 76.7325 24.6756 76.6522C24.6927 76.6176 24.6947 76.5987 24.6699 76.5729C24.646 76.5471 24.6216 76.5209 24.6018 76.4921C24.5912 76.4765 24.5805 76.449 24.5869 76.4347C24.6144 76.3721 24.662 76.3239 24.7236 76.297C24.77 76.277 24.7962 76.3255 24.8298 76.3468C24.8377 76.3521 24.8455 76.3585 24.8513 76.3658C24.8837 76.4123 24.9184 76.4085 24.964 76.3803C25.0485 76.3273 25.1423 76.3001 25.2419 76.3133C25.3396 76.3264 25.4166 76.3724 25.4556 76.4684C25.4959 76.567 25.4824 76.667 25.444 76.7622C25.4071 76.8539 25.3638 76.9428 25.3269 77.0345C25.2917 77.1216 25.2545 77.2087 25.2293 77.2991C25.2063 77.3803 25.2646 77.4315 25.3447 77.4087C25.3624 77.4035 25.3808 77.3957 25.3971 77.3858C25.5384 77.2976 25.6499 77.1814 25.7064 77.0197C25.7289 76.955 25.7634 76.9265 25.8281 76.9326C25.8356 76.9333 25.8442 76.932 25.8522 76.9322C25.9528 76.9314 25.9663 76.9482 25.9383 77.0493C25.9124 77.1444 25.8746 77.234 25.8105 77.3091C25.7809 77.3438 25.7776 77.37 25.8124 77.4022C25.8353 77.4238 25.8516 77.4529 25.8699 77.4791C25.8936 77.5131 25.8906 77.5459 25.8631 77.5766C25.8501 77.5912 25.8351 77.6037 25.8217 77.6168L25.8212 77.6173Z" fill="url(#paint25_linear_15354_11689)" fill-opacity="0.8"/>
<path d="M22.485 78.0114C22.4414 78.0746 22.4001 78.1307 22.3632 78.1885C22.1605 78.502 22.0728 78.8387 22.1685 79.2091C22.2526 79.5329 22.4513 79.7684 22.7252 79.9429C22.9191 80.0672 23.1344 80.1319 23.3573 80.1752C23.3718 80.1781 23.3879 80.1784 23.4029 80.1798L23.4103 80.1666C23.367 80.1348 23.3237 80.1029 23.2804 80.07C23.1035 79.9332 22.9442 79.7763 22.8282 79.5834C22.7078 79.3847 22.6796 79.1614 22.7261 78.9306C22.7718 78.7055 22.882 78.5127 23.0212 78.3267C23.0767 78.3866 23.1298 78.4439 23.183 78.5012C23.2102 78.5306 23.2396 78.557 23.2861 78.5478C23.323 78.541 23.3406 78.526 23.3428 78.4849C23.3516 78.2527 23.3639 78.0201 23.3716 77.7879C23.3771 77.6189 23.3785 77.4498 23.3799 77.2807C23.3805 77.1933 23.34 77.1666 23.261 77.2054C23.1676 77.251 23.0767 77.3013 22.9867 77.3537C22.7474 77.4931 22.51 77.6356 22.2707 77.776C22.2349 77.7968 22.23 77.8265 22.2294 77.862C22.2284 77.8979 22.2495 77.9144 22.2778 77.9258C22.3449 77.9536 22.4119 77.9814 22.4855 78.0119L22.485 78.0114Z" fill="url(#paint26_linear_15354_11689)" fill-opacity="0.8"/>
<path d="M27.8759 79.6821C27.9042 79.6406 27.9268 79.6067 27.9509 79.5733C28.1171 79.3371 28.2362 79.0818 28.2358 78.7846C28.2348 78.3892 28.069 78.0748 27.7669 77.8349C27.535 77.6505 27.2669 77.5522 26.9776 77.5095C26.9676 77.5082 26.957 77.5095 26.9324 77.5105C26.9939 77.5536 27.0447 77.5882 27.0944 77.6248C27.302 77.7798 27.4807 77.9608 27.5857 78.2054C27.7118 78.5004 27.6642 78.7872 27.5284 79.0658C27.4862 79.1527 27.4271 79.231 27.3774 79.3141C27.3536 79.3532 27.3342 79.346 27.3079 79.3177C27.2587 79.2646 27.2095 79.2115 27.1566 79.163C27.139 79.1471 27.109 79.1413 27.0839 79.1397C27.0447 79.1377 27.0251 79.1578 27.0238 79.202C27.0121 79.6017 26.9974 80.0014 26.9863 80.4016C26.9836 80.4931 27.0295 80.5214 27.1107 80.4786C27.2649 80.3968 27.4167 80.3114 27.5675 80.224C27.7326 80.1286 27.8949 80.0291 28.0581 79.9306C28.0735 79.9217 28.0874 79.9102 28.1003 79.8986C28.158 79.8476 28.1506 79.7919 28.0786 79.7609C28.0161 79.7337 27.9519 79.7111 27.8749 79.681L27.8759 79.6821Z" fill="url(#paint27_linear_15354_11689)" fill-opacity="0.8"/>
<path d="M24.1131 79.5859C24.7482 78.9766 25.6878 79.0752 26.2057 79.638C26.7703 80.2373 26.7516 81.206 26.1677 81.7866C25.5723 82.3783 24.6291 82.3691 24.0614 81.7718C23.4752 81.1545 23.4915 80.1822 24.1137 79.5854L24.1131 79.5859Z" fill="url(#paint28_linear_15354_11689)" fill-opacity="0.8"/>
<rect width="10.137" height="2.67081" transform="matrix(-0.717634 0.696421 0.679963 0.733246 35.6201 83.4824)" fill="url(#paint29_linear_15354_11689)" fill-opacity="0.4"/>
<rect width="10.137" height="1.06832" transform="matrix(-0.717634 0.696421 0.679963 0.733246 34.1729 81.916)" fill="#E1EDF8"/>
<rect width="5.33524" height="1.06832" transform="matrix(-0.717634 0.696421 0.679963 0.733246 34.1729 81.916)" fill="url(#paint30_linear_15354_11689)" fill-opacity="0.4"/>
<path d="M34.2871 78.5918L24.1416 88.4374" stroke="#090B0E" stroke-width="0.280504" stroke-dasharray="1.12 1.12"/>
<g filter="url(#filter1_d_15354_11689)">
<path d="M86.5313 103.001C86.5313 88.8662 97.9898 77.4063 112.126 77.4063C118.457 77.4063 124.252 79.7057 128.721 83.5171C134.228 88.2113 137.719 95.1977 137.719 103.001C137.719 117.135 126.26 128.594 112.126 128.594C108.604 128.594 105.249 127.883 102.195 126.596C92.9912 122.718 86.5313 113.614 86.5313 103.001Z" fill="white"/>
<path fill-rule="evenodd" clip-rule="evenodd" d="M90.3301 102.995C90.3301 90.954 100.092 81.1914 112.135 81.1914C117.529 81.1914 122.465 83.1503 126.273 86.3971C130.964 90.3961 133.938 96.3478 133.938 102.995C133.938 115.036 124.176 124.797 112.135 124.797C109.135 124.797 106.276 124.192 103.674 123.095C95.8334 119.792 90.3301 112.036 90.3301 102.995ZM119.502 113.963L123.097 110.369L115.726 102.999L123.097 95.6302L119.502 92.0359L112.131 99.4052L104.755 92.0307L101.16 95.625L108.536 102.999L101.16 110.374L104.755 113.968L112.131 106.594L119.502 113.963Z" fill="#FF5858"/>
</g>
<defs>
<filter id="filter0_d_15354_11689" x="17.2528" y="0.543279" width="36.1206" height="36.8228" filterUnits="userSpaceOnUse" color-interpolation-filters="sRGB">
<feFlood flood-opacity="0" result="BackgroundImageFix"/>
<feColorMatrix in="SourceAlpha" type="matrix" values="0 0 0 0 0 0 0 0 0 0 0 0 0 0 0 0 0 0 127 0" result="hardAlpha"/>
<feOffset dx="-1.87387" dy="-0.936934"/>
<feGaussianBlur stdDeviation="1.4054"/>
<feComposite in2="hardAlpha" operator="out"/>
<feColorMatrix type="matrix" values="0 0 0 0 0 0 0 0 0 0.175 0 0 0 0 0.4375 0 0 0 0.07 0"/>
<feBlend mode="normal" in2="BackgroundImageFix" result="effect1_dropShadow_15354_11689"/>
<feBlend mode="normal" in="SourceGraphic" in2="effect1_dropShadow_15354_11689" result="shape"/>
</filter>
<filter id="filter1_d_15354_11689" x="75.1468" y="69.0794" width="80.0719" height="80.0719" filterUnits="userSpaceOnUse" color-interpolation-filters="sRGB">
<feFlood flood-opacity="0" result="BackgroundImageFix"/>
<feColorMatrix in="SourceAlpha" type="matrix" values="0 0 0 0 0 0 0 0 0 0 0 0 0 0 0 0 0 0 127 0" result="hardAlpha"/>
<feOffset dx="3.05769" dy="6.11538"/>
<feGaussianBlur stdDeviation="5.39297"/>
<feComposite in2="hardAlpha" operator="out"/>
<feColorMatrix type="matrix" values="0 0 0 0 0.00616667 0 0 0 0 0 0 0 0 0 0.308333 0 0 0 0.07 0"/>
<feBlend mode="normal" in2="BackgroundImageFix" result="effect1_dropShadow_15354_11689"/>
<feBlend mode="normal" in="SourceGraphic" in2="effect1_dropShadow_15354_11689" result="shape"/>
</filter>
<linearGradient id="paint0_linear_15354_11689" x1="36.1347" y1="8.05532" x2="213.753" y2="135.819" gradientUnits="userSpaceOnUse">
<stop stop-color="white"/>
<stop offset="0.420919" stop-color="#E2F1FA"/>
</linearGradient>
<linearGradient id="paint1_linear_15354_11689" x1="121.818" y1="101.715" x2="97.7817" y2="51.0622" gradientUnits="userSpaceOnUse">
<stop stop-color="#A7ACCA"/>
<stop offset="0.485517" stop-color="#D3D8F0"/>
</linearGradient>
<linearGradient id="paint2_linear_15354_11689" x1="91.4464" y1="83.7135" x2="83.5244" y2="61.7469" gradientUnits="userSpaceOnUse">
<stop stop-color="#A7ACCA"/>
<stop offset="0.485517" stop-color="#D3D8F0"/>
</linearGradient>
<linearGradient id="paint3_linear_15354_11689" x1="102.392" y1="66.5585" x2="49.2375" y2="36.8876" gradientUnits="userSpaceOnUse">
<stop stop-color="#A7ACCA"/>
<stop offset="0.485517" stop-color="#D3D8F0"/>
</linearGradient>
<linearGradient id="paint4_linear_15354_11689" x1="102.392" y1="66.5585" x2="49.2375" y2="36.8876" gradientUnits="userSpaceOnUse">
<stop stop-color="#A7ACCA"/>
<stop offset="0.485517" stop-color="#D3D8F0"/>
</linearGradient>
<linearGradient id="paint5_linear_15354_11689" x1="102.392" y1="66.5585" x2="49.2375" y2="36.8876" gradientUnits="userSpaceOnUse">
<stop stop-color="#A7ACCA"/>
<stop offset="0.485517" stop-color="#D3D8F0"/>
</linearGradient>
<linearGradient id="paint6_linear_15354_11689" x1="102.392" y1="66.5585" x2="49.2375" y2="36.8876" gradientUnits="userSpaceOnUse">
<stop stop-color="#A7ACCA"/>
<stop offset="0.485517" stop-color="#D3D8F0"/>
</linearGradient>
<linearGradient id="paint7_linear_15354_11689" x1="35.7547" y1="-0.555216" x2="47.3914" y2="38.8958" gradientUnits="userSpaceOnUse">
<stop stop-color="#FF4B4B"/>
<stop offset="1" stop-color="#FFB6B6"/>
</linearGradient>
<linearGradient id="paint8_linear_15354_11689" x1="36.1071" y1="10.1772" x2="41.3844" y2="28.0686" gradientUnits="userSpaceOnUse">
<stop stop-color="#FF4B4B"/>
<stop offset="1" stop-color="#FFB6B6"/>
</linearGradient>
<linearGradient id="paint9_linear_15354_11689" x1="36.1071" y1="10.1772" x2="41.3844" y2="28.0686" gradientUnits="userSpaceOnUse">
<stop stop-color="#FF4B4B"/>
<stop offset="1" stop-color="#FFB6B6"/>
</linearGradient>
<linearGradient id="paint10_linear_15354_11689" x1="113.71" y1="28.2791" x2="138.363" y2="61.4353" gradientUnits="userSpaceOnUse">
<stop stop-color="white"/>
<stop offset="0.96191" stop-color="#E2EBFA"/>
</linearGradient>
<linearGradient id="paint11_linear_15354_11689" x1="127.749" y1="47.4215" x2="124.808" y2="37.8891" gradientUnits="userSpaceOnUse">
<stop stop-color="#A7ACCA"/>
<stop offset="0.485517" stop-color="#D3D8F0"/>
</linearGradient>
<linearGradient id="paint12_linear_15354_11689" x1="127.749" y1="47.4215" x2="124.808" y2="37.8891" gradientUnits="userSpaceOnUse">
<stop stop-color="#A7ACCA"/>
<stop offset="0.485517" stop-color="#D3D8F0"/>
</linearGradient>
<linearGradient id="paint13_linear_15354_11689" x1="127.749" y1="47.4215" x2="124.808" y2="37.8891" gradientUnits="userSpaceOnUse">
<stop stop-color="#A7ACCA"/>
<stop offset="0.485517" stop-color="#D3D8F0"/>
</linearGradient>
<linearGradient id="paint14_linear_15354_11689" x1="127.749" y1="47.4215" x2="124.808" y2="37.8891" gradientUnits="userSpaceOnUse">
<stop stop-color="#A7ACCA"/>
<stop offset="0.485517" stop-color="#D3D8F0"/>
</linearGradient>
<linearGradient id="paint15_linear_15354_11689" x1="10.0378" y1="2.39951" x2="6.40528" y2="-5.42209" gradientUnits="userSpaceOnUse">
<stop stop-color="#A7ACCA"/>
<stop offset="0.485517" stop-color="#D3D8F0"/>
</linearGradient>
<linearGradient id="paint16_linear_15354_11689" x1="5.28306" y1="0.959806" x2="4.08931" y2="-2.4223" gradientUnits="userSpaceOnUse">
<stop stop-color="#A7ACCA"/>
<stop offset="0.485517" stop-color="#D3D8F0"/>
</linearGradient>
<linearGradient id="paint17_linear_15354_11689" x1="119.024" y1="33.3392" x2="143.46" y2="95.0148" gradientUnits="userSpaceOnUse">
<stop stop-color="white"/>
<stop offset="0.96191" stop-color="#E2EBFA"/>
</linearGradient>
<linearGradient id="paint18_linear_15354_11689" x1="133.044" y1="68.7797" x2="132.49" y2="52.8206" gradientUnits="userSpaceOnUse">
<stop stop-color="#A7ACCA"/>
<stop offset="0.485517" stop-color="#D3D8F0"/>
</linearGradient>
<linearGradient id="paint19_linear_15354_11689" x1="133.044" y1="68.7797" x2="132.49" y2="52.8206" gradientUnits="userSpaceOnUse">
<stop stop-color="#A7ACCA"/>
<stop offset="0.485517" stop-color="#D3D8F0"/>
</linearGradient>
<linearGradient id="paint20_linear_15354_11689" x1="133.044" y1="68.7797" x2="132.49" y2="52.8206" gradientUnits="userSpaceOnUse">
<stop stop-color="#A7ACCA"/>
<stop offset="0.485517" stop-color="#D3D8F0"/>
</linearGradient>
<linearGradient id="paint21_linear_15354_11689" x1="133.044" y1="68.7797" x2="132.49" y2="52.8206" gradientUnits="userSpaceOnUse">
<stop stop-color="#A7ACCA"/>
<stop offset="0.485517" stop-color="#D3D8F0"/>
</linearGradient>
<linearGradient id="paint22_linear_15354_11689" x1="16.1286" y1="3.81185" x2="10.4005" y2="-8.66334" gradientUnits="userSpaceOnUse">
<stop stop-color="#A7ACCA"/>
<stop offset="0.485517" stop-color="#D3D8F0"/>
</linearGradient>
<linearGradient id="paint23_linear_15354_11689" x1="8.48876" y1="1.52474" x2="6.60916" y2="-3.86149" gradientUnits="userSpaceOnUse">
<stop stop-color="#A7ACCA"/>
<stop offset="0.485517" stop-color="#D3D8F0"/>
</linearGradient>
<linearGradient id="paint24_linear_15354_11689" x1="47.102" y1="56.0842" x2="7.15877" y2="109.804" gradientUnits="userSpaceOnUse">
<stop stop-color="white"/>
<stop offset="0.96191" stop-color="#E2EBFA"/>
</linearGradient>
<linearGradient id="paint25_linear_15354_11689" x1="24.3593" y1="87.0974" x2="29.124" y2="71.6528" gradientUnits="userSpaceOnUse">
<stop stop-color="#A7ACCA"/>
<stop offset="0.485517" stop-color="#D3D8F0"/>
</linearGradient>
<linearGradient id="paint26_linear_15354_11689" x1="24.3593" y1="87.0974" x2="29.124" y2="71.6528" gradientUnits="userSpaceOnUse">
<stop stop-color="#A7ACCA"/>
<stop offset="0.485517" stop-color="#D3D8F0"/>
</linearGradient>
<linearGradient id="paint27_linear_15354_11689" x1="24.3593" y1="87.0974" x2="29.124" y2="71.6528" gradientUnits="userSpaceOnUse">
<stop stop-color="#A7ACCA"/>
<stop offset="0.485517" stop-color="#D3D8F0"/>
</linearGradient>
<linearGradient id="paint28_linear_15354_11689" x1="24.3593" y1="87.0974" x2="29.124" y2="71.6528" gradientUnits="userSpaceOnUse">
<stop stop-color="#A7ACCA"/>
<stop offset="0.485517" stop-color="#D3D8F0"/>
</linearGradient>
<linearGradient id="paint29_linear_15354_11689" x1="16.2634" y1="3.88773" x2="10.3779" y2="-8.78496" gradientUnits="userSpaceOnUse">
<stop stop-color="#A7ACCA"/>
<stop offset="0.485517" stop-color="#D3D8F0"/>
</linearGradient>
<linearGradient id="paint30_linear_15354_11689" x1="8.5597" y1="1.55509" x2="6.62556" y2="-3.92465" gradientUnits="userSpaceOnUse">
<stop stop-color="#A7ACCA"/>
<stop offset="0.485517" stop-color="#D3D8F0"/>
</linearGradient>
</defs>
</svg>
