<svg width="136" height="142" viewBox="0 0 136 142" fill="none" xmlns="http://www.w3.org/2000/svg">
<path d="M27.0371 29.0346C27.0371 24.2812 30.8906 20.4277 35.644 20.4277H99.1199V60.2347C94.9606 60.2347 91.5886 63.6064 91.5886 67.7657C91.5886 71.925 94.9604 75.2967 99.1197 75.2967L99.1199 114.028H27.0371V74.2208C27.0371 74.2208 27.0372 74.2208 27.0371 74.2208C31.1964 74.2208 34.5683 70.8491 34.5683 66.6898C34.5683 62.5305 31.1965 59.1588 27.0373 59.1588C27.0372 59.1588 27.0373 59.1588 27.0373 59.1588L27.0371 29.0346Z" fill="url(#paint0_linear_15424_39851)"/>
<rect x="42.0996" y="86.0547" width="40.8828" height="10.7586" fill="#D4E5F5"/>
<rect x="42.0996" y="86.0547" width="40.8828" height="10.7586" fill="url(#paint1_linear_15424_39851)"/>
<rect x="42.0996" y="77.4492" width="40.8828" height="4.30345" fill="#E1EDF8"/>
<rect x="42.0996" y="77.4492" width="21.5172" height="4.30345" fill="#D4E5F5"/>
<rect x="42.0996" y="77.4492" width="21.5172" height="4.30345" fill="url(#paint2_linear_15424_39851)"/>
<path d="M64.5647 40.8755C64.5591 44.1028 61.9369 46.6875 58.6786 46.6792C55.4565 46.6709 52.8622 44.0474 52.8594 40.8145C52.8594 37.9473 55.1413 35.0745 58.6311 35.0413C62.2047 35.0081 64.5898 37.867 64.5647 40.8755ZM58.7232 44.1915V44.197C58.7734 44.197 58.8236 44.197 58.8738 44.197C59.1472 44.186 59.217 44.1195 59.2337 43.8563C59.2421 43.7399 59.2449 43.6208 59.2449 43.5045C59.2449 43.3798 59.2951 43.3244 59.4262 43.2995C59.8502 43.2219 60.2408 43.0668 60.5309 42.726C60.9242 42.2662 60.9103 41.6484 60.4639 41.2384C60.2603 41.0528 60.0204 40.8949 59.7721 40.773C59.3704 40.5763 58.9464 40.4267 58.5391 40.2411C58.2964 40.1303 58.0593 40.0056 57.8389 39.856C57.6799 39.748 57.6827 39.5818 57.8417 39.4682C57.97 39.3795 58.1262 39.2937 58.2769 39.277C58.7957 39.2133 59.3062 39.2438 59.7888 39.4931C59.8781 39.5402 60.0315 39.5181 60.132 39.4765C60.2352 39.4349 60.3161 39.3324 60.3998 39.2493C60.5644 39.0804 60.5727 38.9751 60.3747 38.8615C60.0762 38.6897 59.7582 38.5457 59.4346 38.4293C59.2951 38.3795 59.2393 38.3324 59.2421 38.1939C59.2421 38.0581 59.2421 37.9196 59.2225 37.7866C59.2114 37.7146 59.1695 37.6093 59.1137 37.5872C58.8711 37.4874 58.6088 37.4819 58.3633 37.5733C58.1792 37.6426 58.2322 37.8476 58.1932 37.9972C58.1848 38.0332 58.1792 38.072 58.182 38.108C58.2127 38.3241 58.1039 38.4072 57.9003 38.4515C57.5209 38.5318 57.1833 38.7091 56.935 39.0139C56.6923 39.3131 56.5947 39.6483 56.737 40.0195C56.882 40.4018 57.1833 40.6428 57.5432 40.8035C57.8891 40.9586 58.2462 41.0888 58.5921 41.2439C58.9213 41.3908 59.256 41.532 59.5657 41.7149C59.8446 41.8783 59.8139 42.1775 59.5266 42.3299C59.4625 42.3631 59.3899 42.3908 59.3174 42.4074C58.6841 42.5432 58.0621 42.521 57.4762 42.2246C57.2419 42.1055 57.0689 42.1193 56.9016 42.3105C56.882 42.3326 56.8541 42.352 56.8318 42.3742C56.5445 42.6429 56.5501 42.726 56.896 42.931C57.2196 43.1249 57.5627 43.2718 57.9421 43.3078C58.1178 43.3244 58.196 43.3881 58.182 43.571C58.1736 43.6928 58.2043 43.8175 58.2211 43.9394C58.2434 44.0973 58.3382 44.1804 58.4972 44.1915C58.5726 44.197 58.6479 44.1915 58.7204 44.1915H58.7232Z" fill="#05E0AB"/>
<path d="M69.2297 36.3021C69.5198 36.3603 69.7848 36.4046 70.0415 36.4656C71.4419 36.7897 72.5773 37.4878 73.2803 38.7732C73.894 39.8979 73.9498 41.0864 73.6318 42.3081C73.4086 43.1751 72.9678 43.9342 72.4489 44.6545C72.4155 44.7016 72.3708 44.7459 72.3318 44.7902L72.276 44.7736C72.315 44.5686 72.3541 44.3636 72.3904 44.1558C72.5326 43.2998 72.5717 42.4355 72.3932 41.5878C72.2118 40.7124 71.7041 40.017 70.9649 39.5018C70.2423 39.0004 69.4222 38.7621 68.5379 38.6208C68.5379 38.9366 68.5379 39.2386 68.5379 39.5406C68.5379 39.6957 68.5239 39.8481 68.3677 39.9478C68.245 40.0281 68.1557 40.0337 68.0413 39.9256C67.4053 39.3051 66.7581 38.6929 66.1248 38.0695C65.6645 37.6152 65.2154 37.1498 64.7663 36.6844C64.5347 36.4434 64.5794 36.2606 64.9058 36.1553C65.2907 36.0306 65.6813 35.9254 66.0746 35.8284C67.1207 35.5708 68.1696 35.327 69.2185 35.0721C69.3748 35.0333 69.4668 35.1026 69.5617 35.1995C69.6593 35.2965 69.6426 35.399 69.5924 35.507C69.4752 35.7647 69.358 36.0223 69.2297 36.3049V36.3021Z" fill="#05E0AB"/>
<path d="M58.3261 55.4529C58.1364 55.4141 57.9829 55.3808 57.8267 55.3531C56.7332 55.1454 55.7233 54.7575 54.9422 53.932C53.9045 52.8322 53.5474 51.5135 53.7734 50.0342C53.9463 48.8984 54.4485 47.9039 55.157 47.0063C55.1821 46.9758 55.2156 46.9509 55.2881 46.8872C55.2268 47.1725 55.1738 47.4052 55.1291 47.6407C54.9478 48.6297 54.9171 49.6131 55.263 50.5744C55.6815 51.7324 56.5714 52.4 57.69 52.8073C58.0387 52.9347 58.4125 52.9929 58.7724 53.0898C58.9426 53.1342 58.9788 53.0621 58.9788 52.9125C58.9788 52.6327 58.9788 52.3529 59.0011 52.0759C59.0095 51.9845 59.0793 51.8875 59.1462 51.8155C59.2522 51.7047 59.361 51.7075 59.481 51.8266C60.5661 52.9042 61.6597 53.9735 62.7449 55.0539C62.9931 55.3005 62.9373 55.5027 62.5942 55.6025C61.9414 55.7908 61.2859 55.9626 60.6275 56.126C59.9078 56.3061 59.1853 56.4668 58.4628 56.633C58.3958 56.6496 58.3261 56.6552 58.2591 56.6579C57.9606 56.6718 57.8351 56.4973 57.9578 56.2175C58.0638 55.9737 58.1866 55.7382 58.3261 55.4473V55.4529Z" fill="#05E0AB"/>
<path d="M68.7528 45.0547C65.3466 45.0741 62.9391 47.8776 62.9503 50.8335C62.9252 54.0166 65.5279 56.6539 68.7137 56.6926C71.9608 56.7314 74.6138 54.1662 74.6528 50.9803C74.6919 47.6893 72.0864 45.0354 68.75 45.0547H68.7528Z" fill="#05E0AB"/>
<path d="M107.722 20.4277H99.1152V30.1105H107.722V20.4277Z" fill="#E8F4FA"/>
<path d="M18.9681 114.029H27.0371L27.0371 107.574H18.9681V114.029Z" fill="#E8F4FB"/>
<path d="M116.329 30.1105C116.329 28.8389 116.106 27.5798 115.674 26.4051C115.241 25.2303 114.607 24.1629 113.808 23.2637C113.009 22.3646 112.06 21.6514 111.016 21.1648C109.972 20.6782 108.852 20.4277 107.722 20.4277C106.592 20.4277 105.473 20.6782 104.428 21.1648C103.384 21.6514 102.435 22.3646 101.636 23.2637C100.837 24.1629 100.203 25.2303 99.7704 26.4051C99.3379 27.5798 99.1152 28.8389 99.1152 30.1105L116.329 30.1105Z" fill="#E1EDF8"/>
<path d="M12.513 107.574C12.513 108.422 12.7008 109.261 13.0658 110.044C13.4307 110.828 13.9656 111.539 14.64 112.139C15.3143 112.738 16.1149 113.214 16.996 113.538C17.877 113.862 18.8214 114.029 19.775 114.029C20.7287 114.029 21.673 113.862 22.5541 113.538C23.4352 113.214 24.2358 112.738 24.9101 112.139C25.5844 111.539 26.1194 110.828 26.4843 110.044C26.8493 109.261 27.0371 108.422 27.0371 107.574L12.513 107.574Z" fill="#E1EDF8"/>
<g filter="url(#filter0_d_15424_39851)">
<path d="M5.51953 19.8912C5.51953 11.2756 12.5039 4.29102 21.1195 4.29102C29.7352 4.29102 36.7195 11.2756 36.7195 19.8912C36.7195 28.5068 29.7352 35.4914 21.1195 35.4914C12.5039 35.4914 5.51953 28.5068 5.51953 19.8912Z" fill="#05E0AC"/>
</g>
<ellipse cx="20.9742" cy="19.8901" rx="13.523" ry="13.5229" fill="white"/>
<path d="M16.8909 26.2374L20.0687 23.0596L21.0391 24.03C22.0326 25.0235 22.5293 25.5202 23.0632 25.403C23.5971 25.2857 23.84 24.6265 24.3257 23.3082L25.9456 18.9112C26.9146 16.2812 27.399 14.9662 26.7213 14.2885C26.0435 13.6107 24.7285 14.0952 22.0985 15.0642L17.7016 16.6841C16.3832 17.1698 15.7241 17.4126 15.6068 17.9465C15.4895 18.4804 15.9863 18.9772 16.9797 19.9706L17.9502 20.9411L14.7724 24.1189C14.4433 24.4479 14.2788 24.6124 14.2028 24.796C14.1014 25.0407 14.1014 25.3156 14.2028 25.5603C14.2788 25.7438 14.4433 25.9084 14.7724 26.2374C15.1014 26.5664 15.2659 26.731 15.4494 26.807C15.6942 26.9083 15.9691 26.9083 16.2138 26.807C16.3973 26.731 16.5619 26.5664 16.8909 26.2374Z" fill="#05E0AC"/>
<path d="M36.1777 68.3047H91.0467" stroke="#090B0E" stroke-width="1.07586" stroke-dasharray="4.3 4.3"/>
<path d="M21.0695 39.7949C21.0695 39.5257 20.8513 39.3074 20.582 39.3074C20.3128 39.3074 20.0945 39.5257 20.0945 39.7949H21.0695ZM28.1131 67.7673L23.2381 64.9528V70.5819L28.1131 67.7673ZM20.0945 39.7949V64.7674H21.0695V39.7949H20.0945ZM23.582 68.2548H23.7256V67.2798H23.582V68.2548ZM20.0945 64.7674C20.0945 66.6934 21.6559 68.2548 23.582 68.2548V67.2798C22.1944 67.2798 21.0695 66.155 21.0695 64.7674H20.0945Z" fill="#D3D7F0"/>
<ellipse cx="6.29953" cy="6.07843" rx="6.29953" ry="6.07843" transform="matrix(0.994137 -0.11328 0.254679 0.96827 1.60547 73.8223)" fill="url(#paint3_linear_15424_39851)"/>
<ellipse cx="6.29953" cy="6.07843" rx="6.29953" ry="6.07843" transform="matrix(0.994137 -0.11328 0.254679 0.96827 1.60547 73.498)" fill="#09BDBD"/>
<ellipse cx="6.29953" cy="6.07843" rx="6.29953" ry="6.07843" transform="matrix(0.994137 -0.11328 0.254679 0.96827 1.60547 73.498)" fill="url(#paint4_linear_15424_39851)"/>
<path fill-rule="evenodd" clip-rule="evenodd" d="M10.6806 83.4885C13.5104 83.166 15.2374 80.7486 14.5379 78.0891C13.8384 75.4296 10.9773 73.5351 8.14738 73.8575C5.3175 74.18 3.59051 76.5974 4.29002 79.2569C4.98954 81.9164 7.85068 83.8109 10.6806 83.4885Z" fill="#1C274C"/>
<path fill-rule="evenodd" clip-rule="evenodd" d="M10.6806 83.4885C13.5104 83.166 15.2374 80.7486 14.5379 78.0891C13.8384 75.4296 10.9773 73.5351 8.14738 73.8575C5.3175 74.18 3.59051 76.5974 4.29002 79.2569C4.98954 81.9164 7.85068 83.8109 10.6806 83.4885Z" fill="url(#paint5_linear_15424_39851)"/>
<path fill-rule="evenodd" clip-rule="evenodd" d="M10.6806 83.4885C13.5104 83.166 15.2374 80.7486 14.5379 78.0891C13.8384 75.4296 10.9773 73.5351 8.14738 73.8575C5.3175 74.18 3.59051 76.5974 4.29002 79.2569C4.98954 81.9164 7.85068 83.8109 10.6806 83.4885Z" fill="url(#paint6_linear_15424_39851)"/>
<path fill-rule="evenodd" clip-rule="evenodd" d="M9.04334 75.7371C8.99088 75.5376 8.7763 75.3955 8.56406 75.4197C8.35181 75.4439 8.22229 75.6252 8.27475 75.8247L8.31487 75.9772C7.51642 76.213 6.96981 76.8828 7.18088 77.6852C7.4237 78.6084 8.52137 79.1444 9.514 79.0313C10.2193 78.951 10.7816 79.3361 10.8885 79.7427C10.9955 80.1492 10.6626 80.6364 9.9573 80.7167C9.252 80.7971 8.6897 80.4119 8.58276 80.0054C8.5303 79.8059 8.31571 79.6638 8.10347 79.688C7.89123 79.7122 7.76171 79.8935 7.81417 80.093C8.02523 80.8954 8.88214 81.4053 9.75454 81.4507L9.79466 81.6032C9.84712 81.8027 10.0617 81.9448 10.2739 81.9206C10.4862 81.8964 10.6157 81.7151 10.5632 81.5156L10.5231 81.3631C11.3216 81.1273 11.8682 80.4575 11.6571 79.6551C11.4143 78.7319 10.3166 78.1959 9.32401 78.309C8.6187 78.3894 8.0564 78.0042 7.94947 77.5977C7.84253 77.1911 8.1754 76.704 8.8807 76.6236C9.586 76.5432 10.1483 76.9284 10.2552 77.3349C10.3077 77.5344 10.5223 77.6765 10.7345 77.6523C10.9468 77.6281 11.0763 77.4468 11.0238 77.2473C10.8128 76.4449 9.95586 75.935 9.08346 75.8896L9.04334 75.7371Z" fill="#1C274C"/>
<path fill-rule="evenodd" clip-rule="evenodd" d="M9.04334 75.7371C8.99088 75.5376 8.7763 75.3955 8.56406 75.4197C8.35181 75.4439 8.22229 75.6252 8.27475 75.8247L8.31487 75.9772C7.51642 76.213 6.96981 76.8828 7.18088 77.6852C7.4237 78.6084 8.52137 79.1444 9.514 79.0313C10.2193 78.951 10.7816 79.3361 10.8885 79.7427C10.9955 80.1492 10.6626 80.6364 9.9573 80.7167C9.252 80.7971 8.6897 80.4119 8.58276 80.0054C8.5303 79.8059 8.31571 79.6638 8.10347 79.688C7.89123 79.7122 7.76171 79.8935 7.81417 80.093C8.02523 80.8954 8.88214 81.4053 9.75454 81.4507L9.79466 81.6032C9.84712 81.8027 10.0617 81.9448 10.2739 81.9206C10.4862 81.8964 10.6157 81.7151 10.5632 81.5156L10.5231 81.3631C11.3216 81.1273 11.8682 80.4575 11.6571 79.6551C11.4143 78.7319 10.3166 78.1959 9.32401 78.309C8.6187 78.3894 8.0564 78.0042 7.94947 77.5977C7.84253 77.1911 8.1754 76.704 8.8807 76.6236C9.586 76.5432 10.1483 76.9284 10.2552 77.3349C10.3077 77.5344 10.5223 77.6765 10.7345 77.6523C10.9468 77.6281 11.0763 77.4468 11.0238 77.2473C10.8128 76.4449 9.95586 75.935 9.08346 75.8896L9.04334 75.7371Z" fill="white"/>
<path fill-rule="evenodd" clip-rule="evenodd" d="M9.04334 75.7371C8.99088 75.5376 8.7763 75.3955 8.56406 75.4197C8.35181 75.4439 8.22229 75.6252 8.27475 75.8247L8.31487 75.9772C7.51642 76.213 6.96981 76.8828 7.18088 77.6852C7.4237 78.6084 8.52137 79.1444 9.514 79.0313C10.2193 78.951 10.7816 79.3361 10.8885 79.7427C10.9955 80.1492 10.6626 80.6364 9.9573 80.7167C9.252 80.7971 8.6897 80.4119 8.58276 80.0054C8.5303 79.8059 8.31571 79.6638 8.10347 79.688C7.89123 79.7122 7.76171 79.8935 7.81417 80.093C8.02523 80.8954 8.88214 81.4053 9.75454 81.4507L9.79466 81.6032C9.84712 81.8027 10.0617 81.9448 10.2739 81.9206C10.4862 81.8964 10.6157 81.7151 10.5632 81.5156L10.5231 81.3631C11.3216 81.1273 11.8682 80.4575 11.6571 79.6551C11.4143 78.7319 10.3166 78.1959 9.32401 78.309C8.6187 78.3894 8.0564 78.0042 7.94947 77.5977C7.84253 77.1911 8.1754 76.704 8.8807 76.6236C9.586 76.5432 10.1483 76.9284 10.2552 77.3349C10.3077 77.5344 10.5223 77.6765 10.7345 77.6523C10.9468 77.6281 11.0763 77.4468 11.0238 77.2473C10.8128 76.4449 9.95586 75.935 9.08346 75.8896L9.04334 75.7371Z" fill="url(#paint7_linear_15424_39851)"/>
<ellipse cx="8.92162" cy="8.60849" rx="8.92162" ry="8.60849" transform="matrix(-0.994137 -0.11328 -0.254679 0.96827 122.318 46.5742)" fill="url(#paint8_linear_15424_39851)"/>
<ellipse cx="8.92162" cy="8.60849" rx="8.92162" ry="8.60849" transform="matrix(-0.994137 -0.11328 -0.254679 0.96827 122.318 46.1172)" fill="#09BDBD"/>
<ellipse cx="8.92162" cy="8.60849" rx="8.92162" ry="8.60849" transform="matrix(-0.994137 -0.11328 -0.254679 0.96827 122.318 46.1172)" fill="url(#paint9_linear_15424_39851)"/>
<path fill-rule="evenodd" clip-rule="evenodd" d="M109.466 60.262C105.458 59.8053 103.013 56.3818 104.003 52.6153C104.994 48.8488 109.046 46.1657 113.054 46.6223C117.062 47.079 119.507 50.5026 118.517 54.269C117.526 58.0355 113.474 60.7187 109.466 60.262Z" fill="#1C274C"/>
<path fill-rule="evenodd" clip-rule="evenodd" d="M109.466 60.262C105.458 59.8053 103.013 56.3818 104.003 52.6153C104.994 48.8488 109.046 46.1657 113.054 46.6223C117.062 47.079 119.507 50.5026 118.517 54.269C117.526 58.0355 113.474 60.7187 109.466 60.262Z" fill="url(#paint10_linear_15424_39851)"/>
<path fill-rule="evenodd" clip-rule="evenodd" d="M109.466 60.262C105.458 59.8053 103.013 56.3818 104.003 52.6153C104.994 48.8488 109.046 46.1657 113.054 46.6223C117.062 47.079 119.507 50.5026 118.517 54.269C117.526 58.0355 113.474 60.7187 109.466 60.262Z" fill="url(#paint11_linear_15424_39851)"/>
<path d="M112.924 49.6081C113.189 49.7417 113.308 50.0412 113.189 50.2771L113.098 50.4574C114.059 51.1496 114.585 52.2889 114.108 53.2378C113.989 53.4736 113.677 53.5565 113.412 53.4229C113.147 53.2893 113.028 52.9898 113.147 52.7539C113.389 52.2732 113.089 51.4756 112.207 51.0316C111.325 50.5876 110.506 50.8216 110.264 51.3024C110.022 51.7831 110.322 52.5807 111.203 53.0247C112.444 53.6495 113.224 54.9933 112.674 56.0849C112.196 57.0338 110.968 57.2896 109.839 56.9299L109.749 57.1103C109.63 57.3461 109.318 57.429 109.053 57.2954C108.788 57.1618 108.669 56.8623 108.788 56.6264L108.878 56.4461C107.918 55.7539 107.391 54.6146 107.869 53.6657C107.988 53.4298 108.299 53.347 108.565 53.4806C108.83 53.6142 108.949 53.9137 108.83 54.1496C108.588 54.6303 108.888 55.4278 109.77 55.8718C110.652 56.3158 111.471 56.0819 111.713 55.6011C111.955 55.1203 111.655 54.3228 110.773 53.8788C109.532 53.2539 108.753 51.9102 109.303 50.8185C109.781 49.8696 111.009 49.6139 112.137 49.9736L112.228 49.7932C112.347 49.5573 112.658 49.4744 112.924 49.6081Z" fill="url(#paint12_linear_15424_39851)"/>
<ellipse cx="4.83558" cy="4.66586" rx="4.83558" ry="4.66586" transform="matrix(-0.892839 -0.451641 -0.575243 0.819454 122.832 65.9102)" fill="url(#paint13_linear_15424_39851)"/>
<ellipse cx="4.83558" cy="4.66586" rx="4.83558" ry="4.66586" transform="matrix(-0.892839 -0.451641 -0.575243 0.819454 122.928 65.6777)" fill="#09BDBD"/>
<ellipse cx="4.83558" cy="4.66586" rx="4.83558" ry="4.66586" transform="matrix(-0.892839 -0.451641 -0.575243 0.819454 122.928 65.6777)" fill="url(#paint14_linear_15424_39851)"/>
<path fill-rule="evenodd" clip-rule="evenodd" d="M113.728 70.4424C111.777 69.4555 111.179 67.2549 112.392 65.5272C113.604 63.7995 116.169 63.1989 118.12 64.1858C120.071 65.1726 120.669 67.3732 119.456 69.1009C118.244 70.8286 115.679 71.4292 113.728 70.4424Z" fill="#1C274C"/>
<path fill-rule="evenodd" clip-rule="evenodd" d="M113.728 70.4424C111.777 69.4555 111.179 67.2549 112.392 65.5272C113.604 63.7995 116.169 63.1989 118.12 64.1858C120.071 65.1726 120.669 67.3732 119.456 69.1009C118.244 70.8286 115.679 71.4292 113.728 70.4424Z" fill="url(#paint15_linear_15424_39851)"/>
<path fill-rule="evenodd" clip-rule="evenodd" d="M113.728 70.4424C111.777 69.4555 111.179 67.2549 112.392 65.5272C113.604 63.7995 116.169 63.1989 118.12 64.1858C120.071 65.1726 120.669 67.3732 119.456 69.1009C118.244 70.8286 115.679 71.4292 113.728 70.4424Z" fill="url(#paint16_linear_15424_39851)"/>
<path d="M116.374 65.1661C116.513 65.2358 116.575 65.392 116.513 65.515L116.465 65.6091C116.966 65.9701 117.241 66.5644 116.992 67.0594C116.93 67.1824 116.767 67.2256 116.629 67.1559C116.49 67.0862 116.428 66.93 116.49 66.807C116.617 66.5562 116.46 66.1402 116 65.9086C115.54 65.677 115.113 65.7991 114.987 66.0499C114.86 66.3006 115.017 66.7166 115.477 66.9482C116.124 67.2741 116.531 67.975 116.244 68.5444C115.995 69.0394 115.354 69.1728 114.765 68.9852L114.718 69.0793C114.656 69.2023 114.494 69.2455 114.355 69.1758C114.217 69.1061 114.155 68.9499 114.217 68.8269L114.264 68.7328C113.763 68.3718 113.488 67.7775 113.738 67.2826C113.8 67.1595 113.962 67.1163 114.1 67.186C114.239 67.2557 114.301 67.4119 114.239 67.5349C114.113 67.7857 114.269 68.2017 114.729 68.4333C115.189 68.6649 115.616 68.5428 115.743 68.2921C115.869 68.0413 115.712 67.6253 115.252 67.3937C114.605 67.0678 114.199 66.3669 114.485 65.7975C114.735 65.3025 115.376 65.1691 115.964 65.3567L116.011 65.2627C116.073 65.1396 116.236 65.0964 116.374 65.1661Z" fill="url(#paint17_linear_15424_39851)"/>
<g filter="url(#filter1_d_15424_39851)">
<path d="M70.5313 103.001C70.5313 88.8662 81.9898 77.4063 96.1257 77.4063C102.457 77.4063 108.252 79.7057 112.721 83.5171C118.228 88.2113 121.719 95.1977 121.719 103.001C121.719 117.135 110.26 128.594 96.1257 128.594C92.6044 128.594 89.2489 127.883 86.1949 126.596C76.9912 122.718 70.5313 113.614 70.5313 103.001Z" fill="white"/>
<path fill-rule="evenodd" clip-rule="evenodd" d="M74.3203 102.999C74.3203 90.9581 84.0813 81.1953 96.123 81.1953C101.517 81.1953 106.453 83.1542 110.26 86.4011C114.951 90.4001 117.925 96.352 117.925 102.999C117.925 115.041 108.164 124.802 96.123 124.802C93.1233 124.802 90.265 124.196 87.6635 123.1C79.8232 119.797 74.3203 112.041 74.3203 102.999ZM85.1536 104.732L92.954 112.532L108.919 96.5669L105.364 93.0121L92.954 105.435L88.7084 101.177L85.1536 104.732Z" fill="#05E0AC"/>
</g>
<defs>
<filter id="filter0_d_15424_39851" x="0.834861" y="0.543279" width="36.8208" height="36.8228" filterUnits="userSpaceOnUse" color-interpolation-filters="sRGB">
<feFlood flood-opacity="0" result="BackgroundImageFix"/>
<feColorMatrix in="SourceAlpha" type="matrix" values="0 0 0 0 0 0 0 0 0 0 0 0 0 0 0 0 0 0 127 0" result="hardAlpha"/>
<feOffset dx="-1.87387" dy="-0.936934"/>
<feGaussianBlur stdDeviation="1.4054"/>
<feComposite in2="hardAlpha" operator="out"/>
<feColorMatrix type="matrix" values="0 0 0 0 0 0 0 0 0 0.175 0 0 0 0 0.4375 0 0 0 0.07 0"/>
<feBlend mode="normal" in2="BackgroundImageFix" result="effect1_dropShadow_15424_39851"/>
<feBlend mode="normal" in="SourceGraphic" in2="effect1_dropShadow_15424_39851" result="shape"/>
</filter>
<filter id="filter1_d_15424_39851" x="59.1468" y="69.0794" width="80.0719" height="80.0719" filterUnits="userSpaceOnUse" color-interpolation-filters="sRGB">
<feFlood flood-opacity="0" result="BackgroundImageFix"/>
<feColorMatrix in="SourceAlpha" type="matrix" values="0 0 0 0 0 0 0 0 0 0 0 0 0 0 0 0 0 0 127 0" result="hardAlpha"/>
<feOffset dx="3.05769" dy="6.11538"/>
<feGaussianBlur stdDeviation="5.39297"/>
<feComposite in2="hardAlpha" operator="out"/>
<feColorMatrix type="matrix" values="0 0 0 0 0.00616667 0 0 0 0 0 0 0 0 0 0.308333 0 0 0 0.07 0"/>
<feBlend mode="normal" in2="BackgroundImageFix" result="effect1_dropShadow_15424_39851"/>
<feBlend mode="normal" in="SourceGraphic" in2="effect1_dropShadow_15424_39851" result="shape"/>
</filter>
<linearGradient id="paint0_linear_15424_39851" x1="20.044" y1="8.05532" x2="198.909" y2="139.672" gradientUnits="userSpaceOnUse">
<stop stop-color="white"/>
<stop offset="0.420919" stop-color="#E2F1FA"/>
</linearGradient>
<linearGradient id="paint1_linear_15424_39851" x1="107.691" y1="101.715" x2="84.001" y2="50.6453" gradientUnits="userSpaceOnUse">
<stop stop-color="#A7ACCA"/>
<stop offset="0.485517" stop-color="#D3D8F0"/>
</linearGradient>
<linearGradient id="paint2_linear_15424_39851" x1="76.6213" y1="83.7135" x2="68.8374" y2="61.634" gradientUnits="userSpaceOnUse">
<stop stop-color="#A7ACCA"/>
<stop offset="0.485517" stop-color="#D3D8F0"/>
</linearGradient>
<linearGradient id="paint3_linear_15424_39851" x1="12.5991" y1="-0.56732" x2="3.8559" y2="12.8807" gradientUnits="userSpaceOnUse">
<stop stop-color="#FFB545"/>
<stop offset="1" stop-color="#E38800"/>
</linearGradient>
<linearGradient id="paint4_linear_15424_39851" x1="12.5991" y1="-0.56732" x2="3.8559" y2="12.8807" gradientUnits="userSpaceOnUse">
<stop stop-color="#FFC530"/>
<stop offset="1" stop-color="#FF9F0E"/>
</linearGradient>
<linearGradient id="paint5_linear_15424_39851" x1="4.78896" y1="84.7174" x2="16.0021" y2="77.8523" gradientUnits="userSpaceOnUse">
<stop stop-color="#05E0E0"/>
<stop offset="1" stop-color="#02C8C8"/>
</linearGradient>
<linearGradient id="paint6_linear_15424_39851" x1="7.27263" y1="72.4165" x2="12.4651" y2="84.9446" gradientUnits="userSpaceOnUse">
<stop stop-color="#FFB74B"/>
<stop offset="1" stop-color="#FCCA80"/>
</linearGradient>
<linearGradient id="paint7_linear_15424_39851" x1="6.04373" y1="74.8218" x2="19.2093" y2="78.5551" gradientUnits="userSpaceOnUse">
<stop stop-color="white"/>
<stop offset="0.420919" stop-color="#E2F1FA"/>
</linearGradient>
<linearGradient id="paint8_linear_15424_39851" x1="17.8432" y1="-0.803459" x2="5.46087" y2="18.2422" gradientUnits="userSpaceOnUse">
<stop stop-color="#FFB545"/>
<stop offset="1" stop-color="#E38800"/>
</linearGradient>
<linearGradient id="paint9_linear_15424_39851" x1="17.8432" y1="-0.803459" x2="5.46087" y2="18.2422" gradientUnits="userSpaceOnUse">
<stop stop-color="#FFC530"/>
<stop offset="1" stop-color="#FF9F0E"/>
</linearGradient>
<linearGradient id="paint10_linear_15424_39851" x1="117.81" y1="62.0025" x2="101.93" y2="52.2799" gradientUnits="userSpaceOnUse">
<stop stop-color="#05E0E0"/>
<stop offset="1" stop-color="#02C8C8"/>
</linearGradient>
<linearGradient id="paint11_linear_15424_39851" x1="114.293" y1="44.5814" x2="106.939" y2="62.3243" gradientUnits="userSpaceOnUse">
<stop stop-color="#FFB74B"/>
<stop offset="1" stop-color="#FCCA80"/>
</linearGradient>
<linearGradient id="paint12_linear_15424_39851" x1="110.567" y1="47.1476" x2="120.04" y2="62.0582" gradientUnits="userSpaceOnUse">
<stop stop-color="white"/>
<stop offset="0.420919" stop-color="#E2F1FA"/>
</linearGradient>
<linearGradient id="paint13_linear_15424_39851" x1="9.67117" y1="-0.435481" x2="2.95983" y2="9.88739" gradientUnits="userSpaceOnUse">
<stop stop-color="#FFB545"/>
<stop offset="1" stop-color="#E38800"/>
</linearGradient>
<linearGradient id="paint14_linear_15424_39851" x1="9.67117" y1="-0.435481" x2="2.95983" y2="9.88739" gradientUnits="userSpaceOnUse">
<stop stop-color="#FFC530"/>
<stop offset="1" stop-color="#FF9F0E"/>
</linearGradient>
<linearGradient id="paint15_linear_15424_39851" x1="117.641" y1="72.8983" x2="111.401" y2="64.9663" gradientUnits="userSpaceOnUse">
<stop stop-color="#05E0E0"/>
<stop offset="1" stop-color="#02C8C8"/>
</linearGradient>
<linearGradient id="paint16_linear_15424_39851" x1="119.134" y1="63.3818" x2="112.055" y2="71.0145" gradientUnits="userSpaceOnUse">
<stop stop-color="#FFB74B"/>
<stop offset="1" stop-color="#FCCA80"/>
</linearGradient>
<linearGradient id="paint17_linear_15424_39851" x1="115.145" y1="63.8827" x2="120.086" y2="71.6601" gradientUnits="userSpaceOnUse">
<stop stop-color="white"/>
<stop offset="0.420919" stop-color="#E2F1FA"/>
</linearGradient>
</defs>
</svg>
