<svg width="12" height="12" viewBox="0 0 12 12" fill="none" xmlns="http://www.w3.org/2000/svg">
  <g id="Bold / Notes / Document">
    <path id="Vector" fill-rule="evenodd" clip-rule="evenodd"
      d="M2.08579 1.58579C1.5 2.17157 1.5 3.11438 1.5 5V7C1.5 8.88562 1.5 9.82843 2.08579 10.4142C2.67157 11 3.61438 11 5.5 11H6.5C8.38562 11 9.32843 11 9.91421 10.4142C10.5 9.82843 10.5 8.88562 10.5 7V5C10.5 3.11438 10.5 2.17157 9.91421 1.58579C9.32843 1 8.38562 1 6.5 1H5.5C3.61438 1 2.67157 1 2.08579 1.58579ZM4 4.625C3.79289 4.625 3.625 4.79289 3.625 5C3.625 5.20711 3.79289 5.375 4 5.375H8C8.20711 5.375 8.375 5.20711 8.375 5C8.375 4.79289 8.20711 4.625 8 4.625H4ZM4 6.625C3.79289 6.625 3.625 6.79289 3.625 7C3.625 7.20711 3.79289 7.375 4 7.375H6.5C6.70711 7.375 6.875 7.20711 6.875 7C6.875 6.79289 6.70711 6.625 6.5 6.625H4Z"
      fill="#888899" />
  </g>
</svg>