<svg width="120" height="120" viewBox="0 0 120 120" fill="none" xmlns="http://www.w3.org/2000/svg">
<path fill-rule="evenodd" clip-rule="evenodd" d="M40.6058 72.7151C40.5463 72.7966 40.6607 72.6401 40.6058 72.7151C37.566 73.5392 34.7397 75.0407 32.363 77.1087L27.205 81.5933L25.9554 82.7317C25.0791 84.2391 24.7294 83.0173 24.0664 83.6761L26.5162 87.1616C25.8532 87.8204 25.8533 89.3138 26.5163 89.9727L37.604 97.2811C38.267 97.9399 37.8855 104.192 38.5485 103.533L41.3818 102.566C42.0448 101.907 43.9338 101.313 43.2708 100.654H46.3863H70.8516C73.0003 100.654 75.0509 99.8537 76.6321 98.3951L97.2223 79.2189C99.1933 77.3999 99.8464 74.5103 98.8466 72.0292C98.124 70.2333 96.6482 68.859 94.7985 68.2588C92.9481 67.6573 90.9412 67.9011 89.2904 68.9262C89.2798 68.9328 84.7191 71.9067 84.7191 71.9067C84.7176 71.4473 84.702 72.3684 84.673 71.9067L81.1775 74.2158C81.1566 74.7472 81.2459 73.7279 81.1775 74.2158L73.0195 79.5345C71.7566 77.9797 69.8425 77.0422 67.7475 77.0422H64.3531H61.5532H60.9586H60.3937C59.7834 77.0422 59.4191 76.7529 59.0374 76.4497C58.8975 76.3386 58.7553 76.2257 58.5977 76.1244C55.0117 73.4536 50.5697 71.9824 46.0893 71.9824C45.3885 71.9824 44.6864 72.0187 43.9876 72.0892L40.6058 72.7151Z" fill="#F5F9FF"/>
<path fill-rule="evenodd" clip-rule="evenodd" d="M40.6074 72.7151C40.5479 72.7966 40.6622 72.6401 40.6074 72.7151C37.5676 73.5392 34.7413 75.0407 32.3645 77.1087L27.2066 81.5933L25.9569 82.6448C25.294 81.9859 25.0458 83.3247 24.3828 83.9835L26.5178 87.1616C25.8548 87.8204 25.8549 89.3138 26.5179 89.9727L37.6056 97.2811C38.2686 97.9399 37.8871 104.192 38.5501 103.533L40.6074 102.881C41.2703 102.222 43.6564 101.313 42.9934 100.654H46.3879H70.8532C73.0019 100.654 75.0525 99.8537 76.6337 98.3951L97.2239 79.2189C99.1949 77.3999 99.848 74.5103 98.8482 72.0292C98.1255 70.2333 96.6497 68.859 94.8 68.2588C92.9497 67.6573 90.9428 67.9011 89.292 68.9262C89.2814 68.9328 84.7207 71.9067 84.7207 71.9067C84.7192 71.4473 84.7036 72.3684 84.6746 71.9067L81.1791 74.2158C81.1582 74.7472 81.2475 73.7279 81.1791 74.2158L73.0211 79.5345C71.7582 77.9797 69.8441 77.0422 67.7491 77.0422H64.3547H61.5548H60.9602H60.3953C59.785 77.0422 59.4207 76.7529 59.039 76.4497C58.8991 76.3386 58.7569 76.2257 58.5993 76.1244C55.0133 73.4536 50.5713 71.9824 46.0909 71.9824C45.3901 71.9824 44.688 72.0187 43.9892 72.0892L40.6074 72.7151ZM34.6001 79.6465C37.789 76.8715 41.8869 75.3556 46.0909 75.3556C49.842 75.3556 53.5607 76.5869 56.5613 78.8223C56.6414 78.8689 56.748 78.9528 56.8824 79.0586C57.4743 79.5245 58.6058 80.4153 60.3947 80.4153H67.7491C69.681 80.4153 71.1436 81.9761 71.1436 83.7885C71.1436 85.6483 69.6207 87.1616 67.7491 87.1616H55.8685C54.931 87.1616 54.1713 87.9166 54.1713 88.8482C54.1713 89.7798 54.931 90.5348 55.8685 90.5348H67.7491C71.4923 90.5348 74.538 87.5082 74.538 83.7885C74.538 83.4017 74.5035 83.0203 74.4386 82.6448L91.1052 71.7782C91.8981 71.2913 92.8602 71.1774 93.7459 71.4646C94.6369 71.7545 95.3483 72.4166 95.6964 73.2823C96.1863 74.4972 95.8787 75.8576 94.9081 76.7529L74.3186 95.9285C73.3732 96.8008 72.1427 97.2811 70.8532 97.2811H42.9934L29.6125 83.9835L34.6001 79.6465Z" fill="#D9E5F0" fill-opacity="0.41"/>
<rect x="25.2031" y="79.5342" width="32.1792" height="17.9669" rx="8" transform="rotate(45.1282 25.2031 79.5342)" fill="url(#paint0_linear_8143_283650)"/>
<path d="M54.8488 25.7975L52.9932 26.6165L51.1375 27.4354C48.6052 28.8798 46.2985 30.8885 44.2806 33.4098C40.247 38.4497 37.9336 44.8068 37.9336 50.8513C37.9336 63.3905 47.7851 66.3685 60.0026 66.3685C72.2287 66.3685 82.0715 63.3854 82.0715 50.8513C82.0715 44.8068 79.7581 38.4497 75.7246 33.4098C73.7069 30.8888 71.4004 28.8803 68.8685 27.4359L65.1665 25.8008C63.4738 25.2626 61.7474 24.9892 60.0026 24.9892C58.2613 24.9892 56.5382 25.2614 54.8488 25.7975Z" fill="url(#paint1_linear_8143_283650)"/>
<path d="M59.6565 43.1924C58.7095 43.1924 57.9391 42.4219 57.9391 41.475C57.9391 40.7832 58.3507 40.1619 58.9877 39.8921C59.7568 39.5665 60.6771 39.8443 61.5133 40.6545C62.1946 41.3144 63.2818 41.2973 63.9417 40.6161C64.6018 39.9349 64.5845 38.8477 63.9034 38.1877C63.128 37.4365 62.2661 36.9056 61.3739 36.606V34.6053C61.3739 33.6569 60.6049 32.8879 59.6565 32.8879C58.708 32.8879 57.9391 33.6569 57.9391 34.6053V36.6171C57.8416 36.6518 57.7445 36.6884 57.6482 36.7292C55.7384 37.5381 54.5043 39.4009 54.5043 41.475C54.5043 44.3159 56.8155 46.6272 59.6565 46.6272C60.6034 46.6272 61.3739 47.3976 61.3739 48.3446C61.3739 49.0643 60.9199 49.7132 60.2443 49.9593C59.3621 50.2804 58.3352 49.8448 57.427 48.7634C56.817 48.037 55.7338 47.9428 55.0074 48.5528C54.2811 49.1629 54.1869 50.2462 54.7969 50.9724C55.7253 52.0779 56.806 52.8359 57.9392 53.2174V55.2142C57.9392 56.1626 58.7081 56.9316 59.6566 56.9316C60.605 56.9316 61.374 56.1626 61.374 55.2142V53.2022C61.3893 53.1968 61.4047 53.1921 61.4199 53.1866C63.4468 52.4484 64.8087 50.5024 64.8087 48.3446C64.8087 45.5036 62.4974 43.1924 59.6565 43.1924Z" fill="white"/>
<path d="M53.6545 19.4138C52.7516 17.4275 54.2037 15.1724 56.3856 15.1724H63.6193C65.8011 15.1724 67.2532 17.4275 66.3504 19.4138L65.5823 21.1035C64.9333 22.5315 63.5095 23.4483 61.9409 23.4483H58.064C56.4954 23.4483 55.0716 22.5315 54.4225 21.1035L53.6545 19.4138Z" fill="url(#paint2_linear_8143_283650)"/>
<defs>
<linearGradient id="paint0_linear_8143_283650" x1="22.3455" y1="98.5111" x2="57.103" y2="79.4132" gradientUnits="userSpaceOnUse">
<stop stop-color="#05E0E0"/>
<stop offset="1" stop-color="#02C8C8"/>
</linearGradient>
<linearGradient id="paint1_linear_8143_283650" x1="57.9297" y1="18.5619" x2="72.2566" y2="71.5631" gradientUnits="userSpaceOnUse">
<stop stop-color="#FFB74B"/>
<stop offset="1" stop-color="#FCCA80"/>
</linearGradient>
<linearGradient id="paint2_linear_8143_283650" x1="59.2251" y1="13.887" x2="60.8316" y2="25.0301" gradientUnits="userSpaceOnUse">
<stop stop-color="#FFB74B"/>
<stop offset="1" stop-color="#FCCA80"/>
</linearGradient>
</defs>
</svg>
