<svg width="120" height="120" viewBox="0 0 120 120" fill="none" xmlns="http://www.w3.org/2000/svg">
<circle cx="35.1715" cy="43.4483" r="18.6207" fill="url(#paint0_linear_7900_802375)"/>
<circle cx="65.5187" cy="66.8965" r="32.7414" fill="url(#paint1_linear_7900_802375)" stroke="#E1EDF8" stroke-width="9"/>
<path d="M86.7546 66.0334C87.157 66.0334 87.5682 66.023 87.9779 66.0334C89.254 66.0694 89.8444 67.1787 89.138 68.2791C88.2657 69.634 87.3464 70.956 86.4462 72.2929C85.7531 73.3199 85.0688 74.3529 84.3639 75.371C83.659 76.389 82.6119 76.4279 81.9041 75.3964C80.3078 73.0669 78.735 70.7194 77.152 68.3809C76.8083 67.8749 76.6659 67.3329 76.9655 66.767C77.2651 66.2011 77.7644 66.0005 78.3797 66.0319C78.713 66.0499 79.0493 66.0319 79.39 66.0319C78.9494 60.551 75.0696 55.6539 69.6258 54.1059C63.9192 52.4815 57.606 54.6359 54.0933 60.5794C53.6175 59.8833 53.127 59.244 52.7173 58.5523C51.7819 56.9714 50.5468 55.8815 48.6055 55.8575C52.0345 50.0816 59.3668 45.4211 68.2484 46.3179C76.4398 47.1458 85.8221 54.1284 86.7546 66.0334Z" fill="#06C6C6"/>
<path d="M77.4063 73.2297C78.9808 75.1756 79.7753 77.9658 82.9052 77.9224C79.7871 83.2797 72.6139 88.3885 63.3478 87.4784C54.863 86.6461 45.6879 79.5091 44.7627 67.7616C44.3602 67.7616 43.949 67.7511 43.5407 67.7616C42.9429 67.7796 42.4906 67.5371 42.2188 67.0012C41.9471 66.4653 42.072 65.9399 42.401 65.455C43.5231 63.7944 44.6447 62.1319 45.7658 60.4674C46.2372 59.7684 46.6984 59.0618 47.1846 58.3718C47.8778 57.3928 48.9118 57.3898 49.5977 58.3897C51.1942 60.7219 52.7671 63.0674 54.3519 65.4071C54.6956 65.91 54.8424 66.4444 54.5487 67.0192C54.255 67.594 53.7585 67.7961 53.1431 67.7676C52.8053 67.7512 52.4661 67.7676 52.115 67.7676C52.5836 73.336 56.6299 78.2726 61.8614 79.7021C67.6203 81.2739 73.8873 79.1648 77.4063 73.2297Z" fill="#06C6C6"/>
<path d="M67.226 74.0013C67.0129 75.6636 66.6772 76.1522 65.7514 76.1506C64.8255 76.149 64.5143 75.6747 64.2813 73.9918C62.1905 73.3113 61.1435 72.1043 61.1251 70.3436C61.1159 69.3744 61.7704 68.7098 62.6656 68.805C63.3616 68.8796 63.8092 69.2983 63.892 70.0073C63.9824 70.7782 64.3687 71.0526 65.0769 71.0098C65.5613 70.9797 66.0487 71.0098 66.5331 71.0019C67.3839 70.986 67.597 70.7132 67.5954 69.6663C67.5939 68.6194 67.3686 68.3625 66.5071 68.3466C65.8939 68.3339 65.2808 68.3466 64.6676 68.3371C62.7009 68.2895 61.2247 66.8588 61.142 64.8142C61.0893 63.9213 61.1747 63.0255 61.3949 62.1605C61.7367 60.955 62.7285 60.2571 64.2614 59.8209C64.568 58.0587 64.8883 57.613 65.7943 57.6399C66.7002 57.6669 67.0482 58.1872 67.1969 59.6813C67.8591 60.0398 68.5305 60.3063 69.09 60.7298C69.9622 61.3896 70.3623 62.3588 70.3807 63.4771C70.3929 64.2701 69.8917 64.8856 69.185 64.976C68.4063 65.0759 67.7272 64.6239 67.6245 63.8117C67.5218 62.9996 67.1325 62.7204 66.3906 62.7712C65.9077 62.8045 65.4203 62.7712 64.9343 62.7807C64.1311 62.7998 63.915 63.0805 63.9119 64.0766C63.9119 65.1251 64.128 65.4154 64.9634 65.4344C65.5766 65.4487 66.1898 65.4344 66.8029 65.4344C68.8171 65.4772 70.2979 66.9095 70.3607 69.0001C70.4054 69.9199 70.2986 70.8408 70.045 71.7236C69.6786 72.9164 68.8892 73.4335 67.226 74.0013Z" fill="#06C6C6"/>
<path d="M48.6722 13.0258C48.2499 12.0913 48.6525 10.976 49.6108 10.5429C59.0866 6.03793 69.4219 10.4833 73.5219 19.5554C73.8104 20.1936 73.7154 20.8953 73.3348 21.4516C72.9211 21.9954 72.2823 22.2841 71.5905 22.2125L66.9178 21.6616C65.8698 21.5314 65.1221 20.6066 65.2635 19.5819C65.3718 18.5448 66.308 17.8197 67.3457 17.9272C67.6641 17.9641 67.861 17.6004 67.6446 17.3639C63.5783 12.9189 56.9455 11.3456 51.1561 13.962C50.1978 14.3951 49.0946 13.9604 48.6722 13.0258Z" fill="url(#paint2_linear_7900_802375)"/>
<path d="M23.8486 82.143C23.6983 83.1575 22.7563 83.8777 21.716 83.7235C11.3095 82.3863 5.02178 73.0565 6.48116 63.2086C6.58383 62.5157 7.04335 61.9769 7.66434 61.7149C8.30644 61.4814 8.99993 61.5841 9.54302 62.0186L13.1749 65.0097C13.9859 65.6862 14.1145 66.8685 13.4412 67.6537C12.7891 68.4674 11.6094 68.5708 10.7948 67.919C10.547 67.7157 10.1847 67.9152 10.2387 68.2311C11.2541 74.1693 15.9815 79.0806 22.266 80.012C23.3063 80.1661 23.999 81.1285 23.8486 82.143Z" fill="url(#paint3_linear_7900_802375)"/>
<defs>
<linearGradient id="paint0_linear_7900_802375" x1="33.4225" y1="19.0431" x2="47.0485" y2="66.3007" gradientUnits="userSpaceOnUse">
<stop stop-color="#FFB74B"/>
<stop offset="1" stop-color="#FCCA80"/>
</linearGradient>
<linearGradient id="paint1_linear_7900_802375" x1="28.2773" y1="40.2955" x2="95.3678" y2="111.139" gradientUnits="userSpaceOnUse">
<stop stop-color="white"/>
<stop offset="1" stop-color="#E2F1FA"/>
</linearGradient>
<linearGradient id="paint2_linear_7900_802375" x1="52.2857" y1="23.4017" x2="68.4171" y2="6.58459" gradientUnits="userSpaceOnUse">
<stop stop-color="#FFB74B"/>
<stop offset="1" stop-color="#FCCA80"/>
</linearGradient>
<linearGradient id="paint3_linear_7900_802375" x1="26.4225" y1="71.4616" x2="3.75781" y2="76.8791" gradientUnits="userSpaceOnUse">
<stop stop-color="#FFB74B"/>
<stop offset="1" stop-color="#FCCA80"/>
</linearGradient>
</defs>
</svg>
