<svg width="120" height="120" viewBox="0 0 120 120" fill="none" xmlns="http://www.w3.org/2000/svg">
<rect x="6.35938" y="42.0162" width="90" height="65.8537" rx="13.1694" fill="url(#paint0_linear_7938_907895)"/>
<rect x="94.1602" y="36.3683" width="60.7964" height="42.6514" rx="6" transform="rotate(132.407 94.1602 36.3683)" fill="#EDF0FF"/>
<rect opacity="0.5" x="87.8164" y="30.5735" width="60.6278" height="7.63814" transform="rotate(132.407 87.8164 30.5735)" fill="white"/>
<ellipse opacity="0.7" cx="63.7959" cy="26.1745" rx="6.4127" ry="6.41258" transform="rotate(132.407 63.7959 26.1745)" fill="white"/>
<ellipse opacity="0.7" cx="58.3701" cy="32.1159" rx="6.4127" ry="6.41258" transform="rotate(132.407 58.3701 32.1159)" fill="white"/>
<rect x="82.0078" y="28.9662" width="60.7964" height="42.6514" rx="6" transform="rotate(121.929 82.0078 28.9662)" fill="#D4D9F1"/>
<rect opacity="0.5" x="74.7148" y="24.4219" width="60.6278" height="7.63814" transform="rotate(121.929 74.7148 24.4219)" fill="white"/>
<ellipse opacity="0.5" cx="50.2951" cy="24.4651" rx="6.4127" ry="6.41258" transform="rotate(121.929 50.2951 24.4651)" fill="white"/>
<ellipse opacity="0.5" cx="46.0373" cy="31.2943" rx="6.4127" ry="6.41258" transform="rotate(121.929 46.0373 31.2943)" fill="white"/>
<rect x="7" y="42.0162" width="83.4146" height="65.8537" rx="13.1694" fill="url(#paint1_linear_7938_907895)"/>
<path opacity="0.4" d="M7 52.9918C7 46.9302 11.9139 42.0162 17.9756 42.0162H79.439C85.5007 42.0162 90.4146 46.9302 90.4146 52.9918H7Z" fill="url(#paint2_linear_7938_907895)"/>
<path opacity="0.4" d="M7 96.8943C7 102.956 11.9139 107.87 17.9756 107.87H79.439C85.5007 107.87 90.4146 102.956 90.4146 96.8943H7Z" fill="url(#paint3_linear_7938_907895)"/>
<path opacity="0.4" d="M67 74.7855C67 67.9156 72.5691 62.3464 79.439 62.3464H90.4146V87.2245H79.439C72.5691 87.2245 67 81.6553 67 74.7855Z" fill="white"/>
<circle cx="77.9762" cy="75.0484" r="4.39024" fill="white"/>
<path opacity="0.8" d="M52.2296 74.5037C52.4658 74.5037 52.7071 74.4975 52.9476 74.5037C53.6967 74.5248 54.0433 75.176 53.6286 75.8219C53.1166 76.6172 52.577 77.3932 52.0486 78.178C51.6417 78.7809 51.24 79.3873 50.8262 79.9848C50.4124 80.5824 49.7978 80.6053 49.3823 79.9998C48.4453 78.6324 47.5221 77.2544 46.5928 75.8817C46.3911 75.5846 46.3075 75.2665 46.4833 74.9343C46.6592 74.6021 46.9523 74.4844 47.3135 74.5028C47.5091 74.5134 47.7065 74.5028 47.9065 74.5028C47.6479 71.2855 45.3705 68.4109 42.1749 67.5022C38.8251 66.5487 35.1193 67.8133 33.0573 71.3022C32.778 70.8935 32.4901 70.5183 32.2496 70.1123C31.7005 69.1843 30.9755 68.5445 29.8359 68.5304C31.8488 65.14 36.1528 62.4042 41.3664 62.9306C46.1747 63.4166 51.6822 67.5154 52.2296 74.5037Z" fill="white"/>
<path opacity="0.8" d="M46.7423 78.729C47.6665 79.8713 48.1329 81.5091 49.9701 81.4836C48.1398 84.6283 43.9291 87.6272 38.4899 87.093C33.5093 86.6045 28.1236 82.415 27.5804 75.5192C27.3442 75.5192 27.1028 75.5131 26.8631 75.5192C26.5122 75.5298 26.2467 75.3874 26.0872 75.0729C25.9277 74.7583 26.001 74.4499 26.1941 74.1652C26.8528 73.1905 27.5112 72.2146 28.1693 71.2375C28.446 70.8272 28.7167 70.4124 29.0021 70.0074C29.409 69.4327 30.016 69.431 30.4186 70.0179C31.3557 71.3869 32.2791 72.7637 33.2093 74.1371C33.4111 74.4323 33.4973 74.746 33.3248 75.0834C33.1524 75.4208 32.861 75.5394 32.4998 75.5227C32.3015 75.5131 32.1023 75.5227 31.8963 75.5227C32.1713 78.7914 34.5465 81.6892 37.6174 82.5283C40.9979 83.4509 44.6766 82.2129 46.7423 78.729Z" fill="white"/>
<path opacity="0.8" d="M40.7688 79.1819C40.6437 80.1576 40.4467 80.4444 39.9032 80.4435C39.3597 80.4426 39.177 80.1642 39.0403 79.1763C37.8129 78.7768 37.1984 78.0683 37.1876 77.0348C37.1822 76.4659 37.5664 76.0758 38.0919 76.1316C38.5004 76.1754 38.7631 76.4212 38.8117 76.8374C38.8648 77.2899 39.0916 77.451 39.5073 77.4258C39.7916 77.4081 40.0777 77.4258 40.3621 77.4212C40.8615 77.4119 40.9866 77.2517 40.9857 76.6372C40.9848 76.0227 40.8525 75.8718 40.3468 75.8625C39.9869 75.8551 39.6269 75.8625 39.267 75.8569C38.1126 75.829 37.246 74.9892 37.1975 73.789C37.1665 73.2649 37.2167 72.739 37.3459 72.2313C37.5466 71.5237 38.1288 71.114 39.0286 70.8579C39.2085 69.8235 39.3966 69.5619 39.9284 69.5777C40.4602 69.5935 40.6644 69.8989 40.7517 70.776C41.1404 70.9864 41.5345 71.1429 41.863 71.3915C42.375 71.7788 42.6098 72.3477 42.6206 73.0041C42.6278 73.4696 42.3336 73.8309 41.9188 73.884C41.4616 73.9426 41.063 73.6773 41.0027 73.2006C40.9425 72.7238 40.7139 72.56 40.2784 72.5898C39.995 72.6093 39.7088 72.5898 39.4236 72.5953C38.9521 72.6065 38.8252 72.7713 38.8234 73.356C38.8234 73.9715 38.9503 74.1419 39.4407 74.1531C39.8006 74.1614 40.1605 74.1531 40.5205 74.1531C41.7028 74.1782 42.572 75.019 42.6089 76.2461C42.6351 76.7861 42.5725 77.3267 42.4235 77.8448C42.2085 78.545 41.7451 78.8485 40.7688 79.1819Z" fill="white"/>
<path d="M77.0547 94.138C77.0547 82.2796 86.6682 72.6651 98.528 72.6651C103.84 72.6651 108.702 74.5943 112.451 77.7919C117.071 81.7301 120 87.5916 120 94.138C120 105.996 110.387 115.61 98.5279 115.61C95.5736 115.61 92.7584 115.013 90.1962 113.933C82.4744 110.68 77.0547 103.042 77.0547 94.138Z" fill="url(#paint4_linear_7938_907895)"/>
<path d="M94.7302 97.5754C95.9223 96.3733 97.0618 95.2206 98.2047 94.0758C100.883 91.3921 103.56 88.711 106.234 86.0325C107.479 84.7879 109.372 84.9482 110.288 86.3555C110.97 87.4017 110.828 88.6822 109.889 89.6275C107.3 92.2357 104.708 94.8386 102.111 97.4364C100.306 99.2462 98.5007 101.055 96.695 102.864C95.485 104.073 94.0178 104.081 92.8023 102.873C91.092 101.177 89.3907 99.4734 87.6984 97.7615C86.948 97.0058 86.7176 96.0964 87.052 95.0861C87.3864 94.0758 88.1155 93.5218 89.1387 93.3648C89.9842 93.2348 90.7166 93.5286 91.3183 94.1318C92.4355 95.2543 93.5493 96.3812 94.7302 97.5754Z" fill="white"/>
<defs>
<linearGradient id="paint0_linear_7938_907895" x1="-1.6329" y1="111.572" x2="106.005" y2="66.4418" gradientUnits="userSpaceOnUse">
<stop stop-color="#05E0E0"/>
<stop offset="1" stop-color="#22BDBD"/>
</linearGradient>
<linearGradient id="paint1_linear_7938_907895" x1="-0.407477" y1="111.572" x2="101.503" y2="71.9698" gradientUnits="userSpaceOnUse">
<stop stop-color="#05E0E0"/>
<stop offset="1" stop-color="#02C8C8"/>
</linearGradient>
<linearGradient id="paint2_linear_7938_907895" x1="7" y1="47.1382" x2="90.4146" y2="47.1382" gradientUnits="userSpaceOnUse">
<stop stop-color="white"/>
<stop offset="1" stop-color="white" stop-opacity="0"/>
</linearGradient>
<linearGradient id="paint3_linear_7938_907895" x1="7" y1="102.748" x2="90.4146" y2="102.748" gradientUnits="userSpaceOnUse">
<stop stop-color="white"/>
<stop offset="1" stop-color="white" stop-opacity="0"/>
</linearGradient>
<linearGradient id="paint4_linear_7938_907895" x1="100.544" y1="122.28" x2="84.8318" y2="67.7852" gradientUnits="userSpaceOnUse">
<stop stop-color="#FFB74B"/>
<stop offset="1" stop-color="#FCCA80"/>
</linearGradient>
</defs>
</svg>
