<svg width="16" height="17" viewBox="0 0 16 17" fill="none" xmlns="http://www.w3.org/2000/svg">
<g clip-path="url(#clip0_10560_3789)">
<path d="M8.42149 14.9012C8.13882 14.9012 7.85582 14.9012 7.57316 14.9012C7.36882 14.8686 7.16316 14.8419 6.95982 14.8022C3.41916 14.1072 1.57816 10.1029 3.36249 6.9619C3.57482 6.58856 3.84716 6.24923 4.10916 5.8689C3.88182 5.6429 3.62916 5.39156 3.38882 5.1529C3.63749 4.90556 3.88382 4.66023 4.14816 4.39723C4.40749 4.6579 4.67649 4.92823 4.94716 5.20023C5.68282 4.69056 6.49416 4.3719 7.38782 4.27323C7.46382 4.2649 7.46849 4.22123 7.46816 4.16156C7.46649 3.93656 7.46749 3.71156 7.46749 3.48656C7.46749 3.38423 7.46749 3.2819 7.46749 3.16523C7.10116 3.16523 6.75416 3.16523 6.40082 3.16523C6.40082 2.8009 6.40082 2.45123 6.40082 2.10156C7.46549 2.10156 8.53016 2.10156 9.59449 2.10156C9.59449 2.4539 9.59449 2.80656 9.59449 3.1739C9.23216 3.1739 8.88549 3.1739 8.52816 3.1739C8.52816 3.52556 8.52582 3.86223 8.53249 4.1989C8.53316 4.2249 8.59516 4.26756 8.63249 4.2719C9.25716 4.34856 9.85116 4.52623 10.4088 4.81756C10.6322 4.93423 10.8462 5.06923 11.0848 5.2079C11.3475 4.94423 11.6162 4.67456 11.8672 4.42256C12.1145 4.6689 12.3605 4.9139 12.6125 5.1649C12.3708 5.4059 12.1208 5.65523 11.8685 5.90656C11.8962 5.93923 11.9165 5.96456 11.9382 5.98923C13.0662 7.28056 13.5152 8.77623 13.2385 10.4696C12.8882 12.6139 11.2632 14.3116 9.14416 14.7789C8.90582 14.8316 8.66249 14.8609 8.42149 14.9012ZM12.2572 9.57023C12.2718 7.2579 10.3655 5.31923 8.05949 5.30123C5.68349 5.2829 3.75649 7.16923 3.73716 9.5329C3.71782 11.8929 5.61982 13.8209 7.97749 13.8322C10.3322 13.8432 12.2422 11.9409 12.2572 9.57023Z" fill="url(#paint0_radial_10560_3789)"/>
<path d="M4.81479 9.5677C5.87379 9.5677 6.92512 9.5677 7.99179 9.5677C7.99179 8.50203 7.99179 7.44304 7.99179 6.3867C8.94546 6.2307 10.2731 7.0297 10.8225 8.07903C11.4591 9.29437 11.2508 10.7907 10.3085 11.773C9.33846 12.7837 7.86579 13.0547 6.60646 12.4467C5.28012 11.8064 4.77379 10.4817 4.81479 9.5677Z" fill="url(#paint1_radial_10560_3789)"/>
</g>
<defs>
<radialGradient id="paint0_radial_10560_3789" cx="0" cy="0" r="1" gradientUnits="userSpaceOnUse" gradientTransform="translate(0.295524 3.32506) rotate(35.1423) scale(23.1067 27.5047)">
<stop stop-color="#AFB8D1"/>
<stop offset="1" stop-color="#D7DAE2"/>
</radialGradient>
<radialGradient id="paint1_radial_10560_3789" cx="0" cy="0" r="1" gradientUnits="userSpaceOnUse" gradientTransform="translate(3.38931 6.97904) rotate(30.446) scale(13.1261 14.5012)">
<stop stop-color="#AFB8D1"/>
<stop offset="1" stop-color="#E4E6ED"/>
</radialGradient>
<clipPath id="clip0_10560_3789">
<rect width="10.646" height="12.8" fill="white" transform="translate(2.66602 2.10156)"/>
</clipPath>
</defs>
</svg>
