<svg width="16" height="17" viewBox="0 0 16 17" fill="none" xmlns="http://www.w3.org/2000/svg">
<path fill-rule="evenodd" clip-rule="evenodd" d="M2.25168 3.88697C2 4.24555 2 5.31141 2 7.44314V8.49294C2 12.2517 4.82597 14.0757 6.59904 14.8502C7.08001 15.0603 7.32049 15.1654 8 15.1654C8.67951 15.1654 8.91999 15.0603 9.40096 14.8502C11.174 14.0757 14 12.2517 14 8.49294V7.44314C14 5.31141 14 4.24555 13.7483 3.88697C13.4966 3.52839 12.4945 3.18534 10.4901 2.49923L10.1082 2.36851C9.06335 2.01086 8.54093 1.83203 8 1.83203C7.45907 1.83203 6.93666 2.01086 5.89182 2.36851L5.50994 2.49923C3.50555 3.18534 2.50335 3.52839 2.25168 3.88697ZM10.0396 7.49837C10.2236 7.29239 10.2057 6.97631 9.99967 6.7924C9.79369 6.60848 9.47761 6.62637 9.2937 6.83236L7.28571 9.0813L6.7063 8.43236C6.52239 8.22637 6.20631 8.20848 6.00033 8.3924C5.79434 8.57631 5.77645 8.89239 5.96036 9.09837L6.91275 10.165C7.00761 10.2713 7.14328 10.332 7.28571 10.332C7.42815 10.332 7.56382 10.2713 7.65868 10.165L10.0396 7.49837Z" fill="url(#paint0_linear_10560_5729)"/>
<defs>
<linearGradient id="paint0_linear_10560_5729" x1="0.5" y1="1.49609" x2="16" y2="15.4961" gradientUnits="userSpaceOnUse">
<stop stop-color="#00BC3C"/>
<stop offset="1" stop-color="#00EC89"/>
</linearGradient>
</defs>
</svg>
