<svg width="120" height="121" viewBox="0 0 120 121" fill="none" xmlns="http://www.w3.org/2000/svg">
<path d="M75.1953 33.2335C75.3782 33.2335 75.5265 33.0852 75.5265 32.9023C75.5265 32.7194 75.3782 32.5712 75.1953 32.5712L75.1953 33.2335ZM54.0003 38.201L55.9123 34.8893L52.0883 34.8893L54.0003 38.201ZM75.1953 32.5712L56.0383 32.5712L56.0383 33.2335L75.1953 33.2335L75.1953 32.5712ZM53.6691 34.9403L53.6691 35.2205L54.3314 35.2205L54.3314 34.9403L53.6691 34.9403ZM56.0383 32.5712C54.7298 32.5712 53.6691 33.6319 53.6691 34.9403L54.3314 34.9403C54.3314 33.9977 55.0956 33.2335 56.0383 33.2335L56.0383 32.5712Z" fill="#EEF2FC"/>
<rect x="25.2031" y="38.9023" width="64.8" height="45.6" rx="1.2" fill="url(#paint0_linear_10773_180148)"/>
<rect x="27.6016" y="41.3008" width="60" height="40.8" fill="url(#paint1_linear_10773_180148)"/>
<rect x="42.0039" y="77.3008" width="19.2" height="2.4" rx="0.6" fill="#DAE5F6"/>
<rect x="42.0039" y="72.5" width="32.4" height="2.4" rx="0.6" fill="#DAE5F6"/>
<rect x="42.0039" y="44.9023" width="32.4" height="18" rx="0.6" fill="#DAE5F6"/>
<rect x="45.6016" y="49.6992" width="25.2" height="8.4" rx="4.2" fill="#FDFEFE"/>
<rect x="63.6016" y="50.9023" width="6" height="6" rx="3" fill="#DAE5F6"/>
<g filter="url(#filter0_d_10773_180148)">
<path d="M8.40234 68.1424C8.40234 67.3098 8.8339 66.5367 9.54262 66.0997L25.1427 56.4799C25.9149 56.0037 26.8898 56.0037 27.662 56.4799L43.2621 66.0997C43.9708 66.5367 44.4023 67.3098 44.4023 68.1424V86.1037C44.4023 86.968 43.9376 87.7656 43.1856 88.1917L27.5855 97.0315C26.8516 97.4474 25.9531 97.4474 25.2192 97.0315L9.61912 88.1917C8.86712 87.7656 8.40234 86.968 8.40234 86.1037V68.1424Z" fill="white"/>
<path d="M8.40234 68.1424C8.40234 67.3098 8.8339 66.5367 9.54262 66.0997L25.1427 56.4799C25.9149 56.0037 26.8898 56.0037 27.662 56.4799L43.2621 66.0997C43.9708 66.5367 44.4023 67.3098 44.4023 68.1424V86.1037C44.4023 86.968 43.9376 87.7656 43.1856 88.1917L27.5855 97.0315C26.8516 97.4474 25.9531 97.4474 25.2192 97.0315L9.61912 88.1917C8.86712 87.7656 8.40234 86.968 8.40234 86.1037V68.1424Z" fill="url(#paint2_linear_10773_180148)"/>
</g>
<path d="M10.8008 69.5606C10.8008 68.7238 11.2367 67.9474 11.9511 67.5117L25.1512 59.4613C25.9185 58.9933 26.883 58.9933 27.6504 59.4613L40.8504 67.5117C41.5649 67.9474 42.0008 68.7238 42.0008 69.5606V84.5494C42.0008 85.4178 41.5317 86.2185 40.7741 86.643L27.5741 94.0406C26.8452 94.4491 25.9564 94.4491 25.2275 94.0406L12.0274 86.643C11.2699 86.2185 10.8008 85.4178 10.8008 84.5494V69.5606Z" fill="url(#paint3_linear_10773_180148)"/>
<path fill-rule="evenodd" clip-rule="evenodd" d="M16.3418 78.3809C16.7536 78.3779 17.0899 78.712 17.0929 79.1271C17.1048 80.7722 17.6647 82.3348 18.6651 83.717C18.9078 84.0523 18.8349 84.5226 18.5022 84.7673C18.1696 85.012 17.7031 84.9385 17.4604 84.6031C16.2978 82.997 15.616 81.1335 15.6016 79.138C15.5986 78.7229 15.93 78.3839 16.3418 78.3809Z" fill="#17112D"/>
<path fill-rule="evenodd" clip-rule="evenodd" d="M16.3418 78.3809C16.7536 78.3779 17.0899 78.712 17.0929 79.1271C17.1048 80.7722 17.6647 82.3348 18.6651 83.717C18.9078 84.0523 18.8349 84.5226 18.5022 84.7673C18.1696 85.012 17.7031 84.9385 17.4604 84.6031C16.2978 82.997 15.616 81.1335 15.6016 79.138C15.5986 78.7229 15.93 78.3839 16.3418 78.3809Z" fill="url(#paint4_linear_10773_180148)"/>
<path fill-rule="evenodd" clip-rule="evenodd" d="M35.734 73.4885C35.3716 72.0827 34.3134 71.0297 32.8933 70.6741C32.4936 70.574 32.2501 70.1663 32.3494 69.7634C32.4487 69.3604 32.8531 69.1149 33.2528 69.215C35.1972 69.7019 36.676 71.165 37.1774 73.1104C37.281 73.5123 37.0418 73.9226 36.6432 74.027C36.2446 74.1314 35.8376 73.8903 35.734 73.4885Z" fill="#17112D"/>
<path fill-rule="evenodd" clip-rule="evenodd" d="M35.734 73.4885C35.3716 72.0827 34.3134 71.0297 32.8933 70.6741C32.4936 70.574 32.2501 70.1663 32.3494 69.7634C32.4487 69.3604 32.8531 69.1149 33.2528 69.215C35.1972 69.7019 36.676 71.165 37.1774 73.1104C37.281 73.5123 37.0418 73.9226 36.6432 74.027C36.2446 74.1314 35.8376 73.8903 35.734 73.4885Z" fill="url(#paint5_linear_10773_180148)"/>
<path fill-rule="evenodd" clip-rule="evenodd" d="M29.3828 69.1082C29.3797 68.6823 28.9518 68.1777 28.2262 68.1766C27.5032 68.1756 27.0928 68.6732 27.0958 69.0917L27.1321 74.1167C27.1351 74.5319 26.8037 74.8709 26.3919 74.8739C25.9801 74.8769 25.6438 74.5428 25.6408 74.1277L25.5925 67.4276C25.5894 67.0017 25.1615 66.4972 24.4358 66.4961C23.7128 66.495 23.3025 66.9927 23.3055 67.4112L23.3599 74.9487C23.3629 75.3638 23.0314 75.7028 22.6196 75.7059C22.2078 75.7089 21.8716 75.3748 21.8686 74.9596L21.8444 71.6096C21.8413 71.1837 21.4134 70.6792 20.6877 70.6781C19.9647 70.677 19.5544 71.1747 19.5574 71.5932L19.6118 79.1307C19.6349 82.3318 22.6164 85.0899 26.4721 85.0955C30.3251 85.1012 33.2566 82.3575 33.2336 79.1637L33.1973 74.1387C33.1943 73.7128 32.7663 73.2082 32.0407 73.2072C31.3177 73.2061 30.9074 73.7038 30.9104 74.1223L30.9345 77.4723C30.936 77.6728 30.8579 77.8655 30.7177 78.0077C30.5775 78.1499 30.3867 78.2297 30.1878 78.2294C28.4215 78.2269 27.1707 79.4732 27.1804 80.8168C27.1834 81.2319 26.852 81.5709 26.4402 81.5739C26.0284 81.5769 25.6921 81.2428 25.6891 80.8277C25.676 79.0117 26.9262 77.557 28.6018 76.9866C29.0703 76.8271 29.4355 76.4124 29.4319 75.914L29.3828 69.1082Z" fill="#17112D"/>
<path fill-rule="evenodd" clip-rule="evenodd" d="M29.3828 69.1082C29.3797 68.6823 28.9518 68.1777 28.2262 68.1766C27.5032 68.1756 27.0928 68.6732 27.0958 69.0917L27.1321 74.1167C27.1351 74.5319 26.8037 74.8709 26.3919 74.8739C25.9801 74.8769 25.6438 74.5428 25.6408 74.1277L25.5925 67.4276C25.5894 67.0017 25.1615 66.4972 24.4358 66.4961C23.7128 66.495 23.3025 66.9927 23.3055 67.4112L23.3599 74.9487C23.3629 75.3638 23.0314 75.7028 22.6196 75.7059C22.2078 75.7089 21.8716 75.3748 21.8686 74.9596L21.8444 71.6096C21.8413 71.1837 21.4134 70.6792 20.6877 70.6781C19.9647 70.677 19.5544 71.1747 19.5574 71.5932L19.6118 79.1307C19.6349 82.3318 22.6164 85.0899 26.4721 85.0955C30.3251 85.1012 33.2566 82.3575 33.2336 79.1637L33.1973 74.1387C33.1943 73.7128 32.7663 73.2082 32.0407 73.2072C31.3177 73.2061 30.9074 73.7038 30.9104 74.1223L30.9345 77.4723C30.936 77.6728 30.8579 77.8655 30.7177 78.0077C30.5775 78.1499 30.3867 78.2297 30.1878 78.2294C28.4215 78.2269 27.1707 79.4732 27.1804 80.8168C27.1834 81.2319 26.852 81.5709 26.4402 81.5739C26.0284 81.5769 25.6921 81.2428 25.6891 80.8277C25.676 79.0117 26.9262 77.557 28.6018 76.9866C29.0703 76.8271 29.4355 76.4124 29.4319 75.914L29.3828 69.1082Z" fill="url(#paint6_linear_10773_180148)"/>
<g filter="url(#filter1_d_10773_180148)">
<rect x="78.0039" y="23.3008" width="23.8441" height="23.8444" rx="11.9221" fill="url(#paint7_linear_10773_180148)"/>
</g>
<ellipse cx="89.8191" cy="35.2214" rx="10.3348" ry="10.3347" fill="white"/>
<path d="M89.6663 38.5793C89.2546 38.5792 88.8586 38.421 88.5602 38.1373C88.2618 37.8536 88.0838 37.4662 88.0628 37.055L87.7169 30.2857C87.7058 30.0681 87.7391 29.8506 87.8147 29.6463C87.8904 29.442 88.0067 29.2553 88.1568 29.0974C88.3069 28.9395 88.4875 28.8138 88.6876 28.7279C88.8878 28.6419 89.1033 28.5977 89.3212 28.5977H90.0114C90.2292 28.5978 90.4447 28.6421 90.6447 28.7281C90.8448 28.814 91.0253 28.9398 91.1753 29.0977C91.3253 29.2555 91.4416 29.4423 91.5172 29.6465C91.5927 29.8507 91.626 30.0682 91.6149 30.2857L91.2698 37.056C91.2485 37.467 91.0702 37.8541 90.7719 38.1375C90.4736 38.421 90.0778 38.5791 89.6663 38.5793Z" fill="white"/>
<path d="M89.6663 38.5793C89.2546 38.5792 88.8586 38.421 88.5602 38.1373C88.2618 37.8536 88.0838 37.4662 88.0628 37.055L87.7169 30.2857C87.7058 30.0681 87.7391 29.8506 87.8147 29.6463C87.8904 29.442 88.0067 29.2553 88.1568 29.0974C88.3069 28.9395 88.4875 28.8138 88.6876 28.7279C88.8878 28.6419 89.1033 28.5977 89.3212 28.5977H90.0114C90.2292 28.5978 90.4447 28.6421 90.6447 28.7281C90.8448 28.814 91.0253 28.9398 91.1753 29.0977C91.3253 29.2555 91.4416 29.4423 91.5172 29.6465C91.5927 29.8507 91.626 30.0682 91.6149 30.2857L91.2698 37.056C91.2485 37.467 91.0702 37.8541 90.7719 38.1375C90.4736 38.421 90.0778 38.5791 89.6663 38.5793Z" fill="url(#paint8_linear_10773_180148)"/>
<path d="M91.2291 41.1185C91.2291 40.257 90.5307 39.5586 89.6692 39.5586C88.8077 39.5586 88.1094 40.257 88.1094 41.1185C88.1094 41.9799 88.8077 42.6783 89.6692 42.6783C90.5307 42.6783 91.2291 41.9799 91.2291 41.1185Z" fill="white"/>
<path d="M91.2291 41.1185C91.2291 40.257 90.5307 39.5586 89.6692 39.5586C88.8077 39.5586 88.1094 40.257 88.1094 41.1185C88.1094 41.9799 88.8077 42.6783 89.6692 42.6783C90.5307 42.6783 91.2291 41.9799 91.2291 41.1185Z" fill="url(#paint9_linear_10773_180148)"/>
<path d="M82.1702 81.4364C81.0091 80.286 79.7886 79.0868 78.5802 77.8769C75.8116 75.1022 73.0399 72.332 70.288 69.542C68.592 67.8217 68.9684 65.1704 71.0315 64.0885C72.3816 63.3815 73.9008 63.6329 75.0512 64.7772C76.7502 66.4686 78.437 68.1722 80.1253 69.8742C80.2579 70.0083 80.3584 70.1744 80.4026 70.2307C80.9664 69.6319 81.4159 69.0239 81.9904 68.5775C82.6349 68.0777 83.4318 67.9177 84.2577 68.1005C84.6021 68.1767 84.7712 68.1158 84.9068 67.7211C85.5819 65.7601 87.741 64.9159 89.6046 65.8439C89.7387 65.9109 89.8682 65.9856 90.0297 66.0724C90.4122 65.0607 91.0476 64.3049 92.0624 63.962C93.2783 63.5506 94.4882 63.6481 95.4131 64.567C98.0309 67.165 100.633 69.7843 103.145 72.4844C104.339 73.7689 105.081 75.3841 105.604 77.0693C105.66 77.2507 105.598 77.563 105.468 77.6926C100.784 82.3994 96.0912 87.0941 91.3767 91.7705C91.1938 91.9518 90.79 92.0067 90.5051 91.9762C87.8919 91.6958 85.364 91.065 82.9549 89.9969C81.6033 89.398 80.2487 88.8083 78.9017 88.1988C77.5273 87.5771 76.5658 86.0442 76.6847 84.6988C76.834 83.0059 77.8915 81.6574 79.5341 81.3618C80.3737 81.2063 81.2773 81.3983 82.1702 81.4364Z" fill="url(#paint10_linear_10773_180148)"/>
<path d="M107.502 78.273C107.941 78.7529 108.364 79.2375 108.812 79.6977C109.541 80.4474 110.292 81.1757 111.02 81.9269C111.916 82.8518 111.95 84.1364 111.048 85.043C107.051 89.0581 103.042 93.061 99.0269 97.0578C98.2177 97.8623 96.9332 97.94 96.1333 97.1843C94.8503 95.9714 93.6267 94.6944 92.4305 93.4968C97.4315 88.444 102.411 83.4141 107.502 78.273Z" fill="url(#paint11_linear_10773_180148)"/>
<path d="M65.0564 75.0981C65.1295 74.5906 65.1722 74.2173 65.2377 73.8471C65.3291 73.3351 65.6491 73.1004 66.1642 73.1263C66.6838 73.1522 67.0936 73.4859 67.0464 73.9659C66.9215 75.2108 66.766 76.4557 66.5588 77.6884C66.4872 78.109 66.1063 78.3635 65.6522 78.3101C64.4484 78.1684 63.2462 78.013 62.05 77.8225C61.5807 77.7479 61.3125 77.2938 61.3765 76.8458C61.4481 76.3475 61.8108 76.0108 62.2999 76.0123C62.4873 76.0123 62.6732 76.0672 62.8622 76.087C63.0252 76.1037 63.1898 76.1083 63.3086 76.1159C62.821 75.0203 62.2527 73.9644 61.8702 72.8459C59.7796 66.7189 62.7616 59.7203 68.5945 57.0187C68.8764 56.8877 69.361 56.8465 69.5697 57.005C69.8196 57.1924 70.0253 57.6694 69.969 57.9665C69.9126 58.2621 69.5515 58.5775 69.2467 58.7375C66.9855 59.9245 65.2499 61.6266 64.1757 63.9503C62.5011 67.5738 62.7296 71.1272 64.6953 74.583C64.7775 74.7263 64.8857 74.8543 65.0564 75.0981Z" fill="url(#paint12_linear_10773_180148)"/>
<defs>
<filter id="filter0_d_10773_180148" x="7.20236" y="56.1211" width="40.7999" height="46.0226" filterUnits="userSpaceOnUse" color-interpolation-filters="sRGB">
<feFlood flood-opacity="0" result="BackgroundImageFix"/>
<feColorMatrix in="SourceAlpha" type="matrix" values="0 0 0 0 0 0 0 0 0 0 0 0 0 0 0 0 0 0 127 0" result="hardAlpha"/>
<feOffset dx="1.19998" dy="2.39996"/>
<feGaussianBlur stdDeviation="1.19998"/>
<feComposite in2="hardAlpha" operator="out"/>
<feColorMatrix type="matrix" values="0 0 0 0 0.454167 0 0 0 0 0 0 0 0 0 0 0 0 0 0.07 0"/>
<feBlend mode="normal" in2="BackgroundImageFix" result="effect1_dropShadow_10773_180148"/>
<feBlend mode="normal" in="SourceGraphic" in2="effect1_dropShadow_10773_180148" result="shape"/>
</filter>
<filter id="filter1_d_10773_180148" x="74.4237" y="20.4366" width="28.14" height="28.14" filterUnits="userSpaceOnUse" color-interpolation-filters="sRGB">
<feFlood flood-opacity="0" result="BackgroundImageFix"/>
<feColorMatrix in="SourceAlpha" type="matrix" values="0 0 0 0 0 0 0 0 0 0 0 0 0 0 0 0 0 0 127 0" result="hardAlpha"/>
<feOffset dx="-1.43208" dy="-0.716038"/>
<feGaussianBlur stdDeviation="1.07406"/>
<feComposite in2="hardAlpha" operator="out"/>
<feColorMatrix type="matrix" values="0 0 0 0 0 0 0 0 0 0.175 0 0 0 0 0.4375 0 0 0 0.07 0"/>
<feBlend mode="normal" in2="BackgroundImageFix" result="effect1_dropShadow_10773_180148"/>
<feBlend mode="normal" in="SourceGraphic" in2="effect1_dropShadow_10773_180148" result="shape"/>
</filter>
<linearGradient id="paint0_linear_10773_180148" x1="27.8373" y1="92.4328" x2="85.4456" y2="50.4726" gradientUnits="userSpaceOnUse">
<stop stop-color="#F2F4FF"/>
<stop offset="1" stop-color="#D2E0F5"/>
</linearGradient>
<linearGradient id="paint1_linear_10773_180148" x1="27.6016" y1="47.1294" x2="61.1092" y2="99.1614" gradientUnits="userSpaceOnUse">
<stop stop-color="white"/>
<stop offset="1" stop-color="#E2F1FA"/>
</linearGradient>
<linearGradient id="paint2_linear_10773_180148" x1="11.1776" y1="26.9623" x2="18.6095" y2="133.841" gradientUnits="userSpaceOnUse">
<stop stop-color="#FF4B4B"/>
<stop offset="1" stop-color="#FFB6B6"/>
</linearGradient>
<linearGradient id="paint3_linear_10773_180148" x1="10.8008" y1="63.8419" x2="43.1478" y2="93.4449" gradientUnits="userSpaceOnUse">
<stop stop-color="white"/>
<stop offset="1" stop-color="#E2F1FA"/>
</linearGradient>
<linearGradient id="paint4_linear_10773_180148" x1="17.2667" y1="53.768" x2="19.7013" y2="101.204" gradientUnits="userSpaceOnUse">
<stop stop-color="#FF4B4B"/>
<stop offset="1" stop-color="#FFB6B6"/>
</linearGradient>
<linearGradient id="paint5_linear_10773_180148" x1="17.2667" y1="53.768" x2="19.7013" y2="101.204" gradientUnits="userSpaceOnUse">
<stop stop-color="#FF4B4B"/>
<stop offset="1" stop-color="#FFB6B6"/>
</linearGradient>
<linearGradient id="paint6_linear_10773_180148" x1="17.2667" y1="53.768" x2="19.7013" y2="101.204" gradientUnits="userSpaceOnUse">
<stop stop-color="#FF4B4B"/>
<stop offset="1" stop-color="#FFB6B6"/>
</linearGradient>
<linearGradient id="paint7_linear_10773_180148" x1="88.8062" y1="19.5971" x2="97.5305" y2="49.8546" gradientUnits="userSpaceOnUse">
<stop stop-color="#FF4B4B"/>
<stop offset="1" stop-color="#FFB6B6"/>
</linearGradient>
<linearGradient id="paint8_linear_10773_180148" x1="89.4827" y1="27.0472" x2="96.0363" y2="35.9329" gradientUnits="userSpaceOnUse">
<stop stop-color="#FF4B4B"/>
<stop offset="1" stop-color="#FFB6B6"/>
</linearGradient>
<linearGradient id="paint9_linear_10773_180148" x1="89.5227" y1="39.074" x2="90.6642" y2="43.0328" gradientUnits="userSpaceOnUse">
<stop stop-color="#FF4B4B"/>
<stop offset="1" stop-color="#FFB6B6"/>
</linearGradient>
<linearGradient id="paint10_linear_10773_180148" x1="61.2031" y1="77.3055" x2="111.708" y2="77.3055" gradientUnits="userSpaceOnUse">
<stop stop-color="#D2D9EE"/>
<stop offset="1" stop-color="#E7F0F8"/>
</linearGradient>
<linearGradient id="paint11_linear_10773_180148" x1="61.2031" y1="77.3055" x2="111.708" y2="77.3055" gradientUnits="userSpaceOnUse">
<stop stop-color="#D2D9EE"/>
<stop offset="1" stop-color="#E7F0F8"/>
</linearGradient>
<linearGradient id="paint12_linear_10773_180148" x1="61.2031" y1="77.3055" x2="111.708" y2="77.3055" gradientUnits="userSpaceOnUse">
<stop stop-color="#D2D9EE"/>
<stop offset="1" stop-color="#E7F0F8"/>
</linearGradient>
</defs>
</svg>
