<svg width="120" height="120" viewBox="0 0 120 120" fill="none" xmlns="http://www.w3.org/2000/svg">
<path d="M30.3409 51.0347C30.7049 46.5973 34.422 43.2807 38.6434 43.627L96.6055 48.3819C100.827 48.7282 103.954 52.6062 103.59 57.0436L99.9096 101.904C99.5456 106.342 95.8284 109.658 91.6071 109.312L33.645 104.557C29.4237 104.211 26.2967 100.333 26.6608 95.8952L30.3409 51.0347Z" fill="url(#paint0_linear_7911_842748)"/>
<path d="M13 42.2759C13 37.7052 16.7052 34 21.2759 34L84.0345 34C88.6051 34 92.3103 37.7052 92.3103 42.2759L92.3103 88.4828C92.3103 93.0534 88.6051 96.7586 84.0345 96.7586L21.2759 96.7586C16.7052 96.7586 13 93.0534 13 88.4828L13 42.2759Z" fill="url(#paint1_linear_7911_842748)"/>
<path fill-rule="evenodd" clip-rule="evenodd" d="M84.0345 38.1379L21.2759 38.1379C18.9905 38.1379 17.1379 39.9905 17.1379 42.2759L17.1379 88.4828C17.1379 90.7681 18.9905 92.6207 21.2759 92.6207L84.0345 92.6207C86.3198 92.6207 88.1724 90.7681 88.1724 88.4828L88.1724 42.2759C88.1724 39.9905 86.3198 38.1379 84.0345 38.1379ZM21.2759 34C16.7052 34 13 37.7052 13 42.2759L13 88.4828C13 93.0534 16.7052 96.7586 21.2759 96.7586L84.0345 96.7586C88.6051 96.7586 92.3103 93.0534 92.3103 88.4828L92.3103 42.2759C92.3103 37.7052 88.6051 34 84.0345 34L21.2759 34Z" fill="#E1EDF8"/>
<path opacity="0.7" d="M67.0614 69.3477C67.3309 69.3477 67.6063 69.3407 67.8807 69.3477C68.7354 69.3717 69.1307 70.1147 68.6577 70.8517C68.0735 71.7591 67.4578 72.6444 66.8549 73.5398C66.3907 74.2277 65.9324 74.9195 65.4603 75.6013C64.9882 76.2831 64.2869 76.3092 63.8129 75.6184C62.7438 74.0582 61.6905 72.486 60.6302 70.9199C60.4001 70.581 60.3047 70.218 60.5053 69.839C60.706 69.46 61.0404 69.3256 61.4524 69.3467C61.6757 69.3587 61.9009 69.3467 62.1291 69.3467C61.8341 65.6759 59.2356 62.3962 55.5897 61.3594C51.7678 60.2715 47.5397 61.7144 45.1871 65.695C44.8684 65.2287 44.54 64.8006 44.2656 64.3373C43.6391 63.2785 42.8119 62.5486 41.5117 62.5325C43.8082 58.6643 48.7189 55.5429 54.6672 56.1435C60.1532 56.698 66.4369 61.3745 67.0614 69.3477Z" fill="#05A7A7"/>
<path opacity="0.7" d="M60.8023 74.1685C61.8568 75.4717 62.389 77.3404 64.4851 77.3113C62.3968 80.8993 57.5927 84.3208 51.3869 83.7113C45.7044 83.1539 39.5596 78.374 38.9399 70.5063C38.6703 70.5063 38.3949 70.4993 38.1215 70.5063C37.7211 70.5184 37.4182 70.356 37.2362 69.9971C37.0542 69.6382 37.1378 69.2863 37.3582 68.9615C38.1097 67.8494 38.8608 66.7359 39.6117 65.6212C39.9274 65.153 40.2363 64.6798 40.5619 64.2177C41.0262 63.562 41.7187 63.56 42.178 64.2297C43.2472 65.7916 44.3007 67.3625 45.3621 68.9294C45.5923 69.2663 45.6906 69.6242 45.4939 70.0091C45.2972 70.3941 44.9647 70.5294 44.5525 70.5104C44.3263 70.4993 44.0991 70.5104 43.864 70.5104C44.1778 74.2397 46.8877 77.5459 50.3915 78.5033C54.2483 79.5559 58.4455 78.1434 60.8023 74.1685Z" fill="#05A7A7"/>
<path opacity="0.7" d="M53.9884 74.6849C53.8457 75.7982 53.6208 76.1254 53.0008 76.1244C52.3807 76.1233 52.1723 75.8057 52.0162 74.6786C50.6159 74.2228 49.9147 73.4144 49.9024 72.2353C49.8962 71.5862 50.3346 71.1411 50.9342 71.2048C51.4003 71.2547 51.7 71.5352 51.7555 72.01C51.816 72.5263 52.0747 72.7101 52.549 72.6814C52.8735 72.6612 53.1999 72.6814 53.5243 72.6761C54.0941 72.6655 54.2368 72.4828 54.2358 71.7816C54.2348 71.0805 54.0838 70.9084 53.5069 70.8978C53.0962 70.8893 52.6856 70.8978 52.2749 70.8914C50.9578 70.8596 49.9691 69.9014 49.9137 68.532C49.8784 67.9341 49.9356 67.3341 50.0831 66.7548C50.312 65.9474 50.9763 65.48 52.0029 65.1879C52.2082 64.0077 52.4228 63.7091 53.0295 63.7272C53.6362 63.7453 53.8693 64.0937 53.9689 65.0944C54.4124 65.3345 54.862 65.5129 55.2367 65.7966C55.8209 66.2385 56.0888 66.8876 56.1012 67.6365C56.1094 68.1677 55.7737 68.5798 55.3004 68.6404C54.7789 68.7073 54.3241 68.4046 54.2553 67.8607C54.1865 67.3168 53.9257 67.1298 53.4289 67.1638C53.1055 67.1861 52.779 67.1638 52.4536 67.1702C51.9156 67.1829 51.7709 67.3709 51.7688 68.0381C51.7688 68.7402 51.9136 68.9347 52.4731 68.9474C52.8837 68.957 53.2944 68.9474 53.705 68.9474C55.054 68.9761 56.0457 69.9353 56.0878 71.3355C56.1177 71.9515 56.0462 72.5683 55.8763 73.1595C55.631 73.9583 55.1023 74.3046 53.9884 74.6849Z" fill="#05A7A7"/>
<path d="M13 42C13 37.5817 16.5817 34 21 34L84.3103 34C88.7286 34 92.3103 37.5817 92.3103 42L92.3103 47.1034L13 47.1034L13 42Z" fill="url(#paint2_linear_7911_842748)"/>
<rect opacity="0.5" x="19.207" y="38.1381" width="39.3103" height="4.82759" rx="2.41379" fill="white"/>
<path d="M118.954 34.9674C118.699 32.2732 117.841 29.7341 116.526 27.3924C112.566 20.3159 106.622 16.0794 98.4571 15.1719C96.4772 14.9509 94.4879 14.9085 92.4938 15.2518C87.7514 16.0699 83.5701 18.0354 80.1429 21.3927C74.486 26.9316 72.1667 33.6744 73.2651 41.5174C73.8638 45.7868 75.6598 49.5531 78.4176 52.8634C78.9597 53.5122 78.9833 53.5028 78.5684 54.2646C77.5455 56.136 76.268 57.7723 74.3399 58.8067C74.2079 58.8773 74.09 58.9807 73.9863 59.0889C73.5479 59.545 73.6139 60.0904 74.1938 60.3349C74.5992 60.5042 75.0659 60.5888 75.509 60.6076C78.2479 60.7252 80.7982 60.0199 83.1081 58.5951C84.0038 58.045 84.7156 58.0309 85.6018 58.5105C89.5051 60.6123 93.7289 61.28 98.0753 60.9038C104.958 60.3114 110.511 57.1563 114.641 51.6408C117.61 47.6723 118.981 42.3211 119 37C119 35.9279 119.048 36.0301 118.945 34.9721L118.954 34.9674Z" fill="url(#paint3_linear_7911_842748)"/>
<path d="M98.7276 33.4964C99.6157 33.53 99.9758 33.9381 99.9374 34.8358C99.899 35.6952 99.7886 36.5545 99.6494 37.3995C99.1309 40.4961 98.574 43.5831 98.0651 46.6844C97.9402 47.4382 97.9066 48.2159 97.921 48.9793C97.9354 49.7138 98.3435 50.0691 99.0732 49.9491C99.731 49.8386 100.365 49.5746 101.013 49.3825C101.306 49.2961 101.594 49.1617 101.891 49.1329C102.367 49.0801 102.612 49.4114 102.467 49.8674C102.419 50.0259 102.333 50.1795 102.223 50.3091C100.854 51.9222 99.2365 53.06 97.0041 52.9976C96.0487 52.9736 95.0981 52.9304 94.1427 52.9208C92.8417 52.9064 90.6189 50.7556 90.8445 49.1137C91.0894 47.347 91.3198 45.5802 91.5934 43.8183C91.9439 41.5523 92.3376 39.2959 92.7073 37.0298C92.8033 36.4393 92.6208 36.0312 92.0831 35.7768C91.7711 35.628 91.4158 35.5608 91.0749 35.4599C90.7533 35.3639 90.4124 35.3015 90.1052 35.1719C89.7499 35.0231 89.4474 34.7686 89.5291 34.3269C89.6059 33.8996 89.8891 33.5972 90.3212 33.5252C90.7293 33.458 91.147 33.4292 91.5598 33.4196C92.0447 33.4148 97.9978 33.458 98.718 33.4868L98.7276 33.4964Z" fill="white"/>
<path d="M100.808 27.8072C100.808 29.8908 98.9935 31.7487 96.9867 31.7295C95.0183 31.7103 93.1172 29.7804 93.1172 27.7976C93.1172 25.7236 94.9415 23.9857 97.0971 24.0001C99.1759 24.0145 100.813 25.6948 100.808 27.8072Z" fill="white"/>
<defs>
<linearGradient id="paint0_linear_7911_842748" x1="64.9608" y1="36.2583" x2="77.4576" y2="117.006" gradientUnits="userSpaceOnUse">
<stop stop-color="#FFB74B"/>
<stop offset="1" stop-color="#FCCA80"/>
</linearGradient>
<linearGradient id="paint1_linear_7911_842748" x1="13" y1="42.9655" x2="67.3367" y2="115.474" gradientUnits="userSpaceOnUse">
<stop stop-color="white"/>
<stop offset="1" stop-color="#E2F1FA"/>
</linearGradient>
<linearGradient id="paint2_linear_7911_842748" x1="97.9584" y1="50.3247" x2="81.8449" y2="-7.08675" gradientUnits="userSpaceOnUse">
<stop stop-color="#A7ACCA"/>
<stop offset="0.485517" stop-color="#D3D8F0"/>
</linearGradient>
<linearGradient id="paint3_linear_7911_842748" x1="68.9141" y1="63.5893" x2="128.049" y2="45.4446" gradientUnits="userSpaceOnUse">
<stop stop-color="#05E0E0"/>
<stop offset="1" stop-color="#02C8C8"/>
</linearGradient>
</defs>
</svg>
