<svg width="162" height="125" viewBox="0 0 162 125" fill="none" xmlns="http://www.w3.org/2000/svg">
<rect x="90.4727" y="65.106" width="19.7027" height="4.92569" rx="1.40734" fill="url(#paint0_linear_7979_785038)"/>
<rect x="90.4727" y="70.7354" width="19.7027" height="4.92569" rx="1.40734" fill="url(#paint1_linear_7979_785038)"/>
<rect x="90.4727" y="76.3646" width="19.7027" height="4.92569" rx="1.40734" fill="url(#paint2_linear_7979_785038)"/>
<rect x="50" y="22" width="61" height="35" rx="5" fill="url(#paint3_linear_7979_785038)"/>
<path opacity="0.7" d="M90.2129 39.4127C90.4039 39.4127 90.5991 39.4077 90.7936 39.4127C91.3995 39.4297 91.6798 39.9564 91.3444 40.4788C90.9303 41.122 90.4939 41.7496 90.0665 42.3844C89.7374 42.8719 89.4125 43.3624 89.0779 43.8457C88.7432 44.329 88.2462 44.3475 87.9101 43.8578C87.1523 42.7518 86.4056 41.6373 85.654 40.5271C85.4909 40.2869 85.4233 40.0296 85.5655 39.7609C85.7077 39.4923 85.9448 39.397 86.2369 39.412C86.3951 39.4205 86.5548 39.412 86.7165 39.412C86.5074 36.8099 84.6654 34.485 82.081 33.7501C79.3718 32.9789 76.3746 34.0017 74.7069 36.8234C74.481 36.4929 74.2482 36.1894 74.0537 35.861C73.6096 35.1104 73.0232 34.593 72.1016 34.5816C73.7295 31.8395 77.2105 29.6269 81.427 30.0527C85.3159 30.4457 89.7702 33.7607 90.2129 39.4127Z" fill="white"/>
<path opacity="0.7" d="M85.7758 42.83C86.5233 43.7538 86.9005 45.0784 88.3864 45.0578C86.9061 47.6012 83.5006 50.0266 79.1015 49.5945C75.0733 49.1994 70.7175 45.8111 70.2782 40.234C70.0871 40.234 69.8919 40.229 69.6981 40.234C69.4143 40.2425 69.1995 40.1274 69.0705 39.873C68.9415 39.6186 69.0008 39.3691 69.157 39.1389C69.6897 38.3506 70.2222 37.5613 70.7544 36.771C70.9783 36.4392 71.1972 36.1037 71.428 35.7761C71.7571 35.3114 72.248 35.31 72.5736 35.7847C73.3315 36.8918 74.0783 38.0054 74.8307 39.1161C74.9938 39.3549 75.0636 39.6086 74.9241 39.8815C74.7847 40.1544 74.549 40.2503 74.2568 40.2368C74.0965 40.229 73.9354 40.2368 73.7687 40.2368C73.9912 42.8804 75.9122 45.2241 78.3958 45.9028C81.1298 46.6489 84.1051 45.6476 85.7758 42.83Z" fill="white"/>
<path opacity="0.7" d="M80.9433 43.1961C80.8422 43.9853 80.6828 44.2172 80.2432 44.2165C79.8037 44.2157 79.656 43.9906 79.5453 43.1916C78.5527 42.8685 78.0557 42.2955 78.0469 41.4596C78.0426 40.9995 78.3533 40.684 78.7783 40.7292C79.1087 40.7645 79.3212 40.9633 79.3605 41.3C79.4034 41.6659 79.5868 41.7962 79.923 41.7759C80.153 41.7616 80.3844 41.7759 80.6144 41.7721C81.0183 41.7646 81.1194 41.6351 81.1187 41.138C81.118 40.641 81.011 40.5191 80.602 40.5115C80.3109 40.5055 80.0198 40.5115 79.7287 40.507C78.795 40.4844 78.0942 39.8052 78.0549 38.8345C78.0299 38.4106 78.0705 37.9853 78.175 37.5747C78.3373 37.0024 78.8081 36.671 79.5359 36.4639C79.6814 35.6273 79.8335 35.4157 80.2636 35.4285C80.6937 35.4413 80.8589 35.6883 80.9295 36.3977C81.2439 36.5679 81.5626 36.6944 81.8283 36.8954C82.2423 37.2087 82.4323 37.6688 82.441 38.1997C82.4468 38.5762 82.2089 38.8684 81.8734 38.9113C81.5037 38.9588 81.1813 38.7441 81.1325 38.3586C81.0838 37.973 80.8989 37.8405 80.5467 37.8646C80.3175 37.8804 80.086 37.8646 79.8554 37.8691C79.474 37.8781 79.3714 38.0114 79.37 38.4843C79.37 38.9821 79.4726 39.1199 79.8692 39.1289C80.1603 39.1357 80.4514 39.1289 80.7425 39.1289C81.6987 39.1493 82.4017 39.8293 82.4316 40.8218C82.4528 41.2584 82.4021 41.6957 82.2816 42.1147C82.1077 42.681 81.7329 42.9265 80.9433 43.1961Z" fill="white"/>
<path d="M80.4491 20.6323L80.4505 20.6323C82.3177 20.6354 84.2067 20.6354 86.131 20.6354C86.6431 20.6354 87.1006 20.319 87.283 19.8415L87.2983 19.796C87.4667 19.2962 87.2977 18.7432 86.8788 18.4239L86.8774 18.4229C86.3519 18.0214 85.8347 17.6216 85.3301 17.2317C85.0437 17.0103 84.7614 16.7921 84.4839 16.5785L84.4795 16.5751C82.7068 15.2001 81.0581 13.9251 79.3409 12.6985L79.3404 12.6982C77.151 11.1331 74.5577 10.3253 71.5725 10.3253H52.1622H52.1614C44.7304 10.3253 37.0444 10.3253 29.4874 10.3038L29.4808 10.3038C29.0747 10.3008 28.3404 10.3294 27.8072 10.8619C27.277 11.3945 27.2507 12.1222 27.2506 12.5569C27.2844 19.875 27.2844 27.1286 27.2506 34.1116L27.2505 34.1149C27.2476 34.5334 27.2745 35.2704 27.8213 35.8074L27.8229 35.809C28.3677 36.3458 29.102 36.3606 29.5241 36.3518L29.5244 36.3518C29.5892 36.3504 29.656 36.3484 29.732 36.346L29.7353 36.3459C29.8053 36.3438 29.8836 36.3413 29.9625 36.3396C30.6066 36.3196 31.1071 36.3464 31.5451 36.4202C31.9949 36.496 32.3241 36.6136 32.572 36.7021L32.5739 36.7028L32.5753 36.7033C33.5574 37.0551 34.5144 37.3998 35.4498 37.7367C45.3 41.2844 52.7654 43.9732 62.1176 45.0806L62.1186 45.0807C62.3313 45.106 62.5246 45.1192 62.7063 45.1192C64.0353 45.1192 64.9957 44.8884 65.636 44.3032L65.6867 44.2569L65.7359 44.2194L65.7369 44.2186L65.7371 44.2184L65.7388 44.2171L65.7416 44.2149C65.7455 44.2118 65.7513 44.2071 65.7589 44.201C65.7655 44.1956 65.7736 44.189 65.7828 44.1814C65.8226 44.1484 65.8848 44.0954 65.9616 44.0251C66.1174 43.8823 66.3222 43.6784 66.5211 43.4339C66.961 42.8932 67.1766 42.3967 67.1621 42.0306L67.1621 42.0295C67.1165 40.8548 66.6679 39.2086 64.4977 38.0139L64.4967 38.0134C62.3683 36.8399 60.2464 35.6665 58.1218 34.4903L58.1217 34.4902C56.4874 33.5853 54.8536 32.6808 53.2169 31.7763C52.0534 31.1362 51.2725 30.3702 50.7695 29.549C50.2696 28.7328 50.1014 27.9543 50.0266 27.3879L50.0265 27.3868C49.9243 26.6084 49.8941 25.6938 50.0837 24.8233C50.2745 23.9471 50.7258 22.9684 51.7034 22.3416L80.4491 20.6323ZM80.4491 20.6323L80.3286 20.6322C76.0576 20.6292 72.0156 20.6263 67.9187 20.6416L67.9176 20.6416M80.4491 20.6323L67.9176 20.6416M67.9176 20.6416C67.2104 20.6447 63.8379 20.6851 60.3782 20.8886M67.9176 20.6416L60.3782 20.8886M60.3782 20.8886C58.6509 20.9902 56.8743 21.1339 55.3871 21.3387M60.3782 20.8886L55.3871 21.3387M55.3871 21.3387C54.6447 21.4409 53.948 21.5618 53.353 21.7075M55.3871 21.3387L53.353 21.7075M53.353 21.7075C52.799 21.8431 52.182 22.0346 51.7041 22.3411L53.353 21.7075Z" fill="url(#paint4_linear_7979_785038)" stroke="#EAF1F9" stroke-width="3.07855"/>
<path d="M23.8906 38.6566C23.0162 39.5017 21.8986 39.5563 21.4121 39.5563H21.3013C17.582 39.5181 13.6226 39.5154 8.838 39.5508C8.45007 39.5508 7.27086 39.5617 6.34719 38.6703C5.42353 37.7761 5.42969 36.6284 5.42969 36.2495C5.45124 27.4959 5.45124 18.4315 5.42969 9.30987C5.42969 8.93094 5.42969 7.77506 6.35027 6.88089C7.27701 5.98672 8.44391 6.00035 8.83492 6.00035C12.9175 6.03307 17.1479 6.03307 21.4091 6.00035C21.8031 5.99763 22.9824 5.98945 23.906 6.88634C24.8328 7.78597 24.8235 8.93367 24.8204 9.3126C24.7989 12.693 24.802 16.1334 24.805 19.462V22.7715C24.805 23.8947 24.805 25.0178 24.805 26.141C24.7989 29.4151 24.7958 32.8009 24.8235 36.1241C24.8297 36.5657 24.8389 37.7379 23.8906 38.6566Z" fill="#90D7B8"/>
<path d="M23.8906 38.6566C23.0162 39.5017 21.8986 39.5563 21.4121 39.5563H21.3013C17.582 39.5181 13.6226 39.5154 8.838 39.5508C8.45007 39.5508 7.27086 39.5617 6.34719 38.6703C5.42353 37.7761 5.42969 36.6284 5.42969 36.2495C5.45124 27.4959 5.45124 18.4315 5.42969 9.30987C5.42969 8.93094 5.42969 7.77506 6.35027 6.88089C7.27701 5.98672 8.44391 6.00035 8.83492 6.00035C12.9175 6.03307 17.1479 6.03307 21.4091 6.00035C21.8031 5.99763 22.9824 5.98945 23.906 6.88634C24.8328 7.78597 24.8235 8.93367 24.8204 9.3126C24.7989 12.693 24.802 16.1334 24.805 19.462V22.7715C24.805 23.8947 24.805 25.0178 24.805 26.141C24.7989 29.4151 24.7958 32.8009 24.8235 36.1241C24.8297 36.5657 24.8389 37.7379 23.8906 38.6566Z" fill="url(#paint5_linear_7979_785038)"/>
<path fill-rule="evenodd" clip-rule="evenodd" d="M114.899 76.6469C114.959 76.7296 114.843 76.5709 114.899 76.6469C117.981 77.4825 120.846 79.0048 123.256 81.1015L128.486 85.6484L129.753 86.8026C130.641 88.3309 130.996 87.0922 131.668 87.7602L129.184 91.294C129.856 91.962 129.856 93.4762 129.184 94.1441L117.942 101.554C117.27 102.222 117.657 108.561 116.985 107.893L114.112 106.912C113.44 106.244 111.525 105.642 112.197 104.974H109.038H84.2332C82.0546 104.974 79.9756 104.162 78.3724 102.684L57.4963 83.241C55.4979 81.3968 54.8358 78.4671 55.8495 75.9515C56.5822 74.1307 58.0784 72.7373 59.9538 72.1288C61.8299 71.5189 63.8646 71.7661 65.5384 72.8054C65.5491 72.8121 70.1731 75.8273 70.1731 75.8273C70.1747 75.3615 70.1904 76.2954 70.2199 75.8273L73.7639 78.1685C73.7851 78.7072 73.6945 77.6738 73.7639 78.1685L82.0351 83.561C83.3156 81.9846 85.2563 81.0341 87.3804 81.0341H90.8219H93.6607H94.2635H94.8362C95.455 81.0341 95.8244 80.7408 96.2114 80.4334C96.3532 80.3208 96.4975 80.2063 96.6572 80.1036C100.293 77.3957 104.797 75.9041 109.339 75.9041C110.05 75.9041 110.762 75.9408 111.47 76.0123L114.899 76.6469Z" fill="#F5F9FF"/>
<path fill-rule="evenodd" clip-rule="evenodd" d="M114.898 76.6469C114.958 76.7296 114.842 76.5709 114.898 76.6469C117.98 77.4825 120.845 79.0048 123.255 81.1015L128.485 85.6484L129.752 86.7145C130.424 86.0465 130.675 87.4038 131.348 88.0718L129.183 91.294C129.855 91.962 129.855 93.4762 129.183 94.1441L117.941 101.554C117.269 102.222 117.656 108.561 116.984 107.893L114.898 107.231C114.226 106.563 111.806 105.642 112.479 104.974H109.037H84.2321C82.0535 104.974 79.9744 104.162 78.3713 102.684L57.4952 83.241C55.4968 81.3968 54.8347 78.4671 55.8484 75.9515C56.581 74.1307 58.0773 72.7373 59.9527 72.1288C61.8288 71.5189 63.8635 71.7661 65.5373 72.8054C65.548 72.8121 70.172 75.8273 70.172 75.8273C70.1736 75.3615 70.1893 76.2954 70.2188 75.8273L73.7628 78.1685C73.784 78.7072 73.6934 77.6738 73.7628 78.1685L82.034 83.561C83.3145 81.9846 85.2551 81.0341 87.3792 81.0341H90.8208H93.6595H94.2624H94.8351C95.4539 81.0341 95.8233 80.7408 96.2103 80.4334C96.3521 80.3208 96.4963 80.2063 96.6561 80.1036C100.292 77.3957 104.796 75.9041 109.338 75.9041C110.049 75.9041 110.761 75.9408 111.469 76.0123L114.898 76.6469ZM120.989 83.6745C117.755 80.8611 113.601 79.3241 109.338 79.3241C105.535 79.3241 101.765 80.5725 98.7224 82.8389C98.6411 82.8861 98.5331 82.9712 98.3968 83.0785C97.7967 83.5509 96.6495 84.4541 94.8358 84.4541H87.3792C85.4205 84.4541 83.9376 86.0365 83.9376 87.8741C83.9376 89.7597 85.4817 91.294 87.3792 91.294H99.4248C100.375 91.294 101.146 92.0595 101.146 93.004C101.146 93.9485 100.375 94.714 99.4248 94.714H87.3792C83.5841 94.714 80.4961 91.6454 80.4961 87.8741C80.4961 87.482 80.531 87.0952 80.5969 86.7145L63.6988 75.697C62.8949 75.2034 61.9195 75.0878 61.0215 75.3791C60.1181 75.673 59.3968 76.3443 59.0439 77.222C58.5472 78.4537 58.8591 79.8331 59.8432 80.7408L80.7186 100.183C81.6771 101.067 82.9247 101.554 84.2321 101.554H112.479L126.045 88.0718L120.989 83.6745Z" fill="#D9E5F0" fill-opacity="0.41"/>
<rect width="32.626" height="18.2164" rx="2.46284" transform="matrix(-0.705522 0.708688 0.708687 0.705523 130.516 83.5608)" fill="url(#paint6_linear_7979_785038)"/>
<path d="M125.085 103.416C125.132 94.3503 132.519 87.0378 141.586 87.0845C145.647 87.1054 149.356 88.5994 152.21 91.0586C155.726 94.0876 157.942 98.5802 157.917 103.585C157.87 112.651 150.483 119.962 141.417 119.916C139.158 119.904 137.009 119.437 135.054 118.601C129.164 116.084 125.05 110.223 125.085 103.416Z" fill="url(#paint7_linear_7979_785038)"/>
<path d="M138.584 106.113C139.5 105.199 140.376 104.322 141.254 103.452C143.312 101.41 145.369 99.3713 147.424 97.3342C148.38 96.3875 149.827 96.5176 150.522 97.597C151.039 98.3995 150.926 99.3779 150.204 100.097C148.215 102.081 146.222 104.06 144.227 106.036C142.84 107.413 141.453 108.789 140.065 110.164C139.136 111.084 138.014 111.084 137.089 110.156C135.788 108.853 134.495 107.543 133.208 106.228C132.637 105.647 132.464 104.951 132.724 104.18C132.984 103.409 133.543 102.988 134.326 102.872C134.973 102.776 135.532 103.004 135.989 103.467C136.839 104.33 137.686 105.196 138.584 106.113Z" fill="white"/>
<defs>
<linearGradient id="paint0_linear_7979_785038" x1="100.324" y1="65.106" x2="100.324" y2="70.0316" gradientUnits="userSpaceOnUse">
<stop stop-color="#17E0E0"/>
<stop offset="1" stop-color="#13C7C7"/>
</linearGradient>
<linearGradient id="paint1_linear_7979_785038" x1="100.324" y1="70.7354" x2="100.324" y2="75.661" gradientUnits="userSpaceOnUse">
<stop stop-color="#17E0E0"/>
<stop offset="1" stop-color="#13C7C7"/>
</linearGradient>
<linearGradient id="paint2_linear_7979_785038" x1="100.324" y1="76.3646" x2="100.324" y2="81.2903" gradientUnits="userSpaceOnUse">
<stop stop-color="#17E0E0"/>
<stop offset="1" stop-color="#13C7C7"/>
</linearGradient>
<linearGradient id="paint3_linear_7979_785038" x1="77.6352" y1="16.5636" x2="85.3817" y2="63.3879" gradientUnits="userSpaceOnUse">
<stop stop-color="#FFB74B"/>
<stop offset="1" stop-color="#FCCA80"/>
</linearGradient>
<linearGradient id="paint4_linear_7979_785038" x1="25.7109" y1="14.1776" x2="55.0691" y2="65.8726" gradientUnits="userSpaceOnUse">
<stop stop-color="white"/>
<stop offset="1" stop-color="#E2F1FA"/>
</linearGradient>
<linearGradient id="paint5_linear_7979_785038" x1="3.70736" y1="41.4426" x2="30.1495" y2="36.7539" gradientUnits="userSpaceOnUse">
<stop stop-color="#05E0E0"/>
<stop offset="1" stop-color="#02C8C8"/>
</linearGradient>
<linearGradient id="paint6_linear_7979_785038" x1="-2.89729" y1="19.2404" x2="32.3429" y2="-0.122703" gradientUnits="userSpaceOnUse">
<stop stop-color="#05E0E0"/>
<stop offset="1" stop-color="#02C8C8"/>
</linearGradient>
<linearGradient id="paint7_linear_7979_785038" x1="142.932" y1="125.023" x2="131.134" y2="83.3" gradientUnits="userSpaceOnUse">
<stop stop-color="#FFB74B"/>
<stop offset="1" stop-color="#FCCA80"/>
</linearGradient>
</defs>
</svg>
