<svg width="120" height="120" viewBox="0 0 120 120" fill="none" xmlns="http://www.w3.org/2000/svg">
<path d="M4.48935 58.3865C3.88254 56.0014 5.32656 53.5753 7.71465 52.9678L40.5052 44.6255C42.8933 44.0179 45.3211 45.4589 45.9279 47.844L52.0624 71.9566C52.6693 74.3417 51.2252 76.7677 48.8371 77.3753L16.0466 85.7176C13.6585 86.3252 11.2307 84.8842 10.6239 82.4991L4.48935 58.3865Z" fill="#06C6C6"/>
<path d="M23.6021 31.9474C24.2382 27.4212 28.4231 24.2677 32.9492 24.9039L95.0971 33.6382C99.6232 34.2743 102.777 38.4591 102.141 42.9853L95.7099 88.7425C95.0738 93.2686 90.8889 96.4221 86.3628 95.786L24.2149 87.0517C19.6888 86.4156 16.5353 82.2308 17.1714 77.7046L23.6021 31.9474Z" fill="url(#paint0_linear_7900_801011)"/>
<path fill-rule="evenodd" clip-rule="evenodd" d="M94.5212 37.7358L32.3733 29.0015C30.1103 28.6835 28.0178 30.2602 27.6998 32.5233L21.269 78.2805C20.951 80.5436 22.5277 82.636 24.7908 82.954L86.9387 91.6884C89.2017 92.0064 91.2942 90.4297 91.6122 88.1666L98.043 42.4094C98.361 40.1463 96.7843 38.0539 94.5212 37.7358ZM32.9492 24.9039C28.4231 24.2677 24.2382 27.4212 23.6021 31.9474L17.1714 77.7046C16.5353 82.2308 19.6888 86.4156 24.2149 87.0517L86.3628 95.786C90.8889 96.4221 95.0738 93.2686 95.7099 88.7425L102.141 42.9853C102.777 38.4591 99.6232 34.2743 95.0971 33.6382L32.9492 24.9039Z" fill="#E1EDF8"/>
<path opacity="0.7" d="M73.371 66.2798C73.6379 66.3173 73.9116 66.3487 74.1823 66.3938C75.0253 66.5366 75.3134 67.3273 74.7424 67.9913C74.0376 68.8086 73.3047 69.5996 72.5831 70.4024C72.0276 71.0189 71.4775 71.6402 70.9151 72.2497C70.3527 72.8592 69.6547 72.7874 69.2814 72.0373C68.4398 70.3436 67.6155 68.6401 66.7836 66.9416C66.6029 66.574 66.5589 66.2013 66.8103 65.8539C67.0618 65.5065 67.4116 65.42 67.8168 65.4982C68.0362 65.5411 68.2609 65.5606 68.4868 65.5923C68.7055 61.9162 66.5888 58.3068 63.1227 56.7727C59.4894 55.1635 55.1016 56.0038 52.2179 59.6183C51.9673 59.1122 51.7016 58.6425 51.4943 58.1456C51.0213 57.0099 50.3038 56.172 49.0184 55.9751C51.831 52.4641 57.1283 50.0566 62.9351 51.4792C68.2905 52.7918 73.8622 58.2972 73.371 66.2798Z" fill="#05A7A7"/>
<path opacity="0.7" d="M66.5016 70.1825C67.3645 71.6198 67.6314 73.5444 69.7112 73.8073C67.1439 77.0697 61.9103 79.7893 55.8497 78.3221C50.3001 76.9792 44.8803 71.3906 45.3616 63.5133C45.0947 63.4758 44.8229 63.4306 44.5512 63.3994C44.153 63.3556 43.8756 63.1526 43.7454 62.7719C43.6151 62.3912 43.7469 62.0544 44.0103 61.7634C44.9092 60.7667 45.8081 59.7686 46.7068 58.7692C47.0846 58.3495 47.4563 57.9239 47.843 57.5116C48.3941 56.927 49.0801 57.0214 49.4418 57.7484C50.2832 59.4439 51.1078 61.1462 51.9408 62.8456C52.1218 63.2112 52.1694 63.5792 51.921 63.9331C51.6726 64.2869 51.3246 64.3747 50.9191 64.2984C50.6966 64.256 50.47 64.2353 50.2372 64.2026C50.0289 67.9393 52.2524 71.5905 55.5888 73.0262C59.2616 74.6054 63.6146 73.7907 66.5016 70.1825Z" fill="#05A7A7"/>
<path opacity="0.7" d="M59.6813 69.7455C59.385 70.8281 59.1169 71.1208 58.503 71.0334C57.8891 70.9461 57.7269 70.6026 57.7292 69.4647C56.406 68.8185 55.8241 67.9204 55.976 66.751C56.0603 66.1074 56.5563 65.7276 57.1411 65.8741C57.5958 65.9885 57.8536 66.3079 57.8424 66.7858C57.8305 67.3055 58.0611 67.5235 58.5348 67.5611C58.8589 67.5863 59.1794 67.6517 59.5013 67.6916C60.0671 67.7604 60.2338 67.5993 60.3304 66.9049C60.4269 66.2104 60.3014 66.019 59.7316 65.9282C59.3261 65.8626 58.9183 65.8139 58.5125 65.7504C57.2126 65.5355 56.3669 64.4491 56.5026 63.0854C56.5509 62.4883 56.691 61.9021 56.9177 61.349C57.2568 60.5813 57.9796 60.2109 59.0369 60.0645C59.4044 58.9243 59.6585 58.6586 60.2568 58.7609C60.8551 58.8632 61.0374 59.2407 60.9967 60.2455C61.4025 60.545 61.8229 60.7843 62.1545 61.1174C62.6715 61.6363 62.8465 62.3163 62.7545 63.0597C62.6887 63.5868 62.2989 63.9482 61.8218 63.9423C61.296 63.936 60.8878 63.5729 60.8954 63.0247C60.903 62.4766 60.6708 62.2551 60.174 62.2196C59.8506 62.1967 59.5304 62.1292 59.2073 62.0902C58.6728 62.028 58.5033 62.194 58.4084 62.8544C58.3107 63.5497 58.427 63.7624 58.9793 63.8529C59.3846 63.9195 59.7926 63.9672 60.1992 64.0243C61.5311 64.2405 62.3796 65.3284 62.2265 66.7208C62.1704 67.335 62.0137 67.9358 61.7632 68.4976C61.409 69.2545 60.8373 69.5239 59.6813 69.7455Z" fill="#05A7A7"/>
<path d="M23.6405 31.6742C24.2554 27.2989 28.3008 24.2506 32.6761 24.8655L95.3703 33.6766C99.7455 34.2915 102.794 38.3368 102.179 42.7121L101.469 47.7659L22.9303 36.728L23.6405 31.6742Z" fill="url(#paint1_linear_7900_801011)"/>
<rect opacity="0.5" x="30.3242" y="28.7136" width="39.3103" height="4.82759" rx="2.41379" transform="rotate(8 30.3242 28.7136)" fill="white"/>
<path d="M82.0717 65.5176C82.0717 56.3767 89.4822 48.9654 98.6242 48.9654C102.719 48.9654 106.467 50.4525 109.357 52.9173C112.918 55.9531 115.176 60.4713 115.176 65.5176C115.176 74.6585 107.765 82.0688 98.6242 82.0688C96.3469 82.0688 94.1768 81.6089 92.2017 80.7767C86.2495 78.269 82.0717 72.3812 82.0717 65.5176Z" fill="url(#paint2_linear_7900_801011)"/>
<path fill-rule="evenodd" clip-rule="evenodd" d="M91.1137 74.5211C93.4079 76.4344 96.346 77.3998 99.3279 77.2201C102.31 77.0404 105.111 75.7291 107.159 73.5542C108.82 71.7895 109.884 69.5643 110.227 67.192L106.131 66.6009C105.909 68.136 105.221 69.5758 104.146 70.7176C102.821 72.1249 101.008 72.9734 99.079 73.0896C97.1495 73.2059 95.2484 72.5813 93.7639 71.3433C92.2794 70.1053 91.3235 68.3473 91.0913 66.4283C90.8592 64.5093 91.3683 62.574 92.5148 61.0177C93.6613 59.4614 95.3586 58.4015 97.2601 58.0543C99.1617 57.7072 101.124 58.099 102.746 59.1497C104.369 60.2005 105.529 61.831 105.99 63.7082C106.262 64.8179 107.383 65.4966 108.493 65.2241C109.602 64.9517 110.281 63.8312 110.009 62.7215C109.296 59.8203 107.503 57.3005 104.996 55.6766C102.488 54.0527 99.4557 53.4472 96.5169 53.9837C93.5782 54.5202 90.9551 56.1583 89.1832 58.5635C87.4114 60.9687 86.6246 63.9595 86.9833 66.9252C87.3421 69.8909 88.8194 72.6078 91.1137 74.5211Z" fill="url(#paint3_angular_7900_801011)"/>
<circle cx="42" cy="103.448" r="4" fill="url(#paint4_linear_7900_801011)"/>
<circle cx="60" cy="103.448" r="4" fill="url(#paint5_linear_7900_801011)"/>
<circle cx="78" cy="103.448" r="4" fill="url(#paint6_linear_7900_801011)"/>
<defs>
<linearGradient id="paint0_linear_7900_801011" x1="23.5061" y1="32.6303" x2="67.2229" y2="111.995" gradientUnits="userSpaceOnUse">
<stop stop-color="white"/>
<stop offset="1" stop-color="#E2F1FA"/>
</linearGradient>
<linearGradient id="paint1_linear_7900_801011" x1="15.8533" y1="36.4772" x2="47.1631" y2="-6.13917" gradientUnits="userSpaceOnUse">
<stop stop-color="#05E0E0"/>
<stop offset="1" stop-color="#02C8C8"/>
</linearGradient>
<linearGradient id="paint2_linear_7900_801011" x1="100.178" y1="87.2107" x2="88.0666" y2="45.2038" gradientUnits="userSpaceOnUse">
<stop stop-color="#FFB74B"/>
<stop offset="1" stop-color="#FCCA80"/>
</linearGradient>
<radialGradient id="paint3_angular_7900_801011" cx="0" cy="0" r="1" gradientUnits="userSpaceOnUse" gradientTransform="translate(98.6226 65.5172) rotate(6.48307) scale(15.2701)">
<stop stop-color="white"/>
<stop offset="1" stop-color="white" stop-opacity="0"/>
</radialGradient>
<linearGradient id="paint4_linear_7900_801011" x1="41.6243" y1="98.2058" x2="44.5514" y2="108.357" gradientUnits="userSpaceOnUse">
<stop stop-color="#FFB74B"/>
<stop offset="1" stop-color="#FCCA80"/>
</linearGradient>
<linearGradient id="paint5_linear_7900_801011" x1="59.6243" y1="98.2058" x2="62.5514" y2="108.357" gradientUnits="userSpaceOnUse">
<stop stop-color="#FFB74B"/>
<stop offset="1" stop-color="#FCCA80"/>
</linearGradient>
<linearGradient id="paint6_linear_7900_801011" x1="77.6243" y1="98.2058" x2="80.5514" y2="108.357" gradientUnits="userSpaceOnUse">
<stop stop-color="#FFB74B"/>
<stop offset="1" stop-color="#FCCA80"/>
</linearGradient>
</defs>
</svg>
