<svg width="101" height="74" viewBox="0 0 101 74" fill="none" xmlns="http://www.w3.org/2000/svg">
<g id="Frame 1000006563">
<path id="1 bg" d="M1.48935 34.7198C0.882539 32.3347 2.32656 29.9087 4.71465 29.3011L37.5052 20.9588C39.8933 20.3512 42.3211 21.7922 42.9279 24.1773L49.0624 48.2899C49.6693 50.675 48.2252 53.1011 45.8371 53.7086L13.0466 62.0509C10.6585 62.6585 8.23068 61.2175 7.62387 58.8324L1.48935 34.7198Z" fill="#06C6C6"/>
<g id="1">
<path id="Rectangle 6205" d="M20.6021 8.28071C21.2382 3.75456 25.4231 0.601056 29.9492 1.23717L92.0971 9.97148C96.6232 10.6076 99.7767 14.7924 99.1406 19.3186L92.7099 65.0758C92.0738 69.6019 87.8889 72.7554 83.3628 72.1193L21.2149 63.385C16.6888 62.7489 13.5353 58.5641 14.1714 54.0379L20.6021 8.28071Z" fill="url(#paint0_linear_9266_170224)"/>
<path id="Rectangle 6205 (Stroke)" fill-rule="evenodd" clip-rule="evenodd" d="M91.5212 14.0691L29.3733 5.33483C27.1103 5.01677 25.0178 6.59352 24.6998 8.8566L18.269 54.6138C17.951 56.8769 19.5277 58.9693 21.7908 59.2874L83.9387 68.0217C86.2017 68.3397 88.2942 66.763 88.6122 64.4999L95.043 18.7427C95.361 16.4796 93.7843 14.3872 91.5212 14.0691ZM29.9492 1.23717C25.4231 0.601057 21.2382 3.75456 20.6021 8.28071L14.1714 54.0379C13.5353 58.5641 16.6888 62.7489 21.2149 63.385L83.3628 72.1193C87.8889 72.7554 92.0738 69.6019 92.7099 65.0758L99.1406 19.3186C99.7767 14.7924 96.6232 10.6076 92.0971 9.97148L29.9492 1.23717Z" fill="#E1EDF8"/>
<g id="Group 1000002234">
<path id="Vector" opacity="0.7" d="M70.371 42.6131C70.6379 42.6506 70.9116 42.682 71.1823 42.7271C72.0253 42.8699 72.3134 43.6607 71.7424 44.3246C71.0376 45.1419 70.3047 45.9329 69.5831 46.7357C69.0276 47.3522 68.4775 47.9735 67.9151 48.583C67.3527 49.1925 66.6547 49.1207 66.2814 48.3706C65.4398 46.6769 64.6155 44.9734 63.7836 43.2749C63.6029 42.9073 63.5589 42.5346 63.8103 42.1872C64.0618 41.8398 64.4116 41.7533 64.8168 41.8315C65.0362 41.8745 65.2609 41.8939 65.4868 41.9256C65.7055 38.2495 63.5888 34.6401 60.1227 33.106C56.4894 31.4968 52.1016 32.3372 49.2179 35.9516C48.9673 35.4455 48.7016 34.9759 48.4943 34.4789C48.0213 33.3432 47.3038 32.5053 46.0184 32.3084C48.831 28.7974 54.1283 26.3899 59.9351 27.8125C65.2905 29.1251 70.8622 34.6305 70.371 42.6131Z" fill="#05A7A7"/>
<path id="Vector_2" opacity="0.7" d="M63.5016 46.5158C64.3645 47.9531 64.6314 49.8777 66.7112 50.1406C64.1439 53.403 58.9103 56.1226 52.8497 54.6554C47.3001 53.3126 41.8803 47.724 42.3616 39.8467C42.0947 39.8091 41.8229 39.7639 41.5512 39.7328C41.153 39.689 40.8756 39.486 40.7454 39.1052C40.6151 38.7245 40.7469 38.3877 41.0103 38.0967C41.9092 37.1 42.8081 36.1019 43.7068 35.1025C44.0846 34.6828 44.4563 34.2573 44.843 33.8449C45.3941 33.2603 46.0801 33.3547 46.4418 34.0817C47.2832 35.7773 48.1078 37.4795 48.9408 39.1789C49.1218 39.5445 49.1694 39.9126 48.921 40.2664C48.6726 40.6202 48.3246 40.708 47.9191 40.6318C47.6966 40.5894 47.47 40.5686 47.2372 40.5359C47.0289 44.2726 49.2524 47.9238 52.5888 49.3595C56.2616 50.9387 60.6146 50.124 63.5016 46.5158Z" fill="#05A7A7"/>
<path id="Vector_3" opacity="0.7" d="M56.6813 46.0788C56.385 47.1614 56.1169 47.4541 55.503 47.3668C54.8891 47.2794 54.7269 46.9359 54.7292 45.798C53.406 45.1518 52.8241 44.2537 52.976 43.0843C53.0603 42.4407 53.5563 42.0609 54.1411 42.2075C54.5958 42.3218 54.8536 42.6412 54.8424 43.1192C54.8305 43.6388 55.0611 43.8568 55.5348 43.8944C55.8589 43.9196 56.1794 43.985 56.5013 44.0249C57.0671 44.0937 57.2338 43.9326 57.3304 43.2382C57.4269 42.5437 57.3014 42.3523 56.7316 42.2615C56.3261 42.1959 55.9183 42.1472 55.5125 42.0837C54.2126 41.8689 53.3669 40.7824 53.5026 39.4187C53.5509 38.8216 53.691 38.2355 53.9177 37.6823C54.2568 36.9147 54.9796 36.5442 56.0369 36.3978C56.4044 35.2577 56.6585 34.9919 57.2568 35.0942C57.8551 35.1966 58.0374 35.574 57.9967 36.5789C58.4025 36.8783 58.8229 37.1176 59.1545 37.4507C59.6715 37.9696 59.8465 38.6496 59.7545 39.393C59.6887 39.9201 59.2989 40.2816 58.8218 40.2757C58.296 40.2693 57.8878 39.9062 57.8954 39.3581C57.903 38.8099 57.6708 38.5884 57.174 38.5529C56.8506 38.53 56.5304 38.4625 56.2073 38.4235C55.6728 38.3613 55.5033 38.5273 55.4084 39.1877C55.3107 39.883 55.427 40.0957 55.9793 40.1862C56.3846 40.2528 56.7926 40.3005 57.1992 40.3576C58.5311 40.5738 59.3796 41.6617 59.2265 43.0541C59.1704 43.6683 59.0137 44.2691 58.7632 44.8309C58.409 45.5878 57.8373 45.8572 56.6813 46.0788Z" fill="#05A7A7"/>
</g>
<path id="Rectangle 6206" d="M20.6405 8.00753C21.2554 3.63225 25.3008 0.583868 29.6761 1.19877L92.3703 10.0099C96.7455 10.6248 99.7939 14.6701 99.179 19.0454L98.4688 24.0992L19.9303 13.0613L20.6405 8.00753Z" fill="url(#paint1_linear_9266_170224)"/>
<rect id="Rectangle 6208" opacity="0.5" x="27.3242" y="5.04694" width="39.3103" height="4.82759" rx="2.41379" transform="rotate(8 27.3242 5.04694)" fill="white"/>
</g>
</g>
<defs>
<linearGradient id="paint0_linear_9266_170224" x1="20.5061" y1="8.96365" x2="64.2229" y2="88.3283" gradientUnits="userSpaceOnUse">
<stop stop-color="white"/>
<stop offset="1" stop-color="#E2F1FA"/>
</linearGradient>
<linearGradient id="paint1_linear_9266_170224" x1="12.8533" y1="12.8105" x2="44.1631" y2="-29.8059" gradientUnits="userSpaceOnUse">
<stop stop-color="#05E0E0"/>
<stop offset="1" stop-color="#02C8C8"/>
</linearGradient>
</defs>
</svg>
