<svg width="120" height="120" viewBox="0 0 120 120" fill="none" xmlns="http://www.w3.org/2000/svg">
<path d="M21.4838 14.5056C22.8099 14.5056 24.0817 15.0324 25.0194 15.9701C25.957 16.9077 26.4838 18.1795 26.4838 19.5056V23.9056C31.7838 21.7056 38.9838 19.5056 46.4838 19.5056C61.4838 19.5056 61.4838 29.5056 71.4838 29.5056C86.4838 29.5056 91.4838 19.5056 91.4838 19.5056V59.5056C91.4838 59.5056 86.4838 69.5056 71.4838 69.5056C56.4838 69.5056 56.4838 59.5056 46.4838 59.5056C31.4838 59.5056 26.4838 69.5056 26.4838 69.5056V104.506H16.4838V19.5056C16.4838 18.1795 17.0106 16.9077 17.9483 15.9701C18.886 15.0324 20.1577 14.5056 21.4838 14.5056Z" fill="url(#paint0_linear_14250_3536)"/>
<path d="M82.968 72.6924H92.1988V84.5605H104.067V93.7913H92.1988V105.659H82.968V93.7913H71.0999V84.5605H82.968V72.6924Z" fill="#02E1E1"/>
<defs>
<linearGradient id="paint0_linear_14250_3536" x1="94.1766" y1="119.506" x2="95.53" y2="15.9026" gradientUnits="userSpaceOnUse">
<stop stop-color="#F2F4FF"/>
<stop offset="1" stop-color="#D2E0F5"/>
</linearGradient>
</defs>
</svg>
