<svg width="120" height="120" viewBox="0 0 120 120" fill="none" xmlns="http://www.w3.org/2000/svg">
<rect width="47.4559" height="26.1043" transform="matrix(0.781475 -0.623937 0.623936 0.781476 22.9737 38.3878)" fill="url(#paint0_linear_14305_321)"/>
<path d="M22.129 41.4795L67.6675 12.7341L83.6196 38.0055L38.0811 66.7509L22.129 41.4795Z" fill="url(#paint1_linear_14305_321)"/>
<rect width="16.5699" height="8.28494" transform="matrix(0.845621 -0.533783 0.533782 0.845622 61.1814 29.0668)" fill="#C9CEE7"/>
<g filter="url(#filter0_d_14305_321)">
<path d="M10.0002 37.5039H59.0288V90.0347H10.0002V37.5039Z" fill="url(#paint2_linear_14305_321)"/>
</g>
<path d="M43.0771 54.0419H38.8463V53.2817C38.8463 52.0221 37.8132 51.001 36.5386 51.001H33.4617C32.1872 51.001 31.154 52.0221 31.154 53.2817V54.0419H26.9233C25.8612 54.0419 25.0002 54.8929 25.0002 55.9425V57.463C25.0002 57.8829 25.3446 58.2232 25.7694 58.2232H44.231C44.6558 58.2232 45.0002 57.8829 45.0002 57.463V55.9425C45.0002 54.8929 44.1392 54.0419 43.0771 54.0419ZM32.6925 53.2817C32.6925 52.8626 33.0377 52.5214 33.4617 52.5214H36.5386C36.9627 52.5214 37.3079 52.8626 37.3079 53.2817V54.0419H32.6925V53.2817Z" fill="#C4C9E3"/>
<path d="M43.1846 60.1394C42.9129 59.837 42.5394 59.6676 42.1545 59.6676H27.8462C27.4613 59.6676 27.0764 59.837 26.8161 60.1394C26.5557 60.4419 26.4085 60.8532 26.4312 61.2765L27.1218 72.8638C27.2463 74.7025 27.4048 77.001 31.3554 77.001H38.6228C42.5734 77.001 42.7319 74.7146 42.8564 72.8638L43.5695 61.2886C43.5921 60.8532 43.445 60.4419 43.1846 60.1394ZM36.8682 70.9403H33.0987C32.6346 70.9403 32.2497 70.529 32.2497 70.0331C32.2497 69.5371 32.6346 69.1258 33.0987 69.1258H36.8682C37.3323 69.1258 37.7172 69.5371 37.7172 70.0331C37.7172 70.529 37.3323 70.9403 36.8682 70.9403ZM37.8191 66.1015H32.1591C31.695 66.1015 31.3101 65.6902 31.3101 65.1942C31.3101 64.6983 31.695 64.287 32.1591 64.287H37.8191C38.2832 64.287 38.6681 64.6983 38.6681 65.1942C38.6681 65.6902 38.2832 66.1015 37.8191 66.1015Z" fill="#C4C9E3"/>
<path d="M59.0281 37.504H90.5465V90.0348H59.0281V37.504Z" fill="url(#paint3_linear_14305_321)"/>
<g filter="url(#filter1_d_14305_321)">
<path d="M69.5358 76.6508C69.5358 76.4012 69.6652 76.1695 69.8776 76.0385L89.3904 64.0058C89.6219 63.863 89.9141 63.863 90.1456 64.0058L109.658 76.0385C109.871 76.1695 110 76.4012 110 76.6508V99.0966C110 99.3557 109.861 99.5947 109.635 99.7224L90.1227 110.779C89.9027 110.904 89.6334 110.904 89.4134 110.779L69.9005 99.7224C69.6751 99.5947 69.5358 99.3557 69.5358 99.0966V76.6508Z" fill="#FC9F6A"/>
</g>
<path d="M72.6608 78.0299C72.6608 77.7791 72.7914 77.5464 73.0056 77.4158L89.8208 67.1606C90.0508 67.0203 90.3399 67.0203 90.5699 67.1606L107.385 77.4158C107.599 77.5464 107.73 77.7791 107.73 78.0299V97.1474C107.73 97.4076 107.589 97.6476 107.362 97.7749L90.547 107.199C90.3285 107.321 90.0621 107.321 89.8436 107.199L73.0284 97.7749C72.8014 97.6476 72.6608 97.4076 72.6608 97.1474V78.0299Z" fill="url(#paint4_linear_14305_321)"/>
<path d="M88.3045 90.9173C88.3045 90.105 88.5119 89.3965 88.9267 88.7916C89.3587 88.1867 89.9895 87.4868 90.819 86.6918C91.5794 85.9833 92.1411 85.3784 92.504 84.8772C92.8842 84.3587 93.0743 83.7712 93.0743 83.1144C93.0743 82.3195 92.8065 81.6973 92.2707 81.248C91.735 80.7814 91.0264 80.548 90.145 80.548C89.039 80.548 88.244 80.885 87.7601 81.559C87.2935 82.233 87.0602 82.9848 87.0602 83.8144V83.8921H83.8716V83.7884C83.8716 82.5614 84.1309 81.4813 84.6493 80.548C85.1678 79.6148 85.9023 78.8976 86.8528 78.3964C87.8033 77.8952 88.9007 77.6447 90.145 77.6447C91.3548 77.6447 92.4176 77.8693 93.3336 78.3187C94.2668 78.768 94.984 79.3988 95.4852 80.211C95.9864 81.006 96.237 81.9133 96.237 82.933C96.237 83.6588 96.1074 84.3155 95.8481 84.9031C95.5889 85.4734 95.2692 85.966 94.889 86.3808C94.5088 86.7955 94.0249 87.2708 93.4373 87.8065C92.746 88.446 92.2362 88.9903 91.9078 89.4397C91.5794 89.8717 91.4153 90.3643 91.4153 90.9173V91.1506H88.3045V90.9173ZM89.8858 96.413C89.3846 96.413 88.9612 96.2402 88.6156 95.8945C88.2872 95.5489 88.123 95.1341 88.123 94.6502C88.123 94.1663 88.2872 93.7516 88.6156 93.4059C88.9612 93.0603 89.3846 92.8875 89.8858 92.8875C90.387 92.8875 90.8018 93.0603 91.1301 93.4059C91.4758 93.7516 91.6486 94.1663 91.6486 94.6502C91.6486 95.1341 91.4758 95.5489 91.1301 95.8945C90.8018 96.2402 90.387 96.413 89.8858 96.413Z" fill="#FB7F39"/>
<defs>
<filter id="filter0_d_14305_321" x="9.53324" y="32.3676" width="55.5658" height="59.0679" filterUnits="userSpaceOnUse" color-interpolation-filters="sRGB">
<feFlood flood-opacity="0" result="BackgroundImageFix"/>
<feColorMatrix in="SourceAlpha" type="matrix" values="0 0 0 0 0 0 0 0 0 0 0 0 0 0 0 0 0 0 127 0" result="hardAlpha"/>
<feOffset dx="2.80164" dy="-1.86776"/>
<feGaussianBlur stdDeviation="1.63429"/>
<feComposite in2="hardAlpha" operator="out"/>
<feColorMatrix type="matrix" values="0 0 0 0 0.05115 0 0 0 0 0.156921 0 0 0 0 0.33 0 0 0 0.05 0"/>
<feBlend mode="normal" in2="BackgroundImageFix" result="effect1_dropShadow_14305_321"/>
<feBlend mode="normal" in="SourceGraphic" in2="effect1_dropShadow_14305_321" result="shape"/>
</filter>
<filter id="filter1_d_14305_321" x="69.1761" y="63.8987" width="41.9031" height="48.4131" filterUnits="userSpaceOnUse" color-interpolation-filters="sRGB">
<feFlood flood-opacity="0" result="BackgroundImageFix"/>
<feColorMatrix in="SourceAlpha" type="matrix" values="0 0 0 0 0 0 0 0 0 0 0 0 0 0 0 0 0 0 127 0" result="hardAlpha"/>
<feOffset dx="0.35968" dy="0.719359"/>
<feGaussianBlur stdDeviation="0.35968"/>
<feComposite in2="hardAlpha" operator="out"/>
<feColorMatrix type="matrix" values="0 0 0 0 0.454167 0 0 0 0 0 0 0 0 0 0 0 0 0 0.07 0"/>
<feBlend mode="normal" in2="BackgroundImageFix" result="effect1_dropShadow_14305_321"/>
<feBlend mode="normal" in="SourceGraphic" in2="effect1_dropShadow_14305_321" result="shape"/>
</filter>
<linearGradient id="paint0_linear_14305_321" x1="16.763" y1="22.5477" x2="-23.4649" y2="-38.1444" gradientUnits="userSpaceOnUse">
<stop stop-color="#32F7F7"/>
<stop offset="1" stop-color="#02C8C8"/>
</linearGradient>
<linearGradient id="paint1_linear_14305_321" x1="152.226" y1="72.7497" x2="-2.44807" y2="56.9966" gradientUnits="userSpaceOnUse">
<stop offset="0.00147719" stop-color="#F2F4FF"/>
<stop offset="1" stop-color="#D2E0F5"/>
</linearGradient>
<linearGradient id="paint2_linear_14305_321" x1="54.6513" y1="53.2631" x2="-79.6865" y2="85.0912" gradientUnits="userSpaceOnUse">
<stop offset="0.00147719" stop-color="#F2F4FF"/>
<stop offset="1" stop-color="#D2E0F5"/>
</linearGradient>
<linearGradient id="paint3_linear_14305_321" x1="133.884" y1="44.7497" x2="-14.4089" y2="118.583" gradientUnits="userSpaceOnUse">
<stop offset="0.0671222" stop-color="#F2F4FF"/>
<stop offset="0.656127" stop-color="#D2E0F5"/>
</linearGradient>
<linearGradient id="paint4_linear_14305_321" x1="72.6608" y1="72.7126" x2="109.019" y2="105.987" gradientUnits="userSpaceOnUse">
<stop stop-color="white"/>
<stop offset="1" stop-color="#E2F1FA"/>
</linearGradient>
</defs>
</svg>
