<svg width="53" height="41" viewBox="0 0 53 41" fill="none" xmlns="http://www.w3.org/2000/svg">
<g id="Vector">
<path id="Ellipse 653" opacity="0.5" d="M52.6313 23.9895C52.6313 28.402 49.0543 31.979 44.6418 31.979C40.2294 31.979 36.6523 28.402 36.6523 23.9895C36.6523 19.577 40.2294 16 44.6418 16C49.0543 16 52.6313 19.577 52.6313 23.9895Z" fill="#2FB8B8"/>
<path id="Subtract" fill-rule="evenodd" clip-rule="evenodd" d="M35.4644 21.7608C34.5568 21.4759 33.5909 21.3223 32.5892 21.3223C27.2932 21.3223 23 25.6155 23 30.9115C23 36.2075 27.2932 40.5008 32.5892 40.5008C37.1536 40.5008 40.9732 37.3117 41.9413 33.0401C38.0425 31.8784 35.1998 28.2661 35.1998 23.9898C35.1998 23.2219 35.2915 22.4755 35.4644 21.7608ZM32.6707 37.3044C32.4929 37.3044 32.3475 37.2371 32.2343 37.1027C32.1212 36.9772 32.0647 36.8203 32.0647 36.6321V35.7168C31.6189 35.6842 31.2149 35.6084 30.8526 35.4894C30.4244 35.3459 30.0608 35.1801 29.7618 34.9919C29.6164 34.8933 29.5153 34.7723 29.4588 34.6289C29.4022 34.4765 29.382 34.3242 29.3982 34.1718C29.4143 34.0194 29.4628 33.8895 29.5436 33.7819C29.6325 33.6654 29.7416 33.5937 29.8709 33.5668C30.0002 33.5309 30.1496 33.5668 30.3193 33.6744C30.5456 33.8178 30.8405 33.9567 31.2041 34.0911C31.5758 34.2166 32.0202 34.2794 32.5373 34.2794C32.9414 34.2794 33.2686 34.2256 33.5191 34.118C33.7696 34.0105 33.9514 33.8626 34.0645 33.6744C34.1857 33.4861 34.2463 33.271 34.2463 33.029C34.2463 32.8318 34.2059 32.6615 34.1251 32.5181C34.0443 32.3658 33.911 32.2358 33.7251 32.1282C33.5393 32.0117 33.2888 31.9176 32.9737 31.8459L31.6889 31.5367C30.9536 31.3574 30.4042 31.0572 30.0406 30.6359C29.677 30.2146 29.4951 29.6634 29.4951 28.9822C29.4951 28.4534 29.6123 27.9829 29.8466 27.5706C30.081 27.1493 30.4082 26.8132 30.8284 26.5622C31.1874 26.3478 31.5995 26.2086 32.0647 26.1447V25.1909C32.0647 25.0027 32.1212 24.8458 32.2343 24.7203C32.3475 24.5859 32.4929 24.5187 32.6707 24.5187C32.8404 24.5187 32.9818 24.5859 33.0949 24.7203C33.2161 24.8458 33.2767 25.0027 33.2767 25.1909V26.1231C33.5529 26.1543 33.8478 26.2245 34.1615 26.3337C34.5816 26.4771 34.9412 26.6788 35.2402 26.9387C35.3614 27.0462 35.4422 27.1717 35.4826 27.3151C35.523 27.4496 35.527 27.584 35.4947 27.7185C35.4624 27.8439 35.4018 27.9515 35.3129 28.0411C35.224 28.1308 35.1109 28.1845 34.9735 28.2025C34.8443 28.2114 34.6948 28.1621 34.5251 28.0546C34.2908 27.9022 34.0282 27.7812 33.7373 27.6916C33.4464 27.593 33.0989 27.5437 32.6949 27.5437C32.1778 27.5437 31.7697 27.6736 31.4708 27.9336C31.1799 28.1845 31.0344 28.5162 31.0344 28.9285C31.0344 29.2332 31.1233 29.4797 31.3011 29.6679C31.4788 29.8472 31.7818 29.9906 32.2101 30.0981L33.5312 30.4208C34.3069 30.609 34.8766 30.9093 35.2402 31.3216C35.6038 31.7249 35.7856 32.2582 35.7856 32.9215C35.7856 33.4413 35.6684 33.9029 35.4341 34.3062C35.1998 34.7006 34.8766 35.0188 34.4645 35.2608C34.1188 35.4602 33.7229 35.5972 33.2767 35.6719V36.6321C33.2767 36.8203 33.2201 36.9772 33.107 37.1027C32.9939 37.2371 32.8484 37.3044 32.6707 37.3044Z" fill="#2FB8B8"/>
<path id="Subtract_2" fill-rule="evenodd" clip-rule="evenodd" d="M0 0.5H38V9.5H0V0.5ZM0 11.9023H38.007V19.1706C36.3252 18.4183 34.4615 18 32.5 18C25.0442 18 19 24.0442 19 31.5C19 34.0662 19.716 36.4651 20.9591 38.5079H0V11.9023Z" fill="url(#paint0_linear_18477_23280)"/>
</g>
<defs>
<linearGradient id="paint0_linear_18477_23280" x1="40.7136" y1="44.237" x2="-14.3156" y2="-8.59321" gradientUnits="userSpaceOnUse">
<stop stop-color="#A7ACCA"/>
<stop offset="0.485517" stop-color="#D3D8F0"/>
</linearGradient>
</defs>
</svg>
