<svg width="49" height="49" viewBox="0 0 49 49" fill="none" xmlns="http://www.w3.org/2000/svg">
<g id="Vector">
<path id="Subtract" d="M22 13.5H41V23.635L36.4104 28.5889L29.9807 31.1126L26.1711 42.5H22V13.5Z" fill="url(#paint0_linear_18477_23279)"/>
<g id="Vector_2">
<path d="M48.9998 31.345C48.8856 31.5062 48.7882 31.6843 48.6556 31.826C47.7385 32.806 46.8171 33.7805 45.8914 34.7495C45.5015 35.1611 45.1467 35.1676 44.7585 34.7583C42.9283 32.8286 41.0994 30.898 39.2718 28.9666C38.8819 28.555 38.888 28.1852 39.2801 27.7706C40.2132 26.786 41.1473 25.8024 42.0822 24.8201C42.2053 24.6913 42.3635 24.599 42.5055 24.4902H42.8614C43.0352 24.6425 43.2218 24.7842 43.3816 24.9495C45.112 26.7699 46.8397 28.5936 48.5648 30.4207C48.7236 30.5889 48.8556 30.7859 48.9998 30.9699V31.345Z" fill="#2FB8B8"/>
<path d="M26.2637 47.4214C26.5132 46.7644 26.7625 46.1072 27.0117 45.4498C28.4832 41.5691 29.9534 37.6858 31.4223 33.7999C31.5275 33.4896 31.7448 33.236 32.0267 33.0943C34.034 32.0442 36.0391 30.9878 38.042 29.9251C38.1606 29.8621 38.2352 29.8433 38.3444 29.9592C40.1798 31.9054 42.0178 33.8485 43.8584 35.7885C43.8796 35.8103 43.898 35.8344 43.9269 35.8697C43.8985 35.9355 43.8712 36.0055 43.8384 36.0737C42.831 38.2026 41.8236 40.3321 40.8162 42.4622C40.7063 42.7116 40.5088 42.9061 40.2654 43.0044C35.9815 44.8075 31.699 46.6152 27.4177 48.4274C27.3709 48.4468 27.3225 48.4615 27.2167 48.4997C27.2913 48.4074 27.328 48.3574 27.3687 48.3133C29.9575 45.5796 32.5459 42.8456 35.134 40.1114C35.2365 40.0027 35.3167 39.9721 35.4593 40.0315C36.6334 40.5172 37.9857 39.6463 38.1166 38.2845C38.2313 37.088 37.3858 35.9649 36.1527 35.9602C35.8307 35.9554 35.5125 36.0336 35.2256 36.188C34.9387 36.3425 34.6919 36.5685 34.5065 36.8465C34.3211 37.1244 34.2028 37.446 34.1618 37.7832C34.1208 38.1204 34.1584 38.463 34.2713 38.7814C34.3192 38.9149 34.3192 39.0001 34.2156 39.1077C31.6082 41.8544 29.0029 44.6033 26.3996 47.3543C26.3684 47.3867 26.335 47.4167 26.3032 47.4484L26.2637 47.4214Z" fill="#2FB8B8"/>
<path d="M36.1349 38.7656C36.0482 38.7667 35.9621 38.7495 35.8818 38.715C35.8014 38.6805 35.7284 38.6294 35.667 38.5647C35.6057 38.5 35.5571 38.423 35.5243 38.3383C35.4915 38.2535 35.4751 38.1627 35.476 38.0711C35.4739 37.9775 35.4897 37.8845 35.5224 37.7975C35.5552 37.7104 35.6042 37.6313 35.6666 37.5648C35.729 37.4983 35.8035 37.4457 35.8856 37.4102C35.9677 37.3748 36.0557 37.3572 36.1444 37.3585C36.3194 37.3611 36.4866 37.4355 36.6105 37.566C36.7345 37.6965 36.8054 37.8728 36.8083 38.0576C36.8097 38.1512 36.7933 38.2442 36.7599 38.331C36.7265 38.4178 36.6769 38.4966 36.6141 38.5626C36.5512 38.6287 36.4764 38.6807 36.3941 38.7156C36.3117 38.7505 36.2236 38.7675 36.1349 38.7656Z" fill="#2FB8B8"/>
</g>
<path id="Union" fill-rule="evenodd" clip-rule="evenodd" d="M41 0.5H0V10.5H41V0.5ZM20 13.5H0V42.5H20V13.5Z" fill="url(#paint1_linear_18477_23279)"/>
</g>
<defs>
<linearGradient id="paint0_linear_18477_23279" x1="43.8244" y1="48.7442" x2="-15.9933" y2="-6.23499" gradientUnits="userSpaceOnUse">
<stop stop-color="#A7ACCA"/>
<stop offset="0.485517" stop-color="#D3D8F0"/>
</linearGradient>
<linearGradient id="paint1_linear_18477_23279" x1="69" y1="53" x2="63.5329" y2="-6.19855" gradientUnits="userSpaceOnUse">
<stop stop-color="#A7ACCA"/>
<stop offset="0.351936" stop-color="#D3D8F0"/>
</linearGradient>
</defs>
</svg>
