<svg width="24" height="24" viewBox="0 0 24 24" fill="none" xmlns="http://www.w3.org/2000/svg">
<path d="M10.5423 22.597C10.1898 22.547 9.83522 22.5071 9.48472 22.4454C7.7387 22.1366 6.21661 21.3734 4.92007 20.1769C3.36918 18.7449 2.39434 16.9855 2.10348 14.9024C1.66697 11.7735 2.6126 9.08691 4.91926 6.90665C6.28152 5.61897 7.9245 4.8679 9.78248 4.5869C10.0685 4.54376 10.3589 4.52199 10.6478 4.50304C10.8989 4.48691 11.0936 4.64455 11.0981 4.89088C11.1094 5.54036 11.1017 6.18984 11.1017 6.81997C7.51355 7.16709 5.21581 8.96314 4.46815 12.5379C4.13063 15.4334 5.16956 17.7346 7.66568 19.2396C10.1837 20.7574 12.7155 20.5018 15.1897 18.8662C15.1958 18.8787 15.2096 18.9255 15.2376 18.9614C15.5994 19.429 15.965 19.8935 16.326 20.3619C16.5317 20.6288 16.4923 20.8518 16.2084 21.0413C14.8887 21.9221 13.4392 22.4362 11.8526 22.564C11.793 22.5688 11.7346 22.5861 11.6758 22.5974C11.2981 22.597 10.9204 22.597 10.5423 22.597Z" fill="#FE8900"/>
<path d="M10.5423 22.597C10.1898 22.547 9.83522 22.5071 9.48472 22.4454C7.7387 22.1366 6.21661 21.3734 4.92007 20.1769C3.36918 18.7449 2.39434 16.9855 2.10348 14.9024C1.66697 11.7735 2.6126 9.08691 4.91926 6.90665C6.28152 5.61897 7.9245 4.8679 9.78248 4.5869C10.0685 4.54376 10.3589 4.52199 10.6478 4.50304C10.8989 4.48691 11.0936 4.64455 11.0981 4.89088C11.1094 5.54036 11.1017 6.18984 11.1017 6.81997C7.51355 7.16709 5.21581 8.96314 4.46815 12.5379C4.13063 15.4334 5.16956 17.7346 7.66568 19.2396C10.1837 20.7574 12.7155 20.5018 15.1897 18.8662C15.1958 18.8787 15.2096 18.9255 15.2376 18.9614C15.5994 19.429 15.965 19.8935 16.326 20.3619C16.5317 20.6288 16.4923 20.8518 16.2084 21.0413C14.8887 21.9221 13.4392 22.4362 11.8526 22.564C11.793 22.5688 11.7346 22.5861 11.6758 22.5974C11.2981 22.597 10.9204 22.597 10.5423 22.597Z" fill="url(#paint0_linear_17126_4407)"/>
<path d="M13.7581 4.84169C13.7581 4.07046 13.7573 3.29922 13.7585 2.52799C13.7593 2.11516 13.9175 1.97244 14.3321 2.00429C18.1053 2.29335 21.1458 4.97272 21.8651 8.65392C21.9405 9.04055 21.9693 9.43765 21.9981 9.83113C22.0196 10.1218 21.8529 10.2843 21.56 10.2847C20.0688 10.2867 18.5775 10.2871 17.0866 10.2807C17.0193 10.2802 16.9252 10.221 16.8887 10.1617C16.1621 8.96959 15.1702 8.07177 13.898 7.48397C13.7885 7.43317 13.7548 7.37068 13.7557 7.25538C13.7601 6.45108 13.7581 5.64639 13.7581 4.84169Z" fill="#FE8900"/>
<path d="M13.7581 4.84169C13.7581 4.07046 13.7573 3.29922 13.7585 2.52799C13.7593 2.11516 13.9175 1.97244 14.3321 2.00429C18.1053 2.29335 21.1458 4.97272 21.8651 8.65392C21.9405 9.04055 21.9693 9.43765 21.9981 9.83113C22.0196 10.1218 21.8529 10.2843 21.56 10.2847C20.0688 10.2867 18.5775 10.2871 17.0866 10.2807C17.0193 10.2802 16.9252 10.221 16.8887 10.1617C16.1621 8.96959 15.1702 8.07177 13.898 7.48397C13.7885 7.43317 13.7548 7.37068 13.7557 7.25538C13.7601 6.45108 13.7581 5.64639 13.7581 4.84169Z" fill="url(#paint1_linear_17126_4407)"/>
<path d="M17.7913 12.8298C17.8801 12.8298 17.9463 12.8298 18.0124 12.8298C19.1584 12.8298 20.3041 12.8294 21.4501 12.8302C21.8842 12.8306 22.0257 13.0011 21.9803 13.4301C21.7799 15.3237 20.9706 16.9081 19.5491 18.1837C19.2696 18.4349 19.0481 18.4147 18.8173 18.12C18.3373 17.5068 17.8574 16.8936 17.3852 16.2743C17.3386 16.2131 17.309 16.0966 17.3349 16.03C17.7122 15.0653 17.868 14.0695 17.7913 13.0378C17.7877 12.9782 17.7913 12.9181 17.7913 12.8298Z" fill="#FE8900"/>
<path d="M17.7913 12.8298C17.8801 12.8298 17.9463 12.8298 18.0124 12.8298C19.1584 12.8298 20.3041 12.8294 21.4501 12.8302C21.8842 12.8306 22.0257 13.0011 21.9803 13.4301C21.7799 15.3237 20.9706 16.9081 19.5491 18.1837C19.2696 18.4349 19.0481 18.4147 18.8173 18.12C18.3373 17.5068 17.8574 16.8936 17.3852 16.2743C17.3386 16.2131 17.309 16.0966 17.3349 16.03C17.7122 15.0653 17.868 14.0695 17.7913 13.0378C17.7877 12.9782 17.7913 12.9181 17.7913 12.8298Z" fill="url(#paint2_linear_17126_4407)"/>
<path fill-rule="evenodd" clip-rule="evenodd" d="M11.189 18.9938C14.2362 18.9833 16.7057 16.5214 16.7053 13.4947C16.7049 10.4604 14.2133 7.98672 11.1678 7.99809C8.11567 8.00945 5.63184 10.4917 5.64655 13.5163C5.66126 16.5384 8.15652 19.0044 11.189 18.9938ZM10.9038 16.7779C10.9712 16.8501 11.0577 16.8862 11.1635 16.8862C11.2694 16.8862 11.3559 16.8501 11.4233 16.7779C11.4906 16.7106 11.5243 16.6264 11.5243 16.5254V16.0102C11.7899 15.9701 12.0256 15.8965 12.2313 15.7896C12.4766 15.6597 12.669 15.4889 12.8085 15.2773C12.948 15.0609 13.0177 14.8132 13.0177 14.5342C13.0177 14.1783 12.9095 13.8921 12.693 13.6757C12.4766 13.4544 12.1375 13.2933 11.6758 13.1923L10.8894 13.0192C10.6345 12.9614 10.4541 12.8845 10.3483 12.7883C10.2425 12.6873 10.1896 12.555 10.1896 12.3915C10.1896 12.1702 10.2762 11.9923 10.4493 11.8576C10.6273 11.7181 10.8702 11.6484 11.178 11.6484C11.4185 11.6484 11.6253 11.6748 11.7984 11.7277C11.9716 11.7758 12.1279 11.8408 12.2674 11.9225C12.3684 11.9803 12.4574 12.0067 12.5343 12.0019C12.6161 11.9923 12.6834 11.9634 12.7363 11.9153C12.7892 11.8672 12.8253 11.8095 12.8445 11.7422C12.8638 11.67 12.8614 11.5979 12.8373 11.5257C12.8133 11.4488 12.7652 11.3814 12.693 11.3237C12.5151 11.1843 12.301 11.076 12.0509 10.9991C11.8642 10.9405 11.6887 10.9028 11.5243 10.8861V10.3858C11.5243 10.2848 11.4882 10.2007 11.4161 10.1333C11.3487 10.0612 11.2646 10.0251 11.1635 10.0251C11.0577 10.0251 10.9712 10.0612 10.9038 10.1333C10.8365 10.2007 10.8028 10.2848 10.8028 10.3858V10.8977C10.5259 10.932 10.2806 11.0067 10.0669 11.1217C9.81683 11.2564 9.62204 11.4368 9.48256 11.6628C9.34307 11.8841 9.27333 12.1366 9.27333 12.4203C9.27333 12.7859 9.38155 13.0817 9.59799 13.3077C9.81443 13.5338 10.1415 13.6949 10.5792 13.7911L11.3439 13.957C11.5315 13.9955 11.6806 14.046 11.7912 14.1086C11.9018 14.1663 11.9812 14.236 12.0293 14.3178C12.0774 14.3947 12.1014 14.4861 12.1014 14.5919C12.1014 14.7218 12.0654 14.8372 11.9932 14.9382C11.9259 15.0392 11.8177 15.1186 11.6686 15.1763C11.5195 15.234 11.3247 15.2629 11.0842 15.2629C10.7764 15.2629 10.5118 15.2292 10.2906 15.1619C10.0741 15.0897 9.8986 15.0152 9.76392 14.9382C9.66292 14.8805 9.57394 14.8613 9.49698 14.8805C9.42003 14.8949 9.3551 14.9334 9.30219 14.9959C9.25409 15.0537 9.22524 15.1234 9.21562 15.2052C9.206 15.2869 9.21802 15.3687 9.25169 15.4505C9.28536 15.5274 9.34548 15.5924 9.43205 15.6453C9.61001 15.7463 9.82645 15.8352 10.0814 15.9122C10.297 15.9761 10.5375 16.0168 10.8028 16.0342V16.5254C10.8028 16.6264 10.8365 16.7106 10.9038 16.7779Z" fill="#2FB8B8"/>
<defs>
<linearGradient id="paint0_linear_17126_4407" x1="10.7391" y1="22.6879" x2="14.0988" y2="1.67336" gradientUnits="userSpaceOnUse">
<stop stop-color="#D0D4EC"/>
<stop offset="1" stop-color="#E5EBF6"/>
</linearGradient>
<linearGradient id="paint1_linear_17126_4407" x1="10.7391" y1="22.6879" x2="14.0988" y2="1.67336" gradientUnits="userSpaceOnUse">
<stop stop-color="#D0D4EC"/>
<stop offset="1" stop-color="#E5EBF6"/>
</linearGradient>
<linearGradient id="paint2_linear_17126_4407" x1="10.7391" y1="22.6879" x2="14.0988" y2="1.67336" gradientUnits="userSpaceOnUse">
<stop stop-color="#D0D4EC"/>
<stop offset="1" stop-color="#E5EBF6"/>
</linearGradient>
</defs>
</svg>
