<svg width="49" height="48" viewBox="0 0 49 48" fill="none" xmlns="http://www.w3.org/2000/svg">
<path fill-rule="evenodd" clip-rule="evenodd" d="M33.786 38.633C33.1139 38.7493 32.4218 38.8101 31.715 38.8101H11.2946C6.4612 38.8101 2.54297 35.0221 2.54297 30.3494C2.54297 25.6768 6.4612 21.8888 11.2946 21.8888C11.8748 21.8888 12.4418 21.9434 12.9904 22.0475C12.5226 20.8268 12.267 19.5065 12.267 18.1285C12.267 11.8983 17.4913 6.84766 23.9358 6.84766C29.9388 6.84766 34.8831 11.2299 35.5324 16.8658C38.7967 17.9578 41.4037 20.4112 42.6268 23.5236C41.4569 22.9458 40.1396 22.6211 38.7465 22.6211C33.9009 22.6211 29.9727 26.5493 29.9727 31.395C29.9727 34.3997 31.483 37.0516 33.786 38.633Z" fill="url(#paint0_linear_17138_11939)"/>
<circle cx="38.7445" cy="31.3969" r="7.75624" fill="#D9D9D9"/>
<circle cx="38.7445" cy="31.3969" r="7.75624" fill="#C9CEE7"/>
<path d="M38.6912 35.9429C38.1305 35.9429 37.684 35.5048 37.684 34.952C37.684 34.3991 38.1305 33.9715 38.6912 33.9715C39.2519 33.9715 39.7088 34.4096 39.7088 34.952C39.7088 35.4944 39.2519 35.9429 38.6912 35.9429ZM39.7296 32.3965C39.7088 32.6572 39.5946 32.8971 39.4077 33.0849C39.2104 33.2622 38.9508 33.3561 38.6808 33.3561C38.4109 33.3561 38.1617 33.2622 37.9644 33.0849C37.7671 32.8971 37.6529 32.6572 37.6425 32.3965L37.4141 28.1303C37.4141 27.9947 37.4348 27.8487 37.4764 27.7235C37.5283 27.5984 37.601 27.4732 37.7048 27.3793C37.7982 27.275 37.9125 27.202 38.0474 27.1499C38.1824 27.0873 38.3174 27.0664 38.4628 27.0664H38.9093C39.0546 27.0664 39.1896 27.0873 39.3246 27.1499C39.4492 27.202 39.5634 27.275 39.6673 27.3793C39.7607 27.4732 39.8334 27.5984 39.8853 27.7235C39.9372 27.8487 39.958 27.9947 39.9476 28.1303L39.7296 32.3965Z" fill="white"/>
<defs>
<linearGradient id="paint0_linear_17138_11939" x1="20.3884" y1="38.9505" x2="24.3923" y2="5.99376" gradientUnits="userSpaceOnUse">
<stop stop-color="#D0D4EC"/>
<stop offset="1" stop-color="#E5EBF6"/>
</linearGradient>
</defs>
</svg>
