<svg width="105" height="103" viewBox="0 0 105 103" fill="none" xmlns="http://www.w3.org/2000/svg">
<path d="M30.8168 15.898L26.1389 20.851H9.73499C7.81082 20.851 6.25098 22.4109 6.25098 24.335V72.2401C6.25098 74.1643 7.81082 75.7242 9.73499 75.7242H51.7954C51.6291 74.5556 51.5431 73.3611 51.5431 72.1466C51.5431 58.2481 62.8101 46.9811 76.7086 46.9811C77.0316 46.9811 77.3531 46.9872 77.6732 46.9992V24.335C77.6732 22.4109 76.1133 20.851 74.1892 20.851H58.0756L53.1047 15.8801C52.9414 15.7168 52.7198 15.625 52.4888 15.625H31.45C31.2103 15.625 30.9813 15.7237 30.8168 15.898Z" fill="#D9E5F8"/>
<path d="M41.9637 33.9161C38.8417 33.9161 36.3021 36.4557 36.3021 39.5776C36.3021 42.6995 38.8417 45.2391 41.9637 45.2391C45.0856 45.2391 47.6252 42.6995 47.6252 39.5776C47.6252 36.4557 45.0856 33.9161 41.9637 33.9161ZM41.9637 48.4743C35.7036 48.4743 30.6406 51.0139 30.6406 54.1358V56.5621H53.2867V54.1358C53.2867 51.0139 48.2237 48.4743 41.9637 48.4743Z" fill="white"/>
<g filter="url(#filter0_d_14272_3388)">
<path d="M53.125 71.8756C53.125 59.7948 62.9186 50 75.0006 50C80.4122 50 85.3651 51.9654 89.1849 55.2229C93.8912 59.235 96.875 65.2064 96.875 71.8756C96.875 83.9564 87.0814 93.75 75.0006 93.75C71.9909 93.75 69.123 93.1422 66.5128 92.0423C58.6463 88.7281 53.125 80.9467 53.125 71.8756Z" fill="white"/>
<path fill-rule="evenodd" clip-rule="evenodd" d="M56.3691 71.8712C56.3691 61.5797 64.7125 53.2356 75.0055 53.2356C79.6157 53.2356 83.8352 54.9099 87.0894 57.685C91.0988 61.1029 93.6408 66.1898 93.6408 71.8712C93.6408 82.1627 85.2974 90.5057 75.0055 90.5057C72.4414 90.5057 69.9982 89.9879 67.7745 89.051C61.0729 86.2276 56.3691 79.5987 56.3691 71.8712ZM81.3024 81.2456L84.3751 78.1736L78.0751 71.875L84.3751 65.5764L81.3024 62.5044L75.0023 68.803L68.6979 62.5L65.6251 65.572L71.9296 71.875L65.6251 78.178L68.6979 81.25L75.0023 74.947L81.3024 81.2456Z" fill="#FF5858"/>
</g>
<defs>
<filter id="filter0_d_14272_3388" x="45.7726" y="44.3202" width="61.8" height="61.8" filterUnits="userSpaceOnUse" color-interpolation-filters="sRGB">
<feFlood flood-opacity="0" result="BackgroundImageFix"/>
<feColorMatrix in="SourceAlpha" type="matrix" values="0 0 0 0 0 0 0 0 0 0 0 0 0 0 0 0 0 0 127 0" result="hardAlpha"/>
<feOffset dx="1.67258" dy="3.34517"/>
<feGaussianBlur stdDeviation="2.95"/>
<feComposite in2="hardAlpha" operator="out"/>
<feColorMatrix type="matrix" values="0 0 0 0 0.00616667 0 0 0 0 0 0 0 0 0 0.308333 0 0 0 0.07 0"/>
<feBlend mode="normal" in2="BackgroundImageFix" result="effect1_dropShadow_14272_3388"/>
<feBlend mode="normal" in="SourceGraphic" in2="effect1_dropShadow_14272_3388" result="shape"/>
</filter>
</defs>
</svg>
