<svg width="120" height="120" viewBox="0 0 120 120" fill="none" xmlns="http://www.w3.org/2000/svg">
<path d="M7.76562 51.0143C7.76562 43.2823 14.0336 37.0143 21.7656 37.0143H90.8057C98.5377 37.0143 104.806 43.2823 104.806 51.0143V86.0052C104.806 93.7372 98.5377 100.005 90.8057 100.005H21.7656C14.0336 100.005 7.76562 93.7372 7.76562 86.0052V51.0143Z" fill="url(#paint0_linear_7920_779556)"/>
<rect x="17.5586" y="23.9999" width="67.399" height="48.0167" rx="10" transform="rotate(7.8439 17.5586 23.9999)" fill="#06C6C6"/>
<rect x="17.0195" y="32.4637" width="76.2354" height="48.0167" rx="11.7253" transform="rotate(-3.35674 17.0195 32.4637)" fill="url(#paint1_linear_7920_779556)"/>
<rect opacity="0.5" x="16" y="43.5276" width="77.3247" height="8.8078" transform="rotate(-3.35674 16 43.5276)" fill="white"/>
<ellipse opacity="0.7" cx="32.9616" cy="64.5435" rx="7.24512" ry="7.24512" transform="rotate(-3.35674 32.9616 64.5435)" fill="white"/>
<ellipse opacity="0.7" cx="42.0358" cy="64.0098" rx="7.24512" ry="7.24512" transform="rotate(-3.35674 42.0358 64.0098)" fill="white"/>
<path d="M7.72656 48.6817C7.72656 42.0543 13.0991 36.6818 19.7266 36.6818H27.2658C29.2471 36.6818 31.1977 37.1724 32.9433 38.1098L47.4811 45.9172C51.0862 47.8533 55.4295 47.8187 59.0034 45.8256L72.6744 38.2014C74.4612 37.2049 76.4732 36.6818 78.5192 36.6818H85.9568C92.5842 36.6818 97.9568 42.0543 97.9568 48.6818V87.6727C97.9568 94.3001 92.5842 99.6727 85.9568 99.6727H19.7266C13.0991 99.6727 7.72656 94.3001 7.72656 87.6727V48.6817Z" fill="url(#paint2_linear_7920_779556)"/>
<path opacity="0.4" d="M7.76562 87.2368C7.76562 94.2886 13.4822 100.005 20.5341 100.005H85.2274C92.2792 100.005 97.9958 94.2886 97.9958 87.2368H7.76562Z" fill="url(#paint3_linear_7920_779556)"/>
<path fill-rule="evenodd" clip-rule="evenodd" d="M52.7987 80.2073C59.8352 80.1828 65.5378 74.4652 65.5369 67.4361C65.5359 60.3891 59.7824 54.6442 52.7496 54.6706C45.7018 54.697 39.9662 60.4617 40.0002 67.4861C40.0341 74.5048 45.7961 80.2318 52.7987 80.2073ZM52.1402 75.0611C52.2957 75.2286 52.4956 75.3124 52.7399 75.3124C52.9843 75.3124 53.1842 75.2286 53.3397 75.0611C53.4952 74.9047 53.5729 74.7092 53.5729 74.4746V73.278C54.1862 73.1849 54.7304 73.0141 55.2056 72.7656C55.772 72.464 56.2163 72.0675 56.5383 71.576C56.8604 71.0733 57.0215 70.4981 57.0215 69.8502C57.0215 69.0236 56.7716 68.359 56.2718 67.8563C55.772 67.3425 54.989 66.9683 53.9228 66.7337L52.1068 66.3316C51.5182 66.1976 51.1017 66.0189 50.8574 65.7955C50.613 65.5609 50.4908 65.2537 50.4908 64.8739C50.4908 64.3601 50.6908 63.9468 51.0906 63.634C51.5015 63.3101 52.0624 63.1481 52.7732 63.1481C53.3286 63.1481 53.8061 63.2096 54.206 63.3324C54.6058 63.4441 54.9668 63.5949 55.2889 63.7848C55.5221 63.9189 55.7276 63.9803 55.9053 63.9691C56.0941 63.9468 56.2496 63.8798 56.3717 63.7681C56.4939 63.6564 56.5772 63.5223 56.6216 63.3659C56.6661 63.1984 56.6605 63.0308 56.605 62.8633C56.5494 62.6846 56.4384 62.5282 56.2718 62.3941C55.8608 62.0702 55.3666 61.8189 54.7891 61.6402C54.3579 61.5041 53.9526 61.4166 53.5729 61.3777V60.216C53.5729 59.9814 53.4896 59.7859 53.323 59.6295C53.1675 59.462 52.9732 59.3782 52.7399 59.3782C52.4956 59.3782 52.2957 59.462 52.1402 59.6295C51.9847 59.7859 51.9069 59.9814 51.9069 60.216V61.4046C51.2675 61.4843 50.7011 61.6578 50.2076 61.925C49.6301 62.2378 49.1803 62.6566 48.8582 63.1816C48.5361 63.6955 48.3751 64.2819 48.3751 64.9409C48.3751 65.7899 48.625 66.4768 49.1247 67.0018C49.6245 67.5268 50.3798 67.901 51.3905 68.1244L53.1564 68.5098C53.5896 68.5992 53.9339 68.7164 54.1893 68.8617C54.4448 68.9957 54.628 69.1577 54.7391 69.3476C54.8502 69.5263 54.9057 69.7385 54.9057 69.9843C54.9057 70.2858 54.8224 70.5539 54.6558 70.7885C54.5003 71.0231 54.2504 71.2074 53.9061 71.3414C53.5618 71.4755 53.112 71.5425 52.5567 71.5425C51.8458 71.5425 51.235 71.4643 50.7241 71.3079C50.2243 71.1404 49.8189 70.9672 49.5079 70.7885C49.2747 70.6545 49.0692 70.6098 48.8915 70.6545C48.7138 70.688 48.5639 70.7773 48.4417 70.9225C48.3306 71.0566 48.264 71.2186 48.2418 71.4084C48.2196 71.5983 48.2473 71.7882 48.3251 71.9781C48.4028 72.1568 48.5417 72.3076 48.7416 72.4305C49.1525 72.6651 49.6523 72.8717 50.241 73.0505C50.7389 73.1988 51.2942 73.2933 51.9069 73.3339V74.4746C51.9069 74.7092 51.9847 74.9047 52.1402 75.0611Z" fill="white"/>
<path d="M81 89.5005C81 80.3881 88.3872 73 97.5005 73C101.582 73 105.318 74.4824 108.199 76.9396C111.749 79.9659 114 84.47 114 89.5005C114 98.6128 106.613 106 97.5005 106C95.2303 106 93.067 105.542 91.0982 104.712C85.1646 102.212 81 96.3426 81 89.5005Z" fill="url(#paint4_linear_7920_779556)"/>
<path d="M99.5919 89.5139C101.464 87.6328 103.159 85.9266 103.763 85.3137C104.4 84.669 104.397 83.6914 103.777 83.0759C103.211 82.5142 102.206 82.4612 101.579 83.1306C100.883 83.8725 100.148 84.5781 99.4302 85.2996L97.4135 87.3264C95.5401 85.4435 93.8397 83.7373 93.2299 83.128C92.5875 82.4877 91.6148 82.4904 91.0032 83.113C90.4434 83.6835 90.3907 84.692 91.0568 85.3226C91.7958 86.022 92.4979 86.7603 93.215 87.4818L95.236 89.513C93.3318 91.4267 91.4311 93.3369 91.0709 93.7017C90.9654 93.8076 90.8573 93.9198 90.7818 94.0487C90.4065 94.6934 90.5559 95.5774 91.099 95.996C91.7923 96.5294 92.6227 96.5021 93.2299 95.8971C93.8397 95.2886 95.5392 93.5833 97.4127 91.7023C99.3151 93.6142 101.213 95.5209 101.575 95.8821C101.682 95.9881 101.793 96.0976 101.921 96.1726C102.563 96.5497 103.443 96.4014 103.859 95.8538C104.39 95.1579 104.362 94.3234 103.76 93.7131C103.155 93.1003 101.461 91.3949 99.5902 89.5139H99.5919Z" fill="white"/>
<defs>
<linearGradient id="paint0_linear_7920_779556" x1="-0.876436" y1="44.7524" x2="74.7712" y2="125.944" gradientUnits="userSpaceOnUse">
<stop stop-color="#FF8D07"/>
<stop offset="1" stop-color="#FFB341"/>
</linearGradient>
<linearGradient id="paint1_linear_7920_779556" x1="1.12489" y1="87.0153" x2="106.777" y2="42.314" gradientUnits="userSpaceOnUse">
<stop stop-color="#E2E8F1"/>
<stop offset="1" stop-color="#D8E2E8"/>
</linearGradient>
<linearGradient id="paint2_linear_7920_779556" x1="48.6042" y1="26.8976" x2="65.3528" y2="110.104" gradientUnits="userSpaceOnUse">
<stop stop-color="#FFB74B"/>
<stop offset="1" stop-color="#FCCA80"/>
</linearGradient>
<linearGradient id="paint3_linear_7920_779556" x1="7.76562" y1="94.0466" x2="97.9958" y2="94.0466" gradientUnits="userSpaceOnUse">
<stop stop-color="white"/>
<stop offset="1" stop-color="white" stop-opacity="0"/>
</linearGradient>
<linearGradient id="paint4_linear_7920_779556" x1="99.0498" y1="111.126" x2="86.9756" y2="69.2502" gradientUnits="userSpaceOnUse">
<stop stop-color="#FF4B4B"/>
<stop offset="1" stop-color="#FFB6B6"/>
</linearGradient>
</defs>
</svg>
