<svg width="120" height="120" viewBox="0 0 120 120" fill="none" xmlns="http://www.w3.org/2000/svg">
<path d="M7.76562 51.0143C7.76562 43.2823 14.0336 37.0143 21.7656 37.0143H90.8057C98.5377 37.0143 104.806 43.2823 104.806 51.0143V86.0052C104.806 93.7372 98.5377 100.005 90.8057 100.005H21.7656C14.0336 100.005 7.76562 93.7372 7.76562 86.0052V51.0143Z" fill="url(#paint0_linear_8461_921452)"/>
<rect x="17.5586" y="23.9999" width="67.399" height="48.0167" rx="10" transform="rotate(7.8439 17.5586 23.9999)" fill="#06C6C6"/>
<rect x="17.0195" y="32.4637" width="76.2354" height="48.0167" rx="11.7253" transform="rotate(-3.35674 17.0195 32.4637)" fill="url(#paint1_linear_8461_921452)"/>
<rect opacity="0.5" x="16" y="43.5276" width="77.3247" height="8.8078" transform="rotate(-3.35674 16 43.5276)" fill="white"/>
<ellipse opacity="0.7" cx="32.9616" cy="64.5435" rx="7.24512" ry="7.24512" transform="rotate(-3.35674 32.9616 64.5435)" fill="white"/>
<ellipse opacity="0.7" cx="42.0358" cy="64.0098" rx="7.24512" ry="7.24512" transform="rotate(-3.35674 42.0358 64.0098)" fill="white"/>
<path d="M7.72656 48.6817C7.72656 42.0543 13.0991 36.6818 19.7266 36.6818H27.2658C29.2471 36.6818 31.1977 37.1724 32.9433 38.1098L47.4811 45.9172C51.0862 47.8533 55.4295 47.8187 59.0034 45.8256L72.6744 38.2014C74.4612 37.2049 76.4732 36.6818 78.5192 36.6818H85.9568C92.5842 36.6818 97.9568 42.0543 97.9568 48.6818V87.6727C97.9568 94.3001 92.5842 99.6727 85.9568 99.6727H19.7266C13.0991 99.6727 7.72656 94.3001 7.72656 87.6727V48.6817Z" fill="url(#paint2_linear_8461_921452)"/>
<path opacity="0.4" d="M7.76562 87.2368C7.76562 94.2886 13.4822 100.005 20.5341 100.005H85.2274C92.2792 100.005 97.9958 94.2886 97.9958 87.2368H7.76562Z" fill="url(#paint3_linear_8461_921452)"/>
<path d="M81 89.5005C81 80.3881 88.3872 73 97.5005 73C101.582 73 105.318 74.4824 108.199 76.9396C111.749 79.9659 114 84.47 114 89.5005C114 98.6128 106.613 106 97.5005 106C95.2303 106 93.067 105.542 91.0982 104.712C85.1646 102.212 81 96.3426 81 89.5005Z" fill="url(#paint4_linear_8461_921452)"/>
<path d="M98.0416 93.5577C97.3999 93.5575 96.7827 93.3108 96.3176 92.8687C95.8525 92.4266 95.575 91.8227 95.5424 91.1818L95.0032 80.631C94.986 80.2919 95.0378 79.9529 95.1557 79.6345C95.2736 79.3161 95.455 79.025 95.6889 78.7789C95.9227 78.5328 96.2042 78.3368 96.5162 78.2029C96.8282 78.069 97.1642 78 97.5037 78H98.5796C98.919 78.0002 99.2548 78.0693 99.5666 78.2033C99.8785 78.3373 100.16 78.5332 100.394 78.7793C100.627 79.0254 100.809 79.3164 100.926 79.6347C101.044 79.9531 101.096 80.292 101.079 80.631L100.541 91.1834C100.508 91.8239 100.23 92.4273 99.7649 92.8691C99.2998 93.3108 98.683 93.5573 98.0416 93.5577Z" fill="white"/>
<path d="M100.476 97.5067C100.476 96.1639 99.3872 95.0754 98.0445 95.0754C96.7018 95.0754 95.6133 96.1639 95.6133 97.5067C95.6133 98.8494 96.7018 99.9379 98.0445 99.9379C99.3872 99.9379 100.476 98.8494 100.476 97.5067Z" fill="white"/>
<path d="M57.7014 53.0006C58.7524 54.8211 59.7969 56.63 60.8479 58.4512H54.5504C54.8784 57.8818 55.205 57.3163 55.542 56.732C55.4226 56.6998 55.3122 56.6681 55.2018 56.6391C54.1618 56.3673 53.1043 56.255 52.0308 56.3021C50.5111 56.3686 49.0683 56.7404 47.7087 57.4228C46.4472 58.0561 45.3491 58.9044 44.4182 59.967C43.3014 61.2426 42.5222 62.6977 42.0877 64.3368C41.8063 65.3981 41.6972 66.4782 41.7501 67.5737C41.8243 69.105 42.1975 70.5607 42.905 71.921C44.2446 74.4961 46.2897 76.2695 49.0289 77.2346C49.7906 77.5032 50.5776 77.6704 51.382 77.7479C51.9688 77.8047 52.3652 78.1384 52.4768 78.6697C52.6176 79.3411 52.0843 80.0235 51.4 79.9938C50.921 79.9731 50.4407 79.8995 49.9688 79.8104C48.7706 79.5845 47.6299 79.1817 46.546 78.622C45.4634 78.0635 44.477 77.367 43.5893 76.5322C42.4596 75.4696 41.5454 74.2456 40.8521 72.8583C40.2666 71.6866 39.8689 70.4536 39.6585 69.1592C39.5222 68.3206 39.4609 67.4769 39.4925 66.6286C39.59 64.0224 40.3828 61.6461 41.9024 59.526C43.5906 57.1717 45.821 55.5448 48.5783 54.6494C49.5402 54.337 50.5279 54.153 51.5369 54.0787C53.2612 53.9522 54.9436 54.1569 56.584 54.7011C56.6685 54.7295 56.7098 54.7172 56.7557 54.6359C57.0455 54.1233 57.3419 53.6146 57.6362 53.1052C57.6543 53.0742 57.6737 53.0445 57.7014 53V53.0006Z" fill="white"/>
<path d="M53.4118 68.5286C53.1581 68.6829 52.8876 68.7804 52.5913 68.7958C51.9418 68.8294 51.4131 68.5893 51.04 68.0586C50.3783 67.1187 50.7675 65.845 51.8366 65.4215C51.9141 65.3905 51.9192 65.3466 51.9192 65.2807C51.9186 63.2943 51.9192 61.3073 51.9179 59.3208C51.9179 59.0981 52.0083 58.9212 52.2091 58.827C52.4183 58.7289 52.6332 58.7392 52.8237 58.8864C52.9683 58.9974 53.0232 59.1523 53.0225 59.3325C53.0212 60.5229 53.0219 61.7133 53.0219 62.9037C53.0219 63.6959 53.0225 64.4886 53.0206 65.2807C53.0206 65.3563 53.0374 65.3956 53.1148 65.426C53.9773 65.7701 54.415 66.6932 54.1368 67.5783C54.1161 67.6435 54.1219 67.6809 54.1794 67.7255C55.4731 68.7248 56.7642 69.728 58.0592 70.7261C58.2374 70.863 58.3685 71.0147 58.3317 71.2522C58.2975 71.475 58.167 71.6383 57.9663 71.7319C57.7732 71.8216 57.5964 71.768 57.4324 71.6402C56.1206 70.6215 54.8075 69.6054 53.4951 68.588C53.4692 68.568 53.4415 68.5492 53.4124 68.5286H53.4118Z" fill="white"/>
<path d="M65.5225 67.2238C65.5225 68.2645 65.3779 69.2845 65.11 70.2877C64.9564 70.8655 64.3999 71.205 63.8189 71.0791C63.2133 70.9481 62.8111 70.4052 62.9093 69.8254C62.9596 69.5259 63.0532 69.2335 63.112 68.9346C63.2669 68.147 63.3127 67.3516 63.265 66.5505C63.2546 66.3788 63.2398 66.1999 63.2734 66.034C63.4141 65.3433 64.1952 64.9992 64.8479 65.3323C65.2578 65.5415 65.4664 65.8843 65.4883 66.3413C65.5025 66.6357 65.5115 66.9301 65.5232 67.2238H65.5225Z" fill="white"/>
<path d="M64.8509 63.0289C64.827 63.535 64.432 63.9875 63.9226 64.0773C63.4068 64.1676 62.9239 63.9662 62.7128 63.5531C62.625 63.3813 62.5747 63.1902 62.5056 63.0082C62.1589 62.0883 61.6773 61.2451 61.0627 60.4789C60.5889 59.8882 60.8923 59.016 61.6502 58.8191C62.1518 58.6887 62.5785 58.8114 62.9091 59.2297C63.7289 60.2671 64.3519 61.4111 64.7702 62.6648C64.8096 62.7816 64.8245 62.9068 64.8509 63.0282V63.0289Z" fill="white"/>
<path d="M53.3242 78.8311C53.33 78.336 53.6128 77.9047 54.0428 77.7711C54.2306 77.7124 54.4314 77.6943 54.6263 77.6607C55.5792 77.4942 56.4856 77.1862 57.3313 76.7208C57.9852 76.3612 58.7218 76.7563 58.8606 77.4787C58.9568 77.9803 58.7244 78.5103 58.226 78.7659C57.0679 79.3618 55.851 79.7627 54.5624 79.9531C53.8291 80.0616 53.321 79.4767 53.3242 78.8318V78.8311Z" fill="white"/>
<path d="M63.9297 73.0728C63.8832 73.229 63.8587 73.3969 63.7857 73.5395C63.1957 74.6912 62.412 75.6938 61.4552 76.5659C61.0531 76.9326 60.5063 76.9055 60.1202 76.6208C59.6903 76.3038 59.5082 75.717 59.6928 75.2458C59.7671 75.056 59.9091 74.9243 60.0537 74.7932C60.7981 74.1199 61.4223 73.3459 61.8652 72.4479C62.226 71.7158 63.1189 71.6803 63.6218 72.2916C63.8045 72.5144 63.9052 72.7713 63.9 73.0637L63.9303 73.0734L63.9297 73.0728Z" fill="white"/>
<defs>
<linearGradient id="paint0_linear_8461_921452" x1="-0.876436" y1="44.7524" x2="74.7712" y2="125.944" gradientUnits="userSpaceOnUse">
<stop stop-color="#FF8D07"/>
<stop offset="1" stop-color="#FFB341"/>
</linearGradient>
<linearGradient id="paint1_linear_8461_921452" x1="1.12489" y1="87.0153" x2="106.777" y2="42.314" gradientUnits="userSpaceOnUse">
<stop stop-color="#E2E8F1"/>
<stop offset="1" stop-color="#D8E2E8"/>
</linearGradient>
<linearGradient id="paint2_linear_8461_921452" x1="48.6042" y1="26.8976" x2="65.3528" y2="110.104" gradientUnits="userSpaceOnUse">
<stop stop-color="#FFB74B"/>
<stop offset="1" stop-color="#FCCA80"/>
</linearGradient>
<linearGradient id="paint3_linear_8461_921452" x1="7.76562" y1="94.0466" x2="97.9958" y2="94.0466" gradientUnits="userSpaceOnUse">
<stop stop-color="white"/>
<stop offset="1" stop-color="white" stop-opacity="0"/>
</linearGradient>
<linearGradient id="paint4_linear_8461_921452" x1="99.0498" y1="111.126" x2="86.9756" y2="69.2502" gradientUnits="userSpaceOnUse">
<stop stop-color="#FF4B4B"/>
<stop offset="0.0001" stop-color="#FF4B4B"/>
<stop offset="1" stop-color="#FFB6B6"/>
</linearGradient>
</defs>
</svg>
