<svg width="106" height="106" viewBox="0 0 106 106" fill="none" xmlns="http://www.w3.org/2000/svg">
<path d="M0.500012 53.002C0.500015 24.0081 24.0046 0.500489 53.0015 0.500491C65.9893 0.500492 77.8762 5.21736 87.0437 13.0355C98.3388 22.6646 105.5 36.9958 105.5 53.002C105.5 81.9959 81.9954 105.5 53.0015 105.5C45.7782 105.5 38.8952 104.042 32.6306 101.402C13.7511 93.4478 0.50001 74.7725 0.500012 53.002Z" fill="white"/>
<path fill-rule="evenodd" clip-rule="evenodd" d="M8.27783 52.9972C8.27783 28.2972 28.3003 8.271 53.0014 8.271C64.065 8.271 74.191 12.2893 82.0003 18.9496C91.6221 27.1527 97.7224 39.3615 97.7224 52.9972C97.7224 77.6972 77.6999 97.7209 53.0014 97.7209C46.8482 97.7209 40.9849 96.4781 35.6484 94.2295C19.5658 87.4532 8.27783 71.5436 8.27783 52.9972ZM30.5 56.5505L46.5009 72.5514L79.2498 39.8024L71.958 32.5105L46.5009 57.9934L37.7918 49.2586L30.5 56.5505Z" fill="#05E0AC"/>
</svg>
