<svg width="120" height="120" viewBox="0 0 120 120" fill="none" xmlns="http://www.w3.org/2000/svg">
<g id="convert">
<g id="Group 1000002361">
<rect id="Rectangle 39594" x="12.65" y="18.6501" width="56.7" height="44.7" rx="10.35" fill="url(#paint0_linear_8699_954578)" stroke="#E1EDF8" stroke-width="5.3"/>
<path id="Vector" d="M18.9222 73.3856C17.8492 73.56 17.0999 74.5692 17.2787 75.6694C18.8507 86.6794 28.8327 93.2051 39.2489 91.5119C39.9817 91.3928 40.5459 90.8978 40.8144 90.2357C41.0524 89.5517 40.9332 88.8182 40.4646 88.249L37.2404 84.444C36.5113 83.5945 35.2563 83.4758 34.434 84.201C33.5813 84.9043 33.4893 86.1562 34.1922 87.0099C34.4113 87.2695 34.2053 87.6565 33.8696 87.604C27.5607 86.616 22.2849 81.6785 21.2045 75.0313C21.0256 73.9311 19.9952 73.2112 18.9222 73.3856Z" fill="url(#paint1_linear_8699_954578)"/>
<path id="Vector_2" d="M41.987 48.7387C41.7429 50.6425 41.3585 51.2019 40.2982 51.2001C39.2379 51.1983 38.8815 50.6552 38.6147 48.7278C36.2202 47.9486 35.0212 46.5662 35.0001 44.5499C34.9896 43.44 35.7392 42.6789 36.7644 42.7879C37.5614 42.8732 38.074 43.3528 38.1688 44.1648C38.2723 45.0476 38.7147 45.3618 39.5258 45.3128C40.0805 45.2783 40.6387 45.3128 41.1935 45.3037C42.1678 45.2856 42.4118 44.9731 42.41 43.7742C42.4083 42.5753 42.1502 42.281 41.1636 42.2629C40.4614 42.2483 39.7592 42.2629 39.057 42.252C36.8048 42.1975 35.1142 40.559 35.0194 38.2175C34.9591 37.195 35.0569 36.1691 35.3091 35.1785C35.7006 33.7979 36.8364 32.9987 38.5918 32.4991C38.9429 30.481 39.3098 29.9705 40.3473 30.0014C41.3848 30.0323 41.7833 30.6281 41.9536 32.3393C42.712 32.7498 43.4809 33.055 44.1216 33.54C45.1205 34.2957 45.5787 35.4055 45.5997 36.6862C45.6138 37.5944 45.0397 38.2993 44.2305 38.4028C43.3387 38.5172 42.561 37.9995 42.4434 37.0695C42.3258 36.1394 41.8799 35.8197 41.0302 35.8778C40.4772 35.916 39.919 35.8778 39.3625 35.8887C38.4426 35.9105 38.1951 36.2321 38.1916 37.3728C38.1916 38.5735 38.4391 38.906 39.3959 38.9278C40.098 38.9441 40.8002 38.9278 41.5024 38.9278C43.8092 38.9768 45.505 40.6171 45.5769 43.0113C45.6281 44.0646 45.5058 45.1193 45.2153 46.1302C44.7957 47.4963 43.8917 48.0884 41.987 48.7387Z" fill="#06C6C6"/>
<rect id="Rectangle 39593" x="46.2188" y="39.8601" width="66.78" height="61.48" rx="13" fill="url(#paint2_linear_8699_954578)"/>
<g id="Group 1000002360">
<path id="Vector_3" opacity="0.8" d="M95.7031 70.0702C96.015 70.0702 96.3338 70.0621 96.6514 70.0702C97.6407 70.0981 98.0983 70.9581 97.5508 71.8111C96.8745 72.8615 96.1619 73.8863 95.464 74.9227C94.9267 75.7189 94.3962 76.5197 93.8497 77.3089C93.3033 78.0981 92.4916 78.1283 91.9428 77.3286C90.7054 75.5227 89.4861 73.7029 88.2589 71.89C87.9925 71.4978 87.8821 71.0776 88.1143 70.6389C88.3465 70.2002 88.7336 70.0447 89.2106 70.0691C89.469 70.083 89.7297 70.0691 89.9938 70.0691C89.6523 65.8201 86.6446 62.0238 82.4244 60.8237C78.0005 59.5644 73.1064 61.2345 70.3832 65.8421C70.0144 65.3025 69.6341 64.8069 69.3165 64.2707C68.5913 63.0451 67.6339 62.2002 66.1289 62.1816C68.7871 57.704 74.4713 54.091 81.3566 54.7862C87.7067 55.428 94.9802 60.8411 95.7031 70.0702Z" fill="white"/>
<path id="Vector_4" opacity="0.8" d="M88.4558 75.6493C89.6764 77.1578 90.2924 79.3208 92.7187 79.2872C90.3015 83.4403 84.7406 87.4008 77.5573 86.6952C70.9797 86.05 63.867 80.5172 63.1497 71.4103C62.8377 71.4103 62.5189 71.4022 62.2024 71.4103C61.739 71.4242 61.3883 71.2363 61.1776 70.8208C60.967 70.4054 61.0638 69.9981 61.3188 69.6221C62.1887 68.3348 63.0582 67.046 63.9273 65.7556C64.2928 65.2137 64.6503 64.666 65.0272 64.1311C65.5646 63.3722 66.3662 63.3698 66.8979 64.145C68.1355 65.9529 69.355 67.7713 70.5835 69.585C70.8499 69.9749 70.9638 70.3892 70.7361 70.8348C70.5083 71.2803 70.1235 71.437 69.6464 71.415C69.3846 71.4022 69.1215 71.415 68.8494 71.415C69.2126 75.7317 72.3494 79.5587 76.4051 80.6669C80.8695 81.8853 85.7278 80.2503 88.4558 75.6493Z" fill="white"/>
<path id="Vector_5" opacity="0.8" d="M80.5617 76.2474C80.3965 77.536 80.1363 77.9148 79.4185 77.9135C78.7007 77.9123 78.4595 77.5447 78.2789 76.24C76.658 75.7125 75.8464 74.7767 75.8321 73.4118C75.825 72.6605 76.3324 72.1453 77.0264 72.2191C77.5659 72.2769 77.9129 72.6015 77.977 73.1511C78.0472 73.7487 78.3466 73.9615 78.8956 73.9283C79.2711 73.9049 79.649 73.9283 80.0245 73.9221C80.6841 73.9098 80.8493 73.6983 80.8481 72.8868C80.8469 72.0752 80.6722 71.876 80.0043 71.8637C79.529 71.8539 79.0537 71.8637 78.5783 71.8563C77.0537 71.8194 75.9093 70.7103 75.8452 69.1253C75.8043 68.4331 75.8705 67.7387 76.0413 67.0681C76.3063 66.1336 77.0751 65.5925 78.2634 65.2544C78.5011 63.8882 78.7495 63.5427 79.4518 63.5636C80.1541 63.5845 80.4238 63.9879 80.5391 65.1462C81.0525 65.4241 81.5729 65.6307 82.0067 65.959C82.6829 66.4705 82.993 67.2218 83.0073 68.0887C83.0168 68.7035 82.6282 69.1806 82.0804 69.2507C81.4767 69.3282 80.9503 68.9777 80.8706 68.3482C80.791 67.7186 80.4892 67.5022 79.914 67.5415C79.5397 67.5673 79.1618 67.5415 78.7851 67.5489C78.1624 67.5637 77.9949 67.7813 77.9925 68.5535C77.9925 69.3663 78.1601 69.5913 78.8077 69.6061C79.283 69.6172 79.7584 69.6061 80.2337 69.6061C81.7952 69.6393 82.9431 70.7497 82.9918 72.3703C83.0265 73.0834 82.9437 73.7973 82.747 74.4816C82.463 75.4063 81.851 75.8072 80.5617 76.2474Z" fill="white"/>
</g>
</g>
</g>
<defs>
<linearGradient id="paint0_linear_8699_954578" x1="10" y1="23.143" x2="53.5141" y2="80.1184" gradientUnits="userSpaceOnUse">
<stop stop-color="white"/>
<stop offset="1" stop-color="#E2F1FA"/>
</linearGradient>
<linearGradient id="paint1_linear_8699_954578" x1="30.2051" y1="70.4988" x2="24.8" y2="94.6016" gradientUnits="userSpaceOnUse">
<stop stop-color="#FFB74B"/>
<stop offset="1" stop-color="#FCCA80"/>
</linearGradient>
<linearGradient id="paint2_linear_8699_954578" x1="40.2885" y1="104.796" x2="124.81" y2="76.6306" gradientUnits="userSpaceOnUse">
<stop stop-color="#05E0E0"/>
<stop offset="1" stop-color="#02E2E2"/>
</linearGradient>
</defs>
</svg>
