<svg width="105" height="103" viewBox="0 0 105 103" fill="none" xmlns="http://www.w3.org/2000/svg">
<path d="M30.8158 15.898L26.1379 20.851H9.73401C7.80984 20.851 6.25 22.4109 6.25 24.335V72.2401C6.25 74.1643 7.80984 75.7242 9.73401 75.7242H51.7945C51.6282 74.5556 51.5421 73.3611 51.5421 72.1466C51.5421 58.2481 62.8091 46.9811 76.7076 46.9811C77.0306 46.9811 77.3522 46.9872 77.6722 46.9992V24.335C77.6722 22.4109 76.1123 20.851 74.1882 20.851H58.0746L53.1037 15.8801C52.9404 15.7168 52.7188 15.625 52.4878 15.625H31.449C31.2094 15.625 30.9803 15.7237 30.8158 15.898Z" fill="#D9E5F8"/>
<path d="M41.9637 33.916C38.8417 33.916 36.3021 36.4556 36.3021 39.5775C36.3021 42.6995 38.8417 45.239 41.9637 45.239C45.0856 45.239 47.6252 42.6995 47.6252 39.5775C47.6252 36.4556 45.0856 33.916 41.9637 33.916ZM41.9637 48.4742C35.7036 48.4742 30.6406 51.0138 30.6406 54.1357V56.5621H53.2867V54.1357C53.2867 51.0138 48.2237 48.4742 41.9637 48.4742Z" fill="white"/>
<g filter="url(#filter0_d_18770_6343)">
<path d="M53.125 71.8756C53.125 59.7948 62.9186 50 75.0006 50C80.4122 50 85.3651 51.9654 89.1849 55.2229C93.8912 59.235 96.875 65.2064 96.875 71.8756C96.875 83.9564 87.0814 93.75 75.0006 93.75C71.9909 93.75 69.123 93.1422 66.5128 92.0423C58.6463 88.7281 53.125 80.9467 53.125 71.8756Z" fill="white"/>
<path fill-rule="evenodd" clip-rule="evenodd" d="M56.3652 71.8732C56.3652 61.5816 64.7079 53.2373 75 53.2373C79.6099 53.2373 83.829 54.9116 87.0829 57.6867C91.092 61.1047 93.6338 66.1917 93.6338 71.8732C93.6338 82.1649 85.2911 90.5081 75 90.5081C72.4362 90.5081 69.9932 89.9903 67.7696 89.0533C61.0686 86.2299 56.3652 79.6009 56.3652 71.8732ZM65.6245 73.3538L72.2915 80.0208L85.9369 66.3754L82.8986 63.3371L72.2915 73.955L68.6627 70.3155L65.6245 73.3538Z" fill="#05E0AC"/>
</g>
<defs>
<filter id="filter0_d_18770_6343" x="45.7726" y="44.3202" width="61.8" height="61.8" filterUnits="userSpaceOnUse" color-interpolation-filters="sRGB">
<feFlood flood-opacity="0" result="BackgroundImageFix"/>
<feColorMatrix in="SourceAlpha" type="matrix" values="0 0 0 0 0 0 0 0 0 0 0 0 0 0 0 0 0 0 127 0" result="hardAlpha"/>
<feOffset dx="1.67258" dy="3.34517"/>
<feGaussianBlur stdDeviation="2.95"/>
<feComposite in2="hardAlpha" operator="out"/>
<feColorMatrix type="matrix" values="0 0 0 0 0.00616667 0 0 0 0 0 0 0 0 0 0.308333 0 0 0 0.07 0"/>
<feBlend mode="normal" in2="BackgroundImageFix" result="effect1_dropShadow_18770_6343"/>
<feBlend mode="normal" in="SourceGraphic" in2="effect1_dropShadow_18770_6343" result="shape"/>
</filter>
</defs>
</svg>
