<svg width="30" height="30" viewBox="0 0 30 30" fill="none" xmlns="http://www.w3.org/2000/svg">
<path d="M15.2435 2.00008C7.87868 1.97534 2.02067 7.74267 2.00005 15.0415C1.97944 22.2393 7.8189 28.1076 15.0208 28.12C22.2001 28.1344 28.0952 22.3073 28.1179 15.1713C28.1406 7.96528 22.3362 2.02481 15.2435 2.00008Z" fill="#E4E4E7"/>
<path d="M16.3706 14.6755H15.8939C15.7279 14.6755 15.5836 14.5843 15.5078 14.4492C15.5377 14.4975 15.5797 14.5409 15.6347 14.5766C15.7288 14.6374 15.8577 14.6683 15.972 14.6707C16.1043 14.6736 16.237 14.6751 16.3706 14.6755Z" fill="black"/>
<path d="M18.1014 12.8712C18.1009 12.8871 18.1009 12.9036 18.1004 12.9195C18.0956 13.0536 18.0903 13.1665 18.0816 13.2616H15.9105C15.384 13.2616 14.9347 13.6704 14.9145 14.1964C14.8932 14.7499 15.3372 15.2068 15.8864 15.2068H16.5205C16.6551 15.2068 16.7058 15.384 16.5909 15.4544C16.0789 15.77 15.48 15.9394 14.8652 15.9394H14.512C14.5154 15.9389 14.5192 15.9389 14.5226 15.9384C13.3181 15.6788 12.4099 15.0582 11.9549 13.8764C11.1779 11.8612 12.7106 9.64718 14.8681 9.59844C16.6483 9.5579 18.1361 11.0954 18.1009 12.8712H18.1014Z" fill="url(#paint0_linear_10599_46174)"/>
<path d="M16.0004 16.8081C15.8016 16.7782 15.6018 16.7516 15.403 16.7236C15.404 16.7236 15.4049 16.7231 15.4064 16.7227H14.7675C14.6015 16.7227 14.4359 16.7328 14.2714 16.7535C14.1435 16.7695 14.0156 16.7859 13.8887 16.8061C11.2828 17.2221 9.14602 19.2171 8.55777 21.78C8.38212 22.5463 8.89895 23.2224 9.68457 23.2233C13.1668 23.2272 16.649 23.2262 20.1312 23.2142C20.3527 23.2132 20.5969 23.1437 20.7909 23.0351C21.2783 22.762 21.4119 22.2881 21.2455 21.6029C20.6529 19.1664 18.4784 17.1782 16.0004 16.8081Z" fill="url(#paint1_linear_10599_46174)"/>
<path d="M20.7155 13.7146C20.7063 14.548 20.094 15.1527 19.262 15.1594C19.1139 15.1604 18.9657 15.1604 18.8152 15.1604C18.57 15.1604 18.4137 14.9032 18.5218 14.6831L18.5251 14.6759H17.4505L17.4514 14.6749C17.3033 14.6749 17.1604 14.6749 17.0205 14.6759H16.3671C16.2334 14.6754 16.1007 14.674 15.9685 14.6711C15.8541 14.6687 15.7253 14.6378 15.6312 14.577C15.5762 14.5413 15.5342 14.4978 15.5043 14.4496C15.5023 14.4462 15.5004 14.4428 15.4985 14.439C15.4661 14.3777 15.4483 14.3082 15.4483 14.2343C15.4483 14.2218 15.4488 14.2097 15.4497 14.1977C15.4507 14.1875 15.4521 14.1769 15.4536 14.1668C15.4536 14.1668 15.4536 14.1653 15.4541 14.1644C15.456 14.1538 15.4579 14.1436 15.4603 14.133C15.4608 14.1301 15.4613 14.1267 15.4623 14.1238C15.511 13.9332 15.6843 13.7923 15.8903 13.7923H18.8591C19.1631 12.6501 18.9623 11.5199 18.2588 10.3777H19.1375C18.5097 9.04143 16.9442 8.02755 15.3339 7.91511C12.9187 7.74573 11.3069 9.16738 10.7177 10.3675H11.6099C10.6158 11.9711 10.6144 13.5486 11.6148 15.1802C11.1298 15.157 10.6694 15.1879 10.2317 15.1015C9.59811 14.9765 9.21109 14.5292 9.16765 13.8917C9.11698 13.1476 9.08031 12.3876 9.18068 11.6536C9.25066 11.1416 9.53199 10.6474 9.76845 10.1702C10.8369 8.01163 13.1088 6.76708 15.5028 7.03636C17.8799 7.30322 19.4883 8.58588 20.37 10.7989C20.4023 10.88 20.4617 10.9519 20.4873 11.0344C20.5693 11.2994 20.6923 11.5638 20.7063 11.8336C20.7392 12.459 20.7223 13.0873 20.7155 13.7146Z" fill="url(#paint2_linear_10599_46174)"/>
<path d="M15.4956 14.4351C15.4604 14.3738 15.444 14.3038 15.4454 14.2305C15.4454 14.3043 15.4633 14.3738 15.4956 14.4351Z" fill="black"/>
<path d="M16.3706 14.6755H15.8939C15.7279 14.6755 15.5836 14.5843 15.5078 14.4492C15.5377 14.4975 15.5797 14.5409 15.6347 14.5766C15.7288 14.6374 15.8577 14.6683 15.972 14.6707C16.1043 14.6736 16.237 14.6751 16.3706 14.6755Z" fill="black"/>
<path d="M16.3642 14.672C16.5765 14.6735 16.7927 14.673 17.0176 14.672H16.3642ZM15.4454 14.2305C15.444 14.3038 15.4604 14.3738 15.4956 14.4351C15.4633 14.3738 15.4454 14.3043 15.4454 14.2305Z" fill="#606060"/>
<defs>
<linearGradient id="paint0_linear_10599_46174" x1="18.0499" y1="12.1518" x2="6.35887" y2="12.6788" gradientUnits="userSpaceOnUse">
<stop stop-color="#9396AE"/>
<stop offset="1" stop-color="#C7CBD2"/>
</linearGradient>
<linearGradient id="paint1_linear_10599_46174" x1="21.2098" y1="19.3416" x2="-2.19725" y2="21.4137" gradientUnits="userSpaceOnUse">
<stop stop-color="#9396AE"/>
<stop offset="1" stop-color="#C7CBD2"/>
</linearGradient>
<linearGradient id="paint2_linear_10599_46174" x1="20.6317" y1="10.2946" x2="-0.692698" y2="11.6566" gradientUnits="userSpaceOnUse">
<stop stop-color="#9396AE"/>
<stop offset="1" stop-color="#C7CBD2"/>
</linearGradient>
</defs>
</svg>
