<svg width="30" height="30" viewBox="0 0 30 30" fill="none" xmlns="http://www.w3.org/2000/svg">
<path d="M15.1836 2.00008C7.85213 1.97546 2.02057 7.71628 2.00005 14.9816C1.97953 22.1463 7.79262 27.9877 14.962 28C22.1089 28.0143 27.9774 22.214 27.9999 15.1108C28.0225 7.93787 22.2443 2.0247 15.1836 2.00008Z" fill="#E8E9EF"/>
<path d="M16.1818 16.5C14.24 16.5 10.3636 17.4975 10.3636 19.5V21H22V19.5C22 17.4975 18.1236 16.5 16.1818 16.5ZM16.1818 15C16.9534 15 17.6933 14.6839 18.2389 14.1213C18.7844 13.5587 19.0909 12.7956 19.0909 12C19.0909 11.2044 18.7844 10.4413 18.2389 9.87868C17.6933 9.31607 16.9534 9 16.1818 9C15.4103 9 14.6703 9.31607 14.1248 9.87868C13.5792 10.4413 13.2727 11.2044 13.2727 12C13.2727 12.7956 13.5792 13.5587 14.1248 14.1213C14.6703 14.6839 15.4103 15 16.1818 15ZM8.90909 15.96L10.6909 17.0775L10.2182 14.97L11.8182 13.56L9.71636 13.3725L8.90909 11.3925L8.08727 13.3725L6 13.56L7.58545 14.97L7.09091 17.0775L8.90909 15.96Z" fill="url(#paint0_linear_7892_900881)"/>
<defs>
<linearGradient id="paint0_linear_7892_900881" x1="21.8702" y1="13.833" x2="5.48277" y2="13.833" gradientUnits="userSpaceOnUse">
<stop stop-color="#9396AE"/>
<stop offset="1" stop-color="#C7CBD2"/>
</linearGradient>
</defs>
</svg>
