<svg width="30" height="30" viewBox="0 0 30 30" fill="none" xmlns="http://www.w3.org/2000/svg">
<path d="M2 8.13281H28V25.1988C28 26.0642 27.2973 26.767 26.4318 26.767H3.56817C2.70275 26.767 2 26.0642 2 25.1988V8.13281Z" fill="#E4E4E7"/>
<path d="M18.5926 4.07031V7.26846H2V5.63767C2 4.77225 2.70275 4.07031 3.56817 4.07031H18.5926Z" fill="#E4E4E7"/>
<path d="M23.2023 4.07031H20.1953V7.26846H23.2023V4.07031Z" fill="#E4E4E7"/>
<path d="M27.998 5.63767V7.26846H24.8047V4.07031H26.4298C27.296 4.07031 27.998 4.77225 27.998 5.63767Z" fill="#E4E4E7"/>
<path d="M16.3617 16.429C16.3617 15.4692 16.3552 14.5103 16.3641 13.5505C16.3698 12.9169 16.7008 12.5533 17.3279 12.5265C17.9388 12.5005 18.5545 12.4899 19.1629 12.5338C20.6709 12.6428 21.7461 13.5513 22.1382 15.0219C22.5017 16.3883 22.4237 17.7125 21.6355 18.9277C21.093 19.7638 20.3211 20.2713 19.3109 20.3445C18.6846 20.3893 18.0551 20.4072 17.4272 20.399C16.7212 20.3893 16.3755 20.0184 16.3706 19.3075C16.3641 18.3477 16.369 17.3888 16.369 16.429H16.3617ZM18.2454 18.4828C19.5452 18.6292 20.1739 18.2558 20.4008 17.144C20.4944 16.6877 20.4854 16.1777 20.3862 15.7214C20.1349 14.5697 19.4183 14.1711 18.2454 14.4525V18.4819V18.4828Z" fill="url(#paint0_linear_7892_900971)"/>
<path d="M13.826 20.0052C13.2908 20.0142 13.0077 19.6962 12.8735 19.2285C12.7816 18.9072 12.6189 18.7803 12.2724 18.7998C11.712 18.8307 11.1467 18.834 10.5863 18.7998C10.1788 18.7746 9.98608 18.9137 9.81852 19.2952C9.69652 19.5733 9.3972 19.8783 9.11903 19.9524C8.86201 20.0207 8.46671 19.8718 8.24141 19.6864C7.92013 19.422 7.96649 19.008 8.11046 18.629C8.78555 16.8567 9.45902 15.0836 10.1333 13.3104C10.2154 13.0949 10.2927 12.8769 10.3854 12.6654C10.5758 12.2295 10.9027 11.9944 11.3891 12.0001C11.8747 12.0058 12.209 12.2384 12.379 12.685C13.1427 14.6891 13.9114 16.6908 14.6515 18.703C14.9069 19.3968 14.4962 19.9971 13.8252 20.006L13.826 20.0052ZM12.0032 16.9502C11.7926 16.3931 11.6055 15.8994 11.372 15.2828C11.137 15.9148 10.9532 16.4102 10.7523 16.9502H12.0032Z" fill="url(#paint1_linear_7892_900971)"/>
<defs>
<linearGradient id="paint0_linear_7892_900971" x1="22.2982" y1="15.6845" x2="16.1658" y2="15.6845" gradientUnits="userSpaceOnUse">
<stop stop-color="#9396AE"/>
<stop offset="1" stop-color="#C7CBD2"/>
</linearGradient>
<linearGradient id="paint1_linear_7892_900971" x1="14.6735" y1="15.2244" x2="7.7825" y2="15.2244" gradientUnits="userSpaceOnUse">
<stop stop-color="#9396AE"/>
<stop offset="1" stop-color="#C7CBD2"/>
</linearGradient>
</defs>
</svg>
