<svg width="30" height="30" viewBox="0 0 30 30" fill="none" xmlns="http://www.w3.org/2000/svg">
<path d="M15.3362 22.8127C19.4113 22.8127 22.7148 19.4251 22.7148 15.2462C22.7148 11.0673 19.4113 7.67969 15.3362 7.67969C11.2611 7.67969 7.95763 11.0673 7.95763 15.2462C7.95763 16.4566 8.23478 17.6006 8.72756 18.6152C8.85851 18.8848 8.9021 19.1929 8.82618 19.4839L8.3867 21.1682C8.19592 21.8994 8.84824 22.5683 9.56126 22.3727L11.2038 21.922C11.4875 21.8442 11.788 21.8889 12.0509 22.0232C13.0403 22.5285 14.1559 22.8127 15.3362 22.8127Z" fill="#E4E4E7"/>
<path d="M9.95522 16.7302L10.4074 16.335L10.5989 16.1761C10.7782 16.0294 10.9181 15.9099 11.0186 15.8176C11.1191 15.7252 11.2019 15.6275 11.2671 15.5242C11.3323 15.4183 11.3649 15.311 11.3649 15.2024C11.3649 15.0856 11.3296 14.9865 11.2589 14.905C11.1883 14.8235 11.081 14.7828 10.9371 14.7828C10.7605 14.7828 10.6424 14.8344 10.5826 14.9376C10.5256 15.0381 10.4971 15.1454 10.4971 15.2594V15.3083H9.94299C9.94299 15.1046 9.98238 14.9267 10.0611 14.7746C10.1426 14.6225 10.2567 14.5057 10.4034 14.4242C10.5528 14.34 10.7279 14.2979 10.9289 14.2979C11.1326 14.2979 11.3065 14.3373 11.4504 14.4161C11.5971 14.4921 11.7071 14.5967 11.7804 14.7298C11.8565 14.8629 11.8945 15.0096 11.8945 15.1698C11.8945 15.33 11.8605 15.4767 11.7926 15.6098C11.7247 15.7402 11.6433 15.8543 11.5482 15.952C11.4531 16.0471 11.3309 16.1571 11.1815 16.282L11.1163 16.3391L10.6967 16.6976V16.718H11.9189V17.2109H9.95929L9.95522 16.7302ZM13.6209 16.5346L12.362 16.5306V16.1028L13.4661 14.3591H14.175V16.1028H14.5294V16.5346H14.175V17.2109H13.6209V16.5346ZM13.625 16.0946V15.0231L12.9283 16.0946H13.625ZM16.3435 14.0005H16.8731L15.4553 17.9972H14.9257L16.3435 14.0005ZM17.5358 17.162L18.6318 14.9009V14.8724H17.2262V14.3591H19.1655V14.9335L18.1306 17.2109H17.5358V17.162Z" fill="#05A7A7"/>
<path d="M9.95522 16.7302L10.4074 16.335L10.5989 16.1761C10.7782 16.0294 10.9181 15.9099 11.0186 15.8176C11.1191 15.7252 11.2019 15.6275 11.2671 15.5242C11.3323 15.4183 11.3649 15.311 11.3649 15.2024C11.3649 15.0856 11.3296 14.9865 11.2589 14.905C11.1883 14.8235 11.081 14.7828 10.9371 14.7828C10.7605 14.7828 10.6424 14.8344 10.5826 14.9376C10.5256 15.0381 10.4971 15.1454 10.4971 15.2594V15.3083H9.94299C9.94299 15.1046 9.98238 14.9267 10.0611 14.7746C10.1426 14.6225 10.2567 14.5057 10.4034 14.4242C10.5528 14.34 10.7279 14.2979 10.9289 14.2979C11.1326 14.2979 11.3065 14.3373 11.4504 14.4161C11.5971 14.4921 11.7071 14.5967 11.7804 14.7298C11.8565 14.8629 11.8945 15.0096 11.8945 15.1698C11.8945 15.33 11.8605 15.4767 11.7926 15.6098C11.7247 15.7402 11.6433 15.8543 11.5482 15.952C11.4531 16.0471 11.3309 16.1571 11.1815 16.282L11.1163 16.3391L10.6967 16.6976V16.718H11.9189V17.2109H9.95929L9.95522 16.7302ZM13.6209 16.5346L12.362 16.5306V16.1028L13.4661 14.3591H14.175V16.1028H14.5294V16.5346H14.175V17.2109H13.6209V16.5346ZM13.625 16.0946V15.0231L12.9283 16.0946H13.625ZM16.3435 14.0005H16.8731L15.4553 17.9972H14.9257L16.3435 14.0005ZM17.5358 17.162L18.6318 14.9009V14.8724H17.2262V14.3591H19.1655V14.9335L18.1306 17.2109H17.5358V17.162Z" fill="url(#paint0_linear_10383_242835)"/>
<path d="M6.39698 17.7954C6.39698 18.6134 6.39765 19.4314 6.39632 20.2494C6.39566 20.6938 6.26071 20.8349 5.83727 20.8356C5.33141 20.837 4.82554 20.8397 4.31967 20.8349C3.54991 20.8274 3.00681 20.2698 3.00349 19.4777C2.99884 18.3448 2.99884 17.2112 3.00349 16.0783C3.00681 15.3053 3.518 14.7558 4.27447 14.7299C4.82155 14.7115 5.3693 14.7197 5.91638 14.7272C6.25141 14.732 6.38834 14.8881 6.39632 15.2391C6.39698 15.2562 6.39632 15.2732 6.39632 15.2903C6.39698 16.1253 6.39698 16.9603 6.39698 17.7954Z" fill="#9396AE"/>
<path d="M24.3346 17.7279C24.3346 16.9017 24.3332 16.0748 24.3352 15.2486C24.3359 14.8335 24.4708 14.6904 24.8684 14.6876C25.3742 14.6835 25.8801 14.6808 26.386 14.6883C27.2102 14.7006 27.7274 15.2446 27.7287 16.0953C27.7307 17.1941 27.7307 18.2937 27.7287 19.3925C27.7267 20.2487 27.193 20.7947 26.3574 20.7974C25.8515 20.7995 25.3456 20.8001 24.8398 20.7967C24.4901 20.7947 24.3372 20.6413 24.3359 20.2841C24.3326 19.432 24.3346 18.58 24.3346 17.7279Z" fill="#9396AE"/>
<path d="M25.6067 21.4336C25.8852 21.4336 26.1478 21.4336 26.4669 21.4336C26.3991 21.7976 26.3565 22.1487 26.2668 22.4868C25.6353 24.8787 23.5447 26.574 21.1323 26.647C20.4204 26.6688 19.7071 26.6538 18.9945 26.6545C18.9467 26.6545 18.8988 26.6436 18.8377 26.6354C18.8377 26.358 18.8377 26.0894 18.8377 25.7942C18.9287 25.7901 19.0171 25.7826 19.1049 25.7826C19.751 25.7806 20.3978 25.7915 21.0439 25.7772C23.3925 25.7254 25.3102 23.9292 25.5874 21.5331C25.5907 21.5086 25.5974 21.484 25.6067 21.4336Z" fill="#9396AE"/>
<path d="M16.4572 25.3552C16.8049 25.3545 17.1525 25.3511 17.5002 25.3559C17.8179 25.36 17.9682 25.5161 17.9735 25.8433C17.9775 26.0982 17.9775 26.3539 17.9735 26.6088C17.9682 26.9176 17.8126 27.0928 17.5201 27.0955C16.8168 27.1017 16.1129 27.1064 15.4096 27.0935C14.9356 27.0853 14.5827 26.6967 14.584 26.2209C14.5853 25.7417 14.9383 25.3682 15.4149 25.3573C15.7619 25.3484 16.1096 25.3552 16.4572 25.3552Z" fill="#9396AE"/>
<path d="M26.455 14.1793C26.455 12.7112 26.1658 11.2575 25.604 9.90119C25.0423 8.54485 24.2189 7.31245 23.1808 6.27435C22.1428 5.23626 20.9105 4.41279 19.5543 3.85098C18.198 3.28916 16.7444 3 15.2764 3C13.8084 3 12.3548 3.28916 10.9986 3.85098C9.64235 4.41279 8.41004 5.23626 7.37202 6.27435C6.33399 7.31245 5.51059 8.54485 4.94881 9.90119C4.38704 11.2575 4.0979 12.7113 4.0979 14.1793H5.13497C5.13497 12.8475 5.39728 11.5286 5.90694 10.2981C6.4166 9.06758 7.16361 7.94951 8.10533 7.00772C9.04705 6.06593 10.165 5.31887 11.3955 4.80917C12.6259 4.29948 13.9446 4.03714 15.2764 4.03714C16.6082 4.03714 17.927 4.29948 19.1574 4.80917C20.3878 5.31886 21.5058 6.06593 22.4475 7.00772C23.3892 7.94951 24.1363 9.06758 24.6459 10.2981C25.1556 11.5286 25.4179 12.8474 25.4179 14.1793H26.455Z" fill="#9396AE"/>
<defs>
<linearGradient id="paint0_linear_10383_242835" x1="19.6337" y1="14.8219" x2="9.39158" y2="14.8219" gradientUnits="userSpaceOnUse">
<stop stop-color="#9396AE"/>
<stop offset="1" stop-color="#C7CBD2"/>
</linearGradient>
</defs>
</svg>
