<svg width="30" height="30" viewBox="0 0 30 30" fill="none" xmlns="http://www.w3.org/2000/svg">
<g id="icon navigation">
<g id="Group 1000001982">
<path id="Vector" d="M22.3827 3H6.93095C4.20766 3 2 5.20766 2 7.93095V23.3827C2 26.106 4.20766 28.3137 6.93095 28.3137H22.3827C25.106 28.3137 27.3137 26.106 27.3137 23.3827V7.93095C27.3137 5.20766 25.106 3 22.3827 3Z" fill="#E4E4E7"/>
</g>
<path id="vector" d="M13.8182 10.0455V12.7727C13.8182 13.3152 13.6027 13.8355 13.2191 14.2191C12.8355 14.6027 12.3152 14.8182 11.7727 14.8182H9.04545C8.50297 14.8182 7.9827 14.6027 7.5991 14.2191C7.2155 13.8355 7 13.3152 7 12.7727V10.0455C7 9.50297 7.2155 8.9827 7.5991 8.5991C7.9827 8.2155 8.50297 8 9.04545 8H11.7727C12.3152 8 12.8355 8.2155 13.2191 8.5991C13.6027 8.9827 13.8182 9.50297 13.8182 10.0455ZM19.9545 8H17.2273C16.6848 8 16.1645 8.2155 15.7809 8.5991C15.3973 8.9827 15.1818 9.50297 15.1818 10.0455V12.7727C15.1818 13.3152 15.3973 13.8355 15.7809 14.2191C16.1645 14.6027 16.6848 14.8182 17.2273 14.8182H19.9545C20.497 14.8182 21.0173 14.6027 21.4009 14.2191C21.7845 13.8355 22 13.3152 22 12.7727V10.0455C22 9.50297 21.7845 8.9827 21.4009 8.5991C21.0173 8.2155 20.497 8 19.9545 8ZM11.7727 16.1818H9.04545C8.50297 16.1818 7.9827 16.3973 7.5991 16.7809C7.2155 17.1645 7 17.6848 7 18.2273V20.9545C7 21.497 7.2155 22.0173 7.5991 22.4009C7.9827 22.7845 8.50297 23 9.04545 23H11.7727C12.3152 23 12.8355 22.7845 13.2191 22.4009C13.6027 22.0173 13.8182 21.497 13.8182 20.9545V18.2273C13.8182 17.6848 13.6027 17.1645 13.2191 16.7809C12.8355 16.3973 12.3152 16.1818 11.7727 16.1818ZM19.9545 16.1818H17.2273C16.6848 16.1818 16.1645 16.3973 15.7809 16.7809C15.3973 17.1645 15.1818 17.6848 15.1818 18.2273V20.9545C15.1818 21.497 15.3973 22.0173 15.7809 22.4009C16.1645 22.7845 16.6848 23 17.2273 23H19.9545C20.497 23 21.0173 22.7845 21.4009 22.4009C21.7845 22.0173 22 21.497 22 20.9545V18.2273C22 17.6848 21.7845 17.1645 21.4009 16.7809C21.0173 16.3973 20.497 16.1818 19.9545 16.1818Z" fill="url(#paint0_linear_8255_53436)"/>
</g>
<defs>
<linearGradient id="paint0_linear_8255_53436" x1="21.8783" y1="14.0413" x2="6.5151" y2="14.0413" gradientUnits="userSpaceOnUse">
<stop stop-color="#9396AE"/>
<stop offset="1" stop-color="#C7CBD2"/>
</linearGradient>
</defs>
</svg>
