<svg width="30" height="30" viewBox="0 0 30 30" fill="none" xmlns="http://www.w3.org/2000/svg">
<g id="Property 1=help, Property 2=No">
<g id="Group 1000002308">
<path id="Vector" d="M20.7217 4.6875H9.40723C6.01289 4.6875 3.75 6.95039 3.75 10.3447V17.1334C3.75 20.5277 6.01289 22.7906 9.40723 22.7906V25.2006C9.40723 26.1058 10.4142 26.6489 11.161 26.1397L16.1959 22.7906H20.7217C24.116 22.7906 26.3789 20.5277 26.3789 17.1334V10.3447C26.3789 6.95039 24.116 4.6875 20.7217 4.6875Z" fill="#E4E4E7"/>
<g id="Group 1000002305">
<path id="Vector_2" d="M15.4817 19.8029C16.0476 19.8029 16.5063 19.3442 16.5063 18.7783C16.5063 18.2124 16.0476 17.7537 15.4817 17.7537C14.9158 17.7537 14.457 18.2124 14.457 18.7783C14.457 19.3442 14.9158 19.8029 15.4817 19.8029Z" fill="url(#paint0_linear_7949_852078)"/>
<path id="Vector_3" d="M18.7725 11.5105C18.7725 13.068 17.6249 13.8467 17.2014 14.1336C16.6686 14.4888 16.5046 14.7211 16.5046 15.1036V15.3905C16.5046 15.9506 16.0401 16.4151 15.48 16.4151C14.9199 16.4151 14.4554 15.9506 14.4554 15.3905V15.1036C14.4554 13.5188 15.6166 12.7401 16.0538 12.4395C16.5593 12.098 16.7232 11.8657 16.7232 11.5105C16.7232 10.8274 16.1631 10.2673 15.48 10.2673C14.7969 10.2673 14.2368 10.8274 14.2368 11.5105C14.2368 12.0707 13.7723 12.5352 13.2121 12.5352C12.652 12.5352 12.1875 12.0707 12.1875 11.5105C12.1875 9.6935 13.663 8.21802 15.48 8.21802C17.297 8.21802 18.7725 9.6935 18.7725 11.5105Z" fill="url(#paint1_linear_7949_852078)"/>
</g>
</g>
</g>
<defs>
<linearGradient id="paint0_linear_7949_852078" x1="16.4897" y1="18.579" x2="14.3908" y2="18.579" gradientUnits="userSpaceOnUse">
<stop stop-color="#9396AE"/>
<stop offset="1" stop-color="#C7CBD2"/>
</linearGradient>
<linearGradient id="paint1_linear_7949_852078" x1="18.7191" y1="11.5194" x2="11.9746" y2="11.5194" gradientUnits="userSpaceOnUse">
<stop stop-color="#9396AE"/>
<stop offset="1" stop-color="#C7CBD2"/>
</linearGradient>
</defs>
</svg>
