<svg width="30" height="30" viewBox="0 0 30 30" fill="none" xmlns="http://www.w3.org/2000/svg">
<path d="M28.0048 11.1178C27.9161 9.86847 27.4224 8.79039 26.427 7.99846C25.8285 7.5229 25.2118 7.06346 24.565 6.66044C22.3766 5.29823 20.1781 3.95215 17.9676 2.62621C16.4039 1.68718 14.7938 1.60254 13.1777 2.51941C12.3072 3.01311 11.4366 3.50681 10.5863 4.03477C8.79687 5.1471 7.01149 6.26346 5.24828 7.41408C4.18633 8.10728 3.32588 9.00399 3.07802 10.3037C2.93495 11.0614 2.85032 11.8392 2.83621 12.609C2.80196 14.7107 2.81203 16.8105 2.82211 18.9082C2.83017 20.3913 2.84427 21.8785 3.1546 23.3394C3.54351 25.1731 4.59338 26.4104 6.4654 26.7953C7.39436 26.9867 8.35355 27.1036 9.30064 27.1258C11.4548 27.1741 15.7671 27.1661 15.7671 27.1782C17.2039 27.1782 18.6426 27.2124 20.0774 27.1681C21.3872 27.1278 22.7071 27.0774 24.0028 26.9001C26.1227 26.6099 27.364 25.4008 27.7771 23.3132C27.9342 22.5193 28.035 21.7052 28.0551 20.8971C28.1096 18.7329 28.1196 16.5687 28.1176 14.4024C28.1176 13.3062 28.0793 12.21 28.0028 11.1178H28.0048Z" fill="#E4E4E7"/>
<path d="M20.0896 20.2002H10.8443C10.2378 20.2002 9.74609 20.6919 9.74609 21.2984V21.3206C9.74609 21.9271 10.2378 22.4188 10.8443 22.4188H20.0896C20.6961 22.4188 21.1878 21.9271 21.1878 21.3206V21.2984C21.1878 20.6919 20.6961 20.2002 20.0896 20.2002Z" fill="url(#paint0_linear_7892_901046)"/>
<defs>
<linearGradient id="paint0_linear_7892_901046" x1="21.095" y1="21.0937" x2="9.37622" y2="21.0937" gradientUnits="userSpaceOnUse">
<stop stop-color="#9396AE"/>
<stop offset="1" stop-color="#C7CBD2"/>
</linearGradient>
</defs>
</svg>
