<svg width="30" height="30" viewBox="0 0 30 30" fill="none" xmlns="http://www.w3.org/2000/svg">
<g id="Property 1=Merchant, Property 2=No">
<g id="Group 1000001984">
<path id="Vector" d="M15.2435 2.00008C7.87868 1.97534 2.02067 7.74267 2.00005 15.0415C1.97944 22.2393 7.8189 28.1076 15.0208 28.12C22.2001 28.1344 28.0952 22.3073 28.1179 15.1713C28.1406 7.96528 22.3362 2.02481 15.2435 2.00008Z" fill="#E4E4E7"/>
</g>
<g id="Group 1000002128">
<path id="Vector_2" d="M15.1333 19.2651L16.409 20.4972L16.1975 21.7192C15.6772 21.7192 15.1569 21.7199 14.6365 21.7207H14.4844V21.7139C12.5138 21.7139 10.5432 21.718 8.57259 21.7124C7.53043 21.7097 6.7625 20.7256 7.06754 19.743C7.48288 18.4065 7.92029 17.076 8.38926 15.7571C8.77113 14.6833 9.9217 14.2212 10.9688 14.7025C11.7679 15.0696 12.5861 15.3531 13.4628 15.4575C15.045 15.6459 16.5501 15.4025 17.9855 14.7029C18.2575 14.5706 18.5431 14.5092 18.8231 14.5118C18.6922 14.6313 18.5823 14.776 18.5001 14.9411L17.7117 16.5238L15.9487 16.7778C15.3904 16.8581 14.9351 17.2384 14.7609 17.7702C14.5867 18.3021 14.7293 18.875 15.1333 19.2651Z" fill="url(#paint0_linear_7892_900881)"/>
<path id="Vector_3" d="M14.4737 14.52C16.6726 14.52 18.4552 12.7535 18.4552 10.5745C18.4552 8.39539 16.6726 6.62891 14.4737 6.62891C12.2748 6.62891 10.4922 8.39539 10.4922 10.5745C10.4922 12.7535 12.2748 14.52 14.4737 14.52Z" fill="url(#paint1_linear_7892_900881)"/>
<path id="Vector_4" d="M22.4063 19.9789C22.2835 20.0976 22.2276 20.2683 22.2565 20.4357L22.5961 22.3964C22.6536 22.73 22.3862 23.0006 22.0827 23.0006C22.0028 23.0006 21.9203 22.9818 21.8404 22.9403L20.0634 22.0146C19.9877 21.975 19.9044 21.9554 19.8211 21.9554C19.7378 21.9554 19.6549 21.975 19.5788 22.0146L17.8022 22.9403C17.7223 22.9818 17.6398 23.0006 17.5595 23.0006C17.256 23.0006 16.9886 22.73 17.0464 22.3964L17.1636 21.7183L17.3857 20.4357C17.4146 20.2683 17.3587 20.0976 17.2358 19.9789L15.7985 18.5903C15.4893 18.2918 15.6601 17.7717 16.0872 17.7102L18.0738 17.4241C18.2434 17.3996 18.3898 17.2941 18.4659 17.1418L19.354 15.3579C19.4499 15.166 19.6355 15.0703 19.8211 15.0703C20.0067 15.0703 20.1927 15.166 20.2882 15.3579L20.74 16.2648L21.1767 17.1418C21.2524 17.2941 21.3992 17.3996 21.5688 17.4241L23.5554 17.7102C23.9825 17.7717 24.1529 18.2918 23.8437 18.5903L22.4063 19.9789Z" fill="url(#paint2_linear_7892_900881)"/>
</g>
</g>
<defs>
<linearGradient id="paint0_linear_7892_900881" x1="18.7271" y1="17.4151" x2="6.6178" y2="17.4151" gradientUnits="userSpaceOnUse">
<stop stop-color="#9396AE"/>
<stop offset="1" stop-color="#C7CBD2"/>
</linearGradient>
<linearGradient id="paint1_linear_7892_900881" x1="18.3906" y1="9.80706" x2="10.2348" y2="9.80706" gradientUnits="userSpaceOnUse">
<stop stop-color="#9396AE"/>
<stop offset="1" stop-color="#C7CBD2"/>
</linearGradient>
<linearGradient id="paint2_linear_7892_900881" x1="23.9338" y1="18.2643" x2="8.54715" y2="18.9944" gradientUnits="userSpaceOnUse">
<stop stop-color="#9396AE"/>
<stop offset="1" stop-color="#C7CBD2"/>
</linearGradient>
</defs>
</svg>
