<svg width="30" height="30" viewBox="0 0 30 30" fill="none" xmlns="http://www.w3.org/2000/svg">
<path d="M20.1215 14.7668V14.0908C20.1215 10.3791 17.2203 7.37012 13.6413 7.37012C10.0624 7.37012 7.16117 10.3791 7.16117 14.0908V14.7668C7.16117 15.5781 6.92963 16.3712 6.49572 17.0462L5.43241 18.7004C4.46119 20.2113 5.20264 22.265 6.89184 22.7428C11.3108 23.9927 15.9719 23.9927 20.3909 22.7428C22.0801 22.265 22.8215 20.2113 21.8503 18.7004L20.787 17.0462C20.3531 16.3712 20.1215 15.5781 20.1215 14.7668Z" fill="url(#paint0_linear_19893_21923)"/>
<path d="M13.3036 26.3401C11.877 26.3401 10.6083 25.6787 9.80075 24.6521C12.126 24.9672 14.4811 24.9672 16.8064 24.6522C15.9988 25.6787 14.7302 26.3401 13.3036 26.3401Z" fill="url(#paint1_linear_19893_21923)"/>
<rect x="13.2917" y="2.25" width="11.5" height="11.5" rx="5.75" fill="url(#paint2_linear_19893_21923)"/>
<rect x="13.2917" y="2.25" width="11.5" height="11.5" rx="5.75" stroke="white" stroke-width="1.5"/>
<path d="M21.0417 7.40802V8.46297H17.0415V7.40802H21.0417ZM19.5906 5.46997V10.5299H18.5165V5.46997H19.5906Z" fill="white"/>
<defs>
<linearGradient id="paint0_linear_19893_21923" x1="20.3624" y1="25.6423" x2="4.04052" y2="8.3596" gradientUnits="userSpaceOnUse">
<stop stop-color="#9396AE"/>
<stop offset="1" stop-color="#C7CBD2"/>
</linearGradient>
<linearGradient id="paint1_linear_19893_21923" x1="20.3624" y1="25.6423" x2="4.04052" y2="8.3596" gradientUnits="userSpaceOnUse">
<stop stop-color="#9396AE"/>
<stop offset="1" stop-color="#C7CBD2"/>
</linearGradient>
<linearGradient id="paint2_linear_19893_21923" x1="22.9306" y1="12.6321" x2="14.409" y2="2.72793" gradientUnits="userSpaceOnUse">
<stop stop-color="#9396AE"/>
<stop offset="1" stop-color="#C7CBD2"/>
</linearGradient>
</defs>
</svg>
