<svg width="30" height="30" viewBox="0 0 30 30" fill="none" xmlns="http://www.w3.org/2000/svg">
<g id="Property 1=P2P, Property 2=No">
<g id="Group 1000001982">
<path id="Vector" d="M22.2577 2.8125H6.80595C4.08266 2.8125 1.875 5.02016 1.875 7.74345V23.1952C1.875 25.9185 4.08266 28.1262 6.80595 28.1262H22.2577C24.981 28.1262 27.1887 25.9185 27.1887 23.1952V7.74345C27.1887 5.02016 24.981 2.8125 22.2577 2.8125Z" fill="#E4E4E7"/>
<g id="Group">
<path id="Vector_2" d="M15.1155 11.9527C15.1115 14.3003 13.2173 16.1804 10.8637 16.1744C8.53621 16.1683 6.66217 14.26 6.66016 11.9084C6.66016 9.82279 8.30851 7.73313 10.8294 7.70895C13.4107 7.68477 15.1337 9.76435 15.1155 11.9527ZM10.8959 14.3648V14.3689C10.9322 14.3689 10.9684 14.3689 11.0047 14.3689C11.2022 14.3608 11.2526 14.3124 11.2647 14.121C11.2707 14.0364 11.2727 13.9497 11.2727 13.8651C11.2727 13.7744 11.309 13.7341 11.4037 13.716C11.71 13.6595 11.9921 13.5467 12.2017 13.2988C12.4858 12.9643 12.4757 12.515 12.1533 12.2167C12.0062 12.0817 11.8329 11.9669 11.6536 11.8782C11.3634 11.7351 11.0571 11.6263 10.7629 11.4913C10.5876 11.4107 10.4163 11.32 10.2571 11.2112C10.1422 11.1326 10.1443 11.0117 10.2591 10.9291C10.3518 10.8646 10.4647 10.8021 10.5735 10.79C10.9483 10.7437 11.3171 10.7659 11.6657 10.9472C11.7301 10.9815 11.841 10.9653 11.9135 10.9351C11.9881 10.9049 12.0465 10.8303 12.107 10.7699C12.2259 10.647 12.2319 10.5704 12.0888 10.4878C11.8732 10.3628 11.6435 10.258 11.4097 10.1734C11.309 10.1371 11.2687 10.1029 11.2707 10.0021C11.2707 9.90339 11.2707 9.80264 11.2566 9.70591C11.2485 9.65352 11.2183 9.57695 11.178 9.56082C11.0027 9.48828 10.8133 9.48425 10.6359 9.55075C10.503 9.60113 10.5412 9.75024 10.513 9.85906C10.507 9.88526 10.503 9.91347 10.505 9.93966C10.5271 10.0968 10.4485 10.1573 10.3014 10.1895C10.0274 10.248 9.78356 10.3769 9.60422 10.5986C9.4289 10.8162 9.35838 11.0601 9.46115 11.3301C9.56593 11.6082 9.78356 11.7835 10.0435 11.9004C10.2934 12.0132 10.5513 12.1079 10.8012 12.2208C11.039 12.3276 11.2808 12.4303 11.5045 12.5633C11.706 12.6822 11.6838 12.8998 11.4762 13.0107C11.4299 13.0349 11.3775 13.055 11.3251 13.0671C10.8677 13.1658 10.4183 13.1497 9.99515 12.9341C9.82588 12.8475 9.70094 12.8575 9.58004 12.9966C9.56593 13.0127 9.54578 13.0268 9.52966 13.0429C9.3221 13.2384 9.32613 13.2988 9.57601 13.448C9.80976 13.589 10.0576 13.6958 10.3317 13.722C10.4586 13.7341 10.515 13.7804 10.505 13.9134C10.4989 14.0021 10.5211 14.0928 10.5332 14.1814C10.5493 14.2963 10.6178 14.3568 10.7327 14.3648C10.7871 14.3689 10.8415 14.3648 10.8939 14.3648H10.8959Z" fill="url(#paint0_linear_7892_901050)"/>
<path id="Vector_3" d="M18.4853 8.62607C18.6949 8.66838 18.8863 8.70062 19.0717 8.74496C20.0833 8.98072 20.9034 9.48853 21.4112 10.4235C21.8545 11.2417 21.8948 12.1061 21.6651 12.9948C21.5039 13.6255 21.1855 14.1777 20.8107 14.7016C20.7865 14.7358 20.7543 14.7681 20.7261 14.8003L20.6858 14.7882C20.714 14.6391 20.7422 14.49 20.7684 14.3389C20.8712 13.7162 20.8994 13.0875 20.7704 12.4709C20.6394 11.8341 20.2727 11.3283 19.7387 10.9535C19.2168 10.5888 18.6243 10.4155 17.9855 10.3127C17.9855 10.5424 17.9855 10.7621 17.9855 10.9817C17.9855 11.0946 17.9755 11.2054 17.8626 11.2779C17.774 11.3364 17.7095 11.3404 17.6269 11.2618C17.1674 10.8104 16.6999 10.3651 16.2425 9.9117C15.91 9.58122 15.5856 9.24269 15.2611 8.90415C15.0939 8.72884 15.1261 8.59584 15.3619 8.51927C15.64 8.42859 15.9221 8.35201 16.2062 8.28148C16.9619 8.09408 17.7195 7.91675 18.4772 7.73136C18.5901 7.70315 18.6566 7.75353 18.7251 7.82406C18.7956 7.89458 18.7835 7.96914 18.7472 8.04773C18.6626 8.23514 18.578 8.42254 18.4853 8.62808V8.62607Z" fill="url(#paint1_linear_7892_901050)"/>
<path id="Vector_4" d="M10.609 22.5564C10.472 22.5282 10.3612 22.504 10.2483 22.4838C9.4584 22.3327 8.72894 22.0506 8.16471 21.4501C7.41509 20.6501 7.15716 19.6909 7.32038 18.6148C7.44532 17.7886 7.80803 17.0652 8.31987 16.4123C8.338 16.3902 8.36219 16.372 8.41458 16.3257C8.37025 16.5332 8.33196 16.7025 8.29972 16.8738C8.16874 17.5932 8.14657 18.3085 8.39644 19.0078C8.69871 19.8501 9.34152 20.3357 10.1496 20.632C10.4015 20.7246 10.6715 20.767 10.9314 20.8375C11.0544 20.8697 11.0806 20.8173 11.0806 20.7085C11.0806 20.505 11.0806 20.3015 11.0967 20.1C11.1027 20.0335 11.1531 19.9629 11.2015 19.9105C11.278 19.8299 11.3566 19.832 11.4433 19.9186C12.2271 20.7025 13.0171 21.4803 13.8009 22.2662C13.9803 22.4455 13.94 22.5926 13.6921 22.6652C13.2206 22.8022 12.747 22.9271 12.2715 23.046C11.7516 23.177 11.2297 23.2939 10.7078 23.4148C10.6594 23.4269 10.609 23.4309 10.5607 23.4329C10.345 23.443 10.2544 23.3161 10.343 23.1125C10.4196 22.9352 10.5083 22.7639 10.609 22.5523V22.5564Z" fill="url(#paint2_linear_7892_901050)"/>
<path id="Vector_5" d="M18.1408 14.9928C15.6803 15.0069 13.9413 17.0461 13.9493 19.1962C13.9312 21.5116 15.8113 23.43 18.1125 23.4582C20.4581 23.4864 22.3745 21.6204 22.4027 19.303C22.4309 16.9091 20.5488 14.9786 18.1387 14.9928H18.1408Z" fill="url(#paint3_linear_7892_901050)"/>
</g>
</g>
</g>
<defs>
<linearGradient id="paint0_linear_7892_901050" x1="19.6854" y1="7.5" x2="5.15411" y2="17.8125" gradientUnits="userSpaceOnUse">
<stop stop-color="#9396AE"/>
<stop offset="1" stop-color="#C7CBD2"/>
</linearGradient>
<linearGradient id="paint1_linear_7892_901050" x1="21.7489" y1="10.5736" x2="7.96753" y2="19.6875" gradientUnits="userSpaceOnUse">
<stop stop-color="#9396AE"/>
<stop offset="1" stop-color="#C7CBD2"/>
</linearGradient>
<linearGradient id="paint2_linear_7892_901050" x1="21.5639" y1="11.25" x2="7.05885" y2="19.1884" gradientUnits="userSpaceOnUse">
<stop stop-color="#9396AE"/>
<stop offset="1" stop-color="#C7CBD2"/>
</linearGradient>
<linearGradient id="paint3_linear_7892_901050" x1="25.3128" y1="12.6563" x2="9.844" y2="23.4375" gradientUnits="userSpaceOnUse">
<stop stop-color="#9396AE"/>
<stop offset="1" stop-color="#C7CBD2"/>
</linearGradient>
</defs>
</svg>
