<svg width="30" height="30" viewBox="0 0 30 30" fill="none" xmlns="http://www.w3.org/2000/svg">
<path d="M11.2623 2.50005C6.38955 2.48369 2.51367 6.29964 2.50004 11.1289C2.4864 15.8914 6.34999 19.7741 11.1151 19.7823C15.8651 19.7919 19.7655 15.9364 19.7805 11.2148C19.7955 6.44694 15.9551 2.51642 11.2623 2.50005Z" fill="#E4E4E7"/>
<path d="M13.3005 7.99014C13.3005 9.18311 12.3334 10.1502 11.1405 10.1502C9.94748 10.1502 8.98039 9.18311 8.98039 7.99014C8.98039 6.79717 9.94748 5.83008 11.1405 5.83008C12.3334 5.83008 13.3005 6.79717 13.3005 7.99014Z" fill="#17112D"/>
<path d="M13.3005 7.99014C13.3005 9.18311 12.3334 10.1502 11.1405 10.1502C9.94748 10.1502 8.98039 9.18311 8.98039 7.99014C8.98039 6.79717 9.94748 5.83008 11.1405 5.83008C12.3334 5.83008 13.3005 6.79717 13.3005 7.99014Z" fill="url(#paint0_linear_9532_388519)"/>
<path d="M15.4606 14.2003C15.4606 15.5424 15.4606 16.6304 11.1405 16.6304C6.82031 16.6304 6.82031 15.5424 6.82031 14.2003C6.82031 12.8582 8.75451 11.7703 11.1405 11.7703C13.5264 11.7703 15.4606 12.8582 15.4606 14.2003Z" fill="#17112D"/>
<path d="M15.4606 14.2003C15.4606 15.5424 15.4606 16.6304 11.1405 16.6304C6.82031 16.6304 6.82031 15.5424 6.82031 14.2003C6.82031 12.8582 8.75451 11.7703 11.1405 11.7703C13.5264 11.7703 15.4606 12.8582 15.4606 14.2003Z" fill="url(#paint1_linear_9532_388519)"/>
<path d="M22.8184 11.6201L24.8984 9.54011M22.8184 11.6201L20.7384 9.54011M22.8184 11.6201L22.8184 7.46012C22.8184 6.76679 22.4024 5.38013 20.7384 5.38013" stroke="#9396AE" stroke-width="0.959998" stroke-linecap="round" stroke-linejoin="round"/>
<path d="M10.4987 21.7001L9.21875 22.98M10.4987 21.7001L11.7788 22.98M10.4987 21.7001L10.4988 24.26C10.4988 24.6867 10.7548 25.54 11.7788 25.54" stroke="#9396AE" stroke-width="0.959998" stroke-linecap="round" stroke-linejoin="round"/>
<path d="M14.0254 19.9949C16.942 19.2365 19.2512 16.934 20.0011 14.0279C20.1158 14.0223 20.2313 14.0197 20.3477 14.0201C23.7368 14.0319 26.5103 16.8705 26.4995 20.3138C26.4887 23.7237 23.6718 26.5081 20.2413 26.5012C16.8 26.4953 14.0097 23.6912 14.0196 20.2518C14.0198 20.1657 14.0217 20.0801 14.0254 19.9949Z" fill="#E4E4E7"/>
<path d="M21.6444 18.8732C21.6444 19.6391 21.0235 20.2599 20.2577 20.2599C19.4919 20.2599 18.871 19.6391 18.871 18.8732C18.871 18.1074 19.4919 17.4866 20.2577 17.4866C21.0235 17.4866 21.6444 18.1074 21.6444 18.8732Z" fill="#17112D"/>
<path d="M21.6444 18.8732C21.6444 19.6391 21.0235 20.2599 20.2577 20.2599C19.4919 20.2599 18.871 19.6391 18.871 18.8732C18.871 18.1074 19.4919 17.4866 20.2577 17.4866C21.0235 17.4866 21.6444 18.1074 21.6444 18.8732Z" fill="url(#paint2_linear_9532_388519)"/>
<path d="M23.031 22.8599C23.031 23.7214 23.031 24.4199 20.2577 24.4199C17.4844 24.4199 17.4844 23.7214 17.4844 22.8599C17.4844 21.9983 18.726 21.2999 20.2577 21.2999C21.7894 21.2999 23.031 21.9983 23.031 22.8599Z" fill="#17112D"/>
<path d="M23.031 22.8599C23.031 23.7214 23.031 24.4199 20.2577 24.4199C17.4844 24.4199 17.4844 23.7214 17.4844 22.8599C17.4844 21.9983 18.726 21.2999 20.2577 21.2999C21.7894 21.2999 23.031 21.9983 23.031 22.8599Z" fill="url(#paint3_linear_9532_388519)"/>
<defs>
<linearGradient id="paint0_linear_9532_388519" x1="15.3905" y1="10.1799" x2="6.541" y2="10.1799" gradientUnits="userSpaceOnUse">
<stop stop-color="#9396AE"/>
<stop offset="1" stop-color="#C7CBD2"/>
</linearGradient>
<linearGradient id="paint1_linear_9532_388519" x1="15.3905" y1="10.1799" x2="6.541" y2="10.1799" gradientUnits="userSpaceOnUse">
<stop stop-color="#9396AE"/>
<stop offset="1" stop-color="#C7CBD2"/>
</linearGradient>
<linearGradient id="paint2_linear_9532_388519" x1="22.986" y1="20.279" x2="17.3051" y2="20.279" gradientUnits="userSpaceOnUse">
<stop stop-color="#9396AE"/>
<stop offset="1" stop-color="#C7CBD2"/>
</linearGradient>
<linearGradient id="paint3_linear_9532_388519" x1="22.986" y1="20.279" x2="17.3051" y2="20.279" gradientUnits="userSpaceOnUse">
<stop stop-color="#9396AE"/>
<stop offset="1" stop-color="#C7CBD2"/>
</linearGradient>
</defs>
</svg>
