<svg width="30" height="30" viewBox="0 0 30 30" fill="none" xmlns="http://www.w3.org/2000/svg">
<g id="Property 1=Rule, Property 2=No">
<g id="Group 1000002309">
<path id="Vector" d="M8.66699 3.75H21.4891C23.1677 3.75 24.5311 5.11338 24.5311 6.79199V19.2358H5.625V6.79199C5.625 5.11338 6.98838 3.75 8.66699 3.75Z" fill="#E4E4E7"/>
<path id="Vector_2" d="M5.625 21.0564H24.5389V24.1457C24.5389 25.8243 23.1756 27.1877 21.497 27.1877H8.66699C6.98838 27.1877 5.625 25.8243 5.625 24.1457V21.0564Z" fill="#E4E4E7"/>
<path id="Vector_3" d="M21.1177 7.57227H9.04431C8.46108 7.57227 7.98828 8.04507 7.98828 8.62829C7.98828 9.21152 8.46108 9.68432 9.04431 9.68432H21.1177C21.7009 9.68432 22.1737 9.21152 22.1737 8.62829C22.1737 8.04507 21.7009 7.57227 21.1177 7.57227Z" fill="url(#paint0_linear_7949_859890)"/>
<path id="Vector_4" d="M17.1931 11.6309H9.04431C8.46108 11.6309 7.98828 12.1037 7.98828 12.6869C7.98828 13.2701 8.46108 13.7429 9.04431 13.7429H17.1931C17.7763 13.7429 18.2491 13.2701 18.2491 12.6869C18.2491 12.1037 17.7763 11.6309 17.1931 11.6309Z" fill="url(#paint1_linear_7949_859890)"/>
</g>
</g>
<defs>
<linearGradient id="paint0_linear_7949_859890" x1="22.0586" y1="8.4229" x2="7.52971" y2="8.4229" gradientUnits="userSpaceOnUse">
<stop stop-color="#9396AE"/>
<stop offset="1" stop-color="#C7CBD2"/>
</linearGradient>
<linearGradient id="paint1_linear_7949_859890" x1="18.1658" y1="12.4815" x2="7.65658" y2="12.4815" gradientUnits="userSpaceOnUse">
<stop stop-color="#9396AE"/>
<stop offset="1" stop-color="#C7CBD2"/>
</linearGradient>
</defs>
</svg>
