<svg width="30" height="30" viewBox="0 0 30 30" fill="none" xmlns="http://www.w3.org/2000/svg">
<g id="Property 1=setting, Property 2=No">
<path id="Vector" d="M25.6731 11.7753C23.2878 11.7753 22.3126 10.0885 23.4987 8.0195C24.1839 6.82027 23.7754 5.29158 22.5762 4.60631L20.2963 3.30165C19.2553 2.68227 17.9111 3.05127 17.2917 4.09235L17.1467 4.34274C15.9607 6.41174 14.0103 6.41174 12.811 4.34274L12.6661 4.09235C12.0731 3.05127 10.7289 2.68227 9.68778 3.30165L7.40793 4.60631C6.2087 5.29158 5.80017 6.83345 6.48544 8.03268C7.68467 10.0885 6.70948 11.7753 4.3242 11.7753C2.95365 11.7753 1.82031 12.8955 1.82031 14.2792V16.5986C1.82031 17.9691 2.94047 19.1025 4.3242 19.1025C6.70948 19.1025 7.68467 20.7893 6.48544 22.8583C5.80017 24.0575 6.2087 25.5862 7.40793 26.2715L9.68778 27.5761C10.7289 28.1955 12.0731 27.8265 12.6924 26.7855L12.8374 26.5351C14.0235 24.4661 15.9738 24.4661 17.1731 26.5351L17.318 26.7855C17.9374 27.8265 19.2816 28.1955 20.3227 27.5761L22.6025 26.2715C23.8018 25.5862 24.2103 24.0444 23.525 22.8583C22.3258 20.7893 23.301 19.1025 25.6863 19.1025C27.0568 19.1025 28.1902 17.9823 28.1902 16.5986V14.2792C28.177 12.9087 27.0568 11.7753 25.6731 11.7753Z" fill="#E4E4E7"/>
<circle id="Ellipse 758" cx="15.5" cy="15.5" r="4.5" fill="url(#paint0_linear_7892_900927)"/>
</g>
<defs>
<linearGradient id="paint0_linear_7892_900927" x1="19.927" y1="14.6248" x2="10.7091" y2="14.6248" gradientUnits="userSpaceOnUse">
<stop stop-color="#9396AE"/>
<stop offset="1" stop-color="#C7CBD2"/>
</linearGradient>
</defs>
</svg>
