<svg width="30" height="30" viewBox="0 0 30 30" fill="none" xmlns="http://www.w3.org/2000/svg">
<path d="M15.2435 2.00008C7.87868 1.97534 2.02067 7.74267 2.00005 15.0415C1.97944 22.2393 7.8189 28.1076 15.0208 28.12C22.2001 28.1344 28.0952 22.3073 28.1179 15.1713C28.1406 7.96528 22.3362 2.02481 15.2435 2.00008Z" fill="#E4E4E7"/>
<path d="M23.025 18.6708C22.961 19.4468 22.465 20.1188 21.633 20.5748C20.833 21.0148 19.825 21.2228 18.825 21.1988C19.401 20.6788 19.737 20.0308 19.801 19.3428C19.881 18.3508 19.409 17.3988 18.465 16.6388C17.929 16.2148 17.305 15.8788 16.625 15.6308C18.393 15.1188 20.617 15.4628 21.985 16.5668C22.721 17.1588 23.097 17.9028 23.025 18.6708Z" fill="url(#paint0_linear_7892_900856)"/>
<path d="M21.4227 11.2674C21.5508 12.8194 20.4468 14.1794 18.9188 14.3634C18.9108 14.3634 18.9108 14.3634 18.9028 14.3634H18.8787C18.8307 14.3634 18.7827 14.3634 18.7427 14.3794C17.9667 14.4194 17.2548 14.1714 16.7188 13.7154C17.5428 12.9794 18.0148 11.8754 17.9188 10.6754C17.8628 10.0274 17.6388 9.43539 17.3028 8.93139C17.6068 8.77939 17.9588 8.68339 18.3188 8.65139C19.8868 8.51539 21.2868 9.68339 21.4227 11.2674Z" fill="url(#paint1_linear_7892_900856)"/>
<path d="M16.696 16.7254C14.464 15.2374 10.824 15.2374 8.576 16.7254C7.56 17.4054 7 18.3254 7 19.3094C7 20.2934 7.56 21.2054 8.568 21.8774C9.688 22.6294 11.16 23.0054 12.632 23.0054C14.104 23.0054 15.576 22.6294 16.696 21.8774C17.704 21.1974 18.264 20.2854 18.264 19.2934C18.256 18.3094 17.704 17.3974 16.696 16.7254Z" fill="url(#paint2_linear_7892_900856)"/>
<path d="M12.6281 7C10.5321 7 8.82812 8.704 8.82812 10.8C8.82812 12.856 10.4361 14.52 12.5321 14.592C12.5961 14.584 12.6601 14.584 12.7081 14.592C12.7241 14.592 12.7321 14.592 12.7481 14.592C12.7561 14.592 12.7561 14.592 12.7641 14.592C14.8121 14.52 16.4201 12.856 16.4281 10.8C16.4281 8.704 14.7241 7 12.6281 7Z" fill="url(#paint3_linear_7892_900856)"/>
<defs>
<linearGradient id="paint0_linear_7892_900856" x1="22.9817" y1="17.7353" x2="16.4178" y2="17.7353" gradientUnits="userSpaceOnUse">
<stop stop-color="#9396AE"/>
<stop offset="1" stop-color="#C7CBD2"/>
</linearGradient>
<linearGradient id="paint1_linear_7892_900856" x1="21.3946" y1="10.9536" x2="16.5664" y2="10.9536" gradientUnits="userSpaceOnUse">
<stop stop-color="#9396AE"/>
<stop offset="1" stop-color="#C7CBD2"/>
</linearGradient>
<linearGradient id="paint2_linear_7892_900856" x1="18.1726" y1="18.5881" x2="6.63587" y2="18.5881" gradientUnits="userSpaceOnUse">
<stop stop-color="#9396AE"/>
<stop offset="1" stop-color="#C7CBD2"/>
</linearGradient>
<linearGradient id="paint3_linear_7892_900856" x1="16.3665" y1="10.0577" x2="8.58244" y2="10.0577" gradientUnits="userSpaceOnUse">
<stop stop-color="#9396AE"/>
<stop offset="1" stop-color="#C7CBD2"/>
</linearGradient>
</defs>
</svg>
