<svg width="30" height="30" viewBox="0 0 30 30" fill="none" xmlns="http://www.w3.org/2000/svg">
<path d="M24 3.75H18.775C18.25 2.3 16.875 1.25 15.25 1.25C13.625 1.25 12.25 2.3 11.725 3.75H6.5C5.83696 3.75 5.20107 4.01339 4.73223 4.48223C4.26339 4.95107 4 5.58696 4 6.25V23.75C4 24.413 4.26339 25.0489 4.73223 25.5178C5.20107 25.9866 5.83696 26.25 6.5 26.25H24C24.663 26.25 25.2989 25.9866 25.7678 25.5178C26.2366 25.0489 26.5 24.413 26.5 23.75V6.25C26.5 5.58696 26.2366 4.95107 25.7678 4.48223C25.2989 4.01339 24.663 3.75 24 3.75ZM15.25 3.75C15.5815 3.75 15.8995 3.8817 16.1339 4.11612C16.3683 4.35054 16.5 4.66848 16.5 5C16.5 5.33152 16.3683 5.64946 16.1339 5.88388C15.8995 6.1183 15.5815 6.25 15.25 6.25C14.9185 6.25 14.6005 6.1183 14.3661 5.88388C14.1317 5.64946 14 5.33152 14 5C14 4.66848 14.1317 4.35054 14.3661 4.11612C14.6005 3.8817 14.9185 3.75 15.25 3.75Z" fill="#E8E9EF"/>
<path d="M18.4286 24L13.8571 19.4286H17.2857V11.4286H19.5714V19.4286H23L18.4286 24ZM12.7143 20.5714H10.4286V12.5714H7L11.5714 8L16.1429 12.5714H12.7143V20.5714Z" fill="url(#paint0_linear_14488_235953)"/>
<defs>
<linearGradient id="paint0_linear_14488_235953" x1="22.8702" y1="14.444" x2="6.48277" y2="14.444" gradientUnits="userSpaceOnUse">
<stop stop-color="#9396AE"/>
<stop offset="1" stop-color="#C7CBD2"/>
</linearGradient>
</defs>
</svg>
