<svg width="23" height="23" viewBox="0 0 23 23" fill="none" xmlns="http://www.w3.org/2000/svg">
<path d="M0.800049 12.4443V11.1982C0.812402 11.1295 0.830663 11.0607 0.836034 10.9915C0.990722 8.89673 1.65996 6.97925 2.90552 5.28359C4.70304 2.83652 7.10714 1.38311 10.1178 0.92334C10.4342 0.875 10.7521 0.840625 11.0696 0.799805H12.4875C12.7207 0.827197 12.9532 0.856201 13.1858 0.881982C15.4712 1.13604 17.5235 1.95244 19.282 3.44883C20.9852 4.89902 22.1287 6.70103 22.6083 8.89888C22.6964 9.30171 22.7372 9.71528 22.7995 10.124V11.1123C22.7367 11.492 22.6996 11.8788 22.6078 12.2515C21.981 14.7953 19.9947 16.3078 17.5106 16.5602C16.6233 16.6504 15.7236 16.6247 14.8299 16.6558C14.6086 16.6633 14.3868 16.673 14.1676 16.7015C13.0644 16.8459 12.1562 18.1603 12.8001 19.3167C12.9285 19.5471 13.0848 19.7619 13.2298 19.9832C13.8561 20.935 13.5236 22.1316 12.4918 22.6027C12.3001 22.6908 12.0879 22.7353 11.8855 22.7998H10.8977C10.8359 22.7869 10.7752 22.7697 10.7129 22.7611C10.3235 22.7074 9.92983 22.6763 9.54473 22.6C7.59476 22.2193 5.79217 21.295 4.34497 19.9338C2.53008 18.2483 1.39087 16.1853 0.968702 13.7366C0.892432 13.3091 0.85376 12.8751 0.800049 12.4443ZM7.28618 5.40068C7.29102 6.45234 8.17188 7.33052 9.21978 7.32676C9.72955 7.31954 10.2164 7.11386 10.577 6.75342C10.9375 6.39297 11.1433 5.90615 11.1507 5.39639C11.1544 4.34097 10.2623 3.4542 9.20527 3.46279C8.69493 3.46886 8.20748 3.67557 7.84835 4.03822C7.48922 4.40087 7.28728 4.8903 7.28618 5.40068ZM12.4424 5.40068C12.4489 6.45234 13.3324 7.33105 14.376 7.32461C15.4196 7.31816 16.3037 6.43945 16.3048 5.39102C16.3048 4.33398 15.4137 3.44937 14.3572 3.46011C13.8467 3.46703 13.3595 3.67481 13.0011 4.03844C12.6427 4.40207 12.442 4.89227 12.4424 5.40283V5.40068ZM3.41899 9.25391C3.4147 10.3029 4.2832 11.18 5.33916 11.1918C6.38491 11.2042 7.29155 10.2991 7.28188 9.2523C7.27543 8.74237 7.06934 8.2553 6.70784 7.8956C6.34634 7.53591 5.85824 7.33226 5.34829 7.32837C4.83793 7.33174 4.34941 7.53587 3.98837 7.89661C3.62733 8.25734 3.42279 8.7457 3.41899 9.25605V9.25391ZM16.3096 9.25767C16.3139 9.76749 16.5177 10.2554 16.8773 10.6168C17.2369 10.9782 17.7238 11.1844 18.2335 11.1913C19.2766 11.1982 20.1564 10.3254 20.1725 9.26895C20.1881 8.22105 19.2938 7.32461 18.2352 7.32783C17.7246 7.33192 17.2363 7.53699 16.8758 7.8986C16.5154 8.26022 16.312 8.74927 16.3096 9.25981V9.25767ZM4.06353 14.4139C4.06796 14.9235 4.27164 15.4111 4.63099 15.7725C4.99033 16.1338 5.47681 16.3402 5.98638 16.3475C7.02837 16.3556 7.90923 15.4833 7.92642 14.4263C7.94307 13.3789 7.04932 12.4819 5.99282 12.4841C5.48186 12.4873 4.99278 12.6919 4.63162 13.0533C4.27046 13.4148 4.06634 13.904 4.06353 14.415V14.4139Z" fill="url(#paint0_linear_18535_7660)"/>
<defs>
<linearGradient id="paint0_linear_18535_7660" x1="30" y1="24.9998" x2="0.0888771" y2="9.66034" gradientUnits="userSpaceOnUse">
<stop stop-color="#9396AE"/>
<stop offset="1" stop-color="#C7CBD2"/>
</linearGradient>
</defs>
</svg>
