<svg width="120" height="120" viewBox="0 0 120 120" fill="none" xmlns="http://www.w3.org/2000/svg">
<path d="M43.7437 4.93675L47.5484 14.7367C47.7013 15.1306 47.6986 15.5664 47.5409 15.9482C47.3832 16.3299 47.0835 16.6264 46.7075 16.7724L32.5863 22.2556C32.2104 22.4016 31.7891 22.3851 31.4151 22.2098C31.0411 22.0345 30.7451 21.7147 30.5922 21.3208L26.7876 11.5208C26.7169 11.3397 26.6787 11.1477 26.6752 10.9545C26.6685 10.6337 26.756 10.3214 26.9262 10.0591C27.0964 9.79667 27.3413 9.59652 27.6284 9.48512L41.7496 4.00187C41.9358 3.92952 42.135 3.8963 42.336 3.90413C42.537 3.91196 42.7357 3.96067 42.9209 4.04749C43.1061 4.13431 43.2741 4.25753 43.4153 4.41012C43.5564 4.5627 43.6681 4.74165 43.7437 4.93675Z" fill="url(#paint0_linear_7927_800060)"/>
<path opacity="0.5" d="M43.4442 4.44334L38.7253 13.6529C38.5101 14.0727 38.1553 14.395 37.7243 14.5623C37.2933 14.7297 36.814 14.7313 36.3719 14.5667L26.6755 10.9552C26.6688 10.6344 26.7564 10.3222 26.9266 10.0598C27.0968 9.79741 27.3417 9.59727 27.6288 9.48586L41.75 4.00262C42.0369 3.89121 42.3525 3.8737 42.655 3.95239C42.9575 4.03109 43.2327 4.20229 43.4442 4.44334Z" fill="white"/>
<path d="M47.1661 44.8527L41.4724 66.3186C41.2435 67.1815 40.6969 67.9222 39.9528 68.3779C39.2086 68.8336 38.328 68.967 37.5045 68.7486L6.57206 60.5459C5.74857 60.3275 5.04973 59.7753 4.62927 59.0108C4.20882 58.2462 4.10118 57.332 4.33004 56.4691L10.0238 35.0032C10.1283 34.6061 10.3021 34.2308 10.5363 33.8964C10.9239 33.3403 11.4618 32.9161 12.0788 32.6798C12.6958 32.4435 13.3629 32.4064 13.9917 32.5733L44.9241 40.776C45.3319 40.884 45.7135 41.0751 46.0469 41.3385C46.3803 41.6018 46.6591 41.9322 46.8673 42.3108C47.0755 42.6894 47.2091 43.1088 47.2604 43.5449C47.3116 43.9811 47.2796 44.4255 47.1661 44.8527Z" fill="url(#paint1_linear_7927_800060)"/>
<path opacity="0.5" d="M47.2711 43.6346L27.7581 53.4901C26.8683 53.9391 25.8617 54.0482 24.9175 53.7978C23.9734 53.5474 23.1531 52.9539 22.6029 52.123L10.5388 33.8951C10.9263 33.3391 11.4642 32.9148 12.0812 32.6785C12.6983 32.4422 13.3654 32.4051 13.9941 32.572L44.9266 40.7747C45.555 40.9414 46.1157 41.304 46.5344 41.8147C46.953 42.3254 47.2099 42.96 47.2711 43.6346Z" fill="white"/>
<path d="M53.1016 25.5172C53.1016 22.0892 55.8805 19.3103 59.3085 19.3103H60.6878C64.1157 19.3103 66.8947 22.0892 66.8947 25.5172C66.8947 28.9452 64.1157 31.7241 60.6878 31.7241H59.3085C55.8805 31.7241 53.1016 28.9452 53.1016 25.5172Z" fill="url(#paint2_linear_7927_800060)"/>
<path fill-rule="evenodd" clip-rule="evenodd" d="M51.0824 27.2215C55.2253 25.5067 62.0715 24.1511 67.9313 27.5861C68.2365 27.765 68.5272 27.9206 68.804 28.0539C69.0912 28.2197 69.4082 28.3805 69.7556 28.5417C79.7425 33.2134 84.9217 41.2541 85.1755 52.2854C85.3036 57.8252 85.2626 63.3691 85.2215 68.9129C85.2103 70.4249 85.1991 71.9368 85.1913 73.4485C85.1913 74.8079 85.5538 75.9203 86.5326 76.9059C87.7028 78.0815 88.818 79.3122 89.9337 80.5436C90.2134 80.8522 90.4932 81.1609 90.7738 81.4688C91.7888 82.5835 92.2238 85.8188 91.5532 87.1329C91.1001 88.0142 90.3298 88.3042 89.3963 88.3042H83.1659L59.0393 88.3133H29.5862C27.0305 88.3133 26.5706 87.7469 26.4438 85.1731C26.3531 83.3312 26.8629 81.8948 28.2155 80.6419C28.8578 80.0416 29.4448 79.3846 30.0321 78.7273C30.553 78.1443 31.0741 77.5611 31.6343 77.0169C32.7263 75.9589 33.1001 74.7513 33.0775 73.2537C32.9982 68.1606 32.9189 63.0584 32.9959 57.9698C33.0057 57.3455 33.0105 56.7195 33.0153 56.0929C33.0383 53.0817 33.0614 50.0584 33.6371 47.1515C35.4496 38.0165 40.9143 31.6705 49.4829 28.0228C49.5297 28.0029 49.5755 27.9834 49.6203 27.9644C50.3405 27.6584 50.7967 27.4645 51.0824 27.2215Z" fill="url(#paint3_linear_7927_800060)"/>
<path d="M59.2115 94.3336C61.1351 94.3336 63.0631 94.3177 64.9844 94.3336C66.38 94.3494 66.8127 94.943 66.4661 96.2911C66.0366 97.9113 65.0824 99.3436 63.7526 100.364C62.4228 101.384 60.7924 101.936 59.1163 101.931C57.4401 101.927 55.8126 101.367 54.4882 100.34C53.1638 99.3123 52.2171 97.875 51.7962 96.2526C51.4699 94.9634 51.8959 94.354 53.2122 94.3381C55.2127 94.3155 57.211 94.3359 59.2115 94.3336Z" fill="url(#paint4_linear_7927_800060)"/>
<path d="M110.267 50.2807L98.9798 68.9328C98.5516 69.6389 97.8608 70.1463 97.0589 70.3436C96.2571 70.5409 95.4097 70.4121 94.7027 69.9853L89.8175 67.029L89.3846 63.7336L94.1055 62.9498L92.165 58.1358L97.1549 56.9077L95.8327 53.0764L100.379 51.5796L98.5309 45.6081L102.388 41.8728L109.215 46.0029C109.565 46.2147 109.87 46.4932 110.112 46.8228C110.354 47.1524 110.53 47.5265 110.627 47.9237C110.725 48.321 110.744 48.7336 110.682 49.138C110.62 49.5424 110.479 49.9307 110.267 50.2807Z" fill="url(#paint5_linear_7927_800060)"/>
<path d="M89.4145 36.7726L93.1829 37.9922L90.2846 42.5113L93.45 47.9008L89.368 50.3985L91.5315 53.8273L86.9553 56.1649L89.9467 60.4067L85.5308 62.2508L86.7066 65.3593L77.325 62.321C76.5391 62.0666 75.8865 61.5105 75.5107 60.775C75.1349 60.0394 75.0667 59.1847 75.3211 58.3989L80.9162 41.1141L89.4145 36.7726Z" fill="url(#paint6_linear_7927_800060)"/>
<path d="M89.4148 36.7737L88.2968 40.231C88.1708 40.6201 87.9694 40.9806 87.7041 41.2919C87.4388 41.6032 87.1148 41.8592 86.7505 42.0452C86.3863 42.2313 85.9889 42.3438 85.5812 42.3763C85.1735 42.4088 84.7633 42.3606 84.3742 42.2346L80.9165 41.1152L89.4148 36.7737Z" fill="#E6F6F6"/>
<defs>
<linearGradient id="paint0_linear_7927_800060" x1="28.3083" y1="25.9168" x2="49.5494" y2="7.64407" gradientUnits="userSpaceOnUse">
<stop stop-color="#E7EEF8"/>
<stop offset="1" stop-color="#E1EDF4"/>
</linearGradient>
<linearGradient id="paint1_linear_7927_800060" x1="-5.28663" y1="61.4759" x2="53.7116" y2="56.6971" gradientUnits="userSpaceOnUse">
<stop stop-color="#E7EEF8"/>
<stop offset="1" stop-color="#E1EDF4"/>
</linearGradient>
<linearGradient id="paint2_linear_7927_800060" x1="51.8732" y1="20.8353" x2="66.3417" y2="32.0355" gradientUnits="userSpaceOnUse">
<stop stop-color="#FFD79C"/>
<stop offset="1" stop-color="#FCCE58"/>
</linearGradient>
<linearGradient id="paint3_linear_7927_800060" x1="56.0809" y1="15.6917" x2="78.3037" y2="95.9324" gradientUnits="userSpaceOnUse">
<stop stop-color="#FFB74B"/>
<stop offset="1" stop-color="#FCCA80"/>
</linearGradient>
<linearGradient id="paint4_linear_7927_800060" x1="58.4364" y1="93.1453" x2="59.943" y2="103.376" gradientUnits="userSpaceOnUse">
<stop stop-color="#FFB74B"/>
<stop offset="1" stop-color="#FCCA80"/>
</linearGradient>
<linearGradient id="paint5_linear_7927_800060" x1="85.5297" y1="66.7099" x2="101.794" y2="73.0613" gradientUnits="userSpaceOnUse">
<stop stop-color="#05E0E0"/>
<stop offset="1" stop-color="#02C8C8"/>
</linearGradient>
<linearGradient id="paint6_linear_7927_800060" x1="68.9024" y1="59.5737" x2="91.5234" y2="67.2407" gradientUnits="userSpaceOnUse">
<stop stop-color="#05E0E0"/>
<stop offset="1" stop-color="#02C8C8"/>
</linearGradient>
</defs>
</svg>
