<svg width="120" height="120" viewBox="0 0 120 120" fill="none" xmlns="http://www.w3.org/2000/svg">
<path d="M52 27C52 23.134 55.134 20 59 20C62.866 20 66 23.134 66 27V32C66 35.866 62.866 39 59 39C55.134 39 52 35.866 52 32V27Z" fill="url(#paint0_linear_7911_857129)"/>
<path fill-rule="evenodd" clip-rule="evenodd" d="M51.0824 28.6009C55.2253 26.8861 62.0715 25.5305 67.9313 28.9655C68.2365 29.1444 68.5272 29.3 68.804 29.4333C69.0912 29.5991 69.4082 29.7599 69.7556 29.921C79.7425 34.5928 84.9217 42.6335 85.1755 53.6648C85.3036 59.2046 85.2626 64.7485 85.2215 70.2923C85.2103 71.8042 85.1991 73.3161 85.1913 74.8279C85.1913 76.1873 85.5538 77.2997 86.5326 78.2853C87.7028 79.4609 88.818 80.6916 89.9337 81.923C90.2134 82.2316 90.4932 82.5403 90.7738 82.8482C91.7888 83.9629 92.2238 87.1982 91.5532 88.5123C91.1001 89.3936 90.3298 89.6836 89.3963 89.6836H83.1659L59.0393 89.6927H29.5862C27.0305 89.6927 26.5706 89.1263 26.4438 86.5525C26.3531 84.7106 26.8629 83.2742 28.2155 82.0213C28.8578 81.4209 29.4448 80.764 30.0321 80.1067C30.553 79.5237 31.0741 78.9405 31.6343 78.3963C32.7263 77.3383 33.1001 76.1307 33.0775 74.6331C32.9982 69.54 32.9189 64.4378 32.9959 59.3492C33.0057 58.7249 33.0105 58.0989 33.0153 57.4723C33.0383 54.4611 33.0614 51.4378 33.6371 48.5309C35.4496 39.3959 40.9143 33.0499 49.4829 29.4022C49.5297 29.3823 49.5755 29.3628 49.6203 29.3438C50.3405 29.0378 50.7967 28.8439 51.0824 28.6009Z" fill="url(#paint1_linear_7911_857129)"/>
<path d="M59.2076 94.3336C61.1312 94.3336 63.0592 94.3177 64.9804 94.3336C66.3761 94.3494 66.8088 94.943 66.4622 96.2911C66.0327 97.9113 65.0785 99.3436 63.7487 100.364C62.4189 101.384 60.7885 101.936 59.1124 101.931C57.4362 101.927 55.8087 101.367 54.4843 100.34C53.1599 99.3123 52.2132 97.875 51.7923 96.2526C51.466 94.9634 51.8919 94.354 53.2083 94.3381C55.2088 94.3155 57.2071 94.3359 59.2076 94.3336Z" fill="url(#paint2_linear_7911_857129)"/>
<path opacity="0.5" d="M20.5479 54.2333C18.1146 54.2492 16.3361 52.3166 16.5717 49.7701C17.0535 44.8377 18.4284 40.0342 20.6295 35.5941C23.1122 30.4883 26.5828 25.9257 30.8406 22.1702C32.7143 20.5073 35.168 20.5254 36.7108 22.211C38.2968 23.9533 38.0929 26.4024 36.1694 28.1288C29.5515 34.0693 25.6433 41.428 24.5286 50.264C24.2137 52.7607 22.7274 54.2197 20.5479 54.2333Z" fill="url(#paint3_linear_7911_857129)"/>
<path opacity="0.5" d="M101.718 50.0119C101.795 52.2481 100.3 54.013 98.1541 54.2146C95.8726 54.4298 94.1122 53.0954 93.8267 50.7323C93.0655 44.4543 90.9789 38.6951 87.1296 33.6654C85.6252 31.6989 83.8399 29.943 82.1022 28.1668C80.7428 26.7825 80.2783 25.0538 80.9943 23.4248C81.6626 21.9091 83.2304 20.8918 84.907 21.1025C85.6909 21.2 86.5881 21.4854 87.1726 21.9929C95.5667 29.3902 100.46 38.6407 101.713 49.7853C101.713 49.8691 101.713 49.9371 101.718 50.0119Z" fill="url(#paint4_linear_7911_857129)"/>
<path d="M74.4798 81.3281C74.4798 72.2157 81.8672 64.8276 90.9806 64.8276C95.0626 64.8276 98.7985 66.3101 101.68 68.7672C105.23 71.7935 107.48 76.2976 107.48 81.3281C107.48 90.4405 100.093 97.8276 90.9806 97.8276C88.7104 97.8276 86.5471 97.3691 84.5782 96.5396C78.6446 94.0397 74.4798 88.1703 74.4798 81.3281Z" fill="url(#paint5_linear_7911_857129)"/>
<path d="M90.983 85.9485C90.3413 85.9483 89.7242 85.7017 89.2591 85.2596C88.794 84.8174 88.5164 84.2135 88.4838 83.5726L87.9446 73.0218C87.9274 72.6828 87.9793 72.3437 88.0971 72.0253C88.215 71.7069 88.3964 71.4158 88.6303 71.1697C88.8641 70.9237 89.1456 70.7277 89.4576 70.5938C89.7696 70.4599 90.1056 70.3909 90.4451 70.3909H91.521C91.8604 70.391 92.1962 70.4602 92.508 70.5942C92.8199 70.7281 93.1013 70.9241 93.335 71.1702C93.5688 71.4163 93.7501 71.7073 93.8678 72.0256C93.9856 72.3439 94.0375 72.6829 94.0202 73.0218L93.4823 83.5742C93.449 84.2148 93.1713 84.8182 92.7063 85.2599C92.2412 85.7017 91.6244 85.9482 90.983 85.9485Z" fill="white"/>
<path d="M93.4172 89.8975C93.4172 88.5548 92.3287 87.4663 90.9859 87.4663C89.6432 87.4663 88.5547 88.5548 88.5547 89.8975C88.5547 91.2403 89.6432 92.3288 90.9859 92.3288C92.3287 92.3288 93.4172 91.2403 93.4172 89.8975Z" fill="white"/>
<defs>
<linearGradient id="paint0_linear_7911_857129" x1="49.0811" y1="41.5858" x2="71.1072" y2="37.2608" gradientUnits="userSpaceOnUse">
<stop stop-color="#E7EEF8"/>
<stop offset="1" stop-color="#E1EDF4"/>
</linearGradient>
<linearGradient id="paint1_linear_7911_857129" x1="96.5351" y1="105.145" x2="-35.8296" y2="24.0251" gradientUnits="userSpaceOnUse">
<stop stop-color="#A7ACCA"/>
<stop offset="0.485517" stop-color="#D3D8F0"/>
</linearGradient>
<linearGradient id="paint2_linear_7911_857129" x1="67.6361" y1="103.569" x2="52.4686" y2="83.6125" gradientUnits="userSpaceOnUse">
<stop stop-color="#A7ACCA"/>
<stop offset="0.485517" stop-color="#D3D8F0"/>
</linearGradient>
<linearGradient id="paint3_linear_7911_857129" x1="12.1265" y1="58.7652" x2="45.8274" y2="53.042" gradientUnits="userSpaceOnUse">
<stop stop-color="#E7EEF8"/>
<stop offset="1" stop-color="#E1EDF4"/>
</linearGradient>
<linearGradient id="paint4_linear_7911_857129" x1="76.2691" y1="58.7504" x2="109.723" y2="53.0887" gradientUnits="userSpaceOnUse">
<stop stop-color="#E7EEF8"/>
<stop offset="1" stop-color="#E1EDF4"/>
</linearGradient>
<linearGradient id="paint5_linear_7911_857129" x1="92.53" y1="102.953" x2="80.456" y2="61.0777" gradientUnits="userSpaceOnUse">
<stop stop-color="#FFB74B"/>
<stop offset="1" stop-color="#FCCA80"/>
</linearGradient>
</defs>
</svg>
