<svg width="121" height="120" viewBox="0 0 121 120" fill="none" xmlns="http://www.w3.org/2000/svg">
<g id="notification">
<g id="Group 1000002255">
<path id="Rectangle 6211" d="M52.5 27C52.5 23.134 55.634 20 59.5 20C63.366 20 66.5 23.134 66.5 27V32C66.5 35.866 63.366 39 59.5 39C55.634 39 52.5 35.866 52.5 32V27Z" fill="url(#paint0_linear_9290_953551)"/>
<path id="Subtract" fill-rule="evenodd" clip-rule="evenodd" d="M51.5824 28.6013C55.7253 26.8864 62.5715 25.5308 68.4313 28.9659C68.7365 29.1448 69.0272 29.3003 69.304 29.4337C69.5912 29.5994 69.9082 29.7602 70.2556 29.9214C80.2425 34.5931 85.4217 42.6338 85.6755 53.6651C85.8036 59.2049 85.7626 64.7489 85.7215 70.2927C85.7103 71.8046 85.6991 73.3165 85.6913 74.8283C85.6913 76.1877 86.0538 77.3001 87.0326 78.2856C88.2028 79.4613 89.3181 80.6921 90.4338 81.9235C90.7135 82.2321 90.9932 82.5408 91.2738 82.8486C92.2888 83.9633 92.7238 87.1986 92.0532 88.5127C91.6001 89.394 90.8298 89.684 89.8963 89.684H83.6659L59.5393 89.6931H30.0862C27.5305 89.6931 27.0706 89.1266 26.9438 86.5529C26.8531 84.711 27.3629 83.2745 28.7155 82.0217C29.3578 81.4213 29.9448 80.7643 30.5321 80.107C31.053 79.5241 31.5741 78.9408 32.1343 78.3967C33.2263 77.3386 33.6001 76.131 33.5775 74.6335C33.4982 69.5403 33.4189 64.4382 33.4959 59.3496C33.5057 58.7252 33.5105 58.0992 33.5153 57.4727C33.5383 54.4614 33.5614 51.4381 34.1371 48.5312C35.9496 39.3962 41.4143 33.0502 49.9829 29.4026C50.0297 29.3826 50.0755 29.3632 50.1203 29.3441C50.8405 29.0381 51.2967 28.8443 51.5824 28.6013Z" fill="url(#paint1_linear_9290_953551)"/>
<g id="Group 1000002182">
<path id="Vector" d="M74.5 85.5005C74.5 76.3881 81.8872 69 91.0005 69C95.0823 69 98.8182 70.4824 101.699 72.9396C105.249 75.9659 107.5 80.47 107.5 85.5005C107.5 94.6128 100.113 102 91.0005 102C88.7303 102 86.567 101.542 84.5982 100.712C78.6646 98.212 74.5 92.3426 74.5 85.5005Z" fill="url(#paint2_linear_9290_953551)"/>
<path id="Vector_2" d="M93.0919 85.5139C94.9636 83.6328 96.6587 81.9266 97.2633 81.3137C97.9003 80.669 97.8968 79.6914 97.2773 79.0759C96.7105 78.5142 95.7061 78.4612 95.0787 79.1306C94.3828 79.8725 93.6482 80.5781 92.9302 81.2996L90.9135 83.3264C89.0401 81.4435 87.3397 79.7373 86.7299 79.128C86.0875 78.4877 85.1148 78.4904 84.5032 79.113C83.9434 79.6835 83.8907 80.692 84.5568 81.3226C85.2958 82.022 85.9979 82.7603 86.715 83.4818L88.736 85.513C86.8318 87.4267 84.9311 89.3369 84.5709 89.7017C84.4654 89.8076 84.3573 89.9198 84.2818 90.0487C83.9065 90.6934 84.0559 91.5774 84.599 91.996C85.2923 92.5294 86.1227 92.5021 86.7299 91.8971C87.3397 91.2886 89.0392 89.5833 90.9127 87.7023C92.8151 89.6142 94.7132 91.5209 95.0752 91.8821C95.1824 91.9881 95.2931 92.0976 95.4214 92.1726C96.0629 92.5497 96.9425 92.4014 97.359 91.8538C97.8898 91.1579 97.8617 90.3234 97.2597 89.7131C96.6552 89.1003 94.961 87.3949 93.0902 85.5139H93.0919Z" fill="white"/>
</g>
<path id="Vector_3" d="M59.7076 94.3332C61.6312 94.3332 63.5592 94.3174 65.4804 94.3332C66.8761 94.3491 67.3088 94.9427 66.9622 96.2907C66.5327 97.9109 65.5785 99.3432 64.2487 100.364C62.9189 101.384 61.2885 101.935 59.6124 101.931C57.9362 101.926 56.3087 101.367 54.9843 100.339C53.6599 99.3119 52.7132 97.8747 52.2923 96.2522C51.966 94.9631 52.3919 94.3536 53.7083 94.3377C55.7088 94.3151 57.7071 94.3355 59.7076 94.3332Z" fill="url(#paint3_linear_9290_953551)"/>
<path id="Vector_4" opacity="0.5" d="M21.0479 54.2331C18.6146 54.2489 16.8361 52.3164 17.0717 49.7698C17.5535 44.8375 18.9284 40.034 21.1295 35.5938C23.6122 30.4881 27.0828 25.9254 31.3406 22.17C33.2143 20.507 35.668 20.5252 37.2108 22.2108C38.7968 23.953 38.5929 26.4022 36.6694 28.1286C30.0515 34.069 26.1433 41.4278 25.0286 50.2637C24.7137 52.7604 23.2274 54.2195 21.0479 54.2331Z" fill="url(#paint4_linear_9290_953551)"/>
<path id="Vector_5" opacity="0.5" d="M102.218 50.0121C102.295 52.2483 100.8 54.0132 98.6541 54.2149C96.3726 54.4301 94.6122 53.0956 94.3267 50.7326C93.5655 44.4546 91.4789 38.6953 87.6296 33.6657C86.1252 31.6991 84.3399 29.9432 82.6022 28.167C81.2428 26.7827 80.7783 25.054 81.4943 23.4251C82.1626 21.9094 83.7304 20.8921 85.407 21.1028C86.1909 21.2002 87.0881 21.4857 87.6726 21.9932C96.0667 29.3904 100.96 38.641 102.213 49.7856C102.213 49.8694 102.213 49.9374 102.218 50.0121Z" fill="url(#paint5_linear_9290_953551)"/>
</g>
</g>
<defs>
<linearGradient id="paint0_linear_9290_953551" x1="49.5811" y1="41.5858" x2="71.6072" y2="37.2608" gradientUnits="userSpaceOnUse">
<stop stop-color="#E7EEF8"/>
<stop offset="1" stop-color="#E1EDF4"/>
</linearGradient>
<linearGradient id="paint1_linear_9290_953551" x1="97.0351" y1="105.146" x2="-35.3296" y2="24.0254" gradientUnits="userSpaceOnUse">
<stop stop-color="#A7ACCA"/>
<stop offset="0.485517" stop-color="#D3D8F0"/>
</linearGradient>
<linearGradient id="paint2_linear_9290_953551" x1="92.5498" y1="107.126" x2="80.4756" y2="65.2502" gradientUnits="userSpaceOnUse">
<stop stop-color="#FF4B4B"/>
<stop offset="1" stop-color="#FFB6B6"/>
</linearGradient>
<linearGradient id="paint3_linear_9290_953551" x1="68.1361" y1="103.568" x2="52.9686" y2="83.6121" gradientUnits="userSpaceOnUse">
<stop stop-color="#A7ACCA"/>
<stop offset="0.485517" stop-color="#D3D8F0"/>
</linearGradient>
<linearGradient id="paint4_linear_9290_953551" x1="12.6265" y1="58.7649" x2="46.3274" y2="53.0417" gradientUnits="userSpaceOnUse">
<stop stop-color="#E7EEF8"/>
<stop offset="1" stop-color="#E1EDF4"/>
</linearGradient>
<linearGradient id="paint5_linear_9290_953551" x1="76.7691" y1="58.7507" x2="110.223" y2="53.0889" gradientUnits="userSpaceOnUse">
<stop stop-color="#E7EEF8"/>
<stop offset="1" stop-color="#E1EDF4"/>
</linearGradient>
</defs>
</svg>
