<svg width="124" height="125" viewBox="0 0 124 125" fill="none" xmlns="http://www.w3.org/2000/svg">
<path fill-rule="evenodd" clip-rule="evenodd" d="M6.20752 23.1686C6.20752 21.7999 7.31703 20.6904 8.68568 20.6904H105.109C106.477 20.6904 107.587 21.7999 107.587 23.1686V38.4881C107.587 39.8568 106.477 40.9663 105.109 40.9663H8.68567C7.31702 40.9663 6.20752 39.8568 6.20752 38.4881V23.1686ZM6.20752 48.5932C6.20752 47.2245 7.31703 46.115 8.68568 46.115H105.109C106.477 46.115 107.587 47.2245 107.587 48.5932V63.9127C107.587 65.2813 106.477 66.3908 105.109 66.3908H8.68567C7.31702 66.3908 6.20752 65.2813 6.20752 63.9127V48.5932ZM8.68568 74.7601C7.31703 74.7601 6.20752 75.8696 6.20752 77.2383V92.5578C6.20752 93.9265 7.31702 95.036 8.68567 95.036H105.109C106.477 95.036 107.587 93.9265 107.587 92.5578V77.2383C107.587 75.8696 106.477 74.7601 105.109 74.7601H8.68568ZM25.0251 30.828C25.0251 33.9386 22.5035 36.4602 19.393 36.4602C16.2824 36.4602 13.7608 33.9386 13.7608 30.828C13.7608 27.7175 16.2824 25.1958 19.393 25.1958C22.5035 25.1958 25.0251 27.7175 25.0251 30.828ZM19.393 61.193C22.5035 61.193 25.0251 58.6714 25.0251 55.5608C25.0251 52.4502 22.5035 49.9286 19.393 49.9286C16.2824 49.9286 13.7608 52.4502 13.7608 55.5608C13.7608 58.6714 16.2824 61.193 19.393 61.193ZM25.0251 84.8968C25.0251 88.0074 22.5035 90.529 19.393 90.529C16.2824 90.529 13.7608 88.0074 13.7608 84.8968C13.7608 81.7862 16.2824 79.2646 19.393 79.2646C22.5035 79.2646 25.0251 81.7862 25.0251 84.8968ZM61.2955 25.1958C59.9268 25.1958 58.8173 26.3054 58.8173 27.674V33.982C58.8173 35.3507 59.9268 36.4602 61.2955 36.4602H101.397C102.765 36.4602 103.875 35.3507 103.875 33.9821V27.674C103.875 26.3054 102.765 25.1958 101.397 25.1958H61.2955ZM58.8173 52.4068C58.8173 51.0381 59.9268 49.9286 61.2955 49.9286H101.397C102.765 49.9286 103.875 51.0381 103.875 52.4068V58.7148C103.875 60.0835 102.765 61.193 101.397 61.193H61.2955C59.9268 61.193 58.8173 60.0835 58.8173 58.7148V52.4068ZM61.2955 79.2646C59.9268 79.2646 58.8173 80.3741 58.8173 81.7428V88.0508C58.8173 89.4195 59.9268 90.529 61.2955 90.529H101.397C102.765 90.529 103.875 89.4195 103.875 88.0508V81.7428C103.875 80.3741 102.765 79.2646 101.397 79.2646H61.2955Z" fill="url(#paint0_linear_17415_98818)"/>
<g filter="url(#filter0_d_17415_98818)">
<path d="M61.8127 88.1386C61.8127 73.1417 73.9703 60.9826 88.9686 60.9826C95.6865 60.9826 101.835 63.4224 106.577 67.4662C112.419 72.4468 116.123 79.8595 116.123 88.1386C116.123 103.135 103.965 115.293 88.9686 115.293C85.2324 115.293 81.6723 114.538 78.432 113.173C68.6667 109.059 61.8127 99.3992 61.8127 88.1386Z" fill="white"/>
<path fill-rule="evenodd" clip-rule="evenodd" d="M65.835 88.1352C65.835 75.3594 76.1914 65.001 88.9678 65.001C94.6904 65.001 99.928 67.0794 103.967 70.5244C108.944 74.7674 112.099 81.0823 112.099 88.1352C112.099 100.911 101.743 111.268 88.9678 111.268C85.7851 111.268 82.7524 110.625 79.9921 109.462C71.6736 105.957 65.835 97.7282 65.835 88.1352ZM77.3292 89.9731L85.6055 98.2494L102.545 81.3103L98.773 77.5386L85.6055 90.7195L81.1008 86.2015L77.3292 89.9731Z" fill="#05E0AC"/>
</g>
<defs>
<filter id="filter0_d_17415_98818" x="53.7042" y="54.5477" width="73.8693" height="73.8693" filterUnits="userSpaceOnUse" color-interpolation-filters="sRGB">
<feFlood flood-opacity="0" result="BackgroundImageFix"/>
<feColorMatrix in="SourceAlpha" type="matrix" values="0 0 0 0 0 0 0 0 0 0 0 0 0 0 0 0 0 0 127 0" result="hardAlpha"/>
<feOffset dx="1.67258" dy="3.34517"/>
<feGaussianBlur stdDeviation="2.95"/>
<feComposite in2="hardAlpha" operator="out"/>
<feColorMatrix type="matrix" values="0 0 0 0 0.00616667 0 0 0 0 0 0 0 0 0 0.308333 0 0 0 0.07 0"/>
<feBlend mode="normal" in2="BackgroundImageFix" result="effect1_dropShadow_17415_98818"/>
<feBlend mode="normal" in="SourceGraphic" in2="effect1_dropShadow_17415_98818" result="shape"/>
</filter>
<linearGradient id="paint0_linear_17415_98818" x1="87.5183" y1="85.6714" x2="3.8899" y2="28.2141" gradientUnits="userSpaceOnUse">
<stop stop-color="#D0D4EC"/>
<stop offset="1" stop-color="#E5EBF6"/>
</linearGradient>
</defs>
</svg>
