<svg width="124" height="125" viewBox="0 0 124 125" fill="none" xmlns="http://www.w3.org/2000/svg">
<path fill-rule="evenodd" clip-rule="evenodd" d="M6.2041 23.1686C6.2041 21.7999 7.31361 20.6904 8.68226 20.6904H105.105C106.474 20.6904 107.583 21.7999 107.583 23.1686V38.4881C107.583 39.8568 106.474 40.9663 105.105 40.9663H8.68226C7.31361 40.9663 6.2041 39.8568 6.2041 38.4881V23.1686ZM6.2041 48.5932C6.2041 47.2245 7.31361 46.115 8.68226 46.115H105.105C106.474 46.115 107.583 47.2245 107.583 48.5932V63.9127C107.583 65.2813 106.474 66.3908 105.105 66.3908H8.68226C7.31361 66.3908 6.2041 65.2813 6.2041 63.9127V48.5932ZM8.68226 74.7601C7.31361 74.7601 6.2041 75.8696 6.2041 77.2383V92.5578C6.2041 93.9265 7.31361 95.036 8.68226 95.036H105.105C106.474 95.036 107.583 93.9265 107.583 92.5578V77.2383C107.583 75.8696 106.474 74.7601 105.105 74.7601H8.68226ZM25.0217 30.828C25.0217 33.9386 22.5001 36.4602 19.3895 36.4602C16.279 36.4602 13.7574 33.9386 13.7574 30.828C13.7574 27.7175 16.279 25.1958 19.3895 25.1958C22.5001 25.1958 25.0217 27.7175 25.0217 30.828ZM19.3895 61.193C22.5001 61.193 25.0217 58.6714 25.0217 55.5608C25.0217 52.4502 22.5001 49.9286 19.3895 49.9286C16.279 49.9286 13.7574 52.4502 13.7574 55.5608C13.7574 58.6714 16.279 61.193 19.3895 61.193ZM25.0217 84.8968C25.0217 88.0074 22.5001 90.529 19.3895 90.529C16.279 90.529 13.7574 88.0074 13.7574 84.8968C13.7574 81.7862 16.279 79.2646 19.3895 79.2646C22.5001 79.2646 25.0217 81.7862 25.0217 84.8968ZM61.292 25.1958C59.9234 25.1958 58.8139 26.3054 58.8139 27.674V33.982C58.8139 35.3507 59.9234 36.4602 61.292 36.4602H101.393C102.762 36.4602 103.871 35.3507 103.871 33.9821V27.674C103.871 26.3054 102.762 25.1958 101.393 25.1958H61.292ZM58.8139 52.4068C58.8139 51.0381 59.9234 49.9286 61.292 49.9286H101.393C102.762 49.9286 103.871 51.0381 103.871 52.4068V58.7148C103.871 60.0835 102.762 61.193 101.393 61.193H61.292C59.9234 61.193 58.8139 60.0835 58.8139 58.7148V52.4068ZM61.292 79.2646C59.9234 79.2646 58.8139 80.3741 58.8139 81.7428V88.0508C58.8139 89.4195 59.9234 90.529 61.292 90.529H101.393C102.762 90.529 103.871 89.4195 103.871 88.0508V81.7428C103.871 80.3741 102.762 79.2646 101.393 79.2646H61.292Z" fill="url(#paint0_linear_17415_53060)"/>
<g filter="url(#filter0_d_17415_53060)">
<path d="M61.8088 88.1434C61.8088 73.1466 73.9664 60.9875 88.9647 60.9875C95.6825 60.9875 101.831 63.4273 106.573 67.4711C112.415 72.4517 116.119 79.8644 116.119 88.1434C116.119 103.14 103.962 115.298 88.9647 115.298C85.2285 115.298 81.6684 114.543 78.4281 113.178C68.6628 109.064 61.8088 99.4041 61.8088 88.1434Z" fill="white"/>
<path d="M65.8379 88.1358C65.8379 75.3601 76.1952 65.002 88.9727 65.002C94.6957 65.002 99.9337 67.0804 103.973 70.5253C108.951 74.7682 112.106 81.083 112.106 88.1358C112.106 100.911 101.749 111.268 88.9727 111.268C85.7897 111.268 82.7567 110.625 79.9962 109.462C71.677 105.958 65.8379 97.7286 65.8379 88.1358Z" fill="url(#paint1_linear_17415_53060)"/>
<path d="M87.0506 77.7724V76.5H91.985V77.7724L91.2092 91.3655H87.7333L87.0506 77.7724ZM89.5333 99.3103C88.8092 99.3103 88.2092 99.0724 87.7333 98.5965C87.2575 98.1 87.0195 97.5 87.0195 96.7966C87.0195 96.0931 87.2575 95.5034 87.7333 95.0276C88.2092 94.531 88.8092 94.2828 89.5333 94.2828C90.2368 94.2828 90.8264 94.531 91.3023 95.0276C91.7988 95.5034 92.0471 96.0931 92.0471 96.7966C92.0471 97.4793 91.7988 98.069 91.3023 98.5655C90.8264 99.0621 90.2368 99.3103 89.5333 99.3103Z" fill="white"/>
</g>
<defs>
<filter id="filter0_d_17415_53060" x="53.7003" y="54.5516" width="73.8693" height="73.8693" filterUnits="userSpaceOnUse" color-interpolation-filters="sRGB">
<feFlood flood-opacity="0" result="BackgroundImageFix"/>
<feColorMatrix in="SourceAlpha" type="matrix" values="0 0 0 0 0 0 0 0 0 0 0 0 0 0 0 0 0 0 127 0" result="hardAlpha"/>
<feOffset dx="1.67258" dy="3.34517"/>
<feGaussianBlur stdDeviation="2.95"/>
<feComposite in2="hardAlpha" operator="out"/>
<feColorMatrix type="matrix" values="0 0 0 0 0.00616667 0 0 0 0 0 0 0 0 0 0.308333 0 0 0 0.07 0"/>
<feBlend mode="normal" in2="BackgroundImageFix" result="effect1_dropShadow_17415_53060"/>
<feBlend mode="normal" in="SourceGraphic" in2="effect1_dropShadow_17415_53060" result="shape"/>
</filter>
<linearGradient id="paint0_linear_17415_53060" x1="87.5149" y1="85.6714" x2="3.88648" y2="28.2141" gradientUnits="userSpaceOnUse">
<stop stop-color="#D0D4EC"/>
<stop offset="1" stop-color="#E5EBF6"/>
</linearGradient>
<linearGradient id="paint1_linear_17415_53060" x1="88.972" y1="65.002" x2="72.7778" y2="105.025" gradientUnits="userSpaceOnUse">
<stop stop-color="#FFA133"/>
<stop offset="1" stop-color="#FFC633"/>
</linearGradient>
</defs>
</svg>
