<svg width="132" height="132" viewBox="0 0 132 132" fill="none" xmlns="http://www.w3.org/2000/svg">
<g clip-path="url(#clip0_9243_967572)">
<path d="M88.1102 47.3604H34.0804C33.1299 47.3604 32.3594 48.1308 32.3594 49.0813V103.11C32.3594 104.061 33.1299 104.831 34.0804 104.831H88.1102C89.0606 104.831 89.8312 104.061 89.8312 103.11V49.0813C89.8312 48.1308 89.0606 47.3604 88.1102 47.3604Z" fill="url(#paint0_linear_9243_967572)"/>
<path d="M34.02 47.3604H88.1706C89.0864 47.3604 89.8312 48.1051 89.8312 49.0209V56.6495H32.3594V49.0209C32.3594 48.1051 33.1041 47.3604 34.02 47.3604Z" fill="url(#paint1_linear_9243_967572)"/>
<path d="M40.2538 71.776C43.479 71.776 46.0936 69.1615 46.0936 65.9363C46.0936 62.7112 43.479 60.0967 40.2538 60.0967C37.0286 60.0967 34.4141 62.7112 34.4141 65.9363C34.4141 69.1615 37.0286 71.776 40.2538 71.776Z" fill="url(#paint2_linear_9243_967572)"/>
<path d="M40.2538 71.776C43.479 71.776 46.0936 69.1615 46.0936 65.9363C46.0936 62.7112 43.479 60.0967 40.2538 60.0967C37.0286 60.0967 34.4141 62.7112 34.4141 65.9363C34.4141 69.1615 37.0286 71.776 40.2538 71.776Z" fill="url(#paint3_linear_9243_967572)"/>
<path d="M44.5937 68.6616C43.6863 70.1059 42.0812 71.0678 40.25 71.0678C38.4187 71.0678 36.811 70.1059 35.9062 68.6616C36.6911 67.5008 38.0018 66.6778 39.5306 66.4789C38.7975 66.1955 38.277 65.4815 38.277 64.6477C38.277 63.5577 39.16 62.6748 40.25 62.6748C41.34 62.6748 42.2202 63.5577 42.2202 64.6477C42.2202 65.4815 41.6997 66.1955 40.9667 66.4789C42.4954 66.6778 43.8062 67.5008 44.5937 68.6616Z" fill="white"/>
<rect x="48.2188" y="60.0967" width="20.1737" height="3.18527" rx="0.530883" fill="url(#paint4_linear_9243_967572)"/>
<rect x="48.2188" y="64.3438" width="38.2239" height="7.4323" rx="0.530883" fill="#D9D9D9"/>
<rect x="48.2188" y="64.3438" width="38.2239" height="7.4323" rx="0.530883" fill="url(#paint5_linear_9243_967572)"/>
<path d="M40.2538 86.6403C43.479 86.6403 46.0936 84.0258 46.0936 80.8006C46.0936 77.5754 43.479 74.9609 40.2538 74.9609C37.0286 74.9609 34.4141 77.5754 34.4141 80.8006C34.4141 84.0258 37.0286 86.6403 40.2538 86.6403Z" fill="url(#paint6_linear_9243_967572)"/>
<path d="M40.2538 86.6403C43.479 86.6403 46.0936 84.0258 46.0936 80.8006C46.0936 77.5754 43.479 74.9609 40.2538 74.9609C37.0286 74.9609 34.4141 77.5754 34.4141 80.8006C34.4141 84.0258 37.0286 86.6403 40.2538 86.6403Z" fill="url(#paint7_linear_9243_967572)"/>
<path d="M40.2538 86.6403C43.479 86.6403 46.0936 84.0258 46.0936 80.8006C46.0936 77.5754 43.479 74.9609 40.2538 74.9609C37.0286 74.9609 34.4141 77.5754 34.4141 80.8006C34.4141 84.0258 37.0286 86.6403 40.2538 86.6403Z" fill="url(#paint8_linear_9243_967572)"/>
<path d="M44.5937 83.5259C43.6863 84.9701 42.0812 85.932 40.25 85.932C38.4187 85.932 36.811 84.9701 35.9062 83.5259C36.6911 82.365 38.0018 81.5421 39.5306 81.3432C38.7975 81.0598 38.277 80.3458 38.277 79.512C38.277 78.422 39.16 77.5391 40.25 77.5391C41.34 77.5391 42.2202 78.422 42.2202 79.512C42.2202 80.3458 41.6997 81.0598 40.9667 81.3432C42.4954 81.5421 43.8062 82.365 44.5937 83.5259Z" fill="white"/>
<rect x="48.2188" y="74.9609" width="20.1737" height="3.18527" rx="0.530883" fill="url(#paint9_linear_9243_967572)"/>
<rect x="48.2188" y="79.208" width="38.2239" height="7.4323" rx="0.530883" fill="url(#paint10_linear_9243_967572)"/>
<path d="M40.2538 101.505C43.479 101.505 46.0936 98.891 46.0936 95.6658C46.0936 92.4407 43.479 89.8262 40.2538 89.8262C37.0286 89.8262 34.4141 92.4407 34.4141 95.6658C34.4141 98.891 37.0286 101.505 40.2538 101.505Z" fill="url(#paint11_linear_9243_967572)"/>
<path d="M44.5937 98.3911C43.6863 99.8354 42.0812 100.797 40.25 100.797C38.4187 100.797 36.811 99.8354 35.9062 98.3911C36.6911 97.2303 38.0018 96.4073 39.5306 96.2084C38.7975 95.925 38.277 95.211 38.277 94.3772C38.277 93.2872 39.16 92.4043 40.25 92.4043C41.34 92.4043 42.2202 93.2872 42.2202 94.3772C42.2202 95.211 41.6997 95.925 40.9667 96.2084C42.4954 96.4073 43.8062 97.2303 44.5937 98.3911Z" fill="white"/>
<rect x="48.2188" y="89.8262" width="20.1737" height="3.18527" rx="0.530883" fill="url(#paint12_linear_9243_967572)"/>
<rect x="48.2188" y="94.0732" width="38.2239" height="7.4323" rx="0.530883" fill="#D9D9D9"/>
<rect x="48.2188" y="94.0732" width="38.2239" height="7.4323" rx="0.530883" fill="url(#paint13_linear_9243_967572)"/>
</g>
<g filter="url(#filter0_d_9243_967572)">
<path d="M22.8448 57.5656C30.8498 57.5656 37.3256 51.0299 37.3256 42.9843C37.3256 34.9388 30.8498 28.4031 22.8448 28.4031C14.8398 28.4031 8.36401 34.9388 8.36401 42.9843C8.36401 51.0299 14.8398 57.5656 22.8448 57.5656Z" fill="url(#paint14_linear_9243_967572)" stroke="white" stroke-width="2.12353"/>
<path d="M32.3064 49.1248C30.2212 52.4684 26.533 54.6954 22.3251 54.6954C18.1171 54.6954 14.4227 52.4684 12.3438 49.1248C14.1471 46.4373 17.1591 44.5321 20.6719 44.0716C18.9875 43.4155 17.7915 41.7626 17.7915 39.8321C17.7915 37.3087 19.8203 35.2646 22.3251 35.2646C24.8298 35.2646 26.8523 37.3087 26.8523 39.8321C26.8523 41.7626 25.6563 43.4155 23.9719 44.0716C27.4848 44.5321 30.4967 46.4373 32.3064 49.1248Z" fill="white"/>
</g>
<g filter="url(#filter1_d_9243_967572)">
<rect x="84.2227" y="88.2549" width="35.3571" height="35.3571" rx="17.6786" fill="url(#paint15_linear_9243_967572)"/>
</g>
<path d="M100.589 92.7136C100.589 91.9651 101.196 91.3583 101.944 91.3583C102.693 91.3583 103.3 91.9651 103.3 92.7136V98.1349C103.3 98.8834 102.693 99.4902 101.944 99.4902C101.196 99.4902 100.589 98.8834 100.589 98.1349V92.7136ZM107.834 96.2165C107.906 96.0515 108.032 95.9485 108.148 95.9063C108.252 95.8684 108.338 95.8785 108.422 95.9308C110.267 97.0873 111.779 98.7235 112.787 100.679C114.069 103.166 114.457 106.018 113.885 108.757C113.314 111.496 111.819 113.956 109.649 115.723C107.48 117.491 104.769 118.459 101.971 118.465C99.1731 118.471 96.458 117.515 94.281 115.757C92.104 114 90.5975 111.547 90.0141 108.81C89.4307 106.074 89.8058 103.22 91.0766 100.727C92.0757 98.7672 93.5805 97.1243 95.421 95.9596C95.5042 95.907 95.5908 95.8965 95.695 95.9339C95.811 95.9756 95.9371 96.078 96.0103 96.2427C96.13 96.5124 96.0537 97.0251 95.5441 97.3926C94.1424 98.4035 92.9909 99.7388 92.1962 101.298C91.0563 103.534 90.7198 106.094 91.2431 108.548C91.7664 111.003 93.1177 113.203 95.0705 114.78C97.0232 116.356 99.4586 117.214 101.968 117.208C104.478 117.203 106.91 116.334 108.856 114.749C110.801 113.164 112.143 110.958 112.655 108.501C113.168 106.044 112.82 103.485 111.67 101.254C110.868 99.6991 109.711 98.3689 108.305 97.3643C107.794 96.999 107.715 96.4867 107.834 96.2165Z" fill="white" stroke="white" stroke-width="2.71069"/>
<path d="M38.6602 41.5162C38.367 41.5162 38.1293 41.2786 38.1293 40.9854C38.1293 40.6922 38.367 40.4545 38.6602 40.4545L38.6602 41.5162ZM101.305 87.7027L98.2399 82.3938L104.37 82.3938L101.305 87.7027ZM40.828 40.4545C41.1212 40.4545 41.3588 40.6922 41.3588 40.9854C41.3588 41.2786 41.1212 41.5162 40.828 41.5162L40.828 40.4545ZM45.1635 41.5162C44.8703 41.5162 44.6327 41.2786 44.6327 40.9854C44.6327 40.6922 44.8703 40.4545 45.1635 40.4545L45.1635 41.5162ZM49.4991 40.4545C49.7923 40.4545 50.03 40.6922 50.03 40.9854C50.03 41.2786 49.7923 41.5162 49.4991 41.5162L49.4991 40.4545ZM53.8347 41.5162C53.5415 41.5162 53.3039 41.2786 53.3039 40.9854C53.3039 40.6922 53.5415 40.4545 53.8347 40.4545L53.8347 41.5162ZM58.1703 40.4545C58.4635 40.4545 58.7012 40.6922 58.7012 40.9854C58.7012 41.2786 58.4635 41.5162 58.1703 41.5162L58.1703 40.4545ZM62.5059 41.5162C62.2127 41.5162 61.975 41.2786 61.975 40.9854C61.975 40.6922 62.2127 40.4545 62.5059 40.4545L62.5059 41.5162ZM66.8415 40.4545C67.1347 40.4545 67.3724 40.6922 67.3724 40.9854C67.3724 41.2786 67.1347 41.5162 66.8415 41.5162L66.8415 40.4545ZM71.1771 41.5162C70.8839 41.5162 70.6462 41.2786 70.6462 40.9854C70.6462 40.6922 70.8839 40.4545 71.1771 40.4545L71.1771 41.5162ZM75.5127 40.4545C75.8059 40.4545 76.0436 40.6922 76.0436 40.9854C76.0436 41.2786 75.8059 41.5162 75.5127 41.5162L75.5127 40.4545ZM79.8483 41.5162C79.5551 41.5162 79.3174 41.2786 79.3174 40.9854C79.3174 40.6922 79.5551 40.4545 79.8483 40.4545L79.8483 41.5162ZM84.1839 40.4545C84.4771 40.4545 84.7148 40.6922 84.7148 40.9854C84.7148 41.2786 84.4771 41.5162 84.1839 41.5162L84.1839 40.4545ZM88.5195 41.5162C88.2263 41.5162 87.9886 41.2786 87.9886 40.9854C87.9886 40.6922 88.2263 40.4545 88.5195 40.4545L88.5195 41.5162ZM92.8625 40.6667C93.1501 40.7236 93.3371 41.0029 93.2802 41.2905C93.2233 41.5781 92.944 41.7651 92.6564 41.7082L92.8625 40.6667ZM96.2913 43.2149C96.0476 43.0518 95.9824 42.722 96.1455 42.4784C96.3086 42.2348 96.6383 42.1695 96.882 42.3326L96.2913 43.2149ZM99.9577 45.4083C100.121 45.652 100.056 45.9817 99.8119 46.1448C99.5683 46.3079 99.2385 46.2427 99.0754 45.999L99.9577 45.4083ZM100.582 49.6339C100.525 49.3463 100.712 49.067 101 49.0101C101.287 48.9532 101.567 49.1402 101.624 49.4278L100.582 49.6339ZM101.836 53.8592C101.836 54.1524 101.598 54.3901 101.305 54.3901C101.012 54.3901 100.774 54.1524 100.774 53.8592L101.836 53.8592ZM100.774 58.3717C100.774 58.0785 101.012 57.8408 101.305 57.8408C101.598 57.8408 101.836 58.0785 101.836 58.3717L100.774 58.3717ZM101.836 62.8842C101.836 63.1774 101.598 63.415 101.305 63.415C101.012 63.415 100.774 63.1774 100.774 62.8842L101.836 62.8842ZM100.774 67.3966C100.774 67.1034 101.012 66.8657 101.305 66.8657C101.598 66.8657 101.836 67.1034 101.836 67.3966L100.774 67.3966ZM101.836 71.9091C101.836 72.2023 101.598 72.44 101.305 72.44C101.012 72.44 100.774 72.2023 100.774 71.9091L101.836 71.9091ZM100.774 76.4215C100.774 76.1283 101.012 75.8906 101.305 75.8906C101.598 75.8906 101.836 76.1283 101.836 76.4215L100.774 76.4215ZM101.836 80.934C101.836 81.2272 101.598 81.4649 101.305 81.4649C101.012 81.4649 100.774 81.2272 100.774 80.934L101.836 80.934ZM100.774 85.4464C100.774 85.1532 101.012 84.9156 101.305 84.9156C101.598 84.9156 101.836 85.1532 101.836 85.4464L100.774 85.4464ZM38.6602 40.4545L40.828 40.4545L40.828 41.5162L38.6602 41.5162L38.6602 40.4545ZM45.1635 40.4545L49.4991 40.4545L49.4991 41.5162L45.1635 41.5162L45.1635 40.4545ZM53.8347 40.4545L58.1703 40.4545L58.1703 41.5162L53.8347 41.5162L53.8347 40.4545ZM62.5059 40.4545L66.8415 40.4545L66.8415 41.5162L62.5059 41.5162L62.5059 40.4545ZM71.1771 40.4545L75.5127 40.4545L75.5127 41.5162L71.1771 41.5162L71.1771 40.4545ZM79.8483 40.4545L84.1839 40.4545L84.1839 41.5162L79.8483 41.5162L79.8483 40.4545ZM88.5195 40.4545L90.6873 40.4545L90.6873 41.5162L88.5195 41.5162L88.5195 40.4545ZM90.6873 40.4545C91.4312 40.4545 92.1585 40.5274 92.8625 40.6667L92.6564 41.7082C92.02 41.5823 91.3616 41.5162 90.6873 41.5162L90.6873 40.4545ZM96.882 42.3326C98.0975 43.1464 99.1439 44.1928 99.9577 45.4083L99.0754 45.999C98.3388 44.8988 97.3915 43.9515 96.2913 43.2149L96.882 42.3326ZM101.624 49.4278C101.763 50.1318 101.836 50.8591 101.836 51.603L100.774 51.603C100.774 50.9287 100.708 50.2703 100.582 49.6339L101.624 49.4278ZM101.836 51.603L101.836 53.8592L100.774 53.8592L100.774 51.603L101.836 51.603ZM101.836 58.3717L101.836 62.8842L100.774 62.8842L100.774 58.3717L101.836 58.3717ZM101.836 67.3966L101.836 71.9091L100.774 71.9091L100.774 67.3966L101.836 67.3966ZM101.836 76.4215L101.836 80.934L100.774 80.934L100.774 76.4215L101.836 76.4215Z" fill="#EEF2FC"/>
<defs>
<filter id="filter0_d_9243_967572" x="5.79116" y="26.8386" width="36.118" height="36.3172" filterUnits="userSpaceOnUse" color-interpolation-filters="sRGB">
<feFlood flood-opacity="0" result="BackgroundImageFix"/>
<feColorMatrix in="SourceAlpha" type="matrix" values="0 0 0 0 0 0 0 0 0 0 0 0 0 0 0 0 0 0 127 0" result="hardAlpha"/>
<feOffset dx="1.00641" dy="2.01283"/>
<feGaussianBlur stdDeviation="1.25802"/>
<feComposite in2="hardAlpha" operator="out"/>
<feColorMatrix type="matrix" values="0 0 0 0 0 0 0 0 0 0.175 0 0 0 0 0.4375 0 0 0 0.07 0"/>
<feBlend mode="normal" in2="BackgroundImageFix" result="effect1_dropShadow_9243_967572"/>
<feBlend mode="normal" in="SourceGraphic" in2="effect1_dropShadow_9243_967572" result="shape"/>
</filter>
<filter id="filter1_d_9243_967572" x="78.9138" y="84.0078" width="41.7261" height="41.728" filterUnits="userSpaceOnUse" color-interpolation-filters="sRGB">
<feFlood flood-opacity="0" result="BackgroundImageFix"/>
<feColorMatrix in="SourceAlpha" type="matrix" values="0 0 0 0 0 0 0 0 0 0 0 0 0 0 0 0 0 0 127 0" result="hardAlpha"/>
<feOffset dx="-2.12353" dy="-1.06177"/>
<feGaussianBlur stdDeviation="1.59265"/>
<feComposite in2="hardAlpha" operator="out"/>
<feColorMatrix type="matrix" values="0 0 0 0 0 0 0 0 0 0.175 0 0 0 0 0.4375 0 0 0 0.07 0"/>
<feBlend mode="normal" in2="BackgroundImageFix" result="effect1_dropShadow_9243_967572"/>
<feBlend mode="normal" in="SourceGraphic" in2="effect1_dropShadow_9243_967572" result="shape"/>
</filter>
<linearGradient id="paint0_linear_9243_967572" x1="32.3594" y1="55.5705" x2="84.1262" y2="110.234" gradientUnits="userSpaceOnUse">
<stop stop-color="white"/>
<stop offset="1" stop-color="#E2F1FA"/>
</linearGradient>
<linearGradient id="paint1_linear_9243_967572" x1="-12.8693" y1="43.9687" x2="-1.58066" y2="90.9175" gradientUnits="userSpaceOnUse">
<stop stop-color="#D2D9EE"/>
<stop offset="1" stop-color="#E7F0F8"/>
</linearGradient>
<linearGradient id="paint2_linear_9243_967572" x1="34.4138" y1="65.9367" x2="46.0931" y2="65.9367" gradientUnits="userSpaceOnUse">
<stop stop-color="#05E0E0"/>
<stop offset="1" stop-color="#02C8C8"/>
</linearGradient>
<linearGradient id="paint3_linear_9243_967572" x1="25.2226" y1="55.8324" x2="54.1332" y2="75.2667" gradientUnits="userSpaceOnUse">
<stop stop-color="#D2D9EE"/>
<stop offset="1" stop-color="#E7F0F8"/>
</linearGradient>
<linearGradient id="paint4_linear_9243_967572" x1="32.3426" y1="58.9337" x2="36.1335" y2="75.0729" gradientUnits="userSpaceOnUse">
<stop stop-color="#D2D9EE"/>
<stop offset="1" stop-color="#E7F0F8"/>
</linearGradient>
<linearGradient id="paint5_linear_9243_967572" x1="18.1376" y1="61.6301" x2="28.744" y2="98.2979" gradientUnits="userSpaceOnUse">
<stop stop-color="#D2D9EE"/>
<stop offset="1" stop-color="#E7F0F8"/>
</linearGradient>
<linearGradient id="paint6_linear_9243_967572" x1="34.4138" y1="80.8009" x2="46.0931" y2="80.8009" gradientUnits="userSpaceOnUse">
<stop stop-color="#05E0E0"/>
<stop offset="1" stop-color="#02C8C8"/>
</linearGradient>
<linearGradient id="paint7_linear_9243_967572" x1="25.2226" y1="70.6966" x2="54.1332" y2="90.1309" gradientUnits="userSpaceOnUse">
<stop stop-color="#D2D9EE"/>
<stop offset="1" stop-color="#E7F0F8"/>
</linearGradient>
<linearGradient id="paint8_linear_9243_967572" x1="34.4138" y1="80.8009" x2="46.0931" y2="80.8009" gradientUnits="userSpaceOnUse">
<stop stop-color="#05E0E0"/>
<stop offset="1" stop-color="#02C8C8"/>
</linearGradient>
<linearGradient id="paint9_linear_9243_967572" x1="32.3426" y1="73.7979" x2="36.1335" y2="89.9372" gradientUnits="userSpaceOnUse">
<stop stop-color="#D2D9EE"/>
<stop offset="1" stop-color="#E7F0F8"/>
</linearGradient>
<linearGradient id="paint10_linear_9243_967572" x1="18.1376" y1="76.4943" x2="28.744" y2="113.162" gradientUnits="userSpaceOnUse">
<stop stop-color="#D2D9EE"/>
<stop offset="1" stop-color="#E7F0F8"/>
</linearGradient>
<linearGradient id="paint11_linear_9243_967572" x1="39.7053" y1="88.0121" x2="43.9785" y2="102.833" gradientUnits="userSpaceOnUse">
<stop stop-color="#FFB74B"/>
<stop offset="1" stop-color="#FCCA80"/>
</linearGradient>
<linearGradient id="paint12_linear_9243_967572" x1="32.3426" y1="88.6632" x2="36.1335" y2="104.802" gradientUnits="userSpaceOnUse">
<stop stop-color="#D2D9EE"/>
<stop offset="1" stop-color="#E7F0F8"/>
</linearGradient>
<linearGradient id="paint13_linear_9243_967572" x1="18.1376" y1="91.3596" x2="28.744" y2="128.027" gradientUnits="userSpaceOnUse">
<stop stop-color="#D2D9EE"/>
<stop offset="1" stop-color="#E7F0F8"/>
</linearGradient>
<linearGradient id="paint14_linear_9243_967572" x1="9.42524" y1="42.9851" x2="36.2626" y2="42.9851" gradientUnits="userSpaceOnUse">
<stop stop-color="#05E0E0"/>
<stop offset="1" stop-color="#02C8C8"/>
</linearGradient>
<linearGradient id="paint15_linear_9243_967572" x1="84.2219" y1="105.934" x2="119.578" y2="105.934" gradientUnits="userSpaceOnUse">
<stop stop-color="#05E0E0"/>
<stop offset="1" stop-color="#02C8C8"/>
</linearGradient>
<clipPath id="clip0_9243_967572">
<rect width="57.4718" height="57.4707" fill="white" transform="translate(32.3594 47.3604)"/>
</clipPath>
</defs>
</svg>
