<svg width="120" height="121" viewBox="0 0 120 121" fill="none" xmlns="http://www.w3.org/2000/svg">
<rect x="29.7148" y="39.4414" width="72.9577" height="42.4103" transform="rotate(-6.93095 29.7148 39.4414)" fill="#17DDDD"/>
<rect x="29.0234" y="38.1641" width="75.3488" height="43.5349" fill="#E4E9F7"/>
<rect x="89.3008" y="52.6758" width="21.7674" height="14.5116" fill="#CBD4E9"/>
<g filter="url(#filter0_d_12543_54435)">
<path d="M43.348 91.0455C50.9515 91.0455 57.1153 85.3349 57.1153 78.2905C57.1153 72.7074 53.2435 67.9621 47.8518 66.2336C47.0858 59.8612 41.2523 54.9062 34.1698 54.9062C26.5663 54.9062 20.4025 60.6169 20.4025 67.6613C20.4025 69.2194 20.704 70.7122 21.256 72.0924C20.6087 71.9747 19.9397 71.913 19.2552 71.913C13.5526 71.913 8.92969 76.1959 8.92969 81.4792C8.92969 86.7625 13.5526 91.0455 19.2552 91.0455H43.348Z" fill="#17DDDD"/>
</g>
<path fill-rule="evenodd" clip-rule="evenodd" d="M33.6166 67.2109C33.9132 67.2109 34.1962 67.3355 34.3963 67.5541L38.7103 72.2661C39.104 72.6961 39.0741 73.3635 38.6435 73.7567C38.2129 74.1498 37.5446 74.12 37.1509 73.6899L34.6731 70.9835V82.2674C34.6731 82.8501 34.2001 83.3224 33.6166 83.3224C33.0331 83.3224 32.5601 82.8501 32.5601 82.2674V70.9835L30.0823 73.6899C29.6886 74.12 29.0203 74.1498 28.5897 73.7567C28.1591 73.3635 28.1292 72.6961 28.5229 72.2661L32.8369 67.5541C33.037 67.3355 33.32 67.2109 33.6166 67.2109Z" fill="white"/>
<defs>
<filter id="filter0_d_12543_54435" x="5.21125" y="49.3286" width="61.202" height="49.1551" filterUnits="userSpaceOnUse" color-interpolation-filters="sRGB">
<feFlood flood-opacity="0" result="BackgroundImageFix"/>
<feColorMatrix in="SourceAlpha" type="matrix" values="0 0 0 0 0 0 0 0 0 0 0 0 0 0 0 0 0 0 127 0" result="hardAlpha"/>
<feOffset dx="2.78883" dy="0.929609"/>
<feGaussianBlur stdDeviation="3.25363"/>
<feComposite in2="hardAlpha" operator="out"/>
<feColorMatrix type="matrix" values="0 0 0 0 0 0 0 0 0 0.175 0 0 0 0 0.4375 0 0 0 0.1 0"/>
<feBlend mode="normal" in2="BackgroundImageFix" result="effect1_dropShadow_12543_54435"/>
<feBlend mode="normal" in="SourceGraphic" in2="effect1_dropShadow_12543_54435" result="shape"/>
</filter>
</defs>
</svg>