<svg width="156" height="156" viewBox="0 0 156 156" fill="none" xmlns="http://www.w3.org/2000/svg">
<path d="M77.208 27.75L90.0697 30.5519L93.2479 39.4622L110.225 43.1607L94.2266 116.601L59.5002 109.036L77.208 27.75Z" fill="#D0DEEB"/>
<path d="M61.5381 31.375L77.8169 31.1527L84.1384 40.9984L105.626 40.705L106.896 133.657L62.9428 134.257L61.5381 31.375Z" fill="url(#paint0_linear_10781_550262)"/>
<path d="M61.5381 31.375L77.8169 31.1527L84.1384 40.9984L105.626 40.705L106.896 133.657L62.9428 134.257L61.5381 31.375Z" fill="#E1EDF8"/>
<path d="M47.2002 34.3359H64.7021L71.3528 45.0121H129.459V144.948H47.2002V34.3359Z" fill="url(#paint1_linear_10781_550262)"/>
<circle cx="88.7457" cy="95.4283" r="30.8033" fill="url(#paint2_linear_10781_550262)"/>
<g clip-path="url(#clip0_10781_550262)">
<path d="M98.247 105.144C97.4641 105.133 96.6812 105.142 95.8972 105.14C95.7962 105.14 95.6951 105.125 95.5725 105.116C95.6706 104.929 95.7589 104.783 95.8286 104.628C96.1857 103.82 95.9169 102.899 95.2105 102.495C94.4207 102.043 93.4955 102.252 92.9725 103.005C92.8538 103.177 92.7469 103.357 92.6262 103.527C92.1916 104.136 91.805 104.79 91.3027 105.335C90.8573 105.822 90.5453 106.337 90.6189 106.977C90.7121 107.789 90.1901 108.286 89.8428 108.92C89.1354 108.477 88.4457 108.077 87.7913 107.626C86.8043 106.947 85.7398 106.492 84.5556 106.316C84.4074 106.294 84.2495 106.229 84.1288 106.139C83.7942 105.891 83.4744 105.622 83.1545 105.354C82.82 105.072 82.8936 104.582 83.286 104.391C84.9931 103.557 86.142 102.234 86.7238 100.412C86.7562 100.309 86.7945 100.209 86.8288 100.113C88.2534 100.261 89.0187 99.7402 89.414 98.353C89.6044 97.6811 89.6475 96.9964 89.5288 96.3038C89.3169 95.0617 88.7871 94.4894 87.5902 94.2093C87.5745 94.2053 87.5627 94.1816 87.5627 94.1806C87.6372 93.5019 87.7412 92.8438 87.7785 92.1828C87.961 88.927 86.5894 86.3095 83.1859 85.5143C83.076 85.4886 82.9632 85.4107 82.8867 85.3249C82.5041 84.8957 82.0253 84.6362 81.4798 84.504C79.9326 84.1301 78.4442 84.4241 76.9873 84.9539C76.8528 85.0032 76.6694 85.2065 76.6811 85.3209C76.7214 85.7136 76.4565 85.7866 76.2024 85.902C76.013 85.9879 75.8256 86.0796 75.6461 86.1832C75.493 86.273 75.39 86.2572 75.2252 86.1625C75.0721 86.0727 74.7905 86.0342 74.6542 86.1181C73.5789 86.788 72.639 87.6089 72.1013 88.7977C71.5283 90.0655 71.9257 91.1656 73.1521 91.8019C73.2414 91.8493 73.3699 91.9282 73.3797 92.0052C73.4719 92.7343 73.5416 93.4654 73.6181 94.1954C72.7184 94.4303 72.2357 94.7479 71.9355 95.3715H71.7824C71.5234 95.3715 71.3145 95.5826 71.3145 95.8421V98.5868C71.3145 98.8463 71.5244 99.0574 71.7824 99.0574H72.067C72.4231 99.7757 73.0059 100.206 73.8477 100.175C74.0047 100.169 74.1607 100.129 74.3432 100.101C74.3795 100.2 74.4207 100.299 74.453 100.4C74.5668 100.763 74.7032 101.107 74.8631 101.429C75.078 101.867 75.3341 102.269 75.6314 102.635C76.2259 103.367 76.9853 103.956 77.9075 104.402C78.2804 104.581 78.3569 105.073 78.041 105.342C77.7143 105.62 77.3846 105.897 77.0402 106.151C76.9196 106.241 76.7567 106.297 76.6066 106.317C74.3775 106.614 72.9627 108.219 72.95 110.489C72.9431 111.746 72.9716 113.003 72.9402 114.259C72.9205 115.045 73.2011 115.59 73.9419 115.87H86.1332C86.9112 115.606 87.2007 115.038 87.1585 114.241C87.1359 113.805 87.1545 113.366 87.1545 112.876C87.3517 112.967 87.4911 113.036 87.6343 113.095C88.481 113.444 89.314 113.84 90.1813 114.127C91.4028 114.531 91.9149 114.305 92.6086 113.208C92.6547 113.135 92.7057 113.064 92.739 112.985C93.2139 111.88 93.6888 110.775 94.1528 109.664C94.2284 109.482 94.3147 109.399 94.5168 109.325C94.9907 109.151 95.4332 108.89 95.8933 108.676C96.0748 108.591 96.2691 108.488 96.4614 108.481C97.0481 108.455 97.6358 108.475 98.2235 108.47C99.183 108.462 99.9296 107.727 99.9247 106.801C99.9198 105.889 99.1889 105.159 98.247 105.144ZM87.1722 95.7049C87.2193 95.3202 87.5077 95.3221 87.7412 95.4445C87.9404 95.5491 88.1445 95.7484 88.2298 95.9546C88.5997 96.8465 88.5173 97.7354 88.067 98.5779C87.9728 98.7536 87.7697 98.9094 87.5803 98.9874C87.2458 99.1235 87.0456 98.9568 87.0427 98.5987C87.0407 98.205 87.0427 97.8114 87.0427 97.4177C87.0231 97.4157 87.0034 97.4138 86.9838 97.4118C87.0456 96.8425 87.1035 96.2732 87.1722 95.7049ZM83.2821 106.888C82.9613 107.249 82.6532 107.596 82.3049 107.986C81.9958 107.617 81.7143 107.281 81.4023 106.907C81.7398 106.658 82.0586 106.421 82.3952 106.173C82.6905 106.411 82.974 106.64 83.2821 106.888ZM77.1992 102.635H79.8855C80.0738 102.635 80.2455 102.558 80.3692 102.434C80.4889 102.312 80.5634 102.148 80.5693 101.966C80.5801 101.576 80.2436 101.258 79.856 101.258H76.0336C75.7157 100.704 75.493 100.072 75.4028 99.3682C75.1653 97.5252 75.0682 95.6201 76.0925 93.9014C76.1621 93.785 76.2239 93.6646 76.2956 93.5502C76.8136 92.7293 77.0039 92.6475 77.9095 92.9651C79.7599 93.6143 81.5985 93.5739 83.4351 92.9148C84.0856 92.681 84.326 92.7362 84.7067 93.3203C85.3856 94.3612 85.8928 95.4711 85.8477 96.7616C85.8379 97.0694 85.8467 97.3782 85.8467 97.6861C85.8732 98.7259 85.8487 99.7579 85.3807 100.72C84.5212 102.489 83.133 103.505 81.1894 103.798C79.8246 104.003 78.3324 103.573 77.1992 102.635ZM78.1528 106.682C78.3549 106.526 78.5502 106.361 78.7493 106.199C79.0074 106.386 79.2654 106.551 79.494 106.75C79.5617 106.808 79.6049 107.005 79.5607 107.066C79.3645 107.34 79.132 107.589 78.8759 107.89C78.5914 107.572 78.3598 107.305 78.1204 107.047C77.989 106.906 78.0047 106.796 78.1528 106.682ZM79.5951 114.732C78.7758 114.711 77.9556 114.708 77.1364 114.733C76.7744 114.744 76.6694 114.621 76.687 114.27C76.7106 113.765 76.5261 113.508 76.1769 113.47C75.7609 113.424 75.5009 113.68 75.4655 114.167C75.4263 114.725 75.4263 114.725 74.8631 114.725C74.0312 114.727 74.1214 114.776 74.1204 113.96C74.1185 112.777 74.1185 111.593 74.1204 110.409C74.1234 108.863 75.1339 107.692 76.6448 107.502C76.7616 107.487 76.9254 107.573 77.0128 107.665C77.3934 108.065 77.7535 108.485 78.1214 108.898C78.664 109.506 79.1212 109.502 79.65 108.886C79.7304 108.793 79.8129 108.702 79.8972 108.613C79.911 108.598 79.9394 108.598 79.9875 108.582C79.9924 108.684 80.0022 108.777 80.0022 108.871C80.0032 110.684 79.9963 112.496 80.0091 114.308C80.012 114.629 79.9227 114.741 79.5951 114.732ZM79.5166 105.261C79.4567 105.214 79.4479 105.098 79.4155 105.015C79.493 104.996 79.5695 104.96 79.6471 104.959C80.2789 104.954 80.9097 104.952 81.5416 104.957C81.6181 104.957 81.6946 104.997 81.7712 105.019C81.7368 105.102 81.726 105.216 81.6642 105.264C81.3189 105.536 80.9608 105.792 80.5928 106.063C80.221 105.789 79.8629 105.534 79.5166 105.261ZM91.5617 112.825C91.3988 113.152 91.0093 113.294 90.6748 113.148L89.8183 112.776C89.7496 112.761 89.676 112.734 89.5946 112.694C89.4906 112.644 89.3866 112.594 89.2826 112.543C89.2757 112.54 89.2688 112.537 89.262 112.534C88.5889 112.213 87.909 111.906 87.236 111.585C86.7121 111.336 86.5423 111.349 86.1479 111.724V114.582C86.1479 114.696 86.0557 114.789 85.9419 114.789H85.7908C85.677 114.789 85.5848 114.696 85.5848 114.582V114.046C85.5848 113.708 85.312 113.433 84.9755 113.433C84.639 113.433 84.3652 113.706 84.3652 114.042V114.046C84.3662 114.155 84.3672 114.264 84.3701 114.374C84.375 114.617 84.2956 114.733 84.0326 114.729C83.2007 114.718 82.3687 114.722 81.5357 114.727C81.3267 114.729 81.2149 114.661 81.2149 114.433C81.2198 112.534 81.2208 110.635 81.2237 108.737C81.2237 108.714 81.2404 108.692 81.2747 108.6C81.4101 108.75 81.5141 108.866 81.6201 108.983C82.0557 109.462 82.5286 109.471 82.976 108.991C83.3596 108.577 83.7324 108.151 84.1013 107.723C84.2583 107.54 84.4074 107.468 84.6684 107.522C85.5337 107.698 86.3127 108.053 87.0505 108.534C87.8511 109.055 88.6655 109.556 89.4866 110.042C89.9919 110.341 90.3863 110.227 90.7101 109.733C90.8926 109.455 91.0859 109.181 91.2291 108.883C91.3802 108.568 91.5637 108.494 91.8551 108.681C91.8972 108.707 91.9414 108.729 91.9944 108.754L92.0356 108.774L93.2914 109.353L91.5617 112.825ZM98.2303 107.338C98.2068 107.34 98.1823 107.339 98.1577 107.339H97.2041C96.9353 107.34 96.6664 107.345 96.3976 107.339C95.9365 107.328 95.5382 107.48 95.1889 107.78C94.6718 108.222 94.1214 108.378 93.4729 108.04C93.0628 107.827 92.6174 107.685 92.1955 107.494C92.0317 107.42 91.7687 107.308 91.7589 107.195C91.7363 106.93 91.7442 106.555 91.9061 106.397C92.7282 105.596 93.2473 104.584 93.8968 103.665C94.093 103.385 94.3697 103.322 94.6296 103.475C94.87 103.619 94.9338 103.921 94.768 104.223C94.6561 104.428 94.51 104.613 94.3971 104.816C94.0115 105.515 94.4364 106.262 95.2301 106.27C96.1945 106.279 97.1609 106.254 98.1254 106.287C98.3324 106.294 98.612 106.434 98.7199 106.603C98.9299 106.93 98.6512 107.305 98.2303 107.338Z" fill="white"/>
<path d="M109.192 83.5043C109.197 83.081 109.198 82.6568 109.185 82.2335C109.129 80.361 107.858 78.7104 106.075 78.1835C105.843 78.1154 105.607 78.0612 105.373 78H96.5598C96.5284 78.0178 96.498 78.0474 96.4647 78.0513C94.5358 78.2841 92.6658 80.0571 92.7286 82.6341C92.7737 84.4948 92.7325 86.3575 92.7433 88.2193C92.7443 88.464 92.6717 88.5991 92.4558 88.7067C91.9633 88.9533 91.4786 89.2158 90.9998 89.4871C90.1806 89.9527 90.1738 90.9019 90.9842 91.3754C91.354 91.5915 91.7219 91.8234 92.1183 91.9763C92.6344 92.1756 92.756 92.5051 92.7511 93.0418C92.7266 95.7195 94.6094 97.6049 97.2633 97.6078C99.7229 97.6118 102.183 97.6108 104.643 97.6078C107.32 97.6059 109.188 95.7224 109.192 93.0241C109.194 91.1505 109.192 89.2759 109.192 87.4024V83.5043ZM108.083 93.2184C108.069 95.0407 106.676 96.4732 104.878 96.489C102.259 96.5117 99.6405 96.5078 97.0219 96.492C95.6464 96.4841 94.3984 95.5705 94.0178 94.2484C93.8637 93.7157 93.8578 93.1316 93.848 92.5692C93.8372 91.9496 93.6047 91.5106 93.0523 91.2294C92.5765 90.9887 92.1124 90.7233 91.5826 90.4372C92.0977 90.157 92.548 89.8926 93.0151 89.6627C93.5988 89.3746 93.848 88.9227 93.8441 88.2706C93.8304 86.2855 93.8264 84.3005 93.8451 82.3154C93.8618 80.5839 95.2589 79.1385 96.9689 79.1208C99.6238 79.0932 102.28 79.0981 104.935 79.1228C106.479 79.1366 107.788 80.287 108.017 81.8241C108.085 82.2779 108.08 82.7416 108.081 83.2044V87.4024H108.093C108.085 89.341 108.097 91.2797 108.083 93.2184Z" fill="white"/>
<path d="M108.095 87.394H108.083V83.196C108.082 82.7333 108.087 82.2696 108.02 81.8158C107.79 80.2786 106.481 79.1282 104.937 79.1144C102.282 79.0898 99.6262 79.0848 96.9713 79.1125C95.2612 79.1302 93.8641 80.5756 93.8474 82.3071C93.8288 84.2921 93.8327 86.2772 93.8464 88.2623C93.8504 88.9144 93.6012 89.3663 93.0174 89.6544C92.5504 89.8842 92.1 90.1486 91.585 90.4288C92.1148 90.715 92.5788 90.9804 93.0547 91.2211C93.607 91.5023 93.8396 91.9413 93.8504 92.5609C93.8602 93.1233 93.8661 93.7073 94.0201 94.2401C94.4008 95.5622 95.6487 96.4758 97.0243 96.4837C99.6428 96.4994 102.261 96.5034 104.88 96.4807C106.678 96.4649 108.072 95.0324 108.085 93.2101C108.099 91.2714 108.087 89.3327 108.095 87.394ZM101.092 93.5307C97.9651 93.5209 95.4329 90.9537 95.4339 87.7946C95.4349 84.6187 97.9799 82.0575 101.131 82.0614C104.27 82.0664 106.836 84.6631 106.818 87.8153C106.798 90.9843 104.238 93.5396 101.092 93.5307Z" fill="white"/>
<path d="M109.195 87.4109V86.4766C109.208 86.7864 109.195 87.0991 109.195 87.4109Z" fill="white"/>
<path d="M101.118 83.1876C98.6062 83.1757 96.5527 85.2505 96.5537 87.799C96.5537 90.3355 98.5807 92.4034 101.078 92.4153C103.623 92.4271 105.68 90.3661 105.681 87.8019C105.681 85.2535 103.649 83.1984 101.118 83.1876ZM102.99 85.7794C103.306 85.7794 103.549 86.0448 103.549 86.3871C103.549 86.7364 103.314 86.988 102.988 86.988C102.663 86.987 102.429 86.7344 102.429 86.3861C102.43 86.0428 102.674 85.7794 102.99 85.7794ZM99.2537 85.7794C99.5706 85.7804 99.809 86.0428 99.8081 86.3901C99.8081 86.7423 99.5755 86.9889 99.2478 86.987C98.926 86.986 98.6857 86.7265 98.6867 86.3842C98.6886 86.0448 98.9388 85.7784 99.2537 85.7794ZM103.736 89.0954C103.127 90.0583 102.208 90.4174 101.116 90.4421C100.031 90.4164 99.1017 90.0632 98.513 89.0865C98.411 88.9158 98.3845 88.6208 98.4571 88.4373C98.616 88.0318 99.1949 88.0052 99.398 88.4136C99.8306 89.2828 101.193 89.5285 102.06 89.1042C102.34 88.9661 102.582 88.7096 102.788 88.4629C103.046 88.1541 103.318 88.0436 103.602 88.2212C103.892 88.4018 103.955 88.7481 103.736 89.0954Z" fill="white"/>
</g>
<g filter="url(#filter0_d_10781_550262)">
<rect x="15.5996" y="13.375" width="37.804" height="37.804" rx="18.902" fill="url(#paint3_linear_10781_550262)"/>
</g>
<path fill-rule="evenodd" clip-rule="evenodd" d="M40.3064 31.4169C40.3064 35.142 37.3615 38.1619 33.7289 38.1619C32.6767 38.1619 31.6822 37.9085 30.8003 37.4581C30.5659 37.3384 30.298 37.2985 30.0451 37.3679L28.5809 37.7696C27.9453 37.944 27.3638 37.3477 27.5339 36.6959L27.9256 35.1945C27.9933 34.9351 27.9544 34.6604 27.8377 34.4201C27.3984 33.5157 27.1514 32.4959 27.1514 31.4169C27.1514 27.6917 30.0962 24.6719 33.7289 24.6719C37.3615 24.6719 40.3064 27.6917 40.3064 31.4169ZM35.2347 30.0866H35.7068L34.443 33.6494H33.9708L35.2347 30.0866ZM29.9432 32.1676L29.54 32.5199L29.5437 32.9485H31.2906V32.509H30.201V32.4909L30.5751 32.1713L30.6332 32.1204C30.7664 32.009 30.8753 31.911 30.9601 31.8262C31.0448 31.7391 31.1174 31.6374 31.178 31.5212C31.2385 31.4025 31.2688 31.2718 31.2688 31.1289C31.2688 30.9861 31.2349 30.8553 31.1671 30.7367C31.1017 30.6181 31.0036 30.5248 30.8729 30.4571C30.7446 30.3868 30.5896 30.3517 30.408 30.3517C30.2289 30.3517 30.0727 30.3893 29.9395 30.4643C29.8088 30.5369 29.7071 30.6411 29.6345 30.7766C29.5642 30.9122 29.5291 31.0708 29.5291 31.2524H30.0231V31.2088C30.0231 31.1071 30.0485 31.0115 30.0993 30.9219C30.1526 30.8299 30.2579 30.7839 30.4153 30.7839C30.5436 30.7839 30.6393 30.8202 30.7022 30.8929C30.7652 30.9655 30.7966 31.0539 30.7966 31.158C30.7966 31.2548 30.7676 31.3505 30.7095 31.4449C30.6514 31.5369 30.5775 31.6241 30.4879 31.7064C30.3983 31.7887 30.2737 31.8952 30.1139 32.026L29.9432 32.1676ZM31.6855 32.3419L32.8077 32.3456V32.9485H33.3017V32.3456H33.6176V31.9606H33.3017V30.4062H32.6697L31.6855 31.9606V32.3419ZM32.8114 30.9982V31.9533H32.1903L32.8114 30.9982ZM37.2746 30.8892L36.2976 32.9049V32.9485H36.8278L37.7503 30.9183V30.4062H36.0216V30.8638H37.2746V30.8892Z" fill="white"/>
<path d="M25.7606 33.6812C25.7606 34.4104 25.7612 35.1396 25.76 35.8688C25.7594 36.265 25.6391 36.3908 25.2616 36.3914C24.8107 36.3926 24.3598 36.395 23.9088 36.3908C23.2226 36.3841 22.7385 35.887 22.7355 35.1809C22.7314 34.171 22.7314 33.1605 22.7355 32.1505C22.7385 31.4614 23.1942 30.9717 23.8685 30.9486C24.3562 30.9322 24.8445 30.9395 25.3322 30.9462C25.6308 30.9504 25.7529 31.0896 25.76 31.4025C25.7606 31.4177 25.76 31.4329 25.76 31.4481C25.7606 32.1925 25.7606 32.9368 25.7606 33.6812Z" fill="white"/>
<path d="M41.7507 33.621C41.7507 32.8845 41.7495 32.1475 41.7513 31.411C41.7519 31.0409 41.8722 30.9133 42.2265 30.9109C42.6774 30.9072 43.1284 30.9048 43.5793 30.9115C44.3141 30.9224 44.7751 31.4073 44.7763 32.1657C44.7781 33.1452 44.7781 34.1254 44.7763 35.1049C44.7745 35.8681 44.2987 36.3549 43.5539 36.3573C43.1029 36.3591 42.652 36.3597 42.201 36.3567C41.8893 36.3549 41.753 36.2182 41.7519 35.8997C41.7489 35.1402 41.7507 34.3806 41.7507 33.621Z" fill="white"/>
<path d="M42.8847 36.9244C43.133 36.9244 43.367 36.9244 43.6515 36.9244C43.591 37.2489 43.5531 37.5619 43.4731 37.8633C42.9102 39.9955 41.0465 41.5068 38.8961 41.5718C38.2615 41.5912 37.6256 41.5779 36.9904 41.5785C36.9477 41.5785 36.9051 41.5687 36.8506 41.5615C36.8506 41.3141 36.8506 41.0747 36.8506 40.8116C36.9317 40.808 37.0106 40.8013 37.0888 40.8013C37.6648 40.7995 38.2413 40.8092 38.8173 40.7964C40.9108 40.7502 42.6204 39.1491 42.8675 37.0131C42.8705 36.9913 42.8764 36.9694 42.8847 36.9244Z" fill="white"/>
<path d="M34.7286 40.4203C35.0385 40.4197 35.3484 40.4166 35.6583 40.4209C35.9416 40.4245 36.0755 40.5637 36.0802 40.8554C36.0838 41.0826 36.0838 41.3105 36.0802 41.5378C36.0755 41.813 35.9368 41.9692 35.6761 41.9716C35.0492 41.9771 34.4216 41.9813 33.7947 41.9698C33.3722 41.9625 33.0575 41.6161 33.0587 41.192C33.0599 40.7648 33.3746 40.4318 33.7994 40.4221C34.1087 40.4142 34.4187 40.4203 34.7286 40.4203Z" fill="white"/>
<path d="M43.6408 30.4578C43.6408 29.1491 43.3831 27.8532 42.8823 26.6441C42.3815 25.435 41.6475 24.3364 40.7222 23.411C39.7969 22.4856 38.6984 21.7516 37.4894 21.2508C36.2804 20.75 34.9846 20.4922 33.676 20.4922C32.3674 20.4922 31.0716 20.75 29.8626 21.2508C28.6536 21.7516 27.5551 22.4856 26.6298 23.411C25.7044 24.3364 24.9704 25.435 24.4697 26.6441C23.9689 27.8532 23.7111 29.1491 23.7111 30.4578H24.6356C24.6356 29.2705 24.8694 28.0948 25.3238 26.9979C25.7781 25.901 26.444 24.9043 27.2835 24.0648C28.1229 23.2252 29.1195 22.5593 30.2164 22.1049C31.3132 21.6506 32.4888 21.4167 33.676 21.4167C34.8632 21.4167 36.0388 21.6506 37.1356 22.1049C38.2324 22.5593 39.229 23.2252 40.0685 24.0648C40.908 24.9043 41.5739 25.901 42.0282 26.9979C42.4825 28.0948 42.7164 29.2705 42.7164 30.4578H43.6408Z" fill="white"/>
<path d="M34.8491 53.9766C34.8491 53.7832 34.6923 53.6265 34.499 53.6265C34.3057 53.6265 34.149 53.7832 34.149 53.9766H34.8491ZM44.3001 74.2787L40.7997 72.2578V76.2997L44.3001 74.2787ZM34.149 53.9766V69.5936H34.8491V53.9766H34.149ZM39.1841 74.6288H41.1497V73.9287H39.1841V74.6288ZM34.149 69.5936C34.149 72.3745 36.4033 74.6288 39.1841 74.6288V73.9287C36.7899 73.9287 34.8491 71.9878 34.8491 69.5936H34.149Z" fill="#E0E4EE"/>
<defs>
<filter id="filter0_d_10781_550262" x="14.0864" y="12.8706" width="42.8478" height="42.8487" filterUnits="userSpaceOnUse" color-interpolation-filters="sRGB">
<feFlood flood-opacity="0" result="BackgroundImageFix"/>
<feColorMatrix in="SourceAlpha" type="matrix" values="0 0 0 0 0 0 0 0 0 0 0 0 0 0 0 0 0 0 127 0" result="hardAlpha"/>
<feOffset dx="1.00881" dy="2.01762"/>
<feGaussianBlur stdDeviation="1.26101"/>
<feComposite in2="hardAlpha" operator="out"/>
<feColorMatrix type="matrix" values="0 0 0 0 0 0 0 0 0 0.175 0 0 0 0 0.4375 0 0 0 0.07 0"/>
<feBlend mode="normal" in2="BackgroundImageFix" result="effect1_dropShadow_10781_550262"/>
<feBlend mode="normal" in="SourceGraphic" in2="effect1_dropShadow_10781_550262" result="shape"/>
</filter>
<linearGradient id="paint0_linear_10781_550262" x1="12.0815" y1="-7.96687" x2="132.094" y2="139.213" gradientUnits="userSpaceOnUse">
<stop stop-color="white"/>
<stop offset="1" stop-color="#E2F1FA"/>
</linearGradient>
<linearGradient id="paint1_linear_10781_550262" x1="-5.38494" y1="-8.67975" x2="121.46" y2="151.29" gradientUnits="userSpaceOnUse">
<stop stop-color="white"/>
<stop offset="1" stop-color="#E2F1FA"/>
</linearGradient>
<linearGradient id="paint2_linear_10781_550262" x1="9.45977" y1="42.1314" x2="161.958" y2="144.642" gradientUnits="userSpaceOnUse">
<stop stop-color="#D2D9EE"/>
<stop offset="1" stop-color="#E7F0F8"/>
</linearGradient>
<linearGradient id="paint3_linear_10781_550262" x1="-14.1511" y1="-0.427894" x2="79.4272" y2="62.4762" gradientUnits="userSpaceOnUse">
<stop stop-color="#D2D9EE"/>
<stop offset="1" stop-color="#E7F0F8"/>
</linearGradient>
<clipPath id="clip0_10781_550262">
<rect width="37.8857" height="37.8857" fill="white" transform="translate(71.3145 78)"/>
</clipPath>
</defs>
</svg>
