<svg width="156" height="157" viewBox="0 0 156 157" fill="none" xmlns="http://www.w3.org/2000/svg">
<path d="M74.9795 28.3203L87.8411 31.1222L91.0194 40.0325L107.997 43.731L91.9981 117.171L57.2717 109.606L74.9795 28.3203Z" fill="#D0DEEB"/>
<path d="M59.3096 31.9453L75.5884 31.7231L81.9099 41.5687L103.398 41.2753L104.667 134.227L60.7142 134.827L59.3096 31.9453Z" fill="url(#paint0_linear_10781_550261)"/>
<path d="M59.3096 31.9453L75.5884 31.7231L81.9099 41.5687L103.398 41.2753L104.667 134.227L60.7142 134.827L59.3096 31.9453Z" fill="#E1EDF8"/>
<path d="M44.9717 34.9062H62.4735L69.1243 45.5824H127.23V145.518H44.9717V34.9062Z" fill="url(#paint1_linear_10781_550261)"/>
<circle cx="86.5172" cy="95.9986" r="30.8033" fill="url(#paint2_linear_10781_550261)"/>
<g clip-path="url(#clip0_10781_550261)">
<path d="M96.0185 105.714C95.2356 105.703 94.4526 105.712 93.6687 105.71C93.5677 105.71 93.4666 105.695 93.344 105.687C93.4421 105.499 93.5304 105.353 93.6001 105.198C93.9572 104.39 93.6884 103.47 92.982 103.065C92.1922 102.613 91.267 102.822 90.744 103.575C90.6253 103.747 90.5184 103.927 90.3977 104.097C89.9631 104.706 89.5765 105.36 89.0742 105.906C88.6287 106.392 88.3168 106.907 88.3903 107.547C88.4835 108.359 87.9616 108.856 87.6143 109.49C86.9069 109.047 86.2172 108.647 85.5628 108.196C84.5758 107.518 83.5113 107.062 82.3271 106.886C82.1789 106.865 82.0209 106.799 81.9003 106.71C81.5657 106.461 81.2459 106.193 80.926 105.924C80.5915 105.642 80.665 105.153 81.0575 104.961C82.7646 104.128 83.9135 102.805 84.4953 100.982C84.5277 100.88 84.566 100.779 84.6003 100.683C86.0249 100.831 86.7901 100.31 87.1855 98.9233C87.3759 98.2514 87.419 97.5667 87.3003 96.8741C87.0884 95.632 86.5586 95.0598 85.3616 94.7796C85.3459 94.7756 85.3342 94.7519 85.3342 94.751C85.4087 94.0722 85.5127 93.4141 85.55 92.7531C85.7325 89.4973 84.3609 86.8798 80.9574 86.0846C80.8475 86.0589 80.7347 85.981 80.6582 85.8952C80.2755 85.466 79.7968 85.2065 79.2513 85.0743C77.704 84.7004 76.2157 84.9944 74.7587 85.5242C74.6243 85.5735 74.4409 85.7768 74.4526 85.8912C74.4929 86.2839 74.228 86.3569 73.9738 86.4723C73.7845 86.5582 73.5971 86.6499 73.4176 86.7535C73.2645 86.8433 73.1615 86.8275 72.9967 86.7328C72.8436 86.643 72.562 86.6045 72.4256 86.6884C71.3503 87.3583 70.4104 88.1792 69.8728 89.368C69.2998 90.6358 69.6972 91.7359 70.9236 92.3722C71.0128 92.4196 71.1414 92.4985 71.1512 92.5755C71.2434 93.3046 71.3131 94.0357 71.3896 94.7658C70.4899 95.0006 70.0072 95.3183 69.707 95.9418H69.5539C69.2949 95.9418 69.0859 96.1529 69.0859 96.4124V99.1571C69.0859 99.4166 69.2959 99.6278 69.5539 99.6278H69.8385C70.1946 100.346 70.7774 100.776 71.6192 100.746C71.7762 100.74 71.9321 100.699 72.1146 100.672C72.1509 100.77 72.1921 100.869 72.2245 100.971C72.3383 101.334 72.4747 101.677 72.6346 102C72.8495 102.438 73.1056 102.839 73.4028 103.205C73.9974 103.937 74.7568 104.526 75.679 104.972C76.0518 105.152 76.1284 105.643 75.8125 105.912C75.4857 106.191 75.1561 106.467 74.8117 106.721C74.691 106.811 74.5282 106.867 74.3781 106.887C72.149 107.184 70.7342 108.789 70.7215 111.06C70.7146 112.317 70.743 113.573 70.7116 114.829C70.692 115.616 70.9726 116.16 71.7134 116.441H83.9047C84.6827 116.176 84.9721 115.608 84.9299 114.812C84.9074 114.376 84.926 113.937 84.926 113.446C85.1232 113.537 85.2625 113.606 85.4058 113.665C86.2525 114.014 87.0855 114.41 87.9528 114.697C89.1742 115.102 89.6864 114.876 90.38 113.779C90.4261 113.706 90.4772 113.635 90.5105 113.556C90.9854 112.451 91.4602 111.346 91.9243 110.235C91.9999 110.052 92.0862 109.969 92.2883 109.895C92.7622 109.722 93.2047 109.46 93.6648 109.246C93.8463 109.161 94.0406 109.059 94.2329 109.051C94.8196 109.025 95.4073 109.045 95.995 109.04C96.9545 109.032 97.7011 108.297 97.6962 107.372C97.6913 106.459 96.9604 105.729 96.0185 105.714ZM84.9437 96.2753C84.9908 95.8905 85.2792 95.8925 85.5127 96.0148C85.7119 96.1194 85.916 96.3187 86.0013 96.5249C86.3712 97.4168 86.2888 98.3057 85.8385 99.1483C85.7443 99.3239 85.5412 99.4798 85.3518 99.5577C85.0173 99.6939 84.8171 99.5271 84.8142 99.169C84.8122 98.7753 84.8142 98.3817 84.8142 97.988C84.7946 97.986 84.7749 97.9841 84.7553 97.9821C84.8171 97.4128 84.875 96.8435 84.9437 96.2753ZM81.0536 107.458C80.7327 107.82 80.4247 108.166 80.0764 108.557C79.7673 108.188 79.4857 107.851 79.1738 107.477C79.5113 107.229 79.8301 106.992 80.1666 106.743C80.462 106.981 80.7455 107.21 81.0536 107.458ZM74.9707 103.205H77.6569C77.8453 103.205 78.017 103.128 78.1406 103.004C78.2603 102.883 78.3349 102.719 78.3408 102.536C78.3516 102.147 78.0151 101.828 77.6275 101.828H73.8051C73.4872 101.274 73.2645 100.642 73.1742 99.9385C72.9368 98.0956 72.8397 96.1904 73.864 94.4717C73.9336 94.3553 73.9954 94.235 74.0671 94.1205C74.5851 93.2997 74.7754 93.2178 75.681 93.5355C77.5314 94.1846 79.37 94.1442 81.2066 93.4851C81.8571 93.2513 82.0975 93.3066 82.4781 93.8906C83.1571 94.9315 83.6643 96.0414 83.6192 97.3319C83.6094 97.6397 83.6182 97.9485 83.6182 98.2564C83.6447 99.2963 83.6202 100.328 83.1522 101.29C82.2927 103.059 80.9044 104.075 78.9609 104.368C77.5961 104.574 76.1038 104.143 74.9707 103.205ZM75.9243 107.252C76.1264 107.096 76.3217 106.932 76.5208 106.77C76.7789 106.956 77.0369 107.121 77.2655 107.32C77.3332 107.379 77.3764 107.575 77.3322 107.636C77.136 107.91 76.9035 108.159 76.6474 108.46C76.3629 108.142 76.1313 107.876 75.8919 107.617C75.7605 107.476 75.7762 107.367 75.9243 107.252ZM77.3665 115.302C76.5473 115.281 75.7271 115.278 74.9079 115.303C74.5458 115.315 74.4409 115.191 74.4585 114.84C74.4821 114.335 74.2976 114.079 73.9483 114.04C73.5323 113.995 73.2724 114.25 73.237 114.738C73.1978 115.295 73.1978 115.295 72.6346 115.295C71.8026 115.297 71.8929 115.346 71.8919 114.53C71.89 113.348 71.89 112.164 71.8919 110.98C71.8949 109.434 72.9054 108.263 74.4163 108.072C74.5331 108.057 74.6969 108.143 74.7842 108.235C75.1649 108.635 75.525 109.056 75.8929 109.468C76.4355 110.076 76.8927 110.072 77.4215 109.456C77.5019 109.364 77.5843 109.272 77.6687 109.183C77.6825 109.168 77.7109 109.168 77.759 109.152C77.7639 109.254 77.7737 109.348 77.7737 109.442C77.7747 111.254 77.7678 113.066 77.7806 114.879C77.7835 115.199 77.6942 115.311 77.3665 115.302ZM77.2881 105.832C77.2282 105.784 77.2194 105.669 77.187 105.585C77.2645 105.566 77.341 105.531 77.4185 105.53C78.0504 105.525 78.6812 105.523 79.3131 105.528C79.3896 105.528 79.4661 105.567 79.5427 105.589C79.5083 105.673 79.4975 105.786 79.4357 105.834C79.0904 106.106 78.7323 106.362 78.3643 106.634C77.9925 106.359 77.6344 106.104 77.2881 105.832ZM89.3332 113.395C89.1703 113.722 88.7808 113.864 88.4463 113.718L87.5897 113.347C87.5211 113.332 87.4475 113.304 87.3661 113.265C87.2621 113.214 87.1581 113.164 87.0541 113.114C87.0472 113.111 87.0403 113.108 87.0335 113.104C86.3604 112.783 85.6805 112.476 85.0075 112.156C84.4835 111.906 84.3138 111.919 83.9194 112.294V115.152C83.9194 115.266 83.8272 115.359 83.7134 115.359H83.5623C83.4485 115.359 83.3562 115.266 83.3562 115.152V114.616C83.3562 114.278 83.0835 114.004 82.747 114.004C82.4104 114.004 82.1367 114.276 82.1367 114.612V114.616C82.1377 114.726 82.1387 114.834 82.1416 114.944C82.1465 115.188 82.0671 115.303 81.8041 115.299C80.9721 115.288 80.1401 115.292 79.3072 115.297C79.0982 115.299 78.9864 115.231 78.9864 115.003C78.9913 113.105 78.9922 111.206 78.9952 109.307C78.9952 109.285 79.0119 109.262 79.0462 109.17C79.1816 109.32 79.2856 109.437 79.3916 109.553C79.8272 110.033 80.3001 110.041 80.7475 109.561C81.1311 109.148 81.5039 108.721 81.8728 108.293C82.0298 108.111 82.1789 108.039 82.4399 108.092C83.3052 108.268 84.0842 108.624 84.822 109.104C85.6226 109.625 86.4369 110.126 87.2581 110.613C87.7634 110.912 88.1578 110.797 88.4816 110.303C88.6641 110.026 88.8573 109.751 89.0006 109.453C89.1517 109.139 89.3352 109.065 89.6265 109.251C89.6687 109.278 89.7129 109.299 89.7659 109.324L89.8071 109.344L91.0629 109.923L89.3332 113.395ZM96.0018 107.908C95.9783 107.91 95.9537 107.909 95.9292 107.909H94.9756C94.7068 107.91 94.4379 107.915 94.1691 107.909C93.708 107.898 93.3096 108.05 92.9604 108.35C92.4433 108.792 91.8929 108.948 91.2444 108.611C90.8343 108.398 90.3889 108.256 89.967 108.064C89.8031 107.99 89.5402 107.879 89.5304 107.765C89.5078 107.5 89.5157 107.125 89.6776 106.967C90.4997 106.166 91.0187 105.155 91.6682 104.235C91.8645 103.955 92.1411 103.892 92.4011 104.046C92.6415 104.189 92.7053 104.492 92.5395 104.794C92.4276 104.998 92.2814 105.183 92.1686 105.387C91.783 106.085 92.2079 106.832 93.0016 106.84C93.966 106.85 94.9324 106.824 95.8968 106.858C96.1039 106.865 96.3835 107.005 96.4914 107.173C96.7014 107.5 96.4227 107.876 96.0018 107.908Z" fill="white"/>
<path d="M106.963 84.0746C106.968 83.6513 106.969 83.2271 106.956 82.8038C106.9 80.9313 105.63 79.2807 103.846 78.7538C103.615 78.6857 103.378 78.6315 103.145 78.5703H94.3313C94.2999 78.5881 94.2695 78.6177 94.2361 78.6216C92.3073 78.8545 90.4373 80.6274 90.5001 83.2044C90.5452 85.0651 90.504 86.9279 90.5148 88.7896C90.5158 89.0343 90.4432 89.1694 90.2273 89.277C89.7348 89.5236 89.2501 89.7861 88.7713 90.0574C87.9521 90.5231 87.9452 91.4722 88.7556 91.9457C89.1255 92.1618 89.4934 92.3937 89.8898 92.5466C90.4059 92.7459 90.5275 93.0754 90.5226 93.6121C90.4981 96.2898 92.3809 98.1752 95.0348 98.1781C97.4944 98.1821 99.9541 98.1811 102.415 98.1781C105.091 98.1762 106.959 96.2927 106.963 93.5944C106.965 91.7208 106.963 89.8462 106.963 87.9727V84.0746ZM105.854 93.7887C105.841 95.611 104.448 97.0435 102.649 97.0593C100.031 97.082 97.412 97.0781 94.7934 97.0623C93.4179 97.0544 92.1699 96.1408 91.7892 94.8187C91.6352 94.286 91.6293 93.7019 91.6195 93.1395C91.6087 92.52 91.3762 92.0809 90.8238 91.7997C90.348 91.559 89.8839 91.2936 89.3541 91.0075C89.8692 90.7273 90.3195 90.4629 90.7865 90.233C91.3703 89.9449 91.6195 89.493 91.6156 88.8409C91.6018 86.8558 91.5979 84.8708 91.6166 82.8857C91.6332 81.1542 93.0304 79.7089 94.7404 79.6911C97.3953 79.6635 100.051 79.6684 102.706 79.6931C104.25 79.7069 105.559 80.8573 105.789 82.3944C105.856 82.8482 105.852 83.3119 105.853 83.7747V87.9727H105.864C105.856 89.9114 105.868 91.85 105.854 93.7887Z" fill="white"/>
<path d="M105.867 87.9644H105.855V83.7663C105.854 83.3036 105.859 82.8399 105.791 82.3861C105.562 80.8489 104.253 79.6986 102.708 79.6847C100.054 79.6601 97.3977 79.6551 94.7428 79.6828C93.0327 79.7005 91.6356 81.1459 91.6189 82.8774C91.6003 84.8625 91.6042 86.8475 91.6179 88.8326C91.6218 89.4847 91.3726 89.9366 90.7889 90.2247C90.3219 90.4545 89.8715 90.719 89.3564 90.9992C89.8862 91.2853 90.3503 91.5507 90.8262 91.7914C91.3785 92.0726 91.611 92.5116 91.6218 93.1312C91.6316 93.6936 91.6375 94.2777 91.7916 94.8104C92.1722 96.1325 93.4202 97.0461 94.7957 97.054C97.4143 97.0697 100.033 97.0737 102.652 97.051C104.45 97.0352 105.843 95.6027 105.857 93.7804C105.871 91.8417 105.859 89.903 105.867 87.9644ZM98.8634 94.101C95.7366 94.0912 93.2044 91.524 93.2054 88.3649C93.2063 85.189 95.7513 82.6278 98.9027 82.6317C102.041 82.6367 104.608 85.2334 104.589 88.3856C104.57 91.5546 102.01 94.1099 98.8634 94.101Z" fill="white"/>
<path d="M106.967 87.9812V87.0469C106.98 87.3567 106.967 87.6694 106.967 87.9812Z" fill="white"/>
<path d="M98.8893 83.7579C96.3777 83.746 94.3242 85.8209 94.3252 88.3693C94.3252 90.9058 96.3522 92.9738 98.8491 92.9856C101.394 92.9974 103.452 90.9364 103.452 88.3722C103.452 85.8238 101.421 83.7687 98.8893 83.7579ZM100.761 86.3497C101.077 86.3497 101.321 86.6151 101.321 86.9574C101.321 87.3067 101.085 87.5583 100.759 87.5583C100.435 87.5573 100.2 87.3047 100.2 86.9564C100.201 86.6131 100.445 86.3497 100.761 86.3497ZM97.0252 86.3497C97.3421 86.3507 97.5805 86.6131 97.5796 86.9604C97.5796 87.3126 97.347 87.5593 97.0193 87.5573C96.6975 87.5563 96.4572 87.2968 96.4581 86.9545C96.4601 86.6151 96.7103 86.3487 97.0252 86.3497ZM101.508 89.6657C100.899 90.6286 99.9794 90.9877 98.8874 91.0124C97.8023 90.9867 96.8731 90.6335 96.2845 89.6568C96.1824 89.4861 96.156 89.1911 96.2286 89.0076C96.3875 88.6021 96.9664 88.5755 97.1694 88.9839C97.6021 89.8531 98.9649 90.0988 99.8312 89.6745C100.112 89.5364 100.353 89.2799 100.559 89.0333C100.817 88.7244 101.089 88.6139 101.374 88.7915C101.664 88.9721 101.727 89.3184 101.508 89.6657Z" fill="white"/>
</g>
<g filter="url(#filter0_d_10781_550261)">
<rect x="13.3711" y="13.9453" width="37.804" height="37.804" rx="18.902" fill="url(#paint3_linear_10781_550261)"/>
<rect x="13.3711" y="13.9453" width="37.804" height="37.804" rx="18.902" fill="url(#paint4_linear_10781_550261)"/>
</g>
<path fill-rule="evenodd" clip-rule="evenodd" d="M38.0779 31.9872C38.0779 35.7123 35.133 38.7322 31.5004 38.7322C30.4482 38.7322 29.4537 38.4788 28.5717 38.0284C28.3374 37.9087 28.0695 37.8688 27.8165 37.9382L26.3524 38.34C25.7168 38.5144 25.1353 37.9181 25.3053 37.2663L25.6971 35.7648C25.7648 35.5054 25.7259 35.2307 25.6092 34.9904C25.1699 34.086 24.9229 33.0662 24.9229 31.9872C24.9229 28.262 27.8677 25.2422 31.5004 25.2422C35.133 25.2422 38.0779 28.262 38.0779 31.9872ZM33.0062 30.6569H33.4783L32.2145 34.2197H31.7423L33.0062 30.6569ZM27.7146 32.7379L27.3115 33.0902L27.3151 33.5188H29.062V33.0793H27.9725V33.0612L28.3466 32.7416L28.4047 32.6907C28.5379 32.5793 28.6468 32.4813 28.7315 32.3965C28.8163 32.3094 28.8889 32.2077 28.9495 32.0915C29.01 31.9728 29.0403 31.8421 29.0403 31.6992C29.0403 31.5564 29.0064 31.4256 28.9386 31.307C28.8732 31.1884 28.7751 31.0952 28.6444 31.0274C28.5161 30.9571 28.3611 30.922 28.1795 30.922C28.0003 30.922 27.8442 30.9596 27.711 31.0346C27.5803 31.1073 27.4786 31.2114 27.4059 31.347C27.3357 31.4825 27.3006 31.6411 27.3006 31.8227H27.7945V31.7791C27.7945 31.6775 27.82 31.5818 27.8708 31.4922C27.9241 31.4002 28.0294 31.3542 28.1868 31.3542C28.3151 31.3542 28.4107 31.3905 28.4737 31.4632C28.5366 31.5358 28.5681 31.6242 28.5681 31.7283C28.5681 31.8251 28.5391 31.9208 28.481 32.0152C28.4228 32.1072 28.349 32.1944 28.2594 32.2767C28.1698 32.359 28.0451 32.4656 27.8853 32.5963L27.7146 32.7379ZM29.457 32.9123L30.5792 32.9159V33.5188H31.0731V32.9159H31.3891V32.5309H31.0731V30.9765H30.4412L29.457 32.5309V32.9123ZM30.5829 31.5685V32.5237H29.9618L30.5829 31.5685ZM35.046 31.4595L34.0691 33.4752V33.5188H34.5993L35.5218 31.4886V30.9765H33.7931V31.4341H35.046V31.4595Z" fill="white"/>
<path d="M23.5321 34.2515C23.5321 34.9807 23.5327 35.7099 23.5315 36.4391C23.5309 36.8353 23.4106 36.9611 23.0331 36.9617C22.5822 36.9629 22.1312 36.9653 21.6803 36.9611C20.9941 36.9544 20.51 36.4573 20.507 35.7512C20.5029 34.7413 20.5029 33.7308 20.507 32.7208C20.51 32.0318 20.9657 31.542 21.64 31.5189C22.1277 31.5025 22.616 31.5098 23.1036 31.5165C23.4023 31.5207 23.5244 31.6599 23.5315 31.9728C23.5321 31.988 23.5315 32.0032 23.5315 32.0184C23.5321 32.7628 23.5321 33.5072 23.5321 34.2515Z" fill="white"/>
<path d="M39.5222 34.1913C39.5222 33.4549 39.521 32.7178 39.5227 31.9813C39.5233 31.6112 39.6436 31.4836 39.998 31.4812C40.4489 31.4775 40.8999 31.4751 41.3508 31.4818C42.0856 31.4927 42.5466 31.9776 42.5478 32.736C42.5496 33.7155 42.5496 34.6957 42.5478 35.6752C42.546 36.4385 42.0702 36.9252 41.3253 36.9276C40.8744 36.9294 40.4235 36.9301 39.9725 36.927C39.6608 36.9252 39.5245 36.7885 39.5233 36.4701C39.5204 35.7105 39.5222 34.9509 39.5222 34.1913Z" fill="white"/>
<path d="M40.6562 37.4947C40.9044 37.4947 41.1385 37.4947 41.4229 37.4947C41.3625 37.8192 41.3246 38.1322 41.2446 38.4336C40.6816 40.5658 38.818 42.0771 36.6676 42.1421C36.0329 42.1615 35.3971 42.1482 34.7619 42.1488C34.7192 42.1488 34.6766 42.1391 34.622 42.1318C34.622 41.8845 34.622 41.645 34.622 41.3819C34.7032 41.3783 34.782 41.3716 34.8603 41.3716C35.4362 41.3698 36.0128 41.3795 36.5888 41.3667C38.6823 41.3205 40.3919 39.7194 40.639 37.5835C40.6419 37.5616 40.6479 37.5397 40.6562 37.4947Z" fill="white"/>
<path d="M32.5001 40.9906C32.81 40.99 33.1199 40.9869 33.4298 40.9912C33.713 40.9948 33.847 41.134 33.8517 41.4257C33.8553 41.6529 33.8553 41.8808 33.8517 42.1081C33.847 42.3833 33.7083 42.5395 33.4476 42.5419C32.8206 42.5474 32.1931 42.5517 31.5662 42.5401C31.1437 42.5328 30.829 42.1865 30.8302 41.7623C30.8314 41.3351 31.146 41.0021 31.5709 40.9924C31.8802 40.9845 32.1901 40.9906 32.5001 40.9906Z" fill="white"/>
<path d="M41.4123 31.0281C41.4123 29.7194 41.1546 28.4235 40.6538 27.2144C40.153 26.0053 39.419 24.9067 38.4937 23.9814C37.5684 23.056 36.4698 22.3219 35.2609 21.8211C34.0519 21.3203 32.7561 21.0625 31.4475 21.0625C30.1389 21.0625 28.8431 21.3203 27.6341 21.8211C26.4251 22.3219 25.3266 23.056 24.4012 23.9814C23.4759 24.9067 22.7419 26.0053 22.2411 27.2144C21.7404 28.4235 21.4826 29.7194 21.4826 31.0281H22.4071C22.4071 29.8408 22.6409 28.6651 23.0952 27.5682C23.5496 26.4713 24.2155 25.4746 25.0549 24.6351C25.8944 23.7956 26.891 23.1296 27.9879 22.6752C29.0847 22.2209 30.2603 21.987 31.4475 21.987C32.6347 21.987 33.8102 22.2209 34.9071 22.6752C36.0039 23.1296 37.0005 23.7956 37.84 24.6351C38.6795 25.4746 39.3454 26.4713 39.7997 27.5682C40.254 28.6651 40.4879 29.8408 40.4879 31.0281H41.4123Z" fill="white"/>
<path d="M32.6205 54.5469C32.6205 54.3536 32.4638 54.1968 32.2705 54.1968C32.0772 54.1968 31.9205 54.3536 31.9205 54.5469H32.6205ZM42.0716 74.849L38.5712 72.8281V76.87L42.0716 74.849ZM31.9205 54.5469V70.1639H32.6205V54.5469H31.9205ZM36.9556 75.1991H38.9212V74.499H36.9556V75.1991ZM31.9205 70.1639C31.9205 72.9448 34.1748 75.1991 36.9556 75.1991V74.499C34.5614 74.499 32.6205 72.5581 32.6205 70.1639H31.9205Z" fill="#E0E4EE"/>
<defs>
<filter id="filter0_d_10781_550261" x="11.8579" y="13.4409" width="42.8478" height="42.8487" filterUnits="userSpaceOnUse" color-interpolation-filters="sRGB">
<feFlood flood-opacity="0" result="BackgroundImageFix"/>
<feColorMatrix in="SourceAlpha" type="matrix" values="0 0 0 0 0 0 0 0 0 0 0 0 0 0 0 0 0 0 127 0" result="hardAlpha"/>
<feOffset dx="1.00881" dy="2.01762"/>
<feGaussianBlur stdDeviation="1.26101"/>
<feComposite in2="hardAlpha" operator="out"/>
<feColorMatrix type="matrix" values="0 0 0 0 0 0 0 0 0 0.175 0 0 0 0 0.4375 0 0 0 0.07 0"/>
<feBlend mode="normal" in2="BackgroundImageFix" result="effect1_dropShadow_10781_550261"/>
<feBlend mode="normal" in="SourceGraphic" in2="effect1_dropShadow_10781_550261" result="shape"/>
</filter>
<linearGradient id="paint0_linear_10781_550261" x1="9.85293" y1="-7.39656" x2="129.865" y2="139.784" gradientUnits="userSpaceOnUse">
<stop stop-color="white"/>
<stop offset="1" stop-color="#E2F1FA"/>
</linearGradient>
<linearGradient id="paint1_linear_10781_550261" x1="-7.61345" y1="-8.10944" x2="119.231" y2="151.861" gradientUnits="userSpaceOnUse">
<stop stop-color="white"/>
<stop offset="1" stop-color="#E2F1FA"/>
</linearGradient>
<linearGradient id="paint2_linear_10781_550261" x1="50.2274" y1="72.7634" x2="119.804" y2="121.237" gradientUnits="userSpaceOnUse">
<stop stop-color="#FF8D07"/>
<stop offset="1" stop-color="#FFB341"/>
</linearGradient>
<linearGradient id="paint3_linear_10781_550261" x1="59.7909" y1="59.6054" x2="28.2352" y2="28.9355" gradientUnits="userSpaceOnUse">
<stop stop-color="#BFCAEE"/>
<stop offset="1" stop-color="#D3E6F8"/>
</linearGradient>
<linearGradient id="paint4_linear_10781_550261" x1="13.3703" y1="32.8484" x2="51.1734" y2="32.8484" gradientUnits="userSpaceOnUse">
<stop stop-color="#05E0E0"/>
<stop offset="1" stop-color="#02C8C8"/>
</linearGradient>
<clipPath id="clip0_10781_550261">
<rect width="37.8857" height="37.8857" fill="white" transform="translate(69.0859 78.5703)"/>
</clipPath>
</defs>
</svg>
