<svg width="200" height="200" viewBox="0 0 200 200" fill="none" xmlns="http://www.w3.org/2000/svg">
<path d="M155.776 40.3438H65.9396C64.3593 40.3438 63.0781 41.9161 63.0781 43.8556V154.11C63.0781 156.049 64.3593 157.622 65.9396 157.622H155.776C157.357 157.622 158.638 156.049 158.638 154.11V43.8556C158.638 41.9161 157.357 40.3438 155.776 40.3438Z" fill="url(#paint0_linear_10576_503496)"/>
<path d="M155.776 40.3438H65.9396C64.3593 40.3438 63.0781 41.9161 63.0781 43.8556V154.11C63.0781 156.049 64.3593 157.622 65.9396 157.622H155.776C157.357 157.622 158.638 156.049 158.638 154.11V43.8556C158.638 41.9161 157.357 40.3438 155.776 40.3438Z" fill="url(#paint1_linear_10576_503496)" stroke="#E1EDF8" stroke-width="5.35714"/>
<path fill-rule="evenodd" clip-rule="evenodd" d="M132.068 82.1707C132.115 81.5935 132.138 81.0099 132.138 80.4208C132.138 68.5861 122.544 58.9922 110.71 58.9922C98.8751 58.9922 89.2812 68.5861 89.2812 80.4208C89.2812 92.2554 98.8751 101.849 110.71 101.849C115.421 101.849 119.777 100.329 123.314 97.7521C125.101 100.194 127.988 101.78 131.246 101.78C136.67 101.78 141.067 97.3824 141.067 91.9581C141.067 86.8109 137.107 82.5885 132.068 82.1707Z" fill="url(#paint2_linear_10576_503496)"/>
<path d="M117.253 87.0437C116.699 87.036 116.146 87.0423 115.591 87.0409C115.52 87.0409 115.448 87.0305 115.362 87.0242C115.431 86.8916 115.493 86.7884 115.543 86.6789C115.795 86.1076 115.605 85.4568 115.106 85.1708C114.547 84.8513 113.893 84.9992 113.524 85.5314C113.44 85.6528 113.364 85.7805 113.279 85.9004C112.971 86.3308 112.698 86.7933 112.343 87.179C112.028 87.5229 111.807 87.887 111.859 88.3398C111.925 88.9138 111.556 89.2654 111.311 89.7132C110.811 89.4 110.323 89.1175 109.86 88.7987C109.162 88.3188 108.41 87.9966 107.573 87.8724C107.468 87.857 107.356 87.811 107.271 87.7475C107.034 87.5718 106.808 87.382 106.582 87.1923C106.345 86.9928 106.398 86.6468 106.675 86.5115C107.882 85.9221 108.694 84.9867 109.106 83.6983C109.128 83.6257 109.156 83.5546 109.18 83.4869C110.187 83.5916 110.728 83.2233 111.008 82.2425C111.142 81.7675 111.173 81.2834 111.089 80.7937C110.939 79.9155 110.564 79.5109 109.718 79.3128C109.707 79.31 109.699 79.2926 109.699 79.2926C109.751 78.8127 109.825 78.3474 109.851 77.8801C109.98 75.5782 109.011 73.7276 106.604 73.1654C106.527 73.1472 106.447 73.0921 106.393 73.0314C106.122 72.728 105.784 72.5446 105.398 72.4511C104.304 72.1867 103.252 72.3946 102.222 72.7692C102.127 72.804 101.997 72.9477 102.005 73.0286C102.034 73.3063 101.846 73.3579 101.667 73.4395C101.533 73.5002 101.4 73.5651 101.273 73.6383C101.165 73.7018 101.092 73.6906 100.976 73.6237C100.868 73.5602 100.669 73.533 100.572 73.5923C99.8119 74.0659 99.1474 74.6463 98.7673 75.4868C98.3622 76.3831 98.6431 77.1609 99.5102 77.6108C99.5733 77.6443 99.6642 77.7001 99.6711 77.7545C99.7363 78.27 99.7855 78.7869 99.8397 79.3031C99.2036 79.4691 98.8623 79.6937 98.65 80.1345H98.5418C98.3587 80.1345 98.2109 80.2838 98.2109 80.4673V82.4078C98.2109 82.5913 98.3594 82.7406 98.5418 82.7406H98.743C98.9948 83.2484 99.4068 83.5525 100.002 83.5309C100.113 83.5267 100.223 83.4981 100.352 83.4786C100.378 83.5483 100.407 83.6181 100.43 83.6899C100.51 83.9466 100.607 84.1894 100.72 84.4175C100.872 84.7272 101.053 85.0111 101.263 85.2699C101.683 85.7874 102.22 86.2039 102.872 86.5192C103.136 86.6461 103.19 86.9935 102.967 87.1839C102.736 87.3806 102.503 87.5759 102.259 87.7559C102.174 87.8194 102.059 87.8591 101.953 87.8731C100.377 88.0831 99.3763 89.218 99.3673 90.823C99.3624 91.7117 99.3825 92.6004 99.3603 93.4883C99.3465 94.0443 99.5448 94.4293 100.069 94.6274H108.688C109.238 94.4405 109.443 94.0387 109.413 93.4758C109.397 93.1675 109.41 92.857 109.41 92.5104C109.55 92.5745 109.648 92.6234 109.749 92.6652C110.348 92.9122 110.937 93.1919 111.55 93.3949C112.414 93.6809 112.776 93.5211 113.266 92.7454C113.299 92.6938 113.335 92.6436 113.358 92.5878C113.694 91.8065 114.03 91.0253 114.358 90.2399C114.411 90.1108 114.472 90.0522 114.615 89.9999C114.95 89.8771 115.263 89.6923 115.589 89.5409C115.717 89.4809 115.854 89.4084 115.99 89.4028C116.405 89.3847 116.82 89.3986 117.236 89.3951C117.914 89.3896 118.442 88.8699 118.439 88.2156C118.435 87.5704 117.919 87.0542 117.253 87.0437ZM109.423 80.3703C109.456 80.0983 109.66 80.0997 109.825 80.1862C109.966 80.2601 110.11 80.401 110.17 80.5468C110.432 81.1774 110.374 81.8059 110.055 82.4016C109.989 82.5257 109.845 82.6359 109.711 82.691C109.475 82.7873 109.333 82.6694 109.331 82.4162C109.33 82.1379 109.331 81.8596 109.331 81.5812C109.317 81.5798 109.303 81.5785 109.289 81.5771C109.333 81.1746 109.374 80.7721 109.423 80.3703ZM106.672 88.277C106.445 88.5323 106.228 88.7771 105.981 89.0533C105.763 88.7925 105.564 88.5546 105.343 88.2902C105.582 88.1144 105.807 87.947 106.045 87.7713C106.254 87.9394 106.454 88.1012 106.672 88.277ZM102.372 85.2699H104.271C104.404 85.2699 104.525 85.2155 104.613 85.1276C104.697 85.0418 104.75 84.926 104.754 84.7969C104.762 84.5214 104.524 84.2961 104.25 84.2961H101.547C101.323 83.9048 101.165 83.4576 101.101 82.9603C100.934 81.6573 100.865 80.3103 101.589 79.0952C101.638 79.0129 101.682 78.9278 101.733 78.8469C102.099 78.2665 102.233 78.2086 102.874 78.4332C104.182 78.8922 105.482 78.8636 106.78 78.3976C107.24 78.2323 107.41 78.2714 107.679 78.6843C108.159 79.4202 108.518 80.205 108.486 81.1174C108.479 81.335 108.485 81.5533 108.485 81.771C108.504 82.5062 108.487 83.2358 108.156 83.9159C107.548 85.1666 106.567 85.8851 105.193 86.0923C104.228 86.2374 103.173 85.9332 102.372 85.2699ZM103.046 88.1312C103.189 88.021 103.327 87.9045 103.467 87.7901C103.65 87.9219 103.832 88.0384 103.994 88.1793C104.042 88.2205 104.072 88.3593 104.041 88.4025C103.902 88.5964 103.738 88.7722 103.557 88.985C103.356 88.7604 103.192 88.572 103.023 88.3893C102.93 88.2895 102.941 88.2121 103.046 88.1312ZM104.065 93.8225C103.486 93.8078 102.906 93.8057 102.327 93.8232C102.071 93.8315 101.997 93.7443 102.009 93.496C102.026 93.1389 101.896 92.9575 101.649 92.9303C101.355 92.8982 101.171 93.0789 101.146 93.4235C101.118 93.8176 101.118 93.8176 100.72 93.8176C100.132 93.819 100.196 93.8538 100.195 93.277C100.193 92.4406 100.193 91.6036 100.195 90.7665C100.197 89.6735 100.911 88.8455 101.98 88.7108C102.062 88.7004 102.178 88.7611 102.24 88.8259C102.509 89.1091 102.763 89.4063 103.024 89.6979C103.407 90.1276 103.73 90.1248 104.104 89.6895C104.161 89.6239 104.219 89.5591 104.279 89.4963C104.289 89.4858 104.309 89.4858 104.343 89.4747C104.346 89.5465 104.353 89.6128 104.353 89.679C104.354 90.9604 104.349 92.2418 104.358 93.5232C104.36 93.7499 104.297 93.8287 104.065 93.8225ZM104.01 87.1267C103.968 87.0932 103.961 87.0116 103.938 86.9523C103.993 86.9391 104.047 86.914 104.102 86.9133C104.549 86.9098 104.995 86.9084 105.442 86.9119C105.496 86.9119 105.55 86.9398 105.604 86.9551C105.58 87.0144 105.572 87.0946 105.528 87.1288C105.284 87.3206 105.031 87.502 104.771 87.6938C104.508 87.4999 104.255 87.3192 104.01 87.1267ZM112.526 92.4741C112.411 92.7057 112.135 92.8061 111.899 92.7029L111.293 92.4399C111.245 92.4295 111.193 92.4099 111.135 92.382C111.062 92.3464 110.988 92.3109 110.915 92.2753C110.91 92.2732 110.905 92.2711 110.9 92.2683C110.424 92.0416 109.944 91.8247 109.468 91.598C109.097 91.4215 108.977 91.4306 108.698 91.6956V93.7164C108.698 93.7973 108.633 93.8629 108.553 93.8629H108.446C108.365 93.8629 108.3 93.7973 108.3 93.7164V93.3377C108.3 93.0984 108.107 92.9045 107.869 92.9045C107.632 92.9045 107.438 93.097 107.438 93.3349V93.3377C107.439 93.4151 107.439 93.4918 107.441 93.5692C107.445 93.7415 107.389 93.8231 107.203 93.8204C106.615 93.8127 106.026 93.8155 105.437 93.819C105.29 93.8204 105.211 93.7722 105.211 93.6111C105.214 92.269 105.215 90.9262 105.217 89.5842C105.217 89.5681 105.229 89.5521 105.253 89.4872C105.349 89.5932 105.422 89.6756 105.497 89.7579C105.805 90.0969 106.139 90.1031 106.456 89.7634C106.727 89.4712 106.991 89.1698 107.251 88.8671C107.362 88.7381 107.468 88.6871 107.652 88.7248C108.264 88.8497 108.815 89.1008 109.337 89.4405C109.903 89.8088 110.478 90.1631 111.059 90.507C111.416 90.7184 111.695 90.6375 111.924 90.288C112.053 90.092 112.19 89.8981 112.291 89.6874C112.398 89.4649 112.527 89.4126 112.733 89.5444C112.763 89.5632 112.794 89.5786 112.832 89.596L112.861 89.61L113.749 90.0194L112.526 92.4741ZM117.241 88.5951C117.224 88.5964 117.207 88.5958 117.189 88.5958H116.515C116.325 88.5964 116.135 88.5999 115.945 88.5958C115.619 88.5881 115.337 88.6955 115.09 88.9076C114.725 89.2201 114.336 89.3303 113.877 89.0917C113.587 88.941 113.272 88.8406 112.974 88.7053C112.858 88.653 112.672 88.5741 112.665 88.4939C112.649 88.3063 112.655 88.0412 112.769 87.9296C113.351 87.3632 113.718 86.6482 114.177 85.9981C114.316 85.8 114.511 85.7554 114.695 85.8642C114.865 85.9653 114.91 86.1795 114.793 86.3929C114.714 86.5373 114.61 86.6684 114.531 86.8121C114.258 87.306 114.558 87.834 115.12 87.8396C115.801 87.8466 116.485 87.8285 117.167 87.8522C117.313 87.8571 117.511 87.9561 117.587 88.0754C117.735 88.3063 117.538 88.572 117.241 88.5951Z" fill="white"/>
<path d="M124.991 71.7432C124.994 71.4439 124.995 71.144 124.986 70.8447C124.947 69.5208 124.048 68.3538 122.787 67.9813C122.624 67.9332 122.456 67.8948 122.291 67.8516H116.06C116.038 67.8641 116.016 67.885 115.993 67.8878C114.629 68.0525 113.307 69.3059 113.351 71.1279C113.383 72.4435 113.354 73.7605 113.362 75.0767C113.362 75.2497 113.311 75.3453 113.159 75.4213C112.81 75.5957 112.468 75.7812 112.129 75.9731C111.55 76.3023 111.545 76.9734 112.118 77.3082C112.38 77.4609 112.64 77.6249 112.92 77.733C113.285 77.8739 113.371 78.1069 113.367 78.4863C113.35 80.3795 114.681 81.7125 116.557 81.7146C118.296 81.7174 120.035 81.7167 121.775 81.7146C123.667 81.7132 124.988 80.3816 124.991 78.4738C124.992 77.1491 124.991 75.8238 124.991 74.4992V71.7432ZM124.207 78.6112C124.197 79.8996 123.212 80.9124 121.941 80.9235C120.09 80.9396 118.238 80.9368 116.387 80.9256C115.414 80.9201 114.532 80.2741 114.263 79.3394C114.154 78.9628 114.15 78.5498 114.143 78.1522C114.135 77.7141 113.971 77.4037 113.58 77.2049C113.244 77.0347 112.916 76.8471 112.541 76.6448C112.905 76.4467 113.224 76.2598 113.554 76.0972C113.967 75.8936 114.143 75.5741 114.14 75.113C114.13 73.7095 114.128 72.3061 114.141 70.9026C114.153 69.6784 115.14 68.6565 116.349 68.644C118.226 68.6244 120.104 68.6279 121.981 68.6454C123.073 68.6551 123.998 69.4685 124.161 70.5552C124.209 70.8761 124.205 71.204 124.206 71.5311V74.4992H124.214C124.209 75.8698 124.217 77.2405 124.207 78.6112Z" fill="white"/>
<path d="M124.215 74.4955H124.207V71.5274C124.206 71.2003 124.21 70.8724 124.162 70.5516C124 69.4648 123.074 68.6515 121.982 68.6417C120.105 68.6243 118.228 68.6208 116.351 68.6403C115.142 68.6529 114.154 69.6748 114.142 70.8989C114.129 72.3024 114.132 73.7059 114.141 75.1093C114.144 75.5704 113.968 75.8899 113.555 76.0936C113.225 76.2561 112.907 76.443 112.542 76.6411C112.917 76.8434 113.245 77.0311 113.582 77.2013C113.972 77.4001 114.136 77.7105 114.144 78.1485C114.151 78.5461 114.155 78.9591 114.264 79.3357C114.533 80.2705 115.416 80.9164 116.388 80.922C118.239 80.9331 120.091 80.9359 121.942 80.9199C123.214 80.9087 124.199 79.8959 124.208 78.6075C124.218 77.2368 124.21 75.8662 124.215 74.4955ZM119.264 78.8342C117.053 78.8272 115.263 77.0122 115.264 74.7787C115.264 72.5333 117.064 70.7225 119.292 70.7253C121.511 70.7287 123.325 72.5647 123.312 74.7933C123.298 77.0338 121.489 78.8405 119.264 78.8342Z" fill="white"/>
<path d="M124.994 74.5069V73.8463C125.003 74.0654 124.994 74.2865 124.994 74.5069Z" fill="white"/>
<path d="M119.282 71.5199C117.506 71.5115 116.055 72.9784 116.055 74.7802C116.055 76.5736 117.488 78.0356 119.254 78.044C121.053 78.0524 122.508 76.5952 122.508 74.7823C122.508 72.9805 121.072 71.5275 119.282 71.5199ZM120.606 73.3523C120.829 73.3523 121.001 73.54 121.001 73.782C121.001 74.0289 120.835 74.2068 120.604 74.2068C120.375 74.2061 120.209 74.0275 120.209 73.7813C120.21 73.5386 120.382 73.3523 120.606 73.3523ZM117.964 73.3523C118.188 73.353 118.357 73.5386 118.356 73.7841C118.356 74.0331 118.192 74.2075 117.96 74.2061C117.733 74.2054 117.563 74.022 117.563 73.7799C117.565 73.54 117.742 73.3516 117.964 73.3523ZM121.134 75.6968C120.703 76.3776 120.053 76.6315 119.281 76.6489C118.514 76.6308 117.857 76.3811 117.44 75.6905C117.368 75.5698 117.35 75.3612 117.401 75.2315C117.513 74.9448 117.923 74.926 118.066 75.2148C118.372 75.8293 119.336 76.003 119.948 75.703C120.146 75.6054 120.317 75.424 120.463 75.2496C120.645 75.0313 120.837 74.9532 121.039 75.0787C121.244 75.2064 121.288 75.4512 121.134 75.6968Z" fill="white"/>
<rect x="122.319" y="83.0335" width="17.8571" height="17.8571" rx="8.92856" fill="url(#paint3_linear_10576_503496)" stroke="white" stroke-width="1.78571"/>
<path fill-rule="evenodd" clip-rule="evenodd" d="M131.244 86.6055C130.751 86.6055 130.351 87.0052 130.351 87.4983V91.0698H126.78C126.286 91.0698 125.887 91.4695 125.887 91.9626C125.887 92.4557 126.286 92.8555 126.78 92.8555H130.351V96.4269C130.351 96.92 130.751 97.3198 131.244 97.3198C131.737 97.3198 132.137 96.92 132.137 96.4269V92.8555H135.708C136.201 92.8555 136.601 92.4557 136.601 91.9626C136.601 91.4695 136.201 91.0698 135.708 91.0698H132.137V87.4983C132.137 87.0052 131.737 86.6055 131.244 86.6055Z" fill="white"/>
<g filter="url(#filter0_d_10576_503496)">
<rect x="19.6406" y="14.2852" width="52.1236" height="52.1236" rx="26.0618" fill="url(#paint4_linear_10576_503496)"/>
</g>
<path fill-rule="evenodd" clip-rule="evenodd" d="M54.151 41.0067C54.151 46.4707 49.8315 50.9002 44.5032 50.9002C42.9599 50.9002 41.5012 50.5286 40.2076 49.8678C39.8638 49.6922 39.4709 49.6338 39.0999 49.7356L36.9523 50.3249C36.02 50.5807 35.167 49.706 35.4165 48.75L35.9911 46.5477C36.0904 46.1672 36.0334 45.7643 35.8622 45.4118C35.2179 44.0852 34.8555 42.5894 34.8555 41.0067C34.8555 35.5427 39.1749 31.1133 44.5032 31.1133C49.8315 31.1133 54.151 35.5427 54.151 41.0067ZM46.7135 39.0583H47.406L45.5522 44.2841H44.8596L46.7135 39.0583ZM38.9519 42.1107L38.3606 42.6274L38.3659 43.256H40.9282V42.6115H39.3301V42.5848L39.8788 42.116L39.964 42.0415C40.1594 41.8781 40.3192 41.7343 40.4435 41.61C40.5678 41.4821 40.6743 41.333 40.7631 41.1625C40.8519 40.9885 40.8963 40.7967 40.8963 40.5872C40.8963 40.3776 40.8466 40.1859 40.7471 40.0119C40.6512 39.8378 40.5074 39.7011 40.3156 39.6017C40.1274 39.4987 39.9001 39.4472 39.6338 39.4472C39.371 39.4472 39.1419 39.5022 38.9466 39.6123C38.7548 39.7189 38.6057 39.8716 38.4991 40.0705C38.3961 40.2693 38.3446 40.5019 38.3446 40.7683H39.0691V40.7044C39.0691 40.5552 39.1064 40.4149 39.181 40.2835C39.2591 40.1486 39.4136 40.0811 39.6444 40.0811C39.8326 40.0811 39.9729 40.1344 40.0653 40.2409C40.1576 40.3475 40.2038 40.4771 40.2038 40.6298C40.2038 40.7718 40.1611 40.9121 40.0759 41.0506C39.9907 41.1856 39.8824 41.3134 39.751 41.4342C39.6196 41.5549 39.4367 41.7112 39.2023 41.903L38.9519 42.1107ZM41.5076 42.3664L43.1536 42.3717V43.256H43.8781V42.3717H44.3415V41.8071H43.8781V39.5271H42.9512L41.5076 41.8071V42.3664ZM43.1589 40.3954V41.7964H42.248L43.1589 40.3954ZM49.7055 40.2356L48.2725 43.1921V43.256H49.0502L50.4033 40.2782V39.5271H47.8676V40.1983H49.7055V40.2356Z" fill="white"/>
<path d="M32.8167 44.3337C32.8167 45.4033 32.8175 46.4728 32.8158 47.5424C32.8149 48.1235 32.6385 48.308 32.0848 48.3089C31.4234 48.3107 30.762 48.3143 30.1005 48.308C29.094 48.2982 28.3839 47.5691 28.3796 46.5334C28.3735 45.0521 28.3735 43.5699 28.3796 42.0885C28.3839 41.0778 29.0523 40.3594 30.0414 40.3255C30.7567 40.3015 31.4729 40.3122 32.1883 40.322C32.6263 40.3282 32.8054 40.5323 32.8158 40.9913C32.8167 41.0136 32.8158 41.0359 32.8158 41.0582C32.8167 42.15 32.8167 43.2419 32.8167 44.3337Z" fill="white"/>
<path d="M56.2706 44.2454C56.2706 43.1652 56.2689 42.084 56.2715 41.0038C56.2724 40.461 56.4488 40.2738 56.9686 40.2702C57.63 40.2649 58.2914 40.2613 58.9529 40.2711C60.0306 40.2872 60.7069 40.9984 60.7086 42.1108C60.7112 43.5475 60.7112 44.9852 60.7086 46.422C60.706 47.5415 60.008 48.2554 58.9155 48.259C58.2541 48.2616 57.5926 48.2625 56.9312 48.2581C56.474 48.2554 56.2741 48.0548 56.2724 47.5878C56.268 46.4737 56.2706 45.3596 56.2706 44.2454Z" fill="white"/>
<path d="M57.934 49.0908C58.2981 49.0908 58.6415 49.0908 59.0587 49.0908C58.97 49.5667 58.9144 50.0258 58.797 50.4678C57.9713 53.5954 55.2378 55.8121 52.0836 55.9074C51.1527 55.936 50.2201 55.9164 49.2884 55.9173C49.2258 55.9173 49.1632 55.903 49.0832 55.8923C49.0832 55.5295 49.0832 55.1784 49.0832 54.7924C49.2023 54.7871 49.3179 54.7773 49.4326 54.7773C50.2775 54.7746 51.1232 54.7889 51.968 54.7702C55.0388 54.7024 57.5463 52.3538 57.9088 49.2209C57.9131 49.1888 57.9218 49.1567 57.934 49.0908Z" fill="white"/>
<path d="M45.9707 54.2184C46.4253 54.2175 46.8799 54.2131 47.3345 54.2193C47.7499 54.2247 47.9464 54.4288 47.9533 54.8566C47.9585 55.19 47.9585 55.5242 47.9533 55.8575C47.9464 56.2613 47.743 56.4904 47.3605 56.4939C46.441 56.5019 45.5205 56.5082 44.6009 56.4913C43.9812 56.4806 43.5197 55.9725 43.5214 55.3504C43.5232 54.7238 43.9847 54.2354 44.6079 54.2211C45.0616 54.2095 45.5162 54.2184 45.9707 54.2184Z" fill="white"/>
<path d="M59.0431 39.6056C59.0431 37.686 58.665 35.7853 57.9305 34.0118C57.196 32.2383 56.1193 30.6269 54.7621 29.2696C53.4048 27.9123 51.7935 26.8355 50.0202 26.101C48.2469 25.3664 46.3462 24.9883 44.4268 24.9883C42.5074 24.9883 40.6067 25.3664 38.8334 26.101C37.0601 26.8356 35.4488 27.9123 34.0915 29.2696C32.7343 30.6269 31.6577 32.2384 30.9231 34.0118C30.1886 35.7853 29.8105 37.686 29.8105 39.6056H31.1665C31.1665 37.8641 31.5095 36.1397 32.1759 34.5308C32.8423 32.9218 33.8191 31.4599 35.0504 30.2285C36.2817 28.9971 37.7435 28.0203 39.3523 27.3538C40.9611 26.6874 42.6854 26.3444 44.4268 26.3444C46.1682 26.3444 47.8925 26.6874 49.5013 27.3538C51.1101 28.0203 52.5719 28.9971 53.8032 30.2285C55.0346 31.4599 56.0113 32.9218 56.6777 34.5308C57.3441 36.1397 57.6871 37.8641 57.6871 39.6056H59.0431Z" fill="white"/>
<path d="M143.938 135.91H75.6065C74.6847 135.91 73.9375 136.572 73.9375 137.388V143.12C73.9375 143.936 74.6847 144.597 75.6065 144.597H143.938C144.86 144.597 145.607 143.936 145.607 143.12V137.388C145.607 136.572 144.86 135.91 143.938 135.91Z" fill="white"/>
<path d="M120.659 118.527H81.3164C80.7857 118.527 80.3555 119.52 80.3555 120.744V129.342C80.3555 130.566 80.7857 131.558 81.3164 131.558H120.659C121.19 131.558 121.62 130.566 121.62 129.342V120.744C121.62 119.52 121.19 118.527 120.659 118.527Z" fill="white"/>
<path d="M142.934 118.527H126.369C126.146 118.527 125.964 119.52 125.964 120.744V129.342C125.964 130.566 126.146 131.558 126.369 131.558H142.934C143.158 131.558 143.339 130.566 143.339 129.342V120.744C143.339 119.52 143.158 118.527 142.934 118.527Z" fill="white"/>
<path d="M42.3926 70.7578C42.3926 70.1893 41.9317 69.7285 41.3633 69.7285C40.7948 69.7285 40.334 70.1893 40.334 70.7578H42.3926ZM60.9096 98.9914L50.6167 93.0488V104.934L60.9096 98.9914ZM40.334 70.7578V92.476H42.3926V70.7578H40.334ZM47.8787 100.021H51.646V97.9621H47.8787V100.021ZM40.334 92.476C40.334 96.6428 43.7119 100.021 47.8787 100.021V97.9621C44.8488 97.9621 42.3926 95.5059 42.3926 92.476H40.334Z" fill="#EEF2FC"/>
<path d="M152.123 127.228C135.329 127.228 121.716 140.843 121.716 157.634C121.716 170.246 129.395 181.06 140.324 185.665C143.955 187.195 147.943 188.039 152.123 188.039C168.915 188.039 182.527 174.426 182.527 157.634C182.527 148.364 178.377 140.062 171.839 134.488C166.531 129.961 159.643 127.228 152.123 127.228Z" fill="url(#paint5_linear_10576_503496)" stroke="white" stroke-width="4.34363"/>
<path d="M155.711 157.654C158.913 154.435 161.814 151.516 162.848 150.467C163.938 149.364 163.932 147.691 162.872 146.638C161.902 145.677 160.184 145.586 159.11 146.731C157.919 148.001 156.662 149.208 155.434 150.443L151.983 153.911C148.777 150.689 145.868 147.769 144.824 146.727C143.725 145.631 142.061 145.636 141.014 146.701C140.056 147.677 139.966 149.403 141.106 150.482C142.37 151.679 143.572 152.942 144.799 154.177L148.257 157.652C144.999 160.927 141.746 164.196 141.13 164.82C140.95 165.001 140.765 165.193 140.635 165.414C139.993 166.517 140.249 168.029 141.178 168.746C142.364 169.658 143.785 169.612 144.824 168.576C145.868 167.535 148.776 164.617 151.982 161.398C155.237 164.67 158.485 167.933 159.104 168.551C159.288 168.732 159.477 168.919 159.697 169.048C160.794 169.693 162.299 169.439 163.012 168.502C163.92 167.312 163.872 165.884 162.842 164.839C161.808 163.791 158.909 160.873 155.708 157.654H155.711Z" fill="white"/>
<defs>
<filter id="filter0_d_10576_503496" x="16.3024" y="13.1724" width="63.2524" height="63.2524" filterUnits="userSpaceOnUse" color-interpolation-filters="sRGB">
<feFlood flood-opacity="0" result="BackgroundImageFix"/>
<feColorMatrix in="SourceAlpha" type="matrix" values="0 0 0 0 0 0 0 0 0 0 0 0 0 0 0 0 0 0 127 0" result="hardAlpha"/>
<feOffset dx="2.22549" dy="4.45097"/>
<feGaussianBlur stdDeviation="2.78186"/>
<feComposite in2="hardAlpha" operator="out"/>
<feColorMatrix type="matrix" values="0 0 0 0 0 0 0 0 0 0.175 0 0 0 0 0.4375 0 0 0 0.07 0"/>
<feBlend mode="normal" in2="BackgroundImageFix" result="effect1_dropShadow_10576_503496"/>
<feBlend mode="normal" in="SourceGraphic" in2="effect1_dropShadow_10576_503496" result="shape"/>
</filter>
<linearGradient id="paint0_linear_10576_503496" x1="35.9304" y1="-5.26436" x2="173.624" y2="143.776" gradientUnits="userSpaceOnUse">
<stop stop-color="white"/>
<stop offset="1" stop-color="#E2F1FA"/>
</linearGradient>
<linearGradient id="paint1_linear_10576_503496" x1="35.9304" y1="-5.26436" x2="173.624" y2="143.776" gradientUnits="userSpaceOnUse">
<stop stop-color="white"/>
<stop offset="1" stop-color="#E2F1FA"/>
</linearGradient>
<linearGradient id="paint2_linear_10576_503496" x1="118.039" y1="92.7992" x2="144.747" y2="92.7992" gradientUnits="userSpaceOnUse">
<stop stop-color="#05E0E0"/>
<stop offset="1" stop-color="#02C8C8"/>
</linearGradient>
<linearGradient id="paint3_linear_10576_503496" x1="118.041" y1="91.0209" x2="144.749" y2="91.0209" gradientUnits="userSpaceOnUse">
<stop stop-color="#05E0E0"/>
<stop offset="1" stop-color="#02C8C8"/>
</linearGradient>
<linearGradient id="paint4_linear_10576_503496" x1="19.6396" y1="40.3484" x2="71.7618" y2="40.3484" gradientUnits="userSpaceOnUse">
<stop stop-color="#05E0E0"/>
<stop offset="1" stop-color="#02C8C8"/>
</linearGradient>
<linearGradient id="paint5_linear_10576_503496" x1="154.774" y1="194.638" x2="134.113" y2="122.984" gradientUnits="userSpaceOnUse">
<stop stop-color="#FF4B4B"/>
<stop offset="1" stop-color="#FFB6B6"/>
</linearGradient>
</defs>
</svg>
