<svg width="200" height="200" viewBox="0 0 200 200" fill="none" xmlns="http://www.w3.org/2000/svg">
<path d="M150.47 42.9141H64.1328C62.614 42.9141 61.3828 44.4251 61.3828 46.2891V152.248C61.3828 154.112 62.614 155.623 64.1328 155.623H150.47C151.988 155.623 153.22 154.112 153.22 152.248V46.2891C153.22 44.4251 151.988 42.9141 150.47 42.9141Z" fill="url(#paint0_linear_10781_296005)"/>
<path d="M150.47 42.9141H64.1328C62.614 42.9141 61.3828 44.4251 61.3828 46.2891V152.248C61.3828 154.112 62.614 155.623 64.1328 155.623H150.47C151.988 155.623 153.22 154.112 153.22 152.248V46.2891C153.22 44.4251 151.988 42.9141 150.47 42.9141Z" fill="url(#paint1_linear_10781_296005)" stroke="#E1EDF8" stroke-width="5.35714"/>
<path fill-rule="evenodd" clip-rule="evenodd" d="M132.072 85.7488C132.119 85.1716 132.142 84.588 132.142 83.9989C132.142 72.1642 122.548 62.5703 110.714 62.5703C98.8791 62.5703 89.2852 72.1642 89.2852 83.9989C89.2852 95.8336 98.8791 105.427 110.714 105.427C115.425 105.427 119.781 103.907 123.318 101.33C125.105 103.772 127.992 105.358 131.249 105.358C136.674 105.358 141.071 100.96 141.071 95.5363C141.071 90.389 137.111 86.1666 132.072 85.7488Z" fill="url(#paint2_linear_10781_296005)"/>
<path d="M117.257 90.6218C116.703 90.6142 116.149 90.6204 115.595 90.619C115.524 90.619 115.452 90.6086 115.366 90.6023C115.435 90.4698 115.497 90.3665 115.547 90.257C115.799 89.6857 115.609 89.0349 115.11 88.7489C114.551 88.4295 113.897 88.5773 113.527 89.1096C113.443 89.2309 113.368 89.3586 113.283 89.4786C112.975 89.909 112.702 90.3714 112.347 90.7572C112.032 91.1011 111.811 91.4652 111.863 91.9179C111.929 92.492 111.56 92.8435 111.315 93.2913C110.815 92.9781 110.327 92.6956 109.864 92.3769C109.166 91.8969 108.414 91.5747 107.576 91.4505C107.472 91.4352 107.36 91.3891 107.275 91.3257C107.038 91.1499 106.812 90.9601 106.586 90.7704C106.349 90.5709 106.401 90.2249 106.679 90.0896C107.886 89.5002 108.698 88.5648 109.109 87.2764C109.132 87.2039 109.159 87.1327 109.184 87.0651C110.191 87.1697 110.732 86.8014 111.011 85.8206C111.146 85.3456 111.177 84.8615 111.093 84.3718C110.943 83.4936 110.568 83.0891 109.722 82.891C109.711 82.8882 109.703 82.8707 109.703 82.8707C109.755 82.3908 109.829 81.9256 109.855 81.4582C109.984 79.1563 109.014 77.3057 106.608 76.7435C106.53 76.7254 106.451 76.6703 106.397 76.6096C106.126 76.3061 105.788 76.1227 105.402 76.0292C104.308 75.7648 103.256 75.9727 102.226 76.3473C102.131 76.3822 102.001 76.5259 102.009 76.6068C102.038 76.8844 101.85 76.936 101.671 77.0176C101.537 77.0783 101.404 77.1432 101.277 77.2164C101.169 77.2799 101.096 77.2687 100.98 77.2018C100.872 77.1383 100.672 77.1111 100.576 77.1704C99.8158 77.644 99.1513 78.2244 98.7712 79.0649C98.3661 79.9613 98.647 80.739 99.5141 81.1889C99.5772 81.2224 99.6681 81.2782 99.675 81.3326C99.7402 81.8481 99.7895 82.365 99.8436 82.8812C99.2075 83.0472 98.8662 83.2718 98.6539 83.7127H98.5457C98.3626 83.7127 98.2148 83.8619 98.2148 84.0454V85.986C98.2148 86.1694 98.3633 86.3187 98.5457 86.3187H98.7469C98.9987 86.8265 99.4107 87.1306 100.006 87.109C100.117 87.1048 100.227 87.0762 100.356 87.0567C100.382 87.1264 100.411 87.1962 100.434 87.268C100.514 87.5247 100.611 87.7675 100.724 87.9956C100.876 88.3053 101.057 88.5892 101.267 88.848C101.687 89.3656 102.224 89.782 102.876 90.0973C103.14 90.2242 103.194 90.5716 102.971 90.762C102.74 90.9588 102.507 91.1541 102.263 91.334C102.178 91.3975 102.063 91.4373 101.956 91.4512C100.38 91.6612 99.3802 92.7961 99.3712 94.4011C99.3663 95.2898 99.3864 96.1785 99.3642 97.0665C99.3504 97.6224 99.5488 98.0074 100.072 98.2055H108.692C109.242 98.0186 109.447 97.6168 109.417 97.0539C109.401 96.7456 109.414 96.4352 109.414 96.0885C109.553 96.1527 109.652 96.2015 109.753 96.2434C110.352 96.4903 110.941 96.77 111.554 96.973C112.418 97.259 112.78 97.0992 113.27 96.3236C113.303 96.2719 113.339 96.2217 113.362 96.1659C113.698 95.3847 114.034 94.6034 114.362 93.818C114.415 93.6889 114.476 93.6303 114.619 93.578C114.954 93.4553 115.267 93.2704 115.592 93.119C115.721 93.0591 115.858 92.9865 115.994 92.9809C116.409 92.9628 116.824 92.9767 117.24 92.9733C117.918 92.9677 118.446 92.448 118.443 91.7937C118.439 91.1485 117.922 90.6323 117.257 90.6218ZM109.426 83.9484C109.46 83.6764 109.664 83.6778 109.829 83.7643C109.97 83.8382 110.114 83.9791 110.174 84.1249C110.436 84.7555 110.377 85.384 110.059 85.9797C109.993 86.1038 109.849 86.2141 109.715 86.2692C109.479 86.3654 109.337 86.2475 109.335 85.9943C109.334 85.716 109.335 85.4377 109.335 85.1594C109.321 85.158 109.307 85.1566 109.293 85.1552C109.337 84.7527 109.378 84.3502 109.426 83.9484ZM106.676 91.8551C106.449 92.1104 106.231 92.3552 105.985 92.6315C105.767 92.3706 105.568 92.1327 105.347 91.8684C105.586 91.6926 105.811 91.5252 106.049 91.3494C106.258 91.5175 106.458 91.6793 106.676 91.8551ZM102.375 88.848H104.275C104.408 88.848 104.529 88.7936 104.617 88.7057C104.701 88.6199 104.754 88.5041 104.758 88.375C104.766 88.0995 104.528 87.8742 104.254 87.8742H101.551C101.327 87.4829 101.169 87.0358 101.105 86.5384C100.937 85.2354 100.869 83.8884 101.593 82.6733C101.642 82.591 101.686 82.5059 101.737 82.425C102.103 81.8446 102.237 81.7867 102.878 82.0113C104.186 82.4703 105.486 82.4417 106.784 81.9758C107.244 81.8105 107.414 81.8495 107.683 82.2625C108.163 82.9984 108.522 83.7831 108.49 84.6955C108.483 84.9131 108.489 85.1315 108.489 85.3491C108.508 86.0843 108.491 86.8139 108.16 87.494C107.552 88.7447 106.571 89.4632 105.197 89.6704C104.232 89.8155 103.177 89.5113 102.375 88.848ZM103.05 91.7093C103.193 91.5991 103.331 91.4826 103.471 91.3682C103.654 91.5 103.836 91.6165 103.998 91.7574C104.046 91.7986 104.076 91.9374 104.045 91.9807C103.906 92.1746 103.742 92.3504 103.561 92.5631C103.36 92.3385 103.196 92.1502 103.027 91.9674C102.934 91.8677 102.945 91.7902 103.05 91.7093ZM104.069 97.4006C103.49 97.3859 102.91 97.3838 102.331 97.4013C102.075 97.4096 102.001 97.3225 102.013 97.0741C102.03 96.717 101.9 96.5356 101.653 96.5084C101.359 96.4763 101.175 96.657 101.15 97.0016C101.122 97.3957 101.122 97.3957 100.724 97.3957C100.136 97.3971 100.199 97.432 100.199 96.8551C100.197 96.0187 100.197 95.1817 100.199 94.3446C100.201 93.2516 100.915 92.4236 101.984 92.289C102.066 92.2785 102.182 92.3392 102.244 92.4041C102.513 92.6873 102.767 92.9844 103.027 93.276C103.411 93.7057 103.734 93.7029 104.108 93.2676C104.165 93.2021 104.223 93.1372 104.283 93.0744C104.293 93.0639 104.313 93.0639 104.347 93.0528C104.35 93.1246 104.357 93.1909 104.357 93.2572C104.358 94.5386 104.353 95.8199 104.362 97.1013C104.364 97.328 104.301 97.4069 104.069 97.4006ZM104.014 90.7048C103.972 90.6714 103.965 90.5898 103.942 90.5305C103.997 90.5172 104.051 90.4921 104.106 90.4914C104.553 90.4879 104.999 90.4865 105.446 90.49C105.5 90.49 105.554 90.5179 105.608 90.5333C105.584 90.5925 105.576 90.6728 105.532 90.7069C105.288 90.8988 105.035 91.0801 104.775 91.272C104.512 91.078 104.259 90.8974 104.014 90.7048ZM112.53 96.0522C112.415 96.2838 112.139 96.3843 111.903 96.281L111.297 96.018C111.249 96.0076 111.197 95.988 111.139 95.9601C111.066 95.9246 110.992 95.889 110.919 95.8534C110.914 95.8513 110.909 95.8492 110.904 95.8464C110.428 95.6197 109.947 95.4028 109.472 95.1761C109.101 94.9996 108.981 95.0087 108.702 95.2738V97.2945C108.702 97.3755 108.637 97.441 108.557 97.441H108.45C108.369 97.441 108.304 97.3755 108.304 97.2945V96.9158C108.304 96.6765 108.111 96.4826 107.873 96.4826C107.635 96.4826 107.442 96.6751 107.442 96.913V96.9158C107.443 96.9932 107.443 97.0699 107.445 97.1474C107.449 97.3197 107.393 97.4013 107.207 97.3985C106.619 97.3908 106.03 97.3936 105.441 97.3971C105.294 97.3985 105.215 97.3504 105.215 97.1892C105.218 95.8471 105.219 94.5044 105.221 93.1623C105.221 93.1463 105.233 93.1302 105.257 93.0653C105.353 93.1714 105.426 93.2537 105.501 93.336C105.809 93.675 106.143 93.6813 106.46 93.3416C106.731 93.0493 106.995 92.748 107.255 92.4452C107.366 92.3162 107.472 92.2653 107.656 92.3029C108.268 92.4278 108.819 92.6789 109.34 93.0186C109.906 93.3869 110.482 93.7413 111.063 94.0851C111.42 94.2965 111.699 94.2156 111.928 93.8661C112.057 93.6701 112.193 93.4762 112.295 93.2655C112.402 93.043 112.531 92.9907 112.737 93.1225C112.767 93.1414 112.798 93.1567 112.836 93.1742L112.865 93.1881L113.753 93.5976L112.53 96.0522ZM117.245 92.1732C117.228 92.1746 117.211 92.1739 117.193 92.1739H116.519C116.329 92.1746 116.139 92.1781 115.949 92.1739C115.623 92.1662 115.341 92.2736 115.094 92.4857C114.729 92.7982 114.34 92.9084 113.881 92.6698C113.591 92.5192 113.276 92.4187 112.978 92.2834C112.862 92.2311 112.676 92.1523 112.669 92.072C112.653 91.8844 112.659 91.6193 112.773 91.5077C113.355 90.9413 113.722 90.2263 114.181 89.5762C114.32 89.3781 114.515 89.3335 114.699 89.4423C114.869 89.5434 114.914 89.7576 114.797 89.971C114.718 90.1154 114.614 90.2466 114.535 90.3903C114.262 90.8841 114.562 91.4122 115.124 91.4177C115.805 91.4247 116.489 91.4066 117.171 91.4303C117.317 91.4352 117.515 91.5342 117.591 91.6535C117.739 91.8844 117.542 92.1502 117.245 92.1732Z" fill="white"/>
<path d="M124.995 75.3213C124.998 75.022 124.999 74.7221 124.99 74.4229C124.951 73.0989 124.052 71.9319 122.791 71.5594C122.627 71.5113 122.46 71.4729 122.295 71.4297H116.064C116.042 71.4422 116.02 71.4632 115.997 71.466C114.633 71.6306 113.311 72.8841 113.355 74.7061C113.387 76.0216 113.358 77.3386 113.366 78.6549C113.366 78.8278 113.315 78.9234 113.162 78.9994C112.814 79.1738 112.472 79.3594 112.133 79.5512C111.554 79.8804 111.549 80.5515 112.122 80.8863C112.383 81.0391 112.644 81.203 112.924 81.3111C113.289 81.452 113.375 81.685 113.371 82.0645C113.354 83.9576 114.685 85.2906 116.561 85.2927C118.3 85.2955 120.039 85.2948 121.779 85.2927C123.671 85.2913 124.992 83.9597 124.995 82.0519C124.996 80.7273 124.995 79.4019 124.995 78.0773V75.3213ZM124.211 82.1893C124.201 83.4777 123.216 84.4905 121.945 84.5017C120.093 84.5177 118.242 84.5149 116.391 84.5038C115.418 84.4982 114.536 83.8523 114.267 82.9175C114.158 82.5409 114.154 82.1279 114.147 81.7303C114.139 81.2923 113.975 80.9819 113.584 80.7831C113.248 80.6129 112.92 80.4252 112.545 80.2229C112.909 80.0248 113.228 79.8379 113.558 79.6754C113.971 79.4717 114.147 79.1522 114.144 78.6911C114.134 77.2877 114.131 75.8842 114.145 74.4807C114.156 73.2566 115.144 72.2347 116.353 72.2221C118.23 72.2026 120.108 72.2061 121.985 72.2235C123.077 72.2333 124.002 73.0466 124.165 74.1334C124.212 74.4542 124.209 74.7821 124.21 75.1092V78.0773H124.218C124.212 79.448 124.221 80.8186 124.211 82.1893Z" fill="white"/>
<path d="M124.219 78.0736H124.211V75.1056C124.21 74.7784 124.214 74.4506 124.166 74.1297C124.004 73.0429 123.078 72.2296 121.986 72.2198C120.109 72.2024 118.232 72.1989 116.355 72.2184C115.145 72.231 114.158 73.2529 114.146 74.4771C114.133 75.8805 114.135 77.284 114.145 78.6874C114.148 79.1485 113.972 79.468 113.559 79.6717C113.229 79.8342 112.91 80.0212 112.546 80.2193C112.921 80.4215 113.249 80.6092 113.585 80.7794C113.976 80.9782 114.14 81.2886 114.148 81.7266C114.155 82.1243 114.159 82.5372 114.268 82.9139C114.537 83.8486 115.419 84.4945 116.392 84.5001C118.243 84.5112 120.095 84.514 121.946 84.498C123.218 84.4868 124.203 83.474 124.212 82.1856C124.222 80.815 124.214 79.4443 124.219 78.0736ZM119.268 82.4123C117.057 82.4054 115.267 80.5904 115.268 78.3568C115.268 76.1114 117.068 74.3006 119.296 74.3034C121.515 74.3069 123.329 76.1428 123.316 78.3715C123.302 80.612 121.492 82.4186 119.268 82.4123Z" fill="white"/>
<path d="M124.997 78.085V77.4245C125.006 77.6435 124.997 77.8646 124.997 78.085Z" fill="white"/>
<path d="M119.286 75.098C117.51 75.0896 116.058 76.5566 116.059 78.3583C116.059 80.1517 117.492 81.6138 119.258 81.6221C121.057 81.6305 122.512 80.1733 122.512 78.3604C122.512 76.5586 121.076 75.1057 119.286 75.098ZM120.61 76.9304C120.833 76.9304 121.005 77.1181 121.005 77.3601C121.005 77.6071 120.838 77.7849 120.608 77.7849C120.379 77.7842 120.213 77.6057 120.213 77.3594C120.213 77.1167 120.386 76.9304 120.61 76.9304ZM117.968 76.9304C118.192 76.9311 118.361 77.1167 118.36 77.3622C118.36 77.6112 118.196 77.7856 117.964 77.7842C117.736 77.7835 117.566 77.6001 117.567 77.358C117.569 77.1181 117.745 76.9297 117.968 76.9304ZM121.137 79.2749C120.707 79.9557 120.057 80.2096 119.285 80.227C118.517 80.2089 117.861 79.9592 117.444 79.2686C117.372 79.1479 117.354 78.9394 117.405 78.8096C117.517 78.5229 117.927 78.5041 118.07 78.7929C118.376 79.4074 119.339 79.5811 119.952 79.2812C120.15 79.1835 120.321 79.0021 120.467 78.8278C120.649 78.6094 120.841 78.5313 121.042 78.6569C121.248 78.7845 121.292 79.0293 121.137 79.2749Z" fill="white"/>
<rect x="122.323" y="86.6077" width="17.8571" height="17.8571" rx="8.92856" fill="url(#paint3_linear_10781_296005)" stroke="white" stroke-width="1.78571"/>
<path fill-rule="evenodd" clip-rule="evenodd" d="M131.248 90.1758C130.755 90.1758 130.355 90.5755 130.355 91.0686V94.6401H126.783C126.29 94.6401 125.891 95.0398 125.891 95.5329C125.891 96.026 126.29 96.4258 126.783 96.4258H130.355V99.9972C130.355 100.49 130.755 100.89 131.248 100.89C131.741 100.89 132.141 100.49 132.141 99.9972V96.4258H135.712C136.205 96.4258 136.605 96.026 136.605 95.5329C136.605 95.0398 136.205 94.6401 135.712 94.6401H132.141V91.0686C132.141 90.5755 131.741 90.1758 131.248 90.1758Z" fill="white"/>
<path d="M117.304 118.051H79.4938C78.9838 118.051 78.5703 119.004 78.5703 120.181V128.444C78.5703 129.62 78.9838 130.574 79.4938 130.574H117.304C117.814 130.574 118.227 129.62 118.227 128.444V120.181C118.227 119.004 117.814 118.051 117.304 118.051Z" fill="white"/>
<path d="M138.71 118.051H122.79C122.576 118.051 122.401 119.004 122.401 120.181V128.444C122.401 129.62 122.576 130.574 122.79 130.574H138.71C138.925 130.574 139.099 129.62 139.099 128.444V120.181C139.099 119.004 138.925 118.051 138.71 118.051Z" fill="white"/>
<g filter="url(#filter0_d_10781_296005)">
<rect x="19.6445" y="17.8555" width="50.0928" height="50.0928" rx="25.0464" fill="url(#paint4_linear_10781_296005)"/>
</g>
<path fill-rule="evenodd" clip-rule="evenodd" d="M54.1549 44.5692C54.1549 50.0332 49.8354 54.4627 44.5071 54.4627C42.9638 54.4627 41.5051 54.0911 40.2115 53.4303C39.8677 53.2547 39.4748 53.1963 39.1038 53.2981L36.9562 53.8874C36.0239 54.1432 35.171 53.2685 35.4204 52.3125L35.995 50.1102C36.0943 49.7297 36.0373 49.3268 35.8661 48.9743C35.2218 47.6477 34.8594 46.1519 34.8594 44.5692C34.8594 39.1052 39.1788 34.6758 44.5071 34.6758C49.8354 34.6758 54.1549 39.1052 54.1549 44.5692ZM46.7174 42.6208H47.4099L45.5561 47.8466H44.8636L46.7174 42.6208ZM38.9558 45.6732L38.3645 46.1899L38.3698 46.8185H40.9322V46.174H39.334V46.1473L39.8827 45.6785L39.968 45.604C40.1633 45.4406 40.3231 45.2968 40.4474 45.1725C40.5717 45.0446 40.6782 44.8955 40.767 44.725C40.8558 44.551 40.9002 44.3592 40.9002 44.1497C40.9002 43.9401 40.8505 43.7484 40.751 43.5744C40.6551 43.4003 40.5113 43.2636 40.3195 43.1642C40.1313 43.0612 39.904 43.0097 39.6377 43.0097C39.3749 43.0097 39.1458 43.0647 38.9505 43.1748C38.7587 43.2814 38.6096 43.4341 38.503 43.633C38.4 43.8318 38.3485 44.0644 38.3485 44.3308H39.073V44.2669C39.073 44.1177 39.1103 43.9774 39.1849 43.846C39.263 43.7111 39.4175 43.6436 39.6483 43.6436C39.8366 43.6436 39.9768 43.6969 40.0692 43.8034C40.1615 43.91 40.2077 44.0396 40.2077 44.1923C40.2077 44.3343 40.1651 44.4746 40.0798 44.6131C39.9946 44.7481 39.8863 44.8759 39.7549 44.9967C39.6235 45.1174 39.4406 45.2737 39.2062 45.4655L38.9558 45.6732ZM41.5115 45.9289L43.1575 45.9342V46.8185H43.882V45.9342H44.3455V45.3696H43.882V43.0896H42.9551L41.5115 45.3696V45.9289ZM43.1629 43.9579V45.3589H42.2519L43.1629 43.9579ZM49.7094 43.7981L48.2764 46.7546V46.8185H49.0541L50.4072 43.8407V43.0896H47.8715V43.7608H49.7094V43.7981Z" fill="white"/>
<path d="M32.8206 47.9001C32.8206 48.9697 32.8214 50.0392 32.8197 51.1088C32.8188 51.6899 32.6424 51.8744 32.0887 51.8753C31.4273 51.8771 30.7659 51.8807 30.1044 51.8744C29.0979 51.8646 28.3878 51.1355 28.3835 50.0999C28.3774 48.6185 28.3774 47.1363 28.3835 45.6549C28.3878 44.6442 29.0562 43.9258 30.0453 43.8919C30.7606 43.8679 31.4768 43.8786 32.1922 43.8884C32.6302 43.8946 32.8093 44.0987 32.8197 44.5577C32.8206 44.58 32.8197 44.6023 32.8197 44.6246C32.8206 45.7164 32.8206 46.8083 32.8206 47.9001Z" fill="white"/>
<path d="M56.2745 47.8118C56.2745 46.7316 56.2728 45.6504 56.2754 44.5702C56.2763 44.0274 56.4527 43.8402 56.9725 43.8366C57.6339 43.8313 58.2953 43.8277 58.9568 43.8375C60.0345 43.8536 60.7108 44.5648 60.7125 45.6772C60.7151 47.1139 60.7151 48.5516 60.7125 49.9884C60.7099 51.1079 60.0119 51.8218 58.9194 51.8254C58.258 51.828 57.5965 51.8289 56.9351 51.8245C56.4779 51.8218 56.278 51.6213 56.2763 51.1542C56.2719 50.0401 56.2745 48.926 56.2745 47.8118Z" fill="white"/>
<path d="M57.9379 52.6572C58.302 52.6572 58.6454 52.6572 59.0626 52.6572C58.9739 53.1331 58.9183 53.5922 58.801 54.0342C57.9752 57.1618 55.2417 59.3785 52.0875 59.4739C51.1566 59.5024 50.224 59.4828 49.2923 59.4837C49.2297 59.4837 49.1671 59.4694 49.0871 59.4587C49.0871 59.0959 49.0871 58.7448 49.0871 58.3588C49.2062 58.3535 49.3218 58.3437 49.4365 58.3437C50.2814 58.341 51.1271 58.3553 51.9719 58.3366C55.0427 58.2688 57.5502 55.9202 57.9127 52.7873C57.917 52.7552 57.9257 52.7231 57.9379 52.6572Z" fill="white"/>
<path d="M45.9746 57.7848C46.4292 57.784 46.8838 57.7795 47.3384 57.7857C47.7538 57.7911 47.9503 57.9952 47.9572 58.423C47.9624 58.7564 47.9624 59.0906 47.9572 59.4239C47.9503 59.8277 47.7469 60.0568 47.3644 60.0603C46.4449 60.0684 45.5244 60.0746 44.6048 60.0577C43.9851 60.047 43.5236 59.5389 43.5253 58.9168C43.5271 58.2902 43.9886 57.8018 44.6118 57.7875C45.0655 57.7759 45.5201 57.7848 45.9746 57.7848Z" fill="white"/>
<path d="M59.047 43.172C59.047 41.2524 58.6689 39.3517 57.9344 37.5782C57.1999 35.8048 56.1232 34.1934 54.766 32.836C53.4087 31.4787 51.7975 30.402 50.0241 29.6674C48.2508 28.9328 46.3502 28.5547 44.4307 28.5547C42.5113 28.5547 40.6106 28.9328 38.8373 29.6674C37.064 30.402 35.4527 31.4787 34.0955 32.836C32.7382 34.1934 31.6616 35.8048 30.927 37.5782C30.1925 39.3517 29.8144 41.2525 29.8144 43.172H31.1704C31.1704 41.4305 31.5134 39.7061 32.1798 38.0972C32.8462 36.4882 33.823 35.0263 35.0543 33.7949C36.2856 32.5635 37.7474 31.5867 39.3562 30.9202C40.965 30.2538 42.6894 29.9108 44.4307 29.9108C46.1721 29.9108 47.8964 30.2538 49.5052 30.9202C51.114 31.5867 52.5758 32.5635 53.8071 33.7949C55.0385 35.0263 56.0152 36.4882 56.6816 38.0972C57.348 39.7061 57.691 41.4305 57.691 43.172H59.047Z" fill="white"/>
<path d="M139.102 138.922H73.4321C72.5462 138.922 71.8281 139.558 71.8281 140.342V145.851C71.8281 146.635 72.5462 147.271 73.4321 147.271H139.102C139.988 147.271 140.706 146.635 140.706 145.851V140.342C140.706 139.558 139.988 138.922 139.102 138.922Z" fill="white"/>
<path d="M126.096 155.621C126.096 140.636 138.244 128.487 153.23 128.487C159.943 128.487 166.086 130.925 170.825 134.965C176.662 139.942 180.363 147.349 180.363 155.621C180.363 170.606 168.215 182.754 153.23 182.754C149.497 182.754 145.94 182 142.702 180.636C132.945 176.525 126.096 166.873 126.096 155.621Z" fill="#05E0AC" stroke="white" stroke-width="3.77042"/>
<path d="M148.419 159.958C149.925 158.439 151.365 156.982 152.809 155.536C156.194 152.144 159.576 148.756 162.956 145.372C164.528 143.799 166.921 144.001 168.078 145.78C168.94 147.102 168.761 148.72 167.574 149.914C164.303 153.21 161.027 156.5 157.745 159.782C155.465 162.069 153.183 164.355 150.902 166.64C149.373 168.169 147.519 168.179 145.983 166.652C143.822 164.509 141.672 162.356 139.533 160.193C138.585 159.238 138.294 158.089 138.716 156.812C139.139 155.536 140.06 154.836 141.353 154.637C142.422 154.473 143.347 154.844 144.107 155.606C145.519 157.025 146.927 158.449 148.419 159.958Z" fill="white"/>
<path d="M41.5009 72.125C41.5009 71.5787 41.058 71.1358 40.5117 71.1358C39.9654 71.1358 39.5225 71.5787 39.5225 72.125H41.5009ZM59.2965 99.2586L49.4046 93.5475V104.97L59.2965 99.2586ZM39.5225 72.125V92.997H41.5009V72.125H39.5225ZM46.7733 100.248H50.3938V98.2694H46.7733V100.248ZM39.5225 92.997C39.5225 97.0015 42.7688 100.248 46.7733 100.248V98.2694C43.8614 98.2694 41.5009 95.9089 41.5009 92.997H39.5225Z" fill="#EEF2FC"/>
<defs>
<filter id="filter0_d_10781_296005" x="16.4364" y="16.7861" width="60.7876" height="60.7876" filterUnits="userSpaceOnUse" color-interpolation-filters="sRGB">
<feFlood flood-opacity="0" result="BackgroundImageFix"/>
<feColorMatrix in="SourceAlpha" type="matrix" values="0 0 0 0 0 0 0 0 0 0 0 0 0 0 0 0 0 0 127 0" result="hardAlpha"/>
<feOffset dx="2.13878" dy="4.27756"/>
<feGaussianBlur stdDeviation="2.67347"/>
<feComposite in2="hardAlpha" operator="out"/>
<feColorMatrix type="matrix" values="0 0 0 0 0 0 0 0 0 0.175 0 0 0 0 0.4375 0 0 0 0.07 0"/>
<feBlend mode="normal" in2="BackgroundImageFix" result="effect1_dropShadow_10781_296005"/>
<feBlend mode="normal" in="SourceGraphic" in2="effect1_dropShadow_10781_296005" result="shape"/>
</filter>
<linearGradient id="paint0_linear_10781_296005" x1="35.2928" y1="-0.917106" x2="167.622" y2="142.317" gradientUnits="userSpaceOnUse">
<stop stop-color="white"/>
<stop offset="1" stop-color="#E2F1FA"/>
</linearGradient>
<linearGradient id="paint1_linear_10781_296005" x1="35.2928" y1="-0.917106" x2="167.622" y2="142.317" gradientUnits="userSpaceOnUse">
<stop stop-color="white"/>
<stop offset="1" stop-color="#E2F1FA"/>
</linearGradient>
<linearGradient id="paint2_linear_10781_296005" x1="118.043" y1="96.3773" x2="144.751" y2="96.3773" gradientUnits="userSpaceOnUse">
<stop stop-color="#05E0E0"/>
<stop offset="1" stop-color="#02C8C8"/>
</linearGradient>
<linearGradient id="paint3_linear_10781_296005" x1="118.045" y1="94.5951" x2="144.753" y2="94.5951" gradientUnits="userSpaceOnUse">
<stop stop-color="#05E0E0"/>
<stop offset="1" stop-color="#02C8C8"/>
</linearGradient>
<linearGradient id="paint4_linear_10781_296005" x1="19.6435" y1="42.9033" x2="69.735" y2="42.9033" gradientUnits="userSpaceOnUse">
<stop stop-color="#05E0E0"/>
<stop offset="1" stop-color="#02C8C8"/>
</linearGradient>
</defs>
</svg>
