<svg width="156" height="156" viewBox="0 0 156 156" fill="none" xmlns="http://www.w3.org/2000/svg">
<path d="M32.1566 39.5324H95.3288C98.878 39.5324 101.739 42.3956 101.739 45.9078V133.645C101.739 137.157 98.878 140.02 95.3288 140.02H32.1566C28.6074 140.02 25.7463 137.157 25.7463 133.645V45.9078C25.7463 42.3956 28.6074 39.5324 32.1566 39.5324Z" fill="url(#paint0_linear_9235_953439)" stroke="#EFF7FF" stroke-width="4.68"/>
<path d="M109.913 12.7637C96.989 12.7637 86.5127 23.2413 86.5127 36.1643C86.5127 45.87 92.4214 54.1923 100.833 57.7364C103.627 58.9137 106.696 59.5637 109.913 59.5637C122.836 59.5637 133.313 49.0873 133.313 36.1643C133.313 29.0298 130.119 22.6408 125.087 18.3511C121.001 14.8671 115.701 12.7637 109.913 12.7637Z" fill="url(#paint1_linear_9235_953439)" stroke="white" stroke-width="2.83636"/>
<path d="M112.702 36.1828C115.196 33.6768 117.454 31.4037 118.26 30.5872C119.108 29.7284 119.104 28.426 118.278 27.6059C117.523 26.8576 116.185 26.787 115.349 27.6788C114.422 28.6671 113.443 29.6072 112.487 30.5684L109.8 33.2685C107.304 30.7602 105.039 28.4871 104.227 27.6753C103.371 26.8223 102.075 26.8259 101.26 27.6553C100.515 28.4154 100.444 29.759 101.332 30.599C102.316 31.5308 103.252 32.5144 104.207 33.4756L106.899 36.1816C104.363 38.7312 101.83 41.276 101.35 41.7619C101.21 41.9031 101.066 42.0525 100.965 42.2243C100.465 43.0832 100.664 44.2608 101.388 44.8185C102.312 45.5291 103.418 45.4927 104.227 44.6868C105.039 43.8761 107.303 41.6043 109.799 39.0982C112.334 41.6454 114.862 44.1856 115.345 44.6668C115.487 44.808 115.635 44.9538 115.806 45.0538C116.66 45.5562 117.832 45.3586 118.387 44.6291C119.094 43.702 119.057 42.5902 118.255 41.7772C117.45 40.9607 115.192 38.6888 112.7 36.1828H112.702Z" fill="white"/>
<g filter="url(#filter0_d_9235_953439)">
<path d="M132.034 94.4618C132.087 92.1576 131.324 90.1741 129.567 88.6577C126.429 85.9519 122.265 86.1885 119.191 89.2338C109.04 99.2882 98.8989 109.349 88.7761 119.428C88.2978 119.901 87.932 120.537 87.6694 121.162C86.7534 123.358 85.9062 125.578 85.034 127.792C84.3149 129.626 83.574 131.453 82.8925 133.303C82.5204 134.315 82.8518 135.293 83.7459 135.551C84.3055 135.713 85.0277 135.635 85.5873 135.427C89.5389 133.941 93.478 132.419 97.3983 130.852C98.0767 130.582 98.7457 130.149 99.2678 129.635C107.305 121.701 115.349 113.77 123.321 105.768C126.135 102.944 129.305 100.443 131.518 97.0587L132.062 95.041C132.05 94.8479 132.025 94.6549 132.028 94.4618H132.034ZM87.5537 130.949C88.4853 128.598 89.3326 126.462 90.2267 124.201C91.6429 125.612 92.9496 126.917 94.3502 128.312C92.0837 129.193 89.9047 130.037 87.5568 130.949H87.5537ZM97.4889 126.509C95.6476 124.675 93.8812 122.915 92.043 121.081C100.393 112.802 108.706 104.557 117.062 96.2647C118.894 98.0925 120.676 99.8673 122.502 101.689C114.158 109.968 105.861 118.198 97.4889 126.506V126.509ZM127.585 96.6072C126.801 97.4946 125.922 98.298 124.991 99.2352C123.134 97.3825 121.355 95.6077 119.542 93.8017C120.445 92.9143 121.258 92.0486 122.146 91.264C123.724 89.869 125.988 89.9593 127.432 91.4165C128.852 92.8426 128.945 95.0628 127.582 96.6072H127.585Z" fill="url(#paint2_linear_9235_953439)"/>
<path d="M127.575 96.608C126.79 97.4954 125.912 98.2988 124.98 99.236C123.123 97.3833 121.344 95.6085 119.531 93.8025C120.435 92.9151 121.248 92.0494 122.135 91.2648C123.714 89.8698 125.978 89.9601 127.422 91.4173C128.841 92.8434 128.935 95.0636 127.572 96.608H127.575Z" fill="url(#paint3_linear_9235_953439)"/>
<path d="M122.514 101.691C114.17 109.97 105.873 118.2 97.5006 126.508C95.6593 124.674 93.8929 122.914 92.0547 121.08C100.405 112.801 108.718 104.556 117.074 96.2637C118.906 98.0915 120.688 99.8663 122.514 101.688V101.691Z" fill="url(#paint4_linear_9235_953439)"/>
<path d="M94.3559 128.315C92.0893 129.196 89.9103 130.04 87.5625 130.953C88.4941 128.602 89.3413 126.466 90.2354 124.205C91.6516 125.616 92.9584 126.92 94.359 128.315H94.3559Z" fill="url(#paint5_linear_9235_953439)"/>
</g>
<path d="M66.303 84.2152C71.0611 84.2152 75.8193 84.2152 80.5775 84.2152C80.9338 84.2152 81.2965 84.1996 81.6498 84.2526C82.769 84.4176 83.5693 85.3081 83.5693 86.3513C83.5693 87.3944 82.769 88.2849 81.6498 88.4468C81.2996 88.4966 80.937 88.4842 80.5775 88.4842C70.9892 88.4842 61.401 88.4842 51.8097 88.4842C51.7378 88.4842 51.6659 88.4842 51.594 88.4842C49.8526 88.4748 48.8179 87.6777 48.8179 86.3481C48.8179 85.0186 49.8526 84.2183 51.5971 84.2152C56.4991 84.2121 61.401 84.2152 66.303 84.2152Z" fill="#CEDAEA"/>
<path d="M66.2217 100.441C61.426 100.441 56.6335 100.441 51.8378 100.441C51.5502 100.441 51.2626 100.454 50.9781 100.432C49.7213 100.329 48.8335 99.4633 48.8179 98.3362C48.7991 97.1747 49.7182 96.278 51.0312 96.1814C51.2094 96.169 51.3876 96.1752 51.569 96.1752C61.3354 96.1752 71.1049 96.1752 80.8713 96.1752C81.087 96.1752 81.3027 96.169 81.5153 96.1939C82.7064 96.3278 83.5505 97.1903 83.5693 98.2801C83.588 99.4042 82.7064 100.31 81.4653 100.429C81.1464 100.46 80.8213 100.444 80.4993 100.444C75.7411 100.444 70.983 100.444 66.2248 100.444L66.2217 100.441Z" fill="#CEDAEA"/>
<path d="M66.1936 112.395C61.3979 112.395 56.6054 112.395 51.8097 112.395C51.4533 112.395 51.0906 112.41 50.7374 112.357C49.615 112.192 48.8147 111.305 48.8147 110.262C48.8147 109.219 49.6119 108.331 50.7342 108.166C51.0844 108.113 51.447 108.129 51.8066 108.129C61.3948 108.129 70.983 108.129 80.5743 108.129C80.6462 108.129 80.7181 108.129 80.79 108.129C82.5314 108.138 83.5662 108.932 83.5662 110.262C83.5662 111.591 82.5314 112.395 80.79 112.398C75.9256 112.401 71.058 112.398 66.1936 112.398V112.395Z" fill="#CEDAEA"/>
<path d="M75.5317 124.349C73.7779 124.349 72.0271 124.361 70.2733 124.346C68.7164 124.333 67.7129 123.483 67.7129 122.213C67.7129 120.945 68.7165 120.089 70.2765 120.083C73.8529 120.07 77.4324 120.07 81.0089 120.083C82.5658 120.089 83.5693 120.945 83.5693 122.213C83.5693 123.48 82.5658 124.33 81.0089 124.342C79.1831 124.358 77.3605 124.346 75.5348 124.346L75.5317 124.349Z" fill="#CEDAEA"/>
<path d="M41.7838 88.4717C40.6677 88.4717 39.6517 87.466 39.6517 86.3544C39.6517 85.2428 40.6615 84.2339 41.7775 84.2339C42.9186 84.2339 43.8846 85.2023 43.8878 86.3513C43.8878 87.5002 42.9249 88.4717 41.7838 88.4717Z" fill="#CEDAEA"/>
<path d="M41.7713 96.1877C42.9124 96.1846 43.8815 97.1529 43.8846 98.2988C43.8878 99.4478 42.928 100.419 41.7869 100.426C40.6708 100.432 39.6548 99.426 39.6486 98.3144C39.6423 97.2028 40.6521 96.1939 41.7713 96.1877Z" fill="#CEDAEA"/>
<path d="M43.8846 110.277C43.8752 111.42 42.8936 112.389 41.7588 112.376C40.6396 112.364 39.636 111.346 39.6486 110.237C39.6611 109.122 40.6833 108.123 41.7994 108.138C42.9436 108.154 43.8971 109.129 43.8846 110.277Z" fill="#CEDAEA"/>
<path d="M63.2558 64.1594C65.3363 64.1594 67.0229 62.4796 67.0229 60.4073C67.0229 58.3351 65.3363 56.6552 63.2558 56.6552C61.1752 56.6552 59.4886 58.3351 59.4886 60.4073C59.4886 62.4796 61.1752 64.1594 63.2558 64.1594Z" fill="#CEDAEA"/>
<path d="M63.2526 51.7168C55.8747 51.7168 49.8723 57.6952 49.8723 65.0437C49.8723 72.3922 55.8747 78.3738 63.2526 78.3738C70.6306 78.3738 76.6361 72.3922 76.6361 65.0437C76.6361 57.6952 70.6306 51.7168 63.2526 51.7168ZM63.2526 75.4562C60.7391 75.4562 58.4288 74.5688 56.625 73.0897H69.8803C68.0764 74.5688 65.763 75.4562 63.2495 75.4562H63.2526ZM71.2433 71.7508C70.6024 67.9302 67.2699 65.0219 63.2558 65.0219C59.2416 65.0219 55.9059 67.9302 55.265 71.7508C53.7269 69.9355 52.8016 67.597 52.8016 65.0469C52.8016 59.3082 57.4909 54.6375 63.2526 54.6375C69.0143 54.6375 73.7068 59.3082 73.7068 65.0469C73.7068 67.597 72.7814 69.9386 71.2433 71.7508Z" fill="#CEDAEA"/>
<defs>
<filter id="filter0_d_9235_953439" x="79.0762" y="85.1653" width="54.0128" height="53.5519" filterUnits="userSpaceOnUse" color-interpolation-filters="sRGB">
<feFlood flood-opacity="0" result="BackgroundImageFix"/>
<feColorMatrix in="SourceAlpha" type="matrix" values="0 0 0 0 0 0 0 0 0 0 0 0 0 0 0 0 0 0 127 0" result="hardAlpha"/>
<feOffset dx="-1.31976" dy="0.7332"/>
<feGaussianBlur stdDeviation="1.17312"/>
<feComposite in2="hardAlpha" operator="out"/>
<feColorMatrix type="matrix" values="0 0 0 0 0 0 0 0 0 0.4875 0 0 0 0 0.4875 0 0 0 0.15 0"/>
<feBlend mode="normal" in2="BackgroundImageFix" result="effect1_dropShadow_9235_953439"/>
<feBlend mode="normal" in="SourceGraphic" in2="effect1_dropShadow_9235_953439" result="shape"/>
</filter>
<linearGradient id="paint0_linear_9235_953439" x1="23.4063" y1="52.2163" x2="116.208" y2="127.386" gradientUnits="userSpaceOnUse">
<stop stop-color="white"/>
<stop offset="1" stop-color="#E2F1FA"/>
</linearGradient>
<linearGradient id="paint1_linear_9235_953439" x1="111.977" y1="64.9742" x2="95.8918" y2="9.18631" gradientUnits="userSpaceOnUse">
<stop stop-color="#FF4B4B"/>
<stop offset="1" stop-color="#FFB6B6"/>
</linearGradient>
<linearGradient id="paint2_linear_9235_953439" x1="82.7412" y1="111.21" x2="132.06" y2="111.21" gradientUnits="userSpaceOnUse">
<stop stop-color="#05E0E0"/>
<stop offset="1" stop-color="#02C8C8"/>
</linearGradient>
<linearGradient id="paint3_linear_9235_953439" x1="119.531" y1="91.5505" x2="127.606" y2="100.119" gradientUnits="userSpaceOnUse">
<stop stop-color="white"/>
<stop offset="1" stop-color="#E2F1FA"/>
</linearGradient>
<linearGradient id="paint4_linear_9235_953439" x1="92.0547" y1="100.584" x2="119.286" y2="129.543" gradientUnits="userSpaceOnUse">
<stop stop-color="white"/>
<stop offset="1" stop-color="#E2F1FA"/>
</linearGradient>
<linearGradient id="paint5_linear_9235_953439" x1="87.5625" y1="125.169" x2="93.6378" y2="131.631" gradientUnits="userSpaceOnUse">
<stop stop-color="white"/>
<stop offset="1" stop-color="#E2F1FA"/>
</linearGradient>
</defs>
</svg>
