<svg width="156" height="156" viewBox="0 0 156 156" fill="none" xmlns="http://www.w3.org/2000/svg">
<path d="M32.8598 39.5324H96.0319C99.5811 39.5324 102.442 42.3956 102.442 45.9078V133.645C102.442 137.157 99.5811 140.02 96.0319 140.02H32.8598C29.3106 140.02 26.4494 137.157 26.4494 133.645V45.9078C26.4494 42.3956 29.3106 39.5324 32.8598 39.5324Z" fill="url(#paint0_linear_9235_953427)" stroke="#EFF7FF" stroke-width="4.68"/>
<g filter="url(#filter0_d_9235_953427)">
<path d="M132.737 94.4618C132.79 92.1576 132.028 90.1741 130.271 88.6577C127.132 85.9519 122.968 86.1885 119.895 89.2338C109.744 99.2882 99.602 109.349 89.4792 119.428C89.0009 119.901 88.6351 120.537 88.3725 121.162C87.4565 123.358 86.6093 125.578 85.7371 127.792C85.018 129.626 84.2771 131.453 83.5956 133.303C83.2236 134.315 83.555 135.293 84.4491 135.551C85.0087 135.713 85.7308 135.635 86.2904 135.427C90.242 133.941 94.1811 132.419 98.1014 130.852C98.7798 130.582 99.4488 130.149 99.9709 129.635C108.009 121.701 116.052 113.77 124.024 105.768C126.838 102.944 130.008 100.443 132.221 97.0587L132.765 95.041C132.753 94.8479 132.728 94.6549 132.731 94.4618H132.737ZM88.2568 130.949C89.1885 128.598 90.0357 126.462 90.9298 124.201C92.346 125.612 93.6528 126.917 95.0533 128.312C92.7868 129.193 90.6078 130.037 88.26 130.949H88.2568ZM98.1921 126.509C96.3507 124.675 94.5844 122.915 92.7461 121.081C101.096 112.802 109.409 104.557 117.766 96.2647C119.598 98.0925 121.379 99.8673 123.205 101.689C114.861 109.968 106.564 118.198 98.1921 126.506V126.509ZM128.288 96.6072C127.504 97.4946 126.625 98.298 125.694 99.2352C123.837 97.3825 122.058 95.6077 120.245 93.8017C121.148 92.9143 121.961 92.0486 122.849 91.264C124.428 89.869 126.691 89.9593 128.135 91.4165C129.555 92.8426 129.648 95.0628 128.285 96.6072H128.288Z" fill="url(#paint1_linear_9235_953427)"/>
<path d="M128.278 96.608C127.494 97.4954 126.615 98.2988 125.683 99.236C123.826 97.3833 122.048 95.6085 120.234 93.8025C121.138 92.9151 121.951 92.0494 122.839 91.2648C124.417 89.8698 126.681 89.9601 128.125 91.4173C129.544 92.8434 129.638 95.0636 128.275 96.608H128.278Z" fill="url(#paint2_linear_9235_953427)"/>
<path d="M123.217 101.691C114.873 109.97 106.576 118.2 98.2037 126.508C96.3624 124.674 94.596 122.914 92.7578 121.08C101.108 112.801 109.421 104.556 117.777 96.2637C119.609 98.0915 121.391 99.8663 123.217 101.688V101.691Z" fill="url(#paint3_linear_9235_953427)"/>
<path d="M95.059 128.315C92.7924 129.196 90.6134 130.04 88.2656 130.953C89.1972 128.602 90.0445 126.466 90.9386 124.205C92.3548 125.616 93.6615 126.92 95.0621 128.315H95.059Z" fill="url(#paint4_linear_9235_953427)"/>
</g>
<path d="M67.0061 84.2152C71.7643 84.2152 76.5224 84.2152 81.2806 84.2152C81.637 84.2152 81.9996 84.1996 82.3529 84.2526C83.4721 84.4176 84.2724 85.3081 84.2724 86.3513C84.2724 87.3944 83.4721 88.2849 82.3529 88.4468C82.0027 88.4966 81.6401 88.4842 81.2806 88.4842C71.6924 88.4842 62.1041 88.4842 52.5128 88.4842C52.4409 88.4842 52.369 88.4842 52.2971 88.4842C50.5558 88.4749 49.521 87.6777 49.521 86.3481C49.521 85.0186 50.5558 84.2183 52.3002 84.2152C57.2022 84.2121 62.1041 84.2152 67.0061 84.2152Z" fill="url(#paint5_linear_9235_953427)"/>
<path d="M66.9248 100.441C62.1292 100.441 57.3366 100.441 52.5409 100.441C52.2533 100.441 51.9657 100.454 51.6812 100.432C50.4245 100.329 49.5366 99.4633 49.521 98.3362C49.5022 97.1747 50.4213 96.278 51.7344 96.1814C51.9126 96.169 52.0908 96.1752 52.2721 96.1752C62.0385 96.1752 71.808 96.1752 81.5744 96.1752C81.7902 96.1752 82.0059 96.169 82.2185 96.1939C83.4096 96.3278 84.2536 97.1903 84.2724 98.2801C84.2912 99.4042 83.4096 100.31 82.1684 100.429C81.8496 100.46 81.5244 100.444 81.2024 100.444C76.4443 100.444 71.6861 100.444 66.9279 100.444L66.9248 100.441Z" fill="url(#paint6_linear_9235_953427)"/>
<path d="M66.8967 112.395C62.101 112.395 57.3085 112.395 52.5128 112.395C52.1564 112.395 51.7938 112.41 51.4405 112.357C50.3182 112.192 49.5179 111.305 49.5179 110.262C49.5179 109.219 50.315 108.331 51.4374 108.166C51.7875 108.113 52.1502 108.129 52.5097 108.129C62.0979 108.129 71.6861 108.129 81.2775 108.129C81.3494 108.129 81.4213 108.129 81.4932 108.129C83.2345 108.138 84.2693 108.932 84.2693 110.262C84.2693 111.592 83.2345 112.395 81.4932 112.398C76.6287 112.401 71.7611 112.398 66.8967 112.398V112.395Z" fill="url(#paint7_linear_9235_953427)"/>
<path d="M76.2348 124.349C74.481 124.349 72.7303 124.361 70.9764 124.346C69.4196 124.333 68.416 123.483 68.416 122.213C68.416 120.945 69.4196 120.089 70.9796 120.083C74.556 120.07 78.1356 120.07 81.712 120.083C83.2689 120.089 84.2724 120.945 84.2724 122.213C84.2724 123.48 83.2689 124.33 81.712 124.342C79.8863 124.358 78.0637 124.346 76.2379 124.346L76.2348 124.349Z" fill="url(#paint8_linear_9235_953427)"/>
<path d="M42.4869 88.4717C41.3708 88.4717 40.3548 87.466 40.3548 86.3544C40.3548 85.2428 41.3646 84.2339 42.4807 84.2339C43.6217 84.2339 44.5877 85.2023 44.5909 86.3513C44.5909 87.5002 43.628 88.4717 42.4869 88.4717Z" fill="url(#paint9_linear_9235_953427)"/>
<path d="M42.4744 96.1877C43.6155 96.1846 44.5846 97.1529 44.5878 98.2988C44.5909 99.4478 43.6311 100.419 42.49 100.426C41.374 100.432 40.3579 99.426 40.3517 98.3144C40.3454 97.2028 41.3552 96.1939 42.4744 96.1877Z" fill="url(#paint10_linear_9235_953427)"/>
<path d="M44.5878 110.277C44.5784 111.42 43.5967 112.389 42.4619 112.376C41.3427 112.364 40.3392 111.346 40.3517 110.237C40.3642 109.122 41.3865 108.123 42.5025 108.138C43.6467 108.154 44.6003 109.129 44.5878 110.277Z" fill="url(#paint11_linear_9235_953427)"/>
<path d="M63.9589 64.1594C66.0394 64.1594 67.726 62.4796 67.726 60.4073C67.726 58.3351 66.0394 56.6552 63.9589 56.6552C61.8783 56.6552 60.1917 58.3351 60.1917 60.4073C60.1917 62.4796 61.8783 64.1594 63.9589 64.1594Z" fill="url(#paint12_linear_9235_953427)"/>
<path d="M63.9557 51.7168C56.5778 51.7168 50.5754 57.6952 50.5754 65.0437C50.5754 72.3922 56.5778 78.3738 63.9557 78.3738C71.3337 78.3738 77.3392 72.3922 77.3392 65.0437C77.3392 57.6952 71.3337 51.7168 63.9557 51.7168ZM63.9557 75.4562C61.4422 75.4562 59.1319 74.5688 57.3281 73.0897H70.5834C68.7796 74.5688 66.4661 75.4562 63.9526 75.4562H63.9557ZM71.9464 71.7508C71.3056 67.9302 67.973 65.0219 63.9589 65.0219C59.9448 65.0219 56.6091 67.9302 55.9682 71.7508C54.4301 69.9355 53.5047 67.597 53.5047 65.0469C53.5047 59.3082 58.1941 54.6375 63.9557 54.6375C69.7174 54.6375 74.4099 59.3082 74.4099 65.0469C74.4099 67.597 73.4846 69.9386 71.9464 71.7508Z" fill="url(#paint13_linear_9235_953427)"/>
<path d="M86.2082 38.8743C86.2082 26.6687 96.0497 16.7727 108.191 16.7727C113.629 16.7727 118.606 18.7583 122.444 22.0495C127.173 26.1031 130.172 32.1362 130.172 38.8743C130.172 51.0799 120.33 60.9746 108.191 60.9746C105.166 60.9746 102.284 60.3605 99.6614 59.2493C91.7565 55.9008 86.2082 48.039 86.2082 38.8743Z" fill="#05E0AC" stroke="white" stroke-width="2.83636"/>
<path d="M104.291 42.4118C105.511 41.1745 106.678 39.988 107.848 38.8097C110.59 36.0474 113.33 33.2878 116.067 30.5309C117.342 29.2498 119.28 29.4148 120.217 30.8633C120.916 31.9401 120.77 33.2582 119.809 34.2311C117.159 36.9157 114.505 39.5949 111.847 42.2687C109.999 44.1315 108.151 45.9935 106.302 47.8548C105.064 49.1001 103.562 49.1082 102.317 47.864C100.566 46.1189 98.8247 44.3654 97.0923 42.6034C96.3241 41.8255 96.0883 40.8894 96.4306 39.8495C96.7729 38.8097 97.5193 38.2395 98.5668 38.0779C99.4322 37.944 100.182 38.2464 100.798 38.8674C101.942 40.0227 103.082 41.1826 104.291 42.4118Z" fill="white"/>
<defs>
<filter id="filter0_d_9235_953427" x="79.7793" y="85.1653" width="54.0128" height="53.5519" filterUnits="userSpaceOnUse" color-interpolation-filters="sRGB">
<feFlood flood-opacity="0" result="BackgroundImageFix"/>
<feColorMatrix in="SourceAlpha" type="matrix" values="0 0 0 0 0 0 0 0 0 0 0 0 0 0 0 0 0 0 127 0" result="hardAlpha"/>
<feOffset dx="-1.31976" dy="0.7332"/>
<feGaussianBlur stdDeviation="1.17312"/>
<feComposite in2="hardAlpha" operator="out"/>
<feColorMatrix type="matrix" values="0 0 0 0 0 0 0 0 0 0.4875 0 0 0 0 0.4875 0 0 0 0.15 0"/>
<feBlend mode="normal" in2="BackgroundImageFix" result="effect1_dropShadow_9235_953427"/>
<feBlend mode="normal" in="SourceGraphic" in2="effect1_dropShadow_9235_953427" result="shape"/>
</filter>
<linearGradient id="paint0_linear_9235_953427" x1="24.1094" y1="52.2163" x2="116.912" y2="127.386" gradientUnits="userSpaceOnUse">
<stop stop-color="white"/>
<stop offset="1" stop-color="#E2F1FA"/>
</linearGradient>
<linearGradient id="paint1_linear_9235_953427" x1="83.4443" y1="111.21" x2="132.763" y2="111.21" gradientUnits="userSpaceOnUse">
<stop stop-color="#05E0E0"/>
<stop offset="1" stop-color="#02C8C8"/>
</linearGradient>
<linearGradient id="paint2_linear_9235_953427" x1="120.234" y1="91.5505" x2="128.309" y2="100.119" gradientUnits="userSpaceOnUse">
<stop stop-color="white"/>
<stop offset="1" stop-color="#E2F1FA"/>
</linearGradient>
<linearGradient id="paint3_linear_9235_953427" x1="92.7578" y1="100.584" x2="119.989" y2="129.543" gradientUnits="userSpaceOnUse">
<stop stop-color="white"/>
<stop offset="1" stop-color="#E2F1FA"/>
</linearGradient>
<linearGradient id="paint4_linear_9235_953427" x1="88.2656" y1="125.169" x2="94.3409" y2="131.631" gradientUnits="userSpaceOnUse">
<stop stop-color="white"/>
<stop offset="1" stop-color="#E2F1FA"/>
</linearGradient>
<linearGradient id="paint5_linear_9235_953427" x1="95.0679" y1="129.195" x2="42.2577" y2="98.6868" gradientUnits="userSpaceOnUse">
<stop stop-color="#05A7A7"/>
<stop offset="1" stop-color="#0AD1D1"/>
</linearGradient>
<linearGradient id="paint6_linear_9235_953427" x1="95.0679" y1="129.195" x2="42.2577" y2="98.6868" gradientUnits="userSpaceOnUse">
<stop stop-color="#05A7A7"/>
<stop offset="1" stop-color="#0AD1D1"/>
</linearGradient>
<linearGradient id="paint7_linear_9235_953427" x1="95.0679" y1="129.195" x2="42.2577" y2="98.6868" gradientUnits="userSpaceOnUse">
<stop stop-color="#05A7A7"/>
<stop offset="1" stop-color="#0AD1D1"/>
</linearGradient>
<linearGradient id="paint8_linear_9235_953427" x1="95.0679" y1="129.195" x2="42.2577" y2="98.6868" gradientUnits="userSpaceOnUse">
<stop stop-color="#05A7A7"/>
<stop offset="1" stop-color="#0AD1D1"/>
</linearGradient>
<linearGradient id="paint9_linear_9235_953427" x1="95.0679" y1="129.195" x2="42.2577" y2="98.6868" gradientUnits="userSpaceOnUse">
<stop stop-color="#05A7A7"/>
<stop offset="1" stop-color="#0AD1D1"/>
</linearGradient>
<linearGradient id="paint10_linear_9235_953427" x1="95.0679" y1="129.195" x2="42.2577" y2="98.6868" gradientUnits="userSpaceOnUse">
<stop stop-color="#05A7A7"/>
<stop offset="1" stop-color="#0AD1D1"/>
</linearGradient>
<linearGradient id="paint11_linear_9235_953427" x1="95.0679" y1="129.195" x2="42.2577" y2="98.6868" gradientUnits="userSpaceOnUse">
<stop stop-color="#05A7A7"/>
<stop offset="1" stop-color="#0AD1D1"/>
</linearGradient>
<linearGradient id="paint12_linear_9235_953427" x1="95.0679" y1="129.195" x2="42.2577" y2="98.6868" gradientUnits="userSpaceOnUse">
<stop stop-color="#05A7A7"/>
<stop offset="1" stop-color="#0AD1D1"/>
</linearGradient>
<linearGradient id="paint13_linear_9235_953427" x1="95.0679" y1="129.195" x2="42.2577" y2="98.6868" gradientUnits="userSpaceOnUse">
<stop stop-color="#05A7A7"/>
<stop offset="1" stop-color="#0AD1D1"/>
</linearGradient>
</defs>
</svg>
