<svg width="113" height="112" viewBox="0 0 113 112" fill="none" xmlns="http://www.w3.org/2000/svg">
<g clip-path="url(#clip0_9243_966009)">
<path d="M85.0735 26.0049H34.1873C33.2921 26.0049 32.5664 26.7306 32.5664 27.6257V78.512C32.5664 79.4072 33.2921 80.1328 34.1873 80.1328H85.0735C85.9687 80.1328 86.6944 79.4072 86.6944 78.512V27.6257C86.6944 26.7306 85.9687 26.0049 85.0735 26.0049Z" fill="url(#paint0_linear_9243_966009)"/>
<path d="M34.1304 26.0049H85.1304C85.9929 26.0049 86.6944 26.7063 86.6944 27.5689V34.7537H32.5664V27.5689C32.5664 26.7063 33.2678 26.0049 34.1304 26.0049Z" fill="url(#paint1_linear_9243_966009)"/>
<path d="M59.6251 58.9437C65.2344 58.9437 69.7815 54.3965 69.7815 48.7873C69.7815 43.178 65.2344 38.6309 59.6251 38.6309C54.0159 38.6309 49.4688 43.178 49.4688 48.7873C49.4688 54.3965 54.0159 58.9437 59.6251 58.9437Z" fill="url(#paint2_linear_9243_966009)"/>
<path d="M67.1793 53.5266C65.6011 56.0384 62.8096 57.7114 59.6248 57.7114C56.44 57.7114 53.6438 56.0384 52.0703 53.5266C53.4352 51.5076 55.7149 50.0763 58.3736 49.7304C57.0987 49.2375 56.1935 47.9958 56.1935 46.5455C56.1935 44.6498 57.7291 43.1143 59.6248 43.1143C61.5205 43.1143 63.0514 44.6498 63.0514 46.5455C63.0514 47.9958 62.1461 49.2375 60.8713 49.7304C63.53 50.0763 65.8096 51.5076 67.1793 53.5266Z" fill="url(#paint3_linear_9243_966009)"/>
<path d="M73.0544 60.5645H46.2061C45.7795 60.5645 45.4336 60.9103 45.4336 61.337V65.1142C45.4336 65.5409 45.7795 65.8867 46.2061 65.8867H73.0544C73.4811 65.8867 73.827 65.5409 73.827 65.1142V61.337C73.827 60.9103 73.4811 60.5645 73.0544 60.5645Z" fill="white"/>
<path d="M78.1621 67.9961H41.1005C40.6006 67.9961 40.1953 68.4014 40.1953 68.9013V72.4132C40.1953 72.9131 40.6006 73.3184 41.1005 73.3184H78.1621C78.6621 73.3184 79.0674 72.9131 79.0674 72.4132V68.9013C79.0674 68.4014 78.6621 67.9961 78.1621 67.9961Z" fill="white"/>
</g>
<g filter="url(#filter0_d_9243_966009)">
<rect x="6.5" y="17" width="50.237" height="21.8009" rx="3.79147" fill="url(#paint4_linear_9243_966009)"/>
</g>
<path d="M18.3486 35.4833C22.5365 35.4833 25.9315 32.0883 25.9315 27.9003C25.9315 23.7124 22.5365 20.3174 18.3486 20.3174C14.1606 20.3174 10.7656 23.7124 10.7656 27.9003C10.7656 32.0883 14.1606 35.4833 18.3486 35.4833Z" fill="url(#paint5_linear_9243_966009)"/>
<path d="M23.9877 31.4391C22.8094 33.3144 20.7252 34.5635 18.3474 34.5635C15.9695 34.5635 13.8818 33.3144 12.707 31.4391C13.7261 29.9317 15.4281 28.8631 17.4132 28.6047C16.4613 28.2367 15.7855 27.3097 15.7855 26.2269C15.7855 24.8115 16.932 23.665 18.3474 23.665C19.7627 23.665 20.9057 24.8115 20.9057 26.2269C20.9057 27.3097 20.2298 28.2367 19.278 28.6047C21.263 28.8631 22.9651 29.9317 23.9877 31.4391Z" fill="white"/>
<rect x="27.3516" y="20.3174" width="17.0616" height="3.79147" rx="1.4218" fill="#D9D9D9"/>
<rect x="27.3516" y="20.3174" width="17.0616" height="3.79147" rx="1.4218" fill="url(#paint6_linear_9243_966009)"/>
<rect x="49.6289" y="20.3174" width="4.2654" height="3.79147" rx="0.473934" fill="url(#paint7_linear_9243_966009)"/>
<rect x="27.3516" y="26.0049" width="26.5403" height="8.53081" rx="1.4218" fill="url(#paint8_linear_9243_966009)"/>
<path d="M16.9739 40C16.9739 39.7383 16.7617 39.5261 16.5 39.5261C16.2383 39.5261 16.0261 39.7383 16.0261 40H16.9739ZM31.5 55L26.7607 52.2637V57.7363L31.5 55ZM16.0261 40V41.7299H16.9739V40H16.0261ZM16.0261 41.7299C16.0261 49.3205 22.1795 55.4739 29.7701 55.4739V54.5261C22.703 54.5261 16.9739 48.797 16.9739 41.7299H16.0261Z" fill="#EEF2FC"/>
<path d="M87.0703 43.5403L86.5964 43.5403L86.5964 42.5925L87.0703 42.5925L87.0703 43.5403ZM92.7575 67.237L90.0213 62.4977L95.4938 62.4977L92.7575 67.237ZM93.2315 48.7536L93.2315 62.9716L92.2836 62.9716L92.2836 48.7536L93.2315 48.7536ZM87.0703 42.5925C90.473 42.5925 93.2315 45.3509 93.2315 48.7536L92.2836 48.7536C92.2836 45.8744 89.9495 43.5403 87.0703 43.5403L87.0703 42.5925Z" fill="#EEF2FC"/>
<g filter="url(#filter1_d_9243_966009)">
<rect x="79.0117" y="68.1846" width="27.4882" height="27.4882" rx="4.12322" fill="url(#paint9_linear_9243_966009)"/>
</g>
<path d="M92.9919 93.0151C98.7951 93.0151 103.5 88.3107 103.5 82.5076C103.5 76.7044 98.7951 72 92.9919 72C87.1888 72 82.4844 76.7044 82.4844 82.5076C82.4844 88.3107 87.1888 93.0151 92.9919 93.0151Z" fill="white"/>
<path fill-rule="evenodd" clip-rule="evenodd" d="M96.0313 90.3945C95.107 89.7645 94.5 88.7033 94.5 87.5002C94.5 85.9105 95.5599 84.5683 97.0117 84.1417C96.0916 83.6659 95.0692 83.3395 93.9823 83.1981C95.2331 82.7145 96.1212 81.4963 96.1212 80.0735C96.1212 78.2136 94.6193 76.707 92.7594 76.707C90.8995 76.707 89.393 78.2136 89.393 80.0735C89.393 81.4963 90.2811 82.7145 91.5318 83.1981C88.9233 83.5375 86.6868 84.9418 85.3477 86.9226C86.8914 89.387 89.6347 91.0283 92.7594 91.0283C93.9166 91.0283 95.0209 90.8032 96.0313 90.3945Z" fill="url(#paint10_linear_9243_966009)"/>
<path fill-rule="evenodd" clip-rule="evenodd" d="M98 85C96.6193 85 95.5 86.1193 95.5 87.5C95.5 88.8807 96.6193 90 98 90C99.3807 90 100.5 88.8807 100.5 87.5C100.5 86.1193 99.3807 85 98 85ZM96.6538 87.5C96.6538 86.7565 97.2565 86.1538 98 86.1538C98.1587 86.1538 98.311 86.1813 98.4524 86.2317L96.7317 87.9524C96.6813 87.811 96.6538 87.6587 96.6538 87.5ZM97.5476 88.7683L99.2683 87.0476C99.3187 87.189 99.3462 87.3413 99.3462 87.5C99.3462 88.2435 98.7435 88.8462 98 88.8462C97.8413 88.8462 97.689 88.8187 97.5476 88.7683Z" fill="url(#paint11_linear_9243_966009)"/>
<defs>
<filter id="filter0_d_9243_966009" x="5.0782" y="16.5261" width="54.9776" height="26.5401" filterUnits="userSpaceOnUse" color-interpolation-filters="sRGB">
<feFlood flood-opacity="0" result="BackgroundImageFix"/>
<feColorMatrix in="SourceAlpha" type="matrix" values="0 0 0 0 0 0 0 0 0 0 0 0 0 0 0 0 0 0 127 0" result="hardAlpha"/>
<feOffset dx="0.947867" dy="1.89573"/>
<feGaussianBlur stdDeviation="1.18483"/>
<feComposite in2="hardAlpha" operator="out"/>
<feColorMatrix type="matrix" values="0 0 0 0 0 0 0 0 0 0.175 0 0 0 0 0.4375 0 0 0 0.07 0"/>
<feBlend mode="normal" in2="BackgroundImageFix" result="effect1_dropShadow_9243_966009"/>
<feBlend mode="normal" in="SourceGraphic" in2="effect1_dropShadow_9243_966009" result="shape"/>
</filter>
<filter id="filter1_d_9243_966009" x="75.2321" y="66.4666" width="31.2679" height="30.9243" filterUnits="userSpaceOnUse" color-interpolation-filters="sRGB">
<feFlood flood-opacity="0" result="BackgroundImageFix"/>
<feColorMatrix in="SourceAlpha" type="matrix" values="0 0 0 0 0 0 0 0 0 0 0 0 0 0 0 0 0 0 127 0" result="hardAlpha"/>
<feOffset dx="-2.06161"/>
<feGaussianBlur stdDeviation="0.859005"/>
<feComposite in2="hardAlpha" operator="out"/>
<feColorMatrix type="matrix" values="0 0 0 0 0 0 0 0 0 0.175 0 0 0 0 0.4375 0 0 0 0.07 0"/>
<feBlend mode="normal" in2="BackgroundImageFix" result="effect1_dropShadow_9243_966009"/>
<feBlend mode="normal" in="SourceGraphic" in2="effect1_dropShadow_9243_966009" result="shape"/>
</filter>
<linearGradient id="paint0_linear_9243_966009" x1="-10.0307" y1="6.24185" x2="123.955" y2="96.3082" gradientUnits="userSpaceOnUse">
<stop stop-color="#D2D9EE"/>
<stop offset="1" stop-color="#E7F0F8"/>
</linearGradient>
<linearGradient id="paint1_linear_9243_966009" x1="13.3152" y1="-0.388481" x2="102.557" y2="59.602" gradientUnits="userSpaceOnUse">
<stop stop-color="#E2F1FA"/>
<stop offset="1" stop-color="white"/>
</linearGradient>
<linearGradient id="paint2_linear_9243_966009" x1="100.298" y1="29.4602" x2="72.047" y2="42.882" gradientUnits="userSpaceOnUse">
<stop stop-color="#E2F1FA"/>
<stop offset="1" stop-color="white"/>
</linearGradient>
<linearGradient id="paint3_linear_9243_966009" x1="52.0703" y1="50.4128" x2="67.1793" y2="50.4128" gradientUnits="userSpaceOnUse">
<stop stop-color="#D2D9EE"/>
<stop offset="1" stop-color="#E7F0F8"/>
</linearGradient>
<linearGradient id="paint4_linear_9243_966009" x1="-11.3673" y1="-48.7689" x2="101.794" y2="-20.4363" gradientUnits="userSpaceOnUse">
<stop stop-color="#E2F1FA"/>
<stop offset="1" stop-color="white"/>
</linearGradient>
<linearGradient id="paint5_linear_9243_966009" x1="10.7653" y1="27.9008" x2="25.9308" y2="27.9008" gradientUnits="userSpaceOnUse">
<stop stop-color="#05E0E0"/>
<stop offset="1" stop-color="#02C8C8"/>
</linearGradient>
<linearGradient id="paint6_linear_9243_966009" x1="27.3512" y1="22.2132" x2="44.4124" y2="22.2132" gradientUnits="userSpaceOnUse">
<stop stop-color="#05E0E0"/>
<stop offset="1" stop-color="#02C8C8"/>
</linearGradient>
<linearGradient id="paint7_linear_9243_966009" x1="44.4156" y1="18.4216" x2="57.2118" y2="27.1894" gradientUnits="userSpaceOnUse">
<stop stop-color="#D2D9EE"/>
<stop offset="1" stop-color="#E7F0F8"/>
</linearGradient>
<linearGradient id="paint8_linear_9243_966009" x1="15.9772" y1="18.8959" x2="61.4748" y2="45.1992" gradientUnits="userSpaceOnUse">
<stop stop-color="#D2D9EE"/>
<stop offset="1" stop-color="#E7F0F8"/>
</linearGradient>
<linearGradient id="paint9_linear_9243_966009" x1="91.4649" y1="63.9149" x2="101.522" y2="98.7962" gradientUnits="userSpaceOnUse">
<stop stop-color="#FFB74B"/>
<stop offset="1" stop-color="#FCCA80"/>
</linearGradient>
<linearGradient id="paint10_linear_9243_966009" x1="90.6319" y1="74.4826" x2="96.8243" y2="91.9742" gradientUnits="userSpaceOnUse">
<stop stop-color="#FFB74B"/>
<stop offset="1" stop-color="#FCCA80"/>
</linearGradient>
<linearGradient id="paint11_linear_9243_966009" x1="97.7652" y1="84.2234" x2="99.5946" y2="90.5681" gradientUnits="userSpaceOnUse">
<stop stop-color="#FFB74B"/>
<stop offset="1" stop-color="#FCCA80"/>
</linearGradient>
<clipPath id="clip0_9243_966009">
<rect width="54.128" height="54.128" fill="white" transform="translate(32.5664 26.0049)"/>
</clipPath>
</defs>
</svg>
