<svg width="218" height="218" viewBox="0 0 218 218" fill="none" xmlns="http://www.w3.org/2000/svg">
<g clip-path="url(#clip0_9243_966528)">
<path d="M164.615 50.6162H65.5689C63.8265 50.6162 62.4141 52.0287 62.4141 53.7711V152.818C62.4141 154.56 63.8265 155.972 65.5689 155.972H164.615C166.358 155.972 167.77 154.56 167.77 152.818V53.7711C167.77 52.0287 166.358 50.6162 164.615 50.6162Z" fill="url(#paint0_linear_9243_966528)"/>
<path d="M65.4582 50.6162H164.726C166.405 50.6162 167.77 51.9815 167.77 53.6604V67.6452H62.4141V53.6604C62.4141 51.9815 63.7793 50.6162 65.4582 50.6162Z" fill="url(#paint1_linear_9243_966528)"/>
<path d="M115.081 114.731C125.999 114.731 134.85 105.88 134.85 94.9621C134.85 84.0441 125.999 75.1934 115.081 75.1934C104.163 75.1934 95.3125 84.0441 95.3125 94.9621C95.3125 105.88 104.163 114.731 115.081 114.731Z" fill="url(#paint2_linear_9243_966528)"/>
<path d="M115.796 114.87C127.091 114.87 136.248 105.714 136.248 94.4181C136.248 83.1226 127.091 73.9658 115.796 73.9658C104.501 73.9658 95.3438 83.1226 95.3438 94.4181C95.3438 105.714 104.501 114.87 115.796 114.87Z" fill="white"/>
<path fill-rule="evenodd" clip-rule="evenodd" d="M121.713 109.77C119.914 108.543 118.732 106.478 118.732 104.136C118.732 101.042 120.795 98.4291 123.621 97.5988C121.83 96.6727 119.84 96.0376 117.725 95.7624C120.159 94.8211 121.888 92.4499 121.888 89.6805C121.888 86.0603 118.965 83.1279 115.344 83.1279C111.724 83.1279 108.792 86.0603 108.792 89.6805C108.792 92.4499 110.52 94.8211 112.955 95.7624C107.878 96.423 103.524 99.1563 100.918 103.012C103.923 107.808 109.262 111.003 115.344 111.003C117.597 111.003 119.746 110.565 121.713 109.77Z" fill="url(#paint3_linear_9243_966528)"/>
<path fill-rule="evenodd" clip-rule="evenodd" d="M125.546 99.2695C122.858 99.2695 120.68 101.448 120.68 104.136C120.68 106.823 122.858 109.002 125.546 109.002C128.233 109.002 130.412 106.823 130.412 104.136C130.412 101.448 128.233 99.2695 125.546 99.2695ZM122.926 104.136C122.926 102.689 124.099 101.515 125.546 101.515C125.855 101.515 126.151 101.569 126.426 101.667L123.077 105.016C122.979 104.741 122.926 104.445 122.926 104.136ZM124.665 106.604L128.014 103.255C128.112 103.53 128.166 103.827 128.166 104.136C128.166 105.583 126.993 106.756 125.546 106.756C125.237 106.756 124.94 106.702 124.665 106.604Z" fill="url(#paint4_linear_9243_966528)"/>
<path d="M141.219 117.885H88.9607C88.1302 117.885 87.457 118.558 87.457 119.388V126.741C87.457 127.571 88.1302 128.244 88.9607 128.244H141.219C142.049 128.244 142.723 127.571 142.723 126.741V119.388C142.723 118.558 142.049 117.885 141.219 117.885Z" fill="white"/>
<path d="M151.161 132.349H79.0237C78.0506 132.349 77.2617 133.137 77.2617 134.111V140.946C77.2617 141.919 78.0506 142.708 79.0237 142.708H151.161C152.135 142.708 152.923 141.919 152.923 140.946V134.111C152.923 133.137 152.135 132.349 151.161 132.349Z" fill="white"/>
</g>
<path d="M181.017 134.618C166.14 134.618 154.081 146.679 154.081 161.555C154.081 172.727 160.882 182.307 170.565 186.387C173.782 187.742 177.314 188.49 181.017 188.49C195.893 188.49 207.953 176.43 207.953 161.555C207.953 153.342 204.276 145.988 198.484 141.05C193.781 137.039 187.68 134.618 181.017 134.618Z" fill="url(#paint5_linear_9243_966528)" stroke="white" stroke-width="3.26498"/>
<path d="M184.234 161.575C187.104 158.69 189.703 156.074 190.63 155.134C191.607 154.145 191.602 152.646 190.652 151.702C189.783 150.841 188.243 150.76 187.28 151.786C186.213 152.924 185.087 154.006 183.986 155.112L180.893 158.22C178.02 155.333 175.412 152.716 174.477 151.782C173.492 150.8 172 150.804 171.062 151.759C170.204 152.634 170.123 154.181 171.144 155.148C172.278 156.22 173.355 157.352 174.454 158.459L177.554 161.574C174.633 164.509 171.719 167.438 171.166 167.997C171.004 168.16 170.839 168.332 170.723 168.53C170.147 169.518 170.376 170.874 171.209 171.516C172.272 172.334 173.546 172.292 174.477 171.364C175.412 170.431 178.018 167.816 180.892 164.931C183.809 167.863 186.72 170.787 187.275 171.341C187.439 171.504 187.609 171.672 187.806 171.787C188.79 172.365 190.139 172.137 190.777 171.298C191.591 170.231 191.548 168.951 190.625 168.015C189.698 167.075 187.1 164.46 184.231 161.575H184.234Z" fill="white"/>
<g filter="url(#filter0_d_9243_966528)">
<rect x="11.6797" y="33.0889" width="97.7827" height="42.434" rx="7.37982" fill="url(#paint6_linear_9243_966528)"/>
</g>
<path d="M34.7401 69.0662C42.8916 69.0662 49.4998 62.4581 49.4998 54.3065C49.4998 46.155 42.8916 39.5469 34.7401 39.5469C26.5886 39.5469 19.9805 46.155 19.9805 54.3065C19.9805 62.4581 26.5886 69.0662 34.7401 69.0662Z" fill="url(#paint7_linear_9243_966528)"/>
<path d="M45.7148 61.1941C43.4213 64.8444 39.3646 67.2756 34.7363 67.2756C30.108 67.2756 26.0444 64.8444 23.7578 61.1941C25.7414 58.26 29.0542 56.1801 32.918 55.6773C31.0653 54.961 29.7498 53.1565 29.7498 51.049C29.7498 48.294 31.9813 46.0625 34.7363 46.0625C37.4912 46.0625 39.7159 48.294 39.7159 51.049C39.7159 53.1565 38.4004 54.961 36.5477 55.6773C40.4115 56.1801 43.7243 58.26 45.7148 61.1941Z" fill="white"/>
<rect x="52.2656" y="39.5459" width="33.2092" height="7.37982" rx="2.76743" fill="#D9D9D9"/>
<rect x="52.2656" y="39.5459" width="33.2092" height="7.37982" rx="2.76743" fill="url(#paint8_linear_9243_966528)"/>
<rect x="95.625" y="39.5459" width="8.3023" height="7.37982" rx="0.922478" fill="url(#paint9_linear_9243_966528)"/>
<rect x="52.2656" y="50.6162" width="51.6588" height="16.6046" rx="2.76743" fill="url(#paint10_linear_9243_966528)"/>
<path d="M31.9733 77.3682C31.9733 76.8587 31.5603 76.4457 31.0508 76.4457C30.5413 76.4457 30.1283 76.8587 30.1283 77.3682H31.9733ZM73.4848 107.81L64.26 102.484V113.136L73.4848 107.81ZM30.1283 77.3682V81.9806H31.9733V77.3682H30.1283ZM56.8802 108.732H65.1825V106.887H56.8802V108.732ZM30.1283 81.9806C30.1283 96.7552 42.1055 108.732 56.8802 108.732V106.887C43.1245 106.887 31.9733 95.7363 31.9733 81.9806H30.1283Z" fill="#EEF2FC"/>
<path d="M168.504 84.7486L167.581 84.7486L167.581 82.9037L168.504 82.9037L168.504 84.7486ZM179.574 130.873L174.248 121.648L184.9 121.648L179.574 130.873ZM180.496 94.8959L180.496 122.57L178.651 122.57L178.651 94.8959L180.496 94.8959ZM168.504 82.9037C175.127 82.9037 180.496 88.2728 180.496 94.8959L178.651 94.8959C178.651 89.2917 174.108 84.7487 168.504 84.7486L168.504 82.9037Z" fill="#EEF2FC"/>
<defs>
<filter id="filter0_d_9243_966528" x="8.91225" y="32.1664" width="107.006" height="51.6584" filterUnits="userSpaceOnUse" color-interpolation-filters="sRGB">
<feFlood flood-opacity="0" result="BackgroundImageFix"/>
<feColorMatrix in="SourceAlpha" type="matrix" values="0 0 0 0 0 0 0 0 0 0 0 0 0 0 0 0 0 0 127 0" result="hardAlpha"/>
<feOffset dx="1.84496" dy="3.68991"/>
<feGaussianBlur stdDeviation="2.3062"/>
<feComposite in2="hardAlpha" operator="out"/>
<feColorMatrix type="matrix" values="0 0 0 0 0 0 0 0 0 0.175 0 0 0 0 0.4375 0 0 0 0.07 0"/>
<feBlend mode="normal" in2="BackgroundImageFix" result="effect1_dropShadow_9243_966528"/>
<feBlend mode="normal" in="SourceGraphic" in2="effect1_dropShadow_9243_966528" result="shape"/>
</filter>
<linearGradient id="paint0_linear_9243_966528" x1="-20.4983" y1="12.1489" x2="240.296" y2="187.457" gradientUnits="userSpaceOnUse">
<stop stop-color="#D2D9EE"/>
<stop offset="1" stop-color="#E7F0F8"/>
</linearGradient>
<linearGradient id="paint1_linear_9243_966528" x1="24.943" y1="-0.756591" x2="198.646" y2="116.011" gradientUnits="userSpaceOnUse">
<stop stop-color="#E2F1FA"/>
<stop offset="1" stop-color="white"/>
</linearGradient>
<linearGradient id="paint2_linear_9243_966528" x1="194.248" y1="57.3434" x2="139.259" y2="83.468" gradientUnits="userSpaceOnUse">
<stop stop-color="#E2F1FA"/>
<stop offset="1" stop-color="white"/>
</linearGradient>
<linearGradient id="paint3_linear_9243_966528" x1="100.918" y1="97.0656" x2="123.621" y2="97.0656" gradientUnits="userSpaceOnUse">
<stop stop-color="#D2D9EE"/>
<stop offset="1" stop-color="#E7F0F8"/>
</linearGradient>
<linearGradient id="paint4_linear_9243_966528" x1="120.68" y1="104.136" x2="130.412" y2="104.136" gradientUnits="userSpaceOnUse">
<stop stop-color="#D2D9EE"/>
<stop offset="1" stop-color="#E7F0F8"/>
</linearGradient>
<linearGradient id="paint5_linear_9243_966528" x1="183.393" y1="194.718" x2="164.877" y2="130.5" gradientUnits="userSpaceOnUse">
<stop stop-color="#FF4B4B"/>
<stop offset="1" stop-color="#FFB6B6"/>
</linearGradient>
<linearGradient id="paint6_linear_9243_966528" x1="-23.0978" y1="-94.9257" x2="197.162" y2="-39.7782" gradientUnits="userSpaceOnUse">
<stop stop-color="#E2F1FA"/>
<stop offset="1" stop-color="white"/>
</linearGradient>
<linearGradient id="paint7_linear_9243_966528" x1="19.9799" y1="54.3074" x2="49.4984" y2="54.3074" gradientUnits="userSpaceOnUse">
<stop stop-color="#05E0E0"/>
<stop offset="1" stop-color="#02C8C8"/>
</linearGradient>
<linearGradient id="paint8_linear_9243_966528" x1="52.265" y1="43.236" x2="85.4733" y2="43.236" gradientUnits="userSpaceOnUse">
<stop stop-color="#05E0E0"/>
<stop offset="1" stop-color="#02C8C8"/>
</linearGradient>
<linearGradient id="paint9_linear_9243_966528" x1="85.4777" y1="35.856" x2="110.385" y2="52.9218" gradientUnits="userSpaceOnUse">
<stop stop-color="#D2D9EE"/>
<stop offset="1" stop-color="#E7F0F8"/>
</linearGradient>
<linearGradient id="paint10_linear_9243_966528" x1="30.1262" y1="36.779" x2="118.684" y2="87.9766" gradientUnits="userSpaceOnUse">
<stop stop-color="#D2D9EE"/>
<stop offset="1" stop-color="#E7F0F8"/>
</linearGradient>
<clipPath id="clip0_9243_966528">
<rect width="105.356" height="105.356" fill="white" transform="translate(62.4141 50.6162)"/>
</clipPath>
</defs>
</svg>
