<svg width="132" height="132" viewBox="0 0 132 132" fill="none" xmlns="http://www.w3.org/2000/svg">
<g clip-path="url(#clip0_9243_967609)">
<path d="M85.0672 41.626H31.0374C30.0869 41.626 29.3164 42.3965 29.3164 43.3469V97.3758C29.3164 98.3262 30.0869 99.0967 31.0374 99.0967H85.0672C86.0177 99.0967 86.7882 98.3262 86.7882 97.3758V43.3469C86.7882 42.3965 86.0177 41.626 85.0672 41.626Z" fill="url(#paint0_linear_9243_967609)"/>
<path d="M30.977 41.626H85.1276C86.0434 41.626 86.7882 42.3707 86.7882 43.2865V50.9151H29.3164V43.2865C29.3164 42.3707 30.0612 41.626 30.977 41.626Z" fill="url(#paint1_linear_9243_967609)"/>
<path d="M37.2109 66.0416C40.4361 66.0416 43.0506 63.4271 43.0506 60.202C43.0506 56.9768 40.4361 54.3623 37.2109 54.3623C33.9856 54.3623 31.3711 56.9768 31.3711 60.202C31.3711 63.4271 33.9856 66.0416 37.2109 66.0416Z" fill="url(#paint2_linear_9243_967609)"/>
<path d="M37.2109 66.0416C40.4361 66.0416 43.0506 63.4271 43.0506 60.202C43.0506 56.9768 40.4361 54.3623 37.2109 54.3623C33.9856 54.3623 31.3711 56.9768 31.3711 60.202C31.3711 63.4271 33.9856 66.0416 37.2109 66.0416Z" fill="url(#paint3_linear_9243_967609)"/>
<path d="M41.5507 62.9272C40.6433 64.3715 39.0382 65.3334 37.207 65.3334C35.3758 65.3334 33.768 64.3715 32.8633 62.9272C33.6481 61.7664 34.9588 60.9434 36.4876 60.7445C35.7546 60.4611 35.2341 59.7472 35.2341 58.9133C35.2341 57.8233 36.117 56.9404 37.207 56.9404C38.297 56.9404 39.1772 57.8233 39.1772 58.9133C39.1772 59.7472 38.6567 60.4611 37.9237 60.7445C39.4524 60.9434 40.7632 61.7664 41.5507 62.9272Z" fill="white"/>
<rect x="45.1758" y="54.3623" width="20.1737" height="3.18527" rx="0.530883" fill="url(#paint4_linear_9243_967609)"/>
<rect x="45.1758" y="58.6094" width="38.2239" height="7.4323" rx="0.530883" fill="#D9D9D9"/>
<rect x="45.1758" y="58.6094" width="38.2239" height="7.4323" rx="0.530883" fill="url(#paint5_linear_9243_967609)"/>
<path d="M37.2109 80.9059C40.4361 80.9059 43.0506 78.2914 43.0506 75.0662C43.0506 71.8411 40.4361 69.2266 37.2109 69.2266C33.9856 69.2266 31.3711 71.8411 31.3711 75.0662C31.3711 78.2914 33.9856 80.9059 37.2109 80.9059Z" fill="url(#paint6_linear_9243_967609)"/>
<path d="M37.2109 80.9059C40.4361 80.9059 43.0506 78.2914 43.0506 75.0662C43.0506 71.8411 40.4361 69.2266 37.2109 69.2266C33.9856 69.2266 31.3711 71.8411 31.3711 75.0662C31.3711 78.2914 33.9856 80.9059 37.2109 80.9059Z" fill="url(#paint7_linear_9243_967609)"/>
<path d="M37.2109 80.9059C40.4361 80.9059 43.0506 78.2914 43.0506 75.0662C43.0506 71.8411 40.4361 69.2266 37.2109 69.2266C33.9856 69.2266 31.3711 71.8411 31.3711 75.0662C31.3711 78.2914 33.9856 80.9059 37.2109 80.9059Z" fill="url(#paint8_linear_9243_967609)"/>
<path d="M41.5507 77.7915C40.6433 79.2357 39.0382 80.1977 37.207 80.1977C35.3758 80.1977 33.768 79.2357 32.8633 77.7915C33.6481 76.6307 34.9588 75.8077 36.4876 75.6088C35.7546 75.3254 35.2341 74.6114 35.2341 73.7776C35.2341 72.6876 36.117 71.8047 37.207 71.8047C38.297 71.8047 39.1772 72.6876 39.1772 73.7776C39.1772 74.6114 38.6567 75.3254 37.9237 75.6088C39.4524 75.8077 40.7632 76.6307 41.5507 77.7915Z" fill="white"/>
<rect x="45.1758" y="69.2266" width="20.1737" height="3.18527" rx="0.530883" fill="url(#paint9_linear_9243_967609)"/>
<rect x="45.1758" y="73.4736" width="38.2239" height="7.4323" rx="0.530883" fill="url(#paint10_linear_9243_967609)"/>
<path d="M37.2109 95.7711C40.4361 95.7711 43.0506 93.1566 43.0506 89.9315C43.0506 86.7063 40.4361 84.0918 37.2109 84.0918C33.9856 84.0918 31.3711 86.7063 31.3711 89.9315C31.3711 93.1566 33.9856 95.7711 37.2109 95.7711Z" fill="url(#paint11_linear_9243_967609)"/>
<path d="M37.2109 95.7711C40.4361 95.7711 43.0506 93.1566 43.0506 89.9315C43.0506 86.7063 40.4361 84.0918 37.2109 84.0918C33.9856 84.0918 31.3711 86.7063 31.3711 89.9315C31.3711 93.1566 33.9856 95.7711 37.2109 95.7711Z" fill="url(#paint12_linear_9243_967609)"/>
<path d="M41.5507 92.6567C40.6433 94.101 39.0382 95.0629 37.207 95.0629C35.3758 95.0629 33.768 94.101 32.8633 92.6567C33.6481 91.4959 34.9588 90.6729 36.4876 90.474C35.7546 90.1906 35.2341 89.4767 35.2341 88.6428C35.2341 87.5528 36.117 86.6699 37.207 86.6699C38.297 86.6699 39.1772 87.5528 39.1772 88.6428C39.1772 89.4767 38.6567 90.1906 37.9237 90.474C39.4524 90.6729 40.7632 91.4959 41.5507 92.6567Z" fill="white"/>
<rect x="45.1758" y="84.0918" width="20.1737" height="3.18527" rx="0.530883" fill="url(#paint13_linear_9243_967609)"/>
<rect x="45.1758" y="88.3389" width="38.2239" height="7.4323" rx="0.530883" fill="#D9D9D9"/>
<rect x="45.1758" y="88.3389" width="38.2239" height="7.4323" rx="0.530883" fill="url(#paint14_linear_9243_967609)"/>
</g>
<g filter="url(#filter0_d_9243_967609)">
<path d="M18.6319 50.1181C26.2553 50.1181 32.435 43.9376 32.435 36.3138C32.435 28.69 26.2553 22.5095 18.6319 22.5095C11.0086 22.5095 4.82886 28.69 4.82886 36.3138C4.82886 43.9376 11.0086 50.1181 18.6319 50.1181Z" fill="url(#paint15_linear_9243_967609)"/>
<path d="M18.6319 50.1181C26.2553 50.1181 32.435 43.9376 32.435 36.3138C32.435 28.69 26.2553 22.5095 18.6319 22.5095C11.0086 22.5095 4.82886 28.69 4.82886 36.3138C4.82886 43.9376 11.0086 50.1181 18.6319 50.1181Z" fill="url(#paint16_linear_9243_967609)"/>
<path d="M18.6319 50.1181C26.2553 50.1181 32.435 43.9376 32.435 36.3138C32.435 28.69 26.2553 22.5095 18.6319 22.5095C11.0086 22.5095 4.82886 28.69 4.82886 36.3138C4.82886 43.9376 11.0086 50.1181 18.6319 50.1181Z" stroke="white" stroke-width="2.12353"/>
<path d="M28.1107 42.2599C26.1308 45.4113 22.6289 47.5103 18.6335 47.5103C14.638 47.5103 11.1302 45.4113 9.15625 42.2599C10.8686 39.7269 13.7284 37.9311 17.0638 37.4971C15.4645 36.8787 14.3289 35.3208 14.3289 33.5013C14.3289 31.1228 16.2552 29.1963 18.6335 29.1963C21.0117 29.1963 22.9321 31.1228 22.9321 33.5013C22.9321 35.3208 21.7965 36.8787 20.1971 37.4971C23.5326 37.9311 26.3924 39.7269 28.1107 42.2599Z" fill="white"/>
</g>
<g filter="url(#filter1_d_9243_967609)">
<rect x="81.8125" y="85.0156" width="35.3571" height="35.3571" rx="17.6786" fill="url(#paint17_linear_9243_967609)"/>
</g>
<ellipse cx="99.3405" cy="102.692" rx="15.3248" ry="15.3246" fill="white"/>
<path d="M110.762 112.037C111.357 112.634 111.356 113.601 110.758 114.196C110.16 114.792 109.193 114.79 108.598 114.192L88.1795 93.6907C87.5843 93.0931 87.5863 92.1262 88.1839 91.531C88.7814 90.9359 89.7484 90.9378 90.3435 91.5354L110.762 112.037Z" fill="url(#paint18_linear_9243_967609)"/>
<path d="M110.762 112.037C111.357 112.634 111.356 113.601 110.758 114.196C110.16 114.792 109.193 114.79 108.598 114.192L88.1795 93.6907C87.5843 93.0931 87.5863 92.1262 88.1839 91.531C88.7814 90.9359 89.7484 90.9378 90.3435 91.5354L110.762 112.037Z" fill="url(#paint19_linear_9243_967609)"/>
<path d="M35.6172 35.7819C35.324 35.7819 35.0863 35.5442 35.0863 35.251C35.0863 34.9578 35.324 34.7201 35.6172 34.7201L35.6172 35.7819ZM98.262 81.9683L95.1969 76.6595L101.327 76.6595L98.262 81.9683ZM37.785 34.7201C38.0782 34.7201 38.3159 34.9578 38.3159 35.251C38.3159 35.5442 38.0782 35.7819 37.785 35.7819L37.785 34.7201ZM42.1206 35.7819C41.8274 35.7819 41.5897 35.5442 41.5897 35.251C41.5897 34.9578 41.8274 34.7201 42.1206 34.7201L42.1206 35.7819ZM46.4562 34.7201C46.7494 34.7201 46.9871 34.9578 46.9871 35.251C46.9871 35.5442 46.7494 35.7819 46.4562 35.7819L46.4562 34.7201ZM50.7918 35.7819C50.4986 35.7819 50.2609 35.5442 50.2609 35.251C50.2609 34.9578 50.4986 34.7201 50.7918 34.7201L50.7918 35.7819ZM55.1274 34.7201C55.4206 34.7201 55.6582 34.9578 55.6582 35.251C55.6582 35.5442 55.4206 35.7819 55.1274 35.7819L55.1274 34.7201ZM59.463 35.7819C59.1698 35.7819 58.9321 35.5442 58.9321 35.251C58.9321 34.9578 59.1698 34.7201 59.463 34.7201L59.463 35.7819ZM63.7985 34.7201C64.0917 34.7201 64.3294 34.9578 64.3294 35.251C64.3294 35.5442 64.0917 35.7819 63.7985 35.7819L63.7985 34.7201ZM68.1341 35.7819C67.8409 35.7819 67.6033 35.5442 67.6033 35.251C67.6033 34.9578 67.8409 34.7201 68.1341 34.7201L68.1341 35.7819ZM72.4697 34.7201C72.7629 34.7201 73.0006 34.9578 73.0006 35.251C73.0006 35.5442 72.7629 35.7819 72.4697 35.7819L72.4697 34.7201ZM76.8053 35.7819C76.5121 35.7819 76.2744 35.5442 76.2744 35.251C76.2744 34.9578 76.5121 34.7201 76.8053 34.7201L76.8053 35.7819ZM81.1409 34.7201C81.4341 34.7201 81.6718 34.9578 81.6718 35.251C81.6718 35.5442 81.4341 35.7819 81.1409 35.7819L81.1409 34.7201ZM85.4765 35.7819C85.1833 35.7819 84.9456 35.5442 84.9456 35.251C84.9456 34.9578 85.1833 34.7201 85.4765 34.7201L85.4765 35.7819ZM89.8195 34.9323C90.1071 34.9892 90.2942 35.2685 90.2373 35.5561C90.1804 35.8437 89.9011 36.0308 89.6134 35.9739L89.8195 34.9323ZM93.2483 37.4805C93.0047 37.3174 92.9394 36.9877 93.1025 36.744C93.2656 36.5004 93.5954 36.4351 93.839 36.5982L93.2483 37.4805ZM96.9147 39.674C97.0779 39.9176 97.0126 40.2473 96.7689 40.4105C96.5253 40.5736 96.1956 40.5083 96.0325 40.2646L96.9147 39.674ZM97.5391 43.8995C97.4822 43.6119 97.6692 43.3326 97.9569 43.2757C98.2445 43.2188 98.5238 43.4058 98.5807 43.6935L97.5391 43.8995ZM98.7929 48.1249C98.7929 48.4181 98.5552 48.6558 98.262 48.6558C97.9688 48.6558 97.7311 48.4181 97.7311 48.1249L98.7929 48.1249ZM97.7311 52.6373C97.7311 52.3441 97.9688 52.1064 98.262 52.1064C98.5552 52.1064 98.7929 52.3441 98.7929 52.6373L97.7311 52.6373ZM98.7929 57.1498C98.7929 57.443 98.5552 57.6807 98.262 57.6807C97.9688 57.6807 97.7311 57.443 97.7311 57.1498L98.7929 57.1498ZM97.7311 61.6622C97.7311 61.369 97.9688 61.1314 98.262 61.1314C98.5552 61.1314 98.7929 61.369 98.7929 61.6622L97.7311 61.6622ZM98.7929 66.1747C98.7929 66.4679 98.5552 66.7056 98.262 66.7056C97.9688 66.7056 97.7311 66.4679 97.7311 66.1747L98.7929 66.1747ZM97.7311 70.6871C97.7311 70.394 97.9688 70.1563 98.262 70.1563C98.5552 70.1563 98.7929 70.394 98.7929 70.6871L97.7311 70.6871ZM98.7929 75.1996C98.7929 75.4928 98.5552 75.7305 98.262 75.7305C97.9688 75.7305 97.7311 75.4928 97.7311 75.1996L98.7929 75.1996ZM97.7311 79.7121C97.7311 79.4189 97.9688 79.1812 98.262 79.1812C98.5552 79.1812 98.7929 79.4189 98.7929 79.7121L97.7311 79.7121ZM35.6172 34.7201L37.785 34.7201L37.785 35.7819L35.6172 35.7819L35.6172 34.7201ZM42.1206 34.7201L46.4562 34.7201L46.4562 35.7819L42.1206 35.7819L42.1206 34.7201ZM50.7918 34.7201L55.1274 34.7201L55.1274 35.7819L50.7918 35.7819L50.7918 34.7201ZM59.463 34.7201L63.7985 34.7201L63.7985 35.7819L59.463 35.7819L59.463 34.7201ZM68.1341 34.7201L72.4697 34.7201L72.4697 35.7819L68.1341 35.7819L68.1341 34.7201ZM76.8053 34.7201L81.1409 34.7201L81.1409 35.7819L76.8053 35.7819L76.8053 34.7201ZM85.4765 34.7201L87.6443 34.7201L87.6443 35.7819L85.4765 35.7819L85.4765 34.7201ZM87.6443 34.7201C88.3882 34.7201 89.1156 34.793 89.8195 34.9323L89.6134 35.9739C88.977 35.848 88.3186 35.7819 87.6443 35.7819L87.6443 34.7201ZM93.839 36.5982C95.0545 37.412 96.101 38.4584 96.9147 39.674L96.0325 40.2646C95.2959 39.1644 94.3485 38.2171 93.2483 37.4805L93.839 36.5982ZM98.5807 43.6935C98.7199 44.3974 98.7929 45.1248 98.7929 45.8686L97.7311 45.8686C97.7311 45.1943 97.665 44.536 97.5391 43.8995L98.5807 43.6935ZM98.7929 45.8686L98.7929 48.1249L97.7311 48.1249L97.7311 45.8686L98.7929 45.8686ZM98.7929 52.6373L98.7929 57.1498L97.7311 57.1498L97.7311 52.6373L98.7929 52.6373ZM98.7929 61.6622L98.7929 66.1747L97.7311 66.1747L97.7311 61.6622L98.7929 61.6622ZM98.7929 70.6871L98.7929 75.1996L97.7311 75.1996L97.7311 70.6871L98.7929 70.6871Z" fill="#EEF2FC"/>
<defs>
<filter id="filter0_d_9243_967609" x="2.256" y="20.945" width="34.7625" height="34.7635" filterUnits="userSpaceOnUse" color-interpolation-filters="sRGB">
<feFlood flood-opacity="0" result="BackgroundImageFix"/>
<feColorMatrix in="SourceAlpha" type="matrix" values="0 0 0 0 0 0 0 0 0 0 0 0 0 0 0 0 0 0 127 0" result="hardAlpha"/>
<feOffset dx="1.00641" dy="2.01283"/>
<feGaussianBlur stdDeviation="1.25802"/>
<feComposite in2="hardAlpha" operator="out"/>
<feColorMatrix type="matrix" values="0 0 0 0 0 0 0 0 0 0.175 0 0 0 0 0.4375 0 0 0 0.07 0"/>
<feBlend mode="normal" in2="BackgroundImageFix" result="effect1_dropShadow_9243_967609"/>
<feBlend mode="normal" in="SourceGraphic" in2="effect1_dropShadow_9243_967609" result="shape"/>
</filter>
<filter id="filter1_d_9243_967609" x="76.5037" y="80.7686" width="41.7261" height="41.728" filterUnits="userSpaceOnUse" color-interpolation-filters="sRGB">
<feFlood flood-opacity="0" result="BackgroundImageFix"/>
<feColorMatrix in="SourceAlpha" type="matrix" values="0 0 0 0 0 0 0 0 0 0 0 0 0 0 0 0 0 0 127 0" result="hardAlpha"/>
<feOffset dx="-2.12353" dy="-1.06177"/>
<feGaussianBlur stdDeviation="1.59265"/>
<feComposite in2="hardAlpha" operator="out"/>
<feColorMatrix type="matrix" values="0 0 0 0 0 0 0 0 0 0.175 0 0 0 0 0.4375 0 0 0 0.07 0"/>
<feBlend mode="normal" in2="BackgroundImageFix" result="effect1_dropShadow_9243_967609"/>
<feBlend mode="normal" in="SourceGraphic" in2="effect1_dropShadow_9243_967609" result="shape"/>
</filter>
<linearGradient id="paint0_linear_9243_967609" x1="29.3164" y1="49.8361" x2="81.0833" y2="104.499" gradientUnits="userSpaceOnUse">
<stop stop-color="white"/>
<stop offset="1" stop-color="#E2F1FA"/>
</linearGradient>
<linearGradient id="paint1_linear_9243_967609" x1="-15.9122" y1="38.2344" x2="-4.62363" y2="85.1831" gradientUnits="userSpaceOnUse">
<stop stop-color="#D2D9EE"/>
<stop offset="1" stop-color="#E7F0F8"/>
</linearGradient>
<linearGradient id="paint2_linear_9243_967609" x1="31.3709" y1="60.2023" x2="43.0501" y2="60.2023" gradientUnits="userSpaceOnUse">
<stop stop-color="#05E0E0"/>
<stop offset="1" stop-color="#02C8C8"/>
</linearGradient>
<linearGradient id="paint3_linear_9243_967609" x1="22.1796" y1="50.098" x2="51.0903" y2="69.5323" gradientUnits="userSpaceOnUse">
<stop stop-color="#D2D9EE"/>
<stop offset="1" stop-color="#E7F0F8"/>
</linearGradient>
<linearGradient id="paint4_linear_9243_967609" x1="29.2996" y1="53.1993" x2="33.0905" y2="69.3385" gradientUnits="userSpaceOnUse">
<stop stop-color="#D2D9EE"/>
<stop offset="1" stop-color="#E7F0F8"/>
</linearGradient>
<linearGradient id="paint5_linear_9243_967609" x1="15.0946" y1="55.8957" x2="25.7011" y2="92.5636" gradientUnits="userSpaceOnUse">
<stop stop-color="#D2D9EE"/>
<stop offset="1" stop-color="#E7F0F8"/>
</linearGradient>
<linearGradient id="paint6_linear_9243_967609" x1="31.3709" y1="75.0666" x2="43.0501" y2="75.0666" gradientUnits="userSpaceOnUse">
<stop stop-color="#05E0E0"/>
<stop offset="1" stop-color="#02C8C8"/>
</linearGradient>
<linearGradient id="paint7_linear_9243_967609" x1="22.1796" y1="64.9622" x2="51.0903" y2="84.3966" gradientUnits="userSpaceOnUse">
<stop stop-color="#D2D9EE"/>
<stop offset="1" stop-color="#E7F0F8"/>
</linearGradient>
<linearGradient id="paint8_linear_9243_967609" x1="31.3709" y1="75.0666" x2="43.0501" y2="75.0666" gradientUnits="userSpaceOnUse">
<stop stop-color="#05E0E0"/>
<stop offset="1" stop-color="#02C8C8"/>
</linearGradient>
<linearGradient id="paint9_linear_9243_967609" x1="29.2996" y1="68.0636" x2="33.0905" y2="84.2028" gradientUnits="userSpaceOnUse">
<stop stop-color="#D2D9EE"/>
<stop offset="1" stop-color="#E7F0F8"/>
</linearGradient>
<linearGradient id="paint10_linear_9243_967609" x1="15.0946" y1="70.76" x2="25.7011" y2="107.428" gradientUnits="userSpaceOnUse">
<stop stop-color="#D2D9EE"/>
<stop offset="1" stop-color="#E7F0F8"/>
</linearGradient>
<linearGradient id="paint11_linear_9243_967609" x1="31.3709" y1="89.9318" x2="43.0501" y2="89.9318" gradientUnits="userSpaceOnUse">
<stop stop-color="#05E0E0"/>
<stop offset="1" stop-color="#02C8C8"/>
</linearGradient>
<linearGradient id="paint12_linear_9243_967609" x1="36.6624" y1="82.2777" x2="40.9356" y2="97.0983" gradientUnits="userSpaceOnUse">
<stop stop-color="#FFB74B"/>
<stop offset="1" stop-color="#FCCA80"/>
</linearGradient>
<linearGradient id="paint13_linear_9243_967609" x1="29.2996" y1="82.9288" x2="33.0905" y2="99.068" gradientUnits="userSpaceOnUse">
<stop stop-color="#D2D9EE"/>
<stop offset="1" stop-color="#E7F0F8"/>
</linearGradient>
<linearGradient id="paint14_linear_9243_967609" x1="15.0946" y1="85.6252" x2="25.7011" y2="122.293" gradientUnits="userSpaceOnUse">
<stop stop-color="#D2D9EE"/>
<stop offset="1" stop-color="#E7F0F8"/>
</linearGradient>
<linearGradient id="paint15_linear_9243_967609" x1="5.89011" y1="36.3146" x2="31.3721" y2="36.3146" gradientUnits="userSpaceOnUse">
<stop stop-color="#05E0E0"/>
<stop offset="1" stop-color="#02C8C8"/>
</linearGradient>
<linearGradient id="paint16_linear_9243_967609" x1="17.4352" y1="19.6128" x2="26.7605" y2="51.9517" gradientUnits="userSpaceOnUse">
<stop stop-color="#FF4B4B"/>
<stop offset="1" stop-color="#FFB6B6"/>
</linearGradient>
<linearGradient id="paint17_linear_9243_967609" x1="97.8306" y1="79.5237" x2="110.767" y2="124.39" gradientUnits="userSpaceOnUse">
<stop stop-color="#FF4B4B"/>
<stop offset="1" stop-color="#FFB6B6"/>
</linearGradient>
<linearGradient id="paint18_linear_9243_967609" x1="100.307" y1="102.264" x2="98.8537" y2="103.707" gradientUnits="userSpaceOnUse">
<stop stop-color="#05E0E0"/>
<stop offset="1" stop-color="#02C8C8"/>
</linearGradient>
<linearGradient id="paint19_linear_9243_967609" x1="98.8135" y1="93.5324" x2="104.04" y2="111.602" gradientUnits="userSpaceOnUse">
<stop stop-color="#FF4B4B"/>
<stop offset="1" stop-color="#FFB6B6"/>
</linearGradient>
<clipPath id="clip0_9243_967609">
<rect width="57.4718" height="57.4707" fill="white" transform="translate(29.3164 41.626)"/>
</clipPath>
</defs>
</svg>
