<svg width="156" height="156" viewBox="0 0 156 156" fill="none" xmlns="http://www.w3.org/2000/svg">
<path d="M68.293 27.7441L81.1546 30.546L84.3329 39.4563L101.31 43.1548L85.3116 116.595L50.5851 109.03L68.293 27.7441Z" fill="#D0DEEB"/>
<path d="M52.625 31.3828L68.9038 31.1606L75.2253 41.0062L96.7133 40.7128L97.9824 133.665L54.0297 134.265L52.625 31.3828Z" fill="url(#paint0_linear_9348_424082)"/>
<path d="M52.625 31.3828L68.9038 31.1606L75.2253 41.0062L96.7133 40.7128L97.9824 133.665L54.0297 134.265L52.625 31.3828Z" fill="#E1EDF8"/>
<path d="M38.2852 34.3447H55.787L62.4377 45.0209H120.544V144.957H38.2852V34.3447Z" fill="url(#paint1_linear_9348_424082)"/>
<circle cx="79.2408" cy="95.9498" r="30.8033" fill="url(#paint2_linear_9348_424082)"/>
<path d="M60.1719 113.333L61.0298 105.589C61.2151 103.956 63.7834 102.643 66.9907 102.427C68.8946 102.079 70.7985 101.816 72.7087 101.62V101.626C72.696 104.284 72.8493 107.072 73.2518 109.933C73.8779 114.415 74.6254 118.562 75.4049 122.125C75.2826 122.117 75.1605 122.108 75.0385 122.098C69.1125 120.95 63.9079 117.779 60.1719 113.333Z" fill="white"/>
<path d="M79.7316 122.571C79.1626 122.565 78.5981 122.541 78.0384 122.499L78.5227 110.59L77.9413 109.684L78.7207 107.269H81.2507L82.0302 109.684L81.4488 110.59L81.933 122.5C81.3575 122.543 80.7768 122.567 80.1914 122.571C80.1229 122.571 80.0543 122.572 79.9857 122.572C79.901 122.572 79.8163 122.571 79.7316 122.571Z" fill="white"/>
<path d="M85.0069 122.086C84.8582 122.097 84.7093 122.108 84.5602 122.119C85.3396 118.556 86.0871 114.415 86.7132 109.927C87.1157 107.059 87.2691 104.271 87.2563 101.62C89.1666 101.816 91.0769 102.072 92.9744 102.427C96.1816 102.643 98.75 103.956 98.9289 105.589L99.7932 113.354C96.0717 117.773 90.8977 120.929 85.0069 122.086Z" fill="white"/>
<path fill-rule="evenodd" clip-rule="evenodd" d="M88.6299 95.6154C88.3744 96.4619 88.106 97.2362 87.8441 97.9252L87.8377 97.9186C87.563 98.647 83.391 103.739 82.1132 103.739C81.8841 103.739 81.6002 103.774 81.2886 103.813C80.8183 103.872 80.2847 103.939 79.7813 103.903C79.2777 103.939 78.7256 103.872 78.239 103.813C77.9169 103.774 77.6234 103.739 77.3918 103.739C76.1204 103.739 71.9421 98.647 71.6673 97.9186C71.4054 97.2165 71.1307 96.4225 70.8751 95.5629C70.3832 95.2545 69.8018 94.2309 69.3482 92.6035C68.7476 90.4775 68.8434 88.3777 69.6229 88.1415C69.6548 88.1283 69.6868 88.1218 69.7187 88.1218C69.3929 78.7777 71.5524 73.4692 79.7302 73.5479H79.7813C87.2308 73.351 90.0291 79.0599 89.7799 88.2727C89.978 88.1283 90.1697 88.0758 90.3549 88.148C91.1408 88.3777 91.2302 90.484 90.6297 92.6101C90.0355 94.7296 89.2305 95.8385 88.6874 95.6548C88.6746 95.6504 88.6619 95.6402 88.6491 95.63C88.6427 95.6249 88.6363 95.6198 88.6299 95.6154ZM80.5863 93.4434C82.2027 93.4434 83.4741 94.0143 83.8638 94.6639H83.8702C84.4899 96.0026 85.0138 96.685 85.461 96.9343C86.643 95.2939 87.6333 93.03 88.3105 90.0772C88.1827 87.6034 87.8824 83.791 87.2308 82.0324C86.6749 80.5166 85.806 79.3289 85.1416 78.5677C82.2793 80.9694 77.5835 82.5376 72.2615 82.5376C72.1206 83.2156 71.9241 83.8936 71.709 84.6359C71.5243 85.2731 71.3259 85.9578 71.1371 86.7307C71.1754 87.3212 71.2457 87.9315 71.3543 88.5549C72.0187 92.2623 73.1368 95.0249 74.5168 96.9343C74.964 96.685 75.4879 96.0026 76.1076 94.6639C76.4974 94.0078 77.8071 93.4434 79.4235 93.4434C79.4293 93.4434 79.5335 93.5189 79.6517 93.6046C79.7942 93.7078 79.9572 93.8258 79.9921 93.8437C80.0033 93.8514 80.1973 93.7137 80.3607 93.5978C80.4773 93.5151 80.5783 93.4434 80.5863 93.4434ZM80.6885 97.1706C81.3849 97.1706 81.9535 96.6194 81.9535 95.9304H81.9471C81.9471 95.832 81.9343 95.7401 81.9152 95.6548H78.0499C78.0307 95.7401 78.0179 95.832 78.0179 95.9304C78.0179 96.6128 78.5865 97.1706 79.2829 97.1706H80.6885Z" fill="white"/>
<g filter="url(#filter0_d_9348_424082)">
<rect x="6.6875" y="13.3711" width="37.804" height="37.804" rx="18.902" fill="url(#paint3_linear_9348_424082)"/>
</g>
<path d="M16.6995 41.0495C15.1251 39.5273 14.0616 37.7648 13.4678 35.7486C13.4263 35.6284 13.5506 35.3747 13.6749 35.2946C14.255 34.9341 14.8765 34.627 15.4565 34.2665C15.5946 34.173 15.7051 33.946 15.7189 33.7725C15.7466 32.8244 15.7466 31.8631 15.7189 30.9151C15.7189 30.7281 15.5808 30.4878 15.4151 30.381C14.7522 29.967 14.0754 29.6065 13.3711 29.2193C13.965 27.0562 15.056 25.227 16.6995 23.6247C17.3901 24.0119 18.0944 24.3858 18.7711 24.7863C19.0059 24.9199 19.1578 24.9065 19.4064 24.7596C20.2213 24.2522 21.0637 23.7849 21.92 23.3576C22.1824 23.2241 22.2791 23.1173 22.2791 22.8369C22.2653 22.0758 22.2791 21.3147 22.2791 20.5269C24.0331 20.0329 25.7871 19.9261 27.5549 20.2198C28.9636 20.4602 29.0326 20.4735 28.9359 21.8221C28.8669 22.8102 29.1017 23.4244 30.1651 23.7315C30.7314 23.8917 31.2424 24.3057 31.7257 24.6662C32.0572 24.9199 32.2782 24.9065 32.6096 24.7062C33.1897 24.3457 33.8112 24.0253 34.405 23.7048C34.4327 23.6914 34.4741 23.6781 34.557 23.638C36.1728 25.1736 37.2639 27.0295 37.8854 29.206C37.1948 29.5932 36.5319 29.9804 35.8552 30.3409C35.579 30.4878 35.5237 30.648 35.5237 30.9418C35.5513 31.8631 35.5652 32.7844 35.5237 33.6923C35.5099 34.0261 35.6066 34.173 35.8828 34.3199C36.5457 34.6671 37.2087 35.0543 37.844 35.4148C37.4296 37.3242 36.0485 39.6475 34.5155 41.0094C33.8388 40.6355 33.1344 40.2617 32.4577 39.8611C32.2091 39.7142 32.0572 39.7543 31.8224 39.9012C31.0214 40.3952 30.2065 40.8625 29.3503 41.2898C29.0464 41.4367 28.9359 41.5836 28.9497 41.8907C28.9636 42.5182 28.9636 43.1591 28.9497 43.7867C28.9497 43.9336 28.8255 44.1472 28.715 44.1873C27.3477 44.7481 23.8121 44.6813 22.2791 44.0804C22.2791 43.3327 22.2791 42.5716 22.2791 41.8239C22.2791 41.5569 22.1962 41.4367 21.9338 41.3032C21.0776 40.8759 20.2351 40.3952 19.4203 39.9012C19.1855 39.7543 19.0335 39.7142 18.785 39.8611C18.122 40.2617 17.4315 40.6222 16.6995 41.0228V41.0495ZM30.2894 32.3438C30.2894 29.8469 28.2178 27.8173 25.6351 27.8173C23.0663 27.8173 20.9533 29.8469 20.9395 32.3304C20.9395 34.8006 23.0525 36.8568 25.6075 36.8702C28.1763 36.8702 30.2756 34.854 30.2894 32.3571V32.3438Z" fill="black"/>
<path d="M16.6995 41.0495C15.1251 39.5273 14.0616 37.7648 13.4678 35.7486C13.4263 35.6284 13.5506 35.3747 13.6749 35.2946C14.255 34.9341 14.8765 34.627 15.4565 34.2665C15.5946 34.173 15.7051 33.946 15.7189 33.7725C15.7466 32.8244 15.7466 31.8631 15.7189 30.9151C15.7189 30.7281 15.5808 30.4878 15.4151 30.381C14.7522 29.967 14.0754 29.6065 13.3711 29.2193C13.965 27.0562 15.056 25.227 16.6995 23.6247C17.3901 24.0119 18.0944 24.3858 18.7711 24.7863C19.0059 24.9199 19.1578 24.9065 19.4064 24.7596C20.2213 24.2522 21.0637 23.7849 21.92 23.3576C22.1824 23.2241 22.2791 23.1173 22.2791 22.8369C22.2653 22.0758 22.2791 21.3147 22.2791 20.5269C24.0331 20.0329 25.7871 19.9261 27.5549 20.2198C28.9636 20.4602 29.0326 20.4735 28.9359 21.8221C28.8669 22.8102 29.1017 23.4244 30.1651 23.7315C30.7314 23.8917 31.2424 24.3057 31.7257 24.6662C32.0572 24.9199 32.2782 24.9065 32.6096 24.7062C33.1897 24.3457 33.8112 24.0253 34.405 23.7048C34.4327 23.6914 34.4741 23.6781 34.557 23.638C36.1728 25.1736 37.2639 27.0295 37.8854 29.206C37.1948 29.5932 36.5319 29.9804 35.8552 30.3409C35.579 30.4878 35.5237 30.648 35.5237 30.9418C35.5513 31.8631 35.5652 32.7844 35.5237 33.6923C35.5099 34.0261 35.6066 34.173 35.8828 34.3199C36.5457 34.6671 37.2087 35.0543 37.844 35.4148C37.4296 37.3242 36.0485 39.6475 34.5155 41.0094C33.8388 40.6355 33.1344 40.2617 32.4577 39.8611C32.2091 39.7142 32.0572 39.7543 31.8224 39.9012C31.0214 40.3952 30.2065 40.8625 29.3503 41.2898C29.0464 41.4367 28.9359 41.5836 28.9497 41.8907C28.9636 42.5182 28.9636 43.1591 28.9497 43.7867C28.9497 43.9336 28.8255 44.1472 28.715 44.1873C27.3477 44.7481 23.8121 44.6813 22.2791 44.0804C22.2791 43.3327 22.2791 42.5716 22.2791 41.8239C22.2791 41.5569 22.1962 41.4367 21.9338 41.3032C21.0776 40.8759 20.2351 40.3952 19.4203 39.9012C19.1855 39.7543 19.0335 39.7142 18.785 39.8611C18.122 40.2617 17.4315 40.6222 16.6995 41.0228V41.0495ZM30.2894 32.3438C30.2894 29.8469 28.2178 27.8173 25.6351 27.8173C23.0663 27.8173 20.9533 29.8469 20.9395 32.3304C20.9395 34.8006 23.0525 36.8568 25.6075 36.8702C28.1763 36.8702 30.2756 34.854 30.2894 32.3571V32.3438Z" fill="white"/>
<path d="M25.936 53.9756C25.936 53.7823 25.7793 53.6255 25.5859 53.6255C25.3926 53.6255 25.2359 53.7823 25.2359 53.9756H25.936ZM35.387 74.2778L31.8866 72.2568V76.2987L35.387 74.2778ZM25.2359 53.9756V69.5926H25.936V53.9756H25.2359ZM30.2711 74.6278H32.2366V73.9277H30.2711V74.6278ZM25.2359 69.5926C25.2359 72.3735 27.4902 74.6278 30.2711 74.6278V73.9277C27.8769 73.9277 25.936 71.9868 25.936 69.5926H25.2359Z" fill="#E0E4EE"/>
<defs>
<filter id="filter0_d_9348_424082" x="5.17429" y="12.8667" width="42.8487" height="42.8478" filterUnits="userSpaceOnUse" color-interpolation-filters="sRGB">
<feFlood flood-opacity="0" result="BackgroundImageFix"/>
<feColorMatrix in="SourceAlpha" type="matrix" values="0 0 0 0 0 0 0 0 0 0 0 0 0 0 0 0 0 0 127 0" result="hardAlpha"/>
<feOffset dx="1.00881" dy="2.01762"/>
<feGaussianBlur stdDeviation="1.26101"/>
<feComposite in2="hardAlpha" operator="out"/>
<feColorMatrix type="matrix" values="0 0 0 0 0 0 0 0 0 0.175 0 0 0 0 0.4375 0 0 0 0.07 0"/>
<feBlend mode="normal" in2="BackgroundImageFix" result="effect1_dropShadow_9348_424082"/>
<feBlend mode="normal" in="SourceGraphic" in2="effect1_dropShadow_9348_424082" result="shape"/>
</filter>
<linearGradient id="paint0_linear_9348_424082" x1="3.16836" y1="-7.95906" x2="123.181" y2="139.221" gradientUnits="userSpaceOnUse">
<stop stop-color="white"/>
<stop offset="1" stop-color="#E2F1FA"/>
</linearGradient>
<linearGradient id="paint1_linear_9348_424082" x1="-14.3" y1="-8.67096" x2="112.545" y2="151.299" gradientUnits="userSpaceOnUse">
<stop stop-color="white"/>
<stop offset="1" stop-color="#E2F1FA"/>
</linearGradient>
<linearGradient id="paint2_linear_9348_424082" x1="-0.045111" y1="42.6529" x2="152.453" y2="145.163" gradientUnits="userSpaceOnUse">
<stop stop-color="#D2D9EE"/>
<stop offset="1" stop-color="#E7F0F8"/>
</linearGradient>
<linearGradient id="paint3_linear_9348_424082" x1="-23.0632" y1="-0.4318" x2="70.5151" y2="62.4723" gradientUnits="userSpaceOnUse">
<stop stop-color="#D2D9EE"/>
<stop offset="1" stop-color="#E7F0F8"/>
</linearGradient>
</defs>
</svg>
