<svg width="200" height="200" viewBox="0 0 200 200" fill="none" xmlns="http://www.w3.org/2000/svg">
<path d="M150.473 42.9043H64.1368C62.618 42.9043 61.3867 44.4154 61.3867 46.2793V152.238C61.3867 154.102 62.618 155.613 64.1368 155.613H150.473C151.992 155.613 153.223 154.102 153.223 152.238V46.2793C153.223 44.4154 151.992 42.9043 150.473 42.9043Z" fill="url(#paint0_linear_9348_414421)"/>
<path d="M150.473 42.9043H64.1368C62.618 42.9043 61.3867 44.4154 61.3867 46.2793V152.238C61.3867 154.102 62.618 155.613 64.1368 155.613H150.473C151.992 155.613 153.223 154.102 153.223 152.238V46.2793C153.223 44.4154 151.992 42.9043 150.473 42.9043Z" fill="url(#paint1_linear_9348_414421)" stroke="#E1EDF8" stroke-width="5.35714"/>
<path fill-rule="evenodd" clip-rule="evenodd" d="M132.072 85.7483C132.119 85.1722 132.142 84.5898 132.142 84.0018C132.142 72.1671 122.548 62.5732 110.714 62.5732C98.8791 62.5732 89.2852 72.1671 89.2852 84.0018C89.2852 95.8365 98.8791 105.43 110.714 105.43C115.426 105.43 119.782 103.91 123.32 101.332C125.107 103.772 127.993 105.357 131.249 105.357C136.674 105.357 141.071 100.96 141.071 95.5357C141.071 90.3886 137.111 86.1662 132.072 85.7483Z" fill="url(#paint2_linear_9348_414421)"/>
<path d="M96.4297 97.1779L97.0483 91.8193C97.182 90.6886 99.034 89.7804 101.347 89.6305C102.72 89.3899 104.093 89.2082 105.47 89.072V89.0766C105.461 90.9156 105.572 92.8455 105.862 94.8254C106.313 97.9268 106.852 100.797 107.414 103.262C107.326 103.256 107.238 103.25 107.15 103.244C102.877 102.449 99.1238 100.255 96.4297 97.1779Z" fill="white"/>
<path d="M110.534 103.57C110.124 103.567 109.717 103.55 109.313 103.521L109.663 95.2794L109.243 94.6528L109.805 92.9817H111.63L112.192 94.6528L111.773 95.2794L112.122 103.522C111.707 103.551 111.288 103.568 110.866 103.571C110.817 103.571 110.767 103.571 110.718 103.571C110.657 103.571 110.596 103.571 110.534 103.57Z" fill="white"/>
<path d="M114.339 103.235C114.231 103.243 114.124 103.251 114.016 103.258C114.578 100.792 115.117 97.9268 115.569 94.8208C115.859 92.8364 115.97 90.9065 115.961 89.072C117.338 89.2082 118.716 89.3853 120.084 89.6305C122.397 89.7804 124.249 90.6886 124.378 91.8193L125.001 97.1923C122.317 100.251 118.586 102.435 114.339 103.235Z" fill="white"/>
<path fill-rule="evenodd" clip-rule="evenodd" d="M116.951 84.9171C116.767 85.5029 116.573 86.0387 116.384 86.5155L116.38 86.5109C116.182 87.015 113.173 90.5387 112.252 90.5387C112.087 90.5387 111.882 90.5632 111.657 90.5901C111.318 90.6308 110.933 90.6768 110.57 90.6523C110.207 90.6768 109.809 90.6307 109.458 90.5901C109.226 90.5632 109.014 90.5387 108.847 90.5387C107.93 90.5387 104.917 87.015 104.719 86.5109C104.53 86.0251 104.332 85.4756 104.148 84.8808C103.793 84.6673 103.374 83.9589 103.047 82.8328C102.614 81.3615 102.683 79.9085 103.245 79.745C103.268 79.7359 103.291 79.7314 103.314 79.7314C103.079 73.2651 104.636 69.5915 110.533 69.646H110.57C115.942 69.5098 117.96 73.4604 117.78 79.8358C117.923 79.7359 118.061 79.6996 118.195 79.7495C118.762 79.9085 118.826 81.3661 118.393 82.8373C117.965 84.3041 117.384 85.0715 116.993 84.9443C116.983 84.9413 116.974 84.9342 116.965 84.9272C116.96 84.9236 116.956 84.9201 116.951 84.9171ZM111.151 83.414C112.316 83.414 113.233 83.8091 113.514 84.2586H113.519C113.966 85.185 114.343 85.6572 114.666 85.8298C115.518 84.6946 116.232 83.128 116.721 81.0846C116.629 79.3726 116.412 76.7344 115.942 75.5174C115.541 74.4684 114.915 73.6465 114.436 73.1198C112.372 74.7818 108.985 75.867 105.148 75.867C105.046 76.3362 104.904 76.8054 104.749 77.3191C104.616 77.76 104.473 78.2339 104.337 78.7687C104.364 79.1774 104.415 79.5997 104.493 80.0311C104.973 82.5967 105.779 84.5084 106.774 85.8298C107.096 85.6572 107.474 85.185 107.921 84.2586C108.202 83.8046 109.147 83.414 110.312 83.414C110.316 83.414 110.392 83.4663 110.477 83.5255C110.58 83.597 110.697 83.6786 110.722 83.691C110.73 83.6963 110.87 83.6011 110.988 83.5209C111.072 83.4636 111.145 83.414 111.151 83.414ZM111.224 85.9933C111.727 85.9933 112.137 85.6118 112.137 85.135H112.132C112.132 85.0669 112.123 85.0034 112.109 84.9443H109.322C109.308 85.0034 109.299 85.0669 109.299 85.135C109.299 85.6073 109.709 85.9933 110.211 85.9933H111.224Z" fill="white"/>
<rect x="122.321" y="86.6067" width="17.8571" height="17.8571" rx="8.92856" fill="url(#paint3_linear_9348_414421)" stroke="white" stroke-width="1.78571"/>
<path fill-rule="evenodd" clip-rule="evenodd" d="M131.253 90.1787C130.76 90.1787 130.36 90.5785 130.36 91.0716V94.643H126.785C126.292 94.643 125.893 95.0427 125.893 95.5359C125.893 96.029 126.292 96.4287 126.785 96.4287H130.36V100C130.36 100.493 130.76 100.893 131.253 100.893C131.746 100.893 132.146 100.493 132.146 100V96.4287H135.714C136.207 96.4287 136.607 96.029 136.607 95.5359C136.607 95.0427 136.207 94.643 135.714 94.643H132.146V91.0716C132.146 90.5785 131.746 90.1787 131.253 90.1787Z" fill="white"/>
<path d="M117.308 118.042H79.4977C78.9877 118.042 78.5742 118.996 78.5742 120.172V128.435C78.5742 129.612 78.9877 130.565 79.4977 130.565H117.308C117.818 130.565 118.231 129.612 118.231 128.435V120.172C118.231 118.996 117.818 118.042 117.308 118.042Z" fill="white"/>
<path d="M138.714 118.042H122.794C122.579 118.042 122.405 118.996 122.405 120.172V128.435C122.405 129.612 122.579 130.565 122.794 130.565H138.714C138.929 130.565 139.103 129.612 139.103 128.435V120.172C139.103 118.996 138.929 118.042 138.714 118.042Z" fill="white"/>
<g filter="url(#filter0_d_9348_414421)">
<rect x="19.6445" y="17.8574" width="50.0928" height="50.0928" rx="25.0464" fill="url(#paint4_linear_9348_414421)"/>
</g>
<path fill-rule="evenodd" clip-rule="evenodd" d="M31.8809 52.2125C33.4024 53.734 35.8513 53.734 40.749 53.734H45.8518C45.4948 53.12 45.2944 52.4083 45.2944 51.6714C45.2944 50.6117 45.7089 49.6041 46.4075 48.8639H45.2944C44.7565 48.8639 44.3204 48.4278 44.3204 47.8899C44.3204 47.3519 44.7565 46.9159 45.2944 46.9159H47.7985C48.4626 45.2407 50.041 43.9938 52.0044 43.9938C54.0312 43.9938 55.6532 45.3293 56.275 47.0853L56.2936 47.0983C56.3334 46.0363 56.3334 44.7982 56.3334 43.3444V43.0198H30.3594V43.3444C30.3594 48.2421 30.3594 50.691 31.8809 52.2125ZM35.5542 50.1626C35.0162 50.1626 34.5802 49.7265 34.5802 49.1886L34.5802 46.5912C34.5802 46.0532 35.0162 45.6172 35.5542 45.6172C36.0921 45.6172 36.5282 46.0532 36.5282 46.5912V49.1886C36.5282 49.7265 36.0921 50.1626 35.5542 50.1626ZM39.4503 50.1626C38.9123 50.1626 38.4763 49.7265 38.4763 49.1886V46.5912C38.4763 46.0532 38.9123 45.6172 39.4503 45.6172C39.9882 45.6172 40.4243 46.0532 40.4243 46.5912V49.1886C40.4243 49.7265 39.9882 50.1626 39.4503 50.1626Z" fill="white"/>
<path fill-rule="evenodd" clip-rule="evenodd" d="M31.8809 31.8789C30.3594 33.4005 30.3594 35.8493 30.3594 40.747V41.0717H56.3334V40.747C56.3334 35.8493 56.3334 33.4005 54.8119 31.8789C53.2904 30.3574 50.8415 30.3574 45.9438 30.3574H40.749C35.8513 30.3574 33.4024 30.3574 31.8809 31.8789ZM39.4503 38.4743C38.9123 38.4743 38.4763 38.0382 38.4763 37.5003V34.9029C38.4763 34.3649 38.9123 33.9289 39.4503 33.9289C39.9882 33.9289 40.4243 34.3649 40.4243 34.9029V37.5003C40.4243 38.0382 39.9882 38.4743 39.4503 38.4743ZM34.5802 37.5003C34.5802 38.0382 35.0162 38.4743 35.5542 38.4743C36.0921 38.4743 36.5282 38.0382 36.5282 37.5003V34.9029C36.5282 34.3649 36.0921 33.9289 35.5542 33.9289C35.0162 33.9289 34.5802 34.3649 34.5802 34.9029L34.5802 37.5003ZM44.3204 36.2016C44.3204 35.6636 44.7565 35.2276 45.2944 35.2276H51.1386C51.6765 35.2276 52.1126 35.6636 52.1126 36.2016C52.1126 36.7395 51.6765 37.1756 51.1386 37.1756H45.2944C44.7565 37.1756 44.3204 36.7395 44.3204 36.2016Z" fill="white"/>
<path fill-rule="evenodd" clip-rule="evenodd" d="M54.5857 48.3842C54.4412 47.0102 53.3406 45.9418 52.0044 45.9418C50.9069 45.9418 49.9683 46.6626 49.588 47.6815C49.4712 47.9943 49.407 48.3352 49.407 48.692C49.407 49.028 49.4639 49.3499 49.568 49.6475C49.4459 49.6221 49.3197 49.6088 49.1905 49.6088C48.6193 49.6088 48.1054 49.8691 47.7491 50.2839C47.4343 50.6503 47.2425 51.1371 47.2425 51.6714C47.2425 52.8106 48.1147 53.734 49.1905 53.734H53.736C55.1705 53.734 56.3334 52.5027 56.3334 50.9839C56.3334 49.78 55.6029 48.7569 54.5857 48.3842Z" fill="white"/>
<path d="M54.5857 48.3842C54.4412 47.0102 53.3406 45.9418 52.0044 45.9418C50.9069 45.9418 49.9683 46.6626 49.588 47.6815C49.4712 47.9943 49.407 48.3352 49.407 48.692C49.407 49.028 49.4639 49.3499 49.568 49.6475C49.4459 49.6221 49.3197 49.6088 49.1905 49.6088C48.6193 49.6088 48.1054 49.8691 47.7491 50.2839C47.4343 50.6503 47.2425 51.1371 47.2425 51.6714C47.2425 52.8106 48.1147 53.734 49.1905 53.734H53.736C55.1705 53.734 56.3334 52.5027 56.3334 50.9839C56.3334 49.78 55.6029 48.7569 54.5857 48.3842Z" fill="white"/>
<path d="M139.102 138.914H73.4321C72.5462 138.914 71.8281 139.55 71.8281 140.334V145.843C71.8281 146.627 72.5462 147.263 73.4321 147.263H139.102C139.988 147.263 140.706 146.627 140.706 145.843V140.334C140.706 139.55 139.988 138.914 139.102 138.914Z" fill="white"/>
<path d="M126.1 155.614C126.1 140.629 138.248 128.48 153.234 128.48C159.947 128.48 166.09 130.918 170.828 134.958C176.666 139.935 180.367 147.342 180.367 155.614C180.367 170.599 168.219 182.747 153.234 182.747C149.501 182.747 145.944 181.993 142.706 180.629C132.949 176.518 126.1 166.866 126.1 155.614Z" fill="#05E0AC" stroke="white" stroke-width="3.77042"/>
<path d="M148.419 159.956C149.925 158.437 151.365 156.98 152.809 155.534C156.194 152.142 159.576 148.754 162.956 145.37C164.528 143.797 166.921 143.999 168.078 145.778C168.94 147.1 168.761 148.718 167.574 149.912C164.303 153.208 161.027 156.498 157.745 159.78C155.465 162.067 153.183 164.353 150.902 166.638C149.373 168.167 147.519 168.177 145.983 166.65C143.822 164.507 141.672 162.354 139.533 160.191C138.585 159.236 138.294 158.087 138.716 156.81C139.139 155.534 140.06 154.834 141.353 154.635C142.422 154.471 143.347 154.842 144.107 155.604C145.519 157.023 146.927 158.447 148.419 159.956Z" fill="white"/>
<path d="M41.5048 72.124C41.5048 71.5777 41.0619 71.1348 40.5156 71.1348C39.9693 71.1348 39.5264 71.5777 39.5264 72.124H41.5048ZM59.3004 99.2576L49.4085 93.5465V104.969L59.3004 99.2576ZM39.5264 72.124V92.996H41.5048V72.124H39.5264ZM46.7772 100.247H50.3977V98.2684H46.7772V100.247ZM39.5264 92.996C39.5264 97.0005 42.7727 100.247 46.7772 100.247V98.2684C43.8654 98.2684 41.5048 95.9079 41.5048 92.996H39.5264Z" fill="#EEF2FC"/>
<defs>
<filter id="filter0_d_9348_414421" x="16.4364" y="16.788" width="60.7876" height="60.7867" filterUnits="userSpaceOnUse" color-interpolation-filters="sRGB">
<feFlood flood-opacity="0" result="BackgroundImageFix"/>
<feColorMatrix in="SourceAlpha" type="matrix" values="0 0 0 0 0 0 0 0 0 0 0 0 0 0 0 0 0 0 127 0" result="hardAlpha"/>
<feOffset dx="2.13878" dy="4.27756"/>
<feGaussianBlur stdDeviation="2.67347"/>
<feComposite in2="hardAlpha" operator="out"/>
<feColorMatrix type="matrix" values="0 0 0 0 0 0 0 0 0 0.175 0 0 0 0 0.4375 0 0 0 0.07 0"/>
<feBlend mode="normal" in2="BackgroundImageFix" result="effect1_dropShadow_9348_414421"/>
<feBlend mode="normal" in="SourceGraphic" in2="effect1_dropShadow_9348_414421" result="shape"/>
</filter>
<linearGradient id="paint0_linear_9348_414421" x1="35.2967" y1="-0.926872" x2="167.626" y2="142.307" gradientUnits="userSpaceOnUse">
<stop stop-color="white"/>
<stop offset="1" stop-color="#E2F1FA"/>
</linearGradient>
<linearGradient id="paint1_linear_9348_414421" x1="35.2967" y1="-0.926872" x2="167.626" y2="142.307" gradientUnits="userSpaceOnUse">
<stop stop-color="white"/>
<stop offset="1" stop-color="#E2F1FA"/>
</linearGradient>
<linearGradient id="paint2_linear_9348_414421" x1="118.043" y1="96.3803" x2="144.751" y2="96.3803" gradientUnits="userSpaceOnUse">
<stop stop-color="#05E0E0"/>
<stop offset="1" stop-color="#02C8C8"/>
</linearGradient>
<linearGradient id="paint3_linear_9348_414421" x1="118.043" y1="94.5941" x2="144.751" y2="94.5941" gradientUnits="userSpaceOnUse">
<stop stop-color="#05E0E0"/>
<stop offset="1" stop-color="#02C8C8"/>
</linearGradient>
<linearGradient id="paint4_linear_9348_414421" x1="19.6435" y1="42.9053" x2="69.735" y2="42.9053" gradientUnits="userSpaceOnUse">
<stop stop-color="#05E0E0"/>
<stop offset="1" stop-color="#02C8C8"/>
</linearGradient>
</defs>
</svg>
