<svg width="200" height="200" viewBox="0 0 200 200" fill="none" xmlns="http://www.w3.org/2000/svg">
<path d="M155.776 40.3477H65.9396C64.3593 40.3477 63.0781 41.92 63.0781 43.8595V154.114C63.0781 156.053 64.3593 157.626 65.9396 157.626H155.776C157.357 157.626 158.638 156.053 158.638 154.114V43.8595C158.638 41.92 157.357 40.3477 155.776 40.3477Z" fill="url(#paint0_linear_9348_414453)"/>
<path d="M155.776 40.3477H65.9396C64.3593 40.3477 63.0781 41.92 63.0781 43.8595V154.114C63.0781 156.053 64.3593 157.626 65.9396 157.626H155.776C157.357 157.626 158.638 156.053 158.638 154.114V43.8595C158.638 41.92 157.357 40.3477 155.776 40.3477Z" fill="url(#paint1_linear_9348_414453)" stroke="#E1EDF8" stroke-width="5.35714"/>
<path fill-rule="evenodd" clip-rule="evenodd" d="M132.074 82.177C132.121 81.601 132.144 81.0185 132.144 80.4305C132.144 68.5959 122.55 59.002 110.716 59.002C98.881 59.002 89.2871 68.5959 89.2871 80.4305C89.2871 92.2652 98.881 101.859 110.716 101.859C115.428 101.859 119.784 100.338 123.322 97.7606C125.109 100.201 127.995 101.786 131.251 101.786C136.676 101.786 141.073 97.3886 141.073 91.9644C141.073 86.8173 137.113 82.5949 132.074 82.177Z" fill="url(#paint2_linear_9348_414453)"/>
<path d="M96.4277 93.6066L97.0464 88.248C97.18 87.1173 99.0321 86.2091 101.345 86.0593C102.718 85.8186 104.091 85.637 105.468 85.5007V85.5053C105.459 87.3443 105.57 89.2742 105.86 91.2541C106.311 94.3555 106.85 97.2254 107.412 99.6911C107.324 99.6851 107.236 99.6789 107.148 99.6724C102.875 98.8775 99.1218 96.6833 96.4277 93.6066Z" fill="white"/>
<path d="M110.532 99.9992C110.122 99.9953 109.715 99.9787 109.312 99.9499L109.661 91.7082L109.241 91.0815L109.804 89.4105H111.628L112.19 91.0815L111.771 91.7082L112.12 99.9504C111.705 99.98 111.286 99.9965 110.864 99.9996C110.815 99.9998 110.765 99.9999 110.716 99.9999C110.655 99.9999 110.594 99.9996 110.532 99.9992Z" fill="white"/>
<path d="M114.337 99.6639C114.229 99.6718 114.122 99.6794 114.014 99.6865C114.576 97.2208 115.116 94.3555 115.567 91.2495C115.857 89.2651 115.968 87.3353 115.959 85.5007C117.336 85.637 118.714 85.8141 120.082 86.0593C122.395 86.2091 124.247 87.1173 124.376 88.248L124.999 93.621C122.315 96.6793 118.584 98.8633 114.337 99.6639Z" fill="white"/>
<path fill-rule="evenodd" clip-rule="evenodd" d="M116.949 81.3458C116.765 81.9316 116.571 82.4674 116.382 82.9442L116.378 82.9397C116.18 83.4437 113.171 86.9674 112.25 86.9674C112.085 86.9674 111.88 86.992 111.655 87.0189C111.316 87.0595 110.931 87.1055 110.568 87.081C110.205 87.1056 109.807 87.0595 109.456 87.0188C109.224 86.9919 109.012 86.9674 108.845 86.9674C107.928 86.9674 104.915 83.4437 104.717 82.9397C104.528 82.4538 104.33 81.9043 104.146 81.3095C103.791 81.096 103.372 80.3877 103.045 79.2615C102.612 77.7903 102.681 76.3372 103.243 76.1737C103.266 76.1646 103.289 76.1601 103.312 76.1601C103.077 69.6938 104.634 66.0202 110.531 66.0747H110.568C115.94 65.9385 117.958 69.8891 117.778 76.2645C117.921 76.1646 118.059 76.1283 118.193 76.1782C118.76 76.3372 118.824 77.7948 118.391 79.2661C117.963 80.7328 117.382 81.5002 116.991 81.373C116.981 81.37 116.972 81.3629 116.963 81.3559C116.958 81.3524 116.954 81.3488 116.949 81.3458ZM111.149 79.8427C112.314 79.8427 113.231 80.2378 113.512 80.6874H113.517C113.964 81.6137 114.342 82.086 114.664 82.2585C115.516 81.1233 116.23 79.5567 116.719 77.5133C116.627 75.8013 116.41 73.1631 115.94 71.9461C115.539 70.8972 114.913 70.0752 114.434 69.5485C112.37 71.2105 108.983 72.2958 105.146 72.2958C105.044 72.7649 104.902 73.2341 104.747 73.7478C104.614 74.1888 104.471 74.6626 104.335 75.1974C104.363 75.6061 104.413 76.0284 104.492 76.4598C104.971 79.0254 105.777 80.9371 106.772 82.2585C107.095 82.086 107.472 81.6137 107.919 80.6874C108.2 80.2333 109.145 79.8427 110.31 79.8427C110.314 79.8427 110.39 79.895 110.475 79.9542C110.578 80.0257 110.695 80.1073 110.72 80.1197C110.728 80.125 110.868 80.0298 110.986 79.9496C111.07 79.8923 111.143 79.8427 111.149 79.8427ZM111.223 82.422C111.725 82.422 112.135 82.0406 112.135 81.5638H112.13C112.13 81.4956 112.121 81.4321 112.107 81.373H109.32C109.306 81.4321 109.297 81.4956 109.297 81.5638C109.297 82.036 109.707 82.422 110.209 82.422H111.223Z" fill="white"/>
<rect x="122.321" y="83.0354" width="17.8571" height="17.8571" rx="8.92856" fill="url(#paint3_linear_9348_414453)" stroke="white" stroke-width="1.78571"/>
<path fill-rule="evenodd" clip-rule="evenodd" d="M131.253 86.6064C130.76 86.6064 130.36 87.0062 130.36 87.4993V91.0707H126.785C126.292 91.0707 125.893 91.4705 125.893 91.9636C125.893 92.4567 126.292 92.8564 126.785 92.8564H130.36V96.4279C130.36 96.921 130.76 97.3207 131.253 97.3207C131.746 97.3207 132.146 96.921 132.146 96.4279V92.8564H135.714C136.207 92.8564 136.607 92.4567 136.607 91.9636C136.607 91.4705 136.207 91.0707 135.714 91.0707H132.146V87.4993C132.146 87.0062 131.746 86.6064 131.253 86.6064Z" fill="white"/>
<g filter="url(#filter0_d_9348_414453)">
<rect x="19.6426" y="14.2852" width="52.1236" height="52.1236" rx="26.0618" fill="url(#paint4_linear_9348_414453)"/>
</g>
<path fill-rule="evenodd" clip-rule="evenodd" d="M31.8789 50.4254C33.4005 51.9469 35.8493 51.9469 40.747 51.9469H45.8499C45.4929 51.3329 45.2925 50.6212 45.2925 49.8843C45.2925 48.8245 45.707 47.817 46.4056 47.0768H45.2925C44.7545 47.0768 44.3185 46.6407 44.3185 46.1028C44.3185 45.5648 44.7545 45.1288 45.2925 45.1288H47.7966C48.4606 43.4536 50.0391 42.2067 52.0024 42.2067C54.0293 42.2067 55.6512 43.5421 56.273 45.2982L56.2917 45.3112C56.3314 44.2492 56.3314 43.0111 56.3314 41.5573V41.2327H30.3574V41.5573C30.3574 46.455 30.3574 48.9039 31.8789 50.4254ZM35.5522 48.3755C35.0143 48.3755 34.5782 47.9394 34.5782 47.4015L34.5782 44.8041C34.5782 44.2661 35.0143 43.8301 35.5522 43.8301C36.0902 43.8301 36.5263 44.2661 36.5263 44.8041V47.4015C36.5263 47.9394 36.0902 48.3755 35.5522 48.3755ZM39.4483 48.3755C38.9104 48.3755 38.4743 47.9394 38.4743 47.4015V44.8041C38.4743 44.2661 38.9104 43.8301 39.4483 43.8301C39.9863 43.8301 40.4224 44.2661 40.4224 44.8041V47.4015C40.4224 47.9394 39.9863 48.3755 39.4483 48.3755Z" fill="white"/>
<path fill-rule="evenodd" clip-rule="evenodd" d="M31.8789 30.0918C30.3574 31.6134 30.3574 34.0622 30.3574 38.9599V39.2846H56.3314V38.9599C56.3314 34.0622 56.3314 31.6134 54.8099 30.0918C53.2884 28.5703 50.8395 28.5703 45.9418 28.5703H40.747C35.8493 28.5703 33.4005 28.5703 31.8789 30.0918ZM39.4483 36.6872C38.9104 36.6872 38.4743 36.2511 38.4743 35.7132V33.1158C38.4743 32.5778 38.9104 32.1417 39.4483 32.1417C39.9863 32.1417 40.4224 32.5778 40.4224 33.1158V35.7132C40.4224 36.2511 39.9863 36.6872 39.4483 36.6872ZM34.5782 35.7132C34.5782 36.2511 35.0143 36.6872 35.5522 36.6872C36.0902 36.6872 36.5263 36.2511 36.5263 35.7132V33.1158C36.5263 32.5778 36.0902 32.1417 35.5522 32.1417C35.0143 32.1417 34.5782 32.5778 34.5782 33.1158L34.5782 35.7132ZM44.3185 34.4145C44.3185 33.8765 44.7545 33.4404 45.2925 33.4404H51.1366C51.6746 33.4404 52.1107 33.8765 52.1107 34.4145C52.1107 34.9524 51.6746 35.3885 51.1366 35.3885H45.2925C44.7545 35.3885 44.3185 34.9524 44.3185 34.4145Z" fill="white"/>
<path fill-rule="evenodd" clip-rule="evenodd" d="M54.5838 46.5971C54.4392 45.2231 53.3387 44.1547 52.0024 44.1547C50.9049 44.1547 49.9664 44.8755 49.586 45.8943C49.4692 46.2072 49.405 46.5481 49.405 46.9049C49.405 47.2409 49.4619 47.5627 49.5661 47.8603C49.4439 47.835 49.3177 47.8216 49.1886 47.8216C48.6173 47.8216 48.1034 48.082 47.7471 48.4968C47.4324 48.8632 47.2405 49.35 47.2405 49.8843C47.2405 51.0235 48.1127 51.9469 49.1886 51.9469H53.734C55.1686 51.9469 56.3314 50.7156 56.3314 49.1967C56.3314 47.9929 55.601 46.9698 54.5838 46.5971Z" fill="white"/>
<path d="M54.5838 46.5971C54.4392 45.2231 53.3387 44.1547 52.0024 44.1547C50.9049 44.1547 49.9664 44.8755 49.586 45.8943C49.4692 46.2072 49.405 46.5481 49.405 46.9049C49.405 47.2409 49.4619 47.5627 49.5661 47.8603C49.4439 47.835 49.3177 47.8216 49.1886 47.8216C48.6173 47.8216 48.1034 48.082 47.7471 48.4968C47.4324 48.8632 47.2405 49.35 47.2405 49.8843C47.2405 51.0235 48.1127 51.9469 49.1886 51.9469H53.734C55.1686 51.9469 56.3314 50.7156 56.3314 49.1967C56.3314 47.9929 55.601 46.9698 54.5838 46.5971Z" fill="white"/>
<path d="M143.94 135.907H75.6084C74.6867 135.907 73.9395 136.569 73.9395 137.385V143.117C73.9395 143.933 74.6867 144.594 75.6084 144.594H143.94C144.862 144.594 145.609 143.933 145.609 143.117V137.385C145.609 136.569 144.862 135.907 143.94 135.907Z" fill="white"/>
<path d="M120.661 118.533H81.3183C80.7876 118.533 80.3574 119.525 80.3574 120.75V129.348C80.3574 130.572 80.7876 131.564 81.3183 131.564H120.661C121.192 131.564 121.622 130.572 121.622 129.348V120.75C121.622 119.525 121.192 118.533 120.661 118.533Z" fill="white"/>
<path d="M142.936 118.533H126.371C126.148 118.533 125.966 119.525 125.966 120.75V129.348C125.966 130.572 126.148 131.564 126.371 131.564H142.936C143.16 131.564 143.341 130.572 143.341 129.348V120.75C143.341 119.525 143.16 118.533 142.936 118.533Z" fill="white"/>
<path d="M42.3926 70.751C42.3926 70.1825 41.9317 69.7217 41.3633 69.7217C40.7948 69.7217 40.334 70.1825 40.334 70.751H42.3926ZM60.9096 98.9846L50.6167 93.0419V104.927L60.9096 98.9846ZM40.334 70.751V92.4691H42.3926V70.751H40.334ZM47.8787 100.014H51.646V97.9553H47.8787V100.014ZM40.334 92.4691C40.334 96.636 43.7119 100.014 47.8787 100.014V97.9553C44.8488 97.9553 42.3926 95.499 42.3926 92.4691H40.334Z" fill="#EEF2FC"/>
<path d="M152.125 127.219C135.331 127.219 121.718 140.834 121.718 157.626C121.718 170.237 129.397 181.051 140.326 185.656C143.957 187.186 147.945 188.03 152.125 188.03C168.916 188.03 182.529 174.417 182.529 157.626C182.529 148.355 178.379 140.053 171.841 134.48C166.533 129.953 159.645 127.219 152.125 127.219Z" fill="url(#paint5_linear_9348_414453)" stroke="white" stroke-width="4.34363"/>
<path d="M155.714 157.649C158.917 154.43 161.818 151.511 162.852 150.462C163.942 149.359 163.936 147.686 162.876 146.633C161.906 145.672 160.188 145.581 159.114 146.726C157.923 147.996 156.666 149.203 155.438 150.438L151.987 153.906C148.781 150.684 145.872 147.765 144.828 146.722C143.729 145.626 142.065 145.631 141.018 146.696C140.06 147.672 139.97 149.398 141.11 150.477C142.374 151.674 143.576 152.937 144.803 154.172L148.261 157.647C145.003 160.922 141.75 164.191 141.134 164.815C140.953 164.996 140.768 165.188 140.639 165.409C139.997 166.512 140.253 168.024 141.182 168.741C142.368 169.653 143.789 169.607 144.828 168.572C145.872 167.53 148.78 164.612 151.985 161.394C155.241 164.665 158.489 167.928 159.108 168.546C159.292 168.727 159.481 168.915 159.701 169.043C160.798 169.688 162.303 169.434 163.016 168.497C163.924 167.307 163.876 165.879 162.846 164.834C161.812 163.786 158.913 160.868 155.711 157.649H155.714Z" fill="white"/>
<defs>
<filter id="filter0_d_9348_414453" x="16.3044" y="13.1724" width="63.2505" height="63.2514" filterUnits="userSpaceOnUse" color-interpolation-filters="sRGB">
<feFlood flood-opacity="0" result="BackgroundImageFix"/>
<feColorMatrix in="SourceAlpha" type="matrix" values="0 0 0 0 0 0 0 0 0 0 0 0 0 0 0 0 0 0 127 0" result="hardAlpha"/>
<feOffset dx="2.22549" dy="4.45097"/>
<feGaussianBlur stdDeviation="2.78186"/>
<feComposite in2="hardAlpha" operator="out"/>
<feColorMatrix type="matrix" values="0 0 0 0 0 0 0 0 0 0.175 0 0 0 0 0.4375 0 0 0 0.07 0"/>
<feBlend mode="normal" in2="BackgroundImageFix" result="effect1_dropShadow_9348_414453"/>
<feBlend mode="normal" in="SourceGraphic" in2="effect1_dropShadow_9348_414453" result="shape"/>
</filter>
<linearGradient id="paint0_linear_9348_414453" x1="35.9304" y1="-5.26045" x2="173.624" y2="143.78" gradientUnits="userSpaceOnUse">
<stop stop-color="white"/>
<stop offset="1" stop-color="#E2F1FA"/>
</linearGradient>
<linearGradient id="paint1_linear_9348_414453" x1="35.9304" y1="-5.26045" x2="173.624" y2="143.78" gradientUnits="userSpaceOnUse">
<stop stop-color="white"/>
<stop offset="1" stop-color="#E2F1FA"/>
</linearGradient>
<linearGradient id="paint2_linear_9348_414453" x1="118.045" y1="92.809" x2="144.753" y2="92.809" gradientUnits="userSpaceOnUse">
<stop stop-color="#05E0E0"/>
<stop offset="1" stop-color="#02C8C8"/>
</linearGradient>
<linearGradient id="paint3_linear_9348_414453" x1="118.043" y1="91.0229" x2="144.751" y2="91.0229" gradientUnits="userSpaceOnUse">
<stop stop-color="#05E0E0"/>
<stop offset="1" stop-color="#02C8C8"/>
</linearGradient>
<linearGradient id="paint4_linear_9348_414453" x1="19.6415" y1="40.3484" x2="71.7638" y2="40.3484" gradientUnits="userSpaceOnUse">
<stop stop-color="#05E0E0"/>
<stop offset="1" stop-color="#02C8C8"/>
</linearGradient>
<linearGradient id="paint5_linear_9348_414453" x1="154.776" y1="194.629" x2="134.115" y2="122.975" gradientUnits="userSpaceOnUse">
<stop stop-color="#FF4B4B"/>
<stop offset="1" stop-color="#FFB6B6"/>
</linearGradient>
</defs>
</svg>
