<svg width="156" height="156" viewBox="0 0 156 156" fill="none" xmlns="http://www.w3.org/2000/svg">
<path d="M68.293 27.7441L81.1546 30.546L84.3329 39.4563L101.31 43.1548L85.3116 116.595L50.5851 109.03L68.293 27.7441Z" fill="#D0DEEB"/>
<path d="M52.625 31.3828L68.9038 31.1606L75.2253 41.0062L96.7133 40.7128L97.9824 133.665L54.0297 134.265L52.625 31.3828Z" fill="url(#paint0_linear_9348_424024)"/>
<path d="M52.625 31.3828L68.9038 31.1606L75.2253 41.0062L96.7133 40.7128L97.9824 133.665L54.0297 134.265L52.625 31.3828Z" fill="#E1EDF8"/>
<path d="M38.2852 34.3447H55.787L62.4377 45.0209H120.544V144.957H38.2852V34.3447Z" fill="url(#paint1_linear_9348_424024)"/>
<circle cx="79.2408" cy="95.9498" r="30.8033" fill="#03D2D2"/>
<circle cx="79.2408" cy="95.9498" r="30.8033" fill="url(#paint2_linear_9348_424024)"/>
<circle cx="79.2408" cy="95.9498" r="30.8033" fill="url(#paint3_linear_9348_424024)"/>
<circle cx="79.2408" cy="95.9498" r="30.8033" fill="url(#paint4_linear_9348_424024)"/>
<path d="M60.1719 113.333L61.0298 105.589C61.2151 103.956 63.7834 102.643 66.9907 102.427C68.8946 102.079 70.7985 101.816 72.7087 101.62V101.626C72.696 104.284 72.8493 107.072 73.2518 109.933C73.8779 114.415 74.6254 118.562 75.4049 122.125C75.2826 122.117 75.1605 122.108 75.0385 122.098C69.1125 120.95 63.9079 117.779 60.1719 113.333Z" fill="white"/>
<path d="M79.7316 122.571C79.1626 122.565 78.5981 122.541 78.0384 122.499L78.5227 110.59L77.9413 109.684L78.7207 107.269H81.2507L82.0302 109.684L81.4488 110.59L81.933 122.5C81.3575 122.543 80.7768 122.567 80.1914 122.571C80.1229 122.571 80.0543 122.572 79.9857 122.572C79.901 122.572 79.8163 122.571 79.7316 122.571Z" fill="white"/>
<path d="M85.0069 122.086C84.8582 122.097 84.7093 122.108 84.5602 122.119C85.3396 118.556 86.0871 114.415 86.7132 109.927C87.1157 107.059 87.2691 104.271 87.2563 101.62C89.1666 101.816 91.0769 102.072 92.9744 102.427C96.1816 102.643 98.75 103.956 98.9289 105.589L99.7932 113.354C96.0717 117.773 90.8977 120.929 85.0069 122.086Z" fill="white"/>
<path fill-rule="evenodd" clip-rule="evenodd" d="M88.6299 95.6154C88.3744 96.4619 88.106 97.2362 87.8441 97.9252L87.8377 97.9186C87.563 98.647 83.391 103.739 82.1132 103.739C81.8841 103.739 81.6002 103.774 81.2886 103.813C80.8183 103.872 80.2847 103.939 79.7813 103.903C79.2777 103.939 78.7256 103.872 78.239 103.813C77.9169 103.774 77.6234 103.739 77.3918 103.739C76.1204 103.739 71.9421 98.647 71.6673 97.9186C71.4054 97.2165 71.1307 96.4225 70.8751 95.5629C70.3832 95.2545 69.8018 94.2309 69.3482 92.6035C68.7476 90.4775 68.8434 88.3777 69.6229 88.1415C69.6548 88.1283 69.6868 88.1218 69.7187 88.1218C69.3929 78.7777 71.5524 73.4692 79.7302 73.5479H79.7813C87.2308 73.351 90.0291 79.0599 89.7799 88.2727C89.978 88.1283 90.1697 88.0758 90.3549 88.148C91.1408 88.3777 91.2302 90.484 90.6297 92.6101C90.0355 94.7296 89.2305 95.8385 88.6874 95.6548C88.6746 95.6504 88.6619 95.6402 88.6491 95.63C88.6427 95.6249 88.6363 95.6198 88.6299 95.6154ZM80.5863 93.4434C82.2027 93.4434 83.4741 94.0143 83.8638 94.6639H83.8702C84.4899 96.0026 85.0138 96.685 85.461 96.9343C86.643 95.2939 87.6333 93.03 88.3105 90.0772C88.1827 87.6034 87.8824 83.791 87.2308 82.0324C86.6749 80.5166 85.806 79.3289 85.1416 78.5677C82.2793 80.9694 77.5835 82.5376 72.2615 82.5376C72.1206 83.2156 71.9241 83.8936 71.709 84.6359C71.5243 85.2731 71.3259 85.9578 71.1371 86.7307C71.1754 87.3212 71.2457 87.9315 71.3543 88.5549C72.0187 92.2623 73.1368 95.0249 74.5168 96.9343C74.964 96.685 75.4879 96.0026 76.1076 94.6639C76.4974 94.0078 77.8071 93.4434 79.4235 93.4434C79.4293 93.4434 79.5335 93.5189 79.6517 93.6046C79.7942 93.7078 79.9572 93.8258 79.9921 93.8437C80.0033 93.8514 80.1973 93.7137 80.3607 93.5978C80.4773 93.5151 80.5783 93.4434 80.5863 93.4434ZM80.6885 97.1706C81.3849 97.1706 81.9535 96.6194 81.9535 95.9304H81.9471C81.9471 95.832 81.9343 95.7401 81.9152 95.6548H78.0499C78.0307 95.7401 78.0179 95.832 78.0179 95.9304C78.0179 96.6128 78.5865 97.1706 79.2829 97.1706H80.6885Z" fill="white"/>
<g filter="url(#filter0_d_9348_424024)">
<rect x="6.6875" y="13.3711" width="37.804" height="37.804" rx="18.902" fill="url(#paint5_linear_9348_424024)"/>
<rect x="6.6875" y="13.3711" width="37.804" height="37.804" rx="18.902" fill="url(#paint6_linear_9348_424024)"/>
</g>
<path fill-rule="evenodd" clip-rule="evenodd" d="M14.6766 41.0378C15.982 42.3433 18.0831 42.3433 22.2854 42.3433H26.6636C26.3573 41.8164 26.1854 41.2058 26.1854 40.5735C26.1854 39.6643 26.541 38.7998 27.1404 38.1647H26.1854C25.7238 38.1647 25.3497 37.7905 25.3497 37.329C25.3497 36.8674 25.7238 36.4933 26.1854 36.4933H28.3339C28.9036 35.056 30.258 33.9861 31.9425 33.9861C33.6816 33.9861 35.0732 35.132 35.6067 36.6387L35.6227 36.6498C35.6568 35.7386 35.6568 34.6764 35.6568 33.429V33.1504H13.3711V33.429C13.3711 37.6312 13.3711 39.7323 14.6766 41.0378ZM17.8282 39.279C17.3667 39.279 16.9925 38.9048 16.9925 38.4433L16.9925 36.2147C16.9925 35.7532 17.3667 35.379 17.8282 35.379C18.2898 35.379 18.664 35.7532 18.664 36.2147V38.4433C18.664 38.9048 18.2898 39.279 17.8282 39.279ZM21.1711 39.279C20.7095 39.279 20.3354 38.9048 20.3354 38.4433V36.2147C20.3354 35.7532 20.7095 35.379 21.1711 35.379C21.6326 35.379 22.0068 35.7532 22.0068 36.2147V38.4433C22.0068 38.9048 21.6326 39.279 21.1711 39.279Z" fill="white"/>
<path fill-rule="evenodd" clip-rule="evenodd" d="M14.6766 23.5916C13.3711 24.8971 13.3711 26.9982 13.3711 31.2004V31.479H35.6568V31.2004C35.6568 26.9982 35.6568 24.8971 34.3513 23.5916C33.0459 22.2861 30.9448 22.2861 26.7425 22.2861H22.2854C18.0831 22.2861 15.982 22.2861 14.6766 23.5916ZM21.1711 29.2504C20.7095 29.2504 20.3354 28.8763 20.3354 28.4147V26.1861C20.3354 25.7246 20.7095 25.3504 21.1711 25.3504C21.6326 25.3504 22.0068 25.7246 22.0068 26.1861V28.4147C22.0068 28.8763 21.6326 29.2504 21.1711 29.2504ZM16.9925 28.4147C16.9925 28.8763 17.3667 29.2504 17.8282 29.2504C18.2898 29.2504 18.664 28.8763 18.664 28.4147V26.1861C18.664 25.7246 18.2898 25.3504 17.8282 25.3504C17.3667 25.3504 16.9925 25.7246 16.9925 26.1861L16.9925 28.4147ZM25.3497 27.3004C25.3497 26.8389 25.7238 26.4647 26.1854 26.4647H31.1997C31.6612 26.4647 32.0354 26.8389 32.0354 27.3004C32.0354 27.762 31.6612 28.1361 31.1997 28.1361H26.1854C25.7238 28.1361 25.3497 27.762 25.3497 27.3004Z" fill="white"/>
<path fill-rule="evenodd" clip-rule="evenodd" d="M34.1573 37.7531C34.0333 36.5742 33.089 35.6576 31.9425 35.6576C31.0008 35.6576 30.1956 36.276 29.8692 37.1502C29.769 37.4186 29.714 37.7111 29.714 38.0172C29.714 38.3055 29.7628 38.5816 29.8521 38.837C29.7473 38.8152 29.639 38.8038 29.5282 38.8038C29.0381 38.8038 28.5972 39.0272 28.2914 39.3831C28.0214 39.6974 27.8568 40.1151 27.8568 40.5735C27.8568 41.5509 28.6051 42.3433 29.5282 42.3433H33.4282C34.659 42.3433 35.6568 41.2868 35.6568 39.9836C35.6568 38.9507 35.0301 38.0729 34.1573 37.7531Z" fill="white"/>
<path d="M34.1573 37.7531C34.0333 36.5742 33.089 35.6576 31.9425 35.6576C31.0008 35.6576 30.1956 36.276 29.8692 37.1502C29.769 37.4186 29.714 37.7111 29.714 38.0172C29.714 38.3055 29.7628 38.5816 29.8521 38.837C29.7473 38.8152 29.639 38.8038 29.5282 38.8038C29.0381 38.8038 28.5972 39.0272 28.2914 39.3831C28.0214 39.6974 27.8568 40.1151 27.8568 40.5735C27.8568 41.5509 28.6051 42.3433 29.5282 42.3433H33.4282C34.659 42.3433 35.6568 41.2868 35.6568 39.9836C35.6568 38.9507 35.0301 38.0729 34.1573 37.7531Z" fill="white"/>
<path d="M25.936 53.9756C25.936 53.7823 25.7793 53.6255 25.5859 53.6255C25.3926 53.6255 25.2359 53.7823 25.2359 53.9756H25.936ZM35.387 74.2778L31.8866 72.2568V76.2987L35.387 74.2778ZM25.2359 53.9756V69.5926H25.936V53.9756H25.2359ZM30.2711 74.6278H32.2366V73.9277H30.2711V74.6278ZM25.2359 69.5926C25.2359 72.3735 27.4902 74.6278 30.2711 74.6278V73.9277C27.8769 73.9277 25.936 71.9868 25.936 69.5926H25.2359Z" fill="#E0E4EE"/>
<defs>
<filter id="filter0_d_9348_424024" x="5.17429" y="12.8667" width="42.8487" height="42.8478" filterUnits="userSpaceOnUse" color-interpolation-filters="sRGB">
<feFlood flood-opacity="0" result="BackgroundImageFix"/>
<feColorMatrix in="SourceAlpha" type="matrix" values="0 0 0 0 0 0 0 0 0 0 0 0 0 0 0 0 0 0 127 0" result="hardAlpha"/>
<feOffset dx="1.00881" dy="2.01762"/>
<feGaussianBlur stdDeviation="1.26101"/>
<feComposite in2="hardAlpha" operator="out"/>
<feColorMatrix type="matrix" values="0 0 0 0 0 0 0 0 0 0.175 0 0 0 0 0.4375 0 0 0 0.07 0"/>
<feBlend mode="normal" in2="BackgroundImageFix" result="effect1_dropShadow_9348_424024"/>
<feBlend mode="normal" in="SourceGraphic" in2="effect1_dropShadow_9348_424024" result="shape"/>
</filter>
<linearGradient id="paint0_linear_9348_424024" x1="3.16836" y1="-7.95906" x2="123.181" y2="139.221" gradientUnits="userSpaceOnUse">
<stop stop-color="white"/>
<stop offset="1" stop-color="#E2F1FA"/>
</linearGradient>
<linearGradient id="paint1_linear_9348_424024" x1="-14.3" y1="-8.67096" x2="112.545" y2="151.299" gradientUnits="userSpaceOnUse">
<stop stop-color="white"/>
<stop offset="1" stop-color="#E2F1FA"/>
</linearGradient>
<linearGradient id="paint2_linear_9348_424024" x1="37.8218" y1="92.998" x2="121.586" y2="92.998" gradientUnits="userSpaceOnUse">
<stop stop-color="#05E0E0"/>
<stop offset="1" stop-color="#02C8C8"/>
</linearGradient>
<linearGradient id="paint3_linear_9348_424024" x1="76.3475" y1="55.5774" x2="98.8884" y2="133.753" gradientUnits="userSpaceOnUse">
<stop stop-color="#FFB74B"/>
<stop offset="1" stop-color="#FCCA80"/>
</linearGradient>
<linearGradient id="paint4_linear_9348_424024" x1="42.951" y1="72.7146" x2="112.528" y2="121.188" gradientUnits="userSpaceOnUse">
<stop stop-color="#FF8D07"/>
<stop offset="1" stop-color="#FFB341"/>
</linearGradient>
<linearGradient id="paint5_linear_9348_424024" x1="53.1073" y1="59.0312" x2="21.5516" y2="28.3613" gradientUnits="userSpaceOnUse">
<stop stop-color="#BFCAEE"/>
<stop offset="1" stop-color="#D3E6F8"/>
</linearGradient>
<linearGradient id="paint6_linear_9348_424024" x1="6.68674" y1="32.2742" x2="44.4898" y2="32.2742" gradientUnits="userSpaceOnUse">
<stop stop-color="#05E0E0"/>
<stop offset="1" stop-color="#02C8C8"/>
</linearGradient>
</defs>
</svg>
