<svg width="200" height="200" viewBox="0 0 200 200" fill="none" xmlns="http://www.w3.org/2000/svg">
<path d="M155.776 40.3477H65.9396C64.3593 40.3477 63.0781 41.92 63.0781 43.8595V154.114C63.0781 156.053 64.3593 157.626 65.9396 157.626H155.776C157.357 157.626 158.638 156.053 158.638 154.114V43.8595C158.638 41.92 157.357 40.3477 155.776 40.3477Z" fill="url(#paint0_linear_9348_414340)"/>
<path d="M155.776 40.3477H65.9396C64.3593 40.3477 63.0781 41.92 63.0781 43.8595V154.114C63.0781 156.053 64.3593 157.626 65.9396 157.626H155.776C157.357 157.626 158.638 156.053 158.638 154.114V43.8595C158.638 41.92 157.357 40.3477 155.776 40.3477Z" fill="url(#paint1_linear_9348_414340)" stroke="#E1EDF8" stroke-width="5.35714"/>
<path fill-rule="evenodd" clip-rule="evenodd" d="M132.074 82.177C132.121 81.601 132.144 81.0185 132.144 80.4305C132.144 68.5959 122.55 59.002 110.716 59.002C98.881 59.002 89.2871 68.5959 89.2871 80.4305C89.2871 92.2652 98.881 101.859 110.716 101.859C115.428 101.859 119.784 100.338 123.322 97.7606C125.109 100.201 127.995 101.786 131.251 101.786C136.676 101.786 141.073 97.3886 141.073 91.9644C141.073 86.8173 137.113 82.5949 132.074 82.177Z" fill="url(#paint2_linear_9348_414340)"/>
<path d="M97.0293 93.6064L97.5195 89.315C97.6455 88.2325 99.3912 87.3673 101.571 87.2195C102.861 86.9891 104.159 86.8152 105.458 86.6848C105.41 88.4238 105.514 90.2758 105.823 92.18L105.827 92.1757C106.254 94.8212 106.76 97.2657 107.291 99.3658C103.241 98.6205 99.6617 96.5426 97.0293 93.6064Z" fill="white"/>
<path d="M108.73 99.5719L109.101 90.6801L108.589 89.8976L109.279 87.8151H111.52L112.21 89.8976L111.698 90.6801L112.07 99.6125C111.594 99.6497 111.112 99.6687 110.625 99.6687C109.985 99.6687 109.353 99.6359 108.73 99.5719Z" fill="white"/>
<path d="M113.489 99.446C114.027 97.3282 114.54 94.8537 114.972 92.18V92.1843C115.28 90.2802 115.389 88.4281 115.341 86.6892C116.64 86.8196 117.938 86.9891 119.228 87.2239C121.408 87.3717 123.154 88.2369 123.275 89.3194L123.815 94.0443C121.121 96.8586 117.525 98.8118 113.489 99.446Z" fill="white"/>
<path fill-rule="evenodd" clip-rule="evenodd" d="M103.352 76.2943C102.52 70.322 106.302 66.3683 110.4 66.6255C112.71 66.478 114.921 67.6747 116.261 69.8193C116.41 70.0427 116.54 70.2803 116.653 70.5269C117.418 72.0863 117.759 74.0483 117.447 76.2955C117.973 76.4537 118.037 77.8456 117.63 79.2506C117.226 80.6592 116.679 81.3895 116.31 81.2678C116.228 81.2398 116.156 81.1703 116.097 81.0632C114.687 84.2362 112.607 85.7414 110.4 85.7414C108.192 85.7382 106.11 84.2344 104.7 81.0623C104.674 81.1092 104.646 81.149 104.615 81.1812C104.592 81.2055 104.567 81.2256 104.542 81.2412C104.523 81.2523 104.505 81.2612 104.485 81.2678C104.116 81.3895 103.569 80.6592 103.165 79.2506C102.757 77.842 102.822 76.4465 103.352 76.2943ZM105.456 72.8348C105.467 72.6853 105.475 72.5374 105.48 72.3917C106.116 72.9164 107.175 73.5478 108.675 73.6684C109.926 73.769 110.917 73.7039 111.715 73.6515C112.608 73.5928 113.259 73.5501 113.761 73.7727C114.716 74.1988 113.444 72.4989 113.444 72.4989C113.444 72.4989 115.667 73.9858 115.988 75.79C116.038 76.0711 116.082 76.3393 116.122 76.5918C116.15 76.768 116.175 76.9365 116.198 77.0965C116.215 77.2149 116.231 77.3287 116.246 77.4374C115.263 82.0867 112.928 84.2502 110.4 84.2502C107.851 84.2502 105.497 82.0504 104.528 77.3203C104.513 77.241 104.498 77.1621 104.484 77.0837C104.911 76.1491 105.211 74.9505 105.371 73.6902C105.408 73.4008 105.436 73.1148 105.456 72.8348Z" fill="white"/>
<rect x="122.321" y="83.0354" width="17.8571" height="17.8571" rx="8.92856" fill="url(#paint3_linear_9348_414340)" stroke="white" stroke-width="1.78571"/>
<path fill-rule="evenodd" clip-rule="evenodd" d="M131.253 86.6064C130.76 86.6064 130.36 87.0062 130.36 87.4993V91.0707H126.785C126.292 91.0707 125.893 91.4705 125.893 91.9636C125.893 92.4567 126.292 92.8564 126.785 92.8564H130.36V96.4279C130.36 96.921 130.76 97.3207 131.253 97.3207C131.746 97.3207 132.146 96.921 132.146 96.4279V92.8564H135.714C136.207 92.8564 136.607 92.4567 136.607 91.9636C136.607 91.4705 136.207 91.0707 135.714 91.0707H132.146V87.4993C132.146 87.0062 131.746 86.6064 131.253 86.6064Z" fill="white"/>
<g filter="url(#filter0_d_9348_414340)">
<rect x="19.6426" y="14.2852" width="52.1236" height="52.1236" rx="26.0618" fill="url(#paint4_linear_9348_414340)"/>
</g>
<path d="M41.4915 27.9159L40.5167 29.5166C40.2952 29.8837 39.8373 30.0012 39.4829 29.7809C39.1284 29.5753 39.025 29.1201 39.2318 28.753L39.409 28.4593C36.9573 29.0907 35.126 31.3229 35.126 33.9662C35.126 34.3921 34.7863 34.7151 34.3727 34.7151C33.9592 34.7151 33.6195 34.3921 33.6195 33.9662C33.5457 29.7956 36.8539 26.7852 40.8416 26.7852C41.1222 26.7852 41.3585 26.932 41.4915 27.167C41.6244 27.4019 41.6244 27.681 41.4915 27.9159Z" fill="white"/>
<path d="M58.7271 44.6717C58.801 48.8423 55.4927 51.8527 51.505 51.8527C51.2244 51.8527 50.9881 51.7059 50.8551 51.4856C50.7222 51.2359 50.7222 50.9569 50.8551 50.7219L51.8299 49.1213C52.0514 48.7688 52.5093 48.6513 52.8637 48.8716C53.2182 49.0772 53.3216 49.5325 53.1148 49.8849L52.9376 50.1933C55.404 49.5471 57.2206 47.3297 57.2206 44.6717C57.2206 44.2605 57.5603 43.9227 57.9739 43.9227C58.3874 43.9227 58.7271 44.2605 58.7271 44.6717Z" fill="white"/>
<path d="M41.4472 33.3935C36.3075 33.3935 32.1426 37.5347 32.1426 42.6451C32.1426 47.7556 36.3075 51.8968 41.4472 51.8968C46.5868 51.8968 50.7517 47.7556 50.7517 42.6451C50.7517 37.5347 46.5868 33.3935 41.4472 33.3935ZM43.8102 45.45C43.6182 45.7731 43.3524 46.0374 43.0127 46.243C42.7173 46.4045 42.3924 46.522 42.0232 46.5807V47.3737C42.0232 47.5353 41.9789 47.6674 41.8755 47.7702C41.7869 47.873 41.6687 47.9318 41.521 47.9318C41.3733 47.9318 41.2404 47.873 41.1518 47.7702C41.0632 47.6674 41.0189 47.5353 41.0189 47.3737V46.6248C40.6349 46.5954 40.3099 46.522 39.9998 46.4339C39.6453 46.3164 39.3499 46.1696 39.0989 46.0227C38.9807 45.9346 38.8921 45.8318 38.8478 45.7143C38.8035 45.5968 38.7739 45.4647 38.7887 45.3472C38.8035 45.215 38.8478 45.1122 38.9216 45.0241C38.9955 44.9213 39.0841 44.8626 39.1875 44.8479C39.2909 44.8038 39.4238 44.8479 39.5567 44.936C39.7487 45.0535 39.9998 45.1563 40.2952 45.2738C40.6053 45.3766 40.9745 45.4353 41.4029 45.4353C41.7425 45.4353 42.0084 45.3912 42.2152 45.3031C42.4367 45.2003 42.5844 45.0829 42.673 44.936C42.7764 44.7745 42.8207 44.5982 42.8207 44.3927C42.8207 44.2311 42.7912 44.0989 42.7321 43.9668C42.6582 43.8493 42.5401 43.7465 42.3924 43.6437C42.2447 43.5556 42.0232 43.4822 41.7721 43.4234L40.6939 43.1591C40.0884 43.0122 39.6306 42.7626 39.3352 42.4102C39.025 42.0724 38.8773 41.6172 38.8773 41.0444C38.8773 40.6186 38.9659 40.2221 39.1727 39.8843C39.3647 39.5319 39.6306 39.2528 39.985 39.0473C40.2804 38.871 40.6201 38.7536 41.0189 38.7095V37.9165C41.0189 37.755 41.0632 37.6228 41.1518 37.52C41.2404 37.4172 41.3733 37.3585 41.521 37.3585C41.6539 37.3585 41.7721 37.4172 41.8755 37.52C41.9641 37.6228 42.0232 37.755 42.0232 37.9165V38.6801C42.2447 38.7095 42.4958 38.7682 42.7616 38.8563C43.1013 38.9738 43.3967 39.1501 43.6478 39.3556C43.7512 39.4438 43.825 39.5466 43.8545 39.664C43.8841 39.7815 43.8841 39.899 43.8693 40.0018C43.8398 40.1046 43.7807 40.1927 43.7068 40.2661C43.633 40.3396 43.5444 40.3836 43.4262 40.3983C43.3228 40.413 43.2047 40.3689 43.057 40.2808C42.865 40.1633 42.6435 40.0605 42.4072 39.9871C42.1561 39.899 41.8755 39.8549 41.5358 39.8549C41.1075 39.8549 40.7678 39.9724 40.5167 40.178C40.2804 40.3836 40.1475 40.6626 40.1475 41.0004C40.1475 41.25 40.2213 41.4556 40.3838 41.6172C40.5315 41.764 40.7825 41.8815 41.137 41.9696L42.2299 42.2339C42.8798 42.3955 43.3524 42.6451 43.6478 42.9829C43.9579 43.3206 44.1056 43.7612 44.1056 44.3045C44.1056 44.7304 44.0022 45.1122 43.8102 45.45Z" fill="white"/>
<path d="M58.7271 35.5962C58.7271 39.1794 56.1425 42.1752 52.716 42.8067C52.7899 42.3808 52.8194 41.9255 52.8194 41.4703C52.8194 36.8004 49.1714 32.9823 44.5635 32.6739C45.7007 30.0746 48.3001 28.2537 51.3425 28.2537C55.4188 28.2537 58.7271 31.5431 58.7271 35.5962Z" fill="white"/>
<path d="M143.94 135.907H75.6084C74.6867 135.907 73.9395 136.569 73.9395 137.385V143.117C73.9395 143.933 74.6867 144.594 75.6084 144.594H143.94C144.862 144.594 145.609 143.933 145.609 143.117V137.385C145.609 136.569 144.862 135.907 143.94 135.907Z" fill="white"/>
<path d="M120.661 118.533H81.3183C80.7876 118.533 80.3574 119.525 80.3574 120.75V129.348C80.3574 130.572 80.7876 131.564 81.3183 131.564H120.661C121.192 131.564 121.622 130.572 121.622 129.348V120.75C121.622 119.525 121.192 118.533 120.661 118.533Z" fill="white"/>
<path d="M142.936 118.533H126.371C126.148 118.533 125.966 119.525 125.966 120.75V129.348C125.966 130.572 126.148 131.564 126.371 131.564H142.936C143.16 131.564 143.341 130.572 143.341 129.348V120.75C143.341 119.525 143.16 118.533 142.936 118.533Z" fill="white"/>
<path d="M42.3926 70.751C42.3926 70.1825 41.9317 69.7217 41.3633 69.7217C40.7948 69.7217 40.334 70.1825 40.334 70.751H42.3926ZM60.9096 98.9846L50.6167 93.0419V104.927L60.9096 98.9846ZM40.334 70.751V92.4691H42.3926V70.751H40.334ZM47.8787 100.014H51.646V97.9553H47.8787V100.014ZM40.334 92.4691C40.334 96.636 43.7119 100.014 47.8787 100.014V97.9553C44.8488 97.9553 42.3926 95.499 42.3926 92.4691H40.334Z" fill="#EEF2FC"/>
<path d="M152.125 127.219C135.331 127.219 121.718 140.834 121.718 157.626C121.718 170.237 129.397 181.051 140.326 185.656C143.957 187.186 147.945 188.03 152.125 188.03C168.916 188.03 182.529 174.417 182.529 157.626C182.529 148.355 178.379 140.053 171.841 134.48C166.533 129.953 159.645 127.219 152.125 127.219Z" fill="url(#paint5_linear_9348_414340)" stroke="white" stroke-width="4.34363"/>
<path d="M155.714 157.649C158.917 154.43 161.818 151.511 162.852 150.462C163.942 149.359 163.936 147.686 162.876 146.633C161.906 145.672 160.188 145.581 159.114 146.726C157.923 147.996 156.666 149.203 155.438 150.438L151.987 153.906C148.781 150.684 145.872 147.765 144.828 146.722C143.729 145.626 142.065 145.631 141.018 146.696C140.06 147.672 139.97 149.398 141.11 150.477C142.374 151.674 143.576 152.937 144.803 154.172L148.261 157.647C145.003 160.922 141.75 164.191 141.134 164.815C140.953 164.996 140.768 165.188 140.639 165.409C139.997 166.512 140.253 168.024 141.182 168.741C142.368 169.653 143.789 169.607 144.828 168.572C145.872 167.53 148.78 164.612 151.985 161.394C155.241 164.665 158.489 167.928 159.108 168.546C159.292 168.727 159.481 168.915 159.701 169.043C160.798 169.688 162.303 169.434 163.016 168.497C163.924 167.307 163.876 165.879 162.846 164.834C161.812 163.786 158.913 160.868 155.711 157.649H155.714Z" fill="white"/>
<defs>
<filter id="filter0_d_9348_414340" x="16.3044" y="13.1724" width="63.2505" height="63.2514" filterUnits="userSpaceOnUse" color-interpolation-filters="sRGB">
<feFlood flood-opacity="0" result="BackgroundImageFix"/>
<feColorMatrix in="SourceAlpha" type="matrix" values="0 0 0 0 0 0 0 0 0 0 0 0 0 0 0 0 0 0 127 0" result="hardAlpha"/>
<feOffset dx="2.22549" dy="4.45097"/>
<feGaussianBlur stdDeviation="2.78186"/>
<feComposite in2="hardAlpha" operator="out"/>
<feColorMatrix type="matrix" values="0 0 0 0 0 0 0 0 0 0.175 0 0 0 0 0.4375 0 0 0 0.07 0"/>
<feBlend mode="normal" in2="BackgroundImageFix" result="effect1_dropShadow_9348_414340"/>
<feBlend mode="normal" in="SourceGraphic" in2="effect1_dropShadow_9348_414340" result="shape"/>
</filter>
<linearGradient id="paint0_linear_9348_414340" x1="35.9304" y1="-5.26045" x2="173.624" y2="143.78" gradientUnits="userSpaceOnUse">
<stop stop-color="white"/>
<stop offset="1" stop-color="#E2F1FA"/>
</linearGradient>
<linearGradient id="paint1_linear_9348_414340" x1="35.9304" y1="-5.26045" x2="173.624" y2="143.78" gradientUnits="userSpaceOnUse">
<stop stop-color="white"/>
<stop offset="1" stop-color="#E2F1FA"/>
</linearGradient>
<linearGradient id="paint2_linear_9348_414340" x1="118.045" y1="92.809" x2="144.753" y2="92.809" gradientUnits="userSpaceOnUse">
<stop stop-color="#05E0E0"/>
<stop offset="1" stop-color="#02C8C8"/>
</linearGradient>
<linearGradient id="paint3_linear_9348_414340" x1="118.043" y1="91.0229" x2="144.751" y2="91.0229" gradientUnits="userSpaceOnUse">
<stop stop-color="#05E0E0"/>
<stop offset="1" stop-color="#02C8C8"/>
</linearGradient>
<linearGradient id="paint4_linear_9348_414340" x1="19.6415" y1="40.3484" x2="71.7638" y2="40.3484" gradientUnits="userSpaceOnUse">
<stop stop-color="#05E0E0"/>
<stop offset="1" stop-color="#02C8C8"/>
</linearGradient>
<linearGradient id="paint5_linear_9348_414340" x1="154.776" y1="194.629" x2="134.115" y2="122.975" gradientUnits="userSpaceOnUse">
<stop stop-color="#FF4B4B"/>
<stop offset="1" stop-color="#FFB6B6"/>
</linearGradient>
</defs>
</svg>
