<svg width="200" height="158" viewBox="0 0 200 158" fill="none" xmlns="http://www.w3.org/2000/svg">
<path d="M128.963 66.9297H136.106C140.051 66.9297 143.249 70.1277 143.249 74.0725V129.787C143.249 133.732 140.051 136.93 136.106 136.93C132.161 136.93 128.963 133.732 128.963 129.787V66.9297Z" fill="url(#paint0_linear_10323_46113)"/>
<path d="M143.249 129.787C143.249 133.732 140.051 136.93 136.106 136.93C132.161 136.93 128.963 133.732 128.963 129.787C128.963 125.842 132.161 122.644 136.106 122.644C140.051 122.644 143.249 125.842 143.249 129.787Z" fill="url(#paint1_linear_10323_46113)"/>
<circle cx="154.679" cy="72.6456" r="18.5714" fill="white"/>
<circle cx="154.674" cy="72.6523" r="16" fill="url(#paint2_linear_10323_46113)"/>
<circle cx="154.677" cy="72.6462" r="12.8571" fill="url(#paint3_linear_10323_46113)"/>
<path d="M155.19 81.966C154.912 81.966 154.684 81.8683 154.507 81.673C154.33 81.4908 154.242 81.2629 154.242 80.9895V79.2515L154.678 79.6811C153.806 79.6551 153.029 79.5379 152.346 79.3296C151.676 79.1213 151.107 78.8805 150.64 78.6071C150.412 78.4639 150.254 78.2881 150.166 78.0798C150.077 77.8585 150.046 77.6372 150.071 77.4159C150.096 77.1945 150.172 77.0058 150.298 76.8495C150.437 76.6803 150.608 76.5761 150.81 76.5371C151.013 76.485 151.246 76.5371 151.512 76.6933C151.866 76.9016 152.327 77.1034 152.896 77.2987C153.477 77.481 154.172 77.5721 154.981 77.5721C155.613 77.5721 156.125 77.494 156.517 77.3378C156.909 77.1815 157.193 76.9667 157.37 76.6933C157.56 76.4199 157.655 76.1075 157.655 75.756C157.655 75.4695 157.591 75.2222 157.465 75.0139C157.339 74.7926 157.13 74.6038 156.839 74.4476C156.549 74.2783 156.157 74.1416 155.664 74.0375L153.654 73.5883C152.504 73.3279 151.645 72.8918 151.076 72.2799C150.507 71.668 150.223 70.8674 150.223 69.8779C150.223 69.1098 150.406 68.4263 150.772 67.8275C151.139 67.2156 151.651 66.7274 152.308 66.3628C152.965 65.9983 153.736 65.7835 154.621 65.7184L154.242 66.0113V64.3709C154.242 64.0976 154.33 63.8697 154.507 63.6875C154.684 63.4922 154.912 63.3945 155.19 63.3945C155.455 63.3945 155.677 63.4922 155.854 63.6875C156.043 63.8697 156.138 64.0976 156.138 64.3709V66.0113L155.74 65.6989C156.283 65.7119 156.877 65.8226 157.522 66.0309C158.179 66.2392 158.742 66.5321 159.209 66.9096C159.399 67.0659 159.525 67.2481 159.589 67.4564C159.652 67.6517 159.658 67.847 159.607 68.0423C159.557 68.2245 159.462 68.3808 159.323 68.511C159.184 68.6411 159.007 68.7193 158.792 68.7453C158.59 68.7583 158.356 68.6867 158.091 68.5305C157.724 68.3092 157.313 68.1334 156.858 68.0032C156.403 67.86 155.86 67.7884 155.228 67.7884C154.419 67.7884 153.781 67.9772 153.313 68.3547C152.858 68.7193 152.63 69.201 152.63 69.7998C152.63 70.2425 152.769 70.6005 153.048 70.8739C153.326 71.1343 153.8 71.3426 154.469 71.4988L156.536 71.9675C157.749 72.2409 158.641 72.677 159.209 73.2759C159.778 73.8617 160.063 74.6363 160.063 75.5997C160.063 76.3548 159.879 77.0253 159.513 77.6111C159.146 78.184 158.641 78.6461 157.996 78.9977C157.364 79.3361 156.625 79.551 155.778 79.6421L156.138 79.232V80.9895C156.138 81.2629 156.049 81.4908 155.872 81.673C155.696 81.8683 155.468 81.966 155.19 81.966Z" fill="white"/>
<path d="M154.001 95.5C154.001 95.1261 154.304 94.823 154.678 94.823C155.052 94.823 155.355 95.1261 155.355 95.5H154.001ZM144.678 121.214L151.448 117.305V125.123L144.678 121.214ZM155.355 95.5V115.5H154.001V95.5H155.355ZM155.355 115.5C155.355 119.03 152.493 121.891 148.963 121.891V120.537C151.745 120.537 154.001 118.282 154.001 115.5H155.355Z" fill="#EEF2FC"/>
<path d="M76.1055 33.3216C75.7315 33.3216 75.4284 33.0185 75.4284 32.6445C75.4284 32.2706 75.7315 31.9675 76.1055 31.9675L76.1055 33.3216ZM100.391 44.0731L96.4822 37.3026L104.3 37.3026L100.391 44.0731ZM76.1055 31.9675L94.6769 31.9675L94.6769 33.3216L76.1055 33.3216L76.1055 31.9675ZM94.6769 31.9675C98.2067 31.9675 101.068 34.829 101.068 38.3588L99.7141 38.3588C99.7141 35.5768 97.4589 33.3216 94.6769 33.3216L94.6769 31.9675Z" fill="#EEF2FC"/>
<path fill-rule="evenodd" clip-rule="evenodd" d="M70.3895 46.9297C69.6005 46.9297 68.9609 47.5693 68.9609 48.3583V125.501C68.9609 131.813 74.0777 136.93 80.3895 136.93H136.481C136.529 136.93 136.577 136.927 136.624 136.922C133.946 136.781 131.818 134.564 131.818 131.85L131.818 129.787L131.818 125.501L131.818 48.3583C131.818 47.5693 131.178 46.9297 130.39 46.9297H70.3895Z" fill="url(#paint4_linear_10323_46113)"/>
<rect x="48.9629" y="116.93" width="28.5714" height="6.21118" rx="1.24224" fill="url(#paint5_linear_10323_46113)"/>
<rect x="48.9629" y="123.758" width="28.5714" height="6.21118" rx="1.24224" fill="url(#paint6_linear_10323_46113)"/>
<rect x="48.9629" y="130.59" width="28.5714" height="6.21118" rx="1.24224" fill="url(#paint7_linear_10323_46113)"/>
<rect x="94.6777" y="58.3594" width="8.57143" height="31.4286" rx="0.714286" fill="url(#paint8_linear_10323_46113)"/>
<rect x="80.3906" y="76.9297" width="8.57143" height="12.8571" rx="0.714286" fill="url(#paint9_linear_10323_46113)" fill-opacity="0.2"/>
<rect x="108.963" y="68.3594" width="8.57143" height="21.4286" rx="0.714286" fill="url(#paint10_linear_10323_46113)" fill-opacity="0.5"/>
<rect x="80.3906" y="105.5" width="37.1429" height="4.28571" rx="1.42857" fill="url(#paint11_linear_10323_46113)"/>
<rect x="86.1055" y="114.07" width="27.1429" height="4.28571" rx="1.42857" fill="url(#paint12_linear_10323_46113)"/>
<ellipse cx="8.36476" cy="8.07117" rx="8.36476" ry="8.07117" transform="matrix(0.994137 -0.11328 0.254679 0.96827 30.3906 80.6797)" fill="url(#paint13_linear_10323_46113)"/>
<ellipse cx="8.36476" cy="8.07117" rx="8.36476" ry="8.07117" transform="matrix(0.994137 -0.11328 0.254679 0.96827 30.3906 80.2539)" fill="#09BDBD"/>
<ellipse cx="8.36476" cy="8.07117" rx="8.36476" ry="8.07117" transform="matrix(0.994137 -0.11328 0.254679 0.96827 30.3906 80.2539)" fill="url(#paint14_linear_10323_46113)"/>
<path fill-rule="evenodd" clip-rule="evenodd" d="M42.4448 93.5052C46.2024 93.0771 48.4955 89.8672 47.5667 86.3358C46.6379 82.8044 42.8387 80.2887 39.0811 80.7169C35.3235 81.1451 33.0303 84.3549 33.9592 87.8863C34.888 91.4177 38.6871 93.9334 42.4448 93.5052Z" fill="#1C274C"/>
<path fill-rule="evenodd" clip-rule="evenodd" d="M42.4448 93.5052C46.2024 93.0771 48.4955 89.8672 47.5667 86.3358C46.6379 82.8044 42.8387 80.2887 39.0811 80.7169C35.3235 81.1451 33.0303 84.3549 33.9592 87.8863C34.888 91.4177 38.6871 93.9334 42.4448 93.5052Z" fill="url(#paint15_linear_10323_46113)"/>
<path fill-rule="evenodd" clip-rule="evenodd" d="M42.4448 93.5052C46.2024 93.0771 48.4955 89.8672 47.5667 86.3358C46.6379 82.8044 42.8387 80.2887 39.0811 80.7169C35.3235 81.1451 33.0303 84.3549 33.9592 87.8863C34.888 91.4177 38.6871 93.9334 42.4448 93.5052Z" fill="url(#paint16_linear_10323_46113)"/>
<path fill-rule="evenodd" clip-rule="evenodd" d="M40.264 83.2205C40.1943 82.9557 39.9094 82.767 39.6276 82.7991C39.3458 82.8312 39.1738 83.072 39.2434 83.3368L39.2967 83.5393C38.2365 83.8524 37.5107 84.7418 37.7909 85.8074C38.1134 87.0332 39.5709 87.7449 40.889 87.5947C41.8255 87.488 42.5721 87.9994 42.7141 88.5393C42.8561 89.0791 42.4141 89.726 41.4776 89.8327C40.5411 89.9394 39.7944 89.428 39.6524 88.8881C39.5828 88.6233 39.2978 88.4346 39.016 88.4667C38.7342 88.4988 38.5622 88.7396 38.6319 89.0044C38.9121 90.07 40.05 90.747 41.2084 90.8073L41.2616 91.0098C41.3313 91.2747 41.6162 91.4633 41.898 91.4312C42.1799 91.3991 42.3519 91.1584 42.2822 90.8935L42.2289 90.691C43.2891 90.3779 44.0149 89.4885 43.7347 88.423C43.4123 87.1971 41.9547 86.4854 40.6367 86.6356C39.7001 86.7423 38.9535 86.2309 38.8115 85.6911C38.6695 85.1512 39.1115 84.5044 40.048 84.3977C40.9846 84.2909 41.7312 84.8024 41.8732 85.3422C41.9429 85.607 42.2278 85.7957 42.5096 85.7636C42.7914 85.7315 42.9634 85.4908 42.8938 85.2259C42.6135 84.1604 41.4757 83.4833 40.3173 83.4231L40.264 83.2205Z" fill="#1C274C"/>
<path fill-rule="evenodd" clip-rule="evenodd" d="M40.264 83.2205C40.1943 82.9557 39.9094 82.767 39.6276 82.7991C39.3458 82.8312 39.1738 83.072 39.2434 83.3368L39.2967 83.5393C38.2365 83.8524 37.5107 84.7418 37.7909 85.8074C38.1134 87.0332 39.5709 87.7449 40.889 87.5947C41.8255 87.488 42.5721 87.9994 42.7141 88.5393C42.8561 89.0791 42.4141 89.726 41.4776 89.8327C40.5411 89.9394 39.7944 89.428 39.6524 88.8881C39.5828 88.6233 39.2978 88.4346 39.016 88.4667C38.7342 88.4988 38.5622 88.7396 38.6319 89.0044C38.9121 90.07 40.05 90.747 41.2084 90.8073L41.2616 91.0098C41.3313 91.2747 41.6162 91.4633 41.898 91.4312C42.1799 91.3991 42.3519 91.1584 42.2822 90.8935L42.2289 90.691C43.2891 90.3779 44.0149 89.4885 43.7347 88.423C43.4123 87.1971 41.9547 86.4854 40.6367 86.6356C39.7001 86.7423 38.9535 86.2309 38.8115 85.6911C38.6695 85.1512 39.1115 84.5044 40.048 84.3977C40.9846 84.2909 41.7312 84.8024 41.8732 85.3422C41.9429 85.607 42.2278 85.7957 42.5096 85.7636C42.7914 85.7315 42.9634 85.4908 42.8938 85.2259C42.6135 84.1604 41.4757 83.4833 40.3173 83.4231L40.264 83.2205Z" fill="white"/>
<path fill-rule="evenodd" clip-rule="evenodd" d="M40.264 83.2205C40.1943 82.9557 39.9094 82.767 39.6276 82.7991C39.3458 82.8312 39.1738 83.072 39.2434 83.3368L39.2967 83.5393C38.2365 83.8524 37.5107 84.7418 37.7909 85.8074C38.1134 87.0332 39.5709 87.7449 40.889 87.5947C41.8255 87.488 42.5721 87.9994 42.7141 88.5393C42.8561 89.0791 42.4141 89.726 41.4776 89.8327C40.5411 89.9394 39.7944 89.428 39.6524 88.8881C39.5828 88.6233 39.2978 88.4346 39.016 88.4667C38.7342 88.4988 38.5622 88.7396 38.6319 89.0044C38.9121 90.07 40.05 90.747 41.2084 90.8073L41.2616 91.0098C41.3313 91.2747 41.6162 91.4633 41.898 91.4312C42.1799 91.3991 42.3519 91.1584 42.2822 90.8935L42.2289 90.691C43.2891 90.3779 44.0149 89.4885 43.7347 88.423C43.4123 87.1971 41.9547 86.4854 40.6367 86.6356C39.7001 86.7423 38.9535 86.2309 38.8115 85.6911C38.6695 85.1512 39.1115 84.5044 40.048 84.3977C40.9846 84.2909 41.7312 84.8024 41.8732 85.3422C41.9429 85.607 42.2278 85.7957 42.5096 85.7636C42.7914 85.7315 42.9634 85.4908 42.8938 85.2259C42.6135 84.1604 41.4757 83.4833 40.3173 83.4231L40.264 83.2205Z" fill="url(#paint17_linear_10323_46113)"/>
<ellipse cx="10.6304" cy="10.2572" rx="10.6304" ry="10.2572" transform="matrix(-0.994137 -0.11328 -0.254679 0.96827 183.896 29.8867)" fill="url(#paint18_linear_10323_46113)"/>
<ellipse cx="10.6304" cy="10.2572" rx="10.6304" ry="10.2572" transform="matrix(-0.994137 -0.11328 -0.254679 0.96827 183.896 29.3164)" fill="url(#paint19_linear_10323_46113)"/>
<path fill-rule="evenodd" clip-rule="evenodd" d="M168.583 46.1808C163.807 45.6367 160.893 41.5574 162.073 37.0696C163.254 32.5817 168.082 29.3847 172.857 29.9288C177.633 30.4729 180.547 34.5522 179.367 39.0401C178.186 43.5279 173.358 46.725 168.583 46.1808Z" fill="url(#paint20_linear_10323_46113)"/>
<path d="M172.702 33.4921C173.018 33.6513 173.16 34.0082 173.019 34.2892L172.91 34.5041C174.055 35.3288 174.682 36.6863 174.113 37.817C173.971 38.098 173.6 38.1968 173.284 38.0376C172.968 37.8784 172.826 37.5215 172.968 37.2405C173.256 36.6676 172.899 35.7174 171.848 35.1883C170.797 34.6593 169.821 34.9381 169.533 35.5109C169.244 36.0837 169.602 37.034 170.652 37.5631C172.131 38.3076 173.059 39.9087 172.405 41.2095C171.835 42.3401 170.371 42.6448 169.027 42.2163L168.919 42.4312C168.777 42.7122 168.406 42.811 168.09 42.6518C167.774 42.4926 167.632 42.1357 167.774 41.8547L167.882 41.6398C166.737 40.815 166.11 39.4575 166.68 38.3269C166.821 38.0458 167.192 37.9471 167.508 38.1063C167.825 38.2655 167.966 38.6224 167.825 38.9034C167.536 39.4762 167.894 40.4265 168.944 40.9555C169.995 41.4846 170.971 41.2058 171.26 40.6329C171.548 40.0601 171.191 39.1098 170.14 38.5808C168.661 37.8362 167.733 36.2352 168.388 34.9344C168.957 33.8038 170.421 33.499 171.765 33.9276L171.874 33.7127C172.015 33.4316 172.386 33.3329 172.702 33.4921Z" fill="url(#paint21_linear_10323_46113)"/>
<path d="M70.3906 47.5068C70.3906 47.9776 70.0089 48.3594 69.538 48.3594L48.2871 48.3594C48.07 48.3594 47.861 48.2765 47.7029 48.1278L45.3901 45.9521C45.2319 45.8033 45.023 45.7205 44.8059 45.7205L19.8147 45.7205C19.3438 45.7205 18.962 45.3388 18.962 44.8679L18.962 22.0691C18.962 21.5982 19.3438 21.2165 19.8147 21.2165L69.538 21.2165C70.0089 21.2165 70.3906 21.5982 70.3906 22.0691L70.3906 47.5068Z" fill="url(#paint22_linear_10323_46113)"/>
<path d="M70.3906 47.5068C70.3906 47.9776 70.0089 48.3594 69.538 48.3594L48.2871 48.3594C48.07 48.3594 47.861 48.2765 47.7029 48.1278L45.3901 45.9521C45.2319 45.8033 45.023 45.7205 44.8059 45.7205L19.8147 45.7205C19.3438 45.7205 18.962 45.3388 18.962 44.8679L18.962 22.0691C18.962 21.5982 19.3438 21.2165 19.8147 21.2165L69.538 21.2165C70.0089 21.2165 70.3906 21.5982 70.3906 22.0691L70.3906 47.5068Z" fill="url(#paint23_radial_10323_46113)"/>
<path d="M70.3906 47.5068C70.3906 47.9776 70.0089 48.3594 69.538 48.3594L48.2871 48.3594C48.07 48.3594 47.861 48.2765 47.7029 48.1278L45.3901 45.9521C45.2319 45.8033 45.023 45.7205 44.8059 45.7205L19.8147 45.7205C19.3438 45.7205 18.962 45.3388 18.962 44.8679L18.962 22.0691C18.962 21.5982 19.3438 21.2165 19.8147 21.2165L69.538 21.2165C70.0089 21.2165 70.3906 21.5982 70.3906 22.0691L70.3906 47.5068Z" fill="url(#paint24_linear_10323_46113)"/>
<g filter="url(#filter0_d_10323_46113)">
<path d="M16.1055 25.7418C16.1055 25.1638 16.574 24.6953 17.1519 24.6953H40.7394C41.0449 24.6953 41.3351 24.8288 41.534 25.0607L44.0469 27.9925C44.2457 28.2245 44.536 28.358 44.8414 28.358H72.6148C73.1928 28.358 73.6613 28.8265 73.6613 29.4044V61.3217C73.6613 61.8997 73.1928 62.3682 72.6148 62.3682H17.1519C16.574 62.3682 16.1055 61.8997 16.1055 61.3217V25.7418Z" fill="url(#paint25_linear_10323_46113)"/>
</g>
<path d="M45.5105 57.1655C51.4933 57.1655 56.3433 52.3155 56.3433 46.3328C56.3433 40.35 51.4933 35.5 45.5105 35.5C39.5277 35.5 34.6777 40.35 34.6777 46.3328C34.6777 52.3155 39.5277 57.1655 45.5105 57.1655Z" fill="url(#paint26_linear_10323_46113)"/>
<path d="M45.5105 57.1655C51.4933 57.1655 56.3433 52.3155 56.3433 46.3328C56.3433 40.35 51.4933 35.5 45.5105 35.5C39.5277 35.5 34.6777 40.35 34.6777 46.3328C34.6777 52.3155 39.5277 57.1655 45.5105 57.1655Z" fill="url(#paint27_linear_10323_46113)"/>
<path d="M53.5664 51.3831C51.8831 54.0622 48.9057 55.8466 45.5088 55.8466C42.1118 55.8466 39.1294 54.0622 37.4512 51.3831C38.907 49.2297 41.3384 47.7031 44.1743 47.3341C42.8145 46.8083 41.849 45.4839 41.849 43.9371C41.849 41.9152 43.4868 40.2773 45.5088 40.2773C47.5308 40.2773 49.1635 41.9152 49.1635 43.9371C49.1635 45.4839 48.198 46.8083 46.8382 47.3341C49.6741 47.7031 52.1055 49.2297 53.5664 51.3831Z" fill="white"/>
<defs>
<filter id="filter0_d_10323_46113" x="11.9196" y="23.0843" width="72.2072" height="52.3224" filterUnits="userSpaceOnUse" color-interpolation-filters="sRGB">
<feFlood flood-opacity="0" result="BackgroundImageFix"/>
<feColorMatrix in="SourceAlpha" type="matrix" values="0 0 0 0 0 0 0 0 0 0 0 0 0 0 0 0 0 0 127 0" result="hardAlpha"/>
<feOffset dx="3.13941" dy="5.71429"/>
<feGaussianBlur stdDeviation="3.66264"/>
<feComposite in2="hardAlpha" operator="out"/>
<feColorMatrix type="matrix" values="0 0 0 0 0 0 0 0 0 0.1045 0 0 0 0 0.475 0 0 0 0.07 0"/>
<feBlend mode="normal" in2="BackgroundImageFix" result="effect1_dropShadow_10323_46113"/>
<feBlend mode="normal" in="SourceGraphic" in2="effect1_dropShadow_10323_46113" result="shape"/>
</filter>
<linearGradient id="paint0_linear_10323_46113" x1="161.82" y1="145.501" x2="84.3244" y2="82.677" gradientUnits="userSpaceOnUse">
<stop stop-color="#DADEF4"/>
<stop offset="0.485517" stop-color="#D3D8F0"/>
</linearGradient>
<linearGradient id="paint1_linear_10323_46113" x1="161.82" y1="145.501" x2="84.3244" y2="82.677" gradientUnits="userSpaceOnUse">
<stop stop-color="#DADEF4"/>
<stop offset="0.485517" stop-color="#D3D8F0"/>
</linearGradient>
<linearGradient id="paint2_linear_10323_46113" x1="170.674" y1="55.159" x2="147.336" y2="89.7955" gradientUnits="userSpaceOnUse">
<stop stop-color="#FFC530"/>
<stop offset="1" stop-color="#FF9F0E"/>
</linearGradient>
<linearGradient id="paint3_linear_10323_46113" x1="153.47" y1="55.795" x2="162.878" y2="88.4253" gradientUnits="userSpaceOnUse">
<stop stop-color="#FFB74B"/>
<stop offset="1" stop-color="#FCCA80"/>
</linearGradient>
<linearGradient id="paint4_linear_10323_46113" x1="66.7553" y1="57.2075" x2="218.671" y2="147.2" gradientUnits="userSpaceOnUse">
<stop stop-color="#F9FBFF"/>
<stop offset="1" stop-color="#CCEDFF"/>
</linearGradient>
<linearGradient id="paint5_linear_10323_46113" x1="40.8884" y1="113.824" x2="45.6674" y2="135.536" gradientUnits="userSpaceOnUse">
<stop offset="0.0257714" stop-color="#FF8754"/>
<stop offset="1" stop-color="#FFE76B"/>
</linearGradient>
<linearGradient id="paint6_linear_10323_46113" x1="40.8884" y1="120.652" x2="45.6674" y2="142.364" gradientUnits="userSpaceOnUse">
<stop offset="0.0257714" stop-color="#FF8754"/>
<stop offset="1" stop-color="#FFE76B"/>
</linearGradient>
<linearGradient id="paint7_linear_10323_46113" x1="40.8884" y1="127.484" x2="45.6674" y2="149.196" gradientUnits="userSpaceOnUse">
<stop offset="0.0257714" stop-color="#FF8754"/>
<stop offset="1" stop-color="#FFE76B"/>
</linearGradient>
<linearGradient id="paint8_linear_10323_46113" x1="93.9166" y1="91.5546" x2="105.886" y2="90.5532" gradientUnits="userSpaceOnUse">
<stop stop-color="#05E0E0"/>
<stop offset="1" stop-color="#02C8C8"/>
</linearGradient>
<linearGradient id="paint9_linear_10323_46113" x1="79.6295" y1="90.5096" x2="91.1988" y2="88.1434" gradientUnits="userSpaceOnUse">
<stop stop-color="#05E0E0"/>
<stop offset="1" stop-color="#02C8C8"/>
</linearGradient>
<linearGradient id="paint10_linear_10323_46113" x1="108.202" y1="90.9925" x2="120.076" y2="89.5353" gradientUnits="userSpaceOnUse">
<stop stop-color="#05E0E0"/>
<stop offset="1" stop-color="#02C8C8"/>
</linearGradient>
<linearGradient id="paint11_linear_10323_46113" x1="165.819" y1="110.31" x2="165.538" y2="100.62" gradientUnits="userSpaceOnUse">
<stop stop-color="#EBEEFF"/>
<stop offset="0.485517" stop-color="#E4E7F7"/>
</linearGradient>
<linearGradient id="paint12_linear_10323_46113" x1="148.534" y1="118.881" x2="148.149" y2="109.197" gradientUnits="userSpaceOnUse">
<stop stop-color="#EBEEFF"/>
<stop offset="0.485517" stop-color="#E4E7F7"/>
</linearGradient>
<linearGradient id="paint13_linear_10323_46113" x1="16.7295" y1="-0.753309" x2="5.12002" y2="17.1035" gradientUnits="userSpaceOnUse">
<stop stop-color="#FFB545"/>
<stop offset="1" stop-color="#E38800"/>
</linearGradient>
<linearGradient id="paint14_linear_10323_46113" x1="16.7295" y1="-0.753309" x2="5.12002" y2="17.1035" gradientUnits="userSpaceOnUse">
<stop stop-color="#FFC530"/>
<stop offset="1" stop-color="#FF9F0E"/>
</linearGradient>
<linearGradient id="paint15_linear_10323_46113" x1="34.6217" y1="95.1371" x2="49.5109" y2="86.0213" gradientUnits="userSpaceOnUse">
<stop stop-color="#05E0E0"/>
<stop offset="1" stop-color="#02C8C8"/>
</linearGradient>
<linearGradient id="paint16_linear_10323_46113" x1="37.9196" y1="78.8034" x2="44.8144" y2="95.4388" gradientUnits="userSpaceOnUse">
<stop stop-color="#FFB74B"/>
<stop offset="1" stop-color="#FCCA80"/>
</linearGradient>
<linearGradient id="paint17_linear_10323_46113" x1="36.281" y1="82.0052" x2="53.7628" y2="86.9624" gradientUnits="userSpaceOnUse">
<stop stop-color="white"/>
<stop offset="0.420919" stop-color="#E2F1FA"/>
</linearGradient>
<linearGradient id="paint18_linear_10323_46113" x1="21.2607" y1="-0.957343" x2="6.50677" y2="21.736" gradientUnits="userSpaceOnUse">
<stop stop-color="#FFB545"/>
<stop offset="1" stop-color="#E38800"/>
</linearGradient>
<linearGradient id="paint19_linear_10323_46113" x1="21.2607" y1="-0.957343" x2="6.50677" y2="21.736" gradientUnits="userSpaceOnUse">
<stop stop-color="#FFC530"/>
<stop offset="1" stop-color="#FF9F0E"/>
</linearGradient>
<linearGradient id="paint20_linear_10323_46113" x1="174.333" y1="27.497" x2="165.571" y2="48.6381" gradientUnits="userSpaceOnUse">
<stop stop-color="#FFB74B"/>
<stop offset="1" stop-color="#FCCA80"/>
</linearGradient>
<linearGradient id="paint21_linear_10323_46113" x1="169.894" y1="30.5604" x2="181.182" y2="48.3268" gradientUnits="userSpaceOnUse">
<stop stop-color="white"/>
<stop offset="0.420919" stop-color="#E2F1FA"/>
</linearGradient>
<linearGradient id="paint22_linear_10323_46113" x1="72.067" y1="45.2597" x2="23.7571" y2="-26.8637" gradientUnits="userSpaceOnUse">
<stop stop-color="#F9FBFF"/>
<stop offset="1" stop-color="#E2F1FA"/>
</linearGradient>
<radialGradient id="paint23_radial_10323_46113" cx="0" cy="0" r="1" gradientUnits="userSpaceOnUse" gradientTransform="translate(81.8702 45.7648) rotate(-162.829) scale(95.5352 68.148)">
<stop stop-color="#AFB8D1"/>
<stop offset="1" stop-color="white"/>
</radialGradient>
<linearGradient id="paint24_linear_10323_46113" x1="-47.8951" y1="17.8929" x2="-39.8753" y2="78.2545" gradientUnits="userSpaceOnUse">
<stop stop-color="#DADEF4"/>
<stop offset="0.485517" stop-color="#D3D8F0"/>
</linearGradient>
<linearGradient id="paint25_linear_10323_46113" x1="14.2293" y1="28.9975" x2="85.508" y2="114.802" gradientUnits="userSpaceOnUse">
<stop stop-color="#F9FBFF"/>
<stop offset="1" stop-color="#E2F1FA"/>
</linearGradient>
<linearGradient id="paint26_linear_10323_46113" x1="84.5085" y1="59.8185" x2="72.9009" y2="13.7092" gradientUnits="userSpaceOnUse">
<stop stop-color="#DADEF4"/>
<stop offset="0.485517" stop-color="#D3D8F0"/>
</linearGradient>
<linearGradient id="paint27_linear_10323_46113" x1="32.7538" y1="58.3834" x2="60.5996" y2="49.8407" gradientUnits="userSpaceOnUse">
<stop stop-color="#05E0E0"/>
<stop offset="1" stop-color="#02C8C8"/>
</linearGradient>
</defs>
</svg>
