<svg width="200" height="200" viewBox="0 0 200 200" fill="none" xmlns="http://www.w3.org/2000/svg">
<path d="M150.47 42.9043H64.1328C62.614 42.9043 61.3828 44.4154 61.3828 46.2793V152.238C61.3828 154.102 62.614 155.613 64.1328 155.613H150.47C151.988 155.613 153.22 154.102 153.22 152.238V46.2793C153.22 44.4154 151.988 42.9043 150.47 42.9043Z" fill="url(#paint0_linear_9348_414301)"/>
<path d="M150.47 42.9043H64.1328C62.614 42.9043 61.3828 44.4154 61.3828 46.2793V152.238C61.3828 154.102 62.614 155.613 64.1328 155.613H150.47C151.988 155.613 153.22 154.102 153.22 152.238V46.2793C153.22 44.4154 151.988 42.9043 150.47 42.9043Z" fill="url(#paint1_linear_9348_414301)" stroke="#E1EDF8" stroke-width="5.35714"/>
<path fill-rule="evenodd" clip-rule="evenodd" d="M128.502 85.7483C128.548 85.1722 128.572 84.5898 128.572 84.0018C128.572 72.1671 118.978 62.5732 107.143 62.5732C95.3087 62.5732 85.7148 72.1671 85.7148 84.0018C85.7148 95.8365 95.3087 105.43 107.143 105.43C111.855 105.43 116.212 103.91 119.75 101.332C121.536 103.772 124.423 105.357 127.679 105.357C133.103 105.357 137.501 100.96 137.501 95.5357C137.501 90.3886 133.541 86.1662 128.502 85.7483Z" fill="url(#paint2_linear_9348_414301)"/>
<path d="M93.457 97.1787L93.9472 92.8873C94.0732 91.8048 95.8189 90.9396 97.9989 90.7918C99.2887 90.5614 100.587 90.3875 101.886 90.2571C101.838 91.9961 101.942 93.8481 102.25 95.7523L102.255 95.7479C102.682 98.3934 103.188 100.838 103.719 102.938C99.669 102.193 96.0894 100.115 93.457 97.1787Z" fill="white"/>
<path d="M105.158 103.144L105.529 94.2524L105.017 93.4699L105.707 91.3874H107.948L108.638 93.4699L108.126 94.2524L108.498 103.185C108.021 103.222 107.539 103.241 107.053 103.241C106.413 103.241 105.781 103.208 105.158 103.144Z" fill="white"/>
<path d="M109.917 103.018C110.454 100.9 110.968 98.426 111.4 95.7523V95.7566C111.708 93.8524 111.817 92.0004 111.769 90.2614C113.068 90.3918 114.366 90.5614 115.656 90.7962C117.836 90.944 119.581 91.8091 119.703 92.8916L120.243 97.6166C117.549 100.431 113.953 102.384 109.917 103.018Z" fill="white"/>
<path fill-rule="evenodd" clip-rule="evenodd" d="M99.7793 79.8665C98.9472 73.8942 102.73 69.9406 106.827 70.1978C109.138 70.0502 111.349 71.2469 112.689 73.3916C112.837 73.615 112.968 73.8526 113.081 74.0991C113.846 75.6586 114.187 77.6206 113.875 79.8678C114.401 80.026 114.465 81.4179 114.058 82.8229C113.654 84.2315 113.107 84.9618 112.737 84.8401C112.655 84.8121 112.584 84.7426 112.524 84.6355C111.115 87.8085 109.035 89.3137 106.827 89.3137C104.62 89.3105 102.537 87.8067 101.128 84.6346C101.102 84.6815 101.074 84.7212 101.043 84.7535C101.02 84.7778 100.995 84.7979 100.969 84.8135C100.951 84.8246 100.932 84.8335 100.913 84.8401C100.544 84.9618 99.9965 84.2315 99.5926 82.8229C99.1844 81.4142 99.2496 80.0187 99.7793 79.8665ZM101.884 76.407C101.894 76.2575 101.902 76.1097 101.908 75.964C102.544 76.4886 103.603 77.12 105.103 77.2407C106.354 77.3412 107.345 77.2761 108.143 77.2237C109.035 77.1651 109.686 77.1224 110.188 77.345C111.144 77.7711 109.871 76.0712 109.871 76.0712C109.871 76.0712 112.095 77.558 112.416 79.3623C112.466 79.6433 112.51 79.9115 112.55 80.1641C112.577 80.3403 112.603 80.5088 112.626 80.6688C112.643 80.7872 112.659 80.901 112.674 81.0096C111.691 85.6589 109.355 87.8225 106.827 87.8225C104.278 87.8225 101.924 85.6226 100.956 80.8926C100.94 80.8132 100.926 80.7344 100.912 80.6559C101.339 79.7214 101.638 78.5227 101.799 77.2624C101.836 76.9731 101.864 76.6871 101.884 76.407Z" fill="white"/>
<rect x="117.855" y="85.7139" width="19.6428" height="19.6429" rx="9.82142" fill="url(#paint3_linear_9348_414301)"/>
<rect x="118.748" y="86.6067" width="17.8571" height="17.8571" rx="8.92856" fill="url(#paint4_linear_9348_414301)" stroke="white" stroke-width="1.78571"/>
<path fill-rule="evenodd" clip-rule="evenodd" d="M127.679 90.1787C127.186 90.1787 126.787 90.5785 126.787 91.0716V94.643H123.215C122.722 94.643 122.322 95.0427 122.322 95.5359C122.322 96.029 122.722 96.4287 123.215 96.4287H126.787V100C126.787 100.493 127.186 100.893 127.679 100.893C128.173 100.893 128.572 100.493 128.572 100V96.4287H132.144C132.637 96.4287 133.037 96.029 133.037 95.5359C133.037 95.0427 132.637 94.643 132.144 94.643H128.572V91.0716C128.572 90.5785 128.173 90.1787 127.679 90.1787Z" fill="white"/>
<path d="M117.304 118.042H79.4938C78.9838 118.042 78.5703 118.996 78.5703 120.172V128.435C78.5703 129.612 78.9838 130.565 79.4938 130.565H117.304C117.814 130.565 118.227 129.612 118.227 128.435V120.172C118.227 118.996 117.814 118.042 117.304 118.042Z" fill="white"/>
<path d="M138.71 118.042H122.79C122.576 118.042 122.401 118.996 122.401 120.172V128.435C122.401 129.612 122.576 130.565 122.79 130.565H138.71C138.925 130.565 139.099 129.612 139.099 128.435V120.172C139.099 118.996 138.925 118.042 138.71 118.042Z" fill="white"/>
<g filter="url(#filter0_d_9348_414301)">
<rect x="19.6445" y="17.8574" width="50.0928" height="50.0928" rx="25.0464" fill="url(#paint5_linear_9348_414301)"/>
</g>
<path d="M41.4934 31.4882L40.5187 33.0889C40.2971 33.456 39.8393 33.5735 39.4848 33.3532C39.1304 33.1476 39.027 32.6924 39.2337 32.3252L39.411 32.0315C36.9593 32.663 35.1279 34.8951 35.1279 37.5385C35.1279 37.9643 34.7882 38.2874 34.3747 38.2874C33.9611 38.2874 33.6214 37.9643 33.6214 37.5385C33.5476 33.3679 36.8559 30.3574 40.8436 30.3574C41.1242 30.3574 41.3605 30.5043 41.4934 30.7392C41.6263 30.9742 41.6263 31.2532 41.4934 31.4882Z" fill="white"/>
<path d="M58.7291 48.2439C58.8029 52.4145 55.4946 55.425 51.5069 55.425C51.2263 55.425 50.99 55.2781 50.8571 55.0578C50.7242 54.8082 50.7242 54.5292 50.8571 54.2942L51.8319 52.6935C52.0534 52.3411 52.5112 52.2236 52.8657 52.4439C53.2202 52.6495 53.3235 53.1047 53.1168 53.4572L52.9395 53.7655C55.406 53.1194 57.2226 50.9019 57.2226 48.2439C57.2226 47.8327 57.5623 47.495 57.9758 47.495C58.3894 47.495 58.7291 47.8327 58.7291 48.2439Z" fill="white"/>
<path d="M41.4491 36.9657C36.3094 36.9657 32.1445 41.107 32.1445 46.2174C32.1445 51.3278 36.3094 55.469 41.4491 55.469C46.5888 55.469 50.7537 51.3278 50.7537 46.2174C50.7537 41.107 46.5888 36.9657 41.4491 36.9657ZM43.8122 49.0222C43.6202 49.3453 43.3543 49.6097 43.0146 49.8152C42.7193 49.9768 42.3943 50.0943 42.0251 50.153V50.946C42.0251 51.1075 41.9808 51.2397 41.8774 51.3425C41.7888 51.4453 41.6707 51.504 41.523 51.504C41.3753 51.504 41.2423 51.4453 41.1537 51.3425C41.0651 51.2397 41.0208 51.1075 41.0208 50.946V50.1971C40.6368 50.1677 40.3119 50.0943 40.0017 50.0062C39.6473 49.8887 39.3519 49.7418 39.1008 49.595C38.9827 49.5069 38.894 49.4041 38.8497 49.2866C38.8054 49.1691 38.7759 49.0369 38.7907 48.9195C38.8054 48.7873 38.8497 48.6845 38.9236 48.5964C38.9974 48.4936 39.086 48.4348 39.1894 48.4202C39.2928 48.3761 39.4257 48.4202 39.5587 48.5083C39.7507 48.6257 40.0017 48.7285 40.2971 48.846C40.6073 48.9488 40.9765 49.0076 41.4048 49.0076C41.7445 49.0076 42.0103 48.9635 42.2171 48.8754C42.4387 48.7726 42.5863 48.6551 42.675 48.5083C42.7783 48.3467 42.8226 48.1705 42.8226 47.9649C42.8226 47.8034 42.7931 47.6712 42.734 47.539C42.6602 47.4216 42.542 47.3188 42.3943 47.216C42.2467 47.1279 42.0251 47.0544 41.774 46.9957L40.6959 46.7314C40.0904 46.5845 39.6325 46.3349 39.3371 45.9824C39.027 45.6447 38.8793 45.1894 38.8793 44.6167C38.8793 44.1908 38.9679 43.7943 39.1747 43.4566C39.3667 43.1041 39.6325 42.8251 39.987 42.6195C40.2824 42.4433 40.622 42.3258 41.0208 42.2818V41.4888C41.0208 41.3272 41.0651 41.1951 41.1537 41.0923C41.2423 40.9895 41.3753 40.9307 41.523 40.9307C41.6559 40.9307 41.774 40.9895 41.8774 41.0923C41.966 41.1951 42.0251 41.3272 42.0251 41.4888V42.2524C42.2467 42.2818 42.4977 42.3405 42.7636 42.4286C43.1033 42.5461 43.3986 42.7223 43.6497 42.9279C43.7531 43.016 43.827 43.1188 43.8565 43.2363C43.886 43.3538 43.886 43.4713 43.8713 43.5741C43.8417 43.6769 43.7826 43.765 43.7088 43.8384C43.635 43.9118 43.5463 43.9559 43.4282 43.9706C43.3248 43.9852 43.2066 43.9412 43.059 43.8531C42.867 43.7356 42.6454 43.6328 42.4091 43.5594C42.158 43.4713 41.8774 43.4272 41.5377 43.4272C41.1094 43.4272 40.7697 43.5447 40.5187 43.7503C40.2824 43.9559 40.1494 44.2349 40.1494 44.5726C40.1494 44.8223 40.2233 45.0279 40.3857 45.1894C40.5334 45.3363 40.7845 45.4538 41.139 45.5419L42.2319 45.8062C42.8817 45.9677 43.3543 46.2174 43.6497 46.5551C43.9599 46.8929 44.1076 47.3335 44.1076 47.8768C44.1076 48.3027 44.0042 48.6845 43.8122 49.0222Z" fill="white"/>
<path d="M58.7291 39.1685C58.7291 42.7517 56.1445 45.7475 52.718 46.3789C52.7918 45.953 52.8214 45.4978 52.8214 45.0426C52.8214 40.3727 49.1734 36.5546 44.5654 36.2462C45.7026 33.6469 48.302 31.8259 51.3445 31.8259C55.4208 31.8259 58.7291 35.1154 58.7291 39.1685Z" fill="white"/>
<path d="M139.102 138.914H73.4321C72.5462 138.914 71.8281 139.55 71.8281 140.334V145.843C71.8281 146.627 72.5462 147.263 73.4321 147.263H139.102C139.988 147.263 140.706 146.627 140.706 145.843V140.334C140.706 139.55 139.988 138.914 139.102 138.914Z" fill="white"/>
<path d="M126.098 155.614C126.098 140.629 138.246 128.48 153.232 128.48C159.945 128.48 166.088 130.918 170.826 134.958C176.664 139.935 180.365 147.342 180.365 155.614C180.365 170.599 168.217 182.747 153.232 182.747C149.499 182.747 145.942 181.993 142.704 180.629C132.947 176.518 126.098 166.866 126.098 155.614Z" fill="#05E0AC" stroke="white" stroke-width="3.77042"/>
<path d="M148.417 159.956C149.923 158.437 151.363 156.98 152.807 155.534C156.192 152.142 159.574 148.754 162.954 145.37C164.526 143.797 166.919 143.999 168.076 145.778C168.938 147.1 168.759 148.718 167.572 149.912C164.301 153.208 161.025 156.498 157.743 159.78C155.463 162.067 153.181 164.353 150.9 166.638C149.371 168.167 147.517 168.177 145.981 166.65C143.82 164.507 141.67 162.354 139.531 160.191C138.583 159.236 138.292 158.087 138.715 156.81C139.137 155.534 140.058 154.834 141.351 154.635C142.42 154.471 143.345 154.842 144.106 155.604C145.517 157.023 146.925 158.447 148.417 159.956Z" fill="white"/>
<path d="M41.5009 72.124C41.5009 71.5777 41.058 71.1348 40.5117 71.1348C39.9654 71.1348 39.5225 71.5777 39.5225 72.124H41.5009ZM59.2965 99.2576L49.4046 93.5465V104.969L59.2965 99.2576ZM39.5225 72.124V92.996H41.5009V72.124H39.5225ZM46.7733 100.247H50.3938V98.2684H46.7733V100.247ZM39.5225 92.996C39.5225 97.0005 42.7688 100.247 46.7733 100.247V98.2684C43.8614 98.2684 41.5009 95.9079 41.5009 92.996H39.5225Z" fill="#EEF2FC"/>
<defs>
<filter id="filter0_d_9348_414301" x="16.4364" y="16.788" width="60.7876" height="60.7867" filterUnits="userSpaceOnUse" color-interpolation-filters="sRGB">
<feFlood flood-opacity="0" result="BackgroundImageFix"/>
<feColorMatrix in="SourceAlpha" type="matrix" values="0 0 0 0 0 0 0 0 0 0 0 0 0 0 0 0 0 0 127 0" result="hardAlpha"/>
<feOffset dx="2.13878" dy="4.27756"/>
<feGaussianBlur stdDeviation="2.67347"/>
<feComposite in2="hardAlpha" operator="out"/>
<feColorMatrix type="matrix" values="0 0 0 0 0 0 0 0 0 0.175 0 0 0 0 0.4375 0 0 0 0.07 0"/>
<feBlend mode="normal" in2="BackgroundImageFix" result="effect1_dropShadow_9348_414301"/>
<feBlend mode="normal" in="SourceGraphic" in2="effect1_dropShadow_9348_414301" result="shape"/>
</filter>
<linearGradient id="paint0_linear_9348_414301" x1="35.2928" y1="-0.926872" x2="167.622" y2="142.307" gradientUnits="userSpaceOnUse">
<stop stop-color="white"/>
<stop offset="1" stop-color="#E2F1FA"/>
</linearGradient>
<linearGradient id="paint1_linear_9348_414301" x1="35.2928" y1="-0.926872" x2="167.622" y2="142.307" gradientUnits="userSpaceOnUse">
<stop stop-color="white"/>
<stop offset="1" stop-color="#E2F1FA"/>
</linearGradient>
<linearGradient id="paint2_linear_9348_414301" x1="114.473" y1="96.3803" x2="141.181" y2="96.3803" gradientUnits="userSpaceOnUse">
<stop stop-color="#05E0E0"/>
<stop offset="1" stop-color="#02C8C8"/>
</linearGradient>
<linearGradient id="paint3_linear_9348_414301" x1="114.471" y1="94.5941" x2="141.178" y2="94.5941" gradientUnits="userSpaceOnUse">
<stop stop-color="#05E0E0"/>
<stop offset="1" stop-color="#02C8C8"/>
</linearGradient>
<linearGradient id="paint4_linear_9348_414301" x1="114.471" y1="94.5941" x2="141.178" y2="94.5941" gradientUnits="userSpaceOnUse">
<stop stop-color="#05E0E0"/>
<stop offset="1" stop-color="#02C8C8"/>
</linearGradient>
<linearGradient id="paint5_linear_9348_414301" x1="19.6435" y1="42.9053" x2="69.735" y2="42.9053" gradientUnits="userSpaceOnUse">
<stop stop-color="#05E0E0"/>
<stop offset="1" stop-color="#02C8C8"/>
</linearGradient>
</defs>
</svg>
