<svg width="156" height="156" viewBox="0 0 156 156" fill="none" xmlns="http://www.w3.org/2000/svg">
<path d="M76.582 20.4531L90.1857 23.4166L93.5473 32.841L111.504 36.7529L94.5825 114.43L57.8526 106.428L76.582 20.4531Z" fill="#D0DEEB"/>
<path d="M60.0078 24.3008L77.2258 24.0657L83.912 34.4793L106.64 34.169L107.982 132.484L61.4935 133.118L60.0078 24.3008Z" fill="url(#paint0_linear_9348_423772)"/>
<path d="M60.0078 24.3008L77.2258 24.0657L83.912 34.4793L106.64 34.169L107.982 132.484L61.4935 133.118L60.0078 24.3008Z" fill="#E1EDF8"/>
<path d="M44.8398 27.4326H63.3514L70.3858 38.7247H131.844V144.426H44.8398V27.4326Z" fill="url(#paint1_linear_9348_423772)"/>
<ellipse cx="88.1546" cy="92.5951" rx="32.5804" ry="32.5804" fill="url(#paint2_linear_9348_423772)"/>
<path d="M67.3516 112.63L68.0968 106.105C68.2884 104.459 70.9426 103.144 74.2572 102.919C76.2181 102.569 78.1923 102.304 80.1664 102.106C80.0937 104.75 80.2522 107.566 80.721 110.461L80.7274 110.454C81.377 114.477 82.1466 118.193 82.9534 121.386C76.7964 120.253 71.3539 117.094 67.3516 112.63Z" fill="white"/>
<path d="M85.1421 121.7L85.7059 108.181L84.9268 106.991L85.9766 103.825H89.3834L90.4332 106.991L89.6541 108.181L90.2203 121.762C89.4953 121.818 88.7626 121.847 88.0227 121.847C87.05 121.847 86.0888 121.797 85.1421 121.7Z" fill="white"/>
<path d="M92.3772 121.508C93.1948 118.288 93.9749 114.526 94.6322 110.461V110.468C95.101 107.572 95.2663 104.757 95.1936 102.113C97.1678 102.311 99.1419 102.569 101.103 102.926C104.417 103.15 107.072 104.466 107.256 106.112L108.077 113.296C103.981 117.575 98.5139 120.544 92.3772 121.508Z" fill="white"/>
<path fill-rule="evenodd" clip-rule="evenodd" d="M76.964 86.308C75.699 77.2276 81.45 71.2164 87.68 71.6074C91.1926 71.3831 94.5552 73.2026 96.5915 76.4633C96.818 76.803 97.0157 77.1643 97.1884 77.5392C98.351 79.9101 98.8695 82.8933 98.3953 86.3099C99.195 86.5504 99.292 88.6668 98.6731 90.8029C98.059 92.9446 97.2273 94.055 96.6659 93.8699C96.5412 93.8273 96.4323 93.7217 96.3421 93.5588C94.199 98.3831 91.0361 100.672 87.68 100.672C84.3235 100.667 81.1573 98.3804 79.0149 93.5575C78.9754 93.6288 78.9321 93.6892 78.8854 93.7382C78.85 93.7752 78.8128 93.8057 78.7736 93.8295C78.7459 93.8464 78.7171 93.8599 78.6874 93.8699C78.126 94.055 77.2942 92.9446 76.6801 90.8029C76.0596 88.6612 76.1586 86.5394 76.964 86.308ZM80.1637 81.0481C80.1799 80.8208 80.1921 80.5961 80.2002 80.3745C81.1671 81.1722 82.7769 82.1322 85.0586 82.3157C86.9598 82.4685 88.4668 82.3695 89.6802 82.2899C91.0372 82.2007 92.0268 82.1357 92.7903 82.4742C94.2429 83.122 92.3083 80.5375 92.3083 80.5375C92.3083 80.5375 95.6888 82.7981 96.1775 85.5413C96.2525 85.9687 96.3201 86.3765 96.3803 86.7604C96.4225 87.0283 96.4611 87.2845 96.4962 87.5277C96.5222 87.7078 96.5466 87.8808 96.5692 88.046C95.0747 95.1149 91.5235 98.4044 87.68 98.4044C83.8044 98.4044 80.2255 95.0597 78.7533 87.868C78.7293 87.7474 78.707 87.6275 78.6864 87.5082C79.335 86.0874 79.7906 84.2649 80.0342 82.3487C80.0903 81.9087 80.1336 81.4739 80.1637 81.0481Z" fill="white"/>
<g filter="url(#filter0_d_9348_423772)">
<rect x="11.1523" y="11.1426" width="39.985" height="39.9851" rx="19.9925" fill="url(#paint3_linear_9348_423772)"/>
<rect x="11.1523" y="11.1426" width="39.985" height="39.9851" rx="19.9925" fill="url(#paint4_linear_9348_423772)"/>
</g>
<path d="M27.3287 19.3165L26.3781 20.8774C26.162 21.2354 25.7155 21.3499 25.3698 21.1351C25.0241 20.9346 24.9232 20.4907 25.1249 20.1327L25.2978 19.8463C22.9067 20.4621 21.1206 22.6387 21.1206 25.2163C21.1206 25.6316 20.7893 25.9466 20.386 25.9466C19.9826 25.9466 19.6513 25.6316 19.6513 25.2163C19.5793 21.1494 22.8058 18.2139 26.695 18.2139C26.9686 18.2139 27.1991 18.3571 27.3287 18.5862C27.4584 18.8153 27.4584 19.0874 27.3287 19.3165Z" fill="white"/>
<path d="M44.1383 35.6555C44.2103 39.7223 40.9838 42.6579 37.0947 42.6579C36.821 42.6579 36.5906 42.5147 36.4609 42.2999C36.3313 42.0565 36.3313 41.7844 36.4609 41.5553L37.4116 39.9944C37.6277 39.6507 38.0742 39.5362 38.4199 39.751C38.7656 39.9514 38.8664 40.3954 38.6648 40.739L38.4919 41.0398C40.8974 40.4097 42.6691 38.2474 42.6691 35.6555C42.6691 35.2545 43.0004 34.9252 43.4037 34.9252C43.807 34.9252 44.1383 35.2545 44.1383 35.6555Z" fill="white"/>
<path d="M27.2855 24.6578C22.2729 24.6578 18.2109 28.696 18.2109 33.6793C18.2109 38.6627 22.2729 42.7009 27.2855 42.7009C32.2982 42.7009 36.3601 38.6627 36.3601 33.6793C36.3601 28.696 32.2982 24.6578 27.2855 24.6578ZM29.5902 36.4144C29.4029 36.7295 29.1437 36.9872 28.8124 37.1877C28.5243 37.3452 28.2074 37.4598 27.8473 37.5171V38.2903C27.8473 38.4479 27.8041 38.5767 27.7032 38.677C27.6168 38.7772 27.5016 38.8345 27.3575 38.8345C27.2135 38.8345 27.0839 38.7772 26.9974 38.677C26.911 38.5767 26.8678 38.4479 26.8678 38.2903V37.56C26.4933 37.5314 26.1764 37.4598 25.8739 37.3739C25.5282 37.2593 25.2401 37.1161 24.9953 36.9729C24.88 36.887 24.7936 36.7868 24.7504 36.6722C24.7072 36.5576 24.6784 36.4288 24.6928 36.3142C24.7072 36.1853 24.7504 36.0851 24.8224 35.9992C24.8944 35.8989 24.9809 35.8416 25.0817 35.8273C25.1825 35.7844 25.3122 35.8273 25.4418 35.9132C25.6291 36.0278 25.8739 36.128 26.162 36.2426C26.4645 36.3428 26.8246 36.4001 27.2423 36.4001C27.5736 36.4001 27.8329 36.3572 28.0345 36.2712C28.2506 36.171 28.3946 36.0564 28.4811 35.9132C28.5819 35.7557 28.6251 35.5839 28.6251 35.3834C28.6251 35.2259 28.5963 35.097 28.5387 34.9681C28.4667 34.8536 28.3514 34.7533 28.2074 34.6531C28.0633 34.5672 27.8473 34.4956 27.6024 34.4383L26.5509 34.1805C25.9603 34.0373 25.5138 33.7939 25.2257 33.4502C24.9232 33.1209 24.7792 32.6769 24.7792 32.1185C24.7792 31.7032 24.8656 31.3166 25.0673 30.9872C25.2545 30.6435 25.5138 30.3714 25.8595 30.171C26.1476 29.9991 26.4789 29.8846 26.8678 29.8416V29.0683C26.8678 28.9108 26.911 28.7819 26.9974 28.6817C27.0839 28.5815 27.2135 28.5242 27.3575 28.5242C27.4872 28.5242 27.6024 28.5815 27.7032 28.6817C27.7897 28.7819 27.8473 28.9108 27.8473 29.0683V29.813C28.0633 29.8416 28.3082 29.8989 28.5675 29.9848C28.8988 30.0994 29.1869 30.2712 29.4317 30.4717C29.5326 30.5576 29.6046 30.6578 29.6334 30.7724C29.6622 30.887 29.6622 31.0015 29.6478 31.1018C29.619 31.202 29.5614 31.2879 29.4893 31.3595C29.4173 31.4311 29.3309 31.4741 29.2157 31.4884C29.1148 31.5027 28.9996 31.4598 28.8556 31.3738C28.6683 31.2593 28.4523 31.159 28.2218 31.0874C27.9769 31.0015 27.7032 30.9586 27.3719 30.9586C26.9542 30.9586 26.6229 31.0731 26.3781 31.2736C26.1476 31.4741 26.018 31.7462 26.018 32.0755C26.018 32.319 26.09 32.5194 26.2484 32.6769C26.3925 32.8201 26.6373 32.9347 26.983 33.0206L28.0489 33.2784C28.6827 33.4359 29.1437 33.6793 29.4317 34.0087C29.7342 34.3381 29.8783 34.7676 29.8783 35.2975C29.8783 35.7128 29.7774 36.0851 29.5902 36.4144Z" fill="white"/>
<path d="M44.1383 26.8058C44.1383 30.2998 41.6176 33.2211 38.2759 33.8369C38.3479 33.4216 38.3767 32.9777 38.3767 32.5337C38.3767 27.98 34.8189 24.2569 30.3248 23.9561C31.4339 21.4215 33.969 19.6459 36.9363 19.6459C40.9118 19.6459 44.1383 22.8535 44.1383 26.8058Z" fill="white"/>
<path d="M33.8702 58.8047C33.8702 58.6002 33.7045 58.4345 33.5 58.4345C33.2955 58.4345 33.1298 58.6002 33.1298 58.8047H33.8702ZM43.8665 80.2782L40.1642 78.1406V82.4157L43.8665 80.2782ZM33.1298 58.8047V75.3227H33.8702V58.8047H33.1298ZM38.4554 80.6484H40.5344V79.9079H38.4554V80.6484ZM33.1298 75.3227C33.1298 78.264 35.5141 80.6484 38.4554 80.6484V79.9079C35.9231 79.9079 33.8702 77.8551 33.8702 75.3227H33.1298Z" fill="#E0E4EE"/>
<defs>
<filter id="filter0_d_9348_423772" x="9.55183" y="10.6091" width="45.3194" height="45.3204" filterUnits="userSpaceOnUse" color-interpolation-filters="sRGB">
<feFlood flood-opacity="0" result="BackgroundImageFix"/>
<feColorMatrix in="SourceAlpha" type="matrix" values="0 0 0 0 0 0 0 0 0 0 0 0 0 0 0 0 0 0 127 0" result="hardAlpha"/>
<feOffset dx="1.06701" dy="2.13402"/>
<feGaussianBlur stdDeviation="1.33376"/>
<feComposite in2="hardAlpha" operator="out"/>
<feColorMatrix type="matrix" values="0 0 0 0 0 0 0 0 0 0.175 0 0 0 0 0.4375 0 0 0 0.07 0"/>
<feBlend mode="normal" in2="BackgroundImageFix" result="effect1_dropShadow_9348_423772"/>
<feBlend mode="normal" in="SourceGraphic" in2="effect1_dropShadow_9348_423772" result="shape"/>
</filter>
<linearGradient id="paint0_linear_9348_423772" x1="7.69791" y1="-17.3108" x2="134.634" y2="138.361" gradientUnits="userSpaceOnUse">
<stop stop-color="white"/>
<stop offset="1" stop-color="#E2F1FA"/>
</linearGradient>
<linearGradient id="paint1_linear_9348_423772" x1="-10.779" y1="-18.0648" x2="123.384" y2="151.134" gradientUnits="userSpaceOnUse">
<stop stop-color="white"/>
<stop offset="1" stop-color="#E2F1FA"/>
</linearGradient>
<linearGradient id="paint2_linear_9348_423772" x1="4.29453" y1="36.2233" x2="165.591" y2="144.648" gradientUnits="userSpaceOnUse">
<stop stop-color="#D2D9EE"/>
<stop offset="1" stop-color="#E7F0F8"/>
</linearGradient>
<linearGradient id="paint3_linear_9348_423772" x1="11.1515" y1="31.1363" x2="51.1356" y2="31.1363" gradientUnits="userSpaceOnUse">
<stop stop-color="#05E0E0"/>
<stop offset="1" stop-color="#02C8C8"/>
</linearGradient>
<linearGradient id="paint4_linear_9348_423772" x1="-20.3147" y1="-3.45665" x2="78.6624" y2="63.0765" gradientUnits="userSpaceOnUse">
<stop stop-color="#D2D9EE"/>
<stop offset="1" stop-color="#E7F0F8"/>
</linearGradient>
</defs>
</svg>
