<svg width="118" height="101" viewBox="0 0 118 101" fill="none" xmlns="http://www.w3.org/2000/svg">
<path d="M41.3574 30.332C41.3574 29.7797 41.8051 29.332 42.3574 29.332H65.7938H68.8483H96.3574C96.9097 29.332 97.3574 29.7797 97.3574 30.332V69.332C97.3574 69.8843 96.9097 70.332 96.3574 70.332H42.3574C41.8051 70.332 41.3574 69.8843 41.3574 69.332V30.332Z" fill="url(#paint0_radial_9856_838879)"/>
<path d="M95.3574 37.832C95.6336 37.832 95.8574 37.6082 95.8574 37.332C95.8574 37.0559 95.6336 36.832 95.3574 36.832V37.832ZM95.3574 36.832H40.3574V37.832H95.3574V36.832Z" fill="url(#paint1_linear_9856_838879)"/>
<g filter="url(#filter0_d_9856_838879)">
<path opacity="0.8" d="M80.1327 52.2608C80.1802 52.6261 80.4846 52.9011 80.8529 52.9105C81.5338 52.9297 81.8488 53.5216 81.4719 54.1087C81.0065 54.8316 80.516 55.5369 80.0357 56.2503C79.6659 56.7982 79.3008 57.3494 78.9247 57.8926C78.5486 58.4358 77.9899 58.4565 77.6123 57.9062C76.7606 56.6632 75.9214 55.4107 75.0768 54.163C74.8934 53.893 74.8174 53.6039 74.9773 53.3019C75.1371 53 75.4035 52.8929 75.7318 52.9097C76.0219 52.9254 76.2525 52.6614 76.207 52.3744C75.7782 49.671 73.7872 47.3217 71.0612 46.5466C68.3878 45.7856 65.4649 46.5789 63.523 48.9303C63.1353 49.3998 62.35 49.4429 62.0396 48.919C61.4154 47.864 60.6787 46.1821 61.5678 45.3383C63.6624 43.3502 66.7603 42.0312 70.3262 42.3912C74.5456 42.8177 79.3571 46.3047 80.1327 52.2608Z" fill="url(#paint2_linear_9856_838879)"/>
<path opacity="0.8" d="M74.1188 58.2037C74.7257 57.5618 75.7037 57.5387 76.2403 58.2403C76.8392 59.0233 77.4753 60.3204 76.7948 61.0336C74.7973 63.1274 71.5992 64.7327 67.7101 64.3507C63.3414 63.9222 58.6298 60.3611 57.8617 54.4799C57.8141 54.1149 57.5099 53.8214 57.1419 53.8308C56.823 53.8404 56.5816 53.711 56.4367 53.4251C56.2917 53.1392 56.3583 52.8588 56.5338 52.6001C57.1325 51.7141 57.731 50.8271 58.3292 49.939C58.5807 49.566 58.8268 49.189 59.0861 48.8208C59.456 48.2985 60.0077 48.2969 60.3737 48.8304C61.2255 50.0747 62.0647 51.3262 62.9103 52.5745C63.0937 52.8429 63.172 53.128 63.0153 53.4347C62.8586 53.7414 62.5937 53.8492 62.2654 53.834C61.9704 53.8196 61.7365 54.087 61.7844 54.3784C62.2349 57.1221 64.2975 59.4859 66.917 60.2017C69.4603 60.8958 72.1893 60.2445 74.1188 58.2037Z" fill="url(#paint3_linear_9856_838879)"/>
<path opacity="0.8" d="M70.3109 57.0442C70.1842 57.9094 69.9845 58.1637 69.4337 58.1629C68.8829 58.1621 68.6978 57.9152 68.5592 57.0392C67.3154 56.685 66.6926 56.0568 66.6817 55.1403C66.6762 54.6359 67.0656 54.2899 67.5981 54.3395C68.0121 54.3783 68.2784 54.5962 68.3276 54.9653C68.3814 55.3665 68.6112 55.5094 69.0325 55.4871C69.3206 55.4714 69.6106 55.4871 69.8988 55.4829C70.4048 55.4747 70.5316 55.3327 70.5307 54.7878C70.5298 54.2429 70.3957 54.1091 69.8833 54.1009C69.5185 54.0943 69.1538 54.1009 68.789 54.0959C67.6191 54.0711 66.741 53.3264 66.6917 52.2622C66.6604 51.7975 66.7112 51.3312 66.8422 50.8809C67.0455 50.2535 67.6355 49.8902 68.5474 49.6632C68.7297 48.7459 68.9203 48.5139 69.4592 48.5279C69.9982 48.542 70.2051 48.8128 70.2936 49.5905C70.6875 49.7771 71.0869 49.9158 71.4198 50.1362C71.9386 50.4797 72.1766 50.9842 72.1875 51.5662C72.1948 51.979 71.8967 52.2994 71.4763 52.3464C71.0131 52.3984 70.6091 52.1631 70.548 51.7404C70.4869 51.3177 70.2553 51.1724 69.814 51.1988C69.5267 51.2161 69.2367 51.1988 68.9477 51.2038C68.4699 51.2137 68.3413 51.3598 68.3395 51.8783C68.3395 52.424 68.468 52.5751 68.965 52.585C69.3298 52.5925 69.6945 52.585 70.0593 52.585C71.2574 52.6073 72.1383 53.3529 72.1757 54.441C72.2023 54.9198 72.1387 55.3991 71.9878 55.8586C71.7699 56.4795 71.3003 56.7486 70.3109 57.0442Z" fill="url(#paint4_linear_9856_838879)"/>
</g>
<path d="M67.8579 71.832C67.8579 71.5556 67.6338 71.3316 67.3574 71.3316C67.081 71.3316 66.857 71.5556 66.857 71.832L67.8579 71.832ZM32.8574 54.332L29.9681 59.3365L35.7467 59.3365L32.8574 54.332ZM32.8574 75.6642L32.357 75.6642L32.8574 75.6642ZM36.0252 79.3325L64.1896 79.3325L64.1896 78.3316L36.0252 78.3316L36.0252 79.3325ZM67.8579 75.6642L67.8579 71.832L66.857 71.832L66.857 75.6642L67.8579 75.6642ZM33.3579 75.6642L33.3579 58.836L32.357 58.836L32.357 75.6642L33.3579 75.6642ZM64.1896 79.3325C66.2155 79.3325 67.8579 77.6901 67.8579 75.6642L66.857 75.6642C66.857 77.1374 65.6628 78.3316 64.1896 78.3316L64.1896 79.3325ZM36.0252 78.3316C34.5521 78.3316 33.3579 77.1374 33.3579 75.6642L32.357 75.6642C32.357 77.6901 33.9993 79.3325 36.0252 79.3325L36.0252 78.3316Z" fill="#EEF2FC"/>
<path d="M54.502 23.8316C54.2256 23.8316 54.0015 24.0556 54.0015 24.332C54.0015 24.6084 54.2256 24.8325 54.502 24.8325L54.502 23.8316ZM103.857 54.332L106.747 49.3276L100.968 49.3276L103.857 54.332ZM100.69 23.8316L54.502 23.8316L54.502 24.8325L100.69 24.8325L100.69 23.8316ZM103.357 27.4998L103.357 49.828L104.358 49.828L104.358 27.4998L103.357 27.4998ZM100.69 24.8325C102.163 24.8325 103.357 26.0267 103.357 27.4998L104.358 27.4998C104.358 25.4739 102.716 23.8316 100.69 23.8316L100.69 24.8325Z" fill="#EEF2FC"/>
<g filter="url(#filter1_d_9856_838879)">
<path d="M82.3574 63.887C82.3574 63.1865 82.7205 62.5361 83.3167 62.1684L96.4405 54.0754C97.0902 53.6747 97.9103 53.6747 98.5601 54.0754L111.684 62.1684C112.28 62.5361 112.643 63.1865 112.643 63.887V78.9977C112.643 79.7248 112.252 80.3958 111.619 80.7543L98.4957 88.1911C97.8782 88.541 97.1223 88.541 96.5049 88.1911L83.3811 80.7543C82.7484 80.3958 82.3574 79.7248 82.3574 78.9977V63.887Z" fill="url(#paint5_linear_9856_838879)"/>
</g>
<path d="M84.375 65.0829C84.375 64.3789 84.7417 63.7257 85.3427 63.3592L96.4475 56.5865C97.0931 56.1928 97.9045 56.1928 98.5501 56.5865L109.655 63.3592C110.256 63.7257 110.623 64.3789 110.623 65.0829V77.693C110.623 78.4235 110.228 79.0971 109.591 79.4543L98.4859 85.6778C97.8727 86.0215 97.1249 86.0215 96.5117 85.6778L85.4069 79.4543C84.7696 79.0971 84.375 78.4235 84.375 77.693V65.0829Z" fill="url(#paint6_linear_9856_838879)"/>
<path d="M110.999 63.3844L83.29 79.5729" stroke="url(#paint7_linear_9856_838879)" stroke-width="1.86795"/>
<path d="M51.5371 41.5473C51.5371 41.9225 51.233 42.2266 50.8579 42.2266L35.5474 42.2266C35.3491 42.2266 35.1608 42.1399 35.0317 41.9894L33.4006 40.0864C33.2715 39.9358 33.0831 39.8492 32.8849 39.8492L14.8574 39.8492C14.4823 39.8492 14.1782 39.5451 14.1782 39.1699L14.1782 18.4527C14.1782 18.0775 14.4823 17.7734 14.8574 17.7734L50.8579 17.7734C51.233 17.7734 51.5371 18.0775 51.5371 18.4527L51.5371 41.5473Z" fill="url(#paint8_linear_9856_838879)"/>
<path d="M51.5371 41.5473C51.5371 41.9225 51.233 42.2266 50.8579 42.2266L35.5474 42.2266C35.3491 42.2266 35.1608 42.1399 35.0317 41.9894L33.4006 40.0864C33.2715 39.9358 33.0831 39.8492 32.8849 39.8492L14.8574 39.8492C14.4823 39.8492 14.1782 39.5451 14.1782 39.1699L14.1782 18.4527C14.1782 18.0775 14.4823 17.7734 14.8574 17.7734L50.8579 17.7734C51.233 17.7734 51.5371 18.0775 51.5371 18.4527L51.5371 41.5473Z" fill="url(#paint9_radial_9856_838879)"/>
<g filter="url(#filter2_d_9856_838879)">
<path d="M12.7129 21.9435C12.7129 21.5389 13.0409 21.2109 13.4454 21.2109H29.9567C30.1705 21.2109 30.3737 21.3044 30.5128 21.4667L32.2719 23.519C32.4111 23.6813 32.6142 23.7748 32.8281 23.7748H52.2694C52.674 23.7748 53.002 24.1028 53.002 24.5073V46.8494C53.002 47.254 52.674 47.582 52.2694 47.582H13.4454C13.0409 47.582 12.7129 47.254 12.7129 46.8494V21.9435Z" fill="url(#paint10_linear_9856_838879)"/>
</g>
<g filter="url(#filter3_d_9856_838879)">
<path d="M33.7629 43.922C38.3178 43.922 42.0102 40.2292 42.0102 35.6739C42.0102 31.1186 38.3178 27.4258 33.7629 27.4258C29.2081 27.4258 25.5156 31.1186 25.5156 35.6739C25.5156 40.2292 29.2081 43.922 33.7629 43.922Z" fill="url(#paint11_linear_9856_838879)"/>
<path d="M39.8998 39.5223C38.6183 41.5622 36.3515 42.9209 33.7653 42.9209C31.1792 42.9209 28.9086 41.5622 27.6309 39.5223C28.7392 37.8827 30.5903 36.7204 32.7493 36.4394C31.7141 36.0391 30.979 35.0307 30.979 33.853C30.979 32.3134 32.226 31.0664 33.7653 31.0664C35.3047 31.0664 36.5478 32.3134 36.5478 33.853C36.5478 35.0307 35.8127 36.0391 34.7775 36.4394C36.9365 36.7204 38.7876 37.8827 39.8998 39.5223Z" fill="white"/>
</g>
<circle cx="93.8574" cy="33.832" r="1.5" fill="#D9D9D9"/>
<circle cx="93.8574" cy="33.832" r="1.5" fill="url(#paint12_linear_9856_838879)"/>
<circle cx="89.8574" cy="33.832" r="1.5" fill="url(#paint13_linear_9856_838879)"/>
<circle cx="85.8574" cy="33.832" r="1.5" fill="#D9D9D9"/>
<circle cx="85.8574" cy="33.832" r="1.5" fill="url(#paint14_linear_9856_838879)"/>
<defs>
<filter id="filter0_d_9856_838879" x="55.0235" y="41.8874" width="29.7219" height="26.5207" filterUnits="userSpaceOnUse" color-interpolation-filters="sRGB">
<feFlood flood-opacity="0" result="BackgroundImageFix"/>
<feColorMatrix in="SourceAlpha" type="matrix" values="0 0 0 0 0 0 0 0 0 0 0 0 0 0 0 0 0 0 127 0" result="hardAlpha"/>
<feOffset dx="0.889304" dy="1.77861"/>
<feGaussianBlur stdDeviation="1.11163"/>
<feComposite in2="hardAlpha" operator="out"/>
<feColorMatrix type="matrix" values="0 0 0 0 0 0 0 0 0 0.175 0 0 0 0 0.4375 0 0 0 0.07 0"/>
<feBlend mode="normal" in2="BackgroundImageFix" result="effect1_dropShadow_9856_838879"/>
<feBlend mode="normal" in="SourceGraphic" in2="effect1_dropShadow_9856_838879" result="shape"/>
</filter>
<filter id="filter1_d_9856_838879" x="81.3479" y="53.7734" width="34.3233" height="38.7178" filterUnits="userSpaceOnUse" color-interpolation-filters="sRGB">
<feFlood flood-opacity="0" result="BackgroundImageFix"/>
<feColorMatrix in="SourceAlpha" type="matrix" values="0 0 0 0 0 0 0 0 0 0 0 0 0 0 0 0 0 0 127 0" result="hardAlpha"/>
<feOffset dx="1.00952" dy="2.01905"/>
<feGaussianBlur stdDeviation="1.00952"/>
<feComposite in2="hardAlpha" operator="out"/>
<feColorMatrix type="matrix" values="0 0 0 0 0.454167 0 0 0 0 0 0 0 0 0 0 0 0 0 0.07 0"/>
<feBlend mode="normal" in2="BackgroundImageFix" result="effect1_dropShadow_9856_838879"/>
<feBlend mode="normal" in="SourceGraphic" in2="effect1_dropShadow_9856_838879" result="shape"/>
</filter>
<filter id="filter2_d_9856_838879" x="9.78278" y="19.7459" width="50.5445" height="36.6265" filterUnits="userSpaceOnUse" color-interpolation-filters="sRGB">
<feFlood flood-opacity="0" result="BackgroundImageFix"/>
<feColorMatrix in="SourceAlpha" type="matrix" values="0 0 0 0 0 0 0 0 0 0 0 0 0 0 0 0 0 0 127 0" result="hardAlpha"/>
<feOffset dx="2.19759" dy="3.66264"/>
<feGaussianBlur stdDeviation="2.56385"/>
<feComposite in2="hardAlpha" operator="out"/>
<feColorMatrix type="matrix" values="0 0 0 0 0 0 0 0 0 0.1045 0 0 0 0 0.475 0 0 0 0.07 0"/>
<feBlend mode="normal" in2="BackgroundImageFix" result="effect1_dropShadow_9856_838879"/>
<feBlend mode="normal" in="SourceGraphic" in2="effect1_dropShadow_9856_838879" result="shape"/>
</filter>
<filter id="filter3_d_9856_838879" x="24.5385" y="27.1001" width="19.7513" height="19.7533" filterUnits="userSpaceOnUse" color-interpolation-filters="sRGB">
<feFlood flood-opacity="0" result="BackgroundImageFix"/>
<feColorMatrix in="SourceAlpha" type="matrix" values="0 0 0 0 0 0 0 0 0 0 0 0 0 0 0 0 0 0 127 0" result="hardAlpha"/>
<feOffset dx="0.65144" dy="1.30288"/>
<feGaussianBlur stdDeviation="0.8143"/>
<feComposite in2="hardAlpha" operator="out"/>
<feColorMatrix type="matrix" values="0 0 0 0 0 0 0 0 0 0.175 0 0 0 0 0.4375 0 0 0 0.07 0"/>
<feBlend mode="normal" in2="BackgroundImageFix" result="effect1_dropShadow_9856_838879"/>
<feBlend mode="normal" in="SourceGraphic" in2="effect1_dropShadow_9856_838879" result="shape"/>
</filter>
<radialGradient id="paint0_radial_9856_838879" cx="0" cy="0" r="1" gradientUnits="userSpaceOnUse" gradientTransform="translate(-0.281288 23.4109) rotate(22.1971) scale(138.817 124.937)">
<stop stop-color="#C5CDE4"/>
<stop offset="1" stop-color="#F0F5FF"/>
</radialGradient>
<linearGradient id="paint1_linear_9856_838879" x1="96.8574" y1="36.332" x2="25.3574" y2="39.332" gradientUnits="userSpaceOnUse">
<stop stop-color="#F9FBFF"/>
<stop offset="1" stop-color="#F9FBFF" stop-opacity="0"/>
</linearGradient>
<linearGradient id="paint2_linear_9856_838879" x1="59.1355" y1="44.1566" x2="89.808" y2="77.1129" gradientUnits="userSpaceOnUse">
<stop stop-color="#F9FBFF"/>
<stop offset="1" stop-color="#E2F1FA"/>
</linearGradient>
<linearGradient id="paint3_linear_9856_838879" x1="55.6472" y1="50.2543" x2="86.3197" y2="83.2105" gradientUnits="userSpaceOnUse">
<stop stop-color="#F9FBFF"/>
<stop offset="1" stop-color="#E2F1FA"/>
</linearGradient>
<linearGradient id="paint4_linear_9856_838879" x1="66.5022" y1="49.6277" x2="80.3874" y2="55.8795" gradientUnits="userSpaceOnUse">
<stop stop-color="#F9FBFF"/>
<stop offset="1" stop-color="#E2F1FA"/>
</linearGradient>
<linearGradient id="paint5_linear_9856_838879" x1="84.6921" y1="29.2424" x2="90.9448" y2="119.159" gradientUnits="userSpaceOnUse">
<stop stop-color="#FF4B4B"/>
<stop offset="1" stop-color="#FFB6B6"/>
</linearGradient>
<linearGradient id="paint6_linear_9856_838879" x1="84.375" y1="60.2718" x2="111.588" y2="85.1758" gradientUnits="userSpaceOnUse">
<stop stop-color="white"/>
<stop offset="1" stop-color="#E2F1FA"/>
</linearGradient>
<linearGradient id="paint7_linear_9856_838879" x1="97.3524" y1="59.2533" x2="97.8717" y2="84.3287" gradientUnits="userSpaceOnUse">
<stop stop-color="#FF7373"/>
<stop offset="1" stop-color="#FF8A8A"/>
</linearGradient>
<linearGradient id="paint8_linear_9856_838879" x1="52.7549" y1="39.4341" x2="6.48857" y2="-16.2609" gradientUnits="userSpaceOnUse">
<stop stop-color="#F9FBFF"/>
<stop offset="1" stop-color="#E2F1FA"/>
</linearGradient>
<radialGradient id="paint9_radial_9856_838879" cx="0" cy="0" r="1" gradientUnits="userSpaceOnUse" gradientTransform="translate(59.8762 39.8891) rotate(-159.032) scale(71.0077 60.004)">
<stop stop-color="#AFB8D1"/>
<stop offset="1" stop-color="white"/>
</radialGradient>
<linearGradient id="paint10_linear_9856_838879" x1="11.3996" y1="24.2224" x2="61.2947" y2="84.2856" gradientUnits="userSpaceOnUse">
<stop stop-color="#F9FBFF"/>
<stop offset="1" stop-color="#E2F1FA"/>
</linearGradient>
<linearGradient id="paint11_linear_9856_838879" x1="32.9883" y1="24.8635" x2="39.0245" y2="45.7961" gradientUnits="userSpaceOnUse">
<stop stop-color="#FF4B4B"/>
<stop offset="1" stop-color="#FFB6B6"/>
</linearGradient>
<linearGradient id="paint12_linear_9856_838879" x1="92.2596" y1="32.6746" x2="97.8735" y2="37.098" gradientUnits="userSpaceOnUse">
<stop stop-color="#F9FBFF"/>
<stop offset="1" stop-color="#E2F1FA"/>
</linearGradient>
<linearGradient id="paint13_linear_9856_838879" x1="88.2596" y1="32.6746" x2="93.8735" y2="37.098" gradientUnits="userSpaceOnUse">
<stop stop-color="#F9FBFF"/>
<stop offset="1" stop-color="#E2F1FA"/>
</linearGradient>
<linearGradient id="paint14_linear_9856_838879" x1="84.2596" y1="32.6746" x2="89.8735" y2="37.098" gradientUnits="userSpaceOnUse">
<stop stop-color="#F9FBFF"/>
<stop offset="1" stop-color="#E2F1FA"/>
</linearGradient>
</defs>
</svg>
