<svg width="105" height="105" viewBox="0 0 105 105" fill="none" xmlns="http://www.w3.org/2000/svg">
<mask id="mask0_18317_147" style="mask-type:alpha" maskUnits="userSpaceOnUse" x="0" y="0" width="105" height="105">
<path d="M52.6738 104.505C81.3965 104.505 104.681 81.1847 104.681 52.4183C104.681 23.6518 81.3965 0.332031 52.6738 0.332031C23.951 0.332031 0.666626 23.6518 0.666626 52.4183C0.666626 81.1847 23.951 104.505 52.6738 104.505Z" fill="black"/>
</mask>
<g mask="url(#mask0_18317_147)">
<path d="M52.6739 105.289C81.9467 105.289 105.677 81.5223 105.677 52.2049C105.677 22.8875 81.9467 -0.878906 52.6739 -0.878906C23.401 -0.878906 -0.329285 22.8875 -0.329285 52.2049C-0.329285 81.5223 23.401 105.289 52.6739 105.289Z" fill="#13C7C7"/>
<path d="M40.0299 65.6192C40.0299 65.6192 41.5771 61.791 41.5771 57.2656H65.2046C65.2046 57.2656 65.7387 63.1973 66.6382 65.6239C66.6382 65.6239 59.8347 77.8579 53.6007 77.8579C47.3668 77.8579 40.0299 65.6192 40.0299 65.6192Z" fill="#F8F9FA"/>
<path d="M64.8318 58.633C64.8318 58.633 58.1984 67.8941 52.3652 69.2061C46.5319 70.5181 40.6347 63.9278 40.6347 63.9278C40.6347 63.9278 40.9953 61.1872 40.9953 57.2656H64.8241L64.8318 58.633Z" fill="#D6D7DE"/>
<path d="M80.9477 77.4395H25.513V133.873H80.9477V77.4395Z" fill="#F8F9FA"/>
<path opacity="0.4" d="M38.6178 75.2578C38.6178 75.2578 41.2373 81.3051 46.1846 86.1134C46.1846 86.1134 46.5842 84.669 47.457 84.6561C48.3298 84.6433 49.6278 84.96 50.5615 86.9511L52.1982 79.1802L38.6178 75.2578Z" fill="#A2A6B4"/>
<path opacity="0.4" d="M67.2712 75.2578C67.2712 75.2578 64.6517 81.3051 59.7044 86.1134C59.7044 86.1134 59.3048 84.669 58.432 84.6561C57.5592 84.6433 56.2612 84.96 55.3275 86.9511L53.6909 79.1802L67.2712 75.2578Z" fill="#A2A6B4"/>
<path d="M48.3801 80.1167C48.3801 80.1167 49.7625 82.569 49.8105 83.9535C49.8586 85.338 49.0958 88.9822 49.0958 88.9822H56.3603C56.3603 88.9822 55.7546 85.9703 55.7546 84.5494C55.7546 83.1286 57.7182 80.6271 57.9607 79.9712C58.2032 79.3153 57.8154 76.6448 56.1659 76.6448C54.5165 76.6448 50.397 76.6683 49.4975 76.6448C48.598 76.6212 47.7017 78.4166 48.3801 80.1167Z" fill="#129292"/>
<path d="M48.8288 75.755C48.8288 75.755 52.757 77.3214 57.1221 75.541C57.1221 75.541 58.0312 77.5204 58.0558 78.4427C58.0804 79.365 55.3637 81.4064 55.4363 84.1016C55.5154 87.0161 56.261 87.4291 56.698 90.1253C57.1349 92.8216 56.7952 94.8116 57.5954 107.126C58.3955 119.439 58.6861 133.874 58.6861 133.874H46.9005C46.9005 133.874 48.4282 93.9343 48.6472 90.7288C48.8662 87.5232 50.5146 85.5556 50.4537 84.4996C50.3928 83.4436 49.3256 79.9459 48.5745 78.6342C47.8235 77.3225 48.8288 75.755 48.8288 75.755Z" fill="#13C7C7"/>
<path opacity="0.6" d="M50.3009 83.5801C50.4604 84.1326 50.4604 84.7191 50.3009 85.2716H55.5153C55.5153 85.2716 55.3967 83.9792 55.4566 83.5801H50.3009Z" fill="#116D6D"/>
<path d="M66.0096 65.2754C66.0096 65.2754 63.0033 71.1044 53.6909 76.1566L59.8508 85.2393C59.8508 85.2393 68.2904 74.3591 69.0649 72.368C69.8395 70.3768 66.0096 65.2754 66.0096 65.2754Z" fill="white"/>
<path d="M39.8796 65.2754C39.8796 65.2754 42.8826 71.1044 52.1983 76.1566L46.0384 85.2393C46.0384 85.2393 37.5988 74.3591 36.8242 72.368C36.0497 70.3768 39.8796 65.2754 39.8796 65.2754Z" fill="white"/>
<path d="M65.8163 64.5977C65.8163 64.5977 70.4229 68.6292 72.7518 69.3578C75.0807 70.0864 92.5871 74.8947 97.2428 76.6441C101.899 78.3934 101.705 80.238 102.675 84.3176C103.645 88.3973 108.204 116.11 109.174 133.875H64.5546L65.8163 64.5977Z" fill="url(#paint0_linear_18317_147)"/>
<path d="M72.7518 69.3555L76.8733 76.4427C76.8733 76.4427 72.412 78.9196 72.412 79.5027C72.412 80.0859 72.7026 80.3769 73.9632 80.7653C75.2238 81.1537 80.6562 83.4861 80.6562 83.4861L64.5546 133.868H66.1795L81.6935 83.4743C81.7602 83.2581 81.7404 83.0243 81.6381 82.8224C81.5358 82.6206 81.3592 82.4664 81.1455 82.3926L73.5092 79.7595L77.5164 76.8322C77.5734 76.7908 77.6216 76.7386 77.6583 76.6786C77.6951 76.6185 77.7196 76.5517 77.7305 76.4821C77.7415 76.4126 77.7385 76.3415 77.722 76.273C77.7054 76.2046 77.6755 76.1401 77.634 76.0832L72.7518 69.3555Z" fill="white"/>
<path d="M40.2867 64.5977C40.2867 64.5977 35.6802 68.6292 33.3512 69.3578C31.0223 70.0864 13.5159 74.8947 8.85914 76.6441C4.20238 78.3934 4.39787 80.238 3.42784 84.3176C2.45781 88.3973 -2.10065 116.11 -3.07068 133.875H41.5484L40.2867 64.5977Z" fill="url(#paint1_linear_18317_147)"/>
<path d="M33.3513 69.3555L29.2297 76.4427C29.2297 76.4427 33.691 78.9196 33.691 79.5027C33.691 80.0859 33.4004 80.3769 32.1387 80.7653C30.8771 81.1537 25.4468 83.4861 25.4468 83.4861L41.5484 133.868H39.9235L24.4095 83.4743C24.3428 83.2581 24.3627 83.0243 24.465 82.8224C24.5672 82.6206 24.7439 82.4664 24.9575 82.3926L32.5938 79.7595L28.5866 76.8322C28.5297 76.7908 28.4814 76.7386 28.4447 76.6786C28.408 76.6185 28.3834 76.5517 28.3725 76.4821C28.3616 76.4126 28.3645 76.3415 28.3811 76.273C28.3976 76.2046 28.4276 76.1401 28.4691 76.0832L33.3513 69.3555Z" fill="white"/>
<path d="M66.0111 43.6602C65.9908 42.2511 66.1457 40.4065 68.2492 40.3091C70.3527 40.2118 70.4926 43.0054 70.3516 44.316C70.2106 45.6267 69.7213 48.3722 68.5814 50.0723C67.4415 51.7724 66.4234 52.2582 65.4288 52.1608C65.4288 52.1608 65.7685 49.1735 65.8412 47.3525C65.9138 45.5315 66.0164 44.0485 66.0111 43.6602Z" fill="#E8EDFB"/>
<path d="M37.1592 44.8711C37.1795 43.462 37.0235 41.6174 34.9157 41.5201C32.8079 41.4227 32.6723 44.2163 32.8122 45.527C32.9522 46.8376 33.4436 49.5831 34.5824 51.2832C35.7212 52.9834 36.7415 53.4691 37.735 53.3717C37.735 53.3717 37.3963 50.3845 37.3226 48.5634C37.2489 46.7424 37.1528 45.2595 37.1592 44.8711Z" fill="#E8EDFB"/>
<path d="M38.7044 39.5215H36.3403V40.0546H38.7044V39.5215Z" fill="#090D22"/>
<path d="M65.095 40.0547H67.4592V39.5216H65.095V40.0547Z" fill="#090D22"/>
<path d="M52.2175 22.1699H51.8447C44.5909 22.2074 36.1277 23.3832 36.3542 30.5465C36.5807 37.8327 37.1191 50.9416 38.0485 55.2459C38.9587 59.4583 46.125 66.0983 51.8479 66.3797V66.3936C51.9099 66.3936 51.9718 66.3882 52.0338 66.3861C52.0957 66.384 52.1588 66.3936 52.2207 66.3936V66.3797C57.9437 66.0983 65.1099 59.4583 66.0201 55.2459C66.9496 50.9416 67.488 37.8327 67.7145 30.5465C67.9345 23.3832 59.4714 22.2074 52.2175 22.1699Z" fill="#F8F9FA"/>
<path d="M67.2222 44.5003C68.3856 44.5003 69.6131 39.6299 70.0426 37.5864C70.472 35.5428 72.2177 29.4259 71.6354 26.8025C71.0532 24.179 68.6773 19.7601 63.3913 20.9253C63.3913 20.9253 63.0515 15.0235 56.3586 13.4208C49.6656 11.818 48.7928 12.7649 44.2097 14.0039C39.6267 15.2429 33.7339 15.5339 33.6612 13.2025C33.6612 13.2025 33.0972 15.9533 35.9891 18.3575C35.9891 18.3575 30.6604 19.8554 30.2202 15.2429C30.2202 15.2429 29.4382 20.3786 33.2937 22.5463C33.2937 22.5463 30.8933 22.5826 29.5109 20.8707C29.5109 20.8707 30.2384 24.4229 33.6944 26.0257C33.6944 26.0257 32.9305 26.5361 32.9305 29.4131C32.9305 32.2902 33.5854 34.1497 34.0576 35.7525C34.5298 37.3552 36.1344 39.4637 35.9891 42.1235C35.8438 44.7834 37.0072 44.5003 37.0072 44.5003C37.0072 44.5003 36.8619 41.039 37.5168 39.035C38.1717 37.0311 38.7539 35.0281 38.9355 32.4421C39.1171 29.8561 39.335 25.5945 45.0462 25.8845C50.7574 26.1744 55.0884 25.6651 57.9226 25.3013C60.7568 24.9376 62.9437 24.7546 64.2887 27.5964C65.6337 30.4381 65.0162 31.7135 65.3431 33.68C65.67 35.6466 66.9926 39.4363 67.2222 41.3301C67.4519 43.2239 67.2222 44.5003 67.2222 44.5003Z" fill="#090D22"/>
<path d="M62.6871 20.9288C62.6871 20.9288 62.4211 23.6764 57.0379 24.4157C51.6547 25.1551 47.9679 25.5435 42.2952 23.9878C36.6225 22.4321 32.8406 19.6171 32.8406 19.6171C32.8406 19.6171 36.0456 19.5689 37.4963 18.4038C37.4963 18.4038 35.8939 17.383 35.7507 15.8284C35.7507 15.8284 40.2131 16.4115 46.7116 14.323C53.2101 12.2345 57.7975 14.3797 58.8359 15.4647C59.8743 16.5496 62.5183 19.6171 62.6871 20.9288Z" fill="#17202D"/>
<path d="M49.8072 40.2163C49.6887 42.1862 49.1674 44.2424 48.0797 45.848C47.5253 46.6388 46.7255 47.2547 45.7753 47.4608C45.3014 47.5723 44.8145 47.5651 44.2967 47.5723C43.779 47.5794 43.2754 47.5723 42.7648 47.5651L42.0018 47.5555C41.7655 47.5451 41.5315 47.5048 41.3051 47.4357C40.8446 47.2949 40.4122 47.073 40.0279 46.7802C39.6502 46.4793 39.3115 46.1315 39.0197 45.7449C38.7338 45.3486 38.4952 44.9194 38.3088 44.4664C37.9462 43.5378 37.7306 42.5572 37.6702 41.5607L37.6394 40.8046C37.6299 40.5518 37.6394 40.2894 37.6276 40.033L37.611 38.6059L37.6643 38.5651C37.7152 38.5292 37.7721 38.4944 37.829 38.4609C37.9502 38.395 38.0757 38.3373 38.2045 38.2883C38.4739 38.1875 38.7514 38.1105 39.0339 38.0583C39.6121 37.9517 40.1985 37.8964 40.7862 37.8929C41.9816 37.8929 43.1972 37.9097 44.3998 37.9444C45.0017 37.9628 45.6027 37.9888 46.203 38.0223C46.8025 38.0655 47.4044 38.0858 47.9565 38.2068C48.5086 38.3279 49.0785 38.5208 49.4884 38.8287C49.697 38.9833 49.8095 39.1666 49.8131 39.3164L49.8072 40.2163ZM66.6169 40.0294C66.6169 40.2858 66.6169 40.5482 66.6062 40.801L66.5754 41.5571C66.5146 42.5537 66.2987 43.5343 65.9356 44.4628C65.7498 44.9161 65.5112 45.3453 65.2248 45.7413C64.9333 46.1282 64.5945 46.476 64.2165 46.7766C63.8328 47.0696 63.4008 47.2915 62.9405 47.4321C62.7137 47.5012 62.4793 47.5415 62.2427 47.5519L61.4808 47.5615C60.9702 47.5699 60.4596 47.5711 59.9489 47.5687C59.4383 47.5663 58.9395 47.5687 58.4703 47.4572C57.5225 47.2511 56.7192 46.6352 56.1647 45.8444C55.0783 44.2424 54.5593 42.1862 54.4373 40.2127V39.3092C54.4373 39.1594 54.5558 38.9761 54.7619 38.8215C55.1707 38.5136 55.7394 38.3219 56.2939 38.1997C56.8483 38.0774 57.4466 38.0583 58.0473 38.0151C58.648 37.972 59.2487 37.9552 59.8506 37.9372C61.0531 37.9025 62.2675 37.8797 63.4642 37.8857C64.0515 37.8893 64.6374 37.9446 65.2153 38.0511C65.4978 38.1034 65.7753 38.1804 66.0446 38.2811C66.1731 38.3302 66.2982 38.3878 66.419 38.4537C66.4771 38.4872 66.5375 38.522 66.5849 38.5579L66.6382 38.5987L66.6169 40.0294Z" fill="#090D22"/>
</g>
<defs>
<linearGradient id="paint0_linear_18317_147" x1="86.7111" y1="181.766" x2="151.193" y2="140.421" gradientUnits="userSpaceOnUse">
<stop stop-color="#D2E0F5"/>
<stop offset="0.632415" stop-color="#F2F4FF"/>
</linearGradient>
<linearGradient id="paint1_linear_18317_147" x1="29.4743" y1="72.3759" x2="0.496888" y2="123.163" gradientUnits="userSpaceOnUse">
<stop stop-color="#F2F4FF"/>
<stop offset="1" stop-color="#D2E0F5"/>
</linearGradient>
</defs>
</svg>
