<svg width="120" height="123" viewBox="0 0 120 123" fill="none" xmlns="http://www.w3.org/2000/svg">
<mask id="mask0_18281_223345" style="mask-type:alpha" maskUnits="userSpaceOnUse" x="6" y="3" width="105" height="105">
<path d="M58.6738 107.505C87.3965 107.505 110.681 84.1847 110.681 55.4183C110.681 26.6518 87.3965 3.33203 58.6738 3.33203C29.951 3.33203 6.66664 26.6518 6.66664 55.4183C6.66664 84.1847 29.951 107.505 58.6738 107.505Z" fill="black"/>
</mask>
<g mask="url(#mask0_18281_223345)">
<path d="M58.6739 108.289C87.9467 108.289 111.677 84.5223 111.677 55.2049C111.677 25.8875 87.9467 2.12109 58.6739 2.12109C29.401 2.12109 5.67072 25.8875 5.67072 55.2049C5.67072 84.5223 29.401 108.289 58.6739 108.289Z" fill="#13C7C7"/>
<path d="M46.0299 68.6192C46.0299 68.6192 47.5772 64.791 47.5772 60.2656H71.2046C71.2046 60.2656 71.7387 66.1973 72.6383 68.6239C72.6383 68.6239 65.8347 80.8579 59.6008 80.8579C53.3668 80.8579 46.0299 68.6192 46.0299 68.6192Z" fill="#F8F9FA"/>
<path d="M70.8319 61.633C70.8319 61.633 64.1985 70.8941 58.3652 72.2061C52.532 73.5181 46.6348 66.9278 46.6348 66.9278C46.6348 66.9278 46.9954 64.1872 46.9954 60.2656H70.8241L70.8319 61.633Z" fill="#D6D7DE"/>
<path d="M86.9477 80.4395H31.513V136.873H86.9477V80.4395Z" fill="#F8F9FA"/>
<path opacity="0.4" d="M44.6178 78.2578C44.6178 78.2578 47.2373 84.3051 52.1847 89.1134C52.1847 89.1134 52.5842 87.669 53.457 87.6561C54.3298 87.6433 55.6278 87.96 56.5615 89.9511L58.1982 82.1802L44.6178 78.2578Z" fill="#A2A6B4"/>
<path opacity="0.4" d="M73.2713 78.2578C73.2713 78.2578 70.6518 84.3051 65.7044 89.1134C65.7044 89.1134 65.3049 87.669 64.4321 87.6561C63.5593 87.6433 62.2613 87.96 61.3276 89.9511L59.6909 82.1802L73.2713 78.2578Z" fill="#A2A6B4"/>
<path d="M54.3801 83.1167C54.3801 83.1167 55.7625 85.569 55.8105 86.9535C55.8586 88.338 55.0958 91.9822 55.0958 91.9822H62.3603C62.3603 91.9822 61.7546 88.9703 61.7546 87.5494C61.7546 86.1286 63.7182 83.6271 63.9607 82.9712C64.2032 82.3153 63.8154 79.6448 62.1659 79.6448C60.5165 79.6448 56.397 79.6683 55.4975 79.6448C54.598 79.6212 53.7017 81.4166 54.3801 83.1167Z" fill="#129292"/>
<path d="M54.8288 78.755C54.8288 78.755 58.757 80.3214 63.1221 78.541C63.1221 78.541 64.0313 80.5204 64.0558 81.4427C64.0804 82.365 61.3637 84.4064 61.4363 87.1016C61.5154 90.0161 62.2611 90.4291 62.698 93.1253C63.135 95.8216 62.7952 97.8116 63.5954 110.126C64.3956 122.439 64.6861 136.874 64.6861 136.874H52.9005C52.9005 136.874 54.4282 96.9343 54.6472 93.7288C54.8662 90.5232 56.5146 88.5556 56.4537 87.4996C56.3929 86.4436 55.3256 82.9459 54.5746 81.6342C53.8236 80.3225 54.8288 78.755 54.8288 78.755Z" fill="#13C7C7"/>
<path opacity="0.6" d="M56.3009 86.5801C56.4605 87.1326 56.4605 87.7191 56.3009 88.2716H61.5154C61.5154 88.2716 61.3968 86.9792 61.4566 86.5801H56.3009Z" fill="#116D6D"/>
<path d="M72.0096 68.2754C72.0096 68.2754 69.0034 74.1044 59.6909 79.1566L65.8508 88.2393C65.8508 88.2393 74.2905 77.3591 75.065 75.368C75.8395 73.3768 72.0096 68.2754 72.0096 68.2754Z" fill="white"/>
<path d="M45.8796 68.2754C45.8796 68.2754 48.8827 74.1044 58.1983 79.1566L52.0385 88.2393C52.0385 88.2393 43.5988 77.3591 42.8243 75.368C42.0498 73.3768 45.8796 68.2754 45.8796 68.2754Z" fill="white"/>
<path d="M71.8163 67.5977C71.8163 67.5977 76.4229 71.6292 78.7518 72.3578C81.0808 73.0864 98.5872 77.8947 103.243 79.6441C107.899 81.3934 107.705 83.238 108.675 87.3176C109.645 91.3973 114.204 119.11 115.174 136.875H70.5547L71.8163 67.5977Z" fill="url(#paint0_linear_18281_223345)"/>
<path d="M78.7518 72.3555L82.8734 79.4427C82.8734 79.4427 78.4121 81.9196 78.4121 82.5027C78.4121 83.0859 78.7027 83.3769 79.9633 83.7653C81.2239 84.1537 86.6563 86.4861 86.6563 86.4861L70.5547 136.868H72.1796L87.6936 86.4743C87.7603 86.2581 87.7404 86.0243 87.6381 85.8224C87.5359 85.6206 87.3592 85.4664 87.1455 85.3926L79.5093 82.7595L83.5165 79.8322C83.5734 79.7908 83.6217 79.7386 83.6584 79.6786C83.6951 79.6185 83.7197 79.5517 83.7306 79.4821C83.7415 79.4126 83.7386 79.3415 83.722 79.273C83.7054 79.2046 83.6755 79.1401 83.634 79.0832L78.7518 72.3555Z" fill="white"/>
<path d="M46.2867 67.5977C46.2867 67.5977 41.6802 71.6292 39.3513 72.3578C37.0224 73.0864 19.5159 77.8947 14.8592 79.6441C10.2024 81.3934 10.3979 83.238 9.42787 87.3176C8.45784 91.3973 3.89938 119.11 2.92935 136.875H47.5484L46.2867 67.5977Z" fill="url(#paint1_linear_18281_223345)"/>
<path d="M39.3513 72.3555L35.2297 79.4427C35.2297 79.4427 39.691 81.9196 39.691 82.5027C39.691 83.0859 39.4004 83.3769 38.1388 83.7653C36.8771 84.1537 31.4469 86.4861 31.4469 86.4861L47.5485 136.868H45.9236L30.4095 86.4743C30.3428 86.2581 30.3627 86.0243 30.465 85.8224C30.5673 85.6206 30.7439 85.4664 30.9576 85.3926L38.5939 82.7595L34.5866 79.8322C34.5297 79.7908 34.4815 79.7386 34.4447 79.6786C34.408 79.6185 34.3835 79.5517 34.3725 79.4821C34.3616 79.4126 34.3645 79.3415 34.3811 79.273C34.3977 79.2046 34.4276 79.1401 34.4691 79.0832L39.3513 72.3555Z" fill="white"/>
<path d="M72.0111 46.6602C71.9908 45.2511 72.1457 43.4065 74.2492 43.3091C76.3527 43.2118 76.4926 46.0054 76.3516 47.316C76.2106 48.6267 75.7213 51.3722 74.5815 53.0723C73.4416 54.7724 72.4235 55.2582 71.4289 55.1608C71.4289 55.1608 71.7686 52.1735 71.8412 50.3525C71.9139 48.5315 72.0164 47.0485 72.0111 46.6602Z" fill="#E8EDFB"/>
<path d="M43.1592 47.8711C43.1795 46.462 43.0235 44.6174 40.9158 44.5201C38.808 44.4227 38.6723 47.2163 38.8123 48.527C38.9522 49.8376 39.4436 52.5831 40.5824 54.2832C41.7212 55.9834 42.7415 56.4691 43.735 56.3717C43.735 56.3717 43.3964 53.3845 43.3227 51.5634C43.2489 49.7424 43.1528 48.2595 43.1592 47.8711Z" fill="#E8EDFB"/>
<path d="M44.7045 42.5215H42.3403V43.0546H44.7045V42.5215Z" fill="#090D22"/>
<path d="M71.0951 43.0547H73.4593V42.5216H71.0951V43.0547Z" fill="#090D22"/>
<path d="M58.2176 25.1699H57.8447C50.5909 25.2074 42.1277 26.3832 42.3542 33.5465C42.5807 40.8327 43.1191 53.9416 44.0486 58.2459C44.9588 62.4583 52.125 69.0983 57.8479 69.3797V69.3936C57.9099 69.3936 57.9719 69.3882 58.0338 69.3861C58.0958 69.384 58.1588 69.3936 58.2208 69.3936V69.3797C63.9437 69.0983 71.11 62.4583 72.0202 58.2459C72.9496 53.9416 73.488 40.8327 73.7145 33.5465C73.9346 26.3832 65.4714 25.2074 58.2176 25.1699Z" fill="#F8F9FA"/>
<path d="M73.2223 47.5003C74.3857 47.5003 75.6132 42.6299 76.0426 40.5864C76.4721 38.5428 78.2177 32.4259 77.6355 29.8025C77.0532 27.179 74.6773 22.7601 69.3913 23.9253C69.3913 23.9253 69.0516 18.0235 62.3586 16.4208C55.6656 14.818 54.7928 15.7649 50.2098 17.0039C45.6267 18.2429 39.7339 18.5339 39.6613 16.2025C39.6613 16.2025 39.0972 18.9533 41.9891 21.3575C41.9891 21.3575 36.6604 22.8554 36.2202 18.2429C36.2202 18.2429 35.4382 23.3786 39.2938 25.5463C39.2938 25.5463 36.8933 25.5826 35.5109 23.8707C35.5109 23.8707 36.2384 27.4229 39.6944 29.0257C39.6944 29.0257 38.9306 29.5361 38.9306 32.4131C38.9306 35.2902 39.5854 37.1497 40.0576 38.7525C40.5298 40.3552 42.1344 42.4637 41.9891 45.1235C41.8438 47.7834 43.0072 47.5003 43.0072 47.5003C43.0072 47.5003 42.8619 44.039 43.5168 42.035C44.1717 40.0311 44.7539 38.0281 44.9355 35.4421C45.1171 32.8561 45.3351 28.5945 51.0463 28.8845C56.7575 29.1744 61.0884 28.6651 63.9226 28.3013C66.7569 27.9376 68.9437 27.7546 70.2887 30.5964C71.6337 33.4381 71.0162 34.7135 71.3431 36.68C71.67 38.6466 72.9926 42.4363 73.2223 44.3301C73.452 46.2239 73.2223 47.5003 73.2223 47.5003Z" fill="#090D22"/>
<path d="M68.6871 23.9288C68.6871 23.9288 68.4211 26.6764 63.0379 27.4157C57.6547 28.1551 53.9679 28.5435 48.2952 26.9878C42.6225 25.4321 38.8407 22.6171 38.8407 22.6171C38.8407 22.6171 42.0456 22.5689 43.4964 21.4038C43.4964 21.4038 41.8939 20.383 41.7507 18.8284C41.7507 18.8284 46.2131 19.4115 52.7116 17.323C59.2102 15.2345 63.7975 17.3797 64.8359 18.4647C65.8743 19.5496 68.5183 22.6171 68.6871 23.9288Z" fill="#17202D"/>
<path d="M55.8072 43.2163C55.6887 45.1862 55.1674 47.2424 54.0798 48.848C53.5253 49.6388 52.7256 50.2547 51.7754 50.4608C51.3015 50.5723 50.8145 50.5651 50.2968 50.5723C49.779 50.5794 49.2755 50.5723 48.7648 50.5651L48.0018 50.5555C47.7656 50.5451 47.5315 50.5048 47.3052 50.4357C46.8446 50.2949 46.4123 50.073 46.028 49.7802C45.6502 49.4793 45.3115 49.1315 45.0197 48.7449C44.7338 48.3486 44.4952 47.9194 44.3088 47.4664C43.9462 46.5378 43.7307 45.5572 43.6702 44.5607L43.6394 43.8046C43.6299 43.5518 43.6394 43.2894 43.6276 43.033L43.611 41.6059L43.6643 41.5651C43.7153 41.5292 43.7721 41.4944 43.829 41.4609C43.9503 41.395 44.0757 41.3373 44.2046 41.2883C44.4739 41.1875 44.7514 41.1105 45.0339 41.0583C45.6122 40.9517 46.1985 40.8964 46.7862 40.8929C47.9817 40.8929 49.1973 40.9097 50.3998 40.9444C51.0017 40.9628 51.6028 40.9888 52.2031 41.0223C52.8026 41.0655 53.4044 41.0858 53.9565 41.2068C54.5087 41.3279 55.0785 41.5208 55.4885 41.8287C55.697 41.9833 55.8095 42.1666 55.8131 42.3164L55.8072 43.2163ZM72.6169 43.0294C72.6169 43.2858 72.6169 43.5482 72.6062 43.801L72.5754 44.5571C72.5146 45.5537 72.2987 46.5343 71.9357 47.4628C71.7498 47.9161 71.5112 48.3453 71.2248 48.7413C70.9333 49.1282 70.5946 49.476 70.2165 49.7766C69.8328 50.0696 69.4008 50.2915 68.9405 50.4321C68.7138 50.5012 68.4793 50.5415 68.2427 50.5519L67.4809 50.5615C66.9702 50.5699 66.4596 50.5711 65.9489 50.5687C65.4383 50.5663 64.9395 50.5687 64.4703 50.4572C63.5225 50.2511 62.7192 49.6352 62.1647 48.8444C61.0783 47.2424 60.5594 45.1862 60.4373 43.2127V42.3092C60.4373 42.1594 60.5558 41.9761 60.762 41.8215C61.1707 41.5136 61.7394 41.3219 62.2939 41.1997C62.8484 41.0774 63.4467 41.0583 64.0474 41.0151C64.648 40.972 65.2487 40.9552 65.8506 40.9372C67.0532 40.9025 68.2676 40.8797 69.4642 40.8857C70.0515 40.8893 70.6375 40.9446 71.2153 41.0511C71.4978 41.1034 71.7753 41.1804 72.0447 41.2811C72.1731 41.3302 72.2982 41.3878 72.4191 41.4537C72.4771 41.4872 72.5375 41.522 72.5849 41.5579L72.6382 41.5987L72.6169 43.0294Z" fill="#090D22"/>
</g>
<g filter="url(#filter0_d_18281_223345)">
<path d="M70.3122 93.7525C70.3122 82.8798 79.1265 74.0645 90.0003 74.0645C94.8707 74.0645 99.3283 75.8333 102.766 78.7651C107.002 82.376 109.687 87.7502 109.687 93.7525C109.687 104.625 100.873 113.439 90.0003 113.439C87.2915 113.439 84.7104 112.892 82.3612 111.903C75.2814 108.92 70.3122 101.916 70.3122 93.7525Z" fill="white"/>
<path fill-rule="evenodd" clip-rule="evenodd" d="M73.2289 93.7508C73.2289 84.4883 80.7374 76.9785 90.0003 76.9785C94.1492 76.9785 97.9464 78.4854 100.875 80.983C104.483 84.0591 106.771 88.6375 106.771 93.7508C106.771 103.013 99.2622 110.522 90.0003 110.522C87.6928 110.522 85.4941 110.056 83.4929 109.213C77.4619 106.672 73.2289 100.706 73.2289 93.7508ZM81.5622 95.0833L87.5626 101.084L99.8434 88.8028L97.109 86.0683L87.5626 95.6244L84.2967 92.3489L81.5622 95.0833Z" fill="#05E0AC"/>
</g>
<defs>
<filter id="filter0_d_18281_223345" x="63.2724" y="68.6952" width="56.8" height="56.8" filterUnits="userSpaceOnUse" color-interpolation-filters="sRGB">
<feFlood flood-opacity="0" result="BackgroundImageFix"/>
<feColorMatrix in="SourceAlpha" type="matrix" values="0 0 0 0 0 0 0 0 0 0 0 0 0 0 0 0 0 0 127 0" result="hardAlpha"/>
<feOffset dx="1.67258" dy="3.34517"/>
<feGaussianBlur stdDeviation="2.95"/>
<feComposite in2="hardAlpha" operator="out"/>
<feColorMatrix type="matrix" values="0 0 0 0 0.00616667 0 0 0 0 0 0 0 0 0 0.308333 0 0 0 0.07 0"/>
<feBlend mode="normal" in2="BackgroundImageFix" result="effect1_dropShadow_18281_223345"/>
<feBlend mode="normal" in="SourceGraphic" in2="effect1_dropShadow_18281_223345" result="shape"/>
</filter>
<linearGradient id="paint0_linear_18281_223345" x1="92.7112" y1="184.766" x2="157.193" y2="143.421" gradientUnits="userSpaceOnUse">
<stop stop-color="#D2E0F5"/>
<stop offset="0.632415" stop-color="#F2F4FF"/>
</linearGradient>
<linearGradient id="paint1_linear_18281_223345" x1="35.4743" y1="75.3759" x2="6.49692" y2="126.163" gradientUnits="userSpaceOnUse">
<stop stop-color="#F2F4FF"/>
<stop offset="1" stop-color="#D2E0F5"/>
</linearGradient>
</defs>
</svg>
