<svg width="120" height="123" viewBox="0 0 120 123" fill="none" xmlns="http://www.w3.org/2000/svg">
<mask id="mask0_18291_42900" style="mask-type:alpha" maskUnits="userSpaceOnUse" x="6" y="3" width="105" height="105">
<path d="M58.6738 107.505C87.3965 107.505 110.681 84.1847 110.681 55.4183C110.681 26.6518 87.3965 3.33203 58.6738 3.33203C29.951 3.33203 6.66663 26.6518 6.66663 55.4183C6.66663 84.1847 29.951 107.505 58.6738 107.505Z" fill="black"/>
</mask>
<g mask="url(#mask0_18291_42900)">
<path d="M58.6738 108.289C87.9467 108.289 111.677 84.5223 111.677 55.2049C111.677 25.8875 87.9467 2.12109 58.6738 2.12109C29.401 2.12109 5.67065 25.8875 5.67065 55.2049C5.67065 84.5223 29.401 108.289 58.6738 108.289Z" fill="#13C7C7"/>
<path d="M46.0298 68.6192C46.0298 68.6192 47.577 64.791 47.577 60.2656H71.2045C71.2045 60.2656 71.7386 66.1973 72.6381 68.6239C72.6381 68.6239 65.8346 80.8579 59.6006 80.8579C53.3667 80.8579 46.0298 68.6192 46.0298 68.6192Z" fill="#F8F9FA"/>
<path d="M70.8319 61.633C70.8319 61.633 64.1985 70.8941 58.3652 72.2061C52.532 73.5181 46.6348 66.9278 46.6348 66.9278C46.6348 66.9278 46.9954 64.1872 46.9954 60.2656H70.8241L70.8319 61.633Z" fill="#D6D7DE"/>
<path d="M86.9476 80.4395H31.5129V136.873H86.9476V80.4395Z" fill="#F8F9FA"/>
<path opacity="0.4" d="M44.6177 78.2578C44.6177 78.2578 47.2372 84.3051 52.1845 89.1134C52.1845 89.1134 52.5841 87.669 53.4569 87.6561C54.3297 87.6433 55.6277 87.96 56.5614 89.9511L58.198 82.1802L44.6177 78.2578Z" fill="#A2A6B4"/>
<path opacity="0.4" d="M73.2713 78.2578C73.2713 78.2578 70.6518 84.3051 65.7044 89.1134C65.7044 89.1134 65.3049 87.669 64.4321 87.6561C63.5593 87.6433 62.2613 87.96 61.3276 89.9511L59.6909 82.1802L73.2713 78.2578Z" fill="#A2A6B4"/>
<path d="M54.38 83.1167C54.38 83.1167 55.7624 85.569 55.8105 86.9535C55.8586 88.338 55.0958 91.9822 55.0958 91.9822H62.3603C62.3603 91.9822 61.7546 88.9703 61.7546 87.5494C61.7546 86.1286 63.7181 83.6271 63.9606 82.9712C64.2031 82.3153 63.8153 79.6448 62.1659 79.6448C60.5164 79.6448 56.397 79.6683 55.4975 79.6448C54.5979 79.6212 53.7016 81.4166 54.38 83.1167Z" fill="#129292"/>
<path d="M54.8287 78.755C54.8287 78.755 58.7569 80.3214 63.122 78.541C63.122 78.541 64.0311 80.5204 64.0557 81.4427C64.0803 82.365 61.3635 84.4064 61.4362 87.1016C61.5152 90.0161 62.2609 90.4291 62.6979 93.1253C63.1348 95.8216 62.7951 97.8116 63.5952 110.126C64.3954 122.439 64.686 136.874 64.686 136.874H52.9004C52.9004 136.874 54.4281 96.9343 54.6471 93.7288C54.8661 90.5232 56.5145 88.5556 56.4536 87.4996C56.3927 86.4436 55.3254 82.9459 54.5744 81.6342C53.8234 80.3225 54.8287 78.755 54.8287 78.755Z" fill="#13C7C7"/>
<path opacity="0.6" d="M56.3008 86.5801C56.4603 87.1326 56.4603 87.7191 56.3008 88.2716H61.5152C61.5152 88.2716 61.3966 86.9792 61.4565 86.5801H56.3008Z" fill="#116D6D"/>
<path d="M72.0096 68.2754C72.0096 68.2754 69.0034 74.1044 59.6909 79.1566L65.8508 88.2393C65.8508 88.2393 74.2905 77.3591 75.065 75.368C75.8395 73.3768 72.0096 68.2754 72.0096 68.2754Z" fill="white"/>
<path d="M45.8795 68.2754C45.8795 68.2754 48.8825 74.1044 58.1982 79.1566L52.0383 88.2393C52.0383 88.2393 43.5987 77.3591 42.8241 75.368C42.0496 73.3768 45.8795 68.2754 45.8795 68.2754Z" fill="white"/>
<path d="M71.8163 67.5977C71.8163 67.5977 76.4229 71.6292 78.7518 72.3578C81.0808 73.0864 98.5872 77.8947 103.243 79.6441C107.899 81.3934 107.705 83.238 108.675 87.3176C109.645 91.3973 114.204 119.11 115.174 136.875H70.5547L71.8163 67.5977Z" fill="url(#paint0_linear_18291_42900)"/>
<path d="M78.7518 72.3555L82.8734 79.4427C82.8734 79.4427 78.4121 81.9196 78.4121 82.5027C78.4121 83.0859 78.7027 83.3769 79.9633 83.7653C81.2239 84.1537 86.6563 86.4861 86.6563 86.4861L70.5547 136.868H72.1796L87.6936 86.4743C87.7603 86.2581 87.7404 86.0243 87.6381 85.8224C87.5359 85.6206 87.3592 85.4664 87.1455 85.3926L79.5093 82.7595L83.5165 79.8322C83.5734 79.7908 83.6217 79.7386 83.6584 79.6786C83.6951 79.6185 83.7197 79.5517 83.7306 79.4821C83.7415 79.4126 83.7386 79.3415 83.722 79.273C83.7054 79.2046 83.6755 79.1401 83.634 79.0832L78.7518 72.3555Z" fill="white"/>
<path d="M46.2867 67.5977C46.2867 67.5977 41.6802 71.6292 39.3512 72.3578C37.0223 73.0864 19.5159 77.8947 14.8591 79.6441C10.2024 81.3934 10.3979 83.238 9.42784 87.3176C8.45781 91.3973 3.89935 119.11 2.92932 136.875H47.5484L46.2867 67.5977Z" fill="url(#paint1_linear_18291_42900)"/>
<path d="M39.3511 72.3555L35.2296 79.4427C35.2296 79.4427 39.6909 81.9196 39.6909 82.5027C39.6909 83.0859 39.4003 83.3769 38.1386 83.7653C36.8769 84.1537 31.4467 86.4861 31.4467 86.4861L47.5483 136.868H45.9234L30.4094 86.4743C30.3427 86.2581 30.3626 86.0243 30.4648 85.8224C30.5671 85.6206 30.7437 85.4664 30.9574 85.3926L38.5937 82.7595L34.5865 79.8322C34.5295 79.7908 34.4813 79.7386 34.4446 79.6786C34.4078 79.6185 34.3833 79.5517 34.3724 79.4821C34.3615 79.4126 34.3644 79.3415 34.3809 79.273C34.3975 79.2046 34.4274 79.1401 34.469 79.0832L39.3511 72.3555Z" fill="white"/>
<path d="M72.0109 46.6602C71.9906 45.2511 72.1455 43.4065 74.249 43.3091C76.3525 43.2118 76.4925 46.0054 76.3515 47.316C76.2105 48.6267 75.7212 51.3722 74.5813 53.0723C73.4414 54.7724 72.4233 55.2582 71.4287 55.1608C71.4287 55.1608 71.7684 52.1735 71.8411 50.3525C71.9137 48.5315 72.0163 47.0485 72.0109 46.6602Z" fill="#E8EDFB"/>
<path d="M43.1591 47.8711C43.1794 46.462 43.0234 44.6174 40.9156 44.5201C38.8078 44.4227 38.6722 47.2163 38.8121 48.527C38.9521 49.8376 39.4435 52.5831 40.5823 54.2832C41.7211 55.9834 42.7413 56.4691 43.7349 56.3717C43.7349 56.3717 43.3962 53.3845 43.3225 51.5634C43.2488 49.7424 43.1526 48.2595 43.1591 47.8711Z" fill="#E8EDFB"/>
<path d="M44.7045 42.5215H42.3403V43.0546H44.7045V42.5215Z" fill="#090D22"/>
<path d="M71.095 43.0547H73.4592V42.5216H71.095V43.0547Z" fill="#090D22"/>
<path d="M58.2174 25.1699H57.8446C50.5907 25.2074 42.1276 26.3832 42.3541 33.5465C42.5805 40.8327 43.119 53.9416 44.0484 58.2459C44.9586 62.4583 52.1248 69.0983 57.8478 69.3797V69.3936C57.9097 69.3936 57.9717 69.3882 58.0337 69.3861C58.0956 69.384 58.1587 69.3936 58.2206 69.3936V69.3797C63.9436 69.0983 71.1098 62.4583 72.02 58.2459C72.9494 53.9416 73.4879 40.8327 73.7143 33.5465C73.9344 26.3832 65.4712 25.2074 58.2174 25.1699Z" fill="#F8F9FA"/>
<path d="M73.2221 47.5003C74.3855 47.5003 75.613 42.6299 76.0425 40.5864C76.4719 38.5428 78.2175 32.4259 77.6353 29.8025C77.0531 27.179 74.6772 22.7601 69.3912 23.9253C69.3912 23.9253 69.0514 18.0235 62.3584 16.4208C55.6655 14.818 54.7927 15.7649 50.2096 17.0039C45.6266 18.2429 39.7338 18.5339 39.6611 16.2025C39.6611 16.2025 39.0971 18.9533 41.989 21.3575C41.989 21.3575 36.6602 22.8554 36.2201 18.2429C36.2201 18.2429 35.4381 23.3786 39.2936 25.5463C39.2936 25.5463 36.8931 25.5826 35.5107 23.8707C35.5107 23.8707 36.2383 27.4229 39.6942 29.0257C39.6942 29.0257 38.9304 29.5361 38.9304 32.4131C38.9304 35.2902 39.5853 37.1497 40.0575 38.7525C40.5296 40.3552 42.1343 42.4637 41.989 45.1235C41.8437 47.7834 43.0071 47.5003 43.0071 47.5003C43.0071 47.5003 42.8618 44.039 43.5167 42.035C44.1715 40.0311 44.7538 38.0281 44.9354 35.4421C45.117 32.8561 45.3349 28.5945 51.0461 28.8845C56.7573 29.1744 61.0882 28.6651 63.9225 28.3013C66.7567 27.9376 68.9435 27.7546 70.2885 30.5964C71.6336 33.4381 71.0161 34.7135 71.343 36.68C71.6699 38.6466 72.9924 42.4363 73.2221 44.3301C73.4518 46.2239 73.2221 47.5003 73.2221 47.5003Z" fill="#090D22"/>
<path d="M68.687 23.9288C68.687 23.9288 68.421 26.6764 63.0378 27.4157C57.6546 28.1551 53.9679 28.5435 48.2951 26.9878C42.6224 25.4321 38.8406 22.6171 38.8406 22.6171C38.8406 22.6171 42.0455 22.5689 43.4963 21.4038C43.4963 21.4038 41.8938 20.383 41.7507 18.8284C41.7507 18.8284 46.213 19.4115 52.7115 17.323C59.2101 15.2345 63.7974 17.3797 64.8358 18.4647C65.8742 19.5496 68.5182 22.6171 68.687 23.9288Z" fill="#17202D"/>
<path d="M55.807 43.2163C55.6886 45.1862 55.1673 47.2424 54.0796 48.848C53.5251 49.6388 52.7254 50.2547 51.7752 50.4608C51.3013 50.5723 50.8144 50.5651 50.2966 50.5723C49.7789 50.5794 49.2753 50.5723 48.7647 50.5651L48.0017 50.5555C47.7654 50.5451 47.5314 50.5048 47.305 50.4357C46.8445 50.2949 46.4121 50.073 46.0278 49.7802C45.6501 49.4793 45.3113 49.1315 45.0196 48.7449C44.7337 48.3486 44.4951 47.9194 44.3087 47.4664C43.946 46.5378 43.7305 45.5572 43.6701 44.5607L43.6393 43.8046C43.6298 43.5518 43.6393 43.2894 43.6274 43.033L43.6108 41.6059L43.6642 41.5651C43.7151 41.5292 43.772 41.4944 43.8289 41.4609C43.9501 41.395 44.0756 41.3373 44.2044 41.2883C44.4738 41.1875 44.7513 41.1105 45.0338 41.0583C45.612 40.9517 46.1983 40.8964 46.7861 40.8929C47.9815 40.8929 49.1971 40.9097 50.3997 40.9444C51.0015 40.9628 51.6026 40.9888 52.2029 41.0223C52.8024 41.0655 53.4043 41.0858 53.9564 41.2068C54.5085 41.3279 55.0784 41.5208 55.4883 41.8287C55.6968 41.9833 55.8094 42.1666 55.8129 42.3164L55.807 43.2163ZM72.6168 43.0294C72.6168 43.2858 72.6168 43.5482 72.6061 43.801L72.5753 44.5571C72.5145 45.5537 72.2986 46.5343 71.9355 47.4628C71.7497 47.9161 71.511 48.3453 71.2246 48.7413C70.9332 49.1282 70.5944 49.476 70.2164 49.7766C69.8327 50.0696 69.4006 50.2915 68.9404 50.4321C68.7136 50.5012 68.4792 50.5415 68.2426 50.5519L67.4807 50.5615C66.9701 50.5699 66.4594 50.5711 65.9488 50.5687C65.4382 50.5663 64.9394 50.5687 64.4702 50.4572C63.5224 50.2511 62.7191 49.6352 62.1646 48.8444C61.0781 47.2424 60.5592 45.1862 60.4372 43.2127V42.3092C60.4372 42.1594 60.5556 41.9761 60.7618 41.8215C61.1705 41.5136 61.7393 41.3219 62.2937 41.1997C62.8482 41.0774 63.4465 41.0583 64.0472 41.0151C64.6479 40.972 65.2486 40.9552 65.8504 40.9372C67.053 40.9025 68.2674 40.8797 69.464 40.8857C70.0514 40.8893 70.6373 40.9446 71.2152 41.0511C71.4977 41.1034 71.7751 41.1804 72.0445 41.2811C72.173 41.3302 72.2981 41.3878 72.4189 41.4537C72.477 41.4872 72.5374 41.522 72.5848 41.5579L72.6381 41.5987L72.6168 43.0294Z" fill="#090D22"/>
</g>
<g filter="url(#filter0_d_18291_42900)">
<path d="M70.3123 93.7506C70.3123 82.8778 79.1265 74.0625 90.0003 74.0625C94.8707 74.0625 99.3283 75.8313 102.766 78.7631C107.002 82.374 109.687 87.7483 109.687 93.7506C109.687 104.623 100.873 113.437 90.0003 113.437C87.2916 113.437 84.7104 112.89 82.3612 111.901C75.2814 108.918 70.3123 101.915 70.3123 93.7506Z" fill="white"/>
<path fill-rule="evenodd" clip-rule="evenodd" d="M90.0003 76.9766C80.7374 76.9766 73.229 84.4864 73.229 93.7489C73.229 100.704 77.462 106.67 83.493 109.211C85.4941 110.054 87.6929 110.52 90.0003 110.52C99.2623 110.52 106.771 103.011 106.771 93.7489C106.771 88.6355 104.483 84.0572 100.875 80.981C97.9464 78.4834 94.1492 76.9766 90.0003 76.9766Z" fill="#59CACA"/>
<rect x="88.4136" y="84.2578" width="3.16406" height="18.9844" rx="1.58203" fill="white"/>
<rect x="99.4919" y="92.168" width="3.16406" height="18.9844" rx="1.58203" transform="rotate(90 99.4919 92.168)" fill="white"/>
</g>
<defs>
<filter id="filter0_d_18291_42900" x="63.2723" y="68.6952" width="56.8" height="56.8" filterUnits="userSpaceOnUse" color-interpolation-filters="sRGB">
<feFlood flood-opacity="0" result="BackgroundImageFix"/>
<feColorMatrix in="SourceAlpha" type="matrix" values="0 0 0 0 0 0 0 0 0 0 0 0 0 0 0 0 0 0 127 0" result="hardAlpha"/>
<feOffset dx="1.67258" dy="3.34517"/>
<feGaussianBlur stdDeviation="2.95"/>
<feComposite in2="hardAlpha" operator="out"/>
<feColorMatrix type="matrix" values="0 0 0 0 0.00616667 0 0 0 0 0 0 0 0 0 0.308333 0 0 0 0.07 0"/>
<feBlend mode="normal" in2="BackgroundImageFix" result="effect1_dropShadow_18291_42900"/>
<feBlend mode="normal" in="SourceGraphic" in2="effect1_dropShadow_18291_42900" result="shape"/>
</filter>
<linearGradient id="paint0_linear_18291_42900" x1="92.7112" y1="184.766" x2="157.193" y2="143.421" gradientUnits="userSpaceOnUse">
<stop stop-color="#D2E0F5"/>
<stop offset="0.632415" stop-color="#F2F4FF"/>
</linearGradient>
<linearGradient id="paint1_linear_18291_42900" x1="35.4743" y1="75.3759" x2="6.49689" y2="126.163" gradientUnits="userSpaceOnUse">
<stop stop-color="#F2F4FF"/>
<stop offset="1" stop-color="#D2E0F5"/>
</linearGradient>
</defs>
</svg>
