<svg width="200" height="200" viewBox="0 0 200 200" fill="none" xmlns="http://www.w3.org/2000/svg">
<path d="M155.776 40.3477H65.9396C64.3593 40.3477 63.0781 41.92 63.0781 43.8595V154.114C63.0781 156.053 64.3593 157.626 65.9396 157.626H155.776C157.357 157.626 158.638 156.053 158.638 154.114V43.8595C158.638 41.92 157.357 40.3477 155.776 40.3477Z" fill="url(#paint0_linear_9348_414815)"/>
<path d="M155.776 40.3477H65.9396C64.3593 40.3477 63.0781 41.92 63.0781 43.8595V154.114C63.0781 156.053 64.3593 157.626 65.9396 157.626H155.776C157.357 157.626 158.638 156.053 158.638 154.114V43.8595C158.638 41.92 157.357 40.3477 155.776 40.3477Z" fill="url(#paint1_linear_9348_414815)" stroke="#E1EDF8" stroke-width="5.35714"/>
<path fill-rule="evenodd" clip-rule="evenodd" d="M132.074 82.177C132.121 81.601 132.144 81.0185 132.144 80.4305C132.144 68.5959 122.55 59.002 110.716 59.002C98.881 59.002 89.2871 68.5959 89.2871 80.4305C89.2871 92.2652 98.881 101.859 110.716 101.859C115.428 101.859 119.784 100.338 123.322 97.7606C125.109 100.201 127.995 101.786 131.251 101.786C136.676 101.786 141.073 97.3886 141.073 91.9644C141.073 86.8173 137.113 82.5949 132.074 82.177Z" fill="url(#paint2_linear_9348_414815)"/>
<path d="M106.065 98.8813L108.577 93.4717L108.07 92.6971L108.749 90.6529L104.467 86.0479L104.528 85.9834C103.366 86.1082 102.208 86.2631 101.055 86.4697C98.8941 86.6161 97.1641 87.4725 97.0392 88.5441L96.4277 93.8931C99.5248 97.0094 101.427 98.4864 106.065 98.8813Z" fill="white"/>
<path d="M123.214 94.186C120.143 97.1442 118.117 98.5049 113.614 98.8813C115.89 98.3027 113.676 97.6616 113.614 97.6638L111.147 93.4717L111.655 92.6971L110.97 90.6356H110.876L115.141 86.0479L115.08 85.9834C116.242 86.1082 117.4 86.2631 118.558 86.4697C120.718 86.6161 122.448 87.4725 122.569 88.5441L123.214 94.186Z" fill="white"/>
<path fill-rule="evenodd" clip-rule="evenodd" d="M104.157 80.3628C104.126 80.4208 104.092 80.4696 104.054 80.5067C104.033 80.5278 104.01 80.5451 103.987 80.5582C103.973 80.5666 103.958 80.5732 103.942 80.578L103.947 80.5737C103.581 80.6942 103.039 79.9669 102.638 78.5768C102.238 77.1868 102.298 75.8096 102.824 75.6503C101.997 69.7414 105.745 65.8294 109.804 66.0833C113.836 65.8268 117.562 69.6902 116.804 75.5385H117.989C118.702 75.5385 119.281 76.1165 119.281 76.8296V79.4118C119.281 80.1248 118.702 80.7029 117.989 80.7029H115.294C113.9 83.6171 111.914 85.0108 109.804 85.0108C107.618 85.0064 105.556 83.5088 104.157 80.3628ZM114.422 79.8421H110.673C110.436 79.8421 110.243 80.0348 110.243 80.2725C110.243 80.5102 110.436 80.7029 110.673 80.7029H113.968C112.836 82.6146 111.356 83.5303 109.804 83.5303C107.583 83.5303 105.517 81.6626 104.394 77.686C104.816 78.0303 105.358 78.2283 105.922 78.2368H105.931L106.77 78.2283C107.459 78.1981 108.104 77.9054 108.539 77.4234C108.814 77.1222 108.99 76.7607 109.055 76.3863H110.548C110.617 76.7908 110.802 77.1695 111.099 77.4837C111.538 77.9528 112.175 78.2239 112.846 78.2368L113.694 78.2283C114.262 78.2024 114.805 77.9958 115.222 77.6515C114.993 78.4697 114.724 79.1993 114.422 79.8421ZM114.843 76.8597C115.067 76.6143 115.179 76.3217 115.166 76.0247L115.149 75.5686C113.922 75.1942 112.606 75.1769 111.383 75.5256V75.5385L111.366 75.9989C111.349 76.3303 111.474 76.6531 111.715 76.9113C111.999 77.2126 112.416 77.389 112.86 77.3976L113.673 77.389C114.125 77.3675 114.555 77.1738 114.843 76.8597ZM110.643 74.88L110.876 74.8025H110.88C112.425 74.299 114.121 74.3162 115.67 74.8542L115.764 74.8886C115.786 74.6605 115.799 74.4367 115.799 74.2172C115.622 74.1613 115.381 73.9418 115.287 73.1715C115.247 72.8502 115.242 72.5003 115.236 72.1506V72.1441C115.235 72.0482 115.233 71.9524 115.231 71.8572C115.226 71.6551 115.218 71.4558 115.201 71.2649C114.633 70.7743 113.716 70.0556 112.657 70.0685C112.387 70.2179 112.131 70.3119 111.884 70.4022C111.612 70.5017 111.352 70.5969 111.099 70.7571C110.673 71.0282 108.948 71.0282 108.521 70.7571C108.269 70.5969 108.009 70.5017 107.737 70.4022C107.49 70.3119 107.234 70.2179 106.963 70.0685C105.905 70.0556 104.984 70.7743 104.42 71.2649C104.394 71.5464 104.389 71.8461 104.385 72.146V72.1525C104.379 72.5016 104.373 72.8508 104.334 73.1715C104.235 73.9375 103.998 74.1613 103.822 74.2172C103.826 74.4195 103.835 74.6261 103.852 74.837L103.955 74.8025C105.496 74.299 107.192 74.3162 108.741 74.8542L108.965 74.9317L109.016 75.164L109.021 75.1879C109.029 75.2341 109.038 75.286 109.046 75.3409L109.051 75.3829L109.055 75.4223H110.553C110.561 75.3232 110.57 75.22 110.591 75.121L110.643 74.88ZM107.919 76.8597C108.143 76.6143 108.255 76.3217 108.242 76.0247L108.224 75.5686C106.998 75.1942 105.681 75.1769 104.459 75.5256V75.5385L104.442 75.9989C104.424 76.3346 104.549 76.6531 104.79 76.9113C105.074 77.2126 105.487 77.389 105.931 77.3976L106.748 77.389C107.2 77.3675 107.631 77.1738 107.919 76.8597Z" fill="white"/>
<path fill-rule="evenodd" clip-rule="evenodd" d="M104.489 90.4549C103.871 91.0377 103.871 91.9757 103.871 93.8517V97.168C103.871 98.4187 103.871 99.0441 104.283 99.4326C104.695 99.8211 105.358 99.8211 106.685 99.8211H113.72C115.046 99.8211 115.709 99.8211 116.121 99.4326C116.534 99.0441 116.534 98.4187 116.534 97.168V93.8517C116.534 91.9757 116.534 91.0377 115.915 90.4549C115.297 89.8721 114.302 89.8721 112.313 89.8721H108.092C106.102 89.8721 105.107 89.8721 104.489 90.4549ZM107.564 97.8313C107.564 97.5566 107.801 97.3339 108.092 97.3339H112.313C112.604 97.3339 112.84 97.5566 112.84 97.8313C112.84 98.1061 112.604 98.3288 112.313 98.3288H108.092C107.801 98.3288 107.564 98.1061 107.564 97.8313Z" fill="white" stroke="#02CDCD" stroke-width="0.487017" stroke-linecap="round"/>
<rect x="122.321" y="83.0354" width="17.8571" height="17.8571" rx="8.92856" fill="url(#paint3_linear_9348_414815)" stroke="white" stroke-width="1.78571"/>
<path fill-rule="evenodd" clip-rule="evenodd" d="M131.253 86.6064C130.76 86.6064 130.36 87.0062 130.36 87.4993V91.0707H126.785C126.292 91.0707 125.893 91.4705 125.893 91.9636C125.893 92.4567 126.292 92.8564 126.785 92.8564H130.36V96.4279C130.36 96.921 130.76 97.3207 131.253 97.3207C131.746 97.3207 132.146 96.921 132.146 96.4279V92.8564H135.714C136.207 92.8564 136.607 92.4567 136.607 91.9636C136.607 91.4705 136.207 91.0707 135.714 91.0707H132.146V87.4993C132.146 87.0062 131.746 86.6064 131.253 86.6064Z" fill="white"/>
<g filter="url(#filter0_d_9348_414815)">
<rect x="19.6426" y="14.2852" width="52.1236" height="52.1236" rx="26.0618" fill="url(#paint4_linear_9348_414815)"/>
</g>
<path d="M58.9283 35.4905C58.9283 30.6827 55.0308 26.7852 50.2229 26.7852C47.4334 26.7852 44.9503 28.1007 43.3571 30.143C50.1521 30.4057 55.5801 35.9973 55.5801 42.8566C55.5801 43.0043 55.5776 43.1515 55.5726 43.298L56.0176 43.4171C57.3118 43.7633 58.4958 42.5793 58.1495 41.2851L57.9789 40.6476C57.8411 40.1326 57.9239 39.5885 58.1454 39.1035C58.6482 38.003 58.9283 36.7795 58.9283 35.4905Z" fill="white"/>
<path fill-rule="evenodd" clip-rule="evenodd" d="M53.5711 42.8566C53.5711 48.7739 48.7742 53.5709 42.8569 53.5709C41.2022 53.5709 39.6351 53.1958 38.236 52.526C37.7551 52.2957 37.2103 52.2149 36.6953 52.3527L35.0533 52.7921C33.7591 53.1383 32.5751 51.9543 32.9214 50.6601L33.3607 49.0181C33.4985 48.5031 33.4177 47.9583 33.1875 47.4774C32.5177 46.0784 32.1426 44.5113 32.1426 42.8566C32.1426 36.9392 36.9395 32.1423 42.8569 32.1423C48.7742 32.1423 53.5711 36.9392 53.5711 42.8566ZM38.1694 44.1959C38.909 44.1959 39.5086 43.5963 39.5086 42.8566C39.5086 42.1169 38.909 41.5173 38.1694 41.5173C37.4297 41.5173 36.8301 42.1169 36.8301 42.8566C36.8301 43.5963 37.4297 44.1959 38.1694 44.1959ZM42.8569 44.1959C43.5965 44.1959 44.1961 43.5963 44.1961 42.8566C44.1961 42.1169 43.5965 41.5173 42.8569 41.5173C42.1172 41.5173 41.5176 42.1169 41.5176 42.8566C41.5176 43.5963 42.1172 44.1959 42.8569 44.1959ZM47.5444 44.1959C48.284 44.1959 48.8836 43.5963 48.8836 42.8566C48.8836 42.1169 48.284 41.5173 47.5444 41.5173C46.8047 41.5173 46.2051 42.1169 46.2051 42.8566C46.2051 43.5963 46.8047 44.1959 47.5444 44.1959Z" fill="white"/>
<path d="M143.94 135.907H75.6084C74.6867 135.907 73.9395 136.569 73.9395 137.385V143.117C73.9395 143.933 74.6867 144.594 75.6084 144.594H143.94C144.862 144.594 145.609 143.933 145.609 143.117V137.385C145.609 136.569 144.862 135.907 143.94 135.907Z" fill="white"/>
<path d="M120.661 118.533H81.3183C80.7876 118.533 80.3574 119.525 80.3574 120.75V129.348C80.3574 130.572 80.7876 131.564 81.3183 131.564H120.661C121.192 131.564 121.622 130.572 121.622 129.348V120.75C121.622 119.525 121.192 118.533 120.661 118.533Z" fill="white"/>
<path d="M142.936 118.533H126.371C126.148 118.533 125.966 119.525 125.966 120.75V129.348C125.966 130.572 126.148 131.564 126.371 131.564H142.936C143.16 131.564 143.341 130.572 143.341 129.348V120.75C143.341 119.525 143.16 118.533 142.936 118.533Z" fill="white"/>
<path d="M42.3926 70.751C42.3926 70.1825 41.9317 69.7217 41.3633 69.7217C40.7948 69.7217 40.334 70.1825 40.334 70.751H42.3926ZM60.9096 98.9846L50.6167 93.0419V104.927L60.9096 98.9846ZM40.334 70.751V92.4691H42.3926V70.751H40.334ZM47.8787 100.014H51.646V97.9553H47.8787V100.014ZM40.334 92.4691C40.334 96.636 43.7119 100.014 47.8787 100.014V97.9553C44.8488 97.9553 42.3926 95.499 42.3926 92.4691H40.334Z" fill="#EEF2FC"/>
<path d="M152.125 127.219C135.331 127.219 121.718 140.834 121.718 157.626C121.718 170.237 129.397 181.051 140.326 185.656C143.957 187.186 147.945 188.03 152.125 188.03C168.916 188.03 182.529 174.417 182.529 157.626C182.529 148.355 178.379 140.053 171.841 134.48C166.533 129.953 159.645 127.219 152.125 127.219Z" fill="url(#paint5_linear_9348_414815)" stroke="white" stroke-width="4.34363"/>
<path d="M155.714 157.649C158.917 154.43 161.818 151.511 162.852 150.462C163.942 149.359 163.936 147.686 162.876 146.633C161.906 145.672 160.188 145.581 159.114 146.726C157.923 147.996 156.666 149.203 155.438 150.438L151.987 153.906C148.781 150.684 145.872 147.765 144.828 146.722C143.729 145.626 142.065 145.631 141.018 146.696C140.06 147.672 139.97 149.398 141.11 150.477C142.374 151.674 143.576 152.937 144.803 154.172L148.261 157.647C145.003 160.922 141.75 164.191 141.134 164.815C140.953 164.996 140.768 165.188 140.639 165.409C139.997 166.512 140.253 168.024 141.182 168.741C142.368 169.653 143.789 169.607 144.828 168.572C145.872 167.53 148.78 164.612 151.985 161.394C155.241 164.665 158.489 167.928 159.108 168.546C159.292 168.727 159.481 168.915 159.701 169.043C160.798 169.688 162.303 169.434 163.016 168.497C163.924 167.307 163.876 165.879 162.846 164.834C161.812 163.786 158.913 160.868 155.711 157.649H155.714Z" fill="white"/>
<defs>
<filter id="filter0_d_9348_414815" x="16.3044" y="13.1724" width="63.2505" height="63.2514" filterUnits="userSpaceOnUse" color-interpolation-filters="sRGB">
<feFlood flood-opacity="0" result="BackgroundImageFix"/>
<feColorMatrix in="SourceAlpha" type="matrix" values="0 0 0 0 0 0 0 0 0 0 0 0 0 0 0 0 0 0 127 0" result="hardAlpha"/>
<feOffset dx="2.22549" dy="4.45097"/>
<feGaussianBlur stdDeviation="2.78186"/>
<feComposite in2="hardAlpha" operator="out"/>
<feColorMatrix type="matrix" values="0 0 0 0 0 0 0 0 0 0.175 0 0 0 0 0.4375 0 0 0 0.07 0"/>
<feBlend mode="normal" in2="BackgroundImageFix" result="effect1_dropShadow_9348_414815"/>
<feBlend mode="normal" in="SourceGraphic" in2="effect1_dropShadow_9348_414815" result="shape"/>
</filter>
<linearGradient id="paint0_linear_9348_414815" x1="35.9304" y1="-5.26045" x2="173.624" y2="143.78" gradientUnits="userSpaceOnUse">
<stop stop-color="white"/>
<stop offset="1" stop-color="#E2F1FA"/>
</linearGradient>
<linearGradient id="paint1_linear_9348_414815" x1="35.9304" y1="-5.26045" x2="173.624" y2="143.78" gradientUnits="userSpaceOnUse">
<stop stop-color="white"/>
<stop offset="1" stop-color="#E2F1FA"/>
</linearGradient>
<linearGradient id="paint2_linear_9348_414815" x1="118.045" y1="92.809" x2="144.753" y2="92.809" gradientUnits="userSpaceOnUse">
<stop stop-color="#05E0E0"/>
<stop offset="1" stop-color="#02C8C8"/>
</linearGradient>
<linearGradient id="paint3_linear_9348_414815" x1="118.043" y1="91.0229" x2="144.751" y2="91.0229" gradientUnits="userSpaceOnUse">
<stop stop-color="#05E0E0"/>
<stop offset="1" stop-color="#02C8C8"/>
</linearGradient>
<linearGradient id="paint4_linear_9348_414815" x1="19.6415" y1="40.3484" x2="71.7638" y2="40.3484" gradientUnits="userSpaceOnUse">
<stop stop-color="#05E0E0"/>
<stop offset="1" stop-color="#02C8C8"/>
</linearGradient>
<linearGradient id="paint5_linear_9348_414815" x1="154.776" y1="194.629" x2="134.115" y2="122.975" gradientUnits="userSpaceOnUse">
<stop stop-color="#FF4B4B"/>
<stop offset="1" stop-color="#FFB6B6"/>
</linearGradient>
</defs>
</svg>
