<svg width="120" height="123" viewBox="0 0 120 123" fill="none" xmlns="http://www.w3.org/2000/svg">
<mask id="mask0_18317_5153" style="mask-type:alpha" maskUnits="userSpaceOnUse" x="6" y="3" width="105" height="105">
<path d="M58.6738 107.505C87.3965 107.505 110.681 84.1847 110.681 55.4183C110.681 26.6518 87.3965 3.33203 58.6738 3.33203C29.951 3.33203 6.66663 26.6518 6.66663 55.4183C6.66663 84.1847 29.951 107.505 58.6738 107.505Z" fill="black"/>
</mask>
<g mask="url(#mask0_18317_5153)">
<path d="M58.6739 108.289C87.9467 108.289 111.677 84.5223 111.677 55.2049C111.677 25.8875 87.9467 2.12109 58.6739 2.12109C29.401 2.12109 5.67072 25.8875 5.67072 55.2049C5.67072 84.5223 29.401 108.289 58.6739 108.289Z" fill="#13C7C7"/>
<path d="M46.0299 68.6192C46.0299 68.6192 47.5771 64.791 47.5771 60.2656H71.2046C71.2046 60.2656 71.7387 66.1973 72.6382 68.6239C72.6382 68.6239 65.8347 80.8579 59.6007 80.8579C53.3668 80.8579 46.0299 68.6192 46.0299 68.6192Z" fill="#F8F9FA"/>
<path d="M70.8318 61.633C70.8318 61.633 64.1984 70.8941 58.3652 72.2061C52.5319 73.5181 46.6347 66.9278 46.6347 66.9278C46.6347 66.9278 46.9953 64.1872 46.9953 60.2656H70.8241L70.8318 61.633Z" fill="#D6D7DE"/>
<path d="M86.9477 80.4395H31.513V136.873H86.9477V80.4395Z" fill="#F8F9FA"/>
<path opacity="0.4" d="M44.6178 78.2578C44.6178 78.2578 47.2373 84.3051 52.1846 89.1134C52.1846 89.1134 52.5842 87.669 53.457 87.6561C54.3298 87.6433 55.6278 87.96 56.5615 89.9511L58.1982 82.1802L44.6178 78.2578Z" fill="#A2A6B4"/>
<path opacity="0.4" d="M73.2712 78.2578C73.2712 78.2578 70.6517 84.3051 65.7044 89.1134C65.7044 89.1134 65.3048 87.669 64.432 87.6561C63.5592 87.6433 62.2612 87.96 61.3275 89.9511L59.6909 82.1802L73.2712 78.2578Z" fill="#A2A6B4"/>
<path d="M54.3801 83.1167C54.3801 83.1167 55.7625 85.569 55.8105 86.9535C55.8586 88.338 55.0958 91.9822 55.0958 91.9822H62.3603C62.3603 91.9822 61.7546 88.9703 61.7546 87.5494C61.7546 86.1286 63.7182 83.6271 63.9607 82.9712C64.2032 82.3153 63.8154 79.6448 62.1659 79.6448C60.5165 79.6448 56.397 79.6683 55.4975 79.6448C54.598 79.6212 53.7017 81.4166 54.3801 83.1167Z" fill="#129292"/>
<path d="M54.8288 78.755C54.8288 78.755 58.757 80.3214 63.1221 78.541C63.1221 78.541 64.0312 80.5204 64.0558 81.4427C64.0804 82.365 61.3637 84.4064 61.4363 87.1016C61.5154 90.0161 62.261 90.4291 62.698 93.1253C63.1349 95.8216 62.7952 97.8116 63.5954 110.126C64.3955 122.439 64.6861 136.874 64.6861 136.874H52.9005C52.9005 136.874 54.4282 96.9343 54.6472 93.7288C54.8662 90.5232 56.5146 88.5556 56.4537 87.4996C56.3928 86.4436 55.3256 82.9459 54.5745 81.6342C53.8235 80.3225 54.8288 78.755 54.8288 78.755Z" fill="#13C7C7"/>
<path opacity="0.6" d="M56.3009 86.5801C56.4604 87.1326 56.4604 87.7191 56.3009 88.2716H61.5153C61.5153 88.2716 61.3967 86.9792 61.4566 86.5801H56.3009Z" fill="#116D6D"/>
<path d="M72.0096 68.2754C72.0096 68.2754 69.0033 74.1044 59.6909 79.1566L65.8508 88.2393C65.8508 88.2393 74.2904 77.3591 75.0649 75.368C75.8395 73.3768 72.0096 68.2754 72.0096 68.2754Z" fill="white"/>
<path d="M45.8796 68.2754C45.8796 68.2754 48.8826 74.1044 58.1983 79.1566L52.0384 88.2393C52.0384 88.2393 43.5988 77.3591 42.8242 75.368C42.0497 73.3768 45.8796 68.2754 45.8796 68.2754Z" fill="white"/>
<path d="M71.8163 67.5977C71.8163 67.5977 76.4229 71.6292 78.7518 72.3578C81.0807 73.0864 98.5871 77.8947 103.243 79.6441C107.899 81.3934 107.705 83.238 108.675 87.3176C109.645 91.3973 114.204 119.11 115.174 136.875H70.5546L71.8163 67.5977Z" fill="url(#paint0_linear_18317_5153)"/>
<path d="M78.7518 72.3555L82.8733 79.4427C82.8733 79.4427 78.412 81.9196 78.412 82.5027C78.412 83.0859 78.7026 83.3769 79.9632 83.7653C81.2238 84.1537 86.6562 86.4861 86.6562 86.4861L70.5546 136.868H72.1795L87.6935 86.4743C87.7602 86.2581 87.7404 86.0243 87.6381 85.8224C87.5358 85.6206 87.3592 85.4664 87.1455 85.3926L79.5092 82.7595L83.5164 79.8322C83.5734 79.7908 83.6216 79.7386 83.6583 79.6786C83.6951 79.6185 83.7196 79.5517 83.7305 79.4821C83.7415 79.4126 83.7385 79.3415 83.722 79.273C83.7054 79.2046 83.6755 79.1401 83.634 79.0832L78.7518 72.3555Z" fill="white"/>
<path d="M46.2867 67.5977C46.2867 67.5977 41.6802 71.6292 39.3512 72.3578C37.0223 73.0864 19.5159 77.8947 14.8591 79.6441C10.2024 81.3934 10.3979 83.238 9.42784 87.3176C8.45781 91.3973 3.89935 119.11 2.92932 136.875H47.5484L46.2867 67.5977Z" fill="url(#paint1_linear_18317_5153)"/>
<path d="M39.3513 72.3555L35.2297 79.4427C35.2297 79.4427 39.691 81.9196 39.691 82.5027C39.691 83.0859 39.4004 83.3769 38.1387 83.7653C36.8771 84.1537 31.4468 86.4861 31.4468 86.4861L47.5484 136.868H45.9235L30.4095 86.4743C30.3428 86.2581 30.3627 86.0243 30.465 85.8224C30.5672 85.6206 30.7439 85.4664 30.9575 85.3926L38.5938 82.7595L34.5866 79.8322C34.5297 79.7908 34.4814 79.7386 34.4447 79.6786C34.408 79.6185 34.3834 79.5517 34.3725 79.4821C34.3616 79.4126 34.3645 79.3415 34.3811 79.273C34.3976 79.2046 34.4276 79.1401 34.4691 79.0832L39.3513 72.3555Z" fill="white"/>
<path d="M72.0111 46.6602C71.9908 45.2511 72.1457 43.4065 74.2492 43.3091C76.3527 43.2118 76.4926 46.0054 76.3516 47.316C76.2106 48.6267 75.7213 51.3722 74.5814 53.0723C73.4415 54.7724 72.4234 55.2582 71.4288 55.1608C71.4288 55.1608 71.7685 52.1735 71.8412 50.3525C71.9138 48.5315 72.0164 47.0485 72.0111 46.6602Z" fill="#E8EDFB"/>
<path d="M43.1592 47.8711C43.1795 46.462 43.0235 44.6174 40.9157 44.5201C38.8079 44.4227 38.6723 47.2163 38.8122 48.527C38.9522 49.8376 39.4436 52.5831 40.5824 54.2832C41.7212 55.9834 42.7415 56.4691 43.735 56.3717C43.735 56.3717 43.3963 53.3845 43.3226 51.5634C43.2489 49.7424 43.1528 48.2595 43.1592 47.8711Z" fill="#E8EDFB"/>
<path d="M44.7044 42.5215H42.3403V43.0546H44.7044V42.5215Z" fill="#090D22"/>
<path d="M71.095 43.0547H73.4592V42.5216H71.095V43.0547Z" fill="#090D22"/>
<path d="M58.2175 25.1699H57.8447C50.5909 25.2074 42.1277 26.3832 42.3542 33.5465C42.5807 40.8327 43.1191 53.9416 44.0485 58.2459C44.9587 62.4583 52.125 69.0983 57.8479 69.3797V69.3936C57.9099 69.3936 57.9718 69.3882 58.0338 69.3861C58.0957 69.384 58.1588 69.3936 58.2207 69.3936V69.3797C63.9437 69.0983 71.1099 62.4583 72.0201 58.2459C72.9496 53.9416 73.488 40.8327 73.7145 33.5465C73.9345 26.3832 65.4714 25.2074 58.2175 25.1699Z" fill="#F8F9FA"/>
<path d="M73.2222 47.5003C74.3856 47.5003 75.6131 42.6299 76.0426 40.5864C76.472 38.5428 78.2177 32.4259 77.6354 29.8025C77.0532 27.179 74.6773 22.7601 69.3913 23.9253C69.3913 23.9253 69.0515 18.0235 62.3586 16.4208C55.6656 14.818 54.7928 15.7649 50.2097 17.0039C45.6267 18.2429 39.7339 18.5339 39.6612 16.2025C39.6612 16.2025 39.0972 18.9533 41.9891 21.3575C41.9891 21.3575 36.6604 22.8554 36.2202 18.2429C36.2202 18.2429 35.4382 23.3786 39.2937 25.5463C39.2937 25.5463 36.8933 25.5826 35.5109 23.8707C35.5109 23.8707 36.2384 27.4229 39.6944 29.0257C39.6944 29.0257 38.9305 29.5361 38.9305 32.4131C38.9305 35.2902 39.5854 37.1497 40.0576 38.7525C40.5298 40.3552 42.1344 42.4637 41.9891 45.1235C41.8438 47.7834 43.0072 47.5003 43.0072 47.5003C43.0072 47.5003 42.8619 44.039 43.5168 42.035C44.1717 40.0311 44.7539 38.0281 44.9355 35.4421C45.1171 32.8561 45.335 28.5945 51.0462 28.8845C56.7574 29.1744 61.0884 28.6651 63.9226 28.3013C66.7568 27.9376 68.9437 27.7546 70.2887 30.5964C71.6337 33.4381 71.0162 34.7135 71.3431 36.68C71.67 38.6466 72.9926 42.4363 73.2222 44.3301C73.4519 46.2239 73.2222 47.5003 73.2222 47.5003Z" fill="#090D22"/>
<path d="M68.6871 23.9288C68.6871 23.9288 68.4211 26.6764 63.0379 27.4157C57.6547 28.1551 53.9679 28.5435 48.2952 26.9878C42.6225 25.4321 38.8406 22.6171 38.8406 22.6171C38.8406 22.6171 42.0456 22.5689 43.4963 21.4038C43.4963 21.4038 41.8939 20.383 41.7507 18.8284C41.7507 18.8284 46.2131 19.4115 52.7116 17.323C59.2101 15.2345 63.7975 17.3797 64.8359 18.4647C65.8743 19.5496 68.5183 22.6171 68.6871 23.9288Z" fill="#17202D"/>
<path d="M55.8072 43.2163C55.6887 45.1862 55.1674 47.2424 54.0797 48.848C53.5253 49.6388 52.7255 50.2547 51.7753 50.4608C51.3014 50.5723 50.8145 50.5651 50.2967 50.5723C49.779 50.5794 49.2754 50.5723 48.7648 50.5651L48.0018 50.5555C47.7655 50.5451 47.5315 50.5048 47.3051 50.4357C46.8446 50.2949 46.4122 50.073 46.0279 49.7802C45.6502 49.4793 45.3115 49.1315 45.0197 48.7449C44.7338 48.3486 44.4952 47.9194 44.3088 47.4664C43.9462 46.5378 43.7306 45.5572 43.6702 44.5607L43.6394 43.8046C43.6299 43.5518 43.6394 43.2894 43.6276 43.033L43.611 41.6059L43.6643 41.5651C43.7152 41.5292 43.7721 41.4944 43.829 41.4609C43.9502 41.395 44.0757 41.3373 44.2045 41.2883C44.4739 41.1875 44.7514 41.1105 45.0339 41.0583C45.6121 40.9517 46.1985 40.8964 46.7862 40.8929C47.9816 40.8929 49.1972 40.9097 50.3998 40.9444C51.0017 40.9628 51.6027 40.9888 52.203 41.0223C52.8025 41.0655 53.4044 41.0858 53.9565 41.2068C54.5086 41.3279 55.0785 41.5208 55.4884 41.8287C55.697 41.9833 55.8095 42.1666 55.8131 42.3164L55.8072 43.2163ZM72.6169 43.0294C72.6169 43.2858 72.6169 43.5482 72.6062 43.801L72.5754 44.5571C72.5146 45.5537 72.2987 46.5343 71.9356 47.4628C71.7498 47.9161 71.5112 48.3453 71.2248 48.7413C70.9333 49.1282 70.5945 49.476 70.2165 49.7766C69.8328 50.0696 69.4008 50.2915 68.9405 50.4321C68.7137 50.5012 68.4793 50.5415 68.2427 50.5519L67.4808 50.5615C66.9702 50.5699 66.4596 50.5711 65.9489 50.5687C65.4383 50.5663 64.9395 50.5687 64.4703 50.4572C63.5225 50.2511 62.7192 49.6352 62.1647 48.8444C61.0783 47.2424 60.5593 45.1862 60.4373 43.2127V42.3092C60.4373 42.1594 60.5558 41.9761 60.7619 41.8215C61.1707 41.5136 61.7394 41.3219 62.2939 41.1997C62.8483 41.0774 63.4466 41.0583 64.0473 41.0151C64.648 40.972 65.2487 40.9552 65.8506 40.9372C67.0531 40.9025 68.2675 40.8797 69.4642 40.8857C70.0515 40.8893 70.6374 40.9446 71.2153 41.0511C71.4978 41.1034 71.7753 41.1804 72.0446 41.2811C72.1731 41.3302 72.2982 41.3878 72.419 41.4537C72.4771 41.4872 72.5375 41.522 72.5849 41.5579L72.6382 41.5987L72.6169 43.0294Z" fill="#090D22"/>
</g>
<g filter="url(#filter0_d_18317_5153)">
<path d="M70.3123 93.7506C70.3123 82.8778 79.1265 74.0625 90.0003 74.0625C94.8707 74.0625 99.3283 75.8313 102.766 78.7631C107.002 82.374 109.687 87.7483 109.687 93.7506C109.687 104.623 100.873 113.437 90.0003 113.437C87.2916 113.437 84.7104 112.89 82.3612 111.901C75.2814 108.918 70.3123 101.915 70.3123 93.7506Z" fill="white"/>
<path fill-rule="evenodd" clip-rule="evenodd" d="M90.0002 76.9766C80.7373 76.9766 73.2289 84.4864 73.2289 93.7489C73.2289 100.704 77.4619 106.67 83.4928 109.211C85.494 110.054 87.6928 110.52 90.0002 110.52C99.2622 110.52 106.771 103.011 106.771 93.7489C106.771 88.6355 104.483 84.0572 100.875 80.981C97.9463 78.4834 94.1491 76.9766 90.0002 76.9766Z" fill="#59CACA"/>
<path d="M94.1336 84.9303C94.5251 84.038 95.5748 83.6216 96.4004 84.139C98.2242 85.2819 99.7184 86.8987 100.714 88.8308C101.981 91.2885 102.364 94.1069 101.8 96.8136C101.235 99.5203 99.7572 101.951 97.6137 103.697C95.4702 105.444 92.7914 106.4 90.0265 106.406C87.2615 106.412 84.5785 105.468 82.4273 103.731C80.2761 101.994 78.7874 99.57 78.2109 96.8659C77.6344 94.1618 78.0051 91.3416 79.2609 88.8783C80.2481 86.9418 81.7352 85.3184 83.5538 84.1675C84.3771 83.6465 85.4287 84.0582 85.8241 84.9487C86.2195 85.8391 85.8031 86.8681 85.0129 87.4381C83.9207 88.2257 83.0235 89.2662 82.4043 90.4808C81.5161 92.223 81.2539 94.2177 81.6617 96.1303C82.0694 98.0429 83.1223 99.7571 84.6439 100.986C86.1654 102.214 88.063 102.882 90.0186 102.878C91.9742 102.874 93.8689 102.197 95.385 100.962C96.901 99.7266 97.9463 98.0077 98.3456 96.0933C98.7448 94.1789 98.4738 92.1854 97.5779 90.4471C96.9533 89.2353 96.0516 88.1989 94.9559 87.416C94.1631 86.8496 93.7422 85.8225 94.1336 84.9303Z" fill="white"/>
<path d="M88.6604 82.4331C88.6604 81.6934 89.2601 81.0938 89.9997 81.0938C90.7394 81.0938 91.339 81.6934 91.339 82.4331V86.451C91.339 87.1907 90.7394 87.7903 89.9997 87.7903C89.2601 87.7903 88.6604 87.1907 88.6604 86.451V82.4331Z" fill="white"/>
</g>
<defs>
<filter id="filter0_d_18317_5153" x="63.2723" y="68.6952" width="56.8" height="56.8" filterUnits="userSpaceOnUse" color-interpolation-filters="sRGB">
<feFlood flood-opacity="0" result="BackgroundImageFix"/>
<feColorMatrix in="SourceAlpha" type="matrix" values="0 0 0 0 0 0 0 0 0 0 0 0 0 0 0 0 0 0 127 0" result="hardAlpha"/>
<feOffset dx="1.67258" dy="3.34517"/>
<feGaussianBlur stdDeviation="2.95"/>
<feComposite in2="hardAlpha" operator="out"/>
<feColorMatrix type="matrix" values="0 0 0 0 0.00616667 0 0 0 0 0 0 0 0 0 0.308333 0 0 0 0.07 0"/>
<feBlend mode="normal" in2="BackgroundImageFix" result="effect1_dropShadow_18317_5153"/>
<feBlend mode="normal" in="SourceGraphic" in2="effect1_dropShadow_18317_5153" result="shape"/>
</filter>
<linearGradient id="paint0_linear_18317_5153" x1="92.7111" y1="184.766" x2="157.193" y2="143.421" gradientUnits="userSpaceOnUse">
<stop stop-color="#D2E0F5"/>
<stop offset="0.632415" stop-color="#F2F4FF"/>
</linearGradient>
<linearGradient id="paint1_linear_18317_5153" x1="35.4743" y1="75.3759" x2="6.49689" y2="126.163" gradientUnits="userSpaceOnUse">
<stop stop-color="#F2F4FF"/>
<stop offset="1" stop-color="#D2E0F5"/>
</linearGradient>
</defs>
</svg>
