<svg width="200" height="200" viewBox="0 0 200 200" fill="none" xmlns="http://www.w3.org/2000/svg">
<path d="M150.471 42.9043H64.1348C62.616 42.9043 61.3848 44.4154 61.3848 46.2793V152.238C61.3848 154.102 62.616 155.613 64.1348 155.613H150.471C151.99 155.613 153.221 154.102 153.221 152.238V46.2793C153.221 44.4154 151.99 42.9043 150.471 42.9043Z" fill="url(#paint0_linear_9348_414783)"/>
<path d="M150.471 42.9043H64.1348C62.616 42.9043 61.3848 44.4154 61.3848 46.2793V152.238C61.3848 154.102 62.616 155.613 64.1348 155.613H150.471C151.99 155.613 153.221 154.102 153.221 152.238V46.2793C153.221 44.4154 151.99 42.9043 150.471 42.9043Z" fill="url(#paint1_linear_9348_414783)" stroke="#E1EDF8" stroke-width="5.35714"/>
<path fill-rule="evenodd" clip-rule="evenodd" d="M130.287 82.1768C130.333 81.6009 130.357 81.0185 130.357 80.4305C130.357 68.5959 120.763 59.002 108.929 59.002C97.0939 59.002 87.5 68.5959 87.5 80.4305C87.5 92.2652 97.0939 101.859 108.929 101.859C113.641 101.859 117.997 100.338 121.535 97.7606C123.322 100.201 126.208 101.786 129.464 101.786C134.888 101.786 139.286 97.3885 139.286 91.9643C139.286 86.8171 135.326 82.5948 130.287 82.1768Z" fill="url(#paint2_linear_9348_414783)"/>
<path d="M104.28 98.8813L106.792 93.4717L106.284 92.6971L106.964 90.6529L102.682 86.0479L102.743 85.9834C101.581 86.1082 100.423 86.2631 99.2694 86.4697C97.109 86.6161 95.3789 87.4725 95.2541 88.5441L94.6426 93.8931C97.7396 97.0094 99.642 98.4864 104.28 98.8813Z" fill="white"/>
<path d="M121.429 94.186C118.358 97.1442 116.332 98.5049 111.829 98.8813C114.105 98.3027 111.891 97.6616 111.829 97.6638L109.362 93.4717L109.869 92.6971L109.185 90.6356H109.09L113.355 86.0479L113.295 85.9834C114.457 86.1082 115.615 86.2631 116.772 86.4697C118.933 86.6161 120.663 87.4725 120.783 88.5441L121.429 94.186Z" fill="white"/>
<path fill-rule="evenodd" clip-rule="evenodd" d="M102.372 80.3628C102.341 80.4208 102.307 80.4696 102.269 80.5067C102.247 80.5278 102.225 80.5451 102.202 80.5582C102.187 80.5666 102.172 80.5732 102.157 80.578L102.162 80.5737C101.796 80.6942 101.254 79.9669 100.853 78.5768C100.453 77.1868 100.513 75.8096 101.038 75.6503C100.212 69.7414 103.96 65.8294 108.019 66.0833C112.05 65.8268 115.776 69.6902 115.019 75.5385H116.204C116.917 75.5385 117.495 76.1165 117.495 76.8296V79.4118C117.495 80.1248 116.917 80.7029 116.204 80.7029H113.508C112.115 83.6171 110.129 85.0108 108.019 85.0108C105.832 85.0064 103.771 83.5088 102.372 80.3628ZM112.637 79.8421H108.888C108.65 79.8421 108.458 80.0348 108.458 80.2725C108.458 80.5102 108.65 80.7029 108.888 80.7029H112.183C111.05 82.6146 109.571 83.5303 108.019 83.5303C105.798 83.5303 103.732 81.6626 102.609 77.686C103.031 78.0303 103.573 78.2283 104.137 78.2368H104.145L104.985 78.2283C105.673 78.1981 106.319 77.9054 106.753 77.4234C107.029 77.1222 107.205 76.7607 107.27 76.3863H108.763C108.832 76.7908 109.017 77.1695 109.314 77.4837C109.753 77.9528 110.39 78.2239 111.061 78.2368L111.909 78.2283C112.477 78.2024 113.02 77.9958 113.437 77.6515C113.208 78.4697 112.939 79.1993 112.637 79.8421ZM113.058 76.8597C113.282 76.6143 113.394 76.3217 113.381 76.0247L113.364 75.5686C112.137 75.1942 110.821 75.1769 109.598 75.5256V75.5385L109.581 75.9989C109.564 76.3303 109.688 76.6531 109.93 76.9113C110.214 77.2126 110.631 77.389 111.074 77.3976L111.888 77.389C112.34 77.3675 112.77 77.1738 113.058 76.8597ZM108.858 74.88L109.09 74.8025H109.095C110.64 74.299 112.335 74.3162 113.885 74.8542L113.979 74.8886C114.001 74.6605 114.014 74.4367 114.014 74.2172C113.837 74.1613 113.596 73.9418 113.502 73.1715C113.462 72.8502 113.456 72.5003 113.451 72.1506V72.1441C113.449 72.0482 113.448 71.9524 113.446 71.8572C113.441 71.6551 113.433 71.4558 113.416 71.2649C112.848 70.7743 111.931 70.0556 110.872 70.0685C110.602 70.2179 110.345 70.3119 110.099 70.4022C109.827 70.5017 109.567 70.5969 109.314 70.7571C108.888 71.0282 107.162 71.0282 106.736 70.7571C106.483 70.5969 106.224 70.5017 105.952 70.4022C105.705 70.3119 105.449 70.2179 105.178 70.0685C104.12 70.0556 103.199 70.7743 102.635 71.2649C102.609 71.5464 102.604 71.8461 102.599 72.146V72.1525C102.594 72.5016 102.588 72.8508 102.549 73.1715C102.45 73.9375 102.213 74.1613 102.037 74.2172C102.041 74.4195 102.05 74.6261 102.067 74.837L102.17 74.8025C103.711 74.299 105.407 74.3162 106.956 74.8542L107.18 74.9317L107.231 75.164L107.236 75.1879C107.244 75.2341 107.253 75.286 107.261 75.3409L107.266 75.3829L107.27 75.4223H108.768C108.776 75.3232 108.785 75.22 108.806 75.121L108.858 74.88ZM106.134 76.8597C106.358 76.6143 106.469 76.3217 106.457 76.0247L106.439 75.5686C105.213 75.1942 103.896 75.1769 102.674 75.5256V75.5385L102.656 75.9989C102.639 76.3346 102.764 76.6531 103.005 76.9113C103.289 77.2126 103.702 77.389 104.145 77.3976L104.963 77.389C105.415 77.3675 105.845 77.1738 106.134 76.8597Z" fill="white"/>
<path fill-rule="evenodd" clip-rule="evenodd" d="M102.704 90.4549C102.086 91.0377 102.086 91.9757 102.086 93.8517V97.168C102.086 98.4187 102.086 99.0441 102.498 99.4326C102.91 99.8211 103.573 99.8211 104.9 99.8211H111.935C113.261 99.8211 113.924 99.8211 114.336 99.4326C114.748 99.0441 114.748 98.4187 114.748 97.168V93.8517C114.748 91.9757 114.748 91.0377 114.13 90.4549C113.512 89.8721 112.517 89.8721 110.528 89.8721H106.307C104.317 89.8721 103.322 89.8721 102.704 90.4549ZM105.779 97.8313C105.779 97.5566 106.015 97.3339 106.307 97.3339H110.528C110.819 97.3339 111.055 97.5566 111.055 97.8313C111.055 98.1061 110.819 98.3288 110.528 98.3288H106.307C106.015 98.3288 105.779 98.1061 105.779 97.8313Z" fill="white" stroke="#02CDCD" stroke-width="0.487017" stroke-linecap="round"/>
<rect x="119.643" y="82.1426" width="19.6428" height="19.6429" rx="9.82142" fill="url(#paint3_linear_9348_414783)"/>
<rect x="120.535" y="83.0354" width="17.8571" height="17.8571" rx="8.92856" fill="url(#paint4_linear_9348_414783)" stroke="white" stroke-width="1.78571"/>
<path fill-rule="evenodd" clip-rule="evenodd" d="M129.468 86.6064C128.975 86.6064 128.575 87.0062 128.575 87.4993V91.0707H125C124.507 91.0707 124.107 91.4705 124.107 91.9636C124.107 92.4567 124.507 92.8564 125 92.8564H128.575V96.4279C128.575 96.921 128.975 97.3207 129.468 97.3207C129.961 97.3207 130.361 96.921 130.361 96.4279V92.8564H133.929C134.422 92.8564 134.822 92.4567 134.822 91.9636C134.822 91.4705 134.422 91.0707 133.929 91.0707H130.361V87.4993C130.361 87.0062 129.961 86.6064 129.468 86.6064Z" fill="white"/>
<path d="M117.306 118.042H79.4958C78.9857 118.042 78.5723 118.996 78.5723 120.172V128.435C78.5723 129.612 78.9857 130.565 79.4958 130.565H117.306C117.816 130.565 118.229 129.612 118.229 128.435V120.172C118.229 118.996 117.816 118.042 117.306 118.042Z" fill="white"/>
<path d="M138.712 118.042H122.792C122.578 118.042 122.403 118.996 122.403 120.172V128.435C122.403 129.612 122.578 130.565 122.792 130.565H138.712C138.927 130.565 139.101 129.612 139.101 128.435V120.172C139.101 118.996 138.927 118.042 138.712 118.042Z" fill="white"/>
<g filter="url(#filter0_d_9348_414783)">
<rect x="19.6426" y="17.8574" width="50.0928" height="50.0928" rx="25.0464" fill="url(#paint5_linear_9348_414783)"/>
</g>
<path d="M58.9283 39.0628C58.9283 34.2549 55.0308 30.3574 50.2229 30.3574C47.4334 30.3574 44.9503 31.673 43.3571 33.7153C50.1521 33.978 55.5801 39.5695 55.5801 46.4288C55.5801 46.5766 55.5776 46.7237 55.5726 46.8703L56.0176 46.9893C57.3118 47.3356 58.4958 46.1516 58.1495 44.8574L57.9789 44.2198C57.8411 43.7048 57.9239 43.1607 58.1454 42.6758C58.6482 41.5753 58.9283 40.3517 58.9283 39.0628Z" fill="white"/>
<path fill-rule="evenodd" clip-rule="evenodd" d="M53.5711 46.4288C53.5711 52.3462 48.7742 57.1431 42.8569 57.1431C41.2022 57.1431 39.6351 56.768 38.236 56.0982C37.7551 55.868 37.2103 55.7872 36.6953 55.925L35.0533 56.3643C33.7591 56.7106 32.5751 55.5266 32.9214 54.2324L33.3607 52.5904C33.4985 52.0754 33.4177 51.5306 33.1875 51.0497C32.5177 49.6506 32.1426 48.0835 32.1426 46.4288C32.1426 40.5115 36.9395 35.7146 42.8569 35.7146C48.7742 35.7146 53.5711 40.5115 53.5711 46.4288ZM38.1694 47.7681C38.909 47.7681 39.5086 47.1685 39.5086 46.4288C39.5086 45.6892 38.909 45.0896 38.1694 45.0896C37.4297 45.0896 36.8301 45.6892 36.8301 46.4288C36.8301 47.1685 37.4297 47.7681 38.1694 47.7681ZM42.8569 47.7681C43.5965 47.7681 44.1961 47.1685 44.1961 46.4288C44.1961 45.6892 43.5965 45.0896 42.8569 45.0896C42.1172 45.0896 41.5176 45.6892 41.5176 46.4288C41.5176 47.1685 42.1172 47.7681 42.8569 47.7681ZM47.5444 47.7681C48.284 47.7681 48.8836 47.1685 48.8836 46.4288C48.8836 45.6892 48.284 45.0896 47.5444 45.0896C46.8047 45.0896 46.2051 45.6892 46.2051 46.4288C46.2051 47.1685 46.8047 47.7681 47.5444 47.7681Z" fill="white"/>
<path d="M139.1 138.914H73.4301C72.5443 138.914 71.8262 139.55 71.8262 140.334V145.843C71.8262 146.627 72.5443 147.263 73.4301 147.263H139.1C139.986 147.263 140.704 146.627 140.704 145.843V140.334C140.704 139.55 139.986 138.914 139.1 138.914Z" fill="white"/>
<path d="M126.098 155.614C126.098 140.629 138.246 128.48 153.232 128.48C159.945 128.48 166.088 130.918 170.826 134.958C176.664 139.935 180.365 147.342 180.365 155.614C180.365 170.599 168.217 182.747 153.232 182.747C149.499 182.747 145.942 181.993 142.704 180.629C132.947 176.518 126.098 166.866 126.098 155.614Z" fill="#05E0AC" stroke="white" stroke-width="3.77042"/>
<path d="M148.417 159.956C149.923 158.437 151.363 156.98 152.807 155.534C156.192 152.142 159.574 148.754 162.954 145.37C164.526 143.797 166.919 143.999 168.076 145.778C168.938 147.1 168.759 148.718 167.572 149.912C164.301 153.208 161.025 156.498 157.743 159.78C155.463 162.067 153.181 164.353 150.9 166.638C149.371 168.167 147.517 168.177 145.981 166.65C143.82 164.507 141.67 162.354 139.531 160.191C138.583 159.236 138.292 158.087 138.715 156.81C139.137 155.534 140.058 154.834 141.351 154.635C142.42 154.471 143.345 154.842 144.106 155.604C145.517 157.023 146.925 158.447 148.417 159.956Z" fill="white"/>
<path d="M41.5029 72.124C41.5029 71.5777 41.06 71.1348 40.5137 71.1348C39.9674 71.1348 39.5245 71.5777 39.5245 72.124H41.5029ZM59.2985 99.2576L49.4065 93.5465V104.969L59.2985 99.2576ZM39.5245 72.124V92.996H41.5029V72.124H39.5245ZM46.7753 100.247H50.3957V98.2684H46.7753V100.247ZM39.5245 92.996C39.5245 97.0005 42.7708 100.247 46.7753 100.247V98.2684C43.8634 98.2684 41.5029 95.9079 41.5029 92.996H39.5245Z" fill="#EEF2FC"/>
<defs>
<filter id="filter0_d_9348_414783" x="16.4344" y="16.788" width="60.7857" height="60.7867" filterUnits="userSpaceOnUse" color-interpolation-filters="sRGB">
<feFlood flood-opacity="0" result="BackgroundImageFix"/>
<feColorMatrix in="SourceAlpha" type="matrix" values="0 0 0 0 0 0 0 0 0 0 0 0 0 0 0 0 0 0 127 0" result="hardAlpha"/>
<feOffset dx="2.13878" dy="4.27756"/>
<feGaussianBlur stdDeviation="2.67347"/>
<feComposite in2="hardAlpha" operator="out"/>
<feColorMatrix type="matrix" values="0 0 0 0 0 0 0 0 0 0.175 0 0 0 0 0.4375 0 0 0 0.07 0"/>
<feBlend mode="normal" in2="BackgroundImageFix" result="effect1_dropShadow_9348_414783"/>
<feBlend mode="normal" in="SourceGraphic" in2="effect1_dropShadow_9348_414783" result="shape"/>
</filter>
<linearGradient id="paint0_linear_9348_414783" x1="35.2948" y1="-0.926872" x2="167.624" y2="142.307" gradientUnits="userSpaceOnUse">
<stop stop-color="white"/>
<stop offset="1" stop-color="#E2F1FA"/>
</linearGradient>
<linearGradient id="paint1_linear_9348_414783" x1="35.2948" y1="-0.926872" x2="167.624" y2="142.307" gradientUnits="userSpaceOnUse">
<stop stop-color="white"/>
<stop offset="1" stop-color="#E2F1FA"/>
</linearGradient>
<linearGradient id="paint2_linear_9348_414783" x1="116.258" y1="92.809" x2="142.966" y2="92.809" gradientUnits="userSpaceOnUse">
<stop stop-color="#05E0E0"/>
<stop offset="1" stop-color="#02C8C8"/>
</linearGradient>
<linearGradient id="paint3_linear_9348_414783" x1="116.258" y1="91.0229" x2="142.966" y2="91.0229" gradientUnits="userSpaceOnUse">
<stop stop-color="#05E0E0"/>
<stop offset="1" stop-color="#02C8C8"/>
</linearGradient>
<linearGradient id="paint4_linear_9348_414783" x1="116.258" y1="91.0229" x2="142.966" y2="91.0229" gradientUnits="userSpaceOnUse">
<stop stop-color="#05E0E0"/>
<stop offset="1" stop-color="#02C8C8"/>
</linearGradient>
<linearGradient id="paint5_linear_9348_414783" x1="19.6416" y1="42.9053" x2="69.7331" y2="42.9053" gradientUnits="userSpaceOnUse">
<stop stop-color="#05E0E0"/>
<stop offset="1" stop-color="#02C8C8"/>
</linearGradient>
</defs>
</svg>
