<svg width="156" height="156" viewBox="0 0 156 156" fill="none" xmlns="http://www.w3.org/2000/svg">
<path d="M81.6641 27.7441L94.5257 30.546L97.704 39.4563L114.681 43.1548L98.6827 116.595L63.9562 109.03L81.6641 27.7441Z" fill="#D0DEEB"/>
<path d="M65.9961 31.3828L82.2749 31.1606L88.5964 41.0062L110.084 40.7128L111.354 133.665L67.4008 134.265L65.9961 31.3828Z" fill="url(#paint0_linear_9290_954625)"/>
<path d="M65.9961 31.3828L82.2749 31.1606L88.5964 41.0062L110.084 40.7128L111.354 133.665L67.4008 134.265L65.9961 31.3828Z" fill="#E1EDF8"/>
<path d="M51.6562 34.3447H69.1581L75.8088 45.0209H133.915V144.957H51.6562V34.3447Z" fill="url(#paint1_linear_9290_954625)"/>
<circle cx="92.6119" cy="95.9498" r="30.8033" fill="#03D2D2"/>
<circle cx="92.6119" cy="95.9498" r="30.8033" fill="url(#paint2_linear_9290_954625)"/>
<circle cx="92.6119" cy="95.9498" r="30.8033" fill="url(#paint3_linear_9290_954625)"/>
<circle cx="92.6119" cy="95.9498" r="30.8033" fill="url(#paint4_linear_9290_954625)"/>
<path d="M87.014 121.503L90.6249 113.727L89.8951 112.614L90.8723 109.675L84.717 103.056L84.8037 102.963C83.1333 103.142 81.4692 103.365 79.8111 103.662C76.7055 103.872 74.2186 105.104 74.0392 106.644L73.1602 114.333C77.612 118.813 80.3467 120.936 87.014 121.503Z" fill="white"/>
<path d="M111.664 114.754C107.25 119.006 104.338 120.962 97.8651 121.503C101.137 120.672 97.9536 119.75 97.8651 119.753L94.3183 113.727L95.0484 112.614L94.0648 109.65H93.9286L100.059 103.056L99.9727 102.963C101.643 103.142 103.307 103.365 104.971 103.662C108.077 103.872 110.564 105.104 110.737 106.644L111.664 114.754Z" fill="white"/>
<path fill-rule="evenodd" clip-rule="evenodd" d="M84.2715 94.8836C84.2268 94.967 84.1769 95.0371 84.1228 95.0904C84.092 95.1207 84.06 95.1456 84.0268 95.1645C84.0056 95.1765 83.9842 95.186 83.9621 95.1929L83.9685 95.1867C83.4426 95.36 82.6632 94.3144 82.0878 92.3162C81.5124 90.318 81.5991 88.3384 82.3539 88.1095C81.1659 79.6156 86.5542 73.9922 92.388 74.3572C98.1835 73.9884 103.54 79.542 102.451 87.9487H104.155C105.179 87.9487 106.01 88.7796 106.01 89.8046V93.5164C106.01 94.5414 105.179 95.3724 104.155 95.3724H100.279C98.2766 99.5615 95.4211 101.565 92.388 101.565C89.2453 101.559 86.282 99.4058 84.2715 94.8836ZM99.0266 94.1351H93.6377C93.2961 94.1351 93.0191 94.412 93.0191 94.7537C93.0191 95.0954 93.2961 95.3724 93.6377 95.3724H98.3738C96.746 98.1205 94.6197 99.4368 92.388 99.4368C89.1958 99.4368 86.2264 96.7519 84.6119 91.0357C85.2181 91.5306 85.9975 91.8152 86.8079 91.8275H86.8203L88.0268 91.8152C89.0167 91.7718 89.9446 91.3511 90.5693 90.6583C90.9653 90.2252 91.2187 89.7056 91.3118 89.1674H93.4583C93.5574 89.7489 93.8232 90.2933 94.2503 90.7449C94.8813 91.4192 95.7969 91.809 96.7617 91.8275L97.9805 91.8152C98.797 91.778 99.5767 91.4811 100.177 90.9862C99.8473 92.1623 99.461 93.211 99.0266 94.1351ZM99.6323 89.8479C99.954 89.4952 100.115 89.0746 100.096 88.6477L100.071 87.992C98.3083 87.4538 96.4155 87.429 94.6584 87.9301V87.9487L94.6336 88.6106C94.6089 89.087 94.7883 89.5509 95.1348 89.9221C95.5432 90.3551 96.1431 90.6088 96.7804 90.6212L97.9497 90.6088C98.5992 90.5778 99.2178 90.2995 99.6323 89.8479ZM93.5945 87.0022L93.9286 86.8908H93.9346C96.1554 86.167 98.5931 86.1917 100.82 86.965L100.956 87.0145C100.987 86.6866 101.006 86.3649 101.006 86.0494C100.752 85.969 100.406 85.6535 100.27 84.5462C100.213 84.0843 100.205 83.5814 100.197 83.0787V83.0694C100.194 82.9315 100.192 82.7938 100.189 82.6569C100.182 82.3665 100.171 82.08 100.146 81.8056C99.3293 81.1003 98.0114 80.0672 96.4895 80.0858C96.1014 80.3005 95.7326 80.4355 95.3779 80.5654C94.987 80.7085 94.6134 80.8452 94.2503 81.0756C93.6377 81.4653 91.1571 81.4653 90.5445 81.0756C90.1811 80.8452 89.8075 80.7085 89.4166 80.5654C89.0623 80.4355 88.6934 80.3005 88.305 80.0858C86.7832 80.0672 85.4592 81.1003 84.649 81.8056C84.6119 82.2102 84.6049 82.641 84.598 83.0721V83.0814C84.5898 83.5832 84.5817 84.0852 84.5252 84.5462C84.3829 85.6473 84.0428 85.969 83.7891 86.0494C83.7951 86.3402 83.8075 86.6371 83.8322 86.9403L83.9809 86.8908C86.1956 86.167 88.633 86.1917 90.8602 86.965L91.1819 87.0764L91.2559 87.4104L91.2622 87.4448C91.274 87.5111 91.2873 87.5858 91.2982 87.6647L91.306 87.725L91.3118 87.7816H93.4646C93.477 87.6393 93.4894 87.4908 93.5202 87.3486L93.5945 87.0022ZM89.6785 89.8479C90.0002 89.4952 90.1609 89.0746 90.1425 88.6477L90.1177 87.992C88.3545 87.4538 86.4615 87.429 84.7046 87.9301V87.9487L84.6799 88.6106C84.6551 89.0932 84.8345 89.5509 85.181 89.9221C85.5894 90.3551 86.1833 90.6088 86.8203 90.6212L87.9957 90.6088C88.6454 90.5778 89.2641 90.2995 89.6785 89.8479Z" fill="white"/>
<path fill-rule="evenodd" clip-rule="evenodd" d="M84.7479 109.39C83.8594 110.227 83.8594 111.576 83.8594 114.272V119.04C83.8594 120.837 83.8594 121.736 84.4517 122.295C85.0441 122.853 85.9975 122.853 87.9043 122.853H98.0164C99.9232 122.853 100.877 122.853 101.469 122.295C102.061 121.736 102.061 120.837 102.061 119.04V114.272C102.061 111.576 102.061 110.227 101.173 109.39C100.284 108.552 98.8542 108.552 95.994 108.552H89.9267C87.0665 108.552 85.6365 108.552 84.7479 109.39ZM89.1683 119.993C89.1683 119.598 89.5078 119.278 89.9267 119.278H95.994C96.4129 119.278 96.7524 119.598 96.7524 119.993C96.7524 120.388 96.4129 120.708 95.994 120.708H89.9267C89.5078 120.708 89.1683 120.388 89.1683 119.993Z" fill="white" stroke="#FF8D07" stroke-width="0.700075" stroke-linecap="round"/>
<g filter="url(#filter0_d_9290_954625)">
<rect x="20.0586" y="13.3711" width="37.804" height="37.804" rx="18.902" fill="url(#paint5_linear_9290_954625)"/>
<rect x="20.0586" y="13.3711" width="37.804" height="37.804" rx="18.902" fill="url(#paint6_linear_9290_954625)"/>
</g>
<path d="M49.0279 27.3005C49.0279 23.3004 45.7852 20.0576 41.785 20.0576C39.4641 20.0576 37.3982 21.1522 36.0727 22.8514C41.7261 23.0699 46.2422 27.7221 46.2422 33.429C46.2422 33.552 46.2401 33.6744 46.2359 33.7963L46.6062 33.8954C47.6829 34.1835 48.668 33.1984 48.3799 32.1216L48.238 31.5912C48.1234 31.1627 48.1923 30.71 48.3766 30.3065C48.7948 29.3909 49.0279 28.3729 49.0279 27.3005Z" fill="white"/>
<path fill-rule="evenodd" clip-rule="evenodd" d="M44.5708 33.429C44.5708 38.3523 40.5797 42.3433 35.6565 42.3433C34.2798 42.3433 32.976 42.0312 31.8119 41.474C31.4118 41.2824 30.9586 41.2152 30.5301 41.3298L29.1639 41.6954C28.0871 41.9835 27.1021 40.9984 27.3902 39.9216L27.7557 38.5554C27.8703 38.1269 27.8031 37.6737 27.6116 37.2736C27.0543 36.1096 26.7422 34.8058 26.7422 33.429C26.7422 28.5058 30.7332 24.5148 35.6565 24.5148C40.5797 24.5148 44.5708 28.5058 44.5708 33.429ZM31.7565 34.5433C32.3719 34.5433 32.8708 34.0444 32.8708 33.429C32.8708 32.8136 32.3719 32.3148 31.7565 32.3148C31.1411 32.3148 30.6422 32.8136 30.6422 33.429C30.6422 34.0444 31.1411 34.5433 31.7565 34.5433ZM35.6565 34.5433C36.2719 34.5433 36.7708 34.0444 36.7708 33.429C36.7708 32.8136 36.2719 32.3148 35.6565 32.3148C35.0411 32.3148 34.5422 32.8136 34.5422 33.429C34.5422 34.0444 35.0411 34.5433 35.6565 34.5433ZM39.5565 34.5433C40.1719 34.5433 40.6708 34.0444 40.6708 33.429C40.6708 32.8136 40.1719 32.3148 39.5565 32.3148C38.9411 32.3148 38.4422 32.8136 38.4422 33.429C38.4422 34.0444 38.9411 34.5433 39.5565 34.5433Z" fill="white"/>
<path d="M39.3071 53.9756C39.3071 53.7823 39.1504 53.6255 38.957 53.6255C38.7637 53.6255 38.607 53.7823 38.607 53.9756H39.3071ZM48.7581 74.2778L45.2577 72.2568V76.2987L48.7581 74.2778ZM38.607 53.9756V69.5926H39.3071V53.9756H38.607ZM43.6421 74.6278H45.6077V73.9277H43.6421V74.6278ZM38.607 69.5926C38.607 72.3735 40.8613 74.6278 43.6421 74.6278V73.9277C41.2479 73.9277 39.3071 71.9868 39.3071 69.5926H38.607Z" fill="#E0E4EE"/>
<defs>
<filter id="filter0_d_9290_954625" x="18.5454" y="12.8667" width="42.8487" height="42.8478" filterUnits="userSpaceOnUse" color-interpolation-filters="sRGB">
<feFlood flood-opacity="0" result="BackgroundImageFix"/>
<feColorMatrix in="SourceAlpha" type="matrix" values="0 0 0 0 0 0 0 0 0 0 0 0 0 0 0 0 0 0 127 0" result="hardAlpha"/>
<feOffset dx="1.00881" dy="2.01762"/>
<feGaussianBlur stdDeviation="1.26101"/>
<feComposite in2="hardAlpha" operator="out"/>
<feColorMatrix type="matrix" values="0 0 0 0 0 0 0 0 0 0.175 0 0 0 0 0.4375 0 0 0 0.07 0"/>
<feBlend mode="normal" in2="BackgroundImageFix" result="effect1_dropShadow_9290_954625"/>
<feBlend mode="normal" in="SourceGraphic" in2="effect1_dropShadow_9290_954625" result="shape"/>
</filter>
<linearGradient id="paint0_linear_9290_954625" x1="16.5395" y1="-7.95906" x2="136.552" y2="139.221" gradientUnits="userSpaceOnUse">
<stop stop-color="white"/>
<stop offset="1" stop-color="#E2F1FA"/>
</linearGradient>
<linearGradient id="paint1_linear_9290_954625" x1="-0.928882" y1="-8.67096" x2="125.916" y2="151.299" gradientUnits="userSpaceOnUse">
<stop stop-color="white"/>
<stop offset="1" stop-color="#E2F1FA"/>
</linearGradient>
<linearGradient id="paint2_linear_9290_954625" x1="51.1929" y1="92.998" x2="134.957" y2="92.998" gradientUnits="userSpaceOnUse">
<stop stop-color="#05E0E0"/>
<stop offset="1" stop-color="#02C8C8"/>
</linearGradient>
<linearGradient id="paint3_linear_9290_954625" x1="89.7186" y1="55.5774" x2="112.259" y2="133.753" gradientUnits="userSpaceOnUse">
<stop stop-color="#FFB74B"/>
<stop offset="1" stop-color="#FCCA80"/>
</linearGradient>
<linearGradient id="paint4_linear_9290_954625" x1="56.3221" y1="72.7146" x2="125.899" y2="121.188" gradientUnits="userSpaceOnUse">
<stop stop-color="#FF8D07"/>
<stop offset="1" stop-color="#FFB341"/>
</linearGradient>
<linearGradient id="paint5_linear_9290_954625" x1="66.4784" y1="59.0312" x2="34.9227" y2="28.3613" gradientUnits="userSpaceOnUse">
<stop stop-color="#BFCAEE"/>
<stop offset="1" stop-color="#D3E6F8"/>
</linearGradient>
<linearGradient id="paint6_linear_9290_954625" x1="20.0578" y1="32.2742" x2="57.8609" y2="32.2742" gradientUnits="userSpaceOnUse">
<stop stop-color="#05E0E0"/>
<stop offset="1" stop-color="#02C8C8"/>
</linearGradient>
</defs>
</svg>
