<svg width="32" height="32" viewBox="0 0 32 32" fill="none" xmlns="http://www.w3.org/2000/svg">
<ellipse cx="16" cy="16.001" rx="13" ry="13.001" fill="url(#paint0_linear_17443_4467)"/>
<path d="M14.5129 18.4223C14.5129 17.9724 14.5076 17.5225 14.516 17.0725C14.5185 16.9368 14.4723 16.8592 14.3496 16.7924C13.5494 16.3546 12.7563 15.905 11.9544 15.4706C11.7953 15.3845 11.7393 15.2873 11.7438 15.1138C11.7564 14.6528 11.7526 14.1913 11.7452 13.7303C11.7431 13.6057 11.7897 13.5392 11.8991 13.4798C12.3356 13.2429 12.7689 13.0002 13.1987 12.7521C13.2973 12.6951 13.3693 12.6971 13.4672 12.7518C14.2926 13.2152 15.1221 13.6712 15.9467 14.1357C16.0569 14.1978 16.138 14.1967 16.2475 14.135C17.0724 13.6709 17.902 13.2139 18.7276 12.7511C18.8172 12.7008 18.8854 12.6893 18.9808 12.7443C19.4204 12.9982 19.8639 13.2459 20.3094 13.49C20.4084 13.5443 20.4458 13.6078 20.4447 13.7175C20.4391 14.2069 20.4381 14.6963 20.4451 15.1854C20.4468 15.3089 20.4028 15.3764 20.2926 15.4368C19.4774 15.8837 18.6675 16.3394 17.8523 16.7856C17.7247 16.8555 17.6757 16.9351 17.6767 17.0779C17.683 17.9778 17.6774 18.8776 17.6827 19.7778C17.6834 19.9054 17.647 19.981 17.5278 20.0452C17.0854 20.2831 16.6475 20.5299 16.2125 20.78C16.124 20.8306 16.0597 20.8276 15.9747 20.779C15.5386 20.5302 15.1011 20.2838 14.6601 20.0435C14.5496 19.9834 14.5087 19.9122 14.5108 19.7893C14.5174 19.3333 14.5129 18.8776 14.5129 18.4223Z" fill="white"/>
<path d="M14.5129 18.4223C14.5129 17.9724 14.5076 17.5225 14.516 17.0725C14.5185 16.9368 14.4723 16.8592 14.3496 16.7924C13.5494 16.3546 12.7563 15.905 11.9544 15.4706C11.7953 15.3845 11.7393 15.2873 11.7438 15.1138C11.7564 14.6528 11.7526 14.1913 11.7452 13.7303C11.7431 13.6057 11.7897 13.5392 11.8991 13.4798C12.3356 13.2429 12.7689 13.0002 13.1987 12.7521C13.2973 12.6951 13.3693 12.6971 13.4672 12.7518C14.2926 13.2152 15.1221 13.6712 15.9467 14.1357C16.0569 14.1978 16.138 14.1967 16.2475 14.135C17.0724 13.6709 17.902 13.2139 18.7276 12.7511C18.8172 12.7008 18.8854 12.6893 18.9808 12.7443C19.4204 12.9982 19.8639 13.2459 20.3094 13.49C20.4084 13.5443 20.4458 13.6078 20.4447 13.7175C20.4391 14.2069 20.4381 14.6963 20.4451 15.1854C20.4468 15.3089 20.4028 15.3764 20.2926 15.4368C19.4774 15.8837 18.6675 16.3394 17.8523 16.7856C17.7247 16.8555 17.6757 16.9351 17.6767 17.0779C17.683 17.9778 17.6774 18.8776 17.6827 19.7778C17.6834 19.9054 17.647 19.981 17.5278 20.0452C17.0854 20.2831 16.6475 20.5299 16.2125 20.78C16.124 20.8306 16.0597 20.8276 15.9747 20.779C15.5386 20.5302 15.1011 20.2838 14.6601 20.0435C14.5496 19.9834 14.5087 19.9122 14.5108 19.7893C14.5174 19.3333 14.5129 18.8776 14.5129 18.4223Z" fill="url(#paint1_linear_17443_4467)"/>
<path d="M8.99808 15.126C9.51355 15.4149 10.0039 15.6843 10.4851 15.9675C10.5389 15.9992 10.5662 16.1102 10.5665 16.1845C10.5721 17.0901 10.5732 17.996 10.5669 18.9016C10.5658 19.0319 10.6096 19.1038 10.725 19.1673C11.5401 19.6142 12.3501 20.0695 13.1656 20.5154C13.2926 20.5849 13.3436 20.6608 13.3408 20.805C13.331 21.3163 13.337 21.828 13.337 22.3704C13.0317 22.2013 12.7463 22.0444 12.462 21.8861C11.3478 21.2654 10.234 20.6433 9.11838 20.0246C9.02745 19.9743 8.98793 19.9183 8.98828 19.8133C8.99178 18.2944 8.99073 16.7755 8.99073 15.2566C8.99073 15.2239 8.99423 15.1911 8.99808 15.126Z" fill="white"/>
<path d="M8.99808 15.126C9.51355 15.4149 10.0039 15.6843 10.4851 15.9675C10.5389 15.9992 10.5662 16.1102 10.5665 16.1845C10.5721 17.0901 10.5732 17.996 10.5669 18.9016C10.5658 19.0319 10.6096 19.1038 10.725 19.1673C11.5401 19.6142 12.3501 20.0695 13.1656 20.5154C13.2926 20.5849 13.3436 20.6608 13.3408 20.805C13.331 21.3163 13.337 21.828 13.337 22.3704C13.0317 22.2013 12.7463 22.0444 12.462 21.8861C11.3478 21.2654 10.234 20.6433 9.11838 20.0246C9.02745 19.9743 8.98793 19.9183 8.98828 19.8133C8.99178 18.2944 8.99073 16.7755 8.99073 15.2566C8.99073 15.2239 8.99423 15.1911 8.99808 15.126Z" fill="url(#paint2_linear_17443_4467)"/>
<path d="M23.1901 15.1395C23.1936 15.2047 23.1988 15.2529 23.1988 15.3012C23.1992 16.7971 23.1978 18.2927 23.2016 19.7887C23.202 19.9031 23.1691 19.9706 23.0628 20.0293C21.715 20.7763 20.3696 21.528 19.0236 22.278C18.9792 22.3026 18.932 22.3219 18.8704 22.3512C18.8631 22.3074 18.8533 22.2766 18.8533 22.2459C18.8522 21.7454 18.8561 21.2448 18.8498 20.7446C18.8484 20.6345 18.9022 20.5873 18.99 20.539C19.8185 20.081 20.6438 19.6172 21.4733 19.1616C21.5852 19.1001 21.6227 19.0292 21.622 18.9081C21.6171 18.0028 21.6223 17.0975 21.6164 16.1919C21.6157 16.0563 21.6594 15.978 21.7832 15.9115C22.2102 15.6819 22.6305 15.4406 23.054 15.2043C23.0925 15.1827 23.1341 15.1659 23.1901 15.1395Z" fill="white"/>
<path d="M23.1901 15.1395C23.1936 15.2047 23.1988 15.2529 23.1988 15.3012C23.1992 16.7971 23.1978 18.2927 23.2016 19.7887C23.202 19.9031 23.1691 19.9706 23.0628 20.0293C21.715 20.7763 20.3696 21.528 19.0236 22.278C18.9792 22.3026 18.932 22.3219 18.8704 22.3512C18.8631 22.3074 18.8533 22.2766 18.8533 22.2459C18.8522 21.7454 18.8561 21.2448 18.8498 20.7446C18.8484 20.6345 18.9022 20.5873 18.99 20.539C19.8185 20.081 20.6438 19.6172 21.4733 19.1616C21.5852 19.1001 21.6227 19.0292 21.622 18.9081C21.6171 18.0028 21.6223 17.0975 21.6164 16.1919C21.6157 16.0563 21.6594 15.978 21.7832 15.9115C22.2102 15.6819 22.6305 15.4406 23.054 15.2043C23.0925 15.1827 23.1341 15.1659 23.1901 15.1395Z" fill="url(#paint3_linear_17443_4467)"/>
<path d="M20.411 10.4975C19.9039 10.7807 19.4181 11.0565 18.925 11.3197C18.8743 11.3467 18.7694 11.314 18.7072 11.2796C17.8927 10.8323 17.0799 10.3828 16.2714 9.92574C16.1448 9.85418 16.0518 9.85013 15.9238 9.92236C15.1153 10.3794 14.3004 10.8259 13.4912 11.2823C13.3754 11.3474 13.2883 11.3491 13.1733 11.2823C12.7197 11.0197 12.2605 10.7665 11.7744 10.4935C11.843 10.4503 11.8909 10.4165 11.9419 10.3882C13.2775 9.64322 14.6127 8.89762 15.9514 8.15842C16.0186 8.12129 16.1399 8.1061 16.2011 8.13986C17.5811 8.8993 18.9562 9.66719 20.3316 10.4341C20.3512 10.4449 20.3669 10.4621 20.411 10.4975Z" fill="white"/>
<path d="M20.411 10.4975C19.9039 10.7807 19.4181 11.0565 18.925 11.3197C18.8743 11.3467 18.7694 11.314 18.7072 11.2796C17.8927 10.8323 17.0799 10.3828 16.2714 9.92574C16.1448 9.85418 16.0518 9.85013 15.9238 9.92236C15.1153 10.3794 14.3004 10.8259 13.4912 11.2823C13.3754 11.3474 13.2883 11.3491 13.1733 11.2823C12.7197 11.0197 12.2605 10.7665 11.7744 10.4935C11.843 10.4503 11.8909 10.4165 11.9419 10.3882C13.2775 9.64322 14.6127 8.89762 15.9514 8.15842C16.0186 8.12129 16.1399 8.1061 16.2011 8.13986C17.5811 8.8993 18.9562 9.66719 20.3316 10.4341C20.3512 10.4449 20.3669 10.4621 20.411 10.4975Z" fill="url(#paint4_linear_17443_4467)"/>
<path d="M20.0387 12.0211C20.551 11.7348 21.0375 11.4608 21.5285 11.1941C21.5718 11.1705 21.6561 11.1789 21.7026 11.2042C22.1737 11.4608 22.6427 11.7213 23.1074 11.9887C23.1546 12.0157 23.1942 12.0953 23.1949 12.1507C23.2015 12.6678 23.2004 13.1849 23.1959 13.702C23.1956 13.7496 23.1679 13.8194 23.1298 13.8414C22.6413 14.1225 22.1489 14.3966 21.6309 14.6872C21.626 14.6062 21.6197 14.5532 21.6197 14.4999C21.619 14.0334 21.6127 13.5666 21.6232 13.1005C21.6264 12.9553 21.5718 12.8777 21.4466 12.8099C21.0354 12.5878 20.6297 12.3562 20.2219 12.1281C20.1681 12.098 20.1153 12.0659 20.0387 12.0211Z" fill="white"/>
<path d="M20.0387 12.0211C20.551 11.7348 21.0375 11.4608 21.5285 11.1941C21.5718 11.1705 21.6561 11.1789 21.7026 11.2042C22.1737 11.4608 22.6427 11.7213 23.1074 11.9887C23.1546 12.0157 23.1942 12.0953 23.1949 12.1507C23.2015 12.6678 23.2004 13.1849 23.1959 13.702C23.1956 13.7496 23.1679 13.8194 23.1298 13.8414C22.6413 14.1225 22.1489 14.3966 21.6309 14.6872C21.626 14.6062 21.6197 14.5532 21.6197 14.4999C21.619 14.0334 21.6127 13.5666 21.6232 13.1005C21.6264 12.9553 21.5718 12.8777 21.4466 12.8099C21.0354 12.5878 20.6297 12.3562 20.2219 12.1281C20.1681 12.098 20.1153 12.0659 20.0387 12.0211Z" fill="url(#paint5_linear_17443_4467)"/>
<path d="M10.5614 14.6873C10.2677 14.5233 9.99802 14.3727 9.72874 14.2219C9.51717 14.1037 9.30244 13.9903 9.09716 13.8627C9.04575 13.8307 8.99644 13.7523 8.99539 13.6946C8.9877 13.1833 8.987 12.6716 8.99574 12.1599C8.99679 12.0974 9.04995 12.0107 9.1059 11.9783C9.55424 11.717 10.0078 11.4639 10.4642 11.2155C10.5198 11.1851 10.6188 11.1719 10.6695 11.1993C11.1566 11.4615 11.6378 11.7342 12.1512 12.0208C12.0774 12.064 12.0271 12.0947 11.9757 12.1238C11.5577 12.358 11.1419 12.595 10.7205 12.8231C10.61 12.8832 10.5663 12.9527 10.5681 13.0759C10.5747 13.5481 10.5709 14.0203 10.5705 14.4926C10.5698 14.5469 10.5653 14.6012 10.5614 14.6873Z" fill="white"/>
<path d="M10.5614 14.6873C10.2677 14.5233 9.99802 14.3727 9.72874 14.2219C9.51717 14.1037 9.30244 13.9903 9.09716 13.8627C9.04575 13.8307 8.99644 13.7523 8.99539 13.6946C8.9877 13.1833 8.987 12.6716 8.99574 12.1599C8.99679 12.0974 9.04995 12.0107 9.1059 11.9783C9.55424 11.717 10.0078 11.4639 10.4642 11.2155C10.5198 11.1851 10.6188 11.1719 10.6695 11.1993C11.1566 11.4615 11.6378 11.7342 12.1512 12.0208C12.0774 12.064 12.0271 12.0947 11.9757 12.1238C11.5577 12.358 11.1419 12.595 10.7205 12.8231C10.61 12.8832 10.5663 12.9527 10.5681 13.0759C10.5747 13.5481 10.5709 14.0203 10.5705 14.4926C10.5698 14.5469 10.5653 14.6012 10.5614 14.6873Z" fill="url(#paint6_linear_17443_4467)"/>
<path d="M14.5141 21.2877C15.0086 21.5641 15.4695 21.8146 15.9217 22.0789C16.05 22.1538 16.1434 22.1514 16.269 22.0782C16.6725 21.8426 17.0834 21.6192 17.4916 21.391C17.5409 21.3633 17.5916 21.338 17.6629 21.3005C17.6696 21.3667 17.678 21.4136 17.678 21.4605C17.679 21.9331 17.6741 22.4056 17.6814 22.8778C17.6832 23.0017 17.6388 23.0695 17.5286 23.1293C17.0922 23.3666 16.6638 23.617 16.2256 23.8509C16.1595 23.886 16.0402 23.8908 15.9755 23.8563C15.5269 23.6177 15.0855 23.3669 14.6449 23.1151C14.5914 23.0844 14.5197 23.0236 14.519 22.9757C14.5109 22.4262 14.5141 21.876 14.5141 21.2877Z" fill="white"/>
<path d="M14.5141 21.2877C15.0086 21.5641 15.4695 21.8146 15.9217 22.0789C16.05 22.1538 16.1434 22.1514 16.269 22.0782C16.6725 21.8426 17.0834 21.6192 17.4916 21.391C17.5409 21.3633 17.5916 21.338 17.6629 21.3005C17.6696 21.3667 17.678 21.4136 17.678 21.4605C17.679 21.9331 17.6741 22.4056 17.6814 22.8778C17.6832 23.0017 17.6388 23.0695 17.5286 23.1293C17.0922 23.3666 16.6638 23.617 16.2256 23.8509C16.1595 23.886 16.0402 23.8908 15.9755 23.8563C15.5269 23.6177 15.0855 23.3669 14.6449 23.1151C14.5914 23.0844 14.5197 23.0236 14.519 22.9757C14.5109 22.4262 14.5141 21.876 14.5141 21.2877Z" fill="url(#paint7_linear_17443_4467)"/>
<path d="M14.5258 12.0234C15.0396 11.7355 15.5215 11.4631 16.0076 11.1978C16.0527 11.1732 16.1377 11.1735 16.1831 11.1981C16.6689 11.4634 17.1504 11.7358 17.653 12.0173C17.5988 12.0524 17.5599 12.0804 17.5183 12.1037C17.091 12.3447 16.6619 12.5827 16.2363 12.8267C16.1418 12.8811 16.0677 12.8919 15.9666 12.8338C15.4977 12.5638 15.0238 12.3022 14.5258 12.0234Z" fill="white"/>
<path d="M14.5258 12.0234C15.0396 11.7355 15.5215 11.4631 16.0076 11.1978C16.0527 11.1732 16.1377 11.1735 16.1831 11.1981C16.6689 11.4634 17.1504 11.7358 17.653 12.0173C17.5988 12.0524 17.5599 12.0804 17.5183 12.1037C17.091 12.3447 16.6619 12.5827 16.2363 12.8267C16.1418 12.8811 16.0677 12.8919 15.9666 12.8338C15.4977 12.5638 15.0238 12.3022 14.5258 12.0234Z" fill="url(#paint8_linear_17443_4467)"/>
<path d="M11.7497 16.6642C12.2697 16.9558 12.7527 17.2255 13.2328 17.4989C13.2668 17.5181 13.3028 17.5671 13.3031 17.6022C13.3077 18.152 13.3063 18.7019 13.3063 19.2868C13.1356 19.194 12.9908 19.1167 12.8474 19.0364C12.5201 18.8534 12.1924 18.6712 11.8679 18.4831C11.8189 18.4548 11.7553 18.3978 11.7546 18.3532C11.7469 17.804 11.7497 17.2542 11.7497 16.6642Z" fill="white"/>
<path d="M11.7497 16.6642C12.2697 16.9558 12.7527 17.2255 13.2328 17.4989C13.2668 17.5181 13.3028 17.5671 13.3031 17.6022C13.3077 18.152 13.3063 18.7019 13.3063 19.2868C13.1356 19.194 12.9908 19.1167 12.8474 19.0364C12.5201 18.8534 12.1924 18.6712 11.8679 18.4831C11.8189 18.4548 11.7553 18.3978 11.7546 18.3532C11.7469 17.804 11.7497 17.2542 11.7497 16.6642Z" fill="url(#paint9_linear_17443_4467)"/>
<path d="M20.4412 16.6757C20.4412 17.2535 20.4429 17.798 20.438 18.3424C20.4377 18.3833 20.401 18.4403 20.3639 18.4612C19.8925 18.7286 19.4183 18.9912 18.9441 19.2541C18.9353 19.2588 18.922 19.2558 18.8951 19.2575C18.8909 19.2106 18.8829 19.163 18.8829 19.1154C18.8818 18.6432 18.8853 18.1713 18.8801 17.6991C18.8787 17.5853 18.9115 17.5148 19.0193 17.4567C19.4403 17.2289 19.8558 16.9909 20.2737 16.7577C20.3177 16.7334 20.3643 16.7132 20.4412 16.6757Z" fill="white"/>
<path d="M20.4412 16.6757C20.4412 17.2535 20.4429 17.798 20.438 18.3424C20.4377 18.3833 20.401 18.4403 20.3639 18.4612C19.8925 18.7286 19.4183 18.9912 18.9441 19.2541C18.9353 19.2588 18.922 19.2558 18.8951 19.2575C18.8909 19.2106 18.8829 19.163 18.8829 19.1154C18.8818 18.6432 18.8853 18.1713 18.8801 17.6991C18.8787 17.5853 18.9115 17.5148 19.0193 17.4567C19.4403 17.2289 19.8558 16.9909 20.2737 16.7577C20.3177 16.7334 20.3643 16.7132 20.4412 16.6757Z" fill="url(#paint10_linear_17443_4467)"/>
<path d="M29 16.001C29 23.1812 23.1797 29.0019 16 29.0019C8.8203 29.0019 3 23.1812 3 16.001C3 8.82073 8.8203 3 16 3C23.1797 3 29 8.82073 29 16.001ZM4.68812 16.001C4.68812 22.2488 9.75262 27.3137 16 27.3137C22.2474 27.3137 27.3119 22.2488 27.3119 16.001C27.3119 9.75312 22.2474 4.68825 16 4.68825C9.75262 4.68825 4.68812 9.75312 4.68812 16.001Z" fill="#EE5B09"/>
<defs>
<linearGradient id="paint0_linear_17443_4467" x1="7.33333" y1="7.33365" x2="24.6681" y2="27.0308" gradientUnits="userSpaceOnUse">
<stop stop-color="#FF8311"/>
<stop offset="1" stop-color="#FFBC11"/>
</linearGradient>
<linearGradient id="paint1_linear_17443_4467" x1="20.9204" y1="22.8768" x2="9.77167" y2="14.8312" gradientUnits="userSpaceOnUse">
<stop stop-color="#FFEED5"/>
<stop offset="1" stop-color="white"/>
</linearGradient>
<linearGradient id="paint2_linear_17443_4467" x1="20.9204" y1="22.8768" x2="9.77167" y2="14.8312" gradientUnits="userSpaceOnUse">
<stop stop-color="#FFEED5"/>
<stop offset="1" stop-color="white"/>
</linearGradient>
<linearGradient id="paint3_linear_17443_4467" x1="20.9204" y1="22.8768" x2="9.77167" y2="14.8312" gradientUnits="userSpaceOnUse">
<stop stop-color="#FFEED5"/>
<stop offset="1" stop-color="white"/>
</linearGradient>
<linearGradient id="paint4_linear_17443_4467" x1="20.9204" y1="22.8768" x2="9.77167" y2="14.8312" gradientUnits="userSpaceOnUse">
<stop stop-color="#FFEED5"/>
<stop offset="1" stop-color="white"/>
</linearGradient>
<linearGradient id="paint5_linear_17443_4467" x1="20.9204" y1="22.8768" x2="9.77167" y2="14.8312" gradientUnits="userSpaceOnUse">
<stop stop-color="#FFEED5"/>
<stop offset="1" stop-color="white"/>
</linearGradient>
<linearGradient id="paint6_linear_17443_4467" x1="20.9204" y1="22.8768" x2="9.77167" y2="14.8312" gradientUnits="userSpaceOnUse">
<stop stop-color="#FFEED5"/>
<stop offset="1" stop-color="white"/>
</linearGradient>
<linearGradient id="paint7_linear_17443_4467" x1="20.9204" y1="22.8768" x2="9.77167" y2="14.8312" gradientUnits="userSpaceOnUse">
<stop stop-color="#FFEED5"/>
<stop offset="1" stop-color="white"/>
</linearGradient>
<linearGradient id="paint8_linear_17443_4467" x1="20.9204" y1="22.8768" x2="9.77167" y2="14.8312" gradientUnits="userSpaceOnUse">
<stop stop-color="#FFEED5"/>
<stop offset="1" stop-color="white"/>
</linearGradient>
<linearGradient id="paint9_linear_17443_4467" x1="20.9204" y1="22.8768" x2="9.77167" y2="14.8312" gradientUnits="userSpaceOnUse">
<stop stop-color="#FFEED5"/>
<stop offset="1" stop-color="white"/>
</linearGradient>
<linearGradient id="paint10_linear_17443_4467" x1="20.9204" y1="22.8768" x2="9.77167" y2="14.8312" gradientUnits="userSpaceOnUse">
<stop stop-color="#FFEED5"/>
<stop offset="1" stop-color="white"/>
</linearGradient>
</defs>
</svg>
