<svg width="32" height="32" viewBox="0 0 32 32" fill="none" xmlns="http://www.w3.org/2000/svg">
<path d="M28.6 15.8C28.6 22.8692 22.8692 28.6 15.8 28.6C8.73075 28.6 3 22.8692 3 15.8C3 8.73076 8.73075 3 15.8 3C22.8692 3 28.6 8.73076 28.6 15.8Z" fill="url(#paint0_linear_19544_350293)"/>
<path d="M28.6 15.8C28.6 22.8692 22.8692 28.6 15.8 28.6C8.73075 28.6 3 22.8692 3 15.8C3 8.73076 8.73075 3 15.8 3C22.8692 3 28.6 8.73076 28.6 15.8ZM4.66215 15.8C4.66215 21.9513 9.64874 26.9379 15.8 26.9379C21.9513 26.9379 26.9379 21.9513 26.9379 15.8C26.9379 9.64873 21.9513 4.66215 15.8 4.66215C9.64874 4.66215 4.66215 9.64873 4.66215 15.8Z" fill="#EE5B09"/>
<path d="M20.0271 22.8512H14.4667L8.90625 15.634L14.1102 8.45117H19.7063L14.4667 15.634L20.0271 22.8512Z" fill="url(#paint1_linear_19544_350293)"/>
<path d="M23.3063 13.2626H18.4587V18.0054H23.3063V13.2626Z" fill="white"/>
<defs>
<linearGradient id="paint0_linear_19544_350293" x1="6.87879" y1="4.55151" x2="25.497" y2="28.6" gradientUnits="userSpaceOnUse">
<stop offset="0.0677083" stop-color="#FF8311"/>
<stop offset="1" stop-color="#FFBC11"/>
</linearGradient>
<linearGradient id="paint1_linear_19544_350293" x1="16.1063" y1="8.45117" x2="16.1063" y2="22.8512" gradientUnits="userSpaceOnUse">
<stop stop-color="white"/>
<stop offset="0.5" stop-color="white"/>
<stop offset="0.5001" stop-color="#FFF1E6"/>
<stop offset="1" stop-color="#FFF1E6"/>
</linearGradient>
</defs>
</svg>
