<svg width="32" height="32" viewBox="0 0 32 32" fill="none" xmlns="http://www.w3.org/2000/svg">
<path d="M29 16.001C29 23.1812 23.1797 29.0019 16 29.0019C8.8203 29.0019 3 23.1812 3 16.001C3 8.82073 8.8203 3 16 3C23.1797 3 29 8.82073 29 16.001Z" fill="url(#paint0_linear_17443_4461)"/>
<path d="M17.4742 15.7096C17.5298 15.7379 17.57 15.7563 17.6084 15.7782C18.0905 16.0523 18.572 16.3275 19.0546 16.601C19.2337 16.7025 19.1895 16.6917 19.3468 16.6024C20.1405 16.1519 20.9333 15.6997 21.7275 15.2501C21.7867 15.2166 21.8112 15.1784 21.8111 15.11C21.8092 14.1853 21.8093 13.2605 21.811 12.3357C21.8111 12.2731 21.7929 12.2344 21.7358 12.202C20.9174 11.7382 20.0998 11.2727 19.2834 10.8057C19.2236 10.7716 19.1791 10.774 19.1198 10.8079C18.3646 11.2408 17.608 11.6711 16.8516 12.1021C16.7876 12.1386 16.7245 12.1767 16.6595 12.2115C16.6174 12.234 16.5986 12.2664 16.6003 12.3129C16.6015 12.3476 16.6002 12.3825 16.6002 12.4172C16.6004 14.8821 16.6002 17.3471 16.6014 19.812C16.6014 19.9888 16.5649 20.1528 16.4412 20.2841C16.38 20.3491 16.3054 20.406 16.2276 20.451C15.7961 20.7003 15.3617 20.9448 14.9283 21.191C14.1531 21.6315 13.3776 22.0715 12.6031 22.5131C12.473 22.5873 12.3414 22.6417 12.1856 22.6383C12.0531 22.6353 11.938 22.5942 11.8268 22.5308C11.4455 22.3137 11.0641 22.0967 10.6827 21.8799C9.86506 21.4148 9.0473 20.9497 8.22964 20.4846C8.19307 20.4637 8.15596 20.4435 8.12055 20.4208C7.91643 20.2904 7.8122 20.1029 7.79899 19.8649C7.79666 19.8233 7.79835 19.7815 7.79835 19.7397C7.79856 18.3837 7.8011 17.0278 7.79729 15.6719C7.79645 15.3633 7.92171 15.1456 8.19497 14.9916C9.36918 14.3296 10.5396 13.661 11.7114 12.9949C11.7693 12.962 11.8269 12.9282 11.8861 12.8975C12.0998 12.7871 12.3155 12.7919 12.5225 12.908C12.9695 13.1587 13.4121 13.4171 13.8588 13.6682C13.932 13.7093 13.9364 13.7663 13.9363 13.8346C13.9357 14.4256 13.9362 15.0167 13.9358 15.6077C13.9358 15.6449 13.9311 15.6823 13.9273 15.7392C13.8771 15.7166 13.8395 15.7031 13.8052 15.6838C13.4474 15.4822 13.0901 15.2797 12.7327 15.0774C12.5769 14.9891 12.4203 14.9023 12.2662 14.8113C12.2089 14.7775 12.1641 14.7756 12.1028 14.8108C11.3323 15.2522 10.5598 15.6904 9.78778 16.1293C9.73895 16.1571 9.69074 16.1859 9.64127 16.2125C9.60026 16.2347 9.57785 16.2655 9.58059 16.313C9.58197 16.3372 9.58038 16.3616 9.58038 16.386C9.58038 17.2829 9.58207 18.1799 9.57806 19.0769C9.57763 19.1773 9.61062 19.2321 9.69835 19.2815C10.4784 19.7207 11.2556 20.1645 12.0339 20.6068C12.0552 20.6189 12.0785 20.6285 12.0977 20.6432C12.1566 20.6882 12.2087 20.6784 12.2714 20.6426C13.0849 20.1773 13.8995 19.7138 14.7155 19.2526C14.7784 19.2171 14.792 19.1744 14.7919 19.1095C14.7902 18.3934 14.791 17.6772 14.791 16.9609C14.791 15.1844 14.7921 13.4078 14.7899 11.6312C14.7896 11.3535 14.9084 11.1537 15.1497 11.0168C16.3738 10.3219 17.5977 9.6265 18.8208 8.92984C19.0659 8.79018 19.3062 8.78987 19.5509 8.92911C20.7713 9.62347 21.992 10.3172 23.2135 11.0097C23.3904 11.11 23.5139 11.2491 23.5644 11.4452C23.5781 11.4982 23.5819 11.5549 23.5819 11.61C23.5828 13.0284 23.5825 14.4469 23.5828 15.8654C23.5828 16.1213 23.4677 16.3118 23.2463 16.4399C23.0093 16.577 22.7704 16.7108 22.5324 16.8462C21.5407 17.41 20.5488 17.9736 19.5571 18.5376C19.3266 18.6687 19.0935 18.6702 18.8643 18.5413C18.4268 18.2951 17.993 18.0429 17.5558 17.7961C17.4862 17.7569 17.4577 17.7102 17.458 17.6302C17.4605 17.0322 17.4588 16.4342 17.4594 15.8362C17.4594 15.8001 17.4677 15.7639 17.4742 15.7096Z" fill="white"/>
<path d="M29 16.001C29 23.1812 23.1797 29.0019 16 29.0019C8.8203 29.0019 3 23.1812 3 16.001C3 8.82073 8.8203 3 16 3C23.1797 3 29 8.82073 29 16.001ZM4.68812 16.001C4.68812 22.2488 9.75262 27.3137 16 27.3137C22.2474 27.3137 27.3119 22.2488 27.3119 16.001C27.3119 9.75312 22.2474 4.68825 16 4.68825C9.75262 4.68825 4.68812 9.75312 4.68812 16.001Z" fill="#542F94"/>
<defs>
<linearGradient id="paint0_linear_17443_4461" x1="8.51515" y1="4.57587" x2="43.1842" y2="36.8787" gradientUnits="userSpaceOnUse">
<stop stop-color="#8247E5"/>
<stop offset="1" stop-color="#47E573"/>
</linearGradient>
</defs>
</svg>
