<svg width="32" height="32" viewBox="0 0 32 32" fill="none" xmlns="http://www.w3.org/2000/svg">
<path d="M29 15.9991C29 23.1783 23.1797 28.9982 16 28.9982C8.8203 28.9982 3 23.1783 3 15.9991C3 8.81989 8.8203 3 16 3C23.1797 3 29 8.81989 29 15.9991Z" fill="url(#paint0_linear_17443_4476)"/>
<path d="M29 15.9991C29 23.1783 23.1797 28.9982 16 28.9982C8.8203 28.9982 3 23.1783 3 15.9991C3 8.81989 8.8203 3 16 3C23.1797 3 29 8.81989 29 15.9991ZM4.68812 15.9991C4.68812 22.246 9.75262 27.3102 16 27.3102C22.2474 27.3102 27.3119 22.246 27.3119 15.9991C27.3119 9.75215 22.2474 4.688 16 4.688C9.75262 4.688 4.68812 9.75215 4.68812 15.9991Z" fill="#A60000"/>
<path d="M16.7742 15.0856L21.1651 11.2982L23.6247 13.6505L16.7742 15.0867V15.0856ZM24 14.2163L16.5529 15.5682L15.4087 25.0459L24 14.2175V14.2163ZM20.7544 11.0152L8.97004 8.9082L16.2517 14.7719L20.7522 11.0141L20.7544 11.0152ZM15.9962 15.4758L8.60156 9.33828L14.8463 25.0447L15.995 15.4746L15.9962 15.4758Z" fill="white"/>
<defs>
<linearGradient id="paint0_linear_17443_4476" x1="6.93939" y1="4.57565" x2="25.8468" y2="28.9995" gradientUnits="userSpaceOnUse">
<stop offset="0.0677083" stop-color="#EA0000"/>
<stop offset="1" stop-color="#FFA724"/>
</linearGradient>
</defs>
</svg>
