<svg width="120" height="121" viewBox="0 0 120 121" fill="none" xmlns="http://www.w3.org/2000/svg">
<path d="M85 20.5H35C20 20.5 10 28 10 45.5V63.3C10 65.15 11.9 66.3 13.55 65.55C18.45 63.3 24.1 62.45 30.05 63.5C43.2 65.85 52.85 78.05 52.5 91.4C52.45 93.5 52.15 95.55 51.6 97.55C51.2 99.1 52.45 100.55 54.05 100.55H85C100 100.55 110 93.05 110 75.55V45.5C110 28 100 20.5 85 20.5ZM60 73C53.1 73 47.5 67.4 47.5 60.5C47.5 53.6 53.1 48 60 48C66.9 48 72.5 53.6 72.5 60.5C72.5 67.4 66.9 73 60 73ZM96.25 70.5C96.25 72.55 94.55 74.25 92.5 74.25C90.45 74.25 88.75 72.55 88.75 70.5V50.5C88.75 48.45 90.45 46.75 92.5 46.75C94.55 46.75 96.25 48.45 96.25 50.5V70.5Z" fill="#EE543E"/>
<path d="M25 70.5C19 70.5 13.65 73.15 10 77.3C6.9 80.85 5 85.45 5 90.5C5 94.25 6.05 97.8 7.9 100.8C11.35 106.6 17.7 110.5 25 110.5C30.05 110.5 34.65 108.65 38.15 105.5C39.7 104.2 41.05 102.6 42.1 100.8C43.95 97.8 45 94.25 45 90.5C45 79.45 36.05 70.5 25 70.5ZM33 98.4C32.25 99.15 31.3 99.5 30.35 99.5C29.4 99.5 28.45 99.15 27.7 98.4L25.05 95.75L22.3 98.5C21.55 99.25 20.6 99.6 19.65 99.6C18.7 99.6 17.75 99.25 17 98.5C15.55 97.05 15.55 94.65 17 93.2L19.75 90.45L17.1 87.8C15.65 86.35 15.65 83.95 17.1 82.5C18.55 81.05 20.95 81.05 22.4 82.5L25.05 85.15L27.55 82.65C29 81.2 31.4 81.2 32.85 82.65C34.3 84.1 34.3 86.5 32.85 87.95L30.35 90.45L33 93.1C34.45 94.55 34.45 96.9 33 98.4Z" fill="#EE543E"/>
</svg>
