<svg width="120" height="121" viewBox="0 0 120 121" fill="none" xmlns="http://www.w3.org/2000/svg">
<path d="M60 79V79.55C60 80.95 58.9 82.05 57.5 82.05H12.5C11.1 82.05 10 80.95 10 79.55V79C10 70.2 12.2 68 21.1 68H48.9C57.8 68 60 70.2 60 79Z" fill="#FDC436"/>
<path d="M12.5 87.0508C11.1 87.0508 10 88.1508 10 89.5508V94.5508V99.5008C10 108.301 12.2 110.501 21.1 110.501H48.9C57.8 110.501 60 108.301 60 99.5008V94.5508V89.5508C60 88.1508 58.9 87.0508 57.5 87.0508H12.5Z" fill="#FDC436"/>
<path d="M110 75.5C110 94.85 94.35 110.5 75 110.5L80.25 101.75" stroke="#FDC436" stroke-width="5" stroke-linecap="round" stroke-linejoin="round"/>
<path d="M10 45.5C10 26.15 25.65 10.5 45 10.5L39.75 19.25" stroke="#FDC436" stroke-width="5" stroke-linecap="round" stroke-linejoin="round"/>
<path d="M92.5 55.5C104.926 55.5 115 45.4264 115 33C115 20.5736 104.926 10.5 92.5 10.5C80.0736 10.5 70 20.5736 70 33C70 45.4264 80.0736 55.5 92.5 55.5Z" fill="#FDC436"/>
</svg>
