<svg width="120" height="121" viewBox="0 0 120 121" fill="none" xmlns="http://www.w3.org/2000/svg">
<path d="M99.85 44.25H85.15C78.8 44.25 75 40.45 75 34.1V19.4C75 13.05 78.8 9.25 85.15 9.25H99.85C106.2 9.25 110 13.05 110 19.4V34.1C110 40.45 106.2 44.25 99.85 44.25ZM100.95 27.7C100.35 27.1 99.55 26.8 98.75 26.8C97.95 26.8 97.15 27.1 96.55 27.7L95.65 28.6V17.4C95.65 15.65 94.25 14.25 92.5 14.25C90.75 14.25 89.35 15.65 89.35 17.4V28.6L88.45 27.7C87.25 26.5 85.25 26.5 84.05 27.7C82.85 28.9 82.85 30.9 84.05 32.1L90.3 38.35C90.55 38.6 90.9 38.8 91.25 38.95C91.35 39 91.45 39 91.55 39.05C91.8 39.15 92.05 39.2 92.35 39.2C92.45 39.2 92.55 39.2 92.65 39.2C93 39.2 93.3 39.15 93.65 39C93.7 39 93.7 39 93.75 39C94.1 38.85 94.4 38.65 94.65 38.4C94.7 38.35 94.7 38.35 94.75 38.35L101 32.1C102.2 30.9 102.2 28.9 100.95 27.7Z" fill="#03A66D"/>
<path d="M10 57.8V82.8C10 94.25 19.25 103.5 30.7 103.5H89.25C100.7 103.5 110 94.2 110 82.75V57.8C110 54.45 107.3 51.75 103.95 51.75H16.05C12.7 51.75 10 54.45 10 57.8ZM40 86.75H30C27.95 86.75 26.25 85.05 26.25 83C26.25 80.95 27.95 79.25 30 79.25H40C42.05 79.25 43.75 80.95 43.75 83C43.75 85.05 42.05 86.75 40 86.75ZM72.5 86.75H52.5C50.45 86.75 48.75 85.05 48.75 83C48.75 80.95 50.45 79.25 52.5 79.25H72.5C74.55 79.25 76.25 80.95 76.25 83C76.25 85.05 74.55 86.75 72.5 86.75Z" fill="#03A66D"/>
<path d="M67.5 23.55V38.2C67.5 41.55 64.8 44.25 61.45 44.25H16.05C12.65 44.25 10 41.45 10 38.1C10.05 32.45 12.3 27.3 16.05 23.55C19.8 19.8 25 17.5 30.7 17.5H61.45C64.8 17.5 67.5 20.2 67.5 23.55Z" fill="#03A66D"/>
</svg>
