<svg width="80" height="80" viewBox="0 0 80 80" fill="none" xmlns="http://www.w3.org/2000/svg">
<path d="M40.0009 14.8387C37.8073 14.8387 36.1299 13.1613 36.1299 10.9677V3.87097C36.1299 1.67742 37.8073 0 40.0009 0C42.1944 0 43.8718 1.67742 43.8718 3.87097V10.9677C43.8718 13.0323 42.1944 14.8387 40.0009 14.8387Z" fill="#FEF69F"/>
<path d="M40.0009 79.9989C37.8073 79.9989 36.1299 78.3214 36.1299 76.1279V69.0311C36.1299 66.8376 37.8073 65.1602 40.0009 65.1602C42.1944 65.1602 43.8718 66.8376 43.8718 69.0311V76.1279C43.8718 78.3214 42.1944 79.9989 40.0009 79.9989Z" fill="#F68420"/>
<path d="M25.4192 18.7087C24.1289 18.7087 22.8386 18.0636 22.0644 16.7733L18.5805 10.7087C17.5483 8.9023 18.1934 6.45068 19.9999 5.41842C21.8063 4.38617 24.258 5.03133 25.2902 6.83778L28.7741 12.9023C29.8063 14.7087 29.1612 17.1604 27.3547 18.1926C26.8386 18.4507 26.0644 18.7087 25.4192 18.7087Z" fill="#FFFAC6"/>
<path d="M58.0638 75.0974C56.7735 75.0974 55.4831 74.4523 54.7089 73.1619L51.2251 67.0974C50.1928 65.291 50.838 62.8394 52.6444 61.8071C54.4509 60.7748 56.9025 61.42 57.9347 63.2264L61.4186 69.291C62.4509 71.0974 61.8057 73.549 59.9993 74.5813C59.3541 74.9684 58.7089 75.0974 58.0638 75.0974Z" fill="#FAAC2E"/>
<path d="M14.8388 29.2902C14.1936 29.2902 13.5484 29.1612 12.9033 28.7741L6.83876 25.2902C5.0323 24.258 4.38714 21.8063 5.4194 19.9999C6.45166 18.1934 8.90327 17.5483 10.7097 18.5805L16.7742 22.0644C18.5807 23.0967 19.2259 25.5483 18.1936 27.3547C17.4194 28.6451 16.1291 29.2902 14.8388 29.2902Z" fill="#FFFAC6"/>
<path d="M71.3545 61.9347C70.7093 61.9347 70.0642 61.8057 69.419 61.4186L63.2255 57.9347C61.419 56.9025 60.7739 54.4509 61.8061 52.6444C62.8384 50.838 65.29 50.1928 67.0964 51.2251L73.161 54.7089C74.9674 55.7412 75.6126 58.1928 74.5803 59.9993C73.9351 61.2896 72.6448 61.9347 71.3545 61.9347Z" fill="#FFDC3F"/>
<path d="M10.9677 43.8708H3.87097C1.67742 43.8708 0 42.1934 0 39.9999C0 37.8063 1.67742 36.1289 3.87097 36.1289H10.9677C13.1613 36.1289 14.8387 37.8063 14.8387 39.9999C14.8387 42.1934 13.0323 43.8708 10.9677 43.8708Z" fill="#FFFEE8"/>
<path d="M76.1289 43.8708H69.0321C66.8386 43.8708 65.1611 42.1934 65.1611 39.9999C65.1611 37.8063 66.8386 36.1289 69.0321 36.1289H76.1289C78.3224 36.1289 79.9998 37.8063 79.9998 39.9999C79.9998 42.1934 78.3224 43.8708 76.1289 43.8708Z" fill="#FFDC3F"/>
<path d="M8.64533 61.9347C7.35501 61.9347 6.06469 61.2896 5.29049 59.9993C4.25824 58.1928 4.9034 55.7412 6.70985 54.7089L12.7744 51.2251C14.5808 50.1928 17.0324 50.838 18.0647 52.6444C19.0969 54.4509 18.4518 56.9025 16.6453 57.9347L10.5808 61.4186C10.0647 61.8057 9.41953 61.9347 8.64533 61.9347Z" fill="#FDC436"/>
<path d="M65.161 29.2902C63.8706 29.2902 62.5803 28.6451 61.8061 27.3547C60.7739 25.5483 61.419 23.0967 63.2255 22.0644L69.29 18.5805C71.0964 17.5483 73.5481 18.1934 74.5803 19.9999C75.6126 21.8063 74.9674 24.258 73.161 25.2902L67.0964 28.7741C66.4513 29.1612 65.8061 29.2902 65.161 29.2902Z" fill="#FFDC3F"/>
<path d="M21.9354 75.0974C21.2902 75.0974 20.6451 74.9684 19.9999 74.5813C18.1934 73.549 17.5483 71.0974 18.5805 69.291L22.0644 63.2264C23.0967 61.42 25.5483 60.7748 27.3547 61.8071C29.1612 62.8394 29.8063 65.291 28.7741 67.0974L25.2902 73.1619C24.516 74.4523 23.2257 75.0974 21.9354 75.0974Z" fill="#F68420"/>
<path d="M54.5799 18.7087C53.9347 18.7087 53.2896 18.5797 52.6444 18.1926C50.838 17.1604 50.1928 14.7087 51.2251 12.9023L54.7089 6.83778C55.7412 5.03133 58.1928 4.38617 59.9993 5.41842C61.8057 6.45068 62.4509 8.9023 61.4186 10.7087L57.9347 16.7733C57.1606 17.9346 55.8702 18.7087 54.5799 18.7087Z" fill="#FBEC5A"/>
</svg>
