<svg width="120" height="120" viewBox="0 0 120 120" fill="none" xmlns="http://www.w3.org/2000/svg">
<path d="M10 57.3V82.3C10 93.75 19.25 103 30.7 103H89.25C100.7 103 110 93.7 110 82.25V57.3C110 53.95 107.3 51.25 103.95 51.25H16.05C12.7 51.25 10 53.95 10 57.3ZM40 86.25H30C27.95 86.25 26.25 84.55 26.25 82.5C26.25 80.45 27.95 78.75 30 78.75H40C42.05 78.75 43.75 80.45 43.75 82.5C43.75 84.55 42.05 86.25 40 86.25ZM72.5 86.25H52.5C50.45 86.25 48.75 84.55 48.75 82.5C48.75 80.45 50.45 78.75 52.5 78.75H72.5C74.55 78.75 76.25 80.45 76.25 82.5C76.25 84.55 74.55 86.25 72.5 86.25Z" fill="#EE543E"/>
<path d="M67.5 23.05V37.7C67.5 41.05 64.8 43.75 61.45 43.75H16.05C12.65 43.75 10 40.95 10 37.6C10.05 31.95 12.3 26.8 16.05 23.05C19.8 19.3 25 17 30.7 17H61.45C64.8 17 67.5 19.7 67.5 23.05Z" fill="#EE543E"/>
<path d="M99.85 10H85.15C78.8 10 75 13.8 75 20.15V34.85C75 41.2 78.8 45 85.15 45H99.85C106.2 45 110 41.2 110 34.85V20.15C110 13.8 106.2 10 99.85 10ZM101.7 32.45C102.25 33.1 102.55 33.8 102.55 34.65C102.55 35.35 102.25 36.15 101.7 36.7C100.55 37.85 98.6 37.85 97.45 36.7L92.5 31.75L87.6 36.75C86.45 37.9 84.5 37.9 83.3 36.7C82.15 35.55 82.15 33.6 83.3 32.45L88.3 27.55L83.35 22.6C82.2 21.45 82.15 19.5 83.3 18.3C84.45 17.1 86.4 17.15 87.6 18.35L92.5 23.3L97.5 18.3C98.65 17.15 100.6 17.15 101.75 18.3C102.3 18.95 102.55 19.7 102.6 20.5C102.6 21.2 102.3 22 101.8 22.6L96.8 27.6L101.7 32.45Z" fill="#EE543E"/>
</svg>
