<svg width="28" height="24" viewBox="0 0 28 24" fill="none" xmlns="http://www.w3.org/2000/svg">
<g id="Group 1000002388">
<rect id="Rectangle 39682" width="14.9508" height="9.18517" rx="0.229322" transform="matrix(0.993877 -0.110488 0.110462 0.99388 3.73438 10.6055)" fill="url(#paint0_linear_11056_43320)"/>
<path id="Subtract" fill-rule="evenodd" clip-rule="evenodd" d="M20.322 17.7111C19.9176 17.7825 19.5015 17.8197 19.0766 17.8197C15.2342 17.8197 12.1029 14.7741 11.9649 10.9648H3.12385C2.9972 10.9648 2.89453 11.0675 2.89453 11.1942V23.1196C2.89453 23.2463 2.9972 23.349 3.12385 23.349H20.0927C20.2193 23.349 20.322 23.2463 20.322 23.1196V17.7111Z" fill="url(#paint1_linear_11056_43320)"/>
<g id="Ellipse 2374">
<ellipse cx="18.9264" cy="10.724" rx="6.07097" ry="6.07166" fill="#D9D9D9"/>
<ellipse cx="18.9264" cy="10.724" rx="6.07097" ry="6.07166" fill="url(#paint2_linear_11056_43320)"/>
</g>
<rect id="Rectangle 39681" x="0.402344" y="15.6836" width="7.33788" height="3.66937" rx="0.46898" fill="url(#paint3_linear_11056_43320)"/>
<path id="Subtract_2" d="M27.6034 14.4558C27.6575 17.5159 25.23 19.7248 22.3039 19.7248C22.098 19.7248 21.9246 19.6171 21.8271 19.4555C21.7295 19.2723 21.7295 19.0676 21.8271 18.8952L22.5423 17.7207C22.7049 17.4621 23.0408 17.3759 23.3009 17.5375C23.561 17.6883 23.6369 18.0224 23.4852 18.281L23.3551 18.5072C25.165 18.0331 26.4979 16.4061 26.4979 14.4558C26.4979 14.1541 26.7472 13.9062 27.0506 13.9062C27.3541 13.9062 27.6034 14.1541 27.6034 14.4558Z" fill="url(#paint4_linear_11056_43320)"/>
<path id="Subtract_3" d="M10.7612 5.9924C10.9311 2.9365 13.5139 0.911263 16.4321 1.12551C16.6375 1.14058 16.8025 1.26074 16.8879 1.42908C16.9718 1.6189 16.9568 1.82308 16.8469 1.98788L16.0476 3.10685C15.8666 3.35286 15.5252 3.41423 15.2776 3.23399C15.0293 3.0645 14.9781 2.72581 15.1483 2.47901L15.2946 2.26286C13.4549 2.60318 12.0064 4.12827 11.8636 6.07334C11.8415 6.37423 11.5748 6.60315 11.2722 6.58093C10.9695 6.55871 10.7391 6.2933 10.7612 5.9924Z" fill="url(#paint5_linear_11056_43320)"/>
<path id="Subtract_4" fill-rule="evenodd" clip-rule="evenodd" d="M20.4937 13.9104C20.8002 13.7249 21.04 13.4864 21.2132 13.1949C21.3864 12.8902 21.4797 12.5457 21.4797 12.1614C21.4797 11.6712 21.3464 11.2737 21.0667 10.969C20.8002 10.6643 20.3738 10.439 19.7876 10.2933L18.8016 10.0548C18.4819 9.97531 18.2554 9.86932 18.1221 9.73683C17.9756 9.59108 17.9089 9.40559 17.9089 9.18036C17.9089 8.87562 18.0288 8.62389 18.242 8.43839C18.4685 8.2529 18.775 8.14691 19.1614 8.14691C19.4678 8.14691 19.721 8.18666 19.9475 8.26615C20.1606 8.3324 20.3605 8.42515 20.5337 8.53114C20.6669 8.61064 20.7735 8.65038 20.8668 8.63714C20.9734 8.62389 21.0533 8.58414 21.1199 8.51789C21.1866 8.45164 21.2399 8.37215 21.2665 8.2794C21.2798 8.18666 21.2798 8.08067 21.2532 7.97467C21.2265 7.86868 21.1599 7.77593 21.0667 7.69644C20.8401 7.51094 20.5737 7.35195 20.2672 7.24596C20.0274 7.16646 19.8009 7.11347 19.601 7.08697V6.398C19.601 6.25226 19.5477 6.13302 19.4678 6.04027C19.3745 5.94753 19.268 5.89453 19.148 5.89453C19.0148 5.89453 18.8949 5.94753 18.8149 6.04027C18.735 6.13302 18.695 6.25226 18.695 6.398V7.11347C18.3353 7.15321 18.0288 7.25921 17.7624 7.4182C17.4426 7.60369 17.2028 7.85543 17.0296 8.17341C16.843 8.47814 16.7631 8.83587 16.7631 9.2201C16.7631 9.73683 16.8963 10.1476 17.1761 10.4523C17.4426 10.7703 17.8556 10.9955 18.4019 11.128L19.3745 11.3665C19.601 11.4195 19.8009 11.4857 19.9341 11.5652C20.0674 11.658 20.174 11.7507 20.2406 11.8567C20.2939 11.976 20.3205 12.0952 20.3205 12.2409C20.3205 12.4264 20.2806 12.5854 20.1873 12.7312C20.1073 12.8637 19.9741 12.9697 19.7743 13.0624C19.5877 13.1419 19.3479 13.1816 19.0414 13.1816C18.6551 13.1816 18.322 13.1286 18.0422 13.0359C17.7757 12.9299 17.5492 12.8372 17.376 12.7312C17.2561 12.6517 17.1362 12.6119 17.0429 12.6517C16.9496 12.6649 16.8697 12.7179 16.8031 12.8107C16.7364 12.8902 16.6965 12.9829 16.6832 13.1021C16.6698 13.2081 16.6965 13.3274 16.7364 13.4334C16.7764 13.5394 16.8564 13.6321 16.963 13.7116C17.1895 13.8441 17.4559 13.9766 17.7757 14.0826C18.0555 14.1621 18.3486 14.2283 18.695 14.2548V14.9305C18.695 15.0763 18.735 15.1955 18.8149 15.2883C18.8949 15.381 19.0148 15.434 19.148 15.434C19.2813 15.434 19.3879 15.381 19.4678 15.2883C19.5611 15.1955 19.601 15.0763 19.601 14.9305V14.2151C19.9341 14.1621 20.2273 14.0561 20.4937 13.9104Z" fill="url(#paint6_linear_11056_43320)"/>
</g>
<defs>
<linearGradient id="paint0_linear_11056_43320" x1="-3.22094" y1="-5.07758" x2="1.58075" y2="7.4151" gradientUnits="userSpaceOnUse">
<stop stop-color="#C5CDE4"/>
<stop offset="1" stop-color="#F0F5FF"/>
</linearGradient>
<linearGradient id="paint1_linear_11056_43320" x1="0.683465" y1="24.2939" x2="29.7023" y2="11.1053" gradientUnits="userSpaceOnUse">
<stop stop-color="#05E0E0"/>
<stop offset="1" stop-color="#02C8C8"/>
</linearGradient>
<linearGradient id="paint2_linear_11056_43320" x1="12.4597" y1="6.03908" x2="35.1826" y2="23.9413" gradientUnits="userSpaceOnUse">
<stop stop-color="#F9FBFF"/>
<stop offset="1" stop-color="#E2F1FA"/>
</linearGradient>
<linearGradient id="paint3_linear_11056_43320" x1="1.01383" y1="15.4543" x2="8.55995" y2="18.0625" gradientUnits="userSpaceOnUse">
<stop stop-color="#00C2C2"/>
<stop offset="1" stop-color="#00CCCC"/>
</linearGradient>
<linearGradient id="paint4_linear_11056_43320" x1="6.36365" y1="20.7927" x2="31.1783" y2="12.7327" gradientUnits="userSpaceOnUse">
<stop stop-color="#05E0E0"/>
<stop offset="1" stop-color="#02C8C8"/>
</linearGradient>
<linearGradient id="paint5_linear_11056_43320" x1="32.4077" y1="1.2276" x2="7.06972" y2="7.4495" gradientUnits="userSpaceOnUse">
<stop stop-color="#05E0E0"/>
<stop offset="1" stop-color="#02C8C8"/>
</linearGradient>
<linearGradient id="paint6_linear_11056_43320" x1="15.9212" y1="6.0586" x2="25.1812" y2="10.8521" gradientUnits="userSpaceOnUse">
<stop stop-color="#FFAC4B"/>
<stop offset="1" stop-color="#FCCA80"/>
</linearGradient>
</defs>
</svg>
