<svg width="23" height="24" viewBox="0 0 23 24" fill="none" xmlns="http://www.w3.org/2000/svg">
<g id="Group icon">
<path id="Vector" d="M7.82595 18.7049C7.65374 18.256 7.48214 17.8239 7.32236 17.3868C7.27449 17.2556 7.2005 17.194 7.06434 17.1592C6.40097 16.9888 5.77054 16.7314 5.18302 16.377C5.04748 16.2956 4.94055 16.2962 4.80128 16.3627C4.43758 16.5356 4.06454 16.6873 3.69897 16.857C3.58582 16.9093 3.51308 16.9086 3.41858 16.8116C2.92555 16.3062 2.42569 15.8069 1.92272 15.3107C1.83568 15.2249 1.82759 15.1572 1.87795 15.0483C2.05141 14.6759 2.20684 14.2948 2.38217 13.923C2.44496 13.7899 2.44434 13.6904 2.366 13.5605C2.00851 12.9648 1.75858 12.3232 1.56709 11.656C1.53911 11.5578 1.43591 11.4484 1.34016 11.408C0.913664 11.227 0.477216 11.0691 0.035795 10.9C0.035795 10.1203 0.0320647 9.35182 0.0426339 8.58271C0.0432556 8.51991 0.129053 8.42976 0.195577 8.40178C0.581666 8.24074 0.976458 8.10209 1.3613 7.93919C1.44524 7.90375 1.53974 7.81049 1.56336 7.72593C1.75361 7.0333 2.0253 6.37672 2.38092 5.7531C2.42134 5.6816 2.42569 5.55911 2.39398 5.48139C2.23233 5.08658 2.05763 4.69736 1.87733 4.31063C1.82635 4.20182 1.83505 4.13467 1.92209 4.04887C2.42507 3.55271 2.92493 3.05344 3.41795 2.54795C3.51183 2.45158 3.58582 2.44909 3.69897 2.50132C4.07138 2.67355 4.45125 2.83023 4.82242 3.00556C4.94739 3.06463 5.04064 3.06587 5.1625 2.99251C5.76308 2.63002 6.40967 2.37386 7.08424 2.18485C7.17066 2.1606 7.26827 2.07231 7.30309 1.98899C7.48587 1.55314 7.65001 1.10921 7.82595 0.652841C8.60062 0.652841 9.37528 0.649732 10.1499 0.659059C10.2071 0.65968 10.2898 0.739887 10.3147 0.802062C10.4739 1.18942 10.6119 1.58547 10.776 1.97034C10.8146 2.05987 10.914 2.15935 11.0054 2.18485C11.6806 2.37324 12.326 2.63189 12.9278 2.99251C13.049 3.06525 13.1435 3.06712 13.2685 3.00867C13.6471 2.83085 14.0289 2.65987 14.4156 2.50132C14.479 2.47521 14.6002 2.49448 14.6481 2.54111C15.1598 3.03976 15.659 3.55022 16.1682 4.05136C16.2565 4.13778 16.2602 4.2068 16.2105 4.31312C16.0314 4.69985 15.8555 5.08907 15.6938 5.48388C15.6621 5.56098 15.6665 5.68346 15.7069 5.75497C16.0606 6.37921 16.3354 7.03392 16.5232 7.7278C16.5462 7.81236 16.6419 7.905 16.7265 7.94106C17.1039 8.10147 17.4881 8.24696 17.8736 8.3881C17.9973 8.43349 18.0551 8.4882 18.0533 8.63369C18.0445 9.33317 18.0458 10.0326 18.0526 10.7321C18.0539 10.8614 18.0153 10.9236 17.8922 10.9678C17.5061 11.107 17.1275 11.2662 16.742 11.4061C16.6127 11.4527 16.5276 11.5143 16.5114 11.6585C16.489 11.855 16.4132 11.985 16.1881 12.0378C15.9089 12.1031 15.7603 12.3381 15.6839 12.6024C15.6118 12.8498 15.4675 12.9791 15.2257 13.0911C14.8993 13.2421 14.6338 13.2453 14.3161 13.0811C13.999 12.9176 13.6795 12.9941 13.4196 13.2496C13.1261 13.5381 12.8364 13.8297 12.5473 14.1226C12.2451 14.4285 12.1463 14.753 12.3682 15.1136C12.6468 15.5663 12.3372 15.8921 12.2141 16.2589C12.1917 16.3254 12.0505 16.3627 11.9573 16.3932C11.624 16.5014 11.3548 16.6699 11.2491 17.0349C11.2342 17.0865 11.1372 17.1387 11.0726 17.1468C10.8836 17.1704 10.8009 17.2792 10.7418 17.4496C10.6119 17.8232 10.4676 18.1919 10.3153 18.5569C10.288 18.6216 10.1928 18.6999 10.1282 18.7005C9.36906 18.7086 8.60932 18.7049 7.82595 18.7049ZM3.58893 9.67389C3.58395 12.6788 6.0211 15.1317 9.02836 15.1478C12.0294 15.1634 14.4983 12.7 14.502 9.68384C14.5063 6.67827 12.0717 4.22918 9.06131 4.21053C6.06151 4.19187 3.5939 6.65527 3.58893 9.67389Z" fill="url(#paint0_linear_11056_60141)"/>
<g id="Vector_2">
<path d="M21.2601 14.7428C21.183 14.9163 21.1221 15.0854 21.0351 15.2402C20.9132 15.456 20.9169 15.6363 21.05 15.8601C21.1942 16.1032 21.2782 16.3849 21.3689 16.6566C21.4143 16.7921 21.4715 16.8817 21.6139 16.932C21.8377 17.011 22.1386 17.0582 22.248 17.2243C22.3599 17.3934 22.2835 17.6893 22.2841 17.9293C22.286 18.5828 22.2872 18.589 21.6779 18.8091C21.5001 18.8731 21.4124 18.9726 21.3528 19.1536C21.2508 19.4613 21.0991 19.7517 20.9841 20.0557C20.9505 20.1446 20.943 20.2628 20.9716 20.3523C21.027 20.5289 21.1097 20.698 21.1936 20.864C21.2539 20.9828 21.2552 21.0667 21.1488 21.1668C20.8939 21.4056 20.6484 21.6549 20.4077 21.9086C20.3182 22.0031 20.2368 22.0317 20.1274 21.9583C19.7046 21.6729 19.2831 21.6331 18.8584 21.9564C18.8112 21.9925 18.7459 22.0149 18.6862 22.023C18.2454 22.0814 18.0197 22.3512 17.9364 22.7703C17.8948 22.9817 17.7785 23.07 17.5472 23.0513C17.2388 23.0271 16.9267 23.0402 16.6171 23.0476C16.4934 23.0507 16.4051 23.0283 16.3778 22.8928C16.2752 22.3861 16.0022 22.0522 15.4657 21.977C15.4066 21.9689 15.3445 21.939 15.2966 21.9023C14.959 21.6437 14.6195 21.6611 14.2832 21.8961C14.0712 22.0447 13.9189 21.995 13.756 21.8041C13.5651 21.5803 13.3469 21.3788 13.133 21.1761C13.0366 21.0847 12.9869 20.9996 13.0708 20.8764C13.3593 20.4518 13.3817 20.0302 13.069 19.6031C13.0118 19.5247 12.972 19.419 12.9626 19.3221C12.9278 18.9614 12.6903 18.8302 12.3826 18.7295C11.9816 18.5983 11.9872 18.5822 11.9872 18.1476C11.9872 17.8833 11.994 17.6184 11.9847 17.3548C11.9803 17.2243 12.022 17.1472 12.1501 17.121C12.6499 17.0203 12.9713 16.7474 13.0453 16.2183C13.059 16.1225 13.1075 16.0205 13.1684 15.9441C13.3923 15.6649 13.3276 15.405 13.1765 15.114C12.9813 14.7385 12.9987 14.7291 13.3058 14.4214C13.4924 14.2342 13.6845 14.0527 13.8629 13.8587C13.953 13.7605 14.0388 13.7393 14.1452 13.8108C14.5785 14.1018 15.0075 14.1223 15.4365 13.8009C15.4725 13.7741 15.521 13.7567 15.5658 13.7511C16.0265 13.6908 16.2553 13.4011 16.3405 12.9696C16.3809 12.7638 16.5027 12.7084 16.7054 12.7203C17.0225 12.7389 17.3414 12.7314 17.6591 12.7221C17.7891 12.7184 17.868 12.7594 17.8948 12.8869C17.998 13.3843 18.2603 13.7126 18.7931 13.7872C18.9181 13.8046 19.0468 13.8742 19.1494 13.952C19.3664 14.1155 19.5591 14.0807 19.7891 13.9669C20.2759 13.7263 20.2815 13.7381 20.6695 14.1267C20.8342 14.2914 20.999 14.4556 21.1625 14.6222C21.1973 14.6583 21.2272 14.7024 21.2601 14.7428ZM14.6805 17.8771C14.6755 19.2363 15.7703 20.3399 17.1263 20.3417C18.4835 20.3442 19.5827 19.2493 19.5865 17.8908C19.5908 16.5298 18.5009 15.433 17.14 15.4274C15.7809 15.4212 14.6854 16.5123 14.6805 17.8771Z" fill="black"/>
<path d="M21.2601 14.7428C21.183 14.9163 21.1221 15.0854 21.0351 15.2402C20.9132 15.456 20.9169 15.6363 21.05 15.8601C21.1942 16.1032 21.2782 16.3849 21.3689 16.6566C21.4143 16.7921 21.4715 16.8817 21.6139 16.932C21.8377 17.011 22.1386 17.0582 22.248 17.2243C22.3599 17.3934 22.2835 17.6893 22.2841 17.9293C22.286 18.5828 22.2872 18.589 21.6779 18.8091C21.5001 18.8731 21.4124 18.9726 21.3528 19.1536C21.2508 19.4613 21.0991 19.7517 20.9841 20.0557C20.9505 20.1446 20.943 20.2628 20.9716 20.3523C21.027 20.5289 21.1097 20.698 21.1936 20.864C21.2539 20.9828 21.2552 21.0667 21.1488 21.1668C20.8939 21.4056 20.6484 21.6549 20.4077 21.9086C20.3182 22.0031 20.2368 22.0317 20.1274 21.9583C19.7046 21.6729 19.2831 21.6331 18.8584 21.9564C18.8112 21.9925 18.7459 22.0149 18.6862 22.023C18.2454 22.0814 18.0197 22.3512 17.9364 22.7703C17.8948 22.9817 17.7785 23.07 17.5472 23.0513C17.2388 23.0271 16.9267 23.0402 16.6171 23.0476C16.4934 23.0507 16.4051 23.0283 16.3778 22.8928C16.2752 22.3861 16.0022 22.0522 15.4657 21.977C15.4066 21.9689 15.3445 21.939 15.2966 21.9023C14.959 21.6437 14.6195 21.6611 14.2832 21.8961C14.0712 22.0447 13.9189 21.995 13.756 21.8041C13.5651 21.5803 13.3469 21.3788 13.133 21.1761C13.0366 21.0847 12.9869 20.9996 13.0708 20.8764C13.3593 20.4518 13.3817 20.0302 13.069 19.6031C13.0118 19.5247 12.972 19.419 12.9626 19.3221C12.9278 18.9614 12.6903 18.8302 12.3826 18.7295C11.9816 18.5983 11.9872 18.5822 11.9872 18.1476C11.9872 17.8833 11.994 17.6184 11.9847 17.3548C11.9803 17.2243 12.022 17.1472 12.1501 17.121C12.6499 17.0203 12.9713 16.7474 13.0453 16.2183C13.059 16.1225 13.1075 16.0205 13.1684 15.9441C13.3923 15.6649 13.3276 15.405 13.1765 15.114C12.9813 14.7385 12.9987 14.7291 13.3058 14.4214C13.4924 14.2342 13.6845 14.0527 13.8629 13.8587C13.953 13.7605 14.0388 13.7393 14.1452 13.8108C14.5785 14.1018 15.0075 14.1223 15.4365 13.8009C15.4725 13.7741 15.521 13.7567 15.5658 13.7511C16.0265 13.6908 16.2553 13.4011 16.3405 12.9696C16.3809 12.7638 16.5027 12.7084 16.7054 12.7203C17.0225 12.7389 17.3414 12.7314 17.6591 12.7221C17.7891 12.7184 17.868 12.7594 17.8948 12.8869C17.998 13.3843 18.2603 13.7126 18.7931 13.7872C18.9181 13.8046 19.0468 13.8742 19.1494 13.952C19.3664 14.1155 19.5591 14.0807 19.7891 13.9669C20.2759 13.7263 20.2815 13.7381 20.6695 14.1267C20.8342 14.2914 20.999 14.4556 21.1625 14.6222C21.1973 14.6583 21.2272 14.7024 21.2601 14.7428ZM14.6805 17.8771C14.6755 19.2363 15.7703 20.3399 17.1263 20.3417C18.4835 20.3442 19.5827 19.2493 19.5865 17.8908C19.5908 16.5298 18.5009 15.433 17.14 15.4274C15.7809 15.4212 14.6854 16.5123 14.6805 17.8771Z" fill="url(#paint1_linear_11056_60141)"/>
</g>
<g id="Ellipse 2376">
<ellipse cx="8.99507" cy="9.60861" rx="4.55757" ry="4.55783" fill="#D9D9D9"/>
<ellipse cx="8.99507" cy="9.60861" rx="4.55757" ry="4.55783" fill="url(#paint2_linear_11056_60141)"/>
<ellipse cx="8.99507" cy="9.60861" rx="4.55757" ry="4.55783" fill="url(#paint3_linear_11056_60141)"/>
</g>
<g id="Vector_3">
<path d="M6.19922 7.39922C6.19922 7.28876 6.28876 7.19922 6.39922 7.19922H7.19922C7.30968 7.19922 7.39922 7.28876 7.39922 7.39922V8.19922C7.39922 8.30968 7.30968 8.39922 7.19922 8.39922H6.39922C6.28876 8.39922 6.19922 8.30968 6.19922 8.19922V7.39922Z" fill="url(#paint4_linear_11056_60141)"/>
<path d="M6.19922 9.39922C6.19922 9.28876 6.28876 9.19922 6.39922 9.19922H7.19922C7.30968 9.19922 7.39922 9.28876 7.39922 9.39922V10.1992C7.39922 10.3097 7.30968 10.3992 7.19922 10.3992H6.39922C6.28876 10.3992 6.19922 10.3097 6.19922 10.1992V9.39922Z" fill="url(#paint5_linear_11056_60141)"/>
<path d="M6.19922 11.3992C6.19922 11.2888 6.28876 11.1992 6.39922 11.1992H7.19922C7.30968 11.1992 7.39922 11.2888 7.39922 11.3992V12.1992C7.39922 12.3097 7.30968 12.3992 7.19922 12.3992H6.39922C6.28876 12.3992 6.19922 12.3097 6.19922 12.1992V11.3992Z" fill="url(#paint6_linear_11056_60141)"/>
<path d="M7.79922 7.39922C7.79922 7.28876 7.88876 7.19922 7.99922 7.19922H11.5992C11.7097 7.19922 11.7992 7.28876 11.7992 7.39922V8.19922C11.7992 8.30968 11.7097 8.39922 11.5992 8.39922H7.99922C7.88876 8.39922 7.79922 8.30968 7.79922 8.19922V7.39922Z" fill="url(#paint7_linear_11056_60141)"/>
<path d="M7.79922 9.39922C7.79922 9.28876 7.88876 9.19922 7.99922 9.19922H11.5992C11.7097 9.19922 11.7992 9.28876 11.7992 9.39922V10.1992C11.7992 10.3097 11.7097 10.3992 11.5992 10.3992H7.99922C7.88876 10.3992 7.79922 10.3097 7.79922 10.1992V9.39922Z" fill="url(#paint8_linear_11056_60141)"/>
<path d="M7.79922 11.3992C7.79922 11.2888 7.88876 11.1992 7.99922 11.1992H11.5992C11.7097 11.1992 11.7992 11.2888 11.7992 11.3992V12.1992C11.7992 12.3097 11.7097 12.3992 11.5992 12.3992H7.99922C7.88876 12.3992 7.79922 12.3097 7.79922 12.1992V11.3992Z" fill="url(#paint9_linear_11056_60141)"/>
</g>
</g>
<defs>
<linearGradient id="paint0_linear_11056_60141" x1="-2.25085" y1="20.0833" x2="30.5417" y2="9.51325" gradientUnits="userSpaceOnUse">
<stop stop-color="#05E0E0"/>
<stop offset="1" stop-color="#02C8C8"/>
</linearGradient>
<linearGradient id="paint1_linear_11056_60141" x1="10.6745" y1="23.8424" x2="29.4617" y2="17.7809" gradientUnits="userSpaceOnUse">
<stop stop-color="#05E0E0"/>
<stop offset="1" stop-color="#02C8C8"/>
</linearGradient>
<linearGradient id="paint2_linear_11056_60141" x1="3.28104" y1="14.862" x2="19.8644" y2="9.5065" gradientUnits="userSpaceOnUse">
<stop stop-color="#05E0E0"/>
<stop offset="1" stop-color="#02C8C8"/>
</linearGradient>
<linearGradient id="paint3_linear_11056_60141" x1="4.14037" y1="6.09176" x2="21.1981" y2="19.5314" gradientUnits="userSpaceOnUse">
<stop stop-color="#F9FBFF"/>
<stop offset="1" stop-color="#E2F1FA"/>
</linearGradient>
<linearGradient id="paint4_linear_11056_60141" x1="5.31434" y1="7.28865" x2="11.464" y2="14.102" gradientUnits="userSpaceOnUse">
<stop stop-color="#FFAC4B"/>
<stop offset="1" stop-color="#FCCA80"/>
</linearGradient>
<linearGradient id="paint5_linear_11056_60141" x1="5.31434" y1="7.28865" x2="11.464" y2="14.102" gradientUnits="userSpaceOnUse">
<stop stop-color="#FFAC4B"/>
<stop offset="1" stop-color="#FCCA80"/>
</linearGradient>
<linearGradient id="paint6_linear_11056_60141" x1="5.31434" y1="7.28865" x2="11.464" y2="14.102" gradientUnits="userSpaceOnUse">
<stop stop-color="#FFAC4B"/>
<stop offset="1" stop-color="#FCCA80"/>
</linearGradient>
<linearGradient id="paint7_linear_11056_60141" x1="5.31434" y1="7.28865" x2="11.464" y2="14.102" gradientUnits="userSpaceOnUse">
<stop stop-color="#FFAC4B"/>
<stop offset="1" stop-color="#FCCA80"/>
</linearGradient>
<linearGradient id="paint8_linear_11056_60141" x1="5.31434" y1="7.28865" x2="11.464" y2="14.102" gradientUnits="userSpaceOnUse">
<stop stop-color="#FFAC4B"/>
<stop offset="1" stop-color="#FCCA80"/>
</linearGradient>
<linearGradient id="paint9_linear_11056_60141" x1="5.31434" y1="7.28865" x2="11.464" y2="14.102" gradientUnits="userSpaceOnUse">
<stop stop-color="#FFAC4B"/>
<stop offset="1" stop-color="#FCCA80"/>
</linearGradient>
</defs>
</svg>
