<svg width="22" height="22" viewBox="0 0 22 22" fill="none" xmlns="http://www.w3.org/2000/svg">
<g id="Group 1000002387">
<g id="Subtract">
<path fill-rule="evenodd" clip-rule="evenodd" d="M8.05197 7.27228C7.83257 7.25174 7.61022 7.24124 7.38541 7.24124C3.50868 7.24124 0.367188 10.3642 0.367188 14.218C0.367188 18.0719 3.50868 21.1948 7.38541 21.1948C11.2322 21.1948 14.355 18.12 14.4031 14.3072C10.8919 13.8372 8.1667 10.8841 8.05197 7.27228ZM8.56625 16.9312C8.82247 16.7762 9.02299 16.5769 9.16781 16.3332C9.31263 16.0785 9.39061 15.7906 9.39061 15.4694C9.39061 15.0597 9.27921 14.7275 9.04527 14.4727C8.82247 14.218 8.46599 14.0298 7.97583 13.908L7.15146 13.7086C6.8841 13.6422 6.69472 13.5536 6.58332 13.4428C6.46078 13.321 6.40508 13.166 6.40508 12.9777C6.40508 12.723 6.50534 12.5126 6.68358 12.3576C6.87296 12.2025 7.12918 12.1139 7.45224 12.1139C7.70847 12.1139 7.92013 12.1471 8.10951 12.2136C8.28775 12.269 8.45485 12.3465 8.59967 12.4351C8.71107 12.5015 8.80019 12.5347 8.87817 12.5237C8.96729 12.5126 9.03413 12.4794 9.08983 12.424C9.14553 12.3686 9.19009 12.3022 9.21237 12.2247C9.22351 12.1472 9.22351 12.0586 9.20123 11.97C9.17895 11.8814 9.12325 11.8038 9.04527 11.7374C8.85589 11.5824 8.63309 11.4495 8.37687 11.3609C8.17635 11.2944 7.98697 11.2501 7.81987 11.228V10.6521C7.81987 10.5303 7.77531 10.4306 7.70847 10.3531C7.63049 10.2756 7.54137 10.2313 7.4411 10.2313C7.3297 10.2313 7.22944 10.2756 7.1626 10.3531C7.09576 10.4306 7.06234 10.5303 7.06234 10.6521V11.2501C6.76156 11.2834 6.50534 11.372 6.28254 11.5048C6.01518 11.6599 5.81466 11.8703 5.66984 12.1361C5.51388 12.3908 5.44704 12.6898 5.44704 13.0109C5.44704 13.4428 5.55844 13.7861 5.79238 14.0409C6.01518 14.3066 6.36052 14.4949 6.81726 14.6056L7.63049 14.805C7.81987 14.8493 7.98697 14.9046 8.09837 14.9711C8.20977 15.0486 8.29889 15.1261 8.35459 15.2147C8.39915 15.3144 8.42143 15.4141 8.42143 15.5359C8.42143 15.6909 8.38801 15.8238 8.31003 15.9456C8.24319 16.0564 8.13179 16.145 7.96469 16.2225C7.80873 16.2889 7.60821 16.3222 7.35198 16.3222C7.02892 16.3222 6.75042 16.2779 6.51648 16.2003C6.29368 16.1117 6.1043 16.0342 5.95948 15.9456C5.85922 15.8792 5.75896 15.846 5.68098 15.8792C5.603 15.8903 5.53616 15.9346 5.48046 16.0121C5.42476 16.0785 5.39134 16.156 5.3802 16.2557C5.36906 16.3443 5.39134 16.444 5.42476 16.5326C5.45818 16.6212 5.52502 16.6987 5.61414 16.7651C5.80352 16.8759 6.02632 16.9866 6.29368 17.0752C6.52762 17.1417 6.7727 17.197 7.06234 17.2192V17.784C7.06234 17.9058 7.09576 18.0054 7.1626 18.083C7.22944 18.1605 7.3297 18.2048 7.4411 18.2048C7.55251 18.2048 7.64163 18.1605 7.70847 18.083C7.78645 18.0054 7.81987 17.9058 7.81987 17.784V17.1859C8.09837 17.1417 8.34345 17.0531 8.56625 16.9312Z" fill="url(#paint0_linear_11056_8917)"/>
<path d="M7.41882 3.11053L6.68358 4.31763C6.51648 4.59449 6.17114 4.68308 5.90378 4.51697C5.63642 4.36193 5.55844 4.01862 5.7144 3.74177L5.84808 3.52028C3.99884 3.99648 2.61747 5.67977 2.61747 7.67314C2.61747 7.99429 2.36125 8.23793 2.04933 8.23793C1.73741 8.23793 1.48119 7.99429 1.48119 7.67314C1.42549 4.52804 3.92086 2.25781 6.92866 2.25781C7.14032 2.25781 7.31856 2.36856 7.41882 2.54574C7.51908 2.72293 7.51908 2.93334 7.41882 3.11053Z" fill="url(#paint1_linear_11056_8917)"/>
<path d="M20.4192 15.7463C20.4749 18.8914 17.9796 21.1616 14.9718 21.1616C14.7601 21.1616 14.5819 21.0509 14.4816 20.8848C14.3813 20.6965 14.3813 20.4861 14.4816 20.3089L15.2168 19.1018C15.3839 18.836 15.7293 18.7474 15.9966 18.9135C16.264 19.0686 16.342 19.4119 16.186 19.6777L16.0523 19.9102C17.9127 19.423 19.283 17.7507 19.283 15.7463C19.283 15.4362 19.5392 15.1815 19.8511 15.1815C20.163 15.1815 20.4192 15.4362 20.4192 15.7463Z" fill="url(#paint2_linear_11056_8917)"/>
</g>
<ellipse id="Ellipse 2374" cx="15.3851" cy="7.03709" rx="6.24055" ry="6.24021" fill="url(#paint3_linear_11056_8917)"/>
<path id="Vector" d="M13.4549 2.99219C13.6133 2.99219 13.7417 3.12063 13.7417 3.27906V3.98669L14.3999 3.85506C15.0313 3.72879 15.6858 3.78887 16.2836 4.02799L16.3615 4.05914C16.9586 4.298 17.6159 4.34261 18.2399 4.18662C18.5296 4.11421 18.8101 4.33328 18.8101 4.63185V7.44973C18.8101 7.69618 18.6424 7.91099 18.4033 7.97077L18.3213 7.99127C17.6444 8.16049 16.9314 8.1121 16.2836 7.85299C15.6858 7.61388 15.0313 7.55379 14.3999 7.68006L13.7417 7.81169V10.9291C13.7417 11.0875 13.6133 11.2159 13.4549 11.2159C13.2964 11.2159 13.168 11.0875 13.168 10.9291V3.27906C13.168 3.12063 13.2964 2.99219 13.4549 2.99219Z" fill="url(#paint4_linear_11056_8917)"/>
</g>
<defs>
<linearGradient id="paint0_linear_11056_8917" x1="-1.41358" y1="22.2593" x2="24.0934" y2="13.973" gradientUnits="userSpaceOnUse">
<stop stop-color="#05E0E0"/>
<stop offset="1" stop-color="#02C8C8"/>
</linearGradient>
<linearGradient id="paint1_linear_11056_8917" x1="-1.41358" y1="22.2593" x2="24.0934" y2="13.973" gradientUnits="userSpaceOnUse">
<stop stop-color="#05E0E0"/>
<stop offset="1" stop-color="#02C8C8"/>
</linearGradient>
<linearGradient id="paint2_linear_11056_8917" x1="-1.41358" y1="22.2593" x2="24.0934" y2="13.973" gradientUnits="userSpaceOnUse">
<stop stop-color="#05E0E0"/>
<stop offset="1" stop-color="#02C8C8"/>
</linearGradient>
<linearGradient id="paint3_linear_11056_8917" x1="8.73768" y1="2.22211" x2="32.0923" y2="20.625" gradientUnits="userSpaceOnUse">
<stop stop-color="#F9FBFF"/>
<stop offset="1" stop-color="#E2F1FA"/>
</linearGradient>
<linearGradient id="paint4_linear_11056_8917" x1="12.2764" y1="3.13363" x2="21.4884" y2="9.63576" gradientUnits="userSpaceOnUse">
<stop stop-color="#FFAC4B"/>
<stop offset="1" stop-color="#FCCA80"/>
</linearGradient>
</defs>
</svg>
