<svg width="27" height="30" viewBox="0 0 27 30" fill="none" xmlns="http://www.w3.org/2000/svg">
<g id="Group icon">
<g id="Subtract">
<path d="M9.22456 2.35701C9.22456 2.11453 9.42112 1.91797 9.6636 1.91797H10.9807C11.2232 1.91797 11.4198 2.11453 11.4198 2.35701V2.79605C11.4198 2.80958 11.4191 2.82297 11.4179 2.83619C16.3418 3.27897 20.2005 7.41677 20.2005 12.4558C20.2005 13.9538 19.8595 15.3721 19.2509 16.6374C16.7727 17.1962 14.7869 19.0546 14.0471 21.4589C12.9604 21.8824 11.7782 22.1147 10.5417 22.1147C5.20723 22.1147 0.882812 17.7903 0.882812 12.4558C0.882812 7.56507 4.51782 3.5233 9.23353 2.88481C9.22765 2.85615 9.22456 2.82646 9.22456 2.79605V2.35701Z" fill="url(#paint0_linear_11056_6070)"/>
<path d="M9.22456 2.35701C9.22456 2.11453 9.42112 1.91797 9.6636 1.91797H10.9807C11.2232 1.91797 11.4198 2.11453 11.4198 2.35701V2.79605C11.4198 2.80958 11.4191 2.82297 11.4179 2.83619C16.3418 3.27897 20.2005 7.41677 20.2005 12.4558C20.2005 13.9538 19.8595 15.3721 19.2509 16.6374C16.7727 17.1962 14.7869 19.0546 14.0471 21.4589C12.9604 21.8824 11.7782 22.1147 10.5417 22.1147C5.20723 22.1147 0.882812 17.7903 0.882812 12.4558C0.882812 7.56507 4.51782 3.5233 9.23353 2.88481C9.22765 2.85615 9.22456 2.82646 9.22456 2.79605V2.35701Z" fill="url(#paint1_linear_11056_6070)"/>
</g>
<g id="Ellipse 2374">
<circle cx="20.8142" cy="23.5408" r="6.06815" fill="#D9D9D9"/>
<circle cx="20.8142" cy="23.5408" r="6.06815" fill="url(#paint2_linear_11056_6070)"/>
</g>
<g id="Vector">
<path d="M17.7813 24.9073C17.7884 23.7084 18.7402 22.7521 19.9203 22.7586C21.0976 22.7651 22.0437 23.7358 22.0388 24.9321C22.0338 26.1281 21.0674 27.0923 19.8827 27.0833C18.7164 27.0744 17.7742 26.099 17.7813 24.9073ZM19.5117 24.325C19.5426 24.2872 19.5901 24.1911 19.6668 24.1414C19.9022 23.9885 20.1823 24.0813 20.3407 24.348C20.4103 24.465 20.5271 24.5071 20.6322 24.4527C20.7387 24.3973 20.7735 24.2785 20.7163 24.1504C20.6247 23.9445 20.4759 23.7941 20.2682 23.7138C20.1752 23.6778 20.1135 23.6487 20.1138 23.5249C20.1142 23.4101 20.0258 23.3413 19.909 23.3356C19.8042 23.3302 19.6999 23.414 19.7041 23.5227C19.7091 23.644 19.6505 23.6775 19.555 23.7149C19.2536 23.833 19.0821 24.091 19.086 24.398C19.0899 24.6986 19.2522 24.9213 19.5671 25.0376C19.691 25.0833 19.8252 25.0995 19.9509 25.1405C20.063 25.1772 20.1813 25.2132 20.2768 25.2798C20.4103 25.3727 20.412 25.558 20.2952 25.6513C20.0542 25.8431 19.5117 25.8085 19.424 25.4407C19.3928 25.3097 19.2646 25.2597 19.1492 25.3025C19.0427 25.3421 18.9912 25.4537 19.0271 25.5793C19.1109 25.8708 19.3051 26.0533 19.5852 26.1429C19.6612 26.167 19.702 26.1936 19.7006 26.2869C19.6988 26.4182 19.7897 26.5024 19.9061 26.5032C20.0165 26.5035 20.1149 26.4247 20.1156 26.3027C20.1163 26.1972 20.1596 26.1634 20.2487 26.1454C20.3041 26.1343 20.3584 26.1094 20.4092 26.0831C20.6375 25.9651 20.7877 25.7895 20.7983 25.517C20.8093 25.2356 20.6975 25.0153 20.4564 24.8782C20.3424 24.8134 20.2132 24.7731 20.0875 24.7328C19.9572 24.691 19.8206 24.6701 19.6913 24.6255C19.587 24.5888 19.5099 24.515 19.5117 24.325Z" fill="black"/>
<path d="M17.7813 24.9073C17.7884 23.7084 18.7402 22.7521 19.9203 22.7586C21.0976 22.7651 22.0437 23.7358 22.0388 24.9321C22.0338 26.1281 21.0674 27.0923 19.8827 27.0833C18.7164 27.0744 17.7742 26.099 17.7813 24.9073ZM19.5117 24.325C19.5426 24.2872 19.5901 24.1911 19.6668 24.1414C19.9022 23.9885 20.1823 24.0813 20.3407 24.348C20.4103 24.465 20.5271 24.5071 20.6322 24.4527C20.7387 24.3973 20.7735 24.2785 20.7163 24.1504C20.6247 23.9445 20.4759 23.7941 20.2682 23.7138C20.1752 23.6778 20.1135 23.6487 20.1138 23.5249C20.1142 23.4101 20.0258 23.3413 19.909 23.3356C19.8042 23.3302 19.6999 23.414 19.7041 23.5227C19.7091 23.644 19.6505 23.6775 19.555 23.7149C19.2536 23.833 19.0821 24.091 19.086 24.398C19.0899 24.6986 19.2522 24.9213 19.5671 25.0376C19.691 25.0833 19.8252 25.0995 19.9509 25.1405C20.063 25.1772 20.1813 25.2132 20.2768 25.2798C20.4103 25.3727 20.412 25.558 20.2952 25.6513C20.0542 25.8431 19.5117 25.8085 19.424 25.4407C19.3928 25.3097 19.2646 25.2597 19.1492 25.3025C19.0427 25.3421 18.9912 25.4537 19.0271 25.5793C19.1109 25.8708 19.3051 26.0533 19.5852 26.1429C19.6612 26.167 19.702 26.1936 19.7006 26.2869C19.6988 26.4182 19.7897 26.5024 19.9061 26.5032C20.0165 26.5035 20.1149 26.4247 20.1156 26.3027C20.1163 26.1972 20.1596 26.1634 20.2487 26.1454C20.3041 26.1343 20.3584 26.1094 20.4092 26.0831C20.6375 25.9651 20.7877 25.7895 20.7983 25.517C20.8093 25.2356 20.6975 25.0153 20.4564 24.8782C20.3424 24.8134 20.2132 24.7731 20.0875 24.7328C19.9572 24.691 19.8206 24.6701 19.6913 24.6255C19.587 24.5888 19.5099 24.515 19.5117 24.325Z" fill="url(#paint3_linear_11056_6070)"/>
<path d="M21.7128 20.0041C22.2312 20.0041 22.7491 20.0034 23.2675 20.0045C23.6477 20.0052 23.8469 20.21 23.8476 20.5969C23.8476 20.6869 23.8479 20.7769 23.8476 20.8669C23.8455 21.2073 23.6388 21.4258 23.304 21.4323C23.0339 21.4373 22.7637 21.4334 22.4935 21.4334C21.7274 21.4334 20.9609 21.4337 20.1947 21.4334C19.7882 21.433 19.5908 21.2329 19.5905 20.8229C19.5905 20.724 19.5887 20.625 19.5912 20.526C19.5986 20.2237 19.806 20.0088 20.1053 20.0063C20.641 20.002 21.1771 20.0049 21.7132 20.0049C21.7128 20.0049 21.7128 20.0045 21.7128 20.0041Z" fill="black"/>
<path d="M21.7128 20.0041C22.2312 20.0041 22.7491 20.0034 23.2675 20.0045C23.6477 20.0052 23.8469 20.21 23.8476 20.5969C23.8476 20.6869 23.8479 20.7769 23.8476 20.8669C23.8455 21.2073 23.6388 21.4258 23.304 21.4323C23.0339 21.4373 22.7637 21.4334 22.4935 21.4334C21.7274 21.4334 20.9609 21.4337 20.1947 21.4334C19.7882 21.433 19.5908 21.2329 19.5905 20.8229C19.5905 20.724 19.5887 20.625 19.5912 20.526C19.5986 20.2237 19.806 20.0088 20.1053 20.0063C20.641 20.002 21.1771 20.0049 21.7132 20.0049C21.7128 20.0049 21.7128 20.0045 21.7128 20.0041Z" fill="url(#paint4_linear_11056_6070)"/>
<path d="M19.5642 22.335C19.5958 22.1572 19.5979 21.9863 19.6586 21.8408C19.7392 21.6479 19.916 21.568 20.1248 21.5684C20.7975 21.5695 21.4707 21.5688 22.1434 21.5688C22.524 21.5688 22.905 21.5673 23.2856 21.5691C23.6409 21.5709 23.8458 21.78 23.8472 22.1389C23.8476 22.2558 23.8504 22.3728 23.8461 22.4898C23.8362 22.7471 23.6569 22.9591 23.4049 22.9832C23.194 23.0034 22.9806 22.9958 22.7683 22.9969C22.4228 22.9987 22.0778 22.9994 21.7323 22.9955C21.6791 22.9947 21.6137 22.9821 21.575 22.9494C21.0201 22.4797 20.3829 22.2796 19.6654 22.335C19.648 22.3361 19.6302 22.335 19.5642 22.335Z" fill="black"/>
<path d="M19.5642 22.335C19.5958 22.1572 19.5979 21.9863 19.6586 21.8408C19.7392 21.6479 19.916 21.568 20.1248 21.5684C20.7975 21.5695 21.4707 21.5688 22.1434 21.5688C22.524 21.5688 22.905 21.5673 23.2856 21.5691C23.6409 21.5709 23.8458 21.78 23.8472 22.1389C23.8476 22.2558 23.8504 22.3728 23.8461 22.4898C23.8362 22.7471 23.6569 22.9591 23.4049 22.9832C23.194 23.0034 22.9806 22.9958 22.7683 22.9969C22.4228 22.9987 22.0778 22.9994 21.7323 22.9955C21.6791 22.9947 21.6137 22.9821 21.575 22.9494C21.0201 22.4797 20.3829 22.2796 19.6654 22.335C19.648 22.3361 19.6302 22.335 19.5642 22.335Z" fill="url(#paint5_linear_11056_6070)"/>
<path d="M22.4409 24.5542C22.3553 24.0229 22.1426 23.5572 21.7702 23.1419C21.8327 23.1376 21.8732 23.1325 21.9136 23.1322C22.3645 23.1314 22.8158 23.1307 23.2667 23.1322C23.6469 23.1332 23.8468 23.3377 23.8475 23.7224C23.8478 23.8257 23.8493 23.929 23.8471 24.0323C23.8407 24.3152 23.6508 24.5369 23.3735 24.5506C23.0693 24.5657 22.7639 24.5542 22.4409 24.5542Z" fill="black"/>
<path d="M22.4409 24.5542C22.3553 24.0229 22.1426 23.5572 21.7702 23.1419C21.8327 23.1376 21.8732 23.1325 21.9136 23.1322C22.3645 23.1314 22.8158 23.1307 23.2667 23.1322C23.6469 23.1332 23.8468 23.3377 23.8475 23.7224C23.8478 23.8257 23.8493 23.929 23.8471 24.0323C23.8407 24.3152 23.6508 24.5369 23.3735 24.5506C23.0693 24.5657 22.7639 24.5542 22.4409 24.5542Z" fill="url(#paint6_linear_11056_6070)"/>
<path d="M22.1786 26.1133C22.4019 25.6587 22.4857 25.1966 22.4605 24.7107C22.8006 24.7107 23.1315 24.6916 23.4588 24.7175C23.6775 24.7348 23.838 24.9662 23.8458 25.2005C23.8504 25.3395 23.8508 25.4791 23.8458 25.618C23.8369 25.8682 23.6534 26.0992 23.4187 26.1086C23.0136 26.1251 22.6075 26.1133 22.1786 26.1133Z" fill="black"/>
<path d="M22.1786 26.1133C22.4019 25.6587 22.4857 25.1966 22.4605 24.7107C22.8006 24.7107 23.1315 24.6916 23.4588 24.7175C23.6775 24.7348 23.838 24.9662 23.8458 25.2005C23.8504 25.3395 23.8508 25.4791 23.8458 25.618C23.8369 25.8682 23.6534 26.0992 23.4187 26.1086C23.0136 26.1251 22.6075 26.1133 22.1786 26.1133Z" fill="url(#paint7_linear_11056_6070)"/>
</g>
<g id="Rectangle 39631">
<rect x="8.34766" y="0.597656" width="3.95135" height="1.75616" rx="0.439039" fill="url(#paint8_linear_11056_6070)"/>
<rect x="8.34766" y="0.597656" width="3.95135" height="1.75616" rx="0.439039" fill="url(#paint9_linear_11056_6070)"/>
<rect x="8.34766" y="0.597656" width="3.95135" height="1.75616" rx="0.439039" fill="url(#paint10_linear_11056_6070)"/>
</g>
<g id="Rectangle 39629">
<rect x="1.32031" y="5.61328" width="2.1952" height="1.32847" rx="0.439039" transform="rotate(-49.1471 1.32031 5.61328)" fill="url(#paint11_linear_11056_6070)"/>
<rect x="1.32031" y="5.61328" width="2.1952" height="1.32847" rx="0.439039" transform="rotate(-49.1471 1.32031 5.61328)" fill="url(#paint12_linear_11056_6070)"/>
<rect x="1.32031" y="5.61328" width="2.1952" height="1.32847" rx="0.439039" transform="rotate(-49.1471 1.32031 5.61328)" fill="url(#paint13_linear_11056_6070)"/>
</g>
<g id="Rectangle 39632">
<rect width="2.1952" height="1.32847" rx="0.439039" transform="matrix(0.654119 0.756392 0.756392 -0.654119 18.0078 4.81641)" fill="url(#paint14_linear_11056_6070)"/>
<rect width="2.1952" height="1.32847" rx="0.439039" transform="matrix(0.654119 0.756392 0.756392 -0.654119 18.0078 4.81641)" fill="url(#paint15_linear_11056_6070)"/>
<rect width="2.1952" height="1.32847" rx="0.439039" transform="matrix(0.654119 0.756392 0.756392 -0.654119 18.0078 4.81641)" fill="url(#paint16_linear_11056_6070)"/>
</g>
<circle id="Ellipse 844" cx="10.5433" cy="12.4496" r="7.9027" fill="white"/>
<g id="Rectangle 39623">
<rect x="10.1016" y="4.98828" width="1.31712" height="1.75616" rx="0.439039" fill="#D9D9D9"/>
<rect x="10.1016" y="4.98828" width="1.31712" height="1.75616" rx="0.439039" fill="url(#paint17_linear_11056_6070)"/>
</g>
<g id="Rectangle 39624">
<rect x="10.1016" y="18.1602" width="1.31712" height="1.75616" rx="0.439039" fill="#D9D9D9"/>
<rect x="10.1016" y="18.1602" width="1.31712" height="1.75616" rx="0.439039" fill="url(#paint18_linear_11056_6070)"/>
</g>
<g id="Rectangle 39625">
<rect x="18.0078" y="11.5742" width="1.31712" height="1.75616" rx="0.439039" transform="rotate(90 18.0078 11.5742)" fill="#D9D9D9"/>
<rect x="18.0078" y="11.5742" width="1.31712" height="1.75616" rx="0.439039" transform="rotate(90 18.0078 11.5742)" fill="url(#paint19_linear_11056_6070)"/>
</g>
<g id="Rectangle 39626">
<rect x="4.94922" y="11.5742" width="1.31712" height="1.75616" rx="0.439039" transform="rotate(90 4.94922 11.5742)" fill="#D9D9D9"/>
<rect x="4.94922" y="11.5742" width="1.31712" height="1.75616" rx="0.439039" transform="rotate(90 4.94922 11.5742)" fill="url(#paint20_linear_11056_6070)"/>
</g>
<circle id="Ellipse 845" cx="10.7617" cy="12.6718" r="1.0976" fill="#EEEEF1"/>
<circle id="Ellipse 846" cx="10.7601" cy="12.6703" r="0.658559" fill="#BDBDC1"/>
<g id="Rectangle 39627">
<rect x="10.543" y="7.18359" width="0.439039" height="7.02463" rx="0.21952" fill="url(#paint21_linear_11056_6070)"/>
<rect x="10.543" y="7.18359" width="0.439039" height="7.02463" rx="0.21952" fill="url(#paint22_linear_11056_6070)"/>
</g>
</g>
<defs>
<linearGradient id="paint0_linear_11056_6070" x1="9.22451" y1="2.5766" x2="23.2747" y2="21.8946" gradientUnits="userSpaceOnUse">
<stop stop-color="#05E0E0"/>
<stop offset="1" stop-color="#02C8C8"/>
</linearGradient>
<linearGradient id="paint1_linear_11056_6070" x1="-2.16967" y1="2.26533" x2="21.8379" y2="25.889" gradientUnits="userSpaceOnUse">
<stop stop-color="#FFAC4B"/>
<stop offset="1" stop-color="#FCCA80"/>
</linearGradient>
<linearGradient id="paint2_linear_11056_6070" x1="14.3505" y1="18.8586" x2="37.0609" y2="36.7529" gradientUnits="userSpaceOnUse">
<stop stop-color="#F9FBFF"/>
<stop offset="1" stop-color="#E2F1FA"/>
</linearGradient>
<linearGradient id="paint3_linear_11056_6070" x1="16.8224" y1="20.1257" x2="25.1726" y2="27.4891" gradientUnits="userSpaceOnUse">
<stop stop-color="#FFAC4B"/>
<stop offset="1" stop-color="#FCCA80"/>
</linearGradient>
<linearGradient id="paint4_linear_11056_6070" x1="16.8224" y1="20.1257" x2="25.1726" y2="27.4891" gradientUnits="userSpaceOnUse">
<stop stop-color="#FFAC4B"/>
<stop offset="1" stop-color="#FCCA80"/>
</linearGradient>
<linearGradient id="paint5_linear_11056_6070" x1="16.8224" y1="20.1257" x2="25.1726" y2="27.4891" gradientUnits="userSpaceOnUse">
<stop stop-color="#FFAC4B"/>
<stop offset="1" stop-color="#FCCA80"/>
</linearGradient>
<linearGradient id="paint6_linear_11056_6070" x1="16.8224" y1="20.1257" x2="25.1726" y2="27.4891" gradientUnits="userSpaceOnUse">
<stop stop-color="#FFAC4B"/>
<stop offset="1" stop-color="#FCCA80"/>
</linearGradient>
<linearGradient id="paint7_linear_11056_6070" x1="16.8224" y1="20.1257" x2="25.1726" y2="27.4891" gradientUnits="userSpaceOnUse">
<stop stop-color="#FFAC4B"/>
<stop offset="1" stop-color="#FCCA80"/>
</linearGradient>
<linearGradient id="paint8_linear_11056_6070" x1="8.34758" y1="1.47579" x2="12.2988" y2="1.47579" gradientUnits="userSpaceOnUse">
<stop stop-color="#05E0E0"/>
<stop offset="1" stop-color="#02C8C8"/>
</linearGradient>
<linearGradient id="paint9_linear_11056_6070" x1="7.72328" y1="0.62786" x2="9.24346" y2="4.1467" gradientUnits="userSpaceOnUse">
<stop stop-color="#FFAC4B"/>
<stop offset="1" stop-color="#FCCA80"/>
</linearGradient>
<linearGradient id="paint10_linear_11056_6070" x1="7.84634" y1="2.48781" x2="13.0416" y2="-1.28737" gradientUnits="userSpaceOnUse">
<stop stop-color="#05E0E0"/>
<stop offset="1" stop-color="#02C8C8"/>
</linearGradient>
<linearGradient id="paint11_linear_11056_6070" x1="1.32027" y1="6.27755" x2="3.51541" y2="6.27755" gradientUnits="userSpaceOnUse">
<stop stop-color="#05E0E0"/>
<stop offset="1" stop-color="#02C8C8"/>
</linearGradient>
<linearGradient id="paint12_linear_11056_6070" x1="0.973439" y1="5.63613" x2="2.35383" y2="7.98279" gradientUnits="userSpaceOnUse">
<stop stop-color="#FFAC4B"/>
<stop offset="1" stop-color="#FCCA80"/>
</linearGradient>
<linearGradient id="paint13_linear_11056_6070" x1="1.0418" y1="7.04311" x2="4.47446" y2="5.21121" gradientUnits="userSpaceOnUse">
<stop stop-color="#05E0E0"/>
<stop offset="1" stop-color="#02C8C8"/>
</linearGradient>
<linearGradient id="paint14_linear_11056_6070" x1="-4.40008e-05" y1="0.664272" x2="2.1951" y2="0.664272" gradientUnits="userSpaceOnUse">
<stop stop-color="#05E0E0"/>
<stop offset="1" stop-color="#02C8C8"/>
</linearGradient>
<linearGradient id="paint15_linear_11056_6070" x1="-0.346873" y1="0.0228482" x2="1.03352" y2="2.36951" gradientUnits="userSpaceOnUse">
<stop stop-color="#FFAC4B"/>
<stop offset="1" stop-color="#FCCA80"/>
</linearGradient>
<linearGradient id="paint16_linear_11056_6070" x1="-0.27851" y1="1.42983" x2="3.15415" y2="-0.40207" gradientUnits="userSpaceOnUse">
<stop stop-color="#05E0E0"/>
<stop offset="1" stop-color="#02C8C8"/>
</linearGradient>
<linearGradient id="paint17_linear_11056_6070" x1="10.1016" y1="5.86636" x2="11.4187" y2="5.86636" gradientUnits="userSpaceOnUse">
<stop stop-color="#D2D9EE"/>
<stop offset="1" stop-color="#E7F0F8"/>
</linearGradient>
<linearGradient id="paint18_linear_11056_6070" x1="10.1016" y1="19.0382" x2="11.4187" y2="19.0382" gradientUnits="userSpaceOnUse">
<stop stop-color="#D2D9EE"/>
<stop offset="1" stop-color="#E7F0F8"/>
</linearGradient>
<linearGradient id="paint19_linear_11056_6070" x1="18.0078" y1="12.4523" x2="19.3249" y2="12.4523" gradientUnits="userSpaceOnUse">
<stop stop-color="#D2D9EE"/>
<stop offset="1" stop-color="#E7F0F8"/>
</linearGradient>
<linearGradient id="paint20_linear_11056_6070" x1="4.94922" y1="12.4523" x2="6.26634" y2="12.4523" gradientUnits="userSpaceOnUse">
<stop stop-color="#D2D9EE"/>
<stop offset="1" stop-color="#E7F0F8"/>
</linearGradient>
<linearGradient id="paint21_linear_11056_6070" x1="10.543" y1="10.6961" x2="10.982" y2="10.6961" gradientUnits="userSpaceOnUse">
<stop stop-color="#05E0E0"/>
<stop offset="1" stop-color="#02C8C8"/>
</linearGradient>
<linearGradient id="paint22_linear_11056_6070" x1="10.4736" y1="7.30441" x2="11.5431" y2="7.37318" gradientUnits="userSpaceOnUse">
<stop stop-color="#FFAC4B"/>
<stop offset="1" stop-color="#FCCA80"/>
</linearGradient>
</defs>
</svg>
