<svg width="26" height="28" viewBox="0 0 26 28" fill="none" xmlns="http://www.w3.org/2000/svg">
<g id="Group 1000002389">
<path id="Subtract" fill-rule="evenodd" clip-rule="evenodd" d="M19.0984 13.6949C19.0939 13.6949 19.0893 13.6949 19.0848 13.6949C15.2324 13.6949 12.0709 10.7372 11.7469 6.96875H0.808594V27.6032H19.0984V13.6949Z" fill="url(#paint0_linear_11056_12254)"/>
<g id="Ellipse 2375">
<ellipse cx="19.075" cy="6.47358" rx="6.07108" ry="6.07123" fill="#D9D9D9"/>
<ellipse cx="19.075" cy="6.47358" rx="6.07108" ry="6.07123" fill="url(#paint1_linear_11056_12254)"/>
</g>
<g id="Vector">
<path d="M19.0091 8.71939H16.0878C15.8299 8.71939 15.6197 8.92525 15.6197 9.18115V9.54571C15.6197 9.63291 15.6922 9.70439 15.7806 9.70439H19.3163C19.4061 9.70439 19.4771 9.63291 19.4771 9.54571V9.18115C19.4771 8.92525 19.267 8.71939 19.0091 8.71939Z" fill="white"/>
<path d="M19.0091 8.71939H16.0878C15.8299 8.71939 15.6197 8.92525 15.6197 9.18115V9.54571C15.6197 9.63291 15.6922 9.70439 15.7806 9.70439H19.3163C19.4061 9.70439 19.4771 9.63291 19.4771 9.54571V9.18115C19.4771 8.92525 19.267 8.71939 19.0091 8.71939Z" fill="url(#paint2_linear_11056_12254)"/>
<path d="M22.5466 8.43473L19.4313 5.70462L18.8225 6.30539L21.589 9.37976C21.8489 9.67067 22.3024 9.68444 22.5798 9.41074C22.8571 9.13704 22.8414 8.68949 22.5466 8.43473Z" fill="white"/>
<path d="M22.5466 8.43473L19.4313 5.70462L18.8225 6.30539L21.589 9.37976C21.8489 9.67067 22.3024 9.68444 22.5798 9.41074C22.8571 9.13704 22.8414 8.68949 22.5466 8.43473Z" fill="url(#paint3_linear_11056_12254)"/>
<path d="M16.4495 5.11796L18.2298 3.36109L19.8932 5.00259L18.1129 6.75947L16.4495 5.11796Z" fill="white"/>
<path d="M16.4495 5.11796L18.2298 3.36109L19.8932 5.00259L18.1129 6.75947L16.4495 5.11796Z" fill="url(#paint4_linear_11056_12254)"/>
<path d="M20.0513 4.91689C20.2151 5.07854 20.4802 5.07855 20.644 4.91689C20.8078 4.75525 20.8078 4.49364 20.644 4.332L18.9133 2.6241C18.8315 2.54327 18.7237 2.50287 18.617 2.50393C18.5103 2.50287 18.4026 2.54327 18.3207 2.6241C18.1569 2.78575 18.1569 3.04735 18.3207 3.209L20.0513 4.91689Z" fill="white"/>
<path d="M20.0513 4.91689C20.2151 5.07854 20.4802 5.07855 20.644 4.91689C20.8078 4.75525 20.8078 4.49364 20.644 4.332L18.9133 2.6241C18.8315 2.54327 18.7237 2.50287 18.617 2.50393C18.5103 2.50287 18.4026 2.54327 18.3207 2.6241C18.1569 2.78575 18.1569 3.04735 18.3207 3.209L20.0513 4.91689Z" fill="url(#paint5_linear_11056_12254)"/>
<path d="M17.4316 7.50215C17.5954 7.66379 17.8605 7.66379 18.0243 7.50215C18.1881 7.34049 18.1881 7.07888 18.0243 6.91724L16.2937 5.20935C16.2118 5.12853 16.104 5.08812 15.9984 5.08812C15.8906 5.08812 15.7829 5.12853 15.701 5.20935C15.5372 5.37099 15.5372 5.6326 15.701 5.79424L17.4316 7.50215Z" fill="white"/>
<path d="M17.4316 7.50215C17.5954 7.66379 17.8605 7.66379 18.0243 7.50215C18.1881 7.34049 18.1881 7.07888 18.0243 6.91724L16.2937 5.20935C16.2118 5.12853 16.104 5.08812 15.9984 5.08812C15.8906 5.08812 15.7829 5.12853 15.701 5.20935C15.5372 5.37099 15.5372 5.6326 15.701 5.79424L17.4316 7.50215Z" fill="url(#paint6_linear_11056_12254)"/>
</g>
<rect id="Rectangle 39684" x="3.625" y="14.0039" width="12.6622" height="2.34483" rx="0.937935" fill="white"/>
<rect id="Rectangle 39685" x="3.625" y="18.2227" width="12.6622" height="2.34483" rx="0.937935" fill="white"/>
<rect id="Rectangle 39686" x="3.625" y="22.4414" width="12.6622" height="2.34483" rx="0.937935" fill="white"/>
</g>
<defs>
<linearGradient id="paint0_linear_11056_12254" x1="-2.04285" y1="29.1358" x2="32.674" y2="18.9129" gradientUnits="userSpaceOnUse">
<stop stop-color="#05E0E0"/>
<stop offset="1" stop-color="#02C8C8"/>
</linearGradient>
<linearGradient id="paint1_linear_11056_12254" x1="12.6081" y1="1.78898" x2="35.3299" y2="19.6918" gradientUnits="userSpaceOnUse">
<stop stop-color="#F9FBFF"/>
<stop offset="1" stop-color="#E2F1FA"/>
</linearGradient>
<linearGradient id="paint2_linear_11056_12254" x1="14.4404" y1="2.62775" x2="22.9972" y2="11.4302" gradientUnits="userSpaceOnUse">
<stop stop-color="#FFAC4B"/>
<stop offset="1" stop-color="#FCCA80"/>
</linearGradient>
<linearGradient id="paint3_linear_11056_12254" x1="14.4404" y1="2.62775" x2="22.9972" y2="11.4302" gradientUnits="userSpaceOnUse">
<stop stop-color="#FFAC4B"/>
<stop offset="1" stop-color="#FCCA80"/>
</linearGradient>
<linearGradient id="paint4_linear_11056_12254" x1="14.4404" y1="2.62775" x2="22.9972" y2="11.4302" gradientUnits="userSpaceOnUse">
<stop stop-color="#FFAC4B"/>
<stop offset="1" stop-color="#FCCA80"/>
</linearGradient>
<linearGradient id="paint5_linear_11056_12254" x1="14.4404" y1="2.62775" x2="22.9972" y2="11.4302" gradientUnits="userSpaceOnUse">
<stop stop-color="#FFAC4B"/>
<stop offset="1" stop-color="#FCCA80"/>
</linearGradient>
<linearGradient id="paint6_linear_11056_12254" x1="14.4404" y1="2.62775" x2="22.9972" y2="11.4302" gradientUnits="userSpaceOnUse">
<stop stop-color="#FFAC4B"/>
<stop offset="1" stop-color="#FCCA80"/>
</linearGradient>
</defs>
</svg>
