<svg width="32" height="32" viewBox="0 0 32 32" fill="none" xmlns="http://www.w3.org/2000/svg">
<path fill-rule="evenodd" clip-rule="evenodd" d="M20.3977 16.0023L20.3977 27.6023H7.99766C6.67217 27.6023 5.59766 26.5278 5.59766 25.2023V8.40234H14.11C14.0362 8.79104 13.9977 9.19219 13.9977 9.60234C13.9977 13.137 16.863 16.0023 20.3977 16.0023Z" fill="#D9D9D9"/>
<path fill-rule="evenodd" clip-rule="evenodd" d="M20.3977 16.0023L20.3977 27.6023H7.99766C6.67217 27.6023 5.59766 26.5278 5.59766 25.2023V8.40234H14.11C14.0362 8.79104 13.9977 9.19219 13.9977 9.60234C13.9977 13.137 16.863 16.0023 20.3977 16.0023Z" fill="url(#paint0_linear_11214_99565)"/>
<ellipse cx="20.4007" cy="9.60052" rx="5.59989" ry="5.60052" fill="#D9D9D9"/>
<ellipse cx="20.4007" cy="9.60052" rx="5.59989" ry="5.60052" fill="url(#paint1_linear_11214_99565)"/>
<circle cx="11.5704" cy="13.7853" r="1.78527" fill="white"/>
<path d="M23.1997 9.83231H20.6331M20.6331 9.83231H18.0664M20.6331 9.83231L20.6331 7.26562M20.6331 9.83231L20.6331 12.399" stroke="url(#paint2_linear_11214_99565)" stroke-width="1.18462" stroke-linecap="round"/>
<path fill-rule="evenodd" clip-rule="evenodd" d="M14.6599 17.4032C14.6571 17.4104 14.6544 17.4178 14.6519 17.4254L14.3067 18.4877C14.2635 18.6207 14.1396 18.7108 13.9998 18.7108H12.8827C12.5701 18.7108 12.4401 19.1108 12.693 19.2946L13.5968 19.9512C13.6901 20.019 13.7386 20.13 13.7285 20.2414C13.2169 20.3556 12.5199 20.4192 11.5705 20.4192C8 20.4192 8 19.52 8 18.4108C8 17.3015 9.59859 16.4023 11.5705 16.4023C12.8897 16.4023 14.0417 16.8047 14.6599 17.4032Z" fill="white"/>
<path d="M14.8223 17.8265C14.9028 17.5787 15.2534 17.5787 15.334 17.8265L15.6217 18.7122C15.6577 18.823 15.761 18.8981 15.8775 18.8981H16.8086C17.0692 18.8981 17.1775 19.2316 16.9667 19.3848L16.2135 19.9321C16.1192 20.0006 16.0797 20.1221 16.1157 20.2329L16.4035 21.1185C16.484 21.3664 16.2003 21.5725 15.9895 21.4193L15.2362 20.872C15.142 20.8035 15.0143 20.8035 14.92 20.872L14.1667 21.4193C13.9559 21.5725 13.6723 21.3664 13.7528 21.1185L14.0405 20.2329C14.0765 20.1221 14.0371 20.0006 13.9428 19.9321L13.1895 19.3848C12.9787 19.2316 13.0871 18.8981 13.3476 18.8981H14.2787C14.3953 18.8981 14.4986 18.823 14.5346 18.7122L14.8223 17.8265Z" fill="white"/>
<path d="M22.4008 25.3992C22.4008 26.6142 21.4158 27.5992 20.2008 27.5992C18.9858 27.5992 18.0008 26.6142 18.0008 25.3992C18.0008 24.1842 18.9858 23.1992 20.2008 23.1992C21.4158 23.1992 22.4008 24.1842 22.4008 25.3992Z" fill="url(#paint3_linear_11214_99565)"/>
<path d="M7.80078 27.5902C8.92208 27.4892 9.80078 26.5468 9.80078 25.3992C9.80078 24.2516 8.92208 23.3092 7.80078 23.2082V23.1992H20.4008V27.5992H7.80078V27.5902Z" fill="url(#paint4_linear_11214_99565)"/>
<defs>
<linearGradient id="paint0_linear_11214_99565" x1="2.3677" y1="29.0673" x2="32.3416" y2="21.0004" gradientUnits="userSpaceOnUse">
<stop stop-color="#05E0E0"/>
<stop offset="1" stop-color="#02C8C8"/>
</linearGradient>
<linearGradient id="paint1_linear_11214_99565" x1="14.4357" y1="5.27913" x2="35.3954" y2="21.7922" gradientUnits="userSpaceOnUse">
<stop stop-color="#F9FBFF"/>
<stop offset="1" stop-color="#E2F1FA"/>
</linearGradient>
<linearGradient id="paint2_linear_11214_99565" x1="16.1157" y1="6.77796" x2="28.3074" y2="13.6053" gradientUnits="userSpaceOnUse">
<stop stop-color="#FFAC4B"/>
<stop offset="1" stop-color="#FCCA80"/>
</linearGradient>
<linearGradient id="paint3_linear_11214_99565" x1="9.01745" y1="22.9242" x2="12.4346" y2="36.9188" gradientUnits="userSpaceOnUse">
<stop stop-color="#00C2C2"/>
<stop offset="1" stop-color="#00CCCC"/>
</linearGradient>
<linearGradient id="paint4_linear_11214_99565" x1="9.01745" y1="22.9242" x2="12.4346" y2="36.9188" gradientUnits="userSpaceOnUse">
<stop stop-color="#00C2C2"/>
<stop offset="1" stop-color="#00CCCC"/>
</linearGradient>
</defs>
</svg>
