<svg width="30" height="30" viewBox="0 0 30 30" fill="none" xmlns="http://www.w3.org/2000/svg">
<path d="M22.9354 2H7.06464C4.26752 2 2 4.26752 2 7.06464V22.9354C2 25.7325 4.26752 28 7.06464 28H22.9354C25.7325 28 28 25.7325 28 22.9354V7.06464C28 4.26752 25.7325 2 22.9354 2Z" fill="#49526A"/>
<path d="M14.2727 9.18182V12.0909C14.2727 12.6696 14.0429 13.2245 13.6337 13.6337C13.2245 14.0429 12.6696 14.2727 12.0909 14.2727H9.18182C8.60316 14.2727 8.04821 14.0429 7.63904 13.6337C7.22987 13.2245 7 12.6696 7 12.0909V9.18182C7 8.60316 7.22987 8.04821 7.63904 7.63904C8.04821 7.22987 8.60316 7 9.18182 7H12.0909C12.6696 7 13.2245 7.22987 13.6337 7.63904C14.0429 8.04821 14.2727 8.60316 14.2727 9.18182ZM20.8182 7H17.9091C17.3304 7 16.7755 7.22987 16.3663 7.63904C15.9571 8.04821 15.7273 8.60316 15.7273 9.18182V12.0909C15.7273 12.6696 15.9571 13.2245 16.3663 13.6337C16.7755 14.0429 17.3304 14.2727 17.9091 14.2727H20.8182C21.3968 14.2727 21.9518 14.0429 22.361 13.6337C22.7701 13.2245 23 12.6696 23 12.0909V9.18182C23 8.60316 22.7701 8.04821 22.361 7.63904C21.9518 7.22987 21.3968 7 20.8182 7ZM12.0909 15.7273H9.18182C8.60316 15.7273 8.04821 15.9571 7.63904 16.3663C7.22987 16.7755 7 17.3304 7 17.9091V20.8182C7 21.3968 7.22987 21.9518 7.63904 22.361C8.04821 22.7701 8.60316 23 9.18182 23H12.0909C12.6696 23 13.2245 22.7701 13.6337 22.361C14.0429 21.9518 14.2727 21.3968 14.2727 20.8182V17.9091C14.2727 17.3304 14.0429 16.7755 13.6337 16.3663C13.2245 15.9571 12.6696 15.7273 12.0909 15.7273ZM20.8182 15.7273H17.9091C17.3304 15.7273 16.7755 15.9571 16.3663 16.3663C15.9571 16.7755 15.7273 17.3304 15.7273 17.9091V20.8182C15.7273 21.3968 15.9571 21.9518 16.3663 22.361C16.7755 22.7701 17.3304 23 17.9091 23H20.8182C21.3968 23 21.9518 22.7701 22.361 22.361C22.7701 21.9518 23 21.3968 23 20.8182V17.9091C23 17.3304 22.7701 16.7755 22.361 16.3663C21.9518 15.9571 21.3968 15.7273 20.8182 15.7273Z" fill="url(#paint0_linear_15434_16145)"/>
<defs>
<linearGradient id="paint0_linear_15434_16145" x1="26.2" y1="26.7333" x2="0.600013" y2="1.66665" gradientUnits="userSpaceOnUse">
<stop stop-color="#9396AE"/>
<stop offset="1" stop-color="#C7CBD2"/>
</linearGradient>
</defs>
</svg>
