<svg width="24" height="23" viewBox="0 0 24 23" fill="none" xmlns="http://www.w3.org/2000/svg">
<g id="Group 1000002308">
<path id="Vector" d="M17.7217 0.6875H6.40723C3.01289 0.6875 0.75 2.95039 0.75 6.34473V13.1334C0.75 16.5277 3.01289 18.7906 6.40723 18.7906V21.2006C6.40723 22.1058 7.41421 22.6489 8.16097 22.1397L13.1959 18.7906H17.7217C21.116 18.7906 23.3789 16.5277 23.3789 13.1334V6.34473C23.3789 2.95039 21.116 0.6875 17.7217 0.6875Z" fill="#49526A"/>
<g id="Group 1000002305">
<path id="Vector_2" d="M11.2942 15.8032C11.8601 15.8032 12.3188 15.3444 12.3188 14.7785C12.3188 14.2127 11.8601 13.7539 11.2942 13.7539C10.7283 13.7539 10.2695 14.2127 10.2695 14.7785C10.2695 15.3444 10.7283 15.8032 11.2942 15.8032Z" fill="url(#paint0_linear_15434_60234)"/>
<path id="Vector_3" d="M14.585 7.51126C14.585 9.06871 13.4374 9.84743 13.0139 10.1343C12.4811 10.4895 12.3171 10.7218 12.3171 11.1043V11.3912C12.3171 11.9514 11.8526 12.4159 11.2925 12.4159C10.7324 12.4159 10.2679 11.9514 10.2679 11.3912V11.1043C10.2679 9.51955 11.4291 8.74082 11.8663 8.44026C12.3718 8.09872 12.5357 7.86646 12.5357 7.51126C12.5357 6.82816 11.9756 6.26803 11.2925 6.26803C10.6094 6.26803 10.0493 6.82816 10.0493 7.51126C10.0493 8.07139 9.58477 8.53589 9.02464 8.53589C8.4645 8.53589 8 8.07139 8 7.51126C8 5.69423 9.47548 4.21875 11.2925 4.21875C13.1095 4.21875 14.585 5.69423 14.585 7.51126Z" fill="url(#paint1_linear_15434_60234)"/>
</g>
</g>
<defs>
<linearGradient id="paint0_linear_15434_60234" x1="12.3022" y1="14.5793" x2="10.2033" y2="14.5793" gradientUnits="userSpaceOnUse">
<stop stop-color="#9396AE"/>
<stop offset="1" stop-color="#C7CBD2"/>
</linearGradient>
<linearGradient id="paint1_linear_15434_60234" x1="14.5316" y1="7.52015" x2="7.78713" y2="7.52015" gradientUnits="userSpaceOnUse">
<stop stop-color="#9396AE"/>
<stop offset="1" stop-color="#C7CBD2"/>
</linearGradient>
</defs>
</svg>
