<svg width="27" height="27" viewBox="0 0 27 27" fill="none" xmlns="http://www.w3.org/2000/svg">
<g id="Group 1000001981">
<path id="Vector" d="M26.0048 10.1178C25.9161 8.86847 25.4224 7.79039 24.427 6.99846C23.8285 6.5229 23.2118 6.06346 22.565 5.66044C20.3766 4.29823 18.1781 2.95215 15.9676 1.62621C14.4039 0.687178 12.7938 0.602544 11.1777 1.51941C10.3072 2.01311 9.43665 2.50681 8.58628 3.03477C6.79687 4.1471 5.01149 5.26346 3.24828 6.41408C2.18633 7.10728 1.32588 8.00399 1.07802 9.30373C0.934952 10.0614 0.850318 10.8392 0.836212 11.609C0.801956 13.7107 0.812031 15.8105 0.822107 17.9082C0.830167 19.3913 0.844273 20.8785 1.1546 22.3394C1.54351 24.1731 2.59338 25.4104 4.4654 25.7953C5.39436 25.9867 6.35355 26.1036 7.30064 26.1258C9.45478 26.1741 13.7671 26.1661 13.7671 26.1782C15.2039 26.1782 16.6426 26.2124 18.0774 26.1681C19.3872 26.1278 20.7071 26.0774 22.0028 25.9001C24.1227 25.6099 25.364 24.4008 25.7771 22.3132C25.9342 21.5193 26.035 20.7052 26.0551 19.8971C26.1096 17.7329 26.1196 15.5687 26.1176 13.4024C26.1176 12.3062 26.0793 11.21 26.0028 10.1178H26.0048Z" fill="#49526A"/>
<path id="Vector_2" d="M18.0896 19.1992H8.84432C8.23779 19.1992 7.74609 19.6909 7.74609 20.2974V20.3196C7.74609 20.9261 8.23779 21.4178 8.84432 21.4178H18.0896C18.6961 21.4178 19.1878 20.9261 19.1878 20.3196V20.2974C19.1878 19.6909 18.6961 19.1992 18.0896 19.1992Z" fill="url(#paint0_linear_15442_68979)"/>
</g>
<defs>
<linearGradient id="paint0_linear_15442_68979" x1="19.095" y1="20.0928" x2="7.37622" y2="20.0928" gradientUnits="userSpaceOnUse">
<stop stop-color="#9396AE"/>
<stop offset="1" stop-color="#C7CBD2"/>
</linearGradient>
</defs>
</svg>
