<svg width="27" height="27" viewBox="0 0 27 27" fill="none" xmlns="http://www.w3.org/2000/svg">
<g id="Group 1000001982">
<path id="Vector" d="M21.2577 0.8125H5.80595C3.08266 0.8125 0.875 3.02016 0.875 5.74345V21.1952C0.875 23.9185 3.08266 26.1262 5.80595 26.1262H21.2577C23.981 26.1262 26.1887 23.9185 26.1887 21.1952V5.74345C26.1887 3.02016 23.981 0.8125 21.2577 0.8125Z" fill="#49526A"/>
<g id="Group">
<path id="Vector_2" d="M14.1155 9.95104C14.1115 12.2986 12.2173 14.1787 9.86365 14.1727C7.53621 14.1666 5.66217 12.2583 5.66016 9.90671C5.66016 7.82108 7.30851 5.73142 9.8294 5.70724C12.4107 5.68306 14.1337 7.76264 14.1155 9.95104ZM9.8959 12.3631V12.3671C9.93217 12.3671 9.96844 12.3671 10.0047 12.3671C10.2022 12.3591 10.2526 12.3107 10.2647 12.1193C10.2707 12.0347 10.2727 11.948 10.2727 11.8634C10.2727 11.7727 10.309 11.7324 10.4037 11.7143C10.71 11.6578 10.9921 11.545 11.2017 11.2971C11.4858 10.9626 11.4757 10.5133 11.1533 10.215C11.0062 10.08 10.8329 9.96514 10.6536 9.87648C10.3634 9.73341 10.0571 9.62459 9.7629 9.48958C9.58759 9.40898 9.4163 9.3183 9.25711 9.20948C9.14225 9.13089 9.14426 9.00999 9.25912 8.92737C9.35182 8.86289 9.46467 8.80042 9.57348 8.78833C9.94829 8.74198 10.3171 8.76415 10.6657 8.9455C10.7301 8.97976 10.841 8.96364 10.9135 8.93341C10.9881 8.90319 11.0465 8.82863 11.107 8.76818C11.2259 8.64525 11.2319 8.56868 11.0888 8.48606C10.8732 8.36113 10.6435 8.25634 10.4097 8.17171C10.309 8.13543 10.2687 8.10118 10.2707 8.00042C10.2707 7.90168 10.2707 7.80093 10.2566 7.7042C10.2485 7.65181 10.2183 7.57524 10.178 7.55912C10.0027 7.48657 9.81328 7.48254 9.63595 7.54904C9.50295 7.59942 9.54124 7.74854 9.51303 7.85735C9.50698 7.88355 9.50295 7.91176 9.50497 7.93795C9.52713 8.09513 9.44854 8.15559 9.30144 8.18783C9.02739 8.24626 8.78356 8.37523 8.60422 8.59689C8.4289 8.81452 8.35838 9.05835 8.46115 9.32837C8.56593 9.60646 8.78356 9.78177 9.04351 9.89865C9.29338 10.0115 9.55131 10.1062 9.80119 10.219C10.039 10.3258 10.2808 10.4286 10.5045 10.5616C10.706 10.6805 10.6838 10.8981 10.4762 11.009C10.4299 11.0331 10.3775 11.0533 10.3251 11.0654C9.86769 11.1641 9.41832 11.148 8.99515 10.9324C8.82588 10.8457 8.70094 10.8558 8.58004 10.9949C8.56593 11.011 8.54578 11.0251 8.52966 11.0412C8.3221 11.2367 8.32613 11.2971 8.57601 11.4462C8.80976 11.5873 9.05761 11.6941 9.33167 11.7203C9.45862 11.7324 9.51504 11.7787 9.50497 11.9117C9.49892 12.0004 9.52109 12.0911 9.53318 12.1797C9.5493 12.2946 9.61781 12.3551 9.73267 12.3631C9.78708 12.3671 9.84149 12.3631 9.89388 12.3631H9.8959Z" fill="url(#paint0_linear_15442_49059)"/>
<path id="Vector_3" d="M17.4853 6.62533C17.6949 6.66765 17.8863 6.69989 18.0717 6.74422C19.0833 6.97999 19.9034 7.4878 20.4112 8.4228C20.8545 9.24093 20.8948 10.1054 20.6651 10.9941C20.5039 11.6248 20.1855 12.1769 19.8107 12.7009C19.7865 12.7351 19.7543 12.7674 19.7261 12.7996L19.6858 12.7875C19.714 12.6384 19.7422 12.4893 19.7684 12.3381C19.8712 11.7155 19.8994 11.0868 19.7704 10.4701C19.6394 9.83337 19.2727 9.32758 18.7387 8.95277C18.2168 8.58804 17.6243 8.41474 16.9855 8.31197C16.9855 8.54169 16.9855 8.76134 16.9855 8.98098C16.9855 9.09383 16.9755 9.20466 16.8626 9.2772C16.774 9.33564 16.7095 9.33967 16.6269 9.26108C16.1674 8.8097 15.6999 8.36436 15.2425 7.91097C14.91 7.58049 14.5856 7.24195 14.2611 6.90342C14.0939 6.7281 14.1261 6.59511 14.3619 6.51853C14.64 6.42785 14.9221 6.35128 15.2062 6.28075C15.9619 6.09335 16.7195 5.91602 17.4772 5.73063C17.5901 5.70242 17.6566 5.75279 17.7251 5.82332C17.7956 5.89385 17.7835 5.96841 17.7472 6.047C17.6626 6.2344 17.578 6.42181 17.4853 6.62735V6.62533Z" fill="url(#paint1_linear_15442_49059)"/>
<path id="Vector_4" d="M9.60902 20.5549C9.47199 20.5267 9.36116 20.5025 9.24832 20.4824C8.4584 20.3312 7.72894 20.0491 7.16471 19.4486C6.41509 18.6486 6.15716 17.6894 6.32038 16.6134C6.44532 15.7872 6.80803 15.0638 7.31987 14.4109C7.338 14.3887 7.36219 14.3706 7.41458 14.3242C7.37025 14.5318 7.33196 14.701 7.29972 14.8723C7.16874 15.5917 7.14657 16.3071 7.39644 17.0063C7.69871 17.8486 8.34152 18.3343 9.14958 18.6305C9.40147 18.7232 9.67149 18.7655 9.93144 18.836C10.0544 18.8683 10.0806 18.8159 10.0806 18.7071C10.0806 18.5035 10.0806 18.3 10.0967 18.0985C10.1027 18.032 10.1531 17.9615 10.2015 17.9091C10.278 17.8285 10.3566 17.8305 10.4433 17.9171C11.2271 18.701 12.0171 19.4788 12.8009 20.2647C12.9803 20.4441 12.94 20.5912 12.6921 20.6637C12.2206 20.8007 11.747 20.9257 11.2715 21.0446C10.7516 21.1756 10.2297 21.2924 9.70776 21.4133C9.6594 21.4254 9.60902 21.4295 9.56066 21.4315C9.34504 21.4416 9.25436 21.3146 9.34303 21.1111C9.4196 20.9337 9.50827 20.7625 9.60902 20.5509V20.5549Z" fill="url(#paint2_linear_15442_49059)"/>
<path id="Vector_5" d="M17.1408 12.9923C14.6803 13.0064 12.9413 15.0456 12.9493 17.1958C12.9312 19.5111 14.8113 21.4295 17.1125 21.4577C19.4581 21.4859 21.3745 19.6199 21.4027 17.3026C21.4309 14.9086 19.5488 12.9782 17.1387 12.9923H17.1408Z" fill="url(#paint3_linear_15442_49059)"/>
</g>
</g>
<defs>
<linearGradient id="paint0_linear_15442_49059" x1="18.6854" y1="5.49829" x2="4.15411" y2="15.8108" gradientUnits="userSpaceOnUse">
<stop stop-color="#9396AE"/>
<stop offset="1" stop-color="#C7CBD2"/>
</linearGradient>
<linearGradient id="paint1_linear_15442_49059" x1="20.7489" y1="8.5729" x2="6.96753" y2="17.6868" gradientUnits="userSpaceOnUse">
<stop stop-color="#9396AE"/>
<stop offset="1" stop-color="#C7CBD2"/>
</linearGradient>
<linearGradient id="paint2_linear_15442_49059" x1="20.5639" y1="9.24855" x2="6.05885" y2="17.1869" gradientUnits="userSpaceOnUse">
<stop stop-color="#9396AE"/>
<stop offset="1" stop-color="#C7CBD2"/>
</linearGradient>
<linearGradient id="paint3_linear_15442_49059" x1="24.3128" y1="10.6558" x2="8.844" y2="21.437" gradientUnits="userSpaceOnUse">
<stop stop-color="#9396AE"/>
<stop offset="1" stop-color="#C7CBD2"/>
</linearGradient>
</defs>
</svg>
