<svg width="25" height="25" viewBox="0 0 25 25" fill="none" xmlns="http://www.w3.org/2000/svg">
<g id="Grid">
<path id="Vector" d="M9.26235 0.500052C4.38955 0.483687 0.513674 4.29964 0.500036 9.12891C0.486398 13.8914 4.34999 17.7741 9.11506 17.7823C13.8651 17.7919 17.7655 13.9364 17.7805 9.21484C17.7955 4.44694 13.9551 0.516418 9.26235 0.500052Z" fill="#49526A"/>
<g id="Vector_2">
<path d="M11.3005 5.98819C11.3005 7.18116 10.3334 8.14825 9.14046 8.14825C7.94748 8.14825 6.98039 7.18116 6.98039 5.98819C6.98039 4.79522 7.94748 3.82812 9.14046 3.82812C10.3334 3.82812 11.3005 4.79522 11.3005 5.98819Z" fill="#17112D"/>
<path d="M11.3005 5.98819C11.3005 7.18116 10.3334 8.14825 9.14046 8.14825C7.94748 8.14825 6.98039 7.18116 6.98039 5.98819C6.98039 4.79522 7.94748 3.82812 9.14046 3.82812C10.3334 3.82812 11.3005 4.79522 11.3005 5.98819Z" fill="url(#paint0_linear_15442_49043)"/>
<path d="M13.4606 12.1984C13.4606 13.5405 13.4606 14.6284 9.14046 14.6284C4.82031 14.6284 4.82031 13.5405 4.82031 12.1984C4.82031 10.8563 6.75451 9.7683 9.14046 9.7683C11.5264 9.7683 13.4606 10.8563 13.4606 12.1984Z" fill="#17112D"/>
<path d="M13.4606 12.1984C13.4606 13.5405 13.4606 14.6284 9.14046 14.6284C4.82031 14.6284 4.82031 13.5405 4.82031 12.1984C4.82031 10.8563 6.75451 9.7683 9.14046 9.7683C11.5264 9.7683 13.4606 10.8563 13.4606 12.1984Z" fill="url(#paint1_linear_15442_49043)"/>
</g>
<path id="Vector_3" d="M20.8184 9.61888L22.8984 7.53889M20.8184 9.61888L18.7384 7.53889M20.8184 9.61888L20.8184 5.4589C20.8184 4.76557 20.4024 3.37891 18.7384 3.37891" stroke="#9396AE" stroke-width="0.959998" stroke-linecap="round" stroke-linejoin="round"/>
<path id="Vector_4" d="M8.49875 19.6991L7.21875 20.9791M8.49875 19.6991L9.77875 20.9791M8.49875 19.6991L8.49875 22.2591C8.49875 22.6857 8.75475 23.5391 9.77875 23.5391" stroke="#9396AE" stroke-width="0.959998" stroke-linecap="round" stroke-linejoin="round"/>
<path id="Subtract" d="M12.0254 17.9944C14.942 17.236 17.2512 14.9335 18.0011 12.0274C18.1158 12.0218 18.2313 12.0192 18.3477 12.0196C21.7368 12.0314 24.5103 14.87 24.4995 18.3133C24.4887 21.7232 21.6718 24.5076 18.2413 24.5007C14.8 24.4948 12.0097 21.6907 12.0196 18.2513C12.0198 18.1652 12.0217 18.0796 12.0254 17.9944Z" fill="#49526A"/>
<g id="Vector_5">
<path d="M19.6444 16.8749C19.6444 17.6408 19.0235 18.2616 18.2577 18.2616C17.4919 18.2616 16.871 17.6408 16.871 16.8749C16.871 16.1091 17.4919 15.4883 18.2577 15.4883C19.0235 15.4883 19.6444 16.1091 19.6444 16.8749Z" fill="#17112D"/>
<path d="M19.6444 16.8749C19.6444 17.6408 19.0235 18.2616 18.2577 18.2616C17.4919 18.2616 16.871 17.6408 16.871 16.8749C16.871 16.1091 17.4919 15.4883 18.2577 15.4883C19.0235 15.4883 19.6444 16.1091 19.6444 16.8749Z" fill="url(#paint2_linear_15442_49043)"/>
<path d="M21.031 20.8616C21.031 21.7232 21.031 22.4216 18.2577 22.4216C15.4844 22.4216 15.4844 21.7232 15.4844 20.8616C15.4844 20 16.726 19.3016 18.2577 19.3016C19.7894 19.3016 21.031 20 21.031 20.8616Z" fill="#17112D"/>
<path d="M21.031 20.8616C21.031 21.7232 21.031 22.4216 18.2577 22.4216C15.4844 22.4216 15.4844 21.7232 15.4844 20.8616C15.4844 20 16.726 19.3016 18.2577 19.3016C19.7894 19.3016 21.031 20 21.031 20.8616Z" fill="url(#paint3_linear_15442_49043)"/>
</g>
</g>
<defs>
<linearGradient id="paint0_linear_15442_49043" x1="13.3905" y1="8.17797" x2="4.541" y2="8.17797" gradientUnits="userSpaceOnUse">
<stop stop-color="#9396AE"/>
<stop offset="1" stop-color="#C7CBD2"/>
</linearGradient>
<linearGradient id="paint1_linear_15442_49043" x1="13.3905" y1="8.17797" x2="4.541" y2="8.17797" gradientUnits="userSpaceOnUse">
<stop stop-color="#9396AE"/>
<stop offset="1" stop-color="#C7CBD2"/>
</linearGradient>
<linearGradient id="paint2_linear_15442_49043" x1="20.986" y1="18.2807" x2="15.3051" y2="18.2807" gradientUnits="userSpaceOnUse">
<stop stop-color="#9396AE"/>
<stop offset="1" stop-color="#C7CBD2"/>
</linearGradient>
<linearGradient id="paint3_linear_15442_49043" x1="20.986" y1="18.2807" x2="15.3051" y2="18.2807" gradientUnits="userSpaceOnUse">
<stop stop-color="#9396AE"/>
<stop offset="1" stop-color="#C7CBD2"/>
</linearGradient>
</defs>
</svg>
