<svg width="30" height="30" viewBox="0 0 30 30" fill="none" xmlns="http://www.w3.org/2000/svg">
<path d="M22.3827 3H6.93095C4.20766 3 2 5.20766 2 7.93095V23.3827C2 26.106 4.20766 28.3137 6.93095 28.3137H22.3827C25.106 28.3137 27.3137 26.106 27.3137 23.3827V7.93095C27.3137 5.20766 25.106 3 22.3827 3Z" fill="#49526A"/>
<path fill-rule="evenodd" clip-rule="evenodd" d="M16.1876 10.1787L16.1876 12.6423C16.1875 12.7319 16.1873 12.8597 16.2033 12.9693C16.2228 13.1034 16.287 13.3623 16.5365 13.5196C16.7767 13.6712 17.0118 13.6149 17.1235 13.5776C17.2209 13.5451 17.3276 13.4904 17.4073 13.4497L18.2501 13.0196L19.093 13.4497C19.1726 13.4904 19.2794 13.5451 19.3768 13.5776C19.4885 13.6149 19.7235 13.6712 19.9638 13.5196C20.2133 13.3623 20.2775 13.1034 20.297 12.9693C20.3129 12.8597 20.3128 12.7319 20.3127 12.6423L20.3126 9.01185C20.3972 9.00757 20.4803 9.00396 20.5615 9.00092C21.3653 8.97084 22 9.68013 22 10.5442V19.5765C22 20.4716 21.3205 21.1959 20.4889 21.2518C19.7618 21.3006 18.9075 21.3962 18.25 21.5826C17.4389 21.8125 16.4703 22.3102 15.7207 22.7395C15.5114 22.8593 15.2898 22.9461 15.0626 22.9999V10.7381C15.3032 10.6748 15.5368 10.575 15.7554 10.4391C15.8936 10.3532 16.0385 10.2655 16.1876 10.1787ZM20.2958 16.8972C20.3712 17.2209 20.1879 17.549 19.8866 17.63L16.8866 18.4357C16.5852 18.5166 16.2798 18.3198 16.2044 17.996C16.1291 17.6722 16.3123 17.3441 16.6137 17.2632L19.6137 16.4575C19.9151 16.3765 20.2205 16.5734 20.2958 16.8972Z" fill="url(#paint0_linear_15434_60223)"/>
<path fill-rule="evenodd" clip-rule="evenodd" d="M13.9376 10.7704C13.687 10.7193 13.442 10.6285 13.2117 10.4977C12.4721 10.0776 11.5369 9.60243 10.75 9.37936C10.0851 9.19088 9.21908 9.09531 8.4868 9.04696C7.66473 8.99268 7 9.71146 7 10.5963V19.5765C7 20.4716 7.67953 21.1959 8.51114 21.2518C9.23821 21.3006 10.0925 21.3962 10.75 21.5826C11.5611 21.8125 12.5297 22.3102 13.2793 22.7395C13.4887 22.8594 13.7104 22.9462 13.9376 23V10.7704ZM8.70443 13.6743C8.77977 13.3505 9.08517 13.1537 9.38656 13.2346L12.3866 14.0403C12.6879 14.1213 12.8712 14.4494 12.7958 14.7731C12.7205 15.0969 12.4151 15.2938 12.1137 15.2128L9.11371 14.4071C8.81232 14.3262 8.62908 13.9981 8.70443 13.6743ZM9.38656 16.4575C9.08517 16.3765 8.77977 16.5734 8.70443 16.8972C8.62908 17.2209 8.81232 17.549 9.11371 17.63L12.1137 18.4357C12.4151 18.5166 12.7205 18.3198 12.7958 17.996C12.8712 17.6722 12.6879 17.3441 12.3866 17.2632L9.38656 16.4575Z" fill="url(#paint1_linear_15434_60223)"/>
<path d="M19.1876 9.10829C18.7226 9.16735 18.2655 9.25379 17.875 9.37936C17.6939 9.43762 17.5048 9.51147 17.3126 9.59606V9.75206V12.16L17.8746 11.8732L17.8812 11.8696C17.918 11.8494 18.0729 11.7644 18.2501 11.7644C18.2858 11.7644 18.3205 11.7678 18.3536 11.7735C18.4849 11.796 18.5897 11.8535 18.619 11.8696L18.6256 11.8732L19.1876 12.16V9.50764V9.10829Z" fill="url(#paint2_linear_15434_60223)"/>
<defs>
<linearGradient id="paint0_linear_15434_60223" x1="21.8783" y1="14.6385" x2="6.5151" y2="14.6385" gradientUnits="userSpaceOnUse">
<stop stop-color="#9396AE"/>
<stop offset="1" stop-color="#C7CBD2"/>
</linearGradient>
<linearGradient id="paint1_linear_15434_60223" x1="21.8783" y1="14.6385" x2="6.5151" y2="14.6385" gradientUnits="userSpaceOnUse">
<stop stop-color="#9396AE"/>
<stop offset="1" stop-color="#C7CBD2"/>
</linearGradient>
<linearGradient id="paint2_linear_15434_60223" x1="21.8783" y1="14.6385" x2="6.5151" y2="14.6385" gradientUnits="userSpaceOnUse">
<stop stop-color="#9396AE"/>
<stop offset="1" stop-color="#C7CBD2"/>
</linearGradient>
</defs>
</svg>
