<svg width="20" height="24" viewBox="0 0 20 24" fill="none" xmlns="http://www.w3.org/2000/svg">
<g id="Group 1000002309">
<path id="Vector" d="M3.66699 0.75H16.4891C18.1677 0.75 19.5311 2.11338 19.5311 3.79199V16.2358H0.625V3.79199C0.625 2.11338 1.98838 0.75 3.66699 0.75Z" fill="#49526A"/>
<path id="Vector_2" d="M0.625 17.0547H19.5389V20.144C19.5389 21.8226 18.1756 23.186 16.497 23.186H3.66699C1.98838 23.186 0.625 21.8226 0.625 20.144V17.0547Z" fill="#49526A"/>
<path id="Vector_3" d="M16.1177 4.57031H4.04431C3.46108 4.57031 2.98828 5.04311 2.98828 5.62634C2.98828 6.20957 3.46108 6.68237 4.04431 6.68237H16.1177C16.7009 6.68237 17.1737 6.20957 17.1737 5.62634C17.1737 5.04311 16.7009 4.57031 16.1177 4.57031Z" fill="url(#paint0_linear_15434_60214)"/>
<path id="Vector_4" d="M12.1931 8.63281H4.04431C3.46108 8.63281 2.98828 9.10561 2.98828 9.68884C2.98828 10.2721 3.46108 10.7449 4.04431 10.7449H12.1931C12.7763 10.7449 13.2491 10.2721 13.2491 9.68884C13.2491 9.10561 12.7763 8.63281 12.1931 8.63281Z" fill="url(#paint1_linear_15434_60214)"/>
</g>
<defs>
<linearGradient id="paint0_linear_15434_60214" x1="17.0586" y1="5.42095" x2="2.52971" y2="5.42095" gradientUnits="userSpaceOnUse">
<stop stop-color="#9396AE"/>
<stop offset="1" stop-color="#C7CBD2"/>
</linearGradient>
<linearGradient id="paint1_linear_15434_60214" x1="13.1658" y1="9.48345" x2="2.65658" y2="9.48345" gradientUnits="userSpaceOnUse">
<stop stop-color="#9396AE"/>
<stop offset="1" stop-color="#C7CBD2"/>
</linearGradient>
</defs>
</svg>
