<svg width="32" height="32" viewBox="0 0 32 32" fill="none" xmlns="http://www.w3.org/2000/svg">
<path d="M23.8528 13.7753C21.4675 13.7753 20.4923 12.0885 21.6784 10.0195C22.3636 8.82027 21.9551 7.29158 20.7559 6.60631L18.476 5.30165C17.4349 4.68227 16.0907 5.05127 15.4714 6.09235L15.3264 6.34274C14.1404 8.41174 12.19 8.41174 10.9907 6.34274L10.8458 6.09235C10.2527 5.05127 8.90855 4.68227 7.86747 5.30165L5.58761 6.60631C4.38839 7.29158 3.97986 8.83345 4.66513 10.0327C5.86436 12.0885 4.88916 13.7753 2.50388 13.7753C1.13334 13.7753 0 14.8955 0 16.2792V18.5986C0 19.9691 1.12016 21.1025 2.50388 21.1025C4.88916 21.1025 5.86436 22.7893 4.66513 24.8583C3.97986 26.0575 4.38839 27.5862 5.58761 28.2715L7.86747 29.5761C8.90855 30.1955 10.2527 29.8265 10.8721 28.7855L11.0171 28.5351C12.2031 26.4661 14.1535 26.4661 15.3528 28.5351L15.4977 28.7855C16.1171 29.8265 17.4613 30.1955 18.5024 29.5761L20.7822 28.2715C21.9815 27.5862 22.39 26.0444 21.7047 24.8583C20.5055 22.7893 21.4807 21.1025 23.866 21.1025C25.2365 21.1025 26.3699 19.9823 26.3699 18.5986V16.2792C26.3567 14.9087 25.2365 13.7753 23.8528 13.7753Z" fill="#49526A"/>
<circle cx="13.5" cy="17.5" r="3.5" fill="white"/>
<path d="M30.2729 9.66757L30.273 9.66756L30.2677 9.66356C29.6654 9.20072 29.35 8.55193 29.35 7.894V6.5C29.35 4.45593 27.9072 2.81616 26.027 2.23375C25.892 1.47167 25.1866 1 24.5 1C23.8134 1 23.108 1.47165 22.9731 2.23369C21.0924 2.81608 19.65 4.45597 19.65 6.5V7.894C19.65 8.55093 19.3354 9.20013 18.7272 9.66765L18.7272 9.66763L18.7224 9.67132C18.2819 10.0142 18 10.5398 18 11.125C18 12.2473 18.9713 13 19.9625 13H21.5824C21.9899 14.2051 23.1888 15 24.5001 15C25.8114 15 27.0103 14.2051 27.4178 13H29.0375C30.0287 13 31 12.2473 31 11.125C31 10.5359 30.7149 10.0118 30.2729 9.66757Z" fill="url(#paint0_linear_15456_91615)" stroke="white" stroke-width="2"/>
<defs>
<linearGradient id="paint0_linear_15456_91615" x1="29.9107" y1="6.83302" x2="18.6444" y2="6.83302" gradientUnits="userSpaceOnUse">
<stop stop-color="#9396AE"/>
<stop offset="1" stop-color="#C7CBD2"/>
</linearGradient>
</defs>
</svg>
