<svg width="120" height="127" viewBox="0 0 120 127" fill="none" xmlns="http://www.w3.org/2000/svg">
<path d="M30.6484 13.0428C30.6484 9.98256 33.2068 7.50171 36.3627 7.50171H79.2199C82.3758 7.50171 84.9341 9.98256 84.9341 13.0428V93.3892C84.9341 96.4494 82.3758 98.9303 79.2199 98.9303H36.3627C33.2068 98.9303 30.6484 96.4494 30.6484 93.3892V13.0428Z" fill="url(#paint0_linear_15368_21275)"/>
<path d="M50.6484 10.2723H64.9342V13.0428H50.6484V10.2723Z" fill="url(#paint1_linear_15368_21275)"/>
<path d="M13.125 42.8195V31.4673L32.1712 23.8085L51.2174 31.4673V42.8195C51.2174 53.3354 43.2349 63.4274 32.1712 66.1316C21.1075 63.4274 13.125 53.3354 13.125 42.8195Z" fill="#59CACA" stroke="white" stroke-width="3.75"/>
<path d="M39.978 42.6729V49.0013C39.978 50.0862 38.729 51.1711 37.2718 51.1711H25.8223C24.5733 51.1711 23.3242 50.0862 23.3242 48.8205V42.4921C23.3242 41.4072 24.5733 40.3223 25.8223 40.3223V37.6102C25.8223 35.0788 28.7367 33.0898 31.6511 33.0898C34.5655 33.0898 37.4799 35.0788 37.4799 37.6102V40.3223C38.729 40.3223 39.978 41.4072 39.978 42.6729ZM34.7737 37.6102C34.7737 36.1637 33.3165 35.2596 31.6511 35.2596C29.9857 35.2596 28.5285 36.1637 28.5285 37.6102V40.3223H34.7737V37.6102Z" fill="white"/>
<g filter="url(#filter0_d_15368_21275)">
<path d="M64.9326 93.2174C64.9326 82.1721 73.8868 73.2168 84.9332 73.2168C89.8809 73.2168 94.4093 75.0137 97.9016 77.992C102.205 81.6603 104.933 87.1198 104.933 93.2174C104.933 104.263 95.9785 113.217 84.9332 113.217C82.1814 113.217 79.5593 112.661 77.1729 111.655C69.9807 108.625 64.9326 101.511 64.9326 93.2174Z" fill="white"/>
<path fill-rule="evenodd" clip-rule="evenodd" d="M67.8994 93.2126C67.8994 83.8032 75.5277 76.1743 84.9384 76.1743C89.1534 76.1743 93.0113 77.7051 95.9865 80.2423C99.6522 83.3672 101.976 88.0181 101.976 93.2126C101.976 102.622 94.3481 110.25 84.9384 110.25C82.5941 110.25 80.3603 109.776 78.3271 108.92C72.2 106.338 67.8994 100.278 67.8994 93.2126ZM90.6955 101.783L93.5049 98.9747L87.7448 93.216L93.5049 87.4573L90.6955 84.6486L84.9355 90.4073L79.1714 84.6446L76.362 87.4533L82.1261 93.216L76.362 98.9787L79.1714 101.787L84.9355 96.0247L90.6955 101.783Z" fill="#FF5858"/>
</g>
<defs>
<filter id="filter0_d_15368_21275" x="56.037" y="66.7091" width="62.5715" height="62.5715" filterUnits="userSpaceOnUse" color-interpolation-filters="sRGB">
<feFlood flood-opacity="0" result="BackgroundImageFix"/>
<feColorMatrix in="SourceAlpha" type="matrix" values="0 0 0 0 0 0 0 0 0 0 0 0 0 0 0 0 0 0 127 0" result="hardAlpha"/>
<feOffset dx="2.3894" dy="4.77881"/>
<feGaussianBlur stdDeviation="4.21429"/>
<feComposite in2="hardAlpha" operator="out"/>
<feColorMatrix type="matrix" values="0 0 0 0 0.00616667 0 0 0 0 0 0 0 0 0 0.308333 0 0 0 0.07 0"/>
<feBlend mode="normal" in2="BackgroundImageFix" result="effect1_dropShadow_15368_21275"/>
<feBlend mode="normal" in="SourceGraphic" in2="effect1_dropShadow_15368_21275" result="shape"/>
</filter>
<linearGradient id="paint0_linear_15368_21275" x1="-26.4944" y1="-47.3554" x2="-17.125" y2="105.198" gradientUnits="userSpaceOnUse">
<stop stop-color="#F2F4FF"/>
<stop offset="1" stop-color="#D2E0F5"/>
</linearGradient>
<linearGradient id="paint1_linear_15368_21275" x1="65.9515" y1="13.6394" x2="62.8958" y2="3.0508" gradientUnits="userSpaceOnUse">
<stop stop-color="#A7ACCA"/>
<stop offset="1" stop-color="#D3D8F0"/>
</linearGradient>
</defs>
</svg>
