<svg width="120" height="127" viewBox="0 0 120 127" fill="none" xmlns="http://www.w3.org/2000/svg">
<path d="M30.6484 13.0421C30.6484 9.98182 33.2068 7.50098 36.3627 7.50098H79.2199C82.3758 7.50098 84.9341 9.98182 84.9341 13.0421V93.3884C84.9341 96.4487 82.3758 98.9296 79.2199 98.9296H36.3627C33.2068 98.9296 30.6484 96.4487 30.6484 93.3884V13.0421Z" fill="url(#paint0_linear_15368_21293)"/>
<path d="M50.6484 10.2715H64.9342V13.0421H50.6484V10.2715Z" fill="url(#paint1_linear_15368_21293)"/>
<path d="M13.125 42.819V31.4668L32.1712 23.808L51.2174 31.4668V42.819C51.2174 53.3349 43.2349 63.4269 32.1712 66.1311C21.1075 63.4269 13.125 53.3349 13.125 42.819Z" fill="#59CACA" stroke="white" stroke-width="3.75"/>
<path d="M39.978 42.6724V49.0009C39.978 50.0857 38.729 51.1706 37.2718 51.1706H25.8223C24.5733 51.1706 23.3242 50.0857 23.3242 48.82V42.4916C23.3242 41.4067 24.5733 40.3219 25.8223 40.3219V37.6097C25.8223 35.0783 28.7367 33.0894 31.6511 33.0894C34.5655 33.0894 37.4799 35.0783 37.4799 37.6097V40.3219C38.729 40.3219 39.978 41.4067 39.978 42.6724ZM34.7737 37.6097C34.7737 36.1632 33.3165 35.2591 31.6511 35.2591C29.9857 35.2591 28.5285 36.1632 28.5285 37.6097V40.3219H34.7737V37.6097Z" fill="white"/>
<g filter="url(#filter0_d_15368_21293)">
<path d="M64.9326 93.2164C64.9326 82.1711 73.8868 73.2158 84.9332 73.2158C89.8809 73.2158 94.4093 75.0127 97.9016 77.9911C102.205 81.6593 104.933 87.1188 104.933 93.2164C104.933 104.262 95.9785 113.216 84.9332 113.216C82.1814 113.216 79.5593 112.66 77.1729 111.655C69.9807 108.624 64.9326 101.51 64.9326 93.2164Z" fill="white"/>
<path fill-rule="evenodd" clip-rule="evenodd" d="M67.896 93.2148C67.896 83.8053 75.5236 76.1763 84.9335 76.1763C89.1483 76.1763 93.0058 77.7071 95.9808 80.2443C99.6462 83.3693 101.97 88.0203 101.97 93.2148C101.97 102.624 94.3425 110.252 84.9335 110.252C82.5895 110.252 80.3558 109.779 78.3229 108.922C72.1962 106.341 67.896 100.28 67.896 93.2148ZM76.3616 94.5684L82.4571 100.664L94.9329 88.1882L92.1551 85.4104L82.4571 95.1181L79.1394 91.7906L76.3616 94.5684Z" fill="#05E0AC"/>
</g>
<defs>
<filter id="filter0_d_15368_21293" x="56.037" y="66.7086" width="62.5715" height="62.5715" filterUnits="userSpaceOnUse" color-interpolation-filters="sRGB">
<feFlood flood-opacity="0" result="BackgroundImageFix"/>
<feColorMatrix in="SourceAlpha" type="matrix" values="0 0 0 0 0 0 0 0 0 0 0 0 0 0 0 0 0 0 127 0" result="hardAlpha"/>
<feOffset dx="2.3894" dy="4.77881"/>
<feGaussianBlur stdDeviation="4.21429"/>
<feComposite in2="hardAlpha" operator="out"/>
<feColorMatrix type="matrix" values="0 0 0 0 0.00616667 0 0 0 0 0 0 0 0 0 0.308333 0 0 0 0.07 0"/>
<feBlend mode="normal" in2="BackgroundImageFix" result="effect1_dropShadow_15368_21293"/>
<feBlend mode="normal" in="SourceGraphic" in2="effect1_dropShadow_15368_21293" result="shape"/>
</filter>
<linearGradient id="paint0_linear_15368_21293" x1="-26.4944" y1="-47.3562" x2="-17.125" y2="105.198" gradientUnits="userSpaceOnUse">
<stop stop-color="#F2F4FF"/>
<stop offset="1" stop-color="#D2E0F5"/>
</linearGradient>
<linearGradient id="paint1_linear_15368_21293" x1="65.9515" y1="13.6387" x2="62.8958" y2="3.05007" gradientUnits="userSpaceOnUse">
<stop stop-color="#A7ACCA"/>
<stop offset="1" stop-color="#D3D8F0"/>
</linearGradient>
</defs>
</svg>
