<svg width="120" height="120" viewBox="0 0 120 120" fill="none" xmlns="http://www.w3.org/2000/svg">
<rect x="15.8828" y="40.674" width="87.4745" height="57.078" rx="12" transform="rotate(-16 15.8828 40.674)" fill="url(#paint0_linear_8087_805263)"/>
<rect opacity="0.5" x="19.0469" y="51.7111" width="87.4745" height="10.4699" transform="rotate(-16 19.0469 51.7111)" fill="white"/>
<circle opacity="0.7" cx="43.4495" cy="73.7015" r="8.61236" transform="rotate(-16 43.4495 73.7015)" fill="white"/>
<circle opacity="0.7" cx="53.8362" cy="70.7222" r="8.61236" transform="rotate(-16 53.8362 70.7222)" fill="white"/>
<rect x="5.51562" y="41.3875" width="89.6552" height="60.6897" rx="12" fill="url(#paint1_linear_8087_805263)"/>
<path d="M33.7917 71.7444C33.7917 62.597 41.2447 55.1804 50.4393 55.1804C54.5575 55.1804 58.3268 56.6686 61.2337 59.1352C64.8152 62.1731 67.0859 66.6945 67.0859 71.7444C67.0859 80.8918 59.6329 88.3074 50.4393 88.3074C48.1489 88.3074 45.9663 87.8471 43.9799 87.0143C37.9935 84.5048 33.7917 78.6129 33.7917 71.7444Z" fill="white"/>
<path d="M51.9041 70.1976C51.9041 67.5271 51.9023 65.1067 51.8986 64.2404C51.8955 63.3282 51.199 62.6368 50.3201 62.6418C49.5171 62.6475 48.7629 63.3264 48.7905 64.2492C48.8206 65.2723 48.7974 66.2972 48.7973 67.3216L48.7973 70.1989C46.1242 70.199 43.7001 70.2009 42.8325 70.2035C41.9197 70.2073 41.2276 70.9031 41.2333 71.7814C41.2389 72.5857 41.9172 73.3392 42.8399 73.3116C43.8636 73.2808 44.8886 73.304 45.9123 73.3046L48.7959 73.3045C48.7959 76.0214 48.7958 78.7333 48.7977 79.2492C48.7977 79.3997 48.8002 79.5564 48.8378 79.7019C49.0277 80.4272 49.7618 80.9481 50.4463 80.8578C51.3196 80.7418 51.8926 80.1299 51.8963 79.2673C51.8995 78.4004 51.9014 75.9775 51.9028 73.3057C54.6172 73.3056 57.3247 73.3049 57.8393 73.3031C57.991 73.3018 58.1477 73.3005 58.2926 73.2623C59.0179 73.0723 59.5401 72.3395 59.4486 71.6537C59.3333 70.7811 58.7208 70.2087 57.8582 70.205C56.9919 70.2013 54.5727 70.1994 51.9028 70.1989L51.9041 70.1976Z" fill="url(#paint2_linear_8087_805263)"/>
<path d="M77.2409 95.1846C77.2409 86.0371 84.6939 78.6206 93.8885 78.6206C98.0068 78.6206 101.776 80.1088 104.683 82.5754C108.264 85.6133 110.535 90.1347 110.535 95.1846C110.535 104.332 103.082 111.748 93.8885 111.748C91.5981 111.748 89.4156 111.287 87.4291 110.455C81.4427 107.945 77.2409 102.053 77.2409 95.1846Z" fill="url(#paint3_linear_8087_805263)"/>
<path d="M96.0005 95.1988C97.8889 93.3105 99.5991 91.5977 100.209 90.9824C100.852 90.3353 100.848 89.3539 100.223 88.736C99.6514 88.1722 98.638 88.119 98.005 88.791C97.3029 89.5356 96.5617 90.244 95.8374 90.9683L93.8027 93.0028C91.9125 91.1128 90.197 89.4 89.5817 88.7883C88.9337 88.1456 87.9522 88.1482 87.3352 88.7732C86.7704 89.3459 86.7172 90.3583 87.3893 90.9913C88.1349 91.6934 88.8432 92.4346 89.5667 93.1589L91.6058 95.1979C89.6846 97.119 87.7669 99.0365 87.4034 99.4026C87.2971 99.509 87.188 99.6216 87.1118 99.7511C86.7332 100.398 86.8839 101.286 87.4318 101.706C88.1313 102.241 88.9691 102.214 89.5817 101.607C90.197 100.996 91.9116 99.2839 93.8018 97.3956C95.7212 99.3149 97.6362 101.229 98.0015 101.591C98.1096 101.698 98.2213 101.808 98.3508 101.883C98.998 102.262 99.8854 102.113 100.306 101.563C100.841 100.865 100.813 100.027 100.205 99.4142C99.5955 98.7989 97.8862 97.087 95.9987 95.1988H96.0005Z" fill="white"/>
<defs>
<linearGradient id="paint0_linear_8087_805263" x1="-2.35512" y1="105.52" x2="120.142" y2="55.4915" gradientUnits="userSpaceOnUse">
<stop stop-color="#E7EEF8"/>
<stop offset="1" stop-color="#E1EDF4"/>
</linearGradient>
<linearGradient id="paint1_linear_8087_805263" x1="-2.44603" y1="105.489" x2="102.146" y2="58.0867" gradientUnits="userSpaceOnUse">
<stop stop-color="#05E0E0"/>
<stop offset="1" stop-color="#02C8C8"/>
</linearGradient>
<linearGradient id="paint2_linear_8087_805263" x1="50.0252" y1="82.9232" x2="58.7149" y2="66.5421" gradientUnits="userSpaceOnUse">
<stop stop-color="#05E0E0"/>
<stop offset="1" stop-color="#02C8C8"/>
</linearGradient>
<linearGradient id="paint3_linear_8087_805263" x1="95.4516" y1="116.893" x2="83.3827" y2="74.8241" gradientUnits="userSpaceOnUse">
<stop stop-color="#FF4B4B"/>
<stop offset="1" stop-color="#FFB6B6"/>
</linearGradient>
</defs>
</svg>
