<svg width="120" height="120" viewBox="0 0 120 120" fill="none" xmlns="http://www.w3.org/2000/svg">
<path d="M16 45.4925L66.818 13.4146L84.6195 41.6158L33.8015 73.6937L16 45.4925Z" fill="#C4C9E3"/>
<rect width="52.9578" height="39.3732" transform="matrix(0.781475 -0.623937 0.623936 0.781476 16.9424 42.0425)" fill="url(#paint0_linear_12875_167718)"/>
<circle opacity="0.7" cx="68.6712" cy="41.2714" r="3.31732" transform="rotate(-39.6863 68.6712 41.2714)" fill="white"/>
<circle opacity="0.7" cx="71.8734" cy="38.6137" r="3.31732" transform="rotate(-39.6863 71.8734 38.6137)" fill="white"/>
<rect width="52.9578" height="4.49787" transform="matrix(0.781475 -0.623937 0.623936 0.781476 20.5088 46.5078)" fill="white" fill-opacity="0.5"/>
<g filter="url(#filter0_d_12875_167718)">
<path d="M11 40.4463H60.0287V92.9771H11V40.4463Z" fill="url(#paint1_linear_12875_167718)"/>
</g>
<path d="M44.0769 56.9843H39.8462V56.2241C39.8462 54.9644 38.813 53.9434 37.5385 53.9434H34.4615C33.187 53.9434 32.1538 54.9644 32.1538 56.2241V56.9843H27.9231C26.861 56.9843 26 57.8352 26 58.8849V60.4053C26 60.8252 26.3444 61.1656 26.7692 61.1656H45.2308C45.6556 61.1656 46 60.8252 46 60.4053V58.8849C46 57.8352 45.139 56.9843 44.0769 56.9843ZM33.6923 56.2241C33.6923 55.805 34.0375 55.4638 34.4615 55.4638H37.5385C37.9625 55.4638 38.3077 55.805 38.3077 56.2241V56.9843H33.6923V56.2241Z" fill="#C4C9E3"/>
<path d="M44.1844 63.0818C43.9127 62.7794 43.5392 62.61 43.1543 62.61H28.846C28.4611 62.61 28.0762 62.7794 27.8159 63.0818C27.5555 63.3842 27.4084 63.7955 27.431 64.2189L28.1216 75.8062C28.2461 77.6449 28.4046 79.9434 32.3552 79.9434H39.6226C43.5732 79.9434 43.7317 77.657 43.8562 75.8062L44.5693 64.231C44.5919 63.7955 44.4448 63.3842 44.1844 63.0818ZM37.868 73.8827H34.0985C33.6344 73.8827 33.2495 73.4714 33.2495 72.9755C33.2495 72.4795 33.6344 72.0682 34.0985 72.0682H37.868C38.3321 72.0682 38.717 72.4795 38.717 72.9755C38.717 73.4714 38.3321 73.8827 37.868 73.8827ZM38.8189 69.0439H33.159C32.6948 69.0439 32.31 68.6326 32.31 68.1366C32.31 67.6407 32.6948 67.2294 33.159 67.2294H38.8189C39.283 67.2294 39.6679 67.6407 39.6679 68.1366C39.6679 68.6326 39.283 69.0439 38.8189 69.0439Z" fill="#C4C9E3"/>
<path d="M60.0279 40.4468H91.5463V92.9775H60.0279V40.4468Z" fill="url(#paint2_linear_12875_167718)"/>
<g filter="url(#filter1_d_12875_167718)">
<path d="M72 92.9423C72 82.4497 80.5064 73.9426 91.0005 73.9426C95.7009 73.9426 100.003 75.6496 103.321 78.4788C107.408 81.9635 110 87.1498 110 92.9423C110 103.435 101.494 111.941 91.0005 111.941C88.3864 111.941 85.8954 111.413 83.6282 110.458C76.7957 107.579 72 100.821 72 92.9423Z" fill="white"/>
<path d="M74.5938 92.9402C74.5938 83.8785 81.9403 76.5314 91.0034 76.5314C95.0628 76.5314 98.7781 78.0056 101.643 80.4491C105.174 83.4586 107.412 87.9377 107.412 92.9402C107.412 102.002 100.066 109.348 91.0034 109.348C88.7457 109.348 86.5944 108.892 84.6364 108.067C78.7355 105.581 74.5938 99.7444 74.5938 92.9402Z" fill="url(#paint3_linear_12875_167718)"/>
<path d="M93.0857 92.9562C94.9471 91.0856 96.6328 89.3888 97.234 88.7793C97.8676 88.1382 97.8641 87.1661 97.248 86.5539C96.6844 85.9954 95.6855 85.9427 95.0615 86.6084C94.3694 87.3461 93.6389 88.0478 92.9249 88.7653L90.9193 90.7808C89.0562 88.9084 87.3652 87.2117 86.7587 86.6057C86.1199 85.969 85.1525 85.9717 84.5443 86.5908C83.9876 87.1582 83.9352 88.1611 84.5976 88.7881C85.3325 89.4837 86.0308 90.2179 86.7439 90.9354L88.7538 92.9553C86.8601 94.8584 84.9699 96.758 84.6116 97.1207C84.5067 97.2261 84.3992 97.3376 84.3241 97.4659C83.9509 98.107 84.0995 98.9861 84.6395 99.4023C85.329 99.9328 86.1549 99.9056 86.7587 99.304C87.3652 98.6989 89.0553 97.003 90.9184 95.1324C92.8104 97.0338 94.698 98.9299 95.058 99.2891C95.1647 99.3944 95.2748 99.5033 95.4024 99.578C96.0403 99.953 96.9151 99.8055 97.3293 99.261C97.8571 98.5689 97.8292 97.739 97.2305 97.1321C96.6293 96.5227 94.9444 94.8268 93.0839 92.9562H93.0857Z" fill="white"/>
</g>
<defs>
<filter id="filter0_d_12875_167718" x="9.24898" y="21.185" width="73.543" height="77.0451" filterUnits="userSpaceOnUse" color-interpolation-filters="sRGB">
<feFlood flood-opacity="0" result="BackgroundImageFix"/>
<feColorMatrix in="SourceAlpha" type="matrix" values="0 0 0 0 0 0 0 0 0 0 0 0 0 0 0 0 0 0 127 0" result="hardAlpha"/>
<feOffset dx="10.5061" dy="-7.0041"/>
<feGaussianBlur stdDeviation="6.12859"/>
<feComposite in2="hardAlpha" operator="out"/>
<feColorMatrix type="matrix" values="0 0 0 0 0.05115 0 0 0 0 0.156921 0 0 0 0 0.33 0 0 0 0.05 0"/>
<feBlend mode="normal" in2="BackgroundImageFix" result="effect1_dropShadow_12875_167718"/>
<feBlend mode="normal" in="SourceGraphic" in2="effect1_dropShadow_12875_167718" result="shape"/>
</filter>
<filter id="filter1_d_12875_167718" x="70.2087" y="73.9424" width="45.1651" height="45.1637" filterUnits="userSpaceOnUse" color-interpolation-filters="sRGB">
<feFlood flood-opacity="0" result="BackgroundImageFix"/>
<feColorMatrix in="SourceAlpha" type="matrix" values="0 0 0 0 0 0 0 0 0 0 0 0 0 0 0 0 0 0 127 0" result="hardAlpha"/>
<feOffset dx="1.79128" dy="3.58256"/>
<feGaussianBlur stdDeviation="1.79128"/>
<feComposite in2="hardAlpha" operator="out"/>
<feColorMatrix type="matrix" values="0 0 0 0 0.454167 0 0 0 0 0 0 0 0 0 0 0 0 0 0.07 0"/>
<feBlend mode="normal" in2="BackgroundImageFix" result="effect1_dropShadow_12875_167718"/>
<feBlend mode="normal" in="SourceGraphic" in2="effect1_dropShadow_12875_167718" result="shape"/>
</filter>
<linearGradient id="paint0_linear_12875_167718" x1="-28.275" y1="15.3592" x2="80.4373" y2="-7.61923" gradientUnits="userSpaceOnUse">
<stop stop-color="#32F7F7"/>
<stop offset="1" stop-color="#02C8C8"/>
</linearGradient>
<linearGradient id="paint1_linear_12875_167718" x1="55.6511" y1="56.2055" x2="-78.6867" y2="88.0336" gradientUnits="userSpaceOnUse">
<stop offset="0.00147719" stop-color="#F2F4FF"/>
<stop offset="1" stop-color="#D2E0F5"/>
</linearGradient>
<linearGradient id="paint2_linear_12875_167718" x1="134.884" y1="47.6924" x2="-13.4091" y2="121.526" gradientUnits="userSpaceOnUse">
<stop offset="0.0671222" stop-color="#F2F4FF"/>
<stop offset="0.656127" stop-color="#D2E0F5"/>
</linearGradient>
<linearGradient id="paint3_linear_12875_167718" x1="92.5442" y1="114.445" x2="80.5375" y2="72.8022" gradientUnits="userSpaceOnUse">
<stop stop-color="#FF4B4B"/>
<stop offset="1" stop-color="#FFB6B6"/>
</linearGradient>
</defs>
</svg>
