<svg width="120" height="120" viewBox="0 0 120 120" fill="none" xmlns="http://www.w3.org/2000/svg">
<rect x="15.8828" y="40.674" width="87.4745" height="57.078" rx="12" transform="rotate(-16 15.8828 40.674)" fill="url(#paint0_linear_8087_805294)"/>
<rect opacity="0.5" x="19.0469" y="51.7111" width="87.4745" height="10.4699" transform="rotate(-16 19.0469 51.7111)" fill="white"/>
<circle opacity="0.7" cx="43.4495" cy="73.7015" r="8.61236" transform="rotate(-16 43.4495 73.7015)" fill="white"/>
<circle opacity="0.7" cx="53.8362" cy="70.7222" r="8.61236" transform="rotate(-16 53.8362 70.7222)" fill="white"/>
<rect x="5.51562" y="41.3875" width="89.6552" height="60.6897" rx="12" fill="url(#paint1_linear_8087_805294)"/>
<path d="M77.2409 95.1846C77.2409 86.0371 84.6939 78.6206 93.8885 78.6206C98.0068 78.6206 101.776 80.1088 104.683 82.5754C108.264 85.6133 110.535 90.1347 110.535 95.1846C110.535 104.332 103.082 111.748 93.8885 111.748C91.5981 111.748 89.4156 111.287 87.4291 110.455C81.4427 107.945 77.2409 102.053 77.2409 95.1846Z" fill="url(#paint2_linear_8087_805294)"/>
<rect opacity="0.7" x="5.51562" y="53.9534" width="89.6546" height="10.7309" fill="white"/>
<circle opacity="0.7" cx="23.3465" cy="82.511" r="8.827" fill="white"/>
<circle opacity="0.7" cx="34.4207" cy="82.511" r="8.827" fill="white"/>
<path d="M99.9206 89.0511H96.711V88.4754C96.711 87.5214 95.9272 86.7482 94.9603 86.7482H92.6261C91.6593 86.7482 90.8755 87.5214 90.8755 88.4754V89.0511H87.6659C86.8602 89.0511 86.207 89.6955 86.207 90.4904V91.6419C86.207 91.9599 86.4683 92.2176 86.7906 92.2176H100.796C101.118 92.2176 101.379 91.9599 101.379 91.6419V90.4904C101.379 89.6955 100.726 89.0511 99.9206 89.0511ZM92.0426 88.4754C92.0426 88.158 92.3044 87.8996 92.6261 87.8996H94.9603C95.282 87.8996 95.5439 88.158 95.5439 88.4754V89.0511H92.0426V88.4754Z" fill="white"/>
<path d="M100.47 93.4103C100.248 93.1993 99.9431 93.0812 99.6287 93.0812H87.9391C87.6247 93.0812 87.3103 93.1993 87.0975 93.4103C86.8848 93.6212 86.7646 93.9081 86.7831 94.2035L87.3659 102.286C87.4676 103.569 87.5971 105.172 90.8247 105.172H96.7619C99.9895 105.172 100.119 103.577 100.221 102.286L100.785 94.2119C100.803 93.9081 100.683 93.6212 100.47 93.4103Z" fill="white"/>
<defs>
<linearGradient id="paint0_linear_8087_805294" x1="-2.35512" y1="105.52" x2="120.142" y2="55.4915" gradientUnits="userSpaceOnUse">
<stop stop-color="#E7EEF8"/>
<stop offset="1" stop-color="#E1EDF4"/>
</linearGradient>
<linearGradient id="paint1_linear_8087_805294" x1="-2.44603" y1="105.489" x2="102.146" y2="58.0867" gradientUnits="userSpaceOnUse">
<stop stop-color="#05E0E0"/>
<stop offset="1" stop-color="#02C8C8"/>
</linearGradient>
<linearGradient id="paint2_linear_8087_805294" x1="95.4516" y1="116.893" x2="83.3827" y2="74.8241" gradientUnits="userSpaceOnUse">
<stop stop-color="#FF4B4B"/>
<stop offset="1" stop-color="#FFB6B6"/>
</linearGradient>
</defs>
</svg>
