<svg width="32" height="32" viewBox="0 0 32 32" fill="none" xmlns="http://www.w3.org/2000/svg">
<rect x="2.69775" y="2.70117" width="26.6191" height="26.6191" rx="7.28857" fill="#0052FE"/>
<path d="M23.2165 15.3979C22.5131 15.3979 21.8097 15.3913 21.1063 15.402C20.9107 15.405 20.8387 15.3449 20.7959 15.1499C20.3512 13.1242 18.6418 11.6342 16.5619 11.4451C14.5784 11.2643 12.6121 12.4089 11.8267 14.2598C11.0733 16.0346 11.2868 17.7292 12.517 19.2139C13.7484 20.7003 15.3841 21.2473 17.2588 20.8032C19.1341 20.359 20.3024 19.1199 20.787 17.2547C20.8423 17.0413 20.9107 16.9711 21.1325 16.9729C22.519 16.9836 23.9062 16.9895 25.2927 16.9699C25.6102 16.9658 25.6465 17.0752 25.6108 17.3439C25.3468 19.3221 24.5775 21.0743 23.2295 22.5465C21.2526 24.7048 18.7821 25.7542 15.855 25.6912C11.4515 25.5967 7.59327 22.2736 6.8221 17.9308C5.88683 12.6658 9.2575 7.80328 14.5243 6.81806C18.4402 6.08554 22.5832 8.07203 24.4889 11.583C25.0668 12.6479 25.436 13.7752 25.6019 14.9721C25.6608 15.3984 25.6602 15.3984 25.238 15.3984C24.5638 15.3979 23.8901 15.3979 23.2165 15.3979Z" fill="#FDFDFE"/>
</svg>
