<svg width="32" height="32" viewBox="0 0 32 32" fill="none" xmlns="http://www.w3.org/2000/svg">
<path d="M4.15442 21.4575C4.37385 20.1012 4.90638 18.8437 5.25025 17.5275C5.39342 16.9803 5.56468 16.4433 5.7239 15.9019C7.32818 15.4106 8.93379 14.9193 10.5381 14.4295C10.7307 14.7117 10.4524 14.8377 10.3655 15.0282C10.0992 15.6126 9.56935 16.0408 9.48372 16.7311C9.20942 17.0119 9.60547 17.1092 9.62153 17.3112C9.92526 18.6403 10.8017 19.6601 11.2673 21.0465C11.4867 20.3246 11.1763 19.7102 11.4934 19.1717C11.6125 19.1731 11.7302 19.1745 11.8493 19.176C12.4166 19.4467 13.004 19.6415 13.6195 19.7317C13.8791 19.8219 14.1239 19.8176 14.1427 19.4538C14.1841 18.6346 14.52 17.8583 14.4344 17.0233C14.4611 15.1456 14.2725 13.2794 14.1507 11.4089C14.1132 11.2743 14.0758 11.1382 14.037 11.0036C13.6851 9.63723 13.1739 8.33389 12.6976 7.01479C14.8799 7.01479 17.0622 7.01479 19.2458 7.01479C18.7882 8.33675 18.2316 9.62148 17.9038 10.9936C17.8664 11.1339 17.8289 11.2757 17.7901 11.4161C17.6509 13.2823 17.4917 15.1485 17.5118 17.0233C17.4315 17.8655 17.7673 18.6503 17.8142 19.4767C17.8182 19.5541 17.8035 19.8634 18.0657 19.6959C18.8779 19.8133 19.5643 19.312 20.3229 19.1688L20.3885 19.1731L20.4541 19.1702C20.7698 19.7073 20.4594 20.3218 20.6655 20.9992C21.0281 20.2244 21.3586 19.5369 21.6703 18.8408C21.8964 18.3338 22.33 17.9285 22.3259 17.3083C22.342 17.1078 22.738 17.009 22.4638 16.7283C22.4263 16.1167 21.9339 15.7715 21.7238 15.2645C21.6101 14.991 21.2234 14.8263 21.4094 14.4267C23.011 14.9193 24.6126 15.412 26.2129 15.9033C26.6879 17.4802 27.1669 19.0542 27.6338 20.634C27.7128 20.9004 27.8573 21.1568 27.8051 21.4561C26.3333 21.4575 24.8628 21.459 23.3923 21.4604C22.6042 21.4604 21.8162 21.4532 21.0294 21.4633C20.81 21.4661 20.521 21.3544 20.4487 21.7383C19.4492 22.1866 18.7039 23.0001 17.9145 23.7506C17.8757 23.7592 17.8383 23.7663 17.7994 23.772C17.5987 23.5787 17.3914 23.4498 17.093 23.4584C16.3424 23.4827 15.5904 23.4713 14.8384 23.4641C14.5655 23.4612 14.3179 23.4999 14.148 23.7606C14.1119 23.762 14.0771 23.7606 14.0423 23.7549C13.2596 22.9929 12.4942 22.2052 11.5068 21.7383C11.4519 21.3974 11.2017 21.4633 10.9917 21.4618C10.1822 21.4575 9.37266 21.4604 8.56316 21.4604C7.08868 21.4604 5.62088 21.459 4.15442 21.4575Z" fill="#F4841B"/>
<path d="M10.5381 14.4281C8.93384 14.9194 7.32823 15.4106 5.72396 15.9004C5.48713 15.6183 5.23692 15.3476 5.01882 15.0497C4.85692 14.8291 4.46221 14.6358 4.94657 14.2849C5.14995 14.1373 4.8315 14.0156 4.75791 13.8795C4.66693 13.7105 4.28961 13.5573 4.46355 13.4212C5.24896 12.814 4.33778 12.6979 4.22806 12.3299C4.62679 12.095 4.68432 11.7655 4.56791 11.2757C4.32172 10.2416 4.03539 9.18894 4.00194 8.13481C3.95778 6.74267 4.68031 5.50951 5.0322 4.19614C5.09643 3.95409 5.23023 3.95696 5.36938 4.09159C5.55403 4.27205 5.77212 4.36515 5.99825 4.45251C5.99825 4.61006 6.07719 4.71605 6.18958 4.80485C8.80539 6.87014 11.4212 8.93544 14.037 11.0022C14.0745 11.1368 14.1119 11.2729 14.1507 11.4089C13.8818 11.492 13.7319 11.7441 13.5232 11.9131C12.5117 12.728 11.6794 13.7893 10.5381 14.4281Z" fill="#763D16"/>
<path d="M26.2088 15.9047C24.6072 15.412 23.0056 14.9193 21.4054 14.4281C21.1512 14.2992 20.909 14.1617 20.6869 13.9626C19.7302 13.1018 18.7561 12.2625 17.7887 11.4161C17.8262 11.2757 17.8637 11.1339 17.9025 10.9936C19.8801 9.43385 21.867 7.8856 23.8325 6.30583C24.6394 5.65703 25.5331 5.11993 26.1995 4.28064L26.1941 4.2835C26.3346 4.3279 26.4229 4.25056 26.4952 4.13455C26.8337 3.93976 26.9233 4.22478 26.9996 4.46253C27.3221 5.47083 27.6419 6.48057 27.9362 7.49746C28.1235 8.1434 27.8479 8.7607 27.7529 9.38516C27.6485 10.0612 27.5027 10.73 27.3622 11.3989C27.3033 11.6796 27.1976 11.946 27.5027 12.1537C27.6325 12.2411 27.6485 12.4401 27.5402 12.5218C27.1441 12.8182 27.0117 13.0617 27.4907 13.4398C27.6285 13.5487 27.3234 13.7077 27.2217 13.8423C27.0759 14.0342 26.7186 14.1703 27.1602 14.4467C27.3903 14.5899 27.1762 14.7375 27.0919 14.8434C26.8043 15.2044 26.5032 15.5524 26.2088 15.9047Z" fill="#763D16"/>
<path d="M4.15442 21.4575C5.62222 21.459 7.09001 21.4604 8.55647 21.4618C9.31914 22.7996 10.1126 24.1158 10.9997 25.3633C10.989 25.4019 10.9783 25.4406 10.9702 25.4793C9.34991 25.9562 7.72691 26.4274 6.10925 26.9158C5.82024 27.0032 5.60616 27.049 5.50982 26.6494C5.08835 24.9092 4.50498 23.2178 4.15442 21.4575Z" fill="#E3761C"/>
<path d="M23.387 21.4604C24.8575 21.459 26.3293 21.4575 27.8011 21.4561C27.3448 23.1848 26.8886 24.9135 26.4336 26.6437C26.3534 26.9502 26.2196 27.0318 25.9038 26.9344C24.2661 26.4303 22.6203 25.9591 20.9759 25.4764C20.9665 25.4392 20.9558 25.4005 20.9438 25.3647C21.8295 24.1144 22.6243 22.7996 23.387 21.4604Z" fill="#E3761C"/>
<path d="M26.1995 4.28064C25.5331 5.11993 24.6394 5.65703 23.8325 6.30583C21.8683 7.8856 19.8814 9.43242 17.9025 10.9936C18.2316 9.62148 18.7869 8.33675 19.2445 7.01479C21.5552 6.08097 23.8392 5.06837 26.1995 4.28064Z" fill="#E2751B"/>
<path d="M14.037 11.0022C11.4212 8.93687 8.80539 6.87014 6.18958 4.80485C6.07585 4.71605 5.99825 4.61006 5.99825 4.45251C6.12803 4.45395 6.27249 4.41813 6.38622 4.46397C8.49225 5.30756 10.5943 6.16118 12.6976 7.01336C13.1739 8.33246 13.6851 9.6358 14.037 11.0022Z" fill="#E2751B"/>
<path d="M20.7284 25.6139C19.8988 26.4847 18.9006 27.1106 17.9506 27.8052C17.7928 27.9198 17.6148 27.9127 17.4369 27.9141C17.0368 27.9155 16.626 27.8511 16.238 27.9256C14.0811 28.3366 12.6508 26.9731 11.2124 25.6139C11.9309 25.6626 12.4554 26.2069 13.0977 26.4546C13.8925 26.7597 13.8884 26.7712 13.9045 25.876C15.0927 25.6855 16.2888 25.8316 17.4797 25.7772C17.7071 25.7672 17.8356 25.9519 18.0256 26.0035C17.9948 26.5449 18.039 26.8084 18.6879 26.5205C19.3689 26.2212 19.955 25.664 20.7284 25.6139Z" fill="#BDAA9C"/>
<path d="M13.9072 25.876C13.8898 26.7712 13.8938 26.7583 13.1004 26.4546C12.4581 26.2083 11.9323 25.6626 11.2151 25.6139L11.2258 25.6168C11.1589 25.5681 11.092 25.518 11.0251 25.4693L10.9716 25.4778C10.9796 25.4392 10.989 25.4005 11.001 25.3618C11.0371 25.3504 11.0679 25.3303 11.0933 25.3003C12.0741 24.7861 13.0562 24.2705 14.037 23.7563C14.0718 23.762 14.1079 23.7635 14.1427 23.762C14.1146 24.1401 14.0865 24.5197 14.0597 24.8992C14.0343 24.9422 14.0303 24.9866 14.0503 25.0324C14.033 25.1699 14.0142 25.3074 13.9968 25.4449C13.8376 25.5581 13.9152 25.7271 13.9072 25.876Z" fill="#D5BEAF"/>
<path d="M20.7284 25.6139C19.9536 25.6626 19.3689 26.2212 18.6906 26.5205C18.0416 26.8084 17.9975 26.5449 18.0282 26.0035C17.9975 25.8674 17.9667 25.7314 17.9359 25.5953C17.9225 25.4062 17.9092 25.2186 17.8958 25.0296C17.9145 24.9837 17.9105 24.9393 17.8851 24.8964C17.8543 24.5211 17.8249 24.1459 17.7941 23.7706C17.8329 23.7649 17.8704 23.7563 17.9092 23.7491C18.8899 24.2662 19.8707 24.7818 20.8515 25.2988C20.8769 25.3289 20.9076 25.3489 20.9438 25.3604C20.9558 25.3976 20.9652 25.4349 20.9759 25.4721L20.9424 25.485L20.9117 25.4678C20.8474 25.5165 20.7832 25.5666 20.719 25.6153L20.7284 25.6139Z" fill="#D5BEAF"/>
<path d="M26.4952 4.13598C26.4229 4.25056 26.3346 4.32934 26.1941 4.28494C26.2517 4.13598 26.3707 4.13025 26.4952 4.13598Z" fill="#E2751B"/>
<path d="M11.2258 25.6168C11.1589 25.5681 11.092 25.518 11.0251 25.4693C11.092 25.5194 11.1589 25.5681 11.2258 25.6168Z" fill="#BDAA9C"/>
<path d="M20.7177 25.6182C20.7819 25.5695 20.8461 25.5194 20.9103 25.4707C20.8461 25.5194 20.7819 25.5681 20.7177 25.6182Z" fill="#BDAA9C"/>
<path d="M10.5381 14.4281C11.6808 13.7893 12.5117 12.728 13.5232 11.9131C13.7319 11.7441 13.8818 11.4934 14.1507 11.4089C14.2711 13.278 14.4611 15.1442 14.4344 17.0233C12.7886 16.8386 11.1268 16.966 9.48372 16.7297C9.57069 16.0394 10.0992 15.6111 10.3655 15.0268C10.4511 14.8363 10.7308 14.7088 10.5381 14.4281Z" fill="#E3751B"/>
<path d="M17.7887 11.4161C18.7561 12.2625 19.7302 13.1018 20.6869 13.9626C20.909 14.1617 21.1512 14.2992 21.4054 14.4281C21.2207 14.8277 21.6074 14.9924 21.7198 15.2659C21.9299 15.7715 22.4223 16.1181 22.4597 16.7297C20.818 16.9775 19.1549 16.8156 17.5104 17.0247C17.4904 15.1471 17.6496 13.2823 17.7887 11.4161Z" fill="#E3751B"/>
<path d="M9.48372 16.7283C11.1268 16.9646 12.7886 16.8371 14.4344 17.0219C14.5186 17.8569 14.1828 18.6332 14.1427 19.4524C14.1239 19.8148 13.8791 19.8205 13.6195 19.7303C13.7346 19.2533 13.3479 18.2579 13.0977 18.3754C12.6575 18.5802 12.1102 18.636 11.8493 19.1745C11.7302 19.1731 11.6125 19.1717 11.4934 19.1702C10.8699 18.5501 10.245 17.9299 9.62153 17.3098C9.60414 17.1064 9.20809 17.009 9.48372 16.7283Z" fill="#CC6116"/>
<path d="M17.5104 17.0233C19.1549 16.8142 20.818 16.976 22.4597 16.7283C22.734 17.009 22.3393 17.1064 22.3219 17.3083C21.6984 17.9285 21.0749 18.5501 20.45 19.1702L20.3845 19.1731L20.3189 19.1688C20.2534 18.9497 20.0486 18.9468 19.8988 18.8695C18.7294 18.2679 18.728 18.2708 18.1661 19.5154C18.138 19.5784 18.0978 19.6357 18.063 19.6959C17.8008 19.8635 17.8168 19.5541 17.8115 19.4767C17.766 18.6503 17.4288 17.8655 17.5104 17.0233Z" fill="#CC6116"/>
<path d="M17.7928 23.7735C17.8235 24.1487 17.853 24.524 17.8837 24.8992C17.869 24.9135 17.8396 24.9336 17.8423 24.9408C17.8556 24.9737 17.8757 25.0023 17.8944 25.0324C17.9078 25.2215 17.9212 25.4091 17.9346 25.5982C17.1184 25.601 16.3036 25.6211 15.4874 25.601C14.9883 25.5896 14.4705 25.7285 13.9941 25.4449C14.0115 25.3074 14.0303 25.1699 14.0477 25.0324C14.0637 25.021 14.0958 25.0052 14.0945 24.998C14.0865 24.9637 14.0704 24.9322 14.057 24.8992C14.0851 24.5197 14.1132 24.1416 14.14 23.762C14.3099 23.5013 14.5574 23.4641 14.8304 23.4655C15.5824 23.4727 16.3343 23.4842 17.085 23.4598C17.3847 23.4498 17.5921 23.5801 17.7928 23.7735Z" fill="#171716"/>
<path d="M11.092 25.3003C11.0666 25.3303 11.0358 25.3504 10.9997 25.3618C10.1126 24.1129 9.3178 22.7981 8.55647 21.4604C9.36597 21.4604 10.1755 21.4575 10.985 21.4618C11.1937 21.4633 11.4452 21.3974 11.5001 21.7383C11.3636 22.927 11.2271 24.1144 11.092 25.3003Z" fill="#CD6116"/>
<path d="M20.9424 25.3633C20.9063 25.3518 20.8755 25.3303 20.8501 25.3017C20.7524 24.1086 20.6615 22.9156 20.442 21.7397C20.5143 21.3559 20.8019 21.4676 21.0227 21.4647C21.8108 21.4547 22.5976 21.4618 23.3856 21.4618C22.6243 22.7996 21.8295 24.1144 20.9424 25.3633Z" fill="#CD6116"/>
<path d="M20.4434 21.7383C20.6628 22.9141 20.7551 24.1072 20.8515 25.3003C19.8707 24.7832 18.8899 24.2676 17.9092 23.7506C18.6986 23.0015 19.4439 22.188 20.4434 21.7383Z" fill="#E3751B"/>
<path d="M11.092 25.3003C11.2285 24.1129 11.3636 22.9256 11.5001 21.7383C12.4875 22.2052 13.2529 22.9929 14.0356 23.7549C13.0549 24.2705 12.0728 24.7861 11.092 25.3003Z" fill="#E3751B"/>
<path d="M9.62019 17.3083C10.2437 17.9285 10.8686 18.5487 11.4921 19.1688C11.1763 19.7059 11.4854 20.3203 11.2659 21.0436C10.8003 19.6572 9.92392 18.6375 9.62019 17.3083Z" fill="#E3751E"/>
<path d="M20.4514 19.1702C21.0749 18.5501 21.6984 17.9285 22.3233 17.3083C22.3286 17.9285 21.8951 18.3338 21.6676 18.8408C21.3559 19.5369 21.0254 20.2244 20.6628 20.9992C20.4554 20.3218 20.7658 19.7073 20.4514 19.1702Z" fill="#E3751E"/>
<path d="M18.0644 19.6959C18.0992 19.6357 18.1393 19.5784 18.1674 19.5154C18.7294 18.2722 18.7307 18.2694 19.9001 18.8695C20.05 18.9468 20.2547 18.9497 20.3203 19.1688C19.5616 19.3135 18.8766 19.8133 18.0644 19.6959Z" fill="#293645"/>
<path d="M11.848 19.1731C12.1076 18.6346 12.6561 18.5787 13.0963 18.3739C13.3479 18.2579 13.7332 19.2519 13.6182 19.7288C13.0027 19.6386 12.4153 19.4438 11.848 19.1731Z" fill="#293645"/>
<path d="M13.9955 25.4435C14.4718 25.7271 14.9896 25.5881 15.4887 25.5996C16.3036 25.6182 17.1197 25.5996 17.9359 25.5967C17.9667 25.7328 17.9975 25.8688 18.0282 26.0049C17.8383 25.9519 17.7098 25.7686 17.4823 25.7786C16.2915 25.8316 15.0953 25.6855 13.9072 25.8774C13.9152 25.7271 13.8376 25.5581 13.9955 25.4435Z" fill="#050407"/>
<path d="M14.0584 24.8978C14.0718 24.9307 14.0878 24.9622 14.0958 24.9966C14.0972 25.0038 14.0651 25.0195 14.049 25.031C14.0289 24.9852 14.0329 24.9408 14.0584 24.8978Z" fill="#050407"/>
<path d="M17.8958 25.0324C17.8771 25.0023 17.857 24.9737 17.8436 24.9408C17.8409 24.935 17.8704 24.9135 17.8851 24.8992C17.9092 24.9408 17.9132 24.9852 17.8958 25.0324Z" fill="#050407"/>
</svg>
