<svg width="32" height="32" viewBox="0 0 32 32" fill="none" xmlns="http://www.w3.org/2000/svg">
<rect x="2.69775" y="2.70117" width="26.6191" height="26.6191" rx="7.28857" fill="#0065FF"/>
<path d="M11.9725 10.4748C11.9918 10.494 12.0303 10.494 12.0495 10.5325C12.4535 10.8788 12.8576 11.2251 13.2616 11.5522C14.3006 12.3795 15.3588 13.1876 16.3977 14.0149C16.7056 14.2651 17.0519 14.4767 17.3213 14.7845C17.3982 14.8038 17.4752 14.8615 17.5137 14.9385C17.5329 14.9769 17.5714 14.9769 17.5906 15.0154C18.0524 15.3425 18.4949 15.6888 18.9182 16.0736C18.9567 16.0736 18.9759 16.0929 18.9759 16.1506C19.2838 16.3238 19.5724 16.5931 19.8417 16.824C20.9576 17.6898 22.0736 18.5556 23.151 19.4599L23.1702 19.4791C23.3049 19.5368 23.4204 19.633 23.5166 19.7485C23.5358 19.787 23.5743 19.787 23.5935 19.8254C23.9398 20.0563 24.2669 20.3257 24.5748 20.6143H24.6325C26.1909 19.3829 27.7494 18.1323 29.3078 16.8817V19.5946C28.6344 20.0371 28.0572 20.6143 27.4223 21.0953C27.4415 21.1145 27.4415 21.153 27.4608 21.1722C28.0764 21.0568 28.7114 20.9606 29.327 20.8452V21.7879C29.327 21.8264 29.327 21.8649 29.327 21.9034C29.327 22.2689 29.2886 22.6345 29.2308 22.9808C28.1342 23.1732 27.0375 23.3848 25.96 23.558C25.7099 23.5965 25.633 23.6927 25.5945 23.9236C25.4598 25.1164 25.2866 26.3093 25.152 27.5022C25.1135 27.887 25.0558 28.2526 24.998 28.6374C24.4208 28.926 23.8052 29.1376 23.151 29.2723C23.3626 27.6754 23.5358 26.0977 23.7282 24.52C23.7474 24.4046 23.7282 24.2891 23.8052 24.1737C23.8052 24.1352 23.8244 24.0967 23.8244 24.0582C23.8244 23.6542 23.8821 23.2502 23.9591 22.8461C23.9398 22.8076 23.9206 22.7692 23.8821 22.7307C23.8629 22.7114 23.8244 22.673 23.8052 22.6537C22.9201 22.0188 22.112 21.3262 21.2847 20.6143C20.7845 20.268 20.342 19.8832 19.8994 19.4984L19.8802 19.4791C19.861 19.4599 19.8417 19.4406 19.8032 19.4214C18.8797 18.7288 17.9947 18.0169 17.1289 17.2665C16.7633 17.0164 16.3977 16.7278 16.0899 16.42C15.8013 16.2468 15.5512 16.0352 15.3011 15.785C14.3198 14.9962 13.3193 14.1881 12.3189 13.3993C11.8763 13.0337 11.4146 12.6489 10.9721 12.3026C10.8951 12.2449 10.7989 12.1679 10.7219 12.2256C10.6065 12.3026 10.7412 12.3988 10.7604 12.4565C11.2222 13.6301 11.7224 14.7653 12.1457 15.939C12.4535 16.5546 12.7037 17.1896 12.9153 17.8245C13.0885 18.1323 13.2231 18.4594 13.3193 18.8057C13.3963 18.9789 13.4733 19.1713 13.5502 19.3444C14.1659 20.7682 14.7431 22.192 15.2818 23.635C15.3011 23.6542 15.3203 23.6542 15.3011 23.6734C15.6666 24.5585 16.0514 25.4628 16.417 26.3478C16.8403 27.3675 17.2635 28.4065 17.6868 29.4262H15.5704C15.4935 29.0222 15.2626 28.6374 15.1279 28.2526C14.5699 26.8865 14.012 25.5205 13.4733 24.1352C13.454 24.0775 13.454 24.0198 13.4348 23.962C13.0885 23.2309 12.7806 22.4806 12.5113 21.711C12.0303 20.5373 11.5493 19.3829 11.0875 18.2478C10.7989 17.5166 10.5103 16.8048 10.2217 16.0736C10.1255 15.9582 10.0678 15.8043 10.0485 15.6311V15.6119C9.6445 14.6499 9.22122 13.6494 8.83642 12.6874C8.16302 11.052 7.50886 9.43582 6.8547 7.80042C6.81622 7.70422 6.77774 7.60802 6.73926 7.4541C7.50886 7.58878 8.23998 7.72346 8.95186 7.85814C10.7797 8.18522 12.6075 8.5123 14.4353 8.83938C15.6089 9.05102 16.8018 9.26266 17.9754 9.4743C18.0716 9.49354 18.1486 9.53202 18.2448 9.55126C18.264 9.53202 18.264 9.53202 18.2833 9.55126C19.6878 9.7629 21.0731 10.013 22.4584 10.3016C22.4968 10.3016 22.5546 10.3209 22.593 10.3209C22.67 10.3016 22.747 10.3209 22.8047 10.3786C23.6512 10.4555 24.4401 10.6479 25.2866 10.8019C26.6527 11.052 28.0187 11.3021 29.3655 11.5522V13.5147C28.2111 13.3031 27.0182 13.1107 25.8638 12.899C24.4978 12.6489 23.1318 12.3988 21.7465 12.1487C21.708 12.1487 21.6695 12.1294 21.631 12.1294C19.9572 11.8408 18.3025 11.5522 16.6286 11.2636C15.1087 10.9943 13.5887 10.7441 12.088 10.4748C12.0495 10.4363 11.9918 10.4363 11.9725 10.4748Z" fill="white"/>
</svg>
