<svg width="32" height="32" viewBox="0 0 32 32" fill="none" xmlns="http://www.w3.org/2000/svg">
<path d="M27.9983 7.58849H27.9427C27.9427 8.4032 27.9589 9.21833 27.9386 10.0326C27.9145 11.0115 27.8764 11.9913 27.8129 12.9685C27.735 14.1647 27.6475 15.3608 27.5227 16.5524C27.3502 18.1985 27.089 19.8304 26.5773 21.4117C26.0988 22.8906 25.3442 24.1983 24.1762 25.2444C23.4356 25.9074 22.5852 26.409 21.7244 26.8958C20.4809 27.5994 19.2407 28.3092 18.0076 29.0311C17.6274 29.2541 17.2762 29.5261 16.9113 29.7757C16.2703 30.214 15.7217 30.231 15.0906 29.7836C13.4408 28.6148 11.6616 27.6662 9.89979 26.686C9.02822 26.2013 8.20227 25.6503 7.49407 24.9384C6.50267 23.9421 5.85127 22.7464 5.42088 21.4208C5.03651 20.2371 4.79188 19.0219 4.63556 17.7892C4.51366 16.8261 4.40087 15.8613 4.31422 14.8948C4.24539 14.1261 4.21595 13.3537 4.18029 12.5821C4.12099 11.3142 4.06502 10.0459 4.02024 8.7776C3.99909 8.17019 3.99536 7.56154 4.00697 6.95371C4.01277 6.6697 4.01899 6.36413 4.12182 6.10707C4.37226 5.48183 4.90507 5.25463 5.54776 5.23929C6.2033 5.22394 6.86092 5.23721 7.51355 5.18746C8.8943 5.08215 10.241 4.80892 11.5384 4.30558C12.8379 3.80141 14.02 3.10402 15.0956 2.22007C15.6156 1.7926 16.3478 1.78058 16.8703 2.20929C18.0516 3.17783 19.3535 3.92911 20.7952 4.43493C21.7742 4.77823 22.7776 5.02825 23.8129 5.10993C24.6783 5.17792 25.547 5.21026 26.4148 5.23555C27.22 5.25919 27.7847 5.63814 27.9572 6.32889C27.9966 6.48686 27.9929 6.65726 27.9966 6.82187C28.0028 7.07727 27.9983 7.33308 27.9983 7.58849Z" fill="#1903FB"/>
<mask id="path-3-inside-1_17443_4494" fill="white">
<path fill-rule="evenodd" clip-rule="evenodd" d="M15.8247 30.1V1.90307C16.1887 1.85796 16.5652 1.95803 16.8702 2.20831C18.0515 3.17685 19.3535 3.92813 20.7952 4.43396C21.7742 4.77726 22.7776 5.02727 23.8129 5.10895C24.6783 5.17695 25.5469 5.20929 26.4148 5.23458C27.22 5.25821 27.7847 5.63717 27.9572 6.32791C27.9908 6.46242 27.993 6.60594 27.9953 6.74721C27.9957 6.77186 27.9961 6.79644 27.9966 6.82089C28.001 7.00039 28 7.18009 27.9991 7.35971C27.9987 7.43567 27.9983 7.51161 27.9983 7.58751H27.9427C27.9427 7.8377 27.9442 8.08793 27.9458 8.33816C27.9492 8.90278 27.9526 9.46742 27.9386 10.0317C27.9145 11.0106 27.8764 11.9903 27.8129 12.9675C27.735 14.1637 27.6475 15.3599 27.5227 16.5515C27.3502 18.1975 27.089 19.8294 26.5773 21.4107C26.0988 22.8897 25.3442 24.1974 24.1762 25.2434C23.4356 25.9064 22.5852 26.4081 21.7244 26.8948C20.4809 27.5984 19.2407 28.3082 18.0076 29.0301C17.7475 29.1827 17.5009 29.3582 17.2543 29.5338C17.1404 29.6148 17.0266 29.6959 16.9113 29.7747C16.5286 30.0364 16.1788 30.1479 15.8247 30.1Z"/>
</mask>
<path fill-rule="evenodd" clip-rule="evenodd" d="M15.8247 30.1V1.90307C16.1887 1.85796 16.5652 1.95803 16.8702 2.20831C18.0515 3.17685 19.3535 3.92813 20.7952 4.43396C21.7742 4.77726 22.7776 5.02727 23.8129 5.10895C24.6783 5.17695 25.5469 5.20929 26.4148 5.23458C27.22 5.25821 27.7847 5.63717 27.9572 6.32791C27.9908 6.46242 27.993 6.60594 27.9953 6.74721C27.9957 6.77186 27.9961 6.79644 27.9966 6.82089C28.001 7.00039 28 7.18009 27.9991 7.35971C27.9987 7.43567 27.9983 7.51161 27.9983 7.58751H27.9427C27.9427 7.8377 27.9442 8.08793 27.9458 8.33816C27.9492 8.90278 27.9526 9.46742 27.9386 10.0317C27.9145 11.0106 27.8764 11.9903 27.8129 12.9675C27.735 14.1637 27.6475 15.3599 27.5227 16.5515C27.3502 18.1975 27.089 19.8294 26.5773 21.4107C26.0988 22.8897 25.3442 24.1974 24.1762 25.2434C23.4356 25.9064 22.5852 26.4081 21.7244 26.8948C20.4809 27.5984 19.2407 28.3082 18.0076 29.0301C17.7475 29.1827 17.5009 29.3582 17.2543 29.5338C17.1404 29.6148 17.0266 29.6959 16.9113 29.7747C16.5286 30.0364 16.1788 30.1479 15.8247 30.1Z" fill="url(#paint0_linear_17443_4494)"/>
<path d="M15.8247 30.1H15.4023V30.4692L15.7681 30.5187L15.8247 30.1ZM15.8247 1.90307L15.7728 1.48383L15.4023 1.52974V1.90307H15.8247ZM16.8702 2.20831L16.6023 2.53489L16.6024 2.535L16.8702 2.20831ZM20.7952 4.43396L20.6553 4.83259L20.6554 4.83261L20.7952 4.43396ZM23.8129 5.10895L23.7797 5.53009L23.7798 5.53011L23.8129 5.10895ZM26.4148 5.23458L26.4272 4.81231L26.4271 4.8123L26.4148 5.23458ZM27.9572 6.32791L28.3671 6.2257L28.3671 6.22556L27.9572 6.32791ZM27.9953 6.74721L27.5729 6.7539V6.75391L27.9953 6.74721ZM27.9966 6.82089L27.5743 6.83046L27.5743 6.83118L27.9966 6.82089ZM27.9991 7.35971L28.4215 7.36195V7.36195L27.9991 7.35971ZM27.9983 7.58751V8.00996H28.4207V7.58751H27.9983ZM27.9427 7.58751V7.16506H27.5203V7.58751H27.9427ZM27.9458 8.33816L27.5233 8.34073L27.9458 8.33816ZM27.9386 10.0317L27.5162 10.0211L27.5162 10.0213L27.9386 10.0317ZM27.8129 12.9675L28.2345 12.995L28.2345 12.9949L27.8129 12.9675ZM27.5227 16.5515L27.9428 16.5955L27.9428 16.5955L27.5227 16.5515ZM26.5773 21.4107L26.1754 21.2807L26.1754 21.2807L26.5773 21.4107ZM24.1762 25.2434L24.4579 25.5582L24.458 25.5581L24.1762 25.2434ZM21.7244 26.8948L21.5165 26.5271L21.5164 26.5272L21.7244 26.8948ZM18.0076 29.0301L17.7942 28.6655L17.7938 28.6657L18.0076 29.0301ZM17.2543 29.5338L17.4993 29.8779L17.4993 29.8779L17.2543 29.5338ZM16.9113 29.7747L17.1497 30.1235L17.1498 30.1234L16.9113 29.7747ZM16.2472 30.1V1.90307H15.4023V30.1H16.2472ZM15.8767 2.32232C16.1285 2.29111 16.3887 2.35967 16.6023 2.53489L17.1382 1.88174C16.7418 1.55639 16.249 1.42481 15.7728 1.48383L15.8767 2.32232ZM16.6024 2.535C17.8193 3.53273 19.1641 4.30938 20.6553 4.83259L20.9351 4.03533C19.5429 3.54687 18.2838 2.82097 17.1381 1.88162L16.6024 2.535ZM20.6554 4.83261C21.6584 5.18434 22.6985 5.4448 23.7797 5.53009L23.8462 4.6878C22.8567 4.60974 21.8899 4.37018 20.935 4.03531L20.6554 4.83261ZM23.7798 5.53011C24.656 5.59895 25.5332 5.63152 26.4025 5.65685L26.4271 4.8123C25.5607 4.78705 24.7006 4.75494 23.846 4.68779L23.7798 5.53011ZM26.4024 5.65685C26.7436 5.66686 27.0007 5.75119 27.1813 5.87738C27.3567 5.99991 27.4845 6.1784 27.5474 6.43026L28.3671 6.22556C28.2575 5.78668 28.0167 5.43032 27.6652 5.18478C27.319 4.94289 26.8912 4.82592 26.4272 4.81231L26.4024 5.65685ZM27.5473 6.43013C27.5671 6.50938 27.5705 6.60318 27.5729 6.7539L28.4177 6.74052C28.4156 6.60869 28.4144 6.41545 28.3671 6.2257L27.5473 6.43013ZM27.5729 6.75391C27.5733 6.77832 27.5737 6.80433 27.5743 6.83046L28.419 6.81132C28.4184 6.78854 28.4181 6.7654 28.4177 6.74051L27.5729 6.75391ZM27.5743 6.83118C27.5785 7.00337 27.5776 7.1768 27.5766 7.35747L28.4215 7.36195C28.4225 7.18338 28.4235 6.99741 28.4189 6.8106L27.5743 6.83118ZM27.5766 7.35747C27.5762 7.43324 27.5758 7.5103 27.5758 7.58751H28.4207C28.4207 7.51291 28.4211 7.43809 28.4215 7.36195L27.5766 7.35747ZM27.9983 7.16506H27.9427V8.00996H27.9983V7.16506ZM27.5203 7.58751C27.5203 7.8392 27.5218 8.09072 27.5233 8.34073L28.3682 8.33559C28.3667 8.08514 28.3652 7.8362 28.3652 7.58751H27.5203ZM27.5233 8.34073C27.5268 8.90645 27.5301 9.46453 27.5162 10.0211L28.3609 10.0422C28.3752 9.47031 28.3716 8.89911 28.3682 8.33559L27.5233 8.34073ZM27.5162 10.0213C27.4923 10.9963 27.4543 11.9701 27.3914 12.9402L28.2345 12.9949C28.2984 12.0105 28.3368 11.0249 28.3609 10.042L27.5162 10.0213ZM27.3914 12.9401C27.3135 14.1345 27.2265 15.3241 27.1025 16.5075L27.9428 16.5955C28.0685 15.3956 28.1564 14.1929 28.2345 12.995L27.3914 12.9401ZM27.1025 16.5074C26.9315 18.1399 26.6742 19.7391 26.1754 21.2807L26.9793 21.5408C27.5038 19.9197 27.7689 18.2551 27.9428 16.5955L27.1025 16.5074ZM26.1754 21.2807C25.715 22.7037 24.9959 23.9422 23.8943 24.9287L24.458 25.5581C25.6925 24.4525 26.4827 23.0756 26.9793 21.5408L26.1754 21.2807ZM23.8944 24.9287C23.1914 25.558 22.3773 26.0403 21.5165 26.5271L21.9323 27.2626C22.793 26.7759 23.6798 26.2548 24.4579 25.5582L23.8944 24.9287ZM21.5164 26.5272C20.2717 27.2314 19.0296 27.9423 17.7942 28.6655L18.221 29.3947C19.4518 28.6742 20.6901 27.9654 21.9324 27.2625L21.5164 26.5272ZM17.7938 28.6657C17.515 28.8293 17.2534 29.0159 17.0093 29.1896L17.4993 29.8779C17.7485 29.7005 17.98 29.5361 18.2214 29.3945L17.7938 28.6657ZM17.0093 29.1896C16.8949 29.271 16.7842 29.3498 16.6728 29.4261L17.1498 30.1234C17.2689 30.042 17.386 29.9586 17.4993 29.8779L17.0093 29.1896ZM16.6729 29.426C16.3428 29.6517 16.0974 29.7106 15.8813 29.6814L15.7681 30.5187C16.2601 30.5852 16.7143 30.4211 17.1497 30.1235L16.6729 29.426Z" fill="url(#paint1_linear_17443_4494)" mask="url(#path-3-inside-1_17443_4494)"/>
<defs>
<linearGradient id="paint0_linear_17443_4494" x1="21.9123" y1="1.89258" x2="21.9123" y2="30.1108" gradientUnits="userSpaceOnUse">
<stop stop-color="#D9D9D9"/>
<stop offset="0.0001" stop-color="#65EFAB"/>
<stop offset="1" stop-color="#1E00FF"/>
</linearGradient>
<linearGradient id="paint1_linear_17443_4494" x1="15.8247" y1="10.3417" x2="18.3604" y2="10.3417" gradientUnits="userSpaceOnUse">
<stop stop-color="white"/>
<stop offset="1" stop-color="white" stop-opacity="0"/>
</linearGradient>
</defs>
</svg>
