<svg width="32" height="32" viewBox="0 0 32 32" fill="none" xmlns="http://www.w3.org/2000/svg">
<path d="M10.0999 23.7236C9.99415 23.5313 9.78738 23.4399 9.63831 23.286C9.02761 22.6753 8.43134 22.0502 7.8014 21.4636C6.95508 20.6749 6.16646 19.8238 5.32014 19.04C4.73348 18.4966 4.18049 17.9244 3.60826 17.3714C3.32935 17.1021 3.33416 16.7943 3.60826 16.5251C4.06989 16.073 4.53633 15.6307 5.00277 15.1834C5.18069 15.0151 5.53172 15.0103 5.71926 15.1642C5.73849 15.1786 5.75292 15.1979 5.77215 15.2171C6.95508 16.3808 8.1332 17.5493 9.32575 18.7034C9.64793 19.0111 9.97972 19.3093 10.2875 19.6266C10.374 19.7132 10.4317 19.7036 10.4943 19.617C10.4991 19.6122 10.5039 19.6074 10.5087 19.5978C11.1963 18.9294 11.8791 18.2658 12.5668 17.5974C13.3843 16.7992 14.1969 16.0009 15.0144 15.2075C15.2452 14.9863 15.5674 14.9815 15.7982 15.2027C16.5003 15.8855 17.2023 16.5683 17.9044 17.256C18.7026 18.035 19.5057 18.814 20.2991 19.5978C20.4049 19.7036 20.4578 19.6988 20.5636 19.5978C21.2945 18.8765 22.035 18.16 22.7707 17.4387C23.5353 16.6934 24.2999 15.948 25.0645 15.2027C25.2809 14.9911 25.6127 14.9863 25.8291 15.1931C26.2763 15.6258 26.6946 16.0827 27.1755 16.4818C27.4303 16.6934 27.5121 17.1213 27.1851 17.4099C26.7956 17.7513 26.459 18.1552 26.0743 18.5014C25.2616 19.2323 24.5355 20.0546 23.7277 20.7903C22.9439 21.5068 22.2226 22.2858 21.4532 23.0167C21.2079 23.2524 20.9338 23.4591 20.7223 23.7284C20.5299 23.7284 20.3376 23.7284 20.1452 23.7284C19.9048 23.3966 19.5586 23.1754 19.27 22.8917C18.0438 21.6703 16.8032 20.4634 15.5722 19.242C15.4472 19.1169 15.3702 19.1169 15.2452 19.242C14.1536 20.3239 13.0525 21.401 11.9513 22.483C11.7782 22.6513 11.6243 22.8388 11.4367 22.9879C11.153 23.2091 10.9126 23.4688 10.6722 23.7332C10.4846 23.7236 10.2923 23.7236 10.0999 23.7236ZM7.81102 13.2071C8.3544 13.688 8.84007 14.2313 9.36422 14.7266C9.51328 14.8709 9.67197 14.8709 9.82585 14.7266C10.1336 14.4429 10.4269 14.1352 10.7395 13.8563C11.4416 13.2311 12.2302 12.7647 13.1198 12.4714C14.0767 12.154 15.0529 12.0145 16.0723 12.1251C16.9138 12.2165 17.712 12.4329 18.4766 12.7887C19.4143 13.2263 20.1645 13.9092 20.8906 14.6208C21.107 14.8324 21.256 14.8324 21.4724 14.616C21.9485 14.1448 22.4053 13.6495 22.9054 13.2023C23.2083 12.933 23.1699 12.5916 22.9342 12.3511C22.4341 11.8414 21.9052 11.3606 21.3233 10.9518C19.5441 9.69677 17.5437 9.09088 15.3702 9.07645C14.8701 9.07164 14.3652 9.12935 13.8603 9.20148C12.9707 9.33131 12.1196 9.57655 11.3021 9.93239C9.95568 10.519 8.8016 11.3846 7.79179 12.4425C7.6908 12.5483 7.6331 12.6541 7.65234 12.808C7.60906 12.9763 7.71004 13.1157 7.81102 13.2071Z" fill="#0098FE"/>
</svg>
