<svg width="207" height="38" viewBox="0 0 207 38" fill="none" xmlns="http://www.w3.org/2000/svg">
<g clip-path="url(#clip0_701_29884)">
<path d="M19.2068 31.7193C18.4212 31.7193 17.7023 31.2605 17.348 30.5381L15.7818 27.3634L11.109 17.8446C10.919 17.4543 10.385 17.4543 10.1898 17.8446L5.51702 27.3634L3.95086 30.5381C3.59141 31.2658 2.87765 31.7193 2.092 31.7193C0.530977 31.7193 -0.480609 30.0054 0.23315 28.5605L0.82367 27.3634L10.1898 8.26778C10.3798 7.87754 10.9139 7.87754 11.109 8.26778L20.4752 27.3634L21.0657 28.5605C21.7794 30.0054 20.7678 31.7193 19.2068 31.7193Z" fill="#FA5F07"/>
<path d="M105.881 10.1311C105.881 11.3018 104.956 12.2511 103.816 12.2511H96.4118V29.6117C96.4118 30.7824 95.4875 31.7316 94.3476 31.7316C93.2076 31.7316 92.2833 30.7824 92.2833 29.6117V12.2458H84.8787C83.7387 12.2458 82.8145 11.2966 82.8145 10.1258C82.8145 8.9551 83.7387 8.00586 84.8787 8.00586H103.816C104.956 8.00586 105.881 8.9551 105.881 10.1258V10.1311Z" fill="#FA5F07"/>
<path d="M127.852 27.5284L128.432 28.6886C129.13 30.0914 128.139 31.7631 126.604 31.7631C125.834 31.7631 125.125 31.3201 124.776 30.6134L123.236 27.5284L121.027 23.0881L120.93 22.8824C120.206 21.6642 118.917 20.8521 117.433 20.8521H113.31V29.6537C113.31 30.8191 112.39 31.7631 111.256 31.7631H111.245C110.111 31.7631 109.191 30.8191 109.191 29.6537V8.04785H123.775C125.49 8.04785 127.041 8.75978 128.16 9.90942C129.279 11.0591 129.973 12.6517 129.973 14.4183C129.973 16.9918 128.489 19.2278 126.342 20.2456C125.782 20.5146 125.187 20.6886 124.56 20.7519L127.862 27.5284H127.852ZM123.759 16.6174C124.057 16.6174 124.355 16.5488 124.617 16.4117C125.377 16.0742 125.87 15.2937 125.87 14.4447C125.87 13.6642 125.474 13.121 125.243 12.889C124.981 12.62 124.483 12.2773 123.759 12.2773H113.299V16.649L123.759 16.6174Z" fill="#FA5F07"/>
<path d="M152.223 31.694H152.157C151.397 31.694 150.698 31.2563 150.354 30.5602L148.809 27.4593L144.213 18.2042C144.023 17.8245 143.499 17.8245 143.309 18.2042L138.713 27.4593L137.168 30.5602C136.824 31.2563 136.125 31.694 135.365 31.694H135.298C133.784 31.694 132.808 30.0487 133.496 28.667L134.097 27.4593L143.314 8.88585C143.504 8.50615 144.028 8.50615 144.218 8.88585L153.435 27.4593L154.036 28.667C154.724 30.0487 153.748 31.694 152.234 31.694H152.223Z" fill="#FA5F07"/>
<path d="M169.026 8.01113C175.394 8.01113 180.575 13.2952 180.575 19.8345C180.575 22.7508 179.553 25.4244 177.838 27.4917C177.638 27.729 177.412 27.9663 177.175 28.2036C175.096 30.3711 172.225 31.6947 169.062 31.6947H161.565C159.326 31.6947 157.514 29.8331 157.514 27.5339V12.1403C157.514 9.84106 159.326 7.97949 161.565 7.97949H169.062L169.031 8.01113H169.026ZM176.441 19.4811C176.241 15.3889 172.8 12.2458 168.811 12.2458H162.618C162.058 12.2458 161.606 12.7099 161.606 13.2847V26.4528C161.606 27.0276 162.058 27.4917 162.618 27.4917H169.026C173.242 27.4917 176.652 23.8582 176.441 19.4811Z" fill="#FA5F07"/>
<path d="M188.03 14.3816V16.586H200.816C201.956 16.586 202.88 17.5352 202.88 18.7059C202.88 19.8767 201.956 20.8259 200.816 20.8259H188.03V25.2979C188.03 26.4897 188.98 27.4653 190.141 27.4653H204.934C206.074 27.4653 206.999 28.4146 206.999 29.5853C206.999 30.756 206.074 31.7053 204.934 31.7053H190.141C186.716 31.7053 183.938 28.8523 183.938 25.3348V14.3816C183.938 10.8589 186.741 7.97949 190.171 7.97949H204.934C206.074 7.97949 206.999 8.92873 206.999 10.0995C206.999 11.2702 206.074 12.2194 204.934 12.2194H190.141C188.98 12.2194 188.03 13.195 188.03 14.3869V14.3816Z" fill="#FA5F07"/>
<path d="M49.3762 9.77231V30.914C49.3762 31.357 48.8884 31.6101 48.5495 31.3359L45.1861 28.6517L30.0944 16.5647V29.8224C30.0944 31.0248 29.1547 32.0004 27.9994 32.0004C26.844 32.0004 25.9043 31.0248 25.9043 29.8224V8.77033C25.9043 8.32735 26.3921 8.07422 26.731 8.34844L30.0944 11.0327L45.1861 23.1197V9.77231C45.1861 8.56466 46.136 7.58378 47.2965 7.59432C48.4468 7.60487 49.3762 8.57521 49.3762 9.77231Z" fill="#FA5F07"/>
<path d="M77.4931 31.001C78.6769 29.8834 78.7451 27.9814 77.6454 26.7528C76.5457 25.5241 74.6945 25.4341 73.5107 26.5516C72.3269 27.6692 72.2587 29.5712 73.3584 30.7999C74.4581 32.0285 76.3093 32.1185 77.4931 31.001Z" fill="#FA5F07"/>
<path d="M62.6602 31.209C63.6615 31.5307 64.6936 31.7205 65.7309 31.7733C64.6679 31.7258 63.6409 31.5307 62.6602 31.209Z" fill="#FA5F07"/>
<path d="M78.4319 19.3224C78.4319 19.5808 78.4216 19.8445 78.4062 20.1029C78.3908 20.3191 78.3754 20.5406 78.3498 20.7568C78.3343 20.8834 78.3189 21.0047 78.3035 21.126C78.0519 22.244 76.989 22.9559 75.885 22.7239C75.8439 22.7133 75.7977 22.7028 75.7566 22.6922L75.4896 22.5973C74.6628 22.244 74.1391 21.3738 74.211 20.451C74.2264 20.356 74.2367 20.2664 74.2418 20.1715C74.2418 20.1504 74.2521 20.124 74.2521 20.1029C74.2777 19.8445 74.288 19.5861 74.288 19.3224C74.288 18.2308 74.0826 17.1919 73.7026 16.2426C73.4151 15.5043 73.0248 14.8241 72.5421 14.2123C72.4394 14.0699 72.3264 13.9328 72.2083 13.801C72.1775 13.7588 72.1416 13.7219 72.1056 13.6797C71.9105 13.4582 71.7051 13.2525 71.4946 13.0627C68.7063 10.5367 64.6137 10.2782 61.6047 12.4035C61.3017 12.6197 61.009 12.857 60.7317 13.1207C59.1193 14.6395 58.2618 16.6909 58.1745 18.7845C58.1642 19.0324 58.1642 19.2855 58.1745 19.5334V19.5439C58.1899 19.9078 58.231 20.2717 58.2977 20.6355C58.5596 22.1385 59.2323 23.5887 60.3209 24.8069C60.5982 25.1181 60.896 25.4081 61.2093 25.6612C61.2657 25.7087 61.3222 25.7509 61.3787 25.7984C61.4557 25.8616 61.5379 25.9249 61.6201 25.9829C61.6252 25.9882 61.6303 25.9935 61.6355 25.9935C61.7484 26.0779 61.8614 26.1622 61.9795 26.2308C63.2222 27.0587 64.7062 27.5334 66.2929 27.5334C66.6318 27.5334 66.9604 27.5123 67.289 27.4701H67.3045C67.4996 27.449 67.6947 27.4595 67.895 27.5017C69.0144 27.739 69.7487 28.8623 69.533 30.0119C69.3687 30.8821 68.7063 31.5202 67.9104 31.6784C67.8282 31.6942 67.7409 31.7047 67.6536 31.71C67.5304 31.7258 67.4072 31.7364 67.2839 31.7469C67.1196 31.7628 66.9553 31.7733 66.791 31.7786C66.6215 31.7838 66.4572 31.7891 66.2929 31.7891C66.108 31.7891 65.918 31.7838 65.7332 31.7733C64.6959 31.7206 63.6638 31.5307 62.6625 31.209C62.4057 31.1299 62.1592 31.0403 61.9128 30.9348C61.7741 30.8821 61.6355 30.8241 61.502 30.7661C61.3479 30.6975 61.199 30.6289 61.0501 30.5498C60.8755 30.4655 60.7009 30.3705 60.5314 30.2809H60.5263C60.3517 30.1754 60.1823 30.0752 60.018 29.975C59.0218 29.3686 58.0975 28.6039 57.2707 27.681C56.3824 26.6843 55.6738 25.5821 55.15 24.4167C54.8316 23.7153 54.58 22.9928 54.3952 22.2598C54.2052 21.5057 54.0871 20.741 54.0357 19.9711C54.0203 19.7338 54.0101 19.4964 54.0049 19.2539V19.006L53.9844 6.00138C53.9844 4.82011 54.9138 3.87086 56.064 3.88141C57.2143 3.89196 58.1488 4.86229 58.154 6.04357V9.71925L61.543 1.30791C61.9795 0.216282 63.1965 -0.289981 64.2646 0.174093C65.3275 0.638167 65.8359 1.89328 65.3943 2.9849L63.8178 6.90844C67.8334 6.13322 72.157 7.46216 75.1507 10.8056C75.4126 11.0956 75.6539 11.3962 75.8747 11.7021C76.0236 11.8972 76.1623 12.0976 76.3009 12.3033C76.3574 12.3824 76.4087 12.4615 76.455 12.5406C76.5422 12.6724 76.6193 12.799 76.6963 12.9309C77.7952 14.8082 78.4319 16.9915 78.4319 19.3224Z" fill="#FA5F07"/>
<path d="M74.2347 20.2025C74.2347 20.2025 74.2398 20.1814 74.2398 20.1709C74.2347 20.2658 74.2244 20.3555 74.209 20.4504C74.209 20.3713 74.2193 20.2869 74.2347 20.2025Z" fill="#FA5F07"/>
</g>
<defs>
<clipPath id="clip0_701_29884">
<rect width="207" height="32" fill="white"/>
</clipPath>
</defs>
</svg>
