<svg width="32" height="8" viewBox="0 0 32 8" fill="none" xmlns="http://www.w3.org/2000/svg">
<path d="M31.923 4.39371C31.9431 4.34448 31.9569 4.29264 31.9692 4.24013C31.9722 4.22757 31.9776 4.21568 31.9802 4.2028C31.993 4.13673 32 4.06902 32 3.99999C32 3.93095 31.993 3.86325 31.9802 3.79718C31.9776 3.7843 31.9722 3.7724 31.9692 3.75985C31.9569 3.70733 31.9431 3.65547 31.923 3.60626C31.9195 3.59801 31.9144 3.59075 31.9107 3.58249C31.8624 3.47249 31.7974 3.37044 31.7124 3.28258L28.8055 0.297275C28.6202 0.105685 28.3736 0 28.1116 0C27.8495 0 27.6029 0.105685 27.4176 0.297275C27.2323 0.488864 27.13 0.74384 27.13 1.01471C27.13 1.28557 27.2323 1.54055 27.4176 1.73214L28.6489 2.98528H0.981544C0.4403 2.98528 0 3.44046 0 3.99999C0 4.55952 0.4403 5.01469 0.981544 5.01469H28.6489L27.4176 6.26786C27.2323 6.45943 27.13 6.71443 27.13 6.98529C27.13 7.25613 27.2323 7.51113 27.4176 7.70272C27.6032 7.89431 27.8495 8 28.1116 8C28.3736 8 28.6199 7.89429 28.8055 7.70272L31.7124 4.71742C31.7974 4.62956 31.8625 4.52748 31.9107 4.41751C31.9144 4.40925 31.9195 4.40197 31.923 4.39371Z" fill="black"/>
</svg>
