<svg width="128" height="128" viewBox="0 0 128 128" fill="none" xmlns="http://www.w3.org/2000/svg">
<g filter="url(#filter0_b_959_142770)">
<circle cx="64" cy="64" r="64" fill="white" fill-opacity="0.6"/>
<circle cx="64" cy="64" r="63.5" stroke="white"/>
</g>
<path d="M30.5054 35.3338L23.0632 27.3911L25.7841 24.8517C26.4223 24.2562 27.0888 23.8488 27.7837 23.6294C28.472 23.403 29.1515 23.3321 29.8223 23.4169C30.5003 23.4951 31.1394 23.6967 31.7397 24.0217C32.3471 24.3401 32.8821 24.7462 33.3448 25.2399C33.8074 25.7336 34.1775 26.2936 34.4551 26.9197C34.7399 27.5392 34.8986 28.1891 34.9313 28.8695C34.9712 29.5432 34.8582 30.2186 34.5924 30.8959C34.3198 31.5661 33.8645 32.1989 33.2264 32.7944L30.5054 35.3338ZM26.7562 25.9967L25.3473 27.3116L30.7278 33.0539L32.1367 31.7391C32.5813 31.3242 32.8947 30.8842 33.077 30.4189C33.2526 29.9466 33.3206 29.4741 33.2809 29.0014C33.2345 28.5216 33.1075 28.0634 32.9 27.6267C32.6928 27.1761 32.4217 26.772 32.0864 26.4142C31.7512 26.0564 31.3653 25.7593 30.9288 25.5229C30.4994 25.2798 30.0498 25.1227 29.5799 25.0515C29.11 24.9804 28.6331 25.0164 28.149 25.1596C27.665 25.3028 27.2007 25.5819 26.7562 25.9967Z" fill="#060606"/>
<path d="M24.991 43.4891L15.839 37.5876L19.6987 31.626L20.9602 32.4395L18.0355 36.9569L20.645 38.6396L23.2022 34.6899L24.4513 35.4954L21.8941 39.4451L24.6645 41.2315L27.6291 36.6523L28.8906 37.4658L24.991 43.4891Z" fill="#060606"/>
<path d="M22.1956 50.399L13.3446 47.2567L12.2096 50.4411L10.7945 49.9388L13.6371 41.964L15.0522 42.4663L13.9171 45.6507L22.768 48.7929L22.1956 50.399Z" fill="#060606"/>
<path d="M19.842 63.7176L9 62.6344L9.40332 58.6134C9.48056 57.8433 9.69698 57.2102 10.0526 56.714C10.3994 56.2072 10.8307 55.8417 11.3464 55.6175C11.8524 55.3924 12.3886 55.3081 12.9552 55.3647C13.6389 55.433 14.2396 55.6899 14.7572 56.1355C15.2758 56.5713 15.6103 57.1708 15.7607 57.9341L20.6369 55.7924L20.4448 57.7079L15.7737 59.7224L15.5889 61.5648L20.0136 62.0068L19.842 63.7176ZM10.8948 58.7919L10.666 61.073L14.153 61.4213L14.3818 59.1403C14.4434 58.5262 14.3141 58.0456 13.9937 57.6985C13.6636 57.3505 13.2739 57.154 12.8246 57.1091C12.3753 57.0642 11.9592 57.1802 11.5763 57.457C11.1836 57.7328 10.9564 58.1778 10.8948 58.7919Z" fill="#060606"/>
<path d="M21.3864 75.8227L10.029 73.7852L9.6823 71.6083L19.8448 66.1426L20.1291 67.9277L17.8469 69.1378L18.5564 73.5933L21.1021 74.0376L21.3864 75.8227ZM16.9631 73.3252L16.4154 69.8857L11.6711 72.3939L16.9631 73.3252Z" fill="#060606"/>
<path d="M24.0911 82.2599L15.4799 86.0073L16.8335 89.1054L15.4568 89.7046L12.0668 81.9458L13.4435 81.3466L14.7972 84.4448L23.4083 80.6974L24.0911 82.2599Z" fill="#060606"/>
<path d="M28.9576 90.0204C29.3478 90.5366 29.6182 91.0325 29.7688 91.5082C29.9134 91.9761 29.9755 92.408 29.955 92.8038C29.9267 93.2055 29.8512 93.5692 29.7284 93.8948C29.5997 94.2126 29.4601 94.4834 29.3096 94.7072C29.1512 94.9369 29.0143 95.1136 28.8988 95.2373C28.7833 95.3611 28.7256 95.423 28.7256 95.423L27.6703 94.027C27.6703 94.027 27.7163 93.974 27.8082 93.8679C27.8924 93.7677 27.9862 93.6235 28.0897 93.4351C28.1854 93.2526 28.2584 93.032 28.3087 92.7732C28.3453 92.5125 28.3297 92.2235 28.2621 91.9063C28.1807 91.5872 28.0011 91.2438 27.7232 90.8762C27.3094 90.3288 26.8579 89.9999 26.3687 89.8896C25.8736 89.7715 25.4262 89.8628 25.0266 90.1638C24.6818 90.4234 24.504 90.7413 24.4933 91.1175C24.4688 91.4918 24.5742 91.9402 24.8093 92.4627L25.408 93.8159C25.6391 94.3168 25.8035 94.8189 25.9011 95.3222C25.985 95.8236 25.9559 96.3056 25.8139 96.7685C25.666 97.2234 25.353 97.6309 24.875 97.9908C24.3578 98.3802 23.8204 98.5884 23.2629 98.6155C22.6917 98.6406 22.1396 98.504 21.6067 98.2057C21.0601 97.9055 20.568 97.4661 20.1305 96.8873C19.7049 96.3243 19.4393 95.794 19.3338 95.2966C19.2206 94.8052 19.2026 94.3585 19.28 93.9566C19.3574 93.5547 19.483 93.2085 19.6569 92.9181C19.8171 92.6257 19.9716 92.3989 20.1203 92.2378C20.2612 92.0827 20.3317 92.0051 20.3317 92.0051L21.3426 93.3424C21.3426 93.3424 21.2918 93.4053 21.19 93.5309C21.0805 93.6625 20.9838 93.8519 20.9001 94.099C20.8105 94.3383 20.7916 94.6224 20.8436 94.9515C20.8818 95.2786 21.0488 95.6376 21.3444 96.0287C21.7523 96.5683 22.1821 96.8767 22.6339 96.9538C23.0857 97.0309 23.4644 96.9544 23.77 96.7243C24.0678 96.5001 24.2211 96.2067 24.2299 95.8442C24.2308 95.4876 24.1295 95.0852 23.9261 94.6371L23.2888 93.1841C23.0478 92.6538 22.8902 92.1282 22.8161 91.6072C22.7361 91.0784 22.7818 90.5776 22.9532 90.1049C23.1168 89.6382 23.4376 89.2248 23.9156 88.8649C24.4015 88.4991 24.9398 88.284 25.5305 88.2196C26.1076 88.1534 26.6949 88.2634 27.2925 88.5497C27.8824 88.842 28.4374 89.3322 28.9576 90.0204Z" fill="#060606"/>
<path d="M39.6067 100.194L34.2501 107.896L37.0322 109.823L36.1758 111.055L29.2084 106.228L30.0648 104.997L32.8469 106.924L38.2035 99.2223L39.6067 100.194Z" fill="#060606"/>
<path d="M51.0425 105.668L47.0528 115.787L40.4348 113.188L40.9847 111.794L45.9996 113.763L47.1372 110.878L42.7526 109.156L43.2971 107.775L47.6818 109.496L48.8894 106.433L43.806 104.437L44.3559 103.042L51.0425 105.668Z" fill="#060606"/>
<path d="M58.2845 106.868C59.181 106.976 59.9417 107.226 60.5665 107.618C61.1816 108.008 61.6765 108.492 62.0511 109.07C62.4246 109.658 62.679 110.291 62.8142 110.969C62.9482 111.656 62.9732 112.345 62.8892 113.035C62.8053 113.726 62.6159 114.389 62.3212 115.024C62.0264 115.66 61.6278 116.213 61.1254 116.685C60.6122 117.166 60.0053 117.522 59.3048 117.753C58.5934 117.992 57.7894 118.058 56.8929 117.949C56.1912 117.864 55.6026 117.704 55.1269 117.469C54.6511 117.234 54.2599 116.954 53.9531 116.631C53.6451 116.318 53.4077 115.993 53.2409 115.657C53.0741 115.321 52.9543 115.005 52.8814 114.71C52.8084 114.415 52.7631 114.178 52.7454 113.998C52.7277 113.818 52.7189 113.728 52.7189 113.728L54.4291 113.935C54.4291 113.935 54.4397 114.011 54.461 114.161C54.4822 114.312 54.5389 114.496 54.631 114.715C54.7122 114.942 54.847 115.175 55.0354 115.415C55.2238 115.655 55.4851 115.864 55.8193 116.043C56.1427 116.23 56.5577 116.354 57.0645 116.416C57.6686 116.489 58.2139 116.436 58.7003 116.258C59.1758 116.089 59.5876 115.833 59.9358 115.49C60.2742 115.146 60.5455 114.745 60.7496 114.286C60.9537 113.827 61.0859 113.35 61.1462 112.854C61.2077 112.348 61.1949 111.843 61.1078 111.339C61.0099 110.844 60.8383 110.384 60.5933 109.96C60.3373 109.544 60.0036 109.197 59.5923 108.921C59.1712 108.643 58.6635 108.468 58.069 108.396C57.1433 108.284 56.3756 108.457 55.766 108.916C55.1565 109.375 54.7681 110.049 54.6009 110.936L57.6851 111.31L57.5184 112.681L52.7824 112.108L52.8764 111.335C53.0112 110.226 53.3385 109.323 53.8583 108.626C54.3683 107.928 55.0118 107.434 55.7888 107.143C56.556 106.851 57.3879 106.759 58.2845 106.868Z" fill="#060606"/>
<path d="M95.9366 93.2126L103.213 101.307L100.44 103.79C99.7898 104.372 99.115 104.766 98.4156 104.971C97.7229 105.183 97.042 105.24 96.3731 105.141C95.6969 105.049 95.062 104.834 94.4686 104.497C93.8679 104.166 93.3414 103.749 92.8891 103.246C92.4368 102.743 92.0783 102.175 91.8137 101.543C91.5418 100.918 91.3966 100.265 91.378 99.5844C91.352 98.91 91.479 98.237 91.7587 97.5653C92.0451 96.901 92.5134 96.2776 93.1637 95.6954L95.9366 93.2126ZM99.4919 102.625L100.928 101.339L95.6671 95.4874L94.2313 96.773C93.7783 97.1786 93.4558 97.6121 93.2639 98.0734C93.0786 98.5421 93.0009 99.0131 93.0308 99.4865C93.0672 99.9671 93.1847 100.428 93.3832 100.869C93.5809 101.323 93.8437 101.733 94.1714 102.098C94.4992 102.462 94.8789 102.767 95.3104 103.013C95.7347 103.265 96.181 103.431 96.6493 103.512C97.1176 103.593 97.5952 103.566 98.0821 103.433C98.5689 103.3 99.0389 103.031 99.4919 102.625Z" fill="#060606"/>
<path d="M101.622 85.1676L110.65 91.2563L106.668 97.1371L105.424 96.2978L108.441 91.8416L105.867 90.1055L103.229 94.0017L101.997 93.1706L104.635 89.2744L101.902 87.4314L98.8435 91.9485L97.5991 91.1092L101.622 85.1676Z" fill="#060606"/>
<path d="M104.558 78.3215L113.342 81.6453L114.543 78.485L115.947 79.0164L112.94 86.931L111.536 86.3996L112.737 83.2392L103.953 79.9154L104.558 78.3215Z" fill="#060606"/>
<path d="M107.183 65.055L118 66.3612L117.514 70.373C117.42 71.1414 117.191 71.7699 116.825 72.2586C116.468 72.7582 116.029 73.1148 115.509 73.3283C114.998 73.5429 114.461 73.6161 113.895 73.5479C113.213 73.4655 112.618 73.1963 112.11 72.7402C111.6 72.2938 111.278 71.6875 111.144 70.9212L106.224 72.962L106.456 71.0509L111.168 69.1331L111.39 67.2949L106.976 66.7618L107.183 65.055ZM116.026 70.1638L116.302 67.888L112.823 67.4679L112.547 69.7437C112.473 70.3564 112.592 70.8396 112.905 71.1932C113.228 71.5479 113.614 71.7524 114.062 71.8065C114.51 71.8607 114.929 71.7533 115.317 71.4844C115.716 71.2167 115.952 70.7765 116.026 70.1638Z" fill="#060606"/>
<path d="M105.893 52.9127L117.206 55.1837L117.507 57.3673L107.234 62.6225L106.987 60.832L109.294 59.6691L108.676 55.2L106.14 54.7033L105.893 52.9127ZM110.264 55.5008L110.74 58.9509L115.535 56.5409L110.264 55.5008Z" fill="#060606"/>
<path d="M103.32 46.4241L112.007 42.8548L110.718 39.7295L112.107 39.1589L115.335 46.9858L113.947 47.5565L112.657 44.4311L103.971 48.0004L103.32 46.4241Z" fill="#060606"/>
<path d="M98.6123 38.5614C98.2329 38.0373 97.9728 37.5359 97.8321 37.0572C97.6972 36.5864 97.644 36.1534 97.6727 35.7581C97.7093 35.357 97.7924 34.9949 97.9218 34.6719C98.057 34.3569 98.2022 34.089 98.3574 33.8684C98.5205 33.642 98.661 33.4681 98.779 33.3468C98.897 33.2254 98.956 33.1647 98.956 33.1647L99.9822 34.5822C99.9822 34.5822 99.9352 34.6342 99.841 34.7384C99.7548 34.8368 99.658 34.9791 99.5506 35.1653C99.4512 35.3458 99.3737 35.5649 99.318 35.8226C99.2761 36.0825 99.2856 36.3717 99.3467 36.6902C99.4215 37.011 99.594 37.358 99.8642 37.7312C100.267 38.2871 100.711 38.6252 101.198 38.7455C101.691 38.8738 102.14 38.7917 102.545 38.499C102.896 38.2466 103.08 37.9324 103.098 37.5565C103.131 37.1828 103.035 36.7323 102.81 36.2051L102.24 34.8398C102.019 34.3342 101.865 33.8289 101.778 33.3237C101.704 32.8207 101.743 32.3393 101.895 31.8795C102.052 31.4277 102.374 31.0268 102.859 30.6768C103.384 30.2981 103.926 30.101 104.484 30.0854C105.055 30.0721 105.604 30.22 106.131 30.5292C106.671 30.8406 107.154 31.2901 107.58 31.8777C107.993 32.4495 108.248 32.9851 108.343 33.4845C108.446 33.9782 108.455 34.4252 108.369 34.8254C108.284 35.2256 108.151 35.5691 107.971 35.8559C107.805 36.145 107.646 36.3685 107.494 36.5265C107.349 36.6787 107.277 36.7548 107.277 36.7548L106.294 35.3969C106.294 35.3969 106.347 35.3352 106.451 35.2116C106.563 35.0823 106.664 34.895 106.752 34.6496C106.847 34.4123 106.872 34.1285 106.827 33.7985C106.795 33.4707 106.636 33.1083 106.348 32.7112C105.952 32.1633 105.528 31.8462 105.078 31.7598C104.628 31.6734 104.248 31.7421 103.937 31.9658C103.635 32.1838 103.476 32.474 103.46 32.8362C103.451 33.1927 103.544 33.5971 103.738 34.0493L104.345 35.5151C104.575 36.0503 104.722 36.5791 104.785 37.1015C104.854 37.6318 104.798 38.1315 104.617 38.6005C104.444 39.0639 104.115 39.4705 103.629 39.8205C103.136 40.1762 102.593 40.3802 102.001 40.4324C101.423 40.4867 100.838 40.3646 100.247 40.0661C99.663 39.7617 99.1182 39.2602 98.6123 38.5614Z" fill="#060606"/>
<path d="M88.1799 28.1748L93.6947 20.5848L90.953 18.6007L91.8346 17.3873L98.7008 22.3562L97.8191 23.5696L95.0774 21.5855L89.5627 29.1755L88.1799 28.1748Z" fill="#060606"/>
<path d="M76.8569 22.4681L81.055 12.4333L87.6179 15.1679L87.0393 16.5511L82.0661 14.4789L80.8691 17.3402L85.2172 19.1519L84.6442 20.5216L80.2961 18.7098L79.0254 21.7474L84.0664 23.8479L83.4878 25.2311L76.8569 22.4681Z" fill="#060606"/>
<path d="M69.6447 21.1194C68.7506 20.9924 67.9953 20.7268 67.3787 20.3225C66.7718 19.9197 66.287 19.4253 65.9244 18.8395C65.5631 18.2439 65.3219 17.606 65.2008 16.9258C65.081 16.2359 65.0703 15.5467 65.1685 14.8581C65.2667 14.1694 65.4697 13.5105 65.7775 12.8814C66.0854 12.2522 66.4953 11.7068 67.0074 11.2452C67.5305 10.7752 68.1446 10.432 68.8497 10.2155C69.5659 9.99068 70.3711 9.94177 71.2652 10.0688C71.9649 10.1681 72.5501 10.3403 73.0209 10.5853C73.4916 10.8303 73.877 11.1176 74.177 11.4471C74.4785 11.767 74.7091 12.0966 74.8689 12.436C75.0287 12.7753 75.1421 13.0933 75.2088 13.3897C75.2756 13.6862 75.316 13.9244 75.33 14.1045C75.344 14.2846 75.351 14.3747 75.351 14.3747L73.6454 14.1324C73.6454 14.1324 73.6363 14.0569 73.6182 13.9059C73.6001 13.7549 73.5472 13.5693 73.4596 13.3491C73.3832 13.1205 73.2532 12.8844 73.0699 12.6406C72.8865 12.3969 72.6295 12.1823 72.299 11.9968C71.9796 11.803 71.5673 11.6702 71.0619 11.5984C70.4594 11.5128 69.9131 11.554 69.4231 11.7219C68.9443 11.8815 68.5273 12.129 68.172 12.4645C67.8265 12.8013 67.547 13.197 67.3335 13.6516C67.1199 14.1061 66.9779 14.5807 66.9073 15.0754C66.8354 15.5797 66.8378 16.0847 66.9144 16.5904C67.0021 17.0877 67.1641 17.551 67.4003 17.9804C67.6477 18.4015 67.9741 18.7546 68.3796 19.0398C68.7948 19.3263 69.2989 19.5117 69.8917 19.5959C70.8149 19.7271 71.586 19.5694 72.205 19.123C72.8239 18.6765 73.2261 18.0113 73.4117 17.1272L70.3358 16.6904L70.5308 15.3228L75.254 15.9937L75.144 16.7647C74.9863 17.8704 74.6404 18.7663 74.1063 19.4524C73.5819 20.1398 72.9283 20.6209 72.1455 20.8957C71.3724 21.1718 70.5388 21.2464 69.6447 21.1194Z" fill="#060606"/>
<path fill-rule="evenodd" clip-rule="evenodd" d="M59.7078 66.8707L62.4996 86.5469L65.296 66.8391L85 64.0433L65.3201 61.2509L62.5004 41.5469L59.6831 61.2337L40 64.0504L59.7078 66.8707Z" fill="black"/>
<defs>
<filter id="filter0_b_959_142770" x="-10" y="-10" width="148" height="148" filterUnits="userSpaceOnUse" color-interpolation-filters="sRGB">
<feFlood flood-opacity="0" result="BackgroundImageFix"/>
<feGaussianBlur in="BackgroundImageFix" stdDeviation="5"/>
<feComposite in2="SourceAlpha" operator="in" result="effect1_backgroundBlur_959_142770"/>
<feBlend mode="normal" in="SourceGraphic" in2="effect1_backgroundBlur_959_142770" result="shape"/>
</filter>
</defs>
</svg>
