<svg width="128" height="128" viewBox="0 0 128 128" fill="none" xmlns="http://www.w3.org/2000/svg">
<circle cx="64" cy="64" r="64" fill="#FFB341"/>
<g clip-path="url(#clip0_869_132139)">
<path d="M69.4519 19.6066C68.6019 19.5066 67.8819 19.2766 67.2819 18.9066C66.6919 18.5366 66.2119 18.0766 65.8619 17.5166C65.5019 16.9666 65.2619 16.3566 65.1319 15.7066C65.0019 15.0566 64.9719 14.4066 65.0519 13.7466C65.1319 13.0866 65.3019 12.4566 65.5819 11.8466C65.8619 11.2366 66.2419 10.7066 66.7219 10.2566C67.2019 9.79657 67.7819 9.45657 68.4519 9.23657C69.1219 9.00657 69.8819 8.94657 70.7319 9.04657C71.4019 9.12657 71.9619 9.27657 72.4119 9.49657C72.8619 9.71657 73.2419 9.97657 73.5319 10.2866C73.8219 10.5866 74.0519 10.8966 74.2119 11.2166C74.3719 11.5366 74.4819 11.8366 74.5619 12.1166C74.6419 12.3966 74.6819 12.7066 74.7219 13.0466L73.0919 12.8566C73.0519 12.5666 72.9919 12.3166 72.9019 12.1066C72.8119 11.8966 72.6819 11.6766 72.5019 11.4466C72.3219 11.2166 72.0719 11.0166 71.7619 10.8466C71.4519 10.6766 71.0519 10.5566 70.5719 10.5066C69.9919 10.4366 69.4819 10.4866 69.0219 10.6566C68.5619 10.8266 68.1719 11.0766 67.8519 11.3966C67.5219 11.7266 67.2719 12.1066 67.0719 12.5466C66.8819 12.9866 66.7519 13.4366 66.7019 13.9166C66.6419 14.3966 66.6619 14.8766 66.7519 15.3566C66.8419 15.8366 67.0119 16.2666 67.2519 16.6666C67.4919 17.0666 67.8119 17.3966 68.2119 17.6566C68.6119 17.9166 69.0919 18.0866 69.6519 18.1466C70.5319 18.2466 71.2619 18.0766 71.8419 17.6366C72.4219 17.1966 72.7819 16.5566 72.9419 15.7066L70.0119 15.3666L70.1619 14.0566L74.6719 14.5866L74.5819 15.3266C74.4619 16.3866 74.1519 17.2466 73.6619 17.9166C73.1719 18.5866 72.5619 19.0566 71.8319 19.3366C71.1019 19.6166 70.3019 19.7066 69.4519 19.6066Z" fill="black"/>
<path d="M76.4692 20.7781L80.0992 11.0781L86.4292 13.4481L85.9292 14.7881L81.1292 12.9881L80.0892 15.7581L84.2892 17.3281L83.7892 18.6481L79.5892 17.0781L78.4892 20.0181L83.3492 21.8381L82.8492 23.1781L76.4492 20.7881L76.4692 20.7781Z" fill="black"/>
<path d="M87.7209 25.9825L92.6209 18.5225L89.9309 16.7525L90.7109 15.5625L97.4509 19.9925L96.6709 21.1825L93.9809 19.4125L89.0709 26.8725L87.7109 25.9825H87.7209Z" fill="black"/>
<path d="M98.9408 36.3097C98.5608 35.8297 98.2908 35.3597 98.1408 34.9097C97.9908 34.4597 97.9208 34.0497 97.9408 33.6697C97.9508 33.2897 98.0208 32.9397 98.1308 32.6397C98.2408 32.3297 98.3708 32.0697 98.5108 31.8497C98.6508 31.6297 98.8308 31.3997 99.0508 31.1597L100.081 32.4697C99.9208 32.6697 99.7908 32.8597 99.7008 33.0397C99.6108 33.2197 99.5508 33.4297 99.5108 33.6797C99.4708 33.9297 99.4908 34.1997 99.5708 34.4997C99.6508 34.7997 99.8208 35.1197 100.091 35.4697C100.491 35.9797 100.931 36.2897 101.401 36.3897C101.871 36.4897 102.291 36.3897 102.671 36.0997C102.991 35.8497 103.161 35.5397 103.171 35.1797C103.171 34.8197 103.071 34.3997 102.831 33.8997L102.231 32.6197C102.001 32.1497 101.841 31.6697 101.741 31.1997C101.641 30.7197 101.661 30.2597 101.791 29.8197C101.921 29.3797 102.211 28.9797 102.651 28.6297C103.131 28.2497 103.641 28.0397 104.181 27.9997C104.721 27.9597 105.241 28.0797 105.761 28.3597C106.281 28.6297 106.751 29.0397 107.181 29.5897C107.601 30.1197 107.861 30.6197 107.971 31.0797C108.081 31.5497 108.111 31.9797 108.041 32.3597C107.971 32.7397 107.871 33.0797 107.711 33.3597C107.561 33.6397 107.351 33.9297 107.081 34.2397L106.091 32.9897C106.291 32.7397 106.421 32.4997 106.501 32.2697C106.581 32.0397 106.591 31.7597 106.541 31.4497C106.491 31.1397 106.321 30.7997 106.031 30.4297C105.631 29.9197 105.221 29.6397 104.791 29.5797C104.361 29.5197 104.001 29.5997 103.711 29.8197C103.431 30.0397 103.291 30.3197 103.301 30.6597C103.301 30.9997 103.401 31.3897 103.611 31.8097L104.251 33.1797C104.491 33.6797 104.651 34.1797 104.741 34.6797C104.821 35.1797 104.791 35.6497 104.641 36.0997C104.491 36.5497 104.191 36.9497 103.741 37.3097C103.291 37.6697 102.781 37.8797 102.231 37.9597C101.681 38.0297 101.111 37.9397 100.541 37.6797C99.9708 37.4197 99.4308 36.9597 98.9208 36.3197L98.9408 36.3097Z" fill="black"/>
<path d="M103.748 43.6109L111.798 39.7309L110.398 36.8309L111.688 36.2109L115.188 43.4709L113.898 44.0909L112.498 41.1909L104.448 45.0709L103.738 43.6109H103.748Z" fill="black"/>
<path d="M106.211 48.7756L117.121 49.8956L117.611 51.9356L108.371 57.8556L107.971 56.1756L110.051 54.8656L109.061 50.6856L106.611 50.4456L106.211 48.7656V48.7756ZM110.581 50.8356L111.351 54.0656L115.671 51.3456L110.591 50.8356H110.581Z" fill="black"/>
<path d="M108.55 60.3203L118.91 60.4903L118.85 64.3403C118.84 65.0803 118.69 65.7003 118.39 66.2003C118.1 66.7003 117.72 67.0803 117.25 67.3403C116.78 67.5903 116.28 67.7203 115.74 67.7103C115.09 67.7003 114.5 67.5103 113.97 67.1303C113.44 66.7503 113.08 66.2103 112.88 65.4903L108.43 67.9103L108.46 66.0803L112.73 63.8003L112.76 62.0403L108.53 61.9703L108.56 60.3303L108.55 60.3203ZM117.42 64.2903L117.46 62.1103L114.13 62.0603L114.09 64.2403C114.09 64.8303 114.24 65.2703 114.58 65.5803C114.92 65.8803 115.3 66.0403 115.73 66.0503C116.16 66.0503 116.55 65.9103 116.89 65.6203C117.24 65.3303 117.41 64.8903 117.42 64.3003V64.2903Z" fill="black"/>
<path d="M107.509 73.0297L116.209 75.0697L116.939 71.9297L118.329 72.2597L116.489 80.1097L115.099 79.7797L115.829 76.6397L107.129 74.5997L107.499 73.0197L107.509 73.0297Z" fill="black"/>
<path d="M98.5101 91.5031C99.0501 90.8331 99.6301 90.3431 100.25 90.0331C100.88 89.7231 101.52 89.5731 102.18 89.5631C102.84 89.5531 103.48 89.6631 104.1 89.8931C104.72 90.1231 105.29 90.4531 105.81 90.8631C106.33 91.2731 106.77 91.7631 107.14 92.3231C107.51 92.8831 107.76 93.4831 107.89 94.1331C108.02 94.7831 108.01 95.4531 107.85 96.1431C107.69 96.8331 107.34 97.5131 106.8 98.1831C106.38 98.7031 105.96 99.1031 105.53 99.3731C105.1 99.6431 104.68 99.8231 104.27 99.9031C103.86 99.9931 103.47 100.023 103.12 99.9831C102.76 99.9531 102.45 99.8931 102.17 99.8031C101.89 99.7131 101.6 99.5931 101.29 99.4431L102.31 98.1631C102.58 98.2831 102.82 98.3631 103.04 98.4031C103.26 98.4431 103.52 98.4531 103.81 98.4131C104.1 98.3731 104.4 98.2731 104.71 98.1031C105.02 97.9331 105.33 97.6531 105.63 97.2731C105.99 96.8231 106.22 96.3531 106.32 95.8831C106.42 95.4131 106.42 94.9431 106.31 94.4931C106.2 94.0431 106.01 93.6231 105.74 93.2231C105.47 92.8231 105.15 92.4831 104.78 92.1831C104.4 91.8831 103.99 91.6431 103.53 91.4631C103.08 91.2831 102.62 91.1931 102.15 91.1931C101.68 91.1931 101.23 91.2831 100.8 91.4831C100.37 91.6831 99.9701 92.0031 99.6201 92.4431C99.0701 93.1331 98.8201 93.8431 98.8901 94.5631C98.9601 95.2831 99.3101 95.9331 99.9501 96.5131L101.79 94.2031L102.82 95.0231L99.9901 98.5631L99.4101 98.1031C98.5801 97.4431 98.0101 96.7231 97.7001 95.9631C97.3901 95.1931 97.3101 94.4331 97.4601 93.6631C97.6101 92.8931 97.9501 92.1731 98.4901 91.5031H98.5101Z" fill="black"/>
<path d="M93.8106 96.8438L100.141 105.044L94.7906 109.174L93.9206 108.044L97.9706 104.914L96.1606 102.574L92.6106 105.314L91.7506 104.194L95.2906 101.454L93.3706 98.9738L89.2606 102.154L88.3906 101.024L93.8006 96.8438H93.8106Z" fill="black"/>
<path d="M83.47 103.672L87.24 111.772L90.16 110.412L90.76 111.702L83.45 115.102L82.85 113.812L85.77 112.452L82 104.352L83.47 103.672Z" fill="black"/>
<path d="M68.7686 107.744C69.3786 107.674 69.9186 107.694 70.3786 107.804C70.8386 107.914 71.2186 108.074 71.5386 108.284C71.8486 108.494 72.1086 108.734 72.3186 108.994C72.5286 109.254 72.6786 109.504 72.7886 109.734C72.8986 109.974 72.9986 110.244 73.0886 110.554L71.4286 110.734C71.3486 110.494 71.2486 110.284 71.1486 110.114C71.0486 109.944 70.8986 109.774 70.7086 109.614C70.5186 109.454 70.2686 109.324 69.9786 109.234C69.6786 109.144 69.3186 109.114 68.8786 109.164C68.2286 109.234 67.7386 109.444 67.4086 109.794C67.0786 110.144 66.9386 110.554 66.9886 111.024C67.0286 111.434 67.2086 111.734 67.5086 111.934C67.8086 112.134 68.2286 112.264 68.7686 112.324L70.1686 112.494C70.6886 112.554 71.1786 112.664 71.6386 112.834C72.0986 113.004 72.4786 113.264 72.7786 113.604C73.0886 113.944 73.2686 114.404 73.3286 114.964C73.3986 115.574 73.3086 116.124 73.0486 116.594C72.7986 117.064 72.4186 117.454 71.9086 117.744C71.3986 118.044 70.8086 118.224 70.1186 118.304C69.4486 118.374 68.8886 118.334 68.4286 118.184C67.9686 118.034 67.5986 117.824 67.3086 117.564C67.0186 117.304 66.7886 117.034 66.6386 116.754C66.4786 116.474 66.3386 116.144 66.2286 115.754L67.8186 115.584C67.9286 115.884 68.0586 116.124 68.2186 116.314C68.3786 116.504 68.5986 116.664 68.8886 116.784C69.1786 116.904 69.5586 116.944 70.0186 116.894C70.6586 116.824 71.1186 116.624 71.3986 116.294C71.6786 115.964 71.7986 115.614 71.7586 115.254C71.7186 114.904 71.5586 114.634 71.2586 114.454C70.9686 114.274 70.5886 114.164 70.1186 114.104L68.6186 113.914C68.0686 113.854 67.5586 113.724 67.0886 113.534C66.6186 113.344 66.2386 113.064 65.9286 112.694C65.6186 112.324 65.4386 111.864 65.3786 111.294C65.3186 110.714 65.3986 110.174 65.6286 109.664C65.8586 109.154 66.2386 108.724 66.7586 108.384C67.2886 108.044 67.9586 107.824 68.7686 107.734V107.744Z" fill="black"/>
<path d="M59.9981 107.969L59.0481 116.849L62.2481 117.189L62.0981 118.609L54.0781 117.749L54.2281 116.329L57.4281 116.669L58.3781 107.789L59.9881 107.959L59.9981 107.969Z" fill="black"/>
<path d="M54.3422 107.341L47.6422 116.031L45.6522 115.371L45.4922 104.391L47.1222 104.931L47.1422 107.391L51.2222 108.751L52.7122 106.801L54.3422 107.341ZM50.2922 109.971L47.1422 108.921L47.1822 114.021L50.2922 109.961V109.971Z" fill="black"/>
<path d="M43.2923 103.211L37.7323 111.951L34.4823 109.881C33.8623 109.481 33.4123 109.031 33.1323 108.521C32.8523 108.011 32.7323 107.491 32.7623 106.961C32.7923 106.431 32.9523 105.941 33.2423 105.481C33.5923 104.931 34.0623 104.531 34.6623 104.281C35.2623 104.031 35.9123 104.001 36.6323 104.201L36.8923 99.1406L38.4423 100.121L38.1623 104.951L39.6523 105.901L41.9223 102.331L43.3023 103.211H43.2923ZM35.2723 108.701L37.1123 109.871L38.9023 107.061L37.0623 105.891C36.5623 105.571 36.1023 105.481 35.6623 105.611C35.2323 105.741 34.8923 105.981 34.6623 106.341C34.4323 106.701 34.3523 107.111 34.4223 107.551C34.4923 107.991 34.7723 108.381 35.2723 108.701Z" fill="black"/>
<path d="M26.2519 86.962C26.7119 87.692 26.9819 88.402 27.0619 89.092C27.1419 89.782 27.0819 90.442 26.8719 91.072C26.6619 91.702 26.3519 92.262 25.9219 92.772C25.5019 93.282 25.0019 93.712 24.4419 94.062C23.8819 94.412 23.2719 94.672 22.6319 94.832C21.9819 94.992 21.3319 95.032 20.6719 94.942C20.0119 94.852 19.3919 94.622 18.7919 94.242C18.1919 93.862 17.6719 93.312 17.2119 92.582C16.8519 92.012 16.6219 91.482 16.5119 90.992C16.4019 90.502 16.3719 90.042 16.4219 89.622C16.4719 89.202 16.5719 88.832 16.7219 88.512C16.8719 88.192 17.0319 87.912 17.2119 87.682C17.3919 87.452 17.5919 87.212 17.8419 86.972L18.7119 88.362C18.5119 88.572 18.3619 88.782 18.2419 88.972C18.1319 89.172 18.0419 89.412 17.9719 89.692C17.9119 89.972 17.9019 90.292 17.9719 90.642C18.0419 90.992 18.1919 91.372 18.4519 91.792C18.7619 92.282 19.1219 92.652 19.5419 92.902C19.9619 93.152 20.3919 93.302 20.8519 93.352C21.3119 93.402 21.7719 93.352 22.2319 93.232C22.6919 93.112 23.1219 92.922 23.5319 92.662C23.9419 92.402 24.3019 92.092 24.6219 91.722C24.9419 91.352 25.1719 90.952 25.3319 90.512C25.4919 90.072 25.5519 89.622 25.5119 89.142C25.4719 88.662 25.2919 88.192 24.9919 87.712C24.5219 86.962 23.9319 86.502 23.2319 86.322C22.5319 86.152 21.7919 86.262 21.0419 86.672L22.6119 89.172L21.5019 89.872L19.0919 86.032L19.7219 85.642C20.6219 85.072 21.4819 84.772 22.3119 84.732C23.1319 84.692 23.8919 84.872 24.5619 85.272C25.2319 85.672 25.8119 86.232 26.2619 86.952L26.2519 86.962Z" fill="black"/>
<path d="M22.7608 80.74L12.9208 83.98L10.8008 77.56L12.1608 77.11L13.7608 81.98L16.5708 81.05L15.1708 76.8L16.5108 76.36L17.9108 80.61L20.8908 79.63L19.2608 74.7L20.6208 74.25L22.7608 80.74Z" fill="black"/>
<path d="M19.7778 68.7513L10.8878 69.6012L11.1978 72.8113L9.77781 72.9513L9.00781 64.9212L10.4278 64.7812L10.7378 67.9913L19.6278 67.1413L19.7878 68.7612L19.7778 68.7513Z" fill="black"/>
<path d="M20.792 53.5284C20.652 54.1284 20.462 54.6284 20.202 55.0284C19.952 55.4284 19.672 55.7384 19.362 55.9684C19.052 56.1984 18.752 56.3584 18.432 56.4684C18.122 56.5784 17.832 56.6384 17.572 56.6684C17.312 56.6984 17.022 56.6984 16.702 56.6884L17.072 55.0684C17.332 55.0684 17.562 55.0484 17.752 55.0084C17.942 54.9684 18.152 54.8784 18.372 54.7584C18.592 54.6284 18.792 54.4384 18.972 54.1884C19.162 53.9384 19.302 53.5984 19.402 53.1684C19.552 52.5284 19.512 51.9984 19.292 51.5684C19.072 51.1384 18.732 50.8684 18.272 50.7684C17.872 50.6784 17.532 50.7384 17.242 50.9584C16.962 51.1784 16.702 51.5284 16.462 52.0184L15.842 53.2884C15.622 53.7684 15.352 54.1884 15.042 54.5584C14.732 54.9284 14.362 55.2084 13.942 55.3784C13.522 55.5584 13.032 55.5784 12.472 55.4484C11.872 55.3084 11.392 55.0484 11.022 54.6484C10.662 54.2584 10.422 53.7684 10.312 53.1884C10.202 52.6084 10.222 51.9884 10.372 51.3184C10.522 50.6584 10.742 50.1484 11.042 49.7584C11.332 49.3784 11.652 49.0884 11.992 48.8984C12.332 48.7084 12.662 48.5884 12.972 48.5284C13.282 48.4684 13.652 48.4484 14.052 48.4684L13.692 50.0284C13.372 50.0284 13.102 50.0784 12.872 50.1584C12.642 50.2484 12.422 50.4084 12.212 50.6384C12.002 50.8684 11.842 51.2184 11.742 51.6684C11.602 52.2984 11.632 52.7984 11.852 53.1784C12.072 53.5584 12.362 53.7784 12.712 53.8684C13.062 53.9484 13.362 53.8784 13.632 53.6584C13.902 53.4384 14.132 53.1184 14.332 52.6984L15.002 51.3484C15.242 50.8484 15.532 50.4084 15.862 50.0284C16.202 49.6484 16.592 49.3784 17.032 49.2084C17.472 49.0384 17.972 49.0184 18.532 49.1484C19.092 49.2784 19.582 49.5384 19.982 49.9184C20.382 50.3084 20.662 50.7984 20.812 51.4084C20.962 52.0184 20.952 52.7184 20.762 53.5284H20.792Z" fill="black"/>
<path d="M23.4705 45.2016L15.4105 41.3516L14.0205 44.2516L12.7305 43.6316L16.2105 36.3516L17.5005 36.9716L16.1105 39.8716L24.1705 43.7216L23.4705 45.1816V45.2016Z" fill="black"/>
<path d="M25.9717 40.0263L20.0117 30.8162L21.3017 29.1562L31.7017 32.6562L30.6417 34.0163L28.3217 33.2162L25.6817 36.6063L27.0217 38.6663L25.9617 40.0263H25.9717ZM24.8317 35.3263L26.8717 32.7062L22.0417 31.0462L24.8317 35.3263Z" fill="black"/>
<path d="M33.5216 30.9924L27.1016 22.8624L30.1216 20.4724C30.7016 20.0124 31.2816 19.7424 31.8516 19.6524C32.4316 19.5624 32.9616 19.6124 33.4516 19.8124C33.9416 20.0124 34.3516 20.3224 34.6916 20.7524C35.0916 21.2624 35.3216 21.8424 35.3616 22.4924C35.4016 23.1424 35.2116 23.7624 34.7816 24.3724L39.4716 26.2924L38.0316 27.4324L33.5616 25.5724L32.1816 26.6624L34.8016 29.9824L33.5116 31.0024L33.5216 30.9924ZM30.9916 21.6124L29.2816 22.9624L31.3416 25.5824L33.0516 24.2324C33.5116 23.8724 33.7516 23.4624 33.7816 23.0024C33.8116 22.5424 33.6816 22.1524 33.4216 21.8224C33.1516 21.4824 32.8016 21.2724 32.3516 21.1924C31.9016 21.1124 31.4516 21.2524 30.9916 21.6124Z" fill="black"/>
<path d="M44.0306 23.8463L40.1606 15.7963L37.2606 17.1862L36.6406 15.8963L43.9106 12.4062L44.5306 13.6962L41.6306 15.0863L45.4906 23.1363L44.0306 23.8363V23.8463Z" fill="black"/>
<path fill-rule="evenodd" clip-rule="evenodd" d="M59.7079 67.3238L62.4998 87L65.2961 67.2923L85 64.4964L65.3202 61.7041L62.5005 42L59.6832 61.6868L40 64.5035L59.7079 67.3238Z" fill="black"/>
</g>
<defs>
<clipPath id="clip0_869_132139">
<rect width="109.91" height="109.61" fill="white" transform="translate(9 9)"/>
</clipPath>
</defs>
</svg>
