<svg width="120" height="136" viewBox="0 0 120 136" fill="none" xmlns="http://www.w3.org/2000/svg">
<path d="M119.049 136V109H66.6492L31.6492 112.4C31.6492 101.8 37.8492 98 50.8492 94L80.0492 86C103.849 79.4 119.449 67.6 119.449 43.8C119.449 18.4 103.049 -1.43051e-06 62.6492 -1.43051e-06C18.0492 -1.43051e-06 0.249219 23.6 0.249219 49.6V52.2H29.6492V49.6C29.6492 34.8 37.0492 27.4 61.6492 27.4C83.6492 27.4 89.2492 33.2 89.2492 43.4C89.2492 52.2 84.8492 56.2 72.8492 60.4L38.4492 71.6C10.2492 81 0.0492191 93.2 0.0492191 116.8V136H119.049Z" fill="url(#paint0_linear_1252_200912)" fill-opacity="0.15"/>
<defs>
<linearGradient id="paint0_linear_1252_200912" x1="59.7795" y1="-23" x2="59.7795" y2="177" gradientUnits="userSpaceOnUse">
<stop stop-color="#FFB13D"/>
<stop offset="1" stop-color="#FFB13D" stop-opacity="0.64"/>
</linearGradient>
</defs>
</svg>
