<svg width="127" height="138" viewBox="0 0 127 138" fill="none" xmlns="http://www.w3.org/2000/svg">
<path d="M64.0531 138C103.053 138 126.253 124.4 126.253 98.4C126.253 78.8 113.453 68.8 93.8531 66V63.8C111.253 61.6 120.453 51.2 120.453 35.8C120.453 12.2 100.653 -1.43051e-06 64.8531 -1.43051e-06C21.2531 -1.43051e-06 0.453125 19.2 0.453125 47.4V48.4H32.2531V47.4C32.2531 33.8 38.2531 28.8 62.2531 28.8C85.0531 28.8 90.6531 32.8 90.6531 42.2C90.6531 50.6 85.4531 54.8 73.8531 54.8H38.0531V79.4H76.6531C89.2531 79.4 95.6531 83.6 95.6531 93.6C95.6531 105.2 87.8531 109.2 62.6531 109.2C36.0531 109.2 32.2531 104.2 32.2531 90.6V87.4H0.453125V90.6C0.453125 120.2 20.2531 138 64.0531 138Z" fill="url(#paint0_linear_1252_200968)" fill-opacity="0.15"/>
<defs>
<linearGradient id="paint0_linear_1252_200968" x1="62.7755" y1="-23" x2="62.7755" y2="177" gradientUnits="userSpaceOnUse">
<stop stop-color="#FFB13D"/>
<stop offset="1" stop-color="#FFB13D" stop-opacity="0.64"/>
</linearGradient>
</defs>
</svg>
