<svg width="10" height="10" viewBox="0 0 10 10" fill="none" xmlns="http://www.w3.org/2000/svg">
<path d="M0.0474244 9.61424C0.0774746 9.68687 0.121804 9.75498 0.180415 9.81428C0.182172 9.81606 0.183939 9.81783 0.185717 9.81958C0.298603 9.93113 0.453759 10 0.625 10L6.875 10C7.22018 10 7.5 9.72018 7.5 9.375C7.5 9.02982 7.22018 8.75 6.875 8.75L2.13388 8.75L9.81694 1.06694C10.061 0.822865 10.061 0.427135 9.81694 0.183059C9.57286 -0.061018 9.17714 -0.0610181 8.93306 0.183059L1.25 7.86612L1.25 3.125C1.25 2.77982 0.970179 2.5 0.625001 2.5C0.279822 2.5 6.31208e-07 2.77982 6.01032e-07 3.125L5.46392e-08 9.375C4.72307e-08 9.45974 0.0168667 9.54055 0.0474244 9.61424Z" fill="#F12C2C"/>
</svg>
