<svg width="175" height="44" viewBox="0 0 175 44" fill="none" xmlns="http://www.w3.org/2000/svg">
<rect opacity="0.5" x="0.5" y="1.5" width="25" height="41" rx="12.5" stroke="#FBFBF4"/>
<rect x="10" y="9" width="6" height="12" rx="3" fill="#D9D9D9"/>
<path d="M44.67 16.14C43.858 16.14 43.144 15.9907 42.528 15.692C41.912 15.384 41.3987 14.978 40.988 14.474C40.5867 13.9607 40.2833 13.3913 40.078 12.766C39.8727 12.1313 39.77 11.4827 39.77 10.82C39.77 10.1573 39.8727 9.50867 40.078 8.874C40.2833 8.23933 40.5867 7.67 40.988 7.166C41.3987 6.65267 41.912 6.24667 42.528 5.948C43.144 5.64933 43.858 5.5 44.67 5.5C45.342 5.5 45.916 5.58867 46.392 5.766C46.8773 5.934 47.2787 6.15333 47.596 6.424C47.9227 6.69467 48.184 6.984 48.38 7.292C48.5853 7.6 48.7347 7.88933 48.828 8.16C48.9307 8.43067 48.996 8.65467 49.024 8.832C49.0613 9 49.08 9.084 49.08 9.084H47.708C47.708 9.084 47.6893 9.00933 47.652 8.86C47.6147 8.70133 47.54 8.51 47.428 8.286C47.316 8.05267 47.148 7.81933 46.924 7.586C46.7 7.35267 46.406 7.16133 46.042 7.012C45.678 6.85333 45.2253 6.774 44.684 6.774C44.096 6.774 43.5827 6.89067 43.144 7.124C42.7053 7.348 42.3367 7.656 42.038 8.048C41.7487 8.43067 41.5293 8.86467 41.38 9.35C41.24 9.826 41.17 10.316 41.17 10.82C41.17 11.324 41.24 11.8187 41.38 12.304C41.5293 12.78 41.7487 13.214 42.038 13.606C42.3367 13.9887 42.7053 14.2967 43.144 14.53C43.5827 14.754 44.096 14.866 44.684 14.866C45.2253 14.866 45.678 14.7867 46.042 14.628C46.406 14.4693 46.7 14.278 46.924 14.054C47.148 13.8207 47.316 13.592 47.428 13.368C47.54 13.1347 47.6147 12.9387 47.652 12.78C47.6893 12.6213 47.708 12.542 47.708 12.542H49.08C49.08 12.542 49.0613 12.6307 49.024 12.808C48.996 12.976 48.9307 13.2 48.828 13.48C48.7347 13.7507 48.5853 14.04 48.38 14.348C48.184 14.6467 47.9227 14.936 47.596 15.216C47.2787 15.4867 46.8773 15.7107 46.392 15.888C45.916 16.056 45.342 16.14 44.67 16.14ZM53.2575 16.14C52.5201 16.14 51.9321 15.9113 51.4935 15.454C51.0548 14.9967 50.8355 14.362 50.8355 13.55V8.58H52.1655V13.48C52.1655 13.9653 52.2961 14.3387 52.5575 14.6C52.8281 14.8613 53.1828 14.992 53.6215 14.992C54.0695 14.992 54.4288 14.8753 54.6995 14.642C54.9701 14.4087 55.1661 14.11 55.2875 13.746C55.4088 13.382 55.4695 13.0087 55.4695 12.626V8.58H56.7995V16H55.4695V14.936H55.3855C55.3295 15.048 55.2221 15.202 55.0635 15.398C54.9048 15.5847 54.6808 15.7573 54.3915 15.916C54.1021 16.0653 53.7241 16.14 53.2575 16.14ZM60.0812 7.502L61.7752 5.164H62.9092L64.6032 7.502H63.3992L62.3352 6.004L61.2852 7.502H60.0812ZM62.3492 16.14C61.5558 16.14 60.8885 15.958 60.3472 15.594C59.8058 15.2207 59.3952 14.74 59.1152 14.152C58.8352 13.564 58.6952 12.9433 58.6952 12.29C58.6952 11.6273 58.8352 11.0067 59.1152 10.428C59.3952 9.84 59.8058 9.364 60.3472 9C60.8885 8.62667 61.5558 8.44 62.3492 8.44C63.1425 8.44 63.8098 8.62667 64.3512 9C64.8925 9.364 65.3032 9.84 65.5832 10.428C65.8632 11.0067 66.0032 11.6273 66.0032 12.29C66.0032 12.9433 65.8632 13.564 65.5832 14.152C65.3032 14.74 64.8925 15.2207 64.3512 15.594C63.8098 15.958 63.1425 16.14 62.3492 16.14ZM62.3492 14.978C62.8532 14.978 63.2732 14.852 63.6092 14.6C63.9545 14.3387 64.2112 14.0027 64.3792 13.592C64.5565 13.1813 64.6452 12.7473 64.6452 12.29C64.6452 11.8233 64.5565 11.3893 64.3792 10.988C64.2112 10.5773 63.9545 10.246 63.6092 9.994C63.2732 9.73267 62.8532 9.602 62.3492 9.602C61.8545 9.602 61.4345 9.73267 61.0892 9.994C60.7438 10.246 60.4825 10.5773 60.3052 10.988C60.1372 11.3893 60.0532 11.8233 60.0532 12.29C60.0532 12.7473 60.1372 13.1813 60.3052 13.592C60.4825 14.0027 60.7438 14.3387 61.0892 14.6C61.4345 14.852 61.8545 14.978 62.3492 14.978ZM62.3492 19.178C62.0878 19.178 61.8685 19.0847 61.6912 18.898C61.5232 18.7207 61.4392 18.5107 61.4392 18.268C61.4392 18.016 61.5232 17.8013 61.6912 17.624C61.8685 17.4467 62.0878 17.358 62.3492 17.358C62.6105 17.358 62.8252 17.4467 62.9932 17.624C63.1705 17.8013 63.2592 18.016 63.2592 18.268C63.2592 18.52 63.1705 18.7347 62.9932 18.912C62.8252 19.0893 62.6105 19.178 62.3492 19.178ZM67.898 16V8.58H69.228V9.658H69.312C69.3773 9.546 69.4846 9.392 69.634 9.196C69.7926 9 70.0166 8.82733 70.306 8.678C70.5953 8.51933 70.9593 8.44 71.398 8.44C71.9393 8.44 72.4013 8.566 72.784 8.818C73.1666 9.06067 73.456 9.392 73.652 9.812C73.8573 10.232 73.96 10.7033 73.96 11.226V16H72.63V11.31C72.63 10.8153 72.49 10.4047 72.21 10.078C71.9393 9.75133 71.5426 9.588 71.02 9.588C70.6 9.588 70.2593 9.69533 69.998 9.91C69.7366 10.1153 69.5406 10.3907 69.41 10.736C69.2886 11.072 69.228 11.4313 69.228 11.814V16H67.898ZM78.7439 16L81.1659 12.304L78.7299 8.58H80.1719L82.0759 11.52L83.9939 8.58H85.4359L82.9579 12.304L85.4219 16H83.9799L82.0759 13.074L80.1859 16H78.7439ZM89.3922 16.14C88.6549 16.14 88.0669 15.9113 87.6282 15.454C87.1896 14.9967 86.9702 14.362 86.9702 13.55V8.58H88.3002V13.48C88.3002 13.9653 88.4309 14.3387 88.6922 14.6C88.9629 14.8613 89.3176 14.992 89.7562 14.992C90.2042 14.992 90.5636 14.8753 90.8342 14.642C91.1049 14.4087 91.3009 14.11 91.4222 13.746C91.5436 13.382 91.6042 13.0087 91.6042 12.626V8.58H92.9342V16H91.6042V14.936H91.5202C91.4642 15.048 91.3569 15.202 91.1982 15.398C91.0396 15.5847 90.8156 15.7573 90.5262 15.916C90.2369 16.0653 89.8589 16.14 89.3922 16.14ZM101.172 5.71L100.038 5.696L101.242 3.176H102.614L101.172 5.71ZM96.2159 7.502L97.9099 5.444H99.0439L100.738 7.502H99.5339L98.4699 6.214L97.4199 7.502H96.2159ZM98.4839 16.14C97.6906 16.14 97.0233 15.958 96.4819 15.594C95.9406 15.2207 95.5299 14.74 95.2499 14.152C94.9699 13.564 94.8299 12.9433 94.8299 12.29C94.8299 11.6273 94.9699 11.0067 95.2499 10.428C95.5299 9.84 95.9406 9.364 96.4819 9C97.0233 8.62667 97.6906 8.44 98.4839 8.44C99.2773 8.44 99.9446 8.62667 100.486 9C101.027 9.364 101.438 9.84 101.718 10.428C101.998 11.0067 102.138 11.6273 102.138 12.29C102.138 12.9433 101.998 13.564 101.718 14.152C101.438 14.74 101.027 15.2207 100.486 15.594C99.9446 15.958 99.2773 16.14 98.4839 16.14ZM98.4839 14.978C98.9879 14.978 99.4079 14.852 99.7439 14.6C100.089 14.3387 100.346 14.0027 100.514 13.592C100.691 13.1813 100.78 12.7473 100.78 12.29C100.78 11.8233 100.691 11.3893 100.514 10.988C100.346 10.5773 100.089 10.246 99.7439 9.994C99.4079 9.73267 98.9879 9.602 98.4839 9.602C97.9893 9.602 97.5693 9.73267 97.2239 9.994C96.8786 10.246 96.6173 10.5773 96.4399 10.988C96.2719 11.3893 96.1879 11.8233 96.1879 12.29C96.1879 12.7473 96.2719 13.1813 96.4399 13.592C96.6173 14.0027 96.8786 14.3387 97.2239 14.6C97.5693 14.852 97.9893 14.978 98.4839 14.978ZM104.033 16V8.58H105.363V9.658H105.447C105.512 9.546 105.619 9.392 105.769 9.196C105.927 9 106.151 8.82733 106.441 8.678C106.73 8.51933 107.094 8.44 107.533 8.44C108.074 8.44 108.536 8.566 108.919 8.818C109.301 9.06067 109.591 9.392 109.787 9.812C109.992 10.232 110.095 10.7033 110.095 11.226V16H108.765V11.31C108.765 10.8153 108.625 10.4047 108.345 10.078C108.074 9.75133 107.677 9.588 107.155 9.588C106.735 9.588 106.394 9.69533 106.133 9.91C105.871 10.1153 105.675 10.3907 105.545 10.736C105.423 11.072 105.363 11.4313 105.363 11.814V16H104.033ZM115.628 18.94C115.012 18.94 114.499 18.856 114.088 18.688C113.677 18.5293 113.346 18.324 113.094 18.072C112.851 17.8293 112.669 17.5867 112.548 17.344C112.427 17.1013 112.347 16.896 112.31 16.728C112.273 16.5693 112.254 16.49 112.254 16.49H113.584C113.584 16.49 113.607 16.5553 113.654 16.686C113.701 16.8167 113.789 16.966 113.92 17.134C114.06 17.302 114.265 17.4513 114.536 17.582C114.807 17.7127 115.171 17.778 115.628 17.778C116.169 17.778 116.594 17.6707 116.902 17.456C117.21 17.2507 117.429 16.98 117.56 16.644C117.7 16.308 117.77 15.9533 117.77 15.58V14.726H117.7C117.607 14.8847 117.457 15.0667 117.252 15.272C117.056 15.468 116.795 15.6407 116.468 15.79C116.141 15.93 115.74 16 115.264 16C114.704 16 114.214 15.8927 113.794 15.678C113.374 15.4633 113.024 15.174 112.744 14.81C112.473 14.446 112.268 14.04 112.128 13.592C111.988 13.144 111.918 12.6867 111.918 12.22C111.918 11.7533 111.988 11.296 112.128 10.848C112.268 10.4 112.473 9.994 112.744 9.63C113.024 9.266 113.374 8.97667 113.794 8.762C114.214 8.54733 114.704 8.44 115.264 8.44C115.74 8.44 116.141 8.51467 116.468 8.664C116.795 8.804 117.056 8.972 117.252 9.168C117.457 9.364 117.607 9.546 117.7 9.714H117.77V8.58H119.1V15.566C119.1 16.602 118.797 17.4233 118.19 18.03C117.593 18.6367 116.739 18.94 115.628 18.94ZM115.516 14.866C116.011 14.866 116.421 14.74 116.748 14.488C117.084 14.2267 117.331 13.8953 117.49 13.494C117.658 13.0927 117.742 12.668 117.742 12.22C117.742 11.772 117.658 11.3473 117.49 10.946C117.331 10.5353 117.084 10.204 116.748 9.952C116.421 9.7 116.011 9.574 115.516 9.574C115.021 9.574 114.606 9.7 114.27 9.952C113.934 10.204 113.682 10.5353 113.514 10.946C113.355 11.3473 113.276 11.772 113.276 12.22C113.276 12.668 113.355 13.0927 113.514 13.494C113.682 13.8953 113.934 14.2267 114.27 14.488C114.606 14.74 115.021 14.866 115.516 14.866Z" fill="white"/>
<path d="M40.68 39V35.088H39.48V34.032H40.68V30.12H43.56C44.272 30.12 44.892 30.248 45.42 30.504C45.948 30.752 46.388 31.088 46.74 31.512C47.092 31.936 47.356 32.412 47.532 32.94C47.708 33.468 47.796 34.008 47.796 34.56C47.796 35.112 47.708 35.652 47.532 36.18C47.356 36.708 47.092 37.184 46.74 37.608C46.388 38.032 45.948 38.372 45.42 38.628C44.892 38.876 44.272 39 43.56 39H40.68ZM43.728 35.088H41.856V37.968H43.512C44.032 37.968 44.484 37.872 44.868 37.68C45.26 37.488 45.584 37.232 45.84 36.912C46.104 36.584 46.3 36.216 46.428 35.808C46.556 35.4 46.62 34.984 46.62 34.56C46.62 34.136 46.556 33.72 46.428 33.312C46.3 32.904 46.104 32.54 45.84 32.22C45.584 31.892 45.26 31.632 44.868 31.44C44.484 31.248 44.032 31.152 43.512 31.152H41.856V34.032H43.728V35.088ZM53.653 30.288V29.904C53.653 29.824 53.669 29.744 53.701 29.664C53.733 29.584 53.797 29.52 53.893 29.472L54.061 29.388C54.429 29.204 54.613 29 54.613 28.776C54.613 28.664 54.569 28.564 54.481 28.476C54.401 28.38 54.269 28.332 54.085 28.332C53.925 28.332 53.805 28.368 53.725 28.44C53.653 28.504 53.605 28.576 53.581 28.656C53.557 28.736 53.545 28.8 53.545 28.848H52.753C52.753 28.648 52.797 28.456 52.885 28.272C52.981 28.088 53.125 27.936 53.317 27.816C53.517 27.696 53.769 27.636 54.073 27.636C54.497 27.636 54.829 27.748 55.069 27.972C55.317 28.188 55.441 28.448 55.441 28.752C55.441 28.976 55.365 29.188 55.213 29.388C55.061 29.58 54.817 29.756 54.481 29.916L54.433 29.94V30.288H53.653ZM50.269 31.74L51.721 29.976H52.693L54.145 31.74H53.113L52.201 30.636L51.301 31.74H50.269ZM52.249 39.12C51.729 39.12 51.277 39.028 50.893 38.844C50.517 38.652 50.205 38.396 49.957 38.076C49.717 37.756 49.537 37.404 49.417 37.02C49.297 36.628 49.237 36.228 49.237 35.82C49.237 35.42 49.293 35.024 49.405 34.632C49.525 34.24 49.705 33.884 49.945 33.564C50.193 33.244 50.501 32.992 50.869 32.808C51.245 32.616 51.689 32.52 52.201 32.52C52.745 32.52 53.225 32.644 53.641 32.892C54.057 33.14 54.385 33.508 54.625 33.996C54.865 34.484 54.985 35.096 54.985 35.832V36.168H50.389C50.413 36.528 50.497 36.86 50.641 37.164C50.793 37.46 51.005 37.7 51.277 37.884C51.549 38.06 51.873 38.148 52.249 38.148C52.577 38.148 52.841 38.096 53.041 37.992C53.249 37.88 53.413 37.752 53.533 37.608C53.653 37.464 53.733 37.34 53.773 37.236C53.821 37.124 53.845 37.068 53.845 37.068H54.913C54.913 37.068 54.893 37.14 54.853 37.284C54.813 37.42 54.741 37.588 54.637 37.788C54.533 37.988 54.381 38.192 54.181 38.4C53.981 38.6 53.725 38.772 53.413 38.916C53.101 39.052 52.713 39.12 52.249 39.12ZM50.401 35.28H53.869C53.853 34.864 53.765 34.528 53.605 34.272C53.445 34.008 53.241 33.812 52.993 33.684C52.745 33.556 52.481 33.492 52.201 33.492C51.697 33.492 51.285 33.656 50.965 33.984C50.645 34.304 50.457 34.736 50.401 35.28ZM59.4952 39V29.88H60.6352V35.184L63.1672 32.64H64.6552L61.7272 35.532L64.7152 39H63.2632L60.6352 35.94V39H59.4952ZM66.1514 39V29.88H67.2914V33.564H67.3634C67.4194 33.468 67.5114 33.336 67.6394 33.168C67.7754 33 67.9674 32.852 68.2154 32.724C68.4634 32.588 68.7754 32.52 69.1514 32.52C69.6154 32.52 70.0114 32.628 70.3394 32.844C70.6674 33.052 70.9154 33.336 71.0834 33.696C71.2594 34.056 71.3474 34.46 71.3474 34.908V39H70.2074V34.98C70.2074 34.556 70.0874 34.204 69.8474 33.924C69.6154 33.644 69.2754 33.504 68.8274 33.504C68.4674 33.504 68.1754 33.596 67.9514 33.78C67.7274 33.956 67.5594 34.192 67.4474 34.488C67.3434 34.776 67.2914 35.084 67.2914 35.412V39H66.1514ZM76.5915 31.68L75.6195 31.668L76.6515 29.508H77.8275L76.5915 31.68ZM75.8475 32.52C76.2475 32.52 76.5835 32.584 76.8555 32.712C77.1275 32.84 77.3475 32.992 77.5155 33.168C77.6835 33.336 77.8115 33.496 77.8995 33.648H77.9715V32.64H79.1115V39H77.9715V37.992H77.8995C77.8115 38.144 77.6835 38.308 77.5155 38.484C77.3475 38.66 77.1275 38.812 76.8555 38.94C76.5835 39.06 76.2475 39.12 75.8475 39.12C75.3675 39.12 74.9475 39.028 74.5875 38.844C74.2275 38.652 73.9275 38.4 73.6875 38.088C73.4475 37.768 73.2675 37.412 73.1475 37.02C73.0275 36.628 72.9675 36.228 72.9675 35.82C72.9675 35.412 73.0275 35.012 73.1475 34.62C73.2675 34.228 73.4475 33.876 73.6875 33.564C73.9275 33.244 74.2275 32.992 74.5875 32.808C74.9475 32.616 75.3675 32.52 75.8475 32.52ZM76.0395 33.492C75.6155 33.492 75.2595 33.608 74.9715 33.84C74.6835 34.064 74.4675 34.352 74.3235 34.704C74.1875 35.056 74.1195 35.428 74.1195 35.82C74.1195 36.204 74.1875 36.576 74.3235 36.936C74.4675 37.288 74.6835 37.58 74.9715 37.812C75.2595 38.036 75.6155 38.148 76.0395 38.148C76.4635 38.148 76.8155 38.036 77.0955 37.812C77.3835 37.58 77.5955 37.288 77.7315 36.936C77.8755 36.576 77.9475 36.204 77.9475 35.82C77.9475 35.428 77.8755 35.056 77.7315 34.704C77.5955 34.352 77.3835 34.064 77.0955 33.84C76.8155 33.608 76.4635 33.492 76.0395 33.492ZM80.8673 39V32.64H82.0073V33.564H82.0553C82.1193 33.444 82.2193 33.304 82.3553 33.144C82.4913 32.976 82.6753 32.832 82.9073 32.712C83.1473 32.584 83.4473 32.52 83.8073 32.52C84.2793 32.52 84.6753 32.636 84.9953 32.868C85.3233 33.092 85.5673 33.396 85.7273 33.78H85.7393C85.9153 33.428 86.1633 33.132 86.4833 32.892C86.8113 32.644 87.2353 32.52 87.7553 32.52C88.4433 32.52 88.9713 32.756 89.3393 33.228C89.7153 33.692 89.9033 34.292 89.9033 35.028V39H88.7633V35.088C88.7633 34.616 88.6513 34.236 88.4273 33.948C88.2033 33.652 87.8793 33.504 87.4553 33.504C87.0873 33.504 86.7913 33.604 86.5673 33.804C86.3513 34.004 86.1953 34.252 86.0993 34.548C86.0033 34.844 85.9553 35.14 85.9553 35.436V39H84.8153V35.088C84.8153 34.616 84.7033 34.236 84.4793 33.948C84.2633 33.652 83.9393 33.504 83.5073 33.504C83.1393 33.504 82.8433 33.604 82.6193 33.804C82.4033 34.004 82.2473 34.256 82.1513 34.56C82.0553 34.856 82.0073 35.148 82.0073 35.436V39H80.8673ZM94.4639 41.352V32.64H95.6039V33.648H95.6759C95.7719 33.496 95.8999 33.332 96.0599 33.156C96.2279 32.98 96.4479 32.832 96.7199 32.712C96.9919 32.584 97.3279 32.52 97.7279 32.52C98.2079 32.52 98.6279 32.616 98.9879 32.808C99.3479 32.992 99.6479 33.244 99.8879 33.564C100.128 33.876 100.308 34.228 100.428 34.62C100.548 35.012 100.608 35.412 100.608 35.82C100.608 36.228 100.548 36.628 100.428 37.02C100.308 37.412 100.128 37.768 99.8879 38.088C99.6479 38.4 99.3479 38.652 98.9879 38.844C98.6279 39.028 98.2079 39.12 97.7279 39.12C97.3279 39.12 96.9919 39.056 96.7199 38.928C96.4479 38.8 96.2279 38.648 96.0599 38.472C95.8999 38.296 95.7719 38.136 95.6759 37.992H95.6039V41.352H94.4639ZM95.6279 35.82C95.6279 36.204 95.6959 36.576 95.8319 36.936C95.9759 37.288 96.1879 37.58 96.4679 37.812C96.7559 38.036 97.1119 38.148 97.5359 38.148C97.9679 38.148 98.3239 38.036 98.6039 37.812C98.8919 37.58 99.1039 37.288 99.2399 36.936C99.3839 36.576 99.4559 36.204 99.4559 35.82C99.4559 35.428 99.3839 35.056 99.2399 34.704C99.1039 34.352 98.8919 34.064 98.6039 33.84C98.3239 33.608 97.9679 33.492 97.5359 33.492C97.1119 33.492 96.7559 33.608 96.4679 33.84C96.1879 34.064 95.9759 34.352 95.8319 34.704C95.6959 35.056 95.6279 35.428 95.6279 35.82ZM102.292 39V29.88H103.432V33.564H103.504C103.56 33.468 103.652 33.336 103.78 33.168C103.916 33 104.108 32.852 104.356 32.724C104.604 32.588 104.916 32.52 105.292 32.52C105.756 32.52 106.152 32.628 106.48 32.844C106.808 33.052 107.056 33.336 107.224 33.696C107.4 34.056 107.488 34.46 107.488 34.908V39H106.348V34.98C106.348 34.556 106.228 34.204 105.988 33.924C105.756 33.644 105.416 33.504 104.968 33.504C104.608 33.504 104.316 33.596 104.092 33.78C103.868 33.956 103.7 34.192 103.588 34.488C103.484 34.776 103.432 35.084 103.432 35.412V39H102.292ZM112.732 31.68L111.76 31.668L112.792 29.508H113.968L112.732 31.68ZM111.988 32.52C112.388 32.52 112.724 32.584 112.996 32.712C113.268 32.84 113.488 32.992 113.656 33.168C113.824 33.336 113.952 33.496 114.04 33.648H114.112V32.64H115.252V39H114.112V37.992H114.04C113.952 38.144 113.824 38.308 113.656 38.484C113.488 38.66 113.268 38.812 112.996 38.94C112.724 39.06 112.388 39.12 111.988 39.12C111.508 39.12 111.088 39.028 110.728 38.844C110.368 38.652 110.068 38.4 109.828 38.088C109.588 37.768 109.408 37.412 109.288 37.02C109.168 36.628 109.108 36.228 109.108 35.82C109.108 35.412 109.168 35.012 109.288 34.62C109.408 34.228 109.588 33.876 109.828 33.564C110.068 33.244 110.368 32.992 110.728 32.808C111.088 32.616 111.508 32.52 111.988 32.52ZM112.18 33.492C111.756 33.492 111.4 33.608 111.112 33.84C110.824 34.064 110.608 34.352 110.464 34.704C110.328 35.056 110.26 35.428 110.26 35.82C110.26 36.204 110.328 36.576 110.464 36.936C110.608 37.288 110.824 37.58 111.112 37.812C111.4 38.036 111.756 38.148 112.18 38.148C112.604 38.148 112.956 38.036 113.236 37.812C113.524 37.58 113.736 37.288 113.872 36.936C114.016 36.576 114.088 36.204 114.088 35.82C114.088 35.428 114.016 35.056 113.872 34.704C113.736 34.352 113.524 34.064 113.236 33.84C112.956 33.608 112.604 33.492 112.18 33.492ZM119.774 39V32.64H120.914V33.564H120.986C121.042 33.468 121.134 33.336 121.262 33.168C121.398 33 121.59 32.852 121.838 32.724C122.086 32.588 122.398 32.52 122.774 32.52C123.238 32.52 123.634 32.628 123.962 32.844C124.29 33.052 124.538 33.336 124.706 33.696C124.882 34.056 124.97 34.46 124.97 34.908V39H123.83V34.98C123.83 34.556 123.71 34.204 123.47 33.924C123.238 33.644 122.898 33.504 122.45 33.504C122.09 33.504 121.798 33.596 121.574 33.78C121.35 33.956 121.182 34.192 121.07 34.488C120.966 34.776 120.914 35.084 120.914 35.412V39H119.774ZM126.773 39V29.88H127.913V33.564H127.985C128.041 33.468 128.133 33.336 128.261 33.168C128.397 33 128.589 32.852 128.837 32.724C129.085 32.588 129.397 32.52 129.773 32.52C130.237 32.52 130.633 32.628 130.961 32.844C131.289 33.052 131.537 33.336 131.705 33.696C131.881 34.056 131.969 34.46 131.969 34.908V39H130.829V34.98C130.829 34.556 130.709 34.204 130.469 33.924C130.237 33.644 129.897 33.504 129.449 33.504C129.089 33.504 128.797 33.596 128.573 33.78C128.349 33.956 128.181 34.192 128.069 34.488C127.965 34.776 127.913 35.084 127.913 35.412V39H126.773ZM134.393 31.428C134.177 31.428 133.997 31.356 133.853 31.212C133.717 31.068 133.649 30.896 133.649 30.696C133.649 30.488 133.717 30.312 133.853 30.168C133.997 30.024 134.177 29.952 134.393 29.952C134.601 29.952 134.777 30.024 134.921 30.168C135.065 30.312 135.137 30.488 135.137 30.696C135.137 30.896 135.065 31.068 134.921 31.212C134.777 31.356 134.601 31.428 134.393 31.428ZM133.829 39V32.64H134.969V39H133.829ZM141.361 30.204L140.125 28.032H141.301L142.333 30.192L141.361 30.204ZM137.785 31.74L139.237 29.976H140.209L141.661 31.74H140.629L139.717 30.636L138.817 31.74H137.785ZM139.765 39.12C139.245 39.12 138.793 39.028 138.409 38.844C138.033 38.652 137.721 38.396 137.473 38.076C137.233 37.756 137.053 37.404 136.933 37.02C136.813 36.628 136.753 36.228 136.753 35.82C136.753 35.42 136.809 35.024 136.921 34.632C137.041 34.24 137.221 33.884 137.461 33.564C137.709 33.244 138.017 32.992 138.385 32.808C138.761 32.616 139.205 32.52 139.717 32.52C140.261 32.52 140.741 32.644 141.157 32.892C141.573 33.14 141.901 33.508 142.141 33.996C142.381 34.484 142.501 35.096 142.501 35.832V36.168H137.905C137.929 36.528 138.013 36.86 138.157 37.164C138.309 37.46 138.521 37.7 138.793 37.884C139.065 38.06 139.389 38.148 139.765 38.148C140.093 38.148 140.357 38.096 140.557 37.992C140.765 37.88 140.929 37.752 141.049 37.608C141.169 37.464 141.249 37.34 141.289 37.236C141.337 37.124 141.361 37.068 141.361 37.068H142.429C142.429 37.068 142.409 37.14 142.369 37.284C142.329 37.42 142.257 37.588 142.153 37.788C142.049 37.988 141.897 38.192 141.697 38.4C141.497 38.6 141.241 38.772 140.929 38.916C140.617 39.052 140.229 39.12 139.765 39.12ZM137.917 35.28H141.385C141.369 34.864 141.281 34.528 141.121 34.272C140.961 34.008 140.757 33.812 140.509 33.684C140.261 33.556 139.997 33.492 139.717 33.492C139.213 33.492 138.801 33.656 138.481 33.984C138.161 34.304 137.973 34.736 137.917 35.28ZM146.201 39.12C145.569 39.12 145.065 38.924 144.689 38.532C144.313 38.14 144.125 37.596 144.125 36.9V32.64H145.265V36.84C145.265 37.256 145.377 37.576 145.601 37.8C145.833 38.024 146.137 38.136 146.513 38.136C146.897 38.136 147.205 38.036 147.437 37.836C147.669 37.636 147.837 37.38 147.941 37.068C148.045 36.756 148.097 36.436 148.097 36.108V32.64H149.237V39H148.097V38.088H148.025C147.977 38.184 147.885 38.316 147.749 38.484C147.613 38.644 147.421 38.792 147.173 38.928C146.925 39.056 146.601 39.12 146.201 39.12ZM153.808 39V29.88H154.948V33.564H155.02C155.076 33.468 155.168 33.336 155.296 33.168C155.432 33 155.624 32.852 155.872 32.724C156.12 32.588 156.432 32.52 156.808 32.52C157.272 32.52 157.668 32.628 157.996 32.844C158.324 33.052 158.572 33.336 158.74 33.696C158.916 34.056 159.004 34.46 159.004 34.908V39H157.864V34.98C157.864 34.556 157.744 34.204 157.504 33.924C157.272 33.644 156.932 33.504 156.484 33.504C156.124 33.504 155.832 33.596 155.608 33.78C155.384 33.956 155.216 34.192 155.104 34.488C155 34.776 154.948 35.084 154.948 35.412V39H153.808ZM163.696 39.12C163.016 39.12 162.444 38.964 161.98 38.652C161.516 38.332 161.164 37.92 160.924 37.416C160.684 36.912 160.564 36.38 160.564 35.82C160.564 35.252 160.684 34.72 160.924 34.224C161.164 33.72 161.516 33.312 161.98 33C162.444 32.68 163.016 32.52 163.696 32.52H165.328C165.64 32.52 165.796 32.356 165.796 32.028V31.308H166.804V32.028C166.804 32.38 166.716 32.668 166.54 32.892C166.364 33.108 166.1 33.228 165.748 33.252C166.1 33.564 166.368 33.948 166.552 34.404C166.736 34.852 166.828 35.324 166.828 35.82C166.828 36.38 166.708 36.912 166.468 37.416C166.228 37.92 165.876 38.332 165.412 38.652C164.948 38.964 164.376 39.12 163.696 39.12ZM163.696 38.124C164.128 38.124 164.488 38.016 164.776 37.8C165.072 37.576 165.292 37.288 165.436 36.936C165.588 36.584 165.664 36.212 165.664 35.82C165.664 35.42 165.588 35.048 165.436 34.704C165.292 34.352 165.072 34.068 164.776 33.852C164.488 33.628 164.128 33.516 163.696 33.516C163.272 33.516 162.912 33.628 162.616 33.852C162.32 34.068 162.096 34.352 161.944 34.704C161.8 35.048 161.728 35.42 161.728 35.82C161.728 36.212 161.8 36.584 161.944 36.936C162.096 37.288 162.32 37.576 162.616 37.8C162.912 38.016 163.272 38.124 163.696 38.124ZM168.383 39V32.64H169.523V33.564H169.595C169.651 33.468 169.743 33.336 169.871 33.168C170.007 33 170.199 32.852 170.447 32.724C170.695 32.588 171.007 32.52 171.383 32.52C171.847 32.52 172.243 32.628 172.571 32.844C172.899 33.052 173.147 33.336 173.315 33.696C173.491 34.056 173.579 34.46 173.579 34.908V39H172.439V34.98C172.439 34.556 172.319 34.204 172.079 33.924C171.847 33.644 171.507 33.504 171.059 33.504C170.699 33.504 170.407 33.596 170.183 33.78C169.959 33.956 169.791 34.192 169.679 34.488C169.575 34.776 169.523 35.084 169.523 35.412V39H168.383Z" fill="#9496A8"/>
</svg>
