<svg width="10" height="10" viewBox="0 0 10 10" fill="none" xmlns="http://www.w3.org/2000/svg">
<path d="M9.95258 0.385761C9.92253 0.313133 9.8782 0.245021 9.81958 0.185717C9.81783 0.183939 9.81606 0.182172 9.81428 0.180415C9.7014 0.0688667 9.54624 0 9.375 0H3.125C2.77982 0 2.5 0.279822 2.5 0.625C2.5 0.970178 2.77982 1.25 3.125 1.25H7.86612L0.183058 8.93306C-0.0610194 9.17714 -0.0610194 9.57286 0.183058 9.81694C0.427136 10.061 0.822864 10.061 1.06694 9.81694L8.75 2.13388V6.875C8.75 7.22018 9.02982 7.5 9.375 7.5C9.72018 7.5 10 7.22018 10 6.875V0.625C10 0.540257 9.98313 0.459453 9.95258 0.385761Z" fill="#01AE70"/>
</svg>
