<svg width="230" height="157" viewBox="0 0 230 157" fill="none" xmlns="http://www.w3.org/2000/svg">
<circle cx="127.214" cy="62.2292" r="5.55166" fill="url(#paint0_linear_12118_61566)" stroke="#FFD990" stroke-width="0.644982"/>
<path d="M129.298 64.8949C129.519 64.6875 129.532 64.3345 129.327 64.1065C129.122 63.8785 128.776 63.8618 128.556 64.0692C128.335 64.2766 128.322 64.6296 128.527 64.8576C128.732 65.0856 129.078 65.1024 129.298 64.8949Z" fill="white"/>
<path d="M129.473 62.7263C129.473 62.7743 129.471 62.8232 129.468 62.8712C129.465 62.9113 129.462 62.9524 129.457 62.9925C129.455 63.016 129.452 63.0385 129.449 63.061C129.402 63.2685 129.204 63.4006 128.998 63.3576C128.99 63.3556 128.982 63.3537 128.974 63.3517L128.924 63.3341C128.77 63.2685 128.672 63.107 128.686 62.9358C128.689 62.9181 128.691 62.9015 128.691 62.8839C128.691 62.88 128.693 62.8751 128.693 62.8712C128.698 62.8232 128.7 62.7752 128.7 62.7263C128.7 62.5237 128.662 62.3309 128.591 62.1547C128.537 62.0177 128.465 61.8915 128.375 61.7779C128.355 61.7515 128.334 61.7261 128.312 61.7016C128.307 61.6938 128.3 61.6869 128.293 61.6791C128.257 61.638 128.218 61.5998 128.179 61.5646C127.659 61.0958 126.896 61.0478 126.335 61.4422C126.279 61.4824 126.224 61.5264 126.172 61.5753C125.872 61.8572 125.712 62.2379 125.695 62.6265C125.693 62.6725 125.693 62.7195 125.695 62.7655V62.7674C125.698 62.8349 125.706 62.9025 125.718 62.97C125.767 63.2489 125.893 63.5181 126.096 63.7442C126.147 63.8019 126.203 63.8558 126.261 63.9027C126.272 63.9115 126.282 63.9194 126.293 63.9282C126.307 63.9399 126.323 63.9517 126.338 63.9624C126.339 63.9634 126.34 63.9644 126.341 63.9644C126.362 63.9801 126.383 63.9957 126.405 64.0084C126.637 64.1621 126.913 64.2502 127.209 64.2502C127.272 64.2502 127.334 64.2463 127.395 64.2384H127.398C127.434 64.2345 127.471 64.2365 127.508 64.2443C127.717 64.2883 127.854 64.4968 127.813 64.7102C127.783 64.8717 127.659 64.9901 127.511 65.0195C127.496 65.0224 127.479 65.0243 127.463 65.0253C127.44 65.0283 127.417 65.0302 127.394 65.0322C127.363 65.0351 127.333 65.0371 127.302 65.0381C127.271 65.039 127.24 65.04 127.209 65.04C127.175 65.04 127.139 65.039 127.105 65.0371C126.911 65.0273 126.719 64.9921 126.532 64.9323C126.484 64.9177 126.438 64.901 126.392 64.8815C126.367 64.8717 126.341 64.8609 126.316 64.8501C126.287 64.8374 126.259 64.8247 126.232 64.81C126.199 64.7943 126.166 64.7767 126.135 64.7601H126.134C126.101 64.7405 126.07 64.7219 126.039 64.7033C125.853 64.5908 125.681 64.4489 125.527 64.2776C125.361 64.0926 125.229 63.8881 125.131 63.6718C125.072 63.5416 125.025 63.4075 124.991 63.2715C124.955 63.1315 124.933 62.9896 124.924 62.8467C124.921 62.8027 124.919 62.7586 124.918 62.7136V62.6676L124.914 60.2541C124.914 60.0348 125.087 59.8587 125.302 59.8606C125.516 59.8626 125.691 60.0427 125.692 60.2619V60.9441L126.324 59.383C126.405 59.1804 126.632 59.0864 126.831 59.1726C127.029 59.2587 127.124 59.4916 127.042 59.6942L126.748 60.4224C127.496 60.2785 128.303 60.5252 128.861 61.1457C128.91 61.1995 128.955 61.2553 128.996 61.3121C129.024 61.3483 129.05 61.3855 129.075 61.4236C129.086 61.4383 129.096 61.453 129.104 61.4677C129.12 61.4921 129.135 61.5156 129.149 61.5401C129.354 61.8885 129.473 62.2937 129.473 62.7263Z" fill="white"/>
<rect x="209.492" y="148.469" width="8.28001" height="166.52" transform="rotate(90 209.492 148.469)" fill="url(#paint1_radial_12118_61566)"/>
<path fill-rule="evenodd" clip-rule="evenodd" d="M85.1515 51.6201C84.4315 43.0985 92.1266 36.2907 100.497 38.0441L114.009 40.8746C114.785 41.0372 115.282 41.798 115.12 42.574C114.957 43.35 114.197 43.8472 113.421 43.6847L99.9082 40.8541C93.4195 39.4949 87.4542 44.7724 88.0123 51.3784C88.0791 52.1684 87.4928 52.863 86.7028 52.9297C85.9128 52.9965 85.2182 52.4101 85.1515 51.6201Z" fill="#E0E9F9"/>
<path fill-rule="evenodd" clip-rule="evenodd" d="M141.518 33.2184C136.98 25.9698 126.739 25.1421 121.096 31.5679L111.986 41.9411C111.463 42.5368 111.522 43.4438 112.117 43.967C112.713 44.4902 113.62 44.4313 114.143 43.8356L123.253 33.4624C127.628 28.4811 135.567 29.1227 139.085 34.7419C139.505 35.4139 140.391 35.6176 141.063 35.1969C141.735 34.7762 141.939 33.8904 141.518 33.2184Z" fill="#E0E9F9"/>
<rect x="79.9727" y="53.8672" width="73.8894" height="11.4842" rx="1.43552" transform="rotate(-18.2531 79.9727 53.8672)" fill="url(#paint2_linear_12118_61566)"/>
<rect x="109.242" y="44.0234" width="11.4842" height="11.6444" transform="rotate(-18.2496 109.242 44.0234)" fill="url(#paint3_linear_12118_61566)"/>
<path d="M170.485 44.4815L172.112 41.5078L173.738 44.4815L176.712 46.108L173.738 47.7341L172.112 50.7078L170.485 47.7341L167.512 46.108L170.485 44.4815Z" fill="#13C7C7"/>
<path d="M64.2959 88.292L65.2719 86.5078L66.2475 88.292L68.0317 89.2679L66.2475 90.2436L65.2719 92.0278L64.2959 90.2436L62.5117 89.2679L64.2959 88.292Z" fill="#13C7C7"/>
<path d="M86.9511 73.4472L88.0119 71.5078L89.0723 73.4472L91.0117 74.508L89.0723 75.5684L88.0119 77.5078L86.9511 75.5684L85.0117 74.508L86.9511 73.4472Z" fill="#13C7C7"/>
<path d="M150.082 70.0738L151.22 67.9922L152.358 70.0738L154.44 71.2123L152.358 72.3506L151.22 74.4322L150.082 72.3506L148 71.2123L150.082 70.0738Z" fill="#13C7C7"/>
<path d="M169.593 88.5894L170.732 86.5078L171.87 88.5894L173.952 89.728L171.87 90.8662L170.732 92.9478L169.593 90.8662L167.512 89.728L169.593 88.5894Z" fill="#13C7C7"/>
<path d="M64.5933 36.0894L65.7319 34.0078L66.8701 36.0894L68.9517 37.228L66.8701 38.3662L65.7319 40.4478L64.5933 38.3662L62.5117 37.228L64.5933 36.0894Z" fill="#13C7C7"/>
<circle cx="112.922" cy="78.9266" r="7.8" transform="rotate(-3.38744 112.922 78.9266)" fill="url(#paint4_linear_12118_61566)" stroke="#FFD990" stroke-width="0.6"/>
<path d="M116.151 82.5626C116.45 82.2469 116.438 81.7404 116.125 81.4313C115.812 81.1222 115.317 81.1275 115.018 81.4432C114.72 81.7589 114.732 82.2654 115.044 82.5745C115.357 82.8835 115.853 82.8782 116.151 82.5626Z" fill="white"/>
<path d="M116.218 79.4428C116.222 79.5115 116.223 79.5817 116.223 79.6506C116.222 79.7083 116.222 79.7674 116.218 79.8253C116.216 79.8591 116.214 79.8916 116.212 79.9241C116.162 80.2251 115.89 80.4311 115.591 80.3869C115.58 80.3847 115.568 80.3827 115.556 80.3805L115.484 80.3595C115.257 80.2787 115.104 80.0557 115.108 79.8094C115.111 79.7839 115.112 79.7599 115.112 79.7346C115.112 79.729 115.114 79.7219 115.114 79.7162C115.117 79.6472 115.115 79.5784 115.111 79.5083C115.094 79.2182 115.023 78.9454 114.907 78.6992C114.818 78.5075 114.703 78.3329 114.565 78.178C114.535 78.1418 114.503 78.1072 114.469 78.074C114.46 78.0633 114.45 78.054 114.44 78.0434C114.384 77.9876 114.326 77.9362 114.267 77.8891C113.483 77.2619 112.386 77.258 111.616 77.8702C111.539 77.9325 111.464 78.0002 111.394 78.0746C110.988 78.5037 110.791 79.0623 110.801 79.62C110.802 79.686 110.806 79.7533 110.813 79.819L110.813 79.8218C110.823 79.9182 110.839 80.0143 110.863 80.1099C110.956 80.5051 111.159 80.8799 111.469 81.1864C111.548 81.2646 111.632 81.337 111.719 81.3993C111.735 81.411 111.751 81.4214 111.767 81.4331C111.788 81.4487 111.811 81.4642 111.834 81.4783C111.835 81.4796 111.837 81.481 111.838 81.4809C111.87 81.5015 111.901 81.5221 111.934 81.5385C112.279 81.7389 112.682 81.8415 113.106 81.8164C113.196 81.8111 113.284 81.8003 113.371 81.7839L113.375 81.7836C113.427 81.775 113.479 81.7747 113.533 81.7827C113.836 81.8281 114.049 82.115 114.01 82.4238C113.98 82.6577 113.813 82.8377 113.603 82.8923C113.581 82.8978 113.558 82.902 113.535 82.9048C113.502 82.9109 113.469 82.9157 113.437 82.9204C113.393 82.9272 113.349 82.9326 113.306 82.9366C113.26 82.9407 113.217 82.9447 113.173 82.9473C113.123 82.9502 113.073 82.9518 113.023 82.9519C112.745 82.9543 112.467 82.9202 112.194 82.8505C112.125 82.8336 112.057 82.8136 111.99 82.7895C111.952 82.7777 111.914 82.7645 111.878 82.7511C111.835 82.7354 111.795 82.7195 111.754 82.7008C111.706 82.6812 111.658 82.6587 111.611 82.6376L111.61 82.6376C111.561 82.6124 111.514 82.5884 111.469 82.5644C111.193 82.419 110.935 82.2304 110.699 81.9983C110.447 81.7475 110.24 81.4658 110.082 81.1644C109.986 80.983 109.907 80.795 109.846 80.6032C109.784 80.4058 109.74 80.2045 109.715 80.0007C109.707 79.9379 109.7 79.875 109.695 79.8106L109.691 79.7447L109.481 76.2895C109.462 75.9756 109.696 75.7087 110.003 75.6933C110.31 75.6779 110.575 75.921 110.595 76.2348L110.653 77.2115L111.425 74.9229C111.525 74.6259 111.842 74.4722 112.134 74.5786C112.425 74.6851 112.581 75.0106 112.48 75.3076L112.121 76.3751C113.181 76.1057 114.356 76.3905 115.208 77.2316C115.282 77.3045 115.351 77.3806 115.415 77.4583C115.458 77.5078 115.498 77.5589 115.538 77.6114C115.555 77.6315 115.57 77.6517 115.583 77.672C115.609 77.7056 115.631 77.738 115.654 77.7719C115.977 78.2534 116.181 78.8234 116.218 79.4428Z" fill="white"/>
<circle cx="134.329" cy="81.302" r="9.83125" transform="rotate(41.31 134.329 81.302)" fill="url(#paint5_linear_12118_61566)" stroke="#FFD990" stroke-width="0.75625"/>
<path d="M133.993 87.4247C134.54 87.4065 134.978 86.9423 134.972 86.388C134.966 85.8336 134.517 85.399 133.97 85.4172C133.422 85.4354 132.984 85.8995 132.99 86.4539C132.996 87.0083 133.445 87.4429 133.993 87.4247Z" fill="white"/>
<path d="M136.818 84.6882C136.76 84.7533 136.699 84.8175 136.638 84.8792C136.586 84.9302 136.533 84.9826 136.479 85.0314C136.447 85.0599 136.416 85.087 136.386 85.1142C136.074 85.3399 135.647 85.2828 135.419 84.9786C135.411 84.9668 135.402 84.9539 135.394 84.9421L135.347 84.8588C135.216 84.5857 135.276 84.2499 135.499 84.0333C135.524 84.0128 135.546 83.9925 135.569 83.9697C135.573 83.9644 135.582 83.9601 135.586 83.9548C135.65 83.8953 135.71 83.8325 135.768 83.7661C136.01 83.491 136.188 83.1834 136.302 82.8597C136.393 82.6096 136.445 82.3513 136.458 82.0897C136.464 82.031 136.465 81.9713 136.465 81.9118C136.466 81.8943 136.465 81.877 136.465 81.8584C136.465 81.7591 136.459 81.6616 136.447 81.5669C136.301 80.3098 135.322 79.334 134.089 79.2C133.965 79.1871 133.838 79.1817 133.709 79.1865C132.965 79.2104 132.293 79.5366 131.807 80.0448C131.75 80.105 131.694 80.1688 131.641 80.2335L131.639 80.2362C131.562 80.3313 131.492 80.4321 131.429 80.5387C131.162 80.9757 131.011 81.4909 131.017 82.0402C131.018 82.1803 131.029 82.3196 131.053 82.4531C131.057 82.4777 131.061 82.5009 131.065 82.5254C131.071 82.5585 131.078 82.5927 131.085 82.6256C131.086 82.6281 131.086 82.6306 131.087 82.6317C131.097 82.6781 131.107 82.7245 131.122 82.7681C131.253 83.2533 131.524 83.7031 131.925 84.0562C132.011 84.1316 132.099 84.1994 132.192 84.2619L132.195 84.2653C132.25 84.3035 132.297 84.3495 132.338 84.4047C132.569 84.7136 132.506 85.1601 132.197 85.4018C131.962 85.5846 131.653 85.598 131.417 85.4607C131.393 85.4464 131.368 85.4297 131.345 85.4116C131.31 85.3881 131.277 85.3634 131.243 85.3386C131.198 85.306 131.154 85.2721 131.111 85.2369C131.067 85.2005 131.024 85.1653 130.983 85.1287C130.936 85.0876 130.889 85.044 130.845 85.0002C130.594 84.756 130.374 84.4785 130.192 84.1746C130.144 84.0976 130.102 84.0201 130.063 83.9387C130.039 83.8946 130.017 83.8491 129.996 83.8048C129.972 83.7532 129.95 83.7028 129.93 83.6497C129.904 83.5896 129.881 83.5268 129.858 83.4665L129.857 83.4654C129.836 83.3999 129.815 83.337 129.796 83.2752C129.678 82.9007 129.613 82.5023 129.608 82.0857C129.604 81.6369 129.669 81.2014 129.794 80.7911C129.869 80.5435 129.965 80.3055 130.081 80.0796C130.2 79.8473 130.339 79.6283 130.497 79.4228C130.545 79.3596 130.595 79.2975 130.648 79.2352L130.702 79.1728L133.578 75.8908C133.839 75.5931 134.285 75.5607 134.574 75.8194C134.863 76.078 134.884 76.5305 134.624 76.8293L133.81 77.7556L136.531 76.39C136.883 76.2121 137.304 76.3553 137.471 76.7099C137.638 77.0634 137.488 77.4928 137.135 77.6697L135.867 78.3077C137.055 79.0059 137.855 80.3029 137.873 81.8117C137.875 81.943 137.87 82.0725 137.858 82.1987C137.852 82.281 137.843 82.3624 137.833 82.4451C137.829 82.4776 137.825 82.5089 137.819 82.5392C137.812 82.5918 137.803 82.6408 137.794 82.6912C137.656 83.4089 137.334 84.1008 136.818 84.6882Z" fill="white"/>
<rect x="89.9336" y="80.3867" width="70.7203" height="57.8621" transform="rotate(3.14816 89.9336 80.3867)" fill="url(#paint6_linear_12118_61566)"/>
<rect x="118.82" y="81.9688" width="12.8582" height="57.8621" transform="rotate(3.14816 118.82 81.9688)" fill="url(#paint7_linear_12118_61566)"/>
<path d="M192.925 100.07C192.925 104.962 188.958 108.929 184.066 108.929C179.174 108.929 175.207 104.962 175.207 100.07C175.207 95.1775 179.174 91.2109 184.066 91.2109C188.958 91.2109 192.925 95.1775 192.925 100.07Z" fill="#13C7C7"/>
<mask id="mask0_12118_61566" style="mask-type:luminance" maskUnits="userSpaceOnUse" x="175" y="91" width="18" height="18">
<path d="M192.925 100.07C192.925 104.962 188.958 108.929 184.066 108.929C179.174 108.929 175.207 104.962 175.207 100.07C175.207 95.1775 179.174 91.2109 184.066 91.2109C188.958 91.2109 192.925 95.1775 192.925 100.07Z" fill="white"/>
</mask>
<g mask="url(#mask0_12118_61566)">
<path d="M184.09 109.009C186.28 109.009 188.346 108.65 190.177 108.016L189.735 104.108C189.681 103.629 188.911 103.299 187.96 103.18C185.371 102.857 182.808 102.857 180.219 103.18C179.269 103.298 178.498 103.627 178.445 104.108L178.004 108.016C179.835 108.65 181.9 109.009 184.09 109.009Z" fill="#0E303F"/>
<path d="M184.091 109.007C185.988 109.007 187.79 108.737 189.428 108.253L189.062 104.026C189.036 103.712 188.805 103.454 188.457 103.265C188.299 103.229 188.133 103.2 187.962 103.18C185.373 102.857 182.81 102.857 180.221 103.18C180.048 103.202 179.882 103.229 179.725 103.265C179.377 103.454 179.147 103.712 179.119 104.026L178.754 108.253C180.392 108.737 182.194 109.007 184.091 109.007Z" fill="#2C5871"/>
<path d="M185.165 108.975C185.214 108.973 185.265 108.97 185.314 108.966C185.597 107.959 185.873 106.717 186.097 105.356C186.232 104.545 186.279 103.754 186.259 103.011C184.817 102.866 183.368 102.866 181.926 103.011C181.907 103.752 181.953 104.543 182.087 105.355C182.311 106.716 182.587 107.958 182.87 108.964C182.919 108.967 182.967 108.971 183.017 108.973C183.142 108.98 183.268 108.986 183.394 108.991C183.625 108.999 183.857 109.004 184.092 109.004C184.327 109.004 184.558 108.999 184.79 108.991C184.915 108.986 185.04 108.98 185.165 108.973V108.975Z" fill="#D1ECFB"/>
<path d="M185.383 103.9C185.383 104.682 184.749 105.315 183.968 105.315C183.186 105.315 182.555 104.682 182.555 103.9V101.821C182.555 101.039 183.188 100.406 183.968 100.406C184.749 100.406 185.383 101.039 185.383 101.821V103.9Z" fill="#FFE2B6"/>
<path d="M183.968 100.406C183.186 100.406 182.555 101.039 182.555 101.821V102.622L184.899 104.966C185.196 104.707 185.384 104.327 185.384 103.902V101.822C185.384 101.041 184.751 100.408 183.969 100.408L183.968 100.406Z" fill="#EDC689"/>
<path d="M188.577 100.743C188.762 101.283 188.283 101.771 187.504 101.815C185.181 101.945 182.853 101.945 180.531 101.815C179.752 101.771 179.271 101.283 179.458 100.743C179.991 99.1158 180.524 97.4882 181.058 95.8593C181.244 95.3209 181.726 94.9102 182.132 94.9336C183.389 95.0036 183.69 94.3883 184.948 94.3169C185.355 94.2935 186.815 95.1121 186.981 95.8593C187.514 97.4868 188.047 99.1158 188.579 100.743H188.577Z" fill="#2C5871"/>
<path d="M186.295 94.9775C185.802 94.5875 185.188 94.3031 184.946 94.3169C183.689 94.3869 183.387 95.0036 182.13 94.9336C182.001 94.9267 181.864 94.9665 181.731 95.038C181.475 97.0322 181.22 99.0251 180.964 101.019C180.926 101.306 180.93 101.585 180.97 101.837C183 101.935 185.032 101.935 187.062 101.837C187.102 101.587 187.108 101.308 187.069 101.019C186.811 99.0059 186.553 96.9924 186.295 94.9789V94.9775Z" fill="#0E303F"/>
<path d="M186.403 99.457C185.977 101.851 184.947 102.963 183.829 102.963C182.712 102.963 181.681 101.85 181.256 99.457C180.828 96.9752 182.267 95.3092 183.829 95.4149C185.39 95.3092 186.831 96.9752 186.403 99.457Z" fill="#FFE2B6"/>
<path d="M181.32 96.1537C180.839 96.8981 180.57 97.7098 180.657 98.4089C181.496 98.343 182.275 97.832 182.72 97.0588C183.242 96.335 183.387 95.4175 183.103 94.625C182.431 94.8324 181.801 95.412 181.32 96.1537Z" fill="#2C5871"/>
<path d="M183.829 95.4149C183.772 95.4108 183.714 95.4149 183.656 95.4149V102.952C183.714 102.958 183.772 102.963 183.829 102.963C184.947 102.963 185.977 101.85 186.403 99.457C186.832 96.9752 185.391 95.3092 183.829 95.4149Z" fill="#FFDBA3"/>
<path d="M183.909 98.139C185.075 98.6403 186.369 98.6362 187.507 97.9467C187.469 96.1831 186.705 94.8729 185.49 94.4677C184.361 93.8634 182.886 94.2095 181.578 95.3934C181.86 96.6927 182.747 97.6376 183.909 98.139Z" fill="#2C5871"/>
<path d="M184.089 107.13L184.123 105.384L183.328 104.485L182.551 103.223L182.672 104.918L183.38 105.314L184.089 107.13Z" fill="#8FC4D7"/>
<path d="M182.55 102.966L183.327 104.486L182.412 105.247L182.273 103.017L182.55 102.621V102.966Z" fill="#0E303F"/>
<path d="M184.004 106.609L184.056 105.365L184.574 104.415L185.353 103.152L185.232 104.846L184.177 105.381L184.004 106.609Z" fill="#8FC4D7"/>
<path d="M185.387 102.966L184.609 104.486L185.525 105.247L185.664 103.017L185.387 102.621V102.966Z" fill="#0E303F"/>
</g>
<path d="M227.641 67.5627C227.641 70.9087 224.928 73.6216 221.582 73.6216C218.236 73.6216 215.523 70.9087 215.523 67.5627C215.523 64.2168 218.236 61.5039 221.582 61.5039C224.928 61.5039 227.641 64.2168 227.641 67.5627Z" fill="#13C7C7"/>
<mask id="mask1_12118_61566" style="mask-type:luminance" maskUnits="userSpaceOnUse" x="215" y="61" width="13" height="13">
<path d="M227.637 67.5627C227.637 70.9087 224.924 73.6216 221.578 73.6216C218.232 73.6216 215.52 70.9087 215.52 67.5627C215.52 64.2168 218.232 61.5039 221.578 61.5039C224.924 61.5039 227.637 64.2168 227.637 67.5627Z" fill="white"/>
</mask>
<g mask="url(#mask1_12118_61566)">
<path d="M216.918 71.9509L217.965 69.719L221.792 69.0352L225.391 69.673L226.712 71.3591L225.573 72.6348L222.051 74.2288L217.42 72.9081L216.918 71.9509Z" fill="#0E303F"/>
<path d="M220.412 69.28L221.293 71.6791L221.506 74.4126L220.109 74.3215L219.683 72.7114L220.503 72.0736L218.984 71.9224L219.562 68.9766L220.412 69.28Z" fill="#2C5871"/>
<path d="M222.566 69.28L221.686 71.6791L221.473 74.4126L222.87 74.3215L223.295 72.7114L222.475 72.0736L223.994 71.9224L223.417 68.9766L222.566 69.28Z" fill="#2C5871"/>
<path d="M223.382 68.5184C223.473 69.4089 222.604 70.2177 221.44 70.2177C220.276 70.2177 219.408 69.4089 219.499 68.5184C219.565 67.7453 219.631 66.9713 219.697 66.1982C219.787 65.3049 220.567 64.6455 221.441 64.6445C222.315 64.6464 223.095 65.3058 223.185 66.1982C223.251 66.9713 223.317 67.7453 223.383 68.5184H223.382Z" fill="#FFE2B6"/>
<path d="M223.383 68.5184C223.317 67.7453 223.252 66.9713 223.185 66.1982C223.095 65.3049 222.314 64.6455 221.441 64.6445V70.2177C222.605 70.2177 223.474 69.4089 223.383 68.5184Z" fill="#F7D5A0"/>
<path d="M221.453 68.1999C221.453 68.1999 221.274 68.0929 221.096 68.1999C220.917 68.307 220.811 68.5747 220.383 68.4761C220.383 68.4761 220.508 68.788 220.864 68.788C221.097 68.788 221.416 68.6452 221.452 68.5738C221.487 68.5024 221.541 68.3418 221.452 68.199L221.453 68.1999Z" fill="#0E303F"/>
<path d="M221.439 68.1999C221.439 68.1999 221.617 68.0929 221.796 68.1999C221.975 68.307 222.082 68.5747 222.509 68.4761C222.509 68.4761 222.384 68.788 222.027 68.788C221.795 68.788 221.475 68.6452 221.439 68.5738C221.404 68.5024 221.35 68.3418 221.439 68.199V68.1999Z" fill="#0E303F"/>
<path d="M222.075 69.9428C222.075 70.1964 221.791 70.4012 221.44 70.4012C221.088 70.4012 220.805 70.1964 220.805 69.9428C220.805 69.6892 221.089 69.4844 221.44 69.4844C221.79 69.4844 222.075 69.6901 222.075 69.9428Z" fill="#FFE2B6"/>
<path d="M222.077 69.8629C222.077 70.0724 221.855 70.2415 221.582 70.2415C221.309 70.2415 221.086 70.0715 221.086 69.8629C221.086 69.6544 221.308 69.4844 221.582 69.4844C221.856 69.4844 222.077 69.6544 222.077 69.8629Z" fill="#F7D5A0"/>
<path d="M219.697 66.1977C219.674 66.4607 219.651 66.7237 219.629 66.9868L223.385 68.6081C223.385 68.578 223.385 68.548 223.383 68.5179C223.317 67.7448 223.251 66.9708 223.184 66.1977C223.174 66.0916 223.152 65.9892 223.123 65.8905L220.662 64.8281C220.145 65.0846 219.759 65.5862 219.697 66.1977Z" fill="#F7D5A0"/>
<path d="M221.441 67.7719L223.387 68.6116C223.387 68.5816 223.387 68.5515 223.384 68.5215C223.318 67.7484 223.252 66.9743 223.186 66.2013C223.175 66.0951 223.154 65.9927 223.125 65.8941L221.441 65.168V67.7728V67.7719Z" fill="#FFDBA3"/>
<path d="M222.863 66.3718C222.863 66.5259 222.627 66.5756 222.473 66.5756L218.911 66.6498C218.758 66.6498 218.633 66.5249 218.633 66.3718C218.633 66.2177 218.819 66.0938 219.301 66.0938H222.585C222.739 66.0938 222.863 66.2187 222.863 66.3718Z" fill="#0E303F"/>
<path d="M219.578 66.2974C219.578 66.2974 219.693 64.4685 220.265 64.183C220.71 63.9603 220.77 64.2149 220.988 64.2938C221.192 64.368 221.545 64.368 221.712 64.368C221.88 64.368 221.842 66.4834 221.749 66.5013C221.656 66.5201 219.578 66.2974 219.578 66.2974Z" fill="#0E303F"/>
<path d="M220.023 66.3718C220.023 66.5259 220.259 66.5756 220.413 66.5756L223.975 66.6498C224.129 66.6498 224.253 66.5249 224.253 66.3718C224.253 66.2177 224.067 66.0938 223.585 66.0938H220.301C220.147 66.0938 220.023 66.2187 220.023 66.3718Z" fill="#0E303F"/>
<path d="M223.308 66.2974C223.308 66.2974 223.193 64.4685 222.621 64.183C222.176 63.9603 222.116 64.2149 221.898 64.2938C221.694 64.368 221.342 64.368 221.175 64.368C221.007 64.368 221.045 66.4834 221.137 66.5013C221.23 66.5201 223.308 66.2974 223.308 66.2974Z" fill="#0E303F"/>
<path d="M222.862 66.3045C222.862 66.3891 222.634 66.4172 222.486 66.4172L219.039 66.4586C218.89 66.4586 218.77 66.39 218.77 66.3055C218.77 66.2209 218.949 66.1523 219.416 66.1523H222.594C222.743 66.1523 222.863 66.2209 222.863 66.3055L222.862 66.3045Z" fill="#2C5871"/>
<path d="M219.578 66.2974C219.578 66.2974 219.693 64.4685 220.265 64.183C220.71 63.9603 220.77 64.2149 220.988 64.2938C221.192 64.368 221.327 64.3971 221.494 64.3971L221.506 66.3106C221.46 66.2881 219.578 66.2974 219.578 66.2974Z" fill="#2C5871"/>
</g>
<path d="M55.483 67.2903C59.2381 67.2903 62.2823 64.2461 62.2822 60.4909C62.2822 56.7356 59.238 53.6914 55.4829 53.6914C51.7277 53.6914 48.6836 56.7356 48.6836 60.4909C48.6837 64.2461 51.7278 67.2903 55.483 67.2903Z" fill="#13C7C7"/>
<mask id="mask2_12118_61566" style="mask-type:luminance" maskUnits="userSpaceOnUse" x="48" y="53" width="15" height="15">
<path d="M62.2825 60.4898C62.2825 56.7346 59.2383 53.6905 55.4831 53.6905C51.7278 53.6905 48.6836 56.7346 48.6836 60.4898C48.6836 64.2449 51.7278 67.2891 55.4831 67.2891C59.2383 67.2891 62.2825 64.2449 62.2825 60.4898Z" fill="white"/>
</mask>
<g mask="url(#mask2_12118_61566)">
<path d="M56.5777 67.388C58.0409 67.3066 59.425 67.0483 60.6763 66.645L60.3073 63.6016C60.262 63.2281 59.6221 62.9291 58.8231 62.8785C58.3329 62.795 57.8406 62.7335 57.3472 62.6878C57.344 62.5666 57.3419 62.4434 57.3335 62.3262C56.1707 62.1881 55.0006 62.1881 53.8389 62.3262C53.8305 62.4444 53.8284 62.5666 53.8252 62.6888C53.3318 62.7335 52.8395 62.796 52.3493 62.8785C51.5492 62.9281 50.9093 63.2271 50.8651 63.6016L50.4961 66.645C51.7474 67.0483 53.1315 67.3066 54.5947 67.388C54.5947 67.388 54.6021 67.388 54.6063 67.388C54.7465 67.396 54.8878 67.4029 55.0301 67.4079C55.2146 67.4148 55.4001 67.4188 55.5878 67.4188C55.7754 67.4188 55.961 67.4148 56.1454 67.4079C56.2878 67.4039 56.428 67.396 56.5692 67.388C56.5734 67.388 56.5777 67.388 56.5808 67.388H56.5777Z" fill="#2C5871"/>
<path d="M58.8226 62.8782C58.3325 62.7948 57.8402 62.7332 57.3468 62.6875C57.3437 62.5663 57.3416 62.4432 57.3331 62.326C56.7555 62.2574 56.1746 62.2227 55.5948 62.2227L54.4922 63.8973L59.6797 66.9278C60.0202 66.8433 60.3522 66.749 60.6758 66.6447L60.3069 63.6013C60.2616 63.2278 59.6217 62.9289 58.8226 62.8782Z" fill="#0E303F"/>
<path d="M54.0236 63.5286C53.9825 63.4948 53.9413 63.459 53.9023 63.4213V62.4102H54.0447C54.0373 62.7826 54.031 63.1561 54.0236 63.5286Z" fill="#2C5871"/>
<path d="M54.2852 63.7133C54.2398 63.6855 54.1956 63.6567 54.1523 63.6259C54.165 63.2207 54.1766 62.8154 54.1892 62.4102H54.3326C54.3168 62.8442 54.301 63.2783 54.2852 63.7133Z" fill="#2C5871"/>
<path d="M54.5631 63.8583C54.5157 63.8375 54.4683 63.8146 54.4219 63.7908C54.4398 63.3309 54.4577 62.87 54.4746 62.4102H54.6179C54.6 62.8929 54.5821 63.3756 54.5631 63.8583Z" fill="#2C5871"/>
<path d="M54.8557 63.9656C54.8061 63.9507 54.7566 63.9348 54.707 63.9169C54.725 63.4143 54.7418 62.9127 54.7587 62.4102H54.902C54.8862 62.9286 54.8715 63.4471 54.8557 63.9656Z" fill="#2C5871"/>
<path d="M55.1607 64.0332C55.1101 64.0252 55.0584 64.0153 55.0078 64.0043C55.0205 63.4729 55.0342 62.9416 55.0468 62.4102H55.1902C55.1807 62.9515 55.1712 63.4928 55.1607 64.0332Z" fill="#2C5871"/>
<path d="M55.4675 64.063C55.4158 64.061 55.3642 64.058 55.3125 64.053C55.3188 63.5057 55.3252 62.9574 55.3304 62.4102H55.4738C55.4717 62.9614 55.4696 63.5117 55.4675 64.062V64.063Z" fill="#2C5871"/>
<path d="M55.7785 64.052C55.7268 64.057 55.6752 64.06 55.6235 64.062C55.6214 63.5117 55.6193 62.9604 55.6172 62.4102H55.7606C55.7669 62.9574 55.7721 63.5047 55.7785 64.053V64.052Z" fill="#2C5871"/>
<path d="M56.0847 64.0043C56.0341 64.0153 55.9835 64.0252 55.9319 64.0332C55.9224 63.4918 55.9118 62.9515 55.9023 62.4102H56.0457C56.0584 62.9416 56.0721 63.4729 56.0847 64.0043Z" fill="#2C5871"/>
<path d="M56.3864 63.9169C56.3379 63.9348 56.2884 63.9507 56.2378 63.9656C56.222 63.4471 56.2072 62.9286 56.1914 62.4102H56.3348C56.3516 62.9127 56.3696 63.4143 56.3864 63.9169Z" fill="#2C5871"/>
<path d="M56.6716 63.7908C56.6252 63.8146 56.5778 63.8375 56.5303 63.8583C56.5124 63.3756 56.4945 62.8929 56.4766 62.4102H56.6199C56.6378 62.87 56.6547 63.3309 56.6726 63.7908H56.6716Z" fill="#2C5871"/>
<path d="M56.942 63.6259C56.8988 63.6567 56.8545 63.6855 56.8092 63.7133C56.7933 63.2793 56.7775 62.8452 56.7617 62.4102H56.9051C56.9177 62.8154 56.9293 63.2207 56.942 63.6259Z" fill="#2C5871"/>
<path d="M57.1931 63.4213C57.153 63.4581 57.113 63.4938 57.0719 63.5286C57.0645 63.1561 57.0582 62.7826 57.0508 62.4102H57.1941V63.4213H57.1931Z" fill="#2C5871"/>
<path d="M53.8908 63.5014C53.8496 63.4657 53.8085 63.4269 53.7695 63.3882V62.3125H53.9118C53.9045 62.7088 53.8981 63.1051 53.8908 63.5014Z" fill="#0E303F"/>
<path d="M54.1484 63.6981C54.1031 63.6693 54.0588 63.6375 54.0156 63.6047C54.0283 63.1737 54.0399 62.7436 54.0525 62.3125H54.1959C54.1801 62.7744 54.1643 63.2362 54.1484 63.6981Z" fill="#0E303F"/>
<path d="M54.4275 63.8531C54.379 63.8302 54.3326 63.8064 54.2852 63.7805C54.3031 63.2919 54.321 62.8022 54.3379 62.3125H54.4812C54.4633 62.826 54.4454 63.3385 54.4275 63.8521V63.8531Z" fill="#0E303F"/>
<path d="M54.7229 63.9663C54.6733 63.9504 54.6238 63.9335 54.5742 63.9146C54.5921 63.3813 54.609 62.8469 54.6259 62.3125H54.7692C54.7534 62.8638 54.7387 63.415 54.7229 63.9663Z" fill="#0E303F"/>
<path d="M55.0239 64.0378C54.9733 64.0299 54.9217 64.0189 54.8711 64.007C54.8837 63.4418 54.8974 62.8767 54.9101 62.3125H55.0535C55.044 62.8876 55.0334 63.4627 55.0239 64.0378Z" fill="#0E303F"/>
<path d="M55.3346 64.0686C55.283 64.0666 55.2313 64.0636 55.1797 64.0587C55.186 63.4766 55.1923 62.8946 55.1976 62.3125H55.3399C55.3378 62.8985 55.3357 63.4836 55.3336 64.0696L55.3346 64.0686Z" fill="#0E303F"/>
<path d="M55.6457 64.0597C55.594 64.0646 55.5424 64.0686 55.4907 64.0696C55.4886 63.4836 55.4865 62.8985 55.4844 62.3125H55.6277C55.6341 62.8946 55.6393 63.4766 55.6457 64.0587V64.0597Z" fill="#0E303F"/>
<path d="M55.9519 64.007C55.9013 64.0189 55.8507 64.0289 55.799 64.0378C55.7896 63.4627 55.7801 62.8876 55.7695 62.3125H55.9129C55.9255 62.8777 55.9393 63.4428 55.9519 64.007Z" fill="#0E303F"/>
<path d="M56.2536 63.9146C56.2051 63.9335 56.1556 63.9514 56.105 63.9663C56.0892 63.415 56.0734 62.8638 56.0586 62.3125H56.202C56.2199 62.8469 56.2367 63.3803 56.2536 63.9146Z" fill="#0E303F"/>
<path d="M56.5398 63.7796C56.4934 63.8054 56.446 63.8292 56.3975 63.8521C56.3796 63.3385 56.3617 62.826 56.3438 62.3125H56.4871C56.505 62.8022 56.5219 63.2909 56.5398 63.7805V63.7796Z" fill="#0E303F"/>
<path d="M56.8092 63.6047C56.7659 63.6375 56.7217 63.6683 56.6763 63.6981C56.6605 63.2362 56.6447 62.7744 56.6289 62.3125H56.7723C56.7849 62.7436 56.7965 63.1737 56.8092 63.6047Z" fill="#0E303F"/>
<path d="M57.0564 63.3882C57.0163 63.4279 56.9763 63.4657 56.9351 63.5014C56.9278 63.1051 56.9214 62.7088 56.9141 62.3125H57.0574V63.3882H57.0564Z" fill="#0E303F"/>
<path d="M53.5943 60.4665C53.5943 60.5669 53.51 60.6473 53.4046 60.6473C53.3002 60.6473 53.2148 60.5659 53.2148 60.4665V59.5011C53.2148 59.4008 53.3002 59.3203 53.4046 59.3203C53.509 59.3203 53.5943 59.4018 53.5943 59.5011V60.4665Z" fill="#FFDBA3"/>
<path d="M57.8081 60.4665C57.8081 60.5669 57.7238 60.6473 57.6184 60.6473C57.514 60.6473 57.4297 60.5659 57.4297 60.4665V59.5011C57.4297 59.4008 57.514 59.3203 57.6184 59.3203C57.7227 59.3203 57.8081 59.4018 57.8081 59.5011V60.4665Z" fill="#FFDBA3"/>
<path d="M57.5629 59.5007C57.4385 58.3535 57.5218 57.7198 57.5218 57.7198C57.5218 57.7198 55.6433 56.6719 54.898 56.6957C54.2117 56.7186 53.5234 57.7198 53.5234 57.7198C53.5234 57.7198 53.6066 58.3535 53.4822 59.5007C53.3579 60.6489 53.1091 61.6382 53.4822 61.9938C53.8554 62.3504 54.5174 63.141 55.4693 63.1807C55.4872 63.1807 55.5052 63.1807 55.5231 63.1807C55.541 63.1807 55.5589 63.1807 55.5768 63.1807C56.5287 63.141 57.1918 62.3494 57.5639 61.9938C57.936 61.6382 57.6883 60.6479 57.5639 59.5007H57.5629Z" fill="#FFE2B6"/>
<path d="M57.5205 57.7204C57.5205 57.7204 56.362 57.0738 55.5039 56.8086V63.1824C55.5092 63.1824 55.5155 63.1824 55.5218 63.1824C55.5397 63.1824 55.5577 63.1824 55.5756 63.1824C56.5275 63.1426 57.1905 62.351 57.5627 61.9954C57.9348 61.6398 57.6871 60.6495 57.5627 59.5023C57.4383 58.3551 57.5216 57.7214 57.5216 57.7214L57.5205 57.7204Z" fill="#FFDBA3"/>
<path d="M53.4241 59.3743C53.4642 59.2601 53.5538 59.1657 53.6508 59.1459C54.123 59.0535 54.5995 59.0575 55.0707 59.1568C55.1645 59.1777 55.251 59.2661 55.2931 59.3743H55.3806C55.3332 59.2124 55.2141 59.0734 55.0749 59.0396C54.8388 58.9879 54.5984 58.9591 54.3613 58.9571C54.1241 58.9552 53.8827 58.979 53.6465 59.0277C53.5306 59.0515 53.2808 59.274 53.2808 59.273C53.2555 59.278 53.2344 59.3098 53.2344 59.3445V59.3743H53.4241Z" fill="#0E303F"/>
<path opacity="0.3" d="M55.241 60.1445C55.201 60.3084 55.0629 60.4514 54.9522 60.4593C54.5579 60.4822 54.1637 60.4822 53.7694 60.4593C53.6587 60.4514 53.5206 60.3054 53.4806 60.1405C53.4353 59.9428 53.41 59.7472 53.4026 59.5505C53.3963 59.3866 53.5164 59.2198 53.6524 59.1929C54.1247 59.1045 54.6012 59.1075 55.0724 59.2029C55.2083 59.2317 55.3275 59.3985 55.3222 59.5604C55.3148 59.7551 55.2885 59.9488 55.2442 60.1435L55.241 60.1445Z" fill="white"/>
<path d="M55.0749 59.0913C54.8388 59.0416 54.5984 59.0138 54.3613 59.0118C54.1241 59.0099 53.8827 59.0327 53.6465 59.0794C53.5306 59.1022 53.2808 59.3168 53.2808 59.3168C53.2555 59.3217 53.2344 59.3525 53.2344 59.3853V59.7727C53.2344 59.8055 53.2565 59.8174 53.2808 59.8283C53.3113 59.8412 53.3514 59.9147 53.3588 59.9614C53.3704 60.0339 53.3841 60.1054 53.4009 60.1779C53.4494 60.3776 53.616 60.5613 53.7657 60.5733C53.9628 60.5862 54.1631 60.5931 54.3613 60.5931C54.5594 60.5931 54.7597 60.5862 54.9579 60.5733C55.1065 60.5603 55.2731 60.3786 55.3216 60.1799C55.368 59.9793 55.3954 59.7776 55.4028 59.578C55.4112 59.3625 55.2626 59.133 55.0749 59.0903V59.0913ZM55.2415 60.1452C55.2014 60.309 55.0633 60.4521 54.9526 60.46C54.5584 60.4829 54.1641 60.4829 53.7699 60.46C53.6592 60.4521 53.5211 60.3061 53.481 60.1412C53.4357 59.9435 53.4104 59.7478 53.403 59.5512C53.3967 59.3873 53.5169 59.2204 53.6529 59.1936C54.1251 59.1052 54.6016 59.1082 55.0728 59.2035C55.2088 59.2323 55.3279 59.3992 55.3227 59.5611C55.3153 59.7558 55.2889 59.9495 55.2446 60.1442L55.2415 60.1452Z" fill="#0E303F"/>
<path d="M53.5533 60.3035C53.5206 60.2558 53.4943 60.2002 53.4806 60.1416C53.4353 59.9439 53.41 59.7483 53.4026 59.5516C53.3963 59.3877 53.5164 59.2208 53.6524 59.194C54.1247 59.1056 54.6011 59.1086 55.0724 59.204C55.1356 59.2169 55.1967 59.2616 55.2421 59.3222C55.1957 59.2417 55.123 59.1791 55.0449 59.1622C54.5727 59.0669 54.0973 59.0659 53.625 59.1583C53.489 59.1861 53.3699 59.3529 53.3752 59.5168C53.3825 59.7135 53.4089 59.9082 53.4532 60.1048C53.4711 60.1784 53.508 60.2469 53.5544 60.3025L53.5533 60.3035Z" fill="#2C5871"/>
<path d="M57.6206 59.3743C57.5805 59.2601 57.4909 59.1657 57.3939 59.1459C56.9227 59.0535 56.4462 59.0575 55.974 59.1568C55.8802 59.1777 55.7937 59.2661 55.7516 59.3743H55.6641C55.7126 59.2124 55.8306 59.0734 55.9698 59.0396C56.2059 58.9879 56.4462 58.9591 56.6834 58.9571C56.9206 58.9552 57.161 58.979 57.3981 59.0277C57.5141 59.0515 57.7639 59.274 57.7639 59.273C57.7892 59.278 57.8103 59.3098 57.8103 59.3445V59.3743H57.6206Z" fill="#0E303F"/>
<path opacity="0.3" d="M55.8019 60.1445C55.8419 60.3084 55.98 60.4514 56.0907 60.4593C56.485 60.4822 56.8803 60.4822 57.2735 60.4593C57.3842 60.4514 57.5233 60.3054 57.5634 60.1405C57.6076 59.9428 57.634 59.7472 57.6424 59.5505C57.6488 59.3866 57.5286 59.2198 57.3926 59.1929C56.9214 59.1045 56.4449 59.1075 55.9727 59.2029C55.8377 59.2317 55.7176 59.3985 55.7228 59.5604C55.7302 59.7551 55.7566 59.9488 55.8008 60.1435L55.8019 60.1445Z" fill="white"/>
<path d="M55.9688 59.0913C56.2049 59.0416 56.4453 59.0138 56.6825 59.0118C56.9197 59.0099 57.16 59.0327 57.3972 59.0794C57.5131 59.1022 57.763 59.3168 57.763 59.3168C57.7883 59.3217 57.8094 59.3525 57.8094 59.3853V59.7727C57.8094 59.8055 57.7872 59.8174 57.763 59.8283C57.7324 59.8412 57.6923 59.9147 57.685 59.9614C57.6734 60.0339 57.6597 60.1054 57.6428 60.1779C57.5943 60.3776 57.4278 60.5613 57.2781 60.5733C57.0799 60.5862 56.8796 60.5931 56.6825 60.5931C56.4853 60.5931 56.284 60.5862 56.0869 60.5733C55.9382 60.5603 55.7717 60.3786 55.7221 60.1799C55.6758 59.9793 55.6483 59.7776 55.641 59.578C55.6325 59.3625 55.7822 59.133 55.9688 59.0903V59.0913ZM55.8022 60.1452C55.8423 60.309 55.9804 60.4521 56.0911 60.46C56.4853 60.4829 56.8806 60.4829 57.2738 60.46C57.3845 60.4521 57.5237 60.3061 57.5637 60.1412C57.608 59.9435 57.6344 59.7478 57.6428 59.5512C57.6491 59.3873 57.529 59.2204 57.393 59.1936C56.9218 59.1052 56.4453 59.1082 55.973 59.2035C55.8381 59.2323 55.7179 59.3992 55.7232 59.5611C55.7306 59.7558 55.7569 59.9495 55.8012 60.1442L55.8022 60.1452Z" fill="#0E303F"/>
<path d="M57.4924 60.3035C57.5251 60.2558 57.5514 60.2002 57.5651 60.1416C57.6094 59.9439 57.6357 59.7483 57.6442 59.5516C57.6505 59.3877 57.5303 59.2208 57.3943 59.194C56.9231 59.1056 56.4467 59.1086 55.9744 59.204C55.9101 59.2169 55.8511 59.2616 55.8047 59.3222C55.8511 59.2417 55.9238 59.1791 56.0018 59.1622C56.473 59.0669 56.9495 59.0659 57.4218 59.1583C57.5577 59.1861 57.6779 59.3529 57.6716 59.5168C57.6642 59.7135 57.6379 59.9082 57.5925 60.1048C57.5746 60.1784 57.5377 60.2469 57.4913 60.3025L57.4924 60.3035Z" fill="#2C5871"/>
<path d="M55.5548 59.286C55.4705 59.291 55.3862 59.2751 55.3008 59.2344C55.3788 59.3724 55.4104 59.6168 55.3862 59.7548C55.4073 59.6247 55.4842 59.592 55.5538 59.6108V59.286H55.5548Z" fill="#0E303F"/>
<path d="M55.4883 59.286C55.5726 59.291 55.6569 59.2751 55.7423 59.2344C55.6643 59.3724 55.6327 59.6168 55.6569 59.7548C55.6348 59.6247 55.5589 59.592 55.4893 59.6108V59.286H55.4883Z" fill="#0E303F"/>
<path d="M53.5234 58.5958C53.5234 58.5958 53.1988 57.2251 53.7838 56.8308C54.2687 56.505 54.5565 56.5894 54.5565 56.5894C54.5565 56.5894 55.0709 55.7293 56.0344 55.9448C56.9979 56.1594 57.4164 56.4981 57.4164 56.4981H56.902C56.902 56.4981 57.5124 56.5596 57.7696 57.542C58.0268 58.5243 57.5124 57.5112 57.5124 57.5112L57.4797 59.1392L56.805 57.8489C56.805 57.8489 55.7519 56.9669 55.013 56.9669C54.274 56.9669 53.5224 57.8588 53.5224 58.5958H53.5234Z" fill="#0E303F"/>
<path d="M55.2656 56.8331C55.2656 56.8331 56.0689 57.2016 56.1016 57.6625C56.1332 58.1233 56.1659 57.0784 56.1016 56.9871C56.0373 56.8947 56.5517 57.6317 56.519 58.0618C56.4863 58.4918 56.7435 57.4171 56.7435 57.4171C56.7435 57.4171 56.4547 56.6493 55.2656 56.8331Z" fill="#0E303F"/>
<path d="M55.205 57.065C55.205 57.065 54.3079 57.4087 54.0011 58.1249C53.6944 58.842 54.3016 57.1862 54.4123 57.0601C54.5219 56.9339 53.6427 57.9431 53.4087 58.6304C53.1747 59.3178 53.6122 57.5478 53.6122 57.5478C53.6122 57.5478 54.3216 56.4234 55.205 57.065Z" fill="#0E303F"/>
</g>
<path d="M72.4008 118.997C72.4008 122.531 69.5354 125.397 66.0012 125.397C62.467 125.397 59.6016 122.531 59.6016 118.997C59.6016 115.463 62.467 112.598 66.0012 112.598C69.5354 112.598 72.4008 115.463 72.4008 118.997Z" fill="#13C7C7"/>
<mask id="mask3_12118_61566" style="mask-type:luminance" maskUnits="userSpaceOnUse" x="59" y="112" width="14" height="14">
<path d="M72.4008 118.993C72.4008 122.528 69.5354 125.393 66.0012 125.393C62.467 125.393 59.6016 122.528 59.6016 118.993C59.6016 115.459 62.467 112.594 66.0012 112.594C69.5354 112.594 72.4008 115.459 72.4008 118.993Z" fill="white"/>
</mask>
<g mask="url(#mask3_12118_61566)">
<path d="M66.0744 125.545C67.6619 125.545 69.1611 125.268 70.4887 124.78L70.1682 121.774C70.1295 121.405 69.5749 121.109 68.8813 121.06C67.019 120.698 65.1298 120.699 63.2675 121.06C62.574 121.11 62.0193 121.405 61.9806 121.774L61.6602 124.78C62.9877 125.268 64.4859 125.545 66.0744 125.545Z" fill="#A6DAE9"/>
<path d="M66.1833 124.491C65.7338 123.977 65.2774 123.463 64.8269 123.004C64.3775 122.544 63.934 122.14 63.5391 121.846C64.3467 121.553 65.2655 121.406 66.1842 121.406C67.103 121.406 68.0218 121.553 68.8294 121.846C68.4345 122.14 67.991 122.544 67.5416 123.004C67.0911 123.463 66.6337 123.977 66.1842 124.491H66.1833Z" fill="#8FC4D7"/>
<path d="M66.1833 124.488C65.7338 123.9 65.2774 123.312 64.8269 122.786C64.3775 122.26 63.934 121.797 63.5391 121.46C64.3467 121.125 65.2655 120.957 66.1842 120.957C67.103 120.957 68.0218 121.125 68.8294 121.46C68.4345 121.797 67.991 122.26 67.5416 122.786C67.0911 123.312 66.6337 123.9 66.1842 124.488H66.1833Z" fill="#2C5871"/>
<path d="M64.2842 119.075C64.3625 119.538 64.3129 119.844 64.1949 119.883C64.0778 119.922 63.9042 119.69 63.7752 119.243C63.6462 118.796 63.666 118.353 63.8357 118.304C64.0014 118.242 64.2068 118.61 64.2842 119.075Z" fill="#2C5871"/>
<path d="M67.8626 119.075C67.7832 119.538 67.8338 119.844 67.9519 119.883C68.069 119.922 68.2426 119.69 68.3706 119.243C68.5006 118.796 68.4797 118.353 68.3111 118.304C68.1444 118.242 67.94 118.61 67.8626 119.075Z" fill="#2C5871"/>
<path d="M67.2157 120.835C67.2157 120.806 67.2137 120.778 67.2127 120.749C66.4547 120.5 65.6907 120.501 64.9327 120.749C64.9327 120.778 64.9297 120.806 64.9297 120.835C64.9297 121.789 65.4417 122.562 66.0727 122.562C66.7037 122.562 67.2157 121.789 67.2157 120.835Z" fill="#FFE2B6"/>
<path d="M66.1367 120.562V122.554C66.739 122.505 67.2182 121.754 67.2182 120.832C67.2182 120.804 67.2162 120.775 67.2152 120.746C66.857 120.629 66.4969 120.568 66.1367 120.562Z" fill="#F8D298"/>
<path d="M66.1425 115.238C64.8408 115.154 63.6402 116.492 63.9974 118.489C64.3516 120.412 65.2109 121.308 66.1425 121.308C67.0742 121.308 67.9334 120.413 68.2876 118.489C68.6458 116.492 67.4443 115.154 66.1425 115.238Z" fill="#FFDBA3"/>
<path d="M67.9375 118.573C67.622 120.322 66.856 121.134 66.0245 121.135C65.1941 121.135 64.4281 120.322 64.1116 118.573C63.7931 116.76 64.8637 115.544 66.0245 115.621C67.1854 115.544 68.256 116.76 67.9375 118.573Z" fill="#FFE2B6"/>
<path d="M66.0263 115.624C66.0065 115.623 65.9876 115.624 65.9688 115.624V121.252C65.9886 121.252 66.0074 121.256 66.0263 121.256C66.8578 121.256 67.6227 120.426 67.9392 118.64C68.2587 116.788 67.1872 115.545 66.0263 115.625V115.624Z" fill="#F8D298"/>
<path d="M64.5209 115.958C64.5209 115.958 65.2035 117.768 66.4319 117.465C66.9528 117.337 66.9964 117.277 66.9964 117.277L66.4587 116.981C66.4587 116.981 66.7702 116.932 66.7543 116.927C66.4517 116.822 66.3505 116.632 66.3505 116.632C66.3505 116.632 66.6144 116.735 66.8347 116.685L66.5926 116.308C66.5926 116.308 66.9528 116.308 67.1572 116.577C67.3328 116.807 67.8567 117.761 67.8567 118.111C67.8567 118.461 68.0214 119.525 67.9678 119.794C67.9142 120.063 68.3875 120.111 68.3815 120.094C68.3815 120.094 68.1057 119.869 68.3061 119.631C68.3061 119.631 68.4569 119.869 68.5948 119.718C68.5948 119.718 68.3438 119.593 68.4192 119.142L68.7447 119.188C68.7328 119.167 68.5561 119.027 68.5294 118.73C68.5026 118.434 68.449 118.757 68.7715 118.81C68.7715 118.81 68.6077 118.615 68.5294 118.191C68.5264 118.173 68.57 118.326 68.9064 118.38C68.9252 118.383 68.5571 118.03 68.5571 117.545C68.5571 117.061 68.45 115.501 67.2385 115.258C66.028 115.016 65.2859 114.992 64.4336 115.643L64.5209 115.958Z" fill="#2C5871"/>
<path d="M64.7661 115.478C64.7661 115.41 64.5776 115.397 64.4655 115.422C63.3125 115.704 63.5149 117.07 63.5149 117.546C63.5149 118.022 63.1468 118.384 63.1647 118.381C63.501 118.327 63.5447 118.174 63.5417 118.192C63.4633 118.616 63.2996 118.811 63.2996 118.811C63.4723 118.782 63.5368 118.677 63.5556 118.631C63.5516 118.649 63.5467 118.68 63.5417 118.731C63.5149 119.026 63.3383 119.167 63.3264 119.188L63.6519 119.143C63.7273 119.594 63.4762 119.719 63.4762 119.719C63.6142 119.87 63.765 119.632 63.765 119.632C63.9654 119.87 63.6896 120.095 63.6896 120.095C63.6836 120.112 64.1569 120.063 64.1033 119.794C64.0497 119.526 64.2144 118.462 64.2144 118.112C64.2144 117.761 64.7383 116.809 64.9139 116.578C64.9199 116.571 64.9268 116.565 64.9328 116.558C64.8266 116.224 64.7661 115.86 64.7661 115.479V115.478Z" fill="#2C5871"/>
</g>
<path d="M213.7 26.4886C213.7 31.5689 209.581 35.688 204.5 35.688C199.42 35.688 195.301 31.5689 195.301 26.4886C195.301 21.4082 199.42 17.2891 204.5 17.2891C209.581 17.2891 213.7 21.4082 213.7 26.4886Z" fill="#FFB341"/>
<mask id="mask4_12118_61566" style="mask-type:luminance" maskUnits="userSpaceOnUse" x="195" y="17" width="19" height="19">
<path d="M213.696 26.4886C213.696 31.5689 209.577 35.688 204.496 35.688C199.416 35.688 195.297 31.5689 195.297 26.4886C195.297 21.4082 199.416 17.2891 204.496 17.2891C209.577 17.2891 213.696 21.4082 213.696 26.4886Z" fill="white"/>
</mask>
<g mask="url(#mask4_12118_61566)">
<path d="M208.426 24.1629C208.426 25.7817 206.686 27.0953 204.539 27.0953C202.392 27.0953 200.652 25.7817 200.652 24.1629C200.652 23.3528 200.912 22.8151 201.617 22.2873C201.752 22.1861 202.117 22.1861 202.253 22.3216C202.253 22.3216 202.264 21.811 203.013 21.4658C203.459 21.2604 203.997 21.2305 204.539 21.2305C206.686 21.2305 208.426 22.5441 208.426 24.1629Z" fill="#0E0E0F"/>
<path d="M205.887 21.418C207.113 21.9115 207.951 22.8842 207.951 24.0067C207.951 25.6255 206.211 26.9391 204.064 26.9391C203.589 26.9391 203.136 26.8721 202.715 26.7537C203.258 26.9719 203.879 27.0974 204.538 27.0974C206.684 27.0974 208.424 25.7838 208.424 24.165C208.424 22.9042 207.367 21.833 205.887 21.418Z" fill="#51525C"/>
<path d="M204.524 22.0592C202.421 21.9608 200.482 23.5155 201.061 25.8346C201.633 28.0696 203.02 29.1093 204.524 29.1107C206.029 29.1107 207.416 28.071 207.988 25.8346C208.566 23.5155 206.628 21.9594 204.524 22.0592Z" fill="#0E0E0F"/>
<path d="M204.821 22.0592C202.896 21.9608 201.12 23.5155 201.649 25.8346C202.173 28.0696 203.444 29.1093 204.821 29.1107C206.201 29.1107 207.47 28.071 207.995 25.8346C208.524 23.5155 206.748 21.9594 204.821 22.0592Z" fill="#51525C"/>
<path d="M204.731 22.0595C202.898 21.954 201.208 23.6327 201.711 26.1401C202.209 28.5548 203.418 29.6787 204.731 29.6801C206.043 29.6801 207.252 28.5562 207.75 26.1401C208.253 23.6341 206.563 21.9525 204.731 22.0595Z" fill="#51525C"/>
<path d="M204.54 36.0574C206.638 36.0574 208.615 35.718 210.368 35.1161L209.945 31.4178C209.894 30.9642 209.162 30.6005 208.247 30.5392C205.788 30.0956 203.293 30.097 200.836 30.5392C199.92 30.6005 199.188 30.9642 199.137 31.4178L198.715 35.1161C200.468 35.7166 202.446 36.0574 204.543 36.0574H204.54Z" fill="#15B0BF"/>
<path d="M207.282 30.5055C207.282 30.4684 207.278 30.4328 207.275 30.3943C205.459 30.0762 203.625 30.0776 201.808 30.3943C201.806 30.4313 201.801 30.467 201.801 30.5041C201.801 31.7236 203.027 33.776 204.541 33.776C206.054 33.776 207.281 31.7236 207.281 30.5041L207.282 30.5055Z" fill="#FFE2B6"/>
<path d="M206.047 29.4426C206.047 29.3984 206.044 29.3556 206.042 29.3114C205.043 28.932 204.033 28.9334 203.032 29.3114C203.03 29.3541 203.027 29.3984 203.027 29.4411C203.027 30.8959 203.703 32.0741 204.536 32.0741C205.369 32.0741 206.045 30.8959 206.045 29.4411L206.047 29.4426Z" fill="#FFE2B6"/>
<path d="M206.047 28.4691C206.047 28.4277 206.044 28.3878 206.042 28.345C205.043 27.9884 204.033 27.9899 203.032 28.345C203.03 28.3864 203.027 28.4263 203.027 28.4677C203.027 29.8341 203.703 30.9408 204.536 30.9408C205.369 30.9408 206.045 29.8341 206.045 28.4677L206.047 28.4691Z" fill="#F8D298"/>
<path d="M204.931 29.0469V31.9822C205.574 31.6812 206.048 30.66 206.048 29.442C206.048 29.3977 206.045 29.355 206.044 29.3107C205.673 29.171 205.302 29.0825 204.93 29.0469H204.931Z" fill="#F8D298"/>
<path d="M204.573 22.0612C202.801 21.9314 201.154 23.7457 201.619 26.4727C202.079 29.1028 203.239 30.3322 204.507 30.3436C205.775 30.3536 206.953 29.1413 207.456 26.5198C207.964 23.7999 206.345 21.96 204.573 22.0612Z" fill="#FFE2B6"/>
<path d="M204.571 22.0587C204.544 22.0572 204.517 22.0587 204.488 22.0587V30.3411C204.488 30.3411 204.5 30.3411 204.505 30.3411C205.773 30.351 206.951 29.1387 207.455 26.5172C207.963 23.7973 206.344 21.9574 204.571 22.0587Z" fill="#F8D298"/>
<path d="M202.368 22.8945C201.66 23.6733 201.273 24.8614 201.544 26.3133C201.575 26.4788 201.61 26.6371 201.648 26.7911C201.942 26.2434 202.183 25.5645 202.354 24.7501C202.492 24.0712 202.485 23.4465 202.368 22.8945Z" fill="#0E0E0F"/>
<path d="M204.783 21.9764C204.134 21.4715 203.547 21.3303 203.076 21.6112C201.954 21.8095 202.581 24.8731 202.581 24.8731C202.581 24.8731 203.607 26.79 204.126 26.897L203.541 25.6533C203.541 25.6533 204.325 26.6232 204.826 26.79C205.705 27.0796 207.209 26.579 207.209 26.579C207.212 26.5519 207.214 26.5176 207.215 26.4805C207.332 26.4107 207.448 26.3279 207.559 26.2338C207.981 23.7193 206.486 22.0049 204.783 21.9764Z" fill="#0E0E0F"/>
<path d="M206.139 22.7344C206.991 23.3391 207.571 24.4302 207.468 25.8636C207.367 25.9606 207.26 26.0476 207.15 26.1218C207.153 26.156 207.154 26.1874 207.154 26.2116C207.154 26.2116 205.706 26.8092 204.804 26.6253C204.53 26.5682 204.152 26.3086 203.859 26.079C204.133 26.35 204.53 26.7037 204.828 26.795C205.706 27.0617 207.211 26.5996 207.211 26.5996C207.214 26.5739 207.215 26.5425 207.217 26.5097C207.334 26.4455 207.449 26.3685 207.561 26.2815C207.863 24.6171 207.178 23.3377 206.139 22.7344Z" fill="#51525C"/>
<path d="M204.607 22.8828C205.611 23.1895 206.437 24.1037 206.674 25.4087C206.832 25.3118 206.977 25.1905 207.107 25.0536C206.799 23.8598 205.785 23.0597 204.605 22.8842L204.607 22.8828Z" fill="#51525C"/>
<path d="M203.98 23.3867C204.966 23.7461 205.743 24.7017 205.912 26.0182C206.076 25.9298 206.227 25.8157 206.364 25.6859C206.12 24.4778 205.15 23.6249 203.98 23.3867Z" fill="#51525C"/>
<path d="M207.201 23.9492C206.93 24.3286 206.579 24.6338 206.18 24.8378C206.492 25.2486 206.699 25.7249 206.774 26.2284C207.035 26.1542 207.284 26.0373 207.51 25.8875C207.535 25.7278 207.552 25.5652 207.552 25.3997C207.552 24.8791 207.423 24.3885 207.199 23.9506L207.201 23.9492Z" fill="#51525C"/>
<path d="M206.396 26.3075C206.41 25.7898 206.302 25.3034 206.088 24.8812C205.715 25.0538 205.305 25.1422 204.877 25.1151C204.459 25.0895 204.074 24.9582 203.734 24.75C204.144 25.6343 204.958 26.2619 205.937 26.3232C206.092 26.3332 206.245 26.326 206.394 26.3075H206.396Z" fill="#51525C"/>
<path d="M205.539 26.3074C205.605 26.3259 205.67 26.3416 205.74 26.3502C205.759 25.9722 205.709 25.5871 205.59 25.2148C205.647 25.5728 205.629 25.9422 205.539 26.3059V26.3074Z" fill="#0E0E0F"/>
</g>
<path d="M12.492 86.4766C18.0148 86.4766 22.4919 81.9994 22.492 76.4766C22.492 70.9537 18.0149 66.4766 12.4921 66.4766C6.96931 66.4766 2.49216 70.9537 2.49212 76.4766C2.49208 81.9994 6.96917 86.4766 12.492 86.4766Z" fill="#FFB341"/>
<mask id="mask5_12118_61566" style="mask-type:luminance" maskUnits="userSpaceOnUse" x="2" y="66" width="21" height="21">
<path d="M12.492 86.4766C18.0148 86.4766 22.4919 81.9994 22.492 76.4766C22.492 70.9537 18.0149 66.4766 12.4921 66.4766C6.96931 66.4766 2.49216 70.9537 2.49212 76.4766C2.49208 81.9994 6.96917 86.4766 12.492 86.4766Z" fill="white"/>
</mask>
<g mask="url(#mask5_12118_61566)">
<path d="M14.2837 87.5939C16.4356 87.4667 18.4712 87.0636 20.3114 86.4341L19.7688 81.6836C19.7022 81.1007 18.7611 80.634 17.586 80.5549C16.8651 80.4247 16.141 80.3286 15.4155 80.2572C15.4108 80.0681 15.4077 79.8758 15.3953 79.6929C13.6853 79.4774 11.9644 79.4774 10.256 79.6929C10.2436 79.8774 10.2405 80.0681 10.2358 80.2588C9.51025 80.3286 8.78625 80.4262 8.06534 80.5549C6.88863 80.634 5.94758 81.0991 5.88246 81.6836L5.33984 86.4341C7.18009 87.0636 9.21569 87.4667 11.3676 87.5939C11.3676 87.5939 11.3784 87.5939 11.3846 87.5939C11.5908 87.6063 11.7986 87.6171 12.0078 87.6249C12.2792 87.6357 12.552 87.6419 12.828 87.6419C13.1039 87.6419 13.3768 87.6357 13.6481 87.6249C13.8574 87.6171 14.0636 87.6063 14.2698 87.5939C14.276 87.5939 14.2822 87.5939 14.2868 87.5939H14.2837Z" fill="#1695A4"/>
<path d="M17.5836 80.5545C16.8627 80.4243 16.1387 80.3282 15.4132 80.2569C15.4085 80.0677 15.4054 79.8754 15.393 79.6925C14.5419 79.5855 13.6892 79.5312 12.8365 79.5312L11.2148 82.1453L18.8441 86.8756C19.3448 86.7438 19.8332 86.5981 20.3091 86.4337L19.7665 81.6832C19.6998 81.1003 18.7588 80.6336 17.5836 80.5545Z" fill="#138491"/>
<path d="M10.5299 81.5645C10.4694 81.5118 10.4089 81.456 10.3516 81.3986V79.8203H10.5624C10.5516 80.4017 10.5407 80.9831 10.5314 81.5661L10.5299 81.5645Z" fill="#15B0BF"/>
<path d="M10.9102 81.8529C10.8435 81.8095 10.7784 81.7645 10.7148 81.7165C10.7334 81.0839 10.7521 80.4513 10.7691 79.8203H10.98C10.9567 80.4978 10.9334 81.1754 10.9102 81.8529Z" fill="#15B0BF"/>
<path d="M11.321 82.0808C11.2497 82.0483 11.1815 82.0126 11.1133 81.9754C11.1396 81.2576 11.1644 80.5397 11.1908 79.8203H11.4016C11.3753 80.5738 11.3489 81.3273 11.3226 82.0808H11.321Z" fill="#15B0BF"/>
<path d="M11.7538 82.2483C11.6809 82.225 11.608 82.2002 11.5352 82.1723C11.5615 81.3878 11.5863 80.6048 11.6111 79.8203H11.822C11.7987 80.6296 11.7755 81.439 11.7538 82.2467V82.2483Z" fill="#15B0BF"/>
<path d="M12.1975 82.3537C12.123 82.3413 12.0471 82.3258 11.9727 82.3087C11.9913 81.4793 12.0114 80.6498 12.03 79.8203H12.2409C12.2269 80.6653 12.213 81.5087 12.1975 82.3537Z" fill="#15B0BF"/>
<path d="M12.6537 82.4002C12.5777 82.3971 12.5017 82.3925 12.4258 82.3847C12.4351 81.5304 12.4428 80.6761 12.4521 79.8203H12.663C12.6599 80.6792 12.6568 81.5397 12.6537 82.3987V82.4002Z" fill="#15B0BF"/>
<path d="M13.1122 82.3832C13.0362 82.3909 12.9603 82.3956 12.8843 82.3987C12.8812 81.5397 12.8781 80.6792 12.875 79.8203H13.0858C13.0951 80.6746 13.1029 81.5289 13.1122 82.3847V82.3832Z" fill="#15B0BF"/>
<path d="M13.5612 82.3087C13.4868 82.3258 13.4108 82.3413 13.3364 82.3537C13.3224 81.5087 13.3085 80.6653 13.293 79.8203H13.5038C13.5224 80.6498 13.5426 81.4793 13.5612 82.3087Z" fill="#15B0BF"/>
<path d="M14.004 82.1708C13.9327 82.1987 13.8598 82.2235 13.787 82.2467C13.7637 81.4374 13.7405 80.6281 13.7188 79.8203H13.9296C13.9544 80.6033 13.9808 81.3878 14.0056 82.1723L14.004 82.1708Z" fill="#15B0BF"/>
<path d="M14.4235 81.9754C14.3553 82.0126 14.2856 82.0483 14.2158 82.0808C14.1894 81.3273 14.1631 80.5738 14.1367 79.8203H14.3476C14.3739 80.5382 14.3987 81.256 14.4251 81.9754H14.4235Z" fill="#15B0BF"/>
<path d="M14.8198 81.7165C14.7562 81.7645 14.6911 81.8095 14.6244 81.8529C14.6012 81.1754 14.5779 80.4978 14.5547 79.8203H14.7655C14.7841 80.4529 14.8012 81.0855 14.8198 81.7165Z" fill="#15B0BF"/>
<path d="M15.1859 81.4002C15.1285 81.4576 15.068 81.5134 15.0076 81.5661C14.9967 80.9847 14.9874 80.4017 14.9766 79.8203H15.1874V81.3986L15.1859 81.4002Z" fill="#15B0BF"/>
<path d="M9.85886 76.4588C10.0697 77.2232 10.0589 77.7488 9.89297 77.8372C9.72864 77.924 9.42477 77.5628 9.14416 76.8341C8.86045 76.1038 8.79999 75.3549 9.03874 75.2418C9.27129 75.1084 9.64802 75.6898 9.85732 76.4588H9.85886Z" fill="#F8D298"/>
<path d="M15.6696 76.5795C15.5052 77.3563 15.5486 77.8803 15.7192 77.9578C15.8882 78.0338 16.1688 77.6555 16.406 76.9113C16.6432 76.1655 16.6587 75.4151 16.4137 75.3159C16.1734 75.1965 15.8324 75.7996 15.6696 76.581V76.5795Z" fill="#F8D298"/>
<path d="M12.8216 70.4088C10.7333 70.2662 8.80625 72.536 9.37988 75.9222C9.94885 79.1858 11.3256 80.7052 12.8216 80.7052C14.3162 80.7052 15.6929 79.1858 16.2618 75.9222C16.8354 72.536 14.9099 70.2646 12.8216 70.4088Z" fill="#FFE2B6"/>
<path d="M12.8246 70.276C11.0542 70.1551 9.40769 71.7706 9.29297 74.3273L15.5749 78.2034C15.8617 77.5429 16.0989 76.7429 16.2648 75.7893C16.8385 72.4032 14.9129 70.1318 12.8246 70.276Z" fill="#F8D298"/>
<path d="M12.8246 70.276C12.7718 70.2729 12.7207 70.276 12.668 70.276V80.5631C12.7207 80.5678 12.7718 80.5724 12.8246 80.5724C14.3191 80.5724 15.6958 79.053 16.2647 75.7893C16.8384 72.4032 14.9129 70.1318 12.8246 70.276Z" fill="#F8D298"/>
<path d="M12.8246 70.2776C12.7718 70.2745 12.7207 70.2776 12.668 70.2776V76.4095L15.5749 78.2034C15.8617 77.5429 16.0989 76.7429 16.2647 75.7893C16.8384 72.4032 14.9129 70.1318 12.8246 70.276V70.2776Z" fill="#E0C59C"/>
<path d="M12.8241 73.4948C14.3776 73.425 15.8457 74.1738 16.3744 75.4281C16.7635 72.2436 14.8706 70.1365 12.8241 70.2761C10.7761 70.1381 8.88473 72.2436 9.27386 75.4281C9.80252 74.1738 11.2707 73.4265 12.8241 73.4948Z" fill="#1695A4"/>
<path d="M13.2466 70.4648C13.2466 70.6896 13.0389 70.871 12.7815 70.871C12.5242 70.871 12.3164 70.6896 12.3164 70.4648C12.3164 70.24 12.5242 70.0586 12.7815 70.0586C13.0389 70.0586 13.2466 70.24 13.2466 70.4648Z" fill="#15B0BF"/>
<path d="M12.823 73.2123C13.5005 73.1689 14.1547 73.4076 14.6772 73.865C14.4989 71.6804 13.688 70.3362 12.823 70.4479C11.9579 70.3362 11.147 71.6804 10.9688 73.865C11.4912 73.4092 12.1455 73.1704 12.823 73.2123Z" fill="#1695A4"/>
<path d="M12.823 73.2475C13.5005 73.2072 14.1547 73.432 14.6772 73.8645C14.4989 71.7994 13.688 70.5296 12.823 70.635C11.9579 70.5296 11.147 71.7994 10.9688 73.8645C11.4912 73.4335 12.1455 73.2072 12.823 73.2475Z" fill="#15B0BF"/>
<path d="M12.8217 73.3386C13.7767 73.2704 14.6929 73.751 15.3379 74.6332C15.4433 74.5402 15.5441 74.4394 15.6355 74.3309C14.9968 73.1495 13.9333 72.4859 12.8217 72.5649C11.7085 72.4859 10.6466 73.1495 10.0078 74.3309C10.1008 74.4394 10.2001 74.5402 10.3055 74.6332C10.9504 73.7495 11.8667 73.2688 12.8217 73.3386Z" fill="#1695A4"/>
<path d="M12.8228 73.6731C13.8305 73.6095 14.7994 74.0561 15.4816 74.8762C15.5932 74.7894 15.6986 74.6964 15.7963 74.5956C15.1219 73.4979 13.9995 72.8808 12.8228 72.9553C11.646 72.8808 10.5236 73.4979 9.84766 74.5956C9.94533 74.6964 10.0523 74.7894 10.1624 74.8762C10.843 74.0545 11.8119 73.6095 12.8212 73.6731H12.8228Z" fill="#15B0BF"/>
</g>
<path d="M45.0976 10.4902C45.0976 14.687 41.6949 18.0898 37.498 18.0898C33.3012 18.0898 29.8984 14.687 29.8984 10.4902C29.8984 6.29335 33.3012 2.89062 37.498 2.89062C41.6949 2.89062 45.0976 6.29335 45.0976 10.4902Z" fill="#FFB341"/>
<mask id="mask6_12118_61566" style="mask-type:luminance" maskUnits="userSpaceOnUse" x="29" y="2" width="17" height="17">
<path d="M45.1015 10.4941C45.1015 14.6909 41.6988 18.0937 37.5019 18.0937C33.3051 18.0937 29.9023 14.6909 29.9023 10.4941C29.9023 6.29725 33.3051 2.89453 37.5019 2.89453C41.6988 2.89453 45.1015 6.29725 45.1015 10.4941Z" fill="white"/>
</mask>
<g mask="url(#mask6_12118_61566)">
<path d="M42.5234 11.0694C42.428 10.8149 42.3043 10.5522 42.1487 10.2918C41.4559 9.1265 40.4368 8.45373 39.8736 8.78952C39.3104 9.12532 39.4164 10.3412 40.1092 11.5065C40.2648 11.7669 40.4356 12.0002 40.6147 12.2052L42.5222 11.0694H42.5234Z" fill="#0E303F"/>
<path d="M32.5586 11.0694C32.654 10.8149 32.7777 10.5522 32.9321 10.2918C33.6261 9.1265 34.6452 8.45373 35.2072 8.78952C35.7704 9.12532 35.6644 10.3412 34.9716 11.5065C34.8173 11.7669 34.6452 12.0002 34.4661 12.2052L32.5586 11.0694Z" fill="#0E303F"/>
<path d="M35.1969 9.49755C35.1062 9.57413 34.9707 9.56235 34.8941 9.47163L34.4217 8.91079C34.3451 8.82007 34.3569 8.68458 34.4476 8.60917C34.5383 8.53258 34.6726 8.54437 34.7492 8.63509L35.2217 9.19592C35.2983 9.28665 35.2865 9.42096 35.1958 9.49755H35.1969Z" fill="#05A7A7"/>
<path d="M39.8514 9.43014C39.7748 9.33942 39.7866 9.2051 39.8773 9.12851L40.4381 8.65604C40.5288 8.57946 40.6632 8.59124 40.7397 8.68196C40.8163 8.77269 40.8045 8.90819 40.715 8.98359L40.1542 9.45606C40.0634 9.53265 39.9279 9.52086 39.8525 9.43014H39.8514Z" fill="#05A7A7"/>
<path d="M37.5394 5.94543C35.7886 5.85589 34.1756 7.26741 34.6563 9.37172C35.1323 11.4006 36.287 12.3444 37.5394 12.3444C38.7919 12.3444 39.9466 11.4006 40.4226 9.37172C40.9033 7.26741 39.2891 5.85589 37.5394 5.94543Z" fill="#0E303F"/>
<path d="M35.7522 10.3392C35.8311 10.7892 35.7804 11.0873 35.6638 11.1262C35.546 11.1639 35.3728 10.9377 35.2443 10.5029C35.1147 10.067 35.1348 9.63812 35.3044 9.58863C35.4706 9.52854 35.6756 9.88673 35.7522 10.3392Z" fill="#EFCB95"/>
<path d="M39.3311 10.3392C39.2521 10.7892 39.3028 11.0873 39.4194 11.1262C39.5373 11.1639 39.7105 10.9377 39.8389 10.5029C39.9685 10.067 39.9473 9.63812 39.7788 9.58863C39.6127 9.52854 39.4076 9.88673 39.3299 10.3392H39.3311Z" fill="#EFCB95"/>
<path d="M37.5793 19.1233C39.0415 19.1233 40.4212 18.7863 41.643 18.1937L41.3485 14.5377C41.3131 14.0888 40.803 13.7294 40.1644 13.6681C38.45 13.2298 36.7098 13.231 34.9955 13.6681C34.3569 13.7294 33.8467 14.0876 33.8102 14.5377L33.5156 18.1937C34.7374 18.7875 36.1172 19.1233 37.5793 19.1233Z" fill="#05A7A7"/>
<path d="M39.4763 13.5166C38.1909 13.2763 36.8948 13.281 35.6094 13.5308C35.627 14.3944 36.4848 15.813 37.5417 15.813C38.5985 15.813 39.4669 14.3803 39.4751 13.5178L39.4763 13.5166Z" fill="#FFE2B6"/>
<path d="M38.6739 11.8438C38.6739 11.7778 38.6716 11.7154 38.6716 11.6482C37.9222 11.085 37.167 11.0862 36.4176 11.6506C36.4164 11.7154 36.4141 11.779 36.4141 11.8438C36.4141 14.0035 36.9195 15.7532 37.544 15.7532C38.1684 15.7532 38.6739 14.0035 38.6739 11.8438Z" fill="#FFE2B6"/>
<path d="M38.6739 11.5087C38.6739 11.4793 38.6716 11.4498 38.6716 11.4192C37.9222 11.1623 37.167 11.1623 36.4176 11.4192C36.4164 11.4487 36.4141 11.4781 36.4141 11.5076C36.4141 12.4937 36.9195 13.2914 37.544 13.2914C38.1684 13.2914 38.6739 12.4926 38.6739 11.5076V11.5087Z" fill="#F8D298"/>
<path d="M39.7589 9.98231C39.3925 11.7661 38.5041 12.5956 37.5415 12.5968C36.5788 12.5968 35.6905 11.7661 35.324 9.98231C34.9541 8.13131 36.1947 6.89064 37.5415 6.9684C38.887 6.88946 40.1288 8.13131 39.7589 9.98231Z" fill="#FFE2B6"/>
<path d="M37.6406 6.96887V12.5925C38.5655 12.5372 39.4068 11.7065 39.7614 9.98278C40.122 8.17655 38.9485 6.95473 37.6406 6.96887Z" fill="#F8D298"/>
<path d="M37.7774 6.05148C38.7565 5.98079 39.6649 7.01527 40.1786 8.805C40.1256 8.90279 40.2999 9.27158 40.2422 9.35995L39.3833 9.07835L38.9756 7.75873C38.9756 7.75873 38.5868 8.97231 38.1803 9.11252L38.3677 8.33842C38.3677 8.33842 37.9494 8.9947 37.5747 9.16554C36.9149 9.46363 35.5446 9.42946 35.5446 9.42946C35.4409 9.26922 35.3255 8.74727 35.2383 8.55875C35.8451 6.82558 36.8041 5.883 37.7774 6.0503V6.05148Z" fill="#0E303F"/>
<path d="M38.6704 12.0247C38.3275 11.9045 37.9847 12.0683 37.6406 12.0589V14.4495C38.2191 14.3859 38.6727 13.7626 38.6727 13.0015C38.6727 12.9767 38.6704 12.0565 38.6704 12.0247Z" fill="#F8D298"/>
</g>
<defs>
<linearGradient id="paint0_linear_12118_61566" x1="137.254" y1="54.8038" x2="118.638" y2="70.3867" gradientUnits="userSpaceOnUse">
<stop stop-color="#FF9900"/>
<stop offset="1" stop-color="#FFC368"/>
</linearGradient>
<radialGradient id="paint1_radial_12118_61566" cx="0" cy="0" r="1" gradientUnits="userSpaceOnUse" gradientTransform="translate(198.452 227.481) scale(19.5713 104.933)">
<stop offset="0.34078" stop-color="#D7DAEC"/>
<stop offset="1" stop-color="#D2E0F5" stop-opacity="0"/>
</radialGradient>
<linearGradient id="paint2_linear_12118_61566" x1="112.787" y1="78.1033" x2="111.952" y2="31.7187" gradientUnits="userSpaceOnUse">
<stop offset="0.22495" stop-color="#05E0E0"/>
<stop offset="1" stop-color="#22BDBD"/>
</linearGradient>
<linearGradient id="paint3_linear_12118_61566" x1="123.597" y1="56.6382" x2="105.399" y2="52.3843" gradientUnits="userSpaceOnUse">
<stop offset="0.00147719" stop-color="#F2F4FF"/>
<stop offset="1" stop-color="#D2E0F5"/>
</linearGradient>
<linearGradient id="paint4_linear_12118_61566" x1="127.322" y1="68.2766" x2="100.622" y2="90.6266" gradientUnits="userSpaceOnUse">
<stop stop-color="#FF9900"/>
<stop offset="1" stop-color="#FFC368"/>
</linearGradient>
<linearGradient id="paint5_linear_12118_61566" x1="152.479" y1="67.8785" x2="118.826" y2="96.0488" gradientUnits="userSpaceOnUse">
<stop stop-color="#FF9900"/>
<stop offset="1" stop-color="#FFC368"/>
</linearGradient>
<linearGradient id="paint6_linear_12118_61566" x1="176.727" y1="140.641" x2="105.409" y2="38.3136" gradientUnits="userSpaceOnUse">
<stop stop-color="#05E0E0"/>
<stop offset="1" stop-color="#22BDBD"/>
</linearGradient>
<linearGradient id="paint7_linear_12118_61566" x1="134.893" y1="144.653" x2="113.464" y2="143.524" gradientUnits="userSpaceOnUse">
<stop offset="0.00147719" stop-color="#F2F4FF"/>
<stop offset="1" stop-color="#D2E0F5"/>
</linearGradient>
</defs>
</svg>
