<svg width="168" height="160" viewBox="0 0 168 160" fill="none" xmlns="http://www.w3.org/2000/svg">
<path d="M102.295 91.0085C101.96 89.2794 101.633 87.5571 101.155 85.8688C101.019 85.8416 100.914 85.7872 100.965 85.6038C100.949 85.5223 100.949 85.4305 100.917 85.3558C98.3384 79.0033 94.5368 73.5137 90.393 68.2755C88.093 65.3642 85.5047 62.7553 82.8245 60.2517L82.7928 60.2143C82.7232 60.1124 82.6693 59.9935 82.5806 59.9154C79.2953 56.9736 75.8422 54.2933 72.1545 51.9493C68.3275 49.5205 64.3865 47.6759 59.8023 47.8831C57.2552 48.002 55.0914 49.5782 54.2139 52.2313C53.4631 54.4971 52.6584 56.7561 51.8759 58.9948C51.2233 60.87 50.5136 62.7961 49.8008 64.6746C48.6033 67.8373 47.618 71.0984 46.4807 74.295V74.3052C46.3952 74.5464 46.3065 74.7876 46.2209 75.0254C46.1956 75.0866 46.1766 75.1545 46.1639 75.219C46.1164 75.4636 46.1512 75.7218 46.3255 75.9698C49.2781 80.1481 52.8168 83.6879 56.8561 86.5787C60.8193 89.4187 64.9346 91.997 69.3888 93.9163C72.804 95.3907 76.2255 96.797 79.7769 97.8705C83.1698 98.893 86.5818 99.8068 90.0603 100.32C91.6856 100.558 93.3646 100.931 94.9993 100.585C95.5981 100.459 96.1937 100.238 96.7734 99.8781C97.2676 99.5758 97.7904 99.2803 98.3353 99.1342C101.323 98.3257 102.745 93.2981 102.295 91.0085ZM96.3838 92.8802C96.4883 94.1032 95.3637 94.0624 94.8156 93.9503C91.6507 93.3015 88.7456 91.9732 85.9862 90.1185C83.1096 88.1855 80.3693 86.0658 77.7905 83.7252C75.009 81.1978 72.4302 78.4292 70.0066 75.4806C67.4848 72.4097 65.1658 69.2063 63.1066 65.7651C61.3135 62.7655 59.9924 59.5655 59.2162 56.1039C58.8424 54.4326 59.8055 53.4101 61.38 53.7735C64.9219 54.5922 68.128 56.2432 71.1566 58.3324C74.4165 60.5812 77.3882 63.2139 80.2647 66.0097C83.7242 69.3727 86.8923 73.011 89.677 77.0059C92.4269 80.9498 94.9708 85.0535 96.2729 89.8773C96.3648 90.2136 96.3869 90.5295 96.4345 90.9202C96.3394 91.5316 96.3236 92.1873 96.3838 92.8802Z" fill="url(#paint0_linear_12138_9153)"/>
<path d="M96.3847 92.8792C96.4893 94.1021 95.3646 94.0613 94.8166 93.9492C91.6517 93.3004 88.7466 91.9722 85.9872 90.1174C83.1106 88.1845 80.3703 86.0647 77.7915 83.7242C75.0099 81.1968 72.4311 78.4282 70.0076 75.4795C67.4858 72.4086 65.1668 69.2052 63.1076 65.764C61.3145 62.7644 59.9934 59.5644 59.2172 56.1028C58.8434 54.4315 59.8065 53.409 61.381 53.7725C64.9229 54.5912 68.1289 56.2421 71.1576 58.3313C74.4175 60.5801 77.3891 63.2128 80.2657 66.0086C83.7252 69.3717 86.8933 73.0099 89.678 77.0048C92.4278 80.9488 94.9718 85.0524 96.2739 89.8762C96.3657 90.2125 96.3879 90.5284 96.4354 90.9191C96.3404 91.5306 96.3245 92.1862 96.3847 92.8792Z" fill="#606060"/>
<path d="M96.3847 92.8792C96.4893 94.1021 95.3646 94.0613 94.8166 93.9492C91.6517 93.3004 88.7466 91.9722 85.9872 90.1174C83.1106 88.1845 80.3703 86.0647 77.7915 83.7242C75.0099 81.1968 72.4311 78.4282 70.0076 75.4795C67.4858 72.4086 65.1668 69.2052 63.1076 65.764C61.3145 62.7644 59.9934 59.5644 59.2172 56.1028C58.8434 54.4315 59.8065 53.409 61.381 53.7725C64.9229 54.5912 68.1289 56.2421 71.1576 58.3313C74.4175 60.5801 77.3891 63.2128 80.2657 66.0086C83.7252 69.3717 86.8933 73.0099 89.678 77.0048C92.4278 80.9488 94.9718 85.0524 96.2739 89.8762C96.3657 90.2125 96.3879 90.5284 96.4354 90.9191C96.3404 91.5306 96.3245 92.1862 96.3847 92.8792Z" fill="url(#paint1_linear_12138_9153)"/>
<path d="M83.1516 105.3C82.7492 105.46 82.3469 105.626 81.9445 105.793L81.7576 105.868C80.5379 106.367 79.3246 106.87 78.0922 107.325C77.9148 107.393 77.7405 107.454 77.5631 107.519C76.7774 107.801 76.0076 108.133 75.2346 108.463H75.2219C74.4553 108.796 73.6854 109.122 72.8998 109.394H72.8903C72.3675 109.577 71.8353 109.733 71.2936 109.852C71.1162 109.839 70.8786 109.689 70.8627 110.063C70.0422 110.437 69.2217 110.817 68.398 111.187C68.1477 111.303 67.8942 111.415 67.6408 111.527C67.5173 111.581 67.3937 111.615 67.2733 111.632C66.6144 111.741 65.9776 111.398 65.3566 111.293C59.5464 110.291 53.8693 108.718 48.5913 105.864C44.9006 103.867 41.6597 101.207 39.271 97.4702C38.9858 97.0252 38.913 96.6345 38.9573 96.237C38.9795 96.0536 39.0302 95.8668 39.0967 95.6765C39.8349 93.567 40.5762 91.4642 41.3175 89.358C42.0588 87.2553 42.8002 85.1491 43.5351 83.0396C43.6175 82.8052 43.6112 82.5062 43.8393 82.4111C44.1181 82.2956 44.2416 82.6183 44.362 82.795C45.9524 85.1865 48.1288 86.9326 50.2039 88.7602C53.619 91.7699 57.3795 94.2566 61.3142 96.4001C63.9849 97.854 66.608 99.4235 69.4878 100.402C71.6516 101.136 73.6443 102.386 75.8714 102.922C77.24 103.252 78.5167 103.87 79.9582 104.057C80.9783 104.186 82.0554 104.818 83.1516 105.3Z" fill="black"/>
<path d="M83.1516 105.3C82.7492 105.46 82.3469 105.626 81.9445 105.793L81.7576 105.868C80.5379 106.367 79.3246 106.87 78.0922 107.325C77.9148 107.393 77.7405 107.454 77.5631 107.519C76.7774 107.801 76.0076 108.133 75.2346 108.463H75.2219C74.4553 108.796 73.6854 109.122 72.8998 109.394H72.8903C72.3675 109.577 71.8353 109.733 71.2936 109.852C71.1162 109.839 70.8786 109.689 70.8627 110.063C70.0422 110.437 69.2217 110.817 68.398 111.187C68.1477 111.303 67.8942 111.415 67.6408 111.527C67.5173 111.581 67.3937 111.615 67.2733 111.632C66.6144 111.741 65.9776 111.398 65.3566 111.293C59.5464 110.291 53.8693 108.718 48.5913 105.864C44.9006 103.867 41.6597 101.207 39.271 97.4702C38.9858 97.0252 38.913 96.6345 38.9573 96.237C38.9795 96.0536 39.0302 95.8668 39.0967 95.6765C39.8349 93.567 40.5762 91.4642 41.3175 89.358C42.0588 87.2553 42.8002 85.1491 43.5351 83.0396C43.6175 82.8052 43.6112 82.5062 43.8393 82.4111C44.1181 82.2956 44.2416 82.6183 44.362 82.795C45.9524 85.1865 48.1288 86.9326 50.2039 88.7602C53.619 91.7699 57.3795 94.2566 61.3142 96.4001C63.9849 97.854 66.608 99.4235 69.4878 100.402C71.6516 101.136 73.6443 102.386 75.8714 102.922C77.24 103.252 78.5167 103.87 79.9582 104.057C80.9783 104.186 82.0554 104.818 83.1516 105.3Z" fill="url(#paint2_linear_12138_9153)"/>
<path d="M77.685 48.3532C78.3955 49.1368 79.1211 49.8935 79.5216 50.9656C79.9006 51.9785 79.7341 52.904 79.2571 53.7465C78.461 55.1524 77.2079 55.8707 75.8283 56.3297C74.8703 56.648 74.7984 56.5829 74.378 55.5099C74.1814 55.0073 73.9357 54.5144 73.8256 53.9899C73.7419 53.5856 73.8691 53.1205 74.2722 52.9628C74.8392 52.741 75.3752 52.4538 75.9136 52.1645C76.1847 52.0187 76.2756 51.9563 76.0059 51.6603C75.2943 50.8785 74.5243 50.1511 74.0862 49.0976C73.6388 48.0237 74.0139 46.0817 75.1337 45.3835C75.9707 44.862 76.8608 44.592 77.8338 44.385C77.4226 43.9059 77.0377 43.4564 76.6541 43.0067C75.1334 41.221 75.5742 39.1771 77.0288 37.8107C77.5569 37.3138 78.2074 37.0611 78.7924 36.6817C79.1668 36.4392 79.5759 36.374 79.968 36.2424C80.4671 36.0769 80.8099 36.3473 80.9948 36.8967C81.162 37.3924 81.3503 37.8792 81.5412 38.3655C81.7701 38.9491 81.4997 39.6315 80.9649 39.8438C80.4804 40.0367 80.001 40.2507 79.5272 40.4732C79.2677 40.5961 79.2079 40.7572 79.4628 41.0164C79.8662 41.4257 80.2589 41.8545 80.622 42.3083C81.9499 43.9654 81.8418 45.5988 80.5946 47.1131C80.1316 47.6765 79.3596 47.8214 78.6828 48.0285C78.3517 48.129 78.0085 48.1843 77.6702 48.2592C77.6451 48.2689 77.6199 48.2787 77.5962 48.2881C77.6255 48.3109 77.6559 48.3319 77.6852 48.3547L77.685 48.3532Z" fill="black"/>
<path d="M77.685 48.3532C78.3955 49.1368 79.1211 49.8935 79.5216 50.9656C79.9006 51.9785 79.7341 52.904 79.2571 53.7465C78.461 55.1524 77.2079 55.8707 75.8283 56.3297C74.8703 56.648 74.7984 56.5829 74.378 55.5099C74.1814 55.0073 73.9357 54.5144 73.8256 53.9899C73.7419 53.5856 73.8691 53.1205 74.2722 52.9628C74.8392 52.741 75.3752 52.4538 75.9136 52.1645C76.1847 52.0187 76.2756 51.9563 76.0059 51.6603C75.2943 50.8785 74.5243 50.1511 74.0862 49.0976C73.6388 48.0237 74.0139 46.0817 75.1337 45.3835C75.9707 44.862 76.8608 44.592 77.8338 44.385C77.4226 43.9059 77.0377 43.4564 76.6541 43.0067C75.1334 41.221 75.5742 39.1771 77.0288 37.8107C77.5569 37.3138 78.2074 37.0611 78.7924 36.6817C79.1668 36.4392 79.5759 36.374 79.968 36.2424C80.4671 36.0769 80.8099 36.3473 80.9948 36.8967C81.162 37.3924 81.3503 37.8792 81.5412 38.3655C81.7701 38.9491 81.4997 39.6315 80.9649 39.8438C80.4804 40.0367 80.001 40.2507 79.5272 40.4732C79.2677 40.5961 79.2079 40.7572 79.4628 41.0164C79.8662 41.4257 80.2589 41.8545 80.622 42.3083C81.9499 43.9654 81.8418 45.5988 80.5946 47.1131C80.1316 47.6765 79.3596 47.8214 78.6828 48.0285C78.3517 48.129 78.0085 48.1843 77.6702 48.2592C77.6451 48.2689 77.6199 48.2787 77.5962 48.2881C77.6255 48.3109 77.6559 48.3319 77.6852 48.3547L77.685 48.3532Z" fill="url(#paint3_linear_12138_9153)"/>
<path d="M117.69 78.9282C114.848 79.4804 112.974 77.9913 111.553 75.5689C110.972 74.5785 110.383 73.5911 109.883 72.5517C109.535 71.8297 109.266 71.9814 108.933 72.4985C108.439 73.2718 107.782 73.8925 107.316 74.7136C106.216 76.6596 105.094 76.8811 103.469 75.4734C102.981 75.0486 102.432 74.7206 101.94 74.3043C100.611 73.1754 100.497 72.3976 101.351 70.8334C102.267 69.1598 103.394 67.6887 104.72 66.4149C106.253 64.9417 108.068 64.3292 110.178 64.1109C112.3 63.8921 113.168 65.4135 114.319 66.5948C115.398 67.7036 116.095 69.1616 116.835 70.7293C117.706 69.2897 118.071 67.7863 118.933 66.5475C120.443 64.3724 122.587 63.1789 125.129 63.8299C127.942 64.5462 129.242 66.8547 130.499 69.258C131.324 70.8406 131.605 70.8625 132.567 69.3445C133.078 68.5385 133.61 67.7401 134.192 66.9927C134.874 66.1207 135.819 65.9182 136.503 66.6823C137.207 67.4694 138.117 67.8691 138.878 68.5303C140.326 69.7899 140.307 69.8658 139.483 71.6737C138.648 73.5071 137.254 74.7959 136.012 76.2308C134.974 77.4274 133.562 77.9613 132.097 78.3009C132.068 78.2254 132.041 78.1471 132.01 78.0703C131.977 78.1188 131.945 78.1715 131.911 78.22C130.599 78.4985 129.524 78.4455 128.192 77.5991C126.088 76.2672 125.387 74.0136 124.055 72.1821C122.896 73.4902 122.545 75.3631 121.341 76.6867C120.45 77.6651 119.512 78.4351 118.272 78.7526C117.904 78.0995 117.869 78.8076 117.688 78.9171L117.69 78.9282Z" fill="black"/>
<path d="M117.69 78.9282C114.848 79.4804 112.974 77.9913 111.553 75.5689C110.972 74.5785 110.383 73.5911 109.883 72.5517C109.535 71.8297 109.266 71.9814 108.933 72.4985C108.439 73.2718 107.782 73.8925 107.316 74.7136C106.216 76.6596 105.094 76.8811 103.469 75.4734C102.981 75.0486 102.432 74.7206 101.94 74.3043C100.611 73.1754 100.497 72.3976 101.351 70.8334C102.267 69.1598 103.394 67.6887 104.72 66.4149C106.253 64.9417 108.068 64.3292 110.178 64.1109C112.3 63.8921 113.168 65.4135 114.319 66.5948C115.398 67.7036 116.095 69.1616 116.835 70.7293C117.706 69.2897 118.071 67.7863 118.933 66.5475C120.443 64.3724 122.587 63.1789 125.129 63.8299C127.942 64.5462 129.242 66.8547 130.499 69.258C131.324 70.8406 131.605 70.8625 132.567 69.3445C133.078 68.5385 133.61 67.7401 134.192 66.9927C134.874 66.1207 135.819 65.9182 136.503 66.6823C137.207 67.4694 138.117 67.8691 138.878 68.5303C140.326 69.7899 140.307 69.8658 139.483 71.6737C138.648 73.5071 137.254 74.7959 136.012 76.2308C134.974 77.4274 133.562 77.9613 132.097 78.3009C132.068 78.2254 132.041 78.1471 132.01 78.0703C131.977 78.1188 131.945 78.1715 131.911 78.22C130.599 78.4985 129.524 78.4455 128.192 77.5991C126.088 76.2672 125.387 74.0136 124.055 72.1821C122.896 73.4902 122.545 75.3631 121.341 76.6867C120.45 77.6651 119.512 78.4351 118.272 78.7526C117.904 78.0995 117.869 78.8076 117.688 78.9171L117.69 78.9282Z" fill="url(#paint4_linear_12138_9153)"/>
<path d="M111.311 42.9584C110.073 45.0296 108.252 45.3925 106.17 44.9679C105.318 44.7947 104.464 44.6278 103.63 44.3773C103.05 44.204 102.987 44.4538 103.087 44.941C103.24 45.667 103.221 46.4129 103.414 47.1476C103.874 48.8862 103.387 49.7055 101.745 49.9572C101.251 50.0319 100.776 50.1967 100.284 50.2782C98.9528 50.4964 98.4693 50.1467 98.0829 48.7682C97.6711 47.2913 97.4828 45.793 97.5094 44.277C97.5396 42.5243 98.1894 41.0609 99.2121 39.6275C100.242 38.1858 101.536 38.4675 102.799 38.3891C103.984 38.3158 105.152 38.6697 106.403 39.0565C106.093 37.7348 105.475 36.6938 105.269 35.4865C104.907 33.3679 105.419 31.3857 107.147 30.1529C109.058 28.786 111.013 29.224 112.996 29.7405C114.301 30.0818 114.465 29.9184 114.162 28.4976C114.001 27.7432 113.856 26.9791 113.765 26.2125C113.661 25.3153 114.062 24.6166 114.847 24.6031C115.654 24.5903 116.364 24.2388 117.134 24.1223C118.6 23.9002 118.631 23.9535 119.166 25.4454C119.708 26.9579 119.653 28.5237 119.76 30.0744C119.847 31.3689 119.373 32.538 118.764 33.6359C118.708 33.6127 118.651 33.5872 118.592 33.565C118.601 33.6121 118.612 33.6606 118.62 33.7078C118.061 34.6766 117.451 35.3181 116.272 35.6908C114.411 36.2822 112.81 35.5006 111.096 35.3403C111.178 36.7707 112.004 38.0027 112.071 39.4694C112.12 40.5539 112.03 41.5557 111.531 42.5004C110.978 42.3768 111.343 42.7815 111.305 42.9535L111.311 42.9584Z" fill="black"/>
<path d="M111.311 42.9584C110.073 45.0296 108.252 45.3925 106.17 44.9679C105.318 44.7947 104.464 44.6278 103.63 44.3773C103.05 44.204 102.987 44.4538 103.087 44.941C103.24 45.667 103.221 46.4129 103.414 47.1476C103.874 48.8862 103.387 49.7055 101.745 49.9572C101.251 50.0319 100.776 50.1967 100.284 50.2782C98.9528 50.4964 98.4693 50.1467 98.0829 48.7682C97.6711 47.2913 97.4828 45.793 97.5094 44.277C97.5396 42.5243 98.1894 41.0609 99.2121 39.6275C100.242 38.1858 101.536 38.4675 102.799 38.3891C103.984 38.3158 105.152 38.6697 106.403 39.0565C106.093 37.7348 105.475 36.6938 105.269 35.4865C104.907 33.3679 105.419 31.3857 107.147 30.1529C109.058 28.786 111.013 29.224 112.996 29.7405C114.301 30.0818 114.465 29.9184 114.162 28.4976C114.001 27.7432 113.856 26.9791 113.765 26.2125C113.661 25.3153 114.062 24.6166 114.847 24.6031C115.654 24.5903 116.364 24.2388 117.134 24.1223C118.6 23.9002 118.631 23.9535 119.166 25.4454C119.708 26.9579 119.653 28.5237 119.76 30.0744C119.847 31.3689 119.373 32.538 118.764 33.6359C118.708 33.6127 118.651 33.5872 118.592 33.565C118.601 33.6121 118.612 33.6606 118.62 33.7078C118.061 34.6766 117.451 35.3181 116.272 35.6908C114.411 36.2822 112.81 35.5006 111.096 35.3403C111.178 36.7707 112.004 38.0027 112.071 39.4694C112.12 40.5539 112.03 41.5557 111.531 42.5004C110.978 42.3768 111.343 42.7815 111.305 42.9535L111.311 42.9584Z" fill="url(#paint5_linear_12138_9153)"/>
<path d="M111.311 42.9584C110.073 45.0296 108.252 45.3925 106.17 44.9679C105.318 44.7947 104.464 44.6278 103.63 44.3773C103.05 44.204 102.987 44.4538 103.087 44.941C103.24 45.667 103.221 46.4129 103.414 47.1476C103.874 48.8862 103.387 49.7055 101.745 49.9572C101.251 50.0319 100.776 50.1967 100.284 50.2782C98.9528 50.4964 98.4693 50.1467 98.0829 48.7682C97.6711 47.2913 97.4828 45.793 97.5094 44.277C97.5396 42.5243 98.1894 41.0609 99.2121 39.6275C100.242 38.1858 101.536 38.4675 102.799 38.3891C103.984 38.3158 105.152 38.6697 106.403 39.0565C106.093 37.7348 105.475 36.6938 105.269 35.4865C104.907 33.3679 105.419 31.3857 107.147 30.1529C109.058 28.786 111.013 29.224 112.996 29.7405C114.301 30.0818 114.465 29.9184 114.162 28.4976C114.001 27.7432 113.856 26.9791 113.765 26.2125C113.661 25.3153 114.062 24.6166 114.847 24.6031C115.654 24.5903 116.364 24.2388 117.134 24.1223C118.6 23.9002 118.631 23.9535 119.166 25.4454C119.708 26.9579 119.653 28.5237 119.76 30.0744C119.847 31.3689 119.373 32.538 118.764 33.6359C118.708 33.6127 118.651 33.5872 118.592 33.565C118.601 33.6121 118.612 33.6606 118.62 33.7078C118.061 34.6766 117.451 35.3181 116.272 35.6908C114.411 36.2822 112.81 35.5006 111.096 35.3403C111.178 36.7707 112.004 38.0027 112.071 39.4694C112.12 40.5539 112.03 41.5557 111.531 42.5004C110.978 42.3768 111.343 42.7815 111.305 42.9535L111.311 42.9584Z" fill="url(#paint6_linear_12138_9153)"/>
<path d="M56.7116 115.802C55.2353 116.4 53.8318 116.967 52.4696 117.517L52.4569 117.524C50.7113 118.231 49.0354 118.907 47.3563 119.579C44.2517 120.829 41.1438 122.066 38.0391 123.306C36.8638 123.778 35.6789 124.226 34.5162 124.733C33.097 125.351 32.0452 125.133 31.0662 124.308C30.1348 123.52 30.1538 121.482 30.553 120.361C32.1434 115.856 33.6957 111.341 35.2671 106.83C35.5617 105.988 35.8722 105.149 36.2302 104.174L36.246 104.126C36.322 103.926 36.3949 103.722 36.4741 103.508C41.8471 110.241 49.0291 113.244 56.7116 115.802Z" fill="black"/>
<path d="M56.7116 115.802C55.2353 116.4 53.8318 116.967 52.4696 117.517L52.4569 117.524C50.7113 118.231 49.0354 118.907 47.3563 119.579C44.2517 120.829 41.1438 122.066 38.0391 123.306C36.8638 123.778 35.6789 124.226 34.5162 124.733C33.097 125.351 32.0452 125.133 31.0662 124.308C30.1348 123.52 30.1538 121.482 30.553 120.361C32.1434 115.856 33.6957 111.341 35.2671 106.83C35.5617 105.988 35.8722 105.149 36.2302 104.174L36.246 104.126C36.322 103.926 36.3949 103.722 36.4741 103.508C41.8471 110.241 49.0291 113.244 56.7116 115.802Z" fill="url(#paint7_linear_12138_9153)"/>
<path d="M81.9395 105.785C82.3419 105.619 82.7442 105.452 83.1465 105.293C82.0504 104.81 80.9733 104.179 79.9532 104.049C78.5117 103.863 77.235 103.244 75.8664 102.915C73.6392 102.378 71.6465 101.128 69.4828 100.394C66.603 99.4159 63.9799 97.8464 61.3092 96.3925C57.3745 94.249 53.614 91.7623 50.1989 88.7526C48.1238 86.9249 45.9474 85.1789 44.357 82.7874C44.2366 82.6107 44.1131 82.288 43.8343 82.4035C43.6062 82.4986 43.6125 82.7975 43.5301 83.0319C42.7951 85.1415 42.0538 87.2477 41.3125 89.3504L46.1596 75.2188C46.1121 75.4633 46.1469 75.7215 46.3212 75.9695C49.2738 80.1479 52.8125 83.6876 56.8518 86.5784C60.815 89.4184 64.9303 91.9967 69.3846 93.916C72.7997 95.3904 76.2212 96.7967 79.7726 97.8702C83.1656 98.8927 86.5775 99.8065 90.0561 100.319C91.6813 100.557 93.3603 100.931 94.995 100.584L81.9395 105.785Z" fill="#606060"/>
<path d="M81.9395 105.785C82.3419 105.619 82.7442 105.452 83.1465 105.293C82.0504 104.81 80.9733 104.179 79.9532 104.049C78.5117 103.863 77.235 103.244 75.8664 102.915C73.6392 102.378 71.6465 101.128 69.4828 100.394C66.603 99.4159 63.9799 97.8464 61.3092 96.3925C57.3745 94.249 53.614 91.7623 50.1989 88.7526C48.1238 86.9249 45.9474 85.1789 44.357 82.7874C44.2366 82.6107 44.1131 82.288 43.8343 82.4035C43.6062 82.4986 43.6125 82.7975 43.5301 83.0319C42.7951 85.1415 42.0538 87.2477 41.3125 89.3504L46.1596 75.2188C46.1121 75.4633 46.1469 75.7215 46.3212 75.9695C49.2738 80.1479 52.8125 83.6876 56.8518 86.5784C60.815 89.4184 64.9303 91.9967 69.3846 93.916C72.7997 95.3904 76.2212 96.7967 79.7726 97.8702C83.1656 98.8927 86.5775 99.8065 90.0561 100.319C91.6813 100.557 93.3603 100.931 94.995 100.584L81.9395 105.785Z" fill="url(#paint8_linear_12138_9153)"/>
<path d="M52.4658 117.52C53.828 116.969 55.2315 116.402 56.7078 115.804C49.0253 113.246 41.8433 110.243 36.4703 103.51C36.3911 103.724 36.3182 103.928 36.2422 104.129L38.9509 96.2305C38.9065 96.6279 38.9794 97.0186 39.2645 97.4636C41.6532 101.2 44.8941 103.86 48.5849 105.858C53.8629 108.711 59.54 110.284 65.3502 111.286C65.9711 111.391 66.6079 111.735 67.2669 111.626L52.4658 117.52Z" fill="#606060"/>
<path d="M52.4658 117.52C53.828 116.969 55.2315 116.402 56.7078 115.804C49.0253 113.246 41.8433 110.243 36.4703 103.51C36.3911 103.724 36.3182 103.928 36.2422 104.129L38.9509 96.2305C38.9065 96.6279 38.9794 97.0186 39.2645 97.4636C41.6532 101.2 44.8941 103.86 48.5849 105.858C53.8629 108.711 59.54 110.284 65.3502 111.286C65.9711 111.391 66.6079 111.735 67.2669 111.626L52.4658 117.52Z" fill="url(#paint9_linear_12138_9153)"/>
<path d="M23.9737 25.9737L25.6002 23L27.2263 25.9737L30.2 27.6002L27.2263 29.2263L25.6002 32.2L23.9737 29.2263L21 27.6002L23.9737 25.9737Z" fill="#13C7C7"/>
<path d="M45.9394 35.9394L47.0001 34L48.0606 35.9394L50 37.0001L48.0606 38.0606L47.0001 40L45.9394 38.0606L44 37.0001L45.9394 35.9394Z" fill="#13C7C7"/>
<path d="M141.974 93.9737L143.6 91L145.226 93.9737L148.2 95.6002L145.226 97.2263L143.6 100.2L141.974 97.2263L139 95.6002L141.974 93.9737Z" fill="#13C7C7"/>
<path d="M115.974 109.974L117.6 107L119.226 109.974L122.2 111.6L119.226 113.226L117.6 116.2L115.974 113.226L113 111.6L115.974 109.974Z" fill="#13C7C7"/>
<path d="M16.5252 68.5252L19.0003 64L21.4748 68.5252L26 71.0003L21.4748 73.4748L19.0003 78L16.5252 73.4748L12 71.0003L16.5252 68.5252Z" fill="#13C7C7"/>
<rect x="167.5" y="138" width="8.28001" height="166.52" transform="rotate(90 167.5 138)" fill="url(#paint10_radial_12138_9153)"/>
<defs>
<linearGradient id="paint0_linear_12138_9153" x1="115.157" y1="102.911" x2="47.3948" y2="18.2843" gradientUnits="userSpaceOnUse">
<stop stop-color="#05E0E0"/>
<stop offset="1" stop-color="#22BDBD"/>
</linearGradient>
<linearGradient id="paint1_linear_12138_9153" x1="105.76" y1="97.3598" x2="46.2872" y2="84.3144" gradientUnits="userSpaceOnUse">
<stop offset="0.00147719" stop-color="#F2F4FF"/>
<stop offset="1" stop-color="#D2E0F5"/>
</linearGradient>
<linearGradient id="paint2_linear_12138_9153" x1="93.1984" y1="112.863" x2="60.2956" y2="54.5208" gradientUnits="userSpaceOnUse">
<stop stop-color="#05E0E0"/>
<stop offset="1" stop-color="#22BDBD"/>
</linearGradient>
<linearGradient id="paint3_linear_12138_9153" x1="85.1228" y1="31.1558" x2="61.5275" y2="47.3313" gradientUnits="userSpaceOnUse">
<stop stop-color="#FF9900"/>
<stop offset="1" stop-color="#FFC368"/>
</linearGradient>
<linearGradient id="paint4_linear_12138_9153" x1="157.316" y1="71.4595" x2="100.796" y2="100.828" gradientUnits="userSpaceOnUse">
<stop stop-color="#FF9900"/>
<stop offset="1" stop-color="#FFC368"/>
</linearGradient>
<linearGradient id="paint5_linear_12138_9153" x1="128.696" y1="14.2094" x2="115.149" y2="65.6289" gradientUnits="userSpaceOnUse">
<stop stop-color="#FF9900"/>
<stop offset="1" stop-color="#FFC368"/>
</linearGradient>
<linearGradient id="paint6_linear_12138_9153" x1="130.866" y1="38.0353" x2="98.6626" y2="12.8664" gradientUnits="userSpaceOnUse">
<stop stop-color="#05E0E0"/>
<stop offset="1" stop-color="#22BDBD"/>
</linearGradient>
<linearGradient id="paint7_linear_12138_9153" x1="62.7158" y1="125.98" x2="36.132" y2="87.7758" gradientUnits="userSpaceOnUse">
<stop stop-color="#05E0E0"/>
<stop offset="1" stop-color="#22BDBD"/>
</linearGradient>
<linearGradient id="paint8_linear_12138_9153" x1="108.416" y1="108.333" x2="31.9494" y2="76.5031" gradientUnits="userSpaceOnUse">
<stop offset="0.00147719" stop-color="#F2F4FF"/>
<stop offset="1" stop-color="#D2E0F5"/>
</linearGradient>
<linearGradient id="paint9_linear_12138_9153" x1="75.023" y1="119.294" x2="28.7002" y2="103.294" gradientUnits="userSpaceOnUse">
<stop offset="0.00147719" stop-color="#F2F4FF"/>
<stop offset="1" stop-color="#D2E0F5"/>
</linearGradient>
<radialGradient id="paint10_radial_12138_9153" cx="0" cy="0" r="1" gradientUnits="userSpaceOnUse" gradientTransform="translate(156.46 217.012) scale(19.5713 104.933)">
<stop offset="0.34078" stop-color="#D7DAEC"/>
<stop offset="1" stop-color="#D2E0F5" stop-opacity="0"/>
</radialGradient>
</defs>
</svg>
