<svg width="32" height="32" viewBox="0 0 32 32" fill="none" xmlns="http://www.w3.org/2000/svg">
<path d="M22.667 24C21.9203 24 21.3337 24.5867 21.3337 25.3333C21.3337 26.08 21.9203 26.6667 22.667 26.6667C23.4137 26.6667 24.0003 26.08 24.0003 25.3333C24.0003 24.5867 23.4137 24 22.667 24ZM30.667 25.3333C29.4137 28.4533 26.307 30.6667 22.667 30.6667C19.027 30.6667 15.9203 28.4533 14.667 25.3333C15.9203 22.2133 19.027 20 22.667 20C26.307 20 29.4137 22.2133 30.667 25.3333ZM26.0003 25.3333C26.0003 23.4933 24.507 22 22.667 22C20.827 22 19.3337 23.4933 19.3337 25.3333C19.3337 27.1733 20.827 28.6667 22.667 28.6667C24.507 28.6667 26.0003 27.1733 26.0003 25.3333Z" fill="#2FB8B8"/>
<path d="M9.33333 9.33333C9.33333 6.38667 11.72 4 14.6667 4C17.6133 4 20 6.38667 20 9.33333C20 12.28 17.6133 14.6667 14.6667 14.6667C11.72 14.6667 9.33333 12.28 9.33333 9.33333ZM13.52 25L13.1333 24L13.52 23C14.4533 20.6667 16.1067 18.8533 18.1467 17.6267C17.0533 17.44 15.8933 17.3333 14.6667 17.3333C8.77333 17.3333 4 19.72 4 22.6667V25.3333H13.6933C13.64 25.2133 13.5733 25.1067 13.52 25Z" fill="url(#paint0_linear_16622_8279)"/>
<defs>
<linearGradient id="paint0_linear_16622_8279" x1="3" y1="5.33333" x2="27.5691" y2="19.7153" gradientUnits="userSpaceOnUse">
<stop stop-color="#D3D8F0"/>
<stop offset="1" stop-color="#A7ACCA"/>
</linearGradient>
</defs>
</svg>
