<svg width="24" height="23" viewBox="0 0 24 23" fill="none" xmlns="http://www.w3.org/2000/svg">
<g id="Vector">
<path id="Vector_2" fill-rule="evenodd" clip-rule="evenodd" d="M16.4855 9.43056C18.099 9.26357 19.6432 9.65825 20.9216 10.4595C20.8315 4.85163 16.2575 0.333374 10.6282 0.333374C4.94251 0.333374 0.333374 4.94251 0.333374 10.6282C0.333374 16.3138 4.94251 20.923 10.6282 20.923C11.032 20.923 11.4303 20.8997 11.822 20.8545C10.9736 19.8326 10.4064 18.5579 10.2596 17.1355C10.2534 17.0675 10.2349 16.9996 10.2164 16.9378V15.8689C10.2373 15.7515 10.2561 15.6335 10.275 15.5153C10.3117 15.2847 10.3486 15.0533 10.4017 14.8246C11.044 11.9391 13.5393 9.73332 16.4855 9.43056ZM10.0973 5.27488H11.4154V10.7668H11.3741L11.3765 10.7699L8.54169 12.9181L7.74563 11.8676L10.0973 10.0855V5.27488Z" fill="url(#paint0_linear_15223_1517)"/>
<path id="Vector_3" d="M23.6074 15.6848C23.1338 12.3005 20.0807 9.89742 16.6932 10.2487C14.0301 10.5219 11.7848 12.5123 11.2054 15.1161C11.1385 15.4283 11.0939 15.7405 11.0382 16.0583V17.0173C11.0494 17.0786 11.0661 17.14 11.0772 17.1957C11.4505 20.8142 14.8379 23.3734 18.426 22.7489C21.7688 22.1746 24.0698 19.0301 23.6074 15.6848ZM19.9637 18.3053C19.8021 19.2698 19.05 19.9667 18.0917 20.0281C18.0638 20.0281 18.036 20.0337 17.9858 20.0392V21.2268H16.7322V20.0448C16.0358 20.0058 15.4787 19.7326 15.0831 19.175C14.8324 18.8182 14.7042 18.4223 14.7209 17.9707H15.9522C15.9689 18.0599 15.9801 18.1436 16.0079 18.2328C16.1027 18.5506 16.3645 18.7736 16.6932 18.7792C17.1334 18.7903 17.568 18.7903 18.0081 18.7792C18.426 18.768 18.738 18.4335 18.7324 18.0153C18.7324 17.6027 18.4148 17.2738 17.997 17.2626C17.5178 17.2515 17.0331 17.2794 16.5595 17.2403C15.4787 17.1511 14.7042 16.2646 14.7209 15.183C14.7377 14.1404 15.5567 13.2929 16.6152 13.2148C16.6431 13.2148 16.6709 13.2093 16.7155 13.2037V12.0161H17.9691V13.1925C18.6655 13.226 19.2282 13.5048 19.6238 14.0679C19.8634 14.4136 19.986 14.7983 19.9804 15.2443H18.777C18.7101 15.0826 18.6711 14.9098 18.582 14.7704C18.4538 14.5641 18.2477 14.4637 17.997 14.4582C17.5624 14.4582 17.1334 14.4526 16.7044 14.4582C16.3144 14.4637 16.0024 14.7704 15.9745 15.1495C15.9467 15.5621 16.2029 15.9301 16.6041 15.9747C16.9774 16.0137 17.3562 16.0026 17.7295 15.997C18.0805 15.997 18.426 16.0081 18.7547 16.1531C19.596 16.5211 20.1085 17.4243 19.9637 18.3053Z" fill="#59CACA"/>
</g>
<defs>
<linearGradient id="paint0_linear_15223_1517" x1="22.3878" y1="25.3566" x2="-17.0749" y2="-1.16234" gradientUnits="userSpaceOnUse">
<stop stop-color="#A7ACCA"/>
<stop offset="0.485517" stop-color="#D3D8F0"/>
</linearGradient>
</defs>
</svg>
