<svg width="20" height="19" viewBox="0 0 20 19" fill="none" xmlns="http://www.w3.org/2000/svg">
<g id="Vector">
<path id="Vector_2" d="M9.01203 6.33663C9.10291 6.42845 9.21085 6.5013 9.32967 6.551C9.44849 6.60071 9.57586 6.62629 9.7045 6.62629C9.83313 6.62629 9.9605 6.60071 10.0793 6.551C10.1981 6.5013 10.3061 6.42845 10.397 6.33663L15.2942 1.39694L13.9092 0L9.7045 4.24121L7.45864 1.97587C7.36776 1.88405 7.25982 1.8112 7.141 1.7615C7.02218 1.71179 6.89481 1.68621 6.76618 1.68621C6.63754 1.68621 6.51017 1.71179 6.39135 1.7615C6.27253 1.8112 6.16459 1.88405 6.07371 1.97587L1.17651 6.91556L2.56144 8.3125L6.76618 4.07129L9.01203 6.33663Z" fill="#59CACA"/>
<g id="Union">
<path d="M14.1176 4.75H18.8235V17.8125H20V19H0V17.8125H1.17647V14H5.88235V17.8125H7.64706V9.5H12.3529V17.8125H14.1176V4.75Z" fill="#D9D9D9"/>
<path d="M14.1176 4.75H18.8235V17.8125H20V19H0V17.8125H1.17647V14H5.88235V17.8125H7.64706V9.5H12.3529V17.8125H14.1176V4.75Z" fill="url(#paint0_linear_15223_5290)"/>
</g>
</g>
<defs>
<linearGradient id="paint0_linear_15223_5290" x1="21.4243" y1="22.5874" x2="-11.439" y2="-4.77575" gradientUnits="userSpaceOnUse">
<stop stop-color="#A7ACCA"/>
<stop offset="0.485517" stop-color="#D3D8F0"/>
</linearGradient>
</defs>
</svg>
