<svg width="24" height="24" viewBox="0 0 24 24" fill="none" xmlns="http://www.w3.org/2000/svg">
<path d="M16.18 19.6L14.17 16.12C15.15 15.4 15.83 14.28 15.97 13H20C19.83 15.76 18.35 18.16 16.18 19.6ZM7 12.5C7 13.14 7.13 13.75 7.38 14.3L3.9 16.31C3.32 15.16 3 13.87 3 12.5C3 7.97 6.54 4.27 11 4V8.03C8.75 8.28 7 10.18 7 12.5ZM11.5 21C8.53 21 5.92 19.5 4.4 17.18L7.88 15.17C8.7 16.28 10 17 11.5 17C12.14 17 12.75 16.87 13.3 16.62L15.31 20.1C14.16 20.68 12.87 21 11.5 21Z" fill="url(#paint0_linear_16409_104829)"/>
<path d="M13 3V7.03C15.09 7.26 16.74 8.91 16.97 11H21C20.74 6.7 17.3 3.26 13 3Z" fill="#2FB8B8"/>
<defs>
<linearGradient id="paint0_linear_16409_104829" x1="21.2106" y1="25.2797" x2="-13.7757" y2="4.52393" gradientUnits="userSpaceOnUse">
<stop stop-color="#A7ACCA"/>
<stop offset="0.485517" stop-color="#D3D8F0"/>
</linearGradient>
</defs>
</svg>
