<svg width="24" height="24" viewBox="0 0 24 24" fill="none" xmlns="http://www.w3.org/2000/svg">
<g id="Vector">
<path id="Vector_2" d="M0.333252 16.3145C0.3937 15.9779 0.436014 15.6352 0.514597 15.2985C1.14326 12.4911 3.58538 10.345 6.46877 10.0504C10.1501 9.67168 13.4626 12.2627 13.9704 15.9117C14.4782 19.5187 11.9756 22.9092 8.34871 23.5344C4.45583 24.2077 0.78057 21.4484 0.375566 17.5469C0.369521 17.4808 0.351386 17.4146 0.333252 17.3545C0.333252 17.0058 0.333252 16.6632 0.333252 16.3145ZM4.32285 18.3765C4.31076 18.8634 4.44374 19.2902 4.71576 19.675C5.14495 20.2762 5.74943 20.5707 6.50503 20.6128C6.50503 21.0517 6.50503 21.4725 6.50503 21.8933C6.97049 21.8933 7.39967 21.8933 7.86512 21.8933C7.86512 21.4544 7.86512 21.0336 7.86512 20.6128C7.91953 20.6068 7.94975 20.6068 7.97998 20.6008C9.01969 20.5286 9.84179 19.7832 10.011 18.7432C10.1682 17.7994 9.61208 16.8195 8.69327 16.4287C8.33662 16.2784 7.96184 16.2604 7.58102 16.2604C7.17601 16.2604 6.76496 16.2784 6.35996 16.2364C5.91868 16.1883 5.64062 15.7975 5.67689 15.3466C5.70712 14.9378 6.04563 14.6072 6.46877 14.6012C6.93422 14.5952 7.40572 14.5952 7.87117 14.6012C8.13714 14.6012 8.3608 14.7154 8.50588 14.9378C8.60259 15.0881 8.65095 15.2745 8.71745 15.4488C9.14058 15.4488 9.58186 15.4488 10.0231 15.4488C10.0352 14.9739 9.90224 14.5531 9.63626 14.1804C9.20708 13.5672 8.59655 13.2726 7.8349 13.2305C7.8349 12.7917 7.8349 12.3709 7.8349 11.9621C7.37549 11.9621 6.93422 11.9621 6.47481 11.9621C6.47481 12.4009 6.47481 12.8157 6.47481 13.2366C6.42645 13.2426 6.39623 13.2486 6.366 13.2486C5.22957 13.3267 4.34098 14.2405 4.32285 15.3647C4.30471 16.5369 5.1389 17.4868 6.31764 17.589C6.8375 17.631 7.35736 17.601 7.87721 17.613C8.33662 17.625 8.67513 17.9737 8.67513 18.4246C8.67513 18.8694 8.33662 19.2361 7.88326 19.2482C7.40572 19.2602 6.93422 19.2602 6.45668 19.2482C6.10003 19.2422 5.80988 19.0017 5.71316 18.659C5.68898 18.5689 5.67689 18.4727 5.65271 18.3765C5.21144 18.3765 4.77621 18.3765 4.32285 18.3765Z" fill="url(#paint0_linear_15223_610)"/>
<path id="Vector_3" d="M23.618 6.43143C23.2311 2.59602 19.6103 -0.181338 15.7718 0.413811C11.8185 1.03301 9.23126 4.85639 10.1501 8.73388C10.1803 8.86613 10.2408 8.95029 10.3737 9.01041C12.5076 9.89412 14.0127 11.403 14.9074 13.5191C14.9678 13.6694 15.0524 13.7355 15.2096 13.7716C16.0438 13.964 16.878 14.0061 17.7303 13.8918C20.3961 13.5492 22.675 11.6014 23.3943 9.02243C23.5152 8.57757 23.5757 8.11468 23.6663 7.6578V6.6238C23.6482 6.56369 23.6301 6.49756 23.618 6.43143ZM19.6465 8.96232C19.4712 10.0023 18.6552 10.7538 17.6155 10.8199C17.5852 10.8199 17.555 10.8259 17.5006 10.8319V12.1124H16.1405V10.8379C15.3849 10.7959 14.7804 10.5013 14.3512 9.90013C14.0792 9.51538 13.9402 9.08856 13.9583 8.60162H15.2942C15.3124 8.69781 15.3245 8.79399 15.3486 8.88417C15.4514 9.22683 15.7355 9.46128 16.0922 9.4733C16.5697 9.48533 17.0412 9.48533 17.5187 9.4733C17.9721 9.46128 18.3106 9.10058 18.3106 8.64971C18.3106 8.20485 17.9661 7.85017 17.5127 7.83815C16.9928 7.82612 16.4669 7.85618 15.9531 7.8141C14.7804 7.71791 13.9402 6.76207 13.9583 5.58981C13.9765 4.46563 14.8651 3.55187 16.0136 3.46771C16.0438 3.46771 16.074 3.4617 16.1224 3.45568V2.18122H17.4825V3.44967C18.2381 3.48574 18.8486 3.78632 19.2838 4.39951C19.5498 4.77223 19.6767 5.18703 19.6707 5.66796H18.365C18.2925 5.49362 18.2502 5.30726 18.1534 5.15697C18.0144 4.93454 17.7908 4.82032 17.5187 4.82032C17.0472 4.82032 16.5818 4.81431 16.1163 4.82032C15.6932 4.82633 15.3547 5.15697 15.3245 5.56576C15.2942 6.01062 15.5723 6.40738 16.0075 6.45548C16.4125 6.49756 16.8236 6.48553 17.2286 6.47952C17.6094 6.47952 17.9842 6.49155 18.3408 6.64785C19.2476 7.0386 19.8037 8.01248 19.6465 8.96232Z" fill="#59CACA"/>
<g id="Vector_4">
<path d="M5.72525 0.582153C6.39623 1.25545 7.06116 1.92274 7.73214 2.59604C7.88326 2.74633 8.04043 2.8846 8.16737 3.00483C7.32713 3.84044 6.49899 4.66404 5.69503 5.46959C5.42301 5.19907 5.10868 4.89248 4.77017 4.54981C5.02405 4.31536 5.30211 4.06889 5.61644 3.78033C4.63718 3.73224 3.32545 4.32137 2.55171 5.32531C1.79006 6.3052 1.61476 7.42937 1.71148 8.64973C1.23393 8.64973 0.786615 8.64973 0.333252 8.64973C0.333252 8.21689 0.333252 7.77805 0.333252 7.3392C0.345342 7.27307 0.369521 7.21296 0.375566 7.14683C0.647584 4.88045 2.3885 2.9868 4.63718 2.51789C4.93942 2.45777 5.24771 2.42171 5.6104 2.36159C5.30211 2.07303 5.03009 1.82054 4.74599 1.55603C5.07241 1.21337 5.38069 0.894757 5.68294 0.582153C5.70107 0.582153 5.71316 0.582153 5.72525 0.582153Z" fill="#59CACA"/>
<path d="M18.1534 23.6667C17.561 23.0716 16.9686 22.4704 16.3701 21.8753C16.1465 21.6528 15.9168 21.4364 15.7112 21.238C16.5515 20.4024 17.3736 19.5848 18.1836 18.7793C18.4556 19.0498 18.7699 19.3564 19.1084 19.6931C18.8546 19.9275 18.5765 20.174 18.2622 20.4625C19.3381 20.5046 20.6076 19.8554 21.3269 18.9236C22.0885 17.9437 22.2638 16.8195 22.1671 15.5992C22.6447 15.5992 23.092 15.5992 23.5454 15.5992C23.5454 16.032 23.5454 16.4708 23.5454 16.9037C23.5333 16.9638 23.5091 17.0179 23.503 17.078C23.225 19.3143 21.6231 21.1358 19.4288 21.6889C19.0661 21.7791 18.6974 21.8212 18.2561 21.8993C18.5644 22.1939 18.8425 22.4524 19.1145 22.7109C18.8002 23.0415 18.4979 23.3541 18.1957 23.6667C18.1775 23.6667 18.1654 23.6667 18.1534 23.6667Z" fill="#59CACA"/>
</g>
</g>
<defs>
<linearGradient id="paint0_linear_15223_610" x1="15.0116" y1="26.5691" x2="-11.1554" y2="8.8798" gradientUnits="userSpaceOnUse">
<stop stop-color="#A7ACCA"/>
<stop offset="0.485517" stop-color="#D3D8F0"/>
</linearGradient>
</defs>
</svg>
