<svg width="32" height="32" viewBox="0 0 32 32" fill="none" xmlns="http://www.w3.org/2000/svg">
<path d="M19.6364 18.4244C16.4001 18.4244 9.93945 20.0366 9.93945 23.2729V25.6972H29.3334V23.2729C29.3334 20.0366 22.8728 18.4244 19.6364 18.4244ZM19.6364 16.0002C20.9223 16.0002 22.1556 15.4894 23.0648 14.5801C23.9741 13.6708 24.4849 12.4376 24.4849 11.1517C24.4849 9.86581 23.9741 8.63258 23.0648 7.72331C22.1556 6.81404 20.9223 6.30322 19.6364 6.30322C18.3505 6.30322 17.1173 6.81404 16.208 7.72331C15.2988 8.63258 14.7879 9.86581 14.7879 11.1517C14.7879 12.4376 15.2988 13.6708 16.208 14.5801C17.1173 15.4894 18.3505 16.0002 19.6364 16.0002Z" fill="url(#paint0_linear_16399_172557)"/>
<path d="M10.4852 17.9154L7.51548 16.1094L4.48517 17.9154L5.30942 14.5094L2.66699 12.2306L6.14578 11.9275L7.51548 8.72754L8.86093 11.9275L12.364 12.2306L9.6973 14.5094L10.4852 17.9154Z" fill="#2FB8B8"/>
<defs>
<linearGradient id="paint0_linear_16399_172557" x1="8.72733" y1="7.51534" x2="33.5758" y2="26.9093" gradientUnits="userSpaceOnUse">
<stop stop-color="#D3D8F0"/>
<stop offset="1" stop-color="#A7ACCA"/>
</linearGradient>
</defs>
</svg>
