<svg width="24" height="19" viewBox="0 0 24 19" fill="none" xmlns="http://www.w3.org/2000/svg">
<g id="Vecotr">
<g id="Subtract">
<path d="M12.7626 8.97447C12.5308 9.20149 12.2168 9.31499 11.8207 9.31499H11.1397V6.2575H11.8207C12.2216 6.2575 12.5356 6.37101 12.7626 6.59803C12.9945 6.82505 13.1104 7.22112 13.1104 7.78625C13.1104 8.35138 12.9945 8.74745 12.7626 8.97447Z" fill="url(#paint0_linear_15223_655)"/>
<path d="M7.25731 6.66324L7.77897 8.30066H6.70668L7.21384 6.66324H7.25731Z" fill="url(#paint1_linear_15223_655)"/>
<path fill-rule="evenodd" clip-rule="evenodd" d="M0.333313 0.666626H19.3533V7.91714C19.138 7.89333 18.9191 7.88111 18.6975 7.88111C15.4375 7.88111 12.7947 10.5239 12.7947 13.7839C12.7947 14.7262 13.0155 15.617 13.4083 16.4073H0.333313V0.666626ZM12.0453 5.25766H10.0457V10.3293H12.0309C12.4801 10.3293 12.8761 10.2303 13.2191 10.0323C13.5668 9.83424 13.8373 9.54443 14.0305 9.16285C14.2237 8.78126 14.3203 8.3224 14.3203 7.78625C14.3203 7.25976 14.2237 6.80814 14.0305 6.43139C13.8422 6.04981 13.5765 5.76 13.2336 5.56196C12.8906 5.3591 12.4945 5.25766 12.0453 5.25766ZM6.43136 9.16285H8.05429L8.4238 10.3366H9.56855L7.77897 5.26491H6.72841L4.92435 10.3366H6.0691L6.43136 9.16285Z" fill="url(#paint2_linear_15223_655)"/>
</g>
<path id="Vector" d="M23.6204 13.1481C23.2495 10.4981 20.8589 8.61651 18.2064 8.89155C16.1211 9.10547 14.363 10.664 13.9093 12.7028C13.857 12.9473 13.8221 13.1918 13.7784 13.4406V14.1915C13.7872 14.2395 13.8003 14.2876 13.809 14.3312C14.1013 17.1646 16.7537 19.1684 19.5632 18.6795C22.1807 18.2298 23.9825 15.7675 23.6204 13.1481ZM20.7673 15.2C20.6407 15.9553 20.0518 16.501 19.3014 16.549C19.2796 16.549 19.2578 16.5534 19.2185 16.5577V17.4876H18.237V16.5621C17.6917 16.5315 17.2554 16.3176 16.9457 15.8811C16.7493 15.6016 16.649 15.2917 16.6621 14.9381H17.6262C17.6393 15.0079 17.648 15.0734 17.6698 15.1432C17.744 15.3921 17.949 15.5667 18.2064 15.5711C18.5511 15.5798 18.8914 15.5798 19.236 15.5711C19.5632 15.5624 19.8075 15.3004 19.8031 14.973C19.8031 14.6499 19.5545 14.3923 19.2273 14.3836C18.8521 14.3749 18.4726 14.3967 18.1017 14.3662C17.2554 14.2963 16.649 13.6022 16.6621 12.7552C16.6752 11.9388 17.3165 11.2752 18.1454 11.2141C18.1672 11.2141 18.189 11.2097 18.2239 11.2054V10.2755H19.2055V11.1966C19.7508 11.2228 20.1914 11.4411 20.5011 11.8821C20.6887 12.1527 20.7847 12.454 20.7803 12.8032H19.838C19.7857 12.6766 19.7551 12.5413 19.6853 12.4321C19.585 12.2706 19.4236 12.192 19.2273 12.1877C18.887 12.1877 18.5511 12.1833 18.2152 12.1877C17.9098 12.192 17.6655 12.4321 17.6437 12.729C17.6219 13.0521 17.8225 13.3402 18.1366 13.3751C18.4289 13.4057 18.7256 13.397 19.0179 13.3926C19.2927 13.3926 19.5632 13.4013 19.8206 13.5148C20.4793 13.803 20.8807 14.5102 20.7673 15.2Z" fill="#59CACA"/>
</g>
<defs>
<linearGradient id="paint0_linear_15223_655" x1="20.7078" y1="20.37" x2="-14.249" y2="-4.68873" gradientUnits="userSpaceOnUse">
<stop stop-color="#A7ACCA"/>
<stop offset="0.485517" stop-color="#D3D8F0"/>
</linearGradient>
<linearGradient id="paint1_linear_15223_655" x1="20.7078" y1="20.37" x2="-14.249" y2="-4.68873" gradientUnits="userSpaceOnUse">
<stop stop-color="#A7ACCA"/>
<stop offset="0.485517" stop-color="#D3D8F0"/>
</linearGradient>
<linearGradient id="paint2_linear_15223_655" x1="20.7078" y1="20.37" x2="-14.249" y2="-4.68873" gradientUnits="userSpaceOnUse">
<stop stop-color="#A7ACCA"/>
<stop offset="0.485517" stop-color="#D3D8F0"/>
</linearGradient>
</defs>
</svg>
