<svg width="24" height="24" viewBox="0 0 24 24" fill="none" xmlns="http://www.w3.org/2000/svg">
<path d="M22.6675 15.9217C22.2175 12.7057 19.3162 10.4222 16.0973 10.756C13.5667 11.0156 11.4331 12.907 10.8825 15.3812C10.8189 15.6779 10.7766 15.9746 10.7236 16.2766V17.1879C10.7342 17.2462 10.7501 17.3045 10.7607 17.3574C11.1154 20.7959 14.3343 23.2277 17.7438 22.6343C20.9204 22.0886 23.1069 19.1005 22.6675 15.9217ZM19.205 18.4118C19.0515 19.3283 18.3368 19.9906 17.4262 20.0489C17.3997 20.0489 17.3732 20.0542 17.3256 20.0595V21.188H16.1344V20.0648C15.4726 20.0277 14.9432 19.7681 14.5673 19.2383C14.329 18.8992 14.2073 18.523 14.2231 18.0939H15.3932C15.4091 18.1786 15.4196 18.2581 15.4461 18.3429C15.5361 18.6449 15.7849 18.8568 16.0973 18.8621C16.5156 18.8727 16.9285 18.8727 17.3468 18.8621C17.7438 18.8515 18.0403 18.5336 18.035 18.1363C18.035 17.7442 17.7332 17.4316 17.3362 17.421C16.8809 17.4104 16.4203 17.4369 15.9702 17.3998C14.9432 17.315 14.2073 16.4727 14.2231 15.4448C14.239 14.4541 15.0173 13.6488 16.0232 13.5746C16.0497 13.5746 16.0761 13.5693 16.1185 13.564V12.4355H17.3097V13.5534C17.9715 13.5852 18.5062 13.8501 18.8821 14.3852C19.1097 14.7137 19.2262 15.0793 19.2209 15.5031H18.0774C18.0138 15.3495 17.9768 15.1852 17.8921 15.0528C17.7703 14.8567 17.5744 14.7614 17.3362 14.7561C16.9232 14.7561 16.5156 14.7508 16.1079 14.7561C15.7373 14.7614 15.4408 15.0528 15.4143 15.413C15.3879 15.8051 15.6314 16.1548 16.0126 16.1972C16.3673 16.2342 16.7273 16.2236 17.082 16.2183C17.4156 16.2183 17.7438 16.2289 18.0562 16.3667C18.8556 16.7164 19.3427 17.5747 19.205 18.4118Z" fill="#59CACA"/>
<path fill-rule="evenodd" clip-rule="evenodd" d="M1 5C1 2.79 4.58 1 9 1C13.42 1 17 2.79 17 5C17 7.21 13.42 9 9 9C4.58 9 1 7.21 1 5ZM1 10V7C1 9.21 4.58 11 9 11C13.42 11 17 9.21 17 7V10C17 10.0733 16.9961 10.1461 16.9883 10.2184C16.897 10.2146 16.8052 10.2127 16.7129 10.2127C14.1338 10.2127 11.9055 11.7148 10.8552 13.892C10.2598 13.9626 9.63869 14 9 14C4.58 14 1 12.21 1 10ZM10.2571 15.951C9.84758 15.9832 9.42772 16 9 16C4.58 16 1 14.21 1 12V15C1 17.21 4.58 19 9 19C9.54708 19 10.0813 18.9726 10.5974 18.9203C10.3486 18.2311 10.2129 17.4877 10.2129 16.7127C10.2129 16.455 10.2279 16.2008 10.2571 15.951Z" fill="url(#paint0_linear_16569_7465)"/>
<defs>
<linearGradient id="paint0_linear_16569_7465" x1="18.1394" y1="22.876" x2="-14.6699" y2="3.27664" gradientUnits="userSpaceOnUse">
<stop stop-color="#A7ACCA"/>
<stop offset="0.485517" stop-color="#D3D8F0"/>
</linearGradient>
</defs>
</svg>
