<svg width="120" height="120" viewBox="0 0 120 120" fill="none" xmlns="http://www.w3.org/2000/svg">
<path d="M30.252 31.4658H95.2673C97.6436 31.4658 99.5701 33.3923 99.5701 35.7687V83.262C99.5701 85.6384 97.6436 87.5649 95.2673 87.5649H30.252C27.8757 87.5649 25.9492 85.6384 25.9492 83.262V35.7687C25.9492 33.3923 27.8757 31.4658 30.252 31.4658Z" fill="url(#paint0_linear_9247_410993)" stroke="#E1EDF8" stroke-width="5"/>
<rect opacity="0.99" x="34.4844" y="40" width="18.6207" height="22.7586" rx="1.74586" fill="white"/>
<rect opacity="0.99" x="55.8633" y="40" width="35.8621" height="5.51724" rx="1.74586" fill="white"/>
<rect opacity="0.99" x="55.8633" y="48.2764" width="35.8621" height="5.51724" rx="1.74586" fill="white"/>
<rect opacity="0.99" x="55.8633" y="56.5518" width="35.8621" height="6.2069" rx="1.74586" fill="white"/>
<rect opacity="0.99" x="34.4844" y="66.207" width="57.2414" height="13.1034" rx="1.74586" fill="white"/>
<path d="M84.1378 55.8625C89.8511 55.8625 94.4826 51.231 94.4826 45.5177C94.4826 39.8044 89.8511 35.1729 84.1378 35.1729C78.4245 35.1729 73.793 39.8044 73.793 45.5177C73.793 51.231 78.4245 55.8625 84.1378 55.8625Z" fill="url(#paint1_linear_9247_410993)"/>
<path d="M81.2467 47.3963H78.6558L78.0775 49.2701H76.25L79.1301 41.1737H80.8072L83.6641 49.2701H81.8366L81.2467 47.3963ZM80.8072 46.0199L79.9744 43.406H79.905L79.0954 46.0199H80.8072Z" fill="white"/>
<path d="M84.4258 41.1621H87.6181C88.3352 41.1621 88.9675 41.324 89.515 41.6479C90.0625 41.964 90.4866 42.4267 90.7873 43.0358C91.0958 43.6373 91.25 44.3583 91.25 45.1987C91.25 46.0546 91.0958 46.7872 90.7873 47.3963C90.4789 48.0055 90.0471 48.4681 89.4919 48.7843C88.9444 49.1004 88.3121 49.2585 87.595 49.2585H84.4258V41.1621ZM87.2596 47.6392C87.8919 47.6392 88.3931 47.458 88.7632 47.0956C89.1333 46.7332 89.3184 46.1009 89.3184 45.1987C89.3184 44.2966 89.1333 43.6643 88.7632 43.3019C88.4008 42.9395 87.8996 42.7583 87.2596 42.7583H86.1723V47.6392H87.2596Z" fill="white"/>
<path d="M39.7366 87.072C42.0701 90.1013 44.579 93.3626 47.0897 96.6205C47.6885 97.4022 48.3242 98.1612 48.8784 98.9884C49.9949 100.641 49.4759 102.654 47.6895 103.539C46.3798 104.186 45.0347 104.775 43.6775 105.323C41.9013 106.038 39.925 105.459 38.6805 103.866C35.6598 99.9779 32.6556 96.0742 29.6681 92.1548C29.2696 91.6295 28.9605 91.4089 28.2412 91.6066C26.6752 92.0434 25.4704 91.39 24.7725 89.8962C24.6218 89.5723 24.481 89.2425 24.3131 88.8714C23.9816 88.9719 23.7521 89.0618 23.5217 89.1491C21.3528 89.9461 19.9237 89.352 18.9898 87.2721C18.0317 85.1413 17.0657 83.0129 16.1124 80.869C15.1283 78.6618 15.6864 77.1045 17.8408 75.9801C17.9976 75.9006 18.1486 75.8112 18.4205 75.6589C18.2021 75.1693 17.9896 74.7186 17.7996 74.2553C17.1811 72.7346 17.6967 71.1233 19.1919 70.4431C23.0208 68.7007 26.8733 66.9976 30.7407 65.3337C31.2764 65.0937 31.8816 65.0584 32.4411 65.2345C33.3462 65.6208 33.9173 65.2905 34.5752 64.7652C39.5558 60.8433 43.6813 56.2085 46.5086 50.5064C47.052 49.3081 47.5265 48.08 47.9298 46.8281C48.2438 45.9384 48.7597 45.2525 49.7546 45.1459C50.7495 45.0393 51.3868 45.6494 51.8388 46.4669C52.0144 46.7861 52.1576 47.1239 52.3054 47.4575C55.3911 54.3522 58.4741 61.2507 61.5544 68.153C63.7199 73.0258 65.8561 77.9074 68.0002 82.7867C68.158 83.1152 68.2826 83.4586 68.3722 83.8118C68.753 85.521 67.4554 86.7087 65.7884 86.1867C65.14 85.9729 64.5249 85.6093 63.8727 85.3734C56.7933 82.8134 49.5563 82.7282 42.2384 84.0993C42.0338 84.1318 41.8462 84.2328 41.7065 84.3856C41.0653 85.226 40.4562 86.0857 39.7366 87.072Z" fill="url(#paint2_linear_9247_410993)"/>
<path d="M71.8304 58.7739C72.2995 59.5443 72.7261 60.3439 73.0134 61.1989C74.0984 64.428 74.5173 67.7026 74.0304 71.1154C73.9969 71.3322 73.9695 71.55 73.9344 71.7615C73.7111 72.8447 73.0156 73.4193 72.1434 73.2471C71.2712 73.075 70.8854 72.38 71.0325 71.3052C71.3329 69.0899 71.384 66.8802 70.8631 64.6897C69.7693 60.1177 67.441 56.3739 63.5012 53.7063L63.3183 53.5842C62.2984 52.8865 62.0077 52.0812 62.5036 51.3198C62.9995 50.5584 64.0146 50.3933 64.9822 51.1884C66.5425 52.4848 68.1469 53.7825 69.4727 55.3071C70.3841 56.3542 71.098 57.5711 71.8304 58.7739Z" fill="url(#paint3_linear_9247_410993)"/>
<path d="M66.8527 62.5166C67.841 64.7978 68.1971 67.3028 67.8837 69.7702C67.745 70.9588 67.0663 71.5603 66.1435 71.4617C65.2206 71.3631 64.7676 70.6099 64.9069 69.4036C65.3989 65.1533 63.9111 61.7755 60.4437 59.2704C59.4942 58.5833 59.2495 57.8048 59.7468 57.0575C60.244 56.3102 61.1547 56.2146 62.152 56.8669C64.2133 58.2792 65.8405 60.235 66.8527 62.5166Z" fill="url(#paint4_linear_9247_410993)"/>
<path d="M17.9465 75.3616C17.057 73.3395 17.9752 70.9791 19.9974 70.0896L30.1477 65.6247C32.1987 64.7225 34.5906 65.6808 35.4514 67.7496L41.4575 82.1854C42.0428 83.5921 41.7781 85.2093 40.7748 86.3559L40.6004 86.5552C40.205 87.0071 39.713 87.3641 39.1609 87.5999L29.4723 91.737C27.4561 92.5979 25.1227 91.6756 24.24 89.6689L17.9465 75.3616Z" fill="url(#paint5_linear_9247_410993)"/>
<path d="M80 88.4998C80 79.3876 87.3872 71.9997 96.5005 71.9997C100.582 71.9997 104.318 73.4821 107.199 75.9391C110.749 78.9654 113 83.4694 113 88.4998C113 97.612 105.613 104.999 96.5005 104.999C94.2303 104.999 92.067 104.541 90.0982 103.711C84.1646 101.211 80 95.3419 80 88.4998Z" fill="#05E0AC" stroke="white" stroke-width="2.30526"/>
<path d="M93.5815 91.1412C94.4975 90.2175 95.3732 89.3317 96.2514 88.452C98.3097 86.3898 100.366 84.3296 102.421 82.2714C103.378 81.315 104.833 81.4382 105.536 82.5196C106.06 83.3235 105.951 84.3075 105.23 85.0339C103.24 87.038 101.248 89.0382 99.253 91.0343C97.866 92.425 96.4788 93.8152 95.0913 95.2047C94.1615 96.1344 93.0341 96.1405 92.1 95.2116C90.7858 93.9088 89.4785 92.5997 88.1781 91.2842C87.6015 90.7035 87.4245 90.0047 87.6814 89.2283C87.9383 88.452 88.4986 88.0263 89.2849 87.9057C89.9345 87.8058 90.4974 88.0315 90.9597 88.4951C91.8182 89.3576 92.674 90.2235 93.5815 91.1412Z" fill="white"/>
<defs>
<linearGradient id="paint0_linear_9247_410993" x1="23.4492" y1="37.6943" x2="76.0735" y2="109.198" gradientUnits="userSpaceOnUse">
<stop stop-color="white"/>
<stop offset="1" stop-color="#E2F1FA"/>
</linearGradient>
<linearGradient id="paint1_linear_9247_410993" x1="71.9557" y1="57.0255" x2="98.5472" y2="48.8676" gradientUnits="userSpaceOnUse">
<stop stop-color="#05E0E0"/>
<stop offset="1" stop-color="#02C8C8"/>
</linearGradient>
<linearGradient id="paint2_linear_9247_410993" x1="21.9019" y1="115.222" x2="78.5766" y2="79.8342" gradientUnits="userSpaceOnUse">
<stop stop-color="#05E0E0"/>
<stop offset="1" stop-color="#02E2E2"/>
</linearGradient>
<linearGradient id="paint3_linear_9247_410993" x1="68.7236" y1="75.8926" x2="78.6812" y2="71.7862" gradientUnits="userSpaceOnUse">
<stop stop-color="#05E0E0"/>
<stop offset="1" stop-color="#02C8C8"/>
</linearGradient>
<linearGradient id="paint4_linear_9247_410993" x1="63.5984" y1="73.3178" x2="71.077" y2="70.1141" gradientUnits="userSpaceOnUse">
<stop stop-color="#05E0E0"/>
<stop offset="1" stop-color="#02C8C8"/>
</linearGradient>
<linearGradient id="paint5_linear_9247_410993" x1="34.1377" y1="91.0348" x2="22.4135" y2="67.5865" gradientUnits="userSpaceOnUse">
<stop stop-color="#00BBBB"/>
<stop offset="1" stop-color="#00D5D4"/>
</linearGradient>
</defs>
</svg>
