<svg width="120" height="120" viewBox="0 0 120 120" fill="none" xmlns="http://www.w3.org/2000/svg">
<g id="Advertisement">
<g id="Group 1000002342">
<g id="Group 1000002337">
<path id="Vector" d="M30.252 31.4648H95.2673C97.6436 31.4648 99.5701 33.3913 99.5701 35.7677V83.2611C99.5701 85.6375 97.6436 87.5639 95.2673 87.5639H30.252C27.8757 87.5639 25.9492 85.6375 25.9492 83.2611V35.7677C25.9492 33.3913 27.8757 31.4648 30.252 31.4648Z" fill="url(#paint0_linear_9247_531047)" stroke="#E1EDF8" stroke-width="5"/>
<rect id="Rectangle 6234" opacity="0.99" x="34.4844" y="40" width="18.6207" height="22.7586" rx="1.74586" fill="white"/>
<rect id="Rectangle 6235" opacity="0.99" x="55.8633" y="40" width="35.8621" height="5.51724" rx="1.74586" fill="white"/>
<rect id="Rectangle 6236" opacity="0.99" x="55.8633" y="48.2754" width="35.8621" height="5.51724" rx="1.74586" fill="white"/>
<rect id="Rectangle 6237" opacity="0.99" x="55.8633" y="56.5508" width="35.8621" height="6.2069" rx="1.74586" fill="white"/>
<rect id="Rectangle 6238" opacity="0.99" x="34.4844" y="66.207" width="57.2414" height="13.1034" rx="1.74586" fill="white"/>
</g>
<g id="Group 1000002258">
<path id="Vector_2" d="M84.1378 55.8615C89.8511 55.8615 94.4826 51.23 94.4826 45.5167C94.4826 39.8034 89.8511 35.1719 84.1378 35.1719C78.4245 35.1719 73.793 39.8034 73.793 45.5167C73.793 51.23 78.4245 55.8615 84.1378 55.8615Z" fill="url(#paint1_linear_9247_531047)"/>
<g id="AD">
<path d="M81.2467 47.3963H78.6558L78.0775 49.2701H76.25L79.1301 41.1737H80.8072L83.6641 49.2701H81.8366L81.2467 47.3963ZM80.8072 46.0199L79.9744 43.406H79.905L79.0954 46.0199H80.8072Z" fill="white"/>
<path d="M84.4258 41.1621H87.6181C88.3352 41.1621 88.9675 41.324 89.515 41.6479C90.0625 41.964 90.4866 42.4267 90.7873 43.0358C91.0958 43.6373 91.25 44.3583 91.25 45.1987C91.25 46.0546 91.0958 46.7872 90.7873 47.3963C90.4789 48.0055 90.0471 48.4681 89.4919 48.7843C88.9444 49.1004 88.3121 49.2585 87.595 49.2585H84.4258V41.1621ZM87.2596 47.6392C87.8919 47.6392 88.3931 47.458 88.7632 47.0956C89.1333 46.7332 89.3184 46.1009 89.3184 45.1987C89.3184 44.2966 89.1333 43.6643 88.7632 43.3019C88.4008 42.9395 87.8996 42.7583 87.2596 42.7583H86.1723V47.6392H87.2596Z" fill="white"/>
</g>
</g>
<g id="Group 1000002256">
<path id="Vector_3" d="M39.7366 87.0711C42.0701 90.1004 44.579 93.3617 47.0897 96.6195C47.6885 97.4013 48.3242 98.1602 48.8784 98.9875C49.9949 100.64 49.4759 102.653 47.6895 103.538C46.3798 104.185 45.0347 104.774 43.6775 105.322C41.9013 106.038 39.925 105.458 38.6805 103.865C35.6598 99.977 32.6556 96.0732 29.6681 92.1538C29.2696 91.6286 28.9605 91.408 28.2412 91.6056C26.6752 92.0424 25.4704 91.389 24.7725 89.8952C24.6218 89.5713 24.481 89.2415 24.3131 88.8705C23.9816 88.9709 23.7521 89.0609 23.5217 89.1481C21.3528 89.9452 19.9237 89.351 18.9898 87.2711C18.0317 85.1403 17.0657 83.012 16.1124 80.8681C15.1283 78.6608 15.6864 77.1035 17.8408 75.9791C17.9976 75.8996 18.1486 75.8102 18.4205 75.6579C18.2021 75.1683 17.9896 74.7176 17.7996 74.2543C17.1811 72.7336 17.6967 71.1223 19.1919 70.4422C23.0208 68.6997 26.8733 66.9966 30.7407 65.3327C31.2764 65.0927 31.8816 65.0574 32.4411 65.2335C33.3462 65.6198 33.9173 65.2895 34.5752 64.7642C39.5558 60.8423 43.6813 56.2075 46.5086 50.5054C47.052 49.3072 47.5265 48.0791 47.9298 46.8271C48.2438 45.9375 48.7597 45.2515 49.7546 45.1449C50.7495 45.0383 51.3868 45.6484 51.8388 46.4659C52.0144 46.7852 52.1576 47.123 52.3054 47.4565C55.3911 54.3513 58.4741 61.2498 61.5544 68.152C63.7199 73.0248 65.8561 77.9065 68.0002 82.7857C68.158 83.1142 68.2826 83.4576 68.3722 83.8108C68.753 85.52 67.4554 86.7077 65.7884 86.1857C65.14 85.9719 64.5249 85.6083 63.8727 85.3724C56.7933 82.8124 49.5563 82.7272 42.2384 84.0983C42.0338 84.1308 41.8462 84.2318 41.7065 84.3846C41.0653 85.225 40.4562 86.0847 39.7366 87.0711Z" fill="url(#paint2_linear_9247_531047)"/>
<path id="Vector_4" d="M71.8304 58.772C72.2995 59.5424 72.7261 60.342 73.0134 61.197C74.0984 64.4261 74.5173 67.7007 74.0304 71.1135C73.9969 71.3302 73.9695 71.5481 73.9344 71.7595C73.7111 72.8428 73.0156 73.4173 72.1434 73.2452C71.2712 73.073 70.8854 72.378 71.0325 71.3033C71.3329 69.0879 71.384 66.8782 70.8631 64.6877C69.7693 60.1158 67.441 56.3719 63.5012 53.7044L63.3183 53.5823C62.2984 52.8845 62.0077 52.0792 62.5036 51.3178C62.9995 50.5564 64.0146 50.3914 64.9822 51.1865C66.5425 52.4829 68.1469 53.7805 69.4727 55.3051C70.3841 56.3522 71.098 57.5692 71.8304 58.772Z" fill="url(#paint3_linear_9247_531047)"/>
<path id="Vector_5" d="M66.8546 62.5156C67.843 64.7968 68.1991 67.3018 67.8857 69.7692C67.7469 70.9579 67.0683 71.5593 66.1454 71.4607C65.2225 71.3621 64.7695 70.6089 64.9088 69.4027C65.4008 65.1523 63.9131 61.7746 60.4456 59.2694C59.4961 58.5823 59.2514 57.8038 59.7487 57.0565C60.246 56.3093 61.1567 56.2137 62.154 56.8659C64.2152 58.2782 65.8425 60.234 66.8546 62.5156Z" fill="url(#paint4_linear_9247_531047)"/>
</g>
<path id="Rectangle 6239" d="M17.9465 75.3606C17.057 73.3385 17.9752 70.9781 19.9974 70.0886L30.1477 65.6237C32.1987 64.7215 34.5906 65.6799 35.4514 67.7486L41.4575 82.1844C42.0428 83.5912 41.7781 85.2083 40.7748 86.355L40.6004 86.5543C40.205 87.0061 39.713 87.3631 39.1609 87.5989L29.4723 91.736C27.4561 92.5969 25.1227 91.6746 24.24 89.668L17.9465 75.3606Z" fill="url(#paint5_linear_9247_531047)"/>
</g>
</g>
<defs>
<linearGradient id="paint0_linear_9247_531047" x1="23.4492" y1="37.6933" x2="76.0735" y2="109.197" gradientUnits="userSpaceOnUse">
<stop stop-color="white"/>
<stop offset="1" stop-color="#E2F1FA"/>
</linearGradient>
<linearGradient id="paint1_linear_9247_531047" x1="71.9557" y1="57.0246" x2="98.5472" y2="48.8666" gradientUnits="userSpaceOnUse">
<stop stop-color="#05E0E0"/>
<stop offset="1" stop-color="#02C8C8"/>
</linearGradient>
<linearGradient id="paint2_linear_9247_531047" x1="21.9019" y1="115.221" x2="78.5766" y2="79.8332" gradientUnits="userSpaceOnUse">
<stop stop-color="#05E0E0"/>
<stop offset="1" stop-color="#02E2E2"/>
</linearGradient>
<linearGradient id="paint3_linear_9247_531047" x1="68.7236" y1="75.8906" x2="78.6812" y2="71.7843" gradientUnits="userSpaceOnUse">
<stop stop-color="#05E0E0"/>
<stop offset="1" stop-color="#02C8C8"/>
</linearGradient>
<linearGradient id="paint4_linear_9247_531047" x1="63.6004" y1="73.3169" x2="71.0789" y2="70.1132" gradientUnits="userSpaceOnUse">
<stop stop-color="#05E0E0"/>
<stop offset="1" stop-color="#02C8C8"/>
</linearGradient>
<linearGradient id="paint5_linear_9247_531047" x1="34.1377" y1="91.0338" x2="22.4135" y2="67.5855" gradientUnits="userSpaceOnUse">
<stop stop-color="#00BBBB"/>
<stop offset="1" stop-color="#00D5D4"/>
</linearGradient>
</defs>
</svg>
