<svg width="120" height="121" viewBox="0 0 120 121" fill="none" xmlns="http://www.w3.org/2000/svg">
<path d="M30.252 31.7988H95.2673C97.6436 31.7988 99.5701 33.7253 99.5701 36.1017V83.595C99.5701 85.9714 97.6436 87.8979 95.2673 87.8979H30.252C27.8757 87.8979 25.9492 85.9714 25.9492 83.595V36.1017C25.9492 33.7253 27.8757 31.7988 30.252 31.7988Z" fill="url(#paint0_linear_9251_738106)" stroke="#E1EDF8" stroke-width="5"/>
<rect opacity="0.99" x="34.4844" y="40.333" width="18.6207" height="22.7586" rx="1.74586" fill="white"/>
<rect opacity="0.99" x="55.8633" y="40.333" width="35.8621" height="5.51724" rx="1.74586" fill="white"/>
<rect opacity="0.99" x="55.8633" y="48.6094" width="35.8621" height="5.51724" rx="1.74586" fill="white"/>
<rect opacity="0.99" x="55.8633" y="56.8848" width="35.8621" height="6.2069" rx="1.74586" fill="white"/>
<rect opacity="0.99" x="34.4844" y="66.54" width="57.2414" height="13.1034" rx="1.74586" fill="white"/>
<path d="M84.1378 56.1955C89.8511 56.1955 94.4826 51.564 94.4826 45.8507C94.4826 40.1374 89.8511 35.5059 84.1378 35.5059C78.4245 35.5059 73.793 40.1374 73.793 45.8507C73.793 51.564 78.4245 56.1955 84.1378 56.1955Z" fill="url(#paint1_linear_9251_738106)"/>
<path d="M81.2467 47.7293H78.6558L78.0775 49.6031H76.25L79.1301 41.5067H80.8072L83.6641 49.6031H81.8366L81.2467 47.7293ZM80.8072 46.353L79.9744 43.739H79.905L79.0954 46.353H80.8072Z" fill="white"/>
<path d="M84.4258 41.4951H87.6181C88.3352 41.4951 88.9675 41.657 89.515 41.9809C90.0625 42.297 90.4866 42.7597 90.7873 43.3689C91.0958 43.9703 91.25 44.6913 91.25 45.5317C91.25 46.3876 91.0958 47.1202 90.7873 47.7293C90.4789 48.3385 90.0471 48.8011 89.4919 49.1173C88.9444 49.4334 88.3121 49.5915 87.595 49.5915H84.4258V41.4951ZM87.2596 47.9722C87.8919 47.9722 88.3931 47.791 88.7632 47.4286C89.1333 47.0662 89.3184 46.4339 89.3184 45.5317C89.3184 44.6296 89.1333 43.9973 88.7632 43.6349C88.4008 43.2725 87.8996 43.0913 87.2596 43.0913H86.1723V47.9722H87.2596Z" fill="white"/>
<path d="M39.7366 87.4051C42.0701 90.4343 44.579 93.6956 47.0897 96.9535C47.6885 97.7352 48.3242 98.4942 48.8784 99.3214C49.9949 100.974 49.4759 102.987 47.6895 103.872C46.3798 104.519 45.0347 105.108 43.6775 105.656C41.9013 106.371 39.925 105.792 38.6805 104.199C35.6598 100.311 32.6556 96.4072 29.6681 92.4878C29.2696 91.9626 28.9605 91.7419 28.2412 91.9396C26.6752 92.3764 25.4704 91.723 24.7725 90.2292C24.6218 89.9053 24.481 89.5755 24.3131 89.2044C23.9816 89.3049 23.7521 89.3948 23.5217 89.4821C21.3528 90.2792 19.9237 89.685 18.9898 87.6051C18.0317 85.4743 17.0657 83.3459 16.1124 81.202C15.1283 78.9948 15.6864 77.4375 17.8408 76.3131C17.9976 76.2336 18.1486 76.1442 18.4205 75.9919C18.2021 75.5023 17.9896 75.0516 17.7996 74.5883C17.1811 73.0676 17.6967 71.4563 19.1919 70.7761C23.0208 69.0337 26.8733 67.3306 30.7407 65.6667C31.2764 65.4267 31.8816 65.3914 32.4411 65.5675C33.3462 65.9538 33.9173 65.6235 34.5752 65.0982C39.5558 61.1763 43.6813 56.5415 46.5086 50.8394C47.052 49.6411 47.5265 48.413 47.9298 47.1611C48.2438 46.2714 48.7597 45.5855 49.7546 45.4789C50.7495 45.3723 51.3868 45.9824 51.8388 46.7999C52.0144 47.1192 52.1576 47.457 52.3054 47.7905C55.3911 54.6852 58.4741 61.5837 61.5544 68.486C63.7199 73.3588 65.8561 78.2405 68.0002 83.1197C68.158 83.4482 68.2826 83.7916 68.3722 84.1448C68.753 85.854 67.4554 87.0417 65.7884 86.5197C65.14 86.3059 64.5249 85.9423 63.8727 85.7064C56.7933 83.1464 49.5563 83.0612 42.2384 84.4323C42.0338 84.4648 41.8462 84.5658 41.7065 84.7186C41.0653 85.559 40.4562 86.4187 39.7366 87.4051Z" fill="url(#paint2_linear_9251_738106)"/>
<path d="M71.8304 59.1069C72.2995 59.8773 72.7261 60.6769 73.0134 61.532C74.0984 64.761 74.5173 68.0356 74.0304 71.4484C73.9969 71.6652 73.9695 71.883 73.9344 72.0945C73.7111 73.1777 73.0156 73.7523 72.1434 73.5801C71.2712 73.408 70.8854 72.713 71.0325 71.6382C71.3329 69.4229 71.384 67.2132 70.8631 65.0227C69.7693 60.4507 67.441 56.7069 63.5012 54.0393L63.3183 53.9173C62.2984 53.2195 62.0077 52.4142 62.5036 51.6528C62.9995 50.8914 64.0146 50.7263 64.9822 51.5214C66.5425 52.8179 68.1469 54.1155 69.4727 55.6401C70.3841 56.6872 71.098 57.9041 71.8304 59.1069Z" fill="url(#paint3_linear_9251_738106)"/>
<path d="M66.8527 62.8496C67.841 65.1308 68.1971 67.6358 67.8837 70.1032C67.745 71.2918 67.0663 71.8933 66.1435 71.7947C65.2206 71.6961 64.7676 70.9429 64.9069 69.7367C65.3989 65.4863 63.9111 62.1085 60.4437 59.6034C59.4942 58.9163 59.2495 58.1378 59.7468 57.3905C60.244 56.6432 61.1547 56.5477 62.152 57.1999C64.2133 58.6122 65.8405 60.568 66.8527 62.8496Z" fill="url(#paint4_linear_9251_738106)"/>
<path d="M17.9465 75.6946C17.057 73.6725 17.9752 71.3121 19.9974 70.4226L30.1477 65.9577C32.1987 65.0555 34.5906 66.0138 35.4514 68.0826L41.4575 82.5184C42.0428 83.9251 41.7781 85.5423 40.7748 86.689L40.6004 86.8882C40.205 87.3401 39.713 87.6971 39.1609 87.9329L29.4723 92.07C27.4561 92.9309 25.1227 92.0086 24.24 90.0019L17.9465 75.6946Z" fill="url(#paint5_linear_9251_738106)"/>
<path d="M96.5005 70.833C86.5587 70.833 78.5 78.8927 78.5 88.8335C78.5 96.3 83.0458 102.701 89.5158 105.427C91.6656 106.333 94.0267 106.833 96.5005 106.833C106.441 106.833 114.5 98.7743 114.5 88.8335C114.5 83.3453 112.043 78.4302 108.173 75.1311C105.03 72.4513 100.952 70.833 96.5005 70.833Z" fill="url(#paint6_linear_9251_738106)" stroke="white" stroke-width="3"/>
<path d="M96.1181 98.333H96.8819C99.51 98.333 100.824 98.333 101.678 97.472C102.533 96.6109 102.62 95.1985 102.795 92.3737L103.047 88.3033C103.142 86.7706 103.189 86.0043 102.761 85.5186C102.332 85.033 101.608 85.033 100.161 85.033H92.8394C91.3918 85.033 90.6679 85.033 90.2393 85.5186C89.8107 86.0043 89.8581 86.7706 89.953 88.3033L90.2049 92.3737C90.3797 95.1985 90.4671 96.6109 91.3215 97.472C92.1759 98.333 93.4899 98.333 96.1181 98.333Z" fill="white"/>
<path d="M88 83.2913C88 82.8541 88.3262 82.4997 88.7286 82.4997L91.2448 82.4993C91.7447 82.4855 92.1858 82.1401 92.3559 81.6291C92.3604 81.6156 92.3655 81.5991 92.384 81.5389L92.4924 81.1854C92.5587 80.9687 92.6165 80.7799 92.6974 80.6111C93.017 79.9443 93.6082 79.4813 94.2914 79.3628C94.4643 79.3328 94.6475 79.3329 94.8577 79.333H98.1425C98.3527 79.3329 98.5358 79.3328 98.7088 79.3628C99.392 79.4813 99.9832 79.9443 100.303 80.6111C100.384 80.7799 100.441 80.9687 100.508 81.1854L100.616 81.5389C100.635 81.5991 100.64 81.6156 100.644 81.6291C100.814 82.1401 101.343 82.4859 101.843 82.4997H104.271C104.674 82.4997 105 82.8541 105 83.2913C105 83.7286 104.674 84.083 104.271 84.083H88.7286C88.3262 84.083 88 83.7286 88 83.2913Z" fill="white"/>
<defs>
<linearGradient id="paint0_linear_9251_738106" x1="23.4492" y1="38.0273" x2="76.0735" y2="109.531" gradientUnits="userSpaceOnUse">
<stop stop-color="white"/>
<stop offset="1" stop-color="#E2F1FA"/>
</linearGradient>
<linearGradient id="paint1_linear_9251_738106" x1="71.9557" y1="57.3585" x2="98.5472" y2="49.2006" gradientUnits="userSpaceOnUse">
<stop stop-color="#05E0E0"/>
<stop offset="1" stop-color="#02C8C8"/>
</linearGradient>
<linearGradient id="paint2_linear_9251_738106" x1="21.9019" y1="115.555" x2="78.5766" y2="80.1672" gradientUnits="userSpaceOnUse">
<stop stop-color="#05E0E0"/>
<stop offset="1" stop-color="#02E2E2"/>
</linearGradient>
<linearGradient id="paint3_linear_9251_738106" x1="68.7236" y1="76.2256" x2="78.6812" y2="72.1192" gradientUnits="userSpaceOnUse">
<stop stop-color="#05E0E0"/>
<stop offset="1" stop-color="#02C8C8"/>
</linearGradient>
<linearGradient id="paint4_linear_9251_738106" x1="63.5984" y1="73.6508" x2="71.077" y2="70.4472" gradientUnits="userSpaceOnUse">
<stop stop-color="#05E0E0"/>
<stop offset="1" stop-color="#02C8C8"/>
</linearGradient>
<linearGradient id="paint5_linear_9251_738106" x1="34.1377" y1="91.3678" x2="22.4135" y2="67.9195" gradientUnits="userSpaceOnUse">
<stop stop-color="#00BBBB"/>
<stop offset="1" stop-color="#00D5D4"/>
</linearGradient>
<linearGradient id="paint6_linear_9251_738106" x1="98.0498" y1="110.459" x2="85.9756" y2="68.5832" gradientUnits="userSpaceOnUse">
<stop stop-color="#FFB74B"/>
<stop offset="1" stop-color="#FCCA80"/>
</linearGradient>
</defs>
</svg>
