<svg width="127" height="120" viewBox="0 0 127 120" fill="none" xmlns="http://www.w3.org/2000/svg">
<path d="M20.9742 15.7853H97.628C101.624 15.7853 104.863 19.0243 104.863 23.0199V79.0153C104.863 83.0109 101.624 86.2499 97.628 86.2499H20.9742C16.9787 86.2499 13.7396 83.0109 13.7396 79.0153V23.0199C13.7396 19.0243 16.9787 15.7853 20.9742 15.7853Z" fill="url(#paint0_linear_14308_11158)" stroke="#E1EDF8" stroke-width="1.57202"/>
<rect opacity="0.99" x="25.9639" y="28.0106" width="21.954" height="26.8327" rx="0.548905" fill="white"/>
<rect opacity="0.99" x="51.1704" y="28.0106" width="42.2819" height="6.50491" rx="0.548905" fill="white"/>
<rect opacity="0.99" x="51.1704" y="37.7646" width="42.2819" height="6.50491" rx="0.548905" fill="white"/>
<rect opacity="0.99" x="51.1704" y="47.5242" width="42.2819" height="7.31802" rx="0.548905" fill="white"/>
<rect opacity="0.99" x="25.9639" y="58.9078" width="67.4883" height="15.4492" rx="0.548905" fill="white"/>
<path d="M32.1565 83.5082C34.9077 87.0798 37.8657 90.9249 40.8259 94.7659C41.5319 95.6876 42.2813 96.5824 42.9348 97.5578C44.2511 99.5056 43.6392 101.88 41.5331 102.923C39.989 103.686 38.403 104.38 36.8029 105.026C34.7086 105.87 32.3786 105.187 30.9114 103.308C27.3498 98.7244 23.8079 94.1219 20.2856 89.5008C19.8158 88.8815 19.4514 88.6214 18.6033 88.8544C16.7569 89.3694 15.3364 88.5991 14.5136 86.8379C14.3359 86.456 14.1699 86.0672 13.9719 85.6297C13.5812 85.7481 13.3105 85.8542 13.0389 85.9571C10.4817 86.8968 8.79679 86.1963 7.69573 83.744C6.56618 81.2318 5.42716 78.7224 4.30325 76.1947C3.14292 73.5923 3.80103 71.7563 6.34107 70.4306C6.52597 70.3369 6.70391 70.2315 7.02454 70.0519C6.76701 69.4747 6.51651 68.9433 6.29246 68.3971C5.56325 66.6041 6.1711 64.7044 7.93399 63.9025C12.4483 61.8481 16.9905 59.8401 21.5502 57.8784C22.1818 57.5954 22.8954 57.5538 23.555 57.7614C24.6221 58.2168 25.2954 57.8275 26.0711 57.2081C31.9433 52.5841 36.8074 47.1196 40.1408 40.3968C40.7815 38.984 41.3409 37.536 41.8163 36.0599C42.1866 35.0111 42.7948 34.2023 43.9678 34.0766C45.1409 33.951 45.8922 34.6703 46.4251 35.6341C46.6321 36.0105 46.801 36.4088 46.9752 36.802C50.6134 44.931 54.2483 53.0645 57.8799 61.2023C60.4331 66.9474 62.9517 72.703 65.4797 78.4557C65.6657 78.843 65.8126 79.2479 65.9182 79.6643C66.3672 81.6794 64.8373 83.0798 62.872 82.4643C62.1074 82.2123 61.3822 81.7836 60.6132 81.5054C52.2666 78.4872 43.7341 78.3867 35.1061 80.0032C34.8649 80.0416 34.6437 80.1606 34.479 80.3408C33.723 81.3316 33.0049 82.3453 32.1565 83.5082Z" fill="url(#paint1_linear_14308_11158)"/>
<path d="M69.9955 50.1451C70.5487 51.0535 71.0516 51.9962 71.3903 53.0043C72.6696 56.8114 73.1635 60.6722 72.5894 64.696C72.5499 64.9515 72.5176 65.2084 72.4762 65.4577C72.213 66.7348 71.393 67.4122 70.3646 67.2093C69.3362 67.0063 68.8814 66.1869 69.0548 64.9198C69.4089 62.3078 69.4692 59.7026 68.8551 57.1199C67.5654 51.7295 64.8204 47.3155 60.1753 44.1704L59.9597 44.0265C58.7572 43.2038 58.4144 42.2543 58.9991 41.3566C59.5838 40.4589 60.7806 40.2643 61.9215 41.2017C63.761 42.7302 65.6526 44.2601 67.2159 46.0577C68.2903 47.2923 69.132 48.7271 69.9955 50.1451Z" fill="url(#paint2_linear_14308_11158)"/>
<path d="M64.1268 54.5595C65.2921 57.2491 65.712 60.2025 65.3425 63.1116C65.1789 64.513 64.3788 65.2221 63.2907 65.1059C62.2026 64.9896 61.6685 64.1016 61.8327 62.6794C62.4128 57.6682 60.6587 53.6858 56.5706 50.7321C55.4511 49.922 55.1626 49.0042 55.7489 48.1232C56.3352 47.2421 57.4089 47.1294 58.5847 47.8984C61.015 49.5636 62.9335 51.8694 64.1268 54.5595Z" fill="url(#paint3_linear_14308_11158)"/>
<path d="M6.46526 69.701C5.41653 67.3168 6.49909 64.5339 8.88323 63.4852L20.8506 58.221C23.2687 57.1573 26.0889 58.2872 27.1037 60.7263L34.1851 77.7463C34.8751 79.4049 34.563 81.3115 33.38 82.6634L33.1744 82.8984C32.7083 83.4311 32.1283 83.8521 31.4773 84.13L20.0543 89.0078C17.6772 90.0228 14.9261 88.9354 13.8854 86.5695L6.46526 69.701Z" fill="url(#paint4_linear_14308_11158)"/>
<path d="M83.7187 46.7099C90.4547 46.7099 95.9154 41.2493 95.9154 34.5132C95.9154 27.7772 90.4547 22.3165 83.7187 22.3165C76.9826 22.3165 71.522 27.7772 71.522 34.5132C71.522 41.2493 76.9826 46.7099 83.7187 46.7099Z" fill="url(#paint5_linear_14308_11158)"/>
<path d="M80.31 36.727H77.2553L76.5735 38.9362H74.4188L77.8145 29.3904H79.7918L83.1602 38.9362H81.0055L80.31 36.727ZM79.7918 35.1043L78.81 32.0223H78.7281L77.7736 35.1043H79.7918Z" fill="white"/>
<path d="M84.0582 29.3768H87.822C88.6675 29.3768 89.413 29.5677 90.0585 29.9495C90.704 30.3223 91.204 30.8678 91.5586 31.586C91.9222 32.2951 92.104 33.1451 92.104 34.136C92.104 35.1452 91.9222 36.0088 91.5586 36.727C91.1949 37.4452 90.6858 37.9907 90.0312 38.3634C89.3857 38.7362 88.6402 38.9226 87.7947 38.9226H84.0582V29.3768ZM87.3993 37.0134C88.1448 37.0134 88.7357 36.7998 89.1721 36.3725C89.6085 35.9452 89.8267 35.1997 89.8267 34.136C89.8267 33.0724 89.6085 32.3269 89.1721 31.8996C88.7448 31.4723 88.1539 31.2587 87.3993 31.2587H86.1174V37.0134H87.3993Z" fill="white"/>
<g filter="url(#filter0_d_14308_11158)">
<path d="M79.6875 88.1256C79.6875 77.2528 88.5017 68.4375 99.3756 68.4375C104.246 68.4375 108.704 70.2063 112.141 73.1381C116.377 76.749 119.063 82.1233 119.063 88.1256C119.063 98.9983 110.248 107.812 99.3756 107.812C96.6668 107.812 94.0857 107.265 91.7365 106.276C84.6567 103.293 79.6875 96.2895 79.6875 88.1256Z" fill="white"/>
<path d="M99.489 71.4669C95.2967 71.4669 91.4638 73.0049 88.5235 75.5474L112.136 99.2549C114.705 96.3082 116.261 92.4553 116.261 88.2389C116.261 83.1257 113.973 78.5474 110.365 75.4713C107.436 72.9738 103.638 71.4669 99.489 71.4669Z" fill="#FF5858"/>
<path d="M109.582 101.635L86.1336 78.0918C83.9893 80.9093 82.7163 84.4258 82.7163 88.2395C82.7163 95.1942 86.9497 101.16 92.9811 103.701C94.9825 104.544 97.1814 105.011 99.489 105.011C103.278 105.011 106.774 103.754 109.582 101.635Z" fill="#FF5858"/>
</g>
<defs>
<filter id="filter0_d_14308_11158" x="72.6476" y="63.0702" width="56.8" height="56.8" filterUnits="userSpaceOnUse" color-interpolation-filters="sRGB">
<feFlood flood-opacity="0" result="BackgroundImageFix"/>
<feColorMatrix in="SourceAlpha" type="matrix" values="0 0 0 0 0 0 0 0 0 0 0 0 0 0 0 0 0 0 127 0" result="hardAlpha"/>
<feOffset dx="1.67258" dy="3.34517"/>
<feGaussianBlur stdDeviation="2.95"/>
<feComposite in2="hardAlpha" operator="out"/>
<feColorMatrix type="matrix" values="0 0 0 0 0.00616667 0 0 0 0 0 0 0 0 0 0.308333 0 0 0 0.07 0"/>
<feBlend mode="normal" in2="BackgroundImageFix" result="effect1_dropShadow_14308_11158"/>
<feBlend mode="normal" in="SourceGraphic" in2="effect1_dropShadow_14308_11158" result="shape"/>
</filter>
<linearGradient id="paint0_linear_14308_11158" x1="12.9536" y1="25.2902" x2="74.9985" y2="109.594" gradientUnits="userSpaceOnUse">
<stop stop-color="white"/>
<stop offset="1" stop-color="#E2F1FA"/>
</linearGradient>
<linearGradient id="paint1_linear_14308_11158" x1="-2.38422" y1="109.392" x2="86.8726" y2="82.871" gradientUnits="userSpaceOnUse">
<stop stop-color="#05E0E0"/>
<stop offset="1" stop-color="#02E2E2"/>
</linearGradient>
<linearGradient id="paint2_linear_14308_11158" x1="25.5551" y1="88.182" x2="11.7322" y2="60.5361" gradientUnits="userSpaceOnUse">
<stop stop-color="#00BBBB"/>
<stop offset="1" stop-color="#00D5D4"/>
</linearGradient>
<linearGradient id="paint3_linear_14308_11158" x1="25.5551" y1="88.182" x2="11.7322" y2="60.5361" gradientUnits="userSpaceOnUse">
<stop stop-color="#00BBBB"/>
<stop offset="1" stop-color="#00D5D4"/>
</linearGradient>
<linearGradient id="paint4_linear_14308_11158" x1="25.5551" y1="88.182" x2="11.7322" y2="60.5361" gradientUnits="userSpaceOnUse">
<stop stop-color="#00BBBB"/>
<stop offset="1" stop-color="#00D5D4"/>
</linearGradient>
<linearGradient id="paint5_linear_14308_11158" x1="69.3558" y1="48.0812" x2="100.708" y2="38.4629" gradientUnits="userSpaceOnUse">
<stop stop-color="#05E0E0"/>
<stop offset="1" stop-color="#02C8C8"/>
</linearGradient>
</defs>
</svg>
