<svg width="89" height="87" viewBox="0 0 89 87" fill="none" xmlns="http://www.w3.org/2000/svg">
<g filter="url(#filter0_d_869_132895)">
<path d="M76.8185 47.7928C76.8536 47.6666 76.8886 47.5397 76.9224 47.4122C76.9357 47.3613 76.9491 47.3105 76.9625 47.2602C76.9944 47.139 77.0249 47.0172 77.0555 46.8947C77.0657 46.8527 77.0765 46.8106 77.0867 46.7691C77.1262 46.6084 77.1638 46.447 77.2008 46.2856C77.2078 46.2542 77.2148 46.2228 77.2218 46.192C77.2517 46.0595 77.2804 45.927 77.3084 45.7944C77.3193 45.7429 77.3301 45.6921 77.3403 45.6406C77.3652 45.5187 77.39 45.3969 77.4136 45.2744C77.4225 45.2299 77.4314 45.1846 77.4397 45.1401C77.4709 44.9768 77.5009 44.8129 77.5289 44.6489C77.5333 44.6226 77.5378 44.5962 77.5423 44.5698C77.5658 44.4304 77.5888 44.291 77.6111 44.1516C77.6194 44.1001 77.627 44.0486 77.6346 43.9971C77.6531 43.8746 77.6716 43.7515 77.6888 43.6284C77.6952 43.5813 77.7022 43.5342 77.7085 43.4871C77.7309 43.3213 77.7525 43.1549 77.7729 42.9885C77.7755 42.9684 77.7774 42.9476 77.7799 42.9269C77.7971 42.78 77.8137 42.6324 77.829 42.4848C77.8341 42.4333 77.8392 42.3818 77.8443 42.3303C77.8564 42.2066 77.8678 42.0829 77.8787 41.9585C77.8831 41.9095 77.8876 41.8605 77.8914 41.8116C77.9054 41.6433 77.9182 41.4749 77.9296 41.306C77.9303 41.2941 77.9309 41.2821 77.9315 41.2702C77.9417 41.1132 77.9506 40.9556 77.9589 40.7979C77.9615 40.7464 77.964 40.695 77.9659 40.6435C77.9717 40.5185 77.9768 40.3941 77.9806 40.2692C77.9825 40.2183 77.9844 40.168 77.9857 40.1172C77.9908 39.947 77.9946 39.7762 77.9972 39.6053C78.0583 34.9398 77.095 30.5349 75.3041 26.5715L73.6655 22.9453C75.4564 26.9094 76.4197 31.3143 76.3585 35.9792C76.356 36.15 76.3522 36.3208 76.3471 36.491C76.3458 36.5419 76.3439 36.5921 76.342 36.643C76.3375 36.768 76.333 36.8929 76.3273 37.0173C76.3248 37.0688 76.3228 37.1203 76.3203 37.1718C76.312 37.3294 76.3031 37.487 76.2929 37.644C76.2923 37.656 76.2916 37.6679 76.291 37.6798C76.2795 37.8488 76.2668 38.0171 76.2528 38.1854C76.2489 38.2344 76.2445 38.2834 76.24 38.3323C76.2292 38.4561 76.2177 38.5804 76.2056 38.7041C76.2005 38.7556 76.1954 38.8071 76.1903 38.8586C76.175 39.0062 76.1585 39.1538 76.1413 39.3008C76.1387 39.3209 76.1368 39.3416 76.1343 39.3623C76.1145 39.5287 76.0928 39.6951 76.0699 39.8609C76.0635 39.908 76.0565 39.9551 76.0502 40.0022C76.033 40.1253 76.0151 40.2484 75.996 40.3709C75.9884 40.4224 75.9801 40.4739 75.9724 40.5254C75.9501 40.6648 75.9278 40.8049 75.9036 40.9436C75.8992 40.97 75.8947 40.9964 75.8903 41.0228C75.8616 41.1867 75.8316 41.3506 75.8011 41.5139C75.7928 41.5585 75.7839 41.6037 75.7749 41.6483C75.7514 41.7707 75.7265 41.8926 75.7017 42.0144C75.6908 42.0659 75.6806 42.1168 75.6698 42.1683C75.6418 42.3014 75.6125 42.4339 75.5832 42.5664C75.5762 42.5978 75.5698 42.6286 75.5621 42.66C75.5252 42.822 75.487 42.9828 75.4481 43.1442C75.4379 43.1863 75.4271 43.2277 75.4169 43.2698C75.3863 43.3917 75.3557 43.5135 75.3239 43.6353C75.3105 43.6862 75.2971 43.7364 75.2837 43.7873C75.25 43.9142 75.2156 44.041 75.1799 44.1679C75.1703 44.2024 75.1608 44.2376 75.1512 44.2721C75.1066 44.431 75.0601 44.5893 75.013 44.7475C74.9919 44.8173 74.9709 44.8863 74.9492 44.956C74.9314 45.0151 74.9136 45.0741 74.8951 45.1331C74.8722 45.206 74.8486 45.2788 74.8256 45.3517C74.8072 45.4088 74.7893 45.466 74.7709 45.5231C74.746 45.5985 74.7212 45.6732 74.6963 45.7486C74.6778 45.8032 74.66 45.8572 74.6422 45.9119C74.6148 45.9923 74.5867 46.072 74.5593 46.1518C74.5421 46.2008 74.5256 46.2498 74.5084 46.2987C74.4765 46.3898 74.4434 46.4802 74.4103 46.5707C74.3962 46.6084 74.3829 46.6467 74.3695 46.6843C74.3223 46.8125 74.2746 46.9399 74.2261 47.0674C74.2185 47.0875 74.2102 47.1076 74.2026 47.1284C74.1618 47.2351 74.1204 47.3419 74.0783 47.4486C74.0605 47.4945 74.0414 47.5397 74.0235 47.5849C73.991 47.6659 73.9585 47.7469 73.9254 47.828C73.9044 47.8795 73.8827 47.931 73.8611 47.9825C73.8299 48.0566 73.7993 48.1313 73.7681 48.2054C73.7451 48.26 73.7215 48.3141 73.698 48.3681C73.6674 48.439 73.6368 48.51 73.6062 48.5803C73.582 48.6362 73.5565 48.6915 73.5323 48.7468C73.5017 48.8158 73.4712 48.8843 73.4399 48.9534C73.4145 49.0099 73.3883 49.0658 73.3622 49.1223C73.331 49.1895 73.3004 49.2573 73.2686 49.3245C73.2418 49.3817 73.215 49.4382 73.1876 49.4947C73.1564 49.5607 73.1246 49.6272 73.0934 49.6932C73.066 49.7503 73.0379 49.8075 73.0099 49.864C72.978 49.9293 72.9455 49.9946 72.9137 50.0599C72.885 50.1171 72.8564 50.1736 72.8277 50.2308C72.7952 50.2954 72.7621 50.3601 72.7289 50.4248C72.6996 50.482 72.6703 50.5385 72.6404 50.5956C72.6104 50.6528 72.5805 50.7099 72.5505 50.7671C72.4601 50.9392 72.3677 51.11 72.274 51.2802C72.2556 51.3135 72.2371 51.3467 72.2186 51.38C72.1281 51.5433 72.037 51.7053 71.944 51.8667C71.9351 51.8824 71.9262 51.8988 71.9166 51.9145C71.8179 52.0853 71.7172 52.2555 71.6159 52.425C71.5942 52.4615 71.5719 52.4979 71.5496 52.535C71.4483 52.7026 71.3458 52.8697 71.2413 53.0355C71.2266 53.0581 71.212 53.0813 71.198 53.1039C71.1005 53.2578 71.0017 53.4117 70.9024 53.5643C70.8839 53.5925 70.8654 53.6214 70.8469 53.6497C70.7399 53.813 70.6309 53.975 70.5207 54.1364C70.4972 54.1703 70.4742 54.2048 70.4506 54.2388C70.3372 54.4039 70.2226 54.5685 70.1066 54.7318C70.1047 54.7343 70.1034 54.7362 70.1015 54.7387C69.9862 54.9007 69.869 55.0608 69.7511 55.221C69.7263 55.2543 69.7014 55.2882 69.6766 55.3215C69.5644 55.4722 69.4517 55.6217 69.3376 55.7705C69.3185 55.7956 69.2988 55.8201 69.2796 55.8452C69.1777 55.9777 69.0745 56.109 68.97 56.2402C68.9458 56.271 68.9209 56.3018 68.8967 56.3326C68.7795 56.4789 68.661 56.6246 68.5419 56.769C68.517 56.7986 68.4922 56.8287 68.4673 56.8582C68.3603 56.9863 68.2526 57.1144 68.1443 57.2413C68.1233 57.2664 68.1023 57.2909 68.0806 57.316C67.9583 57.4586 67.834 57.5999 67.7092 57.7406C67.6805 57.7726 67.6518 57.8046 67.6232 57.8373C67.5072 57.9673 67.3906 58.096 67.2728 58.2242C67.2587 58.2399 67.2441 58.2556 67.2301 58.2713C67.1014 58.4107 66.9714 58.5488 66.8408 58.6864C66.8096 58.719 66.7784 58.7517 66.7471 58.7837C66.6146 58.9219 66.4808 59.0594 66.3464 59.1957V59.1969C66.2043 59.3395 66.0616 59.4808 65.9176 59.6215C65.8877 59.651 65.8571 59.6805 65.8272 59.71C65.687 59.8463 65.5449 59.982 65.4022 60.1164C65.3774 60.1396 65.3532 60.1622 65.3283 60.1854C65.1958 60.3092 65.0626 60.4316 64.9288 60.5535C64.9065 60.5742 64.8836 60.5949 64.8613 60.615C64.7154 60.7469 64.5682 60.8775 64.4204 61.0069C64.3879 61.0352 64.3554 61.064 64.323 61.0923C64.172 61.2236 64.0197 61.3542 63.8668 61.4836C63.8598 61.4892 63.8528 61.4955 63.8458 61.5011C63.6967 61.6261 63.547 61.7498 63.396 61.8723C63.3641 61.8987 63.3316 61.9244 63.2998 61.9508C63.1469 62.0745 62.9927 62.197 62.8379 62.3182C62.8092 62.3408 62.7799 62.3634 62.7512 62.3854C62.6066 62.4978 62.4607 62.6096 62.3142 62.7208C62.2938 62.7365 62.2734 62.7522 62.253 62.7672C62.0644 62.9085 61.8746 63.0486 61.6834 63.1867C61.6573 63.2056 61.6305 63.2251 61.6044 63.2439C61.4178 63.3783 61.2292 63.5108 61.0399 63.6414C61.0094 63.6628 60.9788 63.6841 60.9476 63.7049C60.759 63.8342 60.5698 63.9617 60.3786 64.0879C60.3474 64.1087 60.3162 64.1294 60.2843 64.1501C60.0919 64.2763 59.8976 64.4013 59.7027 64.5244C59.6746 64.542 59.646 64.5602 59.6173 64.5778C59.4172 64.7034 59.2159 64.8271 59.0127 64.949C58.9929 64.9609 58.9732 64.9728 58.9528 64.9841C58.74 65.1116 58.5266 65.2372 58.3106 65.3603C58.308 65.3616 58.3055 65.3628 58.3029 65.3647C58.0876 65.4878 57.8703 65.609 57.6518 65.7283C57.634 65.7384 57.6161 65.7478 57.5983 65.7578C57.3881 65.8721 57.1765 65.9839 56.9644 66.0945C56.9313 66.1114 56.8988 66.129 56.8656 66.146C56.7535 66.2037 56.6407 66.2609 56.5286 66.318C56.4993 66.3325 56.4706 66.3475 56.4413 66.3626C56.2992 66.4336 56.1572 66.5039 56.0138 66.573C55.9756 66.5919 55.9367 66.6101 55.8979 66.6283C55.7927 66.6785 55.6876 66.7288 55.5819 66.7784C55.5296 66.8029 55.4774 66.8267 55.4258 66.8512C55.3321 66.8946 55.2378 66.9379 55.1435 66.9806C55.0887 67.0057 55.034 67.0302 54.9785 67.0547C54.8836 67.0974 54.788 67.1395 54.6925 67.1816C54.6409 67.2042 54.5892 67.2274 54.537 67.2494C54.4249 67.2977 54.3127 67.3455 54.2 67.3932C54.1649 67.4076 54.1305 67.4227 54.0955 67.4378C53.9483 67.4993 53.8005 67.5602 53.6521 67.6199C53.6158 67.635 53.5788 67.6488 53.5418 67.6639C53.4297 67.7085 53.3169 67.7531 53.2042 67.797C53.1513 67.8177 53.0978 67.8378 53.0449 67.8586C52.9468 67.8962 52.8487 67.9333 52.7506 67.9703C52.6939 67.9917 52.6372 68.0124 52.5798 68.0338C52.4817 68.0696 52.3842 68.1054 52.2855 68.1405C52.2307 68.16 52.1765 68.1801 52.1217 68.1996C52.0096 68.2391 51.8975 68.2781 51.7847 68.317C51.7446 68.3308 51.7051 68.3446 51.6649 68.3585C51.5127 68.41 51.3598 68.4608 51.2069 68.5111C51.1731 68.5224 51.1387 68.533 51.1043 68.5437C50.9845 68.5827 50.8647 68.6203 50.7443 68.658C50.6902 68.675 50.6366 68.6913 50.5825 68.7076C50.4806 68.739 50.3786 68.7698 50.2767 68.8C50.2181 68.8175 50.1601 68.8345 50.1015 68.8515C50.0008 68.881 49.8995 68.9099 49.7982 68.9387C49.7415 68.9544 49.6854 68.9708 49.6287 68.9865C49.516 69.0179 49.4026 69.0486 49.2892 69.0788C49.2452 69.0907 49.2012 69.1027 49.1573 69.1146C49.0006 69.156 48.8432 69.1969 48.6858 69.2364C48.6559 69.244 48.6259 69.2509 48.596 69.2584C48.4679 69.2904 48.3392 69.3218 48.2105 69.352C48.1558 69.3652 48.101 69.3777 48.0455 69.3903C47.9404 69.4148 47.8353 69.4386 47.7302 69.4625C47.6703 69.4757 47.6104 69.4889 47.5505 69.5021C47.4473 69.5247 47.3434 69.5467 47.2402 69.5686C47.1816 69.5812 47.123 69.5931 47.0644 69.6051C46.951 69.6283 46.8376 69.6509 46.7242 69.6729C46.6764 69.6823 46.6286 69.6917 46.5802 69.7012C46.4196 69.7319 46.2584 69.7621 46.0966 69.7903C46.0731 69.7947 46.0488 69.7985 46.0246 69.8029C45.8864 69.8274 45.7481 69.8506 45.6099 69.8739C45.5551 69.8827 45.4997 69.8914 45.4449 69.9002C45.3366 69.9178 45.2276 69.9348 45.1187 69.9511C45.0575 69.9605 44.9957 69.9693 44.9345 69.9781C44.8294 69.9932 44.7237 70.0083 44.6179 70.0227C44.5574 70.0309 44.4968 70.0397 44.4363 70.0472C44.3223 70.0623 44.2089 70.0767 44.0948 70.0905C44.0439 70.0968 43.9929 70.1037 43.9413 70.1094C43.7769 70.1288 43.6119 70.1477 43.4469 70.1653C43.4329 70.1665 43.4189 70.1678 43.4049 70.1697C43.2539 70.1854 43.1022 70.2004 42.95 70.2142C42.8952 70.2193 42.8404 70.2237 42.7856 70.2287C42.6735 70.2387 42.5613 70.2482 42.4486 70.257C42.3861 70.262 42.3243 70.2664 42.2619 70.2714C42.1542 70.2796 42.0465 70.2871 41.9389 70.294C41.8771 70.2978 41.8146 70.3022 41.7528 70.3059C41.6382 70.3128 41.5235 70.3191 41.4088 70.3254C41.3553 70.3279 41.3018 70.3311 41.2476 70.3336C41.0801 70.3417 40.9119 70.3486 40.7437 70.3543C26.2635 70.8529 13.9355 63.0329 8.69531 51.4347L10.3339 55.0608C15.5748 66.659 27.9028 74.4791 42.3823 73.9805C42.5505 73.9748 42.7187 73.9673 42.8862 73.9597C42.9398 73.9572 42.9933 73.9541 43.0474 73.9516C43.1621 73.9459 43.2768 73.9396 43.3915 73.9321C43.4533 73.9283 43.5157 73.9239 43.5775 73.9202C43.6852 73.9133 43.7929 73.9057 43.9005 73.8976C43.963 73.8932 44.0248 73.8881 44.0872 73.8831C44.1993 73.8743 44.3121 73.8649 44.4242 73.8549C44.479 73.8498 44.5338 73.8454 44.5886 73.8404C44.7402 73.8266 44.8919 73.8115 45.0435 73.7958C45.0575 73.7946 45.0715 73.7933 45.0855 73.7914C45.2505 73.7738 45.4156 73.755 45.5799 73.7355C45.6309 73.7293 45.6819 73.723 45.7335 73.7167C45.8475 73.7029 45.9616 73.6884 46.075 73.6734C46.1355 73.6652 46.196 73.657 46.2565 73.6489C46.3623 73.6344 46.4674 73.6194 46.5732 73.6043C46.6343 73.5955 46.6961 73.5861 46.7573 73.5773C46.8662 73.5609 46.9752 73.544 47.0835 73.5264C47.1383 73.5176 47.1937 73.5088 47.2485 73.5C47.3868 73.4774 47.5257 73.4536 47.6633 73.4291C47.6875 73.4247 47.7111 73.4209 47.7353 73.4165C47.8965 73.3876 48.0576 73.3581 48.2188 73.3273C48.2666 73.3179 48.3144 73.3085 48.3628 73.2991C48.4762 73.2771 48.5896 73.2545 48.703 73.2312C48.7616 73.2193 48.8203 73.2067 48.8789 73.1948C48.9827 73.1728 49.0859 73.1509 49.1891 73.1282C49.249 73.1151 49.3089 73.1019 49.3688 73.0887C49.4739 73.0648 49.5797 73.0409 49.6842 73.0165C49.739 73.0039 49.7944 72.9913 49.8492 72.9781C49.9779 72.9474 50.1059 72.9166 50.2346 72.8846C50.2646 72.877 50.2945 72.8701 50.3245 72.8626C50.4818 72.823 50.6392 72.7822 50.7959 72.7408C50.8399 72.7288 50.8838 72.7169 50.9278 72.705C51.0412 72.6748 51.1546 72.644 51.2674 72.6126C51.3241 72.5969 51.3801 72.5806 51.4368 72.5649C51.5381 72.536 51.6394 72.5071 51.7401 72.4776C51.7987 72.4607 51.8573 72.4431 51.9153 72.4261C52.0173 72.396 52.1192 72.3646 52.2211 72.3338C52.2753 72.3175 52.3294 72.3005 52.383 72.2842C52.5034 72.2465 52.6231 72.2082 52.7429 72.1699C52.7773 72.1586 52.8111 72.1479 52.8455 72.1372C52.9984 72.0876 53.1513 72.0368 53.3036 71.9846C53.3437 71.9708 53.3832 71.957 53.4233 71.9432C53.5361 71.9042 53.6482 71.8653 53.7604 71.8257C53.8152 71.8063 53.87 71.7868 53.9241 71.7667C54.0222 71.7315 54.1203 71.6957 54.2185 71.6599C54.2752 71.6392 54.3319 71.6179 54.3892 71.5965C54.4873 71.5595 54.5854 71.5224 54.6835 71.4847C54.7364 71.4646 54.7899 71.4439 54.8428 71.4232C54.9556 71.3792 55.0677 71.3346 55.1805 71.29C55.2174 71.2756 55.2537 71.2612 55.2907 71.2461C55.4391 71.1864 55.587 71.1255 55.7341 71.064C55.7692 71.0495 55.8036 71.0344 55.8386 71.0194C55.9514 70.9716 56.0635 70.9239 56.1756 70.8755C56.2272 70.8529 56.2795 70.8303 56.3311 70.8077C56.4267 70.7656 56.5222 70.7236 56.6172 70.6809C56.6719 70.6564 56.7267 70.6312 56.7815 70.6068C56.8758 70.564 56.9695 70.5207 57.0638 70.4774C57.116 70.4529 57.1683 70.429 57.2199 70.4045C57.3256 70.3549 57.4307 70.3047 57.5359 70.2544C57.5741 70.2356 57.613 70.2174 57.6518 70.1992C57.7945 70.1301 57.9372 70.0598 58.0793 69.9888C58.1086 69.9743 58.1373 69.9593 58.1666 69.9442C58.2794 69.8877 58.3921 69.8305 58.5036 69.7721C58.5189 69.7646 58.5336 69.7571 58.5489 69.7489C58.5667 69.7395 58.5845 69.73 58.6024 69.7206C58.8152 69.6101 59.0267 69.4983 59.2363 69.384C59.2541 69.3746 59.272 69.3645 59.2898 69.3545C59.5083 69.2352 59.7256 69.114 59.9409 68.9909C59.9435 68.9896 59.946 68.9884 59.9486 68.9865C60.1639 68.8634 60.378 68.7372 60.5908 68.6103C60.6105 68.5984 60.6303 68.5864 60.6507 68.5751C60.8533 68.4533 61.0546 68.3289 61.2553 68.2033C61.284 68.1858 61.312 68.1682 61.3407 68.15C61.5356 68.0269 61.7293 67.9019 61.9223 67.7757C61.9536 67.7549 61.9854 67.7342 62.0166 67.7135C62.2078 67.5873 62.397 67.4598 62.5856 67.3304C62.6161 67.309 62.6474 67.2877 62.6779 67.2663C62.8672 67.1351 63.0558 67.0032 63.2424 66.8688C63.2692 66.85 63.2953 66.8305 63.3214 66.8117C63.5126 66.6735 63.7024 66.5341 63.891 66.3921C63.8961 66.3884 63.9018 66.3846 63.9069 66.3802C63.9222 66.3689 63.9369 66.357 63.9522 66.345C64.0987 66.2345 64.2446 66.1227 64.3892 66.0097C64.4179 65.9871 64.4472 65.9651 64.4759 65.9425C64.6307 65.8213 64.7849 65.6988 64.9378 65.5751C64.9696 65.5493 65.0021 65.523 65.034 65.4966C65.185 65.3735 65.3347 65.2504 65.4838 65.1254C65.4908 65.1198 65.4978 65.1135 65.5048 65.1078C65.6583 64.9791 65.81 64.8485 65.961 64.7166C65.9935 64.6883 66.0266 64.6594 66.0591 64.6312C66.2069 64.5018 66.354 64.3712 66.4999 64.2393C66.5229 64.2186 66.5452 64.1978 66.5681 64.1771C66.7019 64.0553 66.8351 63.9328 66.9676 63.8091C66.9924 63.7859 67.0166 63.7633 67.0415 63.74C67.1842 63.6056 67.3256 63.47 67.4664 63.3337C67.497 63.3042 67.527 63.2747 67.5569 63.2451C67.7009 63.1045 67.8436 62.9638 67.9844 62.8206V62.8194C68.1201 62.6831 68.2533 62.5455 68.3864 62.4074C68.4176 62.3747 68.4489 62.3421 68.4801 62.3094C68.6107 62.1719 68.7406 62.0337 68.8693 61.8949C68.884 61.8792 68.898 61.8635 68.912 61.8478C69.0299 61.7197 69.1465 61.591 69.2624 61.461C69.2911 61.4289 69.3198 61.3969 69.3484 61.3642C69.4733 61.2236 69.5969 61.0823 69.7199 60.9397C69.7415 60.9146 69.7626 60.8895 69.7836 60.865C69.8919 60.7381 69.9996 60.6106 70.1066 60.4819C70.1315 60.4524 70.1563 60.4222 70.1811 60.3927C70.3003 60.2483 70.4188 60.1025 70.536 59.9562C70.5609 59.9254 70.5851 59.8947 70.6093 59.8639C70.7131 59.7333 70.8163 59.6014 70.9189 59.4695C70.938 59.4444 70.9578 59.4199 70.9769 59.3948C71.0909 59.2459 71.2043 59.0965 71.3158 58.9457C71.3267 58.9313 71.3375 58.9175 71.3483 58.903C71.3623 58.8842 71.3764 58.8647 71.3904 58.8453C71.5082 58.6857 71.6255 58.525 71.7408 58.3636C71.7427 58.3611 71.7446 58.3585 71.7459 58.356C71.8625 58.1927 71.9765 58.0282 72.0899 57.863C72.1135 57.8291 72.1371 57.7946 72.16 57.7607C72.2702 57.5993 72.3785 57.4372 72.4862 57.274C72.5047 57.2457 72.5231 57.2168 72.5416 57.1886C72.641 57.0359 72.7398 56.8827 72.8372 56.7288C72.8519 56.7062 72.8665 56.683 72.8806 56.6604C72.9851 56.4946 73.0876 56.3275 73.1889 56.1599C73.2112 56.1234 73.2329 56.0864 73.2552 56.05C73.3565 55.8804 73.4571 55.7108 73.5559 55.54C73.5648 55.5243 73.5737 55.508 73.5833 55.4923C73.6763 55.3309 73.7674 55.1682 73.8579 55.0056C73.8764 54.9723 73.8948 54.939 73.9133 54.9057C74.007 54.7355 74.0987 54.5641 74.1898 54.3926C74.1968 54.3788 74.2045 54.3656 74.2121 54.3518C74.235 54.3085 74.2573 54.2645 74.2796 54.2212C74.309 54.1647 74.3389 54.1075 74.3682 54.0504C74.4013 53.9857 74.4338 53.921 74.467 53.8563C74.4956 53.7998 74.5243 53.7426 74.553 53.6855C74.5855 53.6202 74.6173 53.5548 74.6492 53.4895C74.6772 53.4324 74.7052 53.3759 74.7326 53.3187C74.7645 53.2528 74.7957 53.1868 74.8269 53.1209C74.8543 53.0637 74.8811 53.0066 74.9078 52.9494C74.939 52.8822 74.9703 52.815 75.0009 52.7478C75.027 52.6913 75.0531 52.6354 75.0786 52.5789C75.1098 52.5098 75.1404 52.4407 75.171 52.3723C75.1958 52.317 75.2206 52.2618 75.2449 52.2059C75.2761 52.1349 75.3067 52.0639 75.3372 51.993C75.3602 51.939 75.3838 51.885 75.4073 51.8309C75.4385 51.7575 75.4691 51.6834 75.4997 51.6093C75.5214 51.5571 75.543 51.5056 75.5647 51.4535C75.5978 51.3731 75.6297 51.2921 75.6622 51.2117C75.6806 51.1659 75.6991 51.1207 75.7176 51.0748C75.759 50.9699 75.7998 50.8651 75.8399 50.7595C75.8482 50.7376 75.8571 50.7156 75.8654 50.6936C75.9138 50.5661 75.9616 50.4386 76.0088 50.3105C76.0228 50.2722 76.0368 50.2333 76.0508 50.195C76.0833 50.1052 76.1158 50.016 76.1476 49.9255C76.1655 49.8753 76.1827 49.8251 76.1999 49.7748C76.2273 49.6963 76.2547 49.6178 76.2814 49.5387C76.2999 49.484 76.3177 49.4294 76.3362 49.3748C76.3611 49.3 76.3866 49.2253 76.4108 49.1499C76.4292 49.0928 76.4471 49.0356 76.4656 48.9785C76.4891 48.9056 76.5121 48.8328 76.535 48.7593C76.5535 48.7003 76.5713 48.6412 76.5891 48.5822C76.6076 48.5226 76.6261 48.4635 76.6439 48.4039C76.6471 48.3938 76.6497 48.3838 76.6529 48.3731C76.7 48.2148 76.7459 48.0566 76.7911 47.8977C76.8007 47.8631 76.8102 47.828 76.8198 47.7934L76.8185 47.7928Z" fill="#C98900"/>
<path d="M73.421 23.0315C80.8361 39.4408 72.442 59.1028 54.6193 66.9284C36.7966 74.7541 16.3542 67.7537 8.9391 51.3444C1.52397 34.935 9.91802 15.2731 27.7408 7.44743C45.5635 -0.378224 66.0058 6.62214 73.421 23.0315Z" fill="#FFC100" stroke="url(#paint0_linear_869_132895)" stroke-width="0.5"/>
</g>
<g opacity="0.1">
<path d="M35.7462 44.4184C35.8794 43.038 36.0061 41.6576 36.1527 40.2779C36.1763 40.0575 36.0972 39.9482 35.9023 39.8433C33.352 38.4679 30.8086 37.0825 28.2577 35.7078C28.0595 35.601 27.985 35.4905 28.0079 35.272C28.1691 33.7239 28.3175 32.1758 28.4577 30.6278C28.4762 30.4243 28.5603 30.3138 28.7718 30.2114C30.3397 29.4484 31.9032 28.6772 33.4615 27.8984C33.6782 27.7904 33.826 27.7816 34.0292 27.894C36.5515 29.2901 39.084 30.6736 41.6069 32.0691C41.8172 32.1853 41.9746 32.184 42.2058 32.0691C45.0116 30.6755 47.8238 29.2926 50.6303 27.9009C50.8424 27.7961 50.9928 27.7747 51.2005 27.8903C52.5894 28.6621 53.9872 29.4226 55.3914 30.1744C55.6086 30.2905 55.6914 30.4124 55.6672 30.6523C55.5131 32.1909 55.3735 33.7302 55.2455 35.2688C55.2276 35.4861 55.1365 35.5992 54.9174 35.7066C52.1014 37.0819 49.2911 38.4673 46.4744 39.842C46.2553 39.9488 46.1623 40.0568 46.1425 40.2747C45.8851 43.0443 45.6105 45.8145 45.3531 48.584C45.3308 48.8208 45.2321 48.9439 44.9881 49.0613C43.4367 49.8093 41.8917 50.5698 40.3506 51.3366C40.1403 51.4409 39.9976 51.4428 39.8071 51.3385C38.4048 50.5673 36.9975 49.8036 35.5831 49.0494C35.3843 48.9433 35.3117 48.8346 35.3346 48.6161C35.4831 47.2175 35.6118 45.8183 35.7468 44.4197L35.7462 44.4184Z" fill="black"/>
<path d="M19.4399 34.7969C20.5332 35.3935 21.5647 35.9562 22.5961 36.5202C23.0555 36.7714 23.5085 37.032 23.9768 37.2713C24.1532 37.3617 24.1966 37.4685 24.1787 37.6481C23.9092 40.4277 23.6518 43.2073 23.3785 45.9869C23.3575 46.2035 23.4257 46.316 23.6225 46.4227C26.1627 47.7962 28.6952 49.1803 31.2359 50.5532C31.4526 50.6706 31.5239 50.7962 31.4984 51.0349C31.336 52.5553 31.1971 54.0757 31.0499 55.5962C31.0193 55.9146 31.0174 55.9158 30.7116 55.75C26.5832 53.5111 22.4553 51.271 18.3237 49.0353C18.1498 48.9411 18.0772 48.8412 18.0969 48.6434C18.541 44.1198 18.9761 39.5956 19.4132 35.0719L19.4399 34.7975V34.7969Z" fill="black"/>
<path d="M63.8791 34.8125C63.867 34.9412 63.8587 35.0235 63.8504 35.1064C63.4152 39.6118 62.9788 44.1172 62.5507 48.622C62.5316 48.8254 62.4488 48.936 62.2385 49.039C57.6743 51.2728 53.1145 53.513 48.5522 55.7499C48.4617 55.7945 48.3611 55.9026 48.2668 55.8467C48.1801 55.7952 48.2464 55.6746 48.2547 55.586C48.4006 54.0468 48.5547 52.5081 48.693 50.9689C48.7108 50.7723 48.7988 50.6749 48.9944 50.5789C51.8091 49.1997 54.6181 47.8106 57.4335 46.4321C57.6622 46.3203 57.7571 46.201 57.7781 45.9755C58.0413 43.2053 58.319 40.4351 58.5873 37.6643C58.6038 37.4935 58.6471 37.3773 58.8459 37.28C60.4514 36.4956 62.0499 35.6999 63.651 34.9086C63.7064 34.881 63.7657 34.8596 63.8778 34.8125H63.8791Z" fill="black"/>
<path d="M29.3516 21.4739C30.197 21.0563 31.0087 20.655 31.821 20.2543C35.6761 18.3521 39.5325 16.4504 43.3864 14.5457C43.5304 14.4747 43.6361 14.4433 43.7878 14.5256C47.9946 16.8222 52.2058 19.1132 56.4165 21.4049C56.442 21.4187 56.4636 21.4381 56.4929 21.4589C56.4369 21.5663 56.3126 21.5895 56.2158 21.6372C54.6549 22.4128 53.0901 23.1815 51.5324 23.9621C51.3515 24.0526 51.2349 24.0463 51.0775 23.9603C48.5215 22.5598 45.9577 21.1687 43.4055 19.7638C43.1787 19.6389 43.0111 19.6565 42.7773 19.7726C39.9823 21.1631 37.181 22.5441 34.3872 23.937C34.1611 24.0501 34.0177 24.0381 33.8221 23.9295C32.4587 23.1715 31.0864 22.4266 29.7166 21.6768C29.6051 21.6159 29.4949 21.5524 29.3522 21.4721L29.3516 21.4739Z" fill="black"/>
<path d="M30.2883 25.9356C28.6452 26.7445 27.0282 27.549 25.4011 28.3346C25.1322 28.4646 25.0392 28.6085 25.0169 28.8603C24.8844 30.3707 24.7321 31.8817 24.5856 33.3921C24.5569 33.6866 24.5544 33.6872 24.2779 33.5365C22.8648 32.764 21.4542 31.9885 20.036 31.2223C19.8583 31.1262 19.7958 31.0207 19.8162 30.8266C19.9755 29.2786 20.1239 27.7311 20.266 26.1831C20.2832 25.9953 20.3501 25.886 20.5559 25.7855C22.1518 25.0074 23.7401 24.2161 25.3297 23.4267C25.4584 23.3626 25.5629 23.313 25.7075 23.3928C27.213 24.2211 28.7242 25.042 30.2329 25.8659C30.2482 25.8741 30.2552 25.8929 30.2883 25.9356Z" fill="black"/>
<path d="M58.9886 33.6207C58.9459 33.5278 58.9828 33.4248 58.9924 33.3256C59.1364 31.8152 59.2766 30.3048 59.4352 28.7951C59.4581 28.5765 59.3855 28.4666 59.1886 28.3605C57.822 27.6238 56.4637 26.8771 55.1054 26.1304C54.9876 26.0657 54.848 26.0205 54.7461 25.8917C55.345 25.5947 55.9343 25.302 56.5236 25.0106C57.5869 24.4843 58.6522 23.9618 59.7117 23.428C59.8875 23.3395 60.0105 23.3351 60.1717 23.4236C61.616 24.2181 63.0654 25.0075 64.5187 25.7906C64.6779 25.8767 64.7334 25.9709 64.7162 26.1429C64.5569 27.7186 64.4059 29.2937 64.2581 30.8694C64.2447 31.0132 64.1969 31.1074 64.0364 31.1853C62.413 31.9785 60.7935 32.7792 59.1721 33.5761C59.1192 33.6025 59.0657 33.6528 58.9892 33.6201L58.9886 33.6207Z" fill="black"/>
<path d="M34.6709 55.1662C34.7454 54.3924 34.827 53.6187 34.8907 52.845C34.9098 52.6114 34.9722 52.5982 35.178 52.7119C36.586 53.49 38.0049 54.2549 39.4103 55.0368C39.6129 55.1492 39.7614 55.1448 39.9818 55.0343C41.5306 54.2606 43.0864 53.4988 44.6403 52.7345C44.9563 52.5787 44.9582 52.58 44.9276 52.894C44.7798 54.4326 44.6269 55.9706 44.4874 57.5087C44.4708 57.6939 44.3906 57.7913 44.2058 57.8811C42.6105 58.6598 41.0177 59.4429 39.4301 60.2343C39.2389 60.3297 39.1134 60.3234 38.9459 60.2305C37.5296 59.4467 36.1095 58.6673 34.6823 57.898C34.4817 57.79 34.4173 57.6732 34.4428 57.459C34.5326 56.6947 34.597 55.9305 34.6709 55.1655V55.1662Z" fill="black"/>
<path d="M27.6298 39.235C28.4453 39.6809 29.2054 40.0966 29.9654 40.5124C30.7102 40.92 31.4524 41.3307 32.201 41.7333C32.3278 41.8017 32.382 41.8733 32.3673 42.0152C32.2068 43.6179 32.0539 45.2206 31.8984 46.8233C31.894 46.8667 31.8819 46.9106 31.8736 46.9527C31.7468 46.9678 31.6843 46.8999 31.6104 46.8598C30.2024 46.0986 28.7983 45.333 27.3852 44.5782C27.1966 44.4771 27.1271 44.3697 27.1482 44.1637C27.3068 42.6263 27.4508 41.0889 27.5992 39.5509L27.6298 39.2344V39.235Z" fill="black"/>
<path d="M49.0788 46.9885C49.2438 45.2822 49.405 43.6223 49.5617 41.9618C49.5712 41.8632 49.6216 41.8105 49.7159 41.764C51.3851 40.9407 53.053 40.1161 54.7223 39.2928C54.7375 39.2852 54.7617 39.2915 54.7879 39.2915C54.8465 39.3619 54.8063 39.4491 54.7987 39.5289C54.6515 41.0776 54.4999 42.6263 54.354 44.1743C54.3393 44.3326 54.3062 44.4507 54.1164 44.5424C52.4987 45.3268 50.8869 46.1212 49.2724 46.9112C49.2272 46.9332 49.1775 46.9489 49.0781 46.9879L49.0788 46.9885Z" fill="black"/>
<path d="M47.5307 25.9086C46.7802 26.2792 46.0845 26.6227 45.3882 26.9662C44.4204 27.4435 43.4514 27.9183 42.4855 28.3981C42.3428 28.469 42.2319 28.5042 42.0809 28.4207C40.6226 27.6137 39.1573 26.8155 37.6951 26.0135C37.646 25.9865 37.5779 25.9714 37.5664 25.8804C38.1481 25.5921 38.7374 25.2994 39.3274 25.0074C40.3901 24.4811 41.4528 23.9555 42.5154 23.4292C42.639 23.3683 42.7448 23.2992 42.8939 23.3815C44.4166 24.2167 45.9437 25.0451 47.5307 25.9086Z" fill="black"/>
</g>
<path d="M35.297 44.1372C35.4301 42.7568 35.5569 41.3764 35.7035 39.9966C35.727 39.7762 35.648 39.6669 35.4531 39.5621C32.9027 38.1867 30.3594 36.8013 27.8084 35.4266C27.6103 35.3198 27.5358 35.2093 27.5587 34.9907C27.7199 33.4427 27.8683 31.8946 28.0085 30.3465C28.027 30.1431 28.1111 30.0325 28.3226 29.9302C29.8905 29.1671 31.454 28.3959 33.0123 27.6172C33.2289 27.5092 33.3767 27.5004 33.58 27.6128C36.1023 29.0089 38.6348 30.3924 41.1577 31.7878C41.368 31.904 41.5253 31.9028 41.7566 31.7878C44.5624 30.3943 47.3746 29.0114 50.1811 27.6197C50.3932 27.5148 50.5436 27.4935 50.7513 27.609C52.1402 28.3808 53.538 29.1414 54.9421 29.8931C55.1594 30.0093 55.2422 30.1311 55.218 30.371C55.0638 31.9097 54.9243 33.4489 54.7963 34.9876C54.7784 35.2049 54.6873 35.3179 54.4681 35.4253C51.6521 36.8007 48.8419 38.1861 46.0252 39.5608C45.806 39.6676 45.713 39.7756 45.6933 39.9935C45.4359 42.7631 45.1613 45.5332 44.9039 48.3028C44.8816 48.5396 44.7829 48.6626 44.5388 48.7801C42.9875 49.528 41.4425 50.2886 39.9013 51.0554C39.6911 51.1596 39.5484 51.1615 39.3579 51.0573C37.9556 50.2861 36.5483 49.5224 35.1339 48.7681C34.9351 48.662 34.8625 48.5534 34.8854 48.3348C35.0339 46.9362 35.1626 45.537 35.2976 44.1384L35.297 44.1372Z" fill="white"/>
<path d="M18.9868 34.5156C20.0801 35.1122 21.1115 35.6749 22.143 36.2389C22.6024 36.4901 23.0554 36.7507 23.5236 36.99C23.7001 37.0804 23.7434 37.1872 23.7256 37.3668C23.4561 40.1464 23.1987 42.926 22.9254 45.7056C22.9044 45.9223 22.9725 46.0347 23.1694 46.1415C25.7095 47.5149 28.242 48.8991 30.7828 50.2719C30.9994 50.3894 31.0708 50.515 31.0453 50.7536C30.8828 52.2741 30.744 53.7945 30.5968 55.3149C30.5662 55.6333 30.5643 55.6346 30.2585 55.4688C26.13 53.2299 22.0022 50.9898 17.8706 48.754C17.6967 48.6598 17.624 48.56 17.6438 48.3621C18.0878 43.8385 18.523 39.3143 18.96 34.7907L18.9868 34.5163V34.5156Z" fill="white"/>
<path d="M63.4259 34.5312C63.4138 34.66 63.4056 34.7423 63.3973 34.8252C62.9621 39.3306 62.5257 43.8359 62.0976 48.3407C62.0785 48.5442 61.9956 48.6547 61.7854 48.7577C57.2212 50.9916 52.6614 53.2317 48.0991 55.4687C48.0086 55.5133 47.9079 55.6213 47.8136 55.5654C47.727 55.5139 47.7933 55.3933 47.8015 55.3048C47.9474 53.7655 48.1016 52.2269 48.2399 50.6876C48.2577 50.491 48.3456 50.3937 48.5412 50.2976C51.356 48.9185 54.165 47.5293 56.9803 46.1508C57.2091 46.039 57.304 45.9197 57.325 45.6942C57.5881 42.9241 57.8659 40.1539 58.1341 37.3831C58.1507 37.2123 58.194 37.0961 58.3928 36.9987C59.9983 36.2143 61.5968 35.4186 63.1979 34.6273C63.2533 34.5997 63.3125 34.5784 63.4247 34.5312H63.4259Z" fill="white"/>
<path d="M28.8984 21.1927C29.7439 20.7751 30.5556 20.3738 31.3679 19.9731C35.223 18.0708 39.0794 16.1692 42.9332 14.2644C43.0772 14.1934 43.183 14.162 43.3346 14.2443C47.5414 16.541 51.7527 18.832 55.9633 21.1236C55.9888 21.1374 56.0105 21.1569 56.0398 21.1776C55.9837 21.285 55.8595 21.3082 55.7627 21.356C54.2017 22.1316 52.637 22.9003 51.0793 23.6809C50.8984 23.7713 50.7818 23.765 50.6244 23.679C48.0683 22.2785 45.5046 20.8875 42.9524 19.4826C42.7256 19.3576 42.558 19.3752 42.3242 19.4914C39.5292 20.8818 36.7278 22.2628 33.9341 23.6558C33.708 23.7688 33.5646 23.7569 33.369 23.6482C32.0056 22.8902 30.6333 22.1454 29.2635 21.3955C29.152 21.3346 29.0418 21.2712 28.8991 21.1908L28.8984 21.1927Z" fill="white"/>
<path d="M29.8352 25.6544C28.1921 26.4633 26.5751 27.2677 24.948 28.0534C24.6791 28.1834 24.5861 28.3272 24.5638 28.579C24.4313 30.0894 24.279 31.6004 24.1325 33.1108C24.1038 33.4054 24.1012 33.406 23.8247 33.2553C22.4116 32.4828 21.0011 31.7072 19.5829 30.941C19.4051 30.8449 19.3427 30.7394 19.3631 30.5454C19.5224 28.9973 19.6708 27.4499 19.8129 25.9018C19.8301 25.714 19.897 25.6048 20.1028 25.5043C21.6987 24.7262 23.287 23.9349 24.8766 23.1454C25.0053 23.0814 25.1098 23.0318 25.2544 23.1115C26.7599 23.9399 28.2711 24.7607 29.7798 25.5847C29.7951 25.5928 29.8021 25.6117 29.8352 25.6544Z" fill="white"/>
<path d="M58.5355 33.3395C58.4928 33.2465 58.5297 33.1435 58.5393 33.0443C58.6833 31.5339 58.8234 30.0236 58.9821 28.5138C59.005 28.2953 58.9324 28.1854 58.7355 28.0792C57.3689 27.3426 56.0106 26.5958 54.6523 25.8491C54.5344 25.7844 54.3949 25.7392 54.293 25.6105C54.8918 25.3134 55.4812 25.0208 56.0705 24.7294C57.1338 24.2031 58.1991 23.6806 59.2586 23.1468C59.4344 23.0582 59.5574 23.0538 59.7186 23.1424C61.1629 23.9368 62.6123 24.7262 64.0655 25.5094C64.2248 25.5954 64.2802 25.6896 64.263 25.8617C64.1038 27.4374 63.9528 29.0125 63.805 30.5881C63.7916 30.732 63.7438 30.8262 63.5833 30.904C61.9599 31.6972 60.3404 32.4979 58.7189 33.2949C58.6661 33.3213 58.6125 33.3715 58.5361 33.3389L58.5355 33.3395Z" fill="white"/>
<path d="M34.2178 54.8849C34.2923 54.1112 34.3738 53.3375 34.4376 52.5638C34.4567 52.3301 34.5191 52.3169 34.7249 52.4306C36.1329 53.2087 37.5517 53.9737 38.9572 54.7555C39.1598 54.8679 39.3082 54.8636 39.5287 54.753C41.0775 53.9793 42.6333 53.2175 44.1872 52.4532C44.5032 52.2975 44.5051 52.2987 44.4745 52.6127C44.3267 54.1514 44.1738 55.6894 44.0343 57.2274C44.0177 57.4127 43.9374 57.51 43.7527 57.5998C42.1574 58.3786 40.5646 59.1617 38.9769 59.953C38.7858 60.0485 38.6603 60.0422 38.4927 59.9492C37.0765 59.1655 35.6563 58.3861 34.2292 57.6168C34.0285 57.5088 33.9642 57.3919 33.9897 57.1778C34.0795 56.4135 34.1439 55.6492 34.2178 54.8843V54.8849Z" fill="white"/>
<path d="M27.1767 38.9538C27.9922 39.3996 28.7522 39.8154 29.5123 40.2311C30.2571 40.6387 30.9993 41.0494 31.7479 41.452C31.8747 41.5205 31.9289 41.592 31.9142 41.734C31.7537 43.3367 31.6007 44.9394 31.4453 46.5421C31.4408 46.5854 31.4287 46.6294 31.4204 46.6714C31.2937 46.6865 31.2312 46.6187 31.1573 46.5785C29.7493 45.8173 28.3451 45.0518 26.932 44.2969C26.7434 44.1958 26.674 44.0884 26.695 43.8824C26.8537 42.345 26.9977 40.8077 27.1461 39.2696L27.1767 38.9531V38.9538Z" fill="white"/>
<path d="M48.6256 46.7072C48.7906 45.0009 48.9518 43.3411 49.1086 41.6806C49.1181 41.582 49.1685 41.5292 49.2627 41.4828C50.932 40.6594 52.5999 39.8349 54.2691 39.0115C54.2844 39.004 54.3086 39.0103 54.3347 39.0103C54.3934 39.0806 54.3532 39.1679 54.3456 39.2477C54.1984 40.7963 54.0468 42.345 53.9009 43.8931C53.8862 44.0514 53.8531 44.1694 53.6632 44.2611C52.0456 45.0455 50.4337 45.8399 48.8193 46.63C48.7741 46.652 48.7244 46.6677 48.625 46.7066L48.6256 46.7072Z" fill="white"/>
<path d="M47.0776 25.6274C46.3271 25.9979 45.6314 26.3414 44.935 26.685C43.9673 27.1622 42.9982 27.637 42.0324 28.1168C41.8897 28.1878 41.7788 28.223 41.6278 28.1394C40.1695 27.3324 38.7041 26.5342 37.242 25.7323C37.1929 25.7052 37.1247 25.6902 37.1133 25.5991C37.695 25.3109 38.2843 25.0182 38.8742 24.7262C39.9369 24.1999 40.9996 23.6742 42.0623 23.148C42.1859 23.087 42.2917 23.018 42.4408 23.1002C43.9634 23.9355 45.4906 24.7638 47.0776 25.6274Z" fill="white"/>
<defs>
<filter id="filter0_d_869_132895" x="0.988281" y="0.992188" width="88.0117" height="86.0078" filterUnits="userSpaceOnUse" color-interpolation-filters="sRGB">
<feFlood flood-opacity="0" result="BackgroundImageFix"/>
<feColorMatrix in="SourceAlpha" type="matrix" values="0 0 0 0 0 0 0 0 0 0 0 0 0 0 0 0 0 0 127 0" result="hardAlpha"/>
<feOffset dx="3" dy="5"/>
<feGaussianBlur stdDeviation="4"/>
<feComposite in2="hardAlpha" operator="out"/>
<feColorMatrix type="matrix" values="0 0 0 0 0 0 0 0 0 0 0 0 0 0 0 0 0 0 0.2 0"/>
<feBlend mode="normal" in2="BackgroundImageFix" result="effect1_dropShadow_869_132895"/>
<feBlend mode="normal" in="SourceGraphic" in2="effect1_dropShadow_869_132895" result="shape"/>
</filter>
<linearGradient id="paint0_linear_869_132895" x1="27.6378" y1="7.21961" x2="54.079" y2="67.4387" gradientUnits="userSpaceOnUse">
<stop stop-color="#FFD600"/>
<stop offset="1" stop-color="white" stop-opacity="0.31"/>
</linearGradient>
</defs>
</svg>
