<svg width="90" height="87" viewBox="0 0 90 87" fill="none" xmlns="http://www.w3.org/2000/svg">
<g filter="url(#filter0_d_869_132881)">
<path d="M71.9849 38.3562C71.9808 38.2304 71.9762 38.1047 71.971 37.9791C71.9703 37.9556 71.9691 37.9328 71.9684 37.9094C71.9618 37.764 71.9546 37.6181 71.9461 37.4724C71.9443 37.4357 71.9419 37.3992 71.9395 37.3626C71.9326 37.2421 71.9245 37.1217 71.9157 37.0008C71.914 36.9786 71.9129 36.9564 71.9112 36.9343C71.9099 36.9248 71.9097 36.9145 71.9091 36.9049C71.8983 36.7553 71.8863 36.6046 71.8731 36.4546C71.8706 36.4217 71.8674 36.3883 71.8642 36.3555C71.8527 36.2271 71.8406 36.0987 71.8278 35.9699C71.8248 35.9376 71.8218 35.906 71.8182 35.8739C71.8025 35.723 71.7863 35.5723 71.7688 35.4217C71.7645 35.389 71.7608 35.3562 71.7571 35.3235C71.742 35.195 71.7256 35.066 71.7092 34.937C71.7063 34.915 71.7035 34.893 71.7006 34.871C71.6989 34.8586 71.6974 34.8467 71.6957 34.8342C71.6777 34.697 71.6584 34.5599 71.6386 34.4229C71.6363 34.4057 71.6334 34.388 71.6306 34.3708C71.6129 34.2505 71.5946 34.1296 71.5758 34.0088C71.569 33.9662 71.5622 33.9236 71.5554 33.8809C71.5391 33.7803 71.5223 33.6792 71.5054 33.5781C71.4981 33.5368 71.4916 33.4959 71.4844 33.4546C71.4602 33.3163 71.436 33.1781 71.4106 33.0394C71.3885 32.9209 71.3664 32.8029 71.343 32.6845C71.3419 32.6756 71.3395 32.6669 71.3378 32.658C71.3034 32.4831 71.268 32.3089 71.2314 32.1354C71.2223 32.0931 71.2131 32.0508 71.204 32.0085C71.1744 31.8697 71.1436 31.7312 71.1123 31.5933C71.1021 31.5469 71.0911 31.5 71.0802 31.4537C71.0402 31.2807 70.9989 31.1078 70.9567 30.9363C70.9518 30.9176 70.947 30.8989 70.9421 30.8796C70.9038 30.7251 70.8638 30.5708 70.8233 30.4166C70.8172 30.3933 70.8117 30.3698 70.8052 30.3471C70.7993 30.3249 70.7928 30.3034 70.787 30.2818C70.7352 30.0874 70.6822 29.8937 70.627 29.701C70.6217 29.6829 70.6163 29.6649 70.6116 29.6468C70.5595 29.4645 70.5053 29.2837 70.4505 29.1029C70.439 29.0658 70.4282 29.0291 70.4168 28.992C70.3585 28.8032 70.2993 28.6158 70.2382 28.4286C70.2261 28.391 70.2134 28.3534 70.2014 28.3163C70.1416 28.1338 70.0801 27.9521 70.0175 27.7712C70.0138 27.7614 70.0107 27.7515 70.0076 27.7417C70.0066 27.7382 70.0048 27.7342 70.0038 27.7307C69.9712 27.6371 69.938 27.5436 69.9043 27.4507C69.89 27.4103 69.8758 27.3704 69.8615 27.33C69.8136 27.1967 69.7644 27.0636 69.7148 26.9311C69.7109 26.9202 69.7066 26.9098 69.7028 26.8989C69.657 26.7774 69.6111 26.6559 69.5635 26.5347C69.5462 26.4892 69.5278 26.4445 69.51 26.3997C69.476 26.3135 69.4425 26.2273 69.408 26.1418C69.3867 26.089 69.3649 26.0362 69.3436 25.9834C69.3119 25.9054 69.2801 25.8274 69.2479 25.7501C69.2251 25.6951 69.2018 25.6401 69.1784 25.5852C69.1472 25.5107 69.1158 25.4357 69.0839 25.3613C69.0598 25.3047 69.0344 25.2482 69.0103 25.1915C68.9787 25.1195 68.9477 25.0469 68.9156 24.9756C68.8901 24.9179 68.864 24.8603 68.8379 24.8021C68.8066 24.7319 68.7747 24.6617 68.7428 24.5916C68.737 24.5797 68.7318 24.5677 68.7267 24.5556C68.6975 24.4924 68.6677 24.4292 68.6385 24.366C68.6177 24.3216 68.5976 24.2777 68.5769 24.2333C68.533 24.1406 68.4893 24.0484 68.4449 23.9558C68.4318 23.9291 68.4193 23.9017 68.4061 23.8744C68.3486 23.7551 68.2901 23.6365 68.2316 23.5185C68.2161 23.4867 68.2 23.4556 68.184 23.4244C68.1404 23.3377 68.0967 23.251 68.0532 23.1649C68.0306 23.1207 68.0076 23.0772 67.9852 23.0336C67.9474 22.96 67.9092 22.8871 67.8709 22.8136C67.8455 22.7656 67.82 22.7175 67.7946 22.6695C67.7581 22.6006 67.7217 22.5323 67.6846 22.464C67.6578 22.4144 67.6311 22.3653 67.6043 22.3157C67.568 22.2491 67.5319 22.1832 67.4951 22.1167C67.4676 22.0665 67.4396 22.0164 67.4115 21.9663C67.3749 21.9011 67.3389 21.8363 67.3017 21.7717C67.2731 21.7217 67.245 21.6716 67.2163 21.6216C67.1792 21.557 67.1421 21.4924 67.1043 21.4278C67.0757 21.3784 67.0466 21.3291 67.0174 21.2797C66.9797 21.2152 66.9414 21.1507 66.9024 21.0864C66.8734 21.0376 66.8443 20.9895 66.8153 20.9407C66.7756 20.8752 66.736 20.8103 66.6964 20.7448C66.6675 20.6979 66.6393 20.6514 66.6105 20.6045C66.5681 20.5363 66.5257 20.4682 66.4834 20.4006C66.4563 20.3576 66.4297 20.3146 66.4027 20.2722C66.3545 20.1964 66.3057 20.1206 66.2576 20.0454C66.2358 20.0108 66.2133 19.9762 66.1915 19.9422C66.1204 19.8326 66.0487 19.7229 65.9765 19.614C65.972 19.6073 65.9676 19.6007 65.9631 19.594C65.8991 19.4973 65.8344 19.4006 65.7693 19.3047C65.7664 19.3008 65.7641 19.2969 65.7612 19.293C65.6576 19.1405 65.5523 18.9887 65.4465 18.8377C65.4215 18.8023 65.3965 18.7663 65.371 18.731C65.2632 18.579 65.1556 18.4276 65.0457 18.277C65.0434 18.2737 65.0413 18.271 65.0385 18.2677C64.9307 18.1199 64.8213 17.9736 64.7115 17.8279C64.6854 17.7932 64.6594 17.7586 64.6334 17.7245C64.5223 17.5784 64.4107 17.4336 64.2981 17.2894C64.2837 17.2708 64.2687 17.2522 64.2537 17.2336C64.1506 17.1028 64.0469 16.9726 63.9423 16.8437C63.9166 16.8121 63.8915 16.7803 63.866 16.7492C63.7508 16.6085 63.6351 16.4684 63.5183 16.3291C63.4964 16.3035 63.4745 16.278 63.4532 16.2518C63.3486 16.1284 63.2436 16.0056 63.1381 15.8841C63.1149 15.8576 63.0916 15.8304 63.0684 15.8039C62.949 15.6673 62.8292 15.532 62.7076 15.3975C62.6978 15.3861 62.6879 15.3747 62.6775 15.3634C62.6649 15.3493 62.6518 15.3359 62.6392 15.3219C62.4863 15.1529 62.3317 14.9853 62.1756 14.8191C62.1569 14.7992 62.1382 14.7799 62.1195 14.76C61.96 14.5912 61.799 14.4238 61.6363 14.2579C61.6219 14.2435 61.6074 14.2291 61.5936 14.2146C61.4256 14.0445 61.2566 13.8758 61.0861 13.7091C61.0786 13.7022 61.071 13.6947 61.0642 13.6878C60.8889 13.5168 60.7115 13.348 60.5326 13.1806C60.5298 13.1779 60.5271 13.1753 60.5243 13.1726C60.3468 13.0068 60.1677 12.843 59.9871 12.6813C59.9755 12.6707 59.9634 12.6602 59.9519 12.6497C59.7774 12.4937 59.6014 12.3398 59.4238 12.1873C59.4056 12.1716 59.3874 12.1559 59.3699 12.1406C59.1964 11.9924 59.022 11.8462 58.846 11.7013C58.8233 11.6826 58.8011 11.6637 58.7784 11.6456C58.6051 11.5034 58.4304 11.3638 58.2546 11.225C58.24 11.2136 58.2253 11.2017 58.2106 11.1897C58.1926 11.1757 58.1741 11.1619 58.1561 11.1473C58.0982 11.1023 58.0404 11.0574 57.982 11.0125C57.9328 10.9742 57.883 10.9361 57.8339 10.8984C57.7749 10.8536 57.7159 10.8088 57.6569 10.7646C57.6079 10.7275 57.5589 10.6905 57.5092 10.6535C57.4491 10.6088 57.3889 10.5642 57.3281 10.5196C57.2792 10.4837 57.2309 10.4478 57.1821 10.4119C57.12 10.3669 57.0574 10.3219 56.9948 10.277C56.9474 10.2427 56.8999 10.2085 56.8525 10.1749C56.7873 10.1284 56.7209 10.0822 56.6552 10.0364C56.6099 10.0049 56.5652 9.97334 56.5199 9.94184C56.4476 9.89152 56.3749 9.84246 56.3021 9.79282C56.2635 9.76648 56.2247 9.73955 56.1854 9.71329C56.0879 9.64757 55.9904 9.58244 55.8923 9.51738C55.8779 9.5078 55.8635 9.49761 55.8485 9.4881C55.7355 9.41413 55.6225 9.34016 55.5091 9.26745C55.5071 9.2659 55.5046 9.26443 55.5026 9.26288C55.4967 9.25942 55.4915 9.25588 55.4857 9.25241C55.3195 9.14616 55.1529 9.04117 54.9854 8.93812C54.9581 8.92116 54.9315 8.90472 54.9042 8.88777C54.738 8.78575 54.5714 8.68559 54.4039 8.58677C54.3708 8.56695 54.3379 8.54772 54.3043 8.52856C54.1349 8.42939 53.9651 8.33147 53.7942 8.2349C53.773 8.22319 53.7518 8.21148 53.7305 8.19918C53.5643 8.10622 53.3976 8.01453 53.23 7.92419C53.2158 7.91638 53.2017 7.90858 53.1875 7.90077C53.1811 7.89738 53.1747 7.894 53.1683 7.89061C53.0168 7.80962 52.8642 7.72938 52.7119 7.65092C52.6747 7.63164 52.6376 7.61295 52.5999 7.59374C52.4662 7.52552 52.3326 7.45789 52.1985 7.39153C52.1729 7.37858 52.1474 7.36562 52.1219 7.35327C51.9681 7.27742 51.8133 7.20291 51.658 7.12967C51.6204 7.11165 51.5829 7.09422 51.5454 7.07679C51.41 7.01363 51.2747 6.95107 51.1382 6.88925C51.1186 6.88035 51.0995 6.87138 51.0798 6.86249C51.0722 6.85926 51.0646 6.85603 51.057 6.8522C50.9118 6.7873 50.7661 6.72308 50.6199 6.66012C50.5839 6.64492 50.5479 6.62971 50.5118 6.61391C50.3973 6.56492 50.2824 6.51659 50.1669 6.46893C50.1234 6.45109 50.0798 6.43266 50.0362 6.41481C49.9025 6.35989 49.7683 6.30624 49.6337 6.25325C49.6186 6.24738 49.604 6.24143 49.589 6.23556C49.4404 6.17715 49.2916 6.12059 49.1422 6.06471C49.1265 6.05892 49.1114 6.05304 49.0963 6.04717C49.0674 6.03647 49.038 6.02584 49.0091 6.01513C48.9088 5.97818 48.8091 5.94174 48.7083 5.90545C48.6613 5.88867 48.6137 5.87137 48.5667 5.85458C48.4553 5.81545 48.344 5.77632 48.2322 5.73846C48.1996 5.72702 48.1672 5.71619 48.1346 5.70476C47.9916 5.65649 47.8481 5.6089 47.7048 5.56309C47.6693 5.55145 47.6332 5.54048 47.5977 5.52944C47.4881 5.49431 47.3779 5.45986 47.2679 5.42659C47.2461 5.41978 47.2249 5.4129 47.2032 5.4067C47.1746 5.39777 47.1461 5.39003 47.1175 5.38111C47.025 5.3534 46.9318 5.32578 46.8393 5.29866C46.7891 5.28412 46.7394 5.26951 46.6892 5.25497C46.5856 5.22509 46.4815 5.19647 46.3781 5.16778C46.3404 5.15764 46.3026 5.1469 46.2647 5.13616C46.1236 5.09792 45.982 5.06035 45.8406 5.02397C45.811 5.01638 45.7814 5.0094 45.7518 5.00181C45.6394 4.97309 45.5265 4.94504 45.4137 4.91818C45.3971 4.91432 45.381 4.90979 45.3644 4.90594C45.3305 4.89771 45.2967 4.89066 45.2634 4.88236C45.1722 4.86051 45.0805 4.83934 44.9895 4.81869C44.9359 4.80639 44.8825 4.79469 44.829 4.78299C44.738 4.76293 44.6465 4.74295 44.555 4.72356C44.5035 4.71281 44.4525 4.7014 44.401 4.69125C44.2979 4.66976 44.195 4.64946 44.0921 4.62916C44.0535 4.62155 44.0142 4.61342 43.9756 4.60581C43.8341 4.57849 43.6923 4.55244 43.5499 4.52706C43.5456 4.52641 43.5419 4.52569 43.5377 4.52504C43.5114 4.52064 43.4852 4.51623 43.459 4.51183C43.3478 4.49261 43.2373 4.47331 43.1257 4.45536C43.0756 4.44684 43.0252 4.43958 42.9752 4.43165C42.8832 4.41717 42.7906 4.40276 42.6986 4.38888C42.6439 4.38097 42.589 4.37247 42.5344 4.36516C42.4449 4.35215 42.3556 4.33974 42.2663 4.32792C42.2116 4.32061 42.157 4.31329 42.1017 4.30606C42.0082 4.29419 41.9148 4.28231 41.8208 4.27111C41.7844 4.26683 41.748 4.26195 41.711 4.25775C41.6977 4.25648 41.6844 4.25521 41.6717 4.25326C41.5541 4.23972 41.4367 4.22737 41.3187 4.2151C41.2933 4.2124 41.2685 4.20962 41.243 4.20692C41.1003 4.19247 40.9571 4.17927 40.814 4.16668C40.773 4.16301 40.732 4.15995 40.691 4.15688C40.5885 4.14861 40.4859 4.14035 40.3835 4.13268C40.3305 4.12878 40.2775 4.12547 40.224 4.12224C40.1325 4.11615 40.0404 4.11014 39.9484 4.10532C39.9214 4.10404 39.8948 4.10149 39.8678 4.10021C39.8395 4.0985 39.8114 4.09796 39.7831 4.09625C39.687 4.09137 39.5915 4.08701 39.4955 4.08272C39.4433 4.08053 39.3917 4.07826 39.3395 4.07606C39.2303 4.07229 39.1212 4.06851 39.0117 4.066C38.974 4.06493 38.9362 4.06385 38.8985 4.06277C38.7519 4.0597 38.6053 4.05722 38.4584 4.05601C38.4255 4.05551 38.3922 4.05626 38.3593 4.05576C38.2452 4.05505 38.1312 4.05495 38.0168 4.0561C38.0001 4.05648 37.9833 4.05567 37.9666 4.05605C37.9338 4.05614 37.9006 4.05749 37.8672 4.05765C37.7635 4.05861 37.6599 4.06075 37.5564 4.06289C37.5034 4.06382 37.4505 4.06535 37.397 4.06695C37.2906 4.07007 37.1837 4.07386 37.0773 4.07758C37.031 4.07944 36.9852 4.08063 36.939 4.08309C36.7883 4.08962 36.6371 4.09683 36.4861 4.10582C36.4743 4.10677 36.4624 4.10712 36.45 4.10815C36.3108 4.11619 36.1712 4.1255 36.0317 4.13599C36.0164 4.1374 36.0009 4.13762 35.9856 4.13904C35.93 4.14332 35.874 4.14828 35.8185 4.15256C35.7641 4.15669 35.7098 4.16142 35.6555 4.16555C35.577 4.17225 35.4992 4.17947 35.4207 4.18676C35.3701 4.19162 35.3199 4.1958 35.2693 4.20125C35.1827 4.20963 35.0962 4.21919 35.0103 4.22868C34.9679 4.23305 34.9249 4.23749 34.8826 4.24246C34.7539 4.25698 34.6246 4.27218 34.496 4.28849C34.3023 4.31277 34.1094 4.33935 33.9173 4.36705C33.9085 4.3682 33.8997 4.36936 33.8909 4.37052C33.8225 4.38074 33.7553 4.39199 33.6868 4.40221C33.5786 4.41886 33.4704 4.43492 33.3629 4.45269C33.2822 4.46572 33.2024 4.48045 33.1219 4.49466C33.0187 4.51248 32.9148 4.53038 32.8122 4.54931C32.7301 4.56435 32.6481 4.58058 32.5661 4.59681C32.466 4.61602 32.3652 4.63532 32.2659 4.65564C32.1828 4.67262 32.1004 4.69071 32.018 4.7082C31.9199 4.72897 31.8217 4.74974 31.7238 4.77169C31.7011 4.77648 31.6785 4.78127 31.6564 4.78599C31.5347 4.81348 31.4138 4.84209 31.2929 4.87129C31.268 4.87758 31.2431 4.88327 31.2183 4.88956C31.0714 4.92521 30.9253 4.96196 30.7793 4.9999C30.7637 5.00377 30.7481 5.00763 30.7325 5.01209C30.5797 5.05215 30.4275 5.09332 30.2762 5.13619C30.2452 5.14511 30.2141 5.15344 30.183 5.16236C30.0335 5.205 29.8846 5.24816 29.7364 5.29242C29.7129 5.29975 29.6894 5.30707 29.6658 5.3138C29.5236 5.35729 29.382 5.40131 29.2411 5.44643C29.2245 5.45164 29.2078 5.45685 29.1906 5.46213C29.1827 5.465 29.1746 5.46727 29.1666 5.46953C29.0229 5.51623 28.8806 5.56396 28.7384 5.61229C28.6984 5.62601 28.6584 5.63973 28.6185 5.65404C28.5044 5.69383 28.3909 5.73355 28.2781 5.77437C28.2337 5.79049 28.1892 5.80661 28.1448 5.82273C28.011 5.87176 27.878 5.9219 27.7456 5.97255C27.7302 5.9782 27.7149 5.98385 27.7002 5.99001C27.5531 6.04683 27.4073 6.10469 27.2617 6.16373C27.221 6.18057 27.1796 6.19749 27.1389 6.21434C27.0296 6.25953 26.9204 6.30472 26.8113 6.3511C26.769 6.36936 26.7271 6.38696 26.6848 6.40522C26.5407 6.46708 26.3975 6.53005 26.2544 6.5948L21.8258 8.59461C21.9683 8.53053 22.1116 8.46756 22.2556 8.40511C22.2979 8.38685 22.3403 8.36918 22.3827 8.35092C22.4912 8.30461 22.5998 8.2595 22.7091 8.21431C22.7504 8.19739 22.7911 8.18054 22.8325 8.16362C22.9781 8.10458 23.1238 8.04673 23.2703 7.98998C23.2856 7.98374 23.3016 7.97802 23.3175 7.97229C23.4499 7.92163 23.5824 7.87157 23.7157 7.82322C23.7601 7.8071 23.8045 7.79098 23.8495 7.77478C23.9623 7.73396 24.0758 7.69365 24.19 7.65445C24.2299 7.64073 24.2698 7.62642 24.3098 7.6127C24.46 7.56151 24.6109 7.51084 24.762 7.46195C24.7786 7.45674 24.7952 7.45153 24.8125 7.44625C24.9539 7.40105 25.0954 7.35644 25.2378 7.31354C25.2613 7.30621 25.2842 7.29897 25.3078 7.29224C25.4564 7.2473 25.6053 7.20414 25.7549 7.1615C25.7859 7.15258 25.8165 7.14433 25.8475 7.13541C25.9989 7.09313 26.151 7.05137 26.3038 7.01132C26.3194 7.00745 26.3355 7.00291 26.3517 6.99897C26.4971 6.9611 26.6433 6.92435 26.7896 6.88878C26.8144 6.8825 26.8393 6.87621 26.8642 6.87051C27.007 6.836 27.1513 6.80312 27.2956 6.77083C27.393 6.74896 27.4917 6.72811 27.5898 6.70735C27.6723 6.68985 27.7546 6.67177 27.8377 6.65479C27.9377 6.63438 28.0378 6.61517 28.1379 6.59595C28.22 6.58032 28.302 6.5635 28.3841 6.54845C28.4867 6.52952 28.5899 6.5117 28.6932 6.49388C28.7737 6.47967 28.8542 6.46545 28.9348 6.45183C29.0416 6.43414 29.1493 6.41816 29.257 6.40158C29.3342 6.38961 29.4113 6.37705 29.4891 6.3656C29.6812 6.3379 29.8741 6.31132 30.0678 6.28704C30.1969 6.27065 30.3256 6.25553 30.4544 6.24101C30.4973 6.23597 30.5404 6.23211 30.5833 6.22707C30.6692 6.21759 30.7551 6.2087 30.8411 6.1998C30.8923 6.19487 30.9436 6.18994 30.995 6.1856C31.0728 6.17838 31.15 6.17124 31.2278 6.16402C31.2827 6.15922 31.3377 6.15501 31.3926 6.15081C31.4635 6.14511 31.5337 6.13949 31.6047 6.13438C31.7447 6.12381 31.8849 6.11443 32.0253 6.10624C32.0365 6.10537 32.0477 6.10449 32.059 6.10422C32.2106 6.09515 32.3618 6.08794 32.5125 6.08141C32.5583 6.07962 32.604 6.07784 32.6497 6.07605C32.7566 6.07226 32.8635 6.06846 32.9705 6.06526C33.0234 6.06374 33.0758 6.0623 33.1288 6.06137C33.2329 6.05915 33.3371 6.05752 33.4408 6.05597C33.4902 6.05551 33.5396 6.05445 33.5892 6.05457C33.7037 6.05401 33.8183 6.05404 33.9322 6.05415C33.9651 6.05407 33.9979 6.05398 34.0313 6.05441C34.1783 6.05562 34.3248 6.0581 34.4715 6.06117C34.5092 6.06224 34.5469 6.06332 34.5847 6.0644C34.6943 6.0675 34.8033 6.07068 34.9124 6.07446C34.9646 6.07665 35.0162 6.07892 35.0685 6.08112C35.1645 6.0854 35.2605 6.08969 35.3561 6.09464C35.4114 6.09764 35.4661 6.10072 35.5214 6.10371C35.6134 6.10913 35.7054 6.11455 35.7976 6.12116C35.8505 6.12446 35.9035 6.12777 35.9559 6.13175C36.059 6.13934 36.1614 6.14701 36.2641 6.15587C36.305 6.15894 36.346 6.162 36.3871 6.16567C36.5302 6.17826 36.6733 6.19146 36.8161 6.20591C36.8415 6.20861 36.8663 6.21139 36.8918 6.21409C37.0097 6.22636 37.1277 6.23864 37.2453 6.25218C37.2944 6.25781 37.3435 6.26403 37.3932 6.26958C37.4872 6.28078 37.5812 6.29258 37.6753 6.30438C37.7298 6.3111 37.7839 6.31848 37.8386 6.32579C37.9285 6.33813 38.0185 6.35047 38.1079 6.36348C38.1627 6.37139 38.2168 6.37937 38.271 6.38735C38.3635 6.40116 38.4567 6.41549 38.5494 6.43049C38.5994 6.43842 38.6494 6.44635 38.6993 6.45427C38.811 6.47282 38.9227 6.49196 39.0344 6.5111C39.0643 6.51623 39.0936 6.52084 39.1236 6.52657C39.266 6.55195 39.4079 6.578 39.5499 6.60524C39.5878 6.61234 39.6265 6.62054 39.6644 6.62764C39.7685 6.64778 39.8721 6.6686 39.9758 6.69001C40.0268 6.70083 40.0777 6.71165 40.1287 6.72247C40.2207 6.74178 40.3123 6.76177 40.4039 6.78235C40.4568 6.79412 40.5102 6.80582 40.5632 6.81819C40.6555 6.83929 40.7472 6.86046 40.8389 6.88223C40.8888 6.8938 40.9387 6.90536 40.988 6.91761C41.1014 6.94499 41.2143 6.97304 41.3273 7.00168C41.3569 7.00927 41.3859 7.01633 41.4156 7.02391C41.557 7.0603 41.6986 7.09787 41.8397 7.13611C41.8774 7.14625 41.9147 7.15706 41.9524 7.16721C42.0564 7.19582 42.1605 7.22503 42.2647 7.25484C42.3143 7.26886 42.364 7.28348 42.4136 7.29809C42.5067 7.32513 42.5998 7.35276 42.6931 7.38098C42.7428 7.39619 42.7925 7.41081 42.8422 7.42602C42.9529 7.4598 43.063 7.49426 43.1733 7.52931C43.2088 7.54035 43.2436 7.55148 43.2792 7.56311C43.4231 7.60944 43.5666 7.65703 43.7097 7.7053C43.7421 7.71613 43.7747 7.72757 43.8071 7.7384C43.919 7.77686 44.0309 7.81532 44.1422 7.85445C44.1898 7.87116 44.2368 7.88794 44.2838 7.90532C44.3847 7.94161 44.4849 7.97797 44.5847 8.015C44.6292 8.0315 44.6731 8.04748 44.7177 8.06458C44.8671 8.12046 45.0161 8.17761 45.1645 8.23543C45.179 8.24138 45.1941 8.24725 45.2086 8.2532C45.3433 8.30618 45.4781 8.36036 45.6119 8.41528C45.6554 8.43312 45.6989 8.45096 45.7419 8.46888C45.8573 8.51654 45.9723 8.56486 46.0874 8.61438C46.1234 8.62958 46.1589 8.64486 46.1949 8.66006C46.341 8.72302 46.4867 8.78725 46.632 8.85274C46.6587 8.86494 46.6853 8.87715 46.7126 8.88927C46.849 8.95109 46.985 9.01358 47.1205 9.07734C47.158 9.09476 47.1955 9.11219 47.2324 9.12969C47.3876 9.20293 47.5425 9.27744 47.6968 9.35321C47.7223 9.36557 47.7473 9.3786 47.7722 9.39103C47.907 9.45791 48.0412 9.52546 48.1755 9.5942C48.2126 9.61289 48.2491 9.63166 48.2862 9.65095C48.4392 9.72992 48.5918 9.81016 48.7433 9.89115C48.7632 9.90183 48.7838 9.91302 48.8037 9.9237C48.9713 10.014 49.1386 10.1062 49.3054 10.1991C49.3267 10.2108 49.3473 10.2226 49.3685 10.2343C49.5394 10.3309 49.7098 10.4287 49.8792 10.5279C49.9122 10.5471 49.9451 10.5664 49.9775 10.5857C50.1451 10.6845 50.3123 10.7852 50.4785 10.8872C50.5051 10.9036 50.5324 10.9206 50.559 10.937C50.7272 11.0406 50.8944 11.1455 51.0612 11.2523C51.0684 11.2568 51.0762 11.2618 51.0833 11.2663C51.1968 11.3396 51.3103 11.4129 51.4234 11.4875C51.4358 11.4955 51.4482 11.5041 51.4607 11.5128C51.5607 11.5788 51.6608 11.6454 51.7603 11.7126C51.7983 11.7385 51.8364 11.7649 51.8744 11.7907C51.9479 11.8409 52.0213 11.891 52.0948 11.9418C52.1395 11.9728 52.1836 12.0038 52.2283 12.0354C52.2946 12.0817 52.3611 12.1285 52.4275 12.1754C52.4743 12.2091 52.5211 12.2428 52.5685 12.2765C52.6318 12.322 52.695 12.3668 52.7578 12.4129C52.806 12.4483 52.8542 12.4837 52.9018 12.5191C52.9627 12.5643 53.024 12.6088 53.0849 12.6545C53.1339 12.691 53.1823 12.7275 53.2307 12.7647C53.2903 12.8094 53.35 12.8547 53.4097 12.9001C53.4588 12.9377 53.5073 12.9755 53.5564 13.0131C53.6149 13.0586 53.6733 13.1035 53.7319 13.1496C53.7645 13.1749 53.7966 13.2009 53.8291 13.2262C54.0049 13.365 54.1797 13.5046 54.3529 13.6468C54.3756 13.665 54.3978 13.6838 54.4205 13.7025C54.5965 13.8474 54.7709 13.9937 54.9444 14.1419C54.9626 14.1576 54.9808 14.1733 54.9989 14.1885C55.1765 14.341 55.3525 14.4949 55.527 14.6508C55.5385 14.6614 55.5506 14.6718 55.5622 14.6824C55.7428 14.8442 55.9219 15.008 56.0995 15.1737C56.1022 15.1764 56.1049 15.1791 56.1077 15.1817C56.2866 15.3485 56.4634 15.5181 56.6387 15.689C56.6462 15.6964 56.6537 15.7033 56.6613 15.7108C56.8324 15.8774 57.0014 16.0462 57.1694 16.2168C57.1839 16.2312 57.1977 16.2457 57.2121 16.2596C57.3747 16.4255 57.5358 16.5928 57.6953 16.7622C57.714 16.7815 57.7327 16.8014 57.7508 16.8208C57.9069 16.987 58.0615 17.1546 58.2144 17.3236C58.2373 17.3484 58.2598 17.3738 58.2827 17.3986C58.4037 17.5332 58.5241 17.6684 58.6435 17.805C58.6667 17.8316 58.69 17.8587 58.7132 17.8853C58.8187 18.0068 58.9237 18.1289 59.0276 18.2524C59.0496 18.2785 59.0714 18.3041 59.0934 18.3302C59.2102 18.4695 59.3259 18.6096 59.4411 18.7504C59.4666 18.7814 59.4917 18.8132 59.5173 18.8443C59.622 18.9737 59.7264 19.1044 59.8296 19.2359C59.8439 19.2539 59.8582 19.272 59.8726 19.2907C59.9859 19.4347 60.0976 19.5807 60.2087 19.7269C60.2347 19.7609 60.2607 19.7956 60.2867 19.8296C60.3972 19.9758 60.5067 20.1228 60.6144 20.2706C60.6166 20.2733 60.6187 20.276 60.6209 20.2788C60.7308 20.4293 60.839 20.5806 60.9467 20.7326C60.9717 20.768 60.9966 20.8034 61.0216 20.8388C61.1274 20.9899 61.2328 21.1422 61.337 21.2947C61.4029 21.3918 61.4682 21.4895 61.5336 21.5873C61.5396 21.5968 61.5462 21.6062 61.5522 21.6151C61.6244 21.724 61.696 21.833 61.7672 21.9427C61.7896 21.9772 61.8115 22.0118 61.834 22.0469C61.8827 22.1221 61.9308 22.1974 61.9789 22.2732C62.0061 22.3162 62.0333 22.3597 62.0605 22.4033C62.1028 22.4708 62.1451 22.5384 62.1868 22.606C62.2157 22.653 62.2446 22.7 62.2734 22.7469C62.313 22.8118 62.3526 22.8767 62.3921 22.9416C62.4212 22.9904 62.4509 23.039 62.4801 23.0884C62.5183 23.1522 62.5565 23.2161 62.5943 23.2806C62.6235 23.3306 62.6527 23.3799 62.6814 23.4299C62.7184 23.4939 62.7555 23.5579 62.7926 23.622C62.8212 23.672 62.85 23.7226 62.8787 23.7732C62.9153 23.8379 62.9518 23.9026 62.9878 23.9673C63.0159 24.0174 63.0439 24.0675 63.0715 24.1183C63.1082 24.1841 63.1443 24.2501 63.1799 24.3161C63.2067 24.3658 63.2341 24.4153 63.2609 24.465C63.298 24.5332 63.3338 24.6017 63.3703 24.67C63.3957 24.718 63.4217 24.766 63.4465 24.8141C63.4847 24.887 63.5224 24.96 63.56 25.033C63.5832 25.0771 63.6063 25.1212 63.6289 25.1659C63.673 25.252 63.716 25.3382 63.7595 25.4243C63.7756 25.456 63.7918 25.4878 63.8073 25.5196C63.8658 25.6376 63.9243 25.7562 63.9818 25.8755C63.9957 25.9039 64.009 25.9324 64.0222 25.9602C64.0658 26.0512 64.1094 26.1421 64.1525 26.2338C64.1732 26.2782 64.1941 26.3232 64.2148 26.3676C64.2497 26.4422 64.2847 26.5173 64.319 26.5926C64.351 26.6627 64.3823 26.7329 64.4142 26.8031C64.4403 26.8607 64.4663 26.9183 64.4919 26.9765C64.5234 27.0479 64.5549 27.1199 64.5858 27.1914C64.6106 27.2486 64.6361 27.3057 64.6603 27.3629C64.692 27.4361 64.7226 27.51 64.7538 27.5839C64.7773 27.64 64.8013 27.6955 64.8248 27.7516C64.857 27.8283 64.8881 27.9058 64.9198 27.9832C64.9417 28.0366 64.9635 28.0893 64.9849 28.1427C65.0194 28.2282 65.0528 28.3144 65.0869 28.4006C65.1048 28.446 65.1226 28.4908 65.1404 28.5356C65.1856 28.6523 65.2302 28.7691 65.2743 28.8866C65.2799 28.9016 65.286 28.9165 65.2917 28.932C65.3413 29.0645 65.3904 29.197 65.4383 29.3303C65.4541 29.373 65.4688 29.4164 65.4839 29.4591C65.5161 29.5497 65.5489 29.6403 65.5806 29.731C65.5854 29.7449 65.5902 29.7587 65.595 29.7726C65.6575 29.9529 65.7184 30.1347 65.7782 30.3166C65.7909 30.3542 65.8031 30.3925 65.8158 30.4301C65.8768 30.6172 65.9361 30.8046 65.9937 30.9934C66.0051 31.03 66.0159 31.0667 66.0274 31.1038C66.0822 31.2846 66.1359 31.4661 66.1885 31.6483C66.1939 31.6663 66.1992 31.6843 66.204 31.7024C66.2592 31.8952 66.3122 32.0895 66.364 32.2839C66.3759 32.3289 66.3878 32.3738 66.3997 32.4188C66.4403 32.573 66.4797 32.7274 66.5185 32.8818C66.5233 32.9005 66.5282 32.9192 66.5331 32.9385C66.5755 33.1106 66.6166 33.2828 66.6567 33.4558C66.6676 33.5021 66.6779 33.5491 66.6888 33.5954C66.7201 33.7333 66.7508 33.8719 66.7804 34.0106C66.7896 34.0529 66.7987 34.0953 66.8079 34.1376C66.8445 34.3116 66.8799 34.4858 66.9142 34.6602C66.9392 34.7868 66.9637 34.9141 66.9871 35.0416C67.0125 35.1803 67.0372 35.3184 67.0608 35.4567C67.068 35.4981 67.0746 35.5389 67.0818 35.5803C67.0987 35.6814 67.1155 35.7819 67.1318 35.8831C67.1386 35.9257 67.1454 35.9683 67.1522 36.011C67.1711 36.1318 67.1894 36.2526 67.207 36.373C67.2093 36.3902 67.2122 36.408 67.2151 36.4251C67.2349 36.5621 67.2535 36.6992 67.2722 36.8364C67.2767 36.8708 67.2811 36.9047 67.2857 36.9392C67.3026 37.0681 67.3184 37.1971 67.3335 37.3257C67.3378 37.3583 67.3416 37.3911 67.3453 37.4238C67.3628 37.575 67.379 37.7258 67.3946 37.876C67.3977 37.9082 67.4007 37.9405 67.4043 37.972C67.417 38.1003 67.4291 38.2286 67.4405 38.3565C67.4437 38.3899 67.4463 38.4234 67.4496 38.4568C67.4627 38.6067 67.4747 38.7568 67.4855 38.9065C67.4879 38.9388 67.4898 38.9712 67.4922 39.0035C67.5009 39.1238 67.5084 39.2443 67.5159 39.3648C67.5183 39.4014 67.5202 39.438 67.5227 39.4751C67.5311 39.6209 67.5384 39.7668 67.545 39.9121C67.5462 39.9355 67.547 39.9596 67.5477 39.9831C67.5529 40.1087 67.5574 40.2338 67.5614 40.359C67.5623 40.3975 67.5638 40.4366 67.5647 40.4752C67.5684 40.6209 67.5721 40.7667 67.574 40.9127C67.5742 40.9187 67.5744 40.9247 67.574 40.9308C67.5759 41.0683 67.5767 41.206 67.5769 41.3432C67.5767 41.3825 67.5772 41.4223 67.577 41.4616C67.5766 41.5813 67.5762 41.7004 67.5745 41.8191C67.5742 41.8445 67.5741 41.8705 67.5738 41.8959C67.5721 42.037 67.5685 42.1776 67.565 42.3183C67.5642 42.3535 67.563 42.3893 67.5616 42.4245C67.558 42.5374 67.5542 42.6497 67.5499 42.762C67.5487 42.7979 67.5474 42.8337 67.5456 42.8696C67.5396 43.01 67.5329 43.1498 67.5251 43.2899C67.524 43.3136 67.5224 43.3374 67.5207 43.3605C67.5137 43.4799 67.5061 43.5987 67.4978 43.7177C67.4952 43.7567 67.4925 43.7951 67.4899 43.8341C67.4804 43.9665 67.4703 44.0984 67.4591 44.2304C67.4584 44.2389 67.4577 44.2475 67.4571 44.256C67.445 44.3954 67.4323 44.5349 67.4184 44.6739C67.4148 44.7106 67.4108 44.748 67.4073 44.7847C67.3953 44.9023 67.3827 45.02 67.3696 45.1378C67.3666 45.1648 67.3641 45.1911 67.3605 45.2181C67.3448 45.3574 67.3278 45.4962 67.3102 45.6345C67.3057 45.6683 67.3011 45.7015 67.2972 45.7353C67.2823 45.8485 67.2667 45.9617 67.2512 46.0749C67.2466 46.1082 67.242 46.1414 67.2369 46.1747C67.2168 46.3127 67.1961 46.4502 67.1748 46.5872C67.1704 46.6131 67.1666 46.6384 67.1623 46.6644C67.1429 46.7848 67.1229 46.9046 67.1022 47.0246C67.0966 47.0592 67.0904 47.0932 67.0842 47.1279C67.0596 47.2677 67.0344 47.407 67.0085 47.5457C67.0043 47.5681 67 47.5898 66.9957 47.6121C66.9728 47.7329 66.9488 47.854 66.9241 47.975C66.9168 48.0098 66.9101 48.0452 66.9027 48.08C66.8744 48.2185 66.8448 48.3565 66.8146 48.4941C66.8113 48.5102 66.8074 48.5258 66.8036 48.542C66.7743 48.6734 66.7444 48.8042 66.7139 48.9352C66.7062 48.9676 66.6986 49 66.6908 49.0319C66.6575 49.1734 66.6229 49.314 66.5871 49.4546C66.5808 49.479 66.5749 49.5028 66.5686 49.5272C66.5366 49.6516 66.5041 49.7762 66.4709 49.9002C66.4628 49.9297 66.4553 49.9585 66.4472 49.9879C66.4094 50.1271 66.371 50.2663 66.3313 50.4044C66.3235 50.4309 66.3157 50.4579 66.3084 50.4842C66.2663 50.6312 66.2229 50.7777 66.1783 50.9237C66.1754 50.9338 66.172 50.9439 66.1692 50.9545C66.1228 51.1057 66.0752 51.2564 66.0269 51.4066C66.0176 51.4356 66.0084 51.4652 65.9985 51.4943C65.9509 51.6408 65.9022 51.7874 65.8527 51.9329C65.8442 51.9588 65.835 51.9842 65.8265 52.0101C65.7768 52.1544 65.726 52.2988 65.6745 52.4422C65.6714 52.4511 65.6684 52.4593 65.6653 52.4682C65.6049 52.6351 65.5432 52.8009 65.4797 52.967C65.4718 52.988 65.4643 53.0083 65.4563 53.0293C65.3955 53.1884 65.3333 53.3464 65.2699 53.504C65.2596 53.5302 65.2493 53.5557 65.239 53.5818C65.1758 53.737 65.112 53.8916 65.0464 54.0459C65.0355 54.0721 65.024 54.0978 65.0131 54.124C64.947 54.279 64.8796 54.4335 64.8109 54.5869C64.8021 54.6062 64.7933 54.6261 64.7845 54.6454C64.7038 54.8252 64.6211 55.0041 64.5371 55.182C64.5273 55.2032 64.5169 55.2239 64.5072 55.2451C64.4234 55.4205 64.3384 55.5949 64.252 55.7688C64.2412 55.7908 64.2298 55.8128 64.2189 55.8348C64.1325 56.0075 64.044 56.1787 63.9543 56.3494C63.9428 56.3715 63.9313 56.3929 63.9199 56.415C63.8296 56.5858 63.7374 56.7557 63.6438 56.9245C63.6303 56.9486 63.6168 56.9734 63.6033 56.9975C63.5434 57.1045 63.4834 57.2109 63.4227 57.3168C63.4213 57.3194 63.4193 57.3227 63.4179 57.3253C63.3552 57.4338 63.2919 57.5425 63.2284 57.6499C63.2099 57.6814 63.1908 57.7129 63.1722 57.7444C63.1244 57.825 63.0758 57.9051 63.0273 57.9852C63.0087 58.0161 62.9895 58.047 62.9708 58.0779C62.9055 58.1844 62.8395 58.2909 62.7723 58.3971C62.7689 58.4024 62.7654 58.4076 62.7619 58.4129C62.6982 58.5138 62.6337 58.6135 62.5693 58.7133C62.5489 58.7443 62.5291 58.7753 62.5087 58.8064C62.457 58.8851 62.4052 58.9633 62.3534 59.0414C62.334 59.0705 62.3146 59.0997 62.2951 59.1288C62.2258 59.2322 62.1558 59.3351 62.0845 59.4375C62.0765 59.4489 62.0685 59.4608 62.0604 59.4721C61.9972 59.5633 61.9328 59.6545 61.869 59.7451C61.8488 59.7731 61.8287 59.8018 61.8085 59.8298C61.7344 59.9332 61.6602 60.0361 61.5847 60.1384C61.5761 60.1499 61.568 60.1612 61.5594 60.1726C61.4773 60.2837 61.3946 60.3943 61.3112 60.5038C61.2908 60.5306 61.2704 60.5569 61.2501 60.5837C61.1701 60.6879 61.0901 60.7921 61.0088 60.8953C61.0037 60.902 60.998 60.9088 60.9929 60.9155C60.9076 61.024 60.8209 61.1321 60.7336 61.2397C60.7126 61.266 60.691 61.2918 60.67 61.3182C60.5826 61.4252 60.4946 61.5316 60.4058 61.6376L60.4037 61.6396C60.3145 61.7463 60.2239 61.8513 60.1327 61.9563C60.111 61.9815 60.0886 62.0068 60.0669 62.0327C59.9763 62.137 59.8843 62.241 59.7922 62.3438C59.7886 62.3479 59.7844 62.3526 59.7802 62.3568C59.6906 62.4562 59.601 62.5551 59.51 62.6528C59.4876 62.6775 59.4651 62.7017 59.442 62.7258C59.3479 62.8271 59.2537 62.9271 59.1588 63.0266C59.1504 63.0356 59.1419 63.0439 59.1336 63.0529C59.0448 63.1449 58.956 63.2364 58.866 63.328C58.8429 63.3516 58.8197 63.3752 58.796 63.3988C58.6996 63.4961 58.6025 63.5929 58.5047 63.6886C58.4919 63.7005 58.4798 63.713 58.4671 63.7249C58.3782 63.8116 58.2892 63.897 58.1996 63.9825C58.1763 64.0049 58.1524 64.0274 58.129 64.0492C58.0298 64.1433 57.9298 64.2362 57.8286 64.3287C57.8132 64.3428 57.7971 64.357 57.7818 64.3717C57.6923 64.4536 57.6021 64.5343 57.5118 64.6151C57.4884 64.6363 57.4648 64.6569 57.4408 64.6782C57.3386 64.7684 57.2359 64.8587 57.1324 64.9472C57.1142 64.9629 57.096 64.9786 57.0777 64.9937C56.9865 65.0716 56.8952 65.1489 56.8032 65.225C56.78 65.2444 56.7563 65.2638 56.7332 65.2832C56.6283 65.3701 56.5227 65.4565 56.4158 65.5419C56.3953 65.5585 56.3742 65.5752 56.3531 65.5918C56.2602 65.6657 56.1673 65.7396 56.0736 65.8123C56.0509 65.8304 56.0276 65.848 56.0049 65.8661C55.8971 65.9498 55.7887 66.0323 55.6795 66.1144C55.6567 66.1319 55.6333 66.1488 55.6105 66.1657C55.5154 66.2369 55.4196 66.3075 55.3232 66.377C55.3014 66.3931 55.2796 66.4087 55.2579 66.4249C55.1472 66.5047 55.0353 66.5841 54.9234 66.6629C54.8988 66.68 54.8736 66.6972 54.849 66.7143C54.7506 66.7829 54.652 66.8502 54.5529 66.9177C54.5321 66.9319 54.5118 66.946 54.491 66.9597C54.3775 67.0362 54.2633 67.1117 54.1484 67.1866C54.1221 67.204 54.0951 67.2209 54.0687 67.2382C53.9664 67.3043 53.864 67.3697 53.761 67.4346C53.7428 67.4461 53.7241 67.4582 53.7059 67.4697C53.5889 67.5425 53.4719 67.6147 53.3536 67.6858C53.326 67.7028 53.2977 67.7192 53.2701 67.7361C53.1634 67.8003 53.0565 67.8633 52.9489 67.9258C52.9329 67.9352 52.9174 67.9445 52.9013 67.9538C52.7815 68.0234 52.661 68.0918 52.5404 68.159C52.5115 68.1755 52.482 68.1915 52.4531 68.2074C52.3413 68.2698 52.2283 68.3313 52.1157 68.392C52.1034 68.3984 52.0912 68.4055 52.0795 68.4119C51.9569 68.4775 51.8335 68.5421 51.71 68.6061C51.6799 68.6216 51.6497 68.637 51.6195 68.6525C51.5004 68.7135 51.3812 68.7739 51.2613 68.8332C51.254 68.8365 51.2473 68.8404 51.24 68.8438C51.1145 68.9056 50.9882 68.9664 50.8613 69.0266C50.8304 69.0415 50.7989 69.0559 50.768 69.0709C50.6405 69.1312 50.5122 69.1904 50.3832 69.2484L54.8118 67.2486C54.9409 67.1905 55.0691 67.1308 55.1967 67.0711C55.2276 67.0567 55.259 67.0417 55.2899 67.0268C55.4169 66.9666 55.5431 66.9058 55.6687 66.844C55.6754 66.8407 55.6821 66.8374 55.6889 66.8341C55.8088 66.7748 55.9285 66.7143 56.0476 66.6533C56.0778 66.6379 56.108 66.6224 56.1388 66.6069C56.2622 66.5429 56.3856 66.4783 56.5083 66.4126C56.5205 66.4062 56.5327 66.3991 56.545 66.3927C56.6582 66.3319 56.7706 66.2705 56.8824 66.2081C56.9113 66.1922 56.9408 66.1756 56.9696 66.1592C57.0902 66.0913 57.2108 66.0235 57.3299 65.954C57.346 65.9447 57.3621 65.9353 57.3782 65.9259C57.4857 65.8634 57.592 65.8005 57.6987 65.7363C57.7269 65.7193 57.7546 65.7029 57.7828 65.6859C57.9006 65.6148 58.0176 65.5427 58.1345 65.4699C58.1533 65.4583 58.172 65.4462 58.1908 65.4347C58.2933 65.3704 58.3957 65.305 58.4974 65.239C58.5244 65.2216 58.5507 65.2042 58.5777 65.1867C58.6925 65.1118 58.8067 65.0363 58.9202 64.9598C58.941 64.9456 58.9613 64.932 58.9821 64.9178C59.0813 64.851 59.1798 64.783 59.2782 64.7145C59.3034 64.6972 59.328 64.6801 59.3531 64.6623C59.4651 64.5841 59.5764 64.5048 59.6871 64.425C59.7088 64.4088 59.7312 64.3932 59.753 64.377C59.8494 64.3069 59.9452 64.2369 60.0403 64.1658C60.0631 64.1489 60.086 64.132 60.1093 64.1144C60.2185 64.0324 60.327 63.9498 60.4347 63.8661C60.4575 63.8486 60.4807 63.8305 60.5034 63.8124C60.5971 63.7396 60.6901 63.6663 60.7829 63.5919C60.804 63.5752 60.8251 63.5585 60.8461 63.5413C60.9524 63.456 61.058 63.3695 61.163 63.2826C61.1867 63.2632 61.2097 63.2432 61.2334 63.2238C61.3254 63.1476 61.4161 63.0704 61.5073 62.9926C61.5255 62.9769 61.5444 62.9611 61.5626 62.9454C61.666 62.8562 61.7688 62.7666 61.8709 62.6764C61.8944 62.6552 61.9179 62.6346 61.942 62.6133C62.0322 62.5325 62.1224 62.4517 62.2113 62.3699C62.2274 62.3557 62.2427 62.341 62.2588 62.3268C62.3594 62.2344 62.4594 62.1415 62.5586 62.0475C62.5825 62.025 62.6058 62.0026 62.6297 61.9801C62.7194 61.8952 62.8083 61.8091 62.8967 61.7232C62.9093 61.7106 62.9221 61.6987 62.9348 61.6861C63.0326 61.5905 63.1297 61.4937 63.2255 61.3965C63.2492 61.3728 63.2723 61.3486 63.296 61.325C63.3855 61.234 63.4744 61.1432 63.5626 61.0512C63.5715 61.0422 63.5799 61.0332 63.5888 61.0242C63.6838 60.9247 63.778 60.8246 63.8716 60.7241C63.8946 60.6993 63.9176 60.6745 63.94 60.6498C64.0298 60.5522 64.1196 60.4546 64.2086 60.3552C64.2127 60.3505 64.2175 60.3456 64.2216 60.3408C64.3137 60.2381 64.4051 60.1342 64.4958 60.0298C64.5181 60.0045 64.5404 59.9786 64.5626 59.9527C64.6532 59.8477 64.7433 59.7428 64.8326 59.6368L64.8356 59.6328C64.9238 59.5275 65.0113 59.4217 65.0982 59.3154C65.1198 59.289 65.1414 59.2626 65.1624 59.2362C65.2492 59.1293 65.3358 59.0213 65.4212 58.9127C65.4268 58.9053 65.4324 58.898 65.438 58.8906C65.5187 58.7875 65.5988 58.6845 65.6782 58.5804C65.6986 58.5535 65.7195 58.5266 65.7398 58.4997C65.8233 58.3903 65.906 58.2797 65.9881 58.1686C65.9967 58.1571 66.0053 58.1451 66.0133 58.1338C66.0882 58.0315 66.1625 57.9293 66.2366 57.8258C66.2477 57.8105 66.2589 57.7957 66.2694 57.7804C66.2784 57.7672 66.288 57.7538 66.2971 57.7411C66.361 57.6511 66.4248 57.56 66.488 57.4688C66.496 57.4569 66.5046 57.4455 66.5126 57.4336C66.5833 57.3312 66.6533 57.2283 66.7232 57.1249C66.7427 57.0957 66.7621 57.0666 66.7815 57.0374C66.8339 56.9592 66.8857 56.8811 66.9368 56.8024C66.9572 56.7714 66.9776 56.7403 66.9974 56.7093C67.0619 56.6101 67.1257 56.5099 67.1895 56.4096C67.1929 56.4038 67.197 56.3984 67.2004 56.3925C67.267 56.287 67.333 56.1805 67.3983 56.074C67.4175 56.043 67.4362 56.0122 67.4548 55.9813C67.5033 55.9012 67.5519 55.8211 67.5997 55.7405C67.6183 55.709 67.6374 55.6775 67.6559 55.646C67.7199 55.5379 67.7833 55.4299 67.846 55.3213C67.8474 55.3187 67.8494 55.3154 67.8508 55.3128C67.9115 55.2069 67.972 55.0999 68.0313 54.9929C68.0386 54.9805 68.0459 54.9675 68.0526 54.9551C68.0588 54.9434 68.065 54.9317 68.0712 54.92C68.1648 54.7512 68.257 54.5813 68.3473 54.4105C68.3588 54.3885 68.3708 54.3663 68.3822 54.3443C68.472 54.1741 68.5598 54.0024 68.6464 53.8303C68.6578 53.8082 68.6685 53.7857 68.68 53.7636C68.7664 53.5903 68.8514 53.4159 68.9352 53.2405C68.9455 53.2192 68.9553 53.198 68.9656 53.1767C69.0496 52.9989 69.1323 52.82 69.2131 52.6402C69.2181 52.6286 69.2238 52.6176 69.2289 52.6061C69.2325 52.5977 69.2356 52.5894 69.2394 52.5817C69.3081 52.4282 69.3755 52.2737 69.4416 52.1188C69.4525 52.0926 69.4641 52.0669 69.4749 52.0407C69.5401 51.8871 69.6044 51.7323 69.6676 51.5772C69.6779 51.5511 69.6882 51.5255 69.6991 51.4993C69.7625 51.3417 69.8247 51.1837 69.8855 51.0246C69.8936 51.0042 69.9009 50.9833 69.909 50.9629C69.972 50.7975 70.0343 50.6315 70.0946 50.4641C70.0956 50.4621 70.0959 50.4603 70.0968 50.4583C70.0995 50.4513 70.1016 50.4444 70.1042 50.4374C70.1558 50.294 70.2061 50.1502 70.2557 50.0059C70.2643 49.98 70.2735 49.9547 70.282 49.9287C70.3315 49.7832 70.3803 49.6372 70.4278 49.4902C70.437 49.4606 70.4469 49.4315 70.4561 49.4018C70.5044 49.2517 70.552 49.101 70.5984 48.9498C70.6012 48.9398 70.6041 48.9297 70.6075 48.9196C70.6522 48.7735 70.6955 48.6264 70.7376 48.4795C70.7425 48.4625 70.7475 48.4461 70.7525 48.4298C70.7554 48.4197 70.7582 48.4097 70.7611 48.3996C70.8008 48.2615 70.8392 48.1223 70.877 47.9831C70.885 47.9537 70.8925 47.9243 70.9006 47.8948C70.9338 47.7708 70.9663 47.6462 70.9983 47.5218C71.0041 47.498 71.0105 47.4742 71.0169 47.4498C71.0521 47.3092 71.0867 47.1687 71.1206 47.0271C71.1282 46.9946 71.1358 46.9616 71.1435 46.9292C71.1741 46.7988 71.204 46.668 71.2334 46.5372C71.2359 46.5248 71.2391 46.5129 71.2417 46.5005C71.2424 46.4968 71.243 46.4925 71.2443 46.4887C71.2745 46.3511 71.3034 46.2126 71.3323 46.074C71.3397 46.0392 71.3465 46.0045 71.3532 45.9697C71.3779 45.8486 71.4014 45.7277 71.4248 45.6062C71.429 45.5839 71.4333 45.5621 71.4376 45.5404C71.4641 45.4016 71.4887 45.2624 71.5133 45.1226C71.5196 45.0885 71.5252 45.0539 71.5308 45.0199C71.5515 44.9 71.5714 44.7795 71.5908 44.6591C71.5937 44.6406 71.5972 44.622 71.6002 44.6035C71.6016 44.5961 71.6025 44.5893 71.6033 44.5819C71.6247 44.445 71.6454 44.3075 71.6654 44.1695C71.67 44.1362 71.6751 44.1023 71.6797 44.0691C71.6959 43.9564 71.7108 43.8432 71.7257 43.7301C71.7302 43.6962 71.7348 43.6624 71.7393 43.6286C71.7569 43.4903 71.7738 43.3515 71.7895 43.2122C71.7926 43.1858 71.7956 43.1589 71.7986 43.1319C71.8119 43.0147 71.8244 42.897 71.8364 42.7794C71.8383 42.758 71.841 42.7371 71.8429 42.7157C71.8444 42.6998 71.8459 42.6839 71.8474 42.668C71.8607 42.529 71.874 42.3895 71.8861 42.2501C71.8868 42.2422 71.8876 42.2342 71.8877 42.2263C71.8989 42.0937 71.909 41.9613 71.9189 41.8282C71.9216 41.7898 71.9243 41.7514 71.927 41.713C71.9352 41.5934 71.9427 41.474 71.9496 41.354C71.9508 41.3309 71.9525 41.3077 71.9536 41.2846C71.9615 41.1446 71.968 41.0041 71.9746 40.8637C71.9753 40.8509 71.976 40.8381 71.9767 40.8253C71.9779 40.8022 71.9785 40.7798 71.979 40.7567C71.9833 40.6438 71.9875 40.5308 71.9911 40.4173C71.9924 40.3821 71.9932 40.3469 71.9945 40.3117C71.9981 40.1711 72.0016 40.0298 72.0033 39.8888C72.0035 39.8633 72.0037 39.8373 72.0039 39.8119C72.0055 39.6927 72.006 39.5736 72.0064 39.4544C72.0066 39.4151 72.0067 39.3752 72.0064 39.336C72.0062 39.1988 72.0054 39.0612 72.0034 38.9236C72.0028 38.9189 72.0033 38.9134 72.0032 38.9086L72.0028 38.9056C72.001 38.7602 71.9979 38.6144 71.9936 38.4681C71.9927 38.4295 71.9911 38.3904 71.9903 38.3519L71.9849 38.3562Z" fill="#6167AF"/>
<path d="M60.1692 62.8589C72.4161 50.4423 71.7192 29.639 58.6127 16.3935C45.5061 3.14803 24.9531 2.4761 12.7062 14.8927C0.459312 27.3093 1.15621 48.1126 14.2628 61.3581C27.3693 74.6036 47.9223 75.2755 60.1692 62.8589Z" fill="#8592D6"/>
</g>
<g opacity="0.1">
<path d="M49.9509 37.1491L32.913 17.2789L23.5825 40.6185L38.1613 46.7006L49.9509 37.1491Z" fill="black"/>
<path d="M38.5841 49.0698L24.0156 43.0469L40.5109 59.8722L50.3845 39.5774L38.5841 49.0698Z" fill="black"/>
</g>
<path d="M32.4247 16.7633L35.2601 32.6599L23.0943 40.1033L32.4247 16.7633Z" fill="#FEFEFE"/>
<path d="M37.6742 46.1843L35.2614 32.6592L23.0955 40.1027L37.6742 46.1843Z" fill="#CED2EB"/>
<path d="M38.0954 48.5547L40.0222 59.3572L23.5273 42.5312L38.0954 48.5547Z" fill="#FEFEFE"/>
<path d="M32.4258 16.7656L35.2612 32.6623L49.4637 36.6363L32.4258 16.7656Z" fill="#CED2EB"/>
<path d="M37.6746 46.1813L35.2617 32.6562L49.4643 36.6303L37.6746 46.1813Z" fill="#929DCF"/>
<path d="M38.0973 48.5551L40.0241 59.3576L49.8977 39.0623L38.0973 48.5551Z" fill="#CED2EB"/>
<defs>
<filter id="filter0_d_869_132881" x="2.95703" y="1.05469" width="86.0508" height="85.6953" filterUnits="userSpaceOnUse" color-interpolation-filters="sRGB">
<feFlood flood-opacity="0" result="BackgroundImageFix"/>
<feColorMatrix in="SourceAlpha" type="matrix" values="0 0 0 0 0 0 0 0 0 0 0 0 0 0 0 0 0 0 127 0" result="hardAlpha"/>
<feOffset dx="8" dy="6"/>
<feGaussianBlur stdDeviation="4.5"/>
<feComposite in2="hardAlpha" operator="out"/>
<feColorMatrix type="matrix" values="0 0 0 0 0 0 0 0 0 0 0 0 0 0 0 0 0 0 0.19 0"/>
<feBlend mode="normal" in2="BackgroundImageFix" result="effect1_dropShadow_869_132881"/>
<feBlend mode="normal" in="SourceGraphic" in2="effect1_dropShadow_869_132881" result="shape"/>
</filter>
</defs>
</svg>
