<svg width="93" height="95" viewBox="0 0 93 95" fill="none" xmlns="http://www.w3.org/2000/svg">
<g filter="url(#filter0_d_869_132875)">
<path d="M14.3588 57.1199C14.3492 57.0692 14.3404 57.0183 14.3309 56.9677C14.3011 56.8007 14.2721 56.6343 14.2444 56.4675C14.2401 56.441 14.2355 56.4139 14.2311 56.3874C14.2001 56.198 14.1711 56.0081 14.1435 55.8185C14.1366 55.7698 14.1297 55.7212 14.1228 55.6726C14.1005 55.5154 14.0795 55.3579 14.0591 55.2002C14.054 55.1608 14.0487 55.1207 14.0436 55.0813C14.0202 54.8919 13.9983 54.7028 13.9777 54.5134C13.973 54.4704 13.969 54.4272 13.9643 54.3842C13.9478 54.2282 13.9326 54.0719 13.9188 53.9152C13.9143 53.868 13.9101 53.8214 13.9056 53.7742C13.8892 53.585 13.8741 53.3955 13.8611 53.2061C13.859 53.1728 13.8569 53.1394 13.8549 53.1061C13.8436 52.9439 13.8338 52.7819 13.8255 52.6203C13.823 52.5698 13.82 52.5201 13.8174 52.4697C13.8083 52.2792 13.7996 52.0879 13.7932 51.8974C13.7925 51.8845 13.7924 51.8714 13.7923 51.8582C13.7861 51.6787 13.7822 51.5 13.7794 51.3203C13.7787 51.2693 13.7775 51.2185 13.7767 51.1668C13.7742 50.9932 13.7729 50.8193 13.7731 50.6457C13.773 50.6271 13.7728 50.6085 13.7733 50.5897C13.7738 50.3993 13.7767 50.2098 13.78 50.0194C13.7812 49.97 13.7824 49.9206 13.7834 49.8705C13.7873 49.7105 13.7919 49.5508 13.7973 49.3911C13.7987 49.3554 13.7997 49.3206 13.8005 49.2851C13.8077 49.0964 13.8171 48.9079 13.8271 48.7192C13.8293 48.6737 13.8324 48.6286 13.8353 48.5828C13.8446 48.4275 13.8547 48.2727 13.8654 48.1176C13.8687 48.0732 13.8714 48.0296 13.8747 47.9852C13.889 47.7973 13.9041 47.6094 13.9212 47.4215C13.9242 47.384 13.9281 47.347 13.9318 47.3094C13.9467 47.1519 13.9624 46.9948 13.9788 46.8376C13.9838 46.7892 13.9892 46.74 13.9941 46.6917C14.0147 46.5036 14.0366 46.3158 14.0601 46.1283C14.0631 46.1061 14.0661 46.0838 14.0684 46.0618C14.0901 45.8934 14.1124 45.7249 14.1363 45.5567C14.1434 45.5063 14.1506 45.456 14.1578 45.4057C14.1842 45.2243 14.2115 45.0433 14.2403 44.8627C14.2418 44.8554 14.2425 44.8476 14.2439 44.8403C14.2744 44.653 14.3061 44.4654 14.3394 44.2787C14.3482 44.2293 14.357 44.1799 14.3658 44.1305C14.3951 43.9698 14.4246 43.8097 14.456 43.6491C14.4617 43.6192 14.4669 43.5895 14.4728 43.5602C14.5094 43.3754 14.5473 43.1902 14.5862 43.0062C14.5959 42.96 14.6062 42.9137 14.6159 42.8675C14.6487 42.7148 14.6824 42.5626 14.7175 42.4107C14.7266 42.3702 14.7358 42.3297 14.7451 42.2899C14.7876 42.1062 14.8317 41.9235 14.8764 41.7407C14.8864 41.7007 14.8963 41.6606 14.9063 41.6206C14.9443 41.4693 14.9832 41.3184 15.0227 41.1674C15.0345 41.1214 15.0469 41.0752 15.0589 41.0297C15.1078 40.8471 15.1578 40.6656 15.209 40.4838C15.2172 40.4553 15.2255 40.4268 15.2337 40.3983C15.2791 40.2409 15.3251 40.0832 15.3719 39.9261C15.3866 39.8779 15.4006 39.8299 15.4153 39.7817C15.4706 39.5994 15.5267 39.4176 15.5844 39.2368C15.5862 39.2308 15.5881 39.2248 15.5906 39.2186C15.6469 39.0429 15.7048 38.8676 15.7634 38.6927C15.7796 38.6448 15.7957 38.5969 15.8123 38.5482C15.8665 38.3877 15.9222 38.2275 15.9789 38.0683C15.9869 38.0468 15.9941 38.0248 16.002 38.0026C16.0653 37.8245 16.1307 37.6464 16.1969 37.4688C16.2142 37.4227 16.2315 37.3765 16.2488 37.3304C16.3032 37.1857 16.3588 37.0407 16.4148 36.897C16.429 36.86 16.4432 36.823 16.4581 36.7858C16.5267 36.6117 16.5967 36.4379 16.6673 36.264C16.6836 36.2243 16.6999 36.1847 16.7168 36.1449C16.7754 36.0032 16.8347 35.8614 16.895 35.7207C16.9141 35.6761 16.9327 35.6324 16.9518 35.5878C17.0264 35.4156 17.1016 35.2432 17.1785 35.0717C17.1902 35.0457 17.2025 35.0196 17.214 34.993C17.281 34.8442 17.3489 34.6959 17.4176 34.5481C17.439 34.5015 17.461 34.4548 17.4829 34.4081C17.5606 34.2419 17.6398 34.0768 17.7197 33.9114C17.7223 33.9058 17.7255 33.8995 17.7281 33.8939C17.8108 33.7236 17.8952 33.5543 17.981 33.3853C18.004 33.3397 18.0271 33.2947 18.0501 33.2491C18.1225 33.1072 18.1955 32.9651 18.2695 32.8241C18.286 32.7927 18.3017 32.7615 18.3183 32.7308C18.3933 32.5882 18.4691 32.446 18.5459 32.305C18.5501 32.2977 18.5543 32.2903 18.5584 32.2823C18.6309 32.1486 18.7048 32.0146 18.7788 31.8813C18.805 31.8348 18.8311 31.7883 18.8573 31.7419C18.9107 31.6473 18.9635 31.5535 19.0177 31.4594C19.0481 31.4055 19.0794 31.3522 19.1106 31.2988C19.1605 31.212 19.2111 31.1251 19.2625 31.0387C19.2951 30.9828 19.328 30.9276 19.3608 30.8725C19.4117 30.7868 19.4628 30.7018 19.5139 30.6168C19.5469 30.5623 19.5794 30.5086 19.6124 30.4541C19.6671 30.3646 19.722 30.2758 19.7776 30.1869C19.8075 30.1387 19.8378 30.0897 19.8677 30.0416C19.937 29.9316 20.0069 29.8215 20.0769 29.712C20.0941 29.686 20.1105 29.6594 20.1275 29.6327C20.2147 29.4972 20.3034 29.3619 20.3921 29.2267C20.4255 29.1762 20.4596 29.1255 20.4936 29.0749C20.5444 28.999 20.5945 28.9232 20.6461 28.8478C20.6826 28.7937 20.7199 28.7394 20.7571 28.6851C20.8061 28.6131 20.8552 28.5411 20.9051 28.4695C20.9434 28.4143 20.9824 28.3588 21.0214 28.3034C21.0703 28.2335 21.1186 28.1637 21.1683 28.0943C21.2084 28.0379 21.2487 27.9821 21.2888 27.9256C21.3376 27.8578 21.3862 27.7894 21.4352 27.7223C21.4766 27.6655 21.5175 27.6095 21.5589 27.5527C21.6081 27.4862 21.657 27.4191 21.7062 27.3526C21.7482 27.2956 21.7904 27.2393 21.8333 27.1828C21.8826 27.1169 21.9319 27.0511 21.9821 26.9857C22.0249 26.9292 22.0684 26.8725 22.1115 26.8167C22.1616 26.7513 22.2113 26.6868 22.2622 26.6218C22.3059 26.5658 22.3496 26.5098 22.3939 26.4536C22.4444 26.3895 22.4954 26.3246 22.5467 26.261C22.5927 26.2036 22.6386 26.1456 22.6849 26.0889C22.7305 26.0323 22.7761 25.9758 22.8224 25.919C22.8702 25.8605 22.918 25.802 22.9659 25.7434C23.0123 25.6874 23.0585 25.6306 23.105 25.5746C23.1536 25.5165 23.2016 25.4586 23.2503 25.4006C23.2975 25.3449 23.344 25.2889 23.3914 25.2339C23.4402 25.1765 23.489 25.1191 23.5385 25.0615C23.5864 25.0057 23.6338 24.9507 23.6819 24.8956C23.7315 24.8386 23.7805 24.7819 23.8304 24.7256C23.8791 24.6703 23.9271 24.6151 23.976 24.5605C24.0258 24.5042 24.0763 24.4477 24.1263 24.392C24.1752 24.3374 24.2242 24.2833 24.2738 24.2285C24.3244 24.1727 24.375 24.1168 24.4259 24.0616C24.4756 24.0075 24.5253 23.9533 24.5751 23.8997C24.6266 23.8443 24.678 23.789 24.7297 23.7343C24.7795 23.6807 24.8302 23.6276 24.8801 23.5741C24.9329 23.5184 24.9863 23.4625 25.0392 23.4074C25.0872 23.3572 25.1358 23.3067 25.184 23.2571C25.238 23.201 25.2922 23.1456 25.3471 23.09C25.3952 23.0404 25.4442 22.9912 25.493 22.9414C25.5485 22.8857 25.6034 22.8301 25.6591 22.775C25.7076 22.7266 25.7565 22.6775 25.8051 22.6291C25.8607 22.574 25.917 22.5187 25.9735 22.4641C26.0229 22.4162 26.072 22.3677 26.1214 22.3198C26.1778 22.2652 26.235 22.2104 26.2921 22.1555C26.3416 22.1083 26.3911 22.0611 26.4406 22.0139C26.4984 21.9589 26.557 21.9043 26.6156 21.8498C26.6646 21.8034 26.7139 21.7577 26.7637 21.7117C26.8228 21.6564 26.8828 21.6022 26.9427 21.5473C26.9915 21.5023 27.0408 21.4572 27.0896 21.4123C27.1508 21.3571 27.2126 21.3017 27.2738 21.2465C27.3222 21.203 27.37 21.1597 27.4186 21.1168C27.4788 21.0632 27.5399 21.0101 27.6008 20.9564C27.6516 20.9116 27.7031 20.8666 27.754 20.8217C27.8157 20.7685 27.8774 20.7152 27.9392 20.6625C27.9904 20.619 28.0414 20.5748 28.0926 20.5313C28.1556 20.4777 28.2194 20.4245 28.2826 20.3715C28.3333 20.3288 28.384 20.2861 28.4349 20.244C28.5005 20.1897 28.5667 20.1352 28.6331 20.0814C28.6817 20.0413 28.7309 20.0004 28.7797 19.9609C28.849 19.9049 28.9189 19.8487 28.9883 19.7934C29.0349 19.7559 29.0815 19.7185 29.1288 19.6808C29.2044 19.6203 29.2817 19.5608 29.3582 19.5007C29.3994 19.4689 29.4398 19.4366 29.481 19.4047C29.588 19.3219 29.6952 19.2398 29.8023 19.1577C29.8138 19.149 29.8247 19.1406 29.8355 19.1321C29.9544 19.042 30.0734 18.9525 30.1934 18.8642C30.3168 18.7728 30.4403 18.6821 30.5648 18.5925C30.5938 18.5716 30.6229 18.5513 30.6518 18.5304C30.7474 18.4617 30.843 18.3931 30.9394 18.3249C30.9853 18.2925 31.0313 18.2607 31.0774 18.2289C31.157 18.1729 31.2366 18.1169 31.3173 18.0619C31.3693 18.0265 31.4206 17.9912 31.4726 17.9558C31.5473 17.9045 31.6226 17.8531 31.6975 17.8025C31.7525 17.7655 31.8084 17.729 31.864 17.6919C31.9369 17.6439 32.0089 17.5955 32.0817 17.5475C32.1393 17.5098 32.1971 17.4728 32.254 17.4353C32.3253 17.3892 32.3971 17.3428 32.4684 17.2967C32.5273 17.2586 32.5872 17.2218 32.6462 17.1844C32.7172 17.1397 32.7874 17.0952 32.8585 17.0511C32.9189 17.0134 32.9801 16.9762 33.0406 16.9391C33.1113 16.8958 33.1812 16.8528 33.2519 16.8095C33.3041 16.7775 33.3573 16.7465 33.4095 16.7145C33.5 16.6604 33.5912 16.6061 33.6825 16.5524C33.7386 16.5193 33.7942 16.487 33.8503 16.4539C33.9387 16.4024 34.0274 16.3516 34.116 16.3007C34.1722 16.2682 34.2287 16.2364 34.2851 16.2046C34.3769 16.1529 34.4688 16.1012 34.5608 16.0501C34.6144 16.0204 34.6673 15.991 34.7208 15.9613C34.8263 15.9038 34.9319 15.8464 35.0375 15.7895C35.078 15.7676 35.1177 15.7458 35.1583 15.7245C35.3046 15.6463 35.4512 15.5694 35.5982 15.4939C35.6278 15.4783 35.6577 15.4633 35.6875 15.4483C35.8055 15.3882 35.9234 15.3281 36.0422 15.2684C36.0946 15.2425 36.1471 15.2166 36.199 15.1908C36.2959 15.1426 36.393 15.095 36.4909 15.0478C36.5491 15.0197 36.6072 14.9916 36.6655 14.9641C36.7586 14.9197 36.8523 14.875 36.9463 14.831C37.0009 14.8053 37.055 14.7803 37.1098 14.7552C37.2795 14.6769 37.4494 14.5993 37.6204 14.5228C37.6284 14.5192 37.6364 14.5157 37.6445 14.5121C37.8223 14.4331 38.0019 14.3556 38.1811 14.279C38.2295 14.2583 38.2779 14.2377 38.3264 14.2177C38.476 14.1545 38.6267 14.0925 38.7774 14.0311C38.8123 14.0169 38.8466 14.0028 38.8808 13.9887C39.061 13.9159 39.2418 13.8451 39.4235 13.7753C39.468 13.7585 39.512 13.7418 39.5565 13.725C39.7038 13.6687 39.8521 13.6135 40.0006 13.5589C40.0466 13.5424 40.0918 13.5253 40.1379 13.5088C40.3211 13.4421 40.5053 13.3765 40.6901 13.3129C40.7223 13.3015 40.7548 13.2913 40.7876 13.2797C40.9446 13.2256 41.1026 13.1733 41.2607 13.121C41.3116 13.1046 41.3623 13.0874 41.4138 13.0708C41.602 13.0097 41.7906 12.9499 41.9803 12.8918C42.0953 12.8567 42.2106 12.8228 42.3253 12.7891C42.4317 12.7577 42.5373 12.7264 42.644 12.6963C42.7249 12.6731 42.8066 12.6504 42.8876 12.6279C42.9932 12.5987 43.0987 12.5696 43.2038 12.5413C43.285 12.5194 43.3662 12.4975 43.447 12.4764C43.5529 12.4485 43.659 12.4213 43.7652 12.3948C43.8448 12.3747 43.9251 12.3544 44.0049 12.335C44.1133 12.3085 44.2212 12.2829 44.3297 12.2571C44.4071 12.239 44.485 12.2201 44.5619 12.2028C44.6746 12.1773 44.7876 12.1524 44.8998 12.1276C44.9722 12.1116 45.0453 12.0953 45.1179 12.0799C45.2415 12.0535 45.3654 12.0284 45.4893 12.0033C45.5503 11.991 45.6118 11.9779 45.6734 11.9654C45.8579 11.9288 46.0428 11.8942 46.2267 11.8605C46.2293 11.8598 46.2325 11.859 46.2353 11.8589C46.4165 11.8259 46.5983 11.7949 46.7796 11.7647C46.8412 11.7544 46.9024 11.7455 46.9634 11.7359C47.0862 11.7167 47.2094 11.6966 47.3318 11.6788C47.4043 11.6682 47.477 11.6583 47.5502 11.6476C47.6613 11.6315 47.7726 11.616 47.8841 11.6011C47.9609 11.5908 48.0379 11.5818 48.1147 11.5715C48.2216 11.5579 48.3281 11.5451 48.4346 11.5322C48.5137 11.5227 48.593 11.5144 48.6716 11.5057C48.7757 11.4943 48.8806 11.4833 48.9848 11.4724C49.065 11.4647 49.1446 11.457 49.2248 11.4493C49.3279 11.4394 49.4319 11.4301 49.5354 11.4215C49.6151 11.4146 49.695 11.4082 49.7742 11.4021C49.8779 11.3942 49.9817 11.387 50.0856 11.3797C50.1643 11.3744 50.2425 11.3692 50.3213 11.3639C50.4267 11.3576 50.5324 11.3519 50.638 11.3463C50.7144 11.3423 50.79 11.3378 50.8665 11.3345C50.9757 11.3292 51.0853 11.3253 51.1949 11.3213C51.2661 11.3187 51.338 11.3159 51.4092 11.3133C51.5293 11.31 51.6496 11.3073 51.77 11.3053C51.8299 11.3043 51.8903 11.3026 51.9502 11.3016C52.1286 11.2992 52.3074 11.298 52.4853 11.2985L52.4885 11.2976C52.668 11.299 52.8468 11.3006 53.0261 11.3041C53.0851 11.3048 53.1438 11.307 53.2029 11.3083C53.3227 11.3113 53.4422 11.3136 53.5617 11.3181C53.6322 11.3205 53.7022 11.3238 53.772 11.3264C53.8796 11.3306 53.9881 11.3352 54.0959 11.34C54.1701 11.3435 54.2441 11.3485 54.3185 11.3526C54.4217 11.3587 54.525 11.3647 54.6278 11.3716C54.7039 11.3767 54.7801 11.3824 54.8562 11.3875C54.957 11.3949 55.0579 11.4022 55.1585 11.4111C55.2355 11.4173 55.3121 11.4243 55.3885 11.4307C55.4884 11.4397 55.5877 11.4489 55.6872 11.4587C55.7639 11.4664 55.8407 11.4741 55.9168 11.4819C56.0164 11.4924 56.1162 11.5035 56.2154 11.5148C56.291 11.5235 56.366 11.5323 56.441 11.5411C56.5424 11.5532 56.6436 11.5667 56.7454 11.5801C56.8178 11.5896 56.8908 11.5989 56.9634 11.6091C57.0689 11.6235 57.1734 11.639 57.2786 11.6548C57.3463 11.6649 57.4147 11.6749 57.4824 11.685C57.5979 11.7029 57.7135 11.7215 57.8287 11.741C57.8853 11.7506 57.9421 11.7588 57.9986 11.7685C58.1661 11.7973 58.3332 11.8269 58.4999 11.8581C58.5043 11.8589 58.5079 11.8594 58.5123 11.8603C58.6827 11.8924 58.8536 11.9259 59.0233 11.9604C59.0789 11.9717 59.1334 11.9839 59.189 11.9952C59.3032 12.0191 59.4175 12.0429 59.5309 12.0683C59.5971 12.083 59.6634 12.0983 59.7298 12.1136C59.8323 12.1371 59.9346 12.16 60.0365 12.1844C60.0935 12.1981 60.1498 12.212 60.2067 12.2257C60.3474 12.2603 60.4883 12.2957 60.6288 12.3318C60.6875 12.3471 60.7469 12.3622 60.8058 12.3781C60.9652 12.4202 61.1234 12.4633 61.2813 12.5079C61.3121 12.5168 61.3433 12.525 61.3739 12.5334C61.5611 12.5866 61.7476 12.6422 61.9336 12.6985C61.9841 12.7139 62.0347 12.73 62.0852 12.7454C62.224 12.7883 62.3625 12.8325 62.5011 12.8774C62.5594 12.8963 62.6179 12.9158 62.6763 12.9346C62.8244 12.9839 62.9727 13.0338 63.12 13.0854C63.1574 13.0981 63.1947 13.1109 63.232 13.1236C63.4146 13.1878 63.5956 13.2538 63.7771 13.3218C63.8232 13.3391 63.8687 13.3565 63.9149 13.3738C64.0527 13.4259 64.1902 13.4794 64.3271 13.5331C64.3843 13.5557 64.4409 13.5785 64.4982 13.601C64.6379 13.6574 64.7771 13.7146 64.9158 13.7727C64.9587 13.7908 65.0021 13.8082 65.0459 13.8268C65.1286 13.8619 65.2103 13.898 65.2925 13.9339C65.3608 13.9639 65.4295 13.9931 65.4977 14.0231C65.581 14.0601 65.6638 14.0979 65.7473 14.1356C65.8134 14.1655 65.8802 14.1952 65.9465 14.2257C66.0318 14.265 66.1159 14.3052 66.2007 14.3453C66.2641 14.3752 66.3273 14.4045 66.3909 14.4351C66.4798 14.4775 66.5677 14.5216 66.6555 14.565C66.7138 14.5942 66.7733 14.6224 66.8317 14.6516C66.9284 14.7002 67.0247 14.7496 67.1212 14.7997C67.1702 14.8252 67.2196 14.8492 67.2687 14.8747C67.4014 14.9441 67.5329 15.0137 67.6641 15.0848C67.6764 15.0919 67.6891 15.0981 67.7012 15.1046C67.8445 15.1821 67.9875 15.2611 68.1301 15.3409C68.1765 15.3671 68.2225 15.3941 68.2684 15.4205C68.364 15.475 68.4595 15.5294 68.5546 15.5847C68.6868 15.6618 68.8178 15.7399 68.9489 15.8186C68.982 15.8387 69.0153 15.8595 69.0484 15.8796C69.146 15.939 69.2429 15.9986 69.3401 16.0589C69.3882 16.0888 69.4359 16.1195 69.4835 16.1496C69.5652 16.2015 69.6468 16.2528 69.7281 16.3056C69.7801 16.3393 69.8314 16.3732 69.8834 16.4069C69.9606 16.4573 70.0369 16.5072 70.113 16.5586C70.1662 16.5941 70.2186 16.6297 70.2718 16.6652C70.3462 16.7156 70.4208 16.7668 70.4955 16.8179C70.5481 16.8541 70.601 16.8911 70.6536 16.9274C70.7278 16.9793 70.8019 17.0312 70.8756 17.084C70.927 17.1206 70.9783 17.1572 71.0297 17.1938C71.106 17.2486 71.1819 17.3043 71.2577 17.3599C71.3052 17.3948 71.3532 17.4296 71.4 17.4647C71.4398 17.494 71.4782 17.5238 71.518 17.5532C71.647 17.6498 71.775 17.7474 71.902 17.8466C71.9465 17.8809 71.9912 17.9159 72.0357 17.9502C72.1936 18.0743 72.3512 18.1998 72.5073 18.3272L68.5053 15.0552C68.3492 14.9278 68.1916 14.8023 68.0337 14.6782C67.989 14.6432 67.9445 14.6089 67.9 14.5746C67.7725 14.4762 67.6444 14.3779 67.5159 14.2812C67.49 14.2619 67.4652 14.2416 67.4394 14.223C67.4256 14.2129 67.4118 14.2028 67.398 14.1926C67.3506 14.1577 67.3031 14.1228 67.2557 14.0879C67.1798 14.0323 67.1038 13.976 67.0269 13.9214C66.9761 13.8846 66.925 13.8486 66.8736 13.8119C66.7993 13.7594 66.7256 13.7066 66.6508 13.6549C66.5981 13.6186 66.5453 13.5817 66.4926 13.5454C66.418 13.4943 66.3434 13.4432 66.2689 13.3927C66.2165 13.3571 66.1633 13.3216 66.1102 13.2861C66.0336 13.2355 65.9571 13.185 65.8805 13.1344C65.8292 13.1005 65.7773 13.0668 65.7253 13.0331C65.644 12.9803 65.5622 12.9284 65.48 12.8772C65.4325 12.8472 65.3849 12.8171 65.3374 12.7871C65.2401 12.7262 65.1425 12.6667 65.0441 12.6068C65.011 12.5867 64.9787 12.567 64.9463 12.5468C64.819 12.4697 64.6907 12.3937 64.5626 12.3189C64.5594 12.3171 64.5554 12.3154 64.552 12.3128C64.4585 12.2585 64.3639 12.2052 64.2698 12.151C64.2223 12.1237 64.1749 12.0964 64.1268 12.0693C63.9842 11.9894 63.8419 11.9103 63.6979 11.8329C63.6857 11.8258 63.6729 11.8196 63.6608 11.8132C63.5296 11.742 63.3973 11.6719 63.2654 11.6031C63.2163 11.5776 63.166 11.5524 63.1169 11.5269C63.0206 11.4775 62.9249 11.4279 62.8283 11.38C62.7692 11.3503 62.7095 11.3214 62.6499 11.2925C62.5623 11.2498 62.4752 11.2062 62.3876 11.1634C62.324 11.1328 62.26 11.1031 62.1966 11.0731C62.1125 11.0329 62.0277 10.9928 61.9432 10.9541C61.8769 10.9235 61.8108 10.8936 61.744 10.8639C61.6612 10.8261 61.5784 10.7883 61.4944 10.7514C61.4262 10.7214 61.3581 10.692 61.2892 10.6622C61.2069 10.6263 61.1247 10.5904 61.0426 10.5551C61.0308 10.55 61.019 10.5449 61.0073 10.5398C60.9761 10.5267 60.9443 10.5139 60.9125 10.501C60.7738 10.443 60.6346 10.3858 60.4951 10.33C60.4378 10.3074 60.3812 10.2847 60.3239 10.2621C60.1871 10.2084 60.0504 10.1553 59.9124 10.1026C59.8662 10.0853 59.8206 10.0672 59.7744 10.0499C59.5937 9.98247 59.4121 9.91664 59.2302 9.85228C59.1927 9.83888 59.1555 9.82676 59.118 9.81336C58.9707 9.7618 58.823 9.71171 58.6743 9.66261C58.6158 9.64312 58.5574 9.62427 58.4991 9.60541C58.3611 9.56033 58.2228 9.51671 58.0832 9.47343C58.0327 9.458 57.9821 9.44192 57.9316 9.42649C57.7456 9.37014 57.5591 9.31461 57.3725 9.26118C57.3411 9.25236 57.3099 9.24419 57.2785 9.23537C57.1205 9.19081 56.9623 9.14772 56.8038 9.10608C56.7449 9.09016 56.6855 9.07505 56.6261 9.05995C56.4857 9.02381 56.3454 8.98832 56.2049 8.9543C56.1686 8.94541 56.1321 8.93587 56.0952 8.92715C56.0752 8.92218 56.0547 8.91802 56.0341 8.91321C55.9321 8.88885 55.8296 8.8653 55.7273 8.84239C55.661 8.82709 55.5952 8.81161 55.5284 8.79713C55.4144 8.77185 55.3008 8.74786 55.1865 8.72404C55.1309 8.71275 55.0758 8.70064 55.0208 8.68918C54.8511 8.65471 54.6809 8.62107 54.5098 8.58906C54.5054 8.58817 54.5018 8.58775 54.4974 8.58686C54.3307 8.55574 54.1637 8.52609 53.9961 8.49726C53.939 8.48778 53.882 8.47894 53.8248 8.46946C53.7098 8.45068 53.5946 8.43125 53.4799 8.41376C53.412 8.40302 53.3438 8.39374 53.2755 8.38382C53.1704 8.36858 53.0658 8.35252 52.9603 8.33809C52.8877 8.32793 52.8146 8.31858 52.7422 8.30905C52.6411 8.29552 52.5401 8.28263 52.4387 8.27056C52.3637 8.26173 52.2887 8.25291 52.2131 8.24425C52.1133 8.23312 52.0134 8.222 51.9138 8.21151C51.8377 8.20368 51.761 8.19602 51.6842 8.18835C51.5848 8.17852 51.4848 8.1695 51.3855 8.1603C51.309 8.15329 51.2326 8.14691 51.1555 8.14071C51.0551 8.13251 50.9543 8.12513 50.8534 8.11775C50.7772 8.11202 50.7009 8.10629 50.6242 8.10138C50.5214 8.09452 50.419 8.08895 50.3157 8.0829C50.2413 8.07876 50.1667 8.07397 50.0918 8.07065C49.9845 8.06501 49.8769 8.06082 49.7686 8.05682C49.6988 8.05421 49.6281 8.05113 49.5582 8.04853C49.439 8.04472 49.3192 8.04173 49.1995 8.03874C49.1403 8.0374 49.0817 8.03524 49.0227 8.03454C48.8442 8.03149 48.6652 8.02927 48.4854 8.02932L48.4835 8.02984C48.3048 8.02891 48.126 8.03008 47.9463 8.03289C47.8864 8.03383 47.826 8.03558 47.7661 8.03652C47.6458 8.03921 47.526 8.04108 47.4053 8.04459C47.3339 8.04655 47.2622 8.04997 47.191 8.05257C47.0814 8.05652 46.9718 8.06047 46.8626 8.06571C46.7867 8.06889 46.7105 8.07352 46.6348 8.07734C46.5291 8.083 46.4235 8.08866 46.318 8.09497C46.2397 8.09948 46.1611 8.10546 46.0823 8.11079C45.9785 8.11804 45.8746 8.12529 45.771 8.13318C45.6917 8.13933 45.6118 8.14565 45.5321 8.15262C45.4286 8.16116 45.3253 8.17034 45.2215 8.18034C45.142 8.18795 45.0618 8.19574 44.9816 8.20352C44.8773 8.21434 44.7731 8.22516 44.669 8.23663C44.5898 8.24553 44.5104 8.25379 44.4314 8.26333C44.3255 8.27596 44.219 8.28876 44.1127 8.30221C44.0352 8.31206 43.9582 8.32173 43.8807 8.33157C43.7698 8.34623 43.6587 8.36236 43.5474 8.37784C43.4749 8.3884 43.4022 8.39832 43.329 8.40906C43.2068 8.42749 43.0847 8.44658 42.9621 8.46648C42.9004 8.47619 42.8386 8.48526 42.777 8.49562C42.5976 8.52531 42.4186 8.55628 42.2384 8.58825C42.2333 8.58964 42.228 8.59039 42.2226 8.59113C42.0386 8.62414 41.8545 8.65926 41.6707 8.69567C41.609 8.70814 41.5474 8.72061 41.4866 8.73354C41.3633 8.75848 41.24 8.78341 41.1164 8.80981C41.0432 8.8254 40.9701 8.84164 40.8964 8.85806C40.7841 8.88279 40.6725 8.90735 40.5598 8.9329C40.4815 8.95053 40.4043 8.96927 40.3263 8.98755C40.2184 9.01317 40.1105 9.03879 40.0028 9.06506C39.9223 9.08468 39.8421 9.10493 39.7624 9.12502C39.6562 9.15159 39.5507 9.17862 39.4448 9.20648C39.3636 9.22837 39.2822 9.24962 39.201 9.27152C39.0959 9.29984 38.9902 9.32834 38.8848 9.35813C38.8031 9.38084 38.7223 9.40403 38.6406 9.42674C38.5347 9.45735 38.4289 9.48796 38.3232 9.51921C38.2726 9.53423 38.2225 9.54842 38.1719 9.56344C38.1067 9.5831 38.0421 9.60259 37.9769 9.62224C37.7872 9.6803 37.5986 9.74012 37.4104 9.80123C37.3595 9.81771 37.308 9.83436 37.2573 9.85149C37.099 9.90314 36.9411 9.95608 36.7842 10.0101C36.7519 10.0209 36.7189 10.0319 36.6867 10.0433C36.5019 10.107 36.3177 10.1725 36.1344 10.2392C36.0884 10.2558 36.0426 10.273 35.9966 10.2895C35.8481 10.3441 35.7004 10.3991 35.5524 10.4556C35.5079 10.4724 35.464 10.4891 35.4194 10.506C35.2377 10.5757 35.0571 10.6472 34.8767 10.7193C34.8418 10.7336 34.8076 10.7476 34.7727 10.7619C34.6219 10.8233 34.472 10.8851 34.3223 10.9483C34.274 10.9689 34.2248 10.9891 34.1764 11.0098C33.9972 11.0864 33.8182 11.1637 33.6404 11.2428C33.6324 11.2463 33.6243 11.2499 33.6163 11.2534C33.4452 11.3293 33.2753 11.4069 33.1062 11.485C33.0834 11.4953 33.0605 11.5056 33.0377 11.5159C33.0058 11.5307 32.9734 11.5463 32.9414 11.5612C32.8481 11.605 32.7548 11.6488 32.6617 11.6933C32.6029 11.7216 32.5446 11.749 32.4859 11.7773C32.3886 11.8243 32.2921 11.8717 32.1958 11.9198C32.1434 11.9457 32.0902 11.9718 32.0377 11.9977C31.9201 12.0564 31.8028 12.1164 31.6855 12.1763C31.6552 12.1921 31.6241 12.2074 31.5931 12.2234C31.4461 12.2989 31.2997 12.3764 31.1532 12.454C31.1127 12.4753 31.0729 12.4971 31.0331 12.5188C30.9274 12.5757 30.8211 12.6327 30.7158 12.6908C30.6622 12.7205 30.6093 12.7499 30.5558 12.7796C30.4637 12.8307 30.3717 12.8818 30.28 12.9341C30.2236 12.9659 30.1673 12.9984 30.1109 13.0302C30.0223 13.0811 29.9337 13.1319 29.8452 13.1834C29.789 13.2159 29.7329 13.249 29.6774 13.2819C29.5861 13.3356 29.4956 13.3897 29.4051 13.4438C29.3682 13.4662 29.3311 13.4873 29.2942 13.5097C29.2788 13.5193 29.2628 13.5292 29.2473 13.5382C29.1765 13.5808 29.106 13.6247 29.036 13.6678C28.9755 13.7048 28.9143 13.7421 28.8539 13.7798C28.7828 13.8238 28.7119 13.8685 28.6416 13.9131C28.5826 13.9504 28.5228 13.988 28.4638 14.0253C28.3924 14.0709 28.3211 14.117 28.2506 14.163C28.1923 14.2008 28.1345 14.2379 28.0763 14.2757C28.0039 14.3229 27.9319 14.3713 27.8598 14.4191C27.8041 14.4562 27.7482 14.4927 27.6927 14.5305C27.6183 14.5803 27.5443 14.6314 27.47 14.6818C27.4174 14.7174 27.3641 14.7532 27.3117 14.7895C27.2324 14.8441 27.1538 14.8991 27.0753 14.9542C27.0282 14.987 26.981 15.0197 26.934 15.0531C26.8404 15.1191 26.7472 15.1864 26.6539 15.2531C26.6226 15.2754 26.5906 15.2978 26.5594 15.3208C26.4355 15.4102 26.312 15.5008 26.1886 15.5922L26.1851 15.5945C26.0664 15.6825 25.9479 15.7712 25.8303 15.861C25.8268 15.8633 25.8241 15.8661 25.8206 15.8684C25.7052 15.9562 25.5901 16.0447 25.4756 16.1329C25.4368 16.1634 25.398 16.1939 25.3586 16.2246C25.2803 16.2858 25.2014 16.3472 25.1234 16.409C25.0779 16.4455 25.0324 16.482 24.9864 16.5192C24.9159 16.5756 24.8447 16.6321 24.7749 16.689C24.7256 16.7292 24.6765 16.7701 24.6272 16.8104C24.5615 16.8641 24.4951 16.9179 24.4303 16.9727C24.379 17.0156 24.3282 17.0583 24.2769 17.1012C24.2144 17.154 24.151 17.2064 24.0887 17.2598C24.0368 17.3035 23.986 17.3483 23.9343 17.3927C23.8731 17.4452 23.8112 17.4978 23.7502 17.5509C23.698 17.5961 23.6467 17.6417 23.5952 17.6867C23.5426 17.7327 23.49 17.7787 23.4374 17.8247C23.4296 17.8316 23.4225 17.8384 23.4147 17.8453C23.3656 17.889 23.3171 17.9325 23.2682 17.9768C23.2069 18.0313 23.1463 18.0864 23.0852 18.1416C23.0358 18.1867 22.9864 18.2318 22.9377 18.2768C22.8778 18.3316 22.8184 18.3857 22.7593 18.441C22.7101 18.4868 22.661 18.5332 22.6118 18.579C22.5532 18.6335 22.4948 18.6887 22.437 18.7436C22.3874 18.7902 22.3387 18.8379 22.2892 18.8852C22.232 18.94 22.1749 18.9948 22.1178 19.0496C22.0684 19.0975 22.0191 19.1454 21.9699 19.1939C21.9136 19.2492 21.8578 19.3036 21.8015 19.3589C21.7523 19.4074 21.7033 19.4566 21.6543 19.5058C21.5993 19.5607 21.5438 19.6165 21.4888 19.6714C21.4398 19.7206 21.391 19.7704 21.3428 19.82C21.288 19.8756 21.2339 19.9316 21.1799 19.9877C21.1317 20.0373 21.0837 20.0876 21.0356 20.1372C21.0032 20.1709 20.9701 20.2047 20.9378 20.2389C20.9169 20.2612 20.8959 20.2834 20.8749 20.3057C20.8249 20.3586 20.7755 20.4113 20.7254 20.4642C20.6733 20.5198 20.6212 20.5753 20.5693 20.6315C20.5201 20.6849 20.4708 20.7382 20.4216 20.7916C20.3703 20.8476 20.319 20.9036 20.2678 20.9596C20.2187 21.0137 20.1698 21.0683 20.1208 21.1223C20.0703 21.1788 20.0197 21.2346 19.97 21.2916C19.9218 21.3461 19.8735 21.4006 19.8255 21.4557C19.7752 21.5128 19.7255 21.5698 19.6759 21.6267C19.6278 21.6819 19.5804 21.7368 19.5332 21.7924C19.4843 21.8499 19.4347 21.9068 19.386 21.9649C19.3388 22.0205 19.2917 22.0767 19.2445 22.1323C19.1958 22.1904 19.1472 22.2485 19.0991 22.3063C19.0527 22.3624 19.0063 22.4185 18.9599 22.4746C18.912 22.5331 18.8642 22.5916 18.8164 22.6502C18.7701 22.7069 18.7245 22.7635 18.6784 22.8208C18.6547 22.8507 18.6301 22.8802 18.6057 22.9103C18.584 22.9375 18.5623 22.9648 18.5408 22.9928C18.4897 23.057 18.4386 23.1213 18.3882 23.186C18.3446 23.242 18.3007 23.2974 18.2571 23.3534C18.2067 23.4182 18.1566 23.4836 18.1065 23.5489C18.0634 23.6048 18.0206 23.6613 17.9775 23.7171C17.9276 23.7832 17.8782 23.849 17.8283 23.915C17.7861 23.9714 17.7439 24.0277 17.7017 24.084C17.6519 24.1507 17.6029 24.2178 17.5537 24.2843C17.5122 24.3405 17.4708 24.3973 17.4299 24.4532C17.3804 24.5212 17.3316 24.589 17.283 24.6574C17.2427 24.7132 17.2026 24.7697 17.1623 24.8255C17.1126 24.8949 17.0643 24.9646 17.0154 25.0345C16.977 25.0898 16.9379 25.1446 16.8995 25.1999C16.8498 25.272 16.8008 25.344 16.7511 25.4162C16.7145 25.4703 16.6771 25.524 16.6405 25.5781C16.5896 25.6534 16.5395 25.7291 16.4892 25.8042C16.4593 25.8496 16.4283 25.8939 16.3984 25.9393C16.3944 25.9452 16.3905 25.9511 16.3866 25.957C16.2977 26.0916 16.2096 26.2267 16.1224 26.3622C16.1054 26.3889 16.0886 26.4163 16.0709 26.4432C16.0008 26.5526 15.9313 26.6613 15.8627 26.7711C15.8328 26.8192 15.8029 26.8674 15.7723 26.9157C15.7168 27.0047 15.6614 27.0943 15.6067 27.1837C15.5742 27.2374 15.5416 27.2912 15.5091 27.3449C15.4575 27.4307 15.4058 27.5159 15.3551 27.6021C15.3223 27.6573 15.2901 27.7123 15.2572 27.7675C15.2059 27.854 15.1559 27.9407 15.1054 28.0276C15.0741 28.081 15.0437 28.1349 15.0124 28.1882C14.9589 28.2822 14.9054 28.3761 14.8521 28.4707C14.8259 28.5172 14.7997 28.5637 14.7735 28.6101C14.6995 28.7435 14.6255 28.8768 14.5532 29.0111C14.5489 29.0185 14.5447 29.0259 14.5406 29.0339C14.464 29.1755 14.3882 29.3177 14.3133 29.4603C14.3087 29.4691 14.304 29.4773 14.2995 29.4861C14.2876 29.5087 14.2764 29.5311 14.2651 29.5535C14.1911 29.6944 14.1181 29.8365 14.0457 29.9784C14.0227 30.024 13.9996 30.069 13.9766 30.1146C13.8914 30.2834 13.8071 30.4528 13.7243 30.6231C13.7212 30.6294 13.7181 30.6358 13.715 30.6422C13.6349 30.8069 13.5563 30.9719 13.4785 31.1374C13.4565 31.1841 13.435 31.23 13.4137 31.2766C13.3445 31.4252 13.2762 31.5743 13.2093 31.7238C13.1976 31.7497 13.1857 31.775 13.1745 31.8002C13.0977 31.9717 13.0224 32.1441 12.9479 32.3163C12.9288 32.3609 12.9101 32.4046 12.891 32.4492C12.8308 32.5899 12.7713 32.7311 12.7127 32.8727C12.6964 32.9124 12.6795 32.9522 12.6632 32.9919C12.5924 33.1651 12.5224 33.3389 12.4538 33.513C12.4396 33.55 12.4254 33.587 12.4105 33.6242C12.354 33.7688 12.2989 33.9129 12.2445 34.0576C12.234 34.0853 12.2233 34.1124 12.2128 34.1401C12.206 34.1585 12.1994 34.1776 12.1926 34.196C12.1264 34.3736 12.0616 34.5515 11.9977 34.7299C11.9897 34.7514 11.9825 34.7734 11.9746 34.7956C11.9181 34.9553 11.8624 35.1155 11.8082 35.2761C11.792 35.324 11.7753 35.3721 11.7591 35.42C11.7005 35.5948 11.6426 35.7701 11.5863 35.9458C11.5844 35.9518 11.5826 35.9578 11.5801 35.964C11.5225 36.1455 11.4664 36.3273 11.411 36.5089C11.3963 36.5571 11.3821 36.6045 11.3675 36.6527C11.3206 36.8098 11.2744 36.9668 11.2292 37.1249C11.221 37.1534 11.2128 37.1819 11.2046 37.2104C11.1533 37.3922 11.1033 37.5737 11.0544 37.7563C11.0418 37.8019 11.03 37.8479 11.0182 37.894C10.9785 38.0444 10.9398 38.1959 10.9016 38.3465C10.8917 38.3866 10.8811 38.4268 10.8713 38.4674C10.8259 38.6505 10.7824 38.833 10.74 39.0166C10.7308 39.0571 10.7215 39.0969 10.7124 39.1374C10.6779 39.2892 10.6436 39.4416 10.6113 39.5934C10.6009 39.6398 10.5913 39.6859 10.5811 39.7329C10.5422 39.917 10.5043 40.1021 10.4677 40.287C10.4617 40.3162 10.4566 40.346 10.4509 40.3759C10.4201 40.5363 10.39 40.6965 10.3607 40.8572C10.3519 40.9066 10.3431 40.956 10.3343 41.0054C10.3011 41.1928 10.2692 41.3798 10.2388 41.5671C10.2375 41.575 10.2367 41.5822 10.2354 41.5901C10.2066 41.7707 10.1793 41.9517 10.1527 42.1324C10.1455 42.1827 10.1383 42.2331 10.1311 42.2834C10.1072 42.451 10.0848 42.6195 10.063 42.7872C10.06 42.8095 10.0571 42.8323 10.0542 42.8546C10.0307 43.0421 10.0087 43.2299 9.9882 43.418C9.98261 43.4665 9.97784 43.5155 9.97225 43.564C9.95586 43.7212 9.94011 43.8783 9.92519 44.0358C9.9215 44.0735 9.91765 44.1105 9.91461 44.1479C9.89748 44.3358 9.88229 44.5231 9.86792 44.711C9.86469 44.7554 9.86145 44.7998 9.85886 44.8441C9.8481 44.9991 9.83798 45.154 9.82868 45.3093C9.8258 45.355 9.82338 45.3999 9.82049 45.4457C9.81034 45.6337 9.80117 45.8229 9.79394 46.0115C9.79249 46.0472 9.79168 46.0827 9.79023 46.1183C9.78473 46.2775 9.78004 46.4371 9.776 46.5965C9.7748 46.6459 9.77377 46.696 9.77257 46.7454C9.76909 46.9351 9.76642 47.1253 9.76586 47.3156C9.76586 47.3336 9.76604 47.3522 9.76605 47.3702C9.76601 47.5445 9.76725 47.7184 9.76931 47.8928C9.76992 47.9438 9.77054 47.9948 9.77179 48.0456C9.77525 48.2252 9.77934 48.4045 9.78473 48.5836C9.78545 48.5965 9.78536 48.609 9.78608 48.6219C9.79249 48.8124 9.801 49.0031 9.81016 49.1935C9.81271 49.244 9.81525 49.2945 9.81844 49.3448C9.82693 49.5071 9.8367 49.669 9.84793 49.8313C9.85 49.8646 9.85189 49.8973 9.85443 49.9298C9.86763 50.1198 9.88277 50.3094 9.89919 50.4986C9.90345 50.5451 9.9077 50.5917 9.91196 50.6383C9.92649 50.7948 9.94166 50.9511 9.95748 51.1073C9.96216 51.1503 9.96619 51.1934 9.97104 51.2371C9.99168 51.4265 10.0136 51.6156 10.037 51.805C10.0421 51.8444 10.0474 51.8845 10.0525 51.9239C10.0728 52.0816 10.0939 52.2391 10.1164 52.3969C10.1232 52.4455 10.13 52.4935 10.1368 52.5421C10.1644 52.7318 10.1935 52.9217 10.2245 53.1111C10.2291 53.1382 10.2336 53.1654 10.238 53.1918C10.2657 53.3586 10.2946 53.5251 10.3242 53.6914C10.3331 53.7422 10.3426 53.7929 10.3521 53.8436C10.3877 54.0345 10.4239 54.2253 10.4622 54.4162C12.0013 62.0315 15.9211 68.3025 21.2956 72.6975L25.2976 75.9695C19.9225 71.5747 16.0028 65.3044 14.4642 57.6882C14.4259 57.4973 14.3897 57.3065 14.3541 57.1156L14.3588 57.1199Z" fill="#B96FDE"/>
<path d="M74.9336 68.4411C87.9564 52.5153 86.8585 30.0743 72.4812 18.3178C58.104 6.56126 35.8918 9.94111 22.869 25.8669C9.84616 41.7927 10.9441 64.2337 25.3214 75.9902C39.6986 87.7468 61.9107 84.3669 74.9336 68.4411Z" fill="url(#paint0_linear_869_132875)"/>
</g>
<path opacity="0.1" d="M52.6283 46.577C52.7743 46.6434 52.8801 46.687 52.9808 46.7378C54.2469 47.3796 55.5119 48.0237 56.7792 48.6639C57.2495 48.9014 57.1341 48.8758 57.539 48.6736C59.5811 47.6534 61.6205 46.6292 63.6643 45.6106C63.8166 45.535 63.8785 45.4473 63.8748 45.29C63.8263 43.16 63.7829 41.0305 63.7434 38.9005C63.7407 38.7562 63.6914 38.667 63.5416 38.5911C61.3923 37.5049 59.2448 36.4154 57.1002 35.322C56.9436 35.2421 56.8279 35.2467 56.675 35.3235C54.7326 36.3041 52.7852 37.2785 50.8395 38.2547C50.6748 38.3375 50.5123 38.4238 50.3449 38.5027C50.2366 38.554 50.1894 38.6278 50.1958 38.7351C50.2007 38.8149 50.1989 38.8952 50.2005 38.9755C50.3171 44.6522 50.4331 50.3288 50.553 56.0055C50.5614 56.4128 50.474 56.7894 50.1586 57.0895C50.0024 57.2376 49.8115 57.3674 49.6113 57.4691C48.5013 58.0338 47.3835 58.5877 46.2686 59.1451C44.2744 60.1427 42.279 61.1392 40.2865 62.1391C39.9515 62.307 39.6124 62.4294 39.207 62.4182C38.8622 62.4085 38.5614 62.3111 38.269 62.1626C37.2673 61.6544 36.2657 61.1462 35.2641 60.6386C33.1166 59.5496 30.9691 58.4607 28.8216 57.3717C28.7254 57.3232 28.6281 57.2758 28.5353 57.2227C27.9987 56.9178 27.7187 56.4841 27.6733 55.9356C27.6651 55.8395 27.6676 55.7435 27.6656 55.6474C27.6018 52.5249 27.5443 49.4024 27.4709 46.2797C27.4544 45.5692 27.7697 45.0703 28.4724 44.7218C31.4935 43.2228 34.5046 41.7086 37.5197 40.2C37.6685 40.1254 37.8169 40.0486 37.9691 39.9797C38.5193 39.7298 39.0803 39.7458 39.6239 40.0176C40.7978 40.6048 41.9603 41.2093 43.1337 41.7975C43.3255 41.894 43.3402 42.025 43.3428 42.1823C43.369 43.5433 43.3981 44.9043 43.4249 46.2659C43.4264 46.3519 43.4162 46.4377 43.4089 46.5685C43.2774 46.5152 43.1788 46.4835 43.0893 46.4383C42.1497 45.966 41.2113 45.4921 40.2723 45.0186C39.8629 44.8119 39.4518 44.6085 39.047 44.3957C38.8966 44.3163 38.7798 44.3114 38.6225 44.391C36.64 45.391 34.6526 46.383 32.6668 47.3773C32.5411 47.4403 32.4175 47.5055 32.2901 47.5657C32.1847 47.6159 32.1279 47.6862 32.1371 47.7958C32.1417 47.8514 32.139 47.9076 32.1402 47.9637C32.1825 50.0297 32.2292 52.0952 32.2614 54.1611C32.2651 54.3925 32.3533 54.519 32.5837 54.635C34.6323 55.6636 36.6741 56.7022 38.7176 57.738C38.7735 57.7666 38.8345 57.789 38.8854 57.8231C39.0406 57.9278 39.1756 57.9064 39.3369 57.8252C41.4299 56.7711 43.5256 55.7216 45.6252 54.6771C45.7871 54.5965 45.8205 54.4985 45.8172 54.3491C45.7788 52.6998 45.7471 51.0501 45.7131 49.4009C45.6294 45.3094 45.5484 41.2179 45.4591 37.1269C45.4448 36.4871 45.7446 36.0296 46.3655 35.7198C49.5147 34.146 52.6634 32.5712 55.8104 30.9929C56.4409 30.677 57.0654 30.6811 57.7085 31.0071C60.9136 32.6328 64.1197 34.2569 67.3282 35.8781C67.7929 36.1128 68.1205 36.4362 68.261 36.8884C68.2993 37.0106 68.3117 37.1415 68.314 37.2685C68.3833 40.5354 68.4498 43.8018 68.5174 47.0687C68.5293 47.6579 68.2393 48.0941 67.6696 48.3848C67.0599 48.6953 66.4452 48.9985 65.8327 49.3045C63.2813 50.5811 60.7293 51.8577 58.1779 53.1354C57.5846 53.4326 56.9786 53.4309 56.3768 53.1287C55.2281 52.5525 54.0879 51.9622 52.9397 51.3843C52.7568 51.2923 52.6808 51.1844 52.6779 50.9996C52.6562 49.6224 52.6234 48.2456 52.5967 46.8683C52.5951 46.7851 52.6138 46.7022 52.6283 46.577Z" fill="black"/>
<path d="M53.3119 46.9755C53.4579 47.0418 53.5637 47.0854 53.6644 47.1362C54.9305 47.7781 56.1955 48.4222 57.4628 49.0623C57.9331 49.2999 57.8177 49.2742 58.2226 49.072C60.2647 48.0518 62.3041 47.0276 64.3479 46.0091C64.5002 45.9334 64.5621 45.8457 64.5584 45.6885C64.5099 43.5584 64.4665 41.4289 64.427 39.299C64.4243 39.1546 64.375 39.0655 64.2252 38.9895C62.0759 37.9034 59.9284 36.8138 57.7838 35.7204C57.6272 35.6405 57.5115 35.6451 57.3586 35.7219C55.4162 36.7026 53.4688 37.677 51.5231 38.6531C51.3584 38.736 51.1959 38.8222 51.0285 38.9011C50.9202 38.9525 50.873 39.0262 50.8794 39.1335C50.8843 39.2133 50.8825 39.2936 50.8841 39.3739C51.0007 45.0506 51.1167 50.7273 51.2366 56.404C51.245 56.8112 51.1576 57.1879 50.8422 57.488C50.686 57.636 50.4951 57.7659 50.2949 57.8675C49.1849 58.4322 48.0671 58.9862 46.9522 59.5435C44.9579 60.5412 42.9626 61.5376 40.9701 62.5375C40.6351 62.7054 40.296 62.8278 39.8906 62.8166C39.5458 62.807 39.245 62.7095 38.9525 62.5611C37.9509 62.0529 36.9493 61.5447 35.9477 61.037C33.8002 59.9481 31.6527 58.8591 29.5052 57.7702C29.409 57.7216 29.3117 57.6742 29.2189 57.6212C28.6823 57.3162 28.4023 56.8826 28.3569 56.3341C28.3487 56.238 28.3512 56.1419 28.3492 56.0459C28.2854 52.9233 28.2279 49.8008 28.1545 46.6782C28.138 45.9676 28.4533 45.4687 29.156 45.1202C32.1771 43.6212 35.1882 42.107 38.2032 40.5984C38.3521 40.5238 38.5005 40.447 38.6527 40.3781C39.2029 40.1283 39.7638 40.1442 40.3075 40.4161C41.4814 41.0032 42.6439 41.6077 43.8173 42.196C44.0091 42.2925 44.0238 42.4235 44.0264 42.5807C44.0526 43.9417 44.0817 45.3028 44.1085 46.6644C44.11 46.7503 44.0998 46.8362 44.0925 46.9669C43.961 46.9136 43.8624 46.8819 43.7729 46.8368C42.8333 46.3645 41.8949 45.8905 40.9559 45.4171C40.5465 45.2103 40.1354 45.007 39.7306 44.7941C39.5802 44.7148 39.4634 44.7099 39.3061 44.7894C37.3236 45.7894 35.3362 46.7814 33.3504 47.7758C33.2247 47.8387 33.1011 47.904 32.9737 47.9641C32.8683 48.0143 32.8115 48.0846 32.8207 48.1942C32.8253 48.2499 32.8226 48.306 32.8238 48.3622C32.8661 50.4282 32.9128 52.4936 32.945 54.5595C32.9487 54.7909 33.0369 54.9175 33.2673 55.0334C35.3159 56.062 37.3577 57.1006 39.4012 58.1365C39.4571 58.165 39.5181 58.1874 39.569 58.2216C39.7242 58.3262 39.8592 58.3049 40.0205 58.2237C42.1135 57.1696 44.2092 56.12 46.3088 55.0756C46.4707 54.9949 46.5041 54.8969 46.5008 54.7475C46.4624 53.0983 46.4307 51.4485 46.3967 49.7993C46.313 45.7078 46.232 41.6163 46.1427 37.5253C46.1284 36.8855 46.4282 36.4281 47.0491 36.1182C50.1983 34.5445 53.347 32.9696 56.494 31.3914C57.1245 31.0754 57.749 31.0795 58.3921 31.4056C61.5972 33.0313 64.8033 34.6553 68.0118 36.2765C68.4765 36.5112 68.8041 36.8347 68.9446 37.2868C68.9829 37.409 68.9953 37.54 68.9976 37.6669C69.0669 40.9339 69.1334 44.2002 69.201 47.4671C69.2129 48.0564 68.9228 48.4926 68.3532 48.7832C67.7435 49.0938 67.1288 49.3969 66.5163 49.703C63.9649 50.9795 61.4129 52.2561 58.8615 53.5338C58.2682 53.831 57.6622 53.8293 57.0604 53.5272C55.9117 52.9509 54.7715 52.3607 53.6233 51.7827C53.4404 51.6908 53.3644 51.5829 53.3614 51.3981C53.3398 50.0208 53.307 48.644 53.2803 47.2667C53.2787 47.1836 53.298 47.1006 53.3125 46.9755L53.3119 46.9755Z" fill="white"/>
<defs>
<filter id="filter0_d_869_132875" x="0.765625" y="4.03125" width="90.2617" height="90.9688" filterUnits="userSpaceOnUse" color-interpolation-filters="sRGB">
<feFlood flood-opacity="0" result="BackgroundImageFix"/>
<feColorMatrix in="SourceAlpha" type="matrix" values="0 0 0 0 0 0 0 0 0 0 0 0 0 0 0 0 0 0 127 0" result="hardAlpha"/>
<feOffset dx="-1" dy="4"/>
<feGaussianBlur stdDeviation="4"/>
<feComposite in2="hardAlpha" operator="out"/>
<feColorMatrix type="matrix" values="0 0 0 0 0 0 0 0 0 0 0 0 0 0 0 0 0 0 0.2 0"/>
<feBlend mode="normal" in2="BackgroundImageFix" result="effect1_dropShadow_869_132875"/>
<feBlend mode="normal" in="SourceGraphic" in2="effect1_dropShadow_869_132875" result="shape"/>
</filter>
<linearGradient id="paint0_linear_869_132875" x1="22.869" y1="25.8669" x2="74.9336" y2="68.4411" gradientUnits="userSpaceOnUse">
<stop stop-color="#A859D0"/>
<stop offset="1" stop-color="#8658DB"/>
</linearGradient>
</defs>
</svg>
