<svg width="89" height="88" viewBox="0 0 89 88" fill="none" xmlns="http://www.w3.org/2000/svg">
<g filter="url(#filter0_d_869_135178)">
<path d="M44.9922 77C64.8744 77 80.9922 60.8823 80.9922 41C80.9922 21.1177 64.8744 5 44.9922 5C25.1099 5 8.99219 21.1177 8.99219 41C8.99219 60.8823 25.1099 77 44.9922 77Z" fill="#E09400"/>
</g>
<path d="M80.8037 39.1442C80.8037 57.8741 64.7915 73.0765 45.0156 73.0765C25.2397 73.0765 9.22759 57.8741 9.22759 39.1442C9.22759 20.4144 25.2397 5.21196 45.0156 5.21196C64.7915 5.21196 80.8037 20.4144 80.8037 39.1442Z" fill="url(#paint0_linear_869_135178)" stroke="url(#paint1_linear_869_135178)" stroke-width="0.423928"/>
<path d="M45.0152 37.7836C45.223 37.7836 45.223 37.4609 45.0152 37.4609C44.8074 37.4609 44.8074 37.7836 45.0152 37.7836Z" fill="#0B0C0D"/>
<g opacity="0.1">
<path d="M36.7773 35.4653L36.9174 35.6298L44.7378 44.826L45.0101 45.1467L45.2824 44.826L53.1029 35.6298L53.2423 35.4653L53.1623 35.2652L45.3418 15.6605L45.0101 14.8281L44.6778 15.6605L36.8574 35.2652L36.7773 35.4653Z" fill="black"/>
<path d="M67.4068 35.1094L51.0006 25.0938L56.9015 35.2436L45.0127 50.2574L33.1232 35.2436L39.0241 25.0938L22.6178 35.1094L22.2539 35.323L22.5243 35.6469L44.7378 62.2875L45.0127 62.6172L45.2869 62.2875L67.501 35.6469L67.7714 35.323L67.4068 35.1094Z" fill="black"/>
</g>
<path d="M32.6867 34.7969L22.8047 34.955L45.0188 61.5956V50.3701L32.6867 34.7969Z" fill="#F9EBD4"/>
<path d="M38.2953 25.4688L22.8047 34.9546L32.6867 34.7965L38.2953 25.4688Z" fill="white"/>
<path d="M51.7383 25.4688L57.3475 34.7965L67.2289 34.9546L51.7383 25.4688Z" fill="#FFF2DD"/>
<path d="M57.3438 34.7969L45.0117 50.3701V61.5956L67.2252 34.955L57.3438 34.7969Z" fill="#F2CF9F"/>
<path d="M45.0158 15.3281L37.1953 34.9335L45.0158 44.1297V15.3281Z" fill="white"/>
<path d="M45.0117 15.3281L52.8322 34.9335L45.0117 44.1297V15.3281Z" fill="#FFEDCF"/>
<defs>
<filter id="filter0_d_869_135178" x="0.992188" y="0" width="88" height="88" filterUnits="userSpaceOnUse" color-interpolation-filters="sRGB">
<feFlood flood-opacity="0" result="BackgroundImageFix"/>
<feColorMatrix in="SourceAlpha" type="matrix" values="0 0 0 0 0 0 0 0 0 0 0 0 0 0 0 0 0 0 127 0" result="hardAlpha"/>
<feOffset dy="3"/>
<feGaussianBlur stdDeviation="4"/>
<feComposite in2="hardAlpha" operator="out"/>
<feColorMatrix type="matrix" values="0 0 0 0 0 0 0 0 0 0 0 0 0 0 0 0 0 0 0.17 0"/>
<feBlend mode="normal" in2="BackgroundImageFix" result="effect1_dropShadow_869_135178"/>
<feBlend mode="normal" in="SourceGraphic" in2="effect1_dropShadow_869_135178" result="shape"/>
</filter>
<linearGradient id="paint0_linear_869_135178" x1="45.0156" y1="5" x2="45.0156" y2="73.2885" gradientUnits="userSpaceOnUse">
<stop stop-color="#FFC100"/>
<stop offset="1" stop-color="#FFB800"/>
</linearGradient>
<linearGradient id="paint1_linear_869_135178" x1="45.0156" y1="5" x2="45.0156" y2="73.2885" gradientUnits="userSpaceOnUse">
<stop stop-color="#FFF778"/>
<stop offset="1" stop-color="white" stop-opacity="0.24"/>
</linearGradient>
</defs>
</svg>
