<svg width="24" height="24" viewBox="0 0 24 24" fill="none" xmlns="http://www.w3.org/2000/svg">
<path fill-rule="evenodd" clip-rule="evenodd" d="M16.5728 11.7706C16.5694 11.7706 16.566 11.7706 16.5626 11.7706C13.6735 11.7706 11.3025 9.55264 11.0592 6.72656H2.85547V22.2024H16.5728V11.7706Z" fill="url(#paint0_linear_11164_67402)"/>
<ellipse cx="16.5533" cy="6.3542" rx="4.55331" ry="4.55342" fill="#D9D9D9"/>
<ellipse cx="16.5533" cy="6.3542" rx="4.55331" ry="4.55342" fill="url(#paint1_linear_11164_67402)"/>
<path d="M16.5068 8.04052H14.3158C14.1224 8.04052 13.9648 8.19491 13.9648 8.38684V8.66026C13.9648 8.72566 14.0191 8.77927 14.0854 8.77927H16.7372C16.8046 8.77927 16.8578 8.72566 16.8578 8.66026V8.38684C16.8578 8.19491 16.7003 8.04052 16.5068 8.04052Z" fill="white"/>
<path d="M16.5068 8.04052H14.3158C14.1224 8.04052 13.9648 8.19491 13.9648 8.38684V8.66026C13.9648 8.72566 14.0191 8.77927 14.0854 8.77927H16.7372C16.8046 8.77927 16.8578 8.72566 16.8578 8.66026V8.38684C16.8578 8.19491 16.7003 8.04052 16.5068 8.04052Z" fill="url(#paint2_linear_11164_67402)"/>
<path d="M19.16 7.82702L16.8235 5.77944L16.3669 6.23002L18.4417 8.5358C18.6367 8.75398 18.9768 8.7643 19.1848 8.55903C19.3928 8.35376 19.381 8.01809 19.16 7.82702Z" fill="white"/>
<path d="M19.16 7.82702L16.8235 5.77944L16.3669 6.23002L18.4417 8.5358C18.6367 8.75398 18.9768 8.7643 19.1848 8.55903C19.3928 8.35376 19.381 8.01809 19.16 7.82702Z" fill="url(#paint3_linear_11164_67402)"/>
<path d="M14.5871 5.33945L15.9223 4.02179L17.1699 5.25292L15.8347 6.57058L14.5871 5.33945Z" fill="white"/>
<path d="M14.5871 5.33945L15.9223 4.02179L17.1699 5.25292L15.8347 6.57058L14.5871 5.33945Z" fill="url(#paint4_linear_11164_67402)"/>
<path d="M17.2885 5.18865C17.4113 5.30988 17.6102 5.30989 17.733 5.18865C17.8559 5.06742 17.8558 4.87121 17.733 4.74998L16.435 3.46905C16.3736 3.40843 16.2928 3.37813 16.2128 3.37892C16.1327 3.37813 16.0519 3.40843 15.9905 3.46905C15.8676 3.59029 15.8676 3.78649 15.9905 3.90773L17.2885 5.18865Z" fill="white"/>
<path d="M17.2885 5.18865C17.4113 5.30988 17.6102 5.30989 17.733 5.18865C17.8559 5.06742 17.8558 4.87121 17.733 4.74998L16.435 3.46905C16.3736 3.40843 16.2928 3.37813 16.2128 3.37892C16.1327 3.37813 16.0519 3.40843 15.9905 3.46905C15.8676 3.59029 15.8676 3.78649 15.9905 3.90773L17.2885 5.18865Z" fill="url(#paint5_linear_11164_67402)"/>
<path d="M15.3237 7.12759C15.4466 7.24882 15.6454 7.24882 15.7682 7.12759C15.8911 7.00635 15.8911 6.81014 15.7682 6.68891L14.4702 5.40799C14.4088 5.34737 14.328 5.31706 14.2488 5.31706C14.168 5.31706 14.0872 5.34737 14.0257 5.40799C13.9029 5.52922 13.9029 5.72543 14.0257 5.84666L15.3237 7.12759Z" fill="white"/>
<path d="M15.3237 7.12759C15.4466 7.24882 15.6454 7.24882 15.7682 7.12759C15.8911 7.00635 15.8911 6.81014 15.7682 6.68891L14.4702 5.40799C14.4088 5.34737 14.328 5.31706 14.2488 5.31706C14.168 5.31706 14.0872 5.34737 14.0257 5.40799C13.9029 5.52922 13.9029 5.72543 14.0257 5.84666L15.3237 7.12759Z" fill="url(#paint6_linear_11164_67402)"/>
<rect x="4.96875" y="12" width="9.49664" height="1.75862" rx="0.703452" fill="white"/>
<rect x="4.96875" y="15.168" width="9.49664" height="1.75862" rx="0.703452" fill="white"/>
<rect x="4.96875" y="18.332" width="9.49664" height="1.75862" rx="0.703452" fill="white"/>
<defs>
<linearGradient id="paint0_linear_11164_67402" x1="0.716888" y1="23.3518" x2="26.7545" y2="15.6846" gradientUnits="userSpaceOnUse">
<stop stop-color="#05E0E0"/>
<stop offset="1" stop-color="#02C8C8"/>
</linearGradient>
<linearGradient id="paint1_linear_11164_67402" x1="11.7032" y1="2.84076" x2="28.7445" y2="16.2679" gradientUnits="userSpaceOnUse">
<stop stop-color="#F9FBFF"/>
<stop offset="1" stop-color="#E2F1FA"/>
</linearGradient>
<linearGradient id="paint2_linear_11164_67402" x1="13.0803" y1="3.47179" x2="19.4979" y2="10.0737" gradientUnits="userSpaceOnUse">
<stop stop-color="#FFAC4B"/>
<stop offset="1" stop-color="#FCCA80"/>
</linearGradient>
<linearGradient id="paint3_linear_11164_67402" x1="13.0803" y1="3.47179" x2="19.4979" y2="10.0737" gradientUnits="userSpaceOnUse">
<stop stop-color="#FFAC4B"/>
<stop offset="1" stop-color="#FCCA80"/>
</linearGradient>
<linearGradient id="paint4_linear_11164_67402" x1="13.0803" y1="3.47179" x2="19.4979" y2="10.0737" gradientUnits="userSpaceOnUse">
<stop stop-color="#FFAC4B"/>
<stop offset="1" stop-color="#FCCA80"/>
</linearGradient>
<linearGradient id="paint5_linear_11164_67402" x1="13.0803" y1="3.47179" x2="19.4979" y2="10.0737" gradientUnits="userSpaceOnUse">
<stop stop-color="#FFAC4B"/>
<stop offset="1" stop-color="#FCCA80"/>
</linearGradient>
<linearGradient id="paint6_linear_11164_67402" x1="13.0803" y1="3.47179" x2="19.4979" y2="10.0737" gradientUnits="userSpaceOnUse">
<stop stop-color="#FFAC4B"/>
<stop offset="1" stop-color="#FCCA80"/>
</linearGradient>
</defs>
</svg>
