<svg width="170" height="171" viewBox="0 0 170 171" fill="none" xmlns="http://www.w3.org/2000/svg">
<rect x="53.8615" y="17.1193" width="91.7023" height="110.442" rx="3.1705" fill="url(#paint0_linear_11446_52409)" stroke="#E1EDF8" stroke-width="2.11367"/>
<rect x="54.9297" y="18.1719" width="89.3711" height="14.7955" fill="#E1EDF8"/>
<ellipse cx="62.3871" cy="25.5767" rx="3.19183" ry="3.17046" fill="white"/>
<ellipse cx="70.8989" cy="25.5767" rx="3.19183" ry="3.17046" fill="white"/>
<ellipse cx="79.4067" cy="25.5767" rx="3.19183" ry="3.17046" fill="white"/>
<rect x="61.3203" y="89.8906" width="76.6038" height="16.9091" rx="1.05683" fill="#DAE5F6"/>
<rect x="61.3203" y="111.031" width="51.0692" height="10.5682" rx="1.05683" fill="#DAE5F6"/>
<rect width="23.4067" height="10.5682" rx="1.05683" transform="matrix(-1 0 0 1 137.926 111.031)" fill="#D9D9D9"/>
<rect width="23.4067" height="10.5682" rx="1.05683" transform="matrix(-1 0 0 1 137.926 111.031)" fill="#DAE5F6"/>
<g filter="url(#filter0_d_11446_52409)">
<path d="M23.375 107.543C23.375 106.199 24.0714 104.951 25.215 104.246L50.3885 88.7224C51.6348 87.9538 53.208 87.9538 54.4542 88.7224L79.6278 104.246C80.7714 104.951 81.4678 106.199 81.4678 107.543V136.528C81.4678 137.923 80.7178 139.21 79.5043 139.897L54.3308 154.162C53.1463 154.834 51.6964 154.834 50.512 154.162L25.3385 139.897C24.125 139.21 23.375 137.923 23.375 136.528V107.543Z" fill="white"/>
<path d="M23.375 107.543C23.375 106.199 24.0714 104.951 25.215 104.246L50.3885 88.7224C51.6348 87.9538 53.208 87.9538 54.4542 88.7224L79.6278 104.246C80.7714 104.951 81.4678 106.199 81.4678 107.543V136.528C81.4678 137.923 80.7178 139.21 79.5043 139.897L54.3308 154.162C53.1463 154.834 51.6964 154.834 50.512 154.162L25.3385 139.897C24.125 139.21 23.375 137.923 23.375 136.528V107.543Z" fill="url(#paint1_linear_11446_52409)"/>
</g>
<path d="M27.2461 109.832C27.2461 108.482 27.9495 107.229 29.1024 106.526L50.403 93.5346C51.6414 92.7794 53.1979 92.7793 54.4362 93.5346L75.7369 106.526C76.8898 107.229 77.5932 108.482 77.5932 109.832V134.021C77.5932 135.422 76.8362 136.714 75.6137 137.399L54.3131 149.337C53.1368 149.996 51.7024 149.996 50.5262 149.337L29.2255 137.399C28.0031 136.714 27.2461 135.422 27.2461 134.021V109.832Z" fill="url(#paint2_linear_11446_52409)"/>
<path fill-rule="evenodd" clip-rule="evenodd" d="M36.4721 124.074C37.1411 124.069 37.6874 124.608 37.6922 125.278C37.7115 127.933 38.6211 130.454 40.2463 132.685C40.6406 133.226 40.5222 133.985 39.9817 134.38C39.4413 134.775 38.6835 134.656 38.2892 134.115C36.4006 131.523 35.2929 128.516 35.2696 125.296C35.2647 124.626 35.8031 124.079 36.4721 124.074Z" fill="url(#paint3_linear_11446_52409)"/>
<path fill-rule="evenodd" clip-rule="evenodd" d="M67.9751 116.179C67.3864 113.91 65.6673 112.211 63.3603 111.637C62.711 111.475 62.3154 110.817 62.4767 110.167C62.638 109.517 63.295 109.121 63.9443 109.282C67.1031 110.068 69.5053 112.429 70.3199 115.568C70.4882 116.217 70.0996 116.879 69.4521 117.048C68.8046 117.216 68.1433 116.827 67.9751 116.179Z" fill="url(#paint4_linear_11446_52409)"/>
<path fill-rule="evenodd" clip-rule="evenodd" d="M57.6574 109.11C57.6525 108.422 56.9573 107.608 55.7784 107.607C54.6039 107.605 53.9373 108.408 53.9422 109.083L54.0011 117.192C54.006 117.862 53.4676 118.409 52.7986 118.414C52.1296 118.419 51.5833 117.88 51.5784 117.21L51.4999 106.398C51.4949 105.711 50.7998 104.896 49.6209 104.895C48.4464 104.893 47.7798 105.696 47.7847 106.371L47.873 118.535C47.8779 119.205 47.3395 119.752 46.6705 119.757C46.0015 119.762 45.4552 119.223 45.4504 118.553L45.4111 113.147C45.4061 112.459 44.711 111.645 43.5321 111.643C42.3576 111.642 41.691 112.445 41.6959 113.12L41.7842 125.284C41.8217 130.45 46.6653 134.9 52.9289 134.909C59.1882 134.919 63.9505 130.491 63.9131 125.337L63.8542 117.228C63.8492 116.541 63.154 115.726 61.9752 115.725C60.8007 115.723 60.1341 116.526 60.139 117.201L60.1782 122.607C60.1806 122.931 60.0538 123.242 59.826 123.471C59.5982 123.701 59.2883 123.83 58.9652 123.829C56.0957 123.825 54.0639 125.836 54.0796 128.005C54.0845 128.674 53.5461 129.222 52.8771 129.226C52.2081 129.231 51.6618 128.692 51.657 128.022C51.6357 125.092 53.6666 122.744 56.3887 121.824C57.1497 121.566 57.743 120.897 57.7372 120.093L57.6574 109.11Z" fill="url(#paint5_linear_11446_52409)"/>
<path fill-rule="evenodd" clip-rule="evenodd" d="M103.136 48.0896C101.659 47.4168 100.025 47.043 98.3052 47.043C91.7293 47.043 86.3984 52.5096 86.3984 59.2531C86.3984 61.2063 86.8457 63.0524 87.6409 64.6896C87.8522 65.1247 87.9225 65.622 87.8 66.0915L87.0908 68.8095C86.783 69.9894 87.8356 71.0689 88.9862 70.7532L91.6367 70.0259C92.0946 69.9003 92.5795 69.9724 93.0038 70.1891C94.6003 71.0046 96.4005 71.4632 98.3052 71.4632C104.881 71.4632 110.212 65.9966 110.212 59.2531C110.212 57.8337 109.976 56.4709 109.542 55.2037C108.778 55.7079 107.862 56.0014 106.878 56.0014C104.205 56.0014 102.037 53.8339 102.037 51.1603C102.037 49.9946 102.449 48.9251 103.136 48.0896Z" fill="#E1EDF8"/>
<path d="M100.76 54.2823C100.76 55.6191 99.6762 56.7029 98.3394 56.7029C97.0026 56.7029 95.9189 55.6191 95.9189 54.2823C95.9189 52.9455 97.0026 51.8617 98.3394 51.8617C99.6762 51.8617 100.76 52.9455 100.76 54.2823Z" fill="url(#paint6_linear_11446_52409)"/>
<path d="M103.18 61.2414C103.18 62.7454 103.18 63.9645 98.3394 63.9645C93.4983 63.9645 93.4983 62.7454 93.4983 61.2414C93.4983 59.7375 95.6657 58.5183 98.3394 58.5183C101.013 58.5183 103.18 59.7375 103.18 61.2414Z" fill="url(#paint7_linear_11446_52409)"/>
<path d="M84.5246 64.1488C84.5246 65.4689 84.5257 66.7889 84.5236 68.1089C84.5225 68.8261 84.3047 69.0538 83.6214 69.0549C82.8051 69.0571 81.9888 69.0615 81.1725 69.0538C79.9303 69.0417 79.054 68.1419 79.0486 66.8637C79.0411 65.0355 79.0411 63.2061 79.0486 61.3779C79.054 60.1305 79.8789 59.2439 81.0996 59.2021C81.9824 59.1724 82.8663 59.1856 83.7491 59.1977C84.2897 59.2054 84.5107 59.4573 84.5236 60.0238C84.5246 60.0513 84.5236 60.0788 84.5236 60.1063C84.5246 61.4538 84.5246 62.8013 84.5246 64.1488Z" fill="url(#paint8_linear_11446_52409)"/>
<path d="M113.47 64.036C113.47 62.7028 113.468 61.3685 113.471 60.0353C113.472 59.3653 113.69 59.1343 114.332 59.1299C115.148 59.1233 115.964 59.1189 116.781 59.131C118.111 59.1508 118.945 60.0287 118.947 61.4015C118.951 63.1747 118.951 64.949 118.947 66.7222C118.944 68.1038 118.083 68.9849 116.735 68.9893C115.918 68.9926 115.102 68.9937 114.286 68.9882C113.721 68.9849 113.475 68.7374 113.472 68.161C113.467 66.786 113.47 65.411 113.47 64.036Z" fill="url(#paint9_linear_11446_52409)"/>
<path d="M115.523 70.0159C115.973 70.0159 116.396 70.0159 116.911 70.0159C116.802 70.6034 116.733 71.1699 116.588 71.7155C115.569 75.5754 112.196 78.3111 108.303 78.4288C107.154 78.464 106.003 78.4398 104.853 78.4409C104.776 78.4409 104.699 78.4233 104.6 78.4101C104.6 77.9624 104.6 77.529 104.6 77.0527C104.747 77.0461 104.89 77.034 105.031 77.034C106.074 77.0307 107.118 77.0483 108.16 77.0252C111.95 76.9416 115.045 74.0431 115.492 70.1765C115.497 70.1369 115.508 70.0973 115.523 70.0159Z" fill="url(#paint10_linear_11446_52409)"/>
<path d="M100.759 76.3443C101.32 76.3432 101.881 76.3377 102.442 76.3454C102.955 76.352 103.197 76.6039 103.206 77.1319C103.212 77.5433 103.212 77.9558 103.206 78.3672C103.197 78.8655 102.946 79.1482 102.474 79.1526C101.339 79.1625 100.203 79.1702 99.0682 79.1493C98.3034 79.1361 97.7338 78.5091 97.7359 77.7413C97.7381 76.968 98.3077 76.3652 99.0768 76.3476C99.6367 76.3333 100.198 76.3443 100.759 76.3443Z" fill="url(#paint11_linear_11446_52409)"/>
<path d="M116.892 58.3097C116.892 55.9406 116.426 53.5948 115.519 51.406C114.613 49.2173 113.284 47.2286 111.609 45.5534C109.934 43.8782 107.945 42.5494 105.757 41.6428C103.568 40.7362 101.223 40.2695 98.8538 40.2695C96.4849 40.2695 94.1393 40.7362 91.9507 41.6428C89.7621 42.5494 87.7736 43.8782 86.0985 45.5534C84.4235 47.2286 83.0948 49.2173 82.1882 51.406C81.2817 53.5948 80.8151 55.9406 80.8151 58.3097H82.4886C82.4886 56.1604 82.9119 54.0322 83.7344 52.0465C84.5568 50.0608 85.7622 48.2566 87.2819 46.7368C88.8015 45.217 90.6056 44.0115 92.5911 43.189C94.5766 42.3665 96.7047 41.9432 98.8538 41.9432C101.003 41.9432 103.131 42.3665 105.116 43.189C107.102 44.0115 108.906 45.217 110.426 46.7368C111.945 48.2566 113.151 50.0608 113.973 52.0465C114.796 54.0322 115.219 56.1604 115.219 58.3097H116.892Z" fill="url(#paint12_linear_11446_52409)"/>
<path d="M110.442 50.6515C110.442 52.6567 108.816 54.2823 106.811 54.2823C104.806 54.2823 103.18 52.6567 103.18 50.6515C103.18 48.6462 104.806 47.0206 106.811 47.0206C108.816 47.0206 110.442 48.6462 110.442 50.6515Z" fill="url(#paint13_linear_11446_52409)"/>
<defs>
<filter id="filter0_d_11446_52409" x="21.4386" y="88.1445" width="65.8395" height="74.2653" filterUnits="userSpaceOnUse" color-interpolation-filters="sRGB">
<feFlood flood-opacity="0" result="BackgroundImageFix"/>
<feColorMatrix in="SourceAlpha" type="matrix" values="0 0 0 0 0 0 0 0 0 0 0 0 0 0 0 0 0 0 127 0" result="hardAlpha"/>
<feOffset dx="1.93644" dy="3.87287"/>
<feGaussianBlur stdDeviation="1.93644"/>
<feComposite in2="hardAlpha" operator="out"/>
<feColorMatrix type="matrix" values="0 0 0 0 0.454167 0 0 0 0 0 0 0 0 0 0 0 0 0 0.07 0"/>
<feBlend mode="normal" in2="BackgroundImageFix" result="effect1_dropShadow_11446_52409"/>
<feBlend mode="normal" in="SourceGraphic" in2="effect1_dropShadow_11446_52409" result="shape"/>
</filter>
<linearGradient id="paint0_linear_11446_52409" x1="52.8047" y1="32.1419" x2="153.518" y2="120.782" gradientUnits="userSpaceOnUse">
<stop stop-color="white"/>
<stop offset="1" stop-color="#E2F1FA"/>
</linearGradient>
<linearGradient id="paint1_linear_11446_52409" x1="27.8533" y1="41.0881" x2="39.8471" y2="213.565" gradientUnits="userSpaceOnUse">
<stop stop-color="#FF4B4B"/>
<stop offset="1" stop-color="#FFB6B6"/>
</linearGradient>
<linearGradient id="paint2_linear_11446_52409" x1="27.2461" y1="100.604" x2="79.446" y2="148.373" gradientUnits="userSpaceOnUse">
<stop stop-color="white"/>
<stop offset="1" stop-color="#E2F1FA"/>
</linearGradient>
<linearGradient id="paint3_linear_11446_52409" x1="37.9746" y1="84.3545" x2="41.8775" y2="160.907" gradientUnits="userSpaceOnUse">
<stop stop-color="#FF4B4B"/>
<stop offset="1" stop-color="#FFB6B6"/>
</linearGradient>
<linearGradient id="paint4_linear_11446_52409" x1="37.9746" y1="84.3545" x2="41.8775" y2="160.907" gradientUnits="userSpaceOnUse">
<stop stop-color="#FF4B4B"/>
<stop offset="1" stop-color="#FFB6B6"/>
</linearGradient>
<linearGradient id="paint5_linear_11446_52409" x1="37.9746" y1="84.3545" x2="41.8775" y2="160.907" gradientUnits="userSpaceOnUse">
<stop stop-color="#FF4B4B"/>
<stop offset="1" stop-color="#FFB6B6"/>
</linearGradient>
<linearGradient id="paint6_linear_11446_52409" x1="54.8376" y1="14.2485" x2="42.689" y2="78.8754" gradientUnits="userSpaceOnUse">
<stop stop-color="#FF4B4B"/>
<stop offset="1" stop-color="#FFB6B6"/>
</linearGradient>
<linearGradient id="paint7_linear_11446_52409" x1="54.8376" y1="14.2485" x2="42.689" y2="78.8754" gradientUnits="userSpaceOnUse">
<stop stop-color="#FF4B4B"/>
<stop offset="1" stop-color="#FFB6B6"/>
</linearGradient>
<linearGradient id="paint8_linear_11446_52409" x1="54.8376" y1="14.2485" x2="42.689" y2="78.8754" gradientUnits="userSpaceOnUse">
<stop stop-color="#FF4B4B"/>
<stop offset="1" stop-color="#FFB6B6"/>
</linearGradient>
<linearGradient id="paint9_linear_11446_52409" x1="54.8376" y1="14.2485" x2="42.689" y2="78.8754" gradientUnits="userSpaceOnUse">
<stop stop-color="#FF4B4B"/>
<stop offset="1" stop-color="#FFB6B6"/>
</linearGradient>
<linearGradient id="paint10_linear_11446_52409" x1="54.8376" y1="14.2485" x2="42.689" y2="78.8754" gradientUnits="userSpaceOnUse">
<stop stop-color="#FF4B4B"/>
<stop offset="1" stop-color="#FFB6B6"/>
</linearGradient>
<linearGradient id="paint11_linear_11446_52409" x1="54.8376" y1="14.2485" x2="42.689" y2="78.8754" gradientUnits="userSpaceOnUse">
<stop stop-color="#FF4B4B"/>
<stop offset="1" stop-color="#FFB6B6"/>
</linearGradient>
<linearGradient id="paint12_linear_11446_52409" x1="54.8376" y1="14.2485" x2="42.689" y2="78.8754" gradientUnits="userSpaceOnUse">
<stop stop-color="#FF4B4B"/>
<stop offset="1" stop-color="#FFB6B6"/>
</linearGradient>
<linearGradient id="paint13_linear_11446_52409" x1="54.8376" y1="14.2485" x2="42.689" y2="78.8754" gradientUnits="userSpaceOnUse">
<stop stop-color="#FF4B4B"/>
<stop offset="1" stop-color="#FFB6B6"/>
</linearGradient>
</defs>
</svg>
