<svg width="24" height="24" viewBox="0 0 24 24" fill="none" xmlns="http://www.w3.org/2000/svg">
<path d="M8.41646 2.51678C8.41646 2.33492 8.56389 2.1875 8.74574 2.1875H9.73358C9.91544 2.1875 10.0629 2.33492 10.0629 2.51678V2.84606C10.0629 2.85621 10.0624 2.86625 10.0615 2.87617C13.7544 3.20825 16.6484 6.3116 16.6484 10.0909C16.6484 11.2144 16.3927 12.2781 15.9362 13.2271C14.0776 13.6461 12.5882 15.04 12.0334 16.8432C11.2184 17.1608 10.3317 17.3351 9.4043 17.3351C5.40347 17.3351 2.16016 14.0917 2.16016 10.0909C2.16016 6.42283 4.88641 3.3915 8.4232 2.91263C8.41878 2.89113 8.41646 2.86887 8.41646 2.84606V2.51678Z" fill="url(#paint0_linear_11164_67422)"/>
<path d="M8.41646 2.51678C8.41646 2.33492 8.56389 2.1875 8.74574 2.1875H9.73358C9.91544 2.1875 10.0629 2.33492 10.0629 2.51678V2.84606C10.0629 2.85621 10.0624 2.86625 10.0615 2.87617C13.7544 3.20825 16.6484 6.3116 16.6484 10.0909C16.6484 11.2144 16.3927 12.2781 15.9362 13.2271C14.0776 13.6461 12.5882 15.04 12.0334 16.8432C11.2184 17.1608 10.3317 17.3351 9.4043 17.3351C5.40347 17.3351 2.16016 14.0917 2.16016 10.0909C2.16016 6.42283 4.88641 3.3915 8.4232 2.91263C8.41878 2.89113 8.41646 2.86887 8.41646 2.84606V2.51678Z" fill="url(#paint1_linear_11164_67422)"/>
<circle cx="17.1097" cy="18.4066" r="4.55111" fill="#D9D9D9"/>
<circle cx="17.1097" cy="18.4066" r="4.55111" fill="url(#paint2_linear_11164_67422)"/>
<path d="M14.836 19.4315C14.8413 18.5323 15.5552 17.8151 16.4402 17.8199C17.3232 17.8248 18.0328 18.5528 18.0291 19.4501C18.0253 20.3471 17.3006 21.0702 16.412 21.0635C15.5373 21.0567 14.8306 20.3252 14.836 19.4315ZM16.1338 18.9947C16.1569 18.9664 16.1926 18.8943 16.2501 18.857C16.4267 18.7423 16.6367 18.812 16.7555 19.012C16.8077 19.0997 16.8953 19.1313 16.9741 19.0905C17.054 19.049 17.0801 18.9599 17.0372 18.8638C16.9685 18.7094 16.857 18.5966 16.7012 18.5364C16.6314 18.5094 16.5851 18.4875 16.5854 18.3946C16.5856 18.3085 16.5193 18.257 16.4317 18.2527C16.3532 18.2486 16.2749 18.3115 16.2781 18.393C16.2818 18.484 16.2379 18.5091 16.1663 18.5372C15.9402 18.6257 15.8116 18.8192 15.8145 19.0495C15.8174 19.2749 15.9391 19.442 16.1753 19.5292C16.2682 19.5635 16.3689 19.5756 16.4631 19.6064C16.5473 19.6339 16.636 19.6609 16.7076 19.7108C16.8077 19.7805 16.809 19.9195 16.7214 19.9894C16.5406 20.1333 16.1338 20.1074 16.068 19.8315C16.0446 19.7332 15.9484 19.6957 15.8619 19.7278C15.782 19.7575 15.7434 19.8412 15.7703 19.9354C15.8331 20.1541 15.9788 20.2909 16.1889 20.3581C16.2459 20.3762 16.2765 20.3962 16.2754 20.4661C16.2741 20.5646 16.3423 20.6278 16.4296 20.6284C16.5124 20.6286 16.5862 20.5695 16.5867 20.478C16.5872 20.3989 16.6197 20.3735 16.6865 20.36C16.7281 20.3517 16.7688 20.333 16.8069 20.3133C16.9781 20.2248 17.0907 20.0931 17.0987 19.8887C17.107 19.6776 17.0231 19.5124 16.8423 19.4096C16.7568 19.361 16.6599 19.3308 16.5657 19.3005C16.4679 19.2692 16.3654 19.2536 16.2685 19.2201C16.1902 19.1926 16.1324 19.1372 16.1338 18.9947Z" fill="black"/>
<path d="M14.836 19.4315C14.8413 18.5323 15.5552 17.8151 16.4402 17.8199C17.3232 17.8248 18.0328 18.5528 18.0291 19.4501C18.0253 20.3471 17.3006 21.0702 16.412 21.0635C15.5373 21.0567 14.8306 20.3252 14.836 19.4315ZM16.1338 18.9947C16.1569 18.9664 16.1926 18.8943 16.2501 18.857C16.4267 18.7423 16.6367 18.812 16.7555 19.012C16.8077 19.0997 16.8953 19.1313 16.9741 19.0905C17.054 19.049 17.0801 18.9599 17.0372 18.8638C16.9685 18.7094 16.857 18.5966 16.7012 18.5364C16.6314 18.5094 16.5851 18.4875 16.5854 18.3946C16.5856 18.3085 16.5193 18.257 16.4317 18.2527C16.3532 18.2486 16.2749 18.3115 16.2781 18.393C16.2818 18.484 16.2379 18.5091 16.1663 18.5372C15.9402 18.6257 15.8116 18.8192 15.8145 19.0495C15.8174 19.2749 15.9391 19.442 16.1753 19.5292C16.2682 19.5635 16.3689 19.5756 16.4631 19.6064C16.5473 19.6339 16.636 19.6609 16.7076 19.7108C16.8077 19.7805 16.809 19.9195 16.7214 19.9894C16.5406 20.1333 16.1338 20.1074 16.068 19.8315C16.0446 19.7332 15.9484 19.6957 15.8619 19.7278C15.782 19.7575 15.7434 19.8412 15.7703 19.9354C15.8331 20.1541 15.9788 20.2909 16.1889 20.3581C16.2459 20.3762 16.2765 20.3962 16.2754 20.4661C16.2741 20.5646 16.3423 20.6278 16.4296 20.6284C16.5124 20.6286 16.5862 20.5695 16.5867 20.478C16.5872 20.3989 16.6197 20.3735 16.6865 20.36C16.7281 20.3517 16.7688 20.333 16.8069 20.3133C16.9781 20.2248 17.0907 20.0931 17.0987 19.8887C17.107 19.6776 17.0231 19.5124 16.8423 19.4096C16.7568 19.361 16.6599 19.3308 16.5657 19.3005C16.4679 19.2692 16.3654 19.2536 16.2685 19.2201C16.1902 19.1926 16.1324 19.1372 16.1338 18.9947Z" fill="url(#paint3_linear_11164_67422)"/>
<path d="M17.7846 15.7541C18.1734 15.7541 18.5619 15.7535 18.9506 15.7544C19.2358 15.7549 19.3852 15.9085 19.3857 16.1987C19.3857 16.2661 19.386 16.3336 19.3857 16.4011C19.3841 16.6565 19.2291 16.8203 18.978 16.8252C18.7754 16.829 18.5728 16.826 18.3701 16.826C17.7955 16.826 17.2207 16.8263 16.646 16.826C16.3412 16.8257 16.1931 16.6756 16.1929 16.3682C16.1929 16.294 16.1915 16.2197 16.1934 16.1455C16.199 15.9187 16.3545 15.7576 16.5789 15.7557C16.9807 15.7525 17.3828 15.7546 17.7849 15.7546C17.7846 15.7546 17.7846 15.7544 17.7846 15.7541Z" fill="black"/>
<path d="M17.7846 15.7541C18.1734 15.7541 18.5619 15.7535 18.9506 15.7544C19.2358 15.7549 19.3852 15.9085 19.3857 16.1987C19.3857 16.2661 19.386 16.3336 19.3857 16.4011C19.3841 16.6565 19.2291 16.8203 18.978 16.8252C18.7754 16.829 18.5728 16.826 18.3701 16.826C17.7955 16.826 17.2207 16.8263 16.646 16.826C16.3412 16.8257 16.1931 16.6756 16.1929 16.3682C16.1929 16.294 16.1915 16.2197 16.1934 16.1455C16.199 15.9187 16.3545 15.7576 16.5789 15.7557C16.9807 15.7525 17.3828 15.7546 17.7849 15.7546C17.7846 15.7546 17.7846 15.7544 17.7846 15.7541Z" fill="url(#paint4_linear_11164_67422)"/>
<path d="M16.1731 17.5022C16.1968 17.3689 16.1984 17.2407 16.244 17.1316C16.3044 16.9869 16.437 16.927 16.5936 16.9273C17.0982 16.9281 17.603 16.9275 18.1076 16.9275C18.393 16.9275 18.6787 16.9265 18.9642 16.9278C19.2307 16.9292 19.3843 17.086 19.3854 17.3551C19.3857 17.4428 19.3878 17.5306 19.3846 17.6183C19.3772 17.8113 19.2427 17.9703 19.0536 17.9884C18.8955 18.0035 18.7354 17.9978 18.5762 17.9986C18.3171 18 18.0583 18.0005 17.7992 17.9976C17.7593 17.997 17.7103 17.9876 17.6813 17.963C17.2651 17.6107 16.7872 17.4607 16.249 17.5022C16.236 17.503 16.2227 17.5022 16.1731 17.5022Z" fill="black"/>
<path d="M16.1731 17.5022C16.1968 17.3689 16.1984 17.2407 16.244 17.1316C16.3044 16.9869 16.437 16.927 16.5936 16.9273C17.0982 16.9281 17.603 16.9275 18.1076 16.9275C18.393 16.9275 18.6787 16.9265 18.9642 16.9278C19.2307 16.9292 19.3843 17.086 19.3854 17.3551C19.3857 17.4428 19.3878 17.5306 19.3846 17.6183C19.3772 17.8113 19.2427 17.9703 19.0536 17.9884C18.8955 18.0035 18.7354 17.9978 18.5762 17.9986C18.3171 18 18.0583 18.0005 17.7992 17.9976C17.7593 17.997 17.7103 17.9876 17.6813 17.963C17.2651 17.6107 16.7872 17.4607 16.249 17.5022C16.236 17.503 16.2227 17.5022 16.1731 17.5022Z" fill="url(#paint5_linear_11164_67422)"/>
<path d="M18.3306 19.1666C18.2665 18.7682 18.107 18.4189 17.8277 18.1074C17.8745 18.1041 17.9049 18.1004 17.9352 18.1001C18.2734 18.0996 18.6118 18.099 18.95 18.1001C19.2352 18.1009 19.3851 18.2542 19.3856 18.5428C19.3859 18.6203 19.3869 18.6977 19.3853 18.7752C19.3805 18.9874 19.2381 19.1537 19.0301 19.1639C18.8019 19.1753 18.573 19.1666 18.3306 19.1666Z" fill="black"/>
<path d="M18.3306 19.1666C18.2665 18.7682 18.107 18.4189 17.8277 18.1074C17.8745 18.1041 17.9049 18.1004 17.9352 18.1001C18.2734 18.0996 18.6118 18.099 18.95 18.1001C19.2352 18.1009 19.3851 18.2542 19.3856 18.5428C19.3859 18.6203 19.3869 18.6977 19.3853 18.7752C19.3805 18.9874 19.2381 19.1537 19.0301 19.1639C18.8019 19.1753 18.573 19.1666 18.3306 19.1666Z" fill="url(#paint6_linear_11164_67422)"/>
<path d="M18.1339 20.3359C18.3014 19.995 18.3643 19.6484 18.3454 19.284C18.6005 19.284 18.8486 19.2697 19.0941 19.2891C19.2581 19.3021 19.3785 19.4756 19.3844 19.6514C19.3878 19.7556 19.3881 19.8603 19.3844 19.9645C19.3777 20.1521 19.24 20.3254 19.064 20.3324C18.7602 20.3448 18.4556 20.3359 18.1339 20.3359Z" fill="black"/>
<path d="M18.1339 20.3359C18.3014 19.995 18.3643 19.6484 18.3454 19.284C18.6005 19.284 18.8486 19.2697 19.0941 19.2891C19.2581 19.3021 19.3785 19.4756 19.3844 19.6514C19.3878 19.7556 19.3881 19.8603 19.3844 19.9645C19.3777 20.1521 19.24 20.3254 19.064 20.3324C18.7602 20.3448 18.4556 20.3359 18.1339 20.3359Z" fill="url(#paint7_linear_11164_67422)"/>
<rect x="7.75781" y="1.19922" width="2.96351" height="1.31712" rx="0.329279" fill="url(#paint8_linear_11164_67422)"/>
<rect x="7.75781" y="1.19922" width="2.96351" height="1.31712" rx="0.329279" fill="url(#paint9_linear_11164_67422)"/>
<rect x="7.75781" y="1.19922" width="2.96351" height="1.31712" rx="0.329279" fill="url(#paint10_linear_11164_67422)"/>
<rect x="2.48828" y="4.96094" width="1.6464" height="0.99635" rx="0.329279" transform="rotate(-49.1471 2.48828 4.96094)" fill="url(#paint11_linear_11164_67422)"/>
<rect x="2.48828" y="4.96094" width="1.6464" height="0.99635" rx="0.329279" transform="rotate(-49.1471 2.48828 4.96094)" fill="url(#paint12_linear_11164_67422)"/>
<rect x="2.48828" y="4.96094" width="1.6464" height="0.99635" rx="0.329279" transform="rotate(-49.1471 2.48828 4.96094)" fill="url(#paint13_linear_11164_67422)"/>
<rect width="1.6464" height="0.99635" rx="0.329279" transform="matrix(0.654119 0.756392 0.756392 -0.654119 15.0039 4.36328)" fill="url(#paint14_linear_11164_67422)"/>
<rect width="1.6464" height="0.99635" rx="0.329279" transform="matrix(0.654119 0.756392 0.756392 -0.654119 15.0039 4.36328)" fill="url(#paint15_linear_11164_67422)"/>
<rect width="1.6464" height="0.99635" rx="0.329279" transform="matrix(0.654119 0.756392 0.756392 -0.654119 15.0039 4.36328)" fill="url(#paint16_linear_11164_67422)"/>
<circle cx="9.40359" cy="10.0911" r="5.92703" fill="white"/>
<rect x="9.07422" y="4.49219" width="0.987838" height="1.31712" rx="0.329279" fill="#D9D9D9"/>
<rect x="9.07422" y="4.49219" width="0.987838" height="1.31712" rx="0.329279" fill="url(#paint17_linear_11164_67422)"/>
<rect x="9.07422" y="14.3711" width="0.987838" height="1.31712" rx="0.329279" fill="#D9D9D9"/>
<rect x="9.07422" y="14.3711" width="0.987838" height="1.31712" rx="0.329279" fill="url(#paint18_linear_11164_67422)"/>
<rect x="15.0039" y="9.42969" width="0.987838" height="1.31712" rx="0.329279" transform="rotate(90 15.0039 9.42969)" fill="#D9D9D9"/>
<rect x="15.0039" y="9.42969" width="0.987838" height="1.31712" rx="0.329279" transform="rotate(90 15.0039 9.42969)" fill="url(#paint19_linear_11164_67422)"/>
<rect x="5.21094" y="9.42969" width="0.987838" height="1.31712" rx="0.329279" transform="rotate(90 5.21094 9.42969)" fill="#D9D9D9"/>
<rect x="5.21094" y="9.42969" width="0.987838" height="1.31712" rx="0.329279" transform="rotate(90 5.21094 9.42969)" fill="url(#paint20_linear_11164_67422)"/>
<circle cx="9.56929" cy="10.2529" r="0.823198" fill="#EEEEF1"/>
<circle cx="9.56814" cy="10.2517" r="0.493919" fill="#BDBDC1"/>
<rect x="9.40625" y="6.14062" width="0.329279" height="5.26847" rx="0.16464" fill="url(#paint21_linear_11164_67422)"/>
<rect x="9.40625" y="6.14062" width="0.329279" height="5.26847" rx="0.16464" fill="url(#paint22_linear_11164_67422)"/>
<defs>
<linearGradient id="paint0_linear_11164_67422" x1="8.41643" y1="2.68147" x2="18.954" y2="17.1699" gradientUnits="userSpaceOnUse">
<stop stop-color="#05E0E0"/>
<stop offset="1" stop-color="#02C8C8"/>
</linearGradient>
<linearGradient id="paint1_linear_11164_67422" x1="-0.129207" y1="2.44802" x2="17.8764" y2="20.1657" gradientUnits="userSpaceOnUse">
<stop stop-color="#FFAC4B"/>
<stop offset="1" stop-color="#FCCA80"/>
</linearGradient>
<linearGradient id="paint2_linear_11164_67422" x1="12.2619" y1="14.8949" x2="29.2947" y2="28.3157" gradientUnits="userSpaceOnUse">
<stop stop-color="#F9FBFF"/>
<stop offset="1" stop-color="#E2F1FA"/>
</linearGradient>
<linearGradient id="paint3_linear_11164_67422" x1="14.1168" y1="15.8452" x2="20.3795" y2="21.3678" gradientUnits="userSpaceOnUse">
<stop stop-color="#FFAC4B"/>
<stop offset="1" stop-color="#FCCA80"/>
</linearGradient>
<linearGradient id="paint4_linear_11164_67422" x1="14.1168" y1="15.8452" x2="20.3795" y2="21.3678" gradientUnits="userSpaceOnUse">
<stop stop-color="#FFAC4B"/>
<stop offset="1" stop-color="#FCCA80"/>
</linearGradient>
<linearGradient id="paint5_linear_11164_67422" x1="14.1168" y1="15.8452" x2="20.3795" y2="21.3678" gradientUnits="userSpaceOnUse">
<stop stop-color="#FFAC4B"/>
<stop offset="1" stop-color="#FCCA80"/>
</linearGradient>
<linearGradient id="paint6_linear_11164_67422" x1="14.1168" y1="15.8452" x2="20.3795" y2="21.3678" gradientUnits="userSpaceOnUse">
<stop stop-color="#FFAC4B"/>
<stop offset="1" stop-color="#FCCA80"/>
</linearGradient>
<linearGradient id="paint7_linear_11164_67422" x1="14.1168" y1="15.8452" x2="20.3795" y2="21.3678" gradientUnits="userSpaceOnUse">
<stop stop-color="#FFAC4B"/>
<stop offset="1" stop-color="#FCCA80"/>
</linearGradient>
<linearGradient id="paint8_linear_11164_67422" x1="7.75775" y1="1.85782" x2="10.7212" y2="1.85782" gradientUnits="userSpaceOnUse">
<stop stop-color="#05E0E0"/>
<stop offset="1" stop-color="#02C8C8"/>
</linearGradient>
<linearGradient id="paint9_linear_11164_67422" x1="7.28953" y1="1.22187" x2="8.42966" y2="3.861" gradientUnits="userSpaceOnUse">
<stop stop-color="#FFAC4B"/>
<stop offset="1" stop-color="#FCCA80"/>
</linearGradient>
<linearGradient id="paint10_linear_11164_67422" x1="7.38182" y1="2.61683" x2="11.2783" y2="-0.214547" gradientUnits="userSpaceOnUse">
<stop stop-color="#05E0E0"/>
<stop offset="1" stop-color="#02C8C8"/>
</linearGradient>
<linearGradient id="paint11_linear_11164_67422" x1="2.48825" y1="5.45914" x2="4.1346" y2="5.45914" gradientUnits="userSpaceOnUse">
<stop stop-color="#05E0E0"/>
<stop offset="1" stop-color="#02C8C8"/>
</linearGradient>
<linearGradient id="paint12_linear_11164_67422" x1="2.22813" y1="4.97807" x2="3.26342" y2="6.73807" gradientUnits="userSpaceOnUse">
<stop stop-color="#FFAC4B"/>
<stop offset="1" stop-color="#FCCA80"/>
</linearGradient>
<linearGradient id="paint13_linear_11164_67422" x1="2.2794" y1="6.03331" x2="4.85389" y2="4.65938" gradientUnits="userSpaceOnUse">
<stop stop-color="#05E0E0"/>
<stop offset="1" stop-color="#02C8C8"/>
</linearGradient>
<linearGradient id="paint14_linear_11164_67422" x1="-3.30006e-05" y1="0.498204" x2="1.64632" y2="0.498204" gradientUnits="userSpaceOnUse">
<stop stop-color="#05E0E0"/>
<stop offset="1" stop-color="#02C8C8"/>
</linearGradient>
<linearGradient id="paint15_linear_11164_67422" x1="-0.260155" y1="0.0171362" x2="0.775141" y2="1.77713" gradientUnits="userSpaceOnUse">
<stop stop-color="#FFAC4B"/>
<stop offset="1" stop-color="#FCCA80"/>
</linearGradient>
<linearGradient id="paint16_linear_11164_67422" x1="-0.208882" y1="1.07237" x2="2.36561" y2="-0.301553" gradientUnits="userSpaceOnUse">
<stop stop-color="#05E0E0"/>
<stop offset="1" stop-color="#02C8C8"/>
</linearGradient>
<linearGradient id="paint17_linear_11164_67422" x1="9.07422" y1="5.15075" x2="10.0621" y2="5.15075" gradientUnits="userSpaceOnUse">
<stop stop-color="#D2D9EE"/>
<stop offset="1" stop-color="#E7F0F8"/>
</linearGradient>
<linearGradient id="paint18_linear_11164_67422" x1="9.07422" y1="15.0297" x2="10.0621" y2="15.0297" gradientUnits="userSpaceOnUse">
<stop stop-color="#D2D9EE"/>
<stop offset="1" stop-color="#E7F0F8"/>
</linearGradient>
<linearGradient id="paint19_linear_11164_67422" x1="15.0039" y1="10.0882" x2="15.9917" y2="10.0882" gradientUnits="userSpaceOnUse">
<stop stop-color="#D2D9EE"/>
<stop offset="1" stop-color="#E7F0F8"/>
</linearGradient>
<linearGradient id="paint20_linear_11164_67422" x1="5.21094" y1="10.0882" x2="6.19878" y2="10.0882" gradientUnits="userSpaceOnUse">
<stop stop-color="#D2D9EE"/>
<stop offset="1" stop-color="#E7F0F8"/>
</linearGradient>
<linearGradient id="paint21_linear_11164_67422" x1="9.40624" y1="8.77501" x2="9.73551" y2="8.77501" gradientUnits="userSpaceOnUse">
<stop stop-color="#05E0E0"/>
<stop offset="1" stop-color="#02C8C8"/>
</linearGradient>
<linearGradient id="paint22_linear_11164_67422" x1="9.35422" y1="6.23124" x2="10.1564" y2="6.28281" gradientUnits="userSpaceOnUse">
<stop stop-color="#FFAC4B"/>
<stop offset="1" stop-color="#FCCA80"/>
</linearGradient>
</defs>
</svg>
