<svg width="24" height="24" viewBox="0 0 24 24" fill="none" xmlns="http://www.w3.org/2000/svg">
<path fill-rule="evenodd" clip-rule="evenodd" d="M15.6408 12.0129C15.6405 12.0129 15.6403 12.0129 15.64 12.0129C12.7239 12.0129 10.36 9.64902 10.36 6.73296C10.36 6.39509 10.3917 6.06462 10.4524 5.74438H3.43066V20.7923C3.43066 21.2298 3.78526 21.5843 4.22267 21.5843H15.6408V12.0129Z" fill="url(#paint0_linear_17359_8414)"/>
<ellipse cx="15.6424" cy="6.73443" rx="4.61996" ry="4.62042" fill="url(#paint1_linear_17359_8414)"/>
<ellipse cx="8.35861" cy="10.187" rx="1.47286" ry="1.47284" fill="white"/>
<path fill-rule="evenodd" clip-rule="evenodd" d="M15.8352 4.32056C16.1051 4.32056 16.3238 4.53934 16.3238 4.80921L16.3238 6.43807H17.9527C18.2226 6.43807 18.4414 6.65685 18.4414 6.92672C18.4414 7.1966 18.2226 7.41538 17.9527 7.41538H16.3238V9.0442C16.3238 9.31408 16.1051 9.53286 15.8352 9.53286C15.5653 9.53286 15.3465 9.31408 15.3465 9.0442L15.3465 7.41538H13.7177C13.4478 7.41538 13.229 7.1966 13.229 6.92672C13.229 6.65685 13.4478 6.43807 13.7177 6.43807H15.3465L15.3465 4.80921C15.3465 4.53934 15.5653 4.32056 15.8352 4.32056Z" fill="white"/>
<path fill-rule="evenodd" clip-rule="evenodd" d="M10.9043 13.1698C10.9019 13.1756 10.8998 13.1816 10.8978 13.1877L10.613 14.0642C10.5773 14.1739 10.4751 14.2482 10.3598 14.2482H9.43816C9.18023 14.2482 9.07298 14.5783 9.28165 14.7299L10.0272 15.2716C10.1043 15.3275 10.1443 15.4192 10.1359 15.5112C9.71379 15.6054 9.13875 15.6579 8.3554 15.6579C5.40967 15.6579 5.40967 14.9161 5.40967 14.0009C5.40967 13.0858 6.72852 12.344 8.3554 12.344C9.44375 12.344 10.3942 12.676 10.9043 13.1698Z" fill="white"/>
<path d="M11.0434 13.5208C11.1099 13.3163 11.3991 13.3163 11.4656 13.5208L11.703 14.2514C11.7327 14.3429 11.8179 14.4048 11.914 14.4048H12.6822C12.8972 14.4048 12.9865 14.68 12.8126 14.8063L12.1912 15.2579C12.1134 15.3144 12.0808 15.4146 12.1106 15.5061L12.3479 16.2367C12.4144 16.4412 12.1803 16.6113 12.0064 16.4849L11.385 16.0333C11.3072 15.9768 11.2018 15.9768 11.1241 16.0333L10.5026 16.4849C10.3287 16.6113 10.0947 16.4412 10.1611 16.2367L10.3985 15.5061C10.4282 15.4146 10.3956 15.3144 10.3178 15.2579L9.6964 14.8063C9.52247 14.68 9.61186 14.4048 9.82685 14.4048H10.595C10.6911 14.4048 10.7764 14.3429 10.8061 14.2514L11.0434 13.5208Z" fill="white"/>
<path d="M17.2937 19.7693C17.2937 20.7717 16.4811 21.5843 15.4786 21.5843C14.4762 21.5843 13.6636 20.7717 13.6636 19.7693C13.6636 18.7669 14.4762 17.9543 15.4786 17.9543C16.4811 17.9543 17.2937 18.7669 17.2937 19.7693Z" fill="url(#paint2_linear_17359_8414)"/>
<path d="M5.24854 21.5769C6.17362 21.4936 6.89855 20.7161 6.89855 19.7693C6.89855 18.8226 6.17362 18.0451 5.24854 17.9617V17.9543H15.6436V21.5843H5.24854V21.5769Z" fill="url(#paint3_linear_17359_8414)"/>
<defs>
<linearGradient id="paint0_linear_17359_8414" x1="-3.35887" y1="-0.091288" x2="18.1056" y2="1.75088" gradientUnits="userSpaceOnUse">
<stop stop-color="#00C2C2"/>
<stop offset="1" stop-color="#00CCCC"/>
</linearGradient>
<linearGradient id="paint1_linear_17359_8414" x1="15.6424" y1="2.11401" x2="12.4076" y2="10.1076" gradientUnits="userSpaceOnUse">
<stop stop-color="#FFA133"/>
<stop offset="1" stop-color="#FFC633"/>
</linearGradient>
<linearGradient id="paint2_linear_17359_8414" x1="8.54857" y1="16.4694" x2="9.21244" y2="26.878" gradientUnits="userSpaceOnUse">
<stop stop-color="#00B5B5"/>
<stop offset="1" stop-color="#00CCCC"/>
</linearGradient>
<linearGradient id="paint3_linear_17359_8414" x1="8.54857" y1="16.4694" x2="9.21244" y2="26.878" gradientUnits="userSpaceOnUse">
<stop stop-color="#00B5B5"/>
<stop offset="1" stop-color="#00CCCC"/>
</linearGradient>
</defs>
</svg>
