<svg width="170" height="170" viewBox="0 0 170 170" fill="none" xmlns="http://www.w3.org/2000/svg">
<path fill-rule="evenodd" clip-rule="evenodd" d="M74.7035 35.6406H19.2969V143.614C19.2969 153.002 26.9081 160.614 36.2969 160.614H115.63L115.63 85.1084C92.6233 85.1084 73.9725 66.4576 73.9725 43.4507C73.9725 40.7813 74.2236 38.1705 74.7035 35.6406Z" fill="url(#paint0_linear_11383_23457)"/>
<path d="M129.032 145.921C129.032 153.83 122.62 160.241 114.712 160.241C106.803 160.241 100.392 153.83 100.392 145.921C100.392 138.013 106.803 131.602 114.712 131.602C122.62 131.602 129.032 138.013 129.032 145.921Z" fill="#E0E4EE"/>
<path d="M34 160.183C41.2986 159.525 47.018 153.391 47.018 145.921C47.018 138.452 41.2986 132.318 34 131.66V131.602H116.014V160.241H34V160.183Z" fill="#E0E4EE"/>
<rect x="26.6484" y="74.6289" width="39.5135" height="6.43243" rx="1.44681" fill="white"/>
<rect x="26.6484" y="90.2695" width="69.6032" height="6.6475" rx="1.44681" fill="white"/>
<rect x="26.6484" y="103.117" width="49.6216" height="6.43243" rx="1.44681" fill="white"/>
<path d="M81.7842 43.8462C81.7842 24.8155 97.212 9.38578 116.245 9.38578C124.769 9.38578 132.572 12.4818 138.589 17.6134C146.003 23.9336 150.703 33.3403 150.703 43.8462C150.703 62.8769 135.275 78.3047 116.245 78.3047C111.503 78.3047 106.986 77.3472 102.874 75.6146C90.4819 70.3937 81.7842 58.1358 81.7842 43.8462Z" fill="url(#paint1_linear_11383_23457)" stroke="white" stroke-width="4"/>
<path d="M120.626 43.8758C124.535 39.9473 128.075 36.384 129.338 35.104C130.668 33.7576 130.661 31.7159 129.367 30.4304C128.184 29.2574 126.086 29.1467 124.776 30.5447C123.322 32.094 121.788 33.5677 120.289 35.0745L116.077 39.3073C112.164 35.3751 108.613 31.8118 107.34 30.5392C105.998 29.202 103.967 29.2076 102.689 30.5079C101.52 31.6993 101.41 33.8056 102.801 35.1225C104.345 36.5832 105.811 38.1251 107.308 39.632L111.529 43.874C107.552 47.8707 103.583 51.8601 102.831 52.6218C102.61 52.8432 102.385 53.0774 102.227 53.3467C101.443 54.6931 101.755 56.5393 102.889 57.4135C104.337 58.5275 106.071 58.4703 107.34 57.2069C108.613 55.9362 112.162 52.3747 116.075 48.4462C120.048 52.4393 124.012 56.4213 124.768 57.1756C124.992 57.3969 125.223 57.6256 125.491 57.7824C126.831 58.5699 128.668 58.2601 129.538 57.1166C130.646 55.6632 130.588 53.9203 129.331 52.6458C128.068 51.3658 124.53 47.8044 120.623 43.8758H120.626Z" fill="white"/>
<defs>
<linearGradient id="paint0_linear_11383_23457" x1="144.27" y1="257.954" x2="-34.6411" y2="78.2896" gradientUnits="userSpaceOnUse">
<stop stop-color="#F9FBFF"/>
<stop offset="1" stop-color="#E2F1FA"/>
</linearGradient>
<linearGradient id="paint1_linear_11383_23457" x1="119.48" y1="89.0096" x2="94.2641" y2="1.55457" gradientUnits="userSpaceOnUse">
<stop stop-color="#FF4B4B"/>
<stop offset="1" stop-color="#FFB6B6"/>
</linearGradient>
</defs>
</svg>
