<svg width="170" height="170" viewBox="0 0 170 170" fill="none" xmlns="http://www.w3.org/2000/svg">
<path d="M81.3233 43.8462C81.3233 24.8154 96.751 9.38576 115.784 9.38576C124.308 9.38576 132.111 12.4818 138.128 17.6134C145.542 23.9336 150.242 33.3402 150.242 43.8462C150.242 62.8769 134.814 78.3047 115.784 78.3047C111.043 78.3047 106.525 77.3472 102.413 75.6146C90.0209 70.3937 81.3233 58.1358 81.3233 43.8462Z" fill="#05E0AC" stroke="white" stroke-width="4.78873"/>
<path d="M109.675 49.3589C111.589 47.4298 113.417 45.5798 115.251 43.7425C119.55 39.4356 123.845 35.1329 128.137 30.8344C130.134 28.8369 133.173 29.0943 134.643 31.3527C135.737 33.0317 135.509 35.0867 134.002 36.6038C129.848 40.7895 125.687 44.9668 121.52 49.1357C118.624 52.0402 115.726 54.9434 112.829 57.8455C110.887 59.7872 108.532 59.7998 106.582 57.8599C103.837 55.139 101.107 52.4049 98.3908 49.6576C97.1866 48.4447 96.8169 46.9853 97.3535 45.3639C97.8901 43.7425 99.0602 42.8535 100.702 42.6016C102.059 42.3929 103.235 42.8643 104.2 43.8325C105.993 45.6338 107.78 47.4424 109.675 49.3589Z" fill="white"/>
<path fill-rule="evenodd" clip-rule="evenodd" d="M75.1662 35.6406H19.7578V140.261C19.7578 151.502 28.8698 160.614 40.1099 160.614H116.091V85.1075C93.0851 85.1064 74.4354 66.4561 74.4354 43.4498C74.4354 40.7807 74.6864 38.1702 75.1662 35.6406Z" fill="url(#paint0_linear_11383_9572)"/>
<path d="M129.492 145.925C129.492 153.834 123.081 160.245 115.173 160.245C107.264 160.245 100.853 153.834 100.853 145.925C100.853 138.017 107.264 131.605 115.173 131.605C123.081 131.605 129.492 138.017 129.492 145.925Z" fill="#E0E4EE"/>
<path d="M34.4609 160.187C41.7595 159.529 47.479 153.395 47.479 145.925C47.479 138.455 41.7595 132.322 34.4609 131.664V131.605H116.474V160.245H34.4609V160.187Z" fill="#E0E4EE"/>
<rect x="27.1094" y="74.6289" width="39.5135" height="6.43243" rx="1.73209" fill="white"/>
<rect x="27.1094" y="90.2695" width="69.6032" height="6.64749" rx="1.73209" fill="white"/>
<rect x="27.1094" y="103.117" width="49.6216" height="6.43243" rx="1.73209" fill="white"/>
<defs>
<linearGradient id="paint0_linear_11383_9572" x1="144.731" y1="257.954" x2="-34.1802" y2="78.2896" gradientUnits="userSpaceOnUse">
<stop stop-color="#F9FBFF"/>
<stop offset="1" stop-color="#E2F1FA"/>
</linearGradient>
</defs>
</svg>
