<svg width="170" height="170" viewBox="0 0 170 170" fill="none" xmlns="http://www.w3.org/2000/svg">
<rect x="40.8785" y="64.8505" width="81.6549" height="73.129" rx="2.125" transform="rotate(4.44432 40.8785 64.8505)" fill="url(#paint0_linear_11446_70282)" stroke="#E1EDF8" stroke-width="2.125"/>
<rect x="35.4727" y="68.1328" width="81.6549" height="73.129" rx="2.125" fill="url(#paint1_linear_11446_70282)" stroke="#E1EDF8" stroke-width="2.125"/>
<rect x="28.6875" y="103.062" width="95.625" height="31.875" rx="1.42013" fill="url(#paint2_linear_11446_70282)"/>
<rect x="66.3555" y="108.957" width="44.0255" height="11.3606" rx="0.710064" fill="#E1EDF8"/>
<rect x="66.3555" y="108.957" width="44.0255" height="11.3606" rx="0.710064" fill="url(#paint3_linear_11446_70282)"/>
<rect x="66.3555" y="124.578" width="21.3027" height="5.68032" rx="0.710064" fill="#E1EDF8"/>
<rect x="66.3555" y="124.578" width="21.3027" height="5.68032" rx="0.710064" fill="url(#paint4_linear_11446_70282)"/>
<rect x="40.793" y="87.125" width="48.286" height="4.26024" rx="0.710064" fill="#E1EDF8"/>
<rect x="40.793" y="77.7188" width="59.6474" height="4.26024" rx="0.710064" fill="#E1EDF8"/>
<path opacity="0.5" d="M71.7859 29.7486L68.5977 39.311L51.1766 23.5187L53.8395 21.341L71.7859 29.7486Z" fill="url(#paint5_linear_11446_70282)"/>
<path d="M68.7661 38.7239C68.3848 36.9071 68.0014 35.0911 67.6259 33.273C67.5864 33.0812 67.5065 32.9486 67.343 32.8342C64.7384 31.0185 62.138 29.1972 59.5366 27.3767C57.8848 26.2203 56.2336 25.0639 54.5817 23.907C54.5445 23.8811 54.4909 23.8602 54.4754 23.8236C54.437 23.7324 54.4157 23.6334 54.3877 23.5375C54.4896 23.5081 54.6103 23.4273 54.6899 23.4573C55.048 23.5911 55.3943 23.7564 55.7441 23.9106C60.8643 26.1677 65.9843 28.4242 71.102 30.6872C71.274 30.7633 71.4024 30.7429 71.5598 30.6638C73.51 29.6797 75.4625 28.7008 77.4144 27.721C77.8262 27.515 78.039 27.1645 77.9977 26.7581C77.9548 26.3368 77.7005 26.046 77.237 25.9355C74.5094 25.2867 71.7803 24.643 69.0512 23.9994C64.3378 22.8876 59.624 21.7769 54.9101 20.6657C53.4484 20.3209 51.9867 19.9761 50.5248 19.6302C49.9138 19.4852 49.3793 19.621 48.9617 20.0948C48.5537 20.5579 48.4641 21.0953 48.6795 21.6812C49.4884 23.8859 50.2962 26.0908 51.1046 28.2956C52.4188 31.8818 53.7329 35.4676 55.0476 39.0538C55.3716 39.9373 55.738 40.8077 56.0138 41.7061C56.3005 42.6396 57.4222 43.0221 58.2244 42.192C59.7773 40.586 61.3696 39.0184 62.9459 37.4352C63.2159 37.1639 63.4959 36.9012 63.7545 36.6192C63.9003 36.4602 64.0027 36.4467 64.1825 36.5839C65.4022 37.5124 66.6312 38.4287 67.8584 39.3479C67.9383 39.4079 68.0188 39.4717 68.1075 39.516C68.453 39.6869 68.8411 39.4326 68.8242 39.0472C68.8192 38.9382 68.7961 38.83 68.7812 38.7213L68.7661 38.7239Z" fill="url(#paint6_linear_11446_70282)"/>
<path d="M68.7661 38.7239C68.3848 36.9071 68.0014 35.0911 67.6259 33.273C67.5864 33.0812 67.5065 32.9486 67.343 32.8342C64.7384 31.0185 62.138 29.1972 59.5366 27.3767C57.8848 26.2203 56.2336 25.0639 54.5817 23.907C54.5445 23.8811 54.4909 23.8602 54.4754 23.8236C54.437 23.7324 54.4157 23.6334 54.3877 23.5375C54.4896 23.5081 54.6103 23.4273 54.6899 23.4573C55.048 23.5911 55.3943 23.7564 55.7441 23.9106C60.8643 26.1677 65.9843 28.4242 71.102 30.6872C71.274 30.7633 71.4024 30.7429 71.5598 30.6638C73.51 29.6797 75.4625 28.7008 77.4144 27.721C77.8262 27.515 78.039 27.1645 77.9977 26.7581C77.9548 26.3368 77.7005 26.046 77.237 25.9355C74.5094 25.2867 71.7803 24.643 69.0512 23.9994C64.3378 22.8876 59.624 21.7769 54.9101 20.6657C53.4484 20.3209 51.9867 19.9761 50.5248 19.6302C49.9138 19.4852 49.3793 19.621 48.9617 20.0948C48.5537 20.5579 48.4641 21.0953 48.6795 21.6812C49.4884 23.8859 50.2962 26.0908 51.1046 28.2956C52.4188 31.8818 53.7329 35.4676 55.0476 39.0538C55.3716 39.9373 55.738 40.8077 56.0138 41.7061C56.3005 42.6396 57.4222 43.0221 58.2244 42.192C59.7773 40.586 61.3696 39.0184 62.9459 37.4352C63.2159 37.1639 63.4959 36.9012 63.7545 36.6192C63.9003 36.4602 64.0027 36.4467 64.1825 36.5839C65.4022 37.5124 66.6312 38.4287 67.8584 39.3479C67.9383 39.4079 68.0188 39.4717 68.1075 39.516C68.453 39.6869 68.8411 39.4326 68.8242 39.0472C68.8192 38.9382 68.7961 38.83 68.7812 38.7213L68.7661 38.7239Z" fill="url(#paint7_linear_11446_70282)"/>
<path d="M74.9746 40.3824C82.1422 37.2421 109.379 34.6715 107.381 45.6955C106.06 52.9903 79.7557 53.6641 97.0744 65.1358" stroke="#FFA133" stroke-width="1.42013" stroke-linecap="round" stroke-dasharray="4.26 4.26"/>
<g filter="url(#filter0_d_11446_70282)">
<rect x="94.5625" y="94.5625" width="46.75" height="60.5625" rx="1.0625" fill="url(#paint8_linear_11446_70282)"/>
</g>
<path d="M101.796 135.999C102.089 135.689 102.368 135.393 102.649 135.098C103.306 134.408 103.963 133.718 104.619 133.029C104.925 132.709 105.39 132.75 105.614 133.112C105.782 133.381 105.747 133.711 105.516 133.954C104.881 134.625 104.245 135.295 103.608 135.963C103.165 136.429 102.722 136.894 102.278 137.359C101.981 137.671 101.621 137.673 101.323 137.362C100.903 136.925 100.486 136.487 100.07 136.047C99.8862 135.852 99.8297 135.618 99.9117 135.358C99.9938 135.098 100.173 134.956 100.424 134.915C100.631 134.882 100.811 134.958 100.959 135.113C101.233 135.402 101.506 135.691 101.796 135.999Z" fill="#81EBEB"/>
<path d="M101.796 147.686C102.089 147.377 102.368 147.08 102.649 146.786C103.306 146.095 103.963 145.406 104.619 144.716C104.925 144.396 105.39 144.437 105.614 144.8C105.782 145.069 105.747 145.398 105.516 145.641C104.881 146.312 104.245 146.982 103.608 147.65C103.165 148.116 102.722 148.581 102.278 149.047C101.981 149.358 101.621 149.36 101.323 149.049C100.903 148.613 100.486 148.175 100.07 147.734C99.8862 147.54 99.8297 147.306 99.9117 147.046C99.9938 146.786 100.173 146.643 100.424 146.603C100.631 146.569 100.811 146.645 100.959 146.8C101.233 147.089 101.506 147.379 101.796 147.686Z" fill="#81EBEB"/>
<path d="M122.188 106.25C122.188 108.597 120.285 110.5 117.938 110.5C115.59 110.5 113.688 108.597 113.688 106.25C113.688 103.903 115.59 102 117.938 102C120.285 102 122.188 103.903 122.188 106.25Z" fill="#81EBEB"/>
<path d="M126.438 118.469C126.438 121.109 126.438 123.25 117.938 123.25C109.438 123.25 109.438 121.109 109.438 118.469C109.438 115.828 113.243 113.688 117.938 113.688C122.632 113.688 126.438 115.828 126.438 118.469Z" fill="#81EBEB"/>
<rect x="110.5" y="130.688" width="26.5625" height="9.5625" rx="1.0625" fill="#81EBEB"/>
<rect x="110.5" y="142.375" width="26.5625" height="9.5625" rx="1.0625" fill="#81EBEB"/>
<rect x="96.9531" y="130.953" width="9.03125" height="9.03125" rx="0.796875" stroke="#81EBEB" stroke-width="0.53125"/>
<rect x="96.9531" y="142.641" width="9.03125" height="9.03125" rx="0.796875" stroke="#81EBEB" stroke-width="0.53125"/>
<path d="M112.543 107.293C112.543 107.762 112.544 108.231 112.543 108.7C112.542 108.954 112.461 109.035 112.207 109.036C111.902 109.036 111.598 109.038 111.294 109.035C110.831 109.031 110.504 108.711 110.502 108.257C110.499 107.608 110.499 106.959 110.502 106.309C110.504 105.866 110.812 105.551 111.267 105.537C111.596 105.526 111.925 105.531 112.254 105.535C112.456 105.538 112.538 105.627 112.543 105.828C112.543 105.838 112.543 105.848 112.543 105.858C112.543 106.336 112.543 106.815 112.543 107.293Z" fill="#81EBEB"/>
<path d="M123.333 107.253C123.333 106.779 123.332 106.306 123.333 105.832C123.333 105.594 123.415 105.512 123.654 105.511C123.958 105.508 124.262 105.507 124.566 105.511C125.062 105.518 125.373 105.83 125.374 106.317C125.375 106.947 125.375 107.577 125.374 108.207C125.373 108.698 125.052 109.011 124.549 109.012C124.245 109.013 123.941 109.014 123.636 109.012C123.426 109.011 123.334 108.923 123.333 108.718C123.331 108.23 123.333 107.741 123.333 107.253Z" fill="#81EBEB"/>
<path d="M124.098 109.377C124.265 109.377 124.423 109.377 124.615 109.377C124.574 109.585 124.549 109.786 124.495 109.98C124.115 111.351 122.857 112.323 121.406 112.364C120.978 112.377 120.549 112.368 120.121 112.369C120.092 112.369 120.063 112.362 120.026 112.358C120.026 112.199 120.026 112.045 120.026 111.876C120.081 111.873 120.134 111.869 120.187 111.869C120.576 111.868 120.965 111.874 121.353 111.866C122.766 111.836 123.919 110.807 124.086 109.434C124.088 109.42 124.092 109.406 124.098 109.377Z" fill="#81EBEB"/>
<path d="M118.594 111.624C118.804 111.624 119.013 111.622 119.222 111.625C119.413 111.627 119.503 111.716 119.506 111.904C119.509 112.05 119.509 112.196 119.506 112.343C119.503 112.52 119.41 112.62 119.234 112.621C118.811 112.625 118.387 112.628 117.964 112.62C117.679 112.616 117.467 112.393 117.468 112.12C117.468 111.846 117.681 111.632 117.967 111.625C118.176 111.62 118.385 111.624 118.594 111.624Z" fill="#81EBEB"/>
<path d="M124.608 105.219C124.608 104.378 124.434 103.545 124.097 102.768C123.759 101.99 123.263 101.284 122.639 100.689C122.015 100.094 121.273 99.6222 120.458 99.3002C119.642 98.9782 118.768 98.8125 117.885 98.8125C117.002 98.8125 116.127 98.9782 115.312 99.3002C114.496 99.6222 113.755 100.094 113.13 100.689C112.506 101.284 112.011 101.99 111.673 102.768C111.335 103.545 111.161 104.378 111.161 105.219H111.785C111.785 104.456 111.942 103.7 112.249 102.995C112.555 102.29 113.005 101.649 113.571 101.109C114.138 100.57 114.81 100.141 115.55 99.8493C116.29 99.5572 117.084 99.4069 117.885 99.4069C118.686 99.4069 119.479 99.5572 120.219 99.8493C120.959 100.141 121.632 100.57 122.198 101.109C122.764 101.649 123.214 102.29 123.52 102.995C123.827 103.7 123.985 104.456 123.985 105.219H124.608Z" fill="#81EBEB"/>
<path d="M43.6418 128.248C47.6733 128.248 50.9414 124.897 50.9414 120.763C50.9414 116.629 47.6733 113.277 43.6418 113.277C39.6103 113.277 36.3422 116.629 36.3422 120.763C36.3422 121.96 36.6163 123.092 37.1038 124.096C37.2334 124.362 37.2765 124.667 37.2014 124.955L36.7666 126.621C36.5779 127.345 37.2232 128.007 37.9286 127.813L39.5535 127.367C39.8343 127.29 40.1315 127.334 40.3916 127.467C41.3704 127.967 42.4741 128.248 43.6418 128.248Z" fill="white"/>
<circle cx="43.7066" cy="118.769" r="1.48394" fill="#04D9D9"/>
<path d="M46.6701 123.037C46.6701 123.959 46.6701 124.706 43.7023 124.706C40.7344 124.706 40.7344 123.959 40.7344 123.037C40.7344 122.115 42.0631 121.367 43.7023 121.367C45.3414 121.367 46.6701 122.115 46.6701 123.037Z" fill="#04D9D9"/>
<path d="M35.2356 124.077C35.2356 124.887 35.2363 125.696 35.235 126.505C35.2343 126.945 35.1008 127.084 34.6819 127.085C34.1815 127.086 33.681 127.089 33.1805 127.084C32.419 127.077 31.8817 126.525 31.8785 125.742C31.8738 124.621 31.8738 123.499 31.8785 122.379C31.8817 121.614 32.3875 121.07 33.1358 121.045C33.6771 121.027 34.2189 121.035 34.7602 121.042C35.0916 121.047 35.2271 121.201 35.235 121.549C35.2356 121.565 35.235 121.582 35.235 121.599C35.2356 122.425 35.2356 123.251 35.2356 124.077Z" fill="url(#paint9_linear_11446_70282)"/>
<path d="M52.9812 124.008C52.9812 123.19 52.9799 122.372 52.9819 121.555C52.9825 121.144 53.116 121.003 53.5093 121C54.0097 120.996 54.5102 120.993 55.0106 121.001C55.8261 121.013 56.3377 121.551 56.339 122.393C56.341 123.48 56.341 124.567 56.339 125.655C56.3371 126.502 55.809 127.042 54.9823 127.044C54.4819 127.046 53.9814 127.047 53.481 127.044C53.1351 127.042 52.9838 126.89 52.9825 126.537C52.9792 125.694 52.9812 124.851 52.9812 124.008Z" fill="url(#paint10_linear_11446_70282)"/>
<path d="M54.2397 127.674C54.5152 127.674 54.775 127.674 55.0907 127.674C55.0236 128.034 54.9815 128.381 54.8927 128.716C54.268 131.082 52.1998 132.759 49.8132 132.831C49.1089 132.853 48.4033 132.838 47.6983 132.839C47.651 132.839 47.6036 132.828 47.5431 132.82C47.5431 132.545 47.5431 132.28 47.5431 131.988C47.6332 131.984 47.7207 131.976 47.8075 131.976C48.4467 131.974 49.0866 131.985 49.7258 131.971C52.0492 131.92 53.9464 130.143 54.2206 127.772C54.2239 127.748 54.2305 127.724 54.2397 127.674Z" fill="url(#paint11_linear_11446_70282)"/>
<path d="M45.1882 131.553C45.5321 131.553 45.876 131.549 46.22 131.554C46.5343 131.558 46.6829 131.713 46.6882 132.036C46.6922 132.288 46.6922 132.541 46.6882 132.794C46.6829 133.099 46.5291 133.272 46.2397 133.275C45.5439 133.281 44.8475 133.286 44.1518 133.273C43.6829 133.265 43.3337 132.881 43.335 132.41C43.3363 131.936 43.6855 131.566 44.157 131.555C44.5003 131.547 44.8442 131.553 45.1882 131.553Z" fill="url(#paint12_linear_11446_70282)"/>
<path d="M55.0796 120.497C55.0796 119.045 54.7936 117.607 54.2378 116.265C53.682 114.923 52.8675 113.704 51.8405 112.677C50.8136 111.65 49.5945 110.835 48.2528 110.279C46.9111 109.724 45.473 109.437 44.0207 109.438C42.5685 109.438 41.1304 109.724 39.7887 110.279C38.447 110.835 37.2278 111.65 36.2009 112.677C35.174 113.704 34.3594 114.923 33.8037 116.265C33.2479 117.607 32.9619 119.045 32.9619 120.497H33.9878C33.9878 119.18 34.2473 117.875 34.7515 116.657C35.2557 115.44 35.9948 114.334 36.9264 113.402C37.858 112.471 38.9641 111.732 40.1813 111.227C41.3986 110.723 42.7032 110.464 44.0207 110.464C45.3383 110.464 46.6429 110.723 47.8602 111.227C49.0774 111.732 50.1834 112.471 51.1151 113.402C52.0467 114.334 52.7857 115.44 53.2899 116.657C53.7941 117.875 54.0536 119.18 54.0536 120.497H55.0796Z" fill="url(#paint13_linear_11446_70282)"/>
<defs>
<filter id="filter0_d_11446_70282" x="87.975" y="93.2875" width="53.55" height="67.3625" filterUnits="userSpaceOnUse" color-interpolation-filters="sRGB">
<feFlood flood-opacity="0" result="BackgroundImageFix"/>
<feColorMatrix in="SourceAlpha" type="matrix" values="0 0 0 0 0 0 0 0 0 0 0 0 0 0 0 0 0 0 127 0" result="hardAlpha"/>
<feOffset dx="-3.1875" dy="2.125"/>
<feGaussianBlur stdDeviation="1.7"/>
<feComposite in2="hardAlpha" operator="out"/>
<feColorMatrix type="matrix" values="0 0 0 0 0 0 0 0 0 0.454167 0 0 0 0 0.263417 0 0 0 0.07 0"/>
<feBlend mode="normal" in2="BackgroundImageFix" result="effect1_dropShadow_11446_70282"/>
<feBlend mode="normal" in="SourceGraphic" in2="effect1_dropShadow_11446_70282" result="shape"/>
</filter>
<linearGradient id="paint0_linear_11446_70282" x1="30.6397" y1="41.9015" x2="77.9364" y2="161.5" gradientUnits="userSpaceOnUse">
<stop stop-color="white"/>
<stop offset="1" stop-color="#E2F1FA"/>
</linearGradient>
<linearGradient id="paint1_linear_11446_70282" x1="25.3194" y1="45.1047" x2="93.7372" y2="191.304" gradientUnits="userSpaceOnUse">
<stop stop-color="white"/>
<stop offset="1" stop-color="#F4FBFF"/>
</linearGradient>
<linearGradient id="paint2_linear_11446_70282" x1="-18.5937" y1="77.0313" x2="-11.1397" y2="176.883" gradientUnits="userSpaceOnUse">
<stop stop-color="white"/>
<stop offset="0.752529" stop-color="#D9EAF3"/>
</linearGradient>
<linearGradient id="paint3_linear_11446_70282" x1="60.1467" y1="105.103" x2="63.9344" y2="133.105" gradientUnits="userSpaceOnUse">
<stop stop-color="white"/>
<stop offset="1" stop-color="#F4FBFF"/>
</linearGradient>
<linearGradient id="paint4_linear_11446_70282" x1="63.3512" y1="122.651" x2="65.3058" y2="136.635" gradientUnits="userSpaceOnUse">
<stop stop-color="white"/>
<stop offset="1" stop-color="#F4FBFF"/>
</linearGradient>
<linearGradient id="paint5_linear_11446_70282" x1="61.1215" y1="17.2378" x2="57.2748" y2="43.0875" gradientUnits="userSpaceOnUse">
<stop stop-color="#FFB74B"/>
<stop offset="1" stop-color="#FCCA80"/>
</linearGradient>
<linearGradient id="paint6_linear_11446_70282" x1="63.2638" y1="14.0131" x2="60.037" y2="45.7188" gradientUnits="userSpaceOnUse">
<stop stop-color="#FFB74B"/>
<stop offset="1" stop-color="#FCCA80"/>
</linearGradient>
<linearGradient id="paint7_linear_11446_70282" x1="62.4453" y1="17.8656" x2="72.618" y2="38.2029" gradientUnits="userSpaceOnUse">
<stop stop-color="#FFA133"/>
<stop offset="1" stop-color="#FFC633"/>
</linearGradient>
<linearGradient id="paint8_linear_11446_70282" x1="86.5068" y1="121.942" x2="150.071" y2="121.942" gradientUnits="userSpaceOnUse">
<stop stop-color="#05E0E0"/>
<stop offset="1" stop-color="#02C8C8"/>
</linearGradient>
<linearGradient id="paint9_linear_11446_70282" x1="32.962" y1="120.498" x2="55.0791" y2="120.498" gradientUnits="userSpaceOnUse">
<stop stop-color="#05E0E0"/>
<stop offset="1" stop-color="#02C8C8"/>
</linearGradient>
<linearGradient id="paint10_linear_11446_70282" x1="32.962" y1="120.498" x2="55.0791" y2="120.498" gradientUnits="userSpaceOnUse">
<stop stop-color="#05E0E0"/>
<stop offset="1" stop-color="#02C8C8"/>
</linearGradient>
<linearGradient id="paint11_linear_11446_70282" x1="32.962" y1="120.498" x2="55.0791" y2="120.498" gradientUnits="userSpaceOnUse">
<stop stop-color="#05E0E0"/>
<stop offset="1" stop-color="#02C8C8"/>
</linearGradient>
<linearGradient id="paint12_linear_11446_70282" x1="32.962" y1="120.498" x2="55.0791" y2="120.498" gradientUnits="userSpaceOnUse">
<stop stop-color="#05E0E0"/>
<stop offset="1" stop-color="#02C8C8"/>
</linearGradient>
<linearGradient id="paint13_linear_11446_70282" x1="32.962" y1="120.498" x2="55.0791" y2="120.498" gradientUnits="userSpaceOnUse">
<stop stop-color="#05E0E0"/>
<stop offset="1" stop-color="#02C8C8"/>
</linearGradient>
</defs>
</svg>
