<svg width="24" height="24" viewBox="0 0 24 24" fill="none" xmlns="http://www.w3.org/2000/svg">
<path d="M9.62044 17.0277C9.49128 16.691 9.36258 16.3669 9.24274 16.0391C9.20684 15.9407 9.15135 15.8945 9.04923 15.8684C8.5517 15.7407 8.07888 15.5476 7.63824 15.2818C7.53659 15.2207 7.45639 15.2212 7.35194 15.2711C7.07916 15.4007 6.79938 15.5145 6.52521 15.6418C6.44034 15.681 6.38578 15.6805 6.31491 15.6078C5.94514 15.2286 5.57024 14.8542 5.19301 14.4821C5.12773 14.4177 5.12167 14.3669 5.15944 14.2853C5.28954 14.006 5.40611 13.7201 5.5376 13.4412C5.5847 13.3415 5.58423 13.2668 5.52548 13.1694C5.25736 12.7227 5.06991 12.2414 4.9263 11.7411C4.90531 11.6674 4.82791 11.5853 4.7561 11.555C4.43622 11.4193 4.10889 11.3009 3.77782 11.174C3.77782 10.5893 3.77503 10.0129 3.78295 9.43606C3.78342 9.38896 3.84777 9.32134 3.89766 9.30036C4.18723 9.17958 4.48332 9.07559 4.77195 8.95342C4.8349 8.92684 4.90578 8.85689 4.9235 8.79347C5.06618 8.27399 5.26995 7.78156 5.53667 7.31385C5.56698 7.26022 5.57024 7.16836 5.54646 7.11007C5.42523 6.81396 5.2942 6.52204 5.15897 6.23199C5.12074 6.15039 5.12727 6.10003 5.19255 6.03568C5.56978 5.66355 5.94467 5.2891 6.31444 4.90999C6.38485 4.83771 6.44034 4.83584 6.52521 4.87501C6.80451 5.00418 7.08942 5.12169 7.36779 5.2532C7.46152 5.2975 7.53146 5.29843 7.62285 5.2434C8.07329 4.97154 8.55823 4.77942 9.06416 4.63766C9.12897 4.61947 9.20218 4.55325 9.22829 4.49077C9.36538 4.16388 9.48848 3.83093 9.62044 3.48865C10.2014 3.48865 10.7824 3.48632 11.3634 3.49332C11.4063 3.49378 11.4683 3.55394 11.487 3.60057C11.6064 3.89109 11.7099 4.18813 11.833 4.47678C11.8619 4.54393 11.9365 4.61854 12.005 4.63766C12.5114 4.77895 12.9954 4.97294 13.4468 5.2434C13.5377 5.29796 13.6086 5.29936 13.7023 5.25553C13.9863 5.12216 14.2726 4.99392 14.5627 4.87501C14.6102 4.85543 14.7011 4.86988 14.737 4.90486C15.1208 5.27884 15.4952 5.66169 15.8771 6.03754C15.9433 6.10236 15.9461 6.15412 15.9088 6.23386C15.7745 6.52391 15.6426 6.81582 15.5213 7.11193C15.4976 7.16976 15.5008 7.26162 15.5311 7.31525C15.7965 7.78343 16.0026 8.27446 16.1434 8.79487C16.1606 8.85829 16.2324 8.92777 16.2959 8.95482C16.5789 9.07513 16.8671 9.18424 17.1562 9.2901C17.249 9.32414 17.2923 9.36518 17.2909 9.47429C17.2844 9.9989 17.2853 10.5235 17.2905 11.0481C17.2914 11.1451 17.2625 11.1917 17.1701 11.2248C16.8806 11.3293 16.5966 11.4487 16.3075 11.5536C16.2105 11.5886 16.1466 11.6347 16.1345 11.7429C16.1177 11.8903 16.0608 11.9877 15.892 12.0274C15.6827 12.0763 15.5712 12.2526 15.5139 12.4508C15.4598 12.6364 15.3516 12.7334 15.1702 12.8173C14.9254 12.9306 14.7263 12.933 14.488 12.8099C14.2502 12.6872 14.0106 12.7446 13.8157 12.9362C13.5956 13.1526 13.3783 13.3713 13.1614 13.5909C12.9348 13.8204 12.8607 14.0638 13.0272 14.3342C13.2361 14.6737 13.0038 14.9181 12.9115 15.1932C12.8947 15.2431 12.7889 15.2711 12.7189 15.2939C12.469 15.3751 12.2671 15.5014 12.1878 15.7752C12.1766 15.8139 12.1039 15.853 12.0554 15.8591C11.9137 15.8768 11.8516 15.9584 11.8073 16.0862C11.7099 16.3665 11.6017 16.643 11.4875 16.9167C11.4669 16.9652 11.3956 17.024 11.3471 17.0244C10.7778 17.0305 10.208 17.0277 9.62044 17.0277ZM6.44267 10.2544C6.43894 12.5082 8.2668 14.3478 10.5222 14.3599C12.773 14.3716 14.6247 12.524 14.6275 10.2619C14.6307 8.00773 12.8047 6.17091 10.547 6.15692C8.29711 6.14293 6.4464 7.99047 6.44267 10.2544Z" fill="url(#paint0_linear_11164_67414)"/>
<path d="M19.6951 14.0532C19.6373 14.1833 19.5916 14.3102 19.5263 14.4263C19.4349 14.5881 19.4377 14.7233 19.5375 14.8912C19.6457 15.0735 19.7086 15.2848 19.7767 15.4885C19.8107 15.5902 19.8536 15.6573 19.9604 15.6951C20.1283 15.7543 20.354 15.7898 20.436 15.9143C20.52 16.0411 20.4626 16.2631 20.4631 16.4431C20.4645 16.9332 20.4654 16.9378 20.0084 17.1029C19.8751 17.151 19.8093 17.2256 19.7646 17.3613C19.6881 17.5921 19.5743 17.8099 19.4881 18.0379C19.4629 18.1046 19.4573 18.1932 19.4787 18.2603C19.5202 18.3928 19.5823 18.5196 19.6452 18.6441C19.6904 18.7332 19.6914 18.7961 19.6116 18.8712C19.4205 19.0503 19.2363 19.2373 19.0558 19.4275C18.9887 19.4984 18.9276 19.5198 18.8455 19.4648C18.5284 19.2508 18.2123 19.2209 17.8938 19.4634C17.8584 19.4905 17.8094 19.5073 17.7647 19.5133C17.4341 19.5571 17.2648 19.7595 17.2023 20.0738C17.1711 20.2324 17.0839 20.2986 16.9104 20.2846C16.6791 20.2664 16.4451 20.2762 16.2128 20.2818C16.12 20.2841 16.0538 20.2673 16.0333 20.1657C15.9564 19.7856 15.7517 19.5352 15.3493 19.4788C15.305 19.4727 15.2583 19.4504 15.2224 19.4228C14.9692 19.2289 14.7146 19.2419 14.4624 19.4182C14.3034 19.5296 14.1891 19.4923 14.067 19.3492C13.9238 19.1813 13.7602 19.0302 13.5997 18.8782C13.5275 18.8096 13.4902 18.7458 13.5531 18.6534C13.7695 18.3349 13.7863 18.0188 13.5517 17.6984C13.5088 17.6397 13.479 17.5604 13.472 17.4876C13.4459 17.2172 13.2677 17.1188 13.0369 17.0432C12.7362 16.9448 12.7404 16.9327 12.7404 16.6068C12.7404 16.4086 12.7455 16.2099 12.7385 16.0122C12.7352 15.9143 12.7665 15.8565 12.8625 15.8369C13.2374 15.7613 13.4785 15.5566 13.534 15.1598C13.5443 15.088 13.5806 15.0115 13.6263 14.9541C13.7942 14.7448 13.7457 14.5498 13.6324 14.3316C13.486 14.0499 13.499 14.043 13.7294 13.8121C13.8693 13.6718 14.0133 13.5356 14.1472 13.3901C14.2148 13.3164 14.2791 13.3006 14.3589 13.3542C14.6839 13.5724 15.0056 13.5878 15.3274 13.3467C15.3544 13.3267 15.3908 13.3136 15.4243 13.3094C15.7699 13.2642 15.9415 13.0469 16.0053 12.7233C16.0356 12.5689 16.127 12.5274 16.2791 12.5363C16.5169 12.5503 16.7561 12.5447 16.9943 12.5377C17.0918 12.5349 17.151 12.5657 17.1711 12.6613C17.2485 13.0343 17.4452 13.2805 17.8449 13.3365C17.9386 13.3495 18.0351 13.4018 18.112 13.4601C18.2748 13.5827 18.4193 13.5566 18.5919 13.4713C18.957 13.2908 18.9612 13.2996 19.2521 13.5911C19.3757 13.7147 19.4993 13.8378 19.6219 13.9627C19.648 13.9898 19.6704 14.0229 19.6951 14.0532ZM14.7603 16.4039C14.7566 17.4233 15.5778 18.251 16.5947 18.2524C17.6126 18.2543 18.437 17.4331 18.4398 16.4142C18.4431 15.3934 17.6257 14.5708 16.605 14.5666C15.5857 14.562 14.7641 15.3804 14.7603 16.4039Z" fill="black"/>
<path d="M19.6951 14.0532C19.6373 14.1833 19.5916 14.3102 19.5263 14.4263C19.4349 14.5881 19.4377 14.7233 19.5375 14.8912C19.6457 15.0735 19.7086 15.2848 19.7767 15.4885C19.8107 15.5902 19.8536 15.6573 19.9604 15.6951C20.1283 15.7543 20.354 15.7898 20.436 15.9143C20.52 16.0411 20.4626 16.2631 20.4631 16.4431C20.4645 16.9332 20.4654 16.9378 20.0084 17.1029C19.8751 17.151 19.8093 17.2256 19.7646 17.3613C19.6881 17.5921 19.5743 17.8099 19.4881 18.0379C19.4629 18.1046 19.4573 18.1932 19.4787 18.2603C19.5202 18.3928 19.5823 18.5196 19.6452 18.6441C19.6904 18.7332 19.6914 18.7961 19.6116 18.8712C19.4205 19.0503 19.2363 19.2373 19.0558 19.4275C18.9887 19.4984 18.9276 19.5198 18.8455 19.4648C18.5284 19.2508 18.2123 19.2209 17.8938 19.4634C17.8584 19.4905 17.8094 19.5073 17.7647 19.5133C17.4341 19.5571 17.2648 19.7595 17.2023 20.0738C17.1711 20.2324 17.0839 20.2986 16.9104 20.2846C16.6791 20.2664 16.4451 20.2762 16.2128 20.2818C16.12 20.2841 16.0538 20.2673 16.0333 20.1657C15.9564 19.7856 15.7517 19.5352 15.3493 19.4788C15.305 19.4727 15.2583 19.4504 15.2224 19.4228C14.9692 19.2289 14.7146 19.2419 14.4624 19.4182C14.3034 19.5296 14.1891 19.4923 14.067 19.3492C13.9238 19.1813 13.7602 19.0302 13.5997 18.8782C13.5275 18.8096 13.4902 18.7458 13.5531 18.6534C13.7695 18.3349 13.7863 18.0188 13.5517 17.6984C13.5088 17.6397 13.479 17.5604 13.472 17.4876C13.4459 17.2172 13.2677 17.1188 13.0369 17.0432C12.7362 16.9448 12.7404 16.9327 12.7404 16.6068C12.7404 16.4086 12.7455 16.2099 12.7385 16.0122C12.7352 15.9143 12.7665 15.8565 12.8625 15.8369C13.2374 15.7613 13.4785 15.5566 13.534 15.1598C13.5443 15.088 13.5806 15.0115 13.6263 14.9541C13.7942 14.7448 13.7457 14.5498 13.6324 14.3316C13.486 14.0499 13.499 14.043 13.7294 13.8121C13.8693 13.6718 14.0133 13.5356 14.1472 13.3901C14.2148 13.3164 14.2791 13.3006 14.3589 13.3542C14.6839 13.5724 15.0056 13.5878 15.3274 13.3467C15.3544 13.3267 15.3908 13.3136 15.4243 13.3094C15.7699 13.2642 15.9415 13.0469 16.0053 12.7233C16.0356 12.5689 16.127 12.5274 16.2791 12.5363C16.5169 12.5503 16.7561 12.5447 16.9943 12.5377C17.0918 12.5349 17.151 12.5657 17.1711 12.6613C17.2485 13.0343 17.4452 13.2805 17.8449 13.3365C17.9386 13.3495 18.0351 13.4018 18.112 13.4601C18.2748 13.5827 18.4193 13.5566 18.5919 13.4713C18.957 13.2908 18.9612 13.2996 19.2521 13.5911C19.3757 13.7147 19.4993 13.8378 19.6219 13.9627C19.648 13.9898 19.6704 14.0229 19.6951 14.0532ZM14.7603 16.4039C14.7566 17.4233 15.5778 18.251 16.5947 18.2524C17.6126 18.2543 18.437 17.4331 18.4398 16.4142C18.4431 15.3934 17.6257 14.5708 16.605 14.5666C15.5857 14.562 14.7641 15.3804 14.7603 16.4039Z" fill="url(#paint1_linear_11164_67414)"/>
<ellipse cx="10.4963" cy="10.2074" rx="3.41818" ry="3.41837" fill="#D9D9D9"/>
<ellipse cx="10.4963" cy="10.2074" rx="3.41818" ry="3.41837" fill="url(#paint2_linear_11164_67414)"/>
<ellipse cx="10.4963" cy="10.2074" rx="3.41818" ry="3.41837" fill="url(#paint3_linear_11164_67414)"/>
<path d="M8.40234 8.54844C8.40234 8.46559 8.4695 8.39844 8.55234 8.39844H9.15234C9.23519 8.39844 9.30234 8.46559 9.30234 8.54844V9.14844C9.30234 9.23128 9.23519 9.29844 9.15234 9.29844H8.55234C8.4695 9.29844 8.40234 9.23128 8.40234 9.14844V8.54844Z" fill="url(#paint4_linear_11164_67414)"/>
<path d="M8.40234 10.0484C8.40234 9.96559 8.4695 9.89844 8.55234 9.89844H9.15234C9.23519 9.89844 9.30234 9.96559 9.30234 10.0484V10.6484C9.30234 10.7313 9.23519 10.7984 9.15234 10.7984H8.55234C8.4695 10.7984 8.40234 10.7313 8.40234 10.6484V10.0484Z" fill="url(#paint5_linear_11164_67414)"/>
<path d="M8.40234 11.5484C8.40234 11.4656 8.4695 11.3984 8.55234 11.3984H9.15234C9.23519 11.3984 9.30234 11.4656 9.30234 11.5484V12.1484C9.30234 12.2313 9.23519 12.2984 9.15234 12.2984H8.55234C8.4695 12.2984 8.40234 12.2313 8.40234 12.1484V11.5484Z" fill="url(#paint6_linear_11164_67414)"/>
<path d="M9.60234 8.54844C9.60234 8.46559 9.6695 8.39844 9.75234 8.39844H12.4523C12.5352 8.39844 12.6023 8.46559 12.6023 8.54844V9.14844C12.6023 9.23128 12.5352 9.29844 12.4523 9.29844H9.75234C9.6695 9.29844 9.60234 9.23128 9.60234 9.14844V8.54844Z" fill="url(#paint7_linear_11164_67414)"/>
<path d="M9.60234 10.0484C9.60234 9.96559 9.6695 9.89844 9.75234 9.89844H12.4523C12.5352 9.89844 12.6023 9.96559 12.6023 10.0484V10.6484C12.6023 10.7313 12.5352 10.7984 12.4523 10.7984H9.75234C9.6695 10.7984 9.60234 10.7313 9.60234 10.6484V10.0484Z" fill="url(#paint8_linear_11164_67414)"/>
<path d="M9.60234 11.5484C9.60234 11.4656 9.6695 11.3984 9.75234 11.3984H12.4523C12.5352 11.3984 12.6023 11.4656 12.6023 11.5484V12.1484C12.6023 12.2313 12.5352 12.2984 12.4523 12.2984H9.75234C9.6695 12.2984 9.60234 12.2313 9.60234 12.1484V11.5484Z" fill="url(#paint9_linear_11164_67414)"/>
<defs>
<linearGradient id="paint0_linear_11164_67414" x1="2.06284" y1="18.0615" x2="26.6572" y2="10.134" gradientUnits="userSpaceOnUse">
<stop stop-color="#05E0E0"/>
<stop offset="1" stop-color="#02C8C8"/>
</linearGradient>
<linearGradient id="paint1_linear_11164_67414" x1="11.7558" y1="20.8779" x2="25.8463" y2="16.3318" gradientUnits="userSpaceOnUse">
<stop stop-color="#05E0E0"/>
<stop offset="1" stop-color="#02C8C8"/>
</linearGradient>
<linearGradient id="paint2_linear_11164_67414" x1="6.21078" y1="14.1475" x2="18.6483" y2="10.1309" gradientUnits="userSpaceOnUse">
<stop stop-color="#05E0E0"/>
<stop offset="1" stop-color="#02C8C8"/>
</linearGradient>
<linearGradient id="paint3_linear_11164_67414" x1="6.85528" y1="7.5698" x2="19.6485" y2="17.6495" gradientUnits="userSpaceOnUse">
<stop stop-color="#F9FBFF"/>
<stop offset="1" stop-color="#E2F1FA"/>
</linearGradient>
<linearGradient id="paint4_linear_11164_67414" x1="7.73868" y1="8.46551" x2="12.3509" y2="13.5755" gradientUnits="userSpaceOnUse">
<stop stop-color="#FFAC4B"/>
<stop offset="1" stop-color="#FCCA80"/>
</linearGradient>
<linearGradient id="paint5_linear_11164_67414" x1="7.73868" y1="8.46551" x2="12.3509" y2="13.5755" gradientUnits="userSpaceOnUse">
<stop stop-color="#FFAC4B"/>
<stop offset="1" stop-color="#FCCA80"/>
</linearGradient>
<linearGradient id="paint6_linear_11164_67414" x1="7.73868" y1="8.46551" x2="12.3509" y2="13.5755" gradientUnits="userSpaceOnUse">
<stop stop-color="#FFAC4B"/>
<stop offset="1" stop-color="#FCCA80"/>
</linearGradient>
<linearGradient id="paint7_linear_11164_67414" x1="7.73868" y1="8.46551" x2="12.3509" y2="13.5755" gradientUnits="userSpaceOnUse">
<stop stop-color="#FFAC4B"/>
<stop offset="1" stop-color="#FCCA80"/>
</linearGradient>
<linearGradient id="paint8_linear_11164_67414" x1="7.73868" y1="8.46551" x2="12.3509" y2="13.5755" gradientUnits="userSpaceOnUse">
<stop stop-color="#FFAC4B"/>
<stop offset="1" stop-color="#FCCA80"/>
</linearGradient>
<linearGradient id="paint9_linear_11164_67414" x1="7.73868" y1="8.46551" x2="12.3509" y2="13.5755" gradientUnits="userSpaceOnUse">
<stop stop-color="#FFAC4B"/>
<stop offset="1" stop-color="#FCCA80"/>
</linearGradient>
</defs>
</svg>
