<svg width="24" height="24" viewBox="0 0 24 24" fill="none" xmlns="http://www.w3.org/2000/svg">
<rect width="11.2131" height="6.88888" rx="0.171992" transform="matrix(0.993877 -0.110488 0.110462 0.99388 4.30078 10.957)" fill="url(#paint0_linear_11164_67389)"/>
<path fill-rule="evenodd" clip-rule="evenodd" d="M16.7386 16.2824C16.4353 16.3359 16.1232 16.3638 15.8046 16.3638C12.9227 16.3638 10.5743 14.0796 10.4707 11.2227H3.83996C3.74497 11.2227 3.66797 11.2997 3.66797 11.3946V20.3388C3.66797 20.4337 3.74497 20.5107 3.83996 20.5107H16.5666C16.6616 20.5107 16.7386 20.4337 16.7386 20.3388V16.2824Z" fill="url(#paint1_linear_11164_67389)"/>
<ellipse cx="15.6939" cy="11.0459" rx="4.55323" ry="4.55375" fill="#D9D9D9"/>
<ellipse cx="15.6939" cy="11.0459" rx="4.55323" ry="4.55375" fill="url(#paint2_linear_11164_67389)"/>
<rect x="1.80078" y="14.7617" width="5.50341" height="2.75203" rx="0.351735" fill="url(#paint3_linear_11164_67389)"/>
<path d="M22.1996 13.8418C22.2402 16.1369 20.4196 17.7936 18.225 17.7936C18.0706 17.7936 17.9405 17.7128 17.8674 17.5916C17.7942 17.4542 17.7942 17.3007 17.8674 17.1714L18.4038 16.2905C18.5257 16.0965 18.7777 16.0319 18.9728 16.1531C19.1678 16.2662 19.2247 16.5168 19.1109 16.7107L19.0134 16.8804C20.3708 16.5249 21.3705 15.3046 21.3705 13.8418C21.3705 13.6156 21.5575 13.4297 21.7851 13.4297C22.0126 13.4297 22.1996 13.6156 22.1996 13.8418Z" fill="url(#paint4_linear_11164_67389)"/>
<path d="M9.56892 7.4943C9.6964 5.20237 11.6335 3.68345 13.8221 3.84413C13.9761 3.85544 14.0999 3.94556 14.164 4.07181C14.2269 4.21418 14.2157 4.36731 14.1332 4.49091L13.5338 5.33014C13.398 5.51464 13.1419 5.56067 12.9563 5.42549C12.77 5.29838 12.7316 5.04436 12.8593 4.85926L12.969 4.69715C11.5892 4.95239 10.5028 6.0962 10.3958 7.555C10.3792 7.78068 10.1791 7.95236 9.95217 7.9357C9.72519 7.91903 9.55236 7.71997 9.56892 7.4943Z" fill="url(#paint5_linear_11164_67389)"/>
<path fill-rule="evenodd" clip-rule="evenodd" d="M16.8683 13.4337C17.0982 13.2946 17.2781 13.1158 17.408 12.8971C17.5379 12.6686 17.6078 12.4102 17.6078 12.1221C17.6078 11.7544 17.5079 11.4563 17.298 11.2277C17.0982 10.9992 16.7784 10.8303 16.3387 10.7209L15.5993 10.5421C15.3594 10.4825 15.1896 10.403 15.0896 10.3036C14.9797 10.1943 14.9297 10.0552 14.9297 9.88624C14.9297 9.65769 15.0197 9.46889 15.1796 9.32977C15.3494 9.19065 15.5793 9.11116 15.8691 9.11116C16.0989 9.11116 16.2888 9.14097 16.4586 9.20059C16.6185 9.25028 16.7684 9.31984 16.8983 9.39933C16.9983 9.45895 17.0782 9.48877 17.1481 9.47883C17.2281 9.46889 17.288 9.43908 17.338 9.3894C17.388 9.33971 17.4279 9.28009 17.4479 9.21053C17.4579 9.14097 17.4579 9.06148 17.4379 8.98198C17.4179 8.90248 17.368 8.83292 17.298 8.7733C17.1282 8.63419 16.9283 8.51494 16.6985 8.43545C16.5186 8.37582 16.3487 8.33608 16.1988 8.3162V7.79948C16.1988 7.69017 16.1589 7.60074 16.0989 7.53118C16.029 7.46162 15.949 7.42188 15.8591 7.42188C15.7591 7.42188 15.6692 7.46162 15.6093 7.53118C15.5493 7.60074 15.5193 7.69017 15.5193 7.79948V8.33608C15.2495 8.36589 15.0197 8.44538 14.8198 8.56463C14.58 8.70374 14.4001 8.89255 14.2702 9.13103C14.1303 9.35958 14.0704 9.62788 14.0704 9.91605C14.0704 10.3036 14.1703 10.6116 14.3801 10.8402C14.58 11.0787 14.8898 11.2476 15.2995 11.347L16.029 11.5258C16.1988 11.5656 16.3487 11.6153 16.4486 11.6749C16.5486 11.7445 16.6285 11.814 16.6785 11.8935C16.7185 11.9829 16.7384 12.0724 16.7384 12.1817C16.7384 12.3208 16.7085 12.44 16.6385 12.5494C16.5786 12.6487 16.4786 12.7282 16.3287 12.7978C16.1888 12.8574 16.009 12.8872 15.7791 12.8872C15.4893 12.8872 15.2395 12.8475 15.0297 12.7779C14.8298 12.6984 14.6599 12.6288 14.53 12.5494C14.4401 12.4897 14.3502 12.4599 14.2802 12.4897C14.2103 12.4997 14.1503 12.5394 14.1003 12.609C14.0504 12.6686 14.0204 12.7382 14.0104 12.8276C14.0004 12.9071 14.0204 12.9965 14.0504 13.076C14.0804 13.1555 14.1403 13.2251 14.2203 13.2847C14.3901 13.3841 14.59 13.4834 14.8298 13.5629C15.0397 13.6225 15.2595 13.6722 15.5193 13.6921V14.1989C15.5193 14.3082 15.5493 14.3976 15.6093 14.4672C15.6692 14.5367 15.7591 14.5765 15.8591 14.5765C15.959 14.5765 16.0389 14.5367 16.0989 14.4672C16.1689 14.3976 16.1988 14.3082 16.1988 14.1989V13.6623C16.4486 13.6225 16.6685 13.543 16.8683 13.4337Z" fill="url(#paint6_linear_11164_67389)"/>
<defs>
<linearGradient id="paint0_linear_11164_67389" x1="-2.4157" y1="-3.80818" x2="1.18557" y2="5.56133" gradientUnits="userSpaceOnUse">
<stop stop-color="#C5CDE4"/>
<stop offset="1" stop-color="#F0F5FF"/>
</linearGradient>
<linearGradient id="paint1_linear_11164_67389" x1="2.00967" y1="21.2194" x2="23.7738" y2="11.328" gradientUnits="userSpaceOnUse">
<stop stop-color="#05E0E0"/>
<stop offset="1" stop-color="#02C8C8"/>
</linearGradient>
<linearGradient id="paint2_linear_11164_67389" x1="10.8438" y1="7.53224" x2="27.886" y2="20.9589" gradientUnits="userSpaceOnUse">
<stop stop-color="#F9FBFF"/>
<stop offset="1" stop-color="#E2F1FA"/>
</linearGradient>
<linearGradient id="paint3_linear_11164_67389" x1="2.2594" y1="14.5897" x2="7.91899" y2="16.5459" gradientUnits="userSpaceOnUse">
<stop stop-color="#00C2C2"/>
<stop offset="1" stop-color="#00CCCC"/>
</linearGradient>
<linearGradient id="paint4_linear_11164_67389" x1="6.26981" y1="18.5945" x2="24.8808" y2="12.5495" gradientUnits="userSpaceOnUse">
<stop stop-color="#05E0E0"/>
<stop offset="1" stop-color="#02C8C8"/>
</linearGradient>
<linearGradient id="paint5_linear_11164_67389" x1="25.8039" y1="3.9207" x2="6.80033" y2="8.58713" gradientUnits="userSpaceOnUse">
<stop stop-color="#05E0E0"/>
<stop offset="1" stop-color="#02C8C8"/>
</linearGradient>
<linearGradient id="paint6_linear_11164_67389" x1="13.439" y1="7.54493" x2="20.384" y2="11.14" gradientUnits="userSpaceOnUse">
<stop stop-color="#FFAC4B"/>
<stop offset="1" stop-color="#FCCA80"/>
</linearGradient>
</defs>
</svg>
