<svg width="24" height="25" viewBox="0 0 24 25" fill="none" xmlns="http://www.w3.org/2000/svg">
<path fill-rule="evenodd" clip-rule="evenodd" d="M9.05197 8.77619C8.83257 8.75565 8.61022 8.74515 8.38541 8.74515C4.50868 8.74515 1.36719 11.8681 1.36719 15.7219C1.36719 19.5758 4.50868 22.6987 8.38541 22.6987C12.2322 22.6987 15.355 19.6239 15.4031 15.8111C11.8919 15.3411 9.1667 12.388 9.05197 8.77619ZM9.56625 18.4351C9.82247 18.2801 10.023 18.0808 10.1678 17.8371C10.3126 17.5824 10.3906 17.2945 10.3906 16.9733C10.3906 16.5636 10.2792 16.2314 10.0453 15.9767C9.82247 15.7219 9.46599 15.5337 8.97583 15.4119L8.15146 15.2125C7.8841 15.1461 7.69472 15.0575 7.58332 14.9467C7.46078 14.8249 7.40508 14.6699 7.40508 14.4816C7.40508 14.2269 7.50534 14.0165 7.68358 13.8615C7.87296 13.7064 8.12918 13.6178 8.45224 13.6178C8.70847 13.6178 8.92013 13.6511 9.10951 13.7175C9.28775 13.7729 9.45485 13.8504 9.59967 13.939C9.71107 14.0054 9.80019 14.0387 9.87817 14.0276C9.96729 14.0165 10.0341 13.9833 10.0898 13.9279C10.1455 13.8725 10.1901 13.8061 10.2124 13.7286C10.2235 13.6511 10.2235 13.5625 10.2012 13.4739C10.1789 13.3853 10.1232 13.3078 10.0453 13.2413C9.85589 13.0863 9.63309 12.9534 9.37687 12.8648C9.17635 12.7983 8.98697 12.754 8.81987 12.7319V12.156C8.81987 12.0342 8.77531 11.9345 8.70847 11.857C8.63049 11.7795 8.54137 11.7352 8.4411 11.7352C8.3297 11.7352 8.22944 11.7795 8.1626 11.857C8.09576 11.9345 8.06234 12.0342 8.06234 12.156V12.754C7.76156 12.7873 7.50534 12.8759 7.28254 13.0087C7.01518 13.1638 6.81466 13.3742 6.66984 13.64C6.51388 13.8947 6.44704 14.1937 6.44704 14.5149C6.44704 14.9467 6.55844 15.2901 6.79238 15.5448C7.01518 15.8105 7.36052 15.9988 7.81726 16.1095L8.63049 16.3089C8.81987 16.3532 8.98697 16.4086 9.09837 16.475C9.20977 16.5525 9.29889 16.63 9.35459 16.7186C9.39915 16.8183 9.42143 16.918 9.42143 17.0398C9.42143 17.1948 9.38801 17.3277 9.31003 17.4495C9.24319 17.5603 9.13179 17.6489 8.96469 17.7264C8.80873 17.7928 8.60821 17.8261 8.35198 17.8261C8.02892 17.8261 7.75042 17.7818 7.51648 17.7042C7.29368 17.6157 7.1043 17.5381 6.95948 17.4495C6.85922 17.3831 6.75896 17.3499 6.68098 17.3831C6.603 17.3942 6.53616 17.4385 6.48046 17.516C6.42476 17.5824 6.39134 17.6599 6.3802 17.7596C6.36906 17.8482 6.39134 17.9479 6.42476 18.0365C6.45818 18.1251 6.52502 18.2026 6.61414 18.269C6.80352 18.3798 7.02632 18.4905 7.29368 18.5791C7.52762 18.6456 7.7727 18.7009 8.06234 18.7231V19.2879C8.06234 19.4097 8.09576 19.5094 8.1626 19.5869C8.22944 19.6644 8.3297 19.7087 8.4411 19.7087C8.55251 19.7087 8.64163 19.6644 8.70847 19.5869C8.78645 19.5094 8.81987 19.4097 8.81987 19.2879V18.6899C9.09837 18.6456 9.34345 18.557 9.56625 18.4351Z" fill="url(#paint0_linear_11164_67382)"/>
<path d="M8.41882 4.61444L7.68358 5.82154C7.51648 6.09839 7.17114 6.18699 6.90378 6.02087C6.63642 5.86583 6.55844 5.52253 6.7144 5.24567L6.84808 5.02419C4.99884 5.50038 3.61747 7.18367 3.61747 9.17704C3.61747 9.4982 3.36125 9.74183 3.04933 9.74183C2.73741 9.74183 2.48119 9.4982 2.48119 9.17704C2.42549 6.03195 4.92086 3.76172 7.92866 3.76172C8.14032 3.76172 8.31856 3.87246 8.41882 4.04965C8.51908 4.22684 8.51908 4.43725 8.41882 4.61444Z" fill="url(#paint1_linear_11164_67382)"/>
<path d="M21.4192 17.2502C21.4749 20.3953 18.9796 22.6655 15.9718 22.6655C15.7601 22.6655 15.5819 22.5548 15.4816 22.3887C15.3813 22.2004 15.3813 21.99 15.4816 21.8128L16.2168 20.6057C16.3839 20.3399 16.7293 20.2513 16.9966 20.4174C17.264 20.5725 17.342 20.9158 17.186 21.1816L17.0523 21.4141C18.9127 20.9269 20.283 19.2546 20.283 17.2502C20.283 16.9401 20.5392 16.6854 20.8511 16.6854C21.163 16.6854 21.4192 16.9401 21.4192 17.2502Z" fill="url(#paint2_linear_11164_67382)"/>
<ellipse cx="16.3851" cy="8.53709" rx="6.24055" ry="6.24021" fill="url(#paint3_linear_11164_67382)"/>
<path d="M14.4549 4.49219C14.6133 4.49219 14.7417 4.62063 14.7417 4.77906V5.48669L15.3999 5.35506C16.0313 5.22879 16.6858 5.28887 17.2836 5.52799L17.3615 5.55914C17.9586 5.798 18.6159 5.84261 19.2399 5.68662C19.5296 5.61421 19.8101 5.83328 19.8101 6.13185V8.94973C19.8101 9.19618 19.6424 9.41099 19.4033 9.47077L19.3213 9.49127C18.6444 9.66049 17.9314 9.6121 17.2836 9.35299C16.6858 9.11388 16.0313 9.05379 15.3999 9.18006L14.7417 9.31169V12.4291C14.7417 12.5875 14.6133 12.7159 14.4549 12.7159C14.2964 12.7159 14.168 12.5875 14.168 12.4291V4.77906C14.168 4.62063 14.2964 4.49219 14.4549 4.49219Z" fill="url(#paint4_linear_11164_67382)"/>
<defs>
<linearGradient id="paint0_linear_11164_67382" x1="-0.413578" y1="23.7633" x2="25.0934" y2="15.4769" gradientUnits="userSpaceOnUse">
<stop stop-color="#05E0E0"/>
<stop offset="1" stop-color="#02C8C8"/>
</linearGradient>
<linearGradient id="paint1_linear_11164_67382" x1="-0.413578" y1="23.7633" x2="25.0934" y2="15.4769" gradientUnits="userSpaceOnUse">
<stop stop-color="#05E0E0"/>
<stop offset="1" stop-color="#02C8C8"/>
</linearGradient>
<linearGradient id="paint2_linear_11164_67382" x1="-0.413578" y1="23.7633" x2="25.0934" y2="15.4769" gradientUnits="userSpaceOnUse">
<stop stop-color="#05E0E0"/>
<stop offset="1" stop-color="#02C8C8"/>
</linearGradient>
<linearGradient id="paint3_linear_11164_67382" x1="9.73768" y1="3.72211" x2="33.0923" y2="22.125" gradientUnits="userSpaceOnUse">
<stop stop-color="#F9FBFF"/>
<stop offset="1" stop-color="#E2F1FA"/>
</linearGradient>
<linearGradient id="paint4_linear_11164_67382" x1="13.2764" y1="4.63363" x2="22.4884" y2="11.1358" gradientUnits="userSpaceOnUse">
<stop stop-color="#FFAC4B"/>
<stop offset="1" stop-color="#FCCA80"/>
</linearGradient>
</defs>
</svg>
